<?xml version="1.0" encoding="utf-8"?><!DOCTYPE svg  PUBLIC '-//W3C//DTD SVG 1.1//EN'  'http://www.w3.org/Graphics/SVG/1.1/DTD/svg11.dtd'><svg enable_background="new 0 0 1000 1001" height="1001px" pretty_print="False" style="stroke-linejoin: round; stroke:#000; fill: none;" version="1.1" viewBox="0 0 1000 1001" width="1000px" xmlns="http://www.w3.org/2000/svg" xmlns:xlink="http://www.w3.org/1999/xlink"><defs><style type="text/css"><![CDATA[path { fill-rule: evenodd; }]]></style></defs><metadata><views><view h="1001" padding="0" w="1000"><proj flip="auto" id="robinson" lon0="-86.482928375"/><bbox h="0.37" w="0.21" x="-1224.18" y="-526.77"/></view></views></metadata><g class="" id="mylayer"><path d="M579.477041,0.000000L536.447316,167.549950L504.541301,167.459407L376.165829,167.640493L364.248892,216.126218L327.677219,345.874002L326.980892,349.993694L302.685967,491.919147L289.888197,543.754675L286.401573,557.698198L277.189450,594.594193L251.871603,696.725813L216.353760,833.761187L267.519805,834.032813L359.704909,837.065968L379.776632,837.065968L371.935173,867.488049L360.470902,911.944100L342.795250,968.985421L336.132458,999.000000L467.742946,993.793852L484.774123,993.069519L488.914938,992.933706L494.025712,976.047676L498.882795,963.507646L508.092284,939.514078L511.049310,922.039512L517.305743,892.115438L520.295135,882.563272L526.313474,866.492089L537.002388,829.053006L578.447581,653.673010L620.277658,652.767588L626.364190,652.677046L670.217321,649.689153L679.860807,649.191171L742.687182,645.841109L782.048125,488.297449L783.646240,481.823663L780.779408,481.778392L740.091680,481.506764L623.987773,482.774359L625.192816,477.703981L634.498145,438.770707L695.950190,162.343731L718.359186,59.169951L733.152475,0.226358L644.351315,0.226358L634.753391,0.090543L579.477041,0.000000L579.477041,0.000000Z " data-aland="1682655" data-awater="86431" data-classfp="C1" data-funcstat="A" data-geoid="0128936" data-intptlat="+31.4107399" data-intptlon="-086.4835237" data-lsad="43" data-mtfcc="G4110" data-name="Gantt" data-namelsad="Gantt town" data-pcicbsa="N" data-pcinecta="N" data-placefp="28936" data-placens="02406539" data-statefp="01"/></g><g fill="#000" font-family="Arial" font-size="12px" id="mylayer-label" stroke="none"><text text-anchor="middle" y="498.361045876"><tspan dy="0" x="491.969015229"><![CDATA[Gantt]]></tspan></text></g></svg>