<?xml version="1.0" encoding="utf-8"?><!DOCTYPE svg  PUBLIC '-//W3C//DTD SVG 1.1//EN'  'http://www.w3.org/Graphics/SVG/1.1/DTD/svg11.dtd'><svg enable_background="new 0 0 1000 1001" height="1001px" pretty_print="False" style="stroke-linejoin: round; stroke:#000; fill: none;" version="1.1" viewBox="0 0 1000 1001" width="1000px" xmlns="http://www.w3.org/2000/svg" xmlns:xlink="http://www.w3.org/1999/xlink"><defs><style type="text/css"><![CDATA[path { fill-rule: evenodd; }]]></style></defs><metadata><views><view h="1001" padding="0" w="1000"><proj flip="auto" id="robinson" lon0="-75.7689751402"/><bbox h="0.32" w="0.44" x="-1021.76" y="-710.23"/></view></views></metadata><g class="" id="mylayer"><path d="M1000.000000,185.571737L988.561608,152.664209L977.090918,165.657878L958.106898,184.209789L951.374893,189.804820L944.701800,194.884524L930.626615,202.945800L921.013919,207.436561L912.753158,209.645133L880.055904,213.583755L872.995117,214.724852L867.896654,215.497853L857.531074,215.350615L839.443991,213.878232L814.295205,209.203419L797.460994,206.773990L788.704104,206.221847L781.168542,207.583799L755.596942,216.454902L750.584792,219.068382L746.216354,222.197199L741.022439,227.240117L736.387446,233.387330L719.801764,260.847403L714.382503,272.442508L712.140703,275.865829L710.723746,279.289152L710.356538,281.203268L697.195388,274.319813L669.634591,257.644949L650.683101,247.853547L609.602856,226.099019L582.413696,210.454943L575.239629,209.571514L573.597503,208.246371L567.054905,206.000990L565.818175,201.436611L551.909986,192.160624L538.128004,184.872358L530.379660,183.363173L524.304366,179.093285L508.440252,163.302083L451.303277,133.523440L323.486979,270.307535L307.620487,287.460961L271.090565,326.810940L79.416575,530.558509L0.000000,614.488882L66.806682,649.202504L134.160135,686.971722L185.421086,715.243560L247.568870,747.748962L262.582237,755.626852L280.845583,765.124509L302.909447,779.371019L469.325584,865.476560L703.637126,616.366285L753.411384,560.780682L770.275759,542.779883L790.783670,520.582646L909.707737,392.443842L804.410493,333.473589L838.688859,296.000880L878.509537,255.362741L883.747898,250.540660L891.163824,244.651099L899.760728,238.356638L910.526934,231.105131L921.394938,225.215587L977.658072,196.467331L1000.000000,185.571737Z " data-aland="2765340" data-awater="97388" data-classfp="C1" data-funcstat="A" data-geoid="3630411" data-intptlat="+42.3300683" data-intptlon="-075.7676855" data-lsad="47" data-mtfcc="G4110" data-name="Greene" data-namelsad="Greene village" data-pcicbsa="N" data-pcinecta="N" data-placefp="30411" data-placens="02390870" data-statefp="36"/></g><g fill="#000" font-family="Arial" font-size="12px" id="mylayer-label" stroke="none"><text text-anchor="middle" y="484.359043412"><tspan dy="0" x="474.07985707"><![CDATA[Greene]]></tspan></text></g></svg>