<?xml version="1.0" encoding="utf-8"?><!DOCTYPE svg  PUBLIC '-//W3C//DTD SVG 1.1//EN'  'http://www.w3.org/Graphics/SVG/1.1/DTD/svg11.dtd'><svg enable_background="new 0 0 1000 1001" height="1001px" pretty_print="False" style="stroke-linejoin: round; stroke:#000; fill: none;" version="1.1" viewBox="0 0 1000 1001" width="1000px" xmlns="http://www.w3.org/2000/svg" xmlns:xlink="http://www.w3.org/1999/xlink"><defs><style type="text/css"><![CDATA[path { fill-rule: evenodd; }]]></style></defs><metadata><views><view h="1001" padding="0" w="1000"><proj flip="auto" id="robinson" lon0="-72.3611531301"/><bbox h="0.35" w="0.57" x="-982.57" y="-690.21"/></view></views></metadata><g class="" id="mylayer"><path d="M1000.000000,360.828086L989.475726,345.952569L984.444822,346.387524L977.137217,340.211163L965.586526,331.628076L948.795036,321.885147L931.941663,307.531790L924.630185,304.371163L923.766584,300.543619L916.387733,292.714569L883.652215,266.675900L860.517811,249.017306L853.323645,243.914024L841.901879,236.056148L834.535006,230.517955L827.068464,226.342571L801.539433,196.593153L791.867457,192.040884L784.316610,195.259366L777.635565,197.781963L757.928675,206.248629L735.221574,215.324229L715.483565,223.587981L698.501564,230.430968L692.737164,233.011590L690.042718,235.215270L657.489116,251.916903L624.693400,258.643980L609.911983,261.601579L594.608446,264.617174L577.387807,319.565407L576.096266,323.682947L562.650509,325.161783L550.025558,327.974474L536.846446,310.605432L531.017720,315.563861L515.073246,324.262882L503.209135,329.047356L485.191384,335.078706L467.453163,339.109279L438.326510,345.459619L437.284401,341.516027L435.743056,335.832626L433.528634,327.452531L424.045178,293.265502L422.305633,287.002278L421.320338,283.406730L413.340765,253.221722L389.709215,265.864008L388.655855,306.081961L387.343465,307.937743L386.114983,311.707304L385.992873,314.490984L385.057603,319.594404L385.726302,322.755050L385.975352,326.553629L387.304070,327.423534L351.383305,335.223691L350.761622,292.366612L337.800697,301.558497L338.334897,324.726831L320.766007,334.005821L311.780413,377.588517L279.453395,401.685450L280.897875,432.742115L288.183744,491.231722L185.353981,529.365217L178.807951,515.474701L145.879630,522.463448L140.798825,530.786172L136.584205,541.051868L135.588306,547.547696L136.303494,585.624017L93.360949,583.797037L63.208818,537.426971L49.367506,552.303581L51.429894,512.893799L45.840879,519.128566L37.967777,528.234254L23.651757,546.097733L12.485311,559.582422L7.311656,565.643304L3.408951,570.428222L0.000000,574.343160L31.698793,597.629919L11.548908,625.875906L93.818036,666.157418L99.470005,660.850314L107.408347,654.992213L117.849036,649.859135L128.229336,645.741080L138.644669,643.015047L149.683517,640.289017L155.025304,639.332007L160.320277,638.897003L200.962595,639.593010L210.810438,636.315978L227.228901,630.486933L226.225567,608.098878L212.550896,572.226193L269.536403,543.226809L258.879268,619.089881L272.265258,614.420874L280.046190,610.331875L292.681128,605.836883L310.806485,599.543908L314.054765,570.602219L355.498841,561.728378L407.791386,555.754503L420.998614,552.245582L421.820832,545.691744L422.991807,533.541086L426.790588,533.135099L431.183439,532.671113L459.980356,527.654273L462.633933,506.282061L429.737723,514.372742L430.412486,509.181944L434.886317,482.938123L437.068443,468.148904L471.558197,460.174360L474.359236,448.778054L518.445599,441.615516L525.133266,416.851264L567.211079,417.402222L545.628227,447.357144L548.135804,446.864176L559.268434,448.198091L563.065307,432.858107L575.731932,432.017165L571.895411,442.601451L569.437914,448.343082L567.109209,455.708626L563.173691,467.278953L559.452266,477.428404L557.787361,483.692086L552.923968,496.741470L547.141408,511.617848L542.271701,525.363349L539.420116,537.745961L527.297109,545.894739L523.907598,557.784459L522.601134,565.179313L517.203133,579.679087L514.785903,590.176973L512.084541,599.311909L508.131992,616.044875L503.975081,638.374998L497.568389,660.241303L489.583967,690.054017L485.255487,706.990574L482.358265,718.243006L479.867691,731.902595L478.502730,740.835019L494.895006,759.425001L501.695189,766.820428L522.645838,784.279521L532.084907,794.227196L547.853973,806.959116L552.035104,803.101831L618.778549,736.687818L676.104115,683.325826L730.717431,627.644915L771.530098,588.900985L787.424511,573.821168L836.668610,524.145390L891.137654,471.251733L941.062550,420.649980L968.841268,393.740107L990.324992,373.325906L1000.000000,360.828086Z "/></g><g fill="#000" font-family="Arial" font-size="12px" id="mylayer-label" stroke="none"><text text-anchor="middle" y="462.586270697"><tspan dy="0" x="577.421286999"><![CDATA[N]]></tspan></text></g></svg>