<?xml version="1.0" encoding="utf-8"?><!DOCTYPE svg  PUBLIC '-//W3C//DTD SVG 1.1//EN'  'http://www.w3.org/Graphics/SVG/1.1/DTD/svg11.dtd'><svg enable_background="new 0 0 1000 1001" height="1001px" pretty_print="False" style="stroke-linejoin: round; stroke:#000; fill: none;" version="1.1" viewBox="0 0 1000 1001" width="1000px" xmlns="http://www.w3.org/2000/svg" xmlns:xlink="http://www.w3.org/1999/xlink"><defs><style type="text/css"><![CDATA[path { fill-rule: evenodd; }]]></style></defs><metadata><views><view h="1001" padding="0" w="1000"><proj flip="auto" id="robinson" lon0="-84.5875098519"/><bbox h="0.3" w="0.4" x="-1131.36" y="-733.38"/></view></views></metadata><g class="" id="mylayer"><path d="M1000.000000,148.008183L991.812643,147.886552L998.994111,127.938964L840.354592,128.506578L773.201975,133.817827L763.102935,136.007197L753.541049,138.439829L743.731606,141.480620L724.691917,149.265043L702.136629,159.928078L688.782854,166.658358L676.594314,172.253409L661.278483,175.578004L652.629473,176.672687L641.274098,204.404663L633.992784,221.716866L632.126961,226.136139L629.006899,233.636739L607.803195,283.343381L524.255781,282.451419L441.259206,281.275651L464.349755,224.798194L617.795045,225.973963L618.800795,223.338617L619.595340,221.797953L631.508635,194.998498L631.354699,191.592817L629.471059,190.133239L609.876505,177.564652L584.947666,160.333517L569.589826,150.765166L560.243176,147.075674L541.504669,140.548111L531.744967,137.791127L398.596221,137.264057L301.475811,136.818074L289.502062,136.209916L246.824858,129.925614L245.534063,132.520423L184.601441,280.545864L224.583964,281.032389L274.426768,281.397282L231.515569,381.134736L221.192704,407.974610L217.611117,405.339276L212.600490,401.690351L202.883482,394.879024L193.702042,416.529309L200.701340,425.246181L205.567289,429.908693L209.724347,433.598159L200.753007,442.558288L175.867753,461.411043L171.162174,464.086918L10.080741,554.620557L0.000000,574.203042L0.000000,574.203042L30.590915,574.567933L49.962841,574.689564L77.045724,548.052517L100.979354,523.969692L114.620899,512.009362L114.757466,515.293385L113.260224,528.267302L99.066356,560.093924L108.546939,574.973368L148.325247,549.147190L137.512629,575.135541L152.681922,575.216628L89.655873,729.159772L51.656649,820.138809L36.107882,857.438536L32.707368,865.547168L198.994281,867.047264L365.049801,869.033879L698.790118,871.061036L721.593246,815.841229L722.713546,812.841032L725.416063,805.705427L732.640222,787.704237L758.579724,724.943270L789.237566,653.222127L819.338246,580.568362L848.835254,507.590120L939.598246,286.789598L940.490257,284.762412L1000.000000,148.008183Z " data-aland="3257915" data-awater="25375" data-classfp="C5" data-funcstat="A" data-geoid="2617100" data-intptlat="+43.7591605" data-intptlon="-084.5869169" data-lsad="25" data-mtfcc="G4110" data-name="Coleman" data-namelsad="Coleman city" data-pcicbsa="N" data-pcinecta="N" data-placefp="17100" data-placens="01626110" data-statefp="26"/></g><g fill="#000" font-family="Arial" font-size="12px" id="mylayer-label" stroke="none"><text text-anchor="middle" y="497.015524405"><tspan dy="0" x="501.866418622"><![CDATA[Coleman]]></tspan></text></g></svg>