<?xml version="1.0" encoding="utf-8"?><!DOCTYPE svg  PUBLIC '-//W3C//DTD SVG 1.1//EN'  'http://www.w3.org/Graphics/SVG/1.1/DTD/svg11.dtd'><svg enable_background="new 0 0 1000 1001" height="1001px" pretty_print="False" style="stroke-linejoin: round; stroke:#000; fill: none;" version="1.1" viewBox="0 0 1000 1001" width="1000px" xmlns="http://www.w3.org/2000/svg" xmlns:xlink="http://www.w3.org/1999/xlink"><defs><style type="text/css"><![CDATA[path { fill-rule: evenodd; }]]></style></defs><metadata><views><view h="1001" padding="0" w="1000"><proj flip="auto" id="robinson" lon0="-79.8304301605"/><bbox h="0.51" w="0.77" x="-1098.61" y="-645.59"/></view></views></metadata><g class="" id="mylayer"><path d="M1000.000000,525.743361L941.688867,510.064411L932.010437,512.809319L937.373229,481.078357L862.511776,422.887594L853.071663,412.215764L861.065779,405.123192L847.728082,391.179645L841.542751,396.713138L836.850058,389.971939L838.859211,388.105487L839.422123,387.600447L843.389235,383.977337L844.381575,383.055092L847.002594,380.639689L849.091856,378.685410L850.992004,376.884839L852.193505,375.743015L856.948243,371.461177L859.702823,368.782287L862.875792,365.488574L864.106271,364.193048L866.622931,361.360459L867.624278,360.174725L867.940268,359.779480L870.441530,356.529694L871.358414,355.212214L870.586830,354.707180L869.090292,353.894734L866.448442,352.752920L862.076353,351.215862L861.622659,351.128030L858.962807,350.513207L855.102014,349.634889L851.158651,349.437268L850.200063,349.371394L847.918160,349.151815L846.025531,348.822445L843.850389,348.602866L839.778334,347.658675L837.963634,347.131685L833.518579,344.606524L829.925508,341.795914L828.504739,340.676062L825.621532,337.053015L824.734418,336.284491L823.840623,335.537924L823.218008,335.186599L821.223434,334.022834L820.298410,333.495847L816.925201,331.541602L815.593261,330.773079L810.812294,328.533385L808.150599,327.106130L806.547414,326.118031L803.232112,324.032045L803.056510,323.790509L802.645089,323.680721L801.989147,323.263524L798.302836,320.233358L797.333689,318.915896L797.104708,318.674362L795.748619,317.225154L794.057029,315.007429L792.007169,313.206901L789.886061,311.582035L784.394782,306.356123L779.903493,303.106401L778.731722,302.337886L777.310929,301.393711L773.901976,299.966470L772.534322,299.549277L771.269080,298.912508L770.819905,298.692933L769.361113,298.165952L768.862987,297.990292L767.568762,297.507227L765.590033,295.882370L762.496086,291.490872L761.500333,290.085594L760.308858,288.680317L758.561456,287.055466L758.001182,286.616317L755.371064,284.442532L754.917466,284.179043L753.703445,283.432491L751.802598,281.785686L749.914784,280.797604L745.456001,279.546033L744.304050,279.238630L740.817206,278.009017L740.492589,277.789443L739.883369,277.394211L738.885128,276.581789L737.836193,274.825201L737.578408,274.386054L737.160999,272.892956L736.901560,271.290072L736.979931,270.214164L736.527287,268.018435L735.773903,266.810785L732.352267,264.197870L730.549014,263.165880L726.193566,259.938167L722.856226,257.808318L719.954511,256.293272L718.526736,256.073700L717.065545,255.963914L713.424583,256.117614L712.354836,256.007828L711.256188,255.876085L708.063019,254.558654L702.587738,249.223067L701.628001,247.115183L698.600773,243.206820L697.492022,241.120898L695.956155,239.210634L695.100754,237.519942L693.491555,235.499896L692.106984,233.501808L690.953724,231.503722L689.435668,229.593465L685.900045,224.082271L684.373155,222.084192L674.813925,213.916235L673.398430,211.610767L672.040165,210.403142L667.912875,205.199383L664.940467,199.007581L663.225084,196.109296L661.508823,194.791894L659.026984,194.352760L656.345298,193.342753L653.434769,191.915570L652.652286,191.212957L651.189357,190.290777L648.841914,188.182940L644.800249,185.152927L642.983735,184.164880L639.879867,182.496179L637.903123,181.683785L633.860572,180.234651L631.866037,179.422259L630.074010,178.412257L628.735646,177.490082L627.639696,176.589864L626.290431,175.294429L625.265552,174.569863L620.765140,172.637690L619.121737,172.308343L616.740404,171.188562L614.474260,170.859214L612.363622,170.837258L610.568209,171.825300L605.624419,175.030950L598.208993,179.400302L595.741573,180.959218L592.624668,182.605962L586.831561,185.328580L578.720568,188.709899L576.093421,189.566208L573.526440,190.224908L569.240249,190.861650L563.659818,191.191000L552.848018,192.047310L545.274285,193.254927L540.825898,193.606233L530.589833,194.967548L518.905245,197.404741L513.917821,199.117364L504.181683,201.291081L501.886315,201.466735L499.517616,201.532605L491.241411,202.125437L486.074930,201.971740L483.426177,201.730215L480.817328,201.708259L475.957434,202.125437L473.076957,202.586529L469.742817,202.959793L466.333188,203.113491L463.559886,202.871966L456.449153,203.376972L454.743101,203.662409L450.723359,205.001772L448.892233,206.165481L447.950849,207.153536L447.943640,208.053764L448.209589,209.634654L448.072679,211.720551L449.041893,216.309531L449.269280,219.185882L449.132384,221.271786L447.787122,224.521410L446.167049,226.102309L444.491438,227.573424L442.273095,229.132368L440.472935,230.603486L437.733258,233.699421L437.419467,234.028776L435.387086,237.080802L433.857637,239.649775L432.766228,242.416365L430.359302,247.049312L429.161647,248.937624L428.429474,249.706124L426.753874,251.177252L425.516814,251.967709L423.788236,252.736210L420.293432,253.987768L418.020057,254.558654L415.849217,254.734312L414.357071,254.317125L410.741079,253.570582L408.083446,253.241224L404.262889,252.406852L402.739784,251.682266L401.029500,251.572481L399.047596,251.945752L397.288053,252.406852L396.562763,252.802081L395.305846,253.307096L393.857628,253.856025L392.329090,254.844098L391.557005,255.393027L390.335471,256.249357L388.846942,257.281345L387.869885,258.445077L386.934899,259.938167L386.718317,261.409301L388.382871,263.714811L389.015834,265.317690L389.150596,266.920571L388.947591,267.996478L388.548963,268.896726L387.202485,270.455694L385.673952,271.443773L384.345763,272.124450L381.193641,273.068615L379.894651,273.244273L373.941368,271.992706L368.468501,270.741139L367.023343,269.818933L360.445557,267.754947L355.649240,265.800750L350.323360,264.241785L345.058999,264.000255L342.087366,264.351571L338.995401,265.098118L333.787314,267.535375L328.413854,271.333987L324.326726,273.771249L322.124004,275.220433L317.722479,279.041013L315.617268,281.105007L310.048551,287.999636L308.152140,290.546701L306.411247,293.401173L304.361091,296.453266L298.336084,304.028619L294.112131,308.551883L288.704403,314.041292L285.331182,316.588381L282.301137,317.949758L279.462490,319.091558L278.040712,320.079654L276.734541,321.155582L274.773767,323.505059L273.093070,326.161946L272.943557,327.062214L272.918598,327.962483L273.111774,328.555343L274.242992,330.158261L275.352187,331.365939L279.509665,334.483948L280.852343,335.801418L282.072919,336.701690L283.866833,338.524191L284.090989,339.424463L283.914749,340.412567L281.934139,342.476608L279.315418,344.123450L272.385918,346.429031L270.506042,347.285390L268.977513,348.273497L267.344296,349.547058L265.933449,350.908451L263.694418,353.762987L259.865405,360.262557L259.006250,361.448291L257.973772,362.326613L254.647561,364.368712L252.300448,365.532490L247.706666,367.179346L246.999171,367.574592L245.174841,368.540748L243.450495,369.704528L241.941837,370.978098L239.177872,373.920488L236.462680,377.170295L233.462342,381.298435L231.352137,384.548251L230.699738,385.931620L229.922424,388.017654L229.961444,389.993898L230.672103,392.101893L230.237838,393.177850L229.140967,393.858557L226.614202,394.034223L224.016173,394.385556L219.860450,396.230055L217.559946,397.591472L215.359429,399.150514L211.716477,402.993228L208.874594,406.133278L207.568449,407.209240L206.954439,407.472741L205.564019,408.065619L203.966849,408.460870L198.824249,408.987873L196.219530,409.361166L194.301986,409.932085L190.662271,411.776595L188.266381,412.632974L185.532412,413.489354L174.673770,418.122595L172.469003,419.286396L162.465242,422.338631L162.042622,422.382548L161.386251,422.843677L160.209262,423.612226L159.027670,424.688195L156.646340,427.542809L154.660723,430.792681L152.310736,433.252046L151.244412,435.118530L150.235811,437.204602L149.066199,441.047370L148.504184,444.121588L148.367483,446.207667L147.299373,451.763232L145.389849,463.357490L145.162034,465.333790L145.509732,473.195082L145.321451,476.269337L145.362370,483.911071L145.479105,486.392444L145.174829,490.257241L144.878372,491.640664L144.283768,493.243678L144.145684,493.638943L142.327413,495.988569L141.506400,496.581466L139.408416,497.745300L136.614297,498.799340L131.958501,499.831420L130.686198,499.919257L127.981767,499.392237L127.312362,499.194605L125.646741,498.469952L120.398837,495.659182L114.678863,498.843258L109.444737,509.669145L101.050299,514.917410L84.493950,512.897156L81.531059,513.336341L73.747941,514.412346L62.275356,519.133596L41.655793,530.640306L37.042431,536.152125L33.708705,540.148750L26.630547,556.508621L26.299556,560.637034L23.369119,568.279006L13.295506,594.367279L13.340832,597.727150L6.978481,610.859237L6.647630,614.987733L10.595047,622.366335L3.363621,628.646948L0.000000,635.608343L0.142953,645.666162L4.881129,656.470674L12.430860,673.709668L10.095220,680.275887L8.915172,683.569983L15.671827,685.985655L19.619693,693.364451L30.787682,694.440527L31.568518,694.155037L33.839847,693.298568L39.295998,693.671901L41.929544,693.847587L45.033973,696.043661L49.358111,702.653855L56.550162,707.089942L73.774274,717.740970L74.578925,719.541767L89.623318,722.967676L96.822699,733.113662L97.060607,733.443078L99.696786,747.651916L102.259799,761.575332L102.613118,762.871048L102.657533,763.134583L102.777421,763.969112L102.618793,766.538585L102.302210,769.217868L102.354982,771.501848L102.670151,774.093290L102.963372,775.586664L103.256595,777.080039L104.010339,778.287917L105.344593,779.693447L109.649882,783.910044L112.229614,786.018345L115.080847,787.643495L117.502808,789.158838L127.091283,792.387181L129.226510,793.089949L134.713665,794.649219L136.848895,795.351988L141.172660,797.108913L143.443576,797.833645L145.205115,798.536415L147.166797,799.458801L148.490183,799.963918L150.705353,801.281613L152.362367,801.918500L154.559910,802.533425L156.808682,802.862849L160.102841,803.499736L163.087768,804.334277L165.467785,804.641740L167.296196,804.773510L169.173594,804.685663L171.075546,804.224469L172.935189,803.960930L176.018292,803.477774L177.608809,803.104427L179.553069,802.445578L183.390481,800.886305L185.179104,799.919995L189.661898,796.999105L194.883369,793.287603L198.106871,791.640489L199.457134,791.354989L202.066524,790.498490L203.863860,790.322798L205.351961,790.344759L208.321405,790.762028L209.380066,791.376950L211.054512,793.595065L214.320926,798.887800L216.077297,802.884811L217.100184,804.378201L217.885060,805.893553L219.675187,808.199526L221.938921,811.405929L226.464550,816.127694L230.572324,819.356069L231.755573,819.970998L233.261157,821.574206L234.366513,822.386791L235.402857,823.484880L241.063243,826.932881L243.583336,827.657621L245.260485,827.877239L247.353634,827.899201L253.128106,828.162742L256.547044,827.921162L258.313305,827.438003L261.013692,827.569773L262.105941,827.196423L263.858779,827.108575L265.235750,826.735225L268.330103,825.571249L269.515835,824.890434L270.839556,823.814306L272.997650,821.574206L274.308086,820.190615L277.478613,816.259465L278.744545,814.963724L281.856868,812.921286L285.698788,810.878849L287.453999,810.022344L289.289269,809.253685L293.471321,808.199526L297.097075,808.155602L302.319700,809.297609L304.370538,809.517225L308.352194,809.473302L310.398661,809.297609L312.440757,808.726606L323.291717,806.574364L333.197194,805.015088L337.130104,803.960930L341.085352,802.423617L343.436842,800.776497L345.258818,799.700379L346.782788,798.316799L348.244494,796.845374L349.730707,795.176296L349.904251,794.956680L353.555444,789.971414L354.719149,788.192532L355.780632,785.930499L360.184985,774.664286L362.198829,770.908891L363.616231,768.646873L366.722139,765.396597L368.275038,764.034996L369.494159,763.244390L372.399469,761.882790L374.808571,761.333758L379.321832,761.180029L382.787547,760.433345L386.291202,759.093708L389.870704,756.743855L393.917579,753.208097L395.899907,751.253550L399.628835,747.124848L403.179507,744.401665L404.876928,743.325570L406.665522,742.359280L411.570447,741.327107L414.028526,740.558468L415.850510,739.482374L424.111032,732.740324L427.875204,730.192844L431.407884,728.348118L435.770400,725.822603L437.550076,724.944164L444.982244,722.155120L447.291444,720.705697L449.496034,719.541767L451.589498,717.982540L452.305887,717.323713L453.869949,715.808409L459.418564,711.020935L461.609880,709.549557L468.383803,706.057782L473.246601,704.344838L482.048945,701.555815L487.062807,700.633462L490.047912,700.413854L494.805846,700.040521L497.904520,699.271893L500.858514,698.920521L504.108461,698.064051L511.704944,696.373072L515.121761,695.318956L516.376467,694.528370L517.030553,693.957390L518.232041,692.464061L521.249411,687.457021L522.949740,683.504101L524.494450,679.243738L524.385870,677.552771L524.659681,676.652386L525.175939,675.773963L526.108193,674.697894L529.026932,672.941048L530.401680,672.457916L532.839793,671.403809L535.099917,670.525387L537.395673,669.471281L551.543626,664.200757L552.553563,663.805468L554.731433,662.729404L559.877117,659.325532L562.155251,657.568696L565.986430,653.923265L570.078074,649.421384L574.343458,643.997177L576.272616,641.339978L579.485767,636.508714L583.357367,631.501776L589.128866,625.221157L594.330911,619.116234L595.959546,617.447265L597.196707,615.778296L600.887772,612.242722L602.302686,611.276479L606.313665,609.146353L608.329246,607.784830L610.542709,606.708788L615.314308,604.886106L619.814409,603.546546L625.119640,602.426586L629.964363,601.592106L634.615493,601.043106L636.659544,601.284666L638.979334,601.789746L643.358634,602.953626L645.753993,603.678306L648.182747,604.293186L656.331733,607.279749L662.321222,609.234193L665.143700,609.783194L669.441095,609.519674L675.164504,608.311871L677.558091,607.345629L680.287619,606.093907L682.977167,604.622586L689.308557,600.538027L693.508516,598.605549L698.302223,597.178152L706.134681,594.301399L711.584809,591.885808L716.603484,589.250620L721.539772,586.944832L723.624125,586.176237L725.772929,585.605280L730.192714,585.056284L732.577185,584.880605L742.541622,586.110357L745.855737,586.329956L748.264590,586.483675L751.218293,587.010712L756.961208,587.669508L759.877174,587.911067L763.324771,588.042826L766.467716,587.889107L769.546207,587.537749L772.827157,586.988752L776.050332,586.220157L778.677422,585.363722L783.922503,584.441408L785.808913,583.563014L787.730957,582.508942L789.806380,581.828187L793.816889,581.279191L798.285340,581.740348L800.838652,582.355223L804.408079,584.485328L805.221911,585.495481L806.236006,586.198197L806.800722,587.208351L807.692456,588.020866L809.046840,588.833382L810.757811,595.904474L811.820396,598.495749L812.901157,599.505908L814.308395,602.602266L815.015110,605.193547L817.043087,607.653070L817.192079,607.806790L819.729461,610.112595L825.002736,612.374482L829.181964,613.318766L832.803010,613.757967L834.153061,614.175209L835.042621,614.877932L836.805954,617.271584L837.929043,618.084108L840.678019,619.226035L842.795089,621.334208L847.299894,628.932430L848.613745,632.336265L849.607739,633.631920L850.403651,635.520502L851.295287,637.035760L853.138310,641.625462L854.123436,642.833279L857.543889,645.512440L858.653651,646.368893L860.008095,647.181427L865.915650,648.235524L869.621337,648.279445L870.675617,648.499048L872.257154,648.213564L873.095696,648.323365L875.228895,647.862198L876.114110,648.169643L876.625576,648.828454L878.839199,646.522616L880.832647,644.063058L883.166564,640.834891L884.846464,638.002013L887.089423,633.609959L891.172456,626.385047L893.364079,622.981220L899.028862,614.592451L899.502778,613.911688L901.932460,610.310236L903.883865,606.994269L904.914147,604.951986L905.170058,604.402986L905.541689,603.590466L905.879969,602.712066L906.089176,602.141106L908.272458,596.365633L909.772508,592.368926L914.257117,580.488638L914.793506,579.017330L916.153440,575.130447L916.609863,573.219947L916.885941,572.078040L917.273681,569.047596L917.331794,567.861771L917.325284,567.181020L917.314336,566.456350L917.296626,566.104994L917.159133,564.392138L916.983687,563.272194L916.757013,562.437726L916.454641,561.910694L915.522968,560.702913L914.606764,559.912365L912.304860,559.055939L909.844964,558.484988L908.541600,558.265392L908.107906,558.111674L907.242760,557.738360L906.350988,557.101531L905.465983,556.091388L904.903557,554.839690L906.051123,555.454559L908.012824,555.849832L909.774441,555.849832L912.363505,555.761994L914.652353,555.432600L916.945725,554.795771L921.225620,553.126841L923.016275,552.621770L923.507875,552.468053L925.776731,552.028861L930.140851,551.545750L934.502686,551.304195L944.442902,551.326154L950.859932,551.172437L956.754169,551.392033L959.498854,551.611629L961.164736,551.984942L963.072973,552.731568L964.445148,553.544073L965.901732,554.839690L968.925942,558.177553L972.105955,561.120146L972.290534,561.273864L977.683269,566.126954L978.881995,566.807705L980.298770,567.181020L986.762366,567.751972L986.328746,567.246899L986.193189,566.697906L986.331262,565.951276L990.602263,554.422458L994.704527,541.927469L996.910539,534.614963L999.401287,527.302477L1000.000000,525.743361Z "/></g><g fill="#000" font-family="Arial" font-size="12px" id="mylayer-label" stroke="none"><text text-anchor="middle" y="496.005262915"><tspan dy="0" x="462.010535388"><![CDATA[N]]></tspan></text></g></svg>