<?xml version="1.0" encoding="utf-8"?><!DOCTYPE svg  PUBLIC '-//W3C//DTD SVG 1.1//EN'  'http://www.w3.org/Graphics/SVG/1.1/DTD/svg11.dtd'><svg enable_background="new 0 0 1000 1001" height="1001px" pretty_print="False" style="stroke-linejoin: round; stroke:#000; fill: none;" version="1.1" viewBox="0 0 1000 1001" width="1000px" xmlns="http://www.w3.org/2000/svg" xmlns:xlink="http://www.w3.org/1999/xlink"><defs><style type="text/css"><![CDATA[path { fill-rule: evenodd; }]]></style></defs><metadata><views><view h="1001" padding="0" w="1000"><proj flip="auto" id="robinson" lon0="-80.3044863094"/><bbox h="0.3" w="0.34" x="-1099.95" y="-661.32"/></view></views></metadata><g class="" id="mylayer"><path d="M1000.000000,347.994324L866.324051,309.217995L550.083162,217.450538L492.698565,200.832627L465.241537,192.842329L331.547717,154.018542L302.212356,145.538146L285.853565,140.783250L214.158421,119.999031L184.799211,111.469691L161.420741,104.705055L91.165823,84.411219L67.747613,77.646630L66.844017,77.352518L64.013437,76.470181L63.069910,76.176069L56.705764,74.362378L41.738466,69.999719L37.525119,68.823272L36.437651,68.480142L31.136839,66.960566L28.281602,82.401448L26.121636,93.822839L20.542999,111.273614L17.169070,128.822506L14.170185,144.214618L7.113719,196.273743L3.255041,224.509496L0.000000,300.492149L4.513524,318.973318L14.216859,339.072303L15.263852,341.278295L25.954238,354.465254L41.659496,367.456169L71.228658,388.241724L116.296554,408.144978L139.880392,421.969466L157.998445,437.019585L163.370612,444.275039L176.307401,461.776425L182.029192,466.580741L187.735220,471.434086L206.199299,487.023662L241.928555,523.791779L257.802966,542.715239L266.081043,555.461664L286.374243,586.592532L308.363386,610.467872L344.558901,633.755050L429.744501,668.367409L454.920829,674.642771L471.483881,681.996724L488.830331,693.370865L499.849466,704.303799L512.914429,725.140194L516.635456,742.250636L512.836079,769.705944L512.259978,771.372880L503.144450,797.602698L457.728255,867.664149L439.851162,889.972295L422.813678,914.388830L426.762970,915.271359L430.656559,916.202916L436.852677,917.673798L450.659446,920.811680L478.565100,928.166100L492.373976,931.794286L507.262396,931.941375L528.396456,932.039434L552.791731,928.950573L568.198382,926.989392L605.471094,884.726192L676.892778,803.584102L714.956266,755.389938L750.080392,710.873380L768.299238,689.988035L798.462952,650.963139L853.730256,579.336811L931.899251,461.727401L946.258342,440.059030L971.850679,395.889267L977.482178,386.329840L986.492420,370.985784L994.392575,357.602679L1000.000000,347.994324Z " data-aland="2011682" data-awater="0" data-classfp="U1" data-funcstat="S" data-geoid="5434180" data-intptlat="+39.3648094" data-intptlon="-080.3069818" data-lsad="57" data-mtfcc="G4210" data-name="Gypsy" data-namelsad="Gypsy CDP" data-pcicbsa="N" data-pcinecta="N" data-placefp="34180" data-placens="02586821" data-statefp="54"/></g><g fill="#000" font-family="Arial" font-size="12px" id="mylayer-label" stroke="none"><text text-anchor="middle" y="436.704146799"><tspan dy="0" x="483.990633341"><![CDATA[Gypsy]]></tspan></text></g></svg>