<?xml version="1.0" encoding="utf-8"?><!DOCTYPE svg  PUBLIC '-//W3C//DTD SVG 1.1//EN'  'http://www.w3.org/Graphics/SVG/1.1/DTD/svg11.dtd'><svg enable_background="new 0 0 1000 1001" height="1001px" pretty_print="False" style="stroke-linejoin: round; stroke:#000; fill: none;" version="1.1" viewBox="0 0 1000 1001" width="1000px" xmlns="http://www.w3.org/2000/svg" xmlns:xlink="http://www.w3.org/1999/xlink"><defs><style type="text/css"><![CDATA[path { fill-rule: evenodd; }]]></style></defs><metadata><views><view h="1001" padding="0" w="1000"><proj flip="auto" id="robinson" lon0="-159.547367125"/><bbox h="0.58" w="0.5" x="-2312.58" y="-372.51"/></view></views></metadata><g class="" id="mylayer"><path d="M934.250600,0.000000L933.106258,0.173644L923.769384,2.488898L917.257085,4.514745L909.631453,7.987625L906.621724,10.013472L897.228527,15.946309L889.096520,21.039866L886.748290,22.023849L882.378065,24.686391L875.958578,29.635244L868.573386,35.741725L862.263244,39.156723L858.753914,40.979985L850.711499,43.121594L843.379106,44.626509L836.022943,44.829093L832.348741,45.813076L829.130126,48.273032L825.581521,51.051336L820.451510,55.247732L815.614708,57.476163L811.970532,59.038958L808.935553,60.167644L803.077749,62.077728L800.076306,64.769209L796.274792,69.255011L793.116509,73.769754L790.812862,78.168734L788.771412,82.220426L784.565146,87.921735L781.433139,91.134148L778.566043,92.291774L771.697482,93.044231L765.985265,93.275756L763.618752,92.436477L764.594906,88.442667L761.883853,85.085551L757.761489,79.673648L747.244390,69.631240L737.476155,61.990906L729.067954,57.707688L725.108537,57.534044L713.725152,57.534044L712.519513,57.852391L708.761494,59.270484L699.628765,64.364040L691.547820,70.152172L691.157283,70.412637L679.212997,76.142888L667.643226,79.181657L663.301271,79.036953L658.934297,78.892250L658.492465,77.560980L658.142702,76.461235L658.036873,76.085006L657.551257,74.030220L657.385634,73.393525L657.040626,71.975433L656.114689,68.184207L655.776691,65.840013L655.661857,65.000734L656.177246,60.949042L658.789225,50.530404L660.593101,45.031678L662.079245,40.401172L662.909884,38.085919L660.020279,36.638885L657.776157,34.613039L653.925867,32.008379L651.490838,31.342744L649.712790,30.850752L640.455986,30.850752L636.630669,31.140159L631.514384,32.587192L627.326275,34.323632L622.993051,36.638885L618.587271,39.243545L609.960874,42.716425L607.394723,43.671467L603.626181,45.031678L599.543146,47.346931L596.856147,49.083371L593.411068,52.845657L591.578943,55.363494L589.998509,57.476163L586.230701,61.527855L585.345544,62.164550L582.898229,63.843108L579.961054,65.579547L573.481261,68.473613L569.615904,69.920646L564.249440,71.367679L560.351563,71.946492L559.722849,71.859670L554.314614,71.078273L552.708433,70.499459L550.206588,70.499459L549.310924,71.078273L548.165076,71.657086L546.979193,73.393525L546.543865,75.129965L546.681462,76.576998L546.496320,78.313437L545.125303,81.786316L543.761796,83.233349L538.920724,87.574447L531.505256,92.204952L529.318647,93.941391L522.250959,101.176555L517.769929,105.778118L503.562075,120.537850L497.556219,126.731149L490.760558,133.879489L487.453419,137.091901L484.113263,140.535838L479.199721,145.166342L478.554256,145.745154L475.109290,149.507438L473.060350,152.690909L468.204477,161.083696L467.707637,162.067678L464.857186,167.450637L464.497439,168.087331L460.924254,174.656856L459.783729,176.711642L458.057550,179.605706L456.226275,181.920957L449.753989,182.789176L448.107786,183.367989L447.212141,183.946802L446.494140,184.815021L445.966806,186.319934L444.905630,189.156117L443.772202,193.178865L443.178103,195.349413L442.624274,197.259495L442.721963,199.864152L442.536904,201.600590L440.850727,203.337028L439.066545,206.462617L438.109909,208.083293L431.194238,212.916378L430.445454,213.408369L428.797330,215.492095L424.731723,218.936030L416.751372,225.621316L412.681041,229.383598L408.747057,233.001177L404.237647,236.618755L402.123652,238.065787L400.292421,240.381037L399.429364,241.828069L398.858540,243.506625L398.526349,244.432725L396.437560,248.773819L394.711455,251.667882L393.130423,253.983132L387.709311,260.639476L383.078725,266.138195L378.593215,271.058101L376.656890,272.794538L369.898042,275.804363L366.812326,277.135631L360.227558,279.450881L359.186865,280.608506L358.646547,281.766131L358.501483,282.344943L359.976121,282.750112L362.991412,283.097399L365.222303,285.875699L366.150844,287.062265L373.273122,289.290692L378.558607,289.464336L389.497692,287.843661L392.258481,287.409552L398.296085,285.181124L393.615025,293.776488L381.577115,320.546559L380.268092,322.774986L378.030449,325.813751L376.296110,328.042178L369.934113,340.949691L367.977452,346.361585L364.767015,348.590012L360.407133,352.410172L353.387619,357.359017L344.935510,362.134217L341.295394,365.578149L335.632717,370.903221L332.208347,374.983846L326.142106,382.218997L314.181910,397.499635L312.773597,399.525477L284.595143,450.576689L280.570141,457.753955L276.316667,462.847499L269.852445,467.477994L259.080129,468.433033L255.305687,474.510557L253.975033,476.825804L251.411719,484.060950L248.866744,496.215996L247.818970,499.399460L246.586349,504.319359L244.443834,513.869751L243.954666,520.815490L243.722856,525.735389L242.838307,529.266139L242.272779,531.523504L241.409878,532.970533L240.119098,534.128156L236.714460,536.732808L232.124232,541.073895L228.139583,545.993792L225.083208,551.203096L222.599729,556.122993L220.623761,559.017051L218.219912,561.621702L217.639066,562.142633L216.283758,563.358137L213.742028,564.515760L206.149531,568.856845L204.536072,570.303874L203.350499,572.040308L202.270122,574.355554L200.972250,577.539016L198.956503,581.590696L196.505777,587.378810L193.337189,594.035140L190.089036,603.006716L185.554592,622.107488L180.889420,637.735390L181.658618,642.655285L183.026383,650.179830L182.979576,653.363292L182.504876,656.257347L181.819748,657.993780L180.416767,660.598430L177.077696,664.939514L176.538955,665.691968L173.302539,670.322457L165.719990,681.117283L163.069100,684.908495L161.738631,687.223739L160.085483,689.828389L159.070690,693.880066L158.785197,695.819082L158.193870,699.378770L157.263335,710.086773L155.893152,713.559638L151.165214,716.453693L143.895596,720.505369L142.516515,722.415445L135.241165,732.284170L123.351192,748.490873L114.488776,760.501197L113.158570,761.716700L101.262484,772.453639L80.861414,788.978684L65.736320,801.220529L80.115262,813.838600L92.534478,824.691298L123.267139,851.634926L130.701031,858.117603L137.660945,864.195112L189.728818,891.167675L345.942663,972.056395L397.994747,999.000000L401.624039,997.495094L409.545081,993.038258L420.578731,984.442930L430.107561,981.259475L432.157247,980.767486L433.131223,978.076020L436.447285,974.024349L443.618064,965.168556L448.341233,960.393373L452.884556,957.036274L457.745813,954.807856L475.920483,949.569624L483.875777,945.575835L490.797930,942.710724L499.168623,939.556209L501.837323,937.790838L504.986212,933.507643L514.240778,911.831201L517.219884,907.027076L521.615170,903.062226L530.869609,898.576446L536.713233,896.521670L540.257646,894.756298L543.431510,891.572842L543.912881,890.849329L545.864066,887.752694L551.004296,874.816283L553.491674,869.578049L556.267971,865.584257L559.441867,862.400800L563.356948,860.953774L570.861054,859.362045L574.061774,857.770317L576.525293,842.634423L579.217368,827.585350L580.540403,820.002932L581.597293,808.687186L582.318909,794.014337L585.126296,785.100652L585.170932,781.425205L589.536425,766.289305L593.059291,755.118257L599.745556,737.609230L603.395359,728.029910L606.070693,714.948784L607.039841,707.482123L607.446976,702.359646L611.062573,686.123998L613.566922,680.220126L614.541696,678.425812L616.362180,674.952945L620.800158,673.216512L626.458649,668.904370L627.482563,668.412380L633.106912,663.637189L638.307063,656.459931L640.458410,651.366393L642.784684,647.372596L643.936417,639.876992L642.960605,633.683712L640.409294,627.287848L639.051681,620.920925L635.025205,616.319375L633.789441,612.962270L630.059468,610.473381L627.313665,608.650126L627.376108,606.103356L631.180026,598.607750L632.678182,594.324546L633.315416,588.883719L632.161548,584.600515L630.756994,582.516794L623.232204,573.603099L621.935502,569.290954L623.186607,563.097671L625.709994,555.920409L628.945167,548.598444L629.496565,547.296118L643.001465,529.439783L657.388694,516.850631L660.572372,513.030474L670.310799,500.122975L671.849196,498.675945L676.111568,494.045452L680.960367,485.276455L694.089127,464.728638L701.252031,454.512609L714.720220,438.103293L717.207852,435.064531L720.773457,431.418016L723.769524,430.144630L732.076872,428.842303L735.243690,426.787521L740.655536,420.565292L745.858029,409.886212L752.499168,405.747706L779.635455,384.215899L800.248532,366.851536L805.145646,362.684088L808.410704,356.143511L811.155092,349.284587L811.945131,343.235999L813.204017,337.013768L816.477121,332.238567L821.915634,327.608069L835.263734,323.961551L842.239281,320.286093L846.800691,318.057666L853.145691,315.800298L858.033793,315.163605L863.178609,314.700555L867.544218,313.253524L871.559930,310.706750L881.810466,298.754275L884.023400,294.615766L888.245902,284.255024L894.943884,272.302547L898.205459,268.771791L903.309758,263.678242L905.221013,261.941804L914.897840,247.587254L923.571205,230.049232L926.427307,221.048696L927.096373,218.878149L928.872487,207.099311L929.710151,197.867248L932.042453,188.461541L931.320504,182.557651L931.529421,175.235669L930.651313,168.058390L931.941082,156.424252L926.855178,149.565320L916.327894,129.480511L914.370265,125.313058L912.650093,121.695476L909.665410,115.936287L901.990285,110.524385L898.935883,106.241169L888.428036,84.882966L890.166403,76.750642L896.487580,61.614677L905.446848,54.119046L928.742651,41.529858L933.146372,37.536046L933.908172,34.497276L934.263680,33.079184L932.639233,30.677108L929.236732,30.677108L927.709359,29.085372L928.085643,23.991815L926.209042,17.306520L927.493268,12.184022L931.376915,6.772117L933.689175,1.041864L934.250600,0.000000Z "/></g><g fill="#000" font-family="Arial" font-size="12px" id="mylayer-label" stroke="none"><text text-anchor="middle" y="491.481281958"><tspan dy="0" x="504.050906988"><![CDATA[N]]></tspan></text></g></svg>