<?xml version="1.0" encoding="utf-8"?><!DOCTYPE svg  PUBLIC '-//W3C//DTD SVG 1.1//EN'  'http://www.w3.org/Graphics/SVG/1.1/DTD/svg11.dtd'><svg enable_background="new 0 0 1000 1001" height="1001px" pretty_print="False" style="stroke-linejoin: round; stroke:#000; fill: none;" version="1.1" viewBox="0 0 1000 1001" width="1000px" xmlns="http://www.w3.org/2000/svg" xmlns:xlink="http://www.w3.org/1999/xlink"><defs><style type="text/css"><![CDATA[path { fill-rule: evenodd; }]]></style></defs><metadata><views><view h="1001" padding="0" w="1000"><proj flip="auto" id="robinson" lon0="-79.3647273929"/><bbox h="0.38" w="0.4" x="-1108.94" y="-585.2"/></view></views></metadata><g class="" id="mylayer"><path d="M1000.000000,398.835409L908.076709,317.208522L835.040347,252.287740L792.757332,214.547661L660.072371,101.877070L607.869840,57.138923L577.365133,29.956602L560.087158,50.905236L504.511219,115.616481L491.425689,129.695100L384.608051,244.315701L396.241078,49.081776L333.484151,41.745520L268.847768,53.534411L269.385239,65.238464L264.432096,187.917420L250.424636,206.405945L262.619255,225.021620L206.367224,296.515375L136.603008,267.850143L72.197833,358.679379L39.462375,343.626090L28.689605,338.919277L25.587340,337.307935L0.000000,375.937605L0.000000,375.937605L26.116573,380.220350L159.336265,440.941665L76.355492,526.722050L16.179666,588.883333L116.649065,682.717494L137.711931,724.355072L157.327168,742.926513L209.365089,791.093233L233.978970,806.484443L269.397752,843.117884L295.214059,866.649648L368.020680,933.004417L425.433982,969.043398L590.801523,806.018043L596.612967,800.421244L604.512078,792.874037L621.565277,803.431644L674.332229,844.093076L666.172247,846.679455L684.600096,865.123266L700.553617,847.061052L688.756427,835.782736L794.172335,786.429221L817.685157,778.627593L877.247029,752.339410L899.016964,742.672110L908.345566,741.612098L912.868014,712.737288L911.844407,664.400247L908.651133,654.011965L906.291710,644.302084L889.774437,614.536308L886.814560,606.437614L883.355835,596.261226L882.496336,584.049535L887.256288,581.505429L881.531360,516.333496L1000.000000,398.835409Z "/></g><g fill="#000" font-family="Arial" font-size="12px" id="mylayer-label" stroke="none"><text text-anchor="middle" y="488.292022832"><tspan dy="0" x="500.285841329"><![CDATA[N]]></tspan></text></g></svg>