<?xml version="1.0" encoding="utf-8"?><!DOCTYPE svg  PUBLIC '-//W3C//DTD SVG 1.1//EN'  'http://www.w3.org/Graphics/SVG/1.1/DTD/svg11.dtd'><svg enable_background="new 0 0 1000 1001" height="1001px" pretty_print="False" style="stroke-linejoin: round; stroke:#000; fill: none;" version="1.1" viewBox="0 0 1000 1001" width="1000px" xmlns="http://www.w3.org/2000/svg" xmlns:xlink="http://www.w3.org/1999/xlink"><defs><style type="text/css"><![CDATA[path { fill-rule: evenodd; }]]></style></defs><metadata><views><view h="1001" padding="0" w="1000"><proj flip="auto" id="robinson" lon0="-107.881923086"/><bbox h="0.31" w="0.34" x="-1511.74" y="-572.64"/></view></views></metadata><g class="" id="mylayer"><path d="M1000.000000,42.444132L328.832048,84.107787L206.731161,91.764329L0.000000,737.968519L0.000000,737.968519L0.401885,738.117660L11.473882,752.435149L18.866066,763.123534L23.301401,769.536559L33.504599,777.987823L36.492358,779.827214L38.965475,781.368326L39.403836,781.766032L45.035922,786.538504L48.655577,789.869290L54.822339,791.360686L58.636555,791.907531L65.736190,792.156097L82.005069,788.179040L87.835747,786.985923L91.848663,787.085349L92.716068,787.085349L99.913961,788.228753L107.703944,791.211546L118.017366,797.823399L116.824849,801.800451L114.417698,815.570977L110.575116,833.069949L110.631448,836.549853L117.989150,840.526885L138.990811,848.928357L157.033632,853.999064L185.006020,864.190180L193.253815,866.576390L199.387798,865.930125L200.731579,866.924379L207.042265,871.647085L216.833472,877.513179L221.265516,879.004558L272.677348,896.304534L300.602693,905.103644L324.474365,911.218275L349.259608,917.084338L371.378779,924.541192L381.305522,928.965588L387.824199,935.328761L391.454063,944.972934L394.195532,956.555868L457.232042,917.084338L526.595487,873.834443L749.622009,734.737138L799.895632,703.367809L873.504172,454.198279L1000.000000,42.444132Z " data-aland="3033262" data-awater="3200" data-classfp="U1" data-funcstat="S" data-geoid="3533130" data-intptlat="+34.1453854" data-intptlon="-107.8778001" data-lsad="57" data-mtfcc="G4210" data-name="Homestead" data-namelsad="Homestead CDP" data-pcicbsa="N" data-pcinecta="N" data-placefp="33130" data-placens="02584113" data-statefp="35"/></g><g fill="#000" font-family="Arial" font-size="12px" id="mylayer-label" stroke="none"><text text-anchor="middle" y="453.644897323"><tspan dy="0" x="483.745484233"><![CDATA[Homestead]]></tspan></text></g></svg>