<?xml version="1.0" encoding="utf-8"?><!DOCTYPE svg  PUBLIC '-//W3C//DTD SVG 1.1//EN'  'http://www.w3.org/Graphics/SVG/1.1/DTD/svg11.dtd'><svg enable_background="new 0 0 1000 1001" height="1001px" pretty_print="False" style="stroke-linejoin: round; stroke:#000; fill: none;" version="1.1" viewBox="0 0 1000 1001" width="1000px" xmlns="http://www.w3.org/2000/svg" xmlns:xlink="http://www.w3.org/1999/xlink"><defs><style type="text/css"><![CDATA[path { fill-rule: evenodd; }]]></style></defs><metadata><views><view h="1001" padding="0" w="1000"><proj flip="auto" id="robinson" lon0="-72.4513395719"/><bbox h="0.62" w="0.5" x="-966.86" y="-739.85"/></view></views></metadata><g class="" id="mylayer"><path d="M604.433429,0.000000L594.797933,2.855330L502.234836,30.162623L483.918651,35.587731L342.721187,77.249338L340.737913,77.846357L249.862865,104.660235L248.366182,105.880226L243.936362,110.708273L239.103994,115.769931L235.002111,119.663513L229.362565,124.102195L228.058563,125.503883L225.522394,127.554501L221.534736,130.513619L215.313596,135.756967L208.276857,140.766698L206.329612,142.661570L225.725249,149.021067L248.102729,158.028184L252.462766,159.793267L279.987684,170.331840L291.114362,174.251356L319.129640,184.063116L327.017766,186.736689L243.499578,317.740809L119.604103,512.050207L129.449882,511.582998L134.335133,511.608954L142.262940,510.882183L147.004899,511.011963L149.434703,510.726446L150.008237,510.492841L153.640862,510.129456L155.952276,510.181368L164.109410,511.115788L169.487532,513.270144L170.634040,514.022871L170.918205,514.126695L174.651933,515.424500L177.160725,516.436787L179.205637,517.552899L179.316405,517.968196L181.226390,518.798791L184.109121,520.511892L185.091719,521.731828L185.562293,521.913520L186.290086,522.458598L187.404455,523.912137L187.844550,524.119786L189.162796,525.235897L189.642478,525.391633L190.712611,526.118403L191.574964,526.767304L191.795385,527.052821L192.783188,527.831503L193.964468,529.155261L194.352713,529.388866L195.292574,530.608800L195.702191,530.842405L196.534441,531.698954L196.956326,531.958515L197.886708,533.022712L198.366391,533.178449L198.858715,533.541833L198.896263,533.983086L201.933125,537.876491L204.607033,541.951586L207.866002,545.455648L209.576053,547.038964L212.031374,548.752060L215.261917,551.788912L217.150938,552.801195L219.537107,553.553919L222.521343,554.124950L225.008810,555.137234L227.791962,555.915913L230.464713,556.460988L234.421352,557.732831L234.257445,558.200039L232.675560,561.003283L231.327270,563.079760L230.261263,564.351602L228.728589,565.857047L225.311033,568.348818L224.847904,568.816025L221.904987,570.503161L218.412693,572.294121L213.954175,574.889713L211.188561,576.680672L210.725431,577.147879L208.478714,578.860969L206.139287,581.508472L203.377311,586.517961L202.013969,588.698255L200.792026,589.866270L196.390402,593.396270L194.410914,594.408549L187.992753,597.289650L186.403032,599.262295L185.502172,603.596923L185.510634,606.192507L185.679463,608.087283L185.943517,616.107632L185.767475,619.533798L184.990583,623.271433L180.378460,640.012903L178.912616,647.176686L178.834861,649.408878L179.012227,653.899216L179.320071,655.093179L179.637087,660.647697L178.732001,664.385316L177.592677,667.084706L170.673375,681.386269L162.005641,704.876085L155.754887,720.501323L153.243814,728.573487L151.961934,733.141654L150.029527,741.940561L149.043280,747.676716L148.511836,753.335002L148.561687,753.802200L147.275718,762.159845L145.448759,768.830383L142.705452,776.772729L141.799753,778.745337L139.062892,783.988319L137.817985,785.831148L136.146376,788.037352L133.703693,790.918394L126.791683,798.497348L122.406637,804.051782L121.059196,806.491579L119.034851,810.800156L117.044112,816.536270L112.531758,832.446831L110.856540,837.222590L108.546035,841.920480L106.533625,844.671730L104.739328,846.618369L103.480987,847.890172L102.542476,848.798603L101.299178,849.966586L101.595646,850.096362L102.011256,850.252093L102.613297,850.485689L103.172589,850.719286L103.469058,850.849062L105.865345,851.939178L164.617253,878.465318L176.178555,884.383077L285.707723,936.474770L388.203445,985.166101L413.298822,999.000000L471.864506,893.674989L549.653531,754.321309L704.792629,473.712969L705.041989,473.245757L722.676827,443.136507L722.968933,442.669294L736.581599,420.554505L736.971075,419.931553L737.457921,419.152862L739.937671,415.129625L745.593805,405.889153L750.918260,397.167799L752.067324,394.805765L772.673488,351.899690L772.904647,351.484385L773.087120,351.146950L858.923642,202.336842L898.700822,131.344249L744.402661,62.998754L687.439159,35.925178L686.244211,36.833688L652.485679,21.648571L604.433429,0.000000Z "/></g><g fill="#000" font-family="Arial" font-size="12px" id="mylayer-label" stroke="none"><text text-anchor="middle" y="443.886090601"><tspan dy="0" x="461.416495884"><![CDATA[N]]></tspan></text></g></svg>