<?xml version="1.0" encoding="utf-8"?><!DOCTYPE svg  PUBLIC '-//W3C//DTD SVG 1.1//EN'  'http://www.w3.org/Graphics/SVG/1.1/DTD/svg11.dtd'><svg enable_background="new 0 0 1000 1001" height="1001px" pretty_print="False" style="stroke-linejoin: round; stroke:#000; fill: none;" version="1.1" viewBox="0 0 1000 1001" width="1000px" xmlns="http://www.w3.org/2000/svg" xmlns:xlink="http://www.w3.org/1999/xlink"><defs><style type="text/css"><![CDATA[path { fill-rule: evenodd; }]]></style></defs><metadata><views><view h="1001" padding="0" w="1000"><proj flip="auto" id="robinson" lon0="-98.7273029539"/><bbox h="0.1" w="0.18" x="-1418.12" y="-443.91"/></view></views></metadata><g class="" id="mylayer"><path d="M1000.000000,324.010556L998.617529,323.825976L666.575607,264.945003L667.121731,263.099204L452.754093,227.013847L383.206552,242.703132L288.207134,267.529120L227.224784,282.664668L180.012447,295.400678L173.407090,297.523346L163.686091,300.568914L156.530645,303.429901L151.349209,306.290889L146.307601,309.613327L131.879290,321.149568L119.206215,332.224360L100.997068,346.344721L77.306527,367.755988L47.547978,392.489694L28.892512,408.732725L7.280687,426.267817L0.000000,432.728114L13.943838,434.758493L113.170965,443.895199L119.904682,444.541229L100.390304,507.298409L563.176697,582.791618L552.306249,595.435347L507.960124,712.089922L810.300790,765.433560L813.304030,766.171880L841.592523,771.709283L843.192507,771.986153L1000.000000,324.010556Z "/></g><g fill="#000" font-family="Arial" font-size="12px" id="mylayer-label" stroke="none"><text text-anchor="middle" y="453.893219432"><tspan dy="0" x="569.373654007"><![CDATA[N]]></tspan></text></g></svg>