<?xml version="1.0" encoding="utf-8"?><!DOCTYPE svg  PUBLIC '-//W3C//DTD SVG 1.1//EN'  'http://www.w3.org/Graphics/SVG/1.1/DTD/svg11.dtd'><svg enable_background="new 0 0 1000 1001" height="1001px" pretty_print="False" style="stroke-linejoin: round; stroke:#000; fill: none;" version="1.1" viewBox="0 0 1000 1001" width="1000px" xmlns="http://www.w3.org/2000/svg" xmlns:xlink="http://www.w3.org/1999/xlink"><defs><style type="text/css"><![CDATA[path { fill-rule: evenodd; }]]></style></defs><metadata><views><view h="1001" padding="0" w="1000"><proj flip="auto" id="robinson" lon0="-98.9190107746"/><bbox h="0.63" w="0.76" x="-1387.08" y="-570.82"/></view></views></metadata><g class="" id="mylayer"><path d="M1000.000000,263.929253L941.092773,200.054578L911.728924,177.666151L890.737875,169.960436L858.648280,162.276784L799.862253,159.892199L793.875845,176.054355L778.413756,176.054355L747.833565,175.612767L745.469311,175.369894L748.630538,164.396414L717.986998,163.866507L738.145351,102.264228L744.230115,83.628773L722.501761,83.871653L698.476593,152.870911L682.359840,152.451400L679.377568,161.040333L695.940462,161.614399L694.122629,166.582281L683.959504,165.522467L663.494026,166.405645L647.157435,169.011020L646.637866,168.856464L550.631506,168.348637L512.856804,168.922703L441.557689,168.503193L418.762470,167.951207L351.301844,167.244665L242.525595,166.074453L217.796565,166.339407L166.529238,164.330176L82.045040,125.492169L79.475062,133.595415L76.876710,141.786962L75.294054,146.821110L74.360681,149.779773L73.742765,151.700695L72.870378,154.526876L71.036231,160.400027L70.465099,162.232625L69.528808,165.257513L68.017240,170.070834L64.959847,179.918248L108.282409,191.841089L133.210290,198.266159L192.296138,202.174185L341.462014,208.974582L375.000381,210.211017L418.361327,209.283691L485.276888,206.832900L526.560729,205.397752L532.317352,205.199039L581.993822,203.476860L578.034993,218.358225L632.842485,218.954362L597.948830,325.197504L578.498848,344.626491L569.011676,355.400701L560.986346,364.541090L549.493973,377.611365L525.716737,387.480273L519.524521,388.804956L516.689346,396.995905L507.268311,421.789414L506.198329,424.946545L417.577843,370.833374L355.153711,377.986693L380.172504,393.330955L414.304516,415.916702L462.588675,447.951565L479.342963,458.902078L490.319083,465.547433L489.156107,468.594137L487.917238,470.448650L486.967217,471.861613L405.561167,422.606295L346.706237,380.613989L341.644908,376.993177L273.421208,332.218446L220.055855,302.920271L149.796369,267.285235L147.329737,265.761796L105.631773,230.170540L91.803632,223.833845L76.439560,262.582443L57.858121,314.820614L19.671823,315.129713L17.804406,320.936359L16.315551,326.765074L10.204127,350.565557L0.000000,373.902238L3.937588,375.249005L84.950004,374.652895L92.705448,372.864565L147.849707,363.680040L152.073168,362.995616L180.563368,382.733486L210.965605,402.294622L300.526033,465.878597L347.060931,498.729865L384.021796,525.090137L339.951903,528.158865L331.405953,556.174691L329.333079,563.195170L360.906030,555.755228L356.719390,582.379993L354.450072,586.640820L348.376316,592.910628L344.599854,599.003811L339.957390,610.020083L340.324729,612.934201L358.256408,611.653756L373.387435,610.858996L371.747260,617.791060L346.708773,734.110812L326.973211,823.141724L324.547546,832.921079L320.400302,851.088975L316.837140,868.925651L312.257518,889.698202L306.324270,915.371227L324.322881,915.371227L365.794493,911.993789L376.489626,911.574368L395.700512,910.316106L398.320100,910.051209L401.044338,901.684857L418.114662,850.890299L424.314366,832.678252L463.942982,714.308689L480.659645,664.571092L578.852796,653.841984L643.249356,581.231998L666.418654,595.427379L639.472950,629.160497L671.623079,648.786488L678.943645,652.981005L666.997948,686.559038L700.842869,702.056483L750.197140,725.015536L781.519598,739.563551L836.110556,764.862383L844.495998,768.659400L841.896469,776.694933L832.349145,804.245195L874.134647,804.576326L885.795156,804.752930L880.941471,819.521369L878.616792,827.159431L862.959241,877.225856L900.446471,876.188332L959.541155,876.894731L961.072772,871.839555L979.742609,811.419707L984.738848,796.607083L903.676681,739.077882L874.495413,719.121255L765.571836,667.728004L764.832565,663.798421L761.926758,657.352128L758.925588,652.517401L753.935677,648.499495L755.952174,641.766180L756.854665,638.785856L756.355777,633.708262L760.650199,620.285716L768.311712,596.155912L771.743474,585.647363L776.778556,570.149405L785.081345,544.540093L790.980657,526.525154L793.739231,517.826731L801.564042,493.078056L809.830356,466.099372L817.360782,442.211363L824.238646,422.297205L826.375345,416.049170L834.954914,391.012761L843.197173,365.998252L847.509454,352.353899L848.931297,348.159022L851.529986,340.188743L858.469192,318.772667L860.851631,312.789390L862.260427,310.691928L862.903257,309.720472L865.147663,307.137280L867.959221,305.017737L870.835007,303.383922L874.481187,302.324149L878.045923,301.860498L883.162364,301.882577L954.349320,301.970891L960.957851,301.750105L982.820595,300.977354L989.936217,300.778647L996.500921,300.579939L989.932153,294.221293L992.940851,285.146956L993.822133,282.519589L1000.000000,263.929253Z " data-aland="7467117" data-awater="0" data-classfp="C1" data-funcstat="A" data-geoid="4822984" data-intptlat="+34.0320951" data-intptlon="-098.9207977" data-lsad="25" data-mtfcc="G4110" data-name="Electra" data-namelsad="Electra city" data-pcicbsa="N" data-pcinecta="N" data-placefp="22984" data-placens="02410419" data-statefp="48"/></g><g fill="#000" font-family="Arial" font-size="12px" id="mylayer-label" stroke="none"><text text-anchor="middle" y="449.729344617"><tspan dy="0" x="562.672173391"><![CDATA[Electra]]></tspan></text></g></svg>