<?xml version="1.0" encoding="utf-8"?><!DOCTYPE svg  PUBLIC '-//W3C//DTD SVG 1.1//EN'  'http://www.w3.org/Graphics/SVG/1.1/DTD/svg11.dtd'><svg enable_background="new 0 0 1000 1001" height="1001px" pretty_print="False" style="stroke-linejoin: round; stroke:#000; fill: none;" version="1.1" viewBox="0 0 1000 1001" width="1000px" xmlns="http://www.w3.org/2000/svg" xmlns:xlink="http://www.w3.org/1999/xlink"><defs><style type="text/css"><![CDATA[path { fill-rule: evenodd; }]]></style></defs><metadata><views><view h="1001" padding="0" w="1000"><proj flip="auto" id="robinson" lon0="-96.5781741713"/><bbox h="0.16" w="0.18" x="-1363.43" y="-539.22"/></view></views></metadata><g class="" id="mylayer"><path d="M1000.000000,685.676915L973.570395,636.648915L901.166899,347.401430L895.481255,306.986122L837.365850,91.374021L833.269993,78.596270L827.041859,58.625111L774.318670,82.571571L728.596103,102.258769L630.700097,149.205124L618.082607,155.452014L601.764108,83.896671L589.534567,33.069584L576.840198,39.032542L541.410796,53.040756L545.768252,80.773221L342.461282,179.587716L224.178227,236.661495L249.870464,354.878731L179.687721,386.870205L0.000000,472.433076L0.000000,472.433076L4.043791,487.576928L7.042915,498.366919L15.631732,529.127842L25.536609,558.942253L45.650093,629.834208L284.908982,517.675316L289.804612,532.913800L314.089686,609.768674L401.003877,915.293740L426.564890,965.930416L461.929017,948.041953L559.161114,900.623290L656.307134,853.772460L699.882805,832.949852L742.717598,811.653991L782.016908,792.061790L923.313625,722.968442L934.458121,717.384180L942.011778,713.692888L952.215511,708.865813L1000.000000,685.676915Z "/></g><g fill="#000" font-family="Arial" font-size="12px" id="mylayer-label" stroke="none"><text text-anchor="middle" y="477.738847847"><tspan dy="0" x="560.324214437"><![CDATA[N]]></tspan></text></g></svg>