<?xml version="1.0" encoding="utf-8"?><!DOCTYPE svg  PUBLIC '-//W3C//DTD SVG 1.1//EN'  'http://www.w3.org/Graphics/SVG/1.1/DTD/svg11.dtd'><svg enable_background="new 0 0 1000 1001" height="1001px" pretty_print="False" style="stroke-linejoin: round; stroke:#000; fill: none;" version="1.1" viewBox="0 0 1000 1001" width="1000px" xmlns="http://www.w3.org/2000/svg" xmlns:xlink="http://www.w3.org/1999/xlink"><defs><style type="text/css"><![CDATA[path { fill-rule: evenodd; }]]></style></defs><metadata><views><view h="1001" padding="0" w="1000"><proj flip="auto" id="robinson" lon0="-121.555633148"/><bbox h="0.15" w="0.29" x="-1585.88" y="-799.61"/></view></views></metadata><g class="" id="mylayer"><path d="M1000.000000,261.567035L798.803653,338.328593L857.051382,244.445509L555.506381,346.432791L457.074891,381.988547L367.823722,414.462437L355.844686,418.685756L295.714250,440.544289L274.189317,448.363139L238.612486,506.576499L152.296449,506.576499L128.124937,545.385431L23.290374,713.348427L0.000000,750.673587L8.943230,748.847279L5.025925,754.554491L14.963760,752.442823L19.841162,748.618991L26.175677,747.192188L32.591116,745.708312L61.366801,739.145019L105.789380,724.363343L118.990347,723.278973L121.174743,723.050684L132.714149,717.857123L144.253552,712.663562L211.754813,687.494772L271.609584,654.564191L305.951022,640.010819L361.626158,621.005831L392.129897,614.727908L428.190526,607.251474L467.134928,610.447507L469.208855,610.105075L482.767291,607.936338L523.270885,601.487200L536.819463,599.261392L571.081557,593.725407L602.265273,588.760142L605.262698,588.246494L616.176011,579.685694L651.969724,568.556655L678.372133,555.601315L707.736810,532.715454L749.208041,511.085183L798.453710,480.323410L823.870777,469.023169L853.238870,455.896630L880.485154,448.363139L889.103151,441.229151L901.000379,422.052997L932.581627,370.688321L983.109523,288.904414L1000.000000,261.567035Z " data-aland="585074" data-awater="0" data-classfp="C1" data-funcstat="A" data-geoid="5333175" data-intptlat="+47.8213053" data-intptlon="-121.5558997" data-lsad="43" data-mtfcc="G4110" data-name="Index" data-namelsad="Index town" data-pcicbsa="N" data-pcinecta="N" data-placefp="33175" data-placens="02412790" data-statefp="53"/></g><g fill="#000" font-family="Arial" font-size="12px" id="mylayer-label" stroke="none"><text text-anchor="middle" y="480.871587535"><tspan dy="0" x="504.044194773"><![CDATA[Index]]></tspan></text></g></svg>