<?xml version="1.0" encoding="utf-8"?><!DOCTYPE svg  PUBLIC '-//W3C//DTD SVG 1.1//EN'  'http://www.w3.org/Graphics/SVG/1.1/DTD/svg11.dtd'><svg enable_background="new 0 0 1000 1001" height="1001px" pretty_print="False" style="stroke-linejoin: round; stroke:#000; fill: none;" version="1.1" viewBox="0 0 1000 1001" width="1000px" xmlns="http://www.w3.org/2000/svg" xmlns:xlink="http://www.w3.org/1999/xlink"><defs><style type="text/css"><![CDATA[path { fill-rule: evenodd; }]]></style></defs><metadata><views><view h="1001" padding="0" w="1000"><proj flip="auto" id="robinson" lon0="-124.007943812"/><bbox h="0.78" w="1.05" x="-1634.03" y="-774.94"/></view></views></metadata><g class="" id="mylayer"><path d="M1000.000000,270.270133L992.803816,267.659105L992.034520,267.425977L987.328976,265.949502L982.675033,264.612903L981.288715,264.224357L978.310180,263.416180L969.381180,260.960567L966.399701,260.136848L962.919608,259.188794L959.807231,258.333991L976.205786,238.735652L982.648179,240.538516L984.818997,237.492297L986.598929,234.756916L986.775752,233.451392L986.591909,232.549959L990.514981,226.162212L991.777041,222.214549L995.946295,215.609200L998.779455,205.196043L998.348044,201.807877L997.014138,191.565654L992.053898,186.576642L987.682223,185.737369L985.600778,185.768453L972.455848,188.224104L968.239997,185.442069L968.255247,182.364731L974.821364,169.558012L973.138507,158.989335L967.658148,158.103430L961.352376,155.570052L962.459755,146.726532L958.621096,147.705692L957.070043,148.094248L948.185763,148.436177L944.759678,148.560515L937.035916,154.419929L935.253283,154.839568L921.569917,157.948008L911.864476,155.414630L908.730311,154.575351L911.061070,149.539674L906.360594,149.337626L900.648397,149.073408L893.031101,147.596897L891.017021,147.192799L888.495883,147.146172L887.643005,147.130630L885.046873,147.084003L884.181496,147.068461L883.481097,148.513888L882.995072,149.508590L882.639754,150.270159L878.137310,159.797528L878.038198,159.999577L877.121376,162.082229L876.890366,162.905965L875.494122,162.859338L871.302436,162.703916L869.903240,162.641748L861.514414,160.854397L858.435329,160.963192L839.636533,161.553795L819.599716,168.656567L816.254731,170.195240L801.731833,176.847277L808.617876,167.102351L821.453207,143.928930L815.079487,146.104843L808.257366,148.420635L802.190900,150.503292L797.492362,152.088598L790.757025,154.466555L768.734288,161.709217L758.969669,165.050785L746.774164,169.216084L736.762489,172.573189L725.689430,176.396555L719.969410,178.790043L719.344634,179.054259L716.778004,180.282087L714.620020,181.292325L707.158480,185.177853L706.907112,185.302190L703.915174,187.120616L697.786006,191.177102L695.649040,192.824563L680.911457,204.139184L679.470443,205.304837L671.290987,211.925742L663.225421,218.422302L651.826681,227.638699L644.022750,233.933192L627.360522,247.485753L621.985194,251.759775L617.691723,255.412119L614.256496,258.318449L611.231105,260.618646L607.593929,262.856673L606.141618,263.633766L602.998128,265.312286L600.330802,266.602259L587.357832,272.663575L586.035535,273.269706L588.224059,269.788336L594.503963,259.748301L592.263184,261.178153L580.814515,268.420655L589.321537,248.060804L526.898215,247.330334L524.905691,250.594133L515.739980,265.514330L502.099378,265.560956L462.762055,265.685290L465.875000,260.028055L470.841497,250.967139L472.493828,247.952010L492.273099,246.926245L501.309553,231.586358L518.475217,202.445101L479.108130,202.802568L524.489137,132.256696L527.323125,127.562927L515.370456,130.111862L473.156172,140.292045L472.679810,140.416383L471.235274,140.773855L470.755962,140.882651L466.698032,141.892897L454.508781,144.908091L450.447894,145.902794L445.707006,147.068461L431.478430,150.534376L426.734582,151.684500L426.691326,151.917633L426.561556,152.617033L426.505801,152.850166L426.320277,153.782698L425.546030,157.870297L423.036492,171.189938L422.535294,172.961743L422.467045,173.194875L423.251064,182.924247L419.172709,182.970873L385.505491,183.328342L373.187872,202.989073L371.560927,204.558819L319.397698,205.196043L228.148175,204.838576L212.351113,196.943212L206.953383,194.845033L205.996530,195.730931L200.476578,194.767322L196.596649,194.674070L124.137391,192.622516L115.449098,204.014848L100.526542,221.219861L92.351428,230.638298L91.407895,231.726235L77.965848,244.874712L130.990953,251.277977L143.380991,252.940959L162.029211,255.241158L150.439129,262.996550L149.845090,257.758942L133.073355,267.783439L121.073713,275.554353L113.763719,284.786183L116.291588,284.801725L123.766869,275.321226L125.875075,283.465131L126.503666,285.920733L103.569018,302.394994L91.905014,310.616562L90.309181,313.864777L92.334005,316.102780L94.641652,321.542367L96.765647,323.578325L92.452594,329.763902L92.647875,330.463275L93.699252,335.079140L101.998973,330.074734L103.733592,346.517762L97.354771,349.657161L103.706413,357.894190L104.615158,368.866512L101.294622,376.590638L97.433052,380.149638L91.680842,383.428889L93.518418,385.666860L80.193075,394.945103L63.847819,406.290334L62.781748,404.363200L35.630515,428.312438L32.680720,432.788337L30.578022,432.182226L11.551471,465.797961L0.000000,485.659575L3.164506,485.208882L75.384536,493.911911L91.426643,495.839008L122.783636,499.615495L133.459853,502.117610L138.438418,493.849746L143.534282,486.856242L145.313733,485.037929L165.624755,518.886408L170.633949,527.216392L181.554359,531.132723L210.642376,541.576256L215.567166,543.347924L298.757770,547.341946L329.529858,509.857063L356.700655,494.315980L416.091153,480.251256L447.754194,477.749130L465.685999,476.334884L483.605286,474.920637L485.094202,474.796308L500.848664,496.041042L509.406832,506.002879L535.805417,536.665312L553.495967,567.016730L547.007720,615.799275L533.261997,669.585374L523.613262,721.630341L527.541889,768.282285L527.465330,807.552234L510.136041,821.445046L509.939281,837.326935L518.175507,853.830368L525.923580,859.580138L540.958221,864.661685L569.861219,864.319807L598.509394,868.670976L637.027711,870.364822L643.458561,871.437073L954.821251,341.295785L979.141163,303.218706L994.486962,279.206679L998.709223,272.290571L1000.000000,270.270133Z M863.386862,194.860575L863.978547,193.632751L865.645264,193.523956L886.636785,208.288908L923.808564,234.461619L948.756103,255.629705L947.424342,255.396577L943.429064,254.697192L942.084805,254.464064L932.996354,252.878791L920.231273,250.889429L918.804749,250.749552L913.492730,250.158960L905.784020,248.993318L889.852098,246.848535L871.547161,244.253036L857.589742,242.434631L848.583425,241.346697L847.825972,241.175735L844.279151,240.336471L843.143131,239.357330L842.799108,238.533607L842.870308,237.461214L843.480619,235.673890L845.055767,232.254662L847.890115,226.581845L851.658437,219.246028L853.282944,215.888956L855.310468,211.692612L859.016875,204.030390L861.387227,199.072475L863.386862,194.860575Z " data-aland="5435852" data-awater="9914921" data-classfp="C1" data-funcstat="A" data-geoid="5333000" data-intptlat="+46.3126873" data-intptlon="-124.0267319" data-lsad="25" data-mtfcc="G4110" data-name="Ilwaco" data-namelsad="Ilwaco city" data-pcicbsa="N" data-pcinecta="N" data-placefp="33000" data-placens="02410095" data-statefp="53"/></g><g fill="#000" font-family="Arial" font-size="12px" id="mylayer-label" stroke="none"><text text-anchor="middle" y="413.374243678"><tspan dy="0" x="545.887776667"><![CDATA[Ilwaco]]></tspan></text></g></svg>