<?xml version="1.0" encoding="utf-8"?><!DOCTYPE svg  PUBLIC '-//W3C//DTD SVG 1.1//EN'  'http://www.w3.org/Graphics/SVG/1.1/DTD/svg11.dtd'><svg enable_background="new 0 0 1000 1001" height="1001px" pretty_print="False" style="stroke-linejoin: round; stroke:#000; fill: none;" version="1.1" viewBox="0 0 1000 1001" width="1000px" xmlns="http://www.w3.org/2000/svg" xmlns:xlink="http://www.w3.org/1999/xlink"><defs><style type="text/css"><![CDATA[path { fill-rule: evenodd; }]]></style></defs><metadata><views><view h="1001" padding="0" w="1000"><proj flip="auto" id="robinson" lon0="-87.2469162296"/><bbox h="1.1" w="1.03" x="-1239.42" y="-511.49"/></view></views></metadata><g class="" id="mylayer"><path d="M474.874397,0.000000L473.882369,0.045548L472.676443,0.121461L472.272625,0.136644L468.236264,0.440298L467.837973,0.485846L467.430464,0.516211L467.032172,0.561759L466.624664,0.592125L465.815173,0.683221L456.444185,2.064845L453.272568,2.581056L453.472492,7.864632L454.143180,20.025973L453.922133,28.953407L456.516320,94.330348L457.094745,99.598779L457.619299,109.179129L458.013245,116.269504L459.061360,159.980917L459.695035,177.881536L460.094862,194.461267L460.183318,206.850530L461.004106,225.844388L457.026678,228.668417L449.477509,234.240563L437.023432,243.319977L433.723440,261.691388L429.649573,284.314071L424.374510,313.480691L422.262492,325.156468L420.967004,332.672091L420.502627,335.329131L418.020546,349.646788L414.866147,367.745060L411.532753,359.622091L396.298910,370.903150L390.701411,365.406859L390.346727,361.018937L389.454549,349.859352L389.338184,348.371408L388.387047,336.391947L387.194197,321.527715L385.394285,299.223808L384.594164,301.561996L383.144919,303.490243L380.073269,309.335717L375.935929,316.593218L373.576117,322.271685L371.627370,326.204100L369.883420,331.047502L369.070709,335.723891L369.102578,340.324367L370.368370,346.913830L371.660541,357.435722L371.190749,360.700092L371.967777,365.634605L372.218997,368.640864L369.074210,376.490543L371.185187,385.342314L370.617597,387.680518L369.453179,393.860062L368.677275,396.471565L367.274754,401.132796L364.107712,407.054232L361.036142,410.561546L356.946624,413.901845L346.050169,424.332695L341.166326,429.935295L338.677734,434.444707L336.128145,438.194960L332.957081,441.793381L332.079702,443.706467L330.922636,448.473998L330.823144,448.883945L329.512655,451.890224L329.108805,451.905408L327.558295,453.560380L323.811545,455.488650L322.412256,457.158806L322.847961,459.405925L322.604767,460.408019L322.036789,460.408019L321.114693,460.165087L319.904804,459.405925L318.842686,459.739956L317.365950,461.410112L315.894370,461.410112L314.443814,464.674510L312.440174,468.515871L311.913269,470.687076L311.583333,471.355139L312.067369,475.105403L311.909339,477.458808L310.847787,480.131062L309.747802,483.972429L308.361456,485.642588L305.994053,487.312748L304.353141,488.648876L303.372082,488.648876L305.333121,484.291277L306.073856,481.877138L306.053347,480.950959L305.485366,480.950959L303.826519,484.382377L301.400161,486.295469L298.557044,488.223745L298.494488,488.800709L299.398095,488.800709L300.217040,489.468773L300.464319,490.152021L299.708594,491.564065L295.467822,494.145223L289.849941,498.411726L288.959133,497.986594L290.396807,495.147319L289.080122,495.147319L287.874316,496.073500L285.331899,498.411726L281.294479,502.921163L277.314610,508.842648L274.305809,511.773025L272.014391,514.779320L266.356113,519.531696L263.131158,520.958927L259.553836,521.869926L255.535615,522.203959L251.211065,521.778826L248.230740,520.867827L236.285806,518.438497L233.643309,518.848447L230.905022,519.653162L229.712810,523.130141L229.853465,524.997690L258.423232,559.251308L260.753231,562.045047L269.090116,588.874085L265.716041,621.731008L253.055986,645.827154L251.272537,650.093710L248.854077,657.351415L246.213317,666.537428L245.795563,668.632751L245.706265,671.183580L245.604379,674.478400L246.101736,677.484736L247.176471,680.825109L249.664838,686.427828L249.858053,689.677102L248.513497,693.518536L247.784536,696.524875L243.408627,705.467982L241.550560,707.381109L234.005567,714.487013L230.064303,717.964049L228.689095,719.163550L223.555479,724.417065L219.242078,728.683650L217.560885,730.186824L216.255829,731.522979L215.599772,732.525096L213.321779,735.531445L209.253837,740.116889L205.344193,744.049441L201.364308,747.632770L197.203543,750.897245L193.143878,753.478458L190.463029,754.738698L188.186052,755.983754L182.021581,757.395830L178.028682,756.985873L171.567909,755.892653L154.510000,750.213983L146.470017,747.860524L141.126859,742.849936L138.255133,742.181858L128.294398,741.680800L121.067805,743.426913L115.419341,744.094991L110.589812,741.012721L97.050529,742.758835L91.894922,744.429031L86.405977,747.101344L79.387543,752.354871L76.470634,757.623585L72.884019,762.300139L69.224497,764.881355L63.453326,767.386653L59.976508,770.225992L58.272021,773.156433L58.172631,773.566391L57.097757,778.000014L56.825153,778.698461L54.460028,784.513797L52.325252,786.183999L48.995545,788.097139L47.379123,790.025464L44.468219,795.962275L41.552803,800.213702L38.069002,803.721130L35.114121,806.484559L33.494367,809.065785L32.885902,812.907257L38.970597,810.493051L43.259868,809.733867L46.861635,809.733867L53.645252,810.827092L65.267594,810.918194L70.916101,810.250112L74.353669,810.128642L79.362467,809.916071L85.242590,811.328153L112.571347,809.840152L113.240776,809.794601L115.990399,809.582030L118.181569,810.022357L124.271889,814.774850L156.119107,843.274668L172.203495,847.860154L175.184066,848.346034L178.350923,848.862281L181.061953,848.862281L185.387571,847.207254L188.258076,845.537044L190.857912,844.610836L198.861855,841.361519L200.495460,840.693435L202.877825,840.025352L206.233819,842.318094L214.537722,841.133763L219.609357,837.945182L227.667502,832.767535L240.873522,828.667933L251.884561,827.179930L257.607443,827.589890L260.745402,829.184180L262.882772,832.190554L263.400525,834.528846L263.984829,837.125261L263.646012,847.313540L263.867962,854.495447L265.055994,861.100376L266.289798,864.106759L267.962280,866.687997L270.199118,869.284419L273.582794,871.410146L275.252494,872.457825L281.559870,875.464211L291.307668,876.952220L293.534440,878.151738L297.345535,882.403195L299.261342,887.550496L298.161008,894.276914L297.895740,897.556614L300.301459,904.358956L306.741011,922.594721L316.230944,934.954364L318.298554,935.212489L320.099031,935.880578L321.493301,935.880578L328.631271,939.403231L338.334299,945.021258L344.600236,954.010105L345.318177,954.723747L352.903709,962.315685L352.629702,963.393741L351.995469,966.172392L351.346061,968.374055L350.290119,971.987821L348.772654,977.454024L344.482054,993.518603L343.219219,999.000000L349.207620,996.555388L357.631452,992.956798L359.242843,992.273521L362.413905,990.800681L364.935867,989.449312L368.469722,987.278013L371.562758,985.061161L374.345874,982.738023L379.207860,978.440978L384.591217,970.924949L393.347695,958.276773L393.891321,957.684602L394.271030,957.396109L394.671082,957.183534L397.350726,952.036202L408.166929,948.847591L414.891453,946.721850L416.919725,946.129679L423.126128,944.170962L429.620148,942.090773L435.935305,940.056137L438.481694,939.296944L446.684910,936.609403L474.294883,928.152003L498.268768,920.848580L501.672834,920.226043L506.944460,918.662110L511.574423,917.295565L513.991706,916.536374L527.818994,912.588582L530.603230,911.753472L543.753642,907.775313L554.079439,904.905573L555.596861,904.343772L558.824087,904.024913L561.357936,903.797156L564.568727,903.706053L573.756995,903.933810L579.959418,904.176751L588.064908,904.131199L599.486887,904.784103L600.798134,904.753735L601.864017,904.617081L602.739542,903.933810L609.294364,904.374140L616.247437,904.662632L643.559773,905.588845L667.976563,906.423954L670.827835,906.484689L700.476954,907.517188L701.214693,907.562740L707.546307,907.911967L709.457122,908.124541L715.780069,909.202591L718.891581,909.521451L720.898242,909.658105L725.413170,909.885863L727.912041,909.749208L731.137378,909.384797L745.543283,909.870679L759.914137,910.341377L764.353324,910.402112L766.783969,910.280642L769.712459,910.022517L774.722699,909.217775L778.801387,908.154908L778.084726,906.742814L777.641461,905.907705L777.391926,905.178882L776.992949,904.374140L775.365670,901.124806L770.919808,892.242286L766.764007,883.921573L763.444997,877.316631L762.765319,875.965275L771.943453,869.998056L804.008885,849.059669L804.989562,848.421953L806.766581,847.267989L807.395172,846.858028L806.762729,844.458999L804.704599,834.088518L804.025584,830.975857L803.117768,825.023844L802.242020,820.058775L801.832497,817.219424L801.014416,812.922440L800.627632,810.948561L799.887682,807.608151L745.643776,843.092464L736.642408,824.826456L735.516030,822.761473L734.409780,820.453551L729.558546,810.796724L717.991460,787.884568L712.152674,776.177977L707.233603,766.323799L703.444862,759.050845L699.554464,751.292019L697.883449,747.906075L696.109173,744.520132L697.442017,743.654667L705.627177,738.431511L705.366808,737.854534L704.294090,735.728832L704.041144,735.227774L706.494864,733.679048L705.948314,732.525096L706.980692,731.887385L709.076755,730.536046L707.326423,726.998273L708.633457,726.132809L710.668719,724.872572L714.568014,732.433994L719.392325,729.093606L724.679504,725.707669L740.115241,715.868717L752.398487,707.851799L753.744251,706.986337L752.662295,704.739172L755.134429,703.114532L757.610244,701.474709L760.224322,699.743786L758.117632,695.279825L765.988165,691.195455L772.941036,688.447237L773.917420,693.260415L776.254886,704.708805L779.210250,719.254652L782.952651,717.022668L785.898602,715.200640L788.160608,713.803753L789.259338,713.105309L790.286408,712.862372L810.927888,699.227545L807.382692,681.523551L806.538455,678.881619L805.662801,676.103036L807.406947,675.298310L812.851770,673.445922L831.674684,665.717519L831.068848,663.956234L827.557020,645.477934L827.040820,642.228672L826.761001,639.601932L826.660104,637.035927L826.736260,634.485106L833.128582,631.812817L841.471609,628.335807L845.638509,626.589710L849.805408,624.843614L853.981535,623.112701L857.877397,621.472889L860.322220,620.440415L864.197812,618.830971L868.589658,617.008958L868.759639,606.456475L868.790174,604.786299L868.903883,599.684671L868.947525,594.552678L869.042251,584.258332L869.002782,582.664076L864.638539,584.425350L862.986542,585.169336L860.622788,586.080340L858.384441,587.006527L854.549365,588.555234L854.573766,589.466238L854.094369,589.633255L836.161882,597.255325L833.227185,607.443398L813.278954,614.807360L814.692938,606.152807L813.343974,596.435421L817.951582,594.522311L819.327047,593.960525L822.441193,592.669936L826.617357,590.939028L832.006716,588.676701L834.960458,587.462029L836.311226,577.258789L836.235253,576.454070L844.561828,573.098543L845.907796,572.551941L851.531342,570.228884L860.682458,567.359226L864.873545,565.992723L866.997632,565.218371L867.048130,562.667565L867.374296,545.191522L867.417391,542.458520L867.415167,541.562703L867.725585,538.632319L869.414328,537.523935L879.297003,533.287785L881.078827,542.974754L891.743236,538.389385L891.143612,542.033386L890.196709,548.547042L898.984094,544.675288L898.340551,549.032909L897.921365,551.932929L897.559605,555.394734L899.919919,555.030334L900.620584,554.802583L901.988639,554.164882L909.500221,551.082661L912.525871,549.837626L912.915282,550.520877L913.000522,551.447062L913.803150,560.648177L919.022867,558.446589L921.506435,557.414121L922.366954,568.027295L962.548336,551.431878L964.698181,550.551244L966.715303,549.792076L966.286442,543.415071L965.810231,538.298285L965.241497,532.391969L964.878346,528.459487L964.685663,526.379372L964.085505,520.123845L963.916839,518.104464L962.393532,500.005971L961.965505,494.904387L960.990752,482.742584L960.540801,477.944672L960.915071,477.732107L961.138079,477.398075L961.169319,477.109593L960.892434,471.491788L960.737173,470.535243L960.578191,469.487599L959.500755,458.069800L959.538680,455.837864L958.670236,456.171896L957.220983,456.718492L950.999963,459.269276L950.513612,455.473467L950.939632,455.579749L953.142256,447.350440L952.657237,447.274524L947.831041,446.576095L950.235239,439.804380L957.244934,440.867205L956.867389,436.889204L956.647155,434.550989L956.103051,428.705456L955.914336,426.822739L955.797742,425.547351L955.496126,422.374063L955.203746,419.215960L954.804089,415.010217L954.606109,412.899755L954.300852,409.741654L954.088052,407.373079L953.912320,405.596648L953.706961,403.410271L953.312914,399.234900L952.854030,393.996710L952.667147,391.840702L957.037406,384.947552L957.507405,384.127662L960.358738,379.132408L963.792753,380.514074L967.114098,374.698933L955.657600,370.098444L963.778749,356.099609L961.327891,355.613749L955.943248,355.461918L951.342355,355.431552L950.752257,355.416369L943.813134,355.446735L944.181530,353.822142L945.113625,349.874535L945.903899,346.564619L946.664733,343.482450L947.191602,341.311268L947.543452,339.808142L948.324507,336.376764L949.448259,331.639642L950.111456,328.800406L944.806177,328.800406L946.235795,322.803092L952.503620,322.666445L952.792926,321.740278L952.846342,321.466982L954.471422,315.302658L952.087070,315.181194L957.669455,308.986507L959.183923,302.639992L959.045596,302.518528L958.551249,301.789742L958.169435,301.288701L958.047702,301.152054L957.905691,301.045773L957.411432,300.742112L956.907928,300.316987L956.629444,300.134790L956.173888,299.724848L955.670386,299.299723L955.401040,298.707584L954.884651,298.388741L954.659611,298.039531L954.530487,297.826968L954.209573,297.553673L953.855473,297.310745L953.519820,297.098182L953.119583,296.673057L952.297148,296.657874L951.672040,296.733789L951.299557,296.779338L950.912334,296.885620L950.609930,296.961535L949.925799,296.961535L949.503411,296.414946L949.104987,295.822807L948.701088,295.519146L948.297209,295.321767L947.928370,295.139571L947.426702,294.653713L946.937964,294.274138L946.447414,294.061575L946.141263,293.833830L945.611947,293.408705L945.180380,293.059495L944.769112,292.786200L944.267507,292.619187L943.599848,291.966316L943.348934,291.298263L943.295328,290.615027L943.335784,290.022889L943.296980,289.597764L943.138257,288.868978L943.077263,288.109827L942.780336,287.897265L942.422515,287.456957L942.097881,286.986283L941.834103,286.530792L941.577714,286.151217L941.315789,285.741275L940.980119,285.422431L940.688693,285.027673L940.585389,284.815111L940.542921,284.511450L940.684794,283.873763L940.634917,283.387906L940.446717,282.780586L940.389490,282.431376L940.345056,281.444480L940.344941,280.806793L940.237858,280.078008L940.079181,279.561786L939.950025,279.136661L939.854018,278.468608L939.813348,277.891654L939.636134,276.813660L939.324377,276.130424L938.962803,275.280176L938.649177,274.445110L938.246974,273.230469L937.879830,272.137293L937.398438,271.514789L936.972347,270.770822L936.750933,269.981306L936.507407,269.282888L935.883994,268.447822L935.500332,267.794953L935.181229,267.248365L934.519076,266.307019L934.006371,265.866712L933.915911,265.229026L933.274125,264.788719L932.438702,264.242131L932.064301,263.817007L931.739630,263.027491L931.527463,262.359440L930.880058,261.357362L929.930250,260.431199L929.253430,259.975709L928.901145,259.459488L928.039910,258.912900L927.693195,258.639606L926.837514,258.229665L925.321706,257.986738L924.128615,257.850091L923.267447,257.728627L922.629417,257.698261L921.414163,257.333869L920.648888,257.242771L920.289250,256.863196L919.780285,256.726549L919.308240,256.863196L918.675795,257.182039L917.739078,257.424967L917.088189,257.713444L915.198081,257.683078L914.213369,257.591980L913.387255,257.591980L912.697625,257.774176L910.988277,258.062653L910.213844,258.381495L908.675970,258.548508L907.951269,258.502959L907.036650,258.548508L905.976357,258.609240L905.227692,258.609240L904.167367,258.457410L902.948413,258.001921L902.507658,257.743810L903.954403,252.262751L903.636953,250.273781L902.806873,248.269627L900.995907,247.115721L897.846083,245.096385L900.715776,234.179831L905.666615,215.808461L908.562417,204.998213L909.096981,203.009250L918.456118,168.240402L920.463760,160.770426L926.678714,137.145898L926.982938,136.265293L929.861042,124.680789L931.302903,118.744304L934.937197,104.897577L936.906535,97.427638L942.121464,77.553372L944.948475,67.988229L947.050866,59.334057L949.754512,49.267897L951.360896,43.027792L952.032283,39.520581L952.449196,36.423305L952.890099,33.174202L953.032648,24.990718L953.088174,22.212283L906.009573,21.012849L893.506044,20.785108L857.182944,20.101886L856.052624,20.132252L855.001599,20.101886L854.649411,20.117069L850.790120,20.010790L837.748189,19.661588L824.204745,19.039097L791.667227,18.234414L764.528647,17.733384L757.320827,17.596740L743.821598,17.429730L726.193868,17.201990L713.048681,16.959067L706.040003,16.852788L678.746537,16.458037L641.400118,15.896278L591.535450,15.167508L590.443852,15.197873L585.695767,15.349700L581.255587,15.668537L577.058775,16.154383L571.608042,17.019797L570.510882,17.232355L570.857737,16.017739L572.759606,11.220007L559.756426,10.977084L552.083979,10.734160L544.529590,10.217949L537.063756,9.443631L530.193538,8.502305L526.225597,7.727987L501.676790,2.839162L500.574163,2.702518L499.023429,2.763248L497.933710,2.626604L497.515170,2.489960L493.814628,1.624547L490.020004,0.986874L485.587335,0.637673L482.976410,0.440298L482.454592,0.409932L478.617495,0.106279L474.874397,0.000000L474.874397,0.000000Z " data-aland="26884825" data-awater="428444" data-classfp="U1" data-funcstat="S" data-geoid="1208300" data-intptlat="+30.4718909" data-intptlon="-087.2506930" data-lsad="57" data-mtfcc="G4210" data-name="Brent" data-namelsad="Brent CDP" data-pcicbsa="Y" data-pcinecta="N" data-placefp="08300" data-placens="02402713" data-statefp="12"/></g><g fill="#000" font-family="Arial" font-size="12px" id="mylayer-label" stroke="none"><text text-anchor="middle" y="479.435343216"><tspan dy="0" x="592.196685485"><![CDATA[Brent]]></tspan></text></g></svg>