<?xml version="1.0" encoding="utf-8"?><!DOCTYPE svg  PUBLIC '-//W3C//DTD SVG 1.1//EN'  'http://www.w3.org/Graphics/SVG/1.1/DTD/svg11.dtd'><svg enable_background="new 0 0 1000 1001" height="1001px" pretty_print="False" style="stroke-linejoin: round; stroke:#000; fill: none;" version="1.1" viewBox="0 0 1000 1001" width="1000px" xmlns="http://www.w3.org/2000/svg" xmlns:xlink="http://www.w3.org/1999/xlink"><defs><style type="text/css"><![CDATA[path { fill-rule: evenodd; }]]></style></defs><metadata><views><view h="1001" padding="0" w="1000"><proj flip="auto" id="robinson" lon0="-99.2882884894"/><bbox h="0.12" w="0.17" x="-1380.7" y="-604.29"/></view></views></metadata><g class="" id="mylayer"><path d="M1000.000000,139.229938L895.310054,138.221613L846.044679,137.717451L749.662286,136.910791L647.046743,135.599968L614.780744,135.095805L253.300025,131.667500L227.092204,206.384307L183.707845,333.735195L153.697336,416.215527L148.162610,431.441089L140.907826,455.539810L120.677189,522.390971L104.827156,565.143370L98.720941,579.158883L94.309124,588.939489L82.752652,620.096244L65.777500,669.503328L45.163507,731.715805L35.412339,760.956632L3.828501,855.737045L0.000000,865.013410L104.875711,866.929180L138.348261,867.030010L293.382106,866.122540L356.194588,865.920880L400.650605,866.324200L505.871061,867.231670L516.430723,867.332500L555.024416,866.626690L603.637363,865.920880L656.918251,865.013410L705.324373,864.912580L732.542233,864.811750L764.851846,864.710919L863.324823,548.808734L895.593766,451.304890L931.555574,349.969117L1000.000000,139.229938Z " data-aland="667040" data-awater="0" data-classfp="C1" data-funcstat="A" data-geoid="4011150" data-intptlat="+36.0178969" data-intptlon="-099.2882921" data-lsad="43" data-mtfcc="G4110" data-name="Camargo" data-namelsad="Camargo town" data-pcicbsa="N" data-pcinecta="N" data-placefp="11150" data-placens="02413152" data-statefp="40"/></g><g fill="#000" font-family="Arial" font-size="12px" id="mylayer-label" stroke="none"><text text-anchor="middle" y="495.92762495"><tspan dy="0" x="502.23577036"><![CDATA[Camargo]]></tspan></text></g></svg>