<?xml version="1.0" encoding="utf-8"?><!DOCTYPE svg  PUBLIC '-//W3C//DTD SVG 1.1//EN'  'http://www.w3.org/Graphics/SVG/1.1/DTD/svg11.dtd'><svg enable_background="new 0 0 1000 1001" height="1001px" pretty_print="False" style="stroke-linejoin: round; stroke:#000; fill: none;" version="1.1" viewBox="0 0 1000 1001" width="1000px" xmlns="http://www.w3.org/2000/svg" xmlns:xlink="http://www.w3.org/1999/xlink"><defs><style type="text/css"><![CDATA[path { fill-rule: evenodd; }]]></style></defs><metadata><views><view h="1001" padding="0" w="1000"><proj flip="auto" id="robinson" lon0="-97.9451888421"/><bbox h="2.34" w="2.75" x="-1368.64" y="-588.76"/></view></views></metadata><g class="" id="mylayer"><path d="M1000.000000,143.705366L953.077214,143.878329L922.569325,143.594176L921.952019,143.587999L865.160651,143.884506L797.823025,143.754784L775.458092,143.779493L744.534208,143.804202L736.651455,143.816557L729.596168,143.828911L725.111679,143.927747L720.523562,143.940101L729.122654,118.650128L736.959953,91.073624L703.091860,91.085979L663.519856,90.814163L613.102557,91.802585L561.493619,91.549302L546.178398,91.549302L478.540694,91.629611L473.189244,91.617256L472.091348,94.977882L471.971725,95.342361L446.582930,95.163211L453.995607,73.275645L440.170907,73.158268L433.097132,95.064369L410.428247,94.903751L388.373721,95.021126L351.447145,207.618570L343.064016,232.040974L322.357657,297.318060L316.762502,315.740910L314.080922,324.955259L313.402356,326.900633L310.867829,334.614151L304.630794,350.522651L301.835550,357.111985L298.857361,364.491725L291.358176,386.605822L288.348985,396.016935L287.218451,399.573861L284.855010,406.798817L282.182189,415.184620L279.596433,423.212182L277.024037,431.276709L276.885407,431.715131L266.142387,431.573107L258.267228,456.544190L251.717994,456.340423L244.779543,476.580982L249.290473,476.574807L251.331666,476.574807L254.694066,476.587156L261.174073,476.568633L261.567071,476.562458L262.484973,476.457490L250.051730,514.522866L245.776987,527.538134L233.055732,566.273908L206.226016,647.721230L203.429925,656.104378L202.172554,656.098205L193.130258,656.061166L182.177718,656.135243L178.986589,656.141417L160.538581,656.184628L159.129898,656.190802L146.680133,656.153763L144.437591,656.147590L140.363890,656.166109L135.087690,656.196975L131.206960,656.215494L114.606191,656.122897L106.402834,656.098205L104.905941,656.203148L103.528007,656.394515L102.689584,656.721690L97.566576,656.641439L72.123970,656.085858L71.520264,659.882320L70.415237,659.876147L67.766297,667.870259L64.705389,676.703808L57.081554,700.648313L52.722956,713.802342L49.490402,724.061213L48.697573,726.807998L47.828935,729.770812L45.025227,738.146869L43.807366,741.788604L42.059960,747.016622L41.414729,748.676989L40.978700,749.801812L39.692978,753.511397L37.534806,759.621988L36.099130,763.510520L35.045419,766.232480L33.010598,771.935602L31.764368,774.904418L31.001801,776.799269L30.423018,778.070730L15.666217,826.267381L12.408275,838.129366L11.258080,841.209008L9.695312,845.813017L8.712013,849.034573L0.000000,875.250854L28.320642,876.040784L70.007665,877.145451L83.045054,877.534244L83.291903,877.540415L83.584462,877.546587L87.288110,877.589786L85.050591,884.304145L84.212486,885.779074L82.835300,889.413929L79.457055,899.553169L100.652137,898.744750L91.445490,925.397426L91.295071,925.841732L115.201601,925.471477L118.207581,925.551699L137.076165,925.428281L154.654854,925.397426L203.080850,925.329546L250.512810,925.008658L251.426328,925.601067L258.736531,903.558223L259.604436,900.935501L259.983800,899.744474L265.142878,883.582107L265.735194,881.724554L266.035297,880.977829L266.134333,880.737149L264.914409,880.755663L268.059734,870.875366L268.766114,868.653670L271.636891,860.482709L272.742397,858.205439L272.920493,857.878350L276.775556,843.702335L277.223847,842.875341L277.785797,841.499073L278.896839,838.413261L279.807642,835.753281L281.819077,829.853152L285.185773,819.484611L285.603802,818.237908L286.267197,816.256756L287.431427,812.775842L289.820473,805.597947L293.641379,794.044046L295.015956,790.013717L311.079091,790.217394L351.469619,790.760533L361.388463,790.883974L369.768478,791.007414L371.124153,786.754874L374.736043,775.404363L383.805621,747.084518L384.045844,746.288282L386.881666,746.282109L395.650154,746.257420L397.640926,746.257420L398.517486,746.263592L399.281281,746.257420L399.836857,746.251247L400.164939,746.257420L398.043281,752.752199L396.332580,757.887573L394.911804,762.183483L393.262133,767.318792L392.579589,769.405001L392.195914,770.577719L391.299587,772.929323L390.598473,774.342751L389.138680,776.817785L388.147724,778.558329L387.495694,780.132220L385.569435,786.051259L384.182282,790.291459L385.533263,790.322319L390.588474,790.285287L393.228453,790.334663L395.802410,790.384039L397.659237,790.421071L400.233987,790.359351L401.551313,790.322319L402.271316,790.248254L404.750177,789.982857L407.256512,789.742147L408.272054,789.649567L410.854692,789.470578L413.031411,789.476750L420.959964,789.365653L421.664855,789.353309L430.339615,789.569330L432.075783,789.711287L434.983225,789.921136L437.954923,790.260598L441.540887,790.476620L441.896392,790.476620L444.082292,790.501308L447.199729,790.581544L448.379994,790.575372L451.268703,790.563028L455.580664,790.655609L459.341859,790.630920L460.620637,790.618576L464.035633,790.674125L466.875702,790.717329L467.504413,790.704985L468.856311,790.686469L471.729721,790.643264L473.785595,790.661781L489.248249,790.760533L499.524435,790.785221L502.407089,790.791393L509.582112,790.748189L516.267695,790.772877L520.090875,790.760533L522.017701,790.754361L525.963156,790.927178L529.162705,790.927178L533.922440,790.939522L538.176328,790.945694L541.039644,790.933350L545.431568,790.890146L552.501307,791.013586L563.268303,791.137027L564.322643,791.143199L569.291384,791.044446L574.775348,791.062963L586.569078,791.106167L590.068333,791.137027L593.977006,791.204919L595.859232,791.241951L601.703517,791.137027L606.439035,791.223435L611.480115,791.229607L612.913469,791.303672L620.513391,790.939522L631.752773,791.093823L639.516209,791.192575L652.755608,791.365392L689.366594,791.834466L741.138840,792.501044L766.555761,792.630656L777.434340,751.431316L778.204191,746.208041L792.788503,705.969211L810.565590,656.937749L810.817972,656.166109L811.715424,653.406718L812.326588,652.764711L818.145753,634.880881L825.687121,611.718313L833.900218,586.597976L837.153997,576.497748L869.829799,476.648902L896.806027,394.108785L917.800930,394.232290L920.145411,387.087496L949.577286,297.558925L978.842021,208.032411L979.601263,205.932321L1000.000000,143.705366Z M488.128942,745.917939L486.109720,745.911767L489.069923,743.041603L488.128942,745.917939Z M488.128942,745.917939L491.686950,745.924111L498.011099,724.777230L505.503608,701.210034L515.134408,701.327316L547.477075,701.160652L562.177953,657.116769L562.857482,655.474719L569.669380,635.109292L546.759170,634.683335L539.926968,655.233967L517.321270,656.592054L517.510192,656.030300L539.996258,586.912834L546.698193,566.317125L528.911355,566.329472L527.997334,566.329472L527.164657,566.391211L526.805308,566.496167L522.304962,566.298603L533.400113,558.575068L535.059860,557.476109L538.825965,555.123838L548.518894,548.208984L561.528401,537.848933L561.624354,537.509358L576.809491,523.327336L582.072393,518.202727L596.193575,500.680008L605.005707,488.547234L612.892570,475.488079L619.637444,464.009423L619.770982,462.935026L662.948998,462.613942L666.160885,449.023311L665.684296,447.362286L663.494941,443.799406L662.836098,441.051593L663.042341,437.476334L663.029954,436.599498L663.163433,436.191954L663.637331,434.481502L664.336494,432.641372L664.816798,431.888029L666.841339,428.683226L665.716399,428.102778L662.901666,427.503805L671.334220,401.759880L665.311132,401.500522L657.491576,401.160887L664.054278,382.801823L667.198980,373.791950L665.110499,372.402482L663.220195,371.957851L666.349452,366.745774L674.859421,354.734397L684.086378,342.642550L684.659032,341.747079L686.485652,338.202238L698.283032,324.479722L700.832600,321.719133L712.975908,309.280919L723.162509,300.319600L727.172941,296.323720L733.158644,291.691686L737.917230,288.418365L754.362164,276.998689L758.652001,274.040293L764.963870,269.574884L792.619709,251.552409L803.875383,242.195134L830.531992,216.858901L831.618244,214.660009L829.665371,216.327709L826.385877,219.440739L820.142481,225.462935L814.028963,231.367731L806.692249,238.526310L805.433453,239.749253L801.634292,242.991896L797.010190,246.753345L791.281922,251.033593L787.603846,253.535025L785.395987,255.035881L780.879760,258.049936L775.644011,261.416029L770.546434,264.856223L765.377884,268.389046L760.471909,271.538926L756.139293,274.379984L755.095245,275.102600L751.889040,277.326027L748.653471,279.623562L746.228545,281.322004L745.775010,281.636988L741.545411,284.891809L739.019188,286.806403L737.830139,287.708114L736.069384,288.572767L737.811527,286.479070L738.403859,285.879987L739.536792,284.731230L743.229437,281.643164L745.808127,279.413572L756.616940,270.056631L758.530174,268.401398L763.942144,263.645672L769.706361,258.791095L774.649756,254.504714L782.871706,247.216576L786.955833,243.615717L793.364620,238.513957L799.531268,233.918639L802.457625,232.022445L804.745744,230.540074L811.741291,226.296774L817.619611,222.720526L825.828692,217.655689L828.774457,215.870636L831.199282,214.017634L831.198009,213.758214L829.110098,214.412942L828.080859,214.734129L811.007964,225.049104L804.803884,228.798286L786.514486,241.972781L757.588303,266.875863L756.763551,267.579956L754.541882,269.463712L735.002905,286.435837L731.638788,290.024146L731.205697,290.462648L726.673133,294.285628L724.325879,296.428713L711.756739,307.780168L697.806768,321.811770L696.759045,322.855484L684.826179,337.115315L682.201437,341.530930L682.055450,341.728552L678.201000,346.953148L664.825220,365.881208L661.588755,371.451466L660.251072,371.179747L652.820046,372.025781L649.187635,373.551109L642.702113,377.787431L640.043332,381.609981L635.214987,394.627506L633.717195,397.029672L622.693251,406.502410L617.352542,413.288869L616.796005,414.801765L615.124233,419.223112L613.815210,421.483176L610.061106,423.891433L607.985268,423.749408L605.139570,421.199124L598.628205,420.353145L596.079249,419.500989L593.616631,417.098893L594.231291,414.974668L551.610407,414.777065L553.846067,407.984444L556.377366,400.413688L561.181085,385.908012L566.514350,368.036446L568.620332,362.756412L570.448110,357.457816L571.121790,355.185213L571.666140,352.579122L572.097747,351.726892L572.332935,351.381059L572.630969,350.936416L575.421173,344.452016L577.539345,338.980375L577.768160,338.375157L581.608559,323.590406L584.537369,315.382709L587.187869,307.946918L591.098311,297.287180L569.782244,297.497165L553.327694,297.497165L545.557587,297.225420L541.840197,297.213068L532.273202,297.311884L527.002282,297.330412L525.863010,297.336588L520.178768,297.299532L515.329148,297.225420L510.965953,297.200716L508.471123,297.206892L506.314427,297.219244L500.605887,297.256300L477.189780,297.274828L469.647329,297.206892L455.678515,297.243948L413.852190,297.250124L410.364181,297.126604L409.908278,297.138956L412.561687,289.418891L414.255773,284.144498L415.799353,279.716204L416.434467,277.949821L435.239682,220.923130L439.665773,207.414738L449.929713,178.062369L454.257292,166.048089L454.552008,164.886802L455.058448,162.971910L455.622765,161.050836L458.230342,153.304723L459.990599,147.831745L469.936544,117.877949L470.025742,117.606142L471.592809,112.830972L473.525845,106.925288L474.044864,105.374730L475.234986,101.841176L476.176684,98.894477L477.325201,95.317651L545.624884,94.984060L559.586790,94.977882L612.103288,94.879041L669.023127,95.021126L701.779654,95.101434L727.217113,95.132323L719.560788,118.705724L709.355727,149.820800L720.454989,149.814623L727.618960,149.826977L732.732024,149.839331L742.548980,149.857863L773.378660,149.950521L795.792398,149.901103L863.167779,149.931989L913.996588,149.721965L914.629126,149.728142L951.181146,149.925812L992.012313,149.752851L972.764185,208.020057L965.561902,229.829771L943.319371,297.552749L913.994781,387.093671L913.547916,388.458412L892.936004,388.390484L864.012944,476.673600L831.033178,577.683111L828.187944,585.727485L819.914360,611.699792L819.457935,613.094999L813.867761,629.516266L812.556424,634.177124L791.013915,699.981655L775.934102,746.208041L762.377252,787.298016L742.654180,787.896705L655.171551,787.409113L654.786081,787.174575L654.185253,787.396769L654.130564,787.470833L631.711511,787.507866L621.181593,787.094338L595.294418,786.927692L576.189963,787.094338L564.582091,787.026445L553.453305,786.798079L484.032565,786.366034L475.201863,786.378378L475.626854,785.094587L478.903359,775.015516L479.913623,771.818330L480.200255,770.911018L480.272938,770.688819L481.037887,768.226108L481.432386,766.911425L475.790097,766.911425L479.369969,755.967984L484.839731,756.060569L487.256874,748.707850L487.539383,747.751134L488.128942,745.917939Z M470.305994,678.117413L451.894204,678.111240L448.785120,687.611338L442.216910,687.648375L445.473250,678.117413L437.085967,678.111240L439.197230,671.660487L457.978066,671.345665L463.216899,655.882145L470.829223,655.943877L477.842267,655.974742L479.076269,655.974742L475.618955,667.407282L471.915936,675.370449L470.305994,678.117413Z M470.305994,678.117413L491.785816,677.981608L492.830088,678.080375L495.041100,678.043338L499.051895,678.030992L501.011013,677.987781L506.796483,678.154451L510.283292,678.191488L508.224935,684.481689L507.280590,687.352078L506.734179,689.006404L503.240563,700.055729L502.829512,701.296453L501.469078,705.376630L500.879268,707.148198L498.552397,714.135665L497.626442,716.981249L468.918641,716.654100L468.694949,715.987456L451.718732,715.907212L451.362321,715.956593L441.157859,715.993629L450.672437,704.376649L453.078885,701.802618L464.417116,687.592819L465.340327,686.463184L470.305994,678.117413Z M361.851322,720.314457L368.778818,701.537190L369.526607,699.407588L381.558832,699.185369L384.743359,689.160725L395.492165,688.623687L395.975359,687.333559L398.379468,681.043382L408.538596,680.771773L407.764735,683.105134L407.544461,683.747115L418.108175,683.666867L418.867954,683.703905L419.752669,683.747115L417.266312,691.111344L414.155353,700.679177L413.852392,701.635954L411.005595,710.598731L406.502181,724.376013L403.112552,734.517462L402.339645,734.535979L401.412365,734.560669L393.531635,734.573014L394.439968,732.029949L377.560926,732.412644L381.783107,720.332975L361.851322,720.314457Z M300.024380,774.645187L301.028219,771.608476L302.029015,768.565580L303.826600,763.072289L304.913256,759.751606L308.739524,748.312819L309.518251,745.948801L313.417498,745.936456L316.136514,745.930284L318.232895,745.917939L328.990076,745.868560L332.316491,745.868560L342.472389,745.825353L353.154488,745.819181L357.882568,745.819181L349.688744,771.910913L344.681291,787.044961L307.440721,786.545024L296.256232,786.378378L297.087482,783.946580L297.356024,783.094832L298.003150,781.039521L299.511507,776.274636L300.024380,774.645187Z M400.469712,757.443167L401.717994,753.752118L404.418501,745.627837L409.514430,745.714250L413.064418,745.775974L414.347317,745.813008L420.318709,745.862387L423.955952,745.874732L429.394042,745.893249L435.885964,745.671044L440.207884,745.732767L441.203329,745.763629L441.309977,745.763629L432.382961,768.651991L466.257037,768.139697L461.291734,783.008422L450.554777,782.638096L449.602682,786.464787L421.100414,786.483304L413.485647,786.551196L391.183287,786.526508L391.294340,786.187044L397.729660,765.973246L398.992761,762.097072L400.469712,757.443167Z M4.597402,871.554217L12.333415,845.356320L13.715432,845.121800L16.271283,838.166396L15.724792,838.160224L17.328947,832.840252L18.974539,827.378293L19.236119,826.563625L20.477430,822.724796L31.724045,787.872017L44.047988,787.939910L55.727983,788.020146L104.184645,788.217652L106.370592,788.273201L107.811943,788.291717L116.087235,788.378125L130.587089,788.563287L129.957328,790.223566L124.140029,807.702565L114.793283,835.673049L108.097298,856.539139L107.974113,856.915600L107.817518,857.347603L107.753877,857.526576L102.593347,872.196038L95.405021,871.875128L92.000253,872.455235L89.321704,872.492263L89.269506,872.294780L89.205008,872.041754L88.745766,872.498435L73.709776,872.319465L29.774136,871.831928L4.597402,871.554217Z M47.155875,739.813428L72.871068,659.882320L81.489731,659.832935L86.958870,659.771204L94.611778,659.802070L96.455870,660.265051L113.156038,660.240359L132.703428,659.802070L147.001548,659.746512L157.978423,659.629223L153.748738,672.234576L151.354647,679.777932L172.579423,679.537188L166.048661,700.660659L158.878007,724.283425L177.431197,724.092075L178.686208,721.499594L179.427622,720.289767L176.351141,720.302112L176.497731,719.900893L179.651476,719.931756L179.923937,719.487329L181.699234,716.438058L180.959337,716.154117L187.382792,700.660659L194.555283,700.561895L195.946853,700.623622L206.915044,700.611277L232.250859,700.580413L234.974926,700.605104L272.848621,702.018664L282.048411,701.932246L289.101918,701.747063L298.303726,701.654472L299.604107,701.839654L294.504021,717.777517L294.210082,718.691063L294.079795,719.104628L293.988878,719.382395L293.701058,720.308285L283.846224,728.462237L258.755953,748.993231L252.991740,753.943461L244.454536,761.035441L232.229930,770.657958L224.003469,776.583244L211.634775,785.156308L206.151834,788.921266L204.602095,793.377470L231.571039,791.914702L223.485607,818.688450L251.720834,818.929150L257.672202,818.978524L273.661367,819.114304L280.397127,819.280942L275.051806,835.728594L268.759545,855.755360L266.223689,863.833801L260.909138,880.749492L255.277683,897.905474L254.937967,899.115018L254.900286,899.540826L247.442918,921.287582L204.391966,921.460369L129.544362,920.892641L97.809345,920.942009L99.267417,916.282922L102.679460,905.526801L106.680333,893.017911L94.847233,893.480750L84.927739,893.869534L89.467624,883.983239L93.144053,877.046710L106.403507,877.238021L112.243400,858.970701L114.424477,852.367202L114.586033,851.873480L114.709219,851.497017L119.755447,835.765624L132.397188,796.889334L134.589053,790.223566L136.359701,784.798328L117.404499,784.384798L112.204912,784.335421L109.398619,784.421831L57.191596,783.409608L45.419402,783.440469L33.239394,783.181241L37.075403,771.293694L47.155875,739.813428Z " data-aland="57067090" data-awater="123501" data-classfp="C1" data-funcstat="A" data-geoid="4013950" data-intptlat="+35.0412905" data-intptlon="-097.9471761" data-lsad="25" data-mtfcc="G4110" data-name="Chickasha" data-namelsad="Chickasha city" data-pcicbsa="N" data-pcinecta="N" data-placefp="13950" data-placens="02409446" data-statefp="40"/></g><g fill="#000" font-family="Arial" font-size="12px" id="mylayer-label" stroke="none"><text text-anchor="middle" y="489.284088495"><tspan dy="0" x="418.112926708"><![CDATA[Chickasha]]></tspan></text></g></svg>