<?xml version="1.0" encoding="utf-8"?><!DOCTYPE svg  PUBLIC '-//W3C//DTD SVG 1.1//EN'  'http://www.w3.org/Graphics/SVG/1.1/DTD/svg11.dtd'><svg enable_background="new 0 0 1000 1001" height="1001px" pretty_print="False" style="stroke-linejoin: round; stroke:#000; fill: none;" version="1.1" viewBox="0 0 1000 1001" width="1000px" xmlns="http://www.w3.org/2000/svg" xmlns:xlink="http://www.w3.org/1999/xlink"><defs><style type="text/css"><![CDATA[path { fill-rule: evenodd; }]]></style></defs><metadata><views><view h="1001" padding="0" w="1000"><proj flip="auto" id="robinson" lon0="-97.569327366"/><bbox h="1.42" w="1.14" x="-1362.39" y="-589.32"/></view></views></metadata><g class="" id="mylayer"><path d="M568.787133,0.000000L558.037578,0.822057L547.982729,1.584545L533.532022,43.056157L511.674515,43.282514L493.302700,43.473131L492.279541,46.689785L487.933634,60.330707L486.809180,63.857075L505.916376,66.025310L499.012418,86.408960L457.365112,86.551918L456.141854,86.551918L441.763234,130.201335L431.384741,161.686768L427.460810,176.494112L427.659553,178.519240L427.617222,179.007653L427.532648,180.044041L426.861570,182.843477L420.198542,200.759743L418.550499,205.917779L415.096733,216.746025L409.931458,216.769849L373.398743,216.948533L359.106264,260.046339L315.642170,260.260753L308.815618,281.999791L264.548503,282.095084L270.078371,265.906976L279.312942,238.902596L234.779054,239.486286L228.164465,259.736630L223.711038,273.530536L218.357851,290.135472L215.249350,300.057849L214.910760,301.332387L214.945226,302.094727L215.375154,302.904713L212.899327,308.050497L211.137560,314.184916L185.878979,391.416945L157.572930,476.815514L155.225086,486.391290L146.785257,511.187985L128.826698,563.936194L112.573805,611.502101L111.302591,615.241571L99.285747,650.420718L99.902387,650.420718L110.959222,650.611260L117.627049,650.754166L125.379220,650.813710L132.275717,650.766075L143.848733,650.635078L162.854925,650.611260L164.229478,650.777984L178.863650,650.384992L186.627030,650.170633L188.786274,650.182541L178.065739,681.490586L176.167413,686.670820L219.316393,686.301654L215.110596,698.484069L257.979899,698.162540L253.251117,712.905157L233.131490,775.267932L222.657003,806.882978L216.514670,823.589267L206.859956,849.880755L206.369126,851.023853L203.038944,860.740149L198.855679,873.278363L196.863858,879.946317L193.600725,888.888472L189.147861,901.533613L187.361237,907.094107L185.102253,914.131019L179.067052,933.300782L178.449222,935.372530L170.711148,961.316769L165.242690,978.842864L159.921691,995.678199L176.819417,995.582950L198.322330,995.654387L207.887875,995.499607L213.534032,995.416265L324.282027,997.023589L330.378335,998.499944L332.447004,999.000000L334.042486,998.940470L336.730461,998.083231L339.212001,996.868810L342.269801,995.928227L344.170039,995.594856L354.920201,995.499607L371.511149,995.654387L375.971093,995.666293L393.609187,995.702011L397.892928,995.713917L405.140170,995.463889L425.644309,995.416265L429.632360,995.404358L462.382079,995.118612L468.589248,995.475795L473.410106,995.761542L492.098934,995.547232L501.429819,995.511513L505.431226,982.652858L510.764869,966.103128L516.091002,950.386667L522.561144,929.966928L524.067846,925.561466L527.291208,916.107540L529.865979,907.201268L530.267952,905.820077L532.134077,901.033525L535.477884,891.091259L540.717860,875.731221L541.807139,871.885233L543.189119,867.622486L544.618950,864.562351L546.907218,857.703813L558.629713,822.791466L645.010110,823.041523L657.547808,787.580613L681.239990,713.679200L683.969590,705.081347L684.696726,702.794929L685.819749,701.604085L692.652334,691.982030L696.897891,681.859753L698.457810,675.405277L699.738498,670.165461L699.925483,662.460517L698.005925,656.470402L700.609110,647.121964L700.975996,645.669080L703.885231,637.511471L708.437739,624.173389L709.624079,620.481577L715.423579,602.367752L720.555215,586.778496L721.166017,584.908727L729.431444,559.517753L729.612304,558.934185L730.952619,554.801560L738.402600,532.387530L740.755189,525.396477L742.352811,520.656358L749.856810,498.468117L756.819306,476.410566L765.491928,446.634750L785.435528,389.320630L829.681100,388.367759L836.074014,367.368707L879.389607,366.475378L880.564284,362.401788L883.461425,354.075910L884.627684,350.716959L888.855949,338.138694L891.920133,329.002712L897.174123,313.077149L900.714253,302.904713L891.907934,302.809421L870.834990,302.785598L855.021654,302.868979L847.554444,302.928536L834.107615,303.047652L825.737809,302.964271L823.574825,302.904713L817.054511,302.702217L814.492479,302.785598L803.823516,303.119121L792.737404,303.321618L791.889847,303.309706L813.227765,235.853108L794.329919,235.853108L791.681456,235.722075L794.994194,225.799286L797.817783,217.103392L798.409793,215.292734L796.017896,215.245085L756.091540,214.399316L763.837052,190.741431L768.024537,177.935527L774.476943,157.874717L783.816831,130.391941L816.005772,23.839485L800.062719,23.875226L773.592085,23.934795L766.815530,43.782883L732.193391,44.080722L722.879275,44.164117L708.514163,86.313654L631.343045,86.158782L586.623463,85.312943L599.425463,43.759056L558.407730,42.996589L567.107384,6.957688L568.787133,0.000000Z "/></g><g fill="#000" font-family="Arial" font-size="12px" id="mylayer-label" stroke="none"><text text-anchor="middle" y="508.002023791"><tspan dy="0" x="475.498478745"><![CDATA[N]]></tspan></text></g></svg>