<?xml version="1.0" encoding="utf-8"?><!DOCTYPE svg  PUBLIC '-//W3C//DTD SVG 1.1//EN'  'http://www.w3.org/Graphics/SVG/1.1/DTD/svg11.dtd'><svg enable_background="new 0 0 1000 1001" height="1001px" pretty_print="False" style="stroke-linejoin: round; stroke:#000; fill: none;" version="1.1" viewBox="0 0 1000 1001" width="1000px" xmlns="http://www.w3.org/2000/svg" xmlns:xlink="http://www.w3.org/1999/xlink"><defs><style type="text/css"><![CDATA[path { fill-rule: evenodd; }]]></style></defs><metadata><views><view h="1001" padding="0" w="1000"><proj flip="auto" id="robinson" lon0="-78.1052667129"/><bbox h="0.23" w="0.23" x="-1085.45" y="-607.2"/></view></views></metadata><g class="" id="mylayer"><path d="M205.331071,0.000000L112.201812,55.015148L13.406053,117.608411L36.606731,196.596684L100.499518,454.910110L117.988274,522.603136L226.883110,499.358725L270.760692,489.448876L622.410567,468.973368L597.490763,583.227968L544.827497,834.469856L469.279296,987.341563L562.409772,994.992413L646.804099,999.000000L731.496674,815.379050L805.292239,463.654105L943.712597,451.558244L964.898616,368.635876L986.593947,277.260680L858.737237,276.386275L880.668321,243.741794L818.553661,220.497152L735.489087,186.613861L673.710691,292.927103L413.996140,307.719112L267.572165,316.536020L260.897331,289.283749L252.133777,237.766684L210.164472,22.880485L205.331071,0.000000L205.331071,0.000000Z " data-aland="730828" data-awater="5507" data-classfp="C1" data-funcstat="A" data-geoid="3711560" data-intptlat="+36.1854460" data-intptlon="-078.1088375" data-lsad="43" data-mtfcc="G4110" data-name="Centerville" data-namelsad="Centerville town" data-pcicbsa="N" data-pcinecta="N" data-placefp="11560" data-placens="02406245" data-statefp="37"/></g><g fill="#000" font-family="Arial" font-size="12px" id="mylayer-label" stroke="none"><text text-anchor="middle" y="444.457019816"><tspan dy="0" x="507.53512814"><![CDATA[Centerville]]></tspan></text></g></svg>