<?xml version="1.0" encoding="utf-8"?><!DOCTYPE svg  PUBLIC '-//W3C//DTD SVG 1.1//EN'  'http://www.w3.org/Graphics/SVG/1.1/DTD/svg11.dtd'><svg enable_background="new 0 0 1000 1001" height="1001px" pretty_print="False" style="stroke-linejoin: round; stroke:#000; fill: none;" version="1.1" viewBox="0 0 1000 1001" width="1000px" xmlns="http://www.w3.org/2000/svg" xmlns:xlink="http://www.w3.org/1999/xlink"><defs><style type="text/css"><![CDATA[path { fill-rule: evenodd; }]]></style></defs><metadata><views><view h="1001" padding="0" w="1000"><proj flip="auto" id="robinson" lon0="-114.559633991"/><bbox h="2.06" w="3.48" x="-1496.25" y="-800.61"/></view></views></metadata><g class="" id="mylayer"><path d="M1000.000000,205.307678L975.162368,205.604437L965.727865,205.717488L957.512418,205.425440L944.194751,205.048603L932.287717,204.558715L911.078678,203.682570L897.546821,203.988750L890.909921,204.068828L890.049066,204.106512L839.102028,206.207376L807.471473,207.314334L803.158732,207.389701L798.089613,207.573409L794.614294,207.606382L764.058001,206.522977L752.789588,206.278033L734.562965,206.659580L713.052266,207.111784L655.708913,207.417964L649.715725,207.352017L638.614660,207.427385L638.052050,207.422674L624.070016,207.526305L532.419619,209.090178L531.979481,210.131190L530.404653,212.330976L529.816415,212.872680L527.577680,214.450686L526.325051,215.491699L525.435101,216.113481L524.367070,216.942523L523.143127,217.941143L520.795743,220.334062L519.704956,221.596468L518.688760,222.821191L517.764971,223.659656L516.208038,225.510873L515.757911,226.231576L514.891504,227.456300L514.379066,227.875533L513.372002,228.365422L511.951635,228.794076L511.217607,229.246282L509.667035,230.367376L507.995389,231.917125L506.826285,232.746170L505.589701,233.448032L502.968776,234.752836L502.019877,236.194244L501.480342,236.735950L500.675092,237.060974L499.994683,237.428392L497.236440,239.119457L496.214348,239.953214L494.591187,241.592464L494.013070,241.875094L493.387467,242.072934L492.527412,242.567536L491.876693,243.368320L491.441443,244.305708L491.337784,245.035834L491.418753,246.025038L491.169283,246.665665L489.842938,248.309628L488.574007,250.339853L488.007655,251.964975L487.394374,253.109627L486.434382,254.442699L486.240004,254.715908L484.683217,256.567136L483.949063,257.579894L484.178070,258.578521L483.931401,259.214440L483.139831,259.840937L481.205320,261.169300L480.460061,261.965376L480.214584,262.516506L480.102096,263.420924L479.725659,264.099237L479.142413,264.556157L478.184046,265.046050L475.179082,266.087073L474.518610,266.025836L473.909184,265.795021L473.096772,265.813863L472.545752,265.974021L472.245311,266.096494L471.747020,266.294336L470.936845,266.704150L470.129231,267.198754L468.804282,268.197383L467.470454,269.370301L465.356596,271.551270L464.294760,272.210743L463.489513,272.535769L462.668214,272.728900L461.778440,272.790137L461.499283,272.997399L459.825411,274.716739L458.099011,276.996631L457.164285,278.089472L456.160877,279.139919L454.978038,280.228050L453.976994,281.108918L452.758098,282.022760L451.613991,282.809418L451.002082,283.308734L450.585869,283.812761L450.360225,284.495787L449.582289,285.984314L449.111299,286.657920L448.785735,287.256158L448.470548,288.320738L448.567540,289.531345L448.305965,290.511135L448.252364,290.595925L448.188719,290.939794L447.934422,291.665216L446.838741,293.101930L446.584450,293.827352L445.607478,296.036594L444.995524,297.096466L443.979568,298.321206L443.503689,299.079603L442.780606,300.398555L442.476482,301.208768L441.966826,302.183850L441.363704,303.629988L439.992835,305.745023L439.510267,306.597632L438.960803,307.398425L438.509680,308.203929L438.280357,308.886958L437.795428,310.469703L436.939309,311.995922L436.296433,312.707215L433.917028,314.671516L433.048615,315.505284L432.468901,316.268394L431.778502,317.455454L431.561793,317.964195L431.430835,318.651936L430.714348,320.526738L430.121329,322.274356L429.407198,323.979579L428.819107,325.081851L428.324447,325.713066L427.053231,327.187473L424.963487,329.410860L424.362630,330.216367L423.739826,331.530616L423.578892,332.435045L423.743660,333.772847L424.000687,334.724382L424.225410,335.284940L418.500414,334.729093L409.293012,334.771488L407.818359,335.317914L406.289185,336.396635L402.490592,341.488767L400.123268,343.763976L399.693685,344.004215L395.196265,346.481980L392.576518,346.797589L386.815921,347.697310L382.048534,349.360146L378.467576,350.603740L372.132307,354.640713L369.379377,357.151457L365.163262,364.330400L356.539875,379.046320L355.029186,381.623023L354.347749,385.146561L355.151991,387.219231L354.432802,389.061081L355.179217,389.301323L355.910814,389.560407L356.205700,389.664040L357.298935,390.276420L357.798814,390.700376L358.992040,391.180859L359.550537,391.779107L359.588309,391.925137L359.781406,392.603466L359.470206,393.324190L359.027932,393.828227L358.938511,394.751508L358.522120,395.759581L357.901214,396.612204L357.034266,397.488379L355.717889,398.689588L353.303185,400.427809L352.431522,400.974241L350.737535,402.034132L349.714271,402.481642L347.077948,403.494426L345.911224,404.026727L345.288376,404.544896L344.663088,405.322150L341.824408,409.241395L339.969589,411.620265L331.410246,422.987035L326.626711,429.336986L325.706961,430.698363L325.334617,431.376697L325.266082,431.569833L324.699745,433.190297L324.050925,435.333644L322.779546,439.511994L321.721714,442.625738L320.832439,444.674875L319.892494,446.497901L319.732956,446.775830L318.839053,448.297374L317.253727,450.728076L316.502660,451.458229L315.868494,452.065905L315.027204,452.758373L314.129065,453.375471L313.974545,453.479105L313.306625,453.870091L312.960249,453.879512L312.072732,453.898355L311.939516,453.870091L311.640187,453.799431L311.078172,453.672243L310.496073,453.285968L309.329108,451.670209L308.720943,451.194432L308.621916,451.114351L307.997356,450.902371L307.249548,450.836422L305.834419,450.911792L304.310857,451.114351L302.713402,451.538311L301.656588,451.896321L299.180020,452.866719L297.087073,453.592161L296.479677,453.733481L293.687820,453.780588L292.725225,453.780588L287.769923,453.780588L284.422421,453.785299L277.159889,453.785299L276.720870,453.907776L276.356134,454.171573L276.035733,454.685036L274.810987,456.814258L272.388239,461.020887L271.655990,462.292769L270.722653,463.696550L270.272652,464.271252L269.608322,464.751741L266.035653,466.829150L260.565836,469.961751L258.194190,471.257188L251.077620,474.432187L247.888976,475.887788L243.937202,477.348100L240.902857,478.464533L236.731085,480.037902L234.719858,480.796323L233.933017,481.083675L233.702435,481.163757L231.613589,481.512348L230.415034,481.729039L227.344197,482.850183L225.824429,483.486126L224.838281,483.895956L222.946344,485.012390L221.594682,485.808497L218.629327,487.419553L217.228524,488.375824L215.751606,489.723083L214.835621,490.651089L213.666755,492.309254L209.369555,499.554310L207.970997,501.909661L194.864256,524.568185L182.922244,544.748943L178.815326,551.461743L178.706287,551.621908L178.631423,551.730255L178.589928,551.800917L168.425754,568.976297L166.562307,569.508612L164.648851,570.304729L162.443677,571.355227L159.183752,572.989859L158.574529,573.140603L156.726540,573.117050L156.034315,573.102917L152.185791,573.168868L146.246411,573.178289L145.066227,573.465645L144.121938,573.842506L143.548515,574.219366L142.902431,574.841186L142.105322,575.943503L141.595450,576.913919L141.266311,577.780699L141.040738,578.605082L141.070255,579.467151L141.462737,580.183186L141.942861,580.654262L142.328904,581.483356L142.631221,583.584356L142.762324,585.600562L143.075269,588.436443L143.179146,590.339593L143.029104,591.022654L142.011456,595.582679L141.723354,597.726080L141.376357,599.478487L141.243113,600.152128L140.783081,602.333217L140.562488,603.379009L140.404543,604.113890L140.089931,606.417460L140.062888,606.629445L140.140439,607.307797L140.530339,608.334747L140.962399,609.959966L140.998648,610.925677L140.721632,612.042132L138.913579,616.960190L137.185281,621.289404L135.630812,625.175805L135.321477,625.938953L133.094436,632.567040L132.252484,634.639791L131.733664,635.727985L130.239662,638.860667L129.267518,640.829782L128.363429,642.568068L124.027388,649.375181L122.684593,651.363142L122.572843,651.528020L121.343903,652.983660L119.147519,655.423860L117.473661,656.973717L116.101195,658.891018L114.459223,661.708085L113.366542,663.691339L112.836009,665.010368L112.452801,666.065591L111.969898,667.756775L111.832079,668.227857L111.339602,670.573845L110.844020,671.629069L110.309333,672.514704L108.961091,674.601599L108.556426,675.661534L108.192729,677.564708L107.966906,678.134717L107.660671,678.912004L106.740097,680.857576L105.378397,683.095219L104.043882,684.852359L102.501160,686.581234L100.365107,688.555072L98.095961,690.519490L95.650355,692.733582L94.878701,693.614509L94.138925,694.881724L92.767923,697.595166L91.274043,700.383983L89.960338,703.012633L88.043263,706.197163L86.658352,708.627959L85.110084,711.209502L79.919814,719.858623L79.144837,721.154108L76.820734,725.026430L76.044796,726.317205L73.860900,729.963409L67.302785,740.887898L65.118085,744.529398L65.003809,744.717833L64.572748,745.452729L63.271100,747.652704L62.839063,748.382889L61.494746,749.499366L60.287227,750.337901L59.175057,750.969158L58.672266,751.181147L58.044422,751.440245L56.862771,751.774717L53.414838,752.363576L47.372236,753.249220L46.829670,753.324594L43.757162,753.611957L43.533511,753.635511L42.866120,753.687331L42.644249,753.701464L42.418631,753.715596L41.453130,754.026514L41.336741,754.097177L40.172667,754.784965L37.130996,757.032052L35.749283,757.969516L34.197322,759.024753L30.501692,761.728796L28.148339,763.485954L27.614655,763.980596L27.095771,764.456395L25.253164,766.792992L23.853260,768.809249L16.549080,778.758640L15.549133,779.926940L14.111274,781.330785L10.917597,784.284514L7.626035,787.469077L3.690557,791.266058L0.000000,794.639060L1.232243,794.672037L14.810661,794.789809L15.730270,794.940558L16.839978,795.176103L17.768094,795.242055L18.656794,795.209079L21.369115,794.865183L23.616724,794.700302L28.114600,794.723856L31.675831,794.855762L34.163213,794.869894L35.695070,794.794520L37.064041,794.639060L45.554300,794.723856L46.793416,794.879316L48.073368,794.997089L49.945601,795.044198L51.823404,794.902871L54.213808,794.686169L56.691125,794.723856L60.116090,794.813364L62.333863,794.846340L65.511531,794.846340L71.777107,794.954690L76.132590,794.978245L83.552534,795.015932L86.879706,794.978245L95.166056,795.001799L98.850799,794.935847L100.345177,794.860473L106.836804,794.813364L109.023615,794.841629L111.283177,795.020643L113.338626,795.119572L115.512644,794.997089L118.113014,795.157259L121.972475,795.227923L124.213526,795.246766L127.608329,795.317430L129.970291,795.251477L132.181389,795.091307L134.219322,794.945269L138.191591,795.053619L141.658589,795.039487L146.674794,794.907581L153.905387,795.114861L155.880588,795.063041L156.505189,795.128994L162.667158,787.398414L165.338411,783.992438L169.322295,778.782194L174.827748,771.762973L178.643294,767.019114L188.366409,754.507023L193.810376,747.657415L227.199830,705.876825L241.470436,686.260897L250.586720,670.809386L254.321856,664.416805L256.776753,660.219468L256.793335,660.191203L257.527488,658.933415L271.684993,659.145402L282.775595,659.131270L283.225182,659.131270L290.080396,659.126559L326.409390,659.084162L373.146123,659.022921L375.008161,659.022921L439.510787,659.121848L458.176161,659.032343L505.179132,658.810934L505.999627,658.810934L520.656940,658.796802L573.055665,658.740272L622.016032,658.688453L644.946520,658.660188L687.709881,658.589526L702.728834,658.405804L710.921751,658.509442L718.655423,658.584815L734.132236,658.476467L751.461527,629.118738L759.574913,615.372656L761.044153,612.795857L782.676879,574.483169L784.229950,571.732088L785.263176,569.899605L785.775902,569.108198L785.846921,568.999851L787.872001,565.871912L788.101447,565.499763L791.694506,559.691411L791.756258,559.592485L796.632284,551.711413L799.220695,547.584806L800.513699,545.399024L801.778111,543.255640L802.674982,541.630437L803.664421,539.425814L803.741960,539.312757L808.327737,532.515175L820.521099,511.641982L828.714128,497.622922L848.651457,463.503412L849.408733,462.212688L850.947014,459.565290L851.705108,458.260434L852.267955,457.294747L859.298953,445.254286L867.648034,430.962159L869.148079,428.399567L886.411656,398.849749L899.521459,376.413091L901.401631,373.191038L904.995357,367.043704L926.912550,329.547467L930.934968,322.665333L934.603480,316.386158L951.079961,288.202974L951.403657,287.651842L965.308247,263.590502L968.777346,257.589315L969.846772,255.813455L970.058514,255.191669L980.588167,237.051553L996.577706,210.889574L1000.000000,205.307678Z " data-aland="128452492" data-awater="0" data-classfp="U1" data-funcstat="S" data-geoid="3053725" data-intptlat="+47.8308617" data-intptlon="-114.5577312" data-lsad="57" data-mtfcc="G4210" data-name="Niarada" data-namelsad="Niarada CDP" data-pcicbsa="N" data-pcinecta="N" data-placefp="53725" data-placens="02408924" data-statefp="30"/></g><g fill="#000" font-family="Arial" font-size="12px" id="mylayer-label" stroke="none"><text text-anchor="middle" y="459.233354721"><tspan dy="0" x="545.835644979"><![CDATA[Niarada]]></tspan></text></g></svg>