<?xml version="1.0" encoding="utf-8"?><!DOCTYPE svg  PUBLIC '-//W3C//DTD SVG 1.1//EN'  'http://www.w3.org/Graphics/SVG/1.1/DTD/svg11.dtd'><svg enable_background="new 0 0 1000 1001" height="1001px" pretty_print="False" style="stroke-linejoin: round; stroke:#000; fill: none;" version="1.1" viewBox="0 0 1000 1001" width="1000px" xmlns="http://www.w3.org/2000/svg" xmlns:xlink="http://www.w3.org/1999/xlink"><defs><style type="text/css"><![CDATA[path { fill-rule: evenodd; }]]></style></defs><metadata><views><view h="1001" padding="0" w="1000"><proj flip="auto" id="robinson" lon0="-88.0076036792"/><bbox h="0.54" w="0.45" x="-1186.6" y="-711.05"/></view></views></metadata><g class="" id="mylayer"><path d="M876.123210,219.420206L867.818327,228.627672L874.551146,232.185106L888.607529,230.391442L906.233273,228.059679L910.952322,216.699821L876.123210,219.420206Z M593.567748,999.000000L610.819140,996.069941L641.678142,990.807799L647.837008,981.987742L626.758579,984.020839L635.477550,970.088163L652.471729,975.380184L663.114812,975.081200L656.628156,990.777901L658.638059,990.777901L691.479081,990.807799L692.645321,990.807799L715.052022,990.807799L721.956858,974.572926L679.761615,974.602825L703.042973,929.396582L727.435137,904.431654L733.055139,904.401756L735.177246,904.491450L742.231328,901.740830L763.732465,882.516427L751.989333,881.499898L753.103550,879.197758L747.651960,880.333879L739.755700,881.380306L736.928540,881.619490L733.629930,881.858673L726.311212,882.038061L724.859453,882.008163L721.968533,881.978265L725.661734,877.493577L729.588939,872.739813L732.703451,868.942784L749.618255,850.316452L755.063637,844.336904L766.239578,832.347931L772.003724,825.770450L778.211069,818.654821L784.802832,811.509304L789.754677,805.948364L831.401260,759.039367L844.130343,743.492815L847.955769,738.320607L851.851837,732.550461L859.881866,719.395747L865.250440,709.111174L867.808212,703.580234L788.706819,707.526634L784.938476,706.061682L782.513787,705.194670L782.985749,695.478165L782.988097,688.003942L783.720366,686.090542L787.191293,681.725602L789.702611,676.673039L796.665527,667.345242L799.668581,661.575171L802.839150,656.791696L796.366594,657.329837L773.066020,658.974156L756.795324,659.930851L748.513363,660.767959L735.232166,663.638045L731.880864,665.342160L729.822212,665.461747L763.794351,579.299987L768.969607,561.780793L771.728087,554.545920L778.745450,535.980443L796.208272,535.262938L798.525721,534.874289L808.215973,521.181918L824.832206,482.167816L835.162288,471.584728L814.071303,447.369262L811.223644,454.275144L698.444076,456.188463L701.343740,447.638323L704.363462,436.427494L708.912032,419.656137L710.463011,415.680048L661.506808,419.028334L671.437498,391.823569L603.427810,395.351213L595.546766,416.995445L561.694123,419.327288L566.953024,398.938649L446.819359,405.126981L431.289866,439.955166L406.562064,500.015613L405.585063,502.526865L405.328775,503.214470L416.100513,505.815412L411.271967,515.441895L409.159129,520.853063L411.587349,534.395952L502.454863,531.645517L544.906211,531.466141L533.997130,558.761279L496.043637,653.742233L466.685981,724.239069L447.801828,743.672198L437.334515,787.561425L440.917871,787.232553L462.013178,787.950091L466.500118,787.292348L576.572564,787.830501L575.420892,795.992501L533.057772,857.282633L516.593035,882.396836L524.917646,882.366938L528.862931,882.366938L542.571989,882.337040L555.114829,882.307142L580.349770,882.307142L588.810662,882.247346L638.669752,881.798877L629.826638,897.734495L623.464550,913.610362L593.594020,979.984545L585.227658,998.581420L593.567748,999.000000Z M320.193632,0.000000L161.118195,0.000000L156.472264,11.598564L146.996763,35.184379L110.074789,127.077331L89.047678,179.391818L114.051409,174.429395L199.074194,157.628932L236.579912,150.245115L242.212191,127.316481L266.048205,122.114953L279.328778,119.185359L293.087870,86.033220L293.907145,84.030347L305.814552,54.435738L324.925033,7.234153L327.834810,0.000000L320.193632,0.000000Z "/></g><g fill="#000" font-family="Arial" font-size="12px" id="mylayer-label" stroke="none"><text text-anchor="middle" y="563.904565036"><tspan dy="0" x="571.67364199"><![CDATA[N]]></tspan></text></g></svg>