<?xml version="1.0" encoding="utf-8"?><!DOCTYPE svg  PUBLIC '-//W3C//DTD SVG 1.1//EN'  'http://www.w3.org/Graphics/SVG/1.1/DTD/svg11.dtd'><svg enable_background="new 0 0 1000 1001" height="1001px" pretty_print="False" style="stroke-linejoin: round; stroke:#000; fill: none;" version="1.1" viewBox="0 0 1000 1001" width="1000px" xmlns="http://www.w3.org/2000/svg" xmlns:xlink="http://www.w3.org/1999/xlink"><defs><style type="text/css"><![CDATA[path { fill-rule: evenodd; }]]></style></defs><metadata><views><view h="1001" padding="0" w="1000"><proj flip="auto" id="robinson" lon0="-96.5564401999"/><bbox h="0.45" w="0.54" x="-1358.79" y="-554.14"/></view></views></metadata><g class="" id="mylayer"><path d="M90.920007,88.032552L85.800418,106.540073L82.542474,117.452357L81.542903,120.490434L80.988113,122.319479L102.222400,122.133475L126.580922,121.854468L131.133310,107.532099L114.472401,107.222091L120.642938,87.908548L114.261580,87.846547L90.920007,88.032552Z M1000.000000,153.599184L989.947311,153.289178L948.922140,151.646144L905.400708,141.074918L880.479046,176.074608L800.405502,165.410416L816.856177,122.226477L793.076957,96.743803L746.662103,111.159195L731.889288,116.119324L725.135539,132.642727L716.512666,126.845590L682.864310,225.458297L672.450339,250.537518L666.720786,250.041515L648.297582,249.793513L639.687990,249.700512L588.714119,249.204509L533.478430,248.863506L489.652147,248.305502L486.308821,248.863506L482.059079,250.351517L479.580704,251.746527L478.490154,251.653526L471.221389,250.227516L464.744560,249.793513L411.492747,249.173508L359.322756,249.018507L347.115546,248.863506L333.225084,249.111508L323.312441,249.111508L315.327273,249.018507L307.250283,249.142508L312.429872,233.177374L285.642892,232.712370L272.042356,232.433367L266.145581,249.390510L250.329165,249.297509L241.194860,249.390510L238.247674,249.328510L235.179802,249.235509L228.540325,249.080508L201.407194,248.212501L195.462974,247.995500L137.097567,246.135486L122.084857,245.794483L80.989142,244.554473L78.588325,244.492473L86.951868,218.545220L50.967298,217.181205L50.101667,219.692233L44.940043,236.711407L43.032797,243.686466L37.522834,261.511588L35.806750,266.998617L15.462740,336.314626L7.989310,362.075461L0.000000,388.766195L114.214352,392.641149L122.015985,371.716377L145.461426,373.421360L189.374049,376.614329L210.023353,378.102313L202.786110,401.972028L201.677047,405.629977L214.795809,406.125970L211.286664,415.983824L215.404035,415.704828L211.616421,428.197625L207.779013,440.597401L191.731710,492.242245L155.325580,598.692715L136.189728,654.614243L111.029755,737.627788L111.760279,750.585008L153.728202,750.244029L156.989972,750.213031L197.562259,749.841053L223.455497,749.655065L267.460196,750.492014L368.260085,751.514951L369.363949,754.397774L371.189957,758.675509L373.743759,762.612264L376.974818,766.889994L382.720445,772.314649L348.123378,784.651849L375.439663,790.417468L376.417948,801.700709L387.397187,814.068858L391.480792,820.857382L388.063298,848.538375L380.001336,862.952289L393.786270,910.719489L543.084863,911.153453L565.167992,909.975551L641.887571,907.867725L718.614351,905.821893L722.491843,893.794871L726.640344,881.302866L735.096585,856.566774L736.304444,853.095035L740.247334,841.625886L744.380248,829.443770L708.931679,828.017872L703.158421,846.988490L690.581132,873.646465L654.785142,866.238038L654.136810,866.145045L646.726968,865.525092L631.961541,881.798827L572.515921,886.665441L523.710459,889.734197L401.142846,888.928261L410.161471,863.541244L413.142337,854.303944L418.698139,859.325565L474.924280,862.766303L479.711047,841.470897L427.531221,833.349489L417.612727,838.433120L418.632631,833.349489L419.620917,823.647184L419.495005,822.345276L418.543703,814.750810L417.495959,810.566101L415.207694,803.777568L411.702389,797.484995L407.802617,792.494329L404.236902,788.805575L401.634770,786.573722L425.565999,787.968630L502.426999,792.432334L506.853173,792.680317L539.539225,800.646781L541.784109,800.708777L545.798296,800.770772L590.458878,801.762705L593.614433,801.824701L633.645770,802.723640L649.189377,803.033618L651.609160,803.033618L652.103373,801.917694L655.432486,791.874371L656.550872,788.526593L660.307755,777.243332L690.373317,686.604637L689.161986,686.480643L568.742463,684.434750L603.788428,577.892526L593.292862,577.582538L594.582870,573.583687L595.512960,569.398841L596.094695,564.904003L596.151023,561.370129L595.752030,557.278272L594.980118,553.558401L594.130165,550.954489L592.782975,548.102585L591.078760,545.312678L588.859242,542.677765L586.207536,540.352841L584.331324,538.988885L582.062670,537.717926L580.656235,537.035948L578.352891,536.136977L576.570637,535.578995L572.607180,534.835018L571.566443,535.950983L518.298268,532.975077L516.443740,532.913079L496.448664,532.355096L492.092038,532.479093L465.323501,533.409063L462.867666,533.099073L453.120211,531.952109L462.798204,506.718856L464.635533,501.944988L468.276617,483.066477L505.006380,481.547515L495.192886,431.266571L507.114831,421.377739L533.564267,433.343535L558.324276,376.986325L635.715663,320.039683L646.677806,319.667683L655.983309,321.155680L657.745762,323.666673L659.717533,329.091655L664.260322,339.166612L672.233723,342.731593L688.565359,346.017574L713.403599,346.389572L745.482594,358.665488L758.477930,367.035419L789.314740,381.264280L819.483613,386.968216L829.360151,390.006181L833.080656,410.434908L867.016932,384.054249L877.217495,351.690538L880.205253,350.760545L884.455495,339.228612L896.245192,306.430702L898.746184,301.098703L900.748501,295.952700L915.158439,249.793513L932.582212,249.390510L944.252466,249.514511L949.337441,249.390510L952.924508,246.569489L963.490646,230.511348L970.620964,216.003191L981.944078,198.735966L979.214159,194.953911L982.953965,190.427843L984.346092,188.753817L985.023370,182.057710L992.158163,168.479473L1000.000000,153.599184Z M330.707900,313.870695L333.034118,300.106703L348.508042,300.385703L342.767888,318.458686L336.717355,318.334686L337.252764,313.994694L330.707900,313.870695Z M467.184570,392.517150L472.771996,375.374341L485.081298,375.622339L489.773906,375.591339L492.471848,375.188343L487.746709,391.804159L485.050247,391.773159L467.184570,392.517150Z M473.670382,604.675471L481.141729,581.054407L502.536872,581.457392L495.287466,604.861463L473.670382,604.675471Z M430.956588,604.303486L438.750399,579.876452L459.963407,580.279436L452.183392,604.489479L430.956588,604.303486Z M477.845188,329.463654L489.149743,318.179687L510.906083,296.107701L514.433323,292.883697L514.534786,296.324701L514.722198,306.089703L514.004877,309.313700L510.815780,319.574684L508.678018,325.681667L499.856404,327.231662L477.845188,329.463654Z M461.137288,682.946828L484.938722,611.278196L511.055603,611.898170L516.507944,612.022165L493.555290,683.380805L461.137288,682.946828Z M334.424881,596.243814L364.175463,503.587943L370.611363,503.556943L377.305274,503.618942L382.423642,503.556943L362.171713,563.416056L397.545921,563.881040L385.890252,597.700755L347.165285,596.615799L334.424881,596.243814Z M284.444757,325.123669L292.101281,272.330641L316.542335,269.292628L320.239185,268.083622L317.053787,288.884691L312.287298,319.791683L306.573688,357.084500L302.486344,385.325235L273.727765,386.813218L284.444757,325.123669Z " data-aland="3954300" data-awater="13309" data-classfp="C1" data-funcstat="A" data-geoid="4864220" data-intptlat="+33.0474861" data-intptlon="-096.5533913" data-lsad="43" data-mtfcc="G4110" data-name="St. Paul" data-namelsad="St. Paul town" data-pcicbsa="N" data-pcinecta="N" data-placefp="64220" data-placens="02412597" data-statefp="48"/></g><g fill="#000" font-family="Arial" font-size="12px" id="mylayer-label" stroke="none"><text text-anchor="middle" y="466.533064517"><tspan dy="0" x="453.032394319"><![CDATA[St. Paul]]></tspan></text></g></svg>