<?xml version="1.0" encoding="utf-8"?><!DOCTYPE svg  PUBLIC '-//W3C//DTD SVG 1.1//EN'  'http://www.w3.org/Graphics/SVG/1.1/DTD/svg11.dtd'><svg enable_background="new 0 0 1000 1001" height="1001px" pretty_print="False" style="stroke-linejoin: round; stroke:#000; fill: none;" version="1.1" viewBox="0 0 1000 1001" width="1000px" xmlns="http://www.w3.org/2000/svg" xmlns:xlink="http://www.w3.org/1999/xlink"><defs><style type="text/css"><![CDATA[path { fill-rule: evenodd; }]]></style></defs><metadata><views><view h="1001" padding="0" w="1000"><proj flip="auto" id="robinson" lon0="-97.5610299445"/><bbox h="0.74" w="0.48" x="-1395.53" y="-471.48"/></view></views></metadata><g class="" id="mylayer"><path d="M429.559820,0.000000L429.080987,2.214169L412.842833,65.611812L398.214689,122.706018L382.707594,183.573554L362.532641,262.380803L358.227844,279.168054L347.288382,321.734984L346.025376,327.970911L345.357794,330.252900L340.528209,349.209230L324.299605,412.879138L318.886019,434.094956L310.779397,465.862241L310.271643,467.873116L293.010315,535.248858L284.405188,569.162759L275.818466,602.918559L274.097329,609.719434L273.119107,613.583054L264.921682,645.508792L262.194630,656.128121L261.607651,659.223544L234.840337,763.112542L205.357415,879.926188L178.083093,985.397983L176.598554,992.018233L176.406277,995.655982L176.710597,997.079449L177.638461,998.887026L181.601244,999.000000L452.923552,998.231780L490.899780,998.096211L492.867912,990.391414L498.744537,967.231850L500.679553,959.504470L507.367224,933.113908L517.013618,895.019375L527.347267,853.897245L533.001532,831.370489L534.229547,827.506825L542.597333,794.744795L557.916838,734.643558L567.600000,696.413844L575.482860,665.165853L575.937445,663.629439L625.452507,664.826938L726.236270,667.221938L774.024125,668.306466L779.740319,668.419438L820.151286,669.323212L823.593723,669.187646L821.943841,665.188448L811.742978,635.793240L810.877192,633.307867L802.625803,608.860851L787.621990,566.270699L776.480258,535.384423L774.804949,530.752616L765.097687,501.651335L753.132357,468.437969L742.460714,437.777789L737.118563,441.596188L735.296550,436.851432L729.802629,422.571985L727.966694,417.804640L723.439749,406.236491L718.766034,394.306844L710.266258,371.193174L705.955373,359.444301L704.184402,354.812535L698.813788,340.917245L697.028893,336.262890L695.279105,331.540755L690.035126,317.351760L688.290686,312.607035L685.835518,305.128447L679.097427,284.793932L678.568464,282.602325L676.641061,274.762246L674.986297,267.735550L673.536365,262.968243L674.712557,257.929812L677.071852,254.179231L668.768124,226.275836L659.915780,203.365711L632.944619,125.281701L608.541188,55.941737L589.697281,2.327137L584.737331,3.185692L574.523363,3.027537L558.355383,2.869382L557.493573,2.846789L551.014291,2.620853L547.171120,2.575666L509.594885,1.513769L480.021479,1.084491L461.566082,0.655213L457.829814,0.564839L448.463672,0.406684L436.601584,0.045187L429.559820,0.000000Z " data-aland="8598065" data-awater="0" data-classfp="U1" data-funcstat="S" data-geoid="4864244" data-intptlat="+28.0909620" data-intptlon="-097.5631840" data-lsad="57" data-mtfcc="G4210" data-name="St. Paul" data-namelsad="St. Paul CDP" data-pcicbsa="N" data-pcinecta="N" data-placefp="64244" data-placens="02409231" data-statefp="48"/></g><g fill="#000" font-family="Arial" font-size="12px" id="mylayer-label" stroke="none"><text text-anchor="middle" y="523.208021857"><tspan dy="0" x="480.704049552"><![CDATA[St. Paul]]></tspan></text></g></svg>