<?xml version="1.0" encoding="utf-8"?><!DOCTYPE svg  PUBLIC '-//W3C//DTD SVG 1.1//EN'  'http://www.w3.org/Graphics/SVG/1.1/DTD/svg11.dtd'><svg enable_background="new 0 0 1000 1001" height="1001px" pretty_print="False" style="stroke-linejoin: round; stroke:#000; fill: none;" version="1.1" viewBox="0 0 1000 1001" width="1000px" xmlns="http://www.w3.org/2000/svg" xmlns:xlink="http://www.w3.org/1999/xlink"><defs><style type="text/css"><![CDATA[path { fill-rule: evenodd; }]]></style></defs><metadata><views><view h="1001" padding="0" w="1000"><proj flip="auto" id="robinson" lon0="-96.1527322712"/><bbox h="1.49" w="2.14" x="-1369.4" y="-499.92"/></view></views></metadata><g class="" id="mylayer"><path d="M1000.000000,540.345413L990.520300,524.668899L937.616225,569.075454L928.666700,556.178136L924.417489,559.878694L920.174154,552.344862L917.802942,548.761418L896.116044,564.703477L892.412806,566.686480L819.674394,587.539307L812.525033,588.554236L774.261536,599.515488L765.057296,601.420438L764.900545,601.357981L746.446253,594.315916L734.377027,591.684904L724.899332,589.389601L715.349850,584.416450L710.271911,581.855709L708.245022,580.793939L705.627306,579.107599L704.515553,577.663281L704.420715,577.436874L702.106624,573.993934L701.629161,571.940663L701.367005,570.707139L701.114609,569.746865L700.896847,568.677291L700.723127,567.357891L700.657590,566.186825L700.668565,564.016452L700.887847,562.252049L701.492310,559.839658L701.595623,559.410268L701.446232,559.293162L700.717333,558.559296L699.536850,557.591218L657.770226,520.492149L656.994194,519.812940L644.738405,508.500611L644.800541,489.693648L667.341631,482.331713L669.507725,501.724160L689.765494,495.572278L689.636934,493.792293L690.023045,493.659575L701.793174,489.545317L706.242544,488.592870L716.415282,469.504961L716.280656,464.508551L716.244258,463.017437L715.919150,451.299326L715.715571,443.773523L715.672118,442.102860L715.614428,440.073083L715.557468,437.988659L714.997253,417.550438L714.833735,411.554832L684.020530,420.915164L669.843415,425.450913L663.266240,427.550944L660.175825,428.721965L653.775378,430.806383L661.617525,395.972548L655.848821,395.152840L655.970944,394.676629L661.290852,373.286234L661.935709,370.694413L667.989730,346.368862L669.362208,340.061108L664.857260,340.271887L664.159239,340.662218L663.654165,340.818350L635.287563,341.286747L634.418153,341.154035L635.930646,335.595724L636.389117,333.472326L604.542557,333.729944L603.977998,333.651878L606.165530,325.127074L612.211973,300.169497L606.591053,300.380273L581.134902,301.028216L577.548744,317.640564L575.409491,326.649359L560.078237,311.348472L542.946505,295.766614L542.192959,296.398942L538.754229,299.443489L533.360495,303.893216L530.653618,306.157114L529.633509,306.922156L530.595853,267.491488L528.404376,267.928650L528.812417,260.699869L531.999517,203.806901L533.628785,179.755682L533.433707,178.834541L531.428768,173.815110L529.649663,169.623148L525.772378,164.549086L520.529214,158.069908L515.888228,151.832735L512.852215,151.653192L506.506546,174.018073L499.649403,198.170736L457.216897,235.063576L448.575411,242.534304L434.869037,253.275942L452.241502,278.568878L448.991036,279.068494L447.952502,279.232430L440.260129,280.473662L431.835025,281.722701L421.648953,283.362066L417.748498,284.064651L415.952945,284.486202L415.416009,284.611106L413.681384,285.157561L410.677140,286.250471L405.844339,288.514359L402.806300,289.997596L400.625552,291.246638L399.255711,292.183420L397.626447,293.354398L397.559272,293.409044L396.063614,294.525376L394.767992,295.587064L392.445451,297.491856L388.594219,300.848665L382.162550,306.235179L373.076616,314.197867L370.216730,316.539837L368.348124,317.866954L366.413090,319.194072L364.145906,320.521190L358.468490,323.487691L357.112414,324.112218L352.791080,326.454194L349.526331,328.561975L346.786721,330.435558L344.964523,331.840746L335.673213,339.569291L333.684405,341.364814L330.943727,344.019066L326.665564,348.781113L324.922464,350.654707L323.259519,352.216036L321.743158,353.465099L319.941037,354.792230L316.869326,356.665826L315.211891,357.610432L321.080966,362.075843L342.791809,373.668762L344.115286,374.051289L351.117366,376.432331L363.890162,377.993671L365.652475,374.051289L365.746113,374.074710L367.526073,374.386977L368.881076,374.543111L375.231137,375.167647L383.886283,375.870249L388.237059,376.260584L407.899269,377.509656L410.861929,377.665790L417.482481,378.220066L418.086964,382.388847L419.691052,394.106737L420.197258,397.830552L421.209772,398.829815L422.134764,400.765889L415.497296,402.530214L411.321064,404.903468L407.323666,407.175236L399.563745,413.600207L397.261487,416.074956L415.135232,437.379726L417.430663,440.112117L415.522853,441.696904L392.983733,460.472394L395.856609,464.399255L396.212832,464.875475L386.409872,472.612107L386.196445,470.957044L383.697032,477.155727L381.618232,479.045000L377.382455,482.636183L372.055275,476.336001L367.218874,480.559542L372.485923,488.467959L379.458424,497.110247L378.414494,497.969012L377.762940,498.437430L370.100439,500.857587L364.311735,502.965468L363.901035,503.090379L361.741643,499.514790L359.681252,500.373556L357.441611,496.696479L350.763618,501.677318L348.636670,498.234449L342.166136,500.514081L331.873610,486.656751L327.082687,480.286300L287.332625,512.919363L285.511645,510.382093L301.814887,496.673058L301.048363,495.931397L284.888060,509.523325L276.547008,516.534000L264.124256,517.127332L228.070231,520.960570L206.190932,525.996091L191.600256,528.541179L169.065760,533.022412L165.529464,532.304165L139.003866,537.011806L138.309485,537.128912L137.619745,537.253824L125.397178,539.424182L112.999865,541.602348L113.431685,539.736464L114.567071,534.763380L76.966272,483.588628L74.687956,485.477904L19.079586,531.390743L29.261662,547.051672L36.127238,557.614639L37.785694,559.956764L36.462539,560.971686L36.010279,561.440111L35.325082,562.298891L31.007406,567.998073L28.832580,570.262134L26.552103,571.901627L25.309009,572.604268L23.560832,573.463050L21.427641,574.009548L17.507049,574.790260L13.001330,576.039399L10.163743,576.742040L0.295020,579.474534L0.140464,581.192103L0.000000,582.776951L1.507725,582.519316L15.934197,579.630677L17.103651,579.474534L17.256536,579.396463L18.472417,579.318392L20.598410,579.318392L21.840708,579.396463L22.976549,579.630677L24.603867,580.021033L25.586824,580.333319L26.416897,580.723675L27.678420,581.504388L28.514903,582.128959L29.760594,583.463979L31.640748,585.486028L32.590105,586.188671L34.343124,587.125528L36.109743,587.750100L36.999851,587.906243L38.441468,587.984314L39.810235,587.828171L41.132572,587.593957L42.342043,587.281671L44.708142,586.344814L45.951217,585.642171L53.780806,585.033214L66.729868,583.268801L92.386166,578.350308L116.968699,573.525507L138.406023,569.411159L154.471488,566.374196L160.088975,565.452958L170.236122,563.188900L209.147297,555.959538L219.731158,565.679364L236.589242,582.987744L213.936495,603.075560L198.941663,615.731018L193.923415,620.563681L186.627987,628.191338L180.515643,633.742284L177.813321,637.263353L173.994597,641.900862L169.718424,648.661956L166.313266,655.524557L164.699687,658.608438L160.115858,669.140495L156.789746,677.252307L156.081226,683.911970L155.350020,688.065482L156.413609,691.930126L179.845722,723.706242L174.146608,728.632735L175.838195,730.771976L196.773043,757.130013L207.378772,770.238834L238.619007,809.104926L261.177235,838.258665L266.924649,846.003885L267.916880,847.346808L278.305065,838.680279L284.712142,833.371064L326.870875,798.158669L323.909422,793.630270L322.893480,792.146830L310.050916,775.594804L304.898281,768.724173L297.103131,758.418251L346.593427,717.187041L351.949269,712.588474L361.062816,705.015295L369.790790,697.910573L378.578767,690.571645L387.413267,683.310804L395.800532,676.292005L414.010585,660.903783L424.558559,652.089351L437.069738,641.627608L437.171451,641.541728L438.667160,640.370640L444.657052,635.139781L449.707871,642.400527L456.651015,651.613107L458.649088,654.189511L460.102691,656.297479L466.422265,664.573216L468.941456,667.969397L485.169075,655.056120L510.036032,635.256890L509.185431,646.210473L508.981586,649.005476L508.214678,659.451626L508.220522,659.662423L508.241800,660.669564L508.271723,661.668899L508.511562,671.193820L506.420413,697.567049L506.077176,701.868916L506.834475,703.297668L505.997000,712.518207L508.517683,711.417363L509.991614,710.902074L511.430326,710.394593L513.110264,709.801230L514.066525,709.465512L517.750824,707.919646L526.771440,704.265785L527.933738,689.439577L528.339995,684.294530L530.278407,659.662423L531.472852,645.546855L535.517061,589.475480L542.415761,587.156757L541.676393,562.572140L577.650783,548.933174L578.047749,546.216316L578.978210,538.175055L579.126020,536.301366L579.054529,534.505748L578.871738,532.366621L611.656462,514.012342L612.635778,514.675936L614.129507,515.846985L619.600119,519.906624L636.052274,531.929427L647.797657,540.282957L655.069197,546.520792L668.105983,558.004993L676.574289,565.226552L678.278279,573.127344L680.632912,580.926661L682.121871,585.283043L685.183730,592.941856L685.465135,593.347828L695.540345,605.792459L696.613735,607.127488L697.616471,607.830134L703.433009,611.944525L713.455777,617.120701L725.040500,619.361370L727.028406,619.252069L730.881996,624.209652L735.006007,629.253122L737.481044,632.173029L740.536253,635.967349L739.675331,636.865183L743.327116,643.079759L755.402649,657.944818L754.560361,662.535510L754.887282,671.256278L754.039548,672.466414L703.864488,715.297646L703.094151,715.945662L694.054865,723.518864L677.356965,737.502002L677.708883,738.048524L684.550040,732.341273L686.457524,730.857858L694.418648,724.252762L703.663270,716.578063L715.923424,732.887795L716.838570,732.271006L704.466173,715.906625L741.192271,685.184568L749.028788,678.704472L756.566176,672.614753L756.529493,666.525044L756.347403,659.186178L756.555380,655.516750L755.506245,654.423730L754.477089,653.252637L753.049741,651.300816L751.469549,649.427069L745.483119,641.846212L754.465867,634.757226L756.106352,633.461223L771.137356,621.586426L771.588031,621.227294L772.043352,620.875970L783.928411,611.507322L819.914088,601.865447L901.236266,578.545486L906.170221,585.173743L910.166465,590.326459L910.657511,591.263317L911.098855,592.004997L922.603306,581.371667L927.902559,595.814891L928.863587,598.523977L930.890751,601.584389L1000.000000,540.345413Z M191.195453,669.429365L192.382903,664.791821L193.320429,662.090493L194.495829,657.655948L196.676720,653.783532L202.494627,648.084218L208.510523,641.611994L209.155545,640.909340L214.567822,634.952407L216.560961,632.539969L219.102130,629.440496L227.075584,620.462187L232.244728,614.677045L233.248366,613.404471L293.746976,549.143964L294.469472,549.487475L294.304513,549.690459L294.261858,549.830986L294.611895,549.916864L295.032596,549.752915L308.322571,555.990766L316.361428,555.264708L332.598682,558.660788L347.078431,561.682131L354.332257,562.853195L360.196058,562.759510L363.987316,563.079601L369.528006,563.235743L375.680200,563.079601L377.095375,563.001530L378.424112,563.001530L384.450568,562.298891L390.031966,561.518182L395.693368,560.425190L401.986269,558.941843L406.843994,557.614639L419.796250,553.476888L426.271804,551.306522L426.657921,551.173802L427.759418,552.657145L442.685986,572.736989L461.864183,599.671631L449.700084,609.813161L440.050432,617.815542L439.368348,618.377661L438.054038,619.462864L434.849700,622.117317L432.424540,618.822672L425.966680,610.312821L421.559638,604.691646L420.265660,602.739851L419.000660,601.115958L415.765851,596.962544L415.394311,596.337971L405.255765,604.691646L387.767807,619.095925L366.320587,637.599064L383.622262,660.302621L334.319033,700.892993L344.777013,714.782357L294.925286,755.607550L293.955886,754.358350L293.165925,753.031076L288.221431,746.621128L285.457210,743.427870L282.788252,739.836434L281.978366,738.587239L266.456527,717.975591L264.956310,715.789513L261.570753,711.105067L251.712651,698.222868L250.717082,696.661393L250.174089,695.927500L242.049956,684.942540L239.280085,681.124747L238.941958,680.109793L238.590877,678.626398L238.155446,678.977728L228.865154,686.511818L215.736278,697.543626L207.778184,704.234555L199.233226,692.609367L194.312568,686.137065L191.013719,680.726573L190.023796,679.766270L189.589953,677.931545L190.161734,673.778045L191.195453,669.429365Z "/></g><g fill="#000" font-family="Arial" font-size="12px" id="mylayer-label" stroke="none"><text text-anchor="middle" y="491.407231348"><tspan dy="0" x="452.509828166"><![CDATA[N]]></tspan></text></g></svg>