<?xml version="1.0" encoding="utf-8"?><!DOCTYPE svg  PUBLIC '-//W3C//DTD SVG 1.1//EN'  'http://www.w3.org/Graphics/SVG/1.1/DTD/svg11.dtd'><svg enable_background="new 0 0 1000 1001" height="1001px" pretty_print="False" style="stroke-linejoin: round; stroke:#000; fill: none;" version="1.1" viewBox="0 0 1000 1001" width="1000px" xmlns="http://www.w3.org/2000/svg" xmlns:xlink="http://www.w3.org/1999/xlink"><defs><style type="text/css"><![CDATA[path { fill-rule: evenodd; }]]></style></defs><metadata><views><view h="1001" padding="0" w="1000"><proj flip="auto" id="robinson" lon0="-97.703605201"/><bbox h="0.81" w="0.62" x="-1386.46" y="-515.11"/></view></views></metadata><g class="" id="mylayer"><path d="M371.140667,999.000000L376.609698,995.329774L382.560853,990.982916L383.744534,990.162754L389.765394,985.815896L391.739728,984.401117L395.289207,981.756095L401.055396,977.511759L402.960560,976.158493L406.648919,973.451960L412.594476,969.125609L417.887733,965.270852L423.365461,961.252062L429.247497,956.966722L433.542591,953.891119L434.604836,953.132470L440.619601,948.744611L443.633665,946.653201L446.525760,944.561792L453.863107,939.292262L464.040298,931.931324L474.673043,924.180813L484.956385,917.004416L496.453707,909.151390L500.059606,906.301337L508.228701,900.478207L518.810306,892.850729L520.940465,891.312932L534.302501,881.430021L538.596641,878.231404L551.499627,869.004625L562.085036,862.504873L562.887945,861.295141L571.287513,848.357156L576.923836,839.704497L576.566865,836.628908L575.561262,823.424385L574.077473,799.598849L573.863569,796.256714L589.640782,785.512678L597.285470,780.140661L612.588241,770.298801L614.211684,769.273607L622.403206,764.004113L638.810342,752.870517L640.549606,751.804316L644.813210,749.097807L663.806187,733.945464L663.801017,731.936087L663.668776,730.705857L663.576444,725.907959L663.268374,720.310412L662.945967,712.293416L662.319212,705.383628L661.589996,700.114146L661.230774,698.125276L653.255425,693.101843L654.057620,681.312155L654.089415,680.245957L658.655424,679.671851L659.635758,679.528324L660.186141,679.364294L660.018103,677.313914L659.456444,677.518952L659.419553,677.272906L659.052805,670.875722L658.715810,664.560555L658.182206,654.841762L657.134574,637.741615L656.468659,633.066757L655.498430,627.407719L654.933435,616.663752L654.828090,613.752220L654.690048,609.692478L651.881279,609.959027L649.713621,609.794997L647.800211,608.769809L646.694929,607.847141L649.062650,605.509714L651.091525,598.702473L652.422668,595.319357L657.248481,583.980795L663.315358,569.587184L662.251529,569.464162L660.154595,569.423155L659.340331,569.279629L654.559792,568.479984L652.721175,568.069910L647.285710,567.434295L643.340903,567.270265L638.162078,567.475302L631.753863,567.905880L627.420528,568.520991L621.976652,569.689703L616.285230,571.124963L609.686200,573.072816L608.991291,573.318860L608.753504,569.115599L607.203718,543.014385L585.455484,550.313701L572.833356,554.332426L564.156718,557.182441L541.255416,564.809820L525.814148,569.956251L522.309872,571.104459L517.445313,552.241049L512.653782,533.746718L511.687440,529.912529L511.860137,526.877984L512.202044,520.378318L512.336284,517.610322L483.696091,524.438046L479.018299,525.545245L479.280646,522.818256L479.361745,522.080123L479.549642,520.193785L480.654885,509.716409L480.978314,506.640859L499.210964,499.075008L511.104220,493.969597L513.703030,492.882904L531.098459,487.346918L553.684717,480.232152L600.744022,465.920612L613.159167,462.147944L622.305584,457.780671L629.225218,454.541098L637.785401,450.214833L646.222479,446.462671L663.618752,434.591078L669.740254,430.326328L685.125686,421.140714L686.547382,420.279563L690.092670,419.172368L694.287246,417.921649L703.949919,414.907620L714.492522,411.545031L725.336454,408.100428L742.951202,402.400430L744.167809,402.031366L749.177267,400.288561L763.630523,395.757269L778.780522,389.770225L783.133557,388.006917L795.546188,383.926706L806.760628,380.338582L819.787696,376.114847L831.818511,372.219170L841.046586,369.328167L844.983959,367.872415L850.456192,365.904073L856.016036,363.997242L860.446885,362.520986L861.885510,361.598326L862.469256,361.249766L868.179121,357.784665L875.478779,353.417409L882.513447,349.316700L882.092155,341.730389L881.916683,338.695866L881.279335,328.792659L881.233952,322.436565L881.257407,321.021822L866.747710,325.758137L865.068317,326.352739L863.857847,326.762810L862.847323,319.545569L862.085009,313.579044L861.455063,308.904242L861.047755,305.193106L860.462283,300.989887L859.935230,296.827675L859.409672,292.849995L856.108781,294.018694L852.402517,295.330919L848.673187,296.663647L844.926928,298.057885L841.203241,299.370109L831.985474,303.552825L831.878048,304.639511L831.806100,303.634839L803.640483,312.410343L801.415834,313.086960L774.800599,322.559587L770.409785,249.956700L769.526071,235.255715L779.051800,227.423394L781.082638,225.742111L783.170409,223.917304L785.552403,221.846455L788.464932,219.304028L793.076798,215.018807L797.309038,232.364727L799.836145,242.677969L801.541058,249.649148L806.068413,247.885849L813.685411,245.404930L818.342820,243.928680L822.930538,242.452431L827.524391,241.017188L831.997758,239.766477L835.257208,238.495262L834.870774,231.544589L834.788341,229.945319L834.723569,229.104678L834.041454,225.127008L833.609605,223.404718L832.597208,220.247186L831.120062,217.069152L829.459862,214.239676L826.456467,210.467043L819.247808,203.680404L811.834316,196.688733L821.473145,186.990612L835.492816,173.150804L841.179878,167.491862L842.470665,166.220650L840.343022,165.215983L836.431413,161.135805L827.744228,156.809587L824.810916,153.795587L822.379526,152.565383L819.188072,152.893437L818.141477,153.467533L817.202817,154.472199L815.143500,155.497369L811.250677,156.727573L809.108733,156.850594L807.239114,157.629723L801.038580,160.787247L795.994630,162.591547L792.802478,165.769575L785.841904,166.815249L783.481061,167.163807L765.899509,169.767740L746.347480,176.554371L734.656341,182.315831L726.399603,183.956105L714.133826,181.680225L707.884752,177.230983L706.786107,174.893594L706.735156,170.649387L708.251970,163.432187L710.073344,161.689397L712.065495,157.301669L716.576722,150.535547L718.739762,147.931615L721.189413,140.427373L729.923055,113.772978L732.107324,108.688143L733.770884,103.849348L735.235583,98.087904L736.156093,90.317131L736.229361,89.291964L736.563415,85.232300L736.581307,77.133478L736.788636,72.458716L736.824315,71.823112L736.516829,68.891134L730.643311,50.745686L729.330473,46.973074L726.247453,38.115640L725.405833,36.680408L714.183830,17.714847L708.169837,7.545211L701.250887,1.230197L697.135085,0.676609L693.653065,0.225536L690.509614,0.000000L688.373355,0.102516L683.724715,1.230197L676.290196,4.059652L666.282199,9.021449L657.640655,14.208783L655.015874,16.464146L644.751511,23.558289L642.725986,24.460434L636.488967,28.192036L634.296785,29.319718L630.616852,31.800619L623.481835,38.792249L621.363264,41.170634L619.285188,43.528516L618.328042,44.410159L618.486277,48.326293L618.714211,52.242428L621.102743,80.762570L621.391460,84.268642L624.074120,115.392744L645.154397,108.688143L661.264525,103.582805L663.701889,133.702262L663.751567,134.850451L666.287204,167.020283L668.666327,196.914271L622.250801,213.440042L623.035394,236.219378L529.560319,264.206616L519.595110,267.179621L515.950851,268.266306L513.865053,268.881410L512.132857,269.414501L504.977584,271.546863L456.895951,285.960819L439.850775,291.045687L438.460403,291.476260L404.642655,301.604992L376.919852,309.908914L363.124822,314.009618L361.793135,312.328329L360.463899,310.954594L359.610945,310.318985L356.673495,306.812884L355.339112,305.521162L307.962568,330.473948L293.915457,338.654859L291.144228,348.722097L252.798738,364.222781L237.277599,364.530335L230.550010,368.590039L228.374422,373.961972L226.621403,378.431750L230.229787,388.109435L231.415950,385.382460L231.359254,384.828863L233.233271,383.147571L234.980178,381.548292L238.024984,381.753328L239.750817,381.876349L243.911170,382.142896L245.334681,382.224910L247.592774,382.819513L248.878872,383.147571L251.608364,383.865196L252.230923,384.008721L252.782314,383.967713L257.566150,381.589299L262.043498,379.374914L265.919155,377.447579L269.179633,376.299379L272.920828,374.987151L281.242432,371.276006L286.577663,368.856586L287.139357,368.651550L289.693607,367.790400L289.551297,368.877089L289.288762,370.906942L292.644667,367.892918L294.766771,366.006591L295.470541,365.411988L298.354329,362.910554L300.280619,361.229262L303.625740,358.317758L303.948670,358.030708L305.968463,357.149055L311.651170,354.606615L317.704415,351.920650L321.720444,350.116338L325.215759,348.558069L329.037442,347.143324L334.251461,345.544048L336.051142,345.462034L339.412725,345.339012L346.455139,345.072466L354.617753,344.723906L362.280754,344.354842L360.320151,350.464899L356.881186,361.249766L360.689136,361.024227L363.237503,360.880702L372.047316,373.182837L380.292144,385.259438L393.732002,404.922371L396.135834,408.469492L398.983664,413.062297L391.883988,419.931001L385.532032,426.615175L381.086389,431.310501L376.881018,436.272374L373.324278,441.726335L369.368634,448.123464L363.024667,460.097581L354.840090,476.418475L340.405977,504.118909L336.868741,510.516052L332.798266,518.471476L318.372427,547.094620L320.143450,547.053613L321.446051,547.258650L323.732496,547.750739L326.082994,548.263331L329.480888,549.021968L331.406588,549.432042L343.682792,552.118026L346.143976,552.671626L350.565712,553.635300L354.446326,554.475952L358.390995,555.337107L383.426707,560.852604L383.990895,560.955122L385.777220,561.365197L387.255066,561.693256L391.380123,562.595419L395.208486,563.436071L398.696538,564.563775L405.104497,544.183096L405.505473,542.788845L405.674187,542.112223L405.841898,541.312579L447.228873,527.923672L448.108102,540.307898L450.111042,557.284959L451.900532,577.952701L453.384284,591.751708L458.899672,653.611535L448.572414,657.015163L434.196145,661.710529L427.019540,664.047960L373.726347,682.275833L358.889330,687.442792L293.664731,710.345552L291.550794,711.063186L280.635686,715.020424L269.811807,718.772625L262.547556,721.048550L254.972224,723.632033L252.835224,724.370171L242.295247,728.040358L236.626297,730.090742L228.523632,732.817752L224.491523,734.047983L218.143047,736.098367L209.494065,739.481502L204.860820,741.060298L201.177184,742.290529L200.008234,742.803125L189.659402,746.411803L180.622478,749.938465L177.854112,750.881643L174.958142,751.845324L171.922271,752.747494L169.924659,753.485632L166.369645,754.818383L162.351868,756.376676L156.213491,758.550086L148.263014,761.420626L140.329450,764.229656L132.878114,767.059190L125.217692,769.888724L117.486553,772.595235L117.626409,774.051010L118.737652,784.774538L118.715582,786.312329L118.695061,787.337523L119.713184,795.928652L120.112867,799.291291L123.332712,798.163576L135.398717,815.940458L153.000142,828.857923L154.222902,829.226993L154.623667,829.924126L178.038162,853.134572L179.091332,854.057250L192.016446,865.416434L247.929759,846.655329L253.540584,852.232399L286.899319,885.797365L372.390374,857.809470L451.202941,831.995022L476.539946,871.608626L478.383267,884.936199L458.673654,894.901126L409.392469,915.528129L375.093410,931.029148L361.825138,936.893293L360.836123,937.385389L350.814207,941.834759L348.818233,942.757439L333.317252,949.708299L353.632047,972.734319L353.834697,974.026073L354.044028,975.420347L362.677365,987.312691L371.140667,999.000000Z "/></g><g fill="#000" font-family="Arial" font-size="12px" id="mylayer-label" stroke="none"><text text-anchor="middle" y="518.065402187"><tspan dy="0" x="519.461933359"><![CDATA[N]]></tspan></text></g></svg>