<?xml version="1.0" encoding="utf-8"?><!DOCTYPE svg  PUBLIC '-//W3C//DTD SVG 1.1//EN'  'http://www.w3.org/Graphics/SVG/1.1/DTD/svg11.dtd'><svg enable_background="new 0 0 1000 1001" height="1001px" pretty_print="False" style="stroke-linejoin: round; stroke:#000; fill: none;" version="1.1" viewBox="0 0 1000 1001" width="1000px" xmlns="http://www.w3.org/2000/svg" xmlns:xlink="http://www.w3.org/1999/xlink"><defs><style type="text/css"><![CDATA[path { fill-rule: evenodd; }]]></style></defs><metadata><views><view h="1001" padding="0" w="1000"><proj flip="auto" id="robinson" lon0="-95.0021513601"/><bbox h="0.74" w="0.68" x="-1349.14" y="-511.63"/></view></views></metadata><g class="" id="mylayer"><path d="M955.224722,0.000000L922.747048,0.561890L917.545269,0.651793L907.877833,1.371012L891.150885,2.629647L837.014283,7.057343L762.861135,6.765160L664.701204,6.360599L640.212694,7.057343L632.472192,7.282100L509.425344,10.810772L303.613310,10.563541L292.716860,55.177706L251.929796,218.778851L250.791441,223.296502L247.819877,233.657882L236.224498,273.934712L213.143946,354.084062L184.346339,462.508739L176.436271,492.559388L143.878241,616.111444L92.867766,809.881040L44.775278,990.818440L101.135321,989.784507L104.446490,990.054228L126.930798,991.964757L145.301890,991.650082L192.532131,990.526241L215.015520,991.065685L234.132657,992.773922L253.522151,993.740425L275.336717,994.279869L343.947281,996.280305L373.210745,996.617457L403.511186,997.876159L464.454500,998.662848L471.531028,998.640371L517.024010,998.595417L554.871082,998.775232L605.834657,999.000000L622.277103,998.100927L691.732938,998.348172L694.402120,986.502893L699.177189,969.577868L704.697744,949.685927L711.475221,921.634956L739.138080,817.051071L756.858498,749.688849L778.707507,666.570908L813.642193,530.499244L815.172666,524.565517L823.318145,492.671769L830.076914,469.566254L830.497494,466.891590L829.587353,464.913688L828.261791,461.182645L852.536031,382.538736L862.613541,349.925997L869.568545,324.280871L871.455673,317.290838L877.268426,295.893712L885.231375,265.214052L899.851723,208.507382L902.428827,198.550581L904.732434,189.627673L955.224722,0.000000Z " data-aland="15787996" data-awater="59270" data-classfp="C1" data-funcstat="A" data-geoid="4867424" data-intptlat="+30.4855188" data-intptlon="-095.0118202" data-lsad="25" data-mtfcc="G4110" data-name="Shepherd" data-namelsad="Shepherd city" data-pcicbsa="N" data-pcinecta="N" data-placefp="67424" data-placens="02411884" data-statefp="48"/></g><g fill="#000" font-family="Arial" font-size="12px" id="mylayer-label" stroke="none"><text text-anchor="middle" y="495.852754"><tspan dy="0" x="499.400925333"><![CDATA[Shepherd]]></tspan></text></g></svg>