<?xml version="1.0" encoding="utf-8"?><!DOCTYPE svg  PUBLIC '-//W3C//DTD SVG 1.1//EN'  'http://www.w3.org/Graphics/SVG/1.1/DTD/svg11.dtd'><svg enable_background="new 0 0 1000 1001" height="1001px" pretty_print="False" style="stroke-linejoin: round; stroke:#000; fill: none;" version="1.1" viewBox="0 0 1000 1001" width="1000px" xmlns="http://www.w3.org/2000/svg" xmlns:xlink="http://www.w3.org/1999/xlink"><defs><style type="text/css"><![CDATA[path { fill-rule: evenodd; }]]></style></defs><metadata><views><view h="1001" padding="0" w="1000"><proj flip="auto" id="robinson" lon0="-102.351175479"/><bbox h="2.56" w="3.14" x="-1447.79" y="-535.71"/></view></views></metadata><g class="" id="mylayer"><path d="M1000.000000,289.889431L999.900386,288.494226L999.743255,286.933939L999.600937,285.751741L999.401102,284.404461L999.169360,283.073157L998.904082,281.763152L998.611401,280.469123L998.285182,279.196393L997.988759,278.179275L997.593761,276.895894L997.114305,275.506008L996.662940,274.318481L996.176407,273.157579L995.665341,272.017978L995.119105,270.905002L994.542202,269.818652L993.940767,268.753603L993.308664,267.715180L992.644262,266.708707L991.955327,265.723536L989.879563,263.135462L987.466616,260.648566L984.626031,258.278823L985.015159,237.062883L978.610848,238.873487L952.047758,246.366178L939.973239,242.638473L934.852719,241.067511L929.649074,239.459270L924.303766,237.813751L917.734049,235.784810L904.511568,231.689645L901.510763,230.784341L896.952207,229.378457L893.570563,228.334694L892.895710,228.127007L883.370404,225.192752L881.932163,224.654894L880.448106,224.148988L879.262656,223.403442L881.320127,221.289284L896.020705,206.090737L902.254252,199.652366L907.460915,194.257755L913.903611,187.622317L920.812206,180.480949L920.979899,180.315861L920.383189,180.470298L911.536553,182.829454L908.437608,183.654892L906.745303,184.107552L906.776949,183.314066L906.858195,181.183903L906.927091,179.431842L907.322008,169.127148L908.191800,147.937171L909.539631,114.317258L909.764860,108.784019L908.381113,109.140831L889.329094,114.045655L882.078011,115.914918L829.843151,129.367185L831.280856,91.593099L735.153283,117.352812L730.216539,118.678869L728.808216,156.564424L748.532530,151.260264L746.998155,193.549479L747.007770,194.311009L745.835913,226.225866L745.985260,227.956596L746.329255,229.889688L746.675289,231.801477L747.205065,233.628059L747.528470,234.512061L748.280439,236.216160L748.702867,237.041582L749.158845,237.845703L749.643872,238.628523L750.157947,239.390041L750.707205,240.124933L751.281007,240.838523L751.893258,241.514836L752.530052,242.169847L753.199158,242.792907L753.892809,243.394665L754.073891,243.538448L754.608132,243.969797L755.352502,244.523627L756.120177,245.045506L757.697240,246.041335L757.966361,246.206419L774.683354,256.148716L783.558391,261.426054L785.581209,262.672164L787.235767,263.694614L789.061244,264.908772L790.007987,265.537152L792.525111,267.315786L794.842024,269.057142L798.358006,271.911473L800.700208,273.908437L802.427845,275.442105L802.712653,275.703042L798.472312,279.856722L792.832603,285.373651L789.100999,288.984145L788.589269,289.713699L786.399710,290.304797L784.106900,290.821342L778.871506,292.152644L752.983407,298.718612L747.769725,300.081861L741.751455,301.690068L738.749464,302.478195L731.666648,304.342010L721.763202,307.004599L704.601014,311.664125L702.479372,312.239243L702.099986,312.345746L702.120815,312.659931L700.647716,350.665396L735.619462,341.319835L737.040471,340.973703L721.720092,356.001138L712.797077,358.844733L712.860981,356.341944L706.786672,357.971420L706.723700,360.559409L698.727626,362.817242L693.491584,364.297613L692.761469,364.505290L692.774573,362.300710L692.852760,360.074827L686.781695,361.693651L686.753953,364.931296L670.346806,369.596055L667.822107,370.325588L667.937463,365.831233L670.614117,365.149624L680.374128,362.705416L680.514256,357.998045L682.132973,317.708185L662.770398,322.905533L661.581845,323.198416L659.242789,323.762882L653.270912,325.190021L650.141551,325.967491L647.793943,326.574558L646.078695,327.043170L644.867691,327.394629L643.367823,327.895192L642.346419,328.289252L641.206821,328.789815L640.604555,329.109324L639.745409,329.620537L638.122302,329.758990L637.548093,329.913419L607.573284,337.895785L593.735695,341.580766L592.128059,342.006775L592.428432,322.021559L592.720001,302.994738L592.743662,302.520797L592.797608,302.036205L592.890844,301.540963L593.011101,301.045720L593.162882,300.550478L593.346187,300.055235L593.561015,299.559993L593.799600,299.075400L594.070948,298.601458L594.366051,298.138167L590.725045,296.647112L594.382269,291.135529L594.673467,291.258009L598.023239,292.626587L599.996771,289.655122L604.043636,283.563077L605.306021,281.736526L600.777920,279.760868L598.205883,278.631919L596.331745,277.811834L591.086554,275.516659L589.354958,274.760475L577.666554,292.397603L577.076774,293.366790L576.581055,294.234797L576.153221,295.028252L575.794904,295.741829L575.435409,296.503332L575.113122,297.216908L574.802320,297.951785L574.120058,299.751700L573.567887,301.450435L573.188361,303.026689L572.808845,305.396395L572.617658,306.578585L571.934212,347.241356L570.650682,347.550212L569.942606,347.715290L544.287490,353.871102L532.768824,356.645474L528.052971,357.779717L501.924587,364.068634L501.957199,362.550988L504.782286,289.426138L503.432425,289.745650L503.506982,288.488901L503.612127,286.662353L536.952627,278.823627L537.887450,278.594643L538.823062,278.333706L539.759463,278.040819L540.698286,277.710655L541.642401,277.348539L542.582802,276.954472L543.519489,276.528453L544.455333,276.075808L545.384592,275.585887L546.313008,275.069339L547.233207,274.520840L548.149692,273.940389L549.054696,273.338637L549.953116,272.699608L550.840053,272.039279L551.717142,271.352322L552.579879,270.638740L553.431135,269.903856L554.274174,269.137021L555.095094,268.354209L557.662960,265.883293L557.972732,264.828893L556.976584,259.162817L553.817159,256.542786L552.614385,255.104963L549.851925,251.792641L546.680784,246.318250L540.498903,233.276589L539.906749,231.977212L539.232570,230.475473L531.903163,215.143841L525.605583,201.867721L522.040759,194.348287L521.761231,193.821073L518.739699,188.655444L514.955239,183.511106L503.472960,168.456144L499.610008,163.466207L496.153219,159.221826L495.637919,158.582771L490.932320,154.402288L485.738686,150.711741L482.612233,147.665572L481.967617,147.037166L480.876032,147.351369L474.507698,148.895756L464.724953,151.265590L457.211785,153.092224L451.335821,154.514122L440.125803,157.235431L430.930365,159.466796L426.655172,160.499934L426.634491,160.904668L426.416468,166.235437L426.209765,171.118860L425.978928,176.667951L425.777319,181.593960L425.748251,182.334191L425.742178,182.456676L425.465473,189.065499L425.312066,192.793274L425.290259,193.304511L424.767308,192.969011L412.645599,185.529434L411.440856,184.789203L415.654242,183.766726L416.887563,147.830661L399.432527,151.723580L398.548006,151.920622L396.750312,152.320032L384.010904,155.153178L383.820978,155.185130L384.214210,154.828325L384.614786,154.418264L384.997754,153.992227L385.364748,153.544888L385.714134,153.081573L386.041408,152.602281L386.349439,152.112339L386.629221,151.611745L386.888124,151.105826L387.123281,150.589255L387.328554,150.067359L387.560820,149.486883L387.827474,148.911732L388.119511,148.341907L388.438164,147.788058L388.672568,147.420600L389.160219,146.712312L389.555849,146.201066L389.969087,145.705797L390.407306,145.231829L390.864365,144.784489L388.259667,142.723528L388.568321,135.369026L392.642179,134.405111L392.852800,129.452393L393.486979,127.460652L393.994386,125.793766L392.560847,125.740511L391.230084,125.777790L388.948591,126.315667L390.029940,100.731780L390.108433,98.819902L386.772959,99.608086L386.889707,96.780209L386.587636,96.854767L386.652287,95.134607L384.672047,95.629886L383.136312,95.997350L354.773892,102.856679L349.728674,103.948418L349.697274,104.417067L349.603212,104.752577L349.424438,105.173296L349.156857,105.663247L348.177295,107.181029L347.746044,107.910629L347.468260,108.507091L347.247814,109.210063L347.104320,109.897059L347.025923,110.621333L346.873737,113.901866L346.067925,136.434125L345.855509,143.298680L345.502785,153.113526L345.046017,165.820053L344.548216,179.820598L344.088062,192.644163L343.765069,201.691984L343.726332,202.698479L343.325518,213.966939L343.259057,215.782883L343.769466,215.660400L343.757696,215.830811L343.659205,216.107729L343.434618,222.386303L343.429788,222.519437L343.338072,225.107547L343.296289,226.358999L343.296001,226.550711L343.285036,226.689169L343.275742,226.880881L343.262094,227.306907L343.094395,231.977212L343.000002,234.735724L343.081593,240.428475L343.180401,247.180947L343.221947,249.790336L343.055499,254.604387L342.923309,258.587689L342.793552,262.475130L342.504528,271.080735L342.289276,277.449718L342.157670,281.299858L342.120515,282.434130L342.117343,282.561935L342.110905,282.700391L342.105308,282.865473L342.097776,283.169011L341.821630,291.337887L341.546088,299.490765L341.094561,312.947490L340.826832,320.988479L340.710559,324.481776L340.658068,326.121921L340.330442,326.441429L338.125001,328.582135L337.855865,328.843067L337.688169,329.008146L337.185081,329.503384L336.987960,334.817864L336.825241,339.227065L336.540687,347.001727L336.508872,347.928295L337.431841,347.693990L338.629853,347.385134L341.125346,346.751447L344.670689,345.851504L344.865517,345.803578L345.003039,345.766302L345.173717,345.723701L354.405019,343.375329L359.587950,342.054701L362.131735,341.410362L362.796432,341.239959L365.228476,340.622245L368.047302,339.903355L368.418942,339.807503L369.165093,339.621124L372.495950,338.774430L374.079107,338.369721L375.021717,338.130090L376.496004,337.757332L380.268074,336.793485L380.736311,336.676332L381.580691,336.463327L383.925138,335.866914L385.219740,335.536756L385.979400,335.350377L385.966814,335.861589L385.373354,354.195933L384.941443,366.289189L384.274230,385.193123L382.172923,385.730951L379.061068,386.524381L378.889376,391.641732L378.825349,393.585365L361.543034,397.722903L351.502865,400.124482L348.532564,400.838033L348.768421,394.261643L346.878704,394.740894L345.457222,395.102995L345.220908,401.636784L344.111278,401.892384L337.029122,403.591060L334.203712,404.272660L333.860818,414.624443L333.567522,423.447925L333.420696,427.809069L333.264593,432.553603L333.068226,438.400392L332.959827,441.621979L332.864586,444.550691L332.672785,450.280308L332.557364,453.672280L332.486595,455.844843L326.300862,457.351792L318.021890,459.311356L309.559963,461.324169L306.761967,461.989781L301.312498,463.283731L293.567272,465.147444L293.902531,459.316681L294.269187,453.619030L298.812866,452.532748L300.759502,452.058831L300.785675,451.414516L301.121808,440.375944L301.173846,440.088397L293.403989,441.914850L293.203883,448.965053L293.119347,451.947007L293.136645,453.890601L292.969320,459.540327L292.853507,462.330574L292.850259,462.958912L292.791961,463.752322L292.695458,464.449883L292.682026,464.508457L292.605937,464.859899L292.436890,464.897174L291.238035,465.179393L290.125139,465.445638L289.246361,465.653308L289.042914,465.685258L287.592780,466.052675L287.524835,466.068650L280.722590,467.676766L253.694086,474.093249L252.716995,474.268970L252.676432,475.754610L252.390762,482.703561L251.672419,490.786690L251.065647,498.300039L251.044398,504.578011L250.721937,510.589730L250.511652,515.690896L242.848892,517.682372L242.690683,521.686618L242.231286,535.946380L238.480104,536.106123L234.260800,536.191319L227.452166,536.319113L218.324351,536.430934L211.685237,536.564053L202.773701,536.734445L205.194346,537.772775L210.760484,540.174242L211.540605,540.509702L214.666844,541.862191L221.431552,544.806781L217.314536,550.871668L213.670381,549.327492L213.485531,549.210348L213.277393,549.125152L213.061107,549.066579L212.577929,549.055930L212.327808,549.093203L212.070785,549.167750L207.824827,550.296595L207.945715,545.898355L207.136506,546.084721L201.403328,547.437207L197.988909,548.262543L197.735620,548.369038L197.513565,548.550079L197.344406,548.779043L197.255934,549.023982L197.240975,549.146451L197.252180,549.242296L196.933489,557.245377L196.790621,560.876841L196.281369,560.951387L195.728415,561.095155L195.174693,561.270871L194.621832,561.473210L194.068203,561.707498L193.519940,561.968410L192.970909,562.261269L178.191883,565.930001L178.017332,570.195095L177.862679,574.071480L177.735962,577.223702L183.688604,575.610319L183.676528,575.988372L186.028354,575.397331L185.985707,575.860580L185.920544,578.075653L186.202962,578.006432L186.115288,579.720984L185.800194,580.088387L184.559643,580.418518L184.551600,581.004234L184.438553,586.909310L177.277090,588.719700L174.588413,589.395934L170.576479,590.407622L167.223105,591.254245L164.001116,592.068920L163.034356,592.313855L162.288585,592.484244L162.383013,593.368139L162.714283,595.082682L165.225774,604.379534L165.615587,607.478479L165.608498,610.726510L165.651525,614.517651L165.405127,619.490853L165.155527,627.685439L165.022249,631.007994L164.473714,646.412036L164.401035,648.078628L164.304975,650.160536L163.800537,661.342117L163.710473,663.301552L163.343296,667.891310L162.527904,676.570301L161.827936,684.061902L161.752476,684.839281L161.017187,690.531180L160.502949,692.847338L160.111907,693.890940L159.616868,695.967494L158.160600,700.216438L156.549527,704.028768L155.260955,706.520624L151.115591,713.570224L143.580551,726.391510L139.647626,733.041733L136.432565,738.477974L134.387415,741.928199L127.989888,739.926217L124.720941,738.845360L124.304261,738.941199L117.805564,740.410740L111.302357,741.880279L110.507036,742.050661L103.957149,743.525524L97.562813,744.196400L96.938919,744.292240L88.975586,745.085577L88.235945,745.250634L87.015807,745.543477L84.863702,746.070593L81.287621,746.938472L80.683495,747.087556L70.831182,738.126562L67.600090,735.123586L56.614719,736.976487L38.533343,740.027381L29.954558,741.449001L1.496708,731.050395L0.337805,730.848066L0.218379,733.169520L0.096070,735.677326L0.000000,737.583471L0.000000,737.583471L24.149613,746.161108L27.630235,747.433642L33.761361,746.400707L54.660058,742.886594L58.306712,742.274286L63.771373,741.358486L64.728179,742.237015L73.687070,750.436608L76.597775,753.088160L76.953514,753.412948L81.084916,752.747398L85.089186,751.996657L94.839392,750.308822L96.490348,750.021304L97.214095,749.893518L98.944883,749.595352L104.851981,748.573066L108.666417,747.912839L114.480161,746.901201L118.437864,746.214353L123.117684,745.405042L125.245743,746.283570L130.517551,748.461253L131.317628,748.791366L137.698999,751.421622L146.028584,754.855860L153.440523,757.917386L158.440327,759.983249L159.365436,760.361281L176.770730,760.009871L179.793237,759.951303L180.215645,761.149290L181.082040,761.085398L180.317527,761.479402L180.628056,762.453764L188.143110,765.030765L189.598426,765.531257L192.088983,766.388482L199.319675,768.864316L240.180537,782.883361L240.114664,783.261390L241.234039,782.973875L240.225095,798.185508L239.575381,815.159413L239.439718,818.481773L239.406193,819.344308L239.286620,822.363179L238.940212,832.516577L238.862292,834.779391L289.240381,821.937237L303.744939,813.232017L319.746268,803.637613L321.505071,802.583398L321.192489,820.936271L341.449819,815.462898L346.159498,816.474514L329.752263,842.755131L317.623083,862.193921L308.202974,877.288054L312.853300,878.938555L313.758862,879.263331L319.112259,881.164067L323.116835,882.686786L371.096972,805.953689L371.385911,804.888827L372.036812,803.302181L372.307049,802.785722L372.921743,801.790074L373.266199,801.310885L374.017070,800.400427L374.238851,800.160832L374.841048,799.575157L375.797492,797.828778L380.265918,789.682549L380.836705,787.797733L381.537684,786.061997L382.250898,784.640396L382.642362,783.948231L383.063735,783.261390L383.507261,782.590522L402.911180,777.330059L404.128374,777.031895L404.028721,779.513046L403.818179,787.228028L403.339491,797.386859L402.801601,814.147796L402.581716,819.961926L402.395344,826.345743L402.200264,833.112895L401.782289,839.784197L400.019260,890.896674L399.594252,896.087741L399.202146,907.406901L420.147137,902.306363L448.023481,895.512731L468.666296,890.486713L473.629563,889.294097L477.793773,888.239910L479.206642,887.920459L479.220261,887.521145L479.858574,868.790624L479.863649,868.700113L479.997954,864.669683L480.127347,860.921431L480.189967,859.105871L480.331046,855.112699L479.536219,854.543006L468.567106,846.801561L468.618033,845.172341L470.646338,842.052330L474.291529,836.467182L480.981466,834.827309L481.009515,834.129830L481.101522,830.977863L481.644067,814.004040L481.682323,812.800748L480.773319,813.019044L480.733440,814.227661L480.154798,831.334589L478.470085,833.549485L475.841549,834.427989L471.653002,835.428951L462.462820,831.781828L460.521318,834.779391L458.111117,835.370384L457.457848,835.503491L452.373953,836.781314L448.118340,837.824869L442.890282,839.102692L435.659659,840.875669L435.367110,840.668023L427.445495,835.077549L426.826363,834.640960L418.000650,828.411563L407.186373,831.063051L403.817214,831.888313L402.696623,832.165175L402.875757,826.675848L403.287826,814.030662L403.332347,812.688938L403.922948,794.692749L404.429532,779.129692L404.859732,765.398147L404.954656,765.706961L404.925261,764.194838L405.708105,763.268395L419.933031,759.110050L435.924082,755.260514L443.517071,749.792355L446.866181,748.796691L453.444481,747.183395L471.977300,742.636347L475.112353,741.869630L479.996230,740.671636L480.009386,740.171141L480.014829,739.872973L480.224783,739.819729L480.328753,737.354521L480.470706,732.551885L539.353518,685.142778L541.051967,683.785027L541.388031,683.540099L549.164024,677.267814L551.091456,675.750324L551.827775,675.212546L563.601634,665.702923L610.001128,628.265821L640.855050,603.442396L644.295093,601.647988L652.071708,597.542677L676.449169,584.672943L678.989711,583.331123L679.385298,574.417586L679.596676,568.789372L679.633126,567.948067L679.652128,567.399622L679.732384,565.280385L679.769867,564.332585L679.807885,563.235693L679.941269,559.763974L679.954975,558.363570L679.607781,557.303949L679.227056,556.265626L678.815676,555.253927L678.370764,554.263526L677.893569,553.305074L677.387346,552.367920L676.845963,551.457389L676.276801,550.578807L675.681485,549.726848L675.055514,548.901512L674.395629,548.113450L673.709592,547.352011L673.000278,546.622521L668.941748,543.102859L664.513211,538.289277L663.121561,536.771719L662.014647,535.339356L660.868683,533.592831L659.945648,531.942152L659.136048,530.067830L658.490654,528.422474L657.805209,526.127492L657.468640,524.753697L659.395117,523.608868L659.841839,523.385227L659.422448,523.092363L660.593199,522.474688L664.977245,520.201001L668.081304,518.592912L671.605064,516.761181L683.097210,510.802723L690.190170,507.123276L694.948136,504.657884L700.341792,501.851701L700.837195,501.601434L705.049460,499.418254L714.577684,494.476806L721.821218,490.717467L726.863515,488.102966L735.534348,483.608788L735.614935,483.566189L735.635991,483.188124L735.709863,481.606640L735.741342,480.855834L735.814659,479.423445L735.924110,476.106051L736.978261,451.371917L742.968108,449.753141L749.687949,447.868119L760.571573,444.886161L761.061431,444.742388L761.494174,444.726413L761.758640,444.966035L762.057601,445.269556L767.241656,446.446365L770.261174,446.425065L767.447879,451.425166L764.383585,456.877875L764.696550,456.973723L765.167626,457.112171L771.026804,446.675337L773.926047,447.474075L774.704262,446.137519L771.865781,445.184357L771.402859,445.019285L774.432907,439.561229L776.905942,435.232051L777.874999,433.639892L778.585783,432.612177L779.442225,431.520562L780.830047,429.869827L781.160279,429.497080L782.294437,428.219091L783.245649,427.244623L784.686356,425.892083L785.867168,424.859040L785.776821,424.683317L780.611676,418.676751L777.828981,420.646991L771.560248,413.346447L772.230063,411.717001L789.725733,403.729510L794.839588,401.397159L807.232056,395.736672L807.295019,400.092532L808.599729,401.391834L808.827134,401.237408L812.029604,399.043505L812.553265,399.054155L813.416358,400.177732L814.420155,399.016880L814.977640,398.372554L815.176308,398.164879L815.388101,397.973178L815.611389,397.802778L815.842913,397.664327L816.076926,397.547177L816.316300,397.456652L816.550400,397.398077L818.073385,397.366127L817.990273,407.968208L817.927390,428.352215L837.450633,422.803604L839.117878,422.329682L839.509561,425.082689L839.707202,426.041182L837.792236,427.015650L835.867880,428.006092L828.930158,431.589787L816.218910,438.102196L807.396149,442.665666L794.356456,449.353773L780.819367,456.313435L778.251859,457.831033L777.844629,459.162259L777.581129,460.008918L776.981700,461.968481L773.981357,471.718353L765.956600,497.868728L759.663529,518.390570L759.033102,520.467241L758.554470,522.032730L758.191050,523.236133L757.787316,524.556680L759.493075,523.662116L774.929368,515.658947L782.444144,511.718590L782.658491,511.606769L782.683388,512.011455L781.648161,539.087991L788.477880,537.373417L812.984221,518.837853L814.527165,518.033808L827.077263,511.691966L829.625583,520.829327L843.241144,569.241972L892.489634,544.268980L894.718533,483.667361L894.951859,477.277523L895.822112,452.649896L895.865424,451.403866L895.900998,450.418756L895.943836,449.130126L895.480349,449.364422L882.344261,456.148363L871.993893,461.451966L866.307902,464.433908L859.507620,467.996260L859.335814,468.086783L858.780805,466.308270L855.990005,457.202694L852.371586,445.370730L854.959759,443.991573L896.892351,422.457481L897.004318,420.045270L897.387595,408.532657L897.628305,402.771010L897.786673,399.560031L897.805681,399.144680L897.848499,398.239429L897.888625,397.446002L897.955258,396.050848L897.219699,396.423599L886.891313,401.727309L885.260264,402.568660L872.159949,409.336731L871.144967,409.842605L861.810713,414.635093L858.625959,416.285837L850.586511,420.423343L850.519367,419.906820L849.031381,406.695534L838.065471,412.537049L837.005678,402.254484L836.629496,399.054155L836.425557,397.115851L841.865113,394.410743L856.684772,387.014284L859.539962,385.587175L873.004262,378.866975L891.139440,369.819707L894.090375,368.344665L899.473911,365.660831L903.752331,363.174022L905.512839,362.071731L907.749440,360.649936L915.947103,354.701817L927.320568,346.426615L947.864510,331.468358L949.024410,330.621662L952.022730,328.433031L962.495045,320.807424L970.780526,314.779347L971.883221,314.001873L972.994147,313.256350L973.748844,312.777085L974.117808,312.542778L975.245195,311.861156L976.380814,311.211486L977.524662,310.593766L978.672238,310.007997L979.821910,309.459505L980.973678,308.948288L982.124670,308.469022L983.283892,308.021708L984.434572,307.616994L985.588979,307.244232L986.740978,306.908746L999.946371,303.197095L1000.000000,289.889431Z M889.082208,325.024941L889.081978,324.849211L889.524250,324.316697L892.901485,323.464674L893.907062,323.225042L892.972981,324.290071L892.383657,324.449826L892.143424,324.513727L889.079407,325.387051L889.082208,325.024941Z M892.902338,284.335234L892.842115,283.605679L900.196240,279.356150L901.056908,279.824770L903.339868,281.060223L901.456343,282.151893L893.129388,286.960565L892.970398,285.112715L892.902338,284.335234Z M840.698102,338.715854L840.943634,336.766859L846.614918,335.408953L848.173954,335.126721L848.179542,335.329076L848.893235,337.895785L848.979888,337.789283L853.084756,350.431091L853.441970,351.485461L854.362985,354.361011L860.090593,349.009290L860.652417,348.498080L861.008178,348.189225L861.099797,348.125323L862.233391,349.291520L862.696257,349.765454L862.857379,349.930532L862.913212,350.042359L865.351719,352.491903L865.262667,352.635681L864.923230,353.200141L864.826414,353.354569L864.579291,353.764601L861.198400,359.350616L859.112389,362.795942L859.760858,375.389717L858.656717,380.203561L855.304197,383.387935L854.561500,383.931089L853.808939,384.447618L853.183935,384.841670L852.279111,385.384824L850.724963,386.210204L850.340790,386.391255L849.325693,386.838558L848.629405,387.200660L844.576828,389.288071L842.982835,390.022925L842.498725,390.177351L842.334195,390.214626L842.026024,390.294501L841.946204,390.305151L841.560228,390.374377L841.099706,390.422302L840.987117,390.422302L840.646089,390.432952L840.208385,390.406327L839.780459,390.347752L839.368445,390.251901L838.976846,390.118775L838.602404,389.959025L838.395067,389.841874L838.243874,389.761999L837.858622,389.490422L840.665769,384.335792L844.894388,376.582529L846.433031,371.497102L847.599694,367.641756L848.107047,365.969685L848.070928,361.821453L843.178151,355.649682L842.579212,354.472838L842.259359,353.796551L842.077965,353.477046L841.420332,352.183048L839.932533,344.275272L840.698102,338.715854Z M829.074836,320.892627L825.661251,312.276519L853.811980,295.779105L855.584706,300.268243L855.653709,300.454625L855.690799,300.656982L855.692855,301.003119L855.657574,301.280029L855.600556,301.524987L855.479782,301.860474L855.311104,302.190635L855.114945,302.478195L854.917085,302.712504L854.766207,302.866934L854.473386,303.117218L840.363511,314.662193L842.512327,318.512283L842.609602,318.709314L842.794145,318.959596L843.486326,319.199228L845.869866,316.621852L845.813586,316.467423L846.250998,316.936037L846.196642,317.010589L844.015072,319.369633L849.767383,321.217461L849.980358,321.286688L851.503657,319.944750L852.994658,318.634762L858.788177,314.539714L858.919480,314.449187L859.482097,313.229724L860.369714,311.302014L872.094690,307.308134L872.658094,307.041875L872.540905,308.277316L872.788246,308.660729L873.663840,309.566008L873.715081,309.619260L875.829324,311.685426L876.493598,311.222136L882.528523,307.015250L882.457214,311.850506L883.291227,316.744331L883.656294,318.890369L883.491304,327.399954L883.349057,327.570359L883.195319,327.719463L882.673930,328.172099L882.470732,328.379780L882.308064,328.587460L882.164418,328.938919L882.148343,329.167900L882.267757,329.689763L882.492536,330.014597L882.804665,330.451258L883.634064,331.963595L883.858770,332.847567L883.082796,334.264051L882.825253,334.855140L882.456995,335.925490L881.977554,337.123643L881.774287,337.581603L881.638572,338.039563L882.975080,338.204642L884.736855,338.598701L884.143281,339.551897L884.149458,341.090856L884.144219,342.358233L884.133612,346.879249L874.470011,345.052738L866.512496,351.980694L863.818913,349.216969L861.889964,347.236031L865.824663,342.342257L866.561188,341.436988L867.236144,340.718098L870.494398,337.224820L870.906760,335.451554L869.019056,335.483505L868.138485,335.520781L868.409542,334.929692L869.360537,334.897741L871.045587,334.865790L873.075396,326.148546L868.025967,317.931841L867.525276,317.287497L866.271976,318.144847L865.263655,318.805167L858.595069,324.625555L847.241369,334.524982L841.308269,335.723135L840.805672,335.834963L840.293290,335.978741L839.784636,336.154470L839.275204,336.362150L838.708935,336.623081L838.601318,336.665682L838.260143,336.868037L837.759018,337.166244L837.269385,337.485751L836.783478,337.837209L836.307431,338.215292L835.851806,338.556100L835.389194,338.875607L834.916721,339.168489L834.438890,339.434745L833.957333,339.669050L833.470419,339.876729L832.984281,340.052458L832.503423,340.196236L832.021712,340.313389L831.745063,340.084409L831.816742,338.864957L831.862647,337.656155L831.878274,336.458002L831.865255,335.265175L831.824831,334.088322L831.758633,332.922119L831.660528,331.771890L831.544413,330.621662L831.055845,327.628935L830.756664,326.414803L830.603747,325.605382L830.387934,324.913113L830.154202,323.970563L829.820861,322.926834L829.464618,321.899080L829.074836,320.892627Z M337.324910,329.737690L337.337746,329.460783L338.026544,328.800466L338.490281,328.683313L340.254767,328.230676L363.378982,322.415620L370.318237,320.668970L375.654340,319.406909L381.281863,318.075620L382.791786,317.718835L386.637604,316.808233L388.745516,316.307668L391.964689,315.546170L397.296272,314.284107L400.927610,313.426755L402.647498,313.016717L407.871838,311.781279L411.444233,310.939902L413.150608,310.529864L418.500190,309.267798L421.130762,308.634103L421.107839,309.502106L420.602999,322.548748L420.463349,326.207123L420.462286,326.372202L420.450584,326.542607L419.751324,345.207166L419.742565,345.441471L419.735769,345.595899L419.294350,357.279159L419.283969,357.518788L419.278419,357.683865L418.970269,365.905784L418.722715,372.519513L418.581287,376.273676L418.577768,376.417452L418.572160,376.523953L418.563815,376.742280L418.346582,382.493329L418.323192,383.142983L418.307293,383.547686L418.302883,383.973689L415.809595,384.703219L414.810152,384.996096L414.894521,382.589179L414.937010,381.465596L412.809932,382.014075L412.755334,383.632887L410.662584,384.128115L410.635471,384.745820L410.597884,385.853427L410.264829,386.029153L406.168548,386.992984L405.336447,387.195335L403.788879,387.557437L401.003176,388.212416L399.999158,388.446717L398.012009,388.920644L395.263963,389.570298L394.680729,389.724724L392.991526,390.108125L389.394993,390.954804L384.727736,392.062409L385.013663,385.219748L384.714797,385.225073L384.465105,392.243460L384.247762,392.291385L384.448820,386.401905L384.464657,385.938627L384.482057,385.411449L384.503844,385.134547L384.512629,384.591394L385.096313,367.503304L385.171056,366.230613L385.162058,365.495754L385.524413,354.952096L385.583323,354.142682L385.570160,353.700699L385.728965,349.009290L385.939582,342.885419L386.184492,335.739111L386.205967,335.110746L386.216036,334.945667L385.992557,334.998918L384.720472,335.329076L382.276163,335.957441L380.748681,336.356825L378.730444,336.873362L376.574686,337.427175L375.035325,337.821233L372.735909,338.417647L370.862567,338.902233L369.445976,339.248365L367.303333,339.818153L364.089956,340.648871L362.810492,340.973703L357.959519,342.225105L357.074213,342.454085L354.833788,343.093098L344.975840,345.590574L344.383983,345.729027L341.876219,346.373364L339.025466,347.108229L337.455812,347.512937L337.055518,347.614114L336.701890,347.709965L336.761924,345.942031L336.918750,341.463614L337.120989,335.632608L337.302672,330.456583L337.324910,329.737690Z M480.631785,620.726166L480.768866,620.262924L481.017600,619.522801L481.253924,618.926443L481.515647,618.335410L481.920292,617.542040L482.467972,616.604906L483.120881,615.662447L483.702937,614.922323L484.523377,614.006486L485.167096,613.388829L485.697682,612.920261L485.987124,612.680652L486.243901,612.488965L486.996709,611.956502L497.296035,606.583939L550.999710,578.719942L562.507538,572.724331L572.150216,568.011964L572.160088,567.596636L572.189063,567.325076L572.805959,567.016242L572.967953,576.313179L572.937061,577.298248L572.855551,579.657087L572.064398,603.479668L571.791592,612.478316L571.412648,623.122245L571.303971,625.246766L570.398644,639.325014L570.179799,642.562363L568.508647,643.904158L567.858255,644.425967L559.886791,650.820783L533.572359,672.097695L531.521283,673.828168L524.614237,679.408273L515.557602,686.761429L511.104820,690.323525L505.015044,695.248687L486.864155,709.784527L481.110025,714.038777L476.773308,717.073720L476.584010,717.206831L476.613065,716.477380L477.659703,691.324531L477.033967,691.500240L469.264993,693.560821L469.289729,692.889934L469.753723,679.514763L476.405370,677.720399L477.357303,677.464821L476.887455,689.295895L476.833352,690.770783L477.058447,690.712213L477.807431,690.531180L478.861705,666.288623L478.854588,665.633704L482.842626,664.669961L484.222729,664.339839L484.794915,664.206725L485.386903,646.656966L485.418888,645.682568L484.871227,645.794384L479.244070,647.184099L479.498125,641.060830L480.280605,622.877312L480.289297,622.509914L480.356313,622.025373L480.490053,621.322523L480.631785,620.726166Z M343.632717,222.327725L343.860573,216.038499L357.882644,212.635602L369.932242,209.717308L369.943142,209.461691L372.604046,208.817322L379.843060,207.091906L394.634972,203.513260L411.437783,199.471303L411.652258,199.418049L412.327203,199.258288L424.860931,196.244123L425.172002,196.169568L425.088468,198.187887L425.035172,199.418049L424.498380,212.364009L424.741507,212.305430L444.384743,207.517935L443.483713,225.821141L443.438542,226.790350L441.042534,301.839173L424.201177,305.992815L412.298381,308.932312L411.543226,309.118694L401.063133,311.706726L368.985481,319.625240L362.096944,321.323964L340.317999,326.702361L340.834488,326.089970L341.118020,318.011718L341.492445,307.419963L341.939256,294.889797L342.364070,282.902750L342.368875,282.769619L342.376105,282.599212L342.378087,282.519334L342.387792,282.370227L342.390123,282.215796L342.410485,281.576769L342.580681,276.837317L342.797316,270.654716L343.033010,264.072707L343.252008,257.985933L343.418446,253.230466L343.545734,249.747734L343.477363,246.829478L343.210335,234.607916L343.466766,227.285605L343.493700,226.508108L343.632717,222.327725Z "/></g><g fill="#000" font-family="Arial" font-size="12px" id="mylayer-label" stroke="none"><text text-anchor="middle" y="468.857408534"><tspan dy="0" x="532.294570834"><![CDATA[Y]]></tspan></text></g></svg>