<?xml version="1.0" encoding="utf-8"?><!DOCTYPE svg  PUBLIC '-//W3C//DTD SVG 1.1//EN'  'http://www.w3.org/Graphics/SVG/1.1/DTD/svg11.dtd'><svg enable_background="new 0 0 1000 1001" height="1001px" pretty_print="False" style="stroke-linejoin: round; stroke:#000; fill: none;" version="1.1" viewBox="0 0 1000 1001" width="1000px" xmlns="http://www.w3.org/2000/svg" xmlns:xlink="http://www.w3.org/1999/xlink"><defs><style type="text/css"><![CDATA[path { fill-rule: evenodd; }]]></style></defs><metadata><views><view h="1001" padding="0" w="1000"><proj flip="auto" id="robinson" lon0="-118.375179948"/><bbox h="0.67" w="0.62" x="-1659.88" y="-570.26"/></view></views></metadata><g class="" id="mylayer"><path d="M711.977553,0.000000L710.938398,2.429232L676.701703,82.289406L669.465782,99.141827L668.120028,99.192435L664.440657,99.344258L662.693308,99.344258L661.627631,99.597297L655.306983,99.774424L647.285888,100.103374L537.905433,104.683374L527.821550,108.023480L523.122976,109.567013L499.784871,103.519396L464.793232,94.435302L433.469942,84.845108L415.962264,81.758022L356.190623,142.335324L352.733294,145.852524L343.064469,155.670306L330.994881,171.459677L327.052723,176.621573L322.149758,183.023328L311.517520,196.990758L309.991231,198.989716L306.706953,203.316570L304.239318,206.504776L298.751516,213.716185L293.524620,220.522731L290.643835,224.292895L289.370327,225.962899L288.027138,227.759418L250.739617,276.568763L246.384549,282.312488L240.542192,289.953908L231.406056,301.947366L217.892361,319.633855L210.728084,329.071679L204.845390,336.763615L199.032399,344.329025L195.383891,349.111167L194.878417,349.769027L194.008423,350.882329L193.311767,351.818514L191.247766,354.449953L190.157420,355.917485L188.124201,358.523619L188.117492,359.307989L187.655055,362.318957L190.916511,362.926211L212.574355,366.721544L233.322128,370.365061L248.436043,372.945883L252.596294,373.679646L256.523353,374.362805L257.328195,374.514618L267.489974,376.285769L271.956306,377.044833L279.471979,378.360545L285.865408,379.473839L291.666135,380.485924L296.281454,381.295592L301.277341,382.155864L303.087839,382.484791L304.072440,382.661906L312.995406,384.205335L316.362161,384.812585L319.685204,385.369231L324.702153,386.229502L349.937511,390.632064L349.095052,391.947771L329.344579,422.360726L321.659000,434.252585L308.544759,454.519269L292.820906,478.783493L281.963746,495.533060L265.256174,490.523378L263.745266,490.017350L261.259451,489.308909L260.575822,490.320967L259.814417,491.535436L259.524432,492.016163L248.461553,509.246401L239.725080,522.833189L231.079414,536.293427L224.589960,546.388575L218.000123,556.635505L213.576153,563.492078L212.213805,565.667962L213.794267,567.034215L223.824437,575.560631L246.531036,595.042286L251.139777,598.938606L243.768677,603.821651L223.273455,617.382823L183.146391,644.176125L166.389466,655.131220L153.500287,663.581551L129.016062,679.799052L126.801999,681.342368L127.169641,681.317068L129.568214,681.266467L140.118051,680.988164L150.912409,681.114666L152.734412,681.139966L154.261655,681.165266L160.158470,681.215867L198.503211,680.709862L221.572237,680.507459L238.537138,680.355658L243.525386,680.305057L251.341230,659.027482L262.019784,630.134331L272.166627,626.136839L296.909372,616.370797L349.243724,595.725407L337.599437,627.351267L318.540215,679.267747L317.234666,682.885683L306.692366,695.257484L287.008941,718.381772L271.118871,737.002548L267.963873,740.721633L267.162168,741.657728L265.963660,743.023922L243.278005,769.689899L239.259824,774.395642L223.158045,793.294457L196.098595,825.045281L178.952641,845.183525L152.685842,876.023180L112.398145,923.306826L93.617412,945.291385L81.240176,944.734815L75.851529,943.141002L70.324409,950.022224L63.464471,958.016570L54.040842,967.478213L43.250471,978.634829L38.644973,985.035322L35.751157,989.007165L35.113114,989.791413L37.435940,991.967070L37.690028,990.373275L45.686605,980.405717L50.503808,983.871597L56.955409,988.728883L60.008671,990.702154L62.229274,991.334612L65.625721,991.865877L68.939532,992.118860L79.386294,992.877810L93.210038,993.889743L117.216554,995.635326L139.566177,997.254418L162.591209,998.924105L163.550040,998.949403L166.204636,999.000000L170.592180,998.595227L174.441950,997.836279L178.128110,996.900242L188.331455,994.345113L192.362585,993.333180L215.922576,987.413368L221.353016,986.047257L229.070295,984.099282L234.413306,982.960855L235.333229,982.758468L239.136047,982.176605L239.702912,982.126008L242.903263,981.797129L247.073782,981.518847L272.435403,979.899749L299.236857,978.204756L332.405015,976.104987L355.202744,974.637677L362.335998,956.169777L379.917413,910.657429L374.895015,910.961015L346.258703,912.225957L324.549524,913.819782L322.537993,914.123368L322.409853,912.428347L304.369653,867.952776L302.595893,839.567090L315.511915,834.608429L316.367048,834.355436L325.401023,831.774906L331.134391,831.648410L334.639218,831.952002L338.895623,833.697654L342.034486,835.063817L356.714854,840.148973L374.851572,846.321990L383.260760,849.206102L396.357205,853.481666L401.334348,854.721326L403.425300,855.252609L408.511403,841.844024L412.653547,830.838831L432.726833,830.762933L436.736954,830.737634L439.600402,830.737634L443.463140,830.712335L464.168069,830.636437L481.588453,830.560539L500.524780,830.484641L521.924514,830.408743L528.398042,830.383443L541.758103,830.408743L544.430435,830.358144L545.534998,830.332845L564.829254,830.256947L586.343976,830.155749L587.471218,830.181049L588.617890,830.155749L609.334155,830.105151L631.721836,829.978654L632.839363,830.029253L638.420384,812.041388L640.981788,802.958877L645.662890,788.740534L646.571195,784.894994L647.147368,779.227877L647.516397,746.743001L647.700656,738.039844L647.904356,727.970470L648.119423,716.281870L648.163113,714.687967L648.172800,713.347064L648.536898,694.473179L649.038952,668.059713L649.061641,666.465791L650.094973,661.582821L650.572772,659.406988L653.847664,650.551842L659.885722,635.599251L660.313317,634.486027L674.398463,596.939845L680.659029,579.381067L680.981772,572.676326L678.901654,559.621025L678.565388,552.384930L679.299528,546.692188L681.736158,537.280172L682.928824,530.119940L681.971551,515.951247L679.583994,505.122283L675.853331,486.500447L676.035495,480.655805L676.965754,475.823215L679.392727,469.067700L681.145485,465.930304L682.718437,463.096524L686.076503,457.479563L692.157547,448.117943L694.420664,443.816651L694.935826,442.804582L702.581061,445.537168L710.027306,446.979366L719.983810,448.244451L727.334616,449.003502L733.786522,450.293889L738.455329,451.786688L743.893306,453.962632L750.595885,457.833786L759.337231,463.248334L770.789518,469.826747L777.346369,474.077409L779.367434,474.735249L790.168997,479.390729L794.816815,480.883518L800.253417,481.693166L806.524173,481.591960L813.946535,480.301584L818.648100,479.188317L827.226870,477.189497L838.955686,474.279821L840.636785,473.849695L842.704993,473.014744L842.836231,472.508713L844.474461,464.791732L853.363831,428.610282L854.212992,424.865610L855.234108,419.248596L855.931334,413.707479L856.325724,408.242261L856.396223,402.852941L855.663379,388.430784L854.569810,381.523311L854.416463,378.689473L854.519160,374.970057L854.987884,371.174731L855.833966,367.328797L857.025020,363.406953L858.564268,359.510407L860.440376,355.613858L862.173819,352.526979L863.727381,350.072655L944.725662,222.395162L947.465487,217.511658L949.918705,212.552239L951.992986,207.592814L953.761214,202.608080L958.903355,184.516226L960.269849,180.138744L962.067232,175.407010L964.191745,170.700574L964.886886,169.384795L961.252802,169.637830L959.414707,169.764347L941.462725,171.611498L875.022980,189.956442L870.657877,203.012932L869.792621,204.607035L868.527363,206.201138L867.084058,207.491601L865.589021,208.478426L863.907816,209.237522L862.979793,209.515857L855.272298,211.438900L853.594748,216.297107L852.193075,219.232272L851.203117,220.876975L850.483733,222.091525L848.445670,224.874866L846.150161,227.506387L843.227886,230.289725L840.445051,232.491091L837.940906,234.186395L835.346128,235.679274L833.452701,236.716698L832.087200,237.804728L831.060150,238.943363L830.107588,240.107302L829.734875,240.967604L772.418748,260.223138L765.318082,252.075604L754.842044,240.056696L748.976996,221.737281L742.146268,221.433643L832.087450,11.589446L834.705450,5.491073L711.977553,0.000000Z " data-aland="7680651" data-awater="276" data-classfp="U1" data-funcstat="S" data-geoid="0639108" data-intptlat="+33.9963134" data-intptlon="-118.3757966" data-lsad="57" data-mtfcc="G4210" data-name="Ladera Heights" data-namelsad="Ladera Heights CDP" data-pcicbsa="N" data-pcinecta="N" data-placefp="39108" data-placens="02408521" data-statefp="06"/></g><g fill="#000" font-family="Arial" font-size="12px" id="mylayer-label" stroke="none"><text text-anchor="middle" y="466.033860664"><tspan dy="0" x="502.031198262"><![CDATA[Ladera Heights]]></tspan></text></g></svg>