<?xml version="1.0" encoding="utf-8"?><!DOCTYPE svg  PUBLIC '-//W3C//DTD SVG 1.1//EN'  'http://www.w3.org/Graphics/SVG/1.1/DTD/svg11.dtd'><svg enable_background="new 0 0 1000 1001" height="1001px" pretty_print="False" style="stroke-linejoin: round; stroke:#000; fill: none;" version="1.1" viewBox="0 0 1000 1001" width="1000px" xmlns="http://www.w3.org/2000/svg" xmlns:xlink="http://www.w3.org/1999/xlink"><defs><style type="text/css"><![CDATA[path { fill-rule: evenodd; }]]></style></defs><metadata><views><view h="1001" padding="0" w="1000"><proj flip="auto" id="robinson" lon0="-121.289517521"/><bbox h="1.81" w="2.47" x="-1675.09" y="-635.8"/></view></views></metadata><g class="" id="mylayer"><path d="M1000.000000,204.885589L988.961126,204.906268L980.608824,204.920054L969.257528,204.940733L964.294745,204.947626L955.982114,204.947626L944.701483,204.947626L942.598220,204.947626L918.904432,204.947626L913.230021,204.899375L910.724444,204.665010L908.171147,204.685689L907.204129,204.665010L906.228433,204.651224L905.155415,204.630545L902.866808,204.658117L907.593212,197.372149L915.724163,185.033659L923.655847,173.350115L928.834720,165.568038L949.790845,134.950261L947.848830,135.026081L946.063017,135.101901L924.181602,134.771051L922.276169,134.777943L901.118761,134.412630L874.122971,133.992175L844.653378,133.502793L831.348267,133.316690L829.543875,133.309798L827.513813,133.482115L825.429771,133.861214L824.671647,134.033531L822.314173,134.722802L819.768192,135.694674L813.421438,138.493118L811.262910,139.285782L809.137899,139.892342L807.239804,140.292121L805.879801,140.450654L805.269852,140.492011L796.466820,160.122680L776.792579,204.003274L747.896097,204.506469L777.237980,140.898682L758.643467,141.098572L726.351343,141.339818L709.928186,141.512136L706.563617,141.463887L702.440987,141.339818L702.089509,141.401852L701.875627,141.505243L701.615830,141.760275L701.711273,141.808524L704.398464,143.511033L707.770876,146.468028L708.968741,147.612229L710.921444,149.335424L712.322504,150.982801L713.075373,151.975364L713.013942,154.629095L712.062530,156.793440L709.722535,159.378253L706.829201,163.837928L706.396889,165.009715L706.348301,166.085003L707.201112,166.657112L707.831410,167.153400L709.880450,168.290726L711.142415,168.697406L712.303913,169.352231L713.844137,170.082878L714.740334,170.744596L715.953160,172.054248L716.700532,173.046827L717.044341,174.204837L716.765623,176.362323L716.260119,178.106236L715.238144,180.601482L714.086736,182.441902L712.094697,184.861335L709.348827,187.790854L701.702347,194.359892L697.534629,196.469160L694.790221,198.068347L693.008521,199.412491L691.408450,200.749745L690.784068,202.162823L689.784652,203.665513L690.163889,204.906268L689.499221,206.408961L689.262862,208.311456L689.672514,209.310956L688.659408,211.799371L688.817961,213.543331L687.173873,215.549234L685.700263,217.548246L684.085988,218.892412L678.069163,221.925405L676.378713,222.111521L674.569927,221.208515L673.449250,219.891920L672.900721,218.816587L672.166862,217.582712L670.619102,216.273014L669.366390,215.287295L668.517179,214.880599L667.026865,216.135151L666.318839,217.548246L665.510986,219.381826L665.055849,221.373951L664.823833,224.234621L664.521266,225.316852L664.907986,227.136656L665.131703,228.549763L665.577966,230.038698L665.684579,230.273067L666.650303,232.430647L667.641477,233.836867L668.035700,235.243088L667.238477,237.648833L665.771163,239.820212L663.682722,241.660716L661.356244,243.087626L659.139487,243.687342L654.714035,245.638145L652.153236,246.816900L649.160382,249.167520L647.644124,250.504825L645.600374,253.586146L644.759850,255.778231L644.453025,256.584754L643.533786,258.666551L643.216516,261.320501L643.610851,262.726752L644.233909,263.636680L645.398297,266.780073L646.145400,268.344879L647.049324,269.585696L648.436185,271.067784L649.211189,272.384431L649.754499,275.196959L650.290255,276.685947L650.599808,278.678160L650.572901,281.828483L650.307153,283.400200L649.540583,285.440679L647.849271,288.632379L646.848401,290.672865L646.195243,292.237700L645.764018,293.768069L645.637777,295.153674L646.389332,296.435878L647.481773,297.270000L649.665864,297.897316L650.932385,298.021400L652.740693,298.007613L654.557734,298.297143L656.733965,299.972285L657.577778,300.503091L658.675951,302.019682L658.762500,303.949892L658.708911,305.645721L658.387354,306.534998L658.231224,306.969297L657.859549,308.292874L657.830619,309.251089L657.257869,312.325656L655.861216,317.792335L654.582698,321.866509L653.784924,324.548163L653.052393,327.705490L652.660730,330.414731L652.515815,333.096403L652.353779,334.413112L652.241143,335.061127L651.891155,338.025453L651.610778,339.493831L651.531267,340.962211L651.657984,341.748105L651.497315,343.347470L651.505904,344.967518L651.797638,346.056744L652.050893,347.008093L652.704474,347.490661L656.466753,352.392191L657.535134,354.708532L658.549655,357.169648L659.188456,359.485998L660.052374,361.947123L660.607890,363.629240L661.874004,367.145146L662.598504,369.606286L662.731942,371.433186L662.458056,373.198042L661.658553,375.176614L660.993530,377.017309L659.894590,380.333325L659.610148,381.960313L659.510198,383.015098L659.738539,384.779970L659.932859,385.365963L659.600332,387.510011L659.454656,388.840563L659.719425,390.226269L659.425496,392.632300L658.949149,395.941460L658.649387,398.981759L658.315337,401.601523L657.910097,404.379858L656.560140,407.323658L655.032577,409.681460L653.499038,411.294696L652.020415,412.425341L650.411487,413.349161L648.507481,414.321241L645.751614,415.251957L643.474714,415.700080L641.181515,415.824175L638.959524,415.789704L637.359333,415.700080L636.616788,416.024107L636.173099,416.403288L635.859719,416.989295L635.608606,418.057897L635.913459,418.857626L636.817761,419.540153L639.335683,421.015516L641.032965,421.746304L643.639968,421.780775L645.911503,421.704939L647.709911,421.477429L649.729493,420.981045L649.972085,421.298179L649.260793,422.049650L648.155139,422.697708L647.030765,423.138939L645.237936,423.366448L643.420123,423.276823L640.685684,422.656342L637.916227,421.505006L634.863592,419.505682L633.477216,418.181993L633.065938,416.637691L632.298214,416.272298L630.520798,416.341240L629.445952,416.672162L628.427108,417.375371L627.523636,418.181993L626.206825,419.312644L625.228579,420.546709L624.105035,422.477092L622.876169,424.517786L622.301445,425.586394L621.584783,426.710157L620.127849,427.792556L617.301677,429.364448L614.813172,430.557156L609.442703,433.321763L606.168392,435.059125L602.453280,436.796489L598.843961,438.161562L595.370318,439.361173L592.971982,439.967873L590.160089,440.526314L587.681188,441.188169L584.602148,441.856919L583.359906,442.187847L581.834654,443.049639L580.791065,443.808016L579.651736,445.152414L579.133532,446.331348L578.674226,447.503389L578.429674,449.054621L578.486169,450.171510L578.792007,451.453864L579.470557,452.887896L580.170094,454.163359L580.938109,454.901060L582.610959,456.059319L583.677159,456.741866L587.932325,457.989754L589.917829,458.451680L591.250934,458.651618L593.836336,458.734351L595.452919,459.148017L596.459297,459.354849L597.544197,459.237644L599.069214,459.010128L600.449196,458.844662L601.735624,458.775718L603.262085,459.775409L603.995996,460.464852L604.087969,460.781996L604.254523,461.368022L604.404704,463.394987L603.806538,465.373694L602.516079,467.676444L601.135002,469.820624L598.588473,472.137171L595.672324,474.295147L592.035595,477.101212L588.958343,479.369509L586.575947,480.562263L584.643201,481.113825L581.924762,481.451658L579.248680,481.210349L577.666614,480.582946L576.164841,479.528083L575.213971,478.948943L574.103769,478.376698L572.935549,478.169862L571.310084,478.397381L570.294841,478.831736L569.160943,479.803864L568.167901,480.934568L567.301685,482.540995L566.389751,484.361156L565.943131,485.753856L565.969963,487.670545L566.331330,489.214929L567.034821,490.593845L568.536918,492.021025L569.668817,492.545014L571.048960,493.386155L572.388970,494.441029L573.906184,495.337327L574.295581,496.185365L574.850155,498.157225L574.689914,499.384469L574.140853,500.508294L571.731528,502.880050L568.724850,504.879500L565.777781,506.982372L555.432219,512.987642L551.698123,514.780265L549.306089,515.497314L546.003129,516.055786L543.644624,516.076470L537.917363,515.807577L535.316479,515.883418L532.504562,516.441890L529.534626,517.103783L525.033350,518.641307L522.710653,519.241148L521.145125,520.006464L517.145349,522.192097L514.689441,523.660679L513.210053,524.370838L509.740749,526.232424L509.138300,526.480636L504.126518,525.487790L503.998834,525.536053L502.533800,526.363425L501.045991,527.390746L500.630128,528.342225L500.577277,528.907597L500.583166,529.279915L500.591245,530.045236L500.389505,530.507187L500.273035,530.617503L499.876740,530.493397L499.695585,530.362396L499.536143,530.245185L499.087802,530.162447L498.154544,530.003867L496.650286,529.886656L494.718543,530.162447L488.667491,531.286298L485.876557,531.748249L484.039984,532.396360L482.957031,532.658363L481.899080,532.417045L478.133741,532.451519L475.409655,532.030936L472.905885,531.107034L471.340144,530.107289L469.394707,528.797280L468.043619,527.170113L466.483231,525.860107L465.137764,523.474520L464.652095,521.647412L464.579657,520.192622L464.589196,518.903307L465.036881,516.538416L465.943322,514.083899L466.809921,512.215435L467.996854,509.223141L468.842147,507.016845L468.940209,506.313589L469.485306,504.776080L470.198173,503.734987L473.139146,498.115858L474.173225,496.247416L475.340666,494.454818L476.857652,492.455384L479.503651,489.532080L481.527615,487.236187L483.819683,485.312604L485.155153,484.388734L486.719321,483.340762L487.753559,482.540995L491.161584,479.610818L493.403211,477.314942L495.097074,475.481002L497.575451,472.061331L499.226134,469.565529L500.918207,465.821834L501.366460,463.829337L501.559505,461.174978L501.085394,458.403419L500.264466,456.217891L499.467929,454.363297L498.661722,452.915474L497.300813,451.771006L496.155253,450.991941L494.917394,450.343869L493.335282,449.406234L492.240161,448.999466L491.538797,448.709903L490.875879,448.434128L489.094533,447.082833L487.438843,445.352350L486.430833,444.366458L485.135093,443.263363L484.030598,442.691133L483.545532,442.243002L483.591875,441.953440L480.915953,439.450799L479.563537,437.803058L477.893729,436.203579L476.792869,435.424523L475.529193,435.107385L473.929016,435.079808L472.442463,435.383157L470.753450,436.224261L469.408674,437.354928L468.437038,438.313237L467.306202,439.526637L466.591242,440.484948L465.785298,441.732821L464.916919,443.318518L462.097058,448.765058L460.369038,451.929577L457.753355,456.424723L456.585699,458.217270L454.647626,461.464544L452.745041,464.918660L451.573029,466.621591L450.458936,467.710916L449.762317,468.131479L448.805427,468.758875L447.902351,469.179438L447.073278,468.938132L446.727377,467.993589L446.780898,467.290354L446.659534,466.504385L446.383551,465.304750L445.947374,463.691448L445.524490,462.533182L444.715196,461.092245L443.580510,459.816776L442.191362,458.051804L440.279281,455.749071L439.126049,454.514973L439.047659,454.018577L438.640502,453.198144L436.454463,449.778530L435.632246,448.378973L433.887656,446.076257L433.237411,443.883854L432.586238,442.277473L431.856623,441.243324L431.486665,440.340167L430.771775,438.975091L429.974141,438.278765L428.833286,438.085725L427.688228,438.175351L426.709429,438.478700L425.743106,438.940620L424.485619,439.864458L423.560501,440.905501L423.209217,441.401893L419.039151,446.214144L417.386658,448.179037L416.038166,449.330396L413.605442,451.901999L411.789155,453.598019L408.245428,457.314102L406.781782,458.734351L403.510488,461.719638L399.423456,464.980710L397.098075,466.456124L393.008669,468.765770L391.043224,469.737891L386.722647,471.096103L384.585131,471.482194L383.071815,471.633873L381.064910,471.654557L379.220908,471.399461L374.653010,470.661751L372.371767,470.137770L371.045512,469.972303L369.623106,469.710313L367.812487,469.269066L366.756622,469.234594L363.348990,468.945026L360.962653,468.965710L359.547122,468.800242L358.320563,468.400363L356.924057,467.869489L356.219529,467.462715L356.120565,466.738797L355.405624,466.566435L354.856975,465.477111L354.195022,463.484615L353.744475,461.443861L353.554219,460.389013L353.513808,460.168391L353.642348,459.347955L353.232770,458.582674L352.968729,457.493356L352.654473,456.404040L351.937674,454.956215L350.651184,453.646279L349.272013,452.977523L347.600941,452.536283L346.445850,452.412184L344.597193,452.701748L342.177491,452.908580L339.696003,453.563547L337.312321,453.901372L332.118985,454.494290L329.119615,454.749383L326.637975,455.094103L320.478525,455.328512L318.083444,455.169941L316.930106,454.818327L316.042762,454.508079L314.003751,453.432553L313.362480,452.984418L313.023637,452.260507L312.627489,450.943680L311.456806,446.407186L310.944150,445.138625L310.059283,443.332307L309.077937,442.063749L307.843048,440.850347L305.936259,440.002345L303.781708,439.705889L301.024538,439.409433L299.007717,439.340490L297.772120,439.395645L295.937790,439.864458L289.756216,440.471159L288.115135,440.484948L286.013902,440.181597L284.778181,439.926507L283.175152,438.961303L282.723680,438.637270L282.103464,438.030570L281.643907,437.637594L280.742692,436.637920L280.715337,436.437985L280.223509,435.955384L279.897257,435.576197L278.312312,434.831613L277.941610,434.948816L277.469809,434.955710L275.988610,434.762670L274.537839,434.700621L272.844701,434.755776L270.505720,435.279742L265.460453,437.244619L263.718603,438.016781L262.464112,438.933725L261.323725,439.919613L260.350167,441.043388L258.913307,443.297835L257.383028,446.021102L256.146405,448.165248L255.668633,448.744375L253.017430,449.888840L252.373904,449.930207L251.397303,449.619960L250.022051,449.302819L247.264964,449.254558L245.590569,449.702692L244.219404,450.295608L242.772806,451.391815L241.656188,452.846530L240.754197,454.556340L240.263229,456.183419L240.242048,457.410624L240.501122,458.672302L240.992152,462.933060L240.742306,464.346421L240.365774,465.284066L239.495396,466.849108L238.762983,467.759177L237.859320,468.379679L236.779498,468.820926L235.605958,469.048443L234.419332,469.131177L232.807262,468.931237L231.210790,468.945026L229.572274,469.213911L226.002688,469.930936L224.574482,470.489389L223.452614,471.185732L221.772954,472.316427L219.642570,474.798446L218.746739,476.246292L218.235140,477.335625L217.798221,479.004099L217.260318,480.810466L216.540035,484.898931L215.921403,486.388155L214.936887,487.698123L214.303016,488.463420L213.171270,489.194245L212.010366,489.890598L210.654711,490.449059L208.481988,491.186779L206.479826,492.041709L204.875134,492.993163L203.709329,493.799831L202.891455,494.813337L202.270689,495.723426L201.873126,496.633514L201.563852,498.005544L201.441555,498.874266L201.381319,499.853304L201.516422,500.894393L201.396173,502.094061L201.016763,503.286835L199.993475,505.031182L198.848450,506.375641L197.415067,507.616682L197.043825,507.871784L196.604802,507.768364L196.202320,507.595998L195.695898,507.816627L195.215678,508.326833L194.460094,508.692251L193.743430,508.809460L193.081781,508.630199L192.482056,508.313044L192.017651,508.278570L191.124366,508.540568L190.293144,508.912880L189.716803,509.388613L189.316979,509.533402L188.769554,509.609243L184.506286,510.553815L177.664420,512.642907L174.253133,513.752953L165.072504,516.800416L161.634537,517.882887L158.124604,518.889517L155.413779,519.744464L153.666841,520.192622L152.941568,520.440832L152.015447,520.751095L148.139023,521.654307L142.889738,523.377994L141.181174,523.715837L139.101658,523.736521L136.103365,523.901995L134.061614,523.826153L132.022784,523.433152L130.438936,522.847098L128.861964,522.357571L127.857263,521.861149L125.068150,521.337148L123.906226,521.302675L121.550468,521.826675L120.176267,522.488571L118.498902,523.191835L116.235395,524.591471L114.535484,525.991107L112.019899,527.852696L110.574305,529.431600L109.070755,531.562090L108.202275,533.968375L106.451285,540.104768L105.973556,541.628528L104.868712,543.703878L103.646270,545.096640L100.318879,547.523634L98.966371,548.137278L97.557177,548.330335L95.277925,548.261386L92.465340,548.013170L90.511118,548.164858L88.252700,548.695764L86.589949,548.943979L84.730171,549.419726L80.816491,550.281587L78.887722,550.488434L76.890573,550.412590L74.246882,549.564519L67.825359,547.647742L64.288426,547.123731L62.882138,546.999624L60.199093,546.661775L57.932398,545.806811L55.653581,545.413804L53.746876,545.186273L52.213972,544.834635L49.924647,544.489892L42.180908,544.014147L43.273223,544.800161L43.913653,545.772337L43.896409,545.972288L43.710535,546.199818L43.480668,546.475613L42.882434,546.627300L38.752537,546.765198L36.613407,546.682459L35.465792,546.765198L33.847782,547.199575L32.799531,547.558108L32.140131,548.082119L31.672403,548.750923L31.455823,549.481780L31.433439,550.426380L31.554381,551.536458L31.911849,552.094945L32.189971,552.681011L32.587226,553.411871L32.461352,554.425423L32.006632,555.052860L31.142720,555.721667L29.644035,556.611112L26.875343,558.203840L25.471028,559.293239L24.169644,560.389534L21.900699,561.975372L20.216231,563.216464L18.731277,564.236918L17.742618,564.698880L16.756287,564.919519L15.702459,565.278057L14.501906,565.988239L13.108747,566.070979L12.285349,566.077874L11.239469,566.257143L9.288060,566.974220L8.309103,567.091435L7.249343,566.891480L6.482659,566.374357L5.603644,565.684860L4.905530,564.754040L3.784163,565.188423L3.565882,565.140158L3.134328,565.119473L2.644678,565.402167L2.452084,565.781390L2.370066,566.498467L2.601536,566.815636L0.000000,568.980659L0.354396,569.546048L1.162986,570.628562L1.948450,571.414592L3.143313,572.469527L4.350974,573.172817L6.782883,574.331179L8.009370,574.420814L10.857205,574.441499L15.993825,574.820725L18.449205,574.882780L24.163418,575.765343L26.272058,576.537585L27.166256,576.696171L29.654680,577.020237L32.211374,577.440834L33.614605,577.571839L34.893280,577.806270L36.333742,577.978646L37.686709,578.047596L38.571581,578.164812L41.021474,578.350978L43.716730,578.288922L46.490550,577.964856L49.996923,577.165032L54.278092,576.006668L58.538683,574.682825L60.652372,573.765788L62.903084,572.841857L65.672764,571.917927L67.996317,571.428382L71.254577,570.497557L76.759000,569.249564L84.033864,567.463763L87.773159,566.381252L90.223661,565.671070L91.754890,565.305637L96.893485,564.064544L110.236694,560.644647L113.679824,559.886204L116.378861,559.045021L119.632159,557.217865L121.764412,556.259471L124.417626,555.507924L127.932640,554.701219L131.632536,554.066887L135.226696,553.866935L136.315537,553.977254L139.487322,554.494372L142.985417,555.266602L146.890351,556.176732L150.490949,557.217865L153.568536,558.665800L155.017832,559.079496L157.756999,559.789675L160.320263,560.754966L165.257600,562.547653L169.035957,564.112808L173.729787,565.229792L177.675352,566.484677L181.597573,568.015362L186.549633,569.477099L189.845668,570.214863L193.078220,571.442172L196.500513,572.669482L202.551725,574.641455L204.530032,575.144791L206.558369,575.399906L209.291998,576.048038L210.096666,576.654800L213.342771,577.702845L214.680621,578.240657L216.768564,579.357653L220.859197,580.426384L222.223741,580.991778L223.501385,581.439956L225.462268,581.832974L226.549626,582.356998L229.336969,583.432627L230.393790,583.763590L231.099606,584.018707L232.838047,584.584102L234.290572,585.052967L235.420098,585.570097L236.336303,586.052752L237.170891,586.804315L238.597184,588.500505L239.017564,589.217594L239.573859,590.079480L240.610123,591.003423L246.036648,600.760022L249.872819,615.467451L262.282948,614.598653L270.701126,612.378395L257.963193,623.107378L249.187304,636.573889L250.395756,661.162852L260.311672,665.955200L277.107899,662.934984L277.966484,662.190275L301.054788,657.197972L310.194261,660.735334L311.928026,668.865094L305.535087,694.695848L312.677578,692.992631L318.491862,702.143139L332.357123,708.921588L337.624760,712.197045L344.132670,714.100262L349.267187,718.830733L356.313601,717.665353L358.632239,717.286088L355.552534,733.718719L355.418349,734.428989L355.727723,735.270279L361.323104,750.517029L361.051781,751.558310L360.679638,752.351339L360.287626,752.703031L360.156538,752.958180L360.704243,753.902920L361.177284,754.254612L362.924998,755.261416L363.314510,755.737235L363.678426,756.095823L364.344454,756.116511L365.385469,756.433723L366.332253,757.185380L367.137761,757.592240L367.900236,757.833598L368.511240,757.964620L369.371083,758.212874L370.234339,758.254250L371.152898,758.371481L373.300205,759.109346L374.003462,759.557583L375.198129,760.192010L375.685115,760.736790L376.202367,761.612576L378.374956,765.108829L379.546465,766.405272L380.604498,767.294854L381.642674,768.577507L382.028787,769.646386L382.518478,770.322194L383.682663,771.273842L384.107974,772.018610L384.597843,773.204724L384.753665,774.114998L385.043031,775.163193L385.567711,775.997612L385.762530,776.459645L386.097930,777.990565L386.436551,778.804297L387.264124,779.411149L387.670638,779.624926L388.268693,780.183506L389.309646,780.824838L389.725922,781.328250L390.278538,781.776493L390.886072,782.052336L391.705893,782.066128L392.285326,782.217841L392.938805,782.528164L393.390465,783.052264L393.682667,783.521196L394.048423,783.838415L394.134730,783.907376L395.637231,784.652151L395.729717,784.707320L396.608836,784.962474L397.158672,785.217629L397.603263,785.583121L397.710699,785.679666L398.088916,786.031366L398.456769,786.493403L399.867094,787.755386L400.308102,788.203631L400.724196,788.582916L401.238559,789.141499L401.398220,789.320798L401.844416,789.906965L402.363871,790.927588L402.463149,791.727536L402.731158,792.561965L403.255093,792.899874L403.785115,793.548108L404.528439,794.941124L404.969284,796.037607L405.417535,797.865082L405.717480,799.251205L405.451468,801.140749L405.435692,802.471707L405.525182,804.078512L406.014008,805.292238L406.605041,807.174894L406.428243,808.616196L406.369462,810.167839L406.192613,810.836770L405.960792,812.002228L406.232758,812.940112L406.746263,813.326300L407.160922,813.933166L407.718344,814.981391L408.485550,816.857164L409.002487,818.519156L410.199669,821.229379L410.901077,823.401699L411.747206,823.194812L412.351983,823.277567L412.510584,823.546521L412.618027,824.353384L413.011036,825.332654L413.297085,826.139517L413.617382,826.670531L414.257220,827.298092L415.050846,828.629074L415.351482,829.615244L415.440372,831.497932L415.547838,832.304799L416.021178,833.104771L416.374069,834.173699L416.375894,835.552962L416.371703,836.683959L415.727675,841.711389L414.380952,850.414610L413.961586,852.373187L413.919601,853.152480L413.997092,853.814536L414.183010,854.421420L414.490415,854.993822L414.931660,855.504157L415.431579,855.883460L416.016294,856.173110L416.672149,856.366209L417.390475,856.469656L419.064882,856.469656L419.758983,856.552413L420.772297,856.545516L423.179395,856.704134L424.202872,857.497223L424.534741,858.214452L425.137607,858.924784L425.716862,859.276502L428.004099,860.338554L429.807561,861.035095L431.103382,861.207506L431.947112,861.379917L434.984569,861.352331L436.130986,861.883358L437.211150,862.138526L442.178438,862.724725L444.346624,862.793689L445.702773,863.055754L447.291694,862.773000L449.501939,862.124733L450.735920,861.400606L451.630733,861.035095L452.186377,861.028198L452.949827,861.379917L453.425189,861.552328L453.578253,861.821290L452.256819,864.835041L451.974410,865.690202L455.515997,864.648836L455.896973,863.772986L456.185561,862.904032L456.100199,862.035079L455.891338,861.117852L456.088137,860.242004L456.381244,859.462706L456.829570,858.448930L457.108095,857.166194L457.290305,856.111042L457.494120,855.331746L457.384654,854.828308L457.578398,853.635229L457.993617,852.483529L458.827459,851.007700L459.120586,850.228407L459.417763,849.290498L460.331334,847.325029L460.903811,846.021615L461.741247,844.463036L464.704591,837.483933L465.031268,836.380521L465.437829,834.525411L467.430454,830.449695L467.710192,829.787651L468.023418,829.125607L468.568010,828.146334L469.258799,827.077411L470.007299,826.029177L470.818497,825.015425L471.689900,824.029259L472.618419,823.077575L473.604053,822.160373L474.623881,821.291446L477.823122,818.808798L479.738870,817.484721L481.638959,816.070994L483.753956,814.850363L485.762750,813.891789L488.018417,812.967697L492.955873,810.816082L493.727324,810.464375L494.022965,810.016123L494.646380,809.409258L495.340399,809.105825L496.389393,808.595508L497.500756,807.933474L500.281278,806.423210L499.602838,804.623309L496.889305,800.389069L486.357445,811.043656L483.568038,813.857308L460.040786,798.237473L468.394354,791.113783L434.438036,764.233041L441.450532,759.605854L444.760401,757.412946L479.016657,735.566799L488.100940,730.015671L489.226762,729.408841L490.391742,728.864073L497.251314,726.795337L500.957585,725.498931L503.871281,724.140464L505.038569,723.478471L507.240316,722.064839L509.202688,720.637418L510.073412,719.865094L513.580954,716.658576L516.293575,713.893391L519.505036,710.886861L521.153108,709.500826L522.900436,708.142375L524.421199,707.052856L525.483667,706.363288L541.726703,697.067944L542.890060,696.240468L548.005062,692.647850L551.781566,689.675845L554.769400,688.089859L556.437436,687.207224L557.588697,686.593517L581.055291,674.181528L592.083130,668.541006L595.417591,666.941253L598.092833,665.741440L603.245403,663.721067L608.149749,662.017888L610.725722,661.238702L615.455674,659.887194L617.271288,659.459676L622.647032,658.335719L626.190585,657.763398L628.236454,657.494476L630.313400,657.280718L634.350263,656.977319L638.193858,656.818724L640.007041,656.894573L640.269784,656.308462L641.097521,654.412220L636.502708,654.329475L630.523714,654.570815L629.034894,654.543233L625.761812,654.736305L620.040371,655.150030L616.848232,655.598233L613.406250,656.080913L610.486519,656.680815L610.976823,655.612024L611.200598,655.087972L653.805432,642.883129L656.752725,642.035000L684.087775,633.181391L704.752779,624.293363L731.325238,607.158734L732.035236,607.193209L736.135573,607.158734L738.817197,607.089782L765.143651,606.944983L774.804144,607.055306L785.422271,606.896717L793.427024,606.841555L798.513449,606.972564L805.711528,606.924298L812.907118,606.869136L820.115072,606.786394L822.542562,606.786394L828.501433,600.229095L832.471311,595.643832L835.398718,591.865311L838.050541,588.328128L841.191860,583.998022L844.013639,579.957521L846.977754,575.661917L848.522158,573.014232L850.439717,569.746003L852.320125,566.498467L853.677568,564.043859L855.852301,560.065472L856.890186,557.900463L858.785684,553.673878L860.712223,549.440411L862.334665,545.462068L864.078223,541.076940L870.043930,526.184161L877.976912,506.410115L884.635852,490.125013L887.834884,482.099744L898.209791,456.479878L905.222535,439.499059L908.600406,430.419271L917.544261,406.454995L917.724945,405.965510L926.638133,383.863064L940.700492,349.117609L959.370115,304.894317L975.379409,265.015361L994.296971,219.285322L998.307561,209.159308L999.867999,205.216457L1000.000000,204.885589Z "/></g><g fill="#000" font-family="Arial" font-size="12px" id="mylayer-label" stroke="none"><text text-anchor="middle" y="470.570564724"><tspan dy="0" x="609.003048671"><![CDATA[N]]></tspan></text></g></svg>