<?xml version="1.0" encoding="utf-8"?><!DOCTYPE svg  PUBLIC '-//W3C//DTD SVG 1.1//EN'  'http://www.w3.org/Graphics/SVG/1.1/DTD/svg11.dtd'><svg enable_background="new 0 0 1000 1001" height="1001px" pretty_print="False" style="stroke-linejoin: round; stroke:#000; fill: none;" version="1.1" viewBox="0 0 1000 1001" width="1000px" xmlns="http://www.w3.org/2000/svg" xmlns:xlink="http://www.w3.org/1999/xlink"><defs><style type="text/css"><![CDATA[path { fill-rule: evenodd; }]]></style></defs><metadata><views><view h="1001" padding="0" w="1000"><proj flip="auto" id="robinson" lon0="-116.888933083"/><bbox h="2.67" w="4.77" x="-1638.31" y="-578.94"/></view></views></metadata><g class="" id="mylayer"><path d="M1000.000000,491.851673L982.520954,491.915493L950.002249,492.028951L951.408195,488.469200L955.689216,477.633786L959.492926,468.010775L967.820738,446.930974L967.958394,446.572840L968.365494,445.498436L968.500217,445.140301L967.758177,445.016195L965.531851,444.636784L964.788240,444.509132L963.954552,443.966610L961.454865,442.335493L960.619614,441.789422L954.433949,437.573309L953.650410,437.037871L952.554897,434.587613L951.937454,434.009620L951.301476,432.952919L951.519804,432.293367L951.526027,431.559347L951.898063,429.194166L952.739461,426.417635L952.539602,425.265175L952.849116,422.818405L952.362588,421.999266L950.634961,421.254593L946.617690,417.478020L946.026967,416.708517L942.979797,412.722688L942.203265,412.222684L941.759034,411.492181L941.138101,410.992176L939.545462,409.743934L939.204325,409.524072L934.623766,406.548845L933.298643,405.261583L932.136642,404.130351L931.472534,403.658707L923.153962,397.846466L919.529885,395.644250L918.612145,394.931453L914.403280,391.654704L913.900885,390.839059L907.291467,385.629541L904.772499,384.569189L902.352293,382.618704L895.483107,380.817159L887.621549,377.802747L887.551292,377.558047L882.437473,375.848689L877.021150,373.529343L876.160436,373.156970L871.278142,373.798870L869.677158,374.366294L858.830593,375.089760L856.502026,375.320276L849.517478,376.001183L847.188701,376.224606L845.927374,376.359369L842.147485,376.753018L841.771394,376.792028L840.836992,377.114749L840.648367,377.139574L840.077986,377.210501L839.887791,377.231780L839.718351,377.260151L839.208254,377.334625L839.037243,377.359449L833.883518,376.242338L831.895249,375.809678L830.255552,374.997554L827.816249,374.348562L827.249873,373.699570L824.094306,372.798782L820.231933,372.476058L818.985650,372.068220L817.264929,371.497246L814.318711,371.334111L813.714978,371.217079L809.795391,370.440411L808.680315,369.546709L807.450039,369.234623L805.799819,368.816142L802.110444,369.142415L794.456618,371.341203L792.605825,372.153334L790.871558,373.288187L787.113063,376.540235L785.516534,377.111203L784.509438,377.256604L780.969033,377.760190L777.269237,377.274336L776.958941,377.607696L775.448124,377.643160L774.217351,377.667984L771.072223,378.540393L770.306872,378.316971L769.790691,378.384352L767.876432,378.629052L766.388379,378.841834L764.549493,379.104266L763.623429,378.856020L762.485589,378.593588L762.313674,378.536846L761.243612,378.182209L761.086788,378.139653L760.827757,378.065179L760.222040,377.930416L759.405886,377.625428L759.088556,377.565139L758.908453,377.529676L757.867929,377.433923L757.053166,377.277883L753.533031,376.508317L752.792484,376.380647L751.944273,376.235245L751.201538,376.082750L750.735500,375.905431L750.318952,377.079285L750.196731,377.419738L749.796391,378.292147L749.538228,378.955318L749.270252,380.139804L748.987065,380.547636L748.221866,381.643459L747.853445,382.249885L746.746411,384.058518L746.377789,384.657848L746.285441,384.409604L746.108089,384.115259L745.353033,383.842191L744.102807,383.551392L743.597566,383.338612L743.069278,382.888226L742.588837,382.771197L742.086507,382.810207L741.866283,382.909504L741.335858,383.143563L740.350384,383.629411L739.434386,383.980498L738.829591,384.079796L738.072169,384.331585L736.857328,384.955739L735.497845,386.108294L734.007364,386.945224L733.534985,387.257299L732.907015,387.569375L731.730412,387.842440L730.578558,388.310552L729.846837,388.739655L729.137003,389.012720L728.176039,389.129747L727.621817,389.151025L727.213737,389.402812L726.947522,389.636867L725.918489,390.846152L724.878583,392.640568L724.684652,392.785965L724.355632,393.030657L723.869844,393.537774L723.165530,394.101629L722.518615,394.569735L721.629973,395.154867L720.632158,395.367642L718.858909,395.566232L718.991396,395.427929L719.396507,395.023656L721.012447,393.403015L721.550048,392.860437L721.242647,392.637022L721.007224,392.516448L720.747775,392.427792L720.329594,392.332042L719.664277,392.268209L718.491166,392.257570L708.428888,392.147636L705.073748,392.108627L705.566040,390.814235L707.040019,386.931039L707.530766,385.633087L708.159173,383.969859L708.399066,383.384714L708.501306,383.164841L708.656032,382.831485L708.760797,382.597426L708.938878,382.310172L709.143792,382.037104L709.387898,381.799498L710.419501,380.980291L711.395814,380.228463L711.887318,379.866734L712.388246,379.526283L712.941062,379.203564L714.673387,378.302786L716.151079,377.529676L716.924124,377.107656L716.505833,376.501224L716.242942,376.040194L715.867456,375.391204L714.882582,373.922994L714.492176,373.518703L714.168011,373.323651L713.875258,373.199526L713.808283,373.167609L713.400292,373.068309L712.584795,372.937092L712.084847,372.855524L711.958000,372.834246L711.351826,372.784596L705.044289,372.720761L704.848969,372.717214L698.004894,372.575358L686.718702,372.465419L682.978051,372.390944L682.283677,372.387398L675.865208,372.344841L674.672941,372.330655L672.000512,372.295191L663.977357,372.188798L662.175645,372.163973L661.325409,372.100138L660.294004,374.756399L657.198381,382.721548L656.165515,385.374205L656.093164,385.562160L655.875905,386.118933L655.801984,386.303341L655.730998,386.487750L655.517837,387.033882L655.445282,387.214744L655.080598,388.154515L653.979125,390.970272L653.612884,391.906489L653.129255,393.147684L653.111305,393.186693L651.698956,396.871251L651.221223,398.112433L650.133240,398.101794L646.863420,398.069878L645.772502,398.059240L614.925787,397.757810L612.720467,397.736532L611.920594,397.740079L602.874569,397.750717L599.858249,397.754264L601.309907,393.899492L604.735497,384.803247L605.757397,382.324358L606.278493,381.054765L607.286980,378.465919L607.811920,377.125388L609.385006,373.093134L609.906833,371.745496L599.616381,371.603639L584.280315,371.383761L568.665835,371.383761L563.526600,371.571721L558.317829,371.383761L568.166955,345.437432L564.889492,345.387779L553.171488,345.203355L550.044258,345.274287L547.655762,345.309754L544.092560,345.430338L541.980409,345.479991L539.823411,345.501271L538.026670,345.494177L537.703911,345.448071L537.427861,345.341673L537.174280,345.199809L536.801599,344.947999L536.537292,344.841600L535.949672,344.721015L535.169526,344.642990L534.895360,344.653630L534.616135,344.692642L534.327955,344.777761L533.663290,345.093410L533.347325,345.182075L532.715892,345.274287L532.136081,345.323940L531.007273,345.320393L528.872432,345.192715L527.058781,345.107597L523.488231,345.125330L521.227827,345.072130L518.985186,344.972825L517.002143,344.969279L517.971009,342.408615L518.989752,339.794739L520.798718,335.145054L524.995673,324.267243L526.579579,320.156524L526.964521,319.088937L522.733755,319.060563L521.573855,319.046375L517.239541,318.989627L505.453191,318.762631L500.084195,318.656227L499.327016,321.291497L498.491050,324.199855L497.153486,329.179490L496.447490,331.804063L493.468660,339.542926L491.651292,344.259955L490.363986,347.235561L486.358763,357.609254L484.381888,362.741048L481.396554,370.475875L480.070970,370.419132L476.468260,370.291461L474.994531,370.238264L472.079014,370.170882L470.014880,370.156696L465.769043,370.174428L461.756833,370.149603L461.516114,370.149603L456.537075,370.089314L457.282402,367.773487L457.376872,367.535875L459.718846,361.517508L460.378612,359.850652L461.387004,357.286520L456.306108,357.254602L454.099529,357.236869L440.999959,357.300707L435.892696,357.321986L436.942081,354.750747L440.083153,347.040498L441.131072,344.465659L436.845826,344.486939L423.987150,344.550778L419.700335,344.568511L418.790527,344.575604L416.057965,344.589791L415.147955,344.589791L414.792411,345.504817L413.724025,348.239247L413.366924,349.150721L413.042828,349.984168L412.073088,352.470314L411.747434,353.300208L410.424954,356.694250L406.446043,366.876234L405.122174,370.266636L403.056675,370.255996L396.849800,370.220532L394.782732,370.206346L391.799756,370.192160L382.854929,370.138964L379.871751,370.117685L377.630116,370.107046L370.903440,370.064489L368.660236,370.050303L354.662686,369.411945L357.035529,363.063778L359.066288,358.715769L361.219205,353.449164L348.692385,352.697293L328.142153,351.459543L311.557851,349.445087L299.355233,347.959067L303.662112,339.954338L312.115892,324.231776L314.459691,322.149819L318.594888,319.471992L319.541508,318.950612L321.826385,317.691494L325.364511,314.087918L326.276964,313.084161L328.406557,310.743236L333.214942,304.873140L337.316125,300.829649L340.770328,297.992092L346.026023,295.072937L349.228183,292.196329L349.628943,291.834535L352.113769,290.064578L354.515196,290.284493L356.104751,290.234834L356.577204,289.656671L355.565226,288.847950L355.107881,287.773201L356.314110,285.680447L359.148086,283.591232L363.082642,281.913469L365.312789,281.367219L367.445627,282.161764L367.921206,282.268176L368.497203,281.718380L368.277333,281.154394L368.209101,280.189588L370.197322,278.451512L373.112961,276.447396L376.046922,273.162758L379.921143,269.807153L387.371079,262.758890L394.649577,254.092968L399.632906,246.682649L400.576704,243.908628L402.213135,237.824881L402.885443,233.997225L402.903016,233.890802L405.970698,230.176634L411.033133,227.629556L412.048400,227.356401L414.065772,226.075761L418.032252,224.170760L422.162818,223.202292L425.783708,221.219234L426.545838,220.552300L427.165037,219.601563L425.544780,219.966958L420.689676,221.056048L419.067849,221.417895L416.148059,223.439975L413.029712,225.603946L407.340340,228.771841L405.199784,230.318532L401.623733,233.486396L399.954261,235.242369L399.845897,235.355887L391.035418,246.409504L384.024676,253.642464L379.509877,257.136523L375.921533,259.491894L372.563238,262.095560L370.598106,264.450908L368.596357,267.540511L364.404867,272.091521L360.383302,277.046858L357.774064,280.867081L356.175974,282.491642L352.696303,286.879348L350.270026,288.748633L350.027651,288.897608L349.779606,289.053677L346.212469,291.270561L339.587441,294.764350L338.543318,295.576608L334.621720,299.641424L332.666416,301.347502L330.734110,302.567645L329.158902,303.074855L324.434443,304.585841L322.857665,305.089502L322.320107,306.064900L320.596683,307.405625L315.832685,311.105016L312.708053,312.981303L312.445335,313.137364L309.992041,314.254620L306.447517,316.230205L306.133930,316.403999L298.382664,321.851889L296.186693,323.816804L292.919738,326.732239L293.852601,324.373646L296.652487,317.287157L297.583869,314.924972L293.514134,318.833567L284.608520,327.374200L281.243435,330.452764L277.097049,334.240648L276.346909,336.155859L274.093236,341.887260L273.338648,343.798894L273.166170,344.238675L272.668081,345.515457L272.498139,345.941050L270.605260,350.775054L264.924033,365.269687L263.029950,370.099953L262.539503,370.092860L261.379492,370.025478L260.522499,370.032571L252.896818,370.068035L250.353423,370.078675L250.281602,370.082221L250.070239,370.082221L249.996849,370.082221L248.745118,370.092860L244.992457,370.110592L243.740524,370.114139L242.953783,370.114139L242.426742,370.110592L240.588093,370.128325L240.182980,370.128325L239.799783,370.124778L239.349068,370.121232L237.993986,370.110592L237.541702,370.103500L234.937220,370.082221L233.802308,370.071582L227.100534,370.078675L224.484915,370.078675L224.173741,370.078675L221.876735,370.082221L220.268026,370.082221L214.061764,370.068035L211.836378,370.060942L211.453383,370.064489L210.225136,370.075128L206.528654,370.107046L205.298838,370.114139L204.051007,370.107046L200.305743,370.075128L199.056343,370.064489L198.632048,370.060942L198.547686,370.295007L198.297335,370.990107L198.211405,371.220625L198.146821,371.220625L198.098200,371.110686L198.036351,371.103593L197.979367,371.061036L197.931391,371.025572L197.897246,370.908539L197.762208,370.908539L197.604116,370.458143L197.505950,370.309193L197.335679,370.050303L195.827947,370.039664L191.298878,370.007746L189.788210,369.997107L188.214930,370.004199L183.500558,370.011292L181.927076,370.011292L180.106441,370.043210L178.312026,370.068035L174.646667,370.110592L172.825630,370.128325L171.553148,370.131871L168.629290,370.131871L167.719656,370.146057L160.031563,369.947457L160.357832,369.184972L160.670670,368.518241L164.950852,357.318439L165.803621,355.137321L167.227090,351.491462L167.433030,350.987849L168.379453,348.586813L169.239535,346.402109L169.280765,346.302804L169.397017,346.001343L169.436679,345.898491L168.762877,345.894944L166.742839,345.880758L166.067469,345.873665L165.846506,346.469495L165.285398,347.962613L165.167379,348.253434L164.918434,348.845714L164.843437,350.296267L164.595326,350.658017L164.181781,350.619005L162.237489,350.636738L161.031184,350.643831L156.433333,350.615458L154.498415,350.601272L154.903076,349.597590L153.713384,349.569218L152.691018,349.540845L152.520958,349.547938L152.373981,349.540845L150.535003,349.597590L150.094673,349.597590L148.893840,349.590497L147.826674,349.586951L147.267355,349.583404L145.156140,349.615323L144.612466,349.594044L144.396404,349.583404L143.569718,349.519566L142.838999,351.140351L140.639261,355.992036L139.904078,357.609254L139.710775,357.988732L139.129103,359.116525L138.934235,359.492455L135.654323,367.975635L125.813142,393.417201L122.532790,401.896247L118.916270,411.240405L110.523223,432.910368L115.763692,432.963557L123.469278,433.034477L122.899707,434.573429L121.185179,439.190258L120.614076,440.725646L116.909493,441.151157L113.561861,441.534116L111.963393,442.101462L108.794475,444.214823L105.831815,447.225282L102.402680,450.707321L97.423956,453.029848L89.601584,456.674954L82.491683,459.621512L77.514237,461.681611L74.140060,463.085735L66.286140,466.347826L64.291730,468.361802L61.331310,471.343748L61.078708,471.595493L60.313463,472.347181L60.059292,472.595380L59.262891,473.488894L56.870562,476.162336L56.069664,477.052298L55.391202,477.860709L53.352893,480.285932L52.672870,481.090791L51.965960,482.849423L51.597280,483.760647L49.906756,488.118188L49.224749,489.873248L48.185989,492.493418L46.805453,496.038958L46.094753,497.815263L45.862975,498.432182L45.541409,499.091647L45.239359,500.020568L45.097457,500.343208L44.996733,500.566574L44.010258,502.959777L46.613091,502.910141L54.415513,502.754139L57.016775,502.700957L56.000582,505.232423L55.334832,506.884605L53.012034,512.816105L52.273621,514.695167L52.003179,515.343974L51.669931,516.308318L51.591347,516.535223L51.194195,517.574018L50.539655,519.204887L50.150635,520.169224L49.989103,520.573394L49.501573,521.785902L49.401487,522.030531L49.344344,522.186526L49.148341,522.718327L48.560337,524.313725L48.364338,524.845523L48.122123,525.504953L47.398218,527.476144L47.154439,528.132025L44.605343,528.163932L36.950610,528.256110L34.397006,528.284472L34.216921,528.858810L33.462493,530.840624L31.587995,535.761445L30.725281,537.955945L30.528555,538.512545L30.020428,539.923542L29.588274,541.068644L29.099199,542.376823L27.626141,546.301339L27.134156,547.609504L26.463481,549.335992L24.603789,554.097100L24.445653,554.515423L23.783834,556.241888L21.313570,562.718737L20.916089,563.941777L20.431388,565.345612L20.163050,566.012077L19.905426,566.643092L16.862692,574.775306L15.026846,579.582254L14.799400,580.089179L13.783235,582.545807L13.391176,583.549015L13.276220,583.885780L13.192699,584.293444L13.140455,584.917345L13.038281,585.289558L12.915348,585.654682L12.678655,586.246678L12.338000,586.948564L12.023809,587.551193L11.488909,588.940781L11.163357,589.656843L10.821260,590.309096L10.708213,590.610409L10.518720,591.209488L10.306896,591.797933L10.031510,592.421825L9.855645,592.733770L8.933652,595.243508L8.608381,596.119078L8.037042,597.817040L7.535389,599.036450L6.603285,601.549701L6.386025,601.801379L6.160729,602.279923L5.514540,604.027491L5.166314,604.970395L4.913177,605.650987L4.887671,605.732516L4.396266,607.200038L4.061929,608.015326L3.871258,608.472596L3.832798,608.763263L3.803798,608.975946L3.198583,610.617149L3.173611,610.666775L2.833462,611.283554L2.554123,611.971226L2.344770,612.942473L1.082980,616.373724L0.507824,617.936920L0.334395,618.280752L0.218165,618.422538L0.118398,618.574958L0.073174,618.684843L0.045569,618.794727L0.029293,618.890432L0.000000,619.042852L0.218322,619.627719L2.313453,621.676520L5.633095,624.923391L9.449584,628.237589L10.059756,628.765731L12.699490,631.055525L13.085530,631.051981L14.053615,631.069703L14.370544,631.062614L17.338580,630.988178L19.421685,630.977545L19.970594,630.970456L21.125262,630.892475L21.466420,630.860574L21.911509,630.818039L22.472163,630.810950L22.803774,630.803861L23.928131,630.743603L26.306552,630.789683L27.616003,630.782594L30.469614,630.761326L34.232691,630.711702L38.713848,630.566375L40.803143,630.516751L42.134304,630.499028L46.962687,630.428137L45.285207,634.834016L40.250084,648.044334L38.571339,652.446514L40.548977,653.435404L42.580112,654.445559L44.669784,656.242565L45.718252,657.387401L47.196211,659.003635L47.948002,660.095298L49.193801,661.902918L50.466542,663.083184L51.416043,663.958634L53.530470,665.546492L59.058385,669.696874L59.720344,670.480162L61.444438,672.518122L64.186693,676.009216L65.538600,677.724629L74.480594,680.489124L76.469417,681.105817L80.827706,682.449071L80.862656,682.587294L80.896568,682.789314L81.110821,683.278413L81.390929,683.710805L81.458797,683.771056L81.599256,683.902191L81.751135,683.973075L82.365754,684.100666L82.980814,684.341670L83.204036,684.540145L83.278316,684.667735L83.334265,684.919373L83.411236,686.468178L83.511761,687.230175L83.632463,688.176467L83.645941,688.431646L83.742396,688.761253L83.733184,688.846312L84.712124,688.782518L85.258647,688.743532L87.250001,688.704546L87.602187,688.697458L88.565925,688.665560L88.616060,688.672649L88.766463,688.693914L88.815023,688.697458L89.903791,688.722267L90.986474,688.739988L92.812152,688.856945L93.129944,688.878210L94.197849,688.942005L97.328151,689.133389L100.767555,689.399200L101.801914,689.519702L101.955042,689.533878L102.826429,689.703997L104.765279,690.267517L106.689146,690.870021L108.339036,691.344936L110.850081,692.138822L115.569995,693.588370L117.113665,694.095180L118.475026,694.495665L119.952401,694.945767L121.470165,695.420678L122.377046,695.697119L123.203791,695.945206L125.003602,696.473278L126.607174,696.969452L127.921774,697.377023L129.249364,697.727888L129.309157,697.419552L129.489690,696.483910L129.547910,696.172029L129.835613,696.218102L130.699872,696.345690L130.987363,696.384675L131.728374,696.466189L132.069452,696.480366L135.372938,696.618586L136.471164,696.664659L136.925410,696.682380L137.158467,696.717821L137.564607,696.845408L137.863845,696.884393L138.020851,696.880849L138.277371,696.817055L138.356025,696.795791L138.525504,696.767438L138.986865,696.728453L139.270572,696.739085L139.820064,696.799335L141.049199,696.902114L141.654154,696.902114L142.067166,696.866673L142.584052,696.965907L143.106690,697.011981L143.832261,697.019069L144.872056,697.026157L145.699685,697.058054L145.858477,697.065142L146.404609,697.111215L146.888858,697.150201L147.311862,697.203362L147.726904,697.284876L148.132197,697.384111L148.423899,697.465625L148.906607,697.600301L149.078932,697.618021L149.262157,697.607389L149.447681,697.575492L149.856663,697.405375L150.161107,697.323861L150.358590,697.299053L150.874507,697.316773L150.927367,697.316773L151.424057,697.231715L151.576764,697.231715L151.717211,697.263612L151.983119,697.366390L152.215663,697.433728L152.457955,697.483346L154.739787,697.582580L155.892751,697.593212L157.192549,697.603845L157.592786,697.632198L160.841545,697.805858L165.877203,698.075209L170.579021,698.326839L173.821912,698.500500L174.102507,698.603278L174.377865,698.727321L174.654462,698.794659L174.840110,698.815923L175.469922,698.812379L175.589176,698.823012L175.796018,698.865541L175.994687,698.929334L176.203103,698.975407L176.656626,699.017936L176.926589,699.010848L178.200047,698.975407L178.411488,698.975407L178.853265,699.017936L179.117691,699.071098L179.628410,699.209317L180.551964,699.404241L181.540851,699.574357L181.770762,699.602710L182.172150,699.620430L182.990123,699.623974L183.726506,699.648783L183.984722,699.641695L184.386835,699.634606L184.473786,699.645239L184.621895,699.687768L185.049876,699.857883L185.202496,699.903956L185.451814,699.942941L186.190410,699.992558L186.498674,700.038631L186.597372,700.049264L186.655169,700.066984L186.733222,700.123689L186.836257,700.230012L186.974406,700.283173L187.194870,700.290261L187.521654,700.219379L187.754589,700.201659L188.204327,700.215835L189.014166,700.339878L189.405808,700.375319L189.655639,700.382407L189.731154,700.109513L189.825051,699.911045L190.049188,699.648783L190.235185,699.485755L190.781981,699.064009L191.090220,698.766306L191.359944,698.408353L191.596603,697.975975L191.625208,697.901549L191.769381,697.518787L191.822891,697.295509L191.852000,696.600865L191.938804,696.214558L192.010998,696.026721L192.133628,695.806986L192.414341,695.374605L192.517777,695.151326L192.842611,694.329091L193.060948,693.676973L193.133321,693.396988L193.231806,692.812207L193.310177,692.585383L193.403355,692.411720L193.550967,692.241602L193.745477,692.117557L194.189090,692.025410L194.399133,691.929718L194.596456,691.752512L194.801104,691.525687L194.981711,691.231524L195.037137,691.072037L195.146012,690.490798L195.210126,690.278149L195.318714,690.079677L195.454971,689.824498L195.556413,689.583496L195.643261,689.296420L195.564016,688.807327L195.550137,688.392660L195.635257,687.949640L195.778719,687.591680L195.864844,687.329411L196.223327,687.336500L197.295838,687.357765L197.652746,687.361309L198.002419,687.368397L199.042627,687.389662L199.390726,687.393206L200.432297,687.410927L203.551136,687.464090L204.589770,687.481811L205.015796,687.488899L206.297959,687.499531L206.722410,687.503076L206.719610,687.900022L206.225851,689.750071L206.290491,690.437636L206.326298,690.848756L205.528112,694.446047L206.034748,696.260631L205.745888,697.302597L204.804003,699.042745L203.150824,702.083560L203.392823,702.172161L203.575961,702.207602L203.785616,702.196970L204.289962,702.122544L204.789200,702.122544L205.341127,702.214690L205.645733,702.285571L205.814188,702.321012L207.378890,702.498215L208.085312,702.600992L208.396516,702.647065L209.188402,702.710858L209.946111,702.810092L210.085710,702.813636L210.427090,702.788827L210.934884,702.682506L211.111086,702.682506L211.279115,702.703770L211.421353,702.746299L211.636923,702.834900L211.865091,702.951854L212.189531,703.047544L212.521505,703.100704L213.033980,703.150321L213.301858,703.171586L213.906306,703.203482L214.627840,703.320436L215.529959,703.387773L215.604951,703.391317L216.027750,703.437390L216.839471,703.525991L217.052700,703.536623L217.151612,703.554343L217.232392,703.603960L217.377185,703.731546L217.413064,703.752810L217.517764,703.816603L217.829948,703.944189L218.007214,703.979629L218.553994,704.046966L218.733771,704.068231L218.895928,704.089495L219.169041,704.089495L219.368098,704.068231L219.420746,704.061142L219.674749,704.011526L220.467145,703.798883L220.938974,703.717370L221.380840,703.713826L221.875057,703.742178L221.988652,703.759898L222.141999,703.781163L222.328927,703.844955L222.376553,703.866220L222.683077,704.000894L223.131074,704.103671L223.347369,704.167464L223.505356,704.245433L223.849761,704.419091L224.508071,702.430878L224.689590,701.874460L225.122730,700.602139L225.550432,698.854908L225.625639,698.620999L225.721403,698.387089L225.862878,698.110650L226.023548,697.837755L226.332672,697.423096L226.521858,697.121848L226.650864,696.870217L226.711814,696.650483L226.736417,696.540615L226.885053,695.817618L227.119965,694.984753L227.298305,694.566547L227.475709,694.166062L227.576838,693.964047L227.901808,693.294208L228.316000,692.269955L228.373845,692.142366L228.634551,691.532775L228.681287,691.426451L229.479685,689.356671L229.673105,688.853401L229.960387,688.052421L230.128742,687.545606L230.725273,686.039333L232.716951,681.010123L232.820357,680.687600L232.462514,680.701777L232.569951,680.513933L232.932607,680.464314L233.587474,680.464314L235.557522,680.450137L236.210815,680.446593L237.348649,680.443049L239.123519,680.432416L240.767602,680.418239L241.903862,680.411151L243.937154,680.400518L250.032518,680.365076L252.064236,680.350899L252.537032,680.350899L253.958144,680.343811L254.429365,680.340267L255.238298,680.336723L257.660586,680.322546L258.467944,680.315457L258.573663,680.315457L258.051333,681.651625L257.951049,681.881998L257.808115,682.208065L257.445722,682.952347L257.173315,683.416637L257.052477,683.647009L256.529990,685.075317L256.424560,685.280879L256.248352,685.525428L255.960166,685.855036L255.869507,686.014524L255.795444,686.237807L255.737852,686.471722L255.705076,686.602857L255.688259,686.776521L255.724128,687.042334L255.728167,687.177012L255.703264,687.325867L255.660742,687.474722L255.473931,687.953184L256.497798,688.016979L258.254165,688.123304L259.627751,688.048877L260.696351,687.988626L260.925967,687.811418L261.042542,687.683828L261.164054,687.573959L261.296375,687.481811L261.429335,687.410927L261.694231,687.332956L261.743941,687.325867L262.201080,687.244351L262.800966,687.173468L263.943918,687.095496L264.810441,687.102585L264.948463,687.102585L265.405091,687.052966L265.549199,687.060055L265.783533,687.138026L266.108351,687.148659L266.301744,687.134482L266.426232,687.123850L266.882435,687.060055L267.462528,687.063599L267.878681,687.035246L268.404639,686.996260L268.349729,687.368397L268.335598,687.435736L268.279287,687.712181L268.066774,688.410381L267.985354,688.584045L267.847840,688.796694L267.691132,689.005799L267.537658,689.175919L269.180219,690.235620L270.316704,690.969257L272.785552,692.553486L273.689589,693.418252L273.925249,693.637988L275.338498,694.981208L275.898040,694.984753L277.572154,694.991841L278.130122,694.991841L278.723542,694.998929L280.505164,695.016650L281.099946,695.020194L285.175747,695.059179L297.400001,695.169046L301.474228,695.204487L302.433370,695.215120L305.316458,695.239929L306.274026,695.247017L307.383745,698.748586L307.671063,699.659415L308.670232,703.777618L309.248815,707.530754L310.010647,709.713868L311.206606,713.144457L311.296633,713.208248L311.562202,713.396079L311.650654,713.456327L312.580683,713.863885L313.931988,714.023364L316.877630,714.367130L318.135266,715.557904L319.178495,717.719720L319.248961,717.865022L321.241499,718.641146L326.075001,721.348714L328.664895,722.794634L331.213973,723.230535L334.598653,725.222211L340.347540,727.313107L341.567213,727.876584L346.525875,730.151751L346.645279,730.215540L348.483194,731.119225L353.996984,733.830269L355.836291,734.730403L356.622716,735.145032L357.752032,735.584466L363.677288,737.866685L364.593945,738.217523L365.061576,738.965265L365.314718,739.032598L367.431829,739.553536L373.784545,741.112805L375.033145,741.417571L375.799539,741.800300L377.116077,739.411784L377.405874,739.138912L378.097919,738.476220L378.702999,737.657601L378.823209,736.587368L380.054597,735.261978L380.547505,734.230723L381.215485,733.355394L381.664559,732.185925L382.131916,731.473611L382.504231,731.016453L384.488887,729.496135L385.289521,730.959751L386.080752,731.484242L385.539663,733.298693L385.922985,734.074794L386.610286,734.464616L388.295516,734.641807L388.992960,734.446897L389.659329,734.485879L391.110200,736.084146L391.813612,736.279056L393.534374,736.417265L393.769622,736.668876L393.247346,738.327381L393.255894,738.656955L392.858495,739.592518L392.452887,739.968161L391.864278,740.506817L391.321092,744.904644L391.556188,744.957801L394.408516,745.124357L395.990190,745.854371L396.945411,746.747397L398.329597,747.356921L400.480058,748.296012L400.766605,749.026021L402.912261,750.819147L406.499267,752.445711L408.677622,754.153776L417.102646,757.736440L417.399544,758.034108L418.333799,758.959005L420.048745,759.770503L420.858434,762.290037L422.770010,762.375084L424.389005,761.967566L424.714383,762.091593L429.481735,763.895303L429.772799,764.001612L431.314670,764.001612L432.236256,763.597638L433.318566,763.119248L434.716381,763.402738L435.483162,763.555115L435.829378,763.640162L436.821915,764.260296L437.166158,764.472914L441.270318,764.852082L441.697312,764.841451L443.434222,764.784753L444.046950,764.749317L448.018926,763.927196L449.008861,763.597638L449.973940,763.271624L453.264740,763.175946L456.702539,763.661423L458.114003,763.526765L460.698254,762.991677L464.932582,762.633770L469.771749,762.222708L470.356051,761.978197L472.484276,757.336005L473.464368,755.195622L474.869266,752.828432L475.765427,750.294676L474.638873,749.228014L474.522386,748.490918L475.815263,745.145620L475.604152,745.060570L475.671733,744.869206L476.315613,743.015816L476.165716,742.771295L477.040298,740.730076L477.376340,740.482011L477.671884,741.265188L478.301863,743.143392L478.995637,745.138532L479.170669,745.677183L479.708601,747.328571L480.382636,749.252820L481.080247,751.130994L481.365692,751.726338L481.828806,752.417362L482.559623,753.459211L483.561773,755.018437L484.323530,756.255183L484.627483,756.878871L484.922705,757.793139L485.234924,759.022791L485.561226,760.376468L485.729546,761.078111L486.353920,762.910173L487.108922,764.355974L487.394152,764.798927L487.582854,765.110766L487.696513,765.273772L488.307661,766.145502L488.576862,766.400642L490.857097,768.548065L491.696860,769.260327L492.492847,769.933609L492.778807,770.160398L493.364868,770.691936L495.127140,772.275913L495.711632,772.803905L496.367371,773.452377L496.884427,773.888235L498.094596,774.898148L498.792931,775.642293L499.382602,776.386437L499.806886,777.339648L499.889666,777.644392L500.186800,778.760603L500.312120,779.398437L500.593610,777.853461L500.818058,776.602593L501.124965,775.550161L501.361661,774.841451L501.785890,773.735862L502.092043,773.137000L502.375896,772.672793L503.101657,771.630983L503.174756,771.524676L503.857333,770.702566L504.239468,770.234813L504.586689,769.682014L505.237795,768.360254L505.598295,767.665709L505.757714,767.357416L506.182177,766.641607L506.777432,765.557262L507.091704,764.983196L507.686692,763.937826L508.493444,762.279406L509.025030,761.177333L510.421281,758.197117L511.070881,756.680425L511.267814,756.014213L511.368525,755.514553L511.458791,755.057418L511.713686,753.406055L512.219885,750.464775L512.534859,748.327906L512.934709,746.084715L513.260545,745.166882L513.490934,744.681387L514.128816,743.547382L515.736889,741.293539L517.381179,739.167262L517.465820,739.053861L519.122058,736.789366L519.669205,735.953024L519.888449,735.534853L520.238772,734.744579L520.652444,733.720410L520.748095,733.486516L520.967963,732.944308L521.033257,732.774204L521.122819,732.533222L523.153084,727.412336L523.541650,726.430679L525.799533,720.824212L526.124033,719.955949L528.656373,713.520119L529.239985,712.045820L531.263212,706.921181L533.748529,706.949534L541.195672,707.034590L543.679413,707.059398L545.130794,707.080663L545.412718,707.080663L547.143086,707.101927L549.478848,707.137367L550.925716,707.155087L551.425172,707.162175L554.166698,707.165719L557.004206,707.186983L557.303535,707.179895L561.351183,707.208248L562.015310,707.222424L565.216905,707.289760L567.709889,707.328744L570.657914,707.314568L576.380999,707.392537L582.732756,707.477594L582.972637,707.495314L583.683472,707.548474L583.920417,707.566194L584.494371,707.608722L585.319672,707.707955L585.903796,707.746939L586.189305,707.768203L588.268086,707.899332L589.725062,707.959581L592.311895,708.090709L593.087555,708.150958L594.117780,708.228926L595.383654,708.282086L596.550329,708.356511L597.219187,708.381319L599.091602,708.438023L600.117315,708.512448L601.855353,708.544344L602.319138,708.537256L602.685427,708.462831L602.808833,708.416759L603.111938,708.292718L603.829009,707.924140L604.080550,707.842628L604.449559,707.761115L604.814143,707.775291L605.950587,707.821364L607.028080,707.860348L608.833445,707.885156L609.382610,707.885156L610.535161,707.881612L610.655567,707.881612L615.227315,707.906420L615.741239,707.906420L617.889921,707.970213L623.853887,708.002109L626.066745,708.051725L629.255735,708.090709L631.088892,708.111973L633.360917,708.175766L633.906867,708.214750L634.053833,707.785924L634.157084,707.608722L634.443681,707.328744L634.764591,707.066487L634.832630,707.034590L634.935199,707.027502L635.374219,707.123191L635.531504,707.080663L635.670304,707.009782L635.761313,706.864477L635.899129,706.520706L636.061185,705.960749L636.162275,705.712666L636.271184,705.528376L636.666107,704.996770L636.758973,704.816024L636.821176,704.592749L636.895910,703.961909L636.971500,703.696105L637.190250,703.309804L637.534262,702.841988L637.671027,702.608081L637.796264,701.562582L637.764863,701.399555L637.327783,700.885665L637.124519,700.527714L637.006075,700.254820L637.007196,700.098881L637.148302,699.670047L637.257432,699.492843L637.569450,699.131347L638.267857,698.535941L638.581388,698.224061L638.629584,698.167355L639.007484,697.703079L639.855834,696.342146L640.140130,695.938118L640.520949,695.328531L640.749731,694.885517L640.907687,694.527562L641.076613,694.240488L641.890511,693.290664L643.340071,691.082670L644.174103,690.118663L644.308872,689.867028L644.330917,689.144021L644.369490,688.867577L644.501787,688.293424L644.869052,687.382574L645.070852,687.017525L645.294436,686.741080L645.668852,686.354765L645.961259,685.975538L646.264170,685.362395L646.695470,684.384201L646.998615,683.923456L647.221555,683.625744L647.762783,683.172087L648.252581,682.668811L648.571919,682.257684L648.804089,681.828835L649.495556,680.134702L650.007376,679.099790L650.125670,678.692204L650.243806,678.086140L650.540851,677.327674L651.239110,676.097823L651.396514,675.672513L651.693472,674.524175L651.891285,672.915080L651.896637,672.511033L651.801361,672.177872L651.703561,671.422941L651.735770,670.887754L652.045319,668.459915L652.061065,668.059409L651.996369,667.233586L651.935463,665.854848L651.755532,664.908514L651.515585,664.064964L651.351993,663.076095L651.345260,663.047740L651.187048,661.509495L651.174087,661.130250L651.214413,660.910500L651.299002,660.697839L651.464741,660.449734L651.869350,659.701874L652.182996,659.198575L652.402960,658.656286L652.571078,657.759560L652.583191,657.383856L652.447490,656.490672L652.456952,656.221299L652.488971,656.114968L652.561457,655.987370L652.818018,655.732174L654.432505,654.693666L654.897284,654.186817L655.271393,653.594902L655.650235,652.868299L655.822792,652.457147L655.953307,652.063717L655.956102,652.010551L655.888850,651.971562L655.797463,651.911307L655.889219,651.741175L655.943157,651.631298L655.903916,651.450533L655.954000,651.067735L656.250132,650.227706L656.832859,648.863099L657.296762,647.647356L658.235603,645.385994L658.493278,644.730267L659.075329,643.245133L659.287891,642.553960L659.696874,641.511881L660.415931,639.555318L662.939102,633.160992L663.766659,631.197308L665.749252,626.004496L666.558708,623.828106L666.890034,622.934862L668.125379,619.932559L668.392437,619.244897L668.854001,617.897929L669.047602,617.111015L669.086180,616.880611L669.470202,615.834934L670.768984,612.644719L670.989146,612.300883L671.270120,611.928690L671.487297,611.485602L672.250584,609.429670L672.269433,609.372955L672.932795,607.753016L673.846319,605.321326L678.689759,592.606156L678.652994,592.457273L678.975617,591.808567L680.882276,586.945019L683.821116,579.433367L684.043549,578.869723L684.709068,577.168151L684.926995,576.600959L685.189912,576.948364L685.236503,577.033443L685.422441,577.359578L685.488170,577.593544L685.520165,578.809459L685.537908,579.451092L688.740887,579.482996L696.143822,579.550350L698.342591,579.582254L701.538548,579.624793L701.985077,579.631883L703.323088,579.649608L703.768042,579.653153L704.740379,579.667332L707.529555,579.706326L707.651730,579.716961L708.181112,579.745321L708.602064,579.780770L709.238003,579.837489L710.323918,579.869393L710.447242,579.869393L715.572983,579.933202L717.322075,579.950927L718.783677,576.352812L723.162698,565.551224L724.077325,563.293034L724.975306,562.048722L726.150865,562.428042L727.801525,562.984615L729.326019,563.495102L732.571444,564.555069L734.485476,565.228626L736.228149,565.866731L736.385468,565.923451L738.409548,566.692722L739.002529,566.884153L740.501593,567.476171L742.706197,568.341154L744.958975,569.294761L746.048814,569.752066L746.428392,569.925771L747.035674,570.202281L748.854377,571.024720L749.195148,571.177154L749.455789,571.301229L752.274817,572.630598L752.518992,572.744037L756.914507,574.846205L760.860472,576.398897L761.274871,576.558420L763.813908,577.508466L764.853314,577.898409L767.971543,579.068239L769.012317,579.454636L771.888594,580.535839L776.060960,582.095603L780.538350,583.740439L783.427145,584.796819L784.036469,585.091045L785.225364,585.519976L787.116353,586.154511L789.202717,586.792589L792.518115,587.778065L792.766900,587.848962L796.520435,589.001044L799.596442,589.982970L801.882267,590.759293L806.156300,592.276486L811.145419,594.087896L814.321590,595.176157L819.601816,597.047818L822.745005,598.160885L826.517857,599.461824L828.589915,600.206230L829.327631,600.472088L831.418891,601.220037L831.534694,601.262574L832.273559,601.517798L835.521580,602.648579L836.233808,602.896713L838.363400,603.697829L841.379196,604.722263L844.268954,605.753784L845.231995,606.090535L847.950245,607.033435L848.477137,607.221306L851.899477,608.433604L853.594825,609.050385L855.178667,609.621085L857.870742,610.571068L859.481665,611.163034L860.314523,611.418253L861.519159,611.684106L862.807447,611.900332L864.243558,612.052755L866.724097,612.368233L869.877789,612.804230L872.462181,613.155155L875.562381,613.569884L879.020970,614.037782L880.577627,614.243374L889.385665,615.462744L890.501721,615.615164L892.845418,615.920006L894.428510,616.125597L895.410209,616.253205L898.729452,616.724646L899.151081,616.781361L900.732602,616.983407L902.118098,617.160640L904.588864,617.539919L905.540987,617.660437L905.922652,617.706518L907.243766,617.890840L911.676110,618.851441L919.470539,620.676933L919.597668,620.705290L920.986626,620.995950L921.439348,621.109379L922.769231,621.485110L923.984743,621.914010L924.559088,622.116054L925.310482,622.346455L926.524273,622.718640L928.985887,623.519725L929.298593,623.615429L930.638159,624.019515L931.868497,624.356254L935.559306,625.359378L936.404674,625.589777L936.788074,625.692571L937.170829,625.292030L937.609507,624.799330L938.215609,624.115220L939.426109,622.835613L945.603247,616.671476L951.981708,610.220142L954.194560,607.958610L955.989560,606.150796L956.230949,605.590726L958.903042,598.674881L959.360428,597.490918L961.091482,592.942916L964.821272,583.272512L966.448221,579.011520L967.527351,576.246464L968.147223,574.654777L970.422518,568.766555L970.961706,567.369821L971.291083,566.511926L972.432823,563.530552L973.847392,559.907504L973.912728,559.737341L974.770989,557.479125L974.904387,557.131706L975.301431,556.082359L975.433255,555.731394L974.070932,555.685308L969.986685,555.539958L968.625723,555.490327L970.872865,553.232092L977.612578,546.446691L979.858196,544.184869L979.954641,543.926071L980.243977,543.149675L980.338847,542.887331L980.725781,541.841498L980.800445,541.639422L981.651979,539.444938L981.943756,538.700442L982.349685,537.651055L983.790397,533.761924L985.722451,528.731179L986.642900,526.334556L988.208209,522.335430L989.640389,518.545449L994.843220,505.023241L995.152378,504.218420L996.045004,501.963497L996.698452,500.300662L999.526081,493.039433L999.620277,492.801881L999.708813,492.571420L999.905803,492.089225L1000.000000,491.851673Z "/></g><g fill="#000" font-family="Arial" font-size="12px" id="mylayer-label" stroke="none"><text text-anchor="middle" y="523.761758572"><tspan dy="0" x="471.06044725"><![CDATA[N]]></tspan></text></g></svg>