<?xml version="1.0" encoding="utf-8"?><!DOCTYPE svg  PUBLIC '-//W3C//DTD SVG 1.1//EN'  'http://www.w3.org/Graphics/SVG/1.1/DTD/svg11.dtd'><svg enable_background="new 0 0 1000 1001" height="1001px" pretty_print="False" style="stroke-linejoin: round; stroke:#000; fill: none;" version="1.1" viewBox="0 0 1000 1001" width="1000px" xmlns="http://www.w3.org/2000/svg" xmlns:xlink="http://www.w3.org/1999/xlink"><defs><style type="text/css"><![CDATA[path { fill-rule: evenodd; }]]></style></defs><metadata><views><view h="1001" padding="0" w="1000"><proj flip="auto" id="robinson" lon0="-91.7175120077"/><bbox h="0.38" w="0.52" x="-1249.6" y="-679.06"/></view></views></metadata><g class="" id="mylayer"><path d="M343.377874,343.968423L334.261479,344.000491L273.795372,344.096693L258.698856,383.508194L187.634772,384.117490L144.383575,495.396962L142.849834,499.117062L87.327596,486.160880L33.913012,613.801735L10.812016,613.288592L0.000000,638.785546L23.251549,638.913833L8.959770,676.149524L71.633214,677.368273L75.431972,677.304129L62.475516,707.548570L57.988462,713.289607L58.509559,716.817625L34.248272,773.491188L93.218962,774.260957L269.297860,776.474046L262.679437,792.735504L309.271540,794.050538L335.835667,794.820314L329.845551,809.542340L320.619510,832.411384L312.415459,853.003343L307.461343,865.480494L461.408287,868.014422L485.669497,807.200922L509.842698,807.200922L484.375745,868.399323L494.605276,868.559698L543.639822,869.906851L571.194202,802.486019L580.172088,802.742612L602.349494,748.954921L631.218631,679.196399L594.366477,679.228471L612.201288,634.808644L622.505488,609.119306L625.627356,601.807038L626.936278,598.728196L628.532157,598.696124L650.601997,598.471626L656.992303,579.421382L664.046723,580.479725L666.887374,612.101948L667.745762,621.114042L668.805524,635.418007L669.597201,635.418007L701.101329,635.834940L712.345782,635.963227L725.818851,607.836450L733.429981,591.063179L828.703376,607.515736L863.490380,613.577235L878.268401,616.142954L881.710201,616.046739L872.569408,637.951679L879.524957,638.047894L877.443151,643.307677L871.665414,656.809980L870.960933,658.477729L909.726235,659.087099L923.835966,659.311604L931.675467,639.587341L944.179379,640.004275L981.266248,641.126790L995.964448,641.736155L1000.000000,632.691908L893.002168,617.201313L888.007318,616.207097L888.344398,615.277023L898.397665,588.337133L943.791003,467.945382L967.864595,407.848103L757.259480,405.891921L732.700623,405.667442L717.815028,405.539167L714.148401,399.798908L714.875466,399.221676L716.261079,397.297570L718.007683,394.315210L722.196827,383.668535L725.435712,375.587358L731.548641,360.290922L738.860765,342.332973L742.730710,332.840971L797.881496,332.840971L812.463440,295.482633L816.991593,283.970617L762.657954,283.906483L556.036882,280.411203L543.379915,280.860137L554.457999,252.737750L561.697285,234.363790L563.892152,228.752225L579.209440,228.720159L632.495720,228.559829L657.495612,165.454740L615.201632,165.037893L588.741288,164.685176L590.156069,160.933558L503.425624,159.843345L441.136247,159.073784L444.665485,150.929273L449.206531,141.277744L453.545601,130.119217L431.597179,129.093149L417.798796,163.081920L393.718074,162.312357L377.972412,201.752779L369.698019,201.656582L349.907487,201.656582L337.014004,201.496254L330.943608,201.432122L315.353777,242.027605L313.323088,247.286472L308.097866,260.914691L330.674914,261.684287L338.728351,261.940819L345.893281,242.476532L384.139257,242.989592L378.901615,256.649852L377.191919,260.818492L394.511323,261.267423L386.592432,281.918341L368.823070,281.405273L368.031610,283.361347L343.377874,343.968423Z M343.377874,343.968423L362.459787,343.487408L347.825981,380.974806L328.563416,380.365511L343.377874,343.968423Z M464.246956,787.058413L471.636023,769.161239L503.402102,769.449902L492.615681,797.257941L469.108172,796.905127L469.327012,794.724092L469.093746,790.458251L466.924974,788.309296L464.246956,787.058413Z M358.068576,750.013343L360.580832,748.986995L361.171241,747.543693L384.827626,747.447473L423.708919,747.896500L419.405314,758.031705L418.588006,759.988190L402.798267,797.290016L388.842588,796.873053L368.502490,795.910831L364.077546,795.686313L342.621844,795.012758L350.035625,777.660775L351.752287,777.724923L353.150025,773.202524L353.870066,765.889728L357.222196,765.280329L357.462781,760.950396L358.068576,750.013343Z "/></g><g fill="#000" font-family="Arial" font-size="12px" id="mylayer-label" stroke="none"><text text-anchor="middle" y="517.734129075"><tspan dy="0" x="464.576435636"><![CDATA[N]]></tspan></text></g></svg>