<?xml version="1.0" encoding="utf-8"?><!DOCTYPE svg  PUBLIC '-//W3C//DTD SVG 1.1//EN'  'http://www.w3.org/Graphics/SVG/1.1/DTD/svg11.dtd'><svg enable_background="new 0 0 1000 1001" height="1001px" pretty_print="False" style="stroke-linejoin: round; stroke:#000; fill: none;" version="1.1" viewBox="0 0 1000 1001" width="1000px" xmlns="http://www.w3.org/2000/svg" xmlns:xlink="http://www.w3.org/1999/xlink"><defs><style type="text/css"><![CDATA[path { fill-rule: evenodd; }]]></style></defs><metadata><views><view h="1001" padding="0" w="1000"><proj flip="auto" id="robinson" lon0="-89.8002066012"/><bbox h="0.21" w="0.27" x="-1213.73" y="-703.22"/></view></views></metadata><g class="" id="mylayer"><path d="M1000.000000,132.435760L834.003597,128.204849L653.824467,125.046565L551.412132,123.199268L538.139260,117.836148L469.925402,119.147132L257.646343,123.139677L236.884369,172.420959L194.211349,273.427687L176.586480,316.512365L123.738670,445.708213L119.436557,456.196530L116.896606,462.870920L107.029668,488.734237L62.253277,609.112999L0.000000,776.216069L0.000000,776.216069L127.529739,777.348377L160.604651,777.586757L186.857168,777.825138L142.449716,880.091125L214.657766,880.865872L221.160291,881.163852L266.529604,778.599875L369.641692,780.685707L566.521139,784.618991L722.758970,787.717944L844.421640,493.918829L859.208054,457.984313L1000.000000,132.435760Z " data-aland="1543018" data-awater="0" data-classfp="C1" data-funcstat="A" data-geoid="1715469" data-intptlat="+41.9026356" data-intptlon="-089.8002375" data-lsad="47" data-mtfcc="G4110" data-name="Coleta" data-namelsad="Coleta village" data-pcicbsa="N" data-pcinecta="N" data-placefp="15469" data-placens="02398597" data-statefp="17"/></g><g fill="#000" font-family="Arial" font-size="12px" id="mylayer-label" stroke="none"><text text-anchor="middle" y="451.654238742"><tspan dy="0" x="489.098272708"><![CDATA[Coleta]]></tspan></text></g></svg>