<?xml version="1.0" encoding="utf-8"?><!DOCTYPE svg  PUBLIC '-//W3C//DTD SVG 1.1//EN'  'http://www.w3.org/Graphics/SVG/1.1/DTD/svg11.dtd'><svg enable_background="new 0 0 1000 1001" height="1001px" pretty_print="False" style="stroke-linejoin: round; stroke:#000; fill: none;" version="1.1" viewBox="0 0 1000 1001" width="1000px" xmlns="http://www.w3.org/2000/svg" xmlns:xlink="http://www.w3.org/1999/xlink"><defs><style type="text/css"><![CDATA[path { fill-rule: evenodd; }]]></style></defs><metadata><views><view h="1001" padding="0" w="1000"><proj flip="auto" id="robinson" lon0="-87.7286601992"/><bbox h="0.84" w="0.78" x="-1188.13" y="-697.97"/></view></views></metadata><g class="" id="mylayer"><path d="M374.978505,999.000000L397.597561,998.649706L429.763635,998.708088L430.161562,997.618284L430.658590,996.236569L437.119089,979.870124L441.507848,979.986888L469.213517,980.395561L471.914493,973.389747L475.674863,963.659490L477.916514,957.899198L482.046498,947.273836L484.616269,940.560036L486.112052,936.648528L486.817313,934.780347L488.104922,931.355354L490.233813,925.595150L492.007733,921.060947L493.351436,917.616516L494.589112,914.522370L498.301415,905.201041L499.530673,902.087454L501.935426,895.996513L509.140635,877.665414L511.537046,871.555082L512.819397,868.266408L516.689547,858.342038L517.963485,855.033925L520.544395,848.456633L528.278100,828.666502L530.850685,822.069832L531.633689,820.046079L533.795269,814.286178L540.279387,796.967649L540.554506,796.189291L542.529372,791.188351L543.059592,789.845688L544.650258,785.817705L545.180483,784.475045L546.738912,780.447072L547.936937,777.372585L556.173495,756.026430L558.921645,748.904606L564.289668,735.108573L572.712186,717.498815L574.152978,714.463336L572.401607,713.957423L575.817840,705.103968L580.284789,693.468055L584.970048,681.443048L586.114478,678.504909L587.650138,674.535510L588.587062,672.122741L589.538608,669.632144L589.692327,669.242988L590.153484,668.075522L590.291077,667.686367L590.475540,667.219381L591.035863,665.760050L591.211887,665.273606L591.764525,663.833734L593.430135,659.494666L593.974340,658.035340L596.500816,651.517030L602.565444,635.756422L604.120353,631.942761L606.751382,625.405073L607.712197,622.972903L609.237312,618.867405L610.439600,615.579122L616.613903,599.215608L616.943686,598.340037L618.495687,594.370786L619.139887,592.658563L620.851828,588.202897L624.128193,579.583448L625.511671,574.816498L626.780608,570.380327L632.246944,570.380327L648.621389,570.360870L649.886817,570.341413L654.079288,570.341413L657.803787,559.037000L658.551135,556.818929L661.721311,547.285143L634.515248,546.681986L635.405507,544.347189L636.787028,540.728257L663.815861,540.922823L665.332181,536.350526L665.781249,534.969110L650.220889,534.969110L638.973518,534.949654L639.150335,534.502153L639.680788,533.159652L639.841481,532.712152L641.032335,529.657478L644.564247,520.474029L645.746688,517.399917L648.207044,510.765297L649.341133,507.691199L653.057698,498.040895L655.949973,490.803195L658.587070,484.129746L658.786968,483.623887L659.386663,482.106313L659.586561,481.600456L670.317032,481.581000L681.909789,481.542087L685.956957,469.790656L675.030572,470.101951L664.200184,470.374335L667.678424,461.735904L677.793490,436.793604L680.056987,429.964678L709.669775,429.575566L716.063414,429.595022L724.498413,430.120323L749.803429,431.696227L758.246129,432.202073L766.328026,431.132014L790.581383,427.902386L798.654829,426.812873L805.158128,427.085251L824.635785,427.902386L831.130653,428.155308L832.591018,428.213675L836.923743,428.388775L838.367984,428.447142L845.536006,427.649463L867.031617,425.236973L874.191192,424.419840L879.724029,411.112287L896.307117,371.190122L901.831986,357.863444L901.051094,357.921809L900.462944,357.941264L896.408149,357.960719L895.053739,357.960719L889.039514,357.960719L870.980714,357.960719L864.950365,357.960719L866.251329,354.750656L867.236295,352.299337L870.009148,345.120494L871.253333,341.890994L871.730820,340.723707L873.154108,337.163483L873.623164,335.976744L874.069153,334.848369L876.582878,328.447770L885.413135,305.822098L888.348445,298.273776L889.232790,296.036521L891.837477,289.324768L892.705712,287.087522L884.354426,287.126431L859.252196,287.243156L850.892476,287.262611L848.305008,287.282065L840.574109,287.301519L837.978208,287.301519L835.406863,287.320974L827.692830,287.379337L825.113052,287.379337L835.293472,265.746256L832.495671,265.726802L809.603524,265.473899L803.197024,265.610077L831.259578,192.755667L832.678418,192.755667L838.409101,192.697306L839.674401,192.677853L841.940078,192.697306L852.509934,192.755667L856.040911,192.755667L861.379459,192.424958L877.377492,191.355019L882.715295,190.985403L886.552163,190.537974L897.667373,189.176234L897.668404,188.806620L897.688925,184.799219L905.917323,164.314906L930.579641,102.843681L937.052960,86.678595L937.884531,84.616631L938.800727,82.340692L940.804992,74.092865L941.529127,71.038843L946.785117,49.310669L948.781159,41.043516L963.740457,4.648966L952.083919,2.081335L946.844164,2.081335L931.116470,2.061883L925.868286,2.042431L922.178854,2.606532L911.109816,4.259931L907.419646,4.785128L895.216505,4.862935L889.582115,4.882387L858.612573,4.960194L846.416392,4.979646L839.661866,5.018549L819.421370,5.076905L812.658416,5.096356L810.675369,5.096356L804.025271,5.115808L778.069040,5.154712L769.427467,5.154712L768.943797,5.154712L767.444419,5.154712L766.944627,5.154712L761.213502,5.174163L760.238466,5.193615L740.071617,5.310326L733.357029,5.329778L725.619770,5.407585L714.367841,5.485392L706.902467,5.446488L702.545046,5.213067L694.984050,4.804580L690.440859,4.551707L684.291667,4.201575L679.999122,3.559668L677.182869,2.976115L675.726010,2.664887L672.980481,1.984076L671.158312,1.536686L666.099640,0.019452L642.109636,0.019452L617.007192,0.019452L610.655000,0.019452L606.366464,0.019452L603.270980,0.019452L600.715228,0.000000L594.466452,4.221027L585.169323,10.523406L568.413465,21.863843L563.071981,25.462450L560.294057,27.349290L553.383880,31.978862L545.289756,37.522691L535.871011,43.358316L527.662954,48.415870L524.662973,50.497251L515.662299,56.702503L512.653892,58.764440L510.417557,60.301169L506.869759,62.829964L501.229269,66.817686L499.439248,68.082087L490.571602,74.073413L489.480736,74.793151L486.191283,76.913463L484.766962,77.905536L483.644583,78.664180L482.363171,79.539540L482.354673,82.087810L482.877518,83.741269L483.039773,86.795310L483.071267,87.612315L483.551137,95.976908L483.757020,100.061954L482.331986,100.159217L478.040762,100.451007L476.607300,100.528817L474.521965,100.664986L468.249104,101.034585L466.163036,101.131849L461.205265,102.415722L451.649916,104.847304L450.131368,110.683110L448.702256,116.129877L451.896764,121.382129L454.018027,124.864185L471.256652,120.331677L478.644207,118.366945L479.680832,118.191870L482.791440,117.705551L483.811942,117.530476L483.546668,120.565111L483.369694,121.868449L482.963353,124.689109L482.672429,126.362054L481.756421,130.797309L480.559378,135.290933L480.122627,136.924980L479.194159,139.842924L478.768400,141.204633L477.360679,145.211952L476.885822,146.534758L474.899566,151.923256L474.730289,152.351224L468.731316,168.088830L466.672218,173.457928L459.870475,173.574648L439.392324,173.905354L432.582151,174.002620L427.313536,173.341208L422.642946,172.757610L417.003030,187.016906L414.955647,192.152610L410.609347,192.094250L405.698737,192.035889L405.086877,193.786700L392.568324,193.845060L387.127115,193.864514L381.235191,193.922874L363.598626,194.039595L357.705967,194.059049L355.109018,202.540776L352.003225,212.676094L346.425024,226.780024L329.538363,212.403743L326.949012,210.186031L324.695704,208.260124L321.803314,205.789519L319.705760,203.999792L311.589598,214.777088L307.476575,220.243570L307.982317,221.410793L309.668134,225.301539L311.371561,229.270106L311.675013,229.970443L312.163174,231.059855L299.389735,247.498377L301.490930,247.770732L310.983280,248.393259L315.981544,248.393259L320.494570,247.459469L324.974210,246.039332L329.541024,244.113393L319.724757,265.999160L313.342309,280.181255L312.752870,281.834866L311.007642,286.737345L310.409780,288.371507L313.360402,288.371507L322.171588,288.352052L325.113779,288.332598L336.384186,288.332598L338.987781,288.313144L351.310965,288.138055L359.569206,288.293689L370.209316,288.215872L380.728129,288.118600L381.502062,288.118600L379.240373,293.838176L376.400277,300.939031L372.407202,301.658845L359.571281,301.581027L355.133331,312.845175L352.884441,312.864629L342.212012,312.942447L345.829371,300.491579L334.383780,300.608306L328.314410,312.572811L325.606829,316.035721L323.701630,318.448089L323.903975,318.914999L335.222419,318.467543L335.948110,319.323545L333.703172,326.346666L332.043937,331.521611L323.253506,331.365974L320.877875,336.599295L317.689388,343.603018L315.756003,343.680837L311.747375,343.583563L310.850653,343.486289L307.901766,343.155557L302.554726,342.202271L297.301477,341.093348L292.158145,339.828787L291.882562,339.750968L289.993423,339.186779L285.905101,337.863855L284.015226,337.260757L278.097105,335.101280L277.471538,334.848369L272.727204,332.941805L269.431495,331.327064L266.365528,329.498323L263.985935,327.727947L262.104708,325.879754L260.541535,323.798107L259.666632,322.300100L258.653467,319.887729L258.138036,318.214634L257.644848,315.588266L257.471930,312.845175L257.627711,310.004814L257.973392,307.825910L258.055806,307.495184L258.865300,304.265741L260.489738,300.647215L261.611168,298.137595L265.841003,290.336393L266.864317,288.604958L265.291896,288.585504L259.994184,288.527141L244.695208,311.638994L224.047977,341.793720L204.551660,370.548105L200.987136,375.158959L193.872624,383.446848L189.198224,388.621931L184.161411,393.816482L179.901675,397.902093L174.338256,402.960478L168.561531,407.824322L162.102863,412.863276L157.383531,416.520902L152.672186,419.750514L148.570892,422.415919L139.278520,428.096941L127.294294,434.672938L111.065707,443.175069L88.776043,454.731797L85.403422,456.288263L75.252568,460.918757L71.879204,462.436316L52.988615,472.981436L36.259543,482.300874L66.013397,470.666174L70.978633,468.915138L73.415470,468.175812L84.539882,464.712657L98.751734,461.230051L106.381925,459.712493L114.330612,458.408950L118.321308,457.980921L121.189225,457.864186L124.576826,457.942010L127.088984,458.194936L130.932235,458.914803L134.579492,459.926507L138.631807,461.463522L143.982700,463.876053L149.064681,466.560969L152.302832,468.526019L156.602158,471.600061L160.190540,474.596283L163.509273,477.825982L165.247886,479.791042L166.154031,480.802757L167.855680,482.942925L169.010855,484.752341L169.982458,486.659039L170.968175,489.305072L171.743011,492.729354L171.998421,495.550501L171.869560,498.935881L171.820925,499.344462L171.226951,502.438004L173.546661,502.321266L177.299972,502.126704L180.577980,501.951598L243.584405,500.667485L264.416857,500.219992L263.638652,502.107248L262.891211,503.916680L262.173788,505.609376L261.551627,507.224248L260.676684,509.111510L260.454167,510.123239L259.946618,511.407356L259.477520,512.594193L259.046130,513.644836L258.652446,514.559285L257.812240,516.154708L249.548700,533.023456L263.122732,532.867804L327.091435,532.128456L325.977214,534.988567L325.723463,535.630633L323.009867,542.537722L321.940308,545.203281L321.625048,546.001003L321.179071,547.129489L320.679271,548.394173L320.364012,549.191897L318.610129,553.589111L317.994996,555.145649L291.618755,554.931625L289.535487,560.651912L285.668145,571.294800L282.612852,571.314257L282.241979,571.314257L279.517620,571.353171L274.574968,571.333714L282.806449,550.300928L281.034214,550.378754L270.029645,549.989621L261.624442,571.216972L258.778772,571.236429L250.216456,571.236429L247.362351,571.236429L244.710180,571.255886L236.736795,571.275343L236.333673,571.275343L234.052374,571.294800L228.454606,589.662175L221.909583,589.331405L215.848310,589.000636L186.080779,661.148570L183.260904,667.958776L167.248857,667.141550L156.039513,667.024803L122.379234,666.674564L116.798377,666.596733L113.919634,666.577275L111.161456,666.538360L109.719001,670.352082L107.716047,675.625148L105.414761,681.734916L103.963909,685.529208L99.981942,696.055970L88.019617,727.597653L84.029513,738.105165L75.206176,761.377542L66.850614,783.385351L66.673812,783.832904L66.543132,784.163704L48.777565,831.137826L40.385372,853.282573L39.971076,854.372303L42.833093,854.352843L45.646732,854.333384L49.637580,854.313924L52.798308,854.313924L91.208567,854.197168L92.022561,854.177708L94.909899,854.216627L104.011986,854.158249L153.211399,854.080411L206.845505,854.002573L207.071271,854.002573L213.295970,854.002573L223.898544,853.983114L231.930885,854.060951L238.124087,854.099870L244.776508,854.119330L264.669264,854.177708L271.305559,854.197168L276.450561,854.236087L291.908624,854.294465L297.045185,854.313924L301.883791,854.352843L316.422664,854.411222L321.252828,854.430681L326.824797,854.450141L343.508450,854.508519L349.071976,854.508519L353.168780,854.547438L365.482243,854.605816L369.562163,854.605816L373.634398,854.625276L385.834221,854.644735L389.898015,854.644735L395.493794,854.644735L395.703434,854.644735L413.087440,854.644735L415.981708,854.625276L418.892102,854.605816L421.875442,854.605816L427.454337,854.566898L428.236835,854.586357L390.963057,950.134505L389.197347,955.914236L387.712110,960.779342L376.120907,995.574903L375.351877,997.890735L374.978505,999.000000Z M394.636849,308.195545L396.115343,302.417568L405.082324,302.534295L403.750175,306.678095L397.712608,309.265543L393.796284,311.055358L394.636849,308.195545Z M374.828477,315.393721L379.828643,302.748294L384.617376,302.748294L379.617227,315.393721L374.828477,315.393721Z M356.021821,331.190881L356.377147,330.373784L360.382072,320.938277L368.218220,320.938277L372.652254,320.938277L370.090696,327.416672L356.021821,331.190881Z M213.578698,453.467169L216.233906,451.074105L229.618389,438.875360L233.092883,434.206002L235.560638,430.859636L238.347918,427.357629L240.013819,425.509351L244.269254,420.781656L248.152818,416.423625L241.975499,432.416085L234.091650,452.766760L219.234639,453.272610L213.578698,453.467169Z "/></g><g fill="#000" font-family="Arial" font-size="12px" id="mylayer-label" stroke="none"><text text-anchor="middle" y="435.492725518"><tspan dy="0" x="500.890319837"><![CDATA[N]]></tspan></text></g></svg>