<?xml version="1.0" encoding="utf-8"?><!DOCTYPE svg  PUBLIC '-//W3C//DTD SVG 1.1//EN'  'http://www.w3.org/Graphics/SVG/1.1/DTD/svg11.dtd'><svg enable_background="new 0 0 1000 1001" height="1001px" pretty_print="False" style="stroke-linejoin: round; stroke:#000; fill: none;" version="1.1" viewBox="0 0 1000 1001" width="1000px" xmlns="http://www.w3.org/2000/svg" xmlns:xlink="http://www.w3.org/1999/xlink"><defs><style type="text/css"><![CDATA[path { fill-rule: evenodd; }]]></style></defs><metadata><views><view h="1001" padding="0" w="1000"><proj flip="auto" id="robinson" lon0="-88.0625758078"/><bbox h="0.28" w="0.35" x="-1213.11" y="-640.98"/></view></views></metadata><g class="" id="mylayer"><path d="M1000.000000,462.998570L811.710304,458.204925L636.869261,453.704772L671.030845,349.028091L709.639601,231.537678L720.498992,208.206132L567.939649,200.184402L589.051733,133.125048L572.622528,132.146798L576.869582,116.103518L570.937699,115.956781L541.452779,116.250256L547.796808,103.679784L539.488429,104.609117L537.804668,108.375366L531.762976,121.826270L502.782063,122.511044L487.631279,120.065423L483.763114,128.869662L469.724062,160.956315L454.855134,194.950717L417.542449,194.363762L366.147960,193.483329L359.214814,210.700696L349.415903,242.543151L342.093371,267.391125L307.897912,358.761979L298.131130,359.789174L176.071736,357.490214L129.744192,357.930440L102.018788,436.829222L88.342942,478.944799L87.916166,480.950308L37.112402,482.466670L11.257898,480.167670L0.000000,525.267327L23.966152,525.854309L45.572059,526.392376L68.603839,526.930444L6.481411,706.696033L120.920561,710.609348L143.747497,709.973434L96.823856,745.095525L79.529931,757.129038L85.405357,772.635668L84.530567,776.353351L82.910606,783.397387L79.794911,796.751724L39.136319,820.134103L45.320012,836.863801L190.034458,767.303732L259.623007,739.567942L280.926386,730.616202L308.928622,715.549911L322.179407,715.843410L313.322892,738.638526L344.204925,740.350608L332.187884,772.929170L336.510637,773.271588L328.428127,788.827170L326.523620,792.544861L316.490014,792.104608L286.050790,791.566521L281.423797,791.664355L273.637530,818.764422L272.438971,824.536651L268.953095,840.923939L310.358659,841.119608L301.225963,866.067491L286.704054,867.339346L280.771662,883.579978L277.173764,893.608097L310.512093,895.320216L312.900414,888.227153L315.038565,881.770026L326.092750,845.277583L333.276136,824.781238L340.556836,803.991448L345.249301,790.539264L358.945411,751.454696L368.319941,723.865717L370.521407,717.457654L546.688534,721.077475L575.330446,635.669744L756.306722,638.996029L774.704865,585.237592L804.763602,585.726748L818.728811,547.866177L889.676998,549.627130L902.990589,549.969537L949.814105,551.143506L969.772793,551.632659L982.963649,513.478778L992.974068,484.570010L1000.000000,462.998570Z "/></g><g fill="#000" font-family="Arial" font-size="12px" id="mylayer-label" stroke="none"><text text-anchor="middle" y="489.051922202"><tspan dy="0" x="428.768306371"><![CDATA[N]]></tspan></text></g></svg>