<?xml version="1.0" encoding="utf-8"?><!DOCTYPE svg  PUBLIC '-//W3C//DTD SVG 1.1//EN'  'http://www.w3.org/Graphics/SVG/1.1/DTD/svg11.dtd'><svg enable_background="new 0 0 1000 1001" height="1001px" pretty_print="False" style="stroke-linejoin: round; stroke:#000; fill: none;" version="1.1" viewBox="0 0 1000 1001" width="1000px" xmlns="http://www.w3.org/2000/svg" xmlns:xlink="http://www.w3.org/1999/xlink"><defs><style type="text/css"><![CDATA[path { fill-rule: evenodd; }]]></style></defs><metadata><views><view h="1001" padding="0" w="1000"><proj flip="auto" id="robinson" lon0="-90.6285705943"/><bbox h="1.1" w="1.09" x="-1289.0" y="-504.68"/></view></views></metadata><g class="" id="mylayer"><path d="M280.711926,0.000000L273.659572,17.834017L45.380599,52.229397L29.983248,335.838332L29.132211,357.249233L29.030483,359.703990L28.940965,361.795080L23.778009,387.160958L24.048823,407.056719L22.763525,429.452774L22.314794,444.105711L21.055309,467.971727L20.609024,474.184481L19.580974,480.351780L19.347704,498.899171L19.432110,510.551928L19.609239,520.204485L16.783345,553.693052L15.450310,584.681481L15.321669,587.090856L14.921332,594.849352L14.580233,600.637923L14.915727,604.305030L14.973521,619.215933L14.986831,624.140781L14.749104,626.732010L13.779064,638.642583L13.485830,642.612779L12.183190,660.751449L8.183244,703.438879L7.883200,706.651433L7.399869,706.939350L7.306858,708.575935L11.352412,707.484878L14.471174,706.545358L33.085971,701.620452L41.903330,699.211039L46.688030,697.892680L48.728428,697.301692L95.921319,696.634937L122.484210,705.681605L130.479733,708.030407L157.350064,715.879956L172.427917,729.851571L203.219052,758.779871L230.416550,784.238086L238.917373,793.345481L262.178225,821.031431L286.303226,850.399569L311.262341,880.313372L311.405608,880.464911L313.546345,883.086542L313.889623,883.526007L316.900873,887.117492L324.716734,895.240013L326.145980,896.664486L328.322543,898.983044L331.783376,902.529075L334.421007,905.332563L336.860355,907.893587L343.420493,914.515886L373.160768,945.551366L382.549296,954.780205L383.368586,955.643988L384.735752,956.901779L391.590901,963.584741L393.169026,965.191077L396.981759,968.828067L402.736327,974.480559L423.527164,986.209873L431.767266,990.771278L434.749971,992.695858L446.107744,999.000000L457.811587,997.014801L461.275568,995.666078L482.700424,986.800885L570.821132,949.355040L606.461570,923.653760L631.645156,905.256793L639.514207,899.619511L659.415299,885.147479L736.932379,828.623492L746.152277,822.001274L760.863614,813.439378L780.393272,801.846738L808.724356,785.283693L820.180943,778.373596L844.154669,763.962429L844.680061,763.765431L849.490217,761.765145L856.562642,758.795025L858.312409,758.022187L872.189979,752.172873L894.135197,743.080684L923.256258,730.912323L941.241564,723.350675L952.102517,721.017022L951.910656,679.769069L951.432113,671.328573L951.082107,657.538916L943.955681,659.311870L930.268900,662.600172L931.131638,657.463149L935.305627,656.478174L937.612922,655.902343L937.602286,654.371845L936.425476,599.940869L936.507523,578.786850L936.474074,572.892224L936.769859,545.313319L936.899829,529.160010L936.390189,510.051874L935.215480,394.070675L934.608805,347.339297L934.265744,320.655269L934.237233,318.518733L934.295553,316.291281L950.002791,316.003379L974.199869,315.579103L977.319692,228.587795L977.845813,224.042032L977.780777,220.693321L978.175041,217.102172L977.889933,214.647463L978.222572,212.510958L978.051090,209.647133L978.571600,206.328734L978.260834,205.601414L978.279059,203.904334L978.741656,202.025424L978.515581,198.964621L978.914766,197.343305L978.546990,196.009887L979.109638,193.358203L979.016607,191.327771L979.382474,187.433587L979.245336,184.797059L979.578040,182.660562L979.602423,181.357451L978.951084,180.024036L978.793998,179.039127L979.018136,175.720742L979.324081,174.478242L979.276526,171.478060L979.020406,170.947725L979.323291,168.932452L979.173680,167.917239L979.758430,163.553343L979.777041,158.295457L980.268550,154.310376L980.022623,148.870668L980.529097,144.824982L980.386986,142.627888L980.760511,138.703425L980.495943,137.370017L980.615454,131.703036L981.010345,129.733231L981.454826,125.520881L981.228964,123.611687L981.409499,121.308532L980.490645,119.020531L988.724935,105.580434L992.693142,44.365417L986.308283,35.122600L986.038406,21.046266L982.812675,22.576630L961.591934,22.122067L929.415150,19.364381L796.296335,23.622127L781.381416,23.470606L781.097838,23.470606L699.752339,22.728152L629.489760,18.909817L596.790605,17.121868L584.433327,17.000651L582.632118,17.091564L527.758483,14.849051L280.711926,0.000000Z " data-aland="36952307" data-awater="4606942" data-classfp="U1" data-funcstat="S" data-geoid="2228345" data-intptlat="+30.0657270" data-intptlon="-090.6347291" data-lsad="57" data-mtfcc="G4210" data-name="Garyville" data-namelsad="Garyville CDP" data-pcicbsa="N" data-pcinecta="N" data-placefp="28345" data-placens="02402517" data-statefp="22"/></g><g fill="#000" font-family="Arial" font-size="12px" id="mylayer-label" stroke="none"><text text-anchor="middle" y="428.109298651"><tspan dy="0" x="497.424502074"><![CDATA[Garyville]]></tspan></text></g></svg>