<?xml version="1.0" encoding="utf-8"?><!DOCTYPE svg  PUBLIC '-//W3C//DTD SVG 1.1//EN'  'http://www.w3.org/Graphics/SVG/1.1/DTD/svg11.dtd'><svg enable_background="new 0 0 1000 1001" height="1001px" pretty_print="False" style="stroke-linejoin: round; stroke:#000; fill: none;" version="1.1" viewBox="0 0 1000 1001" width="1000px" xmlns="http://www.w3.org/2000/svg" xmlns:xlink="http://www.w3.org/1999/xlink"><defs><style type="text/css"><![CDATA[path { fill-rule: evenodd; }]]></style></defs><metadata><views><view h="1001" padding="0" w="1000"><proj flip="auto" id="robinson" lon0="-76.8880878785"/><bbox h="0.25" w="0.28" x="-1055.52" y="-653.39"/></view></views></metadata><g class="" id="mylayer"><path d="M1000.000000,533.476167L999.894121,524.749002L999.532965,515.716705L999.102503,510.712330L998.400541,505.952075L997.176541,496.492605L996.078704,486.117721L994.978504,478.061940L993.928783,471.653941L992.857451,465.978291L990.896516,457.983566L988.670393,451.697646L986.323542,446.144071L983.905515,441.322840L981.429224,437.356008L978.251644,433.084037L975.193602,429.239266L970.485197,424.784217L964.634909,419.840948L958.799641,415.507962L948.235247,409.100031L938.587487,404.095747L930.603013,399.823801L922.530257,395.185691L914.178498,390.486557L907.620363,386.580787L899.259037,381.088301L892.248652,375.717876L887.995948,372.056225L882.196581,365.953479L877.421668,360.399985L872.174104,352.954650L869.315664,347.950414L866.574668,342.885155L864.213056,336.721412L862.212509,329.520215L861.392142,325.980647L859.277133,313.714230L858.462638,307.184356L857.487479,294.917978L855.413430,226.568480L854.488342,207.040198L854.001104,185.559164L853.157986,172.194582L852.086426,164.871537L850.689684,156.816198L849.077912,152.117255L846.056724,143.695782L842.305134,135.396372L838.377780,128.012348L834.050632,121.299606L828.893966,114.708922L822.303594,107.446974L817.496623,102.992169L804.104954,92.801054L790.254438,82.487907L776.215270,72.968096L761.849633,63.875470L745.133894,52.708036L738.453542,57.956117L728.532449,64.424689L708.411265,77.300829L693.396227,86.210402L671.775493,98.964541L648.591413,112.634079L644.611430,114.830972L638.851553,118.004263L624.058488,126.669799L617.175834,130.941546L610.992379,135.030222L605.975830,138.203524L599.596202,142.780406L593.370667,147.174215L586.860703,151.690078L573.829923,161.087967L545.285180,180.066866L541.560449,182.568912L537.747458,184.704806L525.107581,189.830954L515.273307,193.370440L485.560673,202.707370L442.100170,214.424322L395.575377,228.094130L349.982563,240.970629L305.529480,253.847157L249.716638,269.897087L203.962097,282.651626L159.331012,295.955432L113.044159,308.832080L62.509069,323.478540L17.789573,336.416276L17.640299,339.223524L21.441406,347.523223L24.089114,354.053141L25.094597,357.470672L26.307987,366.136561L26.159473,370.591565L24.846106,376.450206L22.844385,382.125770L4.812833,417.582913L2.245652,422.831320L1.056512,427.286368L0.527114,429.544407L0.172196,432.046559L0.000000,436.745726L0.978681,445.533789L4.038511,449.866797L14.396819,455.969630L19.865835,458.715907L22.968275,459.936475L28.211194,461.950413L56.169582,468.358402L65.950036,471.104685L72.167846,473.667883L75.386457,475.986968L77.419063,477.634740L79.305070,479.770741L81.523790,482.944230L83.160259,489.047098L86.663162,498.506556L88.880965,507.294711L90.611982,515.228473L97.471311,541.898199L99.851677,545.193780L104.947664,550.503331L112.026763,557.460681L118.416670,562.587154L124.193582,567.774662L137.867563,578.515869L154.224780,592.369613L152.437864,597.496117L151.403514,606.223390L151.943705,610.861666L152.930774,617.147757L154.809021,621.786042L156.720601,626.973602L158.974186,636.799463L162.348072,647.845947L164.780217,651.629831L168.470496,657.000508L171.413781,665.849931L173.343426,673.783907L174.961057,678.300175L177.266770,685.806953L177.753312,689.468799L178.660046,692.886525L178.685564,695.938067L178.524873,697.463838L178.326336,700.271259L177.581163,707.045693L176.769930,717.176843L175.533549,745.068112L171.671457,754.466950L166.735063,766.123971L163.321394,773.203639L159.398989,782.968712L152.992826,798.531832L149.939024,805.733603L149.171699,808.785203L148.567142,810.799261L147.476407,816.414212L145.582897,824.043230L145.282041,827.522065L146.311735,830.695742L148.407985,834.113549L151.738952,836.554841L154.238238,838.629940L157.255662,841.620525L158.482441,845.953825L159.582909,854.010109L159.380042,858.648580L159.822591,862.127436L160.162750,866.277653L160.534152,870.488906L162.497970,873.357442L162.970803,875.249455L165.450648,878.545223L168.080323,880.681370L171.075226,882.756484L174.962004,887.639110L176.940886,891.117983L177.381345,894.108595L179.017581,898.563999L179.455919,901.066351L180.926157,907.230685L181.568131,909.549941L181.804976,912.723662L181.781111,915.775318L180.700098,946.291964L208.930163,943.545459L231.235804,941.714457L302.080723,936.343520L322.393221,934.878720L328.134455,934.573553L342.392186,933.963220L353.757217,933.413920L402.409520,931.643954L440.387350,931.094654L463.765939,930.972588L505.923873,931.521887L523.612937,932.193254L539.716137,932.864620L547.410600,932.986687L555.477822,933.352887L571.164098,933.597020L585.324846,933.474953L595.990660,933.108753L603.435185,932.742554L609.145168,932.376354L625.884040,931.094654L639.190460,929.690889L653.164841,928.042991L670.870107,925.357528L684.135589,923.099298L718.303931,915.592218L744.692669,909.733040L759.036573,906.193123L781.780598,901.249449L794.726084,898.075735L827.237370,891.301081L836.342076,889.531128L848.790879,887.517044L858.137983,885.930190L863.561371,885.197796L878.610892,882.939583L897.022819,880.376206L915.554325,878.240059L934.161239,876.348044L952.689501,874.883259L967.354383,873.906736L974.482704,812.996415L978.266069,775.950064L981.543507,736.462695L985.421813,688.370245L989.088056,646.930492L991.683172,615.499946L994.841766,586.815905L996.103143,574.854091L996.968821,567.347455L997.450750,562.770243L998.354262,553.982005L999.370999,544.156282L1000.000000,533.476167Z " data-aland="1941145" data-awater="0" data-classfp="U1" data-funcstat="S" data-geoid="2460950" data-intptlat="+38.8939623" data-intptlon="-076.8877306" data-lsad="57" data-mtfcc="G4210" data-name="Peppermill Village" data-namelsad="Peppermill Village CDP" data-pcicbsa="N" data-pcinecta="N" data-placefp="60950" data-placens="02389279" data-statefp="24"/></g><g fill="#000" font-family="Arial" font-size="12px" id="mylayer-label" stroke="none"><text text-anchor="middle" y="545.532058834"><tspan dy="0" x="545.669850649"><![CDATA[Peppermill Village]]></tspan></text></g></svg>