<?xml version="1.0" encoding="utf-8"?><!DOCTYPE svg  PUBLIC '-//W3C//DTD SVG 1.1//EN'  'http://www.w3.org/Graphics/SVG/1.1/DTD/svg11.dtd'><svg enable_background="new 0 0 1000 1001" height="1001px" pretty_print="False" style="stroke-linejoin: round; stroke:#000; fill: none;" version="1.1" viewBox="0 0 1000 1001" width="1000px" xmlns="http://www.w3.org/2000/svg" xmlns:xlink="http://www.w3.org/1999/xlink"><defs><style type="text/css"><![CDATA[path { fill-rule: evenodd; }]]></style></defs><metadata><views><view h="1001" padding="0" w="1000"><proj flip="auto" id="robinson" lon0="-77.0200989113"/><bbox h="0.12" w="0.15" x="-1059.19" y="-646.81"/></view></views></metadata><g class="" id="mylayer"><path d="M1000.000000,154.974840L987.144878,116.616356L881.496393,109.163864L714.034931,104.670451L675.294036,118.260289L660.610978,136.124371L422.437779,117.164334L411.379728,147.741517L405.192695,160.893017L402.381648,170.427862L401.492596,181.277867L400.175728,189.059189L397.558875,193.114246L393.205727,196.730920L388.666887,199.470825L380.817006,200.785980L374.267342,202.210731L369.316635,204.841041L359.705942,210.320855L354.004221,212.183992L348.205568,214.375919L343.222551,217.115827L335.751924,223.472418L325.785671,232.568924L313.727565,244.843737L292.849994,266.543881L280.234750,277.393968L266.876715,284.736960L251.410908,291.093584L238.303454,294.271897L226.851696,295.148674L214.810467,294.710286L209.714463,296.025450L205.619798,298.765376L202.267993,303.806842L198.245844,309.615489L188.432614,326.931851L184.907427,413.623604L152.333603,506.343876L108.673371,548.977889L98.302909,584.159275L168.103263,671.948762L174.765942,702.088861L175.840076,724.666581L134.482537,777.275015L48.730391,804.784927L18.057433,829.883663L0.000000,891.151087L297.372539,892.247108L352.686206,892.356710L418.555490,894.329549L434.092143,836.788564L453.667368,784.837495L469.851193,749.217157L520.471151,673.921566L576.494470,604.106397L635.288159,549.306686L693.799230,509.631841L688.695374,483.547340L791.850927,427.432964L828.580642,423.377833L920.753073,346.659379L975.638766,281.010665L993.633588,224.787575L1000.000000,154.974840Z " data-aland="404596" data-awater="2463" data-classfp="C1" data-funcstat="A" data-geoid="2463225" data-intptlat="+38.5107411" data-intptlon="-077.0195111" data-lsad="43" data-mtfcc="G4110" data-name="Port Tobacco Village" data-namelsad="Port Tobacco Village town" data-pcicbsa="N" data-pcinecta="N" data-placefp="63225" data-placens="02391369" data-statefp="24"/></g><g fill="#000" font-family="Arial" font-size="12px" id="mylayer-label" stroke="none"><text text-anchor="middle" y="450.464139617"><tspan dy="0" x="482.755329436"><![CDATA[Port Tobacco Village]]></tspan></text></g></svg>