<?xml version="1.0" encoding="utf-8"?><!DOCTYPE svg  PUBLIC '-//W3C//DTD SVG 1.1//EN'  'http://www.w3.org/Graphics/SVG/1.1/DTD/svg11.dtd'><svg enable_background="new 0 0 1000 1001" height="1001px" pretty_print="False" style="stroke-linejoin: round; stroke:#000; fill: none;" version="1.1" viewBox="0 0 1000 1001" width="1000px" xmlns="http://www.w3.org/2000/svg" xmlns:xlink="http://www.w3.org/1999/xlink"><defs><style type="text/css"><![CDATA[path { fill-rule: evenodd; }]]></style></defs><metadata><views><view h="1001" padding="0" w="1000"><proj flip="auto" id="robinson" lon0="-87.4801677594"/><bbox h="0.24" w="0.27" x="-1163.56" y="-748.44"/></view></views></metadata><g class="" id="mylayer"><path d="M1000.000000,70.884515L982.723092,71.002693L617.187729,75.552548L573.791983,76.438884L569.579006,85.302233L563.744435,98.538154L545.511483,142.795651L530.286811,180.789597L417.306718,180.198712L294.141594,179.548739L288.796663,192.430018L258.015742,266.467538L250.200977,285.257509L207.964537,386.061025L205.627978,392.678809L188.762571,434.748916L115.041433,436.048832L104.972164,436.285181L102.872090,430.199207L91.586760,397.523970L90.643160,394.628691L89.510965,388.542695L74.353263,393.565119L58.150207,398.882978L52.458841,400.655597L62.144710,429.135638L66.551710,441.957542L58.927167,442.134803L48.232760,442.134803L36.663363,442.371151L42.234713,457.911042L35.843143,458.147390L37.490411,463.819740L46.036961,490.999710L47.405252,491.649665L48.140508,492.535967L48.535051,493.540443L48.437785,495.017613L47.877841,496.672043L47.168774,498.562821L44.505807,502.994328L40.267162,507.603094L37.818997,512.211859L34.882013,520.011301L33.721701,528.637951L33.738664,542.109693L34.644374,548.727385L34.545146,550.322720L36.159451,556.526802L38.978569,560.131076L40.998244,563.794436L42.634271,568.698609L43.148360,571.239324L41.668993,572.893743L42.698100,575.020853L45.690752,587.074468L49.683283,595.760152L50.597871,598.950810L50.848327,602.791416L50.611377,605.391210L51.731987,612.186122L53.453025,617.799308L52.682613,630.620996L52.283204,632.807181L51.519871,635.052451L50.555531,636.293258L49.080562,636.234172L47.762598,635.466054L45.948886,635.406967L43.943132,636.706861L42.543263,637.947668L39.047852,642.969980L36.345981,648.287721L33.059230,661.109373L30.699616,667.667909L26.489283,674.935471L22.169247,680.075939L19.609502,682.675715L15.607408,686.161777L11.519916,690.415953L9.839112,692.543040L6.661221,697.388071L3.942072,702.292186L1.249644,708.496184L0.000000,712.336752L50.246542,712.868522L77.588193,712.868522L97.864569,712.868522L103.042545,712.868522L113.398498,712.868522L127.881578,712.041323L124.196945,722.617651L122.765811,746.074609L122.949541,746.665464L122.958977,747.551746L123.307161,748.438028L123.252462,750.269677L123.600646,751.155959L125.827104,815.086232L125.495836,816.090679L125.557609,816.740616L125.567058,817.626892L125.264902,818.335913L125.411664,819.694870L125.033970,820.581147L125.180732,821.940103L124.903756,822.590039L124.988744,823.299060L124.998193,824.185336L124.721218,824.835272L124.867981,826.194228L124.490288,827.080504L124.637052,828.439460L124.334897,829.148480L124.344348,830.034756L124.454516,830.684691L124.152362,831.393712L124.214137,832.043647L124.198409,832.989007L123.921434,833.638943L123.983210,834.288878L123.681056,834.997898L123.690507,835.884173L123.775497,836.593193L123.498523,837.243128L123.535120,837.952148L123.544571,838.838423L123.267597,839.488358L123.352587,840.197377L123.075614,840.847312L123.036673,841.733587L122.734519,842.442606L122.844689,843.092541L122.780569,844.037900L122.503596,844.687835L122.613766,845.337769L122.311613,846.046789L122.321066,846.933063L122.018913,847.642082L122.190862,848.941951L121.787992,849.887310L121.898162,850.537244L121.596010,851.246263L121.557071,852.132537L121.280098,852.782471L121.365090,853.491490L121.088117,854.141424L121.049178,855.027698L120.747026,855.736717L120.857198,856.386650L120.454329,857.332009L120.564500,857.981942L120.287528,858.631876L120.324127,859.340895L119.946438,860.227168L120.031431,860.936186L119.754459,861.586120L119.763914,862.472393L119.461763,863.181411L119.523542,863.831345L119.145853,864.717618L119.230846,865.426636L118.953875,866.076569L118.938151,867.021927L118.661180,867.671860L118.697780,868.380878L118.077756,870.744271L117.851143,871.276034L117.812207,872.162306L117.510056,872.871324L117.620230,873.521257L116.940392,875.116547L117.050565,875.766480L116.647699,876.711836L116.709480,877.361769L116.029642,878.957058L116.139817,879.606990L115.837667,880.316008L115.847125,881.202279L115.544975,881.911296L115.268005,882.561229L115.252284,883.506585L114.975313,884.156517L115.037095,884.806449L114.634229,885.751805L114.357259,886.401737L114.442255,887.110754L114.064569,887.997025L113.787599,888.646957L113.872595,889.355974L113.494909,890.242245L113.217939,890.892177L113.254542,891.601193L112.876857,892.487464L112.574708,893.196480L112.684884,893.846412L112.307198,894.732682L112.005050,895.441699L112.066833,896.091630L111.689147,896.977901L111.386999,897.686917L111.497175,898.336848L111.094311,899.282203L110.817342,899.932134L110.515194,900.641150L110.524654,901.527420L110.247685,902.177351L109.945538,902.886367L109.906605,903.772637L109.629637,904.422568L109.327489,905.131584L108.949804,906.017853L109.034803,906.726869L102.484889,928.115485L175.808671,927.642809L179.486566,927.642809L235.282136,927.760978L244.389439,903.890806L264.473332,851.423518L267.078504,844.628750L326.737883,842.265351L438.404590,837.893063L466.925674,836.829533L479.907242,906.076938L498.486328,906.313277L534.245994,810.241252L536.911187,802.737437L505.575574,804.273652L495.243192,751.864984L491.962798,741.052342L491.125821,736.089159L486.583157,718.245315L482.214490,701.583158L486.776094,689.175152L489.737707,681.316741L525.157193,680.075939L540.951125,638.243098L542.525960,633.752558L570.086575,563.853522L572.496292,557.176753L585.758675,523.556501L586.871677,523.556501L607.498208,522.847461L605.836380,526.747179L604.780820,529.110644L610.127087,529.169731L615.841207,528.933384L618.212386,528.933384L614.939104,536.614642L652.924805,535.255651L655.005637,535.255651L658.852489,525.092753L660.322699,521.074861L688.405423,520.129475L689.957879,519.893128L702.484345,486.863632L703.622522,486.804545L775.948466,485.031940L808.870203,484.086550L825.331068,483.613855L838.818806,452.415950L923.643452,252.109143L1000.000000,70.884515Z "/></g><g fill="#000" font-family="Arial" font-size="12px" id="mylayer-label" stroke="none"><text text-anchor="middle" y="447.051222747"><tspan dy="0" x="464.867344078"><![CDATA[N]]></tspan></text></g></svg>