<?xml version="1.0" encoding="utf-8"?><!DOCTYPE svg  PUBLIC '-//W3C//DTD SVG 1.1//EN'  'http://www.w3.org/Graphics/SVG/1.1/DTD/svg11.dtd'><svg enable_background="new 0 0 1000 1001" height="1001px" pretty_print="False" style="stroke-linejoin: round; stroke:#000; fill: none;" version="1.1" viewBox="0 0 1000 1001" width="1000px" xmlns="http://www.w3.org/2000/svg" xmlns:xlink="http://www.w3.org/1999/xlink"><defs><style type="text/css"><![CDATA[path { fill-rule: evenodd; }]]></style></defs><metadata><views><view h="1001" padding="0" w="1000"><proj flip="auto" id="robinson" lon0="-91.2459788821"/><bbox h="1.04" w="0.58" x="-1219.96" y="-735.47"/></view></views></metadata><g class="" id="mylayer"><path d="M625.127278,0.000000L624.389708,0.340618L623.692136,0.851546L621.753460,3.050083L620.006440,5.016379L619.508084,5.945338L619.140827,7.214915L618.391117,8.918006L617.736899,9.939860L616.678141,11.039128L610.044666,16.938011L607.111219,19.539092L599.106542,25.825036L595.362403,27.946154L592.025338,30.129201L591.694019,30.330475L588.074128,33.039931L586.133918,34.139196L583.518979,36.771238L582.911616,37.715676L583.069948,38.226602L583.767385,38.644632L583.659127,39.325866L582.573932,40.688334L580.382374,42.561727L576.935140,46.881368L570.966333,56.232842L559.114727,69.052397L557.887218,71.173505L557.062576,73.046893L556.647616,74.657076L556.535690,77.552310L556.100347,78.744465L554.756192,80.695263L553.636110,81.933865L548.216292,87.832705L546.824410,90.124117L543.944489,94.025709L541.291077,98.283396L539.780833,100.466428L536.713501,104.909903L536.400768,106.520082L536.683407,107.619338L538.408746,108.981796L538.150586,110.003640L537.310711,111.273203L532.703466,116.893340L529.441209,120.531720L525.805059,124.293957L522.176579,128.009746L520.006260,130.734657L513.462036,139.652541L510.703252,141.943941L506.785963,146.867352L501.433528,152.642293L500.465044,154.175051L498.171242,156.977367L497.994897,157.581180L498.754581,157.828899L502.419391,157.658592L503.315351,157.828899L503.891860,158.928149L503.219660,161.993664L502.529729,162.922608L501.586871,163.526421L500.563912,164.718566L499.881618,166.065534L500.061232,167.427984L499.893352,168.883328L499.136926,170.834108L498.202515,172.521688L497.726339,173.806725L497.755218,175.076280L495.529632,177.027059L494.553527,178.141790L492.561230,181.362123L491.749513,182.306547L488.525701,185.015960L485.166442,188.236290L480.672680,192.292667L476.487248,196.054876L475.005247,196.983817L471.472311,198.857180L468.774863,201.241460L468.099411,202.340705L466.812353,205.235901L462.954810,209.385164L458.654331,214.773010L456.702978,217.203733L454.027656,220.176336L452.401701,221.461367L451.030387,223.241832L444.514415,235.318018L437.325626,248.632771L435.577877,250.165515L434.294311,251.775669L426.899526,262.829993L419.751777,274.890649L416.255431,281.935057L408.302948,299.801509L407.663315,301.225870L405.127783,306.319505L398.834532,317.280876L396.532392,321.553950L395.718171,323.055718L394.081195,325.439968L390.314088,330.022681L387.796461,333.769356L383.515026,341.494936L382.191498,343.631468L381.770762,344.297198L378.851925,346.604033L379.220070,351.109326L378.097624,354.530870L371.904247,365.352850L367.499534,375.013663L364.777484,377.599168L366.550961,379.549907L361.914848,392.059403L358.219055,403.129056L357.540570,407.603359L355.690777,419.849627L356.166781,427.188091L355.447168,428.504060L354.754806,429.758101L351.184414,432.064916L349.891528,433.086727L349.848424,436.291496L349.720012,445.874833L349.670978,449.064116L349.539053,449.915623L349.163717,452.423699L349.025829,453.259724L349.202158,453.352616L351.853633,452.408217L352.298273,452.501109L352.599854,452.919121L352.762930,456.061956L352.187392,458.182982L349.480866,468.137865L349.152594,471.961900L347.619859,475.445332L347.602160,476.792258L346.313071,486.313630L346.021952,487.614109L345.132401,491.407173L342.991606,495.401500L343.193784,497.352218L340.843194,510.186690L340.801748,511.936141L340.755265,514.103601L338.870996,523.439157L337.416132,528.284973L334.255213,542.729516L332.700701,555.904532L331.548490,565.580650L330.388640,567.113347L328.859991,568.816342L328.496558,570.194220L327.915517,573.693101L327.726645,574.761343L327.473142,576.325001L314.239945,657.960041L296.294290,730.506800L302.640885,745.709666L314.152941,763.869478L316.118382,766.547777L318.252565,773.839558L318.464733,782.741407L319.774227,791.705176L320.556978,797.711980L320.988111,802.077748L320.428549,814.710599L318.550400,819.416952L317.427079,822.203607L314.945066,829.154761L312.382684,833.412147L310.316591,836.802573L309.410659,837.932715L306.236495,841.895951L305.437823,842.840316L301.439334,847.515694L296.760625,857.021258L296.008986,858.352656L292.977718,863.647282L292.815994,863.956909L292.292489,864.885791L292.112017,865.179936L289.542994,869.685010L283.197800,878.679672L278.611839,882.162972L266.484314,899.424646L266.390676,899.579459L264.605801,902.969866L254.940824,919.194262L250.998191,924.643673L249.632020,925.309367L248.563494,924.891373L251.809710,920.386321L260.327439,904.765697L262.343790,900.848927L262.144243,900.430931L261.865620,900.338043L261.139010,900.508338L259.459778,902.118394L257.877136,904.409627L253.792678,907.304630L250.123509,909.255274L247.514987,911.205917L245.654056,914.100919L236.801664,926.501425L236.556804,927.523189L236.954738,927.693483L237.836488,927.693483L238.696525,926.842014L241.035896,923.265839L241.771268,921.826080L242.883313,920.634021L243.477840,920.386321L244.197033,920.726909L244.246812,921.485492L244.016516,922.677550L242.721721,924.721079L241.288870,926.671719L240.198541,928.715247L240.284605,930.495593L241.155820,931.594763L243.225030,933.050002L246.797525,933.731178L238.760558,959.476490L225.558628,965.668980L221.344757,975.251852L232.459121,978.224243L265.809216,987.125932L276.917737,990.082839L277.970905,990.361501L281.138050,991.151041L282.185246,991.414221L285.148761,992.172799L294.072518,994.402090L297.030069,995.145187L300.050684,995.919246L309.099764,998.241422L312.114416,999.000000L315.803832,995.346442L319.483371,992.296649L323.364876,989.339742L323.978015,988.875307L330.843799,984.246430L337.212153,979.818807L342.192532,976.629679L343.584104,975.731769L348.596976,972.759377L350.272192,971.768579L358.384077,966.659778L365.053924,963.609978L371.650952,961.365200L374.621027,960.219589L372.532038,949.537537L372.626818,948.391925L376.703137,901.979062L378.745285,878.648709L371.962513,879.020261L365.783572,879.035742L347.254395,879.035742L341.069484,879.035742L338.992519,879.051224L332.762464,879.066705L330.679529,879.066705L330.187128,879.082186L328.192807,879.113149L328.434544,878.679672L328.669473,878.261676L328.120270,877.069612L326.101341,877.301832L327.214607,875.118963L327.971240,873.601791L327.398709,873.508903L326.972715,873.431497L327.632144,871.728549L327.914621,870.969962L328.726231,868.601316L334.735456,868.245245L336.751031,868.136875L336.293949,868.972868L334.930350,871.434403L334.467299,872.254914L336.965955,872.239433L344.449145,872.192989L346.941831,872.162026L354.125252,872.332321L375.682328,872.827724L379.763035,872.905131L382.921051,872.843206L384.461945,870.675817L389.046303,864.173648L390.581233,861.990776L393.633050,862.548105L396.161552,862.610031L412.706690,862.966102L413.593553,863.012546L419.350039,863.260248L419.847828,862.099146L420.372847,860.876118L423.343702,854.497795L433.287825,833.133482L437.418635,833.009631L442.637294,832.823854L444.746586,832.792891L444.574719,833.241852L444.079541,834.542289L443.901704,834.975768L444.780912,835.068657L447.432151,835.316359L448.305389,835.393766L449.423750,833.257333L450.650200,830.904160L447.283481,830.888678L445.508105,830.857716L445.685943,830.424236L446.219460,829.123798L446.384520,828.690319L446.740199,827.823360L447.248160,826.522922L447.781679,825.222483L448.131389,824.340043L448.720209,822.884790L448.952402,822.095237L450.408512,817.156664L450.587482,815.500152L450.797764,813.394678L453.249548,813.456604L453.454002,813.456604L455.321327,813.394678L455.931679,808.781211L453.742385,808.936026L453.204854,808.966989L451.031688,808.997951L450.997864,809.539802L450.916818,811.118908L450.889803,811.645276L447.751661,812.156164L446.740227,815.298894L446.554847,816.011039L446.442571,816.382593L436.500323,816.877999L437.633665,812.063275L439.327847,811.552388L442.461479,810.499650L449.728697,808.038102L450.088537,803.238856L443.963199,804.585742L439.715230,805.499147L441.967656,794.275097L445.721450,793.206877L451.961570,791.395546L451.950572,791.565842L451.904800,792.076731L451.887832,792.231545L451.844679,792.881766L451.810115,793.686802L451.583782,798.037090L451.512880,799.476865L453.045339,799.275606L457.642716,798.671830L459.169204,798.455089L459.249424,796.906944L459.464541,792.262508L459.531991,790.714362L458.511506,790.884658L455.376000,791.534880L453.088890,791.999323L453.120836,791.054954L453.711596,784.335999L457.311410,783.763184L457.715184,783.716740L459.374581,783.546444L460.060314,783.469037L460.268440,782.153111L460.913248,778.158891L461.115409,776.827484L459.507128,776.997780L456.028193,777.353854L454.649082,777.555113L453.000789,777.787336L452.900013,779.149705L452.585754,783.205852L452.479014,784.552739L450.047993,785.141035L444.594794,786.441478L445.545433,784.366962L446.782022,781.642223L447.385342,780.125038L448.401253,777.291928L448.768800,776.223706L452.811331,765.200887L453.589123,765.262813L457.091287,765.464072L457.788160,763.559848L458.983628,760.231325L465.785467,761.268586L467.019563,758.636731L467.146407,758.435471L468.370541,756.407394L467.119120,756.376431L464.534480,756.268060L463.340142,756.252579L462.063166,756.221615L461.665563,756.747987L456.068340,755.819096L457.867210,753.094350L464.077580,753.558796L465.354611,751.701014L466.133588,750.539900L464.817441,750.539900L460.856223,750.539900L459.534107,750.524419L459.927421,749.920640L461.094586,748.109302L461.481931,747.490041L463.482549,744.393737L469.492074,735.058373L471.486737,731.946584L472.963020,731.931102L477.411454,731.869176L478.881767,731.838213L479.001805,731.652434L479.374696,731.095099L479.488764,730.893839L479.855686,730.321022L478.698015,730.367466L477.284784,730.413911L478.631229,729.531463L479.598813,729.190869L480.876426,728.726422L480.970068,728.571607L481.619691,727.704640L481.799328,727.441454L486.975168,727.178268L487.504102,726.992489L489.988626,726.079077L495.268607,717.966742L492.580291,716.263770L489.757294,720.706978L487.929490,723.555584L484.844863,723.509140L483.708274,723.013730L480.318936,721.481056L479.183189,720.954683L479.654856,720.288976L480.711422,718.787265L481.133750,718.291855L481.668468,717.657111L483.578724,718.601486L484.147578,718.121557L491.999051,711.309668L490.695518,710.845221L488.189838,709.947290L487.604865,708.430095L485.838024,703.847548L485.247093,702.314871L484.164332,702.191018L480.904111,701.788497L479.815382,701.649163L479.483997,701.618200L478.477903,701.494347L478.140549,701.447902L476.358020,704.745480L471.490530,713.662867L472.174661,713.879609L474.512459,714.607242L475.100336,714.839466L472.922936,716.913996L472.188897,717.595184L472.073147,717.858371L471.688404,718.616967L471.566685,718.864672L471.631034,720.025789L470.901276,722.905359L469.842373,727.085378L465.375290,729.485018L461.959640,730.336503L460.216699,730.290058L459.664915,728.726422L462.058541,721.976466L462.466979,720.815349L466.143949,712.919751L473.276293,705.535040L475.116260,703.181840L476.639479,701.200197L479.084257,696.571202L480.151893,697.252392L480.617113,697.531060L482.771490,695.363637L481.463684,694.821782L480.270040,694.310889L481.077881,692.793692L483.496280,688.195657L483.752504,687.700246L484.419126,686.678460L486.461636,686.043714L492.584035,684.093031L494.620574,683.442803L495.624051,683.427322L490.371135,691.477757L489.377024,693.738070L489.638550,693.753552L491.622477,693.629699L492.281796,693.583254L492.659163,693.567772L493.785293,693.505846L494.156691,693.474883L496.082697,693.366512L501.732937,693.041398L503.779912,692.948508L505.123266,692.886582L509.146518,692.716284L510.483902,692.638877L509.185481,694.341852L505.278284,699.419814L503.973896,701.107307L506.612658,702.516132L507.072754,702.748355L511.641504,696.834389L514.937040,691.694499L512.202884,690.270192L511.937070,690.177302L511.191577,689.867670L514.728500,685.486376L515.597480,685.718600L516.872831,686.043714L520.699724,686.988092L521.969107,687.297724L522.731217,686.523643L525.018389,684.170439L525.774531,683.380877L524.475306,682.993836L524.006727,682.839020L520.512065,681.894642L519.180477,681.523083L518.741744,681.445675L519.557489,680.578705L520.393661,679.665289L521.999596,677.931348L522.803404,677.033414L523.228519,677.141786L524.587339,677.451418L528.651024,678.380315L530.003877,678.674466L530.155442,678.504168L530.571802,677.993275L530.717398,677.807495L533.829468,674.014498L536.287621,671.011062L532.574569,669.168748L535.100154,666.505907L538.791758,667.961181L541.877441,664.199143L543.401755,662.883204L544.461957,661.954305L547.059250,659.709467L547.845906,658.501899L548.773871,657.031142L549.614657,654.770821L550.076746,653.516807L550.926881,653.501325L553.477284,653.454880L554.321449,653.423917L561.102096,653.346509L570.030229,653.238137L581.412511,653.098802L585.745816,653.036876L586.953724,653.021394L588.174410,653.005912L607.117752,639.800053L663.916018,600.166894L682.853236,586.945487L698.670143,575.937957L714.637744,564.791079L743.576055,537.109616L752.758936,528.315936L755.448065,525.745951L758.124417,523.175965L759.296836,521.643263L759.674023,521.163325L760.475222,520.126042L761.508855,518.763639L762.548456,517.416718L764.210456,515.264740L764.322848,515.125403L765.879268,513.097280L766.017137,512.725715L767.600112,508.545613L769.183098,504.365508L774.188275,491.097536L778.655243,477.891474L772.772250,423.905910L764.602069,423.890428L756.444664,423.874946L748.363919,423.859464L740.295950,423.843982L727.045900,420.592763L723.959155,420.871439L722.317792,420.855957L708.551446,420.608245L703.954428,420.515353L695.481000,420.376015L680.227460,420.081857L669.760200,420.670173L662.050927,421.088187L660.987094,421.212043L660.263549,423.379522L658.054599,429.881957L657.325100,432.033952L655.622433,432.157808L653.637837,432.312628L651.660051,432.451966L648.369706,432.699677L647.806691,432.730641L646.788839,432.808051L645.770987,432.885461L642.269406,433.148655L636.591576,433.566668L630.900968,433.984681L621.523089,434.681370L612.561714,435.331613L611.445602,438.071922L610.939897,439.279516L608.110066,446.292845L607.000780,449.017670L607.959031,449.017670L609.581668,449.017670L608.541092,450.395564L607.713394,451.463818L607.438424,452.175988L606.600739,454.312497L606.319804,455.009184L605.845631,456.232258L605.234397,457.795934L603.516352,457.780452L603.069167,457.780452L601.478814,461.279370L596.641322,471.636780L595.000732,475.104730L599.544095,474.826055L602.245066,474.640272L606.564214,462.440515L608.371399,457.315994L609.115468,455.566534L611.322132,450.318154L612.086690,448.754476L616.497335,457.083765L622.396792,468.215275L622.770861,468.788106L639.661688,468.555877L650.308954,468.401058L650.966535,468.416540L652.959710,468.416540L653.624102,468.416540L658.452875,468.447504L660.876182,468.370094L668.094994,468.137865L679.117845,467.797263L682.832448,467.688890L690.160281,467.441179L691.420057,467.394733L692.660246,467.363769L698.945507,467.162504L700.889261,467.100576L703.965024,466.992203L708.978573,466.806420L715.742538,466.620637L712.249505,473.370755L700.521446,474.036477L689.696254,474.624790L687.462064,474.795091L675.933360,475.646597L674.646339,475.754970L664.391872,476.498102L658.406482,476.947077L653.052156,476.978041L641.175694,476.993523L633.566550,489.905430L623.312149,507.291581L622.183937,508.839768L623.235147,509.180369L625.300082,509.830607L628.118922,510.713074L633.002705,512.245778L638.126728,513.871373L639.304871,514.242938L640.551180,514.691911L640.759893,514.769321L639.504126,517.014190L639.015116,519.723514L637.678210,527.061907L637.510627,527.820517L637.165214,529.244846L636.899834,530.545320L636.484364,531.257485L635.200467,533.363014L634.779031,534.059696L622.212555,534.771860L620.683587,534.849269L591.999311,538.828098L583.259323,540.252425L574.763780,541.614825L570.279142,542.079280L570.876553,540.082125L571.894510,537.187025L574.313435,530.235684L581.558450,509.350670L586.763484,494.642888L590.965056,482.768275L591.127667,482.427673L590.935170,482.458637L590.320193,482.520564L590.141318,482.520564L554.850382,484.208092L541.455286,484.858331L528.130929,485.725318L512.817651,486.669714L513.171826,485.864655L513.403402,485.338270L503.889839,493.806866L503.287734,494.333250L475.090077,518.639784L465.486177,526.907089L462.833357,529.306774L459.931860,531.923203L456.454279,529.662856L454.634553,528.455273L453.920040,529.120992L451.765412,531.056221L451.044932,531.706458L450.558454,531.272967L449.080278,529.957011L448.587835,529.508038L449.210375,528.935210L451.091619,527.185762L451.708194,526.597452L450.100615,525.575651L445.265962,522.479282L443.652426,521.441999L443.229840,521.008507L442.461628,521.534890L437.588363,525.002823L418.304782,538.688761L414.539529,541.351634L411.933459,543.441679L409.238024,542.017352L401.151747,537.744370L398.463141,536.304561L401.581059,533.719096L411.900697,525.684024L436.085423,506.811643L438.460765,505.217011L430.322158,497.956011L422.451997,490.927235L425.449912,488.759770L434.437684,482.241890L437.429630,480.058941L446.124453,473.974550L459.959154,464.251901L472.306048,456.139366L479.032655,451.711529L479.993943,449.497610L481.289004,446.525075L485.142698,437.591981L486.419037,434.603960L489.990009,425.732785L490.841421,423.333076L493.884375,414.616710L505.236801,390.093184L505.514403,389.520348L506.560930,387.229006L505.590773,387.198042L499.145517,387.182559L502.342997,379.828584L496.106475,380.122744L458.843174,381.794806L446.428876,382.336678L447.145044,380.680098L449.293557,375.710356L450.009731,374.053775L454.146698,364.361996L466.552784,335.240159L470.683989,325.532861L472.027007,322.451914L476.043316,313.209069L477.380391,310.112636L480.833815,302.061907L491.162778,277.894199L494.610377,269.827962L498.580100,260.662480L510.451210,233.165981L514.408335,224.000465L515.308617,221.925836L517.997553,215.670985L518.891882,213.580872L520.766573,209.292270L526.403477,196.426453L528.265430,192.137843L529.261998,189.815491L532.239795,182.817465L533.230412,180.479628L534.861571,176.686447L536.214206,173.497078L539.826637,165.260449L541.490191,161.451780L528.038642,161.885288L516.211258,162.256865L529.645692,150.165107L532.653142,147.889191L538.923519,132.685445L544.086607,120.113693L545.933353,116.614656L546.821648,116.599174L549.487386,116.521761L550.369720,116.490796L550.662756,115.825050L551.555495,113.796846L551.855347,113.115618L552.777935,110.700351L555.533797,103.423584L556.450438,100.992833L558.743121,101.008316L565.691862,101.039281L567.935156,100.992833L571.719983,92.307151L583.089187,66.188126L586.868213,57.486929L593.617243,67.055149L613.871910,95.744267L620.628262,105.296965L618.768485,101.859853L613.196057,91.533025L611.330379,88.080425L607.860480,81.655180L601.655663,70.182623L599.930871,64.407633L600.228361,62.193627L600.716593,60.242825L601.084693,58.710052L602.189483,57.099865L603.732865,55.567091L606.128908,52.764746L607.355489,51.139076L608.243908,49.962401L609.451786,48.089009L610.630752,45.875000L612.327006,41.121846L612.784128,36.368690L612.623256,35.718421L612.185750,33.984370L612.025866,32.374179L613.464725,29.308623L614.058417,28.627388L613.755450,27.110093L612.482368,26.258549L612.323249,25.314109L612.799539,23.796813L614.040733,21.412490L614.893415,20.142914L615.768151,19.461679L618.077889,18.857857L624.460914,2.384329L626.094376,2.214020L626.700218,0.170309L625.127278,0.000000Z M522.281557,654.832748L522.513827,654.043183L523.148423,653.965775L525.001100,653.733550L525.629727,653.640660L527.880109,653.114284L532.966878,651.891233L534.439754,651.999605L536.442482,652.123458L536.108421,656.427358L537.201515,659.229536L537.248423,659.384352L532.007977,659.678504L532.657203,660.003618L532.085000,662.960612L531.989759,663.409580L531.476216,663.734694L530.440381,663.765657L527.992190,663.812102L527.229986,664.353960L526.077728,665.143523L525.672375,665.484119L525.424556,665.669899L524.873519,665.964050L524.439077,665.964050L524.049777,665.948568L523.807000,665.948568L523.065892,665.948568L522.817147,665.933087L521.826027,664.787445L520.277563,662.991575L520.888112,660.034582L521.314987,657.960041L521.553224,657.185958L522.281557,654.832748Z " data-aland="5204368" data-awater="1326725" data-classfp="U1" data-funcstat="S" data-geoid="5527875" data-intptlat="+43.8586526" data-intptlon="-091.2608367" data-lsad="57" data-mtfcc="G4210" data-name="French Island" data-namelsad="French Island CDP" data-pcicbsa="N" data-pcinecta="N" data-placefp="27875" data-placens="02393013" data-statefp="55"/></g><g fill="#000" font-family="Arial" font-size="12px" id="mylayer-label" stroke="none"><text text-anchor="middle" y="579.075097246"><tspan dy="0" x="464.940612244"><![CDATA[French Island]]></tspan></text></g></svg>