<?xml version="1.0" encoding="utf-8"?><!DOCTYPE svg  PUBLIC '-//W3C//DTD SVG 1.1//EN'  'http://www.w3.org/Graphics/SVG/1.1/DTD/svg11.dtd'><svg enable_background="new 0 0 1000 1001" height="1001px" pretty_print="False" style="stroke-linejoin: round; stroke:#000; fill: none;" version="1.1" viewBox="0 0 1000 1001" width="1000px" xmlns="http://www.w3.org/2000/svg" xmlns:xlink="http://www.w3.org/1999/xlink"><defs><style type="text/css"><![CDATA[path { fill-rule: evenodd; }]]></style></defs><metadata><views><view h="1001" padding="0" w="1000"><proj flip="auto" id="robinson" lon0="-89.8177415673"/><bbox h="0.23" w="0.26" x="-1247.28" y="-610.1"/></view></views></metadata><g class="" id="mylayer"><path d="M617.555144,116.177093L560.734135,297.714933L590.490368,298.435840L545.564215,439.602188L576.471471,441.240606L594.901598,383.371647L620.833099,381.340005L634.043028,346.277792L844.923513,348.506046L938.956143,60.142670L697.140670,56.210426L677.939416,117.553376L617.555144,116.177093Z M1000.000000,647.352972L888.021297,612.749769L799.991345,611.897796L801.947756,605.475228L806.768155,586.666273L815.705337,557.764688L819.922262,542.756826L823.500830,526.045008L554.830954,527.748959L485.805127,527.093593L446.875013,643.158646L393.663064,648.467090L333.847797,652.923560L28.691657,675.402514L6.562647,746.116098L0.000000,767.087663L106.359275,766.891054L55.836572,934.990812L53.502912,942.789574L85.172047,912.380949L174.794982,849.597544L230.100294,822.793322L234.484391,820.696170L291.601569,801.887326L323.267775,791.401555L352.280068,779.015235L362.511239,773.379130L418.043212,742.446073L453.770489,739.234801L482.834100,743.363579L489.853398,749.523978L499.424076,757.912605L502.751357,767.022127L509.375531,766.956590L560.418977,766.366765L905.110371,772.592696L910.092633,757.519388L911.485530,757.322779L927.188160,755.815448L938.724903,753.325075L945.669718,749.851659L950.107544,746.050562L968.006156,743.822332L1000.000000,647.352972Z "/></g><g fill="#000" font-family="Arial" font-size="12px" id="mylayer-label" stroke="none"><text text-anchor="middle" y="524.807879653"><tspan dy="0" x="592.483198818"><![CDATA[N]]></tspan></text></g></svg>