<?xml version="1.0" encoding="utf-8"?><!DOCTYPE svg  PUBLIC '-//W3C//DTD SVG 1.1//EN'  'http://www.w3.org/Graphics/SVG/1.1/DTD/svg11.dtd'><svg enable_background="new 0 0 1000 1001" height="1001px" pretty_print="False" style="stroke-linejoin: round; stroke:#000; fill: none;" version="1.1" viewBox="0 0 1000 1001" width="1000px" xmlns="http://www.w3.org/2000/svg" xmlns:xlink="http://www.w3.org/1999/xlink"><defs><style type="text/css"><![CDATA[path { fill-rule: evenodd; }]]></style></defs><metadata><views><view h="1001" padding="0" w="1000"><proj flip="auto" id="robinson" lon0="-92.1758138774"/><bbox h="1.03" w="0.49" x="-1267.95" y="-646.94"/></view></views></metadata><g class="" id="mylayer"><path d="M661.709918,0.000000L655.905723,0.049347L583.740056,0.477026L558.096826,63.001300L557.212812,65.090412L527.599008,64.975264L495.451777,64.860116L478.524773,107.531138L471.681983,124.540590L533.105967,126.333665L517.825764,164.498587L508.811360,186.986634L487.913363,186.164096L475.701653,185.703476L451.577402,184.765784L442.916621,198.617350L437.028960,208.010808L431.194985,221.220950L407.567983,208.290474L394.939032,223.260881L381.695275,248.743740L357.812746,243.528692L345.196772,276.645305L340.093190,276.332726L337.740639,282.699471L337.316384,284.015596L337.979661,283.949790L342.460729,283.834629L351.071585,285.167207L358.846933,286.713656L360.167560,286.976882L369.793235,289.477527L372.686621,290.234302L378.465747,292.109788L378.610084,292.192046L381.551391,293.606888L386.011193,298.542392L387.523243,300.417886L390.051697,302.095962L393.953635,303.774039L400.992818,305.139534L401.643878,305.221793L409.059509,306.011477L411.264320,306.225350L413.851766,306.488578L421.599043,307.245359L424.178958,307.492136L426.223754,307.706009L426.484647,307.722461L432.491598,307.969238L434.644909,307.837623L439.044875,307.574395L443.653007,307.212456L450.325176,306.669547L460.339684,306.291157L468.244346,306.110187L470.431857,305.995025L478.547636,305.517924L479.380192,305.501472L496.064412,305.040823L498.704082,305.155985L500.166733,305.583731L501.236163,306.521482L501.313221,306.718903L501.552636,306.834065L500.575669,311.457018L495.876833,324.289470L486.047423,348.457485L480.490953,363.988349L474.121047,380.654552L470.787399,389.390792L469.543090,393.109053L457.484166,424.665200L441.852525,469.877920L435.906251,487.087986L391.095563,488.157450L376.643373,525.868775L376.871186,526.773725L377.112316,528.057108L377.399839,529.208862L377.704156,530.804867L377.646657,532.746399L377.417555,534.342406L377.329952,535.461257L377.131053,535.987776L376.608004,537.320526L375.654155,538.702638L374.350673,540.282197L373.246675,541.220060L372.444766,541.944025L371.978003,542.322461L370.566700,543.375502L369.613470,543.885568L368.354089,544.658896L367.532407,547.028241L366.750738,549.397588L366.491536,550.170918L365.963286,551.404955L365.803246,551.783393L365.600877,552.244100L365.125962,553.856577L364.718321,554.975439L364.772236,555.238701L365.173422,556.900542L365.013939,558.299122L364.940287,558.924370L364.874756,559.450895L364.448561,560.849476L364.006129,562.445506L363.611244,564.057992L363.579343,564.716149L362.961231,566.394452L362.355307,567.546229L361.843315,568.582829L361.611379,569.240989L361.370745,570.113050L360.914999,570.952203L356.465999,584.296439L354.937020,585.267231L353.287440,586.353203L344.386959,609.454929L329.623444,647.760955L321.704502,668.345816L344.616062,669.102737L361.895688,669.530562L379.169521,669.974843L380.365721,670.024207L381.569460,670.090026L412.286181,670.912768L369.666349,784.651851L367.498393,790.164546L348.501244,840.026331L341.287132,839.795944L340.957210,839.861769L270.048468,838.035127L269.857805,838.462989L267.029991,845.736655L265.967250,848.451945L264.512811,852.203988L263.397938,855.067393L268.409751,855.264870L274.623630,855.495259L277.370475,855.610454L283.571018,855.840843L284.961549,855.906668L288.622844,856.038319L293.674670,856.235796L298.732291,856.416816L303.269775,856.597836L306.075763,856.696574L307.432188,857.124440L306.225332,862.522142L305.031843,867.919858L303.676821,874.041676L302.220510,880.640753L300.493824,888.424730L298.504335,897.410078L296.589025,906.033418L288.807549,941.136061L284.448123,960.835285L284.861578,960.835285L301.176017,961.016315L315.639552,961.378374L321.281901,961.641690L329.035045,961.970835L327.531775,969.804503L346.415265,990.162310L356.135542,993.239862L358.454332,991.577654L360.117480,990.376257L362.192478,992.022007L367.595500,996.300962L375.260641,996.728858L392.364277,997.699853L413.286637,999.000000L421.566248,980.435959L422.454245,978.329412L427.014872,966.430756L435.480536,966.364927L454.829947,966.183896L455.431879,966.216811L501.301240,966.513042L504.469721,966.529499L506.469084,966.381384L506.327285,965.723092L505.816427,963.270958L503.338933,951.323021L503.197674,950.549534L502.850586,948.541762L502.414540,945.990906L501.677795,940.049894L500.788634,932.874624L500.650345,924.020771L499.815642,914.985932L499.966522,909.555174L501.517757,902.495211L502.703779,894.085824L506.504673,883.059872L511.271883,874.025219L513.554754,870.684547L516.285030,868.232531L521.921397,863.624723L526.797571,859.016925L528.368360,857.206722L530.040061,853.783797L534.354511,847.892430L539.990924,843.284670L544.318562,840.273175L550.112325,836.241399L554.848410,833.888162L559.203685,830.267803L563.760600,827.931030L576.255890,818.880173L583.945537,814.009183L586.054120,812.906630L589.089150,811.293941L596.474233,805.962203L603.222784,801.074789L607.657031,797.684873L612.410700,794.031669L624.557063,787.070852L626.384377,785.820212L623.532096,785.853123L621.508434,785.918947L509.486282,788.025289L493.484763,788.321494L494.763621,785.030334L508.147287,750.506400L515.742417,730.908000L525.093373,706.817539L527.871242,699.725390L536.296102,678.152907L538.110241,673.380994L548.210460,645.161124L559.750184,613.387515L560.244648,612.021805L565.623080,611.972442L570.795677,611.939533L576.174109,611.890170L581.312494,611.840807L586.391739,611.807898L591.596803,611.758535L597.361977,611.709172L608.905659,611.610446L625.919947,611.314268L674.189534,610.689004L684.953931,610.606732L688.832941,610.573823L691.062869,605.341354L692.766625,602.511220L707.662892,563.103663L718.675154,534.572758L720.199861,530.623876L727.132526,512.689473L736.602062,488.124543L734.942668,488.140997L653.023544,489.161102L648.003614,489.177555L634.398545,489.374995L633.688871,489.194008L638.507400,476.656628L641.843996,466.356950L654.945919,427.330549L679.219997,366.604259L720.763146,252.494634L732.070641,221.681580L734.298666,215.742761L716.479820,215.792114L686.122554,215.890820L686.322807,215.134074L687.470757,211.350350L688.326235,208.471434L683.794273,208.504336L679.395656,208.537238L679.142302,208.537238L664.415341,208.553689L665.376167,204.506763L665.578779,203.667768L663.624431,203.651317L587.268054,202.943928L638.055584,64.448873L656.265539,15.083935L657.105075,12.781037L661.709918,0.000000Z M662.945982,214.722799L663.322177,213.127054L678.002601,211.843879L676.926739,214.969564L676.595982,215.907271L662.663251,215.940173L662.945982,214.722799Z " data-aland="8987566" data-awater="2223" data-classfp="C1" data-funcstat="A" data-geoid="2977002" data-intptlat="+38.4918070" data-intptlon="-092.1824848" data-lsad="47" data-mtfcc="G4110" data-name="Wardsville" data-namelsad="Wardsville village" data-pcicbsa="N" data-pcinecta="N" data-placefp="77002" data-placens="02400093" data-statefp="29"/></g><g fill="#000" font-family="Arial" font-size="12px" id="mylayer-label" stroke="none"><text text-anchor="middle" y="506.965432036"><tspan dy="0" x="511.483729435"><![CDATA[Wardsville]]></tspan></text></g></svg>