<?xml version="1.0" encoding="utf-8"?><!DOCTYPE svg  PUBLIC '-//W3C//DTD SVG 1.1//EN'  'http://www.w3.org/Graphics/SVG/1.1/DTD/svg11.dtd'><svg enable_background="new 0 0 1000 1001" height="1001px" pretty_print="False" style="stroke-linejoin: round; stroke:#000; fill: none;" version="1.1" viewBox="0 0 1000 1001" width="1000px" xmlns="http://www.w3.org/2000/svg" xmlns:xlink="http://www.w3.org/1999/xlink"><defs><style type="text/css"><![CDATA[path { fill-rule: evenodd; }]]></style></defs><metadata><views><view h="1001" padding="0" w="1000"><proj flip="auto" id="robinson" lon0="-90.2936673766"/><bbox h="0.45" w="0.38" x="-1240.86" y="-649.76"/></view></views></metadata><g class="" id="mylayer"><path d="M430.419313,0.000000L430.227582,0.636871L429.635064,2.510021L429.426010,3.109430L419.738052,32.630400L390.645895,121.194618L380.942015,150.678995L379.479721,154.088257L378.506813,158.621457L378.413821,164.465919L378.757302,168.099981L379.401106,175.143325L398.881043,191.440474L405.344013,196.872871L405.790784,197.247519L407.131097,198.371465L407.560541,198.708648L423.900289,212.420808L472.855377,253.482637L489.178388,267.157518L472.246280,285.478185L421.346229,340.478155L404.397127,358.761690L395.144028,369.439613L388.368353,377.195175L367.441421,401.398619L365.133574,404.096225L358.201502,412.039188L344.949119,423.728860L305.231311,458.685678L291.974763,470.300551L278.959453,484.013638L278.385829,484.613118L237.601995,527.513655L223.995928,541.788957L219.087014,550.031937L211.625868,562.546311L204.421189,574.760977L199.512366,583.004024L194.999104,590.722529L188.251085,602.150439L181.368263,613.878132L176.807356,621.559227L175.007311,624.631669L171.794208,630.102121L156.776745,655.581034L156.137646,656.630169L152.355065,663.037393L151.746360,664.086531L148.007242,670.456297L136.798747,689.453250L133.042348,695.785587L129.429359,701.968057L113.269198,729.245973L109.695445,735.316084L107.447783,739.063070L104.369722,744.233918L104.301764,753.151771L104.223303,758.959627L104.138906,766.790879L103.995546,777.844585L103.794716,790.284725L103.662707,798.078567L101.388213,802.949726L95.156294,816.214296L94.560498,817.488296L92.220971,822.284537L86.024223,835.099521L80.292779,847.015245L79.388197,849.001202L77.426878,853.235416L76.674458,854.959080L75.752543,856.907570L140.414694,867.062217L168.426787,873.807015L190.702210,876.429995L193.272287,876.729764L209.626144,878.640794L201.482220,889.020323L197.956286,895.652744L195.741893,901.835518L193.109476,909.741990L192.094399,914.575811L191.620241,915.849843L189.058160,922.594722L183.035116,930.201461L164.892246,953.059234L158.851926,960.628557L155.825665,966.961319L149.038398,981.125757L146.760021,985.922192L144.599110,990.381383L143.716477,992.217521L147.362859,993.266744L158.210835,996.414413L161.826830,997.463636L163.528810,997.463636L163.993279,997.613526L169.193800,999.000000L192.703376,975.130222L201.006248,966.736487L234.548107,932.824477L269.402317,897.676196L278.005160,888.945380L304.587029,862.190981L339.354929,827.118255L388.005221,778.106877L411.854824,754.051051L423.147478,742.660181L435.517726,730.182718L485.759486,679.486396L520.906839,644.115503L550.762179,613.990538L563.232750,601.401067L578.723208,585.814158L607.040771,557.225824L634.372082,529.724263L647.877072,516.085957L671.380568,492.331434L709.201826,454.264542L718.874431,444.560539L753.824745,408.367439L786.066882,376.370912L815.119716,347.596735L835.251775,327.589811L860.824279,302.262837L888.582678,274.763020L924.247457,237.484958L921.436031,235.611698L912.940993,229.991922L910.099190,228.118665L909.261844,227.556689L906.758599,225.758363L905.903925,225.158921L895.240728,230.553899L877.945084,239.283289L884.614732,242.467835L879.764495,248.012697L870.876767,258.165810L853.666724,277.460541L835.518671,269.367983L787.615261,238.271728L785.801946,236.848050L780.362011,232.577018L778.561763,231.115877L763.596437,222.873551L718.670457,198.146676L703.688061,189.866953L701.960395,189.679629L696.803523,189.042728L695.058530,188.817940L688.141130,181.812036L667.367555,160.682003L660.432973,153.638684L658.415564,152.364894L657.469771,151.765463L652.515291,148.543525L648.493277,146.220734L645.443184,144.422445L642.514649,142.624157L633.737863,137.116904L630.792015,135.281155L605.177572,119.321412L603.037546,119.096628L602.179774,117.373279L600.939734,115.874716L599.434444,114.788258L582.869836,104.860292L584.100679,102.724846L584.535481,102.087959L585.444277,100.701793L547.693656,75.188934L521.356680,57.730889L503.634680,46.679162L482.398813,33.417129L448.127789,11.089061L430.419313,0.000000Z "/></g><g fill="#000" font-family="Arial" font-size="12px" id="mylayer-label" stroke="none"><text text-anchor="middle" y="470.106290077"><tspan dy="0" x="456.31993864"><![CDATA[N]]></tspan></text></g></svg>