<?xml version="1.0" encoding="utf-8"?><!DOCTYPE svg  PUBLIC '-//W3C//DTD SVG 1.1//EN'  'http://www.w3.org/Graphics/SVG/1.1/DTD/svg11.dtd'><svg enable_background="new 0 0 1000 1001" height="1001px" pretty_print="False" style="stroke-linejoin: round; stroke:#000; fill: none;" version="1.1" viewBox="0 0 1000 1001" width="1000px" xmlns="http://www.w3.org/2000/svg" xmlns:xlink="http://www.w3.org/1999/xlink"><defs><style type="text/css"><![CDATA[path { fill-rule: evenodd; }]]></style></defs><metadata><views><view h="1001" padding="0" w="1000"><proj flip="auto" id="robinson" lon0="-86.067680016"/><bbox h="1.45" w="1.65" x="-1206.43" y="-573.37"/></view></views></metadata><g class="" id="mylayer"><path d="M1000.000000,71.223062L950.899496,70.079468L942.002704,70.059046L915.320933,69.967150L906.418531,69.936518L899.417822,69.987572L894.918427,70.007993L878.464846,69.875254L871.487215,69.813990L869.636139,69.793569L863.655858,69.803780L851.565376,69.803780L840.133100,69.875254L833.330266,69.916097L832.296005,69.885465L832.041647,69.885465L831.281442,69.875254L831.029953,69.865044L825.872482,69.783358L810.405807,69.517881L805.242727,69.425985L788.316964,69.344299L737.548290,69.068611L720.616922,68.976715L709.990372,68.986926L707.955509,68.986926L707.692672,68.986926L705.920646,68.986926L705.742595,68.986926L679.540864,68.997136L668.922792,69.007347L655.992932,69.007347L655.133594,69.048190L654.085118,69.037979L652.030558,69.017558L649.331887,68.935872L648.583031,68.915451L648.404981,68.915451L647.831306,68.905240L646.494427,68.925662L645.533476,68.935872L645.434602,68.925662L645.219898,68.905240L644.686139,68.813344L641.380794,68.507024L627.924479,68.690816L627.687078,68.690816L627.509028,68.690816L626.952310,68.680605L626.768651,68.670395L623.106160,68.609131L619.522846,68.537656L613.163114,68.721448L612.044070,68.690816L608.390320,68.568288L607.019789,68.527445L605.776437,68.486602L602.891107,68.435549L601.509227,68.404917L601.271827,68.404917L589.348316,68.353864L581.961116,68.241546L579.674898,68.200703L573.291964,67.863751L564.510749,67.914804L551.311030,67.577852L536.960965,67.261320L523.560902,66.852893L521.955842,66.801839L518.273397,66.781418L511.825252,66.495519L504.139102,66.240251L502.652744,66.189198L498.202149,66.036037L496.698966,65.954352L486.411088,65.423395L485.125346,65.382553L450.252646,64.147057L438.627508,63.728418L436.077189,63.330200L428.415022,62.115125L426.039886,61.727118L425.853358,61.727118L425.305121,61.716907L423.634976,61.686275L423.069783,61.676064L417.821947,61.584167L402.078444,61.308478L397.955389,61.226792L396.825002,61.206370L391.930398,61.124685L378.021008,60.869416L377.235371,60.859206L372.335161,60.767309L367.847529,60.685623L354.376159,60.440566L349.882921,60.348669L344.685962,60.256772L329.083874,59.960661L323.881310,59.858554L322.278861,59.858554L317.480127,59.827922L315.872071,59.817711L310.946159,59.787079L300.639364,59.715603L296.151467,59.695182L291.219948,59.654339L290.179685,59.705393L287.059032,59.827922L286.016033,59.858554L285.818155,59.868764L285.210434,59.889186L285.006948,59.889186L284.758199,59.899397L283.997864,59.919818L283.743507,59.919818L282.075830,59.970872L277.078541,60.103611L275.405257,60.144454L271.417730,75.470692L259.434053,121.438276L255.441898,136.753693L255.178826,138.111652L254.369926,142.165103L254.101253,143.512848L250.593309,158.041868L240.073684,201.617898L236.561022,216.136161L236.161882,217.616567L234.958864,222.047566L234.554123,223.517757L232.507907,231.522103L230.878598,237.862252L227.194809,252.206613L226.349963,255.514475L225.735049,257.913692L230.416088,257.791179L248.784291,257.934111L263.645099,258.036205L254.899654,288.041411L239.478147,288.153712L225.215563,288.245596L226.584660,283.222649L227.192427,280.486565L227.391277,279.567730L221.432128,279.138940L219.197105,278.975592L218.289566,279.036848L218.234800,279.292080L217.260049,283.273695L217.196932,283.498299L216.272433,283.559554L216.608098,283.722902L217.366963,284.070017L217.584046,284.202737L217.888536,284.386504L217.569065,285.764752L217.040997,288.368106L215.833487,295.320572L215.069571,298.914198L214.893814,299.720721L209.029096,324.304156L207.926967,328.377537L204.281325,342.710850L203.393768,346.171651L202.151679,351.316900L214.316919,351.327108L212.532811,357.707601L212.134894,358.942861L235.992719,359.831023L303.836748,361.433796L304.219946,364.537250L304.427892,366.242106L328.289676,366.875046L324.415720,380.666947L344.183221,380.993622L333.868034,419.683784L347.347352,419.847118L357.579369,400.594036L375.969653,400.420492L368.181159,430.147317L361.259619,435.710825L344.044576,435.261661L338.661353,434.894164L335.908891,431.137520L327.156075,418.673156L314.936289,401.706760L313.991509,402.594897L300.558163,402.268226L298.112943,412.272498L280.728729,411.762077L285.665468,392.253682L268.018822,392.376184L256.773713,434.465417L215.319744,434.240835L214.531124,434.240835L179.798210,434.873748L196.743022,369.723272L195.952932,370.784975L195.243769,371.407705L193.169026,372.816501L189.233519,375.144076L171.922409,385.934583L170.638756,386.730852L167.722295,388.690897L166.676072,389.487165L164.576526,391.436998L163.886697,392.172013L163.474698,392.702857L163.287153,392.947862L162.711436,394.121843L162.402202,395.101862L162.242486,396.153339L162.404628,397.296692L162.743958,397.960245L163.268356,398.991303L163.603189,399.369017L165.993832,403.023653L167.991289,406.055565L168.380766,406.902866L168.671109,407.801209L168.831514,408.679134L168.906999,409.587684L168.817763,410.690194L167.738862,416.100646L167.239408,417.999404L166.892800,419.142741L166.056457,421.878580L165.665324,422.848372L165.146873,423.848789L164.529656,424.808372L164.291118,425.083996L163.910554,425.533163L162.483421,426.870452L161.130720,427.972949L158.242000,430.075858L155.492928,431.892933L154.821063,432.382930L147.810748,437.415602L144.070744,440.345365L138.148545,444.704270L136.747471,445.888420L135.904666,446.715283L135.038311,447.776933L133.077070,450.502513L132.013360,452.146026L130.638459,454.565354L129.745633,456.596771L129.317493,457.637998L127.479393,462.098936L124.794453,469.122079L123.522954,468.999583L122.076609,468.775006L120.887894,468.448349L119.750058,468.121691L118.262775,467.529625L114.265192,465.579887L110.502432,463.579107L110.135783,463.374945L107.086259,461.853942L107.002497,462.303097L106.725772,463.650563L106.633531,464.099718L101.032346,484.434055L98.319417,494.274471L55.817614,494.305095L38.914138,494.315303L38.046818,495.621910L34.708174,497.847221L33.231633,498.816967L30.977555,499.837750L25.759630,501.236223L20.628956,503.441111L19.841845,503.767761L15.919534,505.625580L14.220211,512.883305L13.987735,513.771379L12.587164,519.120226L11.169147,525.316292L8.105094,538.218727L8.059225,538.382049L6.063336,546.364356L4.799709,551.437489L2.344560,561.236653L1.139062,566.646581L0.000000,571.699234L0.000000,571.699234L15.293307,570.086470L32.501095,568.269556L36.421350,568.381837L38.390916,568.555363L40.418656,569.035110L45.621719,570.015018L58.771430,573.015983L59.299598,573.128264L63.209370,573.761119L66.008470,574.332731L69.432982,575.455538L72.308912,576.629382L76.585810,578.823956L77.228777,579.222041L87.175511,585.264758L91.138453,587.520564L91.519244,587.734917L95.685728,589.990719L96.370990,590.419423L97.730521,591.195173L101.792279,593.491799L103.146202,594.257340L107.250263,596.584583L109.850627,598.136077L122.889206,605.913935L126.632362,608.016604L129.711001,609.435394L130.077941,609.578294L133.471056,610.813354L136.068530,611.650336L137.448510,612.262762L139.667121,613.120158L144.474621,614.845156L164.269467,621.908439L165.624372,622.428997L170.019367,624.113157L172.516829,625.246135L174.100481,625.827935L175.638521,626.511804L177.234547,627.563125L178.141944,628.318443L179.214594,629.482039L179.524242,629.829077L180.785067,631.319295L181.636086,632.789099L182.199804,633.983313L182.812231,635.759322L189.599722,653.121236L191.011029,656.734449L192.897066,661.164197L191.701567,661.858258L190.990479,662.276735L190.517413,662.542111L189.151963,663.328032L188.168930,663.899611L187.888392,664.083333L187.060874,664.644704L185.764433,665.879721L185.494673,666.206337L184.586039,667.298458L183.876910,667.951689L183.172231,668.166031L178.900702,668.972362L176.892429,669.298977L172.047197,670.064482L170.912647,670.329856L169.364394,670.860605L168.982088,671.044326L167.874257,671.728176L166.794052,672.585539L165.727151,673.667449L165.326525,674.218611L164.841806,675.341347L164.227539,677.862396L163.958645,679.485255L163.720322,680.485507L163.071314,682.465596L162.632437,683.425020L162.126168,684.261964L161.981207,684.476303L161.549302,685.078494L158.461898,689.038658L156.669195,691.467825L146.542934,706.185644L142.566452,705.154789L139.840457,703.082870L135.412562,700.276079L130.026374,697.469283L127.227664,693.662239L127.122540,693.039638L127.409862,691.018736L127.231922,689.446921L124.732578,684.966221L123.571044,684.119071L121.201382,683.557706L120.239500,682.996341L119.080242,681.536792L118.055243,678.178802L115.519921,675.035146L114.179026,673.014221L112.336303,671.391355L110.583564,670.656471L107.575374,670.768745L105.193160,672.064997L101.717511,672.452852L96.067766,674.422745L93.974218,674.871839L86.027613,677.229582L85.048454,677.515369L81.813714,679.250502L79.802331,679.648562L76.445198,681.608238L72.444564,683.292334L70.319497,683.853699L68.852024,684.700849L66.046326,685.088700L61.760683,687.395395L59.694977,687.956758L58.697828,688.518121L57.231738,689.753119L55.550101,691.937328L54.943061,692.498690L54.553826,695.305495L53.927232,697.326391L53.841084,698.449110L54.302520,699.796372L54.800606,700.408764L55.974282,701.031361L57.718857,703.215555L59.119557,703.603402L60.312610,704.338270L60.791330,704.838388L61.418737,706.410187L62.787930,706.910304L63.374037,707.420628L64.109514,708.818915L63.663239,711.013304L63.655779,713.034180L62.680367,716.902416L64.101007,722.628203L65.023195,725.537018L68.099055,728.568303L70.404304,729.752238L71.547917,730.874934L72.103159,732.099692L71.845993,733.620432L72.013317,735.018696L72.738966,736.029119L74.087362,736.815003L74.760676,738.223469L75.708285,738.835846L76.907947,738.550070L77.868468,738.723577L79.214633,740.121835L79.513573,741.867105L78.392840,747.643833L77.902300,749.603425L77.132676,751.348684L76.675844,753.369508L75.702881,755.839401L75.633980,757.686715L75.579565,757.880632L74.228437,762.514216L74.009315,764.473789L74.549376,767.566236L77.591730,772.107937L77.595763,775.690258L77.859878,776.139323L78.644966,776.363856L80.154567,776.363856L82.457727,778.160115L83.217153,778.445884L84.227810,779.619575L84.440054,783.487646L84.156226,785.375752L83.979674,786.518820L83.743239,790.958407L84.042980,794.091625L83.783741,796.224659L82.385682,800.602983L82.636760,803.123831L81.776399,805.767144L81.557192,808.573747L81.913666,810.084207L83.181268,812.155985L87.190209,813.676647L88.337643,815.360601L88.686886,817.320108L88.625282,821.137058L88.845504,822.014751L89.497806,824.617210L89.132050,828.913810L87.645080,835.302556L87.704502,836.088391L86.759706,839.456248L84.930960,848.998471L84.004334,860.102076L84.210713,864.143442L84.238591,864.255702L84.724702,866.725421L86.034673,868.858356L87.956686,870.593278L91.688904,872.889495L92.899468,874.348866L95.445798,878.665741L97.690120,883.666361L98.165599,885.962558L97.672237,892.922568L96.902157,894.881979L94.815156,897.514934L94.299193,898.749767L94.213338,899.872342L95.301386,899.984600L96.632861,900.831633L100.335839,902.627751L106.204215,904.474892L110.097481,905.199461L112.627147,905.372949L114.397433,906.046492L117.368950,908.454914L119.225272,910.424510L119.761444,911.536872L119.556878,912.659438L119.320901,913.047234L118.024618,915.129081L116.499550,917.149695L114.318263,921.752194L113.912600,922.987009L112.602233,925.058638L110.930343,927.028214L110.103061,928.375280L109.971414,928.844712L109.144338,931.793965L109.284257,934.712598L110.699068,939.345661L112.302404,936.743391L116.222676,932.865492L134.340721,914.894363L140.382966,908.893736L140.953098,908.342657L141.792818,907.495628L142.646639,906.658803L143.205534,906.087313L146.849746,903.587040L148.708482,902.372621L164.547191,893.738990L168.269653,891.504035L169.649841,890.514123L171.826926,888.799634L178.104381,883.472459L179.936601,881.747757L181.511418,880.063875L184.461000,876.502202L188.113869,871.491354L195.185055,862.275843L206.238629,848.447371L207.024940,847.518665L208.342707,845.783718L211.048745,842.364846L213.769635,838.741854L217.096619,834.802479L222.436759,828.342291L228.725863,821.341173L230.644233,819.248996L232.621760,817.218051L233.886746,816.034182L235.191168,814.891135L235.990634,814.248171L238.439596,812.411129L243.166938,809.012597L245.284178,807.451106L250.392023,803.572888L252.528982,802.031804L256.269744,799.429307L260.385282,796.367541L262.139417,795.163245L263.921643,794.009977L267.392158,791.887146L270.915777,789.937813L274.277504,788.202802L281.206068,785.089985L285.617749,783.028377L289.548447,781.079033L293.241679,779.129687L295.776488,777.802905L297.648600,776.812921L301.928522,774.434915L303.364490,773.669462L305.893787,772.301852L307.723494,771.311864L309.652432,770.240228L311.459882,769.148178L313.236488,767.984685L314.730038,766.923252L317.196078,765.055537L320.124786,762.657102L323.640621,759.707531L324.409032,759.054338L330.691692,753.920642L335.404369,749.878992L338.883214,747.000841L343.172987,743.438867L352.754112,735.284059L358.814318,729.915539L361.519582,727.557875L364.264279,725.241034L365.766866,724.026476L373.689964,717.882231L375.110064,716.810558L377.051770,715.330627L380.416113,712.860670L383.819888,710.431536L392.497129,704.470954L392.913886,704.134140L392.995391,704.266824L393.242771,704.654671L393.318659,704.777149L393.859982,704.389302L404.405911,696.816064L407.008113,694.825787L408.014542,694.019468L413.988033,689.201963L415.953314,687.456635L428.089974,676.178294L435.525133,668.962156L439.892862,664.971320L442.561500,662.593145L444.132285,661.286678L446.099234,659.867936L450.071233,657.438719L454.799767,654.519571L465.172191,648.048433L469.301586,645.088440L478.931171,637.668019L480.240823,636.657533L483.675028,634.422212L492.084148,629.145209L494.988925,627.134431L502.072797,621.714505L504.797182,619.560819L506.861402,617.825620L514.076619,611.272674L519.850784,606.107871L523.435606,602.882412L529.969191,597.217429L532.626757,594.788115L533.035044,594.451277L533.403905,594.073610L536.265675,591.460561L542.694207,585.928231L542.901159,585.764915L547.279107,582.100501L548.745519,580.742930L550.169643,579.354736L552.417422,576.904979L558.429791,570.015018L562.360678,565.707501L564.043437,563.941619L565.799428,562.247188L571.150293,557.684463L572.080435,556.878074L574.573942,554.489527L575.734632,553.254422L577.596955,551.090434L580.071515,547.711749L580.452182,547.201373L581.591321,545.680451L581.966374,545.159867L583.156282,543.669566L586.090488,539.831524L587.251983,538.382049L589.042939,536.411985L590.901510,534.503163L594.759955,530.695722L599.355473,526.316643L603.793881,521.621112L610.919870,514.812568L614.920560,510.770300L618.549629,507.085294L623.789899,501.889523L627.750277,498.051378L635.214737,490.701713L641.430019,484.811748L647.303588,479.595487L649.602937,477.747844L653.954339,474.420040L669.068405,463.140159L674.878955,458.903803L681.031452,454.687852L683.888311,452.666641L687.856751,449.706277L688.988040,448.787542L694.727147,443.264914L700.773396,437.252270L705.683876,432.597304L706.092415,432.199181L710.745182,427.676908L712.756364,425.798579L715.904693,422.950455L719.251273,420.000243L720.539121,418.795657L724.056699,415.477935L728.779035,411.251657L732.924822,407.750167L739.607727,401.584258L744.105462,397.705032L748.575600,393.652251L752.083444,390.671357L755.605970,387.547538L756.156977,386.853355L758.589960,384.076620L764.544104,377.063301L767.110616,374.113002L770.080304,370.693097L776.937227,362.669053L779.235638,359.616639L784.776307,352.838011L787.781731,348.958663L791.497858,344.027793L795.046920,339.178579L798.587876,334.237469L799.989095,332.236519L804.363548,325.927384L806.936472,322.078596L810.060446,317.535583L810.188352,317.351821L811.968181,314.666843L814.694841,310.542381L816.445780,308.020737L817.804161,306.142263L819.682658,303.528729L819.827526,303.344965L822.790563,299.496120L825.241612,296.474209L825.587957,296.086260L828.302232,292.972459L832.732592,288.306851L839.324039,281.772934L841.423497,279.761707L844.836087,276.607036L846.983558,274.606011L850.847965,270.838770L851.406779,270.328303L852.649212,269.195065L856.000076,265.928070L865.861718,256.535419L873.682539,249.337751L877.938485,245.202906L882.655908,240.874068L887.927884,235.687614L890.059161,233.502764L891.600689,231.787553L894.213317,228.673623L895.301374,227.274904L897.404168,224.436625L901.444643,218.351664L906.069842,210.939414L906.976744,209.612148L904.711117,205.089225L904.582433,203.343352L905.503953,200.484610L908.845022,196.165856L909.757222,193.521507L909.945191,192.459683L909.217265,183.699600L909.570414,181.626985L910.195049,180.218015L911.518198,178.706943L913.716037,176.858941L914.849073,176.236133L916.934560,174.214559L917.733034,173.152721L918.965638,170.967782L921.361249,165.638153L923.432763,162.881441L925.029216,160.185985L926.632541,157.888717L929.197429,153.345222L932.436122,146.432957L933.000700,145.207737L933.560919,144.360293L936.524114,139.878019L939.694056,134.599333L940.307399,133.200530L941.418875,131.628150L944.592828,128.146447L947.831239,126.186072L950.425513,124.164432L952.159689,122.367416L953.362072,120.682712L955.820439,118.722327L957.837912,116.761939L959.672111,114.005139L961.231280,110.084349L962.246016,108.675313L965.430858,105.305873L968.421825,101.660743L970.743819,99.189810L973.667550,96.780136L976.300066,93.022670L982.487349,87.355823L984.599506,85.058447L988.431128,81.801271L994.694186,74.898896L1000.000000,71.223062Z " data-aland="45256171" data-awater="55928" data-classfp="U1" data-funcstat="S" data-geoid="0182176" data-intptlat="+34.1690042" data-intptlon="-086.0584995" data-lsad="57" data-mtfcc="G4210" data-name="Whitesboro" data-namelsad="Whitesboro CDP" data-pcicbsa="N" data-pcinecta="N" data-placefp="82176" data-placens="02582708" data-statefp="01"/></g><g fill="#000" font-family="Arial" font-size="12px" id="mylayer-label" stroke="none"><text text-anchor="middle" y="383.108883711"><tspan dy="0" x="448.646715894"><![CDATA[Whitesboro]]></tspan></text></g></svg>