<?xml version="1.0" encoding="utf-8"?><!DOCTYPE svg  PUBLIC '-//W3C//DTD SVG 1.1//EN'  'http://www.w3.org/Graphics/SVG/1.1/DTD/svg11.dtd'><svg enable_background="new 0 0 1000 1001" height="1001px" pretty_print="False" style="stroke-linejoin: round; stroke:#000; fill: none;" version="1.1" viewBox="0 0 1000 1001" width="1000px" xmlns="http://www.w3.org/2000/svg" xmlns:xlink="http://www.w3.org/1999/xlink"><defs><style type="text/css"><![CDATA[path { fill-rule: evenodd; }]]></style></defs><metadata><views><view h="1001" padding="0" w="1000"><proj flip="auto" id="robinson" lon0="-79.8256215971"/><bbox h="0.23" w="0.27" x="-1088.11" y="-677.12"/></view></views></metadata><g class="" id="mylayer"><path d="M1000.000000,358.736809L962.757540,314.856551L942.924918,277.488706L933.443747,252.414705L931.395107,251.075806L933.107440,249.858626L938.032614,246.389664L943.713899,242.312116L955.227218,236.226230L954.536887,230.870659L952.527691,214.621409L951.807950,209.205007L951.324115,205.310070L949.872640,193.625282L949.388824,189.730359L949.952432,185.105144L950.977069,177.193603L955.612558,139.522703L957.171528,126.925240L958.485033,120.230952L959.287145,115.788384L961.452821,104.651558L962.346144,100.087294L962.566545,98.991871L965.449231,83.960266L961.232640,85.481681L896.953483,117.857525L874.238479,129.846388L868.386133,132.950109L848.075012,143.600151L826.124989,155.102226L803.771885,166.908623L769.044332,189.121778L692.986804,237.686842L605.249342,296.233447L544.183981,339.078883L481.231516,379.368601L449.628302,398.113799L445.432589,400.609107L419.413845,416.007021L349.296382,449.967836L344.923973,452.098004L323.529236,460.922997L304.844578,468.835075L239.039198,487.824125L231.705850,488.797924L169.484127,496.892644L105.335113,497.075231L73.415885,495.005903L47.776906,493.301751L28.474304,520.203088L9.639484,546.313375L7.439222,549.417406L0.000000,559.581602L1.730448,559.642465L42.359911,576.197377L60.302394,583.501035L83.342612,592.448034L110.005593,601.334188L127.102633,605.959864L136.965610,609.489990L146.069654,613.933082L162.809931,624.645216L167.808373,628.357950L184.266691,640.348279L198.140506,650.512697L203.277776,655.442753L213.618453,676.502069L268.033329,706.447870L290.069697,720.142668L327.146331,716.429852L332.900325,781.252447L318.145836,852.284561L305.149492,884.666356L329.049776,898.179134L366.127507,915.039734L476.028455,860.319118L508.138149,845.102167L487.027672,737.489476L895.790102,551.547624L862.004652,427.144677L1000.000000,358.736809Z "/></g><g fill="#000" font-family="Arial" font-size="12px" id="mylayer-label" stroke="none"><text text-anchor="middle" y="498.961502215"><tspan dy="0" x="561.250580772"><![CDATA[N]]></tspan></text></g></svg>