<?xml version="1.0" encoding="utf-8"?><!DOCTYPE svg  PUBLIC '-//W3C//DTD SVG 1.1//EN'  'http://www.w3.org/Graphics/SVG/1.1/DTD/svg11.dtd'><svg enable_background="new 0 0 1000 1001" height="1001px" pretty_print="False" style="stroke-linejoin: round; stroke:#000; fill: none;" version="1.1" viewBox="0 0 1000 1001" width="1000px" xmlns="http://www.w3.org/2000/svg" xmlns:xlink="http://www.w3.org/1999/xlink"><defs><style type="text/css"><![CDATA[path { fill-rule: evenodd; }]]></style></defs><metadata><views><view h="1001" padding="0" w="1000"><proj flip="auto" id="robinson" lon0="-76.5380583527"/><bbox h="0.57" w="0.7" x="-1034.57" y="-703.89"/></view></views></metadata><g class="" id="mylayer"><path d="M1000.000000,287.538599L996.834328,287.538599L983.433633,287.538599L967.322148,287.515190L922.863762,287.468371L897.868860,287.023588L885.152143,288.287708L874.711965,289.317732L871.919239,289.528419L839.983884,291.822565L770.407890,292.735542L763.010495,292.618494L758.654053,292.524855L757.985534,292.548265L749.471383,293.180326L743.899270,293.508061L732.303512,293.788977L716.818325,294.140122L700.454915,294.725365L681.496580,296.176765L675.988786,296.598140L656.025449,296.925876L644.220306,296.972695L636.546177,296.481091L634.659709,294.491268L630.063222,281.990522L627.250083,275.435843L626.107507,272.486242L619.239125,251.885930L615.516692,242.381741L603.146077,215.976161L600.499884,209.445027L598.096949,201.720048L595.964543,193.222592L594.136068,188.072630L592.828063,182.711997L591.223967,176.976831L590.194235,173.816642L588.496475,167.683544L587.690597,163.329519L587.312496,159.584126L585.182625,152.023128L584.123445,147.505265L580.740999,141.746754L578.989116,140.482692L576.520052,139.991113L575.840331,139.991113L575.228332,139.686802L573.397123,139.148405L571.106754,138.867503L556.875511,136.526650L549.231388,134.841237L530.759748,129.691369L525.822921,128.427312L523.012015,127.303706L516.692339,124.775594L507.123307,121.100472L493.872121,116.793327L482.554824,112.509597L473.432549,108.834489L465.806614,106.376617L459.213872,104.129421L446.102206,99.424359L431.794306,95.140653L429.983442,94.766121L427.837255,94.461815L417.113657,92.753015L401.543582,90.576054L390.615037,89.452461L369.475651,87.041420L343.931031,149.494997L340.584294,157.664614L347.595714,159.326631L353.250640,159.982074L356.705453,161.152509L357.519849,161.433414L364.131649,163.072023L371.696344,164.429729L381.431476,166.466289L392.301795,170.141463L404.736246,174.729585L412.852965,176.063887L419.730561,176.555472L346.389106,390.238315L339.265922,389.559414L238.000688,391.057679L240.890142,408.545293L245.899947,424.581543L251.809294,438.159745L253.217372,442.958951L255.893781,450.848394L256.197810,451.644362L248.149838,461.430110L138.452193,619.855752L132.328104,628.752359L0.000000,819.801368L3.022584,820.433535L40.565293,830.103361L51.450255,832.913001L69.046748,835.582162L82.879957,838.625944L91.359494,839.539079L137.717882,855.437041L181.791277,870.539010L302.592457,911.958580L305.151186,907.697186L310.126802,898.635889L313.640437,892.033099L315.467715,888.919023L318.081094,885.945434L322.055176,880.747513L325.937826,876.532989L337.011890,862.531445L339.438500,858.925707L340.522347,856.326768L341.527556,853.563934L341.985332,849.700654L343.044585,836.565537L343.836229,816.921499L344.648970,808.656523L345.236231,803.646039L344.658773,783.252981L345.282640,780.747758L348.980084,775.175400L356.630795,767.519277L360.843803,763.304905L379.128751,745.183172L391.157732,734.062005L411.490658,713.528923L418.323695,711.374947L435.003637,706.668984L446.609166,703.531678L451.289703,702.478106L454.638923,702.009852L471.641712,701.377709L491.059054,700.839217L522.607227,701.213820L535.443376,700.277313L545.987110,698.287235L561.007985,695.103113L567.239530,693.557878L574.174976,690.888838L580.928588,687.962262L587.249970,684.661088L598.264459,677.660736L602.335568,674.851235L604.757830,673.867910L610.450420,672.697285L618.222917,672.299273L624.981911,672.744110L629.980430,673.446485L636.127018,674.031797L639.995251,674.078622L651.211035,675.108772L655.062662,675.647260L663.630116,675.975035L669.322507,677.192486L675.110362,677.637323L682.569320,678.690887L692.798315,680.376590L702.167997,681.242854L717.403967,683.162683L717.546234,682.811495L720.158072,676.677410L722.314034,676.677410L737.663702,678.105574L740.851189,677.988511L741.504544,677.730974L742.717831,675.928210L743.818712,671.948086L746.111809,665.392599L747.261030,664.994587L750.110128,664.900938L757.958189,664.619989L763.013975,663.215244L764.214435,662.559696L764.721535,662.442634L765.985628,661.272014L768.389524,658.064517L770.235083,655.231621L772.611313,650.104319L775.465656,645.609158L778.169101,642.378264L781.695832,640.458460L783.585223,639.943390L785.292781,639.170787L787.807862,636.478381L790.463827,634.160572L792.623481,632.872902L793.628547,632.498307L795.760140,632.123712L797.156931,631.351110L798.009881,630.578508L798.511116,629.922967L799.523164,627.862697L799.986902,624.538174L801.989161,615.149925L803.698795,612.317068L808.378468,608.711616L808.802498,609.109621L809.140900,611.029406L809.614071,611.286938L811.902689,611.684943L822.422811,611.427411L826.402413,613.487670L827.035889,614.119795L827.502077,616.062996L828.736049,617.865725L829.410477,618.380791L831.551910,618.755384L832.989198,618.755384L839.943185,615.477694L842.233150,613.206725L854.375743,606.534300L858.134586,604.450634L855.462749,595.764802L853.665220,586.634170L853.865006,577.901564L854.161720,575.443328L855.147822,572.235918L855.684407,566.593695L855.529817,553.600231L855.215799,552.055065L855.370029,550.392843L853.796687,543.065029L852.089655,541.004815L851.192977,539.459656L850.021634,535.479705L848.363761,533.279028L844.200841,532.131867L840.266702,525.834196L836.404960,518.108446L835.300646,507.830886L836.443370,500.901161L839.054177,495.493176L840.315639,491.887858L843.057528,486.105312L847.034373,478.403070L852.070340,470.560380L852.607681,469.413242L855.350679,465.292914L864.791266,454.242967L873.131827,443.450578L879.470725,436.380529L882.410634,431.253583L890.733575,419.290742L896.081998,412.220747L901.633765,405.291231L907.184992,399.251328L911.339975,393.094384L922.156548,374.061777L926.558624,368.419907L933.211500,362.895098L936.740409,354.420622L940.965600,348.895837L945.306754,344.260644L952.945280,338.361317L959.824247,332.579050L967.241572,327.311813L975.058757,318.626743L978.932317,314.717298L979.810193,313.429758L980.417706,312.914742L983.968751,311.369694L986.713459,308.022093L992.891381,298.915701L994.822526,295.451065L996.507589,293.133506L997.053187,291.963023L998.620516,289.926383L1000.000000,287.538599Z "/></g><g fill="#000" font-family="Arial" font-size="12px" id="mylayer-label" stroke="none"><text text-anchor="middle" y="503.596386592"><tspan dy="0" x="483.508700899"><![CDATA[N]]></tspan></text></g></svg>