<?xml version="1.0" encoding="utf-8"?><!DOCTYPE svg  PUBLIC '-//W3C//DTD SVG 1.1//EN'  'http://www.w3.org/Graphics/SVG/1.1/DTD/svg11.dtd'><svg enable_background="new 0 0 1000 1001" height="1001px" pretty_print="False" style="stroke-linejoin: round; stroke:#000; fill: none;" version="1.1" viewBox="0 0 1000 1001" width="1000px" xmlns="http://www.w3.org/2000/svg" xmlns:xlink="http://www.w3.org/1999/xlink"><defs><style type="text/css"><![CDATA[path { fill-rule: evenodd; }]]></style></defs><metadata><views><view h="1001" padding="0" w="1000"><proj flip="auto" id="robinson" lon0="-84.7792872219"/><bbox h="1.32" w="1.9" x="-1192.17" y="-560.17"/></view></views></metadata><g class="" id="mylayer"><path d="M194.688829,323.342938L194.547966,323.865116L194.383229,324.475799L194.237592,325.015677L194.348689,325.015677L190.675323,338.193974L188.993430,338.663045L183.823750,338.937408L174.028859,339.362227L170.988396,339.486132L152.044081,339.919802L151.858919,339.919802L156.352844,323.590751L155.906069,323.599602L146.140078,323.670406L132.060656,323.696957L129.315494,323.714658L125.739106,323.546499L124.444879,323.484546L122.593042,325.077630L120.906363,328.529309L116.284771,343.875923L112.481802,355.859288L110.413289,363.143082L107.063073,374.931613L105.111946,381.808220L105.438524,382.684388L107.303806,387.631632L107.752091,388.852954L109.590575,394.366589L108.940551,397.490680L108.262636,400.800617L107.329437,404.535351L106.848523,406.455816L106.624899,407.367372L106.000348,407.376222L102.262588,407.393922L102.017236,408.358579L101.632086,408.358579L97.092505,408.438229L95.872248,413.429652L87.579164,413.695153L85.895722,420.651261L85.662146,421.819460L84.978584,421.854860L84.527017,421.881410L83.984183,421.916810L82.955580,426.801995L82.616171,429.598581L82.040334,429.536632L81.927433,436.244881L81.875196,438.855604L81.860391,439.652095L81.723195,448.510822L76.471156,448.183377L74.865266,448.068329L73.980970,448.024080L72.726084,447.953281L71.110402,447.847083L70.603887,449.395807L70.527025,449.625903L70.327712,450.227693L70.282617,450.422390L68.942223,450.448939L69.257077,449.528555L70.682162,445.342571L68.654172,445.501869L68.243914,445.457619L66.974035,449.342708L66.834877,449.776351L55.076976,448.634720L48.076098,447.953281L39.320707,447.103694L31.725399,446.484204L29.189050,446.139059L25.888643,449.917948L22.825183,453.422485L21.875301,454.555263L15.763807,461.891753L13.832293,464.192697L6.213598,473.520338L0.000000,481.016045L1.324295,481.378883L2.596989,481.768269L17.917512,484.724063L18.793023,484.883358L30.779519,487.210821L36.191778,488.290479L37.077335,488.467473L34.442305,497.361357L40.382930,497.910033L39.661630,498.662250L37.107114,501.653415L34.125919,504.166697L33.185295,504.963159L31.963953,505.839267L31.825818,506.379091L30.222105,512.547230L28.628871,518.511810L25.900585,528.741814L22.910016,539.945195L25.006487,539.971744L27.448207,539.954045L34.384176,539.998292L30.469683,567.298497L29.949377,571.015186L29.998856,571.546141L30.095801,572.395669L28.430059,572.749639L27.452931,576.979572L31.934942,576.784889L28.071432,578.669773L18.058237,583.501437L17.478220,583.784611L16.866189,584.076634L16.686786,584.165126L8.848700,586.120795L8.842322,586.749087L8.836931,586.961467L9.108500,587.218093L9.353078,587.492417L9.790634,588.067613L10.141940,588.660508L10.295750,588.996776L10.429723,589.324195L10.526912,589.678161L10.604517,590.049826L10.672102,590.925892L10.654194,591.899299L10.557079,593.111632L10.505506,593.660279L10.462716,594.093887L10.311229,595.040744L10.272452,595.377011L10.257412,595.872563L10.304522,596.412360L10.351239,596.651286L10.428230,597.217630L10.489650,597.704332L9.815182,601.553695L9.574849,603.022645L16.460229,614.057433L21.676542,622.490548L27.998150,622.039249L28.972781,621.968457L25.144649,638.896518L23.804535,644.887227L29.675466,643.524497L30.777491,638.197454L35.858617,637.126734L34.817731,642.391838L41.380188,641.046804L43.583936,633.967664L46.859929,633.135863L48.931816,632.649171L50.592034,632.233270L49.897685,634.755220L48.814450,638.692993L50.255848,638.374432L50.008995,639.153137L49.714712,640.135367L49.193000,641.604286L48.166274,644.480178L45.840784,652.753872L49.386081,652.709628L50.126408,652.408767L49.585305,654.169688L48.959485,656.877432L48.577102,661.018680L48.407074,662.337153L47.596958,666.416447L46.206365,671.495642L48.996375,671.477944L49.201389,670.716951L54.005436,672.407064L54.426739,672.822955L54.800428,672.398215L55.440358,671.672617L55.587741,671.592978L55.277039,671.123994L51.956182,667.557939L55.508631,665.947461L60.944200,663.478648L61.178593,662.691105L65.985568,662.638012L66.391959,662.531826L67.113722,662.354850L67.264001,662.319455L68.468532,662.275211L69.320142,662.248665L67.973678,667.549091L66.830788,667.584486L66.759113,668.345481L66.633184,668.345481L65.393260,673.168056L66.795673,673.159208L72.817765,673.132661L75.686317,676.645612L75.976855,677.326965L76.720737,676.627915L77.728983,675.689949L77.839404,675.362545L78.053094,674.734285L78.414193,674.796226L80.615447,675.176722L82.109317,675.433335L83.140764,675.619159L83.021579,676.061596L82.897884,676.548276L82.114937,679.592238L81.529331,681.848661L80.920151,684.220113L45.147095,684.804127L44.360211,687.697648L43.146405,692.148528L40.902145,700.342368L40.332219,702.430640L40.029510,703.554413L37.359714,704.005692L31.384091,705.014432L30.040593,705.244496L32.733415,715.323017L33.218652,715.199137L33.676900,715.092955L36.046980,714.544345L36.460781,714.438162L37.208194,713.340942L37.441893,712.995848L37.327746,713.447124L36.981894,714.703618L36.271385,717.313938L32.013339,732.710325L31.700563,734.064139L25.568202,756.503680L23.002452,756.485983L14.161942,791.790536L24.130385,791.772840L28.739725,791.684358L38.724845,791.604725L46.820679,791.498547L50.480462,791.525091L56.203894,791.480850L53.711490,800.187433L53.577819,800.656384L51.047027,808.212672L50.421811,810.672440L49.506501,814.264757L45.897566,828.412757L47.097147,828.359669L52.405554,828.288885L56.072257,828.510085L56.400855,828.527781L60.144261,829.014420L64.839899,829.155988L73.710776,829.253316L74.738114,829.262164L81.433142,829.324100L111.011121,829.580692L123.445278,829.678020L126.972040,829.731108L131.656842,829.775348L131.576654,830.155811L128.298275,841.950139L129.592018,842.675670L132.285859,844.392166L133.623768,845.834376L134.021145,846.312164L135.903269,848.594923L155.035900,829.447972L156.146103,828.350821L163.937756,835.898146L168.188824,831.553792L173.368862,826.262693L188.256298,807.557913L166.766390,802.381769L168.094763,796.621633L168.497880,794.683887L168.736337,793.825615L169.538515,793.790222L195.458737,792.772683L198.879894,792.639961L199.538939,792.613416L200.096916,792.604568L200.760261,791.763992L203.979073,787.897336L204.611194,787.145240L209.537170,781.615109L209.866856,781.243483L219.279979,790.003205L219.908284,790.613729L221.462426,786.463928L224.210598,779.199543L232.420008,757.565481L235.743520,748.770210L236.613828,745.620183L236.743515,745.248551L238.450297,739.019267L238.836760,737.638911L228.862072,736.745219L232.500275,725.516512L233.016434,725.525361L237.625082,725.631543L239.831293,720.711773L245.760626,720.782561L246.731297,720.809107L247.171204,719.588011L247.467118,718.791643L249.417333,713.447124L249.557647,712.898514L251.920700,712.898514L253.836909,712.907362L257.069044,712.898514L257.798393,717.782911L261.624138,716.614904L264.804590,715.615019L265.087685,715.526533L265.092367,716.004355L265.095146,716.791875L265.096666,717.198907L264.822717,721.242684L265.006269,721.578928L266.848200,726.348271L266.995908,727.560514L269.358245,730.754814L270.750551,733.232384L271.840590,734.851651L273.792546,738.744965L275.506237,742.010033L276.441787,743.735474L277.611951,745.965271L278.271362,747.230591L278.764666,748.177368L289.105018,747.080168L300.066833,745.903332L300.439343,745.867938L304.016025,745.487457L307.350893,745.124673L317.999445,743.983229L324.114374,743.337295L333.080536,742.363970L333.173432,742.018882L334.892732,735.329468L335.414399,733.391656L335.850316,731.772388L330.010599,732.028994L331.430340,726.755301L331.689872,726.781847L336.216288,726.560635L337.267663,726.507544L337.851026,724.313117L338.794333,721.056865L338.391934,721.065714L326.137714,721.127653L316.379893,721.189593L316.500867,720.685227L318.270439,713.809915L318.432960,713.261305L320.860040,713.243607L321.721714,713.234759L321.892722,712.544571L327.155272,691.706095L330.752734,691.688398L332.379837,685.370443L334.246039,678.247233L336.463248,669.133021L343.245363,645.241182L346.535400,634.180039L347.087342,632.790754L353.219317,636.206445L353.411075,636.374575L354.326625,635.560473L354.724440,635.843639L359.642019,630.153766L360.342498,629.313114L364.508606,624.295743L364.630603,624.145311L364.809992,623.039186L365.089930,621.862269L365.301784,621.048161L367.384163,613.756565L368.556911,613.747716L370.433360,613.738867L373.223300,613.721169L376.294719,613.703471L376.551594,613.712320L377.105816,611.792077L377.538490,610.323134L378.241005,607.907339L384.773778,607.854245L388.657345,608.836491L388.957567,608.986925L389.649797,609.332039L392.983424,610.128454L394.092078,610.385077L394.910453,607.951584L396.074354,604.482745L396.787104,602.358963L401.888823,602.668681L402.211024,601.774923L403.715632,597.536198L404.689148,594.801818L404.869449,594.297417L405.162030,593.403654L407.713233,585.554448L408.188000,584.094333L405.924675,583.669572L403.943341,583.297906L403.656328,583.235961L402.742201,581.899733L401.507590,580.103345L401.161986,579.598940L400.227775,578.227312L400.142630,578.103423L401.704590,576.979572L403.580374,575.625640L404.639588,574.855757L404.862909,574.714169L405.544788,574.245160L404.890112,573.183251L403.018136,570.068316L406.741384,568.263067L412.450344,565.493245L412.686351,565.387053L423.788139,559.838546L430.762863,556.466958L431.188051,556.263423L432.723076,550.290119L433.193213,548.599892L434.069131,545.458366L434.942678,542.325684L435.226626,541.299154L436.523132,541.325702L437.562771,541.343401L438.607178,541.343401L440.253948,541.334551L437.126443,552.449360L436.847279,553.458185L443.994574,549.803405L454.213275,545.113240L459.853512,542.900894L463.022829,541.777021L466.839205,540.670846L474.565606,538.440796L475.602177,538.139916L475.080881,540.157581L474.020675,543.900875L472.606843,549.122004L468.453047,564.130455L465.408229,565.617134L459.706996,568.413504L440.312790,577.908740L439.491796,576.501714L438.806188,575.307068L437.658663,573.324839L435.152644,568.988706L433.420788,568.625887L433.002598,569.298430L432.854633,569.572757L432.241749,575.395560L432.126087,576.457468L432.092643,576.829135L429.751243,580.076797L427.729280,582.908541L427.522060,583.182866L426.791347,584.218221L425.030292,585.943812L423.838346,586.519008L421.955837,587.430473L420.380509,588.191502L419.666883,588.695904L418.793707,589.297647L416.966645,590.580775L416.099920,590.828552L412.603389,591.819657L412.204422,591.925847L411.731639,592.058584L408.966374,592.837309L406.991635,593.403654L406.720249,594.191227L406.463421,594.952253L406.054896,596.111489L405.567462,597.536198L404.080570,601.819168L404.015448,601.978452L400.502727,611.995605L401.819305,612.305322L403.492211,612.694680L404.036621,612.818566L405.429915,613.145981L406.246530,613.331811L407.186945,613.553037L408.446650,613.853905L408.886069,613.845056L412.009340,613.827357L433.995519,613.685773L441.605016,613.650377L446.861352,613.606131L452.927733,613.579584L459.820839,613.508792L464.679818,613.482245L467.170819,613.446849L473.345669,613.402603L480.599869,613.393754L500.956677,613.278717L503.843223,613.039793L506.169450,612.818566L508.821860,612.623887L513.355688,612.676982L532.348135,612.924755L543.584031,613.066340L543.088690,614.933487L540.118031,626.269067L533.303677,652.267185L533.087115,653.346745L537.784442,653.948467L543.863221,654.921839L545.923256,655.249247L548.955730,656.036793L554.037902,657.355269L556.166928,658.169361L558.396214,649.090444L559.125994,646.214560L559.584988,644.427084L563.900901,644.409387L561.532403,653.647606L560.053415,654.656374L559.365432,655.753630L558.944968,656.434991L558.602299,656.992467L557.938662,658.054326L557.510269,658.682593L557.698623,658.753383L558.189347,658.939209L558.271091,658.965755L558.365268,659.001150L560.966366,654.842200L563.996858,656.682758L565.780346,657.762315L566.927896,658.452523L566.000726,662.089386L566.285901,662.213269L567.307047,658.089722L578.062081,615.004280L578.526421,613.252170L587.960251,613.181377L594.201763,613.137132L600.655707,613.101736L605.117067,613.066340L606.075001,613.057491L608.709382,613.039793L612.960954,613.013245L614.632377,612.995547L617.748238,612.977849L618.044533,612.977849L623.120704,612.942453L626.150059,612.915906L628.569627,612.898208L632.213793,612.871661L633.468021,612.862812L636.615894,612.836265L638.625674,612.827416L639.477521,612.827416L640.598416,612.818566L641.492066,612.800868L640.822671,615.039676L638.615091,623.322354L638.099229,625.101001L637.963931,625.906259L635.801526,633.498670L633.455515,641.745868L633.224198,642.577665L632.622627,644.674853L643.782258,644.577515L653.593468,644.453631L664.550191,644.312049L666.199413,644.294351L675.674902,644.179315L698.867976,643.958093L700.633335,643.949244L700.894979,643.940395L700.527668,645.250031L700.444045,645.533195L700.279706,646.143768L700.131778,646.665853L699.161381,650.161157L714.118976,649.851447L717.306053,649.789505L717.205887,648.400232L717.054735,646.099524L716.998964,645.453555L716.840959,642.958168L719.719557,642.913923L719.751791,643.427159L720.019209,647.497647L727.265873,650.957555L732.123459,653.275954L737.978405,656.072188L741.729425,657.850803L743.927556,658.903813L746.110875,659.956823L751.040487,662.310606L750.440976,663.106998L749.697542,664.080366L746.144076,671.256725L760.494620,671.716861L755.659438,684.565212L755.611023,684.662548L756.650733,684.680245L759.922775,684.715640L760.905605,684.724489L768.021927,684.733337L768.666388,684.733337L769.066398,684.733337L773.960076,666.106739L785.070321,666.496086L797.897532,666.973920L801.372991,667.106652L801.843389,665.248407L803.167295,660.328473L804.521132,655.187305L806.682256,647.046354L813.908240,647.418007L819.360929,647.745416L820.703702,642.728096L821.664555,642.763492L834.914643,643.320972L848.090663,643.878453L849.416600,643.878453L848.803849,646.072977L847.542114,651.037194L847.019332,653.090129L851.361714,653.001640L854.785566,652.913152L862.665293,652.727326L868.064037,652.594593L874.916765,652.426465L907.769261,651.214172L912.799475,651.019497L917.224654,650.815973L918.251650,650.798275L919.789232,650.727484L918.704381,654.842200L913.674830,674.114873L911.434759,682.441524L909.211720,690.980505L909.833676,690.706196L912.985306,690.060244L914.763648,689.865573L916.031398,689.723994L918.470085,689.635508L921.154821,689.706297L923.186374,689.892119L925.022682,690.060244L928.380732,690.299158L931.411247,690.378796L937.515904,690.210671L943.107854,690.131033L949.345067,690.131033L953.289345,689.980606L955.466383,689.900968L960.096654,689.706297L962.942200,689.316955L965.687708,688.555969L967.745864,687.458733L969.949747,685.874819L972.251219,683.928106L974.511429,682.052181L993.926834,612.500001L993.955670,612.420359L993.545884,612.429208L983.849902,612.455756L974.724286,612.482303L971.018220,612.491152L956.606388,612.535397L951.256149,612.570793L943.342697,612.579642L937.597223,612.597340L936.123156,612.597340L932.913383,612.606189L932.014710,612.615038L930.518422,612.615038L919.345989,612.650435L907.218006,612.685831L910.265399,601.279373L913.084323,590.722362L896.137468,590.828552L879.491930,590.943591L863.401938,591.058630L863.494826,590.713513L864.264664,587.908328L865.298893,584.120880L865.613296,582.952787L867.939853,574.501788L868.471550,572.581503L868.933913,570.891297L870.781540,564.192400L874.191844,552.183880L881.240039,530.679845L880.696333,529.617911L881.864230,529.874545L882.883681,530.352415L886.343018,530.626748L888.816430,530.821436L891.582444,530.892232L904.845417,530.821436L906.037961,530.821436L922.756590,530.901081L931.929236,530.918780L940.647666,530.945328L945.178435,530.954178L950.237231,530.927630L951.636464,525.069285L953.287661,518.715349L954.739571,513.184397L956.312242,507.122455L959.023582,496.556042L960.589541,490.299351L960.703905,489.874568L964.362046,475.352232L967.130937,464.821031L968.159316,460.891726L970.480903,452.077310L975.093506,435.085541L975.503675,433.589904L975.779872,432.536762L977.733711,424.978902L978.357852,423.651406L980.047980,420.730911L981.860952,417.491811L982.657147,415.828008L982.787134,415.482858L982.388527,415.367807L984.568235,410.987043L983.968366,410.739241L986.495607,399.127949L983.715488,400.650165L985.206167,393.932933L987.266267,395.579055L988.347933,391.507997L995.359664,391.516847L996.051534,390.295528L999.551602,383.542856L1000.000000,382.675538L999.309224,382.215329L984.378087,372.258845L983.732767,372.674806L981.075293,374.374049L978.751403,379.701875L977.898682,381.657767L977.457426,382.498534L977.134764,383.091496L977.205830,387.914837L977.560328,387.808636L978.321681,388.419296L981.357057,390.844236L982.484153,391.746950L984.225839,393.145271L982.396600,401.367022L977.150674,404.234449L976.062083,405.278757L975.310872,405.977913L974.371519,406.880619L970.472026,410.606491L969.291561,411.084393L966.635642,412.172948L962.398446,413.907554L962.039437,414.058004L961.508201,414.270405L959.326901,415.164257L952.729644,415.898808L952.322529,415.925359L949.611070,416.120059L940.792630,416.686460L940.488582,418.695411L940.477177,418.792762L940.400570,419.297212L940.103679,421.279610L943.951209,430.067629L937.910421,430.138428L930.020832,430.253478L931.268973,427.324143L932.243150,424.147005L930.629877,419.686612L930.050180,419.226412L929.555366,418.863562L928.924786,419.527312L925.670760,423.111557L924.973009,423.722206L924.529549,424.076205L921.423926,427.686992L921.160357,428.005590L919.839363,429.527782L914.867507,439.298099L907.653819,438.333459L904.746164,445.307171L904.020890,446.900147L903.737674,447.484238L902.322627,450.510888L902.075934,451.041879L900.365278,450.820633L895.005825,450.121495L894.780280,449.776351L894.439965,449.307309L894.229748,449.015264L892.741300,448.794017L886.364551,447.829383L885.859750,448.988714L884.804099,451.395872L878.760425,465.201571L877.865262,467.095421L877.253310,468.405186L874.832639,472.113230L869.448633,480.086827L866.076444,484.963005L864.157879,487.741801L860.095463,492.980793L857.852876,495.697629L855.578541,498.449859L849.505367,494.954260L846.856925,493.511771L843.846836,492.202024L840.114541,491.016172L838.396504,490.547141L837.441066,490.299351L836.656246,490.078110L831.984758,489.299340L829.066537,488.803760L824.474599,488.334728L820.681006,487.954192L817.507857,488.157735L816.166613,488.352427L814.778545,488.555969L809.064788,490.794931L803.171260,493.591417L801.564519,494.414433L797.586698,496.423298L793.369984,498.494107L790.403702,499.662255L789.592022,499.980841L787.507624,500.432170L784.346245,501.087041L781.447139,501.290581L774.250028,501.803858L773.924120,501.803858L771.853053,501.848106L770.438570,501.874654L768.787062,501.901203L768.968950,502.325984L769.176215,502.821560L768.443178,502.848109L768.233398,502.856959L768.081198,503.202093L765.254290,503.467580L763.162606,504.441034L758.156151,506.803870L757.343761,506.795021L756.235346,506.812720L754.265081,505.795019L753.039384,505.175549L750.897991,504.078201L749.726786,503.476430L748.692064,502.945455L747.639647,501.352528L746.802483,500.060487L743.971039,498.582603L741.079574,497.025071L728.585029,488.963053L724.914540,485.732926L715.890644,479.361152L708.470943,474.706202L708.045680,474.387612L706.166095,473.033603L703.983937,471.537997L702.825815,470.750370L701.790378,470.139737L700.520644,469.299011L696.270104,467.095421L694.294936,466.068849L692.324196,465.245820L692.051504,465.130773L690.477501,464.484739L688.598543,463.705959L686.233714,462.723633L683.526718,462.104148L682.789777,461.980251L683.086412,460.989074L685.941564,450.802933L688.868370,440.351237L689.794727,437.050223L692.140178,428.784386L703.950280,387.206825L704.714684,384.507525L705.820889,380.622295L706.150507,379.454069L707.839669,373.515577L710.579801,363.842254L713.021652,355.248616L716.940200,341.450919L717.573311,339.211770L718.007944,337.654099L718.932832,334.414848L723.508948,332.989930L742.020267,327.237143L743.590451,326.714966L744.141798,326.537957L745.025435,326.254742L750.449523,324.431546L761.157218,320.811700L762.245097,320.457681L762.570120,324.555453L762.968465,329.617914L771.111565,329.715269L781.452252,329.848026L781.633528,329.175392L784.863003,314.554394L786.985876,304.039946L785.936918,304.332015L778.152141,305.048911L778.156276,305.225923L774.421294,305.783508L772.297021,306.190634L769.520348,306.792472L767.842843,307.190747L766.222453,307.624424L764.405475,308.155457L762.591381,308.730743L757.304883,310.483151L748.801814,313.315321L748.442534,313.439229L748.522709,314.350832L743.487271,316.023580L742.074506,316.483806L741.611786,316.634265L741.616877,315.076575L741.558649,314.660601L741.492016,314.138420L741.653896,312.713485L741.670371,312.102799L741.693448,310.093727L741.556805,308.952007L741.429956,307.801435L741.144068,304.438222L740.783848,299.729713L740.553253,299.623506L740.362325,299.535000L739.903130,299.535000L739.686458,299.596954L737.435096,300.667876L737.228964,300.800634L737.099281,300.924543L733.932637,306.270289L732.665081,307.208448L731.836530,307.836838L727.127298,306.128680L717.456303,302.632705L716.734530,303.854084L715.621427,305.730405L714.372236,307.836838L711.108412,313.350723L710.817893,313.961409L710.528371,314.678302L710.253773,315.669559L710.078483,316.457255L709.682941,318.501721L708.013829,319.006200L703.142500,319.492977L703.722617,314.757956L705.735086,311.908087L706.821797,310.376944L708.433832,311.155792L709.485259,311.651422L709.646563,311.739927L709.901199,312.828542L715.877603,302.774314L702.329086,298.056950L704.304778,294.437051L708.293915,290.436566L706.808174,289.958632L706.002823,289.374489L704.911658,288.586782L704.079070,287.993788L703.005356,287.223781L700.728646,285.586409L696.747928,289.170924L694.657786,290.852546L692.621032,292.171291L682.148174,296.100966L678.887080,297.702926L671.352403,301.667992L668.050000,303.340751L666.328736,304.340866L663.796598,306.013623L660.460347,308.553732L658.974550,309.916716L657.366475,311.403607L656.066089,312.793140L654.783899,314.280028L653.534966,315.890822L652.656004,317.200698L651.531345,318.899994L648.135636,322.732255L644.559154,326.768069L644.102303,327.281395L643.966601,327.290246L640.160675,327.396451L638.866608,332.087186L642.808991,332.051785L639.252564,337.167327L638.224609,338.645344L623.043140,339.105565L620.786792,339.123266L620.419493,338.919707L619.603672,338.539140L606.824826,338.521439L610.231845,326.679564L607.990321,326.697265L607.937278,326.042331L605.956225,326.192789L600.863666,326.785770L597.020411,327.387601L592.710897,328.290347L590.257917,328.927579L589.492269,329.157691L587.943772,329.626765L587.873728,328.210693L587.782612,326.653013L587.694134,325.113032L587.618831,323.661555L587.216223,320.209867L587.030979,318.616778L586.942807,317.899887L586.546242,314.563245L574.719266,320.493083L576.541776,313.678193L577.197729,311.217745L577.879938,308.659939L578.598196,305.995922L579.211219,303.694774L581.384666,295.578780L583.942169,286.011241L586.290014,277.249065L589.115042,266.690143L598.557962,232.525890L603.226747,215.160285L608.762259,194.280618L613.110461,177.941377L611.453320,180.295795L609.522206,182.924596L606.954802,186.429658L604.938631,188.934534L602.920077,191.448258L599.898738,194.714323L596.722560,197.785658L594.337227,199.874517L592.604699,201.272988L590.981801,202.512140L588.435632,204.291205L587.311716,205.025844L584.815196,206.565929L583.061570,207.548396L579.557681,209.610690L562.104648,219.895571L555.902376,223.559878L554.414394,224.436124L551.202655,226.321379L538.886252,233.570299L514.931641,247.722868L514.348330,247.112159L506.096915,251.838510L502.730253,254.325591L498.399741,257.503033L497.985604,257.033940L493.166099,261.530144L488.332602,267.451308L483.145119,274.602702L481.323657,277.594242L479.037705,281.346936L473.346531,281.276131L470.289618,281.214176L466.635181,281.143371L462.074541,281.054864L457.108941,280.957506L451.980402,280.860149L446.320997,280.753941L437.634306,280.585777L436.504666,284.444673L427.695421,284.373868L427.486692,283.692366L427.227281,282.869254L426.174532,279.275875L425.106748,275.655937L422.090991,269.070995L421.726391,267.814188L420.296891,266.194500L418.849979,263.486166L417.922517,262.229355L417.081493,260.707021L416.395273,259.105027L416.128056,258.503173L415.781169,257.290613L415.339953,256.290472L415.076346,255.812528L414.074498,253.980409L412.643436,251.378266L413.307609,251.387117L413.594064,251.395968L414.868178,251.422520L422.231424,251.581835L428.099734,251.325161L428.966405,250.802962L429.165398,250.696752L429.369409,250.599393L429.603046,250.502033L429.802526,250.448928L429.955425,250.431227L430.068906,250.422376L430.219418,250.413525L430.747647,250.404674L430.927784,250.395823L431.115083,250.360420L431.336782,250.307315L431.467219,250.263061L432.023366,250.068342L432.618445,249.811668L433.230479,249.519590L433.672658,249.280617L434.261987,248.935434L434.770090,248.616804L435.999372,247.793675L436.350045,247.537000L436.778825,247.182966L437.875476,246.165117L438.245250,245.837636L438.612880,245.545557L439.152752,245.191523L442.386629,243.828489L442.476283,242.837191L436.486774,241.182076L434.548890,240.651023L426.646125,238.456002L419.009761,236.234425L420.733506,231.711605L420.584654,231.631946L420.453002,231.543437L420.353120,231.419524L420.265419,231.277909L420.209731,231.127443L420.181037,230.959275L419.387890,231.153996L418.023296,231.490331L414.193019,232.428530L412.518094,232.844524L409.719860,233.526045L404.330805,231.924027L408.121801,228.578372L409.821421,227.082561L416.411365,221.240921L420.234148,217.859842L425.677419,212.425319L420.359390,212.646595L419.575312,212.752807L417.943341,212.735105L417.373071,212.735105L409.092568,212.681999L404.120204,212.637744L398.775147,212.602340L398.641838,212.602340L398.735940,212.363362L399.265910,210.920644L399.917375,208.451203L400.263835,206.645588L399.321542,206.185333L402.691741,201.078264L406.947476,194.802834L408.257207,192.775927L411.927325,188.067122L411.790332,186.845663L411.646440,185.951696L410.368298,182.756424L409.954203,181.738538L404.413273,177.516520L400.497603,176.657953L395.606287,176.286202L390.769684,175.958707L386.441211,175.312569L384.822382,174.834603L381.745510,173.914076L374.591948,171.524245L368.901631,167.691657L366.447586,166.302010L360.606831,163.027041L354.427814,159.194435L346.587520,154.547499L345.838087,154.113784L341.650399,151.821291L339.559070,150.405077L338.258016,151.768183L339.029663,152.201898L341.471709,155.282158L342.744345,157.070123L345.137213,160.442467L345.854887,161.460365L347.161228,163.150959L347.613480,163.752846L347.765904,163.956425L350.750585,167.523483L353.208983,170.763039L357.343643,176.463226L354.473458,176.286202L340.860994,175.436486L330.721496,175.631212L326.935370,175.719724L324.898965,175.746278L323.415620,175.781683L319.745360,175.852493L317.444968,175.896749L311.287969,175.879046L310.046393,175.896749L309.706460,177.073959L308.801576,180.207283L307.829099,183.508774L298.981181,214.045056L297.958925,217.558908L297.039865,220.745266L295.507724,226.011595L291.831206,238.703827L291.476794,239.907549L290.763198,242.332691L290.524779,242.447752L272.407084,242.483156L239.462912,242.598217L236.564702,242.607068L236.167638,242.651323L228.529705,242.686726L227.288224,254.396398L225.880429,266.256455L225.846425,269.566636L225.947793,270.124233L228.268797,269.894114L237.464628,266.884859L243.354761,264.955393L239.174170,281.877977L232.381967,285.860780L232.024438,285.099623L231.785452,284.612836L215.399408,291.817265L204.139610,291.852668L201.526346,301.154658L203.573691,303.119487L203.276778,304.933854L203.176297,305.553394L202.200412,311.669123L201.462257,316.244843L239.415128,315.961626L238.833634,313.669342L238.518258,312.394866L238.097922,310.713265L237.751951,309.332580L237.039455,306.482703L240.627308,304.137303L237.522258,296.676256L235.943916,293.357275L234.969772,291.312779L238.821627,290.294956L239.474071,290.100242L239.659583,292.295199L241.410158,292.587270L243.493776,292.852789L243.769712,292.790835L248.552818,291.560597L264.249295,287.515853L268.251164,286.436073L269.637517,286.046644L271.831358,285.409396L276.907779,283.860529L278.531529,282.975462L279.241761,282.621435L280.367674,282.099244L281.501480,281.630158L281.944399,281.470846L282.822832,281.152221L283.997030,280.780493L285.250553,280.444166L284.179509,277.523437L285.302836,277.257916L286.477568,280.178646L287.951379,279.904274L290.708824,279.346681L290.323759,278.275746L291.614069,277.912868L292.150378,279.054608L293.153302,278.851042L294.284764,278.665177L296.033337,278.470462L297.397756,278.381955L298.286269,278.355403L299.459097,278.373104L300.597767,278.435059L301.754125,278.541267L303.086577,278.735983L304.239133,278.966101L305.526708,279.382083L306.505362,279.762663L307.559054,280.249451L308.506671,280.745090L309.023017,281.054864L309.551789,281.373489L310.123342,281.780620L310.650214,282.161199L311.363950,282.727643L312.197894,283.479950L312.517390,283.860529L313.708404,285.320889L315.189539,287.188379L316.626488,289.082418L318.031676,291.011858L320.733644,288.985061L322.035294,287.976087L323.028562,287.259184L323.474789,286.922859L325.899658,285.099623L326.316504,284.789849L327.755757,283.710068L329.948760,283.789724L331.123125,285.586409L331.546367,286.241358L332.290089,287.383093L334.120730,290.206449L334.507380,290.640131L334.712670,290.949903L333.979552,291.498642L333.116729,292.171291L328.258454,295.959356L327.503118,296.508094L325.031199,298.313618L320.322109,301.411325L319.591380,301.951210L318.363503,302.659257L316.730476,303.606268L312.482121,306.066726L310.439903,307.350057L310.044791,307.606723L303.395219,311.775329L301.504925,312.934749L302.258846,314.642899L302.606642,315.412894L303.757400,318.121150L303.401037,318.563675L303.200881,318.811489L300.345204,322.369386L299.229783,323.758910L288.879476,323.112826L289.981744,321.634796L290.570034,320.909056L291.309574,320.254119L291.545111,320.094811L291.692260,319.988605L291.971011,319.696538L293.676080,318.262758L295.603589,316.855528L293.335352,311.562916L290.717767,311.492112L290.614860,312.917047L278.691521,311.952340L278.225261,313.598538L277.642027,315.678410L280.255391,316.094384L279.482290,318.466319L280.369899,318.607927L284.120798,319.227462L283.880363,319.926651L281.941713,319.590333L280.295654,325.281191L279.509590,325.174986L277.870558,324.936023L275.405799,324.573154L275.119335,324.564303L274.897082,325.360845L274.619680,326.334396L267.813020,325.785668L267.940093,325.644060L268.321556,324.174883L268.474338,323.608452L267.927974,323.794312L264.924930,325.564406L263.729062,326.263593L263.296916,326.520256L263.149215,326.298994L262.751042,325.688313L262.002259,324.537752L261.197118,321.289627L260.809979,319.731940L260.235857,317.439661L260.028061,316.590013L260.689865,316.607714L262.490116,316.660817L265.305683,306.854426L262.403787,306.739369L244.486389,306.057876L244.935508,307.111092L245.672188,310.173382L246.281868,311.235446L244.753430,312.014293L246.878908,316.023580L247.457263,316.899780L247.885537,317.563568L251.205625,322.608348L254.050162,326.945078L247.112265,327.157489L240.024280,327.157489L237.705813,327.130938L235.577002,331.343750L235.157645,332.184541L234.258584,332.140289L231.559015,332.016383L226.473582,331.786272L226.150085,331.777421L227.302910,327.476105L227.503748,327.033583L228.834524,327.042433L231.264088,327.068984L231.531469,326.077733L231.839191,324.909472L231.877389,324.767864L232.233105,323.449144L228.700228,323.449144L201.690556,323.360639L199.952428,323.351789L199.587124,323.360639L196.273809,323.342938L194.688829,323.342938Z M404.330805,231.924027L403.745555,232.446232L397.829038,237.685974L392.852750,242.076016L390.477361,244.182524L390.107581,244.510006L389.757388,244.819786L390.291363,244.899444L397.362075,246.005802L404.865473,247.182966L405.553079,247.324580L406.472423,247.430790L408.299415,247.714017L408.846838,248.183112L409.662832,248.864628L410.548602,249.616949L411.829825,250.687901L411.821297,251.103890L411.807166,252.254499L414.390644,256.954283L411.225850,262.344415L407.215143,269.168353L407.132507,269.309965L402.386114,269.690547L398.564772,269.991472L396.541935,270.159636L393.231273,269.885263L392.749377,269.832159L392.015667,269.779054L391.930072,270.672979L390.302399,270.858844L390.139208,267.070725L390.043732,265.008498L389.959326,263.344553L389.904112,261.901876L386.394226,260.361840L382.165662,251.519880L377.470066,255.555855L376.353323,256.538295L370.392187,261.751413L363.999942,267.601770L359.030344,271.637709L356.401029,273.779585L356.134544,273.257392L353.960396,269.044443L358.593078,264.610213L361.372632,262.158549L363.242287,260.361840L377.003907,239.960654L377.152476,239.739382L385.020944,227.649022L385.568650,226.799331L387.291131,226.454143L393.894346,228.551819L404.330805,231.924027Z M356.401029,273.779585L356.669708,274.540747L371.624071,276.266636L374.537921,276.611814L374.408460,276.762276L374.187302,277.142856L374.038986,277.390676L373.953962,277.541138L373.677352,277.797808L373.417698,278.019076L373.105033,278.381955L372.832031,278.762535L372.669147,279.036906L372.552844,279.275875L372.432743,279.638754L372.364243,279.975080L372.347587,280.311406L372.359823,280.568076L372.398321,280.727388L372.448999,280.868999L372.503042,281.107968L372.472307,281.523950L372.388506,281.807172L372.213686,282.125797L371.917734,282.426720L371.645410,282.612584L371.475798,282.692240L371.281335,282.754195L371.012565,282.789597L370.833159,282.878104L370.635143,283.090520L370.533165,283.276385L370.441958,283.559606L370.347631,283.772022L370.215783,283.931334L366.327218,283.904782L361.892972,283.869380L351.876501,283.798574L347.049720,283.763172L346.970562,282.134647L346.246345,281.771769L346.631176,281.470846L348.425385,280.063587L350.124044,278.735983L354.496942,275.319610L356.401029,273.779585Z M414.362994,555.148408L415.100898,552.546703L418.744209,552.440511L419.489695,552.422812L418.754179,555.015668L414.362994,555.148408Z M438.597151,355.841588L438.702546,355.230916L441.560235,355.098161L446.202749,355.213215L446.029149,356.186750L443.190086,367.816022L436.842833,368.364738L435.638938,368.462091L438.597151,355.841588Z M413.689013,363.258135L414.081562,363.258135L418.611499,366.647788L419.361646,367.134553L420.711552,365.753912L422.560393,363.868804L425.032191,361.541181L425.590130,361.010164L426.029162,360.700403L425.616259,361.957144L423.325081,371.718980L418.057323,394.198436L413.514146,394.154186L416.415235,383.640207L411.517059,383.649058L410.620855,383.649058L410.744925,383.188848L410.880677,382.657838L411.866987,378.834555L412.838999,375.064366L413.349120,373.117317L413.379253,371.851734L413.520767,367.975327L413.689013,363.258135Z M458.833573,353.912218L463.218844,339.433030L465.334469,339.415329L465.197643,337.450540L469.936314,337.291233L469.764749,337.955013L471.610587,337.069973L473.220408,336.291137L476.742725,334.627259L479.805711,331.095938L481.207656,330.263996L477.981953,329.316999L476.763829,328.945280L476.340423,328.812524L475.579551,329.821474L474.150452,330.918929L473.543209,331.193293L471.434111,332.175691L471.651852,331.697767L474.806616,320.519634L479.793291,320.484232L480.887780,316.590013L482.838649,309.739705L477.825251,309.819360L481.692299,296.083265L486.259147,296.039012L487.137871,296.021311L486.788748,297.508213L485.005166,304.039946L484.573927,305.721554L489.491526,305.695003L484.205203,325.272341L483.570429,327.626563L483.424136,328.883327L482.660126,332.733268L481.778061,337.158477L478.247510,350.363235L474.442231,351.071262L470.286553,352.062499L463.798307,353.106838L458.833573,353.912218Z M194.688829,323.342938L196.579277,316.280245L197.148256,314.253477L199.662549,305.482589L200.157778,303.756728L200.231797,303.482360L193.843202,303.553165L188.913422,303.597418L181.950403,303.216843L180.184566,303.146039L178.939362,307.898791L177.781800,312.244407L174.913118,323.289835L175.900564,323.280985L184.299722,323.307536L187.528935,323.307536L193.298804,323.334088L194.451823,323.342938L194.555513,323.342938L194.688829,323.342938Z "/></g><g fill="#000" font-family="Arial" font-size="12px" id="mylayer-label" stroke="none"><text text-anchor="middle" y="497.704473935"><tspan dy="0" x="416.959367298"><![CDATA[N]]></tspan></text></g></svg>