<?xml version="1.0" encoding="utf-8"?><!DOCTYPE svg  PUBLIC '-//W3C//DTD SVG 1.1//EN'  'http://www.w3.org/Graphics/SVG/1.1/DTD/svg11.dtd'><svg enable_background="new 0 0 1000 1001" height="1001px" pretty_print="False" style="stroke-linejoin: round; stroke:#000; fill: none;" version="1.1" viewBox="0 0 1000 1001" width="1000px" xmlns="http://www.w3.org/2000/svg" xmlns:xlink="http://www.w3.org/1999/xlink"><defs><style type="text/css"><![CDATA[path { fill-rule: evenodd; }]]></style></defs><metadata><views><view h="1001" padding="0" w="1000"><proj flip="auto" id="robinson" lon0="-117.105694301"/><bbox h="0.66" w="1.29" x="-1529.73" y="-797.38"/></view></views></metadata><g class="" id="mylayer"><path d="M1000.000000,251.218848L996.960319,245.458777L994.410271,246.397643L990.721537,247.755193L970.624085,255.164624L965.526448,257.105793L955.863915,260.772447L953.096723,261.787438L944.787600,264.794348L942.017890,265.796652L914.870755,276.149561L848.126130,301.587790L833.370747,307.271746L806.190400,317.713481L798.885998,320.390524L776.932366,328.421654L769.625423,331.086010L756.783783,336.034101L718.253721,350.853004L705.409492,355.788410L673.245477,363.248615L672.500710,363.413552L673.976740,360.774567L675.258240,358.376645L675.781421,357.450463L674.439480,356.130971L652.978092,356.663843L636.038100,353.111365L628.382449,349.330514L608.135870,339.332829L585.244766,325.719235L569.247395,318.563537L556.617646,317.091798L545.376021,315.848432L528.093361,318.309789L471.953098,338.432023L471.311754,338.660396L468.687831,340.144824L439.866746,354.494294L435.080205,358.211708L421.230843,368.983331L411.485275,380.643078L398.472883,386.669608L388.044813,390.196714L352.576653,402.186342L348.191731,402.478153L334.641581,405.332826L326.247421,406.436634L311.404041,407.096381L299.315785,406.373196L293.050801,405.992573L268.364784,401.107909L257.038203,398.265923L251.202426,394.903753L246.464451,391.884143L229.297213,382.952190L233.033992,376.380101L227.694281,371.850690L219.445469,365.938349L210.796428,361.624625L197.867466,358.795329L186.408770,357.425088L172.441966,357.666149L157.862434,359.810323L147.435087,362.119434L138.842366,364.923355L132.320059,367.169029L129.723260,371.698440L121.185980,379.831082L115.615478,389.892216L104.219884,410.052554L95.732504,424.858801L90.660891,433.765390L79.089592,454.103378L66.396450,476.369872L59.065448,489.311088L51.532710,502.252309L25.892712,546.252494L23.976934,549.475116L22.604566,551.771551L13.465366,567.605543L3.179119,585.393416L2.691381,586.192728L2.484162,586.522603L2.193547,586.992041L0.184504,590.252729L0.000000,590.595292L13.369116,587.791354L13.795816,587.702541L16.133510,587.727916L22.552134,589.745229L39.640560,589.910167L46.653927,589.529541L52.965457,589.174291L66.588708,587.651791L70.373219,587.233104L71.564915,587.030104L76.861923,586.091228L82.108226,585.507603L83.956026,585.761353L84.958015,586.180041L92.936818,583.947041L96.191454,583.046228L97.511994,582.678291L101.683185,581.511041L105.136963,581.105041L106.130033,583.820166L106.320659,585.951666L108.405431,586.789041L111.305723,587.461479L110.812968,588.286166L109.013798,591.280417L102.006776,602.889484L94.994859,614.523930L73.972774,649.389225L66.959019,661.010997L77.797176,661.074434L110.326811,661.239372L121.162452,661.290122L122.571178,661.315497L132.649391,661.467748L167.087505,661.987936L175.047585,662.102124L172.309114,666.568133L143.990732,714.044887L120.431299,753.541223L202.386770,753.503160L207.012087,753.503160L226.952458,753.477785L236.885837,736.844406L242.402006,727.607872L253.904473,708.348182L260.640315,708.348182L267.982081,708.348182L294.420515,708.348182L344.469744,708.348182L361.546670,708.348182L368.062906,697.132398L369.946299,697.157773L371.196571,694.810579L382.122962,676.261405L393.969543,672.607397L393.778073,671.135643L393.271103,669.397452L391.772964,664.144816L391.273597,662.393937L392.952466,662.406625L397.989072,662.444687L399.657842,662.457375L400.347074,662.419312L402.417306,662.267062L403.104018,662.216312L407.019692,662.254374L413.957333,662.305124L418.774294,662.355875L422.687448,662.381250L425.136322,662.406625L432.480424,662.470062L434.926778,662.482750L442.126981,662.533500L463.714973,662.673063L470.912656,662.711125L475.782633,662.774563L490.397621,662.939501L495.265077,662.990251L498.105273,663.002938L506.625859,663.041001L509.473631,663.041001L515.770030,663.066376L534.649128,663.142501L540.943006,663.155189L547.979116,663.193251L569.102602,663.282064L576.136192,663.307439L581.766092,663.332814L598.622976,663.396252L604.250355,663.408939L607.040059,663.421627L615.378876,663.459689L618.166058,663.459689L623.523301,663.485064L639.574831,663.561190L640.564483,663.561190L641.907548,663.764190L642.743159,664.005253L643.543405,664.373191L644.111386,664.741129L647.774607,664.779192L658.744077,664.893380L662.397201,664.931442L667.173788,664.931442L681.488406,664.906067L686.259947,664.880692L710.360010,664.804567L718.155281,651.749104L795.680335,521.879836L821.534335,478.577490L840.766794,445.958031L898.472305,348.099834L917.710189,315.480497L917.773902,314.579691L917.799401,314.199069L919.618702,311.407840L920.321165,310.316723L920.631959,309.847289L920.738096,309.669665L921.412892,308.438987L921.670687,307.956866L921.797053,307.728493L922.181215,307.017998L922.305065,306.776938L923.399420,304.759641L924.450844,302.780406L930.797440,290.790814L932.902918,286.794284L944.808821,280.437900L980.521498,261.343380L992.432465,254.961625L993.884404,254.187695L995.331236,253.489889L1000.000000,251.218848Z "/></g><g fill="#000" font-family="Arial" font-size="12px" id="mylayer-label" stroke="none"><text text-anchor="middle" y="505.02652489"><tspan dy="0" x="450.218574972"><![CDATA[N]]></tspan></text></g></svg>