<?xml version="1.0" encoding="utf-8"?><!DOCTYPE svg  PUBLIC '-//W3C//DTD SVG 1.1//EN'  'http://www.w3.org/Graphics/SVG/1.1/DTD/svg11.dtd'><svg enable_background="new 0 0 1000 1001" height="1001px" pretty_print="False" style="stroke-linejoin: round; stroke:#000; fill: none;" version="1.1" viewBox="0 0 1000 1001" width="1000px" xmlns="http://www.w3.org/2000/svg" xmlns:xlink="http://www.w3.org/1999/xlink"><defs><style type="text/css"><![CDATA[path { fill-rule: evenodd; }]]></style></defs><metadata><views><view h="1001" padding="0" w="1000"><proj flip="auto" id="robinson" lon0="-122.463343875"/><bbox h="0.54" w="1.61" x="-1586.43" y="-818.28"/></view></views></metadata><g class="" id="mylayer"><path d="M1000.000000,338.678120L995.144824,338.546115L974.876252,337.987635L972.149771,337.967326L967.741270,337.926710L957.011081,337.723626L954.820052,337.683009L867.968022,337.388538L840.062332,337.083912L821.348315,336.667591L808.847852,336.616820L778.640441,335.997414L774.854359,335.926335L764.436211,335.885718L753.061981,335.845102L717.779355,335.357701L691.511808,335.103847L690.747128,335.093692L689.091563,335.032767L685.900949,334.910917L657.331275,333.306558L605.148477,330.493853L603.166854,330.514162L589.653265,330.686783L585.955149,330.727399L558.117050,331.306187L516.780075,332.392682L516.002170,332.402836L513.605603,332.443453L494.378311,360.905737L477.932817,385.469039L475.719585,388.769210L474.457593,390.657925L473.935345,390.657925L457.841206,390.881321L451.608504,400.761557L467.320928,400.680322L467.753376,400.670168L466.065428,403.188466L457.691553,403.462635L420.330690,404.153137L411.542051,417.810888L408.794750,422.745973L453.770560,421.923458L450.127698,427.518595L449.395615,427.569367L431.372754,427.792767L428.695239,432.077979L426.155080,435.967171L421.897482,442.506712L420.628153,444.456391L435.708200,444.446237L438.279361,444.446237L439.098919,444.446237L436.618407,448.244055L428.156684,461.241973L426.938003,463.151048L425.954887,463.130739L423.414409,463.120584L423.261744,463.120584L422.088637,463.120584L420.532309,465.486620L419.930753,466.410694L417.079753,466.420849L416.102022,468.157298L415.351405,468.076060L378.926573,467.659719L373.492101,475.945943L373.041158,476.626309L355.457398,476.260739L343.999202,475.915479L339.931023,475.783468L330.698244,475.722540L328.424836,475.783468L327.632214,475.803778L325.809788,475.986562L299.057776,478.311990L290.913078,479.134522L273.857279,480.414016L268.958936,480.779586L267.595822,480.799896L240.651951,482.617591L239.198616,482.739448L237.381264,482.729293L236.942181,482.749603L216.624859,481.226394L211.582406,480.850669L209.563166,480.718658L196.615351,479.835197L175.255223,477.865183L156.437012,476.717701L153.965144,480.637420L131.034166,515.437866L129.814564,517.570385L127.205440,517.529766L126.754041,517.519611L100.963675,518.342155L64.621735,519.499809L60.576732,519.591203L43.658896,519.966933L36.479213,520.109101L12.093011,557.590966L10.400631,560.190648L0.000000,575.920810L45.684744,575.423211L57.316189,557.530036L102.742191,557.540191L98.336282,564.679168L81.342614,590.503531L81.023160,591.204235L79.992977,592.737659L77.713121,596.759095L59.147391,625.051483L58.958226,626.564616L58.909568,627.133310L60.176005,627.224708L74.426298,628.158992L76.444291,628.737842L78.113460,629.865076L79.276003,631.104020L80.216506,632.992901L80.484016,634.495883L80.313003,637.166725L79.599706,647.697787L79.043038,650.825632L81.748809,651.323244L85.165864,651.678681L101.682470,651.983342L104.687033,652.034119L108.550018,652.074740L104.198913,658.848367L102.349670,661.641097L100.845107,664.027614L98.027632,668.506147L102.084776,668.384282L103.332689,668.343660L108.677925,668.181173L114.395320,668.150707L115.657875,668.099930L117.073116,668.049153L117.788326,668.049153L118.204773,668.038998L120.997038,668.008531L131.811976,667.825734L156.851455,667.419518L158.995911,664.098702L163.473472,657.426615L165.525138,654.359695L167.941661,650.744389L169.969796,647.738409L172.840864,643.412239L177.173020,636.161351L182.920389,634.059206L183.006290,633.927187L183.396149,633.328026L186.050704,629.347158L186.346630,628.880015L190.352968,628.626134L191.216557,628.595668L194.891632,628.443339L196.628467,628.108215L206.230080,627.813713L207.055813,627.742626L212.052346,627.387192L213.762916,627.265329L217.626562,627.082534L217.114913,627.844178L216.215201,629.103431L208.664200,640.721081L202.952784,649.190622L203.594233,649.180467L205.187676,649.139845L208.528137,649.007826L213.244713,648.946894L214.490288,648.946894L217.562647,644.224665L227.600431,644.173888L228.469741,644.184044L233.549885,644.194199L243.869292,644.488703L246.524548,644.569946L274.995380,644.966004L275.947662,643.452860L277.035837,641.706146L279.790767,637.298744L289.571539,637.420607L296.606831,626.310734L300.615840,619.963706L300.752448,619.963706L301.490150,618.866941L319.782148,618.541974L321.635579,615.779753L325.265435,615.820374L327.142989,612.601172L329.190385,609.503836L330.045601,608.214126L331.212747,608.285212L332.499361,608.234437L334.477584,608.244592L335.724554,608.254747L336.897774,608.254747L337.606348,608.264902L340.218502,608.325833L361.107883,608.528937L365.527725,608.701575L369.176894,603.167001L371.000161,600.475882L377.595855,590.351204L378.907095,590.361359L378.961599,589.548949L379.163366,586.583655L384.886972,584.999459L384.457985,589.548949L384.357402,590.605082L386.911544,589.396623L388.945138,588.543593L390.776583,587.853045L395.059837,586.197761L395.532341,586.014969L401.235406,584.227671L401.413085,584.176895L401.515799,592.392385L401.564164,593.478984L406.448096,592.209593L407.685239,591.864318L409.618989,591.387027L408.986393,601.400002L408.952824,601.846829L410.540500,601.308605L412.005677,601.156278L414.679425,600.912554L417.988710,600.902399L420.941215,601.440623L423.660159,602.374898L424.057840,602.517070L426.590208,604.466863L427.177904,605.045709L428.147567,605.655019L429.064208,606.629917L430.114418,607.411866L430.580341,608.153195L430.893030,608.376609L436.936418,614.490041L448.533609,597.084060L451.618717,592.453316L451.732105,591.488578L452.222479,586.177451L452.299287,584.552634L456.052129,582.897353L459.804972,581.242072L463.535136,579.596948L466.969598,577.677638L473.885298,574.285844L486.514746,568.040485L486.507988,567.421028L491.385446,565.877462L493.195783,565.379865L494.778973,565.095524L496.487874,564.790874L496.815243,563.633200L498.684073,558.179956L498.854640,557.621431L499.384044,555.671671L499.595888,554.778031L500.503633,553.518813L506.157916,551.213631L508.063691,549.680229L508.822688,548.563182L511.602790,544.389492L512.122338,539.911161L514.473582,539.088611L516.593916,538.509779L528.378212,530.995139L535.582970,528.801680L543.317602,530.263985L546.767565,529.197721L546.514345,530.883435L556.304602,527.704951L557.193880,527.400304L587.389845,516.818926L587.213149,522.079145L587.119109,523.125098L589.194961,522.515805L607.532616,517.093107L608.404918,516.839236L608.061697,520.342663L607.933890,521.662796L610.763740,521.672950L611.574175,520.464521L614.287312,516.443196L615.169763,516.433042L622.876848,516.270564L625.402246,516.229945L625.965612,516.179170L626.275395,516.382267L630.569387,518.748349L631.822113,519.428725L644.493119,512.736678L651.203615,509.314499L671.993544,498.530095L675.114433,496.895175L679.604957,494.600196L683.127068,489.187708L684.396726,486.100665L685.516459,486.120974L726.088856,486.486545L726.988964,485.115655L727.555822,484.232193L747.407309,484.323586L759.643856,484.374360L769.540765,484.414979L772.599779,479.825043L774.881434,476.392750L781.790300,466.034972L783.640815,465.080433L790.637076,462.034036L791.354740,461.709087L794.276155,460.084344L798.405067,457.789395L804.130080,456.560685L806.136638,455.687386L808.628898,454.610996L809.702576,454.418058L810.250753,454.316512L814.966509,453.453369L816.665709,452.965948L820.208737,451.991105L821.300286,451.696621L825.622029,449.401679L838.208072,449.482916L881.779514,450.041419L906.448352,413.109364L939.467414,413.312454L950.212302,413.444462L952.090117,410.682447L994.778125,346.527321L999.522663,339.399068L1000.000000,338.678120Z "/></g><g fill="#000" font-family="Arial" font-size="12px" id="mylayer-label" stroke="none"><text text-anchor="middle" y="472.281395576"><tspan dy="0" x="490.135434721"><![CDATA[N]]></tspan></text></g></svg>