<?xml version="1.0" encoding="utf-8"?><!DOCTYPE svg  PUBLIC '-//W3C//DTD SVG 1.1//EN'  'http://www.w3.org/Graphics/SVG/1.1/DTD/svg11.dtd'><svg enable_background="new 0 0 1000 1001" height="1001px" pretty_print="False" style="stroke-linejoin: round; stroke:#000; fill: none;" version="1.1" viewBox="0 0 1000 1001" width="1000px" xmlns="http://www.w3.org/2000/svg" xmlns:xlink="http://www.w3.org/1999/xlink"><defs><style type="text/css"><![CDATA[path { fill-rule: evenodd; }]]></style></defs><metadata><views><view h="1001" padding="0" w="1000"><proj flip="auto" id="robinson" lon0="-119.639525105"/><bbox h="0.4" w="0.3" x="-1550.65" y="-816.16"/></view></views></metadata><g class="" id="mylayer"><path d="M550.102295,0.000000L534.230817,7.438144L502.151943,15.898016L499.401912,19.371879L494.730080,25.624834L492.297114,28.853485L485.748775,38.375967L478.475687,50.268864L475.770923,55.050547L473.208531,59.505280L470.141438,64.859134L456.056024,67.433890L413.819156,75.076421L399.727246,77.610310L394.673706,85.538932L387.174385,96.205798L379.972814,105.074425L370.027755,120.114325L364.217391,127.552543L357.611153,138.546401L353.418369,147.006366L333.910727,176.432376L331.186817,181.908891L320.886503,198.788018L318.602616,203.569760L305.028707,224.903710L300.111551,230.829814L293.434674,240.761153L290.678471,243.376816L286.608928,248.526404L279.621621,259.561242L276.975654,266.141280L255.334998,301.289369L253.633530,304.027655L251.686422,309.504228L250.619225,314.204275L247.100136,322.623492L240.482130,334.353189L239.796498,336.560171L233.812553,347.186389L233.191640,349.393374L228.139329,358.548278L221.573576,372.444128L218.889434,380.822516L218.249487,385.563461L218.269187,387.729582L216.859433,393.533155L216.083241,395.372316L214.673515,401.175893L213.664450,403.382888L212.927247,406.284677L210.870580,412.496962L209.189051,417.605752L207.650975,429.539892L208.156798,436.406115L207.568843,441.474044L205.163096,448.748978L198.429919,463.012766L197.809163,465.219772L196.302094,468.162448L194.931111,472.167757L194.589291,477.971370L192.326274,486.349831L188.827218,493.665663L181.957911,505.027689L179.623225,510.504353L175.756648,523.255999L172.160685,530.571852L168.158130,542.260880L164.083778,551.048093L163.211044,554.317755L160.838135,561.592757L158.576736,574.671422L155.815683,581.946436L155.202322,587.055297L152.784464,595.065995L152.494565,599.766152L155.072851,610.515213L158.155205,618.730281L161.387079,629.111520L165.788267,632.994269L170.777080,632.830785L178.399099,631.522911L186.131449,631.318556L199.591683,635.610016L204.995741,639.084057L205.630857,642.272000L204.990723,643.743359L205.191775,645.214718L200.644999,651.835837L195.211080,656.331660L186.891500,661.604036L184.983247,663.443238L179.395468,672.271410L179.208303,673.742772L177.960300,676.276786L176.326879,687.189400L174.297186,693.360957L172.247495,697.775053L170.606084,703.946616L172.148392,710.404281L172.843348,717.638505L174.022307,721.194311L173.506888,727.325014L173.747918,731.698251L172.687794,734.600119L172.914804,736.030618L171.635235,740.403858L167.858803,746.984157L163.958368,750.744329L156.551773,757.079404L154.429944,758.591649L151.208797,761.943110L146.636957,769.626951L135.735258,789.817492L128.285699,801.588511L126.954809,806.656592L126.304145,813.563900L128.598616,822.514795L137.832798,838.086917L145.033796,850.225828L146.985249,858.441058L146.605636,863.182188L147.287907,869.312963L151.026622,880.021390L153.709829,888.972334L161.579222,903.890589L164.862438,908.876968L165.050985,910.675335L167.912906,914.231198L172.465524,921.302054L177.278698,931.642678L176.930757,934.544594L176.887315,938.141336L175.763827,942.882497L173.171079,946.928834L167.376388,953.223139L165.294090,955.798083L158.678214,963.236813L148.902358,978.686497L144.157999,988.536702L143.938791,990.008103L142.879138,992.910033L142.046315,996.425047L151.385431,999.000000L163.259307,998.182555L165.045219,998.019065L179.944183,991.193398L183.107694,989.721997L205.277817,954.939768L206.465036,936.138605L209.658171,929.353844L222.767086,901.479144L222.888995,899.394674L224.102855,893.999579L225.757416,889.953260L230.153639,881.778880L234.459620,874.258456L237.718185,868.495526L260.963139,830.280417L272.588687,810.171553L530.383807,748.619014L536.524000,747.352000L548.221563,743.796186L557.390029,742.447429L581.253863,741.752615L586.714797,740.894315L604.674804,734.600119L612.950145,732.924393L627.386030,732.147836L644.061905,733.864434L648.559073,733.864434L823.846546,618.893765L833.808635,612.150052L863.740211,591.796322L867.298096,589.344067L873.695855,585.011752L868.790018,582.028178L867.036088,580.965535L862.369862,578.472412L853.458096,573.690522L849.846791,571.728721L848.215952,571.033917L843.744098,569.153859L837.382889,567.396413L833.668575,566.824221L829.423646,566.170288L825.405188,565.516355L820.125044,565.066776L811.279678,564.780680L806.426753,564.780680L794.559748,564.821551L782.110465,565.066776L771.298205,565.230259L764.355315,565.312001L754.345391,565.434613L726.599697,565.720709L724.218556,565.802451L714.098673,566.047676L709.698617,565.843321L704.476702,565.352872L700.613539,564.658068L694.906127,563.554556L690.673912,562.164948L684.674652,559.017896L683.192501,557.832643L679.638767,553.582081L673.851136,544.427029L672.290940,541.933914L667.540351,538.092064L665.340047,537.070296L716.835148,503.556347L733.428773,492.725639L756.713536,484.101951L833.570444,485.859384L844.646876,482.467129L845.985733,480.709696L851.354077,473.557354L857.029390,453.857783L843.892712,447.931570L827.057048,425.411986L807.555212,399.336731L769.249372,364.842279L748.449939,346.082897L732.289509,323.931332L728.691173,318.986063L692.138634,307.787690L661.299306,294.668442L658.826281,284.573579L657.855230,280.690942L664.625589,247.055093L651.553467,223.759359L641.737689,218.160216L636.643678,191.104538L644.187268,180.723675L646.121694,178.026287L642.750049,164.089791L638.964858,160.411539L633.083282,154.730686L622.200280,147.292452L628.896279,119.296938L607.862154,85.743278L615.970120,50.309733L629.506099,34.452540L649.673925,18.595368L632.723083,10.217232L619.834698,12.996320L607.864800,19.535355L579.953139,21.415328L579.319129,20.679686L562.362886,0.000000L550.102295,0.000000Z " data-aland="2244400" data-awater="0" data-classfp="U1" data-funcstat="S" data-geoid="5340350" data-intptlat="+48.8234940" data-intptlon="-119.6397726" data-lsad="57" data-mtfcc="G4210" data-name="Loomis" data-namelsad="Loomis CDP" data-pcicbsa="N" data-pcinecta="N" data-placefp="40350" data-placens="02586736" data-statefp="53"/></g><g fill="#000" font-family="Arial" font-size="12px" id="mylayer-label" stroke="none"><text text-anchor="middle" y="467.352704509"><tspan dy="0" x="463.108558232"><![CDATA[Loomis]]></tspan></text></g></svg>