<?xml version="1.0" encoding="utf-8"?><!DOCTYPE svg  PUBLIC '-//W3C//DTD SVG 1.1//EN'  'http://www.w3.org/Graphics/SVG/1.1/DTD/svg11.dtd'><svg enable_background="new 0 0 1000 1001" height="1001px" pretty_print="False" style="stroke-linejoin: round; stroke:#000; fill: none;" version="1.1" viewBox="0 0 1000 1001" width="1000px" xmlns="http://www.w3.org/2000/svg" xmlns:xlink="http://www.w3.org/1999/xlink"><defs><style type="text/css"><![CDATA[path { fill-rule: evenodd; }]]></style></defs><metadata><views><view h="1001" padding="0" w="1000"><proj flip="auto" id="robinson" lon0="-79.5432862784"/><bbox h="0.73" w="0.83" x="-1104.51" y="-611.9"/></view></views></metadata><g class="" id="mylayer"><path d="M1000.000000,434.558000L999.271002,434.413899L998.844292,434.084524L998.464267,433.466948L998.458495,431.202499L997.855812,428.258715L997.193964,426.550086L996.043357,424.615010L994.056510,421.959428L990.995759,419.077401L989.876656,418.171621L987.734701,416.915880L986.101241,416.236544L982.479621,415.371936L980.332400,414.075023L979.075490,413.725062L978.323153,413.725062L976.413168,414.280882L974.888456,413.210414L974.248328,413.107485L973.300188,413.210414L970.993324,413.930921L968.608895,415.351350L966.761866,415.680725L966.000644,416.133615L964.042917,417.883418L963.014648,418.274550L961.647638,418.500995L959.865982,419.797908L956.826059,420.930133L955.099830,422.268217L954.568751,422.494662L952.718400,421.753569L950.912787,421.753569L950.357155,421.527124L949.731331,420.230212L949.222842,419.653806L946.946696,418.459823L946.028676,417.492285L945.693550,416.833536L945.441717,415.454280L946.028226,412.983969L945.950662,411.398853L945.542489,410.822447L944.397341,410.431315L943.754657,409.916666L942.941478,408.331550L942.869955,405.161317L943.331012,403.082138L943.625476,402.443974L944.261391,401.599950L946.980363,399.397255L948.306265,397.935653L948.955440,396.803426L949.522087,394.765418L949.401466,392.974440L948.693887,391.430494L946.843727,389.907133L945.461524,389.166039L946.574308,380.293490L945.813470,376.896806L945.637788,373.500120L945.051063,370.679842L945.543957,368.065422L944.894076,362.466034L945.017816,360.036887L944.680617,355.116834L944.744676,350.196779L944.174714,347.376496L942.176609,344.762073L941.498539,341.488897L941.052638,336.959972L939.455988,333.563278L937.616641,331.339987L934.476002,328.746147L931.971123,326.090548L931.620949,325.967032L929.054473,323.352605L927.085049,320.635247L924.349177,319.832391L921.992206,315.262288L920.251296,310.280463L919.624384,306.883763L919.470157,302.869480L919.181312,300.481496L916.823526,297.537687L914.311172,295.149702L914.982592,291.773585L916.241201,287.368163L916.026133,285.556587L915.626946,284.527282L914.299778,282.386329L913.882480,278.536728L913.350694,276.601635L910.312788,272.196208L909.527491,269.128877L909.498639,265.505721L908.000431,263.138317L908.327280,255.892001L907.755447,254.101008L906.612451,252.680565L906.317490,251.877705L906.739608,248.316304L906.559839,247.760478L905.429679,246.113586L905.102956,241.337601L904.289869,234.523584L904.502183,233.700137L928.443190,225.342155L927.289137,218.672234L928.161315,215.296100L926.645376,198.868318L917.305849,179.434929L906.822314,166.218564L893.699229,152.034634L897.123348,149.461351L905.180181,142.914916L910.525859,138.241831L917.029983,132.168876L940.715388,108.865179L944.320310,105.221400L948.051233,101.124721L949.834269,98.921983L956.322959,89.719890L967.372640,73.497842L962.242740,70.965719L937.905154,61.701851L912.577625,80.270755L881.983449,102.627523L851.332494,125.128363L774.531472,180.773034L717.137022,221.945436L703.674756,231.456246L692.937902,238.681987L687.322031,242.222805L682.680422,245.146038L673.180794,250.868985L664.209768,255.953760L655.184704,260.812086L643.890506,266.555613L626.808246,275.016505L570.204556,302.828308L568.220546,303.589992L566.274316,304.516365L560.791050,307.460173L544.004840,315.818112L534.491011,320.449973L521.861319,326.666957L430.633950,371.606211L426.908644,373.458948L375.058445,398.964950L326.950148,422.618177L214.747130,477.808899L205.348329,482.687741L197.066715,487.216622L189.908474,491.313200L180.688068,496.933127L171.044644,503.232383L162.339772,509.222849L153.850414,515.460343L148.598588,519.495156L139.852038,526.597247L132.685780,532.525947L120.072362,544.033382L113.734518,550.229690L106.574483,557.578795L102.732353,561.654768L96.619220,568.365711L89.777582,576.373550L81.273041,586.934010L77.451811,591.956916L70.898608,600.911683L64.645011,610.051716L60.219707,616.886151L53.223297,628.517034L46.923883,640.106737L43.044941,647.682240L38.793473,656.657559L35.600991,664.109540L31.764398,673.517145L28.125761,683.295285L25.011201,693.052832L21.573263,705.115951L17.217611,723.787005L16.285378,727.801176L14.549716,734.223846L13.077816,739.637826L0.000000,793.530486L5.021822,792.727656L9.524546,791.266093L13.433770,789.413407L18.268431,786.757890L20.336995,785.872718L26.914000,783.505396L27.838539,782.826078L30.948559,782.043832L34.720543,779.902950L37.712416,777.741481L42.531579,775.682939L43.100954,775.559427L46.049616,773.974349L50.209630,772.121661L59.967562,768.416285L60.784258,768.004576L61.496262,767.428184L63.581990,766.481254L67.347795,764.422711L71.039199,762.631778L75.394121,760.799674L78.325037,760.120354L87.747531,757.320734L92.764495,756.414974L99.957608,755.920924L103.916606,756.414974L107.666666,756.517902L114.183346,757.073709L122.604855,757.032538L127.786648,757.217807L131.477799,756.991367L135.160199,756.435560L138.554435,755.653313L144.493557,755.159262L148.870332,754.150575L152.876242,752.791935L156.738628,752.009688L161.315025,751.906761L163.118518,752.215543L168.585104,751.556808L172.179522,750.836317L176.729885,751.248026L182.414612,751.248026L189.133275,751.618565L191.715980,752.071445L198.248485,752.750764L202.373448,752.647837L203.860613,752.771350L208.577626,754.027062L210.355198,754.068233L211.574399,754.253502L214.767880,754.253502L217.088002,754.027062L226.492696,752.133201L229.092226,751.803834L231.717681,751.742077L233.531829,751.350954L238.622607,751.021586L244.553305,750.918659L254.534121,751.042172L257.568364,750.712805L259.173463,750.712805L262.018863,751.062757L264.960554,751.968517L267.508388,753.388913L268.781588,754.582870L270.847405,757.917712L272.463314,763.352268L275.090307,769.239702L277.188214,777.391529L278.084229,779.882364L279.435623,782.599638L282.295229,786.387353L285.410553,789.495749L288.518082,791.369020L291.608522,792.521802L293.978741,793.077608L294.487326,793.653999L300.113650,797.894589L301.803944,799.994299L305.379781,805.717034L310.401991,816.462596L311.769252,820.085619L312.393895,822.350008L313.304846,826.652346L313.975910,832.539754L315.077773,838.200720L315.234283,840.465107L315.111578,847.464116L315.239536,849.049185L315.784573,851.540008L315.578133,853.125076L314.614415,855.389460L311.656499,859.835885L309.946916,863.520653L308.397018,868.255269L307.769839,872.557593L307.650358,879.124296L308.116652,882.500280L309.154118,884.723488L311.994284,887.378987L312.528427,888.284738L312.906347,889.993314L312.800264,891.578379L311.761763,894.954360L311.215202,898.124487L310.983275,900.162426L311.067215,905.576343L311.452185,907.861304L312.298286,910.352116L313.851476,913.728092L317.132140,918.709715L320.374544,924.370647L321.522526,925.955708L325.737829,931.184348L328.268337,932.728237L329.938177,932.254778L332.755127,931.925415L340.228274,932.048926L344.193217,932.522385L345.484651,932.748822L348.381252,933.757497L352.951233,936.145379L353.807937,936.371816L355.596585,936.433571L356.261000,936.268890L359.018993,936.392401L361.492749,937.298149L363.315277,937.298149L372.390487,935.507238L378.525556,934.910267L385.238815,935.301386L394.071636,937.030542L396.562981,937.030542L400.810833,936.124793L404.330898,934.889682L407.608069,933.325208L412.108008,930.669718L416.176757,929.084658L418.023900,927.973057L420.119640,926.387997L421.497281,924.679425L422.166069,923.114949L422.485487,921.303451L421.907703,917.906891L420.893899,916.260074L419.740184,915.477836L417.405045,914.675013L414.989388,914.222138L408.064963,914.530916L405.744795,914.757353L401.999441,915.539592L399.719758,916.342415L398.302489,916.568852L397.835638,916.383586L396.809080,914.180967L395.874055,913.213462L394.578225,912.822343L390.481739,912.822343L388.439654,912.348883L386.822619,911.669570L384.320724,910.022752L382.202961,907.655451L381.837315,906.564434L381.712355,905.329320L381.990007,903.126700L382.367540,901.768075L383.628176,899.277261L384.934131,897.465760L386.685815,895.674843L388.916227,893.966268L391.052031,893.019346L392.464457,892.689982L394.801339,892.463545L395.997282,892.010669L397.251750,891.166674L398.766266,889.808047L400.087615,888.964052L401.764488,888.284738L402.813466,888.120056L406.235840,888.078886L407.309896,888.305323L411.488631,890.055070L422.733005,895.139627L430.663273,899.153749L434.987240,900.862324L443.368552,904.938201L444.425456,905.226394L446.291094,905.432247L447.505080,905.576343L448.676381,905.452832L450.156125,905.061712L454.872099,901.809245L457.905058,900.100671L468.550562,895.366065L478.404925,890.590287L481.289163,889.416927L486.064980,887.152549L488.326604,885.752751L497.333945,880.956385L501.578233,878.980199L509.236519,875.789482L516.981037,871.445988L519.754382,869.408045L528.448863,863.150118L541.575509,854.360195L546.735877,851.313569L553.208776,847.875822L562.020296,842.400127L568.271871,838.735939L578.260841,832.272144L588.510723,826.734688L593.911319,824.387958L595.705209,823.708641L596.507771,823.708641L597.364899,823.091081L598.749145,822.802886L602.136284,821.444253L605.233903,820.044449L613.713194,815.824450L618.073616,813.971768L621.113148,812.901329L622.280031,812.613133L623.104151,812.716060L625.778477,812.057329L629.595492,810.595767L637.851666,808.743084L644.720077,806.890401L649.793721,805.840546L655.964727,804.090789L660.530174,802.402788L663.381819,801.105909L665.781585,799.870786L668.804835,797.956345L672.380733,795.136147L675.602438,791.965996L679.417718,787.622477L682.124198,784.020032L683.191664,782.043832L684.234941,779.552998L685.775502,772.986249L686.528832,770.515998L687.618328,767.798722L689.799055,763.681635L693.491664,757.794199L699.073258,749.621775L703.838586,744.146043L704.956214,742.952086L706.234434,741.902227L706.633526,741.428762L711.268112,737.867475L714.382469,735.685415L717.114011,734.038577L720.582105,732.268226L728.456808,728.418740L732.445866,726.277850L742.559707,721.831383L750.970691,719.361124L756.844198,717.899553L762.123695,716.890863L768.739879,716.005687L775.996276,714.441188L785.052733,711.332777L795.937788,708.142022L803.976958,705.445320L815.673359,701.801682L822.512627,700.113669L828.523371,698.940294L831.106123,698.610926L837.287540,698.507998L839.627400,698.631511L841.708534,699.084393L843.681420,699.866643L846.108362,701.060603L848.245769,702.995643L850.667390,705.712931L853.284353,709.171298L855.685759,711.600388L858.028237,712.917861L859.273401,713.370742L861.755819,713.823623L863.795617,713.823623L865.240994,713.556012L867.766561,712.650249L876.555021,708.821344L884.875786,704.148432L895.283629,658.633775L915.636120,568.921525L976.538224,479.682210L990.900958,451.170806L1000.000000,434.558000Z " data-aland="11716379" data-awater="44028" data-classfp="U1" data-funcstat="S" data-geoid="3758340" data-intptlat="+36.4382073" data-intptlon="-079.5338049" data-lsad="57" data-mtfcc="G4210" data-name="Ruffin" data-namelsad="Ruffin CDP" data-pcicbsa="N" data-pcinecta="N" data-placefp="58340" data-placens="02628654" data-statefp="37"/></g><g fill="#000" font-family="Arial" font-size="12px" id="mylayer-label" stroke="none"><text text-anchor="middle" y="544.659534645"><tspan dy="0" x="552.569771413"><![CDATA[Ruffin]]></tspan></text></g></svg>