<?xml version="1.0" encoding="utf-8"?><!DOCTYPE svg  PUBLIC '-//W3C//DTD SVG 1.1//EN'  'http://www.w3.org/Graphics/SVG/1.1/DTD/svg11.dtd'><svg enable_background="new 0 0 1000 1001" height="1001px" pretty_print="False" style="stroke-linejoin: round; stroke:#000; fill: none;" version="1.1" viewBox="0 0 1000 1001" width="1000px" xmlns="http://www.w3.org/2000/svg" xmlns:xlink="http://www.w3.org/1999/xlink"><defs><style type="text/css"><![CDATA[path { fill-rule: evenodd; }]]></style></defs><metadata><views><view h="1001" padding="0" w="1000"><proj flip="auto" id="robinson" lon0="-95.6944626529"/><bbox h="0.25" w="0.32" x="-1314.14" y="-652.11"/></view></views></metadata><g class="" id="mylayer"><path d="M1000.000000,298.717099L952.721713,298.930878L899.239916,299.144656L903.814909,288.135076L917.476828,255.159914L922.008582,244.150425L930.038242,222.345289L954.084699,156.930418L962.091443,135.072196L964.160503,129.514130L970.300873,112.786523L972.346485,107.175037L932.875525,107.976677L814.308987,110.328157L774.814521,111.076355L764.193488,111.290126L732.326799,111.824553L721.682281,111.984882L690.527943,111.771111L597.081248,110.969470L565.903432,110.702256L562.965844,118.825557L554.126129,143.035206L551.165136,151.105113L540.100891,181.407457L506.909810,272.315524L495.866562,302.565113L463.095532,303.313338L364.778823,305.451125L331.984290,306.145906L333.485518,301.763443L336.361440,293.105417L337.595217,288.509187L338.058334,286.798963L336.833179,285.195628L344.360170,267.772756L301.400210,268.039977L294.676146,268.039977L327.575159,181.300570L233.429859,181.674674L205.646300,181.728118L195.442136,217.642232L188.333755,235.920044L167.005617,290.646968L159.874146,308.871586L122.040190,309.352589L82.687888,309.833591L53.574833,400.743850L38.732601,447.027974L33.181604,456.113820L32.369565,458.412007L19.717259,493.686627L15.490878,505.391439L12.414710,513.889469L3.099571,539.383641L0.000000,547.828278L11.969874,547.721384L47.942768,547.347254L59.889150,547.186912L97.830530,546.652441L211.631157,544.995582L213.473097,544.942134L230.313743,500.741579L237.081329,500.741579L257.297323,500.741579L264.041419,500.688132L269.814819,500.795026L287.151311,500.955366L292.901220,501.008812L277.513866,547.133465L274.654927,555.631562L312.627018,555.364326L303.945641,580.324221L345.377838,593.258517L378.126780,603.413564L376.739475,611.804855L372.467443,636.925358L371.056738,645.263253L368.973912,650.394272L362.745370,665.733910L360.639080,670.811500L357.171345,679.897726L346.851443,707.049599L343.360310,716.082438L340.854503,722.816991L333.376937,742.913801L330.891071,749.594938L328.170186,757.024372L320.047404,779.205838L317.346472,786.581864L314.012810,795.775186L312.063972,801.013248L304.706107,823.355246L301.696115,832.495181L297.455078,844.361085L284.602072,879.958954L280.317821,891.824963L292.580889,891.397359L329.453240,890.007645L341.692805,889.526590L347.159122,889.526590L363.641227,889.419689L369.084046,889.366238L378.084309,889.312788L405.081482,889.045535L414.058245,888.938634L467.971248,889.205887L629.769920,889.847293L683.702815,890.061095L786.246830,888.350678L798.796338,856.013214L803.618840,843.398983L850.468065,687.380512L853.792217,688.823622L872.536121,666.428738L874.278849,661.511496L884.109840,634.039166L777.284129,633.504687L781.863651,619.447889L783.978981,612.713467L788.111916,601.489449L800.360913,567.870983L804.470504,556.593611L807.210794,556.807400L819.596460,556.166034L824.521490,542.697357L826.522990,537.085419L890.759102,538.635382L905.259545,538.956064L913.659393,539.116405L918.368155,539.169853L929.864415,539.169853L932.554106,539.169853L937.282756,539.169853L943.719589,539.009511L948.379610,538.261253L962.095769,535.909585L971.943642,512.125726L977.416369,498.817500L972.450938,498.870947L958.351803,498.870947L957.657691,498.870947L952.668767,498.870947L944.793139,498.817500L921.099383,498.603714L913.200262,498.496820L910.423817,498.496820L902.134259,498.389927L899.334321,498.336481L938.648610,435.590521L967.895440,388.825485L1000.000000,298.717099Z " data-aland="1938552" data-awater="61502" data-classfp="C1" data-funcstat="A" data-geoid="2010600" data-intptlat="+38.8217935" data-intptlon="-095.6931539" data-lsad="25" data-mtfcc="G4110" data-name="Carbondale" data-namelsad="Carbondale city" data-pcicbsa="N" data-pcinecta="N" data-placefp="10600" data-placens="02393740" data-statefp="20"/></g><g fill="#000" font-family="Arial" font-size="12px" id="mylayer-label" stroke="none"><text text-anchor="middle" y="480.652227143"><tspan dy="0" x="557.860899144"><![CDATA[Carbondale]]></tspan></text></g></svg>