<?xml version="1.0" encoding="utf-8"?><!DOCTYPE svg  PUBLIC '-//W3C//DTD SVG 1.1//EN'  'http://www.w3.org/Graphics/SVG/1.1/DTD/svg11.dtd'><svg enable_background="new 0 0 1000 1001" height="1001px" pretty_print="False" style="stroke-linejoin: round; stroke:#000; fill: none;" version="1.1" viewBox="0 0 1000 1001" width="1000px" xmlns="http://www.w3.org/2000/svg" xmlns:xlink="http://www.w3.org/1999/xlink"><defs><style type="text/css"><![CDATA[path { fill-rule: evenodd; }]]></style></defs><metadata><views><view h="1001" padding="0" w="1000"><proj flip="auto" id="robinson" lon0="-98.3492999432"/><bbox h="0.12" w="0.24" x="-1353.5" y="-644.18"/></view></views></metadata><g class="" id="mylayer"><path d="M1000.000000,316.688847L826.376469,313.378190L847.128295,245.797860L549.024838,248.100909L473.012161,248.676671L413.087357,249.108493L393.792656,249.252434L316.089098,249.828196L240.223762,248.604701L211.900391,248.100909L203.616423,247.956968L93.770194,498.488922L48.057121,622.138038L9.854758,725.060269L0.000000,751.762656L0.000000,751.762656L12.244631,751.762656L68.290251,748.451844L283.020877,750.683043L534.377964,753.202140L537.643200,753.202140L544.935760,734.920710L549.845179,722.397232L595.316510,723.044997L597.928854,718.078795L628.703732,632.070344L656.145548,560.457219L672.250101,518.425251L679.717603,498.273005L736.047387,500.288228L748.900472,497.409338L751.745396,490.571980L779.870988,419.319805L950.417203,428.532177L1000.000000,316.688847Z " data-aland="759335" data-awater="0" data-classfp="C1" data-funcstat="A" data-geoid="2012650" data-intptlat="+38.3552152" data-intptlon="-098.3485076" data-lsad="25" data-mtfcc="G4110" data-name="Chase" data-namelsad="Chase city" data-pcicbsa="N" data-pcinecta="N" data-placefp="12650" data-placens="02393808" data-statefp="20"/></g><g fill="#000" font-family="Arial" font-size="12px" id="mylayer-label" stroke="none"><text text-anchor="middle" y="478.732381748"><tspan dy="0" x="438.04510767"><![CDATA[Chase]]></tspan></text></g></svg>