<?xml version="1.0" encoding="utf-8"?><!DOCTYPE svg  PUBLIC '-//W3C//DTD SVG 1.1//EN'  'http://www.w3.org/Graphics/SVG/1.1/DTD/svg11.dtd'><svg enable_background="new 0 0 1000 1001" height="1001px" pretty_print="False" style="stroke-linejoin: round; stroke:#000; fill: none;" version="1.1" viewBox="0 0 1000 1001" width="1000px" xmlns="http://www.w3.org/2000/svg" xmlns:xlink="http://www.w3.org/1999/xlink"><defs><style type="text/css"><![CDATA[path { fill-rule: evenodd; }]]></style></defs><metadata><views><view h="1001" padding="0" w="1000"><proj flip="auto" id="robinson" lon0="-72.0637675775"/><bbox h="0.35" w="0.65" x="-961.78" y="-739.8"/></view></views></metadata><g class="" id="mylayer"><path d="M1000.000000,455.961352L972.081411,442.440275L971.411552,442.114768L963.113654,438.834651L951.833404,434.352658L946.558104,432.750158L939.420708,430.221210L928.971113,426.490386L922.359623,423.635928L919.849001,422.559247L915.724384,420.731392L913.585555,419.829984L900.052705,413.945790L892.864721,411.266603L890.360408,410.290076L890.077376,410.214959L882.732518,407.335457L880.216331,406.333891L873.110501,402.828409L872.003885,402.277547L759.995153,356.080168L681.511328,323.704300L651.713170,312.386490L516.354195,260.930331L483.958800,248.610856L434.460909,229.831134L427.602228,234.538588L334.187753,296.160931L262.238704,343.059725L248.698946,352.023802L244.838158,354.402535L235.924875,360.211651L231.879876,362.940933L230.455128,363.892425L157.797126,412.819029L113.198624,445.970781L108.064917,449.751675L77.153921,460.167906L72.903595,461.595128L24.651503,491.391484L19.081652,495.122281L16.494855,501.056499L5.508409,523.967050L0.000000,590.545026L9.948388,596.479180L101.815469,601.386748L378.436117,612.128302L414.143785,644.628312L429.798605,658.850159L548.797778,692.601918L742.299920,747.485813L789.657562,760.906276L817.210027,760.530704L822.217158,767.691615L831.412831,769.168866L835.710791,755.723376L836.427810,749.589021L842.443123,736.894649L842.877182,734.290673L842.712722,729.383178L845.699535,720.820093L846.503910,710.829818L847.739478,706.873766L856.988376,691.174732L860.071349,685.941714L861.665447,681.785344L861.302775,678.805777L867.993771,666.361689L869.900871,660.953388L872.116695,649.636007L874.058327,631.007367L871.812975,619.890257L873.549454,597.831265L876.243373,583.784592L879.328229,573.168197L881.802588,567.434337L890.039359,553.337538L898.215798,541.068548L898.813524,538.113972L897.911590,537.212576L898.528912,534.733736L900.018109,533.006059L901.516040,531.253344L908.500892,525.118835L912.465657,520.136109L913.898590,518.333313L914.930051,517.031294L919.257246,513.550894L923.490479,510.871737L929.139949,508.092423L933.404763,500.831149L942.027983,492.718547L944.036759,490.565200L944.230334,490.364889L949.725903,484.480742L953.363242,479.372798L954.329706,478.020695L961.080867,474.565319L965.454215,472.311812L967.792585,472.286773L973.055253,470.734357L977.936678,468.856434L993.767041,458.640526L998.956282,456.412055L1000.000000,455.961352Z " data-aland="4858134" data-awater="95549" data-classfp="C1" data-funcstat="A" data-geoid="5078025" data-intptlat="+44.1556424" data-intptlon="-072.0659269" data-lsad="47" data-mtfcc="G4110" data-name="Wells River" data-namelsad="Wells River village" data-pcicbsa="N" data-pcinecta="N" data-placefp="78025" data-placens="02378330" data-statefp="50"/></g><g fill="#000" font-family="Arial" font-size="12px" id="mylayer-label" stroke="none"><text text-anchor="middle" y="492.750344125"><tspan dy="0" x="519.471590954"><![CDATA[Wells River]]></tspan></text></g></svg>