<?xml version="1.0" encoding="utf-8"?><!DOCTYPE svg  PUBLIC '-//W3C//DTD SVG 1.1//EN'  'http://www.w3.org/Graphics/SVG/1.1/DTD/svg11.dtd'><svg enable_background="new 0 0 1000 1001" height="1001px" pretty_print="False" style="stroke-linejoin: round; stroke:#000; fill: none;" version="1.1" viewBox="0 0 1000 1001" width="1000px" xmlns="http://www.w3.org/2000/svg" xmlns:xlink="http://www.w3.org/1999/xlink"><defs><style type="text/css"><![CDATA[path { fill-rule: evenodd; }]]></style></defs><metadata><views><view h="1001" padding="0" w="1000"><proj flip="auto" id="robinson" lon0="-74.8359278043"/><bbox h="0.32" w="0.37" x="-1018.04" y="-683.92"/></view></views></metadata><g class="" id="mylayer"><path d="M1000.000000,690.203859L992.935518,628.261689L993.540963,624.592059L939.772417,517.378699L901.336445,373.342242L898.130587,361.405789L898.260906,359.991101L898.957934,355.702832L792.641070,304.111388L792.129928,296.463365L784.834354,292.307799L773.727244,296.198116L761.653494,289.345856L736.276731,274.934049L734.279000,273.784644L642.278892,221.575523L519.842392,109.954094L525.964594,104.118934L529.620968,100.715095L502.535576,70.213314L449.458544,119.414146L460.989181,128.387959L383.568089,195.537568L385.861242,197.350051L389.533367,200.532950L392.715838,203.539024L395.843721,205.926202L398.204549,208.092347L402.190561,211.319463L406.077509,215.077067L402.840645,217.862118L390.134332,227.808746L383.461412,232.981004L376.845827,237.976440L370.079110,243.325543L363.535193,248.099957L356.862279,253.272245L350.573631,258.046672L344.155986,263.218975L338.159074,267.993416L327.552450,276.525534L319.564014,282.493609L313.495444,287.489116L307.221138,292.219382L300.548237,297.391737L293.896202,302.387266L280.550406,312.732013L259.670851,328.204983L252.997960,333.377391L246.090665,338.372972L239.089573,343.545396L232.290409,348.319947L225.397449,353.271341L217.100422,358.841668L265.208005,403.139346L395.252524,522.728235L394.491719,526.088278L379.847954,537.627399L367.561636,548.193908L363.267152,555.930913L359.842572,566.497478L357.632908,584.005331L354.682459,595.809918L355.043042,601.336424L354.326671,602.309090L351.084812,605.448150L347.931514,608.764062L344.870741,610.444125L343.383319,611.770492L341.189970,613.362132L338.716613,614.467438L336.687389,615.440108L334.772791,616.059080L332.075403,617.518085L330.192052,618.490755L328.630399,619.596063L327.231575,619.861337L324.837669,620.834008L322.846209,622.027742L320.263445,623.133051L317.164906,624.592059L313.811089,626.051068L308.396798,628.129051L305.181041,629.499637L303.226048,630.693373L295.759057,634.716709L292.125193,636.927336L288.370187,639.624302L284.669902,641.702293L281.869622,643.028672L279.883379,643.868712L277.615795,645.239303L275.113777,646.433045L272.975145,647.405724L267.658516,649.970060L266.018706,651.429080L263.349970,652.799674L259.649682,654.877674L256.995273,656.204057L251.435099,658.282059L249.551744,659.254741L247.625405,660.360062L241.664076,662.438066L239.599675,663.631814L235.472201,665.002413L231.316070,666.461439L223.559973,668.451021L220.960279,669.158429L217.434546,669.910049L214.565245,670.661669L209.308542,672.253337L207.067015,673.093384L204.522007,674.419774L202.655570,675.790378L199.769315,677.382048L194.999700,679.946406L192.144724,680.653816L189.568464,681.626504L186.759065,682.643406L183.073096,684.677211L179.814341,686.180458L176.990613,687.241574L174.388291,688.744823L173.696687,688.965889L172.000887,689.584874L168.451680,691.309190L165.020989,693.343000L162.765131,694.227265L159.878872,695.818943L154.696365,698.869662L152.819519,699.709716L149.855105,701.655103L147.637012,702.760438L144.483740,704.838468L141.050452,706.430151L136.486637,708.021835L134.457401,708.994531L131.771730,709.967227L129.541929,710.320935L128.131360,711.072564L125.743953,711.912621L124.448007,712.310542L121.418466,714.344364L118.615575,715.228635L116.433949,716.333974L114.101230,717.793022L108.778084,719.252070L106.651172,719.738420L104.736557,720.357410L101.291556,721.197469L99.479831,721.949101L96.040047,722.435451L92.156124,723.054442L88.375091,723.806074L80.466585,724.690347L75.183821,725.574620L71.082382,726.414680L65.567801,726.326253L62.655526,725.972544L59.287379,726.237826L56.759308,726.724176L53.932972,727.343168L51.008964,727.475809L48.013315,727.829519L45.599868,727.962160L38.072994,728.006374L36.043780,727.741091L32.979116,727.520023L31.878540,727.652664L29.909232,727.652664L25.836444,728.404297L24.870008,729.023289L23.437291,729.730709L21.863887,731.322403L19.865890,732.648816L17.922580,734.594223L16.148584,736.804913L14.821322,739.325102L13.832689,742.375859L12.946976,744.321271L11.387876,747.106749L9.725862,750.997579L8.587445,754.623130L7.980459,756.833833L7.820191,760.592032L7.221023,762.891167L7.137635,764.836591L6.800266,767.003086L6.175063,768.594798L4.398468,771.601367L0.000000,776.509155L0.565184,784.556173L1.191647,786.899539L1.379186,789.021834L1.927520,789.242906L7.651814,819.972118L27.506237,874.401080L242.385115,772.529867L386.031671,797.643671L389.497035,928.786686L468.808906,912.603562L547.632382,898.940820L551.649746,876.744507L666.713386,867.503454L808.150247,831.335364L816.784718,795.786658L900.946878,791.984206L938.087714,777.526085L991.741050,762.979596L1000.000000,690.203859Z "/></g><g fill="#000" font-family="Arial" font-size="12px" id="mylayer-label" stroke="none"><text text-anchor="middle" y="552.201551786"><tspan dy="0" x="570.511540514"><![CDATA[N]]></tspan></text></g></svg>