<?xml version="1.0" encoding="utf-8"?><!DOCTYPE svg  PUBLIC '-//W3C//DTD SVG 1.1//EN'  'http://www.w3.org/Graphics/SVG/1.1/DTD/svg11.dtd'><svg enable_background="new 0 0 1000 1001" height="1001px" pretty_print="False" style="stroke-linejoin: round; stroke:#000; fill: none;" version="1.1" viewBox="0 0 1000 1001" width="1000px" xmlns="http://www.w3.org/2000/svg" xmlns:xlink="http://www.w3.org/1999/xlink"><defs><style type="text/css"><![CDATA[path { fill-rule: evenodd; }]]></style></defs><metadata><views><view h="1001" padding="0" w="1000"><proj flip="auto" id="robinson" lon0="-80.4619327194"/><bbox h="0.4" w="0.51" x="-1128.44" y="-569.4"/></view></views></metadata><g class="" id="mylayer"><path d="M1000.000000,108.860948L983.405552,109.889762L958.071054,111.383202L913.173908,114.270517L905.640679,114.768330L875.157290,116.726393L866.253140,117.290580L818.624413,120.377017L710.755651,127.346384L658.059162,130.797877L633.185516,132.324498L597.173389,134.614429L568.908500,136.539297L530.283962,138.995163L519.159086,140.023972L503.707043,141.650152L487.716949,144.703388L479.661292,146.462316L472.268625,148.221244L461.553175,151.174914L453.236116,153.829897L438.323380,159.106671L430.081773,162.425395L414.198883,169.726579L388.166636,182.470441L360.595635,195.712078L332.542626,209.318739L322.076180,213.964908L309.784433,219.042503L308.924357,219.374371L297.063047,223.755037L295.598524,224.286027L286.621717,227.140094L276.263660,229.994161L265.159727,232.848226L228.162664,242.406013L220.964948,244.264470L199.936652,249.474782L165.544911,258.999354L163.866388,259.397593L148.797611,263.048121L104.438545,274.563861L93.351858,277.351529L83.558594,279.840517L77.509135,281.533029L76.001773,286.145949L72.455624,297.197030L71.534974,299.984687L53.594894,354.244143L52.736856,354.144585L19.919953,351.489700L1.456666,373.657944L0.000000,375.217683L11.452731,388.923449L19.747852,390.483183L27.988712,395.427868L61.960216,411.025168L89.219251,443.248383L82.148761,475.438221L78.038869,496.278550L76.605891,503.678838L74.956539,511.908744L72.760558,529.330881L64.515622,594.837616L57.054337,652.047511L50.965720,702.620024L46.942455,734.045095L69.314827,728.237941L99.161464,714.533034L118.507392,739.719507L152.402957,779.141578L161.286477,797.624723L165.235940,805.787815L166.776478,817.468317L178.154359,844.081183L181.256862,847.864048L189.682602,858.250324L216.018681,882.805656L233.141851,890.139052L248.409845,889.010838L251.711417,888.745376L256.539731,887.816258L278.439583,877.463222L289.128721,872.386245L317.929711,862.796387L337.421229,858.183958L351.682316,857.420750L379.090757,855.927516L398.486251,853.272878L412.212640,851.381447L446.149323,843.815718L521.310846,835.486768L561.433128,833.230317L570.912229,833.960345L574.660307,788.001549L580.554412,715.163527L580.698725,713.338416L581.228803,707.066666L581.851217,702.454105L582.569889,698.637954L583.409100,695.419111L585.138554,690.375148L587.716672,683.771531L589.556053,679.789447L591.621462,676.106016L596.028552,668.739147L599.382984,663.396502L624.819434,621.783419L628.001180,616.573465L643.170457,591.452789L667.727898,551.199732L707.859621,485.758839L738.731297,435.914383L751.309704,416.600362L773.001489,383.315040L790.353476,357.031770L793.232957,352.452096L798.461370,344.056017L800.438846,340.604661L803.320354,335.593553L812.926314,315.814566L814.492756,312.562309L822.297023,296.831980L825.952213,289.066357L833.458032,273.103653L842.735027,255.116516L850.906762,242.638320L852.519126,240.481182L857.869490,233.312841L874.553985,212.239189L879.542495,206.564223L894.991510,187.050259L896.112903,185.822337L902.936106,178.620736L906.056260,175.766643L906.826815,175.036525L918.544041,166.441047L933.669268,155.688384L975.923529,125.653825L992.938692,113.374454L1000.000000,108.860948Z "/></g><g fill="#000" font-family="Arial" font-size="12px" id="mylayer-label" stroke="none"><text text-anchor="middle" y="463.671615839"><tspan dy="0" x="424.757910635"><![CDATA[N]]></tspan></text></g></svg>