<?xml version="1.0" encoding="utf-8"?><!DOCTYPE svg  PUBLIC '-//W3C//DTD SVG 1.1//EN'  'http://www.w3.org/Graphics/SVG/1.1/DTD/svg11.dtd'><svg enable_background="new 0 0 1000 1001" height="1001px" pretty_print="False" style="stroke-linejoin: round; stroke:#000; fill: none;" version="1.1" viewBox="0 0 1000 1001" width="1000px" xmlns="http://www.w3.org/2000/svg" xmlns:xlink="http://www.w3.org/1999/xlink"><defs><style type="text/css"><![CDATA[path { fill-rule: evenodd; }]]></style></defs><metadata><views><view h="1001" padding="0" w="1000"><proj flip="auto" id="robinson" lon0="-91.3559573606"/><bbox h="0.7" w="0.54" x="-1259.66" y="-637.89"/></view></views></metadata><g class="" id="mylayer"><path d="M207.100617,999.000000L291.405846,770.810708L334.195380,741.462503L382.535813,654.739760L385.427134,654.910954L390.216835,655.204429L450.988855,658.872867L421.020430,729.307515L448.529123,731.948837L451.228839,732.217861L453.878534,740.313036L472.185651,770.346027L487.691559,796.221529L495.003236,807.838654L511.521204,824.224969L516.706976,829.581107L520.228728,833.078497L531.955239,823.980397L565.442355,823.540167L571.228254,806.591340L617.690750,670.098310L643.265493,595.066950L667.263832,524.561203L700.289077,500.350348L725.467401,481.862154L767.239447,481.617602L779.427314,445.815303L792.723254,406.760827L788.104816,409.744312L774.198451,418.670324L769.568548,421.629363L768.682440,420.162071L767.812052,418.939328L762.224950,411.162690L760.355998,408.570481L761.668419,407.739018L767.122343,404.510987L770.441114,403.019246L772.767159,401.943237L774.281611,400.867228L777.713309,397.590292L781.531154,393.237352L782.993122,391.036429L783.537464,389.495784L783.954364,383.969029L783.747593,379.518285L783.416571,377.292915L783.070159,375.752275L782.661378,374.627363L782.494536,374.187181L783.058690,372.646541L783.298900,371.301540L783.788119,369.980993L784.325410,369.100628L784.407420,368.220264L784.801907,367.119809L785.339199,366.239445L787.180290,363.622810L790.741134,369.442992L791.780204,370.518993L797.980246,376.901641L805.257257,382.330568L807.997926,384.164667L809.816565,385.974311L809.956232,386.145494L812.008497,388.664325L813.119876,390.865247L861.962080,360.957267L863.933234,360.981721L868.327680,360.981721L875.814816,359.514451L879.559955,358.805270L880.502062,353.596464L881.198639,346.260130L884.273163,314.616221L838.509178,311.706168L826.700754,303.367286L807.200163,289.599609L783.614032,272.775228L779.702664,263.335998L775.419477,258.127313L772.693769,256.831256L766.932627,257.124703L763.928216,257.809412L764.784876,250.644425L763.448439,229.809788L780.552446,200.514315L790.951333,193.985219L817.953798,179.679932L846.802179,169.776301L847.362302,168.015658L848.957329,163.100534L852.431705,152.610065L861.136111,126.127250L857.038768,126.127250L848.527381,126.127250L827.308293,126.127250L789.541485,126.127250L612.532746,126.102797L553.535388,126.078344L549.180724,126.078344L537.292907,126.053891L536.125066,126.053891L534.530089,126.029438L531.778734,126.029438L530.399856,129.844126L523.133342,146.350030L521.326004,147.646052L514.243185,165.472509L505.760317,175.963011L500.991480,179.386491L494.848658,183.763659L479.546844,198.117867L455.874952,216.996050L452.435573,220.933091L439.696886,230.029872L436.112132,230.616761L413.429261,244.848864L410.929149,246.144917L408.253775,246.096009L403.701647,249.348370L396.474144,252.551826L378.016118,256.880164L355.184830,256.904618L310.370280,256.904618L300.486269,284.757702L267.167727,381.939294L264.557736,389.544693L261.265005,391.598887L248.434705,399.571126L246.874302,396.538739L241.138478,386.121039L235.604279,377.610825L229.152446,369.760902L218.810094,360.199177L209.203784,352.544922L204.057432,348.999026L182.801838,332.541218L167.593672,318.088725L153.370110,302.780386L143.480656,286.836298L137.845725,274.731548L134.809643,265.805846L129.242149,232.646422L129.624079,229.027268L129.941485,205.845195L129.875488,202.030436L132.521945,193.740684L134.728785,185.230867L138.563672,172.466174L145.041310,153.979448L151.867102,135.517259L158.444212,119.818350L173.229247,89.618905L178.504597,78.786283L207.567002,18.779460L213.939794,5.599596L212.326142,4.352524L208.288333,2.494142L202.764999,0.000000L158.940282,92.748877L154.975240,91.257250L151.879207,97.321576L148.595682,103.703801L147.912755,118.253353L123.142267,176.305359L120.285430,186.722529L118.348418,195.427977L115.888472,204.157898L115.838130,211.567340L115.726837,241.987767L121.792402,274.731548L126.145709,285.833681L130.628358,297.253747L142.236325,315.765571L157.609284,331.709771L194.783021,358.560725L200.302468,362.522356L209.947240,369.540810L219.994898,379.444921L226.263551,387.832866L230.338910,395.047001L234.543942,403.972982L237.738412,412.727799L238.809165,415.686833L240.359142,422.411919L234.783974,425.297596L231.277617,427.107258L222.693018,431.680328L196.916286,445.350658L188.328547,449.874838L175.682235,456.086423L178.804747,501.793213L180.098635,511.306354L177.234592,560.706560L179.504628,560.144079L186.266818,558.481092L188.525384,557.894156L191.411121,557.209397L200.076655,555.130666L202.950921,554.421451L203.166963,555.473045L203.811950,558.578915L204.016526,559.606054L201.955148,560.951117L200.350339,562.932028L198.298561,564.888485L194.494746,567.920995L191.457439,570.097556L189.255795,572.494220L187.129088,574.670784L184.288388,578.828268L183.576261,580.222248L182.017692,583.230314L180.804849,588.537231L180.918334,593.844155L182.313200,598.759792L184.416297,602.990667L187.239274,607.025900L190.862618,608.884553L193.945558,611.574711L195.471674,613.604559L196.407992,615.389848L197.314900,619.180532L197.713969,621.846241L198.507473,623.411428L200.537019,625.881491L204.168730,627.715697L207.100570,630.210219L209.751401,633.413969L210.093301,633.805267L212.480893,637.840529L218.260403,648.136579L219.249749,651.976205L207.389737,656.402785L207.051175,656.525066L193.210719,696.780256L188.548172,710.304717L187.466071,713.484072L184.205180,722.948783L183.111629,726.103691L179.843385,735.299406L231.678602,736.204305L227.157091,749.606609L203.839549,816.789976L190.705708,853.818328L178.704594,887.985464L172.564424,898.526705L171.337848,899.920793L146.856345,942.844232L146.433724,943.504596L151.717251,949.912578L146.778744,962.043746L135.324923,990.243956L148.455652,991.858197L207.100617,999.000000Z "/></g><g fill="#000" font-family="Arial" font-size="12px" id="mylayer-label" stroke="none"><text text-anchor="middle" y="459.226832392"><tspan dy="0" x="481.545422283"><![CDATA[N]]></tspan></text></g></svg>