<?xml version="1.0" encoding="utf-8"?><!DOCTYPE svg  PUBLIC '-//W3C//DTD SVG 1.1//EN'  'http://www.w3.org/Graphics/SVG/1.1/DTD/svg11.dtd'><svg enable_background="new 0 0 1000 1001" height="1001px" pretty_print="False" style="stroke-linejoin: round; stroke:#000; fill: none;" version="1.1" viewBox="0 0 1000 1001" width="1000px" xmlns="http://www.w3.org/2000/svg" xmlns:xlink="http://www.w3.org/1999/xlink"><defs><style type="text/css"><![CDATA[path { fill-rule: evenodd; }]]></style></defs><metadata><views><view h="1001" padding="0" w="1000"><proj flip="auto" id="robinson" lon0="-76.1187125105"/><bbox h="0.06" w="0.08" x="-1034.35" y="-686.68"/></view></views></metadata><g class="" id="mylayer"><path d="M1000.000000,161.720173L952.991538,170.915265L811.741612,197.718010L764.540074,206.521841L718.083563,214.543113L578.067617,238.606953L531.514541,246.432600L486.186807,255.432099L350.463815,281.648058L305.104590,290.256292L260.295171,298.668890L125.447159,323.711065L80.541177,331.928038L76.940097,366.556753L68.225984,447.161731L64.683169,470.443340L65.072395,498.420444L66.484159,502.920263L53.167109,561.418016L13.412608,736.325599L0.000000,794.628545L20.284366,813.802043L22.380584,815.758524L106.306242,830.627785L135.218811,835.518992L147.721463,837.279827L160.908432,836.497233L189.124859,834.736399L242.081001,825.149634L269.303002,820.062782L311.040426,812.628155L435.898011,789.932998L477.538871,782.302737L524.514144,773.694242L589.303712,761.564097L665.309735,748.260078L712.058294,739.847247L759.161453,731.825716L818.840977,721.456425L900.506627,706.195970L947.611893,697.196222L949.201719,679.783680L953.843375,626.959227L955.336781,609.351115L956.635006,592.329957L960.368232,541.266592L961.504964,524.245506L966.500509,486.877437L971.565607,447.357374L977.769200,375.751960L980.857624,338.775518L984.718224,303.364295L996.300598,197.131088L1000.000000,161.720173Z " data-aland="143168" data-awater="0" data-classfp="U1" data-funcstat="S" data-geoid="4270128" data-intptlat="+40.8960297" data-intptlon="-076.1187088" data-lsad="57" data-mtfcc="G4210" data-name="Sheppton" data-namelsad="Sheppton CDP" data-pcicbsa="N" data-pcinecta="N" data-placefp="70128" data-placens="02390292" data-statefp="42"/></g><g fill="#000" font-family="Arial" font-size="12px" id="mylayer-label" stroke="none"><text text-anchor="middle" y="507.749685195"><tspan dy="0" x="511.467000676"><![CDATA[Sheppton]]></tspan></text></g></svg>