<?xml version="1.0" encoding="utf-8"?><!DOCTYPE svg  PUBLIC '-//W3C//DTD SVG 1.1//EN'  'http://www.w3.org/Graphics/SVG/1.1/DTD/svg11.dtd'><svg enable_background="new 0 0 1000 1001" height="1001px" pretty_print="False" style="stroke-linejoin: round; stroke:#000; fill: none;" version="1.1" viewBox="0 0 1000 1001" width="1000px" xmlns="http://www.w3.org/2000/svg" xmlns:xlink="http://www.w3.org/1999/xlink"><defs><style type="text/css"><![CDATA[path { fill-rule: evenodd; }]]></style></defs><metadata><views><view h="1001" padding="0" w="1000"><proj flip="auto" id="robinson" lon0="-75.6070165036"/><bbox h="0.54" w="0.37" x="-1028.37" y="-684.64"/></view></views></metadata><g class="" id="mylayer"><path d="M436.610540,0.000000L436.087873,0.213307L431.851111,1.858816L431.136242,4.418499L432.345267,5.637397L430.340002,18.405388L430.791356,26.602534L429.207532,38.700233L428.610369,51.316033L428.538161,59.117140L427.715779,78.162918L427.250567,85.476536L418.186917,108.179368L468.308524,128.840654L488.485168,137.160071L493.060089,139.079940L489.786598,153.646619L488.962969,157.151168L487.520683,163.459369L484.960360,174.552090L484.510977,176.380566L481.720351,188.021892L479.678454,196.463412L477.926157,203.716438L476.478592,209.811435L474.910999,216.272149L473.308547,222.915731L471.935925,228.706024L470.413264,234.953461L468.955781,241.079012L466.609672,250.831166L465.910822,253.726344L464.017130,263.326170L454.903695,309.863011L437.864241,396.264830L457.706281,402.086016L490.793336,411.838821L497.390243,413.576043L499.292301,414.063685L502.344036,431.893148L503.091779,436.281960L500.767345,459.384307L499.844557,468.558255L517.200903,473.526222L518.554606,473.922440L535.211423,478.646591L546.911543,481.999219L551.717393,483.370751L556.498100,484.742283L561.238514,486.083337L571.031419,488.887362L559.351960,516.592523L557.434902,521.286278L549.965521,538.842223L527.631222,544.907587L528.316551,548.107912L528.564993,549.113729L528.736166,551.734951L528.834631,553.197960L528.559510,556.489733L528.032311,559.476717L525.454213,568.102415L523.826296,573.984976L523.409710,576.941501L523.238543,579.379876L523.473403,583.647037L523.540982,584.744308L523.497972,585.872059L523.454657,586.847413L512.907692,589.407716L507.096406,590.870748L501.752626,592.211861L498.821834,592.943378L496.861205,593.400576L494.880579,593.918734L480.719264,597.454403L458.916592,602.818875L444.297739,606.445997L430.940515,609.676883L421.550005,612.084811L396.334708,618.729484L296.373059,645.094996L175.614105,676.977839L172.467228,677.831306L171.160119,678.136115L155.847794,682.190084L156.129914,692.523165L157.014218,724.711453L157.622064,746.780188L157.832724,748.974879L157.763760,752.175475L158.598978,781.986945L158.946632,794.576153L159.481701,812.652299L159.977590,831.155341L160.234129,840.879402L160.555767,852.859256L161.119104,872.155177L161.518268,887.427414L161.926590,902.212007L164.647924,999.000000L178.425935,994.793071L183.341998,993.299307L196.396144,989.305782L205.921631,986.409719L228.340342,979.550634L299.024671,958.028480L394.096903,928.702568L403.003873,925.928514L405.557475,925.196896L412.399000,923.276400L426.152330,919.374443L432.993847,917.453951L474.570376,905.626194L510.652403,895.292196L530.442691,889.622234L552.479916,883.312131L555.330127,882.519558L572.898560,877.489779L580.152074,875.386420L640.397375,858.163332L643.306786,861.486007L664.968521,886.086135L674.433177,896.877349L684.611813,896.054289L687.961166,895.810419L707.986324,894.103332L722.329072,893.005920L732.864615,892.091409L743.867998,891.207383L753.694527,890.384325L763.234419,889.591750L759.502196,880.416195L758.021353,877.184945L756.742713,874.410950L744.461916,847.738090L730.624261,812.621816L721.708987,783.358647L714.414135,758.972945L709.704152,738.976855L709.307028,722.394857L712.126071,694.778770L717.597238,640.980128L718.514028,631.896964L721.671712,602.026396L723.393661,585.658701L723.946065,580.294267L725.554917,565.115421L729.419196,545.974362L735.066265,517.872637L739.926606,506.199240L743.340269,497.939508L743.725659,496.994670L753.596563,473.190960L753.961965,472.307088L758.201686,462.066388L758.507100,461.365389L758.777368,460.694868L759.202767,459.628132L781.045082,413.210312L795.034480,383.525320L801.816436,369.140116L806.935525,358.290316L809.645381,352.560666L832.126676,292.095401L844.152206,238.976209L841.423855,197.103384L840.192268,178.330941L839.747041,171.413211L836.994655,165.165938L836.494640,164.007909L836.110912,163.185099L835.848333,162.606085L835.085741,160.869043L834.414012,159.314849L833.525137,157.273066L832.873696,155.810297L831.131385,151.848635L816.378276,153.280928L811.002986,153.798991L773.878859,157.425437L770.997614,157.699707L769.026492,157.882553L768.047576,161.630903L767.633420,163.428894L757.880985,207.007735L752.378373,231.204997L749.515990,244.370360L746.168742,259.090052L738.302109,293.558253L734.087689,312.301115L731.515756,321.901174L725.710691,347.714856L722.772978,360.576084L721.759546,364.507611L719.703872,373.071657L716.613804,387.700702L699.070934,465.083732L678.845329,469.167821L654.567608,474.105311L652.380675,474.562486L651.983464,474.623443L642.124691,476.695973L641.046092,465.266602L640.424890,458.805221L639.608669,450.332305L637.575131,428.784412L652.482926,371.547803L656.269791,350.274905L657.438687,343.417636L660.000278,328.331711L666.858961,287.432568L668.246602,287.188760L676.300974,285.786865L679.488603,285.268773L688.850312,283.714499L691.559623,277.527887L699.101819,260.370029L698.337421,260.400505L700.115517,253.756819L689.712036,252.202565L696.189969,235.989623L698.679467,235.989623L720.195948,236.629605L721.025288,233.643022L722.322900,233.673497L731.462426,201.613668L732.826537,196.768160L712.232447,199.907073L716.594118,184.090652L702.889706,184.243026L708.826903,163.550792L696.260905,164.678347L681.286288,166.019223L679.662067,166.141121L670.354505,166.994406L666.346814,167.329626L661.031798,167.817218L648.983850,168.975249L639.293948,169.767586L634.476713,170.194229L638.663728,160.503350L640.186213,156.937848L640.606919,155.962668L642.950818,150.507767L642.231313,150.324921L618.101301,144.778610L589.508608,138.196191L564.573792,132.497537L545.238736,128.048330L536.429022,126.006573L534.214301,124.939984L520.321703,118.083355L517.538908,117.138665L500.066983,111.074375L495.975814,109.672582L476.702402,102.968364L478.417941,97.513582L487.780891,67.619157L469.790469,61.067421L455.730308,55.947937L438.233164,49.579071L433.578372,47.903056L434.376169,31.996211L435.454289,15.236238L435.537425,13.834500L436.610540,0.000000Z "/></g><g fill="#000" font-family="Arial" font-size="12px" id="mylayer-label" stroke="none"><text text-anchor="middle" y="585.898324074"><tspan dy="0" x="513.847689352"><![CDATA[N]]></tspan></text></g></svg>