<?xml version="1.0" encoding="utf-8"?><!DOCTYPE svg  PUBLIC '-//W3C//DTD SVG 1.1//EN'  'http://www.w3.org/Graphics/SVG/1.1/DTD/svg11.dtd'><svg enable_background="new 0 0 1000 1001" height="1001px" pretty_print="False" style="stroke-linejoin: round; stroke:#000; fill: none;" version="1.1" viewBox="0 0 1000 1001" width="1000px" xmlns="http://www.w3.org/2000/svg" xmlns:xlink="http://www.w3.org/1999/xlink"><defs><style type="text/css"><![CDATA[path { fill-rule: evenodd; }]]></style></defs><metadata><views><view h="1001" padding="0" w="1000"><proj flip="auto" id="robinson" lon0="-77.6755400194"/><bbox h="0.54" w="0.72" x="-1057.73" y="-681.2"/></view></views></metadata><g class="" id="mylayer"><path d="M1000.000000,363.401679L912.212378,241.556404L863.575469,135.142276L857.816054,119.165721L851.422417,126.415180L850.676754,128.308356L846.040744,131.771488L844.315934,134.034071L840.571449,135.280802L837.749519,136.042693L832.407181,142.022399L829.998218,143.199873L828.311104,144.608225L822.284392,151.442210L814.380022,158.830333L807.098652,163.609542L805.237460,166.680249L801.561347,167.950091L799.019962,170.836101L795.419363,173.191089L790.301916,177.185339L785.384604,181.549012L783.708455,182.126218L782.340989,184.458132L780.148859,186.582256L777.769405,187.044022L769.404695,192.562138L767.943524,194.547741L760.871863,199.211607L755.570623,202.559440L746.579533,208.700999L742.600665,212.418269L738.348733,215.927748L717.732976,229.434695L710.635836,235.714884L696.983010,245.112122L687.739596,252.523739L677.948335,258.042067L668.697035,261.713265L651.961809,272.311298L646.069019,277.090825L640.308182,279.307421L636.088801,284.202415L630.481798,288.866527L621.289214,294.985306L613.486103,300.873209L605.245458,307.730909L595.893426,314.727177L589.007065,318.721759L579.194991,323.732317L569.246101,329.666500L556.019200,335.277438L543.705775,340.772943L539.912274,342.851080L536.512315,345.460299L533.427530,349.177867L532.755804,351.648553L530.208654,354.096152L525.619449,355.366134L0.000000,686.009315L44.647578,768.091206L51.260128,777.191131L61.958732,791.441620L102.722679,831.191184L103.849132,833.177532L105.629448,836.341835L105.090397,840.129768L107.950640,847.590172L101.908755,856.875303L100.582517,860.570892L100.267515,863.458076L100.765317,870.872388L99.758414,879.834279L105.332476,876.692992L118.744292,866.299070L124.928145,861.841252L132.832433,856.159284L143.047741,849.022204L149.869200,843.963903L151.123867,842.139223L152.856714,841.677279L157.937017,838.305092L160.152917,836.849972L162.548149,835.256271L175.739489,828.950771L183.405911,824.839506L191.707601,821.790709L199.359054,817.610171L201.945371,815.785519L206.546876,812.251706L211.426893,808.510029L222.025245,800.680250L226.537627,797.585303L238.175433,789.547707L258.954936,775.597486L296.924541,750.191750L309.602243,741.831036L312.603448,739.960274L315.604654,738.089515L319.286867,735.202544L320.204515,732.962258L322.367606,732.407961L324.131642,731.738185L339.549537,723.146607L341.713917,722.245879L343.496112,721.807063L344.937803,721.876350L346.446169,722.430644L347.514424,723.677805L348.577328,725.340688L349.635312,727.303817L351.138956,729.128373L353.956290,729.636478L356.885222,728.781938L362.949762,727.765729L367.791240,728.250738L372.048616,725.179019L374.477629,722.684695L377.015627,721.576108L380.520403,719.335840L384.920551,716.749142L392.065799,713.631253L395.594519,711.090755L400.068178,709.196932L406.594647,705.709531L412.622454,702.291423L416.364680,700.651658L419.221381,698.757846L421.347461,698.942608L423.972064,696.032609L424.657752,695.801656L426.997819,694.716182L428.302951,693.653803L430.086427,692.868567L431.891080,691.505953L434.050953,690.790003L439.893267,686.101696L443.755166,685.016227L445.793882,683.122433L447.218692,682.614342L448.241251,681.829111L448.860084,680.143176L449.253413,678.734381L450.107355,677.256303L452.794328,675.986081L453.713467,674.369436L455.065639,672.937552L456.533244,671.159245L463.307087,665.616484L462.757586,665.039114L464.250617,663.584143L467.367678,661.251572L469.251196,660.166120L473.950954,658.849721L474.840618,656.979051L474.807331,655.708843L475.588996,655.246950L476.681423,655.108382L478.319809,653.445568L479.323952,653.514852L480.259098,652.706540L484.038760,650.212322L487.319766,647.787392L487.924529,645.801261L492.289567,644.461778L495.308919,642.822069L494.978972,641.528778L495.135921,640.258582L498.439749,638.849821L498.969891,637.487250L499.942650,636.794417L503.897748,635.200904L505.955669,634.277129L507.325575,633.191693L508.389383,632.568146L509.085851,634.531167L510.142126,634.900677L511.214930,633.907619L511.870264,633.653581L512.661251,634.762111L514.312162,634.831394L515.717347,633.468826L516.826895,632.822184L518.512652,632.729806L520.612247,631.852221L521.691282,630.212524L521.764447,628.965431L522.897950,628.018565L524.539266,627.602868L525.933882,628.041659L529.722591,628.203319L535.188438,625.501289L551.928492,615.339847L556.091208,612.152862L557.301948,609.889644L558.902731,608.111404L559.163804,606.471729L559.620193,605.501782L561.542189,604.300895L563.484077,602.869070L564.747829,600.675146L566.022039,598.735258L567.798525,593.746985L569.320327,593.746985L571.497026,593.608422L575.118996,590.560040L577.753686,588.019726L585.078655,584.648042L593.785438,581.068523L600.843065,579.983121L612.414096,576.542173L618.819727,573.817131L626.281028,570.607131L638.298709,564.741389L655.169042,550.308057L654.491363,549.430514L652.314723,546.543864L647.779197,542.687306L647.035946,539.038596L648.122790,534.350707L649.377338,530.586549L650.463242,529.154786L653.488858,526.868586L656.721731,523.104444L659.075308,521.464852L661.924782,519.478868L669.690433,512.273925L681.919376,503.891289L691.534368,497.587020L695.076605,489.527750L695.414096,485.832969L696.298188,481.468518L699.012997,472.924389L702.692486,463.826092L708.017253,458.237823L712.522391,454.081271L718.748457,448.585400L726.734241,445.514187L808.433417,432.559729L885.971515,420.275022L907.829458,416.788214L910.198850,414.987084L912.307426,413.740149L913.508005,413.162864L914.811831,412.447032L916.180420,411.708108L917.621467,410.923002L919.058887,410.091714L920.523026,409.237335L922.032906,408.359865L923.596223,407.436213L925.178562,406.512561L926.772225,405.612002L928.373585,404.688351L929.955924,403.764701L933.108834,402.009767L934.618713,401.132301L936.117268,400.231744L937.577779,399.331187L939.038290,398.430631L940.487476,397.506984L943.397174,395.682784L944.773902,394.805321L946.097191,393.974040L947.374740,393.165851L949.926211,391.503293L951.192436,390.672014L952.458661,389.840736L953.759302,388.963276L956.467459,387.115993L957.871348,386.099988L959.244449,385.176348L960.697263,384.298891L962.142380,383.444525L963.629167,382.636341L965.188414,381.781975L966.793401,380.904520L968.444128,380.003973L970.159617,379.080337L971.878733,378.202882L973.586525,377.302337L975.309712,376.355611L979.988336,373.561617L981.422128,372.684166L982.775764,371.875987L984.068264,371.137081L985.368462,370.375085L986.676357,369.589998L988.015041,368.712548L989.357352,367.881281L990.688339,367.026923L991.950494,366.264928L993.178232,365.549116L994.348906,364.833303L995.496487,364.186763L996.720155,363.540223L997.993190,362.916774L999.119087,362.962956L1000.000000,363.401679Z "/></g><g fill="#000" font-family="Arial" font-size="12px" id="mylayer-label" stroke="none"><text text-anchor="middle" y="498.232467426"><tspan dy="0" x="497.987409429"><![CDATA[N]]></tspan></text></g></svg>