<?xml version="1.0" encoding="utf-8"?><!DOCTYPE svg  PUBLIC '-//W3C//DTD SVG 1.1//EN'  'http://www.w3.org/Graphics/SVG/1.1/DTD/svg11.dtd'><svg enable_background="new 0 0 1000 1001" height="1001px" pretty_print="False" style="stroke-linejoin: round; stroke:#000; fill: none;" version="1.1" viewBox="0 0 1000 1001" width="1000px" xmlns="http://www.w3.org/2000/svg" xmlns:xlink="http://www.w3.org/1999/xlink"><defs><style type="text/css"><![CDATA[path { fill-rule: evenodd; }]]></style></defs><metadata><views><view h="1001" padding="0" w="1000"><proj flip="auto" id="robinson" lon0="-75.9312416792"/><bbox h="0.3" w="0.4" x="-1030.32" y="-691.69"/></view></views></metadata><g class="" id="mylayer"><path d="M1000.000000,338.727645L993.303489,259.390102L993.120011,249.739944L992.624849,245.962016L992.269005,243.990924L992.422210,243.333894L990.983111,241.855577L977.959770,231.589498L969.838313,224.526452L960.939854,221.487704L951.381384,219.804074L930.740482,208.347198L923.047569,191.634183L920.260566,186.993973L919.540207,185.803123L917.033694,180.834410L913.747202,170.814877L914.298991,169.377651L914.644588,168.351061L913.309489,162.930672L911.741230,156.689022L911.248404,154.923293L908.745156,145.807221L906.394501,137.348182L901.235290,129.258730L893.601926,123.674144L881.475298,127.903646L790.823915,160.302607L777.647933,165.024912L755.361223,172.991249L748.415879,175.455067L721.151637,185.187167L698.881514,193.810566L686.772594,198.491849L681.818743,199.682702L664.972477,205.719103L458.799941,279.388593L356.339550,315.977478L328.611797,325.874195L256.824239,354.414662L188.652623,381.600168L160.972662,389.033097L151.307242,390.593603L117.570690,395.932182L103.219112,398.190814L67.455312,403.898998L29.793857,409.894654L33.578457,425.499830L35.875517,435.027231L37.340677,441.474667L37.658460,442.953062L38.284874,445.129588L32.374323,446.033052L29.919228,446.361585L4.502647,450.098644L0.000000,453.178640L3.596534,452.891173L8.560184,453.589306L9.758577,454.369572L13.712529,456.956772L14.822815,457.695972L16.860838,459.010106L17.381331,460.693841L17.794728,462.090109L18.714797,465.211182L21.434724,474.492281L22.334657,477.572297L23.021561,479.872044L24.241637,484.019805L23.625215,487.264096L23.092906,490.056653L22.398712,493.834822L20.739022,502.499983L19.996526,505.210417L18.914763,509.029667L16.924630,516.052170L23.024663,527.304629L23.438828,538.187513L24.256868,561.801424L27.383258,590.672195L21.164920,600.364281L6.788667,616.627327L3.218356,633.999294L2.896981,635.559900L8.008186,643.896833L14.580530,652.233784L19.606562,653.958673L27.875018,656.751352L30.000731,656.997765L39.787309,658.106623L54.479543,656.956696L66.013431,654.287223L78.255105,650.221415L73.524030,875.325856L150.805609,849.943958L246.591010,818.648063L512.131754,731.825889L670.100689,658.106623L854.613750,571.945183L919.233337,543.895906L942.915230,535.518123L956.921524,530.548957L971.772068,525.292326L981.577209,521.801598L981.022427,511.534769L980.268693,496.709518L979.990209,491.781469L979.669632,485.867819L976.672014,428.538740L974.731172,391.497055L973.994852,377.329321L973.313337,364.311478L972.796056,354.743187L982.430140,349.035076L985.628063,347.104997L1000.000000,338.727645Z " data-aland="2799614" data-awater="0" data-classfp="C5" data-funcstat="A" data-geoid="4275072" data-intptlat="+41.1935397" data-intptlon="-075.9313413" data-lsad="21" data-mtfcc="G4110" data-name="Sugar Notch" data-namelsad="Sugar Notch borough" data-pcicbsa="N" data-pcinecta="N" data-placefp="75072" data-placens="01215409" data-statefp="42"/></g><g fill="#000" font-family="Arial" font-size="12px" id="mylayer-label" stroke="none"><text text-anchor="middle" y="485.724408207"><tspan dy="0" x="500.131012899"><![CDATA[Sugar Notch]]></tspan></text></g></svg>