<?xml version="1.0" encoding="utf-8"?><!DOCTYPE svg  PUBLIC '-//W3C//DTD SVG 1.1//EN'  'http://www.w3.org/Graphics/SVG/1.1/DTD/svg11.dtd'><svg enable_background="new 0 0 1000 1001" height="1001px" pretty_print="False" style="stroke-linejoin: round; stroke:#000; fill: none;" version="1.1" viewBox="0 0 1000 1001" width="1000px" xmlns="http://www.w3.org/2000/svg" xmlns:xlink="http://www.w3.org/1999/xlink"><defs><style type="text/css"><![CDATA[path { fill-rule: evenodd; }]]></style></defs><metadata><views><view h="1001" padding="0" w="1000"><proj flip="auto" id="robinson" lon0="-110.736165203"/><bbox h="1.48" w="2.04" x="-1563.73" y="-541.62"/></view></views></metadata><g class="" id="mylayer"><path d="M1000.000000,498.378007L982.826990,498.222391L960.117209,498.025823L909.744279,497.583545L835.239044,496.920127L829.269561,496.870985L826.353943,496.846414L847.255342,435.582089L734.429743,434.165133L736.603282,428.677493L742.355486,414.147486L742.569320,411.338125L743.866247,394.072377L751.374289,370.950214L758.608685,348.663334L773.089977,304.080908L773.910025,301.566319L781.424886,278.435281L784.227869,269.834816L788.240645,257.482868L790.516484,250.651597L792.733031,244.016895L795.601540,235.408144L796.520016,232.746060L799.279662,224.727033L800.196805,222.048559L805.161096,207.042506L820.041318,162.007527L825.003165,146.992991L827.627241,138.703428L803.850001,138.629706L803.525175,138.629706L754.573258,138.465881L710.236635,138.326629L703.731830,138.310246L703.230078,138.302055L687.551370,138.252907L679.134932,138.228334L673.716566,138.228334L657.449026,138.203760L652.026513,138.195568L649.700209,138.228334L645.095980,138.252907L642.737885,138.277481L640.412964,138.285672L637.691341,138.343011L629.541675,138.490454L626.818669,138.531411L623.697579,138.441307L616.670290,138.211951L614.335693,138.146421L611.213223,138.039934L595.378315,138.678854L577.768605,139.375112L547.879072,140.579230L532.432541,141.193575L532.048280,141.185384L516.879607,140.996985L507.678054,140.882307L478.312431,140.513700L434.564651,139.981267L410.193071,139.661807L387.484294,139.678190L349.190792,139.694572L329.574080,139.702764L329.117942,139.702764L319.287437,139.956693L296.401655,140.497317L283.338110,140.603804L244.154388,140.882307L231.092225,140.964220L225.394421,142.242058L208.283023,146.067378L202.583828,147.328832L197.185042,145.878979L180.976318,141.504844L175.576199,140.038606L169.799826,140.054988L152.445826,140.095945L146.668074,140.095945L146.687037,141.963555L147.368039,144.142432L148.170616,146.698105L148.905049,151.563708L149.040078,153.947359L148.804622,156.650467L148.792158,156.789718L149.328066,159.173365L149.171596,160.844374L149.624741,162.286028L149.732252,164.219155L147.843178,170.346174L145.623793,176.653387L144.187246,179.618592L143.418514,181.199487L142.551585,183.296425L140.991964,187.056165L139.334138,191.700543L137.130188,198.228873L137.041682,198.695767L136.711176,200.391328L136.200754,205.076642L136.603918,212.235657L136.389496,215.389222L135.251714,218.903191L133.464264,222.867664L129.795482,229.354973L127.952821,232.827971L126.712861,236.317347L126.237341,237.644292L125.918025,241.518640L126.407370,243.631918L127.410940,245.573185L129.709744,247.915808L132.289166,249.938982L133.131022,251.192202L133.988087,252.461803L134.601897,254.493165L134.664144,255.680856L134.711177,256.565480L134.384991,257.532014L134.205313,258.064426L133.951001,258.817995L133.215853,263.740758L133.951199,262.913472L134.689469,264.985781L136.311066,267.328390L137.231879,270.170644L137.261085,272.603349L137.067739,274.896807L135.960788,278.320608L132.787324,282.153951L131.953903,283.415349L131.748711,290.803528L131.537517,293.416416L131.181031,294.718764L129.100078,301.296021L126.850247,305.710885L125.319205,309.716201L124.367000,311.206931L122.859338,314.221152L121.614406,317.644911L120.587731,320.053006L120.535221,320.167677L119.871922,321.478205L118.873036,324.582515L117.742495,325.802941L116.680004,328.686096L115.486124,331.159709L113.680026,334.403252L110.353173,343.322978L110.256443,343.486793L108.172593,346.877756L105.061662,350.260525L103.340468,355.486200L101.196743,362.374576L101.464860,367.420035L101.313294,369.262936L101.107974,371.654611L100.789095,373.276362L99.028628,375.708987L97.205763,377.445405L94.538498,379.984505L93.143476,383.997917L92.604628,384.939839L90.985319,387.732842L89.811125,390.435746L85.405022,397.782719L84.182491,400.485614L78.875544,408.864575L75.103682,414.802730L75.256397,416.604650L75.013311,417.202560L74.274368,418.963527L74.027134,419.553246L73.677700,420.405062L72.615581,422.960508L72.262002,423.804132L71.937429,424.582233L68.928227,428.996923L63.761212,437.146474L62.629996,439.579049L60.032137,442.240956L58.800951,443.576004L57.781179,444.673528L55.987355,446.016765L49.838802,453.633893L46.113877,458.449874L41.563695,463.314991L38.749350,467.008870L35.381003,471.423501L32.892389,473.905193L30.627104,477.959437L25.749199,493.496564L23.502563,498.582766L21.821808,501.826136L21.233304,502.628788L15.327555,510.614344L8.327590,517.191150L4.763580,519.664616L1.494091,522.228172L0.000000,522.867014L0.540763,523.251956L7.910964,528.518296L13.165757,528.534677L16.269387,528.493725L16.821426,526.855673L17.166453,525.831891L17.884116,523.702421L20.039916,517.305814L20.760373,515.168149L22.220704,510.958336L23.745565,510.966527L25.303597,510.958336L25.907729,510.950146L35.804752,510.892814L37.618539,510.884624L42.451617,510.860053L47.239069,510.827292L52.752314,510.794530L57.774943,495.830812L60.726526,495.912715L63.564709,495.920906L67.641601,495.986429L74.349330,496.101093L79.602701,496.182997L84.614142,496.264900L87.301624,496.248519L84.694387,503.922859L82.290407,511.466135L81.742493,513.071434L77.375983,525.987506L111.792761,526.192262L136.627591,526.339687L120.469380,573.662674L121.450098,574.383406L123.169452,575.620117L128.333061,579.313866L130.048281,580.542385L132.488358,582.327832L139.794828,587.684165L142.230794,589.461418L144.697212,591.271429L147.860830,593.597416L152.085464,596.693269L154.550531,598.486896L157.254888,600.411564L165.370796,606.177370L168.077963,608.093843L169.465247,608.839138L171.718345,610.010315L173.761006,610.821130L175.240784,611.394433L176.591913,611.877646L178.214101,612.459139L180.764013,613.097962L181.180236,613.196242L182.164828,613.474704L183.634701,613.769545L185.381114,614.105337L187.843614,614.367418L188.131221,614.416558L189.623161,614.645879L190.181722,614.670449L191.858769,614.719590L192.415934,614.727780L194.164830,614.727780L199.396295,614.711400L201.141037,614.703210L204.301471,614.678639L213.778619,614.596739L216.934899,614.563979L218.783329,614.555789L224.320312,614.514839L226.167346,614.490269L227.848626,609.805564L228.729574,606.881715L230.716533,600.632696L232.486032,595.481136L232.894260,594.269003L233.739302,591.287810L234.297857,591.312380L242.599910,591.394281L242.946063,590.345948L243.678388,588.151001L246.473782,579.502239L258.010753,579.461289L266.784110,579.436718L268.438962,579.428528L268.313437,579.780704L268.277578,579.887175L267.772723,581.304067L266.954848,583.711962L266.641759,584.621064L266.068018,584.621064L265.651870,584.604684L264.245196,588.863540L262.030440,595.563037L261.491236,597.184674L261.829952,597.184674L261.103201,599.363234L257.359369,610.706469L256.099075,614.531219L255.711968,614.531219L255.552977,614.531219L255.076006,614.531219L254.910103,614.531219L253.534404,619.150396L250.015365,630.935821L249.301106,633.016079L248.799188,634.465707L247.714035,637.627040L244.195342,647.872687L242.418147,653.048732L242.292671,653.400900L238.621284,662.704656L236.040358,668.666908L231.317042,679.289191L230.688020,680.706038L228.037178,687.061370L225.035550,695.054657L224.881136,695.472338L224.790124,695.701654L223.625391,699.100432L218.334028,714.513641L218.182429,714.964079L217.728991,716.290824L217.573237,716.733072L217.432665,717.150750L217.001283,718.411976L216.859312,718.813275L216.602978,719.574923L215.816002,721.851679L215.555516,722.605137L209.086596,741.457917L238.081285,741.556194L248.951257,741.507056L263.265265,741.433348L281.519788,741.441538L283.672492,741.433348L286.018808,741.466107L292.327733,741.556194L299.185398,741.515245L319.756990,741.376020L326.613253,741.318692L328.970591,741.318692L336.021868,741.318692L338.372294,741.318692L342.727494,741.318692L343.951098,741.318692L343.365544,743.038532L342.722084,744.889407L340.476234,751.359269L339.615136,753.857123L336.662627,762.366195L336.254820,763.537316L332.879554,773.282997L331.293919,777.852811L329.520996,782.979512L326.292084,792.291087L325.898116,793.421250L323.271328,801.004797L317.797426,800.980229L316.857231,800.980229L308.441061,800.947470L305.711859,801.045745L305.447419,801.831943L303.553599,807.400842L303.187253,808.490052L302.944914,809.251680L301.654165,812.863268L300.145792,817.080877L297.923028,823.648870L296.702859,827.235874L295.400426,831.314243L289.981976,847.447500L285.561247,860.902740L301.726194,860.960066L319.433996,860.869982L345.659020,860.738952L346.329618,860.738952L348.323424,860.730762L348.989862,860.722573L354.208117,860.747141L356.714920,860.755331L360.814554,860.755331L368.256104,860.747141L396.316104,860.730762L398.164729,860.722573L404.576185,860.714383L408.150402,860.714383L417.108735,860.698005L443.969905,860.648868L445.141019,860.640679L452.924077,860.624300L455.858103,860.616110L464.015828,860.575163L464.644946,860.575163L467.567898,860.558784L473.458096,860.558784L473.983513,860.558784L491.135606,860.558784L497.018891,860.558784L502.821969,860.550595L503.650167,860.534216L520.224226,860.485080L526.025896,860.460511L530.749707,860.845414L531.909951,856.447694L539.888081,826.032017L542.546005,815.885206L543.340826,812.863268L544.031146,810.234426L545.744673,803.740111L546.538160,800.701783L547.900026,791.799712L548.171352,790.047139L549.858229,779.048496L557.085597,765.019644L561.677845,756.092907L562.627911,753.103672L565.479562,744.111384L566.017957,742.407924L566.924837,741.253175L596.180723,741.253175L613.272455,741.244985L654.923379,741.244985L679.308342,741.236795L699.349177,741.236795L712.717657,741.302313L717.389507,741.326882L736.145870,741.302313L745.125879,741.302313L746.531975,741.294123L754.512575,741.449728L762.537521,741.679040L773.743806,741.883783L792.296049,742.219561L799.908860,742.358786L800.493656,742.326027L824.185208,742.776461L828.587512,742.841979L855.666515,743.333362L869.971316,743.595433L878.300337,743.742847L895.291616,744.054056L918.981800,744.488111L920.957431,738.673413L926.510151,722.302116L926.886056,721.204687L927.637817,718.968880L928.860538,715.373568L942.629034,671.860968L954.686477,633.753178L955.017785,632.213460L955.339430,630.681931L955.538751,629.740082L955.738074,628.798232L957.383103,624.072598L961.456503,619.854738L961.791243,618.839175L962.792718,615.800674L963.126064,614.768730L964.313865,611.443573L967.852498,601.459893L969.029312,598.126533L969.764957,594.645747L971.959565,584.178798L972.691150,580.689808L975.509381,572.581575L976.083861,569.477509L976.799081,567.372639L992.777215,520.328028L993.721446,517.543333L994.884886,514.127982L996.412067,509.426749L1000.000000,498.378007Z "/></g><g fill="#000" font-family="Arial" font-size="12px" id="mylayer-label" stroke="none"><text text-anchor="middle" y="465.180972494"><tspan dy="0" x="496.613085359"><![CDATA[N]]></tspan></text></g></svg>