<?xml version="1.0" encoding="utf-8"?><!DOCTYPE svg  PUBLIC '-//W3C//DTD SVG 1.1//EN'  'http://www.w3.org/Graphics/SVG/1.1/DTD/svg11.dtd'><svg enable_background="new 0 0 1000 1001" height="1001px" pretty_print="False" style="stroke-linejoin: round; stroke:#000; fill: none;" version="1.1" viewBox="0 0 1000 1001" width="1000px" xmlns="http://www.w3.org/2000/svg" xmlns:xlink="http://www.w3.org/1999/xlink"><defs><style type="text/css"><![CDATA[path { fill-rule: evenodd; }]]></style></defs><metadata><views><view h="1001" padding="0" w="1000"><proj flip="auto" id="robinson" lon0="-83.7433741554"/><bbox h="0.54" w="0.69" x="-1152.38" y="-645.53"/></view></views></metadata><g class="" id="mylayer"><path d="M377.789549,720.074641L359.984185,766.648219L414.936228,759.952608L428.540217,760.888023L449.687252,724.160878L451.489314,720.886965L446.993187,716.973043L437.790107,713.871448L421.168712,707.200568L417.870668,705.846702L415.029044,704.812840L413.690137,704.320525L389.265875,695.286561L386.216068,697.969670L377.789549,720.074641Z M1000.000000,345.493322L952.795595,288.982756L944.903024,279.654676L936.620071,269.612870L931.352022,263.435207L881.262718,203.357474L875.694104,196.810771L867.306814,186.473901L810.766204,119.383553L803.791355,110.622047L762.436393,131.959803L729.373907,149.187628L707.467417,160.582658L707.273965,161.813226L707.394786,162.871514L700.229447,165.824879L697.848858,166.784723L679.242897,174.463487L676.910050,175.398723L660.597033,182.142271L655.991167,184.012747L651.445132,185.883224L646.982499,187.679868L638.304414,191.248546L637.735102,191.470051L628.065853,195.457131L626.099247,196.244704L624.212416,197.032276L622.341300,197.770625L618.806363,199.222713L615.450319,200.551742L612.512494,201.757714L605.159774,204.735729L599.777288,206.852336L599.759114,208.033699L599.564254,215.515673L599.421963,224.769720L598.951350,248.421815L598.797794,254.525611L593.582734,256.617641L587.881160,258.734284L543.725036,274.166136L547.474515,280.663781L550.446807,285.660086L555.450437,294.102137L557.276273,297.129467L559.999632,301.781224L562.425652,305.989963L563.205921,307.294427L563.302625,307.491327L565.511081,311.257048L566.146908,312.389226L568.520383,316.450304L569.989082,319.034629L571.533332,321.569731L571.630038,321.766632L572.273731,322.874202L572.688356,323.637194L573.436613,324.917053L571.612643,325.507758L566.591654,328.928922L563.361386,331.488645L557.656908,336.238906L578.615722,365.429792L580.158230,367.595737L581.494057,369.909362L573.562030,375.890338L552.773920,393.094937L475.598737,454.997843L447.764318,477.347194L445.348800,479.291694L440.589072,483.082241L367.422494,478.922485L351.881158,478.060997L350.608088,481.925385L337.278234,481.383878L298.325749,478.947099L298.030267,479.685516L292.000233,479.144010L290.220293,478.971713L283.874764,478.356364L271.782669,477.248738L270.294048,477.101055L254.318734,475.599607L158.179338,465.680222L153.860967,465.212559L141.408714,463.858800L113.475640,460.954372L56.754368,454.013294L43.401527,486.725109L11.669718,482.786873L0.000000,519.412661L2.350497,519.609575L3.025005,519.683418L5.487317,519.904946L10.065021,520.372617L14.255916,520.864902L19.033684,521.455645L15.619432,530.341409L7.222875,543.214736L4.478997,552.125178L15.905220,553.257446L23.986934,534.058176L28.956702,522.735587L36.453066,523.744772L43.809819,524.753958L49.258483,525.492387L55.557543,526.378502L56.271943,526.452345L59.904388,526.944632L64.375139,527.559989L69.855845,528.323033L85.726812,530.464480L88.453269,530.858310L95.678286,531.842884L100.831413,532.507471L106.603453,533.295131L110.220201,533.836647L101.921173,552.592854L100.599650,555.546598L87.788639,553.503591L76.490027,577.035170L141.568317,582.795020L150.882219,563.669408L173.785123,567.213914L174.511622,567.312372L198.707073,568.493875L244.907657,570.783039L246.814540,570.807653L267.072349,571.890699L276.365056,572.333763L320.598118,572.850671L322.784235,572.875286L341.198506,573.047589L365.772227,573.293736L397.291740,573.712185L422.779617,575.656746L437.500571,576.715179L440.998851,566.500089L450.371826,566.253943L483.420814,565.441660L486.543837,569.281544L516.406885,603.840715L485.744406,592.419407L458.879172,643.249478L467.951752,645.071007L518.885282,655.286359L529.335163,636.406446L549.719898,643.471015L552.729290,646.104848L567.455324,658.904818L564.121447,661.415587L558.576587,666.043285L556.066005,671.163300L554.124514,675.249472L551.783701,680.024884L543.112268,697.895823L540.963753,702.818965L534.369767,718.179219L527.880913,733.022615L521.178639,731.397961L517.827281,735.902685L515.928979,734.474958L509.416711,729.502533L506.869131,721.354666L496.627897,715.003776L494.685362,717.342281L490.860134,722.019295L486.662110,727.114787L485.199328,728.887134L483.149865,731.373345L481.401916,733.539551L476.682543,731.201034L462.257968,724.333189L457.376733,722.314686L462.969843,732.357984L469.219172,743.533654L464.604731,750.623086L462.246172,754.266273L464.568632,755.177071L467.043058,756.924818L477.637368,762.857319L481.632066,770.783750L482.422571,772.433041L484.926253,776.716278L482.374980,778.587120L489.464314,791.633807L493.355323,798.009472L493.939298,798.304870L498.171737,804.360534L497.471963,804.803632L501.929227,814.157935L510.545319,827.672491L521.889612,841.827145L522.701465,843.722643L533.440420,856.523437L521.172825,885.743912L539.972455,886.900920L549.941727,887.664054L555.580671,888.057929L556.418420,888.057929L556.655490,888.377953L561.243159,888.377953L584.650462,830.158782L586.123306,826.540122L587.032720,824.250768L590.588601,827.549408L591.538130,829.075646L600.631996,843.845727L610.477811,856.695756L611.233150,857.705052L614.352642,869.693541L615.649496,872.007546L617.772018,875.798580L618.747121,877.620247L622.328883,870.013563L625.303133,863.686982L630.987158,851.550815L640.524895,831.143453L667.901235,772.679204L711.372659,680.074115L715.703192,661.366356L718.261041,659.224818L719.321524,658.338664L723.555611,654.818668L745.413769,636.751059L749.667818,633.231087L754.952870,629.292663L755.209192,629.489584L762.107228,635.815681L765.041047,642.314099L766.539231,648.123302L768.589749,653.514055L771.834856,657.723280L772.926573,658.240203L774.508923,660.283279L777.395189,662.990973L780.241967,665.009437L782.237263,667.446365L784.851913,669.317140L786.547786,670.941761L786.939741,671.901764L787.898022,672.837153L789.354807,675.274087L803.390775,693.243461L808.871628,697.009658L814.491642,702.966660L816.938950,704.862072L821.003156,707.003642L830.312354,710.523699L833.943681,712.271420L836.444295,714.437612L838.997914,716.062257L841.272581,718.499226L852.281206,728.074809L856.472175,734.573422L857.482565,734.031870L861.361687,738.881222L862.923959,740.112024L864.701040,741.982842L871.546465,751.041560L872.179390,756.063252L876.414216,751.976973L896.355586,735.287285L870.076973,682.584902L867.417706,677.538715L871.360295,670.178681L866.696480,663.975590L823.326002,623.975797L871.988996,582.524257L856.392096,567.140070L860.450333,563.546335L885.550909,543.756254L891.779810,538.734910L894.727484,536.371928L895.771650,535.411967L935.966614,503.191912L977.099012,470.159940L978.644792,469.003089L957.302331,446.063072L934.545940,421.867940L952.711727,403.063312L966.679182,389.353729L969.128369,390.928974L971.470607,392.651899L971.959000,392.996485L974.962532,395.334742L976.063849,396.196206L980.263492,387.409286L999.116052,347.388512L1000.000000,345.493322Z " data-aland="5482371" data-awater="17439" data-classfp="C1" data-funcstat="A" data-geoid="2127856" data-intptlat="+38.4229277" data-intptlon="-083.7356250" data-lsad="25" data-mtfcc="G4110" data-name="Flemingsburg" data-namelsad="Flemingsburg city" data-pcicbsa="N" data-pcinecta="N" data-placefp="27856" data-placens="02403616" data-statefp="21"/></g><g fill="#000" font-family="Arial" font-size="12px" id="mylayer-label" stroke="none"><text text-anchor="middle" y="477.289954317"><tspan dy="0" x="635.347952318"><![CDATA[Flemingsburg]]></tspan></text></g></svg>