<?xml version="1.0" encoding="utf-8"?><!DOCTYPE svg  PUBLIC '-//W3C//DTD SVG 1.1//EN'  'http://www.w3.org/Graphics/SVG/1.1/DTD/svg11.dtd'><svg enable_background="new 0 0 1000 1001" height="1001px" pretty_print="False" style="stroke-linejoin: round; stroke:#000; fill: none;" version="1.1" viewBox="0 0 1000 1001" width="1000px" xmlns="http://www.w3.org/2000/svg" xmlns:xlink="http://www.w3.org/1999/xlink"><defs><style type="text/css"><![CDATA[path { fill-rule: evenodd; }]]></style></defs><metadata><views><view h="1001" padding="0" w="1000"><proj flip="auto" id="robinson" lon0="-106.566615176"/><bbox h="0.36" w="0.28" x="-1480.85" y="-607.4"/></view></views></metadata><g class="" id="mylayer"><path d="M350.183154,0.000000L344.706570,0.852452L337.687556,6.819618L334.662321,7.814145L334.442388,9.661125L339.787645,32.109013L338.024163,35.945041L335.522117,40.633520L330.954321,46.221806L327.754777,49.252740L325.402688,52.283674L322.999538,59.103273L322.674691,61.234397L320.172675,65.922869L318.951852,69.332666L320.773494,79.940921L325.104651,87.092017L326.068499,89.175780L326.314821,92.159349L325.832585,94.716694L325.781577,98.505351L326.185323,101.062695L328.095553,105.277575L331.323000,110.723768L330.929721,116.690898L329.265267,122.658027L327.227531,132.034940L319.645867,148.704995L313.472298,157.703030L309.810587,160.733946L306.601166,165.043529L302.782054,168.500667L299.117916,174.041557L294.845205,181.334691L293.723473,186.875578L289.981033,197.531123L286.989512,203.545584L284.340235,207.381578L278.217659,212.590951L274.170769,215.621858L269.535203,217.847680L264.079603,218.747481L256.008109,219.741997L247.718408,226.230030L245.947583,228.834714L236.209119,245.504683L233.276046,248.961805L230.461851,251.992707L228.541203,256.254911L227.201690,260.090894L225.222677,266.910417L223.263526,271.172618L216.324278,282.349050L209.569856,291.773241L205.612128,298.213891L200.887286,304.228319L195.028814,312.373841L187.419402,320.566717L177.359057,329.659385L171.687717,333.542710L168.064623,336.573598L160.297859,345.192682L147.982457,361.957262L145.018546,366.645658L131.119527,381.752707L125.842309,389.471978L122.759569,394.586585L119.719929,401.879633L118.637047,407.420453L119.748628,410.356614L117.365890,414.618782L112.819614,420.254314L107.285974,426.268702L105.641745,429.678434L105.888380,432.661948L107.118840,435.171889L110.554912,436.403180L115.761813,442.228134L122.900340,445.116932L140.678029,448.195159L151.972325,448.905519L156.116010,450.515668L173.423186,464.675502L178.319825,473.010383L189.757098,492.426851L189.559044,495.362999L189.737780,502.182435L188.340397,508.575655L187.965362,514.495301L191.038443,517.857659L194.317227,519.515159L199.042089,520.699088L202.054492,521.930373L208.157479,526.476658L213.269434,537.463509L217.493318,550.960278L217.316874,561.142044L211.972237,572.697158L205.376534,588.893248L200.455733,600.448345L197.148163,609.825016L192.079853,620.527676L189.363196,628.199490L188.380072,635.871301L188.261949,643.495752L190.449441,659.170855L194.939563,665.895517L196.911856,684.554075L197.764687,693.409780L199.720965,714.199359L203.245862,728.548417L206.232169,738.303875L209.984114,745.880927L213.223652,757.246499L213.038255,768.706776L213.631735,776.804737L213.266965,781.445671L210.207015,793.805706L210.396182,799.346409L211.583734,805.313317L339.574001,760.182604L343.045637,761.840082L382.986889,761.650656L387.714196,760.845595L392.387719,758.098916L396.958251,753.126480L396.873533,757.530638L400.665877,767.712290L409.565562,785.139476L417.173666,792.811221L432.035887,802.329863L438.190976,805.171248L441.822061,809.528037L441.516310,813.174479L438.701517,819.757016L465.174002,830.175415L483.272450,829.465070L490.117126,826.576332L490.618281,827.097252L492.587593,828.754725L498.998135,831.217255L505.358735,837.468291L514.940697,847.934036L520.603287,852.527596L522.463469,853.332653L532.230201,852.338171L535.417655,853.095871L541.513642,856.410811L546.643346,860.151956L551.586852,863.040688L577.678408,874.074694L578.397542,875.779518L577.376821,883.451225L579.187167,888.044776L584.583405,892.212121L598.327431,894.532574L609.315621,897.326588L623.042185,899.694396L633.821626,899.504971L638.280389,900.262670L641.511467,903.198752L642.723350,908.265860L646.593180,908.218504L649.201319,906.892532L651.259041,904.761505L653.029249,902.156916L654.367811,898.321067L655.064266,892.780395L656.659715,890.649367L660.901829,887.192365L663.047689,885.866391L665.519585,885.013979L667.813144,884.540417L674.281514,884.445705L680.443187,886.434665L687.367615,892.306833L690.292009,897.326588L692.823285,901.115081L693.346643,903.246108L693.139566,907.460805L692.658125,910.018037L690.887933,912.622624L686.950846,916.505826L684.626664,918.210647L683.023337,919.110413L681.280201,920.389028L679.243540,922.567409L677.914590,925.124638L678.022109,928.486921L679.335342,933.175173L681.757479,936.111250L702.188572,949.749792L730.462987,975.227320L732.146877,979.015797L732.687782,981.099459L731.282208,988.771122L731.805645,990.902138L732.818381,991.707189L733.922857,993.412002L736.049607,994.643256L743.058955,996.632205L748.347841,997.437255L761.716807,999.000000L760.059884,993.885562L765.513288,971.486199L761.961608,966.182328L758.322667,933.033105L758.343172,922.851545L760.256085,914.327445L765.180389,900.357382L780.156552,867.918383L801.255779,822.124835L823.124967,774.768408L824.939817,770.790462L836.398308,744.649656L853.365915,708.279777L865.834741,678.776554L876.051681,648.799716L883.904198,623.037591L894.358255,590.645456L891.567775,586.099187L885.011816,580.274278L880.763344,579.469209L873.458009,579.327138L873.068574,578.190570L871.777586,574.591438L871.412756,573.596941L869.405062,571.939446L866.864532,569.429524L863.428276,568.198242L861.350020,565.688319L848.374185,558.679478L846.828773,557.021981L842.081875,548.592424L841.257792,541.015291L781.812689,567.014316L784.978965,544.661787L781.139480,513.216658L780.829219,497.778216L782.152106,484.281409L796.668739,449.237020L802.904301,428.068283L803.728228,411.019618L806.682956,403.016212L819.904201,386.299026L830.276474,366.030010L874.586665,231.723545L854.354436,263.358582L812.296296,311.331972L796.638187,356.037567L787.886197,361.483686L772.503249,363.709491L727.803572,329.422597L707.449239,320.803506L683.898668,320.945578L684.003313,320.140498L684.663763,310.526892L684.076188,305.128115L676.183940,279.554943L673.816835,272.924855L670.343276,266.578912L661.806452,254.123809L646.268773,233.191639L635.306402,215.621858L632.122962,207.760441L629.584011,200.135811L628.624689,193.032116L628.101862,183.181654L625.147991,163.954294L624.511817,158.792266L620.925691,142.737875L615.044094,138.428287L609.451481,138.238854L597.188360,139.422807L586.542655,139.564881L572.898723,138.333570L543.686642,140.038462L528.992248,139.043942L512.370983,144.205976L498.240904,144.395408L495.383272,144.205976L489.416078,144.300692L483.123002,143.921827L474.843207,140.890908L469.484591,139.233375L466.152967,136.155097L462.572068,131.561358L452.768366,110.439618L450.316197,99.973456L442.479032,83.019208L440.585654,77.194141L439.395652,70.090399L434.278656,59.434781L430.123445,54.414799L428.645094,52.994049L419.592145,51.431224L413.532981,49.063307L408.877035,44.043322L406.847374,38.691827L402.848838,31.161845L399.814933,27.799399L396.600242,27.846757L395.507715,27.988833L391.459726,28.415058L388.648129,29.456943L374.759780,38.691827L368.748243,41.722762L364.419590,40.822953L359.273134,35.045232L356.529696,21.926957L357.443589,12.360556L357.297014,4.309620L350.183154,0.000000Z " data-aland="2302880" data-awater="3727" data-classfp="U1" data-funcstat="S" data-geoid="3586210" data-intptlat="+36.1949851" data-intptlon="-106.5669306" data-lsad="57" data-mtfcc="G4210" data-name="Youngsville" data-namelsad="Youngsville CDP" data-pcicbsa="N" data-pcinecta="N" data-placefp="86210" data-placens="02584242" data-statefp="35"/></g><g fill="#000" font-family="Arial" font-size="12px" id="mylayer-label" stroke="none"><text text-anchor="middle" y="504.447646611"><tspan dy="0" x="507.458825397"><![CDATA[Youngsville]]></tspan></text></g></svg>