<?xml version="1.0" encoding="utf-8"?><!DOCTYPE svg  PUBLIC '-//W3C//DTD SVG 1.1//EN'  'http://www.w3.org/Graphics/SVG/1.1/DTD/svg11.dtd'><svg enable_background="new 0 0 1000 1001" height="1001px" pretty_print="False" style="stroke-linejoin: round; stroke:#000; fill: none;" version="1.1" viewBox="0 0 1000 1001" width="1000px" xmlns="http://www.w3.org/2000/svg" xmlns:xlink="http://www.w3.org/1999/xlink"><defs><style type="text/css"><![CDATA[path { fill-rule: evenodd; }]]></style></defs><metadata><views><view h="1001" padding="0" w="1000"><proj flip="auto" id="robinson" lon0="-80.2478608299"/><bbox h="0.67" w="0.76" x="-1094.85" y="-675.09"/></view></views></metadata><g class="" id="mylayer"><path d="M1000.000000,628.794927L996.232363,626.786340L993.435124,625.301735L991.122715,623.707969L984.167590,618.926681L981.844632,617.311090L975.907288,612.966469L962.594680,603.120164L960.856169,601.897567L954.674664,596.788873L952.614170,595.085978L925.375586,572.642894L890.826580,545.200805L868.212153,567.097672L824.744387,587.379316L819.944835,589.868148L812.219256,591.680196L806.939554,592.509809L805.033829,592.793624L782.647959,595.085978L762.913196,592.597137L751.624310,597.749481L751.310038,597.618489L750.389302,597.160017L750.064468,597.007193L744.615284,594.671171L739.552066,592.466145L727.829700,606.613302L722.164389,613.424946L720.717331,614.953203L716.408801,619.494322L714.951183,621.000754L706.728773,630.454196L706.214852,631.021841L681.813714,658.487402L681.390357,658.945893L672.830314,666.849438L668.943331,671.150556L657.300350,684.053988L653.402834,688.333324L649.397794,692.612674L637.372155,705.428964L633.356580,709.686531L633.107933,709.839367L625.976291,701.433413L623.151006,698.223880L619.552121,694.119182L612.853026,689.162993L612.009039,688.529825L599.832573,686.106321L596.280522,682.394657L595.453869,682.241824L593.405360,678.748502L590.547288,668.617916L590.369768,661.434850L590.313318,659.688213L590.026182,649.055608L594.678338,636.370816L596.925578,630.235871L597.021082,626.284194L597.302605,624.013622L598.133434,617.136432L598.404411,614.844042L598.558301,613.643268L598.984134,610.040952L599.127467,608.818350L599.292255,608.010559L601.455640,596.330401L601.479636,596.046585L601.461059,595.304298L600.614527,591.702028L600.511790,591.156230L598.754105,582.336168L598.152141,582.314336L595.570513,582.423495L590.407257,582.641813L587.771865,582.750971L585.161755,582.838299L570.572208,583.427757L566.585039,584.410187L548.984708,588.667395L549.494821,584.868655L548.375379,584.999646L548.687728,581.681215L549.152428,576.528928L549.290369,575.109870L549.614265,571.704135L549.916088,568.363902L550.389771,565.045509L551.779191,555.024882L552.242347,551.684688L552.781360,548.279009L554.420532,537.996525L554.949020,534.569047L555.716637,529.635239L558.034321,514.790255L558.122362,514.157164L576.805493,511.471986L595.614117,507.564297L603.914010,509.310749L612.670207,512.148738L626.975449,517.344455L628.311507,517.846563L630.053798,514.964901L634.553243,507.520635L644.218562,491.453378L647.830311,485.100748L652.115794,477.547486L654.095340,478.638995L659.987590,481.891698L661.956584,482.961381L662.718926,481.869868L664.704795,479.010108L672.935718,467.090867L673.476918,466.283157L675.552120,463.052319L675.770073,462.724869L677.770401,459.450380L677.952513,459.122931L683.979205,448.426319L686.047756,444.737098L686.796076,443.209021L688.979919,438.646630L689.717686,437.096729L690.093448,436.354524L691.181696,434.084252L691.528980,433.320219L692.689885,430.940805L696.144143,423.780755L697.294504,421.379527L698.539610,418.803668L701.475063,412.756968L696.516743,410.508562L689.617037,407.321508L629.899403,381.148636L622.441143,377.917989L599.839906,368.313406L592.302681,365.104616L587.172213,362.092290L555.277685,347.314518L546.190848,342.272211L518.705148,332.274962L490.990894,330.550552L485.625137,330.201305L484.294864,330.266789L470.770705,330.834316L470.275193,335.701958L469.671909,341.791992L469.072108,346.703328L468.774301,349.126260L463.045822,359.996762L456.824725,371.849631L455.846220,371.456717L453.639306,370.561746L452.370639,369.754089L448.572006,367.309294L447.292787,366.479811L432.012890,359.822135L407.859440,348.340444L383.931370,336.138519L394.970573,319.461995L403.295859,306.845590L402.930636,306.016142L403.359287,305.383142L400.563521,297.896304L399.079138,294.011022L383.565422,260.331736L383.299980,258.782028L381.333234,247.672195L380.410554,247.061048L378.879182,243.634261L374.271403,233.288472L372.729528,229.839892L371.280060,225.692876L366.935944,213.186422L365.483361,208.995802L361.455006,197.253400L357.725322,188.130188L353.027255,166.217251L352.528649,163.925579L350.545878,159.342245L343.460230,143.016965L342.573977,141.183656L335.460766,128.656109L332.381316,120.209897L323.104376,94.827908L320.930585,88.848038L320.677820,86.731082L320.595300,85.967233L318.843700,86.643785L311.306930,86.250948L310.899697,85.334330L310.116882,83.566567L310.918187,78.699774L309.338855,75.098794L300.224715,67.809565L295.388800,62.549995L291.631652,58.447107L259.016419,77.608567L248.696178,83.653863L247.631854,84.417711L237.745704,92.732768L235.013577,95.569938L233.131755,97.534135L227.298724,103.557691L226.165183,105.216355L218.033177,116.456041L203.666945,139.524950L202.301798,141.816584L171.961644,192.560832L163.775220,205.874671L161.666754,209.890673L158.059606,216.700441L152.865564,226.936980L151.912507,228.857703L147.290614,238.461358L146.119707,241.080547L142.822689,248.086903L142.248976,249.680253L138.741058,258.585586L138.149175,261.772312L135.880498,273.908126L135.574660,281.875038L135.276047,289.449102L136.164390,296.957724L138.678533,306.976556L143.607430,318.283295L149.395186,326.992600L150.583134,328.782489L160.845516,344.411369L177.426266,369.994203L181.893677,376.935699L182.349502,377.656045L188.451074,386.605826L192.271570,392.172181L193.796195,394.398729L194.492598,395.468347L203.289433,408.805888L210.283154,419.414889L211.333082,421.030258L229.152604,448.208022L230.563463,450.347338L252.674626,483.878252L253.191665,484.576821L268.254212,507.236837L262.204231,510.031161L245.513675,517.540932L242.550159,518.676133L240.622595,519.396550L234.869356,521.470479L232.938596,522.147235L202.732408,534.023271L195.568104,536.773984L193.715414,537.538072L188.107749,539.764845L186.244500,540.507103L179.212027,543.345154L158.093476,551.815676L151.050434,554.631917L144.032673,557.426333L122.929780,565.744118L115.908813,568.494892L109.021628,571.114681L108.061520,571.463987L99.781196,574.760563L95.672220,576.528928L90.554790,578.843089L88.324770,579.716358L85.152562,580.938935L81.412856,585.916583L73.890275,595.893761L70.401221,600.500316L64.225041,610.630421L62.847776,612.748146L55.534074,625.454562L55.017157,626.349692L54.594983,627.070162L55.157233,627.528644L62.202818,633.314257L60.815700,634.929866L57.271723,639.274554L55.518143,641.392321L55.191684,641.828975L48.627655,650.452907L46.330636,653.225676L37.966024,664.425971L30.688409,661.347518L8.841916,652.046703L7.492077,651.479049L1.818364,659.535383L1.502384,661.216520L0.000000,668.967246L0.213513,673.595867L0.616285,676.281348L1.766408,684.032155L1.788796,684.337821L1.896519,687.154322L1.760351,690.800499L1.518149,697.525208L1.373994,701.673583L1.245230,705.297962L3.806744,706.258643L10.605455,708.791349L15.975243,710.778216L18.006498,710.494378L19.614991,710.188706L33.753426,709.184355L43.423275,706.018473L115.622379,678.028005L154.984557,662.701163L169.507657,656.675270L178.269512,653.225676L194.240388,647.636478L210.130314,641.064831L221.592211,637.899098L227.015117,636.698305L226.855095,636.960296L226.527689,637.506111L230.166070,637.877266L237.303625,638.554077L241.103302,638.925232L244.731126,639.274554L245.669445,639.361884L248.448559,639.623876L249.368956,639.711207L255.742941,639.995031L261.045795,640.213358L264.530250,640.562680L266.194067,640.890170L266.569458,640.999333L269.358172,641.392321L282.048804,646.435676L282.502282,646.632171L292.356222,654.295486L294.349363,653.858829L298.123784,653.029180L302.638111,652.024870L306.828888,651.129724L313.624069,658.138075L312.338266,667.002269L309.962174,675.539020L307.971733,682.612990L307.352223,685.407654L301.982623,709.577362L297.867949,728.005127L338.788404,739.795528L370.473670,748.944072L383.395442,752.241055L383.596860,753.398277L383.984034,755.865563L383.987006,756.760774L384.035670,756.935449L384.388776,757.961668L384.004953,760.057776L383.764509,762.153886L382.913182,764.839533L382.577898,765.887592L382.122036,767.612523L365.695730,796.412634L364.622243,798.268612L363.471972,800.299274L330.206112,852.376899L324.797119,876.090860L324.948636,876.811456L326.853132,886.266584L339.308909,896.748093L347.081013,901.661326L354.766349,906.247026L363.036748,910.745393L369.940347,912.863561L370.703050,917.143581L371.198509,919.982376L371.387776,920.484625L371.932985,922.537297L372.336801,923.519960L373.268026,925.703658L374.351862,927.647152L376.442476,930.485968L378.601168,932.909885L383.855531,938.434684L384.234603,938.958776L384.953691,939.963288L385.256929,940.552893L392.341720,938.674893L408.467989,928.258589L426.021774,916.903375L445.824836,904.085194L456.522744,894.673621L489.687165,848.206252L496.927918,842.354266L501.324591,838.773211L523.623104,839.668474L530.004809,839.930502L532.330573,839.996009L545.990623,842.965666L550.570328,843.948275L569.414805,845.520449L582.589652,845.302092L594.880943,844.035618L597.180624,843.380545L598.355744,843.031173L615.505844,838.620361L619.377465,836.065590L625.556251,831.982333L630.938565,828.401304L634.799623,825.824716L671.432317,823.379145L687.202654,826.043071L773.274556,840.541902L775.527991,838.161812L778.727783,834.515261L788.352471,823.553829L791.541719,819.885479L793.065329,818.182320L797.610887,813.094691L799.123935,811.369705L803.644867,804.971990L809.787873,796.259789L801.124953,790.320674L799.906371,789.469112L802.203469,787.438466L806.165714,783.923053L808.650329,781.761406L810.315477,780.276640L812.951763,777.983990L816.845273,773.289527L823.777405,764.948706L856.768099,735.756213L860.379712,732.590271L862.449340,730.756212L930.537264,669.687738L948.478922,681.914325L957.466153,688.005824L963.172905,675.058690L969.145060,667.919258L987.065807,646.435676L993.027487,639.274554L995.667452,635.322852L1000.000000,628.794927Z " data-aland="7634141" data-awater="0" data-classfp="C5" data-funcstat="A" data-geoid="4281328" data-intptlat="+40.1739629" data-intptlon="-080.2467266" data-lsad="25" data-mtfcc="G4110" data-name="Washington" data-namelsad="Washington city" data-pcicbsa="N" data-pcinecta="N" data-placefp="81328" data-placens="01215680" data-statefp="42"/></g><g fill="#000" font-family="Arial" font-size="12px" id="mylayer-label" stroke="none"><text text-anchor="middle" y="544.503776963"><tspan dy="0" x="454.326499174"><![CDATA[Washington]]></tspan></text></g></svg>