<?xml version="1.0" encoding="utf-8"?><!DOCTYPE svg  PUBLIC '-//W3C//DTD SVG 1.1//EN'  'http://www.w3.org/Graphics/SVG/1.1/DTD/svg11.dtd'><svg enable_background="new 0 0 1000 1001" height="1001px" pretty_print="False" style="stroke-linejoin: round; stroke:#000; fill: none;" version="1.1" viewBox="0 0 1000 1001" width="1000px" xmlns="http://www.w3.org/2000/svg" xmlns:xlink="http://www.w3.org/1999/xlink"><defs><style type="text/css"><![CDATA[path { fill-rule: evenodd; }]]></style></defs><metadata><views><view h="1001" padding="0" w="1000"><proj flip="auto" id="robinson" lon0="-80.4548629679"/><bbox h="0.28" w="0.36" x="-1091.78" y="-691.36"/></view></views></metadata><g class="" id="mylayer"><path d="M1000.000000,414.522989L960.676654,414.885671L949.873740,415.520365L945.448533,415.203018L938.666716,414.341648L937.006574,413.842960L925.148788,429.755663L905.145074,434.107866L869.536591,445.940440L866.057417,409.490779L860.852787,398.202329L822.180218,409.581449L806.987681,414.114972L805.988437,409.445444L802.114468,390.948722L798.182334,372.089404L797.158496,369.278647L780.939386,281.330119L762.820436,185.042193L762.137255,180.644916L759.611153,167.317114L749.242670,112.329045L587.133507,176.972967L551.814734,191.252789L508.470865,207.844643L274.150287,302.093059L262.097581,306.445130L217.121437,324.669473L163.774994,346.384652L113.812671,366.286554L18.874373,404.095893L0.000000,411.802875L10.803296,464.210725L50.223692,658.207075L52.868107,668.997507L53.736551,674.982129L55.761200,684.775165L58.843019,699.918144L64.475739,727.483949L81.996830,807.280722L83.202126,813.900296L84.855953,821.472012L95.699912,880.640691L96.890297,886.670955L325.332119,794.903055L366.092955,778.399555L375.551228,774.591064L405.443536,762.485528L485.597441,730.158929L494.229980,726.667853L496.026189,725.942435L502.111837,723.494150L526.288237,713.746362L547.403043,705.222734L549.547759,704.361304L582.538959,691.031838L633.320742,670.402986L870.863087,574.559498L876.165686,572.519334L907.363106,491.049600L911.314322,480.168954L977.759002,477.584805L989.784080,476.678086L994.483089,448.116549L998.500229,423.680721L1000.000000,414.522989Z "/></g><g fill="#000" font-family="Arial" font-size="12px" id="mylayer-label" stroke="none"><text text-anchor="middle" y="492.194352336"><tspan dy="0" x="441.147860734"><![CDATA[N]]></tspan></text></g></svg>