<?xml version="1.0" encoding="utf-8"?><!DOCTYPE svg  PUBLIC '-//W3C//DTD SVG 1.1//EN'  'http://www.w3.org/Graphics/SVG/1.1/DTD/svg11.dtd'><svg enable_background="new 0 0 1000 1001" height="1001px" pretty_print="False" style="stroke-linejoin: round; stroke:#000; fill: none;" version="1.1" viewBox="0 0 1000 1001" width="1000px" xmlns="http://www.w3.org/2000/svg" xmlns:xlink="http://www.w3.org/1999/xlink"><defs><style type="text/css"><![CDATA[path { fill-rule: evenodd; }]]></style></defs><metadata><views><view h="1001" padding="0" w="1000"><proj flip="auto" id="robinson" lon0="-75.2003288095"/><bbox h="0.36" w="0.42" x="-1018.59" y="-697.31"/></view></views></metadata><g class="" id="mylayer"><path d="M1000.000000,631.943151L994.398741,579.504626L993.612364,572.945034L990.911843,548.983315L971.150740,374.927339L967.615915,342.478331L965.258794,322.800696L963.801824,308.872072L959.490493,271.446360L942.467212,121.013786L909.518779,90.650130L896.660018,78.767082L895.102882,77.416738L890.409450,72.864152L883.396082,73.558614L875.441074,74.484563L838.828205,78.651338L798.329417,83.435419L771.484997,86.136111L762.816228,86.714832L748.978168,87.640784L719.476463,89.029713L663.579497,90.187154L642.353296,92.347712L635.075895,94.199619L613.445967,103.690657L595.927106,112.371504L588.952625,115.689521L582.073686,118.158745L565.923290,122.325563L558.807468,124.833372L548.636782,130.697794L534.659676,139.494441L521.337450,147.017904L503.789654,156.161824L482.350819,167.543523L470.317678,171.826137L452.315081,174.758379L436.798804,176.957563L423.550269,180.391377L404.213853,187.451926L397.212802,189.998356L396.651711,189.766863L393.312420,190.847167L395.218428,198.910875L395.992934,205.122642L396.180837,209.289546L395.713865,214.729677L394.793040,219.243834L393.488538,223.757996L391.488226,229.005233L389.689316,232.902082L387.583736,236.760352L385.081414,240.657209L380.060201,247.177699L374.703075,253.273788L360.539588,267.626641L358.205332,270.366035L354.764491,274.957418L350.673279,281.092130L346.369401,289.271761L344.081807,295.367911L342.545002,300.190821L341.235151,305.476736L340.037291,313.926498L337.353351,332.716669L330.113136,377.435299L329.054166,387.081313L328.775287,393.100437L328.977873,397.036022L329.895130,403.016576L331.707655,411.736625L332.287200,416.636837L332.260149,420.495276L332.234917,422.270159L331.332842,428.713762L330.320453,432.649381L329.975035,433.575410L324.160174,433.845501L314.802442,435.041622L303.921637,436.392081L302.488636,436.469250L290.700388,436.816511L278.092887,449.125002L266.168127,460.739004L273.731714,466.449555L268.582483,477.600585L254.266451,490.989577L229.629367,508.893081L198.389313,531.851349L155.867918,554.886914L152.099423,557.896595L150.588511,559.054166L137.394153,563.838793L108.707241,572.829276L99.693410,573.292306L88.702973,573.832507L70.378092,576.109071L54.429863,586.951706L32.518242,608.328370L22.047372,623.299817L3.736235,663.043866L0.000000,691.752424L2.669617,728.178619L8.992683,769.968809L14.605032,799.025392L17.853848,820.325964L23.361333,832.211112L30.152170,841.626644L40.496652,848.572541L54.924197,851.389492L121.005604,852.469967L173.769147,847.453479L189.824892,844.134883L201.155502,845.331121L233.864117,844.868061L267.686610,845.176768L302.786008,840.198877L326.241854,837.690640L342.969718,841.742409L353.082637,860.149063L353.314573,865.512862L353.845540,878.594387L355.281137,890.325346L354.080943,903.136827L354.019013,914.096076L356.021862,926.135848L363.246152,922.740012L383.524384,913.555831L399.126731,906.378292L404.707756,903.870015L472.939461,872.883273L649.731097,792.079577L799.277740,723.470979L826.170822,711.084507L853.858713,698.427964L902.174113,675.931823L956.637333,651.236371L995.001286,633.486605L998.726851,632.020323L1000.000000,631.943151Z "/></g><g fill="#000" font-family="Arial" font-size="12px" id="mylayer-label" stroke="none"><text text-anchor="middle" y="500.546762057"><tspan dy="0" x="554.446203671"><![CDATA[N]]></tspan></text></g></svg>