<?xml version="1.0" encoding="utf-8"?><!DOCTYPE svg  PUBLIC '-//W3C//DTD SVG 1.1//EN'  'http://www.w3.org/Graphics/SVG/1.1/DTD/svg11.dtd'><svg enable_background="new 0 0 1000 1001" height="1001px" pretty_print="False" style="stroke-linejoin: round; stroke:#000; fill: none;" version="1.1" viewBox="0 0 1000 1001" width="1000px" xmlns="http://www.w3.org/2000/svg" xmlns:xlink="http://www.w3.org/1999/xlink"><defs><style type="text/css"><![CDATA[path { fill-rule: evenodd; }]]></style></defs><metadata><views><view h="1001" padding="0" w="1000"><proj flip="auto" id="robinson" lon0="-75.2433222839"/><bbox h="0.62" w="0.35" x="-1023.67" y="-683.46"/></view></views></metadata><g class="" id="mylayer"><path d="M782.264752,0.000000L777.905000,3.371490L768.399623,10.645432L759.963592,17.122979L750.419047,24.450065L739.691665,32.653246L654.340682,98.120584L632.192358,115.111636L631.704468,116.678006L611.587907,180.847094L602.810991,208.963185L600.901875,215.839605L594.234737,216.344054L580.952890,217.326402L571.073496,218.282201L570.986199,220.299999L570.577901,229.831467L570.150148,239.893984L568.951491,267.400219L563.995937,269.710123L558.000416,272.524491L549.164422,276.666399L545.422200,278.073588L536.240310,281.259679L530.194398,282.613769L512.990387,284.950240L478.007220,289.304580L482.255042,264.001746L486.473271,238.858525L486.564602,236.761058L488.755538,225.317953L481.063498,231.663425L470.841065,240.132936L465.478943,244.566832L459.971004,248.708683L449.642992,256.089696L425.659249,273.878576L395.049876,296.552983L388.489910,301.438369L381.515117,306.589277L373.606402,312.457079L372.553762,313.067757L367.716419,316.360107L367.336742,316.652170L363.539978,319.572808L360.678334,322.042078L358.209026,324.113081L354.284476,327.830271L347.353824,334.999156L342.774366,340.123597L338.915691,344.849777L333.614025,351.992170L329.642645,357.939758L326.934657,362.427012L323.033377,370.312920L320.441916,375.384345L317.133276,384.544804L316.241935,387.890373L309.777877,390.731456L290.447165,398.325398L287.565074,399.175072L269.681919,404.405883L264.331955,405.706949L258.600917,406.025578L255.650122,406.211445L233.199044,407.512513L236.108625,411.760903L239.798455,424.851312L240.757689,426.816208L245.081454,439.641184L249.435876,452.439688L252.339094,461.016323L252.854008,462.529851L256.125754,472.195212L271.418502,518.956022L271.818149,520.150946L282.193434,545.881812L283.128172,548.192029L285.506767,557.778132L287.823130,567.151843L288.175633,568.559231L287.867183,577.587782L287.822154,579.207615L286.235402,589.271848L285.020321,597.317960L283.754702,605.788983L282.038282,617.127993L276.135199,661.209991L273.748367,678.922724L272.581856,687.898651L268.196384,720.987762L269.051653,721.253327L266.776323,723.537186L265.511040,725.475813L262.165151,756.919002L261.825287,760.052725L259.380046,768.046395L258.981038,768.869665L250.836273,785.706941L247.966431,793.727270L245.909344,799.516798L245.628470,800.313523L242.158854,811.122462L240.082393,814.681191L235.477431,822.515729L230.813893,828.172549L222.967024,837.627177L219.381702,840.707907L218.877861,841.584323L217.735248,844.426037L220.246758,858.528433L219.912499,860.971795L220.927480,862.565295L222.457428,871.063977L228.707103,874.675928L246.798636,885.379027L270.323297,899.242677L282.801028,906.466685L311.571332,923.597248L318.494064,927.767035L321.669786,929.652738L323.383053,930.715106L327.029871,933.105437L327.617790,933.317911L331.571198,935.708245L331.176582,939.214073L328.925960,959.080548L325.534490,989.199343L325.311997,991.164783L324.796030,994.909747L324.321184,999.000000L365.840675,959.505501L374.896415,944.844659L376.912398,922.667679L377.046820,919.693061L378.102691,899.056765L380.045991,861.741987L380.257557,858.395641L381.320245,837.202249L381.348214,836.644531L427.499789,796.383015L438.957082,786.397432L438.986337,786.105301L440.537156,782.546622L440.540190,774.048308L440.539636,763.876935L440.798111,752.908906L439.763854,742.684525L440.285246,731.716610L440.793220,710.551090L440.978964,702.637314L440.951194,699.556792L441.200289,698.521100L440.870846,691.855507L440.740129,689.226454L440.251837,678.604053L439.356823,668.087931L438.379548,657.757752L438.583553,647.162070L438.402230,643.072524L438.360562,642.594525L437.284986,630.883599L422.455532,636.354001L420.925212,636.885108L417.595924,637.628660L410.705621,637.336550L403.358486,635.822893L399.078868,634.707568L389.641871,632.078588L389.023491,631.892701L414.113793,603.956690L430.948094,585.182417L441.817684,572.967283L455.018202,557.220490L463.029655,551.909626L482.624197,538.048335L494.710921,529.497931L494.155780,528.780973L512.109321,517.070699L536.434837,499.704565L544.915695,493.623798L568.149477,476.921696L569.899023,483.055520L572.828557,484.887705L573.850610,486.188823L580.994819,488.392759L584.279647,489.401791L585.574643,490.065628L616.193098,485.870182L622.145929,485.206346L629.125434,484.011443L631.283342,483.772462L663.554459,478.063489L669.212428,476.151650L670.682223,470.150612L674.079284,468.929164L675.306078,463.406104L677.688783,450.288896L680.133859,439.269444L682.883412,426.842760L685.582459,414.840992L687.906502,405.069692L690.097380,394.900155L691.598297,387.996582L694.423383,376.685393L696.671463,366.542549L700.161802,351.301826L701.398180,345.885289L705.733047,326.635459L709.341440,312.244670L712.622930,299.128430L719.102004,272.683795L719.872969,269.842876L722.005904,260.258121L725.435793,246.956361L731.857080,222.105399L735.012849,208.166690L735.601300,205.617907L736.318139,202.405384L737.666639,196.511346L742.157898,176.652281L747.216581,154.377434L749.844779,142.802043L759.464427,100.324103L776.344274,25.857081L777.437528,20.547592L778.792366,14.972644L780.171976,9.052596L781.633405,2.813999L782.264752,0.000000Z " data-aland="2991406" data-awater="12350" data-classfp="C5" data-funcstat="A" data-geoid="4285592" data-intptlat="+40.6844020" data-intptlon="-075.2417231" data-lsad="21" data-mtfcc="G4110" data-name="Wilson" data-namelsad="Wilson borough" data-pcicbsa="N" data-pcinecta="N" data-placefp="85592" data-placens="01215507" data-statefp="42"/></g><g fill="#000" font-family="Arial" font-size="12px" id="mylayer-label" stroke="none"><text text-anchor="middle" y="471.461135768"><tspan dy="0" x="467.097635884"><![CDATA[Wilson]]></tspan></text></g></svg>