<?xml version="1.0" encoding="utf-8"?><!DOCTYPE svg  PUBLIC '-//W3C//DTD SVG 1.1//EN'  'http://www.w3.org/Graphics/SVG/1.1/DTD/svg11.dtd'><svg enable_background="new 0 0 1000 1001" height="1001px" pretty_print="False" style="stroke-linejoin: round; stroke:#000; fill: none;" version="1.1" viewBox="0 0 1000 1001" width="1000px" xmlns="http://www.w3.org/2000/svg" xmlns:xlink="http://www.w3.org/1999/xlink"><defs><style type="text/css"><![CDATA[path { fill-rule: evenodd; }]]></style></defs><metadata><views><view h="1001" padding="0" w="1000"><proj flip="auto" id="robinson" lon0="-76.5819411808"/><bbox h="0.2" w="0.32" x="-1046.06" y="-670.53"/></view></views></metadata><g class="" id="mylayer"><path d="M1000.000000,574.319408L999.629421,569.384701L993.949927,498.462206L980.308188,474.104268L966.973115,450.271454L963.210359,445.599403L958.818358,444.811979L955.322011,445.809382L953.497498,443.972060L949.294041,443.132142L939.467646,445.389423L904.796817,459.458092L864.981264,475.521643L847.074900,471.269519L833.359530,467.489858L817.496587,459.773063L813.850417,457.988228L809.924193,455.730939L790.049116,444.129545L781.328839,438.827564L768.464704,429.378509L762.808318,424.444013L744.312889,412.422772L724.903954,404.233653L706.615258,389.797755L698.869824,376.674265L687.966494,355.886762L686.168468,352.474683L677.078585,335.729304L661.616223,307.225604L658.933813,303.078677L642.128170,281.661716L638.873240,277.829774L633.946502,271.950639L628.893611,266.333975L625.493142,262.554542L602.446581,242.660099L598.404273,239.143152L585.197147,232.949134L566.119199,223.448163L520.119861,202.346653L517.804796,201.244339L491.894040,190.116237L491.959008,192.215876L476.725589,214.104692L415.830263,242.975050L365.420719,276.727436L358.038134,281.714208L339.217754,294.312404L294.198840,320.821261L275.289087,284.758768L199.604458,345.913004L177.837732,363.603320L158.021724,379.613923L150.282771,385.860703L146.696021,390.532672L144.584459,393.262365L118.279974,446.964271L113.778110,456.150899L108.695341,466.492448L0.000000,688.239641L0.810469,714.436586L2.943169,782.581089L113.133742,795.758651L217.195360,808.883763L310.204437,717.166539L467.297016,689.604607L493.833503,684.932225L537.590049,677.319932L550.226776,675.009998L555.872060,674.012527L567.145994,672.070084L629.964964,660.992933L703.142315,659.680476L761.812556,658.578014L754.255176,685.824702L832.681865,700.366859L858.657791,705.196758L903.061722,603.560319L918.030027,599.045548L989.924110,577.364231L1000.000000,574.319408Z " data-aland="1420305" data-awater="0" data-classfp="C5" data-funcstat="A" data-geoid="4285728" data-intptlat="+39.9162748" data-intptlon="-076.5839682" data-lsad="21" data-mtfcc="G4110" data-name="Windsor" data-namelsad="Windsor borough" data-pcicbsa="N" data-pcinecta="N" data-placefp="85728" data-placens="01215767" data-statefp="42"/></g><g fill="#000" font-family="Arial" font-size="12px" id="mylayer-label" stroke="none"><text text-anchor="middle" y="515.634274147"><tspan dy="0" x="452.998333476"><![CDATA[Windsor]]></tspan></text></g></svg>