<?xml version="1.0" encoding="utf-8"?><!DOCTYPE svg  PUBLIC '-//W3C//DTD SVG 1.1//EN'  'http://www.w3.org/Graphics/SVG/1.1/DTD/svg11.dtd'><svg enable_background="new 0 0 1000 1001" height="1001px" pretty_print="False" style="stroke-linejoin: round; stroke:#000; fill: none;" version="1.1" viewBox="0 0 1000 1001" width="1000px" xmlns="http://www.w3.org/2000/svg" xmlns:xlink="http://www.w3.org/1999/xlink"><defs><style type="text/css"><![CDATA[path { fill-rule: evenodd; }]]></style></defs><metadata><views><view h="1001" padding="0" w="1000"><proj flip="auto" id="robinson" lon0="-75.1937771842"/><bbox h="0.42" w="0.48" x="-1026.29" y="-673.45"/></view></views></metadata><g class="" id="mylayer"><path d="M1000.000000,524.329155L990.333869,515.310037L961.260843,488.217945L951.577289,479.164015L949.347455,477.136499L942.679943,470.984048L940.461109,468.921583L938.591138,467.208689L932.981239,462.070016L931.093594,460.322170L926.598622,456.197260L923.183194,453.016191L913.067437,443.787620L908.554837,439.627784L905.099794,436.481695L894.681664,426.938584L891.208970,423.757557L883.718362,416.941083L861.279727,396.386920L853.771588,389.535575L840.455145,377.266125L800.510839,340.353311L787.177200,328.049175L782.084417,323.365231L771.781834,313.822601L769.590961,310.851460L761.485050,303.441104L744.842844,288.166058L747.303642,285.719264L750.943713,282.713207L758.267342,276.106886L758.173219,274.673771L758.008870,271.458004L757.930516,270.339478L757.279290,265.480885L755.914202,261.251471L753.472126,256.253084L750.217273,252.198455L749.654408,251.709104L747.310255,249.681793L744.476342,247.479716L738.888782,243.914453L736.682234,242.726034L712.540270,229.513645L704.492989,225.109532L695.686955,220.565616L694.362951,219.761693L691.993028,218.363567L687.031528,214.448820L683.044792,210.534079L669.712062,195.679098L666.643243,192.218775L662.103829,186.871014L655.635139,179.635828L649.934756,173.239523L643.421727,165.689810L636.085959,157.930409L629.430111,150.835125L618.165683,139.615533L617.649208,139.161158L581.527256,104.978455L569.486812,93.584335L565.699178,89.949414L554.307671,79.044684L550.491411,75.409786L547.453942,72.124402L543.968364,68.349712L538.511232,62.093526L535.546443,58.668359L532.720495,59.996484L529.301138,61.114906L525.808722,61.918772L522.199267,62.547885L510.878396,63.631358L486.913576,65.903157L482.462146,67.021581L475.813924,70.202105L443.953315,88.551368L437.682921,92.535800L436.620644,93.269775L426.517817,100.050316L412.148629,110.186215L409.252803,112.283304L406.711997,114.345442L405.641093,115.289134L386.569412,131.716415L380.209967,137.168901L369.168350,147.025351L335.928916,176.594960L324.869686,186.416629L322.377615,188.688552L314.819713,195.399475L312.292295,197.601501L307.182493,202.180324L291.800081,215.811990L286.643947,220.355897L277.052298,228.884485L248.253059,254.365583L238.654772,262.824393L236.491021,264.781808L229.942433,270.654063L227.761008,272.576531L221.847024,277.889542L204.058751,293.793695L198.127108,299.071801L196.727942,300.330159L192.530443,304.105238L191.113601,305.328645L185.935546,309.942642L170.388034,323.644869L165.192316,328.223949L157.396591,335.145018L133.894784,355.908353L126.081411,362.794552L121.650286,366.674602L108.339247,378.279837L105.318274,380.866554L103.890454,382.124959L98.168184,387.193538L81.012392,402.364387L75.272460,407.398056L62.479476,418.723851L21.420891,454.659161L17.699420,458.015016L2.888577,471.473447L0.000000,474.095229L7.954453,480.072902L33.352340,497.411741L34.804489,498.355593L49.676281,507.409600L58.135044,514.610882L71.535841,531.810155L78.082466,540.899255L90.119231,554.777683L94.386499,558.623106L116.290539,574.494287L125.014921,582.220166L157.601950,611.445905L160.928934,614.452403L173.616656,625.988999L207.173363,655.599867L245.670486,690.385271L258.044875,701.188084L300.221330,739.050781L303.740755,742.267217L317.427575,754.643545L320.099196,757.090850L346.453367,781.074578L357.267619,790.549270L378.481532,809.358925L451.469178,873.830389L471.623508,892.640743L509.895509,927.255003L515.412078,932.604528L518.046231,934.807277L524.597468,940.331641L580.293995,890.438035L618.465754,857.362718L628.692138,848.447151L646.688838,832.958622L660.169306,821.351036L663.500233,818.414186L725.071986,764.153087L736.292283,754.538661L744.785002,747.126840L755.872949,737.477526L778.084263,718.248943L787.286525,710.312830L800.952072,698.391234L823.381884,679.197947L835.915187,668.325319L848.040977,657.837304L858.071782,649.272128L868.446084,640.252509L889.851175,621.584110L909.764692,604.104476L929.116384,587.044484L949.970737,568.761072L998.305799,525.797386L1000.000000,524.329155Z " data-aland="4261529" data-awater="0" data-classfp="U1" data-funcstat="S" data-geoid="4286776" data-intptlat="+40.0856190" data-intptlon="-075.1940997" data-lsad="57" data-mtfcc="G4210" data-name="Wyndmoor" data-namelsad="Wyndmoor CDP" data-pcicbsa="N" data-pcinecta="N" data-placefp="86776" data-placens="02390546" data-statefp="42"/></g><g fill="#000" font-family="Arial" font-size="12px" id="mylayer-label" stroke="none"><text text-anchor="middle" y="484.443754365"><tspan dy="0" x="504.291194261"><![CDATA[Wyndmoor]]></tspan></text></g></svg>