<?xml version="1.0" encoding="utf-8"?><!DOCTYPE svg  PUBLIC '-//W3C//DTD SVG 1.1//EN'  'http://www.w3.org/Graphics/SVG/1.1/DTD/svg11.dtd'><svg enable_background="new 0 0 1000 1001" height="1001px" pretty_print="False" style="stroke-linejoin: round; stroke:#000; fill: none;" version="1.1" viewBox="0 0 1000 1001" width="1000px" xmlns="http://www.w3.org/2000/svg" xmlns:xlink="http://www.w3.org/1999/xlink"><defs><style type="text/css"><![CDATA[path { fill-rule: evenodd; }]]></style></defs><metadata><views><view h="1001" padding="0" w="1000"><proj flip="auto" id="robinson" lon0="-95.6285460364"/><bbox h="0.13" w="0.1" x="-1309.46" y="-661.74"/></view></views></metadata><g class="" id="mylayer"><path d="M437.026363,0.000000L413.164133,60.308417L341.377320,241.235924L317.361818,301.421236L306.193308,331.576336L272.634820,421.917591L261.413104,451.948456L214.990138,562.851629L132.950092,758.368289L213.466437,814.444540L278.501095,859.804233L288.502507,866.284207L318.250045,885.599538L328.197794,891.954913L339.799475,899.556446L374.443482,921.987234L385.991516,929.464175L406.525834,943.421147L468.176933,985.167565L488.759286,999.000000L497.144695,977.939814L522.241674,914.385684L530.472082,893.201066L541.793012,863.168834L575.852172,772.823469L587.221411,742.666997L598.447313,712.884457L632.221383,623.288162L643.495589,593.381377L654.578625,563.973128L687.924086,475.499698L699.055417,445.967198L701.877076,438.615239L710.384043,416.185569L713.152030,408.709024L721.802566,385.905596L747.551543,317.495637L756.100834,294.692424L778.370932,235.877829L844.879460,59.436186L867.049908,0.623019L845.639866,1.121434L781.403873,2.367472L759.940135,2.741284L754.869747,2.990491L739.545339,3.239699L734.469091,3.239699L712.796443,3.364303L647.927854,3.613510L626.201514,3.613510L621.585057,3.738114L607.676138,3.738114L603.005990,3.738114L595.379902,3.239699L572.597308,1.495245L565.019055,0.872227L538.573761,3.115095L520.382247,4.485737L465.506057,2.242868L461.946827,1.993661L437.026363,0.000000Z "/></g><g fill="#000" font-family="Arial" font-size="12px" id="mylayer-label" stroke="none"><text text-anchor="middle" y="441.279619131"><tspan dy="0" x="489.63166268"><![CDATA[N]]></tspan></text></g></svg>