<?xml version="1.0" encoding="utf-8"?><!DOCTYPE svg  PUBLIC '-//W3C//DTD SVG 1.1//EN'  'http://www.w3.org/Graphics/SVG/1.1/DTD/svg11.dtd'><svg enable_background="new 0 0 1000 1001" height="1001px" pretty_print="False" style="stroke-linejoin: round; stroke:#000; fill: none;" version="1.1" viewBox="0 0 1000 1001" width="1000px" xmlns="http://www.w3.org/2000/svg" xmlns:xlink="http://www.w3.org/1999/xlink"><defs><style type="text/css"><![CDATA[path { fill-rule: evenodd; }]]></style></defs><metadata><views><view h="1001" padding="0" w="1000"><proj flip="auto" id="robinson" lon0="-118.388797018"/><bbox h="0.66" w="0.41" x="-1563.01" y="-768.89"/></view></views></metadata><g class="" id="mylayer"><path d="M517.732873,0.000000L516.732233,1.715571L515.488430,3.779229L513.684618,6.837420L512.658349,8.528126L510.196390,12.680299L502.759290,25.087076L500.291794,29.214374L499.233167,31.029390L497.670351,33.640029L491.446045,33.714619L484.958664,33.689755L481.942968,33.664892L450.991707,84.907764L446.524295,92.292072L461.922915,92.590427L461.342871,93.584946L459.586041,96.493913L459.000431,97.463568L458.579901,98.184593L453.983331,97.911101L402.567578,96.916583L354.961222,96.444187L331.202478,136.249646L310.384699,171.082313L305.071801,180.157171L303.108621,183.488759L294.240644,183.588209L290.894809,183.613072L277.966308,183.861698L273.700698,183.811973L267.783923,183.737385L262.654212,183.861698L257.456528,183.861698L252.311282,183.737385L246.969620,184.259499L222.740472,184.408675L222.097255,184.135186L205.147326,184.259499L203.979998,184.334087L200.466881,184.508125L199.308487,184.532988L198.927190,184.532988L197.743161,184.532988L197.341796,184.532988L196.287589,186.546857L195.753235,187.566223L194.424535,190.325968L193.538646,192.464148L192.898115,194.353702L192.542316,194.826090L191.458219,196.168667L191.076785,196.616193L201.809546,201.887049L234.031546,217.625000L244.758927,222.870974L244.426575,223.268773L243.432883,224.387582L243.094962,224.760518L235.499018,233.139148L212.714657,258.200378L205.107647,266.529236L206.333373,269.313806L206.592997,269.935362L207.539368,270.755816L209.891269,273.192313L212.546521,275.280739L213.031425,275.653672L215.443976,276.300090L224.044425,276.797334L232.278069,277.269715L246.900195,278.040444L244.696219,281.819496L238.247186,292.808570L237.157401,295.021299L233.931559,301.584896L232.836214,303.772760L223.096000,319.957958L211.361715,339.424887L233.732785,341.190085L246.192140,342.159700L250.673601,351.681810L251.000116,352.601700L254.097129,360.781254L262.265914,370.278472L270.352154,373.585092L274.122668,375.275693L279.033708,377.488392L287.523257,383.132013L273.664329,406.278261L243.275154,456.946101L254.302301,456.896378L272.388383,456.821794L306.478877,456.697486L348.049765,456.548318L377.668907,528.148845L386.443605,549.380223L397.654972,549.703417L377.492396,584.285039L390.235843,581.326591L398.656885,601.066127L402.914066,648.500409L404.461435,660.408641L405.136425,665.654222L410.447750,706.325960L429.261785,850.613882L420.085883,861.775911L407.570008,876.567431L398.495623,887.555393L396.426598,890.140793L390.213952,897.872126L388.139353,900.432661L383.718171,905.951482L380.623564,909.779850L370.363229,922.458194L367.014470,926.584864L365.910848,927.927274L375.293918,930.114905L403.446534,936.603215L407.512477,937.547873L405.098264,941.724251L402.868615,943.862158L399.827421,946.944720L395.402204,949.405797L388.767167,953.109840L384.878066,954.651119L380.010436,958.181143L375.790695,961.736024L359.009112,981.126248L358.473000,982.046039L359.475929,983.562451L408.828163,999.000000L419.261481,981.374840L429.770306,962.208351L440.014459,945.080268L442.494427,940.928751L452.051647,923.154259L460.216440,906.150358L462.852425,901.352465L464.885648,898.518475L467.081703,895.783921L472.781588,889.345285L477.655767,885.218588L478.796308,884.398220L497.178697,870.974003L500.785365,868.264297L509.954129,861.005259L513.275289,858.096670L516.720100,854.666024L520.109102,850.986779L527.657154,841.515197L529.129595,838.954635L529.465026,838.034822L529.648896,837.512765L530.040036,836.394073L530.169274,835.896876L530.292930,835.374819L531.889740,835.424539L536.640025,835.573698L538.231254,835.598558L542.413957,835.722857L549.162483,835.921736L559.239549,836.195194L563.146221,856.903402L565.017620,866.847293L563.864857,867.791962L558.740968,871.968391L550.479051,871.197741L540.835643,883.851308L540.424937,886.759885L539.961860,889.792758L535.481872,919.897668L538.672204,923.825464L536.645020,935.534260L534.796675,940.978470L538.767733,937.746748L547.866454,928.300166L561.215818,914.453439L566.825237,908.238559L574.250597,900.010049L588.461124,886.958762L590.061216,878.531344L588.711057,875.200149L584.620496,865.206552L583.250305,861.875350L585.888249,860.483205L586.150635,857.450316L590.710942,855.859292L622.188136,844.796691L632.676794,841.092580L634.306415,838.606598L636.706254,834.902482L639.043629,831.098925L639.715745,829.980231L640.466964,828.588079L644.002394,822.074789L646.147659,816.879068L648.226068,811.832502L649.110825,809.247068L649.586323,806.537332L649.580428,805.170034L648.729634,800.396918L648.692366,793.436117L648.844700,791.521895L649.945272,786.500167L650.766623,784.436783L655.600572,774.766212L657.583431,770.813455L658.325686,769.023526L658.657609,767.283317L659.430634,763.305695L660.025271,753.883692L659.878657,751.173931L659.882449,747.792943L659.881192,747.071996L660.134498,742.298833L660.266993,741.279563L661.026337,735.362823L661.267769,732.503891L661.757886,729.769260L661.681688,727.730716L660.919264,723.081838L660.752877,721.714521L660.768293,720.620666L661.401018,717.090499L661.541436,716.643012L662.601238,713.137703L663.247308,709.309206L663.266324,703.044387L663.116546,700.856672L662.577601,698.544653L661.787883,696.903865L660.837386,693.920612L660.619799,692.951055L660.961179,686.959684L661.432464,684.498497L662.791017,679.998748L664.303151,673.410712L664.799014,671.148403L664.399460,668.562907L664.455894,665.505058L665.339719,662.646093L668.617043,656.232061L668.847764,655.560825L669.206079,650.091489L668.895816,647.903754L667.498128,643.553141L667.238248,642.931624L666.653792,641.489706L664.758958,638.232958L664.222578,637.810326L664.078640,636.989924L663.756364,636.716456L663.839715,634.404412L662.303317,625.678302L662.283995,622.371824L662.279317,620.382964L662.270306,619.537698L661.508252,614.888735L661.492430,612.850151L661.457503,609.295058L661.583323,607.529941L661.713538,605.068720L661.640944,603.850540L661.118943,602.060560L660.329354,600.419745L659.716980,597.958522L659.742182,593.060933L659.433154,591.146645L659.373811,588.287644L659.212111,588.014174L659.543100,586.000442L659.701349,585.006006L660.743607,581.600061L661.614262,579.486882L662.497174,577.249399L662.829382,576.404127L664.833889,572.724707L667.936585,567.677931L669.355796,564.968083L670.013541,563.426702L672.555336,557.310894L676.472928,549.007308L680.294699,541.350098L680.545536,540.678848L680.857612,538.491072L680.886452,535.756350L681.618714,530.162598L681.966368,525.538425L682.161449,524.618562L682.530437,522.952864L682.627325,520.342441L682.394238,519.124243L679.914320,515.047008L673.594515,514.698951L654.623958,513.605059L648.298582,513.232140L647.517961,508.856567L647.520123,506.270999L647.527897,505.052798L648.766450,495.630380L649.292575,485.536692L649.050597,483.025697L648.335842,475.989936L652.786851,474.448531L664.740567,470.296681L666.067395,469.948621L670.366762,468.804997L673.224457,468.034294L681.777470,465.722184L684.629588,464.926619L683.522398,461.868665L683.186786,460.998515L682.485460,458.139450L680.859821,456.349426L679.373562,453.390913L678.024452,450.506983L674.619307,451.252827L664.358152,453.465498L660.947428,454.186480L656.936852,454.111895L644.885055,453.888142L640.868904,453.788697L641.995074,450.755598L642.644042,447.473883L642.902782,443.794382L642.131264,441.606570L641.745496,440.960171L638.911342,436.286205L635.553136,432.855313L633.896315,431.910574L632.401158,431.239312L630.439935,430.816666L625.789402,430.394019L624.438051,430.543189L619.077285,429.996234L615.927481,430.269711L613.396515,429.722757L612.713047,429.449280L610.260151,428.355371L609.562206,427.659247L607.682553,423.034994L607.285712,420.996344L613.901280,411.026836L614.138786,410.653911L590.228340,410.529603L582.149297,410.479880L582.444790,410.007508L583.314550,408.515810L583.604470,408.018577L594.682769,408.018577L627.851883,407.993715L638.924607,407.968854L640.730995,404.836285L646.110045,395.438569L647.910876,392.281132L652.723036,392.529749L667.119381,393.275600L669.796398,393.399909L671.155667,390.689982L675.557880,383.828142L687.589356,364.982904L686.173367,364.933181L680.768090,364.634839L692.473230,343.527106L684.361977,343.601691L652.774362,343.875172L658.150310,334.999461L695.043874,334.850289L720.242769,334.725979L720.341205,330.598893L720.659029,329.778447L720.960172,328.435900L722.367739,322.270125L723.658030,318.714856L727.204533,307.676107L727.898230,305.488244L729.785177,300.565550L730.624937,298.402547L732.096980,295.120748L734.305054,290.198045L736.362504,286.394136L738.509113,282.988019L740.743791,279.706210L741.636974,278.587412L745.846434,273.192313L746.363834,272.545896L746.939222,271.800029L747.813473,270.507193L748.259524,269.811051L751.001611,265.659057L752.864960,263.048521L753.715793,261.830270L756.002913,258.424139L757.441528,255.440664L760.079084,249.299675L761.419990,243.282992L761.609650,242.338223L763.233697,236.868504L765.393977,231.821441L767.450447,227.744008L770.555044,222.970424L771.370319,221.056017L771.552139,220.434456L771.687112,219.962070L771.698577,217.774174L771.320960,215.461966L769.381971,209.047449L769.148068,207.555699L769.480647,205.367800L770.291654,202.359436L773.001873,196.094080L777.526043,189.953029L781.978806,184.209774L788.260306,176.775855L791.745083,172.623796L793.413421,170.038081L794.209745,168.397146L794.618059,166.905387L795.253840,165.264451L795.820569,163.225712L796.355026,160.863757L796.647361,159.570897L797.538871,155.667453L797.845708,154.349730L795.080565,155.443689L791.608531,156.786275L789.300530,157.681332L788.972723,157.830508L786.753923,158.675840L783.963139,159.744936L782.451229,160.341641L777.958991,162.057166L776.441510,162.629008L764.389707,167.328052L762.892293,167.899893L735.782672,178.391925L728.980192,180.903049L728.287796,181.126812L725.257326,182.021866L721.980465,182.892057L716.812680,184.010873L721.842455,175.557587L728.829553,163.747828L730.363036,161.186972L736.915244,150.123067L741.919497,141.644869L742.099051,141.371379L742.577509,140.550907L742.751494,140.252554L743.351512,139.258043L745.160497,136.224783L745.754947,135.205409L747.665428,131.998108L748.535358,130.506339L753.546304,122.326468L755.511437,119.094297L762.290151,108.055176L766.325314,101.342187L798.274940,48.035815L808.923215,30.258630L803.003296,30.258630L798.883887,30.233767L785.232405,30.208904L779.306919,30.184041L775.164690,36.151213L762.732509,54.027833L761.045082,56.439556L758.160908,56.464419L740.081117,56.290377L708.081109,55.967157L692.695954,55.817978L697.769879,47.289920L702.269513,39.333703L689.261329,39.134798L686.099587,39.085071L657.629414,38.662397L654.332767,38.637534L649.654825,38.538081L644.520896,38.463491L613.691694,37.991090L601.858571,37.841911L598.384404,38.637534L603.992950,29.090058L599.758704,29.090058L597.766454,29.065195L592.179921,28.940879L593.995639,23.247195L594.469932,21.780262L595.528381,17.006513L596.528111,11.163637L596.581723,10.865278L597.320721,7.981133L597.625401,7.011463L598.047267,5.668843L598.634519,3.182509L599.000729,1.591255L599.155854,1.118851L591.641719,1.168578L590.311967,3.654913L583.234066,15.962255L589.161727,16.086571L589.823953,16.086571L585.676567,23.197468L581.236087,23.172605L578.699820,23.048289L538.008678,22.625613L551.071362,0.298360L537.423354,0.198907L517.732873,0.000000L517.732873,0.000000Z M633.956529,341.040913L639.126182,333.035366L646.502654,333.085090L650.897768,333.085090L646.189726,341.090637L634.865209,341.065775L633.956529,341.040913Z M612.725176,358.866891L614.142484,356.505014L616.391671,352.750871L618.408919,349.394516L619.820663,347.007773L627.146968,347.281254L633.739642,347.505012L627.721340,358.170759L620.413915,358.518825L612.725176,358.866891Z M688.177050,231.672267L690.953920,227.047861L699.348145,213.100032L702.133978,208.425886L704.703802,208.699374L712.456770,209.445248L713.929547,209.569561L713.438757,210.961860L714.000943,216.158115L716.705540,217.301788L736.459453,225.481529L734.526034,226.525750L723.455148,232.467863L721.942356,231.448505L721.748382,231.299331L715.098993,231.448505L712.782187,231.498230L709.281339,231.547955L698.827859,231.647405L695.321440,231.672267L693.896576,231.672267L689.621983,231.672267L688.177050,231.672267Z " data-aland="5155409" data-awater="0" data-classfp="C1" data-funcstat="A" data-geoid="4148600" data-intptlat="+45.9348544" data-intptlon="-118.3913054" data-lsad="25" data-mtfcc="G4110" data-name="Milton-Freewater" data-namelsad="Milton-Freewater city" data-pcicbsa="N" data-pcinecta="N" data-placefp="48600" data-placens="02411115" data-statefp="41"/></g><g fill="#000" font-family="Arial" font-size="12px" id="mylayer-label" stroke="none"><text text-anchor="middle" y="403.120043238"><tspan dy="0" x="509.975691933"><![CDATA[Milton-Freewater]]></tspan></text></g></svg>