<?xml version="1.0" encoding="utf-8"?><!DOCTYPE svg  PUBLIC '-//W3C//DTD SVG 1.1//EN'  'http://www.w3.org/Graphics/SVG/1.1/DTD/svg11.dtd'><svg enable_background="new 0 0 1000 1001" height="1001px" pretty_print="False" style="stroke-linejoin: round; stroke:#000; fill: none;" version="1.1" viewBox="0 0 1000 1001" width="1000px" xmlns="http://www.w3.org/2000/svg" xmlns:xlink="http://www.w3.org/1999/xlink"><defs><style type="text/css"><![CDATA[path { fill-rule: evenodd; }]]></style></defs><metadata><views><view h="1001" padding="0" w="1000"><proj flip="auto" id="robinson" lon0="-76.5793426642"/><bbox h="0.5" w="0.72" x="-1045.34" y="-673.37"/></view></views></metadata><g class="" id="mylayer"><path d="M1000.000000,353.022551L999.998400,349.540784L999.652589,343.707112L999.003169,325.053353L998.200035,308.890025L998.015328,300.958299L997.600514,293.095788L997.491100,286.524513L997.406219,285.371660L996.508615,280.967773L996.285813,277.232548L996.030741,275.134371L995.282152,270.914968L993.810392,261.392535L992.085038,251.362920L989.673121,236.330153L988.942688,231.050275L987.504399,222.842293L985.514975,215.233811L983.301523,206.080628L977.476162,184.523607L976.638270,182.356395L975.819784,179.774188L975.457327,178.898083L971.704152,169.652904L968.795292,163.381892L948.770631,172.119816L912.530711,186.852212L906.985241,189.111653L887.546805,196.904446L825.410437,222.058387L791.274447,236.007365L780.155311,240.318894L778.217667,240.641682L776.512500,240.710851L773.455486,240.572513L761.128805,239.027739L751.614223,237.736586L737.667738,236.053477L734.915616,235.730690L727.876898,234.739271L711.286308,232.041692L699.484112,230.335533L694.321683,229.390230L689.416117,228.882995L688.005224,228.859938L686.172745,229.090500L685.584200,229.274949L681.433949,230.543039L679.748103,231.142500L660.204172,239.027739L642.921265,245.875481L624.197824,253.737742L605.082804,261.346422L577.094247,272.690344L555.947369,281.152228L551.465402,283.042901L519.188536,295.908764L516.231019,296.877166L515.334838,296.900224L513.968215,296.738823L518.900576,287.239281L526.060153,274.327380L540.024410,248.550029L556.566105,217.677744L558.841559,212.697659L560.187438,209.262333L561.932661,203.221711L564.278323,191.763043L564.376639,191.278875L565.235568,187.474710L566.643886,180.419739L567.085606,178.390865L571.340886,159.139752L571.484048,158.102274L571.333472,156.742026L571.125997,156.327035L567.638831,158.240604L564.925706,159.508633L561.189101,160.961104L558.544767,161.837198L522.555791,171.589545L510.985915,174.886452L502.697371,177.030598L494.274649,178.944194L485.249137,180.673349L465.106459,184.108609L445.645062,187.128878L434.128429,189.019431L422.961896,190.702486L407.388209,193.215545L377.236193,197.849729L372.763120,198.472232L353.215366,201.584753L349.489512,201.999756L341.848160,203.244767L339.482040,203.429213L332.703170,204.697281L329.650697,205.135341L327.448284,205.458122L320.593768,206.726191L317.541294,207.164252L312.469921,208.178708L300.061185,210.138456L297.165574,210.322902L294.495987,210.392070L291.994793,210.230679L287.420502,209.515947L270.375027,207.118140L267.820349,206.887582L265.339515,206.426465L261.660851,206.103684L251.044827,206.126740L244.839926,206.311186L231.458867,206.288131L222.842289,206.149796L220.037088,206.288131L216.429374,206.334242L209.817625,206.726191L203.426310,207.256475L197.297389,207.971206L192.802132,208.662881L180.024529,209.884841L173.491103,210.622629L169.348306,210.922355L157.614001,212.075150L152.305595,212.766827L122.426163,216.017714L114.087406,217.078288L110.032663,217.516352L101.769543,218.576927L97.141895,219.268607L97.523273,229.413286L97.605012,235.062058L98.248015,245.276014L98.277984,249.610626L98.688278,257.127058L99.468273,277.601459L100.022984,283.250414L100.436685,285.855858L101.464222,293.925846L103.779530,310.434872L105.456300,323.623779L106.706869,331.647856L107.056940,334.806773L107.499761,337.735117L108.266776,344.375793L109.922132,354.798025L110.512807,359.686354L111.282503,364.251884L111.906380,369.509177L113.490347,380.923103L114.280752,386.664686L114.630963,389.823720L116.981735,405.872636L117.457574,407.694291L117.700926,409.769597L117.761308,410.230777L117.842759,412.398323L117.528073,413.735746L116.978161,414.980935L116.171373,415.788002L114.666699,416.825660L108.269861,420.030876L93.967358,427.432876L84.769686,432.298386L69.851328,440.738122L58.152588,447.863511L51.314738,451.737524L49.677686,452.775207L47.353786,454.481622L44.353162,457.179606L30.376230,472.721933L27.762146,475.512190L19.859456,484.367255L17.147593,487.226715L13.466571,491.400614L10.316039,494.744353L7.287276,498.180341L4.009438,501.685519L0.000000,506.412909L11.522869,512.362525L16.880277,514.945311L19.458676,515.752433L21.959593,516.328949L28.998805,517.320556L53.122478,520.180079L76.426077,522.647576L83.965783,523.316337L86.752697,523.708370L91.749491,524.699982L94.815465,525.460988L99.172037,526.798513L110.670269,530.580489L159.339247,544.970533L170.943242,548.245210L200.740510,557.192956L224.169197,563.880740L222.887450,565.817897L221.656480,568.423838L222.093410,570.545493L221.884943,570.960599L221.193239,574.304519L219.924402,575.964950L218.382001,577.002721L217.371917,578.386416L214.540089,583.690594L213.155121,586.896172L211.924180,589.502150L208.743463,591.877515L204.651321,594.737183L198.852957,597.550732L195.257543,599.626304L191.630821,602.509049L189.553014,605.161179L188.965955,606.936955L188.088700,607.905562L186.050011,609.312348L183.691756,611.895304L183.134217,613.578840L180.791227,616.646109L179.565251,617.522473L178.957854,618.652522L177.701005,619.920945L176.923402,621.050996L176.588740,623.633972L176.728747,626.447576L175.796289,629.007500L173.493609,633.781422L172.340329,637.563672L172.283171,637.978797L172.286483,638.855174L172.282418,639.754613L172.187437,640.169739L170.611570,643.144814L163.887850,649.856049L156.125330,656.267498L149.671496,663.140234L144.124315,668.006519L139.701686,672.549938L130.664517,681.290868L128.035532,683.597190L124.521534,687.310377L120.117318,691.323398L111.874513,700.064439L104.025017,707.398651L102.640916,708.828596L100.540556,711.019643L93.735149,719.760801L89.727327,724.604209L84.869132,730.923727L81.480344,735.605723L78.297182,739.526618L71.309585,747.714403L68.942748,750.620501L65.844517,754.749015L64.581839,756.686423L64.592981,757.124646L65.129514,757.516741L65.711797,758.416253L65.808790,759.177378L65.052360,762.429466L64.958503,763.905593L65.634412,764.689787L66.837598,765.658496L70.454379,767.595918L76.052438,769.902376L78.247017,771.378510L79.417101,772.923840L79.854144,774.100138L80.190361,776.360476L80.173891,777.121611L89.286516,779.497278L103.231319,783.026188L150.592404,795.019932L186.892471,804.107565L208.172861,809.597076L283.185677,828.510673L288.950779,829.940736L300.864374,832.962323L302.856228,829.571687L303.383277,828.810525L312.134894,818.592537L332.402954,795.365907L341.821525,784.363947L346.244039,779.405019L347.428295,778.067264L352.482674,772.670129L354.453664,770.409797L357.684931,766.396561L359.803064,764.090109L361.720170,762.175757L363.283634,760.953340L364.741581,760.238342L365.729561,759.869311L367.040004,759.615603L370.599724,759.661731L372.292214,759.869311L378.685459,761.345436L428.596123,770.571249L441.081771,772.808517L452.185262,774.399978L454.208911,774.399978L455.695985,774.007879L456.627219,773.638844L457.573556,772.808517L457.958123,774.030944L458.941120,775.806923L461.413602,779.312760L465.075590,783.948780L469.601425,789.668865L486.221997,810.681141L488.418349,812.803144L491.802667,815.409521L494.391414,816.954898L502.054826,820.137917L543.157499,834.853702L551.198315,837.921432L554.534018,839.674423L555.668144,840.504788L556.892345,841.704204L557.641804,842.672965L559.602669,839.674423L565.817699,831.532258L573.602541,822.029279L578.225693,816.678114L593.867007,797.626278L602.450521,786.808820L630.080181,752.857739L631.967078,750.505180L642.464947,737.427785L652.950041,724.627273L661.874646,713.395203L687.641299,708.874723L689.316625,681.336994L725.449555,677.577696L726.336526,677.347064L727.228970,676.862738L729.103664,675.317509L730.302633,673.933723L731.773158,671.996424L738.371579,662.125466L747.224089,649.463983L747.702734,648.795164L748.808473,647.111588L750.231340,644.436320L752.639845,639.270300L753.793215,636.018483L755.353134,629.307311L757.739327,620.958747L760.686868,612.333484L766.047828,594.506564L768.254909,586.896172L768.989282,584.659185L780.652978,546.123588L786.282911,526.867696L787.584439,522.739819L790.080226,515.706312L806.380891,517.897073L810.887472,518.588892L831.131961,521.102507L845.725932,522.716758L854.646841,523.915917L859.950001,524.423253L865.019788,525.068955L870.379685,525.576292L874.340128,526.083629L877.181964,526.245054L885.184774,526.175872L952.187602,521.448418L952.090045,520.157019L952.442815,517.043828L954.951630,509.318533L958.690748,499.402540L963.761698,484.436436L967.000812,473.482912L983.258398,414.565872L984.608485,410.346072L986.659786,402.575215L989.159813,393.697580L994.574623,375.296834L998.394073,361.646302L999.709142,355.881757L1000.000000,353.022551Z " data-aland="9530652" data-awater="2999" data-classfp="U1" data-funcstat="S" data-geoid="4248224" data-intptlat="+40.0834388" data-intptlon="-076.5667218" data-lsad="57" data-mtfcc="G4210" data-name="Maytown" data-namelsad="Maytown CDP" data-pcicbsa="N" data-pcinecta="N" data-placefp="48224" data-placens="02390141" data-statefp="42"/></g><g fill="#000" font-family="Arial" font-size="12px" id="mylayer-label" stroke="none"><text text-anchor="middle" y="467.201400905"><tspan dy="0" x="494.760567226"><![CDATA[Maytown]]></tspan></text></g></svg>