<?xml version="1.0" encoding="utf-8"?><!DOCTYPE svg  PUBLIC '-//W3C//DTD SVG 1.1//EN'  'http://www.w3.org/Graphics/SVG/1.1/DTD/svg11.dtd'><svg enable_background="new 0 0 1000 1001" height="1001px" pretty_print="False" style="stroke-linejoin: round; stroke:#000; fill: none;" version="1.1" viewBox="0 0 1000 1001" width="1000px" xmlns="http://www.w3.org/2000/svg" xmlns:xlink="http://www.w3.org/1999/xlink"><defs><style type="text/css"><![CDATA[path { fill-rule: evenodd; }]]></style></defs><metadata><views><view h="1001" padding="0" w="1000"><proj flip="auto" id="robinson" lon0="-77.4753329689"/><bbox h="0.36" w="0.48" x="-1052.98" y="-686.79"/></view></views></metadata><g class="" id="mylayer"><path d="M1000.000000,266.361454L991.701221,270.245660L977.514964,276.845386L970.355974,280.214002L819.316301,350.508981L814.294441,353.602687L869.860715,152.999953L872.359036,144.028844L865.335031,146.159909L547.396117,239.240904L471.555214,120.071651L451.234777,122.065212L445.512644,122.615160L442.876773,126.877261L440.475984,130.864393L439.221366,132.892333L380.316952,229.032095L318.909302,260.724208L270.295135,285.404427L256.661476,292.382300L180.920358,331.190580L175.833011,349.065253L161.357171,399.699309L157.761997,412.246244L136.950095,485.122683L132.858631,499.388808L105.304168,595.884688L105.887069,625.449452L106.674439,667.665718L96.354892,670.725390L95.745643,670.931660L86.569657,673.716309L54.963537,682.207785L54.223964,682.379677L36.898681,686.676993L23.857236,689.977336L19.982500,690.939936L8.934782,751.687575L0.539731,797.721880L0.000000,800.575413L3.120771,800.162854L37.835084,795.659087L26.822587,836.846468L18.145961,869.370481L101.577022,876.796735L111.965504,877.896923L124.932570,878.928349L186.443725,854.552412L215.285636,843.069321L355.197399,787.614209L385.297585,775.684454L389.114498,774.137371L421.003706,761.451324L440.719355,753.612819L445.965109,751.618817L450.710063,749.762333L452.020220,749.246644L455.523433,747.871472L456.611581,747.424541L459.824371,746.152508L442.967304,663.230918L441.362432,655.220793L481.198761,654.120691L498.640360,653.673775L532.274331,652.779944L555.521550,582.993172L591.705841,565.082655L612.674703,554.632042L622.349769,549.784895L641.388894,549.062980L795.276270,543.081408L823.264271,441.843479L962.730419,360.443228L991.209374,343.909085L996.625495,292.347926L1000.000000,266.361454Z "/></g><g fill="#000" font-family="Arial" font-size="12px" id="mylayer-label" stroke="none"><text text-anchor="middle" y="476.067825941"><tspan dy="0" x="443.139813653"><![CDATA[N]]></tspan></text></g></svg>