<?xml version="1.0" encoding="utf-8"?><!DOCTYPE svg  PUBLIC '-//W3C//DTD SVG 1.1//EN'  'http://www.w3.org/Graphics/SVG/1.1/DTD/svg11.dtd'><svg enable_background="new 0 0 1000 1001" height="1001px" pretty_print="False" style="stroke-linejoin: round; stroke:#000; fill: none;" version="1.1" viewBox="0 0 1000 1001" width="1000px" xmlns="http://www.w3.org/2000/svg" xmlns:xlink="http://www.w3.org/1999/xlink"><defs><style type="text/css"><![CDATA[path { fill-rule: evenodd; }]]></style></defs><metadata><views><view h="1001" padding="0" w="1000"><proj flip="auto" id="robinson" lon0="-75.8760486019"/><bbox h="0.29" w="0.4" x="-1026.0" y="-702.13"/></view></views></metadata><g class="" id="mylayer"><path d="M1000.000000,142.611916L931.347296,144.197163L919.760490,144.359752L549.454060,152.489233L521.933910,153.098945L504.545222,153.464772L356.773597,156.675921L270.287938,159.033475L217.042902,160.130957L184.788503,160.781317L183.268555,160.496785L182.110352,164.236356L178.779161,174.845372L171.214531,198.868167L165.952216,215.940271L163.770866,222.931720L162.556510,226.833929L159.888889,235.329372L70.390188,521.621746L67.962119,529.426615L66.818346,533.125802L62.718225,546.255906L41.484903,614.224032L0.000000,757.968184L18.115005,758.334054L67.149439,759.187750L78.054405,759.147098L110.729960,758.943837L121.615255,758.862533L115.813639,778.091059L115.574830,778.782149L101.106570,830.410902L99.308555,835.614459L96.190139,844.639390L93.352805,854.802619L106.202171,852.160177L108.975472,851.550383L121.956907,849.111208L133.589599,846.672034L144.778321,844.151555L147.863505,843.419803L150.308006,842.200217L152.555790,840.574103L154.944040,838.541462L157.529007,836.915349L160.658869,831.955707L170.009141,816.995507L173.119351,811.995232L174.532575,809.759339L175.869942,807.645404L163.382893,806.507132L171.025940,752.480141L210.096655,752.602097L252.764092,755.488401L260.628808,755.366444L263.421778,755.285140L270.187846,755.122531L352.985066,753.211880L313.608271,834.191611L302.769791,856.388084L380.018418,852.973236L382.665390,853.704989L384.106766,852.851277L386.140978,851.550383L388.489516,846.509422L390.874569,841.265202L432.090144,751.545142L563.415771,748.536884L575.821145,748.252319L733.171231,744.674934L793.736901,743.089503L810.344256,704.876693L822.169971,669.672376L824.271114,663.493352L940.066022,320.203269L954.466380,277.562905L962.525174,253.661691L979.604243,203.176835L987.208284,180.495393L988.767880,175.983506L1000.000000,142.611916Z " data-aland="3333112" data-awater="0" data-classfp="C5" data-funcstat="A" data-geoid="4250736" data-intptlat="+41.8334406" data-intptlon="-075.8760918" data-lsad="21" data-mtfcc="G4110" data-name="Montrose" data-namelsad="Montrose borough" data-pcicbsa="N" data-pcinecta="N" data-placefp="50736" data-placens="01215614" data-statefp="42"/></g><g fill="#000" font-family="Arial" font-size="12px" id="mylayer-label" stroke="none"><text text-anchor="middle" y="454.063826331"><tspan dy="0" x="489.000287219"><![CDATA[Montrose]]></tspan></text></g></svg>