<?xml version="1.0" encoding="utf-8"?><!DOCTYPE svg  PUBLIC '-//W3C//DTD SVG 1.1//EN'  'http://www.w3.org/Graphics/SVG/1.1/DTD/svg11.dtd'><svg enable_background="new 0 0 1000 1001" height="1001px" pretty_print="False" style="stroke-linejoin: round; stroke:#000; fill: none;" version="1.1" viewBox="0 0 1000 1001" width="1000px" xmlns="http://www.w3.org/2000/svg" xmlns:xlink="http://www.w3.org/1999/xlink"><defs><style type="text/css"><![CDATA[path { fill-rule: evenodd; }]]></style></defs><metadata><views><view h="1001" padding="0" w="1000"><proj flip="auto" id="robinson" lon0="-76.7044226292"/><bbox h="0.25" w="0.26" x="-1046.92" y="-672.98"/></view></views></metadata><g class="" id="mylayer"><path d="M1000.000000,361.398990L942.642520,331.832705L894.948617,307.194299L883.079834,301.066309L807.947554,262.466501L769.511798,219.760760L767.191895,215.843984L763.140580,209.084396L758.196457,200.745479L749.953872,186.531458L747.584653,182.930580L743.111698,175.223449L737.273286,166.442392L733.501336,159.619714L728.438399,151.975800L722.205053,141.678650L715.186604,128.980974L708.334128,114.956721L698.816385,99.226874L698.312125,95.626074L695.115881,70.673252L689.318687,29.422468L651.140941,61.766079L552.611558,144.900455L547.300289,139.972990L544.702126,137.572432L544.023852,136.940707L535.634476,129.170491L527.840029,121.968842L523.060580,117.483610L508.750417,130.623457L427.220854,205.483498L380.394368,248.820830L371.567984,256.970322L364.226655,254.822393L331.869812,245.219897L304.268293,236.944081L294.050379,233.911725L258.887922,273.016657L163.559432,378.835618L221.937447,414.593578L210.252061,432.156791L201.617949,445.044952L193.782687,456.732781L178.011075,480.424431L160.293107,506.959243L152.273437,518.899966L142.312258,534.315554L128.871759,553.964197L139.905557,560.598004L163.807505,575.255599L123.744670,646.017150L118.982089,654.420167L113.593923,663.644551L95.364267,694.855981L88.846849,716.021764L0.000000,841.439207L119.350939,882.887844L131.226209,887.058005L137.158171,889.079903L156.596564,895.840631L172.720915,901.464049L248.981072,942.723749L278.873170,958.583256L299.702592,969.577532L341.304015,913.405940L353.826285,918.144795L446.197970,952.770202L449.269202,931.034511L588.163817,800.559642L600.752433,788.744451L643.963790,746.159504L680.343966,709.703608L763.455737,626.304879L943.908695,445.171307L930.054348,427.608038L1000.000000,361.398990Z " data-aland="1358041" data-awater="0" data-classfp="C5" data-funcstat="A" data-geoid="4252056" data-intptlat="+40.0616718" data-intptlon="-076.7051985" data-lsad="21" data-mtfcc="G4110" data-name="Mount Wolf" data-namelsad="Mount Wolf borough" data-pcicbsa="N" data-pcinecta="N" data-placefp="52056" data-placens="01215754" data-statefp="42"/></g><g fill="#000" font-family="Arial" font-size="12px" id="mylayer-label" stroke="none"><text text-anchor="middle" y="520.505811257"><tspan dy="0" x="481.670488313"><![CDATA[Mount Wolf]]></tspan></text></g></svg>