<?xml version="1.0" encoding="utf-8"?><!DOCTYPE svg  PUBLIC '-//W3C//DTD SVG 1.1//EN'  'http://www.w3.org/Graphics/SVG/1.1/DTD/svg11.dtd'><svg enable_background="new 0 0 1000 1001" height="1001px" pretty_print="False" style="stroke-linejoin: round; stroke:#000; fill: none;" version="1.1" viewBox="0 0 1000 1001" width="1000px" xmlns="http://www.w3.org/2000/svg" xmlns:xlink="http://www.w3.org/1999/xlink"><defs><style type="text/css"><![CDATA[path { fill-rule: evenodd; }]]></style></defs><metadata><views><view h="1001" padding="0" w="1000"><proj flip="auto" id="robinson" lon0="-97.8444495422"/><bbox h="0.53" w="0.31" x="-1406.43" y="-439.63"/></view></views></metadata><g class="" id="mylayer"><path d="M533.701515,0.000000L411.156307,0.828331L398.294631,1.306214L392.767073,1.529226L380.239191,1.975250L377.983228,2.070827L370.469183,44.156400L355.750238,128.295704L355.064830,132.182488L337.080260,226.580375L316.903608,334.932485L312.984870,360.387749L311.240557,371.729519L291.163183,481.770193L268.854233,591.014426L255.589026,659.192528L246.494614,706.949064L238.263638,750.213497L204.552969,922.092491L201.577207,937.480363L203.486483,937.480363L208.818181,937.416645L213.615978,937.830812L219.657881,939.232606L225.507239,942.514077L240.805347,955.098363L245.571828,956.468298L249.856518,957.392207L261.588783,957.774515L324.484621,957.647079L427.244320,956.245285L434.357985,956.404580L439.245307,957.583361L443.711783,958.953296L448.799000,961.024128L452.715844,964.018869L456.396276,967.236624L459.503932,970.454378L468.639331,984.504176L470.908066,987.021033L474.827445,990.939685L480.280843,994.157439L487.216271,996.929168L492.855640,998.299103L501.768152,999.000000L609.995088,996.068976L687.376665,605.478377L690.917568,587.732957L707.962331,501.713874L730.756719,386.894358L763.560787,221.514811L764.425367,217.150143L781.165109,133.233831L798.422793,46.800687L797.573955,39.345710L796.140217,34.885467L793.794260,31.285414L791.189420,28.418116L787.490799,25.964982L783.687569,24.690627L779.715004,24.244603L778.181176,24.276462L703.774667,25.232228L693.296369,23.256978L682.595419,20.102949L676.870449,18.223276L670.493360,16.598473L664.695115,15.610848L658.318836,14.782517L651.838342,14.463929L530.710013,15.164824L533.701515,0.000000Z " data-aland="5130915" data-awater="26509" data-classfp="U1" data-funcstat="S" data-geoid="4860686" data-intptlat="+26.1993331" data-intptlon="-097.8445677" data-lsad="57" data-mtfcc="G4210" data-name="Ratamosa" data-namelsad="Ratamosa CDP" data-pcicbsa="N" data-pcinecta="N" data-placefp="60686" data-placens="02409144" data-statefp="48"/></g><g fill="#000" font-family="Arial" font-size="12px" id="mylayer-label" stroke="none"><text text-anchor="middle" y="484.002904425"><tspan dy="0" x="499.981111944"><![CDATA[Ratamosa]]></tspan></text></g></svg>