<?xml version="1.0" encoding="utf-8"?><!DOCTYPE svg  PUBLIC '-//W3C//DTD SVG 1.1//EN'  'http://www.w3.org/Graphics/SVG/1.1/DTD/svg11.dtd'><svg enable_background="new 0 0 1000 1001" height="1001px" pretty_print="False" style="stroke-linejoin: round; stroke:#000; fill: none;" version="1.1" viewBox="0 0 1000 1001" width="1000px" xmlns="http://www.w3.org/2000/svg" xmlns:xlink="http://www.w3.org/1999/xlink"><defs><style type="text/css"><![CDATA[path { fill-rule: evenodd; }]]></style></defs><metadata><views><view h="1001" padding="0" w="1000"><proj flip="auto" id="robinson" lon0="-97.7962659254"/><bbox h="0.51" w="0.65" x="-1402.01" y="-458.12"/></view></views></metadata><g class="" id="mylayer"><path d="M1000.000000,484.315283L998.146748,484.418566L961.819900,484.444387L952.661421,484.573491L911.071315,485.064086L827.600306,485.864530L810.436618,485.993634L777.201266,486.200200L763.064542,486.303483L737.812340,486.510050L719.016736,486.639154L675.165780,487.181390L662.032867,487.233032L638.821773,487.284673L636.797809,487.362136L637.687903,483.540660L640.367173,470.940120L650.468583,423.223362L650.823044,421.622476L653.633468,408.531364L654.354672,405.174670L654.897826,402.721701L655.007274,402.127824L656.345986,395.285333L656.828713,392.806544L658.523588,384.853763L661.012464,373.415190L667.171702,344.805861L673.494028,315.163728L676.037326,303.182943L677.507988,295.746595L676.340031,295.643313L661.646538,295.772416L632.976669,295.978981L629.360063,295.978981L624.943024,296.108084L619.866884,295.927340L608.359561,296.108084L588.962344,296.366291L584.894075,296.314650L567.939788,296.495394L536.517424,296.882704L501.615660,297.347476L499.178448,297.399117L454.487794,298.251198L453.269187,298.277019L426.379012,298.612687L391.891341,298.999997L364.080677,299.309845L342.098415,299.490590L320.193750,299.619693L313.989626,299.852079L319.898759,271.785041L323.919581,253.039268L329.543556,225.566140L332.362465,213.043152L333.026144,210.047964L333.926795,206.381441L334.387732,204.599821L334.810289,202.792380L335.362891,199.900475L338.277838,185.750800L339.810576,178.237015L345.330011,152.932870L347.662363,142.010781L350.572628,129.177975L353.352206,116.835764L354.366989,111.361814L354.231628,110.380635L353.387242,109.812583L353.079353,109.709301L352.117305,109.373635L350.376872,109.167071L348.943489,109.167071L347.510105,109.167071L324.305621,109.192891L306.124804,109.735122L298.351034,109.786763L257.801345,109.967506L241.233687,110.096609L217.395414,110.096609L206.825915,110.225712L193.900885,110.535558L165.667687,110.664660L151.551002,111.077789L150.971925,111.103609L141.698614,111.155250L119.907140,110.974507L109.100790,111.077789L104.676404,111.439276L101.788254,112.033148L102.553853,131.062874L103.163586,146.916683L103.929097,188.436139L103.998617,192.102660L104.629493,207.465905L105.149657,226.314938L106.689489,282.862094L107.194251,301.685345L107.237354,303.182943L107.356062,307.624096L107.382839,309.095873L107.442200,311.316450L107.554145,317.978181L107.575134,320.172937L107.740030,328.487193L108.113300,336.259216L108.849346,351.751626L110.668939,384.156604L111.550833,400.087987L112.276026,417.026385L112.493039,422.319636L114.939537,467.635061L115.029354,469.519977L115.671200,484.547670L115.499665,492.991067L115.741460,500.763125L116.049487,511.323832L117.628455,548.815656L118.093654,559.763689L117.970559,564.902036L118.101391,567.897253L118.466965,576.805445L118.581483,579.774843L115.454075,580.652752L106.071849,583.286478L102.944440,584.164387L101.386047,584.629163L96.683907,585.946026L95.109176,586.384981L94.368369,586.643189L92.141044,587.340353L91.383901,587.572740L85.229538,589.173633L81.182423,589.922438L77.832819,590.309751L71.902997,590.697064L63.407631,590.619601L50.150408,590.335572L32.727613,590.438855L30.322818,601.102871L29.245811,606.267045L25.954444,621.733749L24.839111,626.872104L24.561479,627.827477L23.730318,631.881356L20.602508,646.909116L19.559935,651.918370L19.288032,652.847923L18.356482,657.056730L14.961844,672.394351L14.562618,674.098531L13.918543,677.506893L12.836866,682.593614L9.525768,697.853783L8.427814,702.914686L7.494784,707.330067L7.014792,709.499026L5.313590,716.987100L4.922626,719.052776L4.856657,720.447107L5.205595,721.660692L0.000000,743.092087L34.568444,743.143729L36.376831,743.143729L51.710520,743.014624L56.816303,742.962982L57.985138,742.962982L58.453975,742.937162L61.475303,742.937162L62.673506,742.704773L68.295544,742.911341L70.776162,742.962982L77.038552,743.066266L88.721989,742.988803L95.257135,742.756415L102.217011,742.498205L103.476460,742.188354L104.815784,740.819842L108.833762,736.714309L110.156750,735.319977L110.293405,736.895056L113.729292,777.382346L113.813373,781.487884L115.140064,855.542566L117.237131,889.832929L194.729337,889.755466L197.649913,888.516055L199.748183,888.102918L203.406563,887.715602L205.523730,887.715602L210.798724,887.896349L211.658823,887.896349L256.505654,887.844707L261.941526,887.896349L269.434113,887.922170L275.025938,887.767244L278.788874,887.405749L294.590827,887.354107L299.829003,887.302465L347.806489,886.656938L362.963170,886.631117L383.975532,886.553654L389.869610,886.527833L410.018525,886.166338L417.605036,886.166338L444.378365,886.166338L503.300238,885.494990L518.385045,885.494990L528.662121,885.494990L551.968862,885.314243L565.510687,885.210958L624.706256,884.797821L695.266025,884.255579L766.920977,883.248557L774.077829,883.196915L842.966416,882.732136L855.449652,882.628852L913.237895,882.396462L915.665378,882.189894L918.187319,868.788764L924.375888,839.404416L926.494196,829.824814L928.035857,822.853138L930.342490,811.724279L935.742447,786.109842L956.853715,687.473769L960.005873,672.626739L969.778958,626.458970L971.271775,620.210317L972.541685,614.271515L976.362970,596.403474L977.616626,590.438855L982.158915,569.214116L986.833706,547.292227L995.633045,505.539973L999.400777,487.620343L1000.000000,484.315283Z "/></g><g fill="#000" font-family="Arial" font-size="12px" id="mylayer-label" stroke="none"><text text-anchor="middle" y="574.049260926"><tspan dy="0" x="462.726915879"><![CDATA[N]]></tspan></text></g></svg>