<?xml version="1.0" encoding="utf-8"?><!DOCTYPE svg  PUBLIC '-//W3C//DTD SVG 1.1//EN'  'http://www.w3.org/Graphics/SVG/1.1/DTD/svg11.dtd'><svg enable_background="new 0 0 1000 1001" height="1001px" pretty_print="False" style="stroke-linejoin: round; stroke:#000; fill: none;" version="1.1" viewBox="0 0 1000 1001" width="1000px" xmlns="http://www.w3.org/2000/svg" xmlns:xlink="http://www.w3.org/1999/xlink"><defs><style type="text/css"><![CDATA[path { fill-rule: evenodd; }]]></style></defs><metadata><views><view h="1001" padding="0" w="1000"><proj flip="auto" id="robinson" lon0="-83.6514248851"/><bbox h="1.03" w="0.84" x="-1160.74" y="-614.18"/></view></views></metadata><g class="" id="mylayer"><path d="M410.887914,0.000000L415.699922,2.556699L416.581112,7.072425L420.311623,23.657754L423.232585,27.376585L426.828005,30.680367L426.343594,32.556384L422.582867,46.900438L424.062923,48.693444L424.840340,49.623151L423.128426,51.183731L415.832839,57.758085L407.179347,65.926220L401.893261,70.890187L400.333808,73.031831L401.268448,79.290744L398.355290,84.752765L397.158070,86.578973L395.370155,89.268478L392.795264,93.717782L387.991346,98.233493L384.045908,100.242320L376.566313,102.815611L370.217860,104.841039L363.912726,107.314718L355.409509,111.398778L352.389411,112.826538L346.602659,115.599050L340.566166,118.487775L339.789390,119.434081L335.345395,122.588434L334.041023,123.816972L332.428140,125.178325L331.271782,126.224242L329.224625,128.100252L329.137920,128.349279L328.878979,129.046557L328.783683,129.278983L328.240780,131.354215L327.025702,136.035938L327.630737,150.197314L328.065349,160.540259L328.131791,171.265043L315.123360,191.037812L303.046592,202.327043L298.748382,207.689426L290.421061,218.048949L284.608138,227.096927L283.293121,229.736611L279.349263,237.605857L278.030550,240.212337L274.404515,245.259278L271.862501,248.131385L263.822929,257.146147L249.588796,261.246784L243.810629,262.890359L241.654155,263.305403L240.668221,262.259492L240.322393,261.877651L236.972142,263.786854L236.071624,264.650146L234.588658,266.028092L232.049750,268.385542L227.745381,276.885643L226.385116,279.541923L225.571276,283.410131L221.954111,288.656284L215.563041,294.217868L212.347534,296.127069L202.151753,299.231594L198.542144,300.327309L194.204842,302.385924L192.629028,305.042202L191.152204,307.499259L190.315096,310.255146L185.392497,326.358820L185.100847,327.305118L183.318822,331.671370L182.392004,335.190933L180.318789,342.977136L179.473154,345.716417L178.376094,349.219377L174.263213,353.585624L166.769197,355.428413L156.177142,360.110092L151.123969,363.779066L148.787886,366.684362L145.786415,370.386539L143.298767,379.766490L142.910077,391.769502L140.727771,405.382869L135.461547,427.197442L128.183901,441.690674L120.760663,458.192693L115.997090,472.934928L115.866526,473.333367L112.826602,493.902753L110.984197,504.345154L109.253988,508.628363L134.922762,508.213323L191.081447,507.300236L182.878650,532.833458L172.764766,564.276798L171.302230,568.842221L174.534651,568.709409L175.411883,568.842221L193.921563,571.332452L193.217854,576.296310L191.852727,585.759180L186.191331,618.746380L154.084244,658.921963L146.697379,668.152375L164.211010,692.158067L159.178095,699.246879L156.622151,702.168731L186.285958,721.144155L138.166361,785.159099L112.392761,765.137850L107.871416,770.118262L93.063638,786.404201L102.998696,798.689202L117.098375,819.324665L120.464195,823.740618L124.115881,828.422192L135.085724,842.417101L135.806218,843.313571L138.747266,847.065467L140.421632,845.355532L142.169110,843.396578L142.879569,842.583114L145.085206,839.843898L146.588987,837.934747L166.082015,852.228472L190.898244,870.423489L195.037580,873.444923L202.357220,878.807137L205.895630,881.396936L209.376420,883.953532L212.857220,886.510128L237.034144,904.223676L225.284101,914.964685L240.689145,961.099489L265.726389,940.530586L274.469452,947.702313L294.354260,930.868671L321.440709,907.909154L324.387674,912.009663L338.841491,929.889199L339.606272,930.818868L340.366182,931.765138L349.016255,928.876524L356.498499,927.946854L374.183684,931.051285L379.214318,932.827617L379.410439,932.894022L391.927838,939.235690L399.469161,944.166253L444.597256,988.674069L457.909010,995.663165L466.403303,998.219745L468.049462,998.717780L485.512128,999.000000L494.950182,997.007859L505.643730,993.538214L507.135633,992.724757L508.513723,991.977704L511.043415,990.566604L512.541807,989.271712L513.816309,988.142832L513.188133,986.930945L512.546483,985.719059L512.059727,984.805994L506.799797,974.762276L504.997966,971.442037L500.338560,962.842616L494.970187,955.787103L486.588661,944.763897L480.149289,936.031654L476.685306,931.350107L467.034954,915.329912L463.856242,909.768494L457.905566,899.326305L455.134541,892.835211L451.656902,882.094189L451.285429,880.467264L448.944191,870.124666L447.637678,861.674610L446.778176,856.063372L445.535225,845.239323L443.618241,840.889780L442.179585,837.619322L438.416567,829.551082L434.761209,827.359707L434.442379,827.160491L426.799087,822.395911L425.159519,819.075645L423.125415,814.941914L423.334073,813.680212L421.781404,810.293540L420.653117,807.985954L419.786619,806.209610L417.949237,801.727248L416.218879,799.037830L415.453888,797.145276L412.571783,791.998858L411.135012,788.263553L409.315773,783.581970L408.343233,781.340786L408.142820,780.875948L407.528105,779.481433L407.319091,778.999994L406.942924,778.169926L407.503665,774.882855L408.034025,771.745196L406.953958,762.664245L406.479749,758.679914L406.289955,757.169188L405.703382,752.603807L405.504995,751.076480L405.423004,750.346018L405.136609,748.154635L405.032544,747.407572L404.507325,746.029657L402.932826,741.846106L402.403888,740.434987L404.694900,740.617602L411.554464,741.165449L413.836876,741.331463L418.248320,741.497476L431.483800,741.945714L435.886644,742.095127L444.205536,738.957463L453.234274,738.542428L462.703953,738.094190L485.889129,749.632159L487.115067,750.229809L488.354480,750.827459L489.824403,751.557920L497.948326,750.644843L503.149918,750.047193L504.616667,749.549152L515.543596,745.697629L521.512075,743.589252L539.363597,737.264120L545.323464,735.139141L546.396289,734.973127L549.642859,734.425281L550.707083,734.242665L558.445057,732.532721L581.650352,727.386285L589.379708,725.659739L609.271008,731.802259L614.563504,732.914553L654.230973,741.231854L658.806336,733.678218L676.331460,705.007575L667.980775,701.919710L643.669097,692.888530L636.130704,689.833866L620.671528,683.558521L624.181311,676.652319L625.743263,673.581051L631.060475,663.088930L631.903636,663.337952L633.081367,663.686583L634.396422,664.118221L635.221235,664.383844L646.359742,637.323447L645.223940,635.547088L641.140013,629.172118L655.722934,621.037387L635.181777,585.128322L644.203812,578.769938L669.151760,561.172310L669.286772,561.354927L669.771501,561.952582L669.840293,562.085395L670.382031,563.131292L671.072724,565.505312L671.343559,566.418397L671.377074,566.717224L693.485313,541.399864L689.612365,539.905723L685.801918,538.428184L693.488210,528.268027L692.184924,507.931096L656.095888,508.362737L659.900666,482.563861L660.398050,479.127328L652.317303,457.096986L656.367346,454.822563L660.082853,452.448531L671.234251,445.309830L674.941162,442.919195L674.491548,441.972902L671.474891,435.913305L670.110287,433.174034L668.114648,429.372258L667.042854,427.562679L666.636488,426.882011L664.804546,424.541179L660.257696,419.975725L659.542352,419.062634L658.689879,417.286258L656.277463,412.289160L655.196863,410.280359L663.061197,405.250056L670.126687,400.966827L673.938203,398.908220L679.534703,396.185547L681.434669,395.405268L685.049689,393.877915L690.636005,391.786104L697.315086,389.827107L702.182481,388.714795L706.418260,387.917914L713.197994,387.038025L721.210105,386.274348L724.508338,386.008721L731.512486,385.328053L736.628008,384.746994L741.749318,383.916910L746.381611,382.871004L759.820132,379.550668L763.189866,378.720584L768.059553,377.508662L775.655955,375.499858L781.312402,373.673673L786.292360,371.581860L791.166844,369.390437L793.526962,368.327929L796.631355,366.933387L797.598398,366.485142L803.417606,363.646252L805.910810,362.268312L806.575400,361.886473L808.934780,360.276109L809.174007,359.645244L814.403100,352.440107L820.139457,343.508390L820.674377,342.329669L822.182321,339.673396L822.985500,337.581580L823.671191,336.485867L824.272756,334.759289L824.649528,334.394051L824.786096,333.929203L825.364486,333.198728L825.467155,333.032711L826.329838,331.472149L828.219067,325.362717L828.435275,323.984774L828.161323,322.440814L827.901567,321.444711L828.931102,315.418284L829.960323,297.837048L833.045523,289.170938L840.572749,279.143481L851.509898,268.103312L863.737727,254.871705L864.156093,254.456661L869.521219,248.944872L871.526406,247.118677L879.711606,242.005329L886.322986,238.900796L886.901408,238.170318L888.220851,237.439840L888.104275,234.351908L889.106462,229.703407L890.688732,223.676958L890.601396,223.378125L891.612396,220.854653L892.002909,219.709129L893.236485,215.923919L893.532437,215.558680L896.097102,210.544936L898.878028,206.079051L900.181744,203.522373L901.067055,202.343645L901.174387,201.978405L903.392621,200.069197L904.858471,197.877759L906.054865,195.686320L906.698869,193.494880L906.936362,191.403052L905.653743,189.211612L903.602410,188.398123L901.744132,187.202792L900.361221,184.114854L899.803386,181.657785L898.196111,178.370624L896.891680,176.345201L896.427837,175.631323L893.753114,173.821724L892.081372,172.908623L889.482553,172.078532L885.029202,170.086313L884.220390,169.721072L883.273421,168.542343L882.798579,165.803040L883.162923,164.242468L883.971435,162.316656L884.985100,159.876186L885.349450,158.315613L885.170010,156.771642L884.414878,156.223782L883.942240,155.310681L883.856679,153.401469L883.569898,152.222738L882.544879,151.309637L880.701219,151.027406L877.370022,150.213915L874.792438,148.669944L873.376066,147.208982L872.970587,146.113260L872.684895,145.847631L872.597581,145.548797L872.319620,144.569288L872.112612,142.477456L871.912637,142.195224L872.003754,141.564354L871.817253,141.282123L871.692591,140.468632L871.431299,140.119993L871.599969,139.821160L871.111544,139.007669L870.824353,137.463697L869.786928,135.355262L869.649225,134.907012L869.040601,132.898188L867.374948,129.810243L866.963757,128.000640L866.779806,127.801418L866.586412,126.855112L866.319184,125.609973L866.119851,123.767167L866.025861,122.986879L865.855384,122.787657L865.596438,120.230970L865.728197,119.782720L865.566102,119.417479L865.539167,117.309042L865.831966,116.312930L865.911748,115.399828L866.393165,114.403716L868.249447,111.847028L869.797751,110.933926L872.836455,107.746367L873.480624,105.554920L872.711039,96.623111L872.775281,93.883801L872.003552,92.705067L869.234361,88.421782L868.381458,84.769367L868.393488,83.491022L866.435159,81.399184L866.621309,79.207735L865.710897,76.667646L865.455209,74.741826L864.363615,72.268144L863.033793,69.229998L859.030910,60.115555L857.687654,57.077407L858.277222,54.155472L858.949036,52.511883L859.073397,51.997224L859.308645,50.967906L862.307252,47.962960L866.113950,42.484330L868.132766,38.367055L869.364560,35.826962L870.290203,33.320072L867.337210,33.237063L860.867329,32.606190L848.551015,31.377648L832.789099,29.817067L823.429700,28.887359L817.632283,28.306292L817.462024,28.289690L800.324201,26.231052L794.552373,25.517169L794.041595,25.467363L792.523906,25.268140L792.004537,25.201733L787.615677,24.687073L779.071872,23.641152L774.375689,23.209502L769.930600,22.794454L758.468188,21.731930L750.088795,20.951640L709.504953,17.166400L690.595153,15.223974L670.816905,13.165335L668.473710,12.932908L661.418356,12.185821L659.066572,11.936792L658.842425,11.920190L658.161393,11.853782L657.928656,11.820579L657.534251,11.787375L656.342445,11.671161L655.939450,11.621355L647.938507,10.791259L623.949173,8.300969L615.939655,7.454270L608.108989,6.640775L552.958852,4.698349L477.227308,2.008835L474.211872,1.909223L474.036732,1.909223L461.432391,1.477573L435.394496,0.547864L423.751579,0.099612L410.887914,0.000000Z " data-aland="19745458" data-awater="0" data-classfp="C1" data-funcstat="A" data-geoid="4732640" data-intptlat="+36.5744026" data-intptlon="-083.6465103" data-lsad="25" data-mtfcc="G4110" data-name="Harrogate" data-namelsad="Harrogate city" data-pcicbsa="N" data-pcinecta="N" data-placefp="32640" data-placens="02403807" data-statefp="47"/></g><g fill="#000" font-family="Arial" font-size="12px" id="mylayer-label" stroke="none"><text text-anchor="middle" y="425.611174244"><tspan dy="0" x="470.76213633"><![CDATA[Harrogate]]></tspan></text></g></svg>