<?xml version="1.0" encoding="utf-8"?><!DOCTYPE svg  PUBLIC '-//W3C//DTD SVG 1.1//EN'  'http://www.w3.org/Graphics/SVG/1.1/DTD/svg11.dtd'><svg enable_background="new 0 0 1000 1001" height="1001px" pretty_print="False" style="stroke-linejoin: round; stroke:#000; fill: none;" version="1.1" viewBox="0 0 1000 1001" width="1000px" xmlns="http://www.w3.org/2000/svg" xmlns:xlink="http://www.w3.org/1999/xlink"><defs><style type="text/css"><![CDATA[path { fill-rule: evenodd; }]]></style></defs><metadata><views><view h="1001" padding="0" w="1000"><proj flip="auto" id="robinson" lon0="-89.6154226405"/><bbox h="0.34" w="0.38" x="-1243.2" y="-614.17"/></view></views></metadata><g class="" id="mylayer"><path d="M1000.000000,119.825117L998.119732,119.960975L963.979964,120.776122L938.692468,121.138410L919.386911,121.410126L889.430523,122.361131L860.108798,122.813991L828.437274,123.493280L831.979141,111.900074L834.345161,104.156174L788.429189,104.790178L760.318070,105.016607L746.951673,105.333609L737.782922,105.741183L724.038648,105.741183L706.145578,105.378895L683.154724,105.333609L669.508596,105.605325L671.126815,100.352153L674.339504,91.204386L678.088317,80.471609L679.420358,74.493859L682.870902,63.308219L688.832582,44.152241L655.427578,44.152241L653.475902,52.213149L650.341420,51.080999L631.141909,50.899855L619.417177,51.488573L612.084185,52.484865L527.570959,51.986719L515.811895,92.925253L509.981616,109.681062L505.447171,109.726348L469.010344,110.133922L424.533607,110.632067L375.301923,111.175499L346.978494,111.492501L344.129171,121.002552L323.816798,206.004244L309.840017,247.803119L282.481034,340.367387L250.531530,362.693291L247.687182,372.656166L247.027114,375.101599L242.923612,389.411907L181.044600,404.084499L170.575074,404.537357L130.362824,406.077073L93.430108,384.022899L81.076063,377.275317L84.236763,381.124609L88.157427,382.211468L91.443415,383.796470L90.912182,386.649475L87.112052,392.763055L81.848433,399.555922L44.808250,516.211979L43.134487,520.242405L43.596305,520.876405L18.579337,592.835333L12.531789,612.036444L50.215479,611.176017L0.000000,768.407540L50.115092,768.452825L114.741087,768.633968L136.371391,768.452825L156.062084,768.362254L229.259464,768.633968L257.717355,768.362254L286.052935,768.362254L304.434824,768.226398L277.846038,853.136695L246.410692,954.847759L401.519993,954.802474L415.208235,910.739776L434.166998,850.872422L435.647966,843.717318L448.670799,803.639666L453.625769,789.420019L457.616215,779.547777L461.227118,769.947248L475.769502,737.885091L479.324060,729.280837L482.591675,719.136873L494.192595,684.629270L497.604554,673.443731L532.323603,672.311591L539.228137,648.400795L564.455993,648.581938L587.001165,666.152750L589.884308,655.012493L605.083878,601.258463L609.412209,598.133753L612.314344,593.469332L614.669493,583.189490L622.975897,554.478381L637.883429,507.607696L640.072049,501.358268L646.724653,480.934411L651.609926,467.756265L651.188680,466.759979L660.975292,439.769679L603.280660,442.441538L568.206868,443.301967L572.896255,423.512093L575.645822,412.915224L582.818246,386.875903L589.343949,364.640580L594.366321,361.063002L596.487275,353.862559L612.465419,353.771987L759.531896,350.647267L865.083108,348.065976L933.122164,344.986540L1000.000000,119.825117Z " data-aland="2444128" data-awater="0" data-classfp="C1" data-funcstat="A" data-geoid="2942536" data-intptlat="+36.5907821" data-intptlon="-089.6130615" data-lsad="25" data-mtfcc="G4110" data-name="Lilbourn" data-namelsad="Lilbourn city" data-pcicbsa="N" data-pcinecta="N" data-placefp="42536" data-placens="02395707" data-statefp="29"/></g><g fill="#000" font-family="Arial" font-size="12px" id="mylayer-label" stroke="none"><text text-anchor="middle" y="440.416414151"><tspan dy="0" x="448.955192589"><![CDATA[Lilbourn]]></tspan></text></g></svg>