<?xml version="1.0" encoding="utf-8"?><!DOCTYPE svg  PUBLIC '-//W3C//DTD SVG 1.1//EN'  'http://www.w3.org/Graphics/SVG/1.1/DTD/svg11.dtd'><svg enable_background="new 0 0 1000 1001" height="1001px" pretty_print="False" style="stroke-linejoin: round; stroke:#000; fill: none;" version="1.1" viewBox="0 0 1000 1001" width="1000px" xmlns="http://www.w3.org/2000/svg" xmlns:xlink="http://www.w3.org/1999/xlink"><defs><style type="text/css"><![CDATA[path { fill-rule: evenodd; }]]></style></defs><metadata><views><view h="1001" padding="0" w="1000"><proj flip="auto" id="robinson" lon0="-88.5474705566"/><bbox h="0.9" w="0.99" x="-1236.84" y="-587.73"/></view></views></metadata><g class="" id="mylayer"><path d="M1000.000000,809.772214L998.955270,781.926153L997.680232,747.744689L996.029485,703.948331L995.950421,701.064023L995.306695,694.454134L993.361594,674.624344L992.703878,668.014372L991.588918,657.507048L991.380912,655.584134L989.149682,634.861183L988.231542,625.933253L987.127084,615.391380L987.664905,604.454559L989.251744,571.592245L989.780860,560.638026L989.387387,529.698056L989.149344,510.501996L987.321502,370.492516L985.111950,197.416691L983.034871,127.110795L983.027097,124.036791L983.013985,114.780406L982.997201,111.689211L983.575084,92.901517L984.966216,47.666115L981.863214,48.988500L975.094270,49.194586L958.716739,49.658279L958.032665,49.726975L955.976494,49.898713L955.283384,49.950234L930.898903,48.696545L857.745554,44.935474L833.347014,43.681782L831.037244,43.613086L824.098898,43.389826L821.780093,43.303957L820.231769,43.286783L816.928380,43.235261L815.577763,43.218088L814.020404,43.183740L811.035595,43.200914L768.843816,43.424174L727.608375,43.613086L666.670587,43.905042L657.221889,43.956564L659.466320,65.938998L659.887611,70.095026L664.941390,119.451537L641.390001,120.533452L616.792424,121.666886L566.349394,123.950925L509.428463,164.221745L498.176487,172.172780L470.725036,184.657391L426.074309,204.955460L420.296788,207.582861L413.281523,210.622399L407.602311,213.060895L392.226673,219.723815L385.202359,222.746163L379.406749,225.339197L362.015956,233.083935L356.211301,235.659784L351.907680,237.411360L339.324446,242.751939L335.100470,244.520681L256.312183,279.465910L247.417297,283.415458L219.634942,295.727695L156.530499,349.337465L104.302401,393.690708L0.000000,452.071407L1.030845,456.364042L21.208036,540.515078L22.436962,545.666022L26.123874,561.118776L27.357972,566.252499L31.066640,582.014153L42.165650,629.298400L45.866112,645.042410L50.996802,666.022791L66.391103,728.962671L71.514238,749.925040L73.372088,756.723601L78.931751,777.119150L80.780717,783.900455L82.438277,791.042260L87.384083,812.416026L89.032770,819.540565L91.097750,828.313158L97.260866,854.596378L99.317059,863.351655L103.780787,881.823451L117.109207,937.053232L121.565038,955.507264L136.877606,955.455764L182.783089,955.266933L198.086609,955.198267L199.381026,955.215434L203.232062,955.232600L204.517433,955.232600L224.477747,955.369932L237.517943,955.455764L245.525685,955.507264L284.336636,955.713261L288.639670,955.730428L304.292986,955.816260L379.220181,955.644596L380.420802,955.644596L458.510311,954.236945L462.434186,954.151113L474.629100,954.133946L491.631576,954.099613L542.591549,954.013781L559.584976,953.962281L565.842331,953.962281L581.780356,953.945115L584.582174,953.927949L590.821433,953.893616L598.025160,953.893616L619.646494,953.859283L626.846249,953.824950L628.075120,953.824950L631.733483,953.824950L632.948229,953.824950L633.668602,953.824950L635.829720,953.824950L636.535967,953.824950L644.674151,953.721951L669.060451,953.412954L672.282045,953.361455L677.169279,953.361455L686.331296,953.378621L713.832579,953.378621L722.985548,953.378621L728.150205,953.395788L743.631153,953.395788L748.786761,953.395788L749.083385,953.395788L749.973257,953.395788L760.731394,953.412954L761.960265,953.412954L765.039505,953.412954L773.782850,953.412954L776.800514,953.430121L778.269509,953.430121L786.664807,953.412954L792.578086,953.430121L820.889568,953.412954L828.719868,953.395788L842.840847,953.361455L846.264162,953.344288L898.849590,953.206956L916.384833,953.138290L925.387503,953.121124L937.116289,953.103957L952.358213,953.052458L961.337708,953.018125L961.902706,953.018125L963.611825,953.018125L964.167774,953.000958L964.487527,951.919470L965.404416,948.675000L965.715123,947.576342L965.945723,946.700849L966.619429,944.040034L966.840983,943.147372L970.413048,928.916239L983.326157,892.934555L985.419264,887.097772L994.115266,850.544904L1000.000000,809.772214Z " data-aland="30293159" data-awater="67798" data-classfp="C1" data-funcstat="A" data-geoid="4731680" data-intptlat="+35.0094467" data-intptlon="-088.5291051" data-lsad="43" data-mtfcc="G4110" data-name="Guys" data-namelsad="Guys town" data-pcicbsa="N" data-pcinecta="N" data-placefp="31680" data-placens="02406634" data-statefp="47"/></g><g fill="#000" font-family="Arial" font-size="12px" id="mylayer-label" stroke="none"><text text-anchor="middle" y="544.938702013"><tspan dy="0" x="561.963826062"><![CDATA[Guys]]></tspan></text></g></svg>