<?xml version="1.0" encoding="utf-8"?><!DOCTYPE svg  PUBLIC '-//W3C//DTD SVG 1.1//EN'  'http://www.w3.org/Graphics/SVG/1.1/DTD/svg11.dtd'><svg enable_background="new 0 0 1000 1001" height="1001px" pretty_print="False" style="stroke-linejoin: round; stroke:#000; fill: none;" version="1.1" viewBox="0 0 1000 1001" width="1000px" xmlns="http://www.w3.org/2000/svg" xmlns:xlink="http://www.w3.org/1999/xlink"><defs><style type="text/css"><![CDATA[path { fill-rule: evenodd; }]]></style></defs><metadata><views><view h="1001" padding="0" w="1000"><proj flip="auto" id="robinson" lon0="-87.5671597384"/><bbox h="0.22" w="0.18" x="-1201.11" y="-656.1"/></view></views></metadata><g class="" id="mylayer"><path d="M701.925700,0.000000L698.511401,0.617766L695.108376,1.930519L690.984171,4.787689L689.241545,6.563767L687.599606,8.957614L651.424693,8.108184L542.899976,5.559897L506.725079,4.710468L482.408354,75.367870L427.071822,235.759002L385.553366,235.295661L328.449348,234.523427L316.648865,234.523427L283.963621,234.291757L282.880782,237.612364L278.060413,252.130381L272.359098,268.656247L255.057678,318.079635L249.257677,334.528434L253.636886,343.486482L258.567540,353.757362L266.854578,370.129022L269.246769,374.839742L270.419714,379.627691L273.910116,393.528206L276.212600,400.864601L280.828069,408.046552L282.267449,412.062270L283.444430,415.382962L281.514451,441.176296L271.984407,478.630860L269.973840,496.470116L263.240882,528.364657L261.999776,537.786317L261.036649,544.582277L261.708772,557.556400L260.308850,578.176039L259.617495,588.370041L258.678617,625.670947L254.014245,656.484891L253.873434,657.257172L245.214395,694.558450L230.059633,735.953064L212.257226,781.750007L189.905397,823.994672L156.753101,880.450012L141.777007,900.761690L123.837351,924.934981L102.972287,945.941872L95.449071,963.936795L86.917806,973.204586L188.816780,979.151424L494.504694,996.837506L532.363596,999.000000L601.242604,986.565671L605.996125,986.797367L609.709158,986.951830L635.143047,987.646917L643.626714,987.801380L657.783348,946.559722L700.335115,822.604533L709.912574,794.647345L710.597383,790.476946L710.108572,786.615467L708.465156,783.371826L707.654855,782.445072L704.571509,780.282646L700.702567,779.124204L697.187410,779.124204L656.860113,778.660827L643.354911,778.506368L651.156032,755.337568L674.371708,685.831632L682.047705,662.663142L685.936136,651.387838L697.565440,617.484810L701.417833,606.132352L705.494697,594.857140L717.500990,560.954389L721.541817,549.602024L730.850620,523.885512L736.641818,507.822393L775.471430,508.440205L780.240995,495.157269L789.352197,469.286507L781.694324,469.286507L758.720705,469.286507L751.026698,469.209281L769.771000,415.228511L825.756207,253.288735L844.403864,199.232431L863.556052,145.717108L913.082194,7.258755L895.208777,6.486547L852.367407,4.401585L836.774394,4.478805L789.843175,4.787689L774.214038,4.787689L757.012114,3.706597L705.297986,0.231662L701.925700,0.000000Z "/></g><g fill="#000" font-family="Arial" font-size="12px" id="mylayer-label" stroke="none"><text text-anchor="middle" y="504.970166342"><tspan dy="0" x="516.426499151"><![CDATA[N]]></tspan></text></g></svg>