<?xml version="1.0" encoding="utf-8"?><!DOCTYPE svg  PUBLIC '-//W3C//DTD SVG 1.1//EN'  'http://www.w3.org/Graphics/SVG/1.1/DTD/svg11.dtd'><svg enable_background="new 0 0 1000 1001" height="1001px" pretty_print="False" style="stroke-linejoin: round; stroke:#000; fill: none;" version="1.1" viewBox="0 0 1000 1001" width="1000px" xmlns="http://www.w3.org/2000/svg" xmlns:xlink="http://www.w3.org/1999/xlink"><defs><style type="text/css"><![CDATA[path { fill-rule: evenodd; }]]></style></defs><metadata><views><view h="1001" padding="0" w="1000"><proj flip="auto" id="robinson" lon0="-99.2109253113"/><bbox h="0.91" w="0.34" x="-1420.87" y="-464.02"/></view></views></metadata><g class="" id="mylayer"><path d="M588.432482,0.000000L564.613038,0.110995L533.131716,0.240490L310.946386,436.086426L310.657911,436.104926L312.561158,438.195381L380.939184,436.789411L390.392536,436.604415L404.145143,435.919930L410.733243,435.697935L416.803987,435.253944L418.041093,435.161446L442.935589,435.531438L444.756921,435.438940L480.167506,433.681478L506.432565,432.349507L457.641117,646.760970L456.762191,648.111455L447.920768,686.572560L426.985949,775.945418L405.229040,872.570659L370.932828,893.531163L364.293210,907.313676L359.490968,912.271683L356.197889,916.434190L342.115979,916.693191L336.512006,916.822691L333.206487,931.696723L326.611860,954.636793L318.155991,989.398447L313.882772,999.000000L317.197880,996.872488L321.478555,994.115973L323.437019,992.876466L348.061482,977.169886L358.353636,970.583856L377.221838,958.558807L389.799261,950.548279L402.943909,942.130752L419.906030,931.530222L431.508267,924.259706L433.912529,922.798203L452.897056,911.161682L457.340566,908.109177L458.490762,907.295176L461.609175,905.130673L464.799252,902.929171L470.708794,899.062667L471.866288,898.285666L475.246498,896.287665L481.903681,892.328662L498.905490,881.487658L513.167829,872.330159L513.718042,871.997159L537.185241,856.864171L545.337018,851.554677L555.344161,845.523686L557.046435,844.506188L564.716064,839.714697L566.953975,838.290200L580.451289,829.576719L594.116254,820.752242L603.033331,814.998759L618.792376,805.101293L626.804617,800.124811L643.192908,789.894353L651.760869,784.492377L663.445561,776.796414L664.658972,775.982418L673.147397,770.376947L689.342089,760.165003L688.027658,756.058027L687.438503,754.911034L686.850579,754.171039L686.082283,753.597542L685.470084,753.375544L684.800800,753.264544L683.777447,753.320044L682.295567,753.653042L680.628451,753.967540L678.779136,754.319038L676.095955,754.726035L673.993375,754.874035L672.668173,754.800035L671.864062,754.726035L671.214819,754.596536L670.487836,754.393037L669.656992,754.023040L668.978593,753.745541L668.577136,753.431043L668.230939,752.876047L667.998315,752.376550L667.779042,751.544055L667.946829,729.991700L668.207468,699.929439L668.564622,662.855795L668.920949,603.194007L669.291443,555.501702L669.898824,463.539853L670.064508,432.275509L670.775370,382.382154L672.895290,133.398199L672.913675,82.321624L673.162109,73.978451L673.389492,66.412250L673.730746,58.420570L673.513704,52.852294L673.312257,49.614925L673.923972,0.776967L656.752125,1.091453L647.918869,1.054455L599.853998,0.795466L588.432482,0.000000Z "/></g><g fill="#000" font-family="Arial" font-size="12px" id="mylayer-label" stroke="none"><text text-anchor="middle" y="444.205561006"><tspan dy="0" x="539.601604041"><![CDATA[N]]></tspan></text></g></svg>