<?xml version="1.0" encoding="utf-8"?><!DOCTYPE svg  PUBLIC '-//W3C//DTD SVG 1.1//EN'  'http://www.w3.org/Graphics/SVG/1.1/DTD/svg11.dtd'><svg enable_background="new 0 0 1000 1001" height="1001px" pretty_print="False" style="stroke-linejoin: round; stroke:#000; fill: none;" version="1.1" viewBox="0 0 1000 1001" width="1000px" xmlns="http://www.w3.org/2000/svg" xmlns:xlink="http://www.w3.org/1999/xlink"><defs><style type="text/css"><![CDATA[path { fill-rule: evenodd; }]]></style></defs><metadata><views><view h="1001" padding="0" w="1000"><proj flip="auto" id="robinson" lon0="-97.3585264857"/><bbox h="0.83" w="0.88" x="-1372.72" y="-546.51"/></view></views></metadata><g class="" id="mylayer"><path d="M1000.000000,57.395183L736.535190,53.758426L733.783874,62.282071L727.762868,81.640168L655.417416,81.829582L634.928148,74.953866L567.131558,50.386848L506.791475,37.639233L468.656300,32.108312L460.428994,31.407476L450.263888,41.086585L438.056688,52.678764L415.286232,72.036893L402.182801,81.356048L373.702780,93.383796L373.483025,93.743681L348.242202,134.656777L339.838891,146.968532L324.244565,171.061612L321.769857,173.618655L321.026658,175.455937L278.583000,311.223772L267.305356,311.223772L249.551440,311.223772L223.796715,311.148009L209.649411,320.599363L206.857792,322.512360L197.072847,329.122614L193.588316,341.206670L183.217163,377.079877L181.767860,381.057357L180.364056,384.883312L178.784911,392.800379L163.292710,391.323032L159.582668,402.725107L137.809564,402.403122L129.712898,402.327361L119.528976,434.923538L118.980635,436.325113L90.078920,527.672966L83.747047,527.616147L74.049288,527.559327L68.211930,527.502507L45.189606,527.407808L28.787394,527.313108L14.730384,574.151298L24.938704,574.208117L27.017217,571.215636L57.115014,571.973226L64.997365,553.734211L108.428671,554.340285L111.360100,545.741603L113.424492,540.457385L115.119625,538.317181L117.014254,536.309555L119.998211,534.339807L123.173227,533.487513L134.598225,533.317054L145.823913,533.279174L154.532840,533.601152L146.429547,534.131469L143.730528,534.567086L140.348138,535.419380L136.454365,536.593653L133.285405,537.957323L131.929846,538.487640L126.869380,541.423318L121.763815,545.040829L117.340898,548.828797L113.286546,553.355415L110.569236,556.935039L109.964905,557.938849L107.884402,561.310133L105.406239,566.272356L103.089332,573.620985L99.578939,584.946945L94.885229,600.004000L92.867704,606.727577L83.371351,638.110485L82.664301,640.307472L82.052765,642.239304L78.742693,652.580279L75.033625,664.038663L74.033788,666.254580L73.019770,667.826554L71.432768,669.606862L66.956976,673.943993L75.153715,674.644752L79.433580,674.682630L62.279898,727.447635L53.167618,759.738978L34.290002,822.995408L19.387479,870.664553L15.240504,882.311901L10.170310,892.463068L6.362818,899.148435L0.000000,908.769290L18.403635,913.844853L25.734739,916.742467L36.683542,917.045485L45.107922,918.106050L55.630615,917.329565L81.303931,838.260182L82.521246,834.945874L83.575286,831.271724L89.466703,810.457810L130.213298,809.757068L195.860399,810.552505L196.211364,810.552505L158.923764,935.434885L158.418411,937.120419L184.846603,937.461314L243.545437,938.237796L244.624586,938.256734L253.242907,938.351427L266.175387,938.370366L311.513415,938.162041L334.040890,938.370366L334.503537,938.370366L336.523934,938.389304L337.050394,938.389304L337.363783,938.408243L337.539270,938.408243L337.810477,938.408243L338.081683,938.408243L338.448610,938.408243L350.921964,938.521874L351.895117,938.521874L388.124358,938.843830L396.844079,938.919584L414.086406,939.090032L416.643540,939.127909L416.819027,939.127909L417.058327,939.127909L417.441207,939.127909L423.263099,939.184725L423.502399,939.184725L424.108626,939.184725L425.666376,939.203663L425.921629,939.203663L426.272603,939.203663L426.554086,939.222602L426.777433,939.222602L432.360024,939.279417L432.822671,939.279417L433.030065,939.279417L433.333178,939.279417L436.593337,939.260479L450.613668,939.961206L464.208308,962.838962L465.216998,964.051026L467.681185,967.592524L476.387900,961.058742L483.293363,955.850650L483.600783,955.623388L484.636873,954.827970L491.213294,949.866073L498.239356,944.468586L498.401044,944.354954L500.835264,942.461098L505.750490,938.730199L511.890811,934.052368L519.675035,927.935198L527.166725,922.102102L536.168235,915.170559L539.319796,912.746410L544.004956,909.091247L547.184907,906.572403L551.405561,903.296010L557.310156,898.712845L564.407953,893.182740L570.728142,888.277608L577.436608,883.088391L583.609997,878.353699L588.229228,874.812148L593.014750,871.194839L597.721591,867.520712L602.556061,863.846582L606.122962,860.835309L603.947834,857.767218L600.910941,853.316589L598.634165,850.002289L596.538838,846.934192L593.822689,842.957028L591.292589,839.263944L588.317436,834.926935L587.122567,833.165616L584.204495,828.904358L582.227939,826.025640L579.646533,822.237850L577.116517,818.544754L537.989261,761.386684L536.373573,759.113986L522.680213,739.663442L522.829218,739.379354L527.955836,728.508233L543.567601,722.144640L559.351873,710.099250L580.478852,693.962934L590.591470,686.254608L593.923150,683.603093L599.295320,679.360667L602.151086,677.125816L605.018213,674.853085L607.899118,672.693990L610.833563,670.515955L613.730423,668.356859L616.459902,666.330338L619.297547,664.209119L622.151146,662.087899L625.090189,659.947739L628.003009,657.788638L630.867973,655.629537L633.748890,653.470435L636.732293,651.235574L639.499369,649.190108L643.825343,645.989330L648.576977,642.220365L741.464912,615.742841L790.905868,601.632811L813.826146,595.420598L822.629713,593.034198L831.048244,590.761435L834.341574,589.833390L837.025449,589.075802L837.128791,588.678068L838.401470,588.583369L842.004270,588.431852L844.591054,571.670190L847.699367,551.575072L861.476457,507.880737L862.620893,504.225323L865.508793,495.077307L872.306466,473.428840L898.713931,389.561580L925.359705,300.238211L934.766624,268.683020L938.152619,261.068837L939.180230,259.080056L1000.000000,57.395183Z " data-aland="18791537" data-awater="32438" data-classfp="C1" data-funcstat="A" data-geoid="4817960" data-intptlat="+32.5773713" data-intptlon="-097.3577576" data-lsad="25" data-mtfcc="G4110" data-name="Crowley" data-namelsad="Crowley city" data-pcicbsa="N" data-pcinecta="N" data-placefp="17960" data-placens="02410270" data-statefp="48"/></g><g fill="#000" font-family="Arial" font-size="12px" id="mylayer-label" stroke="none"><text text-anchor="middle" y="464.660672885"><tspan dy="0" x="492.310768173"><![CDATA[Crowley]]></tspan></text></g></svg>