<?xml version="1.0" encoding="utf-8"?><!DOCTYPE svg  PUBLIC '-//W3C//DTD SVG 1.1//EN'  'http://www.w3.org/Graphics/SVG/1.1/DTD/svg11.dtd'><svg enable_background="new 0 0 1000 1001" height="1001px" pretty_print="False" style="stroke-linejoin: round; stroke:#000; fill: none;" version="1.1" viewBox="0 0 1000 1001" width="1000px" xmlns="http://www.w3.org/2000/svg" xmlns:xlink="http://www.w3.org/1999/xlink"><defs><style type="text/css"><![CDATA[path { fill-rule: evenodd; }]]></style></defs><metadata><views><view h="1001" padding="0" w="1000"><proj flip="auto" id="robinson" lon0="-96.4643821932"/><bbox h="0.24" w="0.42" x="-1291.55" y="-730.48"/></view></views></metadata><g class="" id="mylayer"><path d="M1000.000000,219.194849L760.757272,224.314235L733.965057,225.078323L630.098911,228.096469L623.351615,227.523403L614.624457,227.064951L602.660323,226.912133L554.931619,226.912133L549.080405,227.064951L519.198634,227.064951L513.094719,227.217768L462.744251,227.217768L456.640334,227.370586L423.852513,227.370586L417.921594,227.217768L410.845995,227.217768L400.074659,227.217768L391.893498,227.217768L385.386474,227.217768L373.307600,227.790834L367.062267,228.249286L300.033327,231.458454L294.199780,231.573067L288.025147,231.878702L281.177032,232.069724L241.806193,333.273090L212.078380,409.337949L123.304035,403.148845L58.082311,397.532807L0.398114,459.805878L0.000000,477.188849L63.516972,496.596648L185.460602,479.366496L87.875331,732.240815L89.093420,732.202611L98.213844,731.744160L104.300534,731.629547L116.397916,731.018278L122.484606,730.903665L131.605026,730.445214L158.768132,729.566515L189.182335,728.420386L190.401687,725.784290L191.368321,723.148194L193.789362,717.914207L199.546378,702.326855L200.765747,699.690759L203.711219,691.820674L204.912923,689.222782L207.826828,681.352697L209.046211,678.716601L211.960138,670.846515L213.108839,668.363236L216.989469,657.857054L218.191196,655.259161L222.103452,644.752978L223.322860,642.116881L225.238577,636.882892L226.457991,634.246795L229.403601,626.376708L230.605349,623.778815L232.468073,618.659438L235.339697,611.973685L236.957664,607.656598L241.097158,596.386327L242.316599,593.750229L245.230706,585.880141L245.884612,584.466582L415.754577,610.521921L535.507509,628.898192L534.570950,630.923020L533.622043,633.520913L532.402752,636.157010L530.455688,641.391000L529.236403,644.027097L528.269835,646.663193L527.068223,649.261086L525.103507,654.533279L523.954912,657.016559L522.007878,662.250548L520.788606,664.886645L519.839723,667.484537L518.620455,670.120634L517.622315,672.756730L516.420721,675.354623L514.487631,680.626816L513.286042,683.224708L511.321373,688.496901L510.119789,691.094793L509.121665,693.730889L507.920084,696.328781L506.259579,700.875092L505.987024,701.600974L504.785448,704.198866L503.787333,706.834962L502.568091,709.471058L500.652719,714.705046L499.433482,717.341142L497.557212,722.422313L496.337980,725.058409L495.371469,727.694505L494.169911,730.292397L492.205309,735.564589L491.003756,738.162480L489.039164,743.434672L487.837617,746.032564L486.871121,748.668659L485.651906,751.304755L483.705003,756.538742L482.485794,759.174838L481.536977,761.772729L480.317772,764.408825L479.319699,767.044921L478.915417,769.489995L479.273049,771.858660L481.073133,773.157606L484.591406,773.883488L504.809591,777.092647L507.813329,777.360077L521.477927,779.575926L523.298910,779.805151L556.608395,698.086179L551.343076,698.200792L590.213098,589.165712L607.435023,590.655680L616.672934,567.542071L630.290507,567.809501L633.843506,559.786595L714.611623,556.997680L736.860793,511.763765L868.699635,505.918503L869.194409,504.848782L870.678732,501.639619L871.159588,500.531694L876.001329,490.063708L890.516547,458.545135L894.125178,450.675043L895.362149,448.000739L910.690573,414.724761L956.695142,314.858589L965.909957,294.801299L971.694856,281.544385L973.116179,278.335218L976.235196,271.114592L977.257570,268.631308L978.570225,265.383937L979.955507,263.550127L984.034267,258.010494L985.405637,256.138479L986.084314,253.578786L988.155703,245.823299L988.820473,243.225401L992.317484,236.348614L997.833721,223.741170L1000.000000,219.194849Z " data-aland="2116826" data-awater="433" data-classfp="C5" data-funcstat="A" data-geoid="4666260" data-intptlat="+43.5836277" data-intptlon="-096.4643435" data-lsad="25" data-mtfcc="G4110" data-name="Valley Springs" data-namelsad="Valley Springs city" data-pcicbsa="N" data-pcinecta="N" data-placefp="66260" data-placens="01267610" data-statefp="46"/></g><g fill="#000" font-family="Arial" font-size="12px" id="mylayer-label" stroke="none"><text text-anchor="middle" y="420.099395824"><tspan dy="0" x="509.410933148"><![CDATA[Valley Springs]]></tspan></text></g></svg>