<?xml version="1.0" encoding="utf-8"?><!DOCTYPE svg  PUBLIC '-//W3C//DTD SVG 1.1//EN'  'http://www.w3.org/Graphics/SVG/1.1/DTD/svg11.dtd'><svg enable_background="new 0 0 1000 1001" height="1001px" pretty_print="False" style="stroke-linejoin: round; stroke:#000; fill: none;" version="1.1" viewBox="0 0 1000 1001" width="1000px" xmlns="http://www.w3.org/2000/svg" xmlns:xlink="http://www.w3.org/1999/xlink"><defs><style type="text/css"><![CDATA[path { fill-rule: evenodd; }]]></style></defs><metadata><views><view h="1001" padding="0" w="1000"><proj flip="auto" id="robinson" lon0="-87.8437428766"/><bbox h="1.02" w="0.81" x="-1186.78" y="-705.48"/></view></views></metadata><g class="" id="mylayer"><path d="M647.480139,0.000000L644.110705,0.111731L643.574488,0.127693L633.917964,0.590580L630.515968,0.750196L628.742309,0.845966L623.400913,1.085390L621.626887,1.149236L619.700732,1.229044L615.623267,1.388661L613.869656,1.500392L611.917379,1.612123L610.256480,1.723855L608.561920,1.787701L598.566369,2.138857L595.229859,2.234627L592.688018,2.330396L584.753263,2.793284L582.132320,2.920977L580.391586,3.000785L580.060474,3.000785L577.982189,3.096555L575.685186,3.176363L575.142528,3.208286L573.401428,3.256171L568.037089,17.078987L568.857885,17.047064L575.946124,16.679944L579.075851,8.954481L583.665363,10.710266L574.298868,32.386336L567.899590,47.167042L567.564394,50.263660L566.993920,55.355530L570.481696,55.738618L573.074167,56.009971L572.803754,56.680375L571.979270,58.691589L571.702051,59.346031L570.005621,59.250259L567.496662,59.330069L566.913893,59.330069L562.583966,59.425841L554.660482,59.729120L550.377462,59.872778L547.749667,59.984512L539.865547,60.255867L537.237384,60.335677L534.470334,60.431449L530.041620,60.575107L529.299179,60.511259L528.020296,63.320578L518.983122,85.364271L517.311380,89.705994L516.976959,90.567954L516.610348,91.509726L516.301682,92.307839L515.900845,92.579197L513.350219,98.804483L507.134710,113.394065L504.549086,120.593115L501.987466,120.704853L501.166644,120.736777L497.791008,120.896402L496.334794,120.960252L491.933223,121.167763L490.470201,121.215651L486.121609,121.423163L483.129709,121.550862L475.802460,121.886074L473.055408,121.997811L472.247830,122.029736L468.693200,122.173398L466.505188,121.949924L460.461967,122.221285L450.337630,122.923633L448.133622,123.035371L447.114123,123.067296L443.903861,123.210958L441.568509,123.418470L439.252839,123.610019L439.702580,121.838186L440.406559,120.289829L441.043946,118.709548L445.155457,108.286104L440.484949,108.142443L419.932441,108.461690L411.516551,108.573427L408.114437,116.778095L404.764985,124.950867L403.997141,124.982792L403.216052,125.014717L402.699863,125.046642L401.170981,125.126454L400.647986,125.142416L390.475244,125.669178L385.378846,125.924578L360.000965,127.041952L349.840351,127.472939L347.583357,127.584676L340.799126,127.919889L338.535325,128.015664L337.429914,128.063551L334.113681,128.207214L333.008270,128.255101L328.130033,129.053226L325.293929,129.484214L321.650979,130.010976L316.655001,130.936802L314.133278,131.639153L309.604358,133.442918L308.571418,134.033532L307.380640,134.719921L302.968705,137.481443L301.517068,138.519009L300.492037,139.221362L298.173943,140.929358L296.657919,142.126553L294.125510,144.201690L293.785181,144.552868L292.764195,145.606400L291.978681,146.404531L291.167412,147.266513L289.942229,148.990478L289.596566,149.453394L289.055168,150.171713L290.140902,151.289099L291.621970,152.805552L293.398116,154.641259L294.490297,155.742684L295.121664,157.658208L297.022229,163.388824L297.660053,165.288391L298.425174,166.741002L300.726994,171.082878L300.848782,171.306357L298.725683,171.545799L294.856053,171.944869L294.222836,171.019027L288.171229,171.146729L286.833827,171.178654L286.348273,176.159052L285.272954,186.838209L282.803254,186.886097L281.194131,186.902060L280.796772,186.902060L279.068810,186.949949L277.857047,186.965912L276.175259,186.997838L270.911163,187.077652L269.864782,187.077652L260.435583,187.205355L257.436070,187.253244L255.336869,187.269207L252.906536,187.285170L248.808028,187.364985L245.888895,194.372711L230.918534,230.177898L225.924087,242.102442L225.567649,243.347578L224.504781,247.067029L224.154786,248.296205L224.783626,248.838959L226.636851,250.451256L227.258886,250.978046L234.629374,257.762479L256.741332,278.115899L264.105341,284.884448L263.938726,285.363356L261.794780,291.206037L261.422563,292.227709L260.085950,295.739711L256.978249,302.987225L254.631866,309.069406L252.473759,314.257632L250.392536,319.222376L249.400205,321.585023L248.028877,324.953395L247.127411,327.156410L246.224829,329.263643L242.485062,337.948017L236.625926,352.283693L234.900321,356.498207L233.443916,359.946452L232.148793,363.027527L225.762636,378.145608L223.793305,383.030669L220.813600,390.422137L215.510781,403.018021L211.771815,412.293362L209.365809,417.769183L211.074593,417.769183L212.611174,417.769183L218.167845,417.753219L203.924573,451.741919L200.565623,460.075534L198.394751,468.616722L198.091054,473.741451L198.069076,474.683381L197.994434,477.892330L180.267001,477.604961L174.821114,477.477242L174.959224,478.514963L174.885766,479.584614L174.375499,482.362516L174.037867,483.496029L172.448908,488.030086L171.415994,490.297118L170.959149,491.430635L169.880831,493.218718L170.209703,494.703468L170.202882,495.246280L169.891361,497.465424L169.811097,499.636674L169.763025,500.051767L169.360295,502.957415L169.266796,505.128671L169.021532,506.789044L168.895113,508.976269L169.138095,511.035775L169.155894,515.330409L169.023056,516.974825L168.559063,520.295590L168.141994,521.987906L168.075766,522.546689L168.207112,523.568465L168.206377,525.180957L167.469978,532.333407L167.522232,533.387118L167.706211,534.935755L167.672918,535.478577L167.381529,537.154938L167.288467,538.799370L167.438372,539.709395L167.379036,542.519302L167.451344,543.030195L167.681855,543.477226L168.102818,546.015725L168.254230,546.494687L168.728125,547.356820L168.965094,548.346676L169.696001,549.655842L170.360653,550.406218L171.117678,551.683453L171.459845,552.050659L172.539360,553.711067L172.921295,554.637064L173.230536,555.020236L173.631747,555.339545L173.934555,555.738682L174.869503,557.494886L175.639817,559.330918L176.390425,560.624125L176.778802,561.534159L178.082432,563.657575L178.233855,564.136541L178.721019,564.998680L179.826265,566.036441L180.254390,566.946478L181.156022,568.127929L182.333561,569.117795L182.675739,569.485003L182.965345,570.442938L183.899911,571.608426L184.075930,571.927738L184.136874,572.039497L185.071443,573.204986L185.775482,573.923438L186.636965,574.514166L187.301645,575.264550L188.453506,576.877078L189.098510,577.643428L189.657979,578.457676L190.737135,579.527374L191.810286,581.203768L192.250872,581.491150L193.257746,582.608747L194.138918,583.183511L194.461423,583.566687L194.882758,584.460765L195.435803,585.290981L195.777990,585.658192L196.212145,585.961540L197.238707,587.063173L197.745581,587.909355L198.463648,588.691675L199.114336,589.378201L199.739675,590.160521L200.457416,591.469711L201.174724,592.188169L202.649140,594.183887L203.696272,596.451025L205.052621,598.542542L206.286374,600.905479L206.734025,603.444043L206.872227,603.923017L207.339762,604.801138L207.965307,607.259876L208.004730,607.786749L207.852648,611.682420L207.500207,614.332757L206.944474,616.599915L205.971717,619.441849L204.091858,623.417369L202.404289,627.408862L199.728463,631.288600L197.681168,634.002824L195.818496,636.094375L193.795708,638.090132L192.834471,639.127927L191.939855,640.197654L190.374217,641.650567L189.252864,642.592566L188.077754,643.470702L186.962833,644.396736L185.727153,645.195041L184.437333,645.897550L183.228531,646.727789L181.334693,647.877350L180.004364,648.515995L177.430773,649.873117L174.721258,650.942849L172.725189,651.852920L170.756381,652.826856L169.473375,653.545334L166.146592,655.062120L164.774986,655.573038L163.505610,656.323449L161.480362,657.009995L160.142832,657.600745L157.425347,658.558717L154.736272,659.676352L152.733767,660.602392L151.388654,661.113312L145.236778,662.901529L143.197894,663.556145L141.852780,664.067065L138.519554,665.599825L136.591248,666.637632L135.232885,667.148553L133.264453,668.154428L130.738941,669.655258L130.101994,670.118280L128.489029,671.491382L127.253344,672.289697L125.170752,674.269519L124.779844,674.812374L123.210633,677.622449L122.813293,678.181271L121.898619,679.235050L121.527775,679.793872L119.614225,683.162776L119.104564,684.296389L118.456088,686.004794L117.688571,688.830849L117.258402,689.964465L116.967236,691.640940L116.609354,694.930030L116.767177,697.037604L117.255528,699.640142L117.538539,701.140993L117.807537,702.577979L118.209296,703.488071L118.439989,704.493962L118.881110,705.372122L119.300349,706.633479L119.513569,707.288107L120.586949,708.964596L121.521701,710.130155L121.936718,711.040250L122.779509,712.269677L123.720700,713.419271L125.089668,714.888199L126.440995,717.091591L127.064906,717.746223L128.111816,719.422719L128.625739,720.843750L129.237946,721.626116L129.488228,722.057216L129.857085,722.983282L131.542213,724.851383L132.293066,726.144684L132.852673,726.958985L135.005460,729.705258L135.387575,730.631327L136.091757,731.349829L137.263592,732.946502L138.014584,734.798644L138.284553,735.213780L139.383602,736.267585L139.699872,737.225591L140.470427,738.502932L141.095903,739.285304L141.497197,739.604640L141.963958,739.860109L142.299784,740.243311L142.721271,741.137452L143.024171,741.536621L143.405787,741.871924L143.689009,742.287061L143.787918,742.797999L144.044645,743.213136L144.689806,743.979542L145.071423,744.314845L145.729833,745.081253L146.388375,746.406499L146.684848,746.821637L147.849384,747.811581L148.064439,748.067050L149.246473,749.408265L150.068750,750.030972L150.753799,751.356222L151.293759,752.186499L152.228590,753.352081L153.018856,754.613464L153.124204,755.108438L153.176700,756.162253L153.116571,759.403536L152.997480,759.962378L152.692918,760.521221L150.110173,764.401188L149.633002,764.928097L146.615888,767.945855L142.250333,771.746000L138.812237,774.460393L136.961676,775.897426L134.789828,777.605900L131.808450,779.745486L122.528083,785.749111L121.883186,786.100387L121.211018,786.387795L119.158877,787.042447L118.520797,787.409691L116.801556,788.750929L116.337637,789.277845L115.549484,790.379577L114.702449,792.088062L113.749891,795.473101L113.743227,796.015985L113.986807,798.075753L114.105421,798.570736L118.577535,806.282907L119.440153,807.496418L121.857016,810.146986L122.487827,810.817612L124.705815,812.909327L128.470088,816.326332L129.786659,817.827262L130.964322,819.344159L132.255957,820.972829L133.540175,823.080522L135.424597,827.152206L136.539149,828.924588L137.538957,830.521330L137.743124,830.968418L137.690310,831.527279L137.372891,833.203860L137.167452,837.004115L136.327501,839.287465L135.507046,840.995987L132.725026,844.812224L132.287628,845.339152L128.269425,849.362974L125.388853,851.614401L120.614531,855.015498L118.868459,856.324842L112.093225,861.865610L111.596017,862.376574L109.793054,864.452370L108.845593,865.522205L108.084001,866.623975L105.416194,871.110898L104.595966,873.378315L103.584431,877.338317L103.463455,878.823319L103.313064,880.611710L103.306070,882.208489L103.404864,883.246396L104.209216,888.356099L104.420044,889.346105L105.098685,891.214344L105.368940,892.188384L106.205608,894.519693L106.712779,895.365991L111.151444,901.353958L112.224230,902.407842L115.702098,905.122393L116.491587,905.761112L117.794082,906.639350L122.015631,908.954707L126.494786,911.749106L127.185897,912.467667L128.699434,913.808980L129.719642,914.894806L131.564302,917.848893L134.114432,923.230133L134.760548,926.759083L134.793708,927.301999L134.928939,927.525553L134.819265,927.765074L136.225041,928.419768L137.630818,929.074461L138.390308,929.425760L146.437013,932.507611L147.613254,932.811006L149.121498,933.178274L154.977538,934.264109L158.389139,934.807027L163.958720,935.222199L167.280086,935.429786L172.980194,935.685277L185.461955,936.339972L191.124678,936.787081L192.007096,936.898858L199.058051,937.649363L206.609573,938.703264L208.010268,938.942787L212.205531,939.645388L213.599406,939.868943L227.821898,942.551604L240.365891,945.026680L250.585067,946.990775L260.014183,948.811157L268.732728,950.487827L269.390713,950.663478L272.561007,951.509797L276.604938,952.292243L278.555278,952.515799L279.531236,952.691451L282.351545,953.090658L291.475200,954.847172L297.551743,956.076733L306.895410,957.945027L308.775060,958.344236L309.392515,958.456014L314.465431,959.414115L316.364364,959.765419L327.605814,961.889210L344.092462,964.971107L349.983973,966.232610L356.985138,967.765576L361.141942,968.563997L361.845717,968.691744L363.168141,969.027081L368.386050,969.921312L370.611777,970.448270L372.331274,970.751671L373.804677,970.975229L376.280156,971.342502L378.165860,971.693808L379.613162,971.949303L381.571935,972.316577L387.427789,973.370494L389.379742,973.721800L392.440557,974.280696L395.507801,974.823624L400.002280,975.606078L401.469659,975.877542L404.496763,976.388533L405.200544,976.516281L407.331164,976.851619L408.028122,976.963398L410.265132,977.330673L416.956093,978.416530L419.186283,978.767836L422.181661,979.390607L428.338234,980.652118L431.186688,981.179079L434.194528,981.737977L437.228867,982.296874L446.331895,983.973569L449.372666,984.516499L452.380515,985.075397L461.377175,986.720156L464.378207,987.263087L467.392887,987.837955L476.456212,989.514653L479.464074,990.073553L482.485187,990.632453L482.684320,990.664390L485.884893,991.271196L490.214022,992.069625L491.535285,992.309154L494.549580,992.852085L497.557452,993.410986L506.567825,995.087689L509.568879,995.630621L512.576757,996.189523L516.461066,996.908110L521.579931,997.818322L524.593842,998.329318L525.370705,998.473035L527.714145,998.872251L528.484185,999.000000L530.538867,995.902088L532.346206,993.155489L538.591473,991.430882L541.535641,990.600516L542.648356,988.460728L545.979297,981.993473L547.085201,979.837725L548.507943,977.059209L548.831203,976.420470L550.563965,973.003220L552.387885,969.458228L552.776200,968.723681L554.218637,965.929210L555.473148,963.470079L556.656981,961.186602L557.827569,958.903128L559.651523,955.358158L560.279184,954.160535L561.469060,951.829163L564.004631,946.910934L571.604220,932.108408L574.133034,927.174254L575.983166,923.597399L581.539643,912.818963L583.382987,909.226163L584.586183,906.894838L588.201824,899.852973L589.398213,897.505690L590.711467,894.966794L594.670536,887.302222L595.976986,884.747370L597.555726,881.713487L602.278340,872.579929L603.837035,869.530095L604.878442,867.502197L607.983006,861.434483L609.142870,859.342722L611.986337,854.121312L620.522877,838.409253L623.359595,833.171925L624.893451,830.249884L625.216775,829.611187L629.807765,821.595556L631.639531,818.657563L633.502652,815.575868L633.911505,814.889274L639.244992,806.378710L641.154701,803.312999L641.743527,802.179326L642.213120,801.045653L644.983348,794.163793L645.908907,791.864522L647.336606,788.383685L648.506816,785.509604L651.104756,779.154705L651.625790,777.893307L652.082156,776.759647L653.039885,774.380558L653.599490,773.023361L655.284349,768.903874L655.837139,767.530714L657.663821,763.091898L658.306608,761.495203L660.795779,755.443743L662.859945,750.382243L663.117458,749.775503L664.937378,745.320755L665.342347,744.314845L665.942902,743.053467L666.484038,741.808057L666.953683,740.674415L667.970895,738.279398L668.060890,738.055863L668.555467,736.794488L669.051220,735.628915L670.531274,732.084299L671.006964,730.902761L671.624468,729.401890L673.496274,724.851383L674.106965,723.334549L674.698764,721.897549L676.473779,717.554623L677.058765,716.101661L677.683105,714.616766L678.461339,712.716741L679.535677,710.114189L679.850673,709.331827L680.153204,708.613331L680.674305,707.351973L682.231187,703.583870L682.745473,702.306548L683.099046,701.428390L683.851975,699.624175L684.359836,698.362822L685.627063,695.281292L687.184368,691.545142L688.200889,689.086311L688.343882,688.862781L689.920882,685.110675L690.126604,684.599751L690.801629,682.923280L691.792840,680.560258L695.649407,670.916595L696.672005,668.409888L701.513874,656.451179L699.916020,654.694898L703.262997,652.140311L705.706494,646.105110L703.558131,643.742126L708.060008,640.293450L711.790396,637.675015L711.494678,637.323762L709.943812,635.615394L710.760347,633.587707L711.304693,632.597814L712.385617,629.979387L712.932121,628.622277L715.197251,623.161913L717.662109,617.238551L723.035557,604.290231L724.368462,601.144966L728.655017,590.863013L731.846222,583.103682L732.592494,581.283596L736.543286,571.704220L738.079562,571.672288L742.642219,571.592461L744.171677,571.544564L746.025884,571.512633L751.601362,571.384908L753.448751,571.337011L755.117497,571.305080L756.878973,571.273149L759.029958,565.669233L760.283063,562.492091L756.633307,562.476125L757.658762,558.548609L758.133686,556.744508L759.231331,553.854756L760.861154,549.512153L762.676450,545.169558L763.886526,542.263856L765.076931,539.374123L765.372733,538.639716L766.845703,535.015582L768.345176,531.391454L768.654229,530.657050L769.864337,527.751366L775.737102,513.302830L778.895408,505.527799L774.221872,505.192531L771.391181,504.984985L766.406206,502.989345L764.782403,502.350741L774.708733,477.972155L783.909127,455.429779L788.993888,455.270131L791.774515,455.174343L796.766933,455.046624L811.724124,454.647505L816.709726,454.503822L819.987289,454.423998L829.779853,454.152597L833.050600,454.056809L834.930843,453.992950L836.314916,453.976985L846.081752,453.769443L849.332821,453.689619L851.680998,447.926347L855.321909,438.954189L858.751791,430.604687L861.119747,424.825508L863.500974,419.046344L866.834121,410.904453L869.874369,402.634876L870.267094,401.692976L872.628361,395.897906L873.888257,392.705036L874.486812,391.252282L878.734633,380.939350L879.486045,378.975748L880.146384,378.257357L880.494101,377.427217L882.398787,372.765667L883.119576,371.009606L885.127201,366.092642L896.693930,338.043801L893.410059,338.139585L883.551250,338.379044L880.266998,338.442900L876.983126,338.538684L867.118263,338.826035L863.827577,338.905855L860.556950,339.001638L855.545041,339.145314L850.731061,339.225134L847.472919,339.257062L844.221589,339.304954L837.089554,339.384774L834.454735,339.480557L831.184107,339.576341L827.933157,339.656161L818.153815,339.895620L814.896051,339.959476L811.598550,340.023332L805.659034,340.135080L801.660252,340.262792L798.336638,340.358576L795.575789,340.438395L787.293244,340.677855L784.525582,340.741711L784.008987,340.741711L782.445955,340.741711L781.916113,340.741711L778.690514,340.725747L777.716741,340.709783L768.883914,340.901351L767.301202,340.917315L765.593602,341.013098L757.094959,341.460090L756.287330,341.492018L728.611831,342.226361L723.904190,342.338109L719.414161,342.370037L717.652437,342.370037L713.812601,342.497749L697.148328,342.992632L696.929958,343.008596L691.334451,343.088416L689.838026,343.120344L688.215575,343.136308L685.296148,343.248056L683.780043,343.295948L676.643453,343.551372L675.127349,343.599264L655.277956,344.142040L648.153851,344.333608L645.591686,344.413428L637.904811,344.620960L635.335834,344.684816L637.333782,339.464593L637.571463,338.841999L643.751246,323.772070L645.888171,318.535931L647.303717,315.023894L651.563280,304.455886L652.985298,300.927907L649.606070,301.358927L639.447948,302.604095L636.061906,303.019152L632.850350,303.067043L623.208493,303.162825L619.990125,303.194753L616.674108,303.370354L606.673071,303.897156L603.350241,304.056793L603.208677,304.407995L602.036843,306.690808L600.855908,309.324826L598.905462,314.097994L598.454664,315.183532L598.098124,315.838047L597.449044,316.396780L596.732228,316.827803L596.104365,316.939550L595.059068,317.035333L594.251443,317.067260L589.901852,317.210935L584.931961,317.546175L581.801748,317.753704L582.556486,316.045577L584.157217,311.942884L587.737245,302.699878L591.091319,294.510510L593.466571,288.683785L590.222103,288.747639L587.248986,288.795530L580.538627,289.242511L580.326694,289.242511L577.126895,289.162693L574.192012,289.082875L564.467292,289.450038L561.289427,289.545820L557.350116,289.657565L554.582120,289.689492L552.642548,289.769310L544.830154,289.992801L528.408362,290.248219L529.041276,288.875348L529.974403,286.560625L533.460906,277.780664L534.447036,275.465953L536.019554,271.762420L536.624871,270.293779L538.440459,265.855935L539.038973,264.371335L541.582190,258.161564L548.245502,241.831066L549.171902,239.500428L551.190929,234.328334L551.988075,233.402467L552.091798,233.210908L552.389349,232.604306L552.486263,232.396784L553.304760,230.465235L555.766330,224.622710L556.578029,222.675204L558.148453,218.780199L562.093126,208.930972L562.945702,207.079258L564.036798,204.668840L564.602080,203.168316L565.443384,200.917532L566.093834,199.337195L570.814015,187.827909L571.522037,186.071989L572.491247,183.996814L572.557585,183.438113L573.304605,181.618345L573.549197,181.011757L574.142113,179.607025L574.367396,179.048325L575.913688,175.344947L576.319573,174.371215L576.236012,174.020034L589.124402,174.083885L627.776331,174.275439L640.657914,174.323327L641.502942,172.391827L643.857449,167.012369L644.650623,165.176652L645.911803,162.016029L649.695388,152.534186L650.943353,149.373581L651.593457,147.761355L653.549846,142.876794L654.193149,141.248610L654.953803,139.460801L657.215725,134.081420L657.956335,132.277654L659.425802,128.797826L659.767330,127.983739L663.734363,118.310487L665.157323,114.814718L661.961066,115.022229L656.034857,115.102041L652.075344,115.165891L644.321324,115.245703L627.182897,115.868237L617.051211,115.932087L612.872969,115.979974L609.237401,115.995936L599.739109,116.426921L595.999431,116.602508L584.786462,117.081381L581.046412,117.225042L581.834307,114.351808L584.952288,102.811022L589.376099,102.811022L592.464196,95.548177L606.950714,58.579854L607.768367,56.552679L610.221344,50.471165L611.025765,48.443997L614.479317,48.156682L624.839601,47.262813L628.286344,46.959537L629.734586,43.336180L634.085443,32.418259L634.600149,31.109389L635.579897,28.778964L638.016958,23.032720L644.372786,7.932934L645.208719,5.762149L646.796159,1.564238L647.480139,0.000000Z "/></g><g fill="#000" font-family="Arial" font-size="12px" id="mylayer-label" stroke="none"><text text-anchor="middle" y="546.609683167"><tspan dy="0" x="447.934450949"><![CDATA[N]]></tspan></text></g></svg>