<?xml version="1.0" encoding="utf-8"?><!DOCTYPE svg  PUBLIC '-//W3C//DTD SVG 1.1//EN'  'http://www.w3.org/Graphics/SVG/1.1/DTD/svg11.dtd'><svg enable_background="new 0 0 1000 1001" height="1001px" pretty_print="False" style="stroke-linejoin: round; stroke:#000; fill: none;" version="1.1" viewBox="0 0 1000 1001" width="1000px" xmlns="http://www.w3.org/2000/svg" xmlns:xlink="http://www.w3.org/1999/xlink"><defs><style type="text/css"><![CDATA[path { fill-rule: evenodd; }]]></style></defs><metadata><views><view h="1001" padding="0" w="1000"><proj flip="auto" id="robinson" lon0="-83.0722651328"/><bbox h="0.09" w="0.16" x="-1134.33" y="-671.26"/></view></views></metadata><g class="" id="mylayer"><path d="M1000.000000,437.700812L947.654816,444.976820L978.137305,246.312997L828.803708,237.033727L590.161589,225.750995L460.005381,240.513452L455.418637,241.040683L304.683267,258.122996L140.085675,258.544782L139.430308,250.425405L137.710814,237.877296L34.565248,244.942195L33.029698,255.908620L24.360983,308.104829L21.189897,327.823502L13.085327,418.719958L9.653044,455.732673L8.823790,476.928080L6.093887,494.116445L3.699707,505.821430L2.542641,521.955362L0.000000,576.684480L42.636691,577.528093L53.360644,577.738996L45.606793,647.337375L45.329977,650.395502L32.933848,762.281733L31.658397,773.249005L43.913792,769.769003L73.079414,761.332644L97.244693,754.372655L98.165652,743.932685L99.154650,732.543646L324.974730,670.536995L325.151093,665.264347L398.778535,643.857438L429.385026,634.999427L510.886025,613.803520L586.572927,594.189457L681.501932,569.619232L694.030020,566.350239L706.053541,563.292150L717.004234,560.339514L741.560508,554.750599L764.107519,549.478042L774.394568,546.947216L783.117901,544.943647L794.786917,542.412822L860.014114,527.333348L928.655152,511.621205L928.032900,514.679271L987.865273,506.981385L1000.000000,437.700812Z " data-aland="369485" data-awater="6574" data-classfp="C1" data-funcstat="A" data-geoid="3979282" data-intptlat="+39.9639056" data-intptlon="-083.0722907" data-lsad="47" data-mtfcc="G4110" data-name="Valleyview" data-namelsad="Valleyview village" data-pcicbsa="N" data-pcinecta="N" data-placefp="79282" data-placens="02400040" data-statefp="39"/></g><g fill="#000" font-family="Arial" font-size="12px" id="mylayer-label" stroke="none"><text text-anchor="middle" y="433.158936719"><tspan dy="0" x="447.441627195"><![CDATA[Valleyview]]></tspan></text></g></svg>