<?xml version="1.0" encoding="utf-8"?><!DOCTYPE svg  PUBLIC '-//W3C//DTD SVG 1.1//EN'  'http://www.w3.org/Graphics/SVG/1.1/DTD/svg11.dtd'><svg enable_background="new 0 0 1000 1001" height="1001px" pretty_print="False" style="stroke-linejoin: round; stroke:#000; fill: none;" version="1.1" viewBox="0 0 1000 1001" width="1000px" xmlns="http://www.w3.org/2000/svg" xmlns:xlink="http://www.w3.org/1999/xlink"><defs><style type="text/css"><![CDATA[path { fill-rule: evenodd; }]]></style></defs><metadata><views><view h="1001" padding="0" w="1000"><proj flip="auto" id="robinson" lon0="-80.8781460585"/><bbox h="0.48" w="0.7" x="-1097.35" y="-692.61"/></view></views></metadata><g class="" id="mylayer"><path d="M1000.000000,221.996470L984.108553,206.662477L967.386392,205.892279L963.396927,205.705565L954.608644,206.078994L948.230696,206.195691L916.023490,206.802513L913.700819,212.403960L893.195432,212.754051L889.367977,219.102375L844.978413,224.633834L850.041239,220.222670L887.638414,186.030604L892.958843,180.849326L897.039078,176.484926L851.109078,175.878112L841.717965,203.558348L641.294451,201.434473L640.226693,157.020271L612.729081,176.601621L591.265553,191.865390L585.197923,196.276499L578.021937,201.621187L571.274253,206.849192L564.741595,212.123887L558.387861,217.491953L546.927469,227.714653L541.047498,233.269473L535.737703,238.474212L530.119006,244.215777L524.621289,250.050715L513.903142,262.024057L509.137766,267.648982L507.147198,270.123020L504.731825,273.133881L498.013937,281.933089L493.124659,288.655053L486.296350,298.621335L485.467813,299.905052L483.435502,303.032655L481.341139,306.440347L477.959105,311.925342L474.727334,317.153605L468.774857,328.660495L464.432252,337.086470L460.818482,344.882276L455.480630,357.743081L448.868184,375.762338L445.871396,384.421903L432.574677,421.791464L422.199882,451.248737L417.273289,450.175010L409.336149,448.447711L405.393250,447.700772L402.499609,447.420670L395.697855,447.210593L393.503205,447.350644L388.866080,447.514037L365.031477,449.007916L363.798650,449.428070L362.954726,449.894907L359.917048,452.649251L361.947354,455.170178L362.472708,456.127198L362.974664,457.364321L363.307836,458.694813L363.482383,460.305409L363.425884,461.752613L363.183054,463.503264L362.465350,466.467703L361.488125,469.455487L350.678277,499.963800L348.448890,506.919847L347.110746,512.148568L346.707820,514.506165L346.436305,517.680755L346.251456,522.979529L346.053677,525.733963L346.200590,527.367951L346.816481,531.406240L347.746310,535.001024L349.322050,538.572471L351.476352,543.544495L353.398073,546.905870L356.596116,551.177624L369.132908,564.459798L375.383712,571.042556L372.124605,575.757878L367.570187,581.873805L366.884131,582.223954L361.609846,588.246525L356.274793,593.685528L341.075609,607.598232L329.742682,614.998145L321.614521,619.876965L313.371951,624.428985L304.689095,628.700888L290.737167,636.077528L282.766558,640.302766L249.951978,657.647337L234.429907,666.167936L220.281156,673.124504L83.752697,755.344393L82.870145,755.811295L80.254543,757.445452L64.260945,767.063660L21.866728,792.790238L9.803634,799.910624L0.000000,805.420183L7.365800,806.750884L7.967259,806.797575L10.414283,807.031032L16.542992,807.287834L17.669375,807.217797L18.799050,807.031032L20.797051,806.470737L22.478294,805.770368L24.099773,804.859889L37.147933,795.965227L40.245463,793.957513L44.332332,791.669655L48.804850,789.545218L77.802862,778.199357L122.830793,760.737116L146.547295,751.562491L170.385512,742.317870L196.521330,732.162837L199.830911,730.855526L199.711457,733.446804L199.598400,734.030426L197.682637,740.170135L191.934197,756.441613L178.547811,793.117075L166.591966,826.081155L160.997763,841.979729L209.488572,838.757982L212.664504,830.937095L227.645475,827.902131L248.523369,771.172422L263.033069,765.522877L267.838765,750.745414L271.774272,738.606025L264.586765,706.016762L270.547546,703.728995L290.454047,696.608919L291.963932,695.955274L296.159957,726.653460L349.905740,707.347403L339.508631,677.186403L353.359932,671.863916L357.805509,702.888592L372.093258,695.651796L374.283346,698.966713L402.220306,687.131084L406.335635,691.916685L426.668747,685.006747L419.688843,707.557504L440.206931,709.168282L449.316852,709.891964L445.641894,721.844439L444.113555,727.820700L444.317518,731.555871L443.944066,736.038086L444.591318,739.399752L440.794162,749.111262L439.354555,753.173300L455.479067,752.332878L457.393374,744.582331L459.731319,735.921361L462.861455,726.023151L467.838503,711.736190L470.902358,703.098693L456.282689,704.429332L458.361985,696.865709L473.295432,696.328786L476.943788,686.010554L479.374823,679.404110L462.656190,678.026797L468.661513,660.448626L479.134901,661.732551L485.347583,662.292810L486.505873,659.444830L489.062046,652.651713L577.538636,662.829725L580.331249,655.593060L582.355314,651.087665L587.136205,641.166490L659.996745,650.877569L657.133879,658.417691L661.012255,658.861228L711.950294,664.580534L789.587881,672.074014L805.056322,629.704670L808.752767,620.273808L812.940727,608.345225L819.427778,588.456615L820.199530,586.845926L820.530165,586.355716L824.853660,573.190127L849.868712,553.675320L850.346623,509.324123L824.554331,482.713830L820.680238,478.979078L831.711371,453.116089L803.918685,448.797839L803.520357,448.401028L802.836590,448.260977L786.799987,448.214293L794.110434,427.976992L801.086618,409.046996L816.858543,365.212185L842.144352,316.033262L848.000597,299.578288L851.091394,299.578288L870.393869,299.835031L876.453711,299.905052L886.335105,300.091774L894.807092,300.115115L911.439448,300.115115L912.897416,299.928392L913.455851,299.718329L914.161441,299.905052L921.245878,299.811691L937.339354,300.558581L944.770304,290.148825L949.364572,282.633292L922.076384,284.010360L924.959631,275.934686L952.688458,275.911346L957.488817,265.081587L960.855349,255.768970L931.550912,257.542799L933.654072,251.637821L935.586152,246.316353L961.552616,246.036276L962.589774,229.231724L962.630362,223.583556L964.958572,223.770272L971.200762,224.353760L1000.000000,221.996470Z "/></g><g fill="#000" font-family="Arial" font-size="12px" id="mylayer-label" stroke="none"><text text-anchor="middle" y="466.122459482"><tspan dy="0" x="588.44604538"><![CDATA[N]]></tspan></text></g></svg>