<?xml version="1.0" encoding="utf-8"?><!DOCTYPE svg  PUBLIC '-//W3C//DTD SVG 1.1//EN'  'http://www.w3.org/Graphics/SVG/1.1/DTD/svg11.dtd'><svg enable_background="new 0 0 1000 1001" height="1001px" pretty_print="False" style="stroke-linejoin: round; stroke:#000; fill: none;" version="1.1" viewBox="0 0 1000 1001" width="1000px" xmlns="http://www.w3.org/2000/svg" xmlns:xlink="http://www.w3.org/1999/xlink"><defs><style type="text/css"><![CDATA[path { fill-rule: evenodd; }]]></style></defs><metadata><views><view h="1001" padding="0" w="1000"><proj flip="auto" id="robinson" lon0="-81.3936571025"/><bbox h="0.13" w="0.16" x="-1113.66" y="-664.59"/></view></views></metadata><g class="" id="mylayer"><path d="M1000.000000,219.346954L993.518291,215.085121L960.568494,193.360202L852.112557,106.149314L779.752841,167.373539L803.174402,187.643129L509.974427,475.581101L458.096258,544.916535L348.150124,649.388663L322.235991,672.154422L160.250980,653.858647L146.173401,653.338881L79.527130,706.251212L41.079479,786.815882L20.867980,838.065852L3.269843,884.222308L0.000000,892.850686L6.361245,892.850686L51.553899,882.351095L119.605302,859.376794L201.923973,845.862531L262.800136,822.784385L305.438916,795.340194L311.695420,791.285947L414.878122,699.598168L435.959378,681.198373L439.694872,685.044654L443.937460,689.410705L449.259199,695.647926L509.680517,656.977242L495.373835,639.409174L490.593529,633.587811L675.578317,472.358630L724.492108,440.549796L813.378308,372.670606L983.439036,230.469312L1000.000000,219.346954Z "/></g><g fill="#000" font-family="Arial" font-size="12px" id="mylayer-label" stroke="none"><text text-anchor="middle" y="520.351897059"><tspan dy="0" x="504.61957018"><![CDATA[N]]></tspan></text></g></svg>