<?xml version="1.0" encoding="utf-8"?><!DOCTYPE svg  PUBLIC '-//W3C//DTD SVG 1.1//EN'  'http://www.w3.org/Graphics/SVG/1.1/DTD/svg11.dtd'><svg enable_background="new 0 0 1000 1001" height="1001px" pretty_print="False" style="stroke-linejoin: round; stroke:#000; fill: none;" version="1.1" viewBox="0 0 1000 1001" width="1000px" xmlns="http://www.w3.org/2000/svg" xmlns:xlink="http://www.w3.org/1999/xlink"><defs><style type="text/css"><![CDATA[path { fill-rule: evenodd; }]]></style></defs><metadata><views><view h="1001" padding="0" w="1000"><proj flip="auto" id="robinson" lon0="-84.9635619232"/><bbox h="0.15" w="0.19" x="-1156.77" y="-680.8"/></view></views></metadata><g class="" id="mylayer"><path d="M1000.000000,632.741875L960.740625,633.800512L867.883859,636.182444L942.664332,412.196384L893.369943,413.078551L784.140621,414.931102L715.760369,415.548619L710.020216,415.548619L828.448660,177.103155L869.004820,95.329760L848.315064,96.476521L833.162809,97.182220L786.220708,99.387531L765.482077,100.269655L764.037258,100.446080L759.613428,100.622505L758.087593,100.622505L730.358276,101.945692L718.644770,102.386754L647.273837,105.033129L619.527793,106.003467L611.075573,106.268105L585.678403,106.973805L577.185675,107.150230L561.039972,107.591293L546.266430,107.855931L480.729420,108.649844L453.427669,109.796607L448.963327,109.884820L422.596517,110.061245L401.325497,171.810347L337.516314,357.061184L316.175219,418.812639L230.134587,417.048304L158.311580,415.548619L84.004056,643.592907L49.684421,748.751818L31.045290,806.889903L0.000000,903.670240L63.902266,903.582017L111.818835,903.493793L225.852504,900.229529L313.938723,897.582829L333.782503,896.965266L393.305450,894.936130L413.140841,894.142121L425.317351,895.024353L461.797982,897.406382L473.933974,898.200392L492.081363,897.053489L546.491379,893.701004L564.598235,892.465879L662.013045,887.348933L920.076653,873.674356L933.519715,833.180134L971.930610,717.168677L1000.000000,632.741875Z " data-aland="787482" data-awater="0" data-classfp="C1" data-funcstat="A" data-geoid="1808704" data-intptlat="+40.5357943" data-intptlon="-084.9632606" data-lsad="43" data-mtfcc="G4110" data-name="Bryant" data-namelsad="Bryant town" data-pcicbsa="N" data-pcinecta="N" data-placefp="08704" data-placens="02396615" data-statefp="18"/></g><g fill="#000" font-family="Arial" font-size="12px" id="mylayer-label" stroke="none"><text text-anchor="middle" y="559.065024995"><tspan dy="0" x="521.15029046"><![CDATA[Bryant]]></tspan></text></g></svg>