<?xml version="1.0" encoding="utf-8"?><!DOCTYPE svg  PUBLIC '-//W3C//DTD SVG 1.1//EN'  'http://www.w3.org/Graphics/SVG/1.1/DTD/svg11.dtd'><svg enable_background="new 0 0 1000 1001" height="1001px" pretty_print="False" style="stroke-linejoin: round; stroke:#000; fill: none;" version="1.1" viewBox="0 0 1000 1001" width="1000px" xmlns="http://www.w3.org/2000/svg" xmlns:xlink="http://www.w3.org/1999/xlink"><defs><style type="text/css"><![CDATA[path { fill-rule: evenodd; }]]></style></defs><metadata><views><view h="1001" padding="0" w="1000"><proj flip="auto" id="robinson" lon0="-95.16244138"/><bbox h="1.32" w="2.24" x="-1321.37" y="-615.32"/></view></views></metadata><g class="" id="mylayer"><path d="M835.850659,450.126950L835.782834,450.347889L835.587018,450.987848L835.521746,451.201168L834.977572,453.121046L834.598990,454.454295L837.495341,455.901822L838.010722,456.153234L838.844302,456.358935L838.804550,456.496070L838.675486,456.899853L838.632105,457.029369L837.885905,459.238752L835.622628,465.866898L834.870279,468.076280L834.334432,469.676177L832.997386,473.668299L831.259776,478.856534L827.379023,490.444346L825.506342,496.036358L825.605246,496.036358L825.884885,496.013502L825.980159,496.005884L839.267829,496.013502L842.556386,496.013502L843.359981,496.013502L851.068309,496.013502L869.721238,482.749613L868.499805,481.431604L862.828867,481.439222L861.821676,479.130802L859.612790,474.079701L862.255581,464.693640L861.027531,463.543238L860.630269,463.345155L854.924008,460.450103L853.016599,459.482546L851.911011,458.446421L849.645310,457.219833L844.870130,454.553336L840.226433,452.084922L839.005985,451.871602L838.649451,451.681138L837.584952,451.094508L837.230971,450.896426L836.954398,450.744054L836.124679,450.286940L835.850659,450.126950Z M702.007878,530.822586L700.202845,530.822586L698.396733,530.807349L697.806878,532.734835L695.773516,532.696743L695.290270,532.681506L695.768261,531.051141L693.097407,531.089234L693.316826,530.434041L690.982331,530.464515L688.610747,530.494989L688.166805,531.820612L692.167952,532.978628L691.564363,534.799455L694.571481,534.883259L693.766744,537.267857L695.904413,537.382135L696.198581,537.389753L696.921179,535.416556L700.506821,535.507978L700.805715,534.578518L701.712609,531.759664L702.007878,530.822586Z M681.319128,529.397921L680.701680,531.241605L682.376900,531.241605L684.466288,531.241605L685.021916,529.397921L684.428481,529.397921L681.319128,529.397921Z M1000.000000,288.696439L994.954346,288.665964L983.399676,288.582159L979.808650,288.582159L974.746602,288.582159L973.250856,288.582159L968.763618,288.582159L967.267873,288.582159L963.713931,288.582159L953.033565,288.582159L949.473443,288.582159L949.838887,287.584118L950.939266,284.559521L951.301090,283.553862L951.903384,281.793957L953.709221,276.499005L954.307909,274.731482L958.047206,263.669218L969.274006,230.459538L973.010507,219.389634L960.718190,219.092506L959.924271,220.151500L957.359744,223.541801L955.206464,230.055750L944.278092,263.074964L935.866755,262.907354L931.299234,262.907354L935.575404,249.894711L931.740325,254.770644L922.779633,265.680539L911.048666,279.950247L903.889465,288.658346L901.298650,288.643108L901.051419,288.643108L900.297366,288.643108L900.046508,288.635490L898.933970,288.635490L895.595283,288.620252L894.479118,288.612634L895.599915,285.306147L898.945360,275.363829L900.062605,272.049721L898.304398,275.653337L897.496740,277.306581L891.856371,284.544284L891.113606,285.450901L888.524893,288.582159L879.711935,288.505973L878.841520,288.521210L872.084051,288.582159L856.266648,288.658346L840.387436,288.734532L838.067757,288.795481L831.108717,288.978328L828.789037,289.039277L826.588683,289.039277L823.658998,289.039277L819.987621,289.039277L817.787268,289.039277L816.286413,289.054514L811.783848,289.100226L810.282993,289.115463L810.545680,288.368838L811.329049,286.106104L811.588114,285.351859L812.272305,283.919556L812.797213,282.814854L812.256673,280.095002L812.010230,278.876020L812.246754,276.087599L809.539597,276.087599L800.321995,276.057125L797.785928,283.454819L795.633111,289.709717L795.325145,289.724954L795.244795,289.724954L794.396546,289.747810L794.087508,289.747810L795.971699,284.330962L798.546328,276.910412L791.410967,276.826607L787.030727,276.765658L789.805841,268.194690L790.110267,267.249979L793.876550,256.202949L798.448634,242.458912L801.300972,233.880313L802.399705,230.604292L805.696012,220.776229L806.797373,217.492589L794.685283,217.561157L788.853014,217.591631L778.257704,217.652580L779.808968,213.248997L796.141897,213.218522L798.295267,213.210904L804.336173,213.203285L808.238625,213.195666L808.693495,211.839545L810.063233,207.755944L810.520671,206.392204L783.035433,206.338873L768.064178,206.308399L759.616723,231.952794L758.903360,234.116491L745.234304,234.238389L735.772810,262.061685L744.563627,262.000736L749.597665,261.955024L740.358882,289.671624L737.443701,289.702098L735.105886,289.724954L729.285247,289.572581L728.768617,289.564963L725.872802,289.519251L720.827482,305.137440L715.347941,322.088875L705.701686,351.969078L700.654405,367.579598L700.469060,368.150993L699.920689,369.842323L699.737900,370.406099L698.984027,372.821195L693.907199,373.141176L693.493879,373.064990L676.270236,369.773755L672.893562,369.133793L666.029371,367.815775L662.710482,367.206287L662.233876,367.152957L650.558711,365.804464L648.252409,365.530194L647.555109,364.844520L647.275674,364.387404L646.604393,366.353003L644.590587,372.249800L643.919332,374.215399L642.255584,379.289385L637.260977,394.503715L635.593778,399.570077L638.695240,399.592932L647.992372,399.646263L650.880047,399.661500L651.090207,399.661500L654.436362,399.691974L664.450105,399.783397L667.790080,399.813872L668.173312,399.813872L669.323008,399.813872L669.706239,399.813872L672.387788,399.798634L680.416444,399.745304L681.166918,399.737686L683.073938,399.783397L680.578801,403.668876L677.016602,409.207588L674.131428,412.689280L672.397052,414.784390L669.454389,418.327030L669.810346,417.984194L670.139430,418.311792L671.832827,419.972643L672.396936,420.521180L671.165004,421.983947L669.638932,423.789550L668.791445,424.787584L669.703860,425.366596L669.981608,425.054234L670.495985,424.459985L671.153756,424.802821L671.674717,424.170479L673.237603,422.273453L673.758566,421.641111L674.578392,422.090607L677.019331,423.439096L677.832979,423.888592L679.113586,424.604738L682.955421,426.753176L684.236037,427.469323L684.788330,427.850251L685.710294,428.345459L690.248909,430.775784L691.758517,431.583353L692.218226,431.834766L693.581365,432.581386L694.037447,432.825180L691.388200,439.864740L690.461009,442.096981L690.010517,443.201673L687.236259,449.913631L681.760959,466.164022L680.873424,468.868610L681.815151,468.899084L682.341647,468.914321L684.683721,468.860991L685.643314,468.838135L687.937132,468.670527L694.826240,468.144847L695.905153,468.061043L695.452209,469.523805L695.171226,470.620878L692.798654,477.850885L684.586338,502.847334L682.920310,507.913662L671.242413,507.768910L655.012749,507.593683L624.440956,507.273705L599.095420,506.207109L543.802239,504.729113L488.810131,504.492938L434.065379,503.075890L436.317074,496.356337L417.685896,496.135399L415.587306,502.397840L415.192410,503.852981L386.208305,503.517765L377.552825,503.411106L297.274607,502.595922L287.040296,502.496881L266.490244,502.283562L264.288781,508.759319L264.145782,509.185958L263.716787,510.465872L263.573790,510.892510L261.894399,515.829320L259.242883,523.722118L256.502512,531.843468L253.684047,540.345740L233.976934,540.345740L239.599518,523.790685L244.033099,510.968695L241.752106,510.968695L241.541934,510.968695L240.256171,510.968695L239.811099,510.968695L239.131129,510.968695L238.951864,510.968695L236.664690,510.968695L236.547241,510.968695L233.332834,510.968695L221.563162,510.968695L216.568469,510.968695L207.382278,511.006788L179.823705,511.121066L178.624484,511.121066L173.239686,511.067736L170.675822,511.044880L167.048326,511.060117L157.742130,511.105829L161.448511,499.662784L170.524489,499.289475L171.591660,496.493470L174.876034,496.653460L175.517570,494.352660L190.383174,493.857454L190.899767,492.371838L196.185294,477.104267L193.237727,475.054876L179.619497,465.562156L178.266876,464.655548L172.513140,460.762464L166.624203,456.572255L147.503938,443.544509L141.532356,439.361915L139.582639,438.005809L135.794095,449.707929L133.065867,457.806462L118.190369,456.838905L122.392876,444.123520L127.368978,429.526338L118.224706,423.248631L112.110201,419.050795L111.697894,418.768907L101.660627,411.874092L105.395843,400.849999L101.809282,400.872855L86.631136,400.956660L85.945027,400.956660L85.512346,400.956660L85.080909,399.036776L84.018430,400.103378L83.399792,399.699593L82.624851,399.006301L80.073759,397.269263L79.217217,396.690250L78.936061,397.528295L78.092601,400.042429L77.811451,400.880474L74.339307,411.119852L63.904326,441.822712L63.033360,444.382551L60.379814,452.054447L60.120663,452.808685L59.339590,455.063780L59.076817,455.810399L52.072221,477.028081L51.904668,477.546143L43.713618,502.359747L35.381028,527.211404L34.374649,530.213104L31.118069,539.926721L73.849515,538.753469L79.383716,538.601098L87.957751,534.304251L86.814057,538.601098L84.604951,545.541570L94.897436,545.541570L88.599370,563.704105L78.656862,563.452694L71.264940,584.898779L66.974309,597.111224L94.941707,597.515004L83.493103,630.556354L70.406638,669.913316L60.379256,669.913316L49.946406,669.905697L38.631035,703.685850L25.160932,703.830600L15.390458,703.838218L10.022282,720.400667L6.520564,731.188341L6.304767,731.851142L5.500272,734.327125L2.219397,744.345327L16.258982,744.642445L13.709737,752.070384L10.541070,761.311495L10.143709,762.682805L9.302480,765.379714L9.236154,765.577792L3.317357,782.239194L0.000000,791.556464L46.211588,792.691601L113.143311,792.249736L129.416986,792.005948L145.474267,791.762160L146.798798,791.739305L151.029507,791.678358L197.854612,790.962231L201.045047,791.183164L213.019220,791.076507L217.229911,791.038415L233.359130,790.893666L246.034476,790.779390L251.931913,790.726062L254.447803,783.633357L254.598233,783.183872L259.270678,768.853699L263.146564,757.273747L265.412246,750.874295L267.913540,744.048209L268.286176,743.027344L271.588323,736.856436L275.079074,731.599735L275.217406,731.371182L279.086076,726.647767L282.863570,722.381456L284.674567,720.720641L287.331947,718.267511L294.791103,711.868038L298.520692,708.668300L303.024991,704.188666L305.103572,702.116453L306.651482,700.188991L299.818572,699.251924L296.648522,698.749108L301.070675,686.833877L301.571633,685.485414L315.631242,686.681508L316.126043,685.813006L316.599624,684.601675L318.424798,679.870623L319.024255,678.080289L319.547189,676.518508L321.070789,672.023626L325.623248,658.538968L326.573359,655.720139L327.122257,654.044079L329.287965,647.484585L330.159823,644.825742L333.593400,634.388444L335.842638,627.783230L338.069379,621.208486L344.406219,602.566062L351.524591,581.592351L356.399340,567.041011L363.155915,546.615781L365.847591,538.471583L369.370392,527.958020L371.342183,522.922173L373.899861,516.377854L417.767591,515.593145L429.454232,515.379826L485.353512,514.496077L527.873017,514.709395L544.911281,514.648447L551.208140,514.617973L596.503292,514.701777L629.751595,514.450365L651.197374,514.739870L649.599398,519.326226L645.320652,532.544372L643.664213,537.656401L650.457446,537.694494L651.100337,537.694494L651.734495,537.702113L671.618689,537.671639L677.742129,519.996657L681.788908,519.966183L683.570677,519.943327L682.333465,523.729737L682.078386,527.112363L691.134337,527.241878L692.052161,527.196167L694.795819,527.051415L695.710012,526.998085L695.949622,527.020941L696.663743,527.066652L696.899723,527.081889L698.171662,527.104745L701.971484,527.165693L703.239792,527.180930L702.970133,527.912309L702.725989,528.567502L702.244074,530.098826L702.007878,530.822586L704.086768,530.761637L705.770287,528.521791L708.853076,524.392549L716.140861,515.219837L719.637012,510.816324L724.546907,504.683402L739.268517,486.254145L744.174957,480.113595L744.616167,480.365007L745.947456,481.096388L746.385038,481.340181L746.832432,481.591593L748.177165,482.338211L748.620930,482.582005L748.759759,482.665809L749.183902,482.894365L749.325283,482.970551L745.000099,488.501617L732.018584,505.094803L727.689915,510.618242L729.868766,510.572531L735.193736,510.435397L736.397665,510.458253L738.542268,510.496346L742.053206,506.214728L752.579963,493.369868L756.087355,489.080626L756.370516,489.194905L757.222552,489.530121L757.502083,489.636780L760.615461,491.267149L761.122128,491.526180L761.582865,491.922344L763.606341,493.743176L768.045137,495.365926L766.148064,497.689582L764.634276,499.533269L766.250441,500.577009L765.527688,502.679726L763.368206,508.980257L762.641853,511.075354L762.404970,511.745786L761.701982,513.734223L761.461473,514.397036L758.885186,521.924145L757.690932,525.398195L755.752165,531.058760L753.809821,536.711705L751.138352,544.505451L749.642147,548.863243L748.587174,552.032545L748.444327,552.459182L748.381636,552.664882L748.253015,553.030571L748.015789,553.739093L747.875495,554.158111L747.493955,555.316125L733.354124,561.083338L732.841812,562.576566L727.187387,578.948732L740.281802,579.055391L740.884375,579.009680L733.144201,602.002294L731.179893,607.815198L727.078681,620.751378L727.016014,620.957077L726.812019,621.566555L726.745721,621.764635L715.947492,652.939403L731.149536,652.901310L741.956276,620.370454L744.413093,612.790067L759.342831,569.113245L760.533555,565.593495L772.923843,565.753483L774.140177,565.776339L778.793307,552.283956L801.890288,541.808495L802.641783,541.465662L806.016591,539.934339L807.567952,539.233435L810.891819,539.294384L811.352035,537.938287L812.663736,534.205211L814.312473,529.557910L814.532460,529.565529L815.167696,529.588384L815.384053,529.588384L816.030571,529.596003L816.082668,529.458870L817.050141,526.624778L817.366454,525.680080L817.437879,525.466761L817.659809,524.803949L817.733786,524.583012L817.998691,523.828778L834.881943,513.597090L840.242682,510.343975L839.103119,510.313501L850.087371,503.022560L858.611690,497.262943L869.439189,489.591069L870.613878,488.852070L871.409568,493.453672L874.438892,498.215261L875.824842,500.371308L877.107288,502.374984L879.562065,503.868218L887.677581,509.003113L887.973215,508.987876L888.844124,508.934546L889.129946,508.911690L884.165783,505.940461L883.955706,505.810945L881.337243,503.883455L878.648549,502.534974L876.959889,500.599864L875.276043,498.078127L873.979001,495.693523L872.789510,493.910784L872.498494,493.118456L872.242310,492.425168L871.091340,487.869278L872.302331,487.206464L872.615528,487.046474L873.451560,489.293946L875.964832,496.021121L876.797284,498.260972L877.293870,498.900930L877.692041,499.373279L879.200450,501.163636L880.865156,502.062624L882.098430,502.717819L883.688181,503.692992L886.473345,505.399544L887.863825,506.397573L888.369740,506.732789L889.930758,507.738436L896.374696,508.431722L908.161930,508.766938L915.961683,509.140246L931.663015,509.361184L932.193344,507.555591L922.063754,507.365127L905.904710,507.052767L892.901087,506.344243L891.881620,506.176635L890.042653,505.871894L887.795087,504.424371L886.548851,503.586332L884.789446,502.397840L883.867407,501.773120L882.676029,501.011266L879.507537,498.954260L879.112114,498.695229L877.939682,497.895282L876.993609,495.404019L874.144592,487.907370L873.278053,485.621806L873.197503,485.400868L873.130192,485.454198L872.932285,485.583713L872.861344,485.629425L872.738007,485.720847L872.369469,485.972259L872.242502,486.056063L868.444281,488.722555L865.143726,491.084304L859.912768,494.817391L850.028206,501.445522L843.677132,505.422400L836.463889,509.924956L835.100318,509.917337L834.438892,509.917337L828.361352,509.902100L826.330174,509.894481L826.201441,509.909718L825.818185,509.909718L825.688373,509.909718L823.309271,512.713340L819.762662,516.880677L821.645251,511.867682L822.166657,510.458253L820.607435,510.481109L817.965264,511.098210L811.306064,514.739870L811.189301,514.793199L800.994735,519.227185L799.521856,519.989038L794.197769,522.800276L793.033282,523.508799L791.623202,524.415404L791.381631,524.583012L789.812500,525.687699L788.186168,526.944756L786.969216,529.268406L783.762849,530.647360L777.745143,533.222421L774.868608,536.551716L772.566339,538.258265L765.669353,543.385529L763.848013,545.815836L761.277854,546.882429L753.548827,550.082206L750.975034,551.141179L753.539752,543.499807L761.239602,520.560428L763.801085,512.911421L763.924628,512.560969L764.287997,511.494374L764.407910,511.136303L766.717551,511.235344L774.124039,510.900128L776.569483,510.778232L777.448736,510.755376L778.528349,510.724902L779.269790,508.843123L779.691342,507.768910L780.154111,506.534707L781.526441,502.824478L781.979409,501.582656L781.216945,501.072214L778.916117,499.525650L778.150026,499.007589L777.837820,498.832363L776.882656,498.306683L776.564268,498.131457L776.213894,497.940993L775.151884,497.346747L774.797881,497.148665L776.911325,494.345041L783.239352,485.934166L785.349205,483.122922L785.738636,483.122922L786.900749,483.122922L787.286551,483.115303L789.033171,482.901984L794.265768,482.246789L796.008757,482.025851L799.118060,481.545882L802.073904,481.081151L804.609469,473.584495L805.843036,469.919970L806.888871,466.834455L810.009400,457.555050L811.045487,454.461913L811.795768,452.222056L814.046661,445.502481L814.793346,443.255003L814.992507,443.361663L815.579100,443.658787L815.774632,443.757829L816.191099,444.009242L817.435797,444.740624L817.848636,444.984418L818.825899,445.517718L821.739149,447.117617L822.712787,447.643298L823.196980,446.972864L824.633569,444.953944L825.114135,444.275891L825.369673,443.955912L826.120294,442.988353L826.372203,442.660755L826.467591,442.523621L826.747572,442.112218L826.839331,441.967465L829.102636,442.942642L829.274917,443.018828L832.820531,444.557778L835.871482,445.875791L836.250583,446.035781L838.122443,446.850967L840.761187,448.458485L841.013034,448.610856L841.296865,448.778464L851.239871,454.507625L854.901733,457.120792L856.372525,457.989308L860.784919,460.594855L862.258275,461.455753L862.498054,461.699547L862.737834,461.943341L863.314247,462.270939L863.600639,462.430928L866.213366,457.859792L874.040837,444.123520L876.650054,439.544760L871.955443,438.409593L871.036813,438.181036L854.183724,434.074626L848.566904,432.703283L848.026698,432.581386L846.411185,432.200457L845.867350,432.070941L846.655049,429.922504L847.591859,427.347425L850.639660,427.659787L852.320446,427.827396L852.799147,427.210291L854.231623,425.351358L854.706696,424.726635L855.978483,425.229461L859.793849,426.737939L861.068192,427.233147L862.595473,423.873355L863.495405,421.869669L864.823881,416.483333L865.354366,413.755881L865.995258,410.403705L867.723636,408.270502L871.168045,404.004094L872.933126,401.908983L873.734313,400.956660L874.807873,399.966243L901.416928,367.610073L914.930511,351.169124L932.719859,329.532265L968.801741,329.280851L986.358082,329.273232L987.311431,326.446725L1000.000000,288.696439Z M676.276232,515.311260L676.459952,514.762725L678.898831,514.678921L678.687042,515.311260L677.586207,518.579610L675.187755,518.579610L676.276232,515.311260Z M757.233049,289.724954L759.505659,283.150074L760.323001,283.127218L764.405012,282.990083L778.840847,282.868184L784.996212,282.814854L784.514888,284.231920L783.069867,288.467880L782.584931,289.877327L781.206209,289.915420L779.654424,289.953513L777.084705,289.930657L775.714056,289.907801L775.250498,289.907801L773.842765,289.884945L773.375581,289.877327L770.147074,289.846852L760.461555,289.755429L757.233049,289.724954Z M311.806289,532.148209L315.273778,522.114608L317.483895,515.722660L319.222527,510.663954L328.847872,510.717283L331.643008,510.732520L324.117806,532.247250L311.806289,532.148209Z M82.935386,412.544527L83.234406,411.653153L91.224381,411.752194L89.608907,417.047108L88.913302,418.936516L113.368111,433.876543L117.156629,436.550662L110.359246,456.320843L106.287478,468.167702L137.511144,468.495300L140.591975,458.294050L141.888180,454.004800L183.498341,483.343860L164.607764,484.616158L162.145492,492.531828L158.475124,492.859425L152.758682,493.187022L152.403783,493.194641L147.778357,507.784147L146.599978,511.501992L143.107006,521.497508L148.987699,521.657497L148.179608,524.049715L193.749265,524.034478L203.364606,523.988767L228.483125,523.851633L217.977503,553.685763L223.324674,553.685763L229.504354,553.525774L249.369241,553.350548L260.066682,553.525774L265.601255,536.696468L272.463806,515.814083L296.407974,515.768372L306.142869,515.753135L295.580511,546.478647L306.809936,546.615781L324.607133,546.836718L329.556779,546.897666L339.789147,516.103587L346.320915,516.073113L366.152604,516.309287L330.455388,621.238960L321.976977,647.256032L319.609595,654.546897L312.410365,676.655640L312.072018,678.423119L296.606556,678.324079L285.722126,707.342694L291.224677,707.914076L276.223051,721.238693L271.407099,726.944886L268.259967,731.599735L265.652667,735.454649L259.756794,749.023025L258.550345,751.796121L251.003429,774.620815L250.939546,775.070299L249.144309,780.822176L201.352489,782.155392L198.140735,781.721144L195.267410,781.568777L190.745066,781.614487L173.697980,781.804946L170.769638,781.835420L150.914224,782.048734L130.821319,782.269667L77.071689,782.894374L70.560815,782.841045L13.073653,782.330614L23.627455,751.476149L28.870693,735.172768L23.151933,735.302281L14.773980,735.507978L16.073925,731.866379L18.328051,725.505006L21.314191,716.035314L44.950883,715.974366L49.104912,703.571573L56.579246,681.257179L66.553390,681.508588L77.541805,681.721904L94.243551,630.556354L110.064028,585.759669L104.987411,585.653010L99.090092,585.523496L81.620686,585.134952L85.314941,573.798625L95.376313,573.455792L95.529112,573.036774L106.877658,538.791561L107.263976,537.344042L94.503728,537.237383L95.442896,534.380437L96.931993,529.809322L91.504127,529.847414L43.664956,530.159774L69.794488,452.237293L82.935386,412.544527Z "/></g><g fill="#000" font-family="Arial" font-size="12px" id="mylayer-label" stroke="none"><text text-anchor="middle" y="430.930882132"><tspan dy="0" x="639.205966818"><![CDATA[N]]></tspan></text></g></svg>