<?xml version="1.0" encoding="utf-8"?><!DOCTYPE svg  PUBLIC '-//W3C//DTD SVG 1.1//EN'  'http://www.w3.org/Graphics/SVG/1.1/DTD/svg11.dtd'><svg enable_background="new 0 0 1000 1001" height="1001px" pretty_print="False" style="stroke-linejoin: round; stroke:#000; fill: none;" version="1.1" viewBox="0 0 1000 1001" width="1000px" xmlns="http://www.w3.org/2000/svg" xmlns:xlink="http://www.w3.org/1999/xlink"><defs><style type="text/css"><![CDATA[path { fill-rule: evenodd; }]]></style></defs><metadata><views><view h="1001" padding="0" w="1000"><proj flip="auto" id="robinson" lon0="-93.46180664"/><bbox h="0.25" w="0.32" x="-1314.97" y="-554.99"/></view></views></metadata><g class="" id="mylayer"><path d="M1000.000000,124.249250L934.362286,122.359285L858.923462,120.101828L736.897933,118.264362L719.065916,117.949368L671.247128,116.269399L667.950364,116.846888L657.989712,118.369360L654.664347,118.894350L651.482525,118.631855L641.835821,117.739372L638.625400,117.424378L622.068289,117.266881L575.803552,116.741890L387.283138,114.431933L324.448162,113.644447L258.115095,111.124493L253.420448,110.914497L175.021530,345.110512L148.218846,425.012259L91.000076,599.513316L0.000000,876.798927L205.906384,878.583782L351.982363,879.686192L357.003304,879.686192L372.039771,879.476209L377.032101,879.423713L382.310540,879.896175L398.044595,881.208568L403.294425,881.628533L436.379653,882.048499L466.661541,882.415969L480.224641,882.573456L493.743698,882.730943L535.679394,883.308396L568.736018,883.675866L604.576054,884.463301L652.305551,885.408224L669.107932,885.933180L682.966160,885.985676L711.915513,887.140581L731.899953,887.928016L747.665230,888.085503L752.727909,873.859166L762.000498,847.558771L767.612421,830.865078L772.353803,816.533681L782.096802,787.135892L811.282948,698.942094L820.998132,669.491523L831.132111,639.515911L861.418591,549.536135L866.480512,534.416947L872.828353,519.717719L886.206881,484.701984L926.289162,379.391681L939.611575,344.270544L943.618081,332.143490L951.728916,301.117077L954.448775,290.669926L985.588683,171.603253L996.842417,128.396670L997.470389,127.609185L999.400628,125.089233L1000.000000,124.249250Z "/></g><g fill="#000" font-family="Arial" font-size="12px" id="mylayer-label" stroke="none"><text text-anchor="middle" y="492.758720107"><tspan dy="0" x="502.424418861"><![CDATA[N]]></tspan></text></g></svg>