<?xml version="1.0" encoding="utf-8"?><!DOCTYPE svg  PUBLIC '-//W3C//DTD SVG 1.1//EN'  'http://www.w3.org/Graphics/SVG/1.1/DTD/svg11.dtd'><svg enable_background="new 0 0 1000 1001" height="1001px" pretty_print="False" style="stroke-linejoin: round; stroke:#000; fill: none;" version="1.1" viewBox="0 0 1000 1001" width="1000px" xmlns="http://www.w3.org/2000/svg" xmlns:xlink="http://www.w3.org/1999/xlink"><defs><style type="text/css"><![CDATA[path { fill-rule: evenodd; }]]></style></defs><metadata><views><view h="1001" padding="0" w="1000"><proj flip="auto" id="robinson" lon0="-95.5650594447"/><bbox h="0.11" w="0.11" x="-1304.8" y="-671.48"/></view></views></metadata><g class="" id="mylayer"><path d="M1000.000000,77.732604L968.008378,77.585526L963.670784,77.585526L950.475402,77.438449L946.075697,77.291372L911.009746,76.997217L904.441244,76.850139L927.924076,4.635403L888.462254,4.488327L853.217527,4.341251L837.915498,4.341251L791.647946,4.341251L776.283809,4.194175L743.631448,4.194175L645.488042,3.752946L612.773574,3.605869L510.354696,3.311717L220.747766,2.282183L216.318129,14.048290L212.651204,24.196570L196.221004,68.319652L170.612834,129.798163L162.366293,149.359593L102.905383,291.879821L0.000000,537.802211L146.576538,542.508923L261.752193,546.186043L251.369545,572.955523L220.039509,653.117339L209.595085,679.740039L199.536811,703.568156L169.300268,774.905785L167.074782,779.906793L162.670641,798.292878L172.396395,805.058967L187.109416,810.795437L223.917772,810.648348L275.926883,811.972149L279.541636,811.972149L304.641515,814.913931L299.556137,827.122333L291.015913,847.126496L282.310111,863.600546L275.895628,875.514832L273.737940,885.811141L267.440053,916.258863L265.220293,926.408126L289.137946,940.528858L360.949585,982.744091L384.925812,996.717817L390.664168,983.773734L407.758861,944.941592L413.435167,931.850489L417.279630,921.554130L428.509986,890.518028L432.292373,880.074624L437.008608,867.277793L442.242621,852.568813L452.000874,828.887404L457.257521,815.943554L467.642864,789.467553L498.854012,709.598739L509.177572,682.975953L519.924814,656.500330L552.101172,576.632656L562.786632,550.010250L579.139612,547.362722L627.953808,539.125973L644.244659,536.331364L660.115667,533.683840L707.670309,525.888357L723.599679,523.093751L744.608405,521.769991L807.634572,517.798712L828.643292,516.474952L870.468518,517.651627L886.639526,462.936394L914.758974,367.185509L924.748784,333.209625L980.310192,144.947237L1000.000000,77.732604Z "/></g><g fill="#000" font-family="Arial" font-size="12px" id="mylayer-label" stroke="none"><text text-anchor="middle" y="357.486172825"><tspan dy="0" x="485.946591856"><![CDATA[N]]></tspan></text></g></svg>