<?xml version="1.0" encoding="utf-8"?><!DOCTYPE svg  PUBLIC '-//W3C//DTD SVG 1.1//EN'  'http://www.w3.org/Graphics/SVG/1.1/DTD/svg11.dtd'><svg enable_background="new 0 0 1000 1001" height="1001px" pretty_print="False" style="stroke-linejoin: round; stroke:#000; fill: none;" version="1.1" viewBox="0 0 1000 1001" width="1000px" xmlns="http://www.w3.org/2000/svg" xmlns:xlink="http://www.w3.org/1999/xlink"><defs><style type="text/css"><![CDATA[path { fill-rule: evenodd; }]]></style></defs><metadata><views><view h="1001" padding="0" w="1000"><proj flip="auto" id="robinson" lon0="-66.2193132411"/><bbox h="0.19" w="0.42" x="-966.21" y="-308.93"/></view></views></metadata><g class="" id="mylayer"><path d="M1000.000000,452.699373L996.332021,451.337611L986.130785,451.617974L980.891008,453.580513L973.957452,447.372480L971.245982,442.926727L972.433224,438.521026L973.867775,433.714807L944.488313,422.099778L928.677216,415.811641L832.639191,395.825781L812.792606,391.660392L752.354605,379.084120L715.666576,371.394170L696.261534,367.348936L613.549155,350.126654L615.598818,338.151161L616.496067,327.297118L616.037970,309.474061L615.394861,282.278879L608.631335,282.318931L577.647202,278.754320L561.535395,276.711678L544.226502,277.352507L531.644570,274.468776L511.637500,271.985564L502.452283,273.667740L493.475200,277.913232L484.143781,280.396444L473.179870,280.636755L460.701028,283.240123L455.848845,282.238828L445.495378,274.628984L438.213130,271.344735L433.020991,270.984269L418.649105,273.707792L370.645470,283.440382L346.547908,285.843491L320.487320,284.722040L217.811460,275.510123L205.381102,276.511419L201.220203,277.392559L175.155520,282.879657L87.398338,302.424941L80.136181,306.590330L82.993229,309.874579L84.807415,315.321625L94.125210,385.932981L98.929317,422.820710L102.889179,435.717398L103.722434,436.478383L33.560104,472.084458L12.664773,481.817053L0.000000,487.824828L9.296734,495.554832L35.735743,522.629871L72.551490,570.571920L86.903486,587.393693L95.610904,597.646965L113.851406,618.994597L129.157109,633.493365L135.809740,637.899068L149.468119,647.391356L169.389120,658.806132L203.325147,676.709309L226.806739,686.962582L247.083548,694.652538L270.580938,701.821819L289.318270,707.389027L317.524784,715.599656L346.121837,723.369716L359.160877,726.213398L376.724603,728.015731L412.586353,727.214694L412.865967,721.367123L427.134772,719.724997L447.904190,714.958827L516.409609,693.050464L527.004861,695.213264L553.755161,689.846315L576.245091,686.401856L666.776300,674.666664L715.262606,663.532250L750.781671,651.356488L773.798413,641.663941L860.432525,602.132771L900.527922,583.628820L908.336402,579.944051L948.181481,562.601604L981.354733,547.622217L978.799976,538.250087L979.304747,532.963245L996.872093,524.872774L994.950932,517.623392L993.768748,513.217690L994.177473,505.287427L998.426167,477.211093L1000.000000,452.699373Z " data-aland="2581196" data-awater="5814" data-classfp="U1" data-funcstat="S" data-geoid="7212560" data-intptlat="+18.4172507" data-intptlon="-066.2205270" data-lsad="55" data-mtfcc="G4210" data-name="Candelaria Arenas" data-namelsad="Candelaria Arenas comunidad" data-pcicbsa="N" data-pcinecta="N" data-placefp="12560" data-placens="02415322" data-statefp="72"/></g><g fill="#000" font-family="Arial" font-size="12px" id="mylayer-label" stroke="none"><text text-anchor="middle" y="488.018147867"><tspan dy="0" x="471.193387753"><![CDATA[Candelaria Arenas]]></tspan></text></g></svg>