<?xml version="1.0" encoding="utf-8"?><!DOCTYPE svg  PUBLIC '-//W3C//DTD SVG 1.1//EN'  'http://www.w3.org/Graphics/SVG/1.1/DTD/svg11.dtd'><svg enable_background="new 0 0 1000 1001" height="1001px" pretty_print="False" style="stroke-linejoin: round; stroke:#000; fill: none;" version="1.1" viewBox="0 0 1000 1001" width="1000px" xmlns="http://www.w3.org/2000/svg" xmlns:xlink="http://www.w3.org/1999/xlink"><defs><style type="text/css"><![CDATA[path { fill-rule: evenodd; }]]></style></defs><metadata><views><view h="1001" padding="0" w="1000"><proj flip="auto" id="robinson" lon0="-94.6381773182"/><bbox h="0.34" w="0.31" x="-1249.54" y="-768.52"/></view></views></metadata><g class="" id="mylayer"><path d="M67.381713,999.000000L227.352224,996.525655L236.750267,976.439773L240.615905,968.143420L244.458949,959.895577L300.160204,840.689329L304.514641,840.592294L315.641821,840.252674L317.600559,840.252674L321.977602,840.107122L332.877162,840.592294L344.269427,841.028949L356.457267,841.271536L365.711490,841.756708L368.542602,841.902260L376.797947,841.756708L424.936287,840.931915L548.576560,838.651604L562.106481,813.228534L593.451127,754.279784L594.916196,749.622092L599.239119,735.551969L600.687638,730.845752L613.247450,707.169082L623.197032,688.926369L639.501993,658.893753L690.844309,563.167293L709.618587,528.088414L713.338187,521.198774L717.853559,512.853570L731.383173,487.769403L735.882023,479.375656L743.877822,462.636663L767.871541,412.322497L775.850961,395.534886L823.669287,296.700965L954.724548,25.813046L956.023943,23.192928L957.306780,20.524288L967.224279,0.000000L934.768398,0.048521L920.566023,0.097042L906.347090,0.097042L887.506024,0.097042L883.379138,6.598829L879.912473,11.936115L872.745369,23.532573L871.161248,26.007129L866.978654,32.460382L865.225745,35.129019L864.221894,36.778721L856.170095,49.685210L853.475128,53.955023L852.685297,55.313600L850.204349,59.292287L849.358790,60.602342L843.557397,69.772725L840.496193,74.576255L826.074940,97.283828L820.257030,106.405661L816.600628,111.645860L807.513940,124.503744L805.637494,127.269401L802.059447,132.509590L783.407872,132.606630L727.465249,132.703671L708.797113,132.752191L691.357403,152.354358L604.672572,251.868802L590.019646,267.928829L574.720556,283.358078L558.924340,298.593228L543.096598,313.391682L526.645287,327.510846L509.799380,341.047759L492.870663,354.342060L442.599767,394.127831L334.719221,478.938987L322.363744,489.564597L321.492721,490.340897L306.906672,490.874603L302.859036,500.820940L299.694538,509.796895L298.909947,514.842834L296.243467,520.228401L289.673818,529.786564L284.198145,538.762496L279.462307,547.495829L274.112572,559.479891L269.064155,571.658015L264.110937,582.623166L259.825526,591.987203L251.466115,608.580452L247.266712,617.507804L242.663494,626.629222L231.324169,649.869397L217.362238,678.737606L209.236531,695.670354L199.748280,715.611179L197.676527,715.853768L196.303415,718.716317L192.196174,727.109887L190.806502,729.923915L173.074241,729.390220L128.271270,727.934689L119.437372,728.565419L100.891174,729.778362L75.564228,783.875491L96.751575,783.972526L89.561933,799.401077L68.835802,843.794432L52.851681,878.096064L32.775721,921.179155L62.850156,921.373223L78.984276,910.456915L87.737761,904.198227L93.552939,899.200977L100.941512,891.583806L102.026509,890.516432L104.803803,887.750960L105.163974,887.314307L106.120919,886.101381L108.860236,885.519176L117.045052,883.675528L119.790409,882.996289L111.051584,903.179370L111.010514,906.041872L110.562679,908.516237L109.308737,911.039118L107.654069,913.076830L107.054194,914.532338L82.422773,967.561219L67.381713,999.000000Z "/></g><g fill="#000" font-family="Arial" font-size="12px" id="mylayer-label" stroke="none"><text text-anchor="middle" y="549.89118288"><tspan dy="0" x="490.883606631"><![CDATA[N]]></tspan></text></g></svg>