<?xml version="1.0" encoding="utf-8"?><!DOCTYPE svg  PUBLIC '-//W3C//DTD SVG 1.1//EN'  'http://www.w3.org/Graphics/SVG/1.1/DTD/svg11.dtd'><svg enable_background="new 0 0 1000 1001" height="1001px" pretty_print="False" style="stroke-linejoin: round; stroke:#000; fill: none;" version="1.1" viewBox="0 0 1000 1001" width="1000px" xmlns="http://www.w3.org/2000/svg" xmlns:xlink="http://www.w3.org/1999/xlink"><defs><style type="text/css"><![CDATA[path { fill-rule: evenodd; }]]></style></defs><metadata><views><view h="1001" padding="0" w="1000"><proj flip="auto" id="robinson" lon0="-91.2492420332"/><bbox h="0.27" w="0.41" x="-1230.38" y="-710.41"/></view></views></metadata><g class="" id="mylayer"><path d="M1000.000000,270.432801L972.266991,270.074092L958.590855,269.874809L960.513294,265.490583L966.313721,252.337920L968.219979,247.913848L971.761157,239.862841L982.285568,215.709874L983.230619,213.477920L986.273035,207.698759L987.617722,205.147958L990.307776,199.966646L991.998099,197.615129L993.705975,195.144044L978.879697,196.020881L934.369115,198.491966L919.543500,199.289090L889.295517,199.089809L867.911717,198.970241L880.553230,169.038279L846.053204,169.038279L833.479730,198.731103L826.600219,198.651391L820.192531,201.441327L798.137056,200.564490L768.311004,199.368803L766.893310,202.716727L762.557892,212.720651L761.124010,216.028724L751.350505,215.909155L722.029989,215.550448L712.240284,215.391023L676.427756,214.115621L597.512119,211.206111L568.670921,210.887261L543.038280,210.568411L535.538455,223.123152L526.992302,236.196049L501.288601,275.335167L498.557850,279.440402L491.406241,278.284559L489.519486,276.491010L488.733062,275.614164L486.292112,272.864056L483.364482,268.997963L481.715386,266.486997L480.735921,264.972447L479.709891,263.099188L473.416026,269.994379L454.501395,290.679991L448.191359,297.535352L444.687770,297.216498L434.110849,296.259935L430.574183,295.941081L430.127965,295.901224L428.690076,295.781654L428.227658,295.701941L419.500414,295.064233L407.950064,293.828673L355.073688,288.089304L350.857498,297.654922L339.526923,323.083584L330.795656,344.327347L327.469399,352.338613L363.873131,369.796030L377.759366,376.452180L383.742545,378.883470L384.220497,379.082756L394.028663,384.901912L400.119879,388.249921L405.668342,391.239217L400.722762,395.185089L392.963481,401.323117L398.586216,403.355841L402.478050,404.710991L390.498958,416.987068L381.005484,426.752144L378.403101,429.382738L328.561105,481.317241L316.982458,493.194869L301.800364,508.739447L295.543248,515.236293L264.398033,544.810967L241.906468,566.135100L173.317997,636.724411L143.220430,667.654785L141.316823,669.807162L133.475041,664.107352L115.145687,650.674950L100.269950,661.277378L97.225402,663.389893L86.146360,672.916151L73.936905,687.066055L60.374708,702.770488L35.980678,728.120864L25.569512,738.882843L23.279818,741.712847L10.620937,756.221621L0.000000,768.338861L0.000000,768.338861L22.523107,780.774997L32.895533,786.514759L52.956427,796.718793L113.140373,827.251261L118.476898,829.961721L138.657835,813.858413L141.439649,811.506695L140.294436,809.992030L143.312463,807.082279L166.842401,784.083332L174.663896,776.390459L182.434782,768.817173L205.764355,746.057504L213.519062,738.444391L215.857121,739.719886L233.755647,723.616781L234.372623,723.018894L191.058278,696.791639L193.384558,695.516152L216.249720,682.841010L290.651938,640.710277L376.554372,592.043011L432.838392,592.162586L498.959941,592.720604L565.197613,593.238763L563.290313,597.822480L557.619068,611.454076L555.728665,615.997947L546.417046,615.958088L518.482854,615.758795L516.944978,615.718937L514.701353,624.926262L510.376627,635.767804L497.436407,668.212809L493.095614,679.014557L488.511072,689.298155L474.775161,720.029460L470.174532,730.273258L467.620672,735.056359L465.201789,739.520590L473.354435,739.719886L477.307203,739.759745L499.355577,739.719886L565.434534,739.600309L571.902070,739.560449L582.062654,721.025938L590.987163,697.987408L617.812279,628.752687L626.754310,605.674595L632.208769,592.242303L645.751892,592.601028L698.321695,593.836639L702.455987,593.916356L711.047947,573.150156L720.517412,550.311392L723.438383,543.176784L721.892754,540.107709L717.222821,530.900492L715.644135,527.831422L701.892442,499.053975L698.868343,494.789184L704.934842,489.288801L713.318050,481.675961L723.184980,472.668107L729.235287,467.127884L736.216491,461.029658L757.110838,442.695154L764.075850,436.557091L784.650162,416.947211L805.597308,427.788439L810.049126,423.523689L852.835282,382.311191L892.817623,420.932954L900.991808,400.765114L916.278139,362.860887L941.513548,300.365183L989.025586,302.916017L994.605562,286.455179L1000.000000,270.432801Z "/></g><g fill="#000" font-family="Arial" font-size="12px" id="mylayer-label" stroke="none"><text text-anchor="middle" y="447.154795666"><tspan dy="0" x="546.069937066"><![CDATA[N]]></tspan></text></g></svg>