<?xml version="1.0" encoding="utf-8"?><!DOCTYPE svg  PUBLIC '-//W3C//DTD SVG 1.1//EN'  'http://www.w3.org/Graphics/SVG/1.1/DTD/svg11.dtd'><svg enable_background="new 0 0 1000 1001" height="1001px" pretty_print="False" style="stroke-linejoin: round; stroke:#000; fill: none;" version="1.1" viewBox="0 0 1000 1001" width="1000px" xmlns="http://www.w3.org/2000/svg" xmlns:xlink="http://www.w3.org/1999/xlink"><defs><style type="text/css"><![CDATA[path { fill-rule: evenodd; }]]></style></defs><metadata><views><view h="1001" padding="0" w="1000"><proj flip="auto" id="robinson" lon0="-156.658082583"/><bbox h="0.81" w="0.88" x="-2275.93" y="-351.73"/></view></views></metadata><g class="" id="mylayer"><path d="M1000.000000,308.655497L995.284288,307.221511L992.112379,305.844884L988.962951,304.372659L985.489324,303.856424L982.391802,304.277060L979.355123,305.213931L977.366849,305.003613L974.980481,304.372659L971.094489,301.523807L967.600147,297.432167L964.830793,295.118670L961.930612,294.277398L959.339533,293.742044L946.503599,296.686495L944.034887,296.476177L941.714549,295.634905L936.503469,292.996371L934.082759,291.313828L931.536644,290.587275L930.043925,289.115049L929.971839,284.067419L929.563961,280.377295L929.631938,272.691131L929.240642,269.001008L926.522232,267.739100L922.397326,267.949418L917.061836,267.108146L907.170463,266.266875L904.177297,265.750640L898.544087,265.330004L895.606320,265.846239L893.740902,266.381593L884.886848,265.215285L883.096428,264.163695L882.260012,262.366433L882.175260,260.683890L882.669870,258.580711L883.063165,254.794988L883.225247,251.640219L882.437345,248.791367L881.116006,247.013225L872.447030,243.017184L870.632712,240.799286L869.103810,236.592928L866.659723,234.164712L864.141569,234.164712L860.902528,235.961974L857.518645,237.529799L855.079778,238.390190L852.615582,238.160752L850.119436,237.644518L847.930956,236.172292L847.166512,234.069113L846.826179,231.430579L845.637629,229.862755L843.392829,227.855174L841.181874,226.478548L836.491818,225.006323L832.861567,223.113461L827.869544,218.276149L825.548312,216.593606L823.980621,216.708325L823.031103,217.434878L822.584977,218.486467L818.948792,220.704365L818.332761,217.970232L818.336358,211.756294L817.799130,210.800303L816.363269,210.284069L813.078305,211.431257L810.038520,213.649155L806.578178,215.542016L805.292122,215.656735L803.887738,215.006662L801.367242,212.903483L800.122389,210.800303L798.254153,208.811843L792.203773,205.657074L789.776303,203.228859L788.640809,200.590325L787.415656,195.867732L785.922086,193.554235L783.821138,196.288367L780.552270,197.014920L779.391200,195.753013L779.057769,193.860151L779.970671,189.978830L781.186275,186.078389L781.085946,185.237117L780.979698,184.491445L780.844611,182.177948L779.716915,181.126358L777.369663,180.399805L773.718371,179.864450L764.871741,179.864450L757.401076,180.705722L756.213959,180.399805L752.106442,177.225917L750.039443,175.237456L747.992587,172.388605L746.230296,166.710021L745.267126,164.606842L744.960707,162.599262L746.218577,155.983808L744.702567,153.765910L740.358890,150.821459L740.286016,150.286105L733.988393,148.182926L731.567830,146.500382L729.948391,144.722240L729.444101,143.555932L728.875363,138.508302L726.801117,135.353533L720.814648,129.885268L718.172815,128.298324L715.752271,126.615781L712.985415,126.405463L709.010328,127.246734L705.251739,129.139595L702.692777,131.778129L699.284130,135.563851L696.197946,136.711040L695.818337,136.634561L693.882990,139.368693L687.056772,145.639991L680.187237,152.236325L675.629245,158.584102L671.490984,156.175006L667.097111,154.148306L665.367747,149.597792L664.948769,140.955638L661.441554,137.131676L652.146754,136.290404L644.893593,141.911628L643.382759,145.869429L640.577441,153.287915L640.161727,161.605032L623.742309,165.486353L618.743663,165.467234L614.548531,164.778920L615.550162,169.042638L617.485792,170.744301L621.220537,173.248996L626.283417,176.939120L629.434068,179.673252L630.077963,181.795551L627.662887,185.160638L623.422311,184.242887L617.371335,180.457165L615.098442,178.851101L612.318924,187.780052L616.414152,204.529006L614.511665,209.729594L612.783071,208.697124L607.792787,205.332038L604.136762,204.605485L602.425537,208.429447L600.703636,205.255558L597.212674,201.221278L590.344629,199.500496L584.154677,196.728123L574.262546,193.707193L566.808580,190.533305L554.464701,184.835601L548.295559,183.172178L544.367029,179.730612L538.017951,174.606503L531.443716,171.566453L524.080659,168.851440L520.734185,168.851440L517.302392,166.537943L509.275255,163.899409L505.365881,157.207476L489.225253,144.339844L481.882980,146.959258L474.895875,139.406933L473.451776,142.446983L468.216062,148.928598L468.069811,148.775640L454.305085,147.991728L439.810663,159.253295L432.314161,145.697350L427.502935,139.177495L409.940457,110.172745L397.846685,89.752789L395.545041,87.917287L390.071858,83.366772L381.398956,76.502761L366.713719,59.141975L354.556157,46.599381L344.330640,39.716250L342.671345,40.079526L337.688961,41.188475L336.034165,41.532631L333.036478,42.373903L332.765487,42.469502L322.938386,45.299234L319.653140,46.236104L318.132794,48.473122L313.679947,54.935617L313.547628,55.145935L312.015219,57.363833L311.187679,56.656400L308.671927,54.534101L307.827822,53.826668L306.216863,55.815128L300.525529,64.724959L298.467350,68.262124L294.438118,75.107015L288.056900,86.808338L275.886094,114.245264L274.637428,117.017636L268.483217,129.655830L265.970549,134.913778L264.797160,137.647911L259.951674,148.737400L256.235157,156.366204L253.434747,161.509433L252.663580,162.886059L248.861285,169.119117L247.730813,171.107578L244.301773,177.092078L243.159237,179.061418L240.958426,182.923620L234.396811,193.210078L229.644556,199.749053L225.369004,205.599715L211.322821,223.476738L199.832187,238.237232L188.711991,252.902127L184.641228,258.657190L183.382535,260.416212L177.521011,268.924528L171.093780,279.344826L168.277921,283.990940L161.541771,296.992412L160.595018,298.904393L153.301747,313.358970L146.281364,329.400493L132.787800,359.017082L123.625914,379.092885L120.102722,386.817290L113.145374,402.380818L108.656361,412.380480L102.139091,426.777699L95.415259,440.926361L88.810514,453.793996L81.420298,467.254345L79.036102,471.193027L75.519927,476.986331L70.842904,484.404819L65.073663,492.874897L58.486520,502.568643L53.693086,509.566495L38.488535,531.458683L31.803489,541.075950L30.057860,543.638005L24.813409,551.285932L23.055716,553.828867L18.453592,560.788480L4.630719,581.667319L0.583366,587.747420L0.000000,588.607812L0.391704,588.703411L1.530601,588.932849L1.910233,589.009328L2.871385,589.219646L5.897789,589.735881L8.482787,590.156517L12.559341,590.997789L17.471410,592.795052L20.874438,594.668794L24.259732,596.829333L26.764800,598.435398L35.410420,603.941905L40.162821,606.981955L55.385894,607.555550L63.050834,610.327923L64.165842,610.729439L67.803169,612.029587L71.050124,611.819269L74.347031,611.819269L77.682983,611.723670L79.804106,612.144306L82.042201,613.406214L84.140846,613.922449L86.675655,613.922449L87.219297,613.865089L89.265825,613.616532L96.135374,613.712131L101.063548,615.088758L103.743557,616.866901L104.472772,617.077219L109.582187,617.612573L113.657762,617.612573L116.770924,616.350666L119.149210,615.184357L120.407578,614.553403L123.421837,613.712131L127.395999,612.029587L133.276663,611.398633L139.997858,612.125186L142.963668,612.335504L152.807451,614.649002L158.573149,614.859320L162.599681,614.151887L173.649268,612.182546L176.213626,611.704550L177.723834,611.341274L177.313486,612.029587L176.095928,614.037168L175.673508,614.706361L175.874235,615.050518L176.468840,616.044748L176.657495,616.369785L195.971233,628.224072L209.408298,636.464713L247.590036,650.020663L254.299058,654.322622L258.603121,655.183014L270.480301,657.515631L275.630976,658.509862L282.129649,655.813968L285.804933,662.238226L290.523324,664.437005L304.609131,666.043070L305.803658,666.176909L317.042875,673.901315L327.742460,681.243325L336.894132,681.568362L342.221540,681.740440L379.973998,685.143768L407.021168,687.571985L408.097531,687.151349L411.293486,685.889441L412.357777,685.449685L412.530665,686.405676L413.046248,689.216289L413.207064,690.153160L413.807625,691.051791L415.580670,693.728566L416.169159,694.608078L411.924177,704.913659L411.223488,705.850531L409.444669,708.202268L401.543955,714.607407L395.089024,722.121496L392.515846,727.570644L390.089141,734.511138L389.970613,734.874415L388.912585,737.895346L386.737220,741.088356L383.744059,745.505034L385.464267,745.657993L388.089970,747.244938L390.107966,749.443717L392.278584,749.654035L394.847888,750.705625L400.963453,752.388169L405.159357,751.030662L413.154874,749.367237L418.933952,748.181809L422.245870,746.919901L429.385162,745.868311L432.560232,745.963910L437.315658,746.384546L444.182935,748.181809L444.969115,749.348118L445.661985,751.757215L448.723001,756.919566L451.900215,758.697709L455.233780,761.431843L457.487440,762.980549L458.158259,763.439424L460.231085,764.911650L462.674571,766.498595L470.510516,770.800555L474.147682,773.018454L476.409471,775.026035L482.510124,777.970487L487.399459,779.442713L489.969869,781.335575L492.735081,784.796262L494.848045,787.014162L500.071720,790.799886L507.381029,793.113384L514.358176,794.795928L517.878047,795.962237L521.134194,798.180136L526.889423,803.017451L531.326377,805.216230L532.128071,805.541267L534.364705,805.541267L537.257600,805.216230L541.537957,805.120631L544.454410,805.541267L546.817958,805.847184L548.927678,805.541267L549.988009,805.541267L550.495978,805.847184L550.976441,805.847184L553.016446,807.529728L554.715798,810.168263L557.507526,811.965526L562.594621,812.596480L564.631898,812.175844L570.893656,811.544890L572.760724,812.271444L575.699649,812.596480L584.667966,816.592523L591.619291,819.231058L595.532834,821.965192L595.891973,822.481427L598.004444,824.278691L599.757195,826.267152L600.820280,828.370332L601.004177,829.632240L602.187485,830.377913L603.818948,831.754540L604.682123,833.016448L605.623893,835.635864L606.396324,838.905353L606.645116,839.115671L610.950625,845.539931L612.919331,847.949028L616.735174,851.945071L617.373143,853.742334L618.495466,858.484050L619.718360,860.682829L620.372903,862.480092L622.757771,866.361416L625.571982,872.575358L627.348919,875.730128L629.518435,878.483382L639.228808,884.257568L641.733344,886.360749L644.006215,888.674247L646.720522,889.955275L649.450275,891.523101L650.649615,891.848138L655.835614,892.058456L657.773483,891.637820L661.269287,891.637820L665.877663,893.530682L669.408010,894.582272L672.881913,895.098507L675.832388,896.150097L681.168909,897.412006L686.749174,898.482716L695.218989,901.216850L697.964761,902.364039L701.087665,903.950985L704.370919,906.054165L706.311617,907.736709L710.920018,909.629572L712.843585,910.891480L715.711235,911.943070L718.055462,913.530015L719.808877,915.939113L723.254829,923.625281L729.510089,933.739667L731.054896,936.684120L733.670520,942.898062L736.254365,946.779386L738.660718,949.723839L743.252700,955.000910L745.856156,956.683454L748.353737,958.040962L751.342175,959.283750L754.749113,944.924763L764.908517,901.828684L768.303625,887.450579L773.474370,876.303723L788.929512,842.824916L794.088310,831.658941L797.072996,808.523959L801.724762,772.444859L811.407765,738.927816L818.107061,715.639877L822.435121,709.349457L835.353083,690.478197L839.669104,684.168657L847.468297,666.846102L870.854274,614.859320L878.641707,597.517646L888.275581,582.470351L917.153365,537.290227L926.775373,522.223812L931.233713,505.302776L944.601667,454.501429L949.048275,437.561274L1000.000000,308.655497Z "/></g><g fill="#000" font-family="Arial" font-size="12px" id="mylayer-label" stroke="none"><text text-anchor="middle" y="459.014800405"><tspan dy="0" x="531.738692615"><![CDATA[N]]></tspan></text></g></svg>