<?xml version="1.0" encoding="utf-8"?><!DOCTYPE svg  PUBLIC '-//W3C//DTD SVG 1.1//EN'  'http://www.w3.org/Graphics/SVG/1.1/DTD/svg11.dtd'><svg enable_background="new 0 0 1000 1001" height="1001px" pretty_print="False" style="stroke-linejoin: round; stroke:#000; fill: none;" version="1.1" viewBox="0 0 1000 1001" width="1000px" xmlns="http://www.w3.org/2000/svg" xmlns:xlink="http://www.w3.org/1999/xlink"><defs><style type="text/css"><![CDATA[path { fill-rule: evenodd; }]]></style></defs><metadata><views><view h="1001" padding="0" w="1000"><proj flip="auto" id="robinson" lon0="-66.3932720934"/><bbox h="0.69" w="1.02" x="-969.12" y="-309.61"/></view></views></metadata><g class="" id="mylayer"><path d="M1000.000000,557.800971L996.774418,549.789475L992.866921,547.404122L989.151243,542.567614L987.175892,536.744062L988.195005,534.769977L988.445778,534.243555L989.677590,531.841751L988.952445,528.206145L990.035894,525.261468L982.821680,503.908450L978.139879,496.160168L971.766997,491.126253L971.108570,489.185069L968.116504,488.000619L955.840670,491.553971L954.420197,490.994647L952.530478,490.254365L951.661967,489.908900L943.258800,472.454704L941.171938,468.095268L936.101625,466.943719L928.223385,469.707437L921.777729,470.513521L917.246640,469.559380L914.686946,468.193972L905.265875,463.160057L895.605145,454.951157L892.276838,454.737298L889.745225,454.572791L878.114532,453.931214L856.107799,452.697411L845.025533,451.858425L847.754603,443.090202L848.888107,437.233753L849.453340,432.528853L850.055711,428.481981L851.529151,418.479957L853.231146,413.561198L855.925079,408.296975L857.038121,406.388695L858.108357,404.628470L862.619602,397.275009L864.733598,392.537209L865.904833,389.872196L878.562175,352.463321L886.548429,328.856581L895.310394,302.979650L908.177641,265.175977L910.690180,257.773170L913.267727,250.140054L923.808035,218.998918L920.871044,216.942583L919.986442,216.317457L914.168866,213.109575L906.125609,208.486935L893.963296,201.001877L881.733946,193.171356L877.123480,190.210234L859.555211,179.106029L848.557622,172.459957L844.596376,170.041708L837.053615,164.826844L834.964877,163.625945L832.201365,161.701217L800.314974,213.981461L793.085187,228.046791L791.117696,229.313493L786.653078,235.581202L784.136067,239.595168L783.307130,240.927673L777.954266,251.834474L774.637307,257.625114L764.292290,275.227344L763.454260,277.102722L762.266828,279.488071L761.585975,281.067337L760.379747,283.798151L757.972874,290.246819L756.681033,295.214926L755.333895,300.610751L752.850283,310.398909L731.065237,305.661112L725.425782,304.476662L721.214682,321.239912L714.886655,348.893521L708.914998,372.829278L708.579318,374.540150L706.314668,383.686735L703.821555,385.808875L686.561871,383.127412L668.859153,379.245048L662.590089,378.208654L633.027498,377.122908L606.783602,376.201670L599.092546,374.622403L609.663513,339.582430L604.267438,342.428400L600.298825,342.773864L592.890498,342.724512L587.358238,342.362597L568.242633,339.187614L527.498097,331.587395L520.150324,329.712017L519.203935,333.314718L518.301937,336.752912L517.810491,338.595389L513.737763,353.762925L496.547463,350.209576L493.006475,350.423435L486.596582,354.141291L482.961697,356.230529L478.713376,358.747485L476.664712,359.964836L469.536470,364.159763L465.936749,366.479310L462.597659,368.617900L456.849213,372.302855L451.030857,380.001780L448.280689,382.864201L447.116387,384.410566L446.411159,383.407073L444.439661,381.729103L442.164241,379.787921L436.784709,375.592994L434.704560,373.256996L432.394281,367.499253L432.342394,366.249001L432.313178,365.508719L432.063736,363.781397L431.091442,356.905008L429.831282,347.955832L427.761811,335.058491L427.474079,327.162160L427.598554,315.712481L427.571964,312.257837L427.547176,305.052436L427.629707,302.848044L427.591795,301.153623L427.581513,300.215934L427.052882,291.250311L435.036055,290.378425L434.630853,286.693471L430.294563,278.484580L430.897623,248.610141L433.966269,240.187392L434.781363,231.238223L435.100317,228.359354L435.945775,221.631026L432.246061,222.157448L422.291779,223.736713L410.173645,225.644992L409.243561,225.793048L399.792615,226.451075L398.049973,226.566230L387.503521,227.306510L386.602058,227.454567L371.027593,230.037323L367.218234,230.662449L360.408233,231.090167L343.910552,234.495457L304.003739,242.194375L285.740976,216.399711L231.222685,200.672864L230.953251,201.840862L226.230149,220.051761L219.231557,240.203843L219.284398,244.875836L220.127718,247.721804L220.634679,249.449125L222.925537,257.197396L226.005540,267.610678L226.622490,269.683464L229.885182,279.833536L235.556243,297.402867L236.874232,301.268778L242.150184,317.735916L243.466960,322.062447L244.369267,325.040021L248.385414,336.736461L249.628731,340.635274L251.050554,345.060510L252.728979,350.242478L257.125217,363.945904L259.986498,372.911531L260.547600,374.671755L262.806209,381.564596L265.680145,390.398619L267.509973,395.942503L270.033815,404.398160L271.200204,407.457990L271.879080,409.333369L273.540756,413.347339L276.288850,417.821929L278.302990,421.144970L279.365117,423.053251L284.594406,420.305984L299.891134,412.113537L328.046552,397.275009L337.902106,391.352759L350.935477,388.408085L362.723984,387.700705L363.751221,387.733606L366.685092,387.881662L368.822870,388.720648L370.362859,389.674788L374.238303,392.093040L381.211049,398.179797L384.401389,400.877711L390.271494,406.076131L395.834531,411.044242L401.653600,416.028803L406.113750,419.812463L406.807087,421.835899L404.283578,425.767616L402.737454,430.998938L399.825312,441.971554L397.482365,450.887834L395.669348,450.542369L390.350972,449.292116L389.452407,449.111158L384.105531,448.008961L380.753107,447.449638L379.078471,447.153525L376.122458,476.501577L373.475506,477.241858L361.436327,480.712957L360.056394,481.074872L357.034197,481.848055L330.480362,487.293238L322.344840,488.707999L319.419423,489.217971L307.565061,491.208506L298.184584,492.771323L295.459521,493.281295L287.742167,494.663154L285.994871,494.975717L282.738718,495.502140L279.522344,496.061464L276.975321,496.505633L265.801452,498.413915L263.290933,498.775830L261.985585,498.956788L261.115879,499.071943L257.723039,499.680619L248.302888,501.358591L246.191504,501.736957L243.644478,502.181126L240.005193,502.822704L234.925451,503.711042L223.241216,505.718028L221.791178,505.915437L217.188312,506.606366L216.097769,524.702144L215.238399,533.667780L215.158461,535.098992L215.109739,545.610995L235.023184,545.841305L232.093382,546.844798L181.220143,562.489424L178.514462,563.394213L175.699022,564.249650L173.041006,565.105087L169.958382,565.911172L163.635829,567.671398L148.491579,571.882781L142.469078,573.050781L136.920303,574.054275L131.241030,574.926162L127.867087,575.337430L124.435898,575.748698L118.342695,576.011909L111.134792,576.258670L99.687124,575.946107L95.746679,575.847402L85.098509,575.107120L72.953017,573.116584L61.400243,570.616076L61.114694,573.445598L60.005743,584.566280L58.961584,595.160540L58.606781,598.861951L58.354982,600.145107L57.444573,605.014519L57.951249,608.238859L58.284160,608.946240L59.362574,611.282241L59.859576,612.367989L61.283638,615.427822L64.844012,627.255888L64.871522,629.805749L64.895880,632.388512L62.015250,639.149757L58.676913,644.265931L58.070252,645.220073L57.571533,645.943904L56.625757,648.345709L56.208417,649.415006L55.453058,651.323290L55.170587,652.030671L48.775752,672.462466L48.435546,676.459992L48.884410,680.885236L45.428324,683.945071L39.471257,689.357359L35.984848,692.285588L34.303620,693.700350L27.502296,697.319510L23.343854,699.046836L21.098918,715.004039L20.060250,716.583309L18.823041,718.442241L18.001488,724.923828L18.359649,727.309183L22.135345,730.023553L23.015262,730.698033L23.672868,731.750880L23.901741,733.544009L22.625611,736.406436L21.584528,738.906947L20.061706,741.506162L17.815426,744.187631L16.372535,747.296818L15.078821,750.044090L13.788383,752.906517L13.189505,755.571536L8.433843,756.213114L8.428450,774.637933L3.641618,776.052696L2.960571,783.159412L0.000000,814.053892L16.203301,815.221894L23.753646,815.435754L29.904606,815.616712L35.850725,816.143135L42.002889,815.863473L53.259316,815.337049L55.558630,815.238345L57.212346,815.156091L79.516001,814.942232L86.892781,814.876429L91.577403,814.827076L95.463854,814.892879L104.941670,792.750190L110.678084,778.438052L122.359249,751.672712L123.460702,749.139300L126.008042,743.315742L129.015294,730.303216L129.169072,729.743891L134.659883,708.736313L135.073683,707.255748L136.622401,701.399289L142.522956,677.759599L148.764673,678.187318L160.084031,678.944051L179.639371,680.375264L188.961320,680.918138L204.117965,681.954533L211.121592,682.645464L216.906926,683.056732L245.442342,685.014368L251.173586,685.392735L258.044766,685.524340L255.660585,701.892811L253.254450,716.698464L248.978169,744.450842L248.678629,749.369610L249.612659,750.076992L251.632158,750.060541L267.753408,748.349665L267.598015,758.187202L268.732364,764.422029L271.940615,778.438052L272.685833,779.622505L273.773765,779.918618L289.171720,778.438052L311.228631,776.167851L323.487875,775.032751L324.963413,774.868243L332.751149,773.798946L338.779927,770.623954L339.055126,770.739110L342.981302,772.630944L348.353999,762.859209L355.365496,755.999255L374.893729,740.535569L387.314149,734.580405L386.496049,739.235961L392.512242,739.926892L401.992627,739.713032L404.074865,740.535569L423.983674,736.784803L440.963858,733.576911L442.703170,733.198544L444.472552,732.655670L456.692244,729.990652L462.675246,729.085862L468.500146,729.233918L473.183280,729.349073L497.216953,731.092851L503.521342,732.211500L520.139565,735.172631L522.700134,735.633252L595.989622,748.629327L595.192637,755.456380L601.613912,755.653789L607.823534,755.670240L612.137603,755.604437L612.847271,756.114410L613.016911,757.331764L612.401519,759.124893L611.354685,762.135377L610.932976,768.929529L610.354517,778.257094L610.345196,778.503855L610.357942,780.313436L610.015185,790.019368L612.135800,791.039314L624.029028,796.714817L631.414219,798.952117L632.568864,799.149526L636.294867,799.396287L637.576054,797.076733L640.277771,795.316505L643.727259,795.760674L646.284859,798.195383L647.417338,800.268176L648.395700,804.249253L647.876315,815.501557L648.372746,822.871487L649.785705,825.602309L656.084424,827.378989L658.560905,829.764345L662.964940,835.933372L664.391915,836.574951L666.741270,837.298783L673.389679,821.374470L674.021099,814.481611L675.155370,813.247806L677.548155,812.770734L685.500946,813.116200L692.213355,813.412313L699.729423,812.639129L703.370601,812.277212L705.219276,811.504028L706.234996,811.059858L709.195749,809.135122L715.568693,806.848470L717.239423,804.496015L718.243407,801.633587L718.523973,800.646543L718.753862,799.889809L718.958413,799.248230L719.878373,796.665465L722.896201,792.799542L725.380749,791.812498L728.164703,793.079205L729.783485,793.062754L730.752984,792.503429L736.709237,786.646968L741.528912,784.738683L745.636929,781.892706L747.976212,778.536757L749.505903,774.966948L750.316768,773.075113L752.806476,767.251554L753.225444,759.289401L753.114763,751.179191L754.587246,749.402512L755.816167,747.329720L757.392515,746.112366L758.469029,746.079464L759.874066,747.099410L761.306524,746.786846L763.631262,744.927913L764.645269,744.352138L764.927495,739.910441L767.635285,732.556965L771.658473,729.102313L772.456342,726.897915L770.948048,720.679540L769.733488,715.727871L773.845247,706.416760L776.374409,703.768194L778.584259,701.465092L783.779262,696.085705L784.958041,694.835450L787.342207,686.527834L791.081405,683.797014L791.893596,681.592617L799.165870,678.582135L805.743491,681.181349L809.817501,679.437573L812.100018,667.708208L810.987633,661.391131L801.030697,654.925997L798.836453,651.537149L800.189592,647.868638L805.969010,643.410493L807.307838,639.741983L805.810790,635.349641L804.029885,630.036059L807.497825,628.045522L819.956431,629.608340L824.135211,631.253412L831.758445,638.475278L834.764883,639.659729L837.369805,638.162714L838.181999,635.958318L836.425490,627.700057L833.988621,625.051492L832.321020,620.198530L832.861962,618.734416L833.135321,618.569909L833.754516,617.484162L835.481196,617.237401L840.537292,618.388951L849.549873,614.391427L858.102806,622.814194L860.684252,628.884509L865.454794,630.776341L872.485979,628.489692L874.499140,626.745915L874.559404,626.564958L875.652707,625.758872L876.480528,625.035041L879.676892,614.523033L880.727643,610.574861L882.281808,613.026017L886.795397,615.658132L897.919712,608.140155L911.161440,601.675023L913.344222,597.562345L913.242584,594.140596L911.061088,590.768200L912.737863,588.053832L915.407901,588.267691L918.041730,596.032428L918.465445,600.424769L916.352538,607.992098L917.347391,610.903875L919.138542,611.627707L923.755030,608.403366L929.388244,600.539924L934.882048,596.822062L938.921419,602.612714L941.305898,603.566856L941.755718,603.352996L947.107464,600.819586L953.077054,593.926737L958.570850,590.208875L970.204509,593.959638L975.325745,596.822062L979.399716,595.078287L981.411287,593.350962L984.725130,586.244253L985.640191,578.183404L983.751810,566.519848L984.498861,562.604579L987.130807,561.124015L996.584496,561.485931L999.173507,560.005367L1000.000000,557.800971Z " data-aland="16267087" data-awater="43248" data-classfp="U1" data-funcstat="S" data-geoid="7285326" data-intptlat="+18.4410497" data-intptlon="-066.3990172" data-lsad="62" data-mtfcc="G4210" data-name="Vega Baja" data-namelsad="Vega Baja zona urbana" data-pcicbsa="N" data-pcinecta="N" data-placefp="85326" data-placens="02415075" data-statefp="72"/></g><g fill="#000" font-family="Arial" font-size="12px" id="mylayer-label" stroke="none"><text text-anchor="middle" y="524.657143435"><tspan dy="0" x="530.273039558"><![CDATA[Vega Baja]]></tspan></text></g></svg>