<?xml version="1.0" encoding="utf-8"?><!DOCTYPE svg  PUBLIC '-//W3C//DTD SVG 1.1//EN'  'http://www.w3.org/Graphics/SVG/1.1/DTD/svg11.dtd'><svg enable_background="new 0 0 1000 1001" height="1001px" pretty_print="False" style="stroke-linejoin: round; stroke:#000; fill: none;" version="1.1" viewBox="0 0 1000 1001" width="1000px" xmlns="http://www.w3.org/2000/svg" xmlns:xlink="http://www.w3.org/1999/xlink"><defs><style type="text/css"><![CDATA[path { fill-rule: evenodd; }]]></style></defs><metadata><views><view h="1001" padding="0" w="1000"><proj flip="auto" id="robinson" lon0="-77.8653945681"/><bbox h="0.19" w="0.14" x="-1060.97" y="-678.18"/></view></views></metadata><g class="" id="mylayer"><path d="M179.883997,0.000000L147.280293,2.092341L135.345712,9.764263L137.209188,30.339011L137.774495,40.975136L140.747233,52.570278L145.937441,66.780895L150.996328,75.324718L149.847916,129.900846L149.439777,160.153319L150.674739,193.457368L154.139354,223.710157L131.629171,295.811788L138.308203,339.317296L155.756315,418.743984L162.255362,445.684775L175.871018,485.355089L186.765547,523.281894L199.710314,561.732069L200.901291,568.532805L202.857547,572.805066L204.221709,579.082680L210.444792,586.929707L215.274738,595.735827L221.397130,617.969156L224.422100,625.729043L228.924098,662.174486L230.704671,668.277811L249.728150,723.033632L252.676507,740.559086L255.393923,751.632409L254.894820,764.623971L255.533317,768.111643L255.180103,772.645620L255.816877,777.005217L256.418942,791.653484L265.098579,812.230871L265.962809,817.636807L272.419205,831.064473L281.657892,851.903573L284.876424,856.263226L287.790684,862.192360L297.981789,880.154182L308.848108,897.592894L309.888990,900.731868L329.978628,888.350370L332.146957,894.366729L346.914314,919.304162L390.390726,954.356251L418.681373,973.103098L432.701688,976.678084L467.968076,985.397573L522.702626,999.000000L527.475495,993.245123L794.307415,668.452192L813.600590,638.110006L789.177386,608.116729L723.161025,528.077254L713.433554,515.434950L772.351031,473.061623L868.370829,402.876001L849.658795,386.397754L834.110830,372.709510L805.095598,344.897183L796.735357,337.224840L784.509849,326.065084L765.362619,312.202604L759.374886,308.628008L742.271356,298.340156L698.012708,276.718286L642.247588,250.214164L612.803294,236.264672L555.364065,208.104233L440.255717,152.481208L374.711307,118.915835L337.716584,94.853500L321.279781,81.689001L320.150083,80.119725L311.144282,72.883624L270.598903,46.118843L237.489273,23.102968L202.380344,2.876969L179.883997,0.000000Z "/></g><g fill="#000" font-family="Arial" font-size="12px" id="mylayer-label" stroke="none"><text text-anchor="middle" y="497.506777516"><tspan dy="0" x="453.223707234"><![CDATA[N]]></tspan></text></g></svg>