<?xml version="1.0" encoding="utf-8"?><!DOCTYPE svg  PUBLIC '-//W3C//DTD SVG 1.1//EN'  'http://www.w3.org/Graphics/SVG/1.1/DTD/svg11.dtd'><svg enable_background="new 0 0 1000 1001" height="1001px" pretty_print="False" style="stroke-linejoin: round; stroke:#000; fill: none;" version="1.1" viewBox="0 0 1000 1001" width="1000px" xmlns="http://www.w3.org/2000/svg" xmlns:xlink="http://www.w3.org/1999/xlink"><defs><style type="text/css"><![CDATA[path { fill-rule: evenodd; }]]></style></defs><metadata><views><view h="1001" padding="0" w="1000"><proj flip="auto" id="robinson" lon0="-84.0642172097"/><bbox h="0.3" w="0.29" x="-1130.06" y="-719.07"/></view></views></metadata><g class="" id="mylayer"><path d="M984.902359,0.000000L970.894176,0.054756L917.588069,0.383293L873.749081,0.657074L859.876579,39.424502L803.775520,195.699699L914.733654,195.425915L984.902359,0.000000Z M803.775520,195.699699L691.976692,198.437539L744.207658,56.508479L763.942202,0.438050L574.289808,1.971223L540.154908,2.737810L495.844049,3.285372L313.680446,5.858914L239.066079,203.529922L234.275555,214.809829L186.120395,351.264419L406.716869,347.869468L365.275410,454.920229L353.303862,491.991155L272.101170,519.150996L101.939806,576.537248L93.155063,604.080525L15.097641,804.769915L248.113627,799.513083L309.667665,632.883282L450.617177,630.857231L440.135434,657.414945L492.015608,657.141154L500.583137,635.183124L531.673438,634.197477L488.524185,747.985264L473.037707,787.630459L454.678202,838.994118L695.081303,839.048877L676.222269,885.374865L653.210707,941.721888L633.191531,999.000000L690.383078,998.507166L728.394419,903.390560L775.374220,785.878183L793.139016,743.002241L796.550705,735.883640L636.522225,738.950114L673.272261,645.313384L690.791553,643.506364L710.609269,592.362307L712.221423,588.638762L772.706060,588.310214L795.316875,525.995720L789.187151,514.879889L787.543943,513.182398L775.241875,493.579128L707.762010,381.873758L702.632505,373.276854L673.073216,326.185608L803.775520,195.699699Z " data-aland="1494845" data-awater="22600" data-classfp="C1" data-funcstat="A" data-geoid="2605080" data-intptlat="+42.8765537" data-intptlon="-084.0656997" data-lsad="47" data-mtfcc="G4110" data-name="Bancroft" data-namelsad="Bancroft village" data-pcicbsa="N" data-pcinecta="N" data-placefp="05080" data-placens="02398026" data-statefp="26"/></g><g fill="#000" font-family="Arial" font-size="12px" id="mylayer-label" stroke="none"><text text-anchor="middle" y="408.144953967"><tspan dy="0" x="500.36649725"><![CDATA[Bancroft]]></tspan></text></g></svg>