<?xml version="1.0" encoding="utf-8"?><!DOCTYPE svg  PUBLIC '-//W3C//DTD SVG 1.1//EN'  'http://www.w3.org/Graphics/SVG/1.1/DTD/svg11.dtd'><svg enable_background="new 0 0 1000 1001" height="1001px" pretty_print="False" style="stroke-linejoin: round; stroke:#000; fill: none;" version="1.1" viewBox="0 0 1000 1001" width="1000px" xmlns="http://www.w3.org/2000/svg" xmlns:xlink="http://www.w3.org/1999/xlink"><defs><style type="text/css"><![CDATA[path { fill-rule: evenodd; }]]></style></defs><metadata><views><view h="1001" padding="0" w="1000"><proj flip="auto" id="robinson" lon0="-101.708305969"/><bbox h="0.35" w="0.68" x="-1428.82" y="-562.29"/></view></views></metadata><g class="" id="mylayer"><path d="M1000.000000,381.702643L998.228499,335.250456L998.158230,333.040800L997.377227,313.228335L996.534357,290.734382L995.836777,272.709349L995.671057,268.240322L994.991021,250.289687L994.828830,245.746155L994.774722,244.827517L995.073368,243.908878L989.413169,243.958534L968.745966,243.958534L917.435318,244.008190L915.255942,250.711764L722.993722,249.470362L494.837459,376.687517L485.976577,381.603333L476.566932,386.866727L477.317579,384.557786L477.764975,383.117801L478.535233,380.684721L149.690449,381.926089L152.345010,384.930196L157.155054,390.367377L160.537413,390.367377L163.257160,398.212796L164.416526,401.539647L157.256657,433.070134L157.188616,433.343232L131.961353,460.578450L108.394784,500.897208L99.832287,508.022470L45.979476,638.385561L45.918386,638.956559L45.783525,640.073728L45.503434,642.531500L41.747310,675.028586L44.258790,686.647047L34.520557,708.245393L7.290273,733.989500L0.000000,755.016646L0.000000,755.016646L32.203399,755.091122L37.648449,755.066297L52.186531,731.531775L72.065554,699.481938L80.009495,691.512890L120.827583,664.378305L142.528220,645.113400L147.685941,640.545422L188.363439,640.595074L256.097402,640.719204L248.185112,714.104238L374.552655,714.327668L384.038531,683.221094L412.269943,671.826057L548.539949,616.861375L685.866951,617.134462L689.823453,604.895176L690.138087,603.926956L711.910085,536.548237L719.366604,513.732603L719.989136,513.732603L839.763158,514.055349L877.572764,514.179482L884.314361,493.498841L901.488054,440.592731L911.188453,410.427790L914.183465,409.385048L924.556474,404.667878L977.622736,381.727470L983.038654,381.727470L999.224157,381.727470L1000.000000,381.702643Z " data-aland="3912242" data-awater="1033265" data-classfp="C1" data-funcstat="A" data-geoid="4811155" data-intptlat="+33.5379598" data-intptlon="-101.7006974" data-lsad="47" data-mtfcc="G4110" data-name="Buffalo Springs" data-namelsad="Buffalo Springs village" data-pcicbsa="N" data-pcinecta="N" data-placefp="11155" data-placens="02413536" data-statefp="48"/></g><g fill="#000" font-family="Arial" font-size="12px" id="mylayer-label" stroke="none"><text text-anchor="middle" y="470.637873999"><tspan dy="0" x="514.596719098"><![CDATA[Buffalo Springs]]></tspan></text></g></svg>