<?xml version="1.0" encoding="utf-8"?><!DOCTYPE svg  PUBLIC '-//W3C//DTD SVG 1.1//EN'  'http://www.w3.org/Graphics/SVG/1.1/DTD/svg11.dtd'><svg enable_background="new 0 0 1000 1001" height="1001px" pretty_print="False" style="stroke-linejoin: round; stroke:#000; fill: none;" version="1.1" viewBox="0 0 1000 1001" width="1000px" xmlns="http://www.w3.org/2000/svg" xmlns:xlink="http://www.w3.org/1999/xlink"><defs><style type="text/css"><![CDATA[path { fill-rule: evenodd; }]]></style></defs><metadata><views><view h="1001" padding="0" w="1000"><proj flip="auto" id="robinson" lon0="-72.4557939964"/><bbox h="0.21" w="0.37" x="-972.69" y="-722.98"/></view></views></metadata><g class="" id="mylayer"><path d="M1000.000000,248.040906L998.308615,243.127603L860.825826,240.363870L761.503861,239.003938L758.471457,239.047807L756.208652,239.179413L725.389287,238.521381L719.763442,238.389775L706.527413,238.082694L700.916655,237.907219L696.439028,237.819481L686.932296,237.556269L683.399853,237.468531L679.997736,237.424662L671.218070,237.161450L551.038916,233.871293L371.684288,227.071636L301.399152,225.316886L297.794013,225.229149L268.989958,225.053674L241.288151,224.527249L189.489687,223.562137L0.000000,215.051603L6.948749,233.213261L17.174904,250.936246L23.208180,259.183580L34.996331,273.528685L47.652275,288.838914L62.141840,306.956762L67.647806,312.615851L74.908910,312.221031L81.558931,314.765428L87.356280,313.975788L95.498843,315.774413L109.331101,317.836252L118.129374,318.362679L124.947431,319.678747L131.526732,319.152320L136.050999,317.836252L142.051376,317.090481L161.117783,316.300840L173.914869,314.502215L186.311442,314.502215L194.236524,314.502215L201.726069,315.028642L208.741605,314.502215L215.486160,312.966803L221.666269,312.966803L227.202442,316.213102L229.266394,316.871136L231.076582,318.055597L232.666624,319.985830L236.219382,328.364796L239.396392,338.893345L240.370361,351.176657L240.513173,353.721059L240.874372,360.915574L240.980120,362.933549L243.046372,378.594791L245.950693,391.185209L246.292556,395.265032L246.115202,409.522485L245.736184,413.690050L245.714305,432.992466L245.847542,435.142054L246.070758,438.827063L247.253732,444.266839L249.441544,449.004710L251.810406,453.216151L256.083521,458.655931L261.751207,464.797619L266.652014,470.632225L269.653293,474.273370L271.448703,477.826778L273.111799,482.082094L273.232709,484.056210L273.835804,492.873930L280.319410,508.272047L283.222808,513.360886L288.625779,518.581333L295.696869,522.968265L304.986346,527.881630L318.621339,533.584644L335.833532,545.166153L340.102676,549.772437L343.663754,552.843294L346.727953,553.764551L353.859663,553.852289L362.782868,552.536208L371.672432,551.000780L378.515265,550.342739L382.120565,550.430478L385.880938,550.913041L388.894454,552.404600L393.684225,556.659930L398.767110,562.494560L401.713978,568.197582L404.189763,574.953473L405.850673,581.753235L407.023467,590.395516L407.509775,599.871320L407.559510,607.022045L406.922410,612.681210L406.784703,613.821817L404.493840,619.744201L403.878097,621.323503L400.263375,627.289758L393.488412,637.160404L386.874372,645.188533L381.295717,650.628359L378.208952,655.059187L375.341089,660.016450L373.589807,664.052453L371.862474,672.036722L369.311693,690.769056L369.167816,691.821928L362.320215,709.940103L358.191994,729.242776L355.841017,747.711940L355.436154,754.599494L356.120051,762.232838L357.771627,768.637829L360.718861,774.340905L364.584248,778.113709L371.928552,780.438810L380.887601,782.720042L390.253890,783.816788L403.987495,783.948397L415.552471,782.456823L424.978977,779.254325L434.870673,773.112550L444.419629,764.689546L453.856371,754.160797L467.032501,734.024577L480.993055,715.730903L491.931868,696.603721L495.774559,685.109871L495.571423,676.818511L493.443406,667.781369L494.859284,660.279668L496.333174,646.899446L496.765952,638.344882L496.170747,631.194146L493.663075,619.349375L494.600608,614.085034L497.379107,608.118783L501.513178,603.073792L519.725226,587.324654L526.472196,583.244796L552.916575,574.427040L556.020282,573.330304L561.146716,571.531658L573.864387,564.995116L590.597732,555.343849L602.686150,547.359622L611.267078,541.963690L615.606115,536.216804L618.998816,527.618414L622.081021,515.905305L634.513654,488.311527L643.937019,464.183450L647.217730,453.479366L653.233619,440.318614L661.648906,427.157870L663.940120,423.560601L671.708588,415.664160L678.704265,409.697961L681.901160,408.118674L690.371351,405.793612L700.377306,403.336943L709.113583,400.660928L714.244926,400.222238L718.641044,400.441583L724.970865,401.275096L733.959511,403.468550L759.356197,405.837481L826.242510,408.601234L832.874028,408.557365L845.032542,407.241292L855.604264,404.302063L876.589138,397.721700L895.504938,389.123363L908.174796,381.139195L914.838470,376.138124L919.964091,369.689377L925.286147,364.995392L932.102946,361.134919L938.116827,359.292421L945.725616,358.415041L954.684150,356.572543L961.936764,354.510701L970.364304,352.097906L984.918244,348.149698L989.900652,347.403925L992.302007,342.534469L987.731459,307.614796L999.831788,268.088950L1000.000000,248.040906Z "/></g><g fill="#000" font-family="Arial" font-size="12px" id="mylayer-label" stroke="none"><text text-anchor="middle" y="384.188443994"><tspan dy="0" x="504.070437594"><![CDATA[N]]></tspan></text></g></svg>