<?xml version="1.0" encoding="utf-8"?><!DOCTYPE svg  PUBLIC '-//W3C//DTD SVG 1.1//EN'  'http://www.w3.org/Graphics/SVG/1.1/DTD/svg11.dtd'><svg enable_background="new 0 0 1000 1001" height="1001px" pretty_print="False" style="stroke-linejoin: round; stroke:#000; fill: none;" version="1.1" viewBox="0 0 1000 1001" width="1000px" xmlns="http://www.w3.org/2000/svg" xmlns:xlink="http://www.w3.org/1999/xlink"><defs><style type="text/css"><![CDATA[path { fill-rule: evenodd; }]]></style></defs><metadata><views><view h="1001" padding="0" w="1000"><proj flip="auto" id="robinson" lon0="-73.8327048036"/><bbox h="0.56" w="0.68" x="-993.59" y="-716.68"/></view></views></metadata><g class="" id="mylayer"><path d="M1000.000000,379.831865L717.846972,181.085407L716.236186,186.531087L706.099474,214.452213L698.709406,234.109332L694.342919,247.389266L690.984116,260.334841L670.601701,277.173682L562.244882,238.217510L527.477617,183.736593L480.391282,138.045591L478.497208,136.708066L488.335340,113.540254L469.893061,86.503285L465.923458,88.007990L459.507720,90.109800L442.294773,95.006065L391.450583,110.602486L388.523173,111.844469L386.377931,113.516370L384.956088,115.044965L380.748094,122.664063L379.118815,125.076381L377.394830,127.990271L375.462177,130.020441L372.320160,132.623837L362.910793,141.699904L354.407869,150.847637L350.924877,155.576758L339.288091,173.131857L333.517733,181.085407L323.398223,196.037154L318.122327,201.936655L314.591648,205.089427L309.970488,208.815432L303.974612,213.305748L278.493094,231.529779L261.889695,202.844271L251.533535,185.456282L249.241504,181.324253L236.827970,161.356799L220.434496,133.841940L217.758220,129.447217L83.798490,89.560463L148.241655,189.731621L176.493082,230.192234L210.385009,282.332825L187.711227,291.146371L178.185557,295.015736L219.099854,363.542112L211.642387,368.247505L166.898569,398.534082L178.923554,423.231603L161.543095,434.266697L148.034208,442.937142L171.468560,487.197200L81.079672,544.714245L0.000000,594.755460L83.893833,663.213447L96.827062,670.952639L113.412388,688.509174L115.229482,689.727385L188.772943,767.143953L288.956752,870.359588L295.047674,876.403047L317.922384,895.895034L322.107897,899.430353L325.854378,902.631250L330.779930,908.149220L334.664292,912.496715L368.293166,890.138203L511.143361,804.216345L560.406962,774.596632L577.956928,764.325313L594.666814,757.565362L623.373537,739.459237L647.532753,724.697291L684.240223,702.888850L720.409009,681.319349L737.704351,671.095957L755.994472,660.060446L795.906548,636.723509L825.910647,618.761054L831.068846,615.655848L870.848450,592.414621L876.191739,589.118339L870.947385,582.406350L839.510033,544.284299L834.361532,537.811217L827.006866,529.355614L803.127679,501.050925L823.906310,467.682608L901.115880,474.585560L909.360453,475.326015L916.737146,477.141326L927.916573,479.362693L937.140773,483.566574L945.755602,483.924859L947.543545,482.539489L949.851726,481.082462L955.399695,477.881781L979.895734,437.443470L982.371197,433.502361L980.836307,430.612216L980.600767,429.919537L979.481522,427.602644L976.593141,425.930661L960.748371,416.758646L946.471670,408.494289L980.853747,390.078667L1000.000000,379.831865Z "/></g><g fill="#000" font-family="Arial" font-size="12px" id="mylayer-label" stroke="none"><text text-anchor="middle" y="480.149473396"><tspan dy="0" x="473.377848661"><![CDATA[N]]></tspan></text></g></svg>