<?xml version="1.0" encoding="utf-8"?><!DOCTYPE svg  PUBLIC '-//W3C//DTD SVG 1.1//EN'  'http://www.w3.org/Graphics/SVG/1.1/DTD/svg11.dtd'><svg enable_background="new 0 0 1000 1001" height="1001px" pretty_print="False" style="stroke-linejoin: round; stroke:#000; fill: none;" version="1.1" viewBox="0 0 1000 1001" width="1000px" xmlns="http://www.w3.org/2000/svg" xmlns:xlink="http://www.w3.org/1999/xlink"><defs><style type="text/css"><![CDATA[path { fill-rule: evenodd; }]]></style></defs><metadata><views><view h="1001" padding="0" w="1000"><proj flip="auto" id="robinson" lon0="-76.179186425"/><bbox h="0.47" w="0.75" x="-1025.86" y="-714.7"/></view></views></metadata><g class="" id="mylayer"><path d="M1000.000000,186.857615L844.192028,194.888536L784.204644,198.040460L526.127592,211.295833L521.907680,211.274244L511.988310,211.662839L494.859974,212.073022L492.208622,212.224142L481.503430,212.807034L471.924272,213.346749L422.173126,216.023735L421.459100,216.066912L420.709247,216.110089L417.825013,216.261209L297.413610,222.780973L278.818842,225.846559L246.653595,225.824971L163.836434,230.704007L146.542998,284.675966L128.848543,333.747776L116.816536,376.688703L112.690467,391.477394L109.663467,402.228907L106.692921,412.872497L102.477264,427.963548L96.385074,449.725831L90.056913,472.351798L85.469482,488.738417L79.401004,510.436197L55.355121,596.494200L41.436913,646.303167L37.110029,661.761969L27.404465,696.436499L17.499322,731.823771L13.203838,747.196479L12.618798,749.290799L12.277534,750.499890L11.143402,754.537396L3.055783,783.469352L0.667091,791.933061L0.000000,794.308084L24.727983,792.991026L45.335096,791.825106L117.954789,784.419360L144.517531,783.534125L214.927019,781.828431L341.315389,774.465882L345.530954,774.249972L346.682751,774.185198L426.269404,769.499946L431.170932,769.219263L499.053688,767.815847L503.955639,766.779479L501.583443,775.048840L511.445234,774.724974L511.705429,780.835242L525.749496,780.338647L525.694849,786.578468L552.631382,785.347776L606.637101,783.620490L610.960077,783.555717L625.928735,781.871613L617.226108,812.142385L664.538799,810.998052L679.875494,765.419246L757.972080,760.539683L758.241360,759.481726L759.551858,754.343078L775.010181,692.528585L780.702077,669.707294L786.866226,645.007739L803.022611,556.250130L812.413211,535.070309L812.367444,534.595329L812.472624,526.153653L815.183815,508.838546L820.024238,484.139795L821.104769,479.497998L821.245960,478.850306L821.510326,477.706050L823.186412,470.387135L826.866367,459.354808L832.666454,443.076234L834.635740,437.549304L839.283662,425.912544L842.691528,416.348400L846.087725,408.878449L850.802562,400.523344L855.165111,394.564673L862.263894,384.396088L866.604794,376.537578L870.266626,369.931258L878.125016,356.977714L882.099125,350.349830L883.001215,348.622696L885.361513,344.110560L886.755648,341.455095L887.011945,340.936955L889.244106,336.683896L890.494490,334.632929L892.446946,331.416152L898.161866,324.075863L905.122978,316.908297L912.539753,309.568029L917.155307,304.257136L926.520318,292.555921L934.718768,280.358188L939.217684,273.665639L945.190270,264.144965L954.610875,250.177023L956.082139,247.154599L957.913321,242.016482L958.980218,235.755758L958.515437,227.962247L959.040069,224.680773L960.531925,221.550421L962.163496,219.736976L964.066416,217.815589L968.299061,214.685242L971.797368,211.403776L980.971377,202.099104L988.647508,197.047387L991.515236,195.082832L995.299919,192.103618L998.545155,188.476751L1000.000000,186.857615Z "/></g><g fill="#000" font-family="Arial" font-size="12px" id="mylayer-label" stroke="none"><text text-anchor="middle" y="485.629677798"><tspan dy="0" x="466.415314306"><![CDATA[Y]]></tspan></text></g></svg>