<?xml version="1.0" encoding="utf-8"?><!DOCTYPE svg  PUBLIC '-//W3C//DTD SVG 1.1//EN'  'http://www.w3.org/Graphics/SVG/1.1/DTD/svg11.dtd'><svg enable_background="new 0 0 1000 1001" height="1001px" pretty_print="False" style="stroke-linejoin: round; stroke:#000; fill: none;" version="1.1" viewBox="0 0 1000 1001" width="1000px" xmlns="http://www.w3.org/2000/svg" xmlns:xlink="http://www.w3.org/1999/xlink"><defs><style type="text/css"><![CDATA[path { fill-rule: evenodd; }]]></style></defs><metadata><views><view h="1001" padding="0" w="1000"><proj flip="auto" id="robinson" lon0="-77.4080632563"/><bbox h="0.69" w="0.64" x="-1059.01" y="-665.81"/></view></views></metadata><g class="" id="mylayer"><path d="M411.415579,758.251546L291.502169,813.744693L259.219620,827.949874L225.127002,837.645158L219.880824,839.116338L213.082578,851.344059L209.240857,865.187777L210.338801,873.339705L212.440103,891.259609L252.473657,886.460047L252.259171,894.153823L252.077318,900.304045L278.858730,900.086978L285.864163,899.218711L289.031070,910.120327L298.496728,910.192683L301.272382,910.192683L302.756036,923.192710L294.595046,959.419644L325.454725,946.105796L327.733016,950.881403L326.961939,954.836967L324.292254,968.150882L332.896518,967.957926L334.631350,975.965618L355.758694,976.013857L367.353607,976.013857L422.384842,960.890926L428.792556,959.106092L435.680087,971.889409L435.743008,977.075121L435.745935,977.316317L436.886287,984.335144L438.238525,988.049586L438.911203,990.919842L439.982953,995.526733L463.077183,985.058736L467.580014,983.008559L476.397088,980.886026L473.006835,999.000000L508.023756,986.674759L507.759215,981.754335L506.427468,957.683049L506.337143,952.835065L507.974511,951.822055L513.631878,948.228286L508.024324,938.074122L505.311360,933.177954L501.221540,925.773432L489.926751,905.344832L490.623024,902.691785L493.370392,891.886688L493.641043,889.523083L493.911697,887.159480L492.691529,883.276425L492.085242,881.322842L490.771291,880.430466L488.297811,878.718068L486.453664,878.259821L484.838159,877.825693L484.488644,877.246855L473.783893,859.640630L464.392712,844.181064L462.239747,840.635754L444.033053,810.705909L441.612365,806.823026L436.135661,797.947897L430.698229,789.386335L427.336686,783.863547L423.742199,777.954907L417.143153,767.391755L413.707502,761.917271L411.415579,758.251546Z M469.261916,0.000000L457.531891,6.556833L439.866580,12.149446L421.012396,18.079564L417.746932,19.260769L407.973326,22.732070L404.695774,23.889172L404.394402,37.774454L404.211159,46.163533L403.831902,79.286334L403.828465,79.672047L403.699227,93.075636L403.652734,95.534579L403.513281,102.911430L403.447123,105.370388L401.047523,109.613303L387.182682,122.197465L373.310386,136.179976L365.586858,144.015053L342.458849,167.448175L334.723306,175.259287L322.105970,188.133234L315.437374,194.931874L285.863898,225.019797L277.506958,224.368851L261.719501,240.184503L253.493135,248.429916L228.782383,273.142283L223.341686,278.542887L222.424182,278.518777L214.922191,278.277678L198.504138,277.723151L193.033985,277.530272L192.576783,277.482053L191.185491,277.337393L190.716199,277.265064L189.467143,281.918273L185.727646,295.853865L185.364562,297.131701L182.769802,296.745939L182.150637,296.649499L180.281051,296.336067L179.649796,296.215516L179.160220,296.770049L178.534262,297.445133L177.632442,298.433649L177.130777,298.964073L166.458490,296.914710L147.322640,293.177643L140.607457,291.875700L137.524560,299.976700L133.248730,311.115637L132.155879,313.960659L130.134653,320.253477L123.992380,339.132072L122.255280,344.460550L121.959155,345.400872L120.543251,348.896943L121.118562,348.945165L130.523461,349.644380L130.908130,349.547936L131.292799,349.451493L134.957844,348.438837L137.295067,349.017497L138.503046,349.306828L134.044880,356.588325L132.240419,359.505755L141.118469,356.877657L140.300154,359.288756L139.819012,360.566640L138.316541,364.400297L137.803629,365.654074L139.633028,366.907851L145.121238,370.669189L146.938555,371.898859L148.799739,373.176753L149.071628,375.563763L150.843089,390.753909L151.433615,395.817321L151.694080,404.304596L152.483377,429.742563L152.731957,438.205894L152.812434,439.700846L153.034192,444.185709L153.102584,445.656553L153.226670,447.513195L153.598944,453.083132L153.703357,454.939782L153.206498,455.205018L151.652370,455.952501L151.143419,456.193624L149.354500,457.061670L145.382986,458.797762L142.393097,459.979270L139.897242,460.654418L135.784236,461.401903L117.881525,464.560635L114.339341,465.308123L109.923217,466.393185L104.926996,467.695261L99.333817,469.455476L89.975214,472.734786L81.451180,475.676526L79.071741,476.544581L74.515877,478.136016L72.800470,481.584132L69.022430,489.083204L68.111515,491.976746L67.952105,492.483116L67.584751,495.400776L67.531353,495.883034L67.663954,498.463119L67.581345,499.475863L67.318493,500.560947L67.077001,501.453128L61.837376,516.909629L59.964441,522.359224L58.399388,527.206003L53.684624,541.746419L52.650938,544.905298L51.930375,546.569138L54.249594,545.267003L63.754640,544.398913L63.467884,545.122321L59.787035,554.502540L50.357710,553.441536L45.926636,573.335474L42.819265,587.273424L47.345897,588.213878L60.940985,590.987015L65.475215,591.903356L63.437688,601.066800L57.320908,628.509195L55.271491,637.648718L66.103415,640.446049L98.567515,648.813954L102.034377,649.682096L108.703078,641.000693L116.509222,631.957611L116.136595,630.076656L114.626662,622.239365L132.171745,603.454127L136.564201,605.696770L137.380036,606.106715L144.964234,610.592011L145.451602,610.857271L146.874339,611.653050L147.342023,611.918310L148.067028,612.304143L150.222361,613.461642L150.935271,613.823360L151.658621,614.402110L153.851440,616.066016L154.582380,616.620652L156.902324,618.381020L153.421612,621.998218L134.084607,642.037636L127.632405,648.717493L124.380576,652.045374L114.616094,661.932594L111.352182,665.236386L111.694185,665.525769L112.727781,666.369804L113.077372,666.635073L117.618215,669.094836L110.753258,677.149378L112.348916,677.583456L144.712064,686.023887L140.163944,698.539917L138.508893,703.049568L133.634084,712.912964L137.030515,712.816500L137.742031,713.057660L139.840287,713.708790L140.547293,713.901718L143.414896,714.359922L152.013199,715.686300L154.868707,716.120388L159.048829,717.036796L164.724008,712.575341L169.348061,713.081776L171.007105,713.877602L178.902701,717.687929L188.333524,717.181492L197.946634,715.782764L202.423675,714.191110L205.795910,714.046414L210.180267,715.252213L214.733584,715.107517L219.859610,716.771520L220.132121,716.843868L225.347336,716.409780L230.949524,721.691192L234.131065,721.401800L235.499598,724.247498L236.024334,725.332723L237.189845,726.007975L237.991171,725.525652L238.538032,725.163910L242.659898,722.511139L268.381888,705.822889L277.934517,708.933836L279.669441,709.488502L302.521649,716.940332L279.899184,746.241529L266.519544,763.557203L259.862367,772.142754L283.251921,778.389010L286.029280,770.309880L285.949661,769.248743L287.480068,767.512339L288.691193,765.414186L290.686336,761.386705L296.013861,750.582490L298.120805,747.013255L302.866696,736.619106L304.413195,730.951789L307.436535,719.713675L312.984144,710.838993L314.252031,702.928989L321.602910,694.392012L332.880248,678.692768L336.665833,673.917910L342.398770,666.707419L343.085272,665.839268L344.262866,664.223544L344.838020,664.585273L345.451523,664.199429L346.244641,664.681734L350.030412,666.538611L351.864963,667.527339L353.796298,668.708990L355.224859,669.987103L356.576120,671.385794L357.931689,673.146218L360.731831,677.197609L362.832772,680.718469L366.143938,686.023887L376.057915,701.940241L382.574677,712.261833L388.064380,720.967710L393.201652,729.167191L408.582071,753.741751L411.415579,758.251546L431.524154,750.896004L441.153510,744.939244L484.915086,717.832625L502.719658,706.787523L500.933306,703.580116L495.557693,693.885583L493.766865,690.629968L547.863878,657.326590L550.928076,663.041896L555.735584,672.977410L558.936862,670.059449L559.182294,669.842411L586.184308,648.645148L603.816815,634.393210L609.760138,629.329097L610.344916,628.846802L617.612403,622.576971L618.011642,623.372756L619.212436,625.687769L619.430204,626.121834L619.826965,626.049490L622.160575,625.639539L629.203845,624.337344L631.525356,623.903279L634.626839,630.438378L643.818499,649.151564L644.117896,649.826786L647.125624,656.410213L650.933935,663.765354L652.771564,667.310301L662.930386,685.203958L666.960120,692.293948L670.123402,697.382361L675.996201,706.811639L677.145711,709.102648L678.554767,713.009428L678.639294,713.491747L679.856094,720.075416L679.889154,720.533621L680.102684,723.234622L680.803126,732.712273L680.887320,733.821620L680.783191,735.967967L680.758651,736.546757L680.460408,739.247783L679.768136,742.575838L679.279357,744.818662L678.898541,746.217413L677.830489,750.051927L674.525852,762.689003L672.752231,769.393443L701.645832,744.866894L741.097153,705.485267L749.553023,696.248922L756.564011,687.663747L734.541117,688.338984L735.162450,679.416232L773.168315,664.223544L776.060839,658.218851L773.791334,637.021731L770.266778,613.558100L764.596645,612.810548L745.637515,610.567896L731.116003,609.048682L730.201501,608.952224L727.079483,608.614621L725.518474,608.445820L717.713431,607.601813L714.599000,607.240095L714.232127,605.527968L713.652393,602.803037L714.786829,599.885196L715.557336,597.811361L719.824910,587.249310L726.090990,584.162695L745.591502,575.361051L740.978277,537.719459L740.779409,536.224422L737.299305,532.583290L736.404929,531.859887L751.983078,497.739730L752.750964,497.426262L762.962012,495.690131L787.376823,492.290213L788.310793,481.752921L803.266763,456.868771L810.768157,452.046303L804.022982,443.269445L793.392866,434.203288L776.847817,424.293261L761.707798,416.673911L749.723861,408.283021L740.033694,404.111703L738.237052,403.316020L723.177345,401.821099L700.951220,400.519073L677.179371,399.000044L678.199676,395.383313L679.831347,392.200596L697.684868,393.261501L737.811447,395.600317L750.432994,397.649797L758.126350,399.409941L758.536619,399.482276L781.255077,400.470850L785.873708,419.880785L787.581697,421.833847L793.511245,425.571193L839.039826,447.898991L857.245941,451.781067L858.310627,449.273390L859.420621,446.934501L843.364779,442.787202L843.804426,442.015612L845.913262,438.254118L849.724434,435.963469L853.890291,437.361970L853.220547,442.304958L857.378739,441.726266L858.958827,440.520658L876.930703,441.581593L884.254206,442.015612L887.618449,442.208509L906.500293,443.317670L957.180735,371.778303L861.273776,362.929522L845.901384,362.616078L810.989923,361.844525L782.508902,394.298296L781.552711,395.335090L779.950998,397.047009L774.162078,370.162855L773.005368,366.208629L752.572088,363.025966L763.499480,341.880696L761.962615,330.693338L755.635831,329.970020L720.832710,322.977962L720.357486,322.736857L718.887946,321.965321L718.400630,321.700106L714.068933,321.579553L713.796457,321.507222L711.901222,321.025012L710.160624,320.301698L711.401845,317.046789L715.058902,307.306209L716.288053,304.027214L721.090591,291.586379L735.482120,254.192085L740.272906,241.727502L742.058621,237.556588L747.399229,224.971579L747.640477,224.392960L744.789856,224.007215L747.016210,216.436971L748.083848,212.796515L750.856010,212.868842L753.733914,203.104744L758.487828,203.321723L761.134296,203.418158L763.908437,199.608969L763.122538,199.729513L759.364566,199.850057L745.765006,200.284014L741.231818,200.428667L742.013826,196.257854L743.588562,187.819822L744.505286,183.721365L745.248799,180.297955L745.459983,179.502375L738.944201,180.442606L719.624039,183.166869L719.545019,183.480280L717.524283,191.146812L709.953011,189.001144L709.415681,188.832384L709.289811,197.294529L699.637108,201.320692L691.413874,208.432800L683.069462,215.617265L676.833720,214.918104L652.780989,212.169682L655.881215,202.887764L660.174936,189.941381L648.526153,201.055495L641.256893,207.950623L639.294900,175.307504L639.232923,172.004653L639.020665,161.180025L685.948290,126.295775L700.202893,137.216614L719.661903,109.806163L695.446188,98.017634L678.995803,89.507764L669.075463,97.631916L662.090955,93.437245L641.042272,80.780973L647.848661,70.921199L648.934162,69.474782L652.151307,65.135539L653.224724,63.665020L652.708818,63.303418L651.102056,62.218610L650.574063,61.832900L649.168831,63.544486L645.414060,68.028367L644.826060,68.582826L643.960801,69.330141L643.129341,69.595317L641.995056,69.884600L641.325865,69.884600L640.354169,69.595317L639.123823,69.064965L638.209782,68.655147L631.698156,77.454197L628.252114,82.082757L618.412427,97.197984L612.932149,104.285553L606.245217,112.891926L603.839488,112.843711L596.622302,112.699066L594.204486,112.626743L595.672153,110.529388L600.043398,104.213231L601.479303,102.091779L602.730160,100.307832L606.466159,94.883682L607.704935,93.075636L609.075601,91.098841L613.230075,85.096149L614.588661,83.095256L618.092368,78.346158L623.727735,70.704237L625.831791,68.148901L627.365818,66.340883L628.358158,65.689997L629.160951,65.328394L627.845999,64.629295L623.889059,62.507892L622.562022,61.784687L621.946319,61.302550L620.114402,59.807928L619.486613,59.301685L614.736907,62.507892L608.187249,66.991770L574.274001,90.110445L564.954850,96.450657L566.410376,97.390843L567.044381,97.752453L569.041706,98.909605L576.950904,103.417686L579.570159,104.912346L556.686258,104.454305L555.591648,104.430198L548.616399,98.644424L548.161246,98.089956L546.783700,96.402443L546.316460,95.823867L545.505959,94.835468L543.054778,91.870273L542.232193,90.857769L536.984894,84.710434L521.243239,66.268563L520.824365,65.786425L515.881393,65.545356L512.826182,65.497142L512.576924,66.413204L512.425018,66.895342L511.702077,69.064965L511.381688,69.956921L514.596074,69.812280L517.115052,70.125670L511.277938,89.652407L510.240571,88.447047L506.685426,84.300613L504.098082,84.204184L496.323964,83.890791L493.724534,83.770256L494.102903,82.444364L495.204859,78.322051L495.578740,76.947949L498.738058,67.232839L499.254544,65.593570L501.208951,58.578482L503.551042,38.714607L504.639153,29.264884L504.117274,23.238302L503.791243,19.525938L490.126535,21.791925L484.378404,22.732070L480.984843,23.382939L474.792665,24.732892L469.719587,25.841783L469.648741,21.382119L469.550973,16.633192L469.429732,9.835259L469.382764,7.111273L469.319573,4.001594L469.261916,0.000000Z " data-aland="8098411" data-awater="14947" data-classfp="C1" data-funcstat="A" data-geoid="2477825" data-intptlat="+39.6202443" data-intptlon="-077.4078638" data-lsad="43" data-mtfcc="G4110" data-name="Thurmont" data-namelsad="Thurmont town" data-pcicbsa="N" data-pcinecta="N" data-placefp="77825" data-placens="02391445" data-statefp="24"/></g><g fill="#000" font-family="Arial" font-size="12px" id="mylayer-label" stroke="none"><text text-anchor="middle" y="464.824625454"><tspan dy="0" x="449.329076518"><![CDATA[Thurmont]]></tspan></text></g></svg>