<?xml version="1.0" encoding="utf-8"?><!DOCTYPE svg  PUBLIC '-//W3C//DTD SVG 1.1//EN'  'http://www.w3.org/Graphics/SVG/1.1/DTD/svg11.dtd'><svg enable_background="new 0 0 1000 1001" height="1001px" pretty_print="False" style="stroke-linejoin: round; stroke:#000; fill: none;" version="1.1" viewBox="0 0 1000 1001" width="1000px" xmlns="http://www.w3.org/2000/svg" xmlns:xlink="http://www.w3.org/1999/xlink"><defs><style type="text/css"><![CDATA[path { fill-rule: evenodd; }]]></style></defs><metadata><views><view h="1001" padding="0" w="1000"><proj flip="auto" id="robinson" lon0="-81.1708171319"/><bbox h="0.33" w="0.67" x="-1108.43" y="-671.79"/></view></views></metadata><g class="" id="mylayer"><path d="M1000.000000,364.806482L955.482821,342.595850L950.944762,349.229193L944.763895,356.930864L940.267730,361.750638L935.739242,366.545583L926.402040,374.793916L916.190678,381.650997L902.685203,388.557798L895.440905,391.688228L891.972014,392.980154L885.592212,395.116802L879.215983,396.880782L875.392631,397.775195L871.709371,398.495694L870.644865,398.694453L870.080755,395.961525L875.824593,390.520527L873.699177,390.967732L870.998998,391.489471L854.981058,392.930465L875.844413,374.893294L844.048933,355.763189L826.109301,367.787799L823.747990,368.210153L818.363196,369.328148L822.906124,360.086075L787.870810,356.955708L781.304168,369.601436L779.395510,374.595161L776.090706,382.520557L774.696962,386.470848L773.165521,390.346615L772.139385,393.327980L770.084719,398.694453L768.805941,401.700679L781.579016,404.508152L784.254103,405.328034L784.954614,405.725553L785.762901,406.346677L726.683038,414.992741L710.503369,417.154265L696.238384,419.191566L692.556287,419.787849L685.568081,420.831346L661.523651,424.160603L650.989844,425.999151L641.630721,428.036463L635.655542,429.576872L626.697565,432.235323L615.519552,435.862749L613.685090,436.533575L613.961673,435.291304L613.562778,426.396675L613.293291,420.558049L612.325747,399.290729L611.593159,381.973977L612.181107,381.377707L614.930461,378.296986L618.618636,373.700761L539.115121,323.366765L518.745888,310.497820L514.671352,307.914106L516.288262,303.665894L519.004701,296.461350L520.245550,293.206895L526.780479,276.015532L506.482370,274.276532L497.916274,273.481561L463.976402,270.425896L457.891297,269.879355L382.147364,262.824023L380.873338,262.799180L350.774850,259.942276L348.008906,259.693850L342.570414,259.221841L333.981234,253.731635L328.371226,254.973761L326.217032,255.445769L294.396133,262.997921L257.983491,297.479922L251.585792,297.256333L241.391146,296.883685L233.852301,296.784312L220.484576,296.163232L125.109523,292.809404L29.299972,289.356212L29.298486,290.747425L28.597924,296.983058L28.331904,297.951943L27.694420,300.262364L26.132202,304.286977L24.503064,307.665673L22.334988,311.615774L20.814890,314.671520L19.975090,316.857749L19.603639,318.199300L19.184074,320.708499L19.171869,321.950679L19.271129,322.621457L19.668486,323.615201L19.620672,329.726746L21.629925,350.670148L22.631818,368.085931L25.284210,412.036179L26.378556,412.955446L53.562764,435.490068L63.381036,443.614537L62.772415,481.131745L0.000000,658.940745L6.375457,658.990443L15.317217,660.183193L42.315963,660.953511L85.958723,662.171111L75.432709,675.937518L72.902681,679.093372L48.313364,705.284718L37.872432,717.411410L38.734888,719.623050L48.836700,745.268365L52.939233,744.150102L75.730880,739.527953L106.024698,733.365110L121.530829,730.184297L134.487518,727.500491L151.307254,724.046340L173.500034,719.449101L182.895462,717.908407L240.805502,708.390931L253.547861,706.402954L257.107955,705.806562L259.817261,717.212611L263.282504,715.025824L275.579674,707.173295L278.246259,705.483516L281.773805,695.444275L282.663210,693.108421L372.765146,697.457088L374.762610,697.631035L383.141245,673.204106L383.989859,670.445850L413.106029,672.061044L437.632171,673.402900L448.134648,644.851454L463.552882,602.932214L467.512964,603.081302L471.359382,604.050377L537.960012,607.032149L539.143146,607.206086L532.954095,629.544714L532.253342,636.030181L531.746837,643.932051L535.317679,678.323044L606.884062,679.863699L614.917875,653.921265L616.384013,649.572719L616.953715,647.883001L620.639707,634.837449L611.180226,608.796367L632.804522,609.989079L633.651935,607.355175L637.736949,593.912393L708.795731,596.894146L744.013776,598.161393L744.493546,595.651748L744.985160,592.322127L745.377352,588.744034L745.575605,585.439275L745.659063,575.351107L745.676872,574.332355L745.952369,566.753853L746.171152,564.293953L746.918866,559.299624L748.041400,554.280463L750.417312,546.329350L761.358261,514.127755L762.989858,509.108739L764.882382,502.772875L766.050758,499.368912L773.082250,499.766454L783.995867,499.940379L795.351367,500.313076L800.483676,500.487001L796.777495,510.872846L808.014433,510.872846L811.208119,500.859698L824.847175,501.282087L827.497148,501.331780L829.104859,497.107889L830.224065,493.306397L840.687408,493.306397L845.086671,480.262131L833.373221,480.286977L834.509146,475.591068L801.527744,474.696610L799.372133,472.336239L801.718970,470.447945L806.483283,466.522288L836.251957,468.311194L843.675690,463.441400L854.235973,449.453248L859.031014,440.185856L878.395996,439.987093L882.399706,433.005529L884.528302,426.694818L884.805762,421.527011L883.465465,415.663559L897.598354,408.706948L896.693253,411.390209L902.079333,411.837419L927.776307,412.781531L936.103752,401.973973L989.278944,397.675815L1000.000000,364.806482Z M491.752076,389.949100L500.986641,389.849721L524.213242,386.893207L583.712045,393.899409L594.233816,396.259662L593.499785,396.806247L591.397081,398.272091L580.010631,406.197607L577.114028,408.085824L574.325196,409.775283L569.770145,412.234940L565.264192,414.247389L560.639694,415.887164L557.467687,416.781588L550.359708,418.421366L542.613491,420.384133L527.880221,424.533282L518.216897,426.868735L503.718311,429.899861L490.333334,432.707384L491.752076,389.949100Z " data-aland="5032808" data-awater="32028" data-classfp="C1" data-funcstat="A" data-geoid="3903926" data-intptlat="+39.9888472" data-intptlon="-081.1726329" data-lsad="47" data-mtfcc="G4110" data-name="Barnesville" data-namelsad="Barnesville village" data-pcicbsa="N" data-pcinecta="N" data-placefp="03926" data-placens="02398034" data-statefp="39"/></g><g fill="#000" font-family="Arial" font-size="12px" id="mylayer-label" stroke="none"><text text-anchor="middle" y="481.286152925"><tspan dy="0" x="375.883334792"><![CDATA[Barnesville]]></tspan></text></g></svg>