<?xml version="1.0" encoding="utf-8"?><!DOCTYPE svg  PUBLIC '-//W3C//DTD SVG 1.1//EN'  'http://www.w3.org/Graphics/SVG/1.1/DTD/svg11.dtd'><svg enable_background="new 0 0 1000 1001" height="1001px" pretty_print="False" style="stroke-linejoin: round; stroke:#000; fill: none;" version="1.1" viewBox="0 0 1000 1001" width="1000px" xmlns="http://www.w3.org/2000/svg" xmlns:xlink="http://www.w3.org/1999/xlink"><defs><style type="text/css"><![CDATA[path { fill-rule: evenodd; }]]></style></defs><metadata><views><view h="1001" padding="0" w="1000"><proj flip="auto" id="robinson" lon0="-101.219842565"/><bbox h="0.12" w="0.16" x="-1322.91" y="-795.01"/></view></views></metadata><g class="" id="mylayer"><path d="M1000.000000,127.317163L827.460556,126.807882L676.519794,125.789319L597.305692,125.381894L427.419756,125.076325L215.433622,125.076325L159.971115,125.178182L96.569422,287.435226L151.432528,282.036844L164.494182,282.036844L180.093419,280.101574L219.066410,277.045886L231.712477,276.434748L189.529883,369.735097L179.460767,377.476174L168.482347,374.216773L137.836730,377.170605L117.182595,355.984500L75.817355,313.408576L61.323929,298.537560L45.550262,347.937854L25.448512,375.642761L0.000000,422.089223L419.127919,871.173555L538.928749,869.340142L616.240942,873.923675L624.732344,857.422957L813.449457,491.351492L1000.000000,127.317163Z " data-aland="478983" data-awater="0" data-classfp="C5" data-funcstat="A" data-geoid="3815140" data-intptlat="+47.5424570" data-intptlon="-101.2211852" data-lsad="25" data-mtfcc="G4110" data-name="Coleharbor" data-namelsad="Coleharbor city" data-pcicbsa="N" data-pcinecta="N" data-placefp="15140" data-placens="01035974" data-statefp="38"/></g><g fill="#000" font-family="Arial" font-size="12px" id="mylayer-label" stroke="none"><text text-anchor="middle" y="429.33243386"><tspan dy="0" x="491.374898274"><![CDATA[Coleharbor]]></tspan></text></g></svg>