<?xml version="1.0" encoding="utf-8"?><!DOCTYPE svg  PUBLIC '-//W3C//DTD SVG 1.1//EN'  'http://www.w3.org/Graphics/SVG/1.1/DTD/svg11.dtd'><svg enable_background="new 0 0 1000 1001" height="1001px" pretty_print="False" style="stroke-linejoin: round; stroke:#000; fill: none;" version="1.1" viewBox="0 0 1000 1001" width="1000px" xmlns="http://www.w3.org/2000/svg" xmlns:xlink="http://www.w3.org/1999/xlink"><defs><style type="text/css"><![CDATA[path { fill-rule: evenodd; }]]></style></defs><metadata><views><view h="1001" padding="0" w="1000"><proj flip="auto" id="robinson" lon0="-91.0367060467"/><bbox h="1.93" w="2.23" x="-1280.81" y="-560.76"/></view></views></metadata><g class="" id="mylayer"><path d="M1000.000000,446.690813L999.853206,446.698327L982.178076,447.111595L977.482086,447.216791L960.087010,447.705198L955.285351,447.893047L949.815959,447.998242L948.738334,448.028298L944.453221,448.125980L925.025473,448.576817L919.952446,448.659470L919.208073,448.689526L915.702407,448.809749L911.153442,448.884889L901.841998,449.207989L895.216392,449.440921L894.425829,449.478491L890.292333,449.508547L890.493410,448.727096L892.455934,441.318321L894.606251,434.195042L895.046199,432.827489L899.852450,432.797433L903.434528,432.782405L906.530274,432.774891L911.258897,432.752349L948.971059,432.519414L952.465584,432.459301L953.104031,429.558882L954.284272,425.568917L962.043170,399.855558L958.553530,399.855558L955.543926,399.848044L951.266155,399.855558L935.699894,399.870587L918.930997,399.848044L915.950655,399.848044L913.674529,399.848044L909.887194,399.855558L904.884408,399.848044L905.355115,398.157349L905.600029,397.398414L907.894726,390.342556L912.409579,375.186251L915.976408,363.456353L917.864244,357.046575L919.077697,352.943701L922.061857,343.791097L922.462094,342.430977L912.228532,342.400919L901.982638,342.348317L888.098241,342.310745L874.201512,342.250629L870.475226,342.243114L855.345914,342.205542L854.879437,342.122883L850.485467,342.228085L836.780502,342.265658L819.713041,341.018253L819.090826,340.995710L817.724272,341.003224L816.343209,340.995710L815.690761,341.055826L814.937470,341.138485L814.985119,340.995710L818.942307,326.620421L819.928572,323.020941L824.132232,307.600943L826.489916,299.116871L828.202427,292.924745L837.947141,257.432248L840.972766,246.385290L841.574704,244.048134L842.277787,241.470495L843.673587,236.307688L844.941803,231.888852L848.322335,231.873822L851.914946,231.821216L853.432317,231.813701L854.763005,231.821216L856.854928,231.783641L881.198740,231.197468L887.810394,231.032137L894.070417,231.017107L900.542518,230.964502L913.134091,184.205171L925.749911,137.459402L927.701693,130.229458L929.859419,122.202827L926.990228,122.232889L915.526286,122.330592L910.196290,122.413264L903.689748,122.390717L886.181296,122.563575L878.958984,122.646247L876.624166,122.676309L867.291430,122.774012L856.773091,123.014511L843.496375,123.119729L843.192431,123.127245L841.989480,123.134760L840.183001,123.142276L839.598585,123.119729L838.800418,123.097182L835.607501,123.029542L834.583012,123.006995L832.958849,123.014511L827.184415,123.112213L821.375702,123.089667L819.412053,123.097182L823.626365,109.065513L827.868563,95.003648L830.531037,86.150091L833.212493,77.296481L836.651891,66.654040L833.905054,66.804358L833.902769,71.276296L827.810798,72.599085L825.510951,75.477651L825.458406,74.748615L823.515230,73.688882L821.297883,72.599085L818.759382,71.186106L817.206530,70.449552L816.671469,71.253749L816.541520,71.441645L813.354471,71.419097L811.207021,77.131133L804.877373,79.273140L807.944455,70.434521L807.483040,69.728030L804.116152,71.712215L802.841583,69.344721L799.307642,71.276296L787.744140,77.612145L786.796322,73.403280L785.249110,74.207475L776.808631,77.514439L770.740069,80.099879L770.725031,79.761668L770.647608,79.010087L770.384026,76.559930L770.228337,75.688094L769.503202,71.990302L769.475481,71.847501L742.206630,82.001377L741.258945,86.307922L739.811365,91.275841L737.352459,99.144810L734.974879,104.826675L733.319533,109.275951L733.123375,109.388686L732.501329,110.102674L731.115658,113.123963L727.935657,120.662130L727.285176,122.601153L726.506446,127.561435L726.113987,128.545974L722.107944,138.000519L715.633986,150.957206L710.431418,162.305487L705.501785,176.441868L699.405839,193.907364L695.896880,203.970223L693.189823,211.658231L692.438941,213.792530L689.338813,222.164360L685.260131,229.965001L685.048598,230.521114L684.855494,230.926926L684.735474,231.167408L678.284809,242.357263L675.942004,246.513044L674.052140,249.887260L670.501588,256.192288L660.942504,255.095109L650.115166,253.840117L639.344928,252.540034L637.875473,252.382220L636.213794,252.171802L626.966633,250.541060L617.855631,248.917831L605.755247,264.999743L586.100529,291.113694L567.077624,310.712008L553.246293,324.959702L546.276757,332.128585L533.338220,345.444281L526.366957,352.207287L525.195571,353.341966L518.065441,360.262739L500.687384,377.117430L471.026296,405.874417L446.215364,422.473118L437.513047,428.289007L426.877684,434.743566L422.512531,437.396013L409.419258,445.345814L405.054111,447.998242L404.389508,448.403996L402.414805,449.598714L401.758667,449.996953L400.205415,455.639916L399.821282,457.052532L389.337450,492.870921L378.673787,529.229437L373.621377,546.435375L368.507550,563.941653L368.066586,565.399248L367.574627,567.119809L347.697493,587.315600L339.570125,594.731175L335.804981,598.157203L326.183104,607.563715L316.628771,616.932603L293.665489,637.668670L291.184692,639.764801L290.196120,640.486049L276.637855,650.305512L268.709840,657.532957L264.808583,658.562227L258.958046,662.175934L254.872116,665.624350L250.755960,670.958485L242.958377,677.149063L238.034956,679.906266L233.235504,684.038306L232.500034,684.211100L228.020439,687.824747L223.083577,690.063550L217.866444,695.052014L212.573177,698.500356L206.287319,701.250008L203.654322,702.872751L196.255192,707.447976L190.763167,708.650004L186.041875,711.925523L181.432156,717.770355L176.042998,721.571738L156.143555,731.030078L147.898984,732.247112L141.952692,734.996703L132.244526,740.683685L120.386293,745.499197L118.221545,747.046768L117.477756,748.421551L118.087252,750.487480L120.091658,751.862260L126.868951,754.476593L135.218212,757.721965L138.280320,759.592558L137.412631,762.004043L143.108187,765.444721L144.605230,765.617506L146.841889,764.408011L149.444222,763.716870L150.978669,764.933878L162.324819,766.646703L162.468529,766.736851L162.787161,766.939686L163.247329,767.240181L163.922094,767.668387L163.234670,769.478869L163.122792,769.756827L163.053692,769.952148L161.762944,773.347735L157.547114,775.398605L155.623054,776.788388L150.504264,783.459326L148.751190,791.039220L142.039557,791.174440L140.523509,792.436500L140.069904,793.938951L142.677522,811.487468L135.700927,814.146772L108.792963,824.723846L105.008192,826.241290L97.623893,829.201051L84.896107,834.196576L67.158456,841.400619L57.848250,844.908728L57.302677,845.164136L55.032340,846.185768L52.788794,835.398504L47.788497,836.878377L45.063159,834.234136L50.000639,831.319456L48.064786,825.294766L33.687405,829.644264L32.029143,816.422953L41.712449,813.538288L44.169300,811.915662L51.534394,804.328359L53.980310,803.156455L61.948648,797.852829L63.459856,799.498006L66.114159,798.649125L65.976183,795.366278L73.205778,791.159416L85.044136,779.350091L91.662516,771.822727L94.649198,768.434649L106.579345,754.874752L103.770241,754.281269L100.632446,754.454055L78.189009,764.423036L73.149743,765.820340L58.853418,766.000638L52.308632,770.057321L49.430631,772.461277L46.842320,774.624834L25.535357,785.968433L23.558013,788.041823L21.740428,793.713584L22.154138,795.261107L21.785643,800.076448L20.554249,800.767572L15.871489,800.932840L12.227523,804.027871L6.406485,811.081811L2.100962,814.702672L0.000000,817.790162L0.533325,818.316011L3.383777,817.962941L2.685963,820.374334L2.084950,821.125546L12.050829,825.197108L26.690606,831.199263L27.451969,835.849227L27.567789,836.818280L28.047869,840.897313L28.637580,844.510592L29.302069,855.147553L34.072756,855.004826L40.921781,853.960664L42.153132,853.269563L61.008951,853.156884L88.471549,842.880486L89.610134,842.444789L90.954776,841.948996L105.749479,836.547847L117.225980,832.138271L131.829699,826.549285L141.361864,823.056159L143.752222,822.184754L146.182717,821.283300L150.261100,819.750828L178.043361,809.346500L189.230339,805.154700L214.898987,795.403839L234.613418,788.169532L232.430714,798.844443L229.652674,798.273514L225.434812,798.897028L223.485208,799.310201L221.964174,799.633226L218.771854,799.190005L216.465172,803.967773L215.519007,803.629724L214.689100,803.607187L214.274262,803.584651L213.211760,803.757431L211.672509,804.426017L207.715974,806.754797L204.647605,808.535185L202.434801,809.879864L197.773408,812.666878L191.349190,816.460514L191.586584,817.639919L191.676111,817.700016L191.928229,817.850259L191.801163,819.615609L190.054380,826.436604L187.887953,834.534618L187.919480,835.143094L188.164396,835.383480L185.374706,845.614856L203.056993,846.689071L201.891400,849.370851L201.193284,851.023485L209.922856,851.609419L211.221606,851.707075L212.366676,851.662003L213.435361,851.707075L214.027333,851.834778L215.414244,852.127745L209.553826,858.017116L201.228819,866.730940L183.488264,884.842015L176.773195,891.925633L174.221389,894.464611L179.152358,894.442076L184.881831,894.442076L189.622634,894.359446L199.489371,894.254281L221.423159,894.134093L222.865561,894.126581L231.071944,894.021417L239.994615,893.983858L247.924272,893.878693L257.356595,893.818599L270.500458,893.668364L276.678860,893.638317L273.810116,903.538792L273.710264,904.297475L270.196035,914.821350L274.411738,912.748130L281.448615,909.270221L285.377999,907.317181L289.956163,905.056158L292.653047,903.711561L295.288983,902.381987L295.723812,900.203586L296.228105,898.415792L297.788211,894.825175L298.714574,891.925633L302.876172,891.692768L339.872792,891.550045L377.230289,891.377274L379.623033,891.302156L382.052837,891.294644L394.763990,891.227038L422.892596,891.106850L437.408298,891.084315L457.289137,891.016709L475.174352,890.934079L492.250204,890.866473L509.958870,890.828914L526.851887,890.806379L535.436264,890.633608L537.585446,890.596049L536.811900,892.706858L531.647110,907.444880L529.437911,913.762205L525.985803,923.031575L524.603438,926.727289L522.649868,932.225774L525.408492,932.255821L536.451672,932.345960L557.456980,932.240797L578.523230,932.120612L588.533055,931.977892L591.038600,931.947846L618.350853,931.542221L645.509760,931.166641L651.696150,909.600736L657.856337,888.214813L658.321049,886.584753L661.340492,865.949702L666.944680,828.757839L672.240300,796.230186L675.637850,778.125582L676.283060,776.502919L676.448480,776.104765L685.074035,754.536692L694.569457,730.767138L705.444856,703.511330L717.084232,674.421906L717.878706,672.370900L719.198900,669.132860L719.855775,666.601024L720.587472,663.723590L742.675664,585.963212L746.265588,573.318323L749.681815,561.274400L752.734683,561.176726L751.003656,568.592428L751.510824,568.599942L755.663493,568.765236L757.435821,568.855396L758.539897,568.907989L760.199365,560.913757L762.452933,560.883704L777.222270,560.628248L794.153023,560.335226L810.559445,560.072257L835.802585,559.628966L860.523564,559.208216L861.178168,556.924139L861.717322,555.060811L863.491088,548.148445L863.857744,546.750941L865.625034,540.469670L866.213541,538.501133L868.835416,529.267005L870.966299,521.903706L871.524485,519.431733L872.314588,516.028068L874.089703,509.829321L875.147727,506.064978L884.208232,506.110060L886.484480,506.110060L900.384555,506.162656L903.243175,506.192710L906.047613,506.192710L936.044914,506.245306L965.765311,506.320443L974.724742,506.410607L983.212811,506.478230L984.480895,501.444066L987.105868,496.740488L989.235914,487.445996L992.947891,472.403374L994.385399,466.828098L995.921763,460.824511L997.894984,453.941770L998.890817,450.522929L1000.000000,446.690813Z M604.777948,702.790111L604.831814,702.647370L605.566287,700.521275L605.993566,699.326754L615.020197,699.492034L615.581617,700.551326L615.530803,702.444527L608.781057,702.647370L604.777948,702.790111Z " data-aland="69656567" data-awater="1971993" data-classfp="C1" data-funcstat="A" data-geoid="2829180" data-intptlat="+33.3834612" data-intptlon="-091.0523141" data-lsad="25" data-mtfcc="G4110" data-name="Greenville" data-namelsad="Greenville city" data-pcicbsa="Y" data-pcinecta="N" data-placefp="29180" data-placens="02403752" data-statefp="28"/></g><g fill="#000" font-family="Arial" font-size="12px" id="mylayer-label" stroke="none"><text text-anchor="middle" y="557.173118631"><tspan dy="0" x="575.620436821"><![CDATA[Greenville]]></tspan></text></g></svg>