<?xml version="1.0" encoding="utf-8"?><!DOCTYPE svg  PUBLIC '-//W3C//DTD SVG 1.1//EN'  'http://www.w3.org/Graphics/SVG/1.1/DTD/svg11.dtd'><svg enable_background="new 0 0 1000 1001" height="1001px" pretty_print="False" style="stroke-linejoin: round; stroke:#000; fill: none;" version="1.1" viewBox="0 0 1000 1001" width="1000px" xmlns="http://www.w3.org/2000/svg" xmlns:xlink="http://www.w3.org/1999/xlink"><defs><style type="text/css"><![CDATA[path { fill-rule: evenodd; }]]></style></defs><metadata><views><view h="1001" padding="0" w="1000"><proj flip="auto" id="robinson" lon0="-92.3874709802"/><bbox h="0.18" w="0.27" x="-1248.09" y="-704.65"/></view></views></metadata><g class="" id="mylayer"><path d="M1000.000000,176.771771L856.338974,177.956810L425.233315,181.452676L281.548095,182.578464L262.674533,179.201101L261.644182,178.964093L235.330757,251.548056L226.367513,276.197121L223.809209,282.122388L216.234708,299.661203L213.652362,305.527234L210.311177,313.881891L200.263643,338.886659L196.898447,347.182096L184.464823,375.268139L180.329022,384.570921L149.697363,459.467582L138.174440,487.494750L120.304350,530.513378L66.548991,659.570600L48.656425,702.530866L0.000000,822.228229L13.053752,822.168972L350.805736,820.450532L463.348902,819.857967L519.551227,819.028376L688.110979,816.302576L744.314265,815.354472L747.899613,804.095745L752.759813,784.481893L769.508903,716.337453L774.356366,692.457404L775.916314,682.383955L774.294697,673.554883L770.983507,666.859016L779.539945,660.814964L789.160919,653.882086L801.664451,643.275386L804.317258,640.608899L811.930532,632.727955L812.675003,631.898382L814.885338,629.231899L815.605729,628.343072L819.206681,624.017446L824.389869,615.721732L825.511590,613.884825L827.466065,609.499952L841.173594,575.724656L846.547511,562.333085L851.140856,551.133956L864.996305,517.358898L869.565680,506.100575L878.707531,483.228452L906.035449,414.612459L915.128597,391.740588L931.939523,348.781932L950.059430,302.268327L982.916546,219.788791L1000.000000,176.771771Z "/></g><g fill="#000" font-family="Arial" font-size="12px" id="mylayer-label" stroke="none"><text text-anchor="middle" y="493.295890665"><tspan dy="0" x="500.323243313"><![CDATA[N]]></tspan></text></g></svg>