<?xml version="1.0" encoding="utf-8"?><!DOCTYPE svg  PUBLIC '-//W3C//DTD SVG 1.1//EN'  'http://www.w3.org/Graphics/SVG/1.1/DTD/svg11.dtd'><svg enable_background="new 0 0 1000 1001" height="1001px" pretty_print="False" style="stroke-linejoin: round; stroke:#000; fill: none;" version="1.1" viewBox="0 0 1000 1001" width="1000px" xmlns="http://www.w3.org/2000/svg" xmlns:xlink="http://www.w3.org/1999/xlink"><defs><style type="text/css"><![CDATA[path { fill-rule: evenodd; }]]></style></defs><metadata><views><view h="1001" padding="0" w="1000"><proj flip="auto" id="robinson" lon0="-98.7809941698"/><bbox h="1.25" w="0.67" x="-1350.49" y="-668.31"/></view></views></metadata><g class="" id="mylayer"><path d="M263.817703,999.000000L262.829266,997.452055L264.148017,994.996700L276.644829,987.243692L280.026484,982.920184L282.588133,973.365836L286.650439,964.118497L288.053813,962.263702L290.732799,960.408912L297.246208,960.208755L304.779198,960.048629L315.977296,957.913624L323.756003,955.471717L334.627005,953.336723L336.831651,950.281020L337.597049,946.011060L334.475650,941.727776L335.541190,939.899714L333.848487,939.285912L336.702776,932.841026L308.271578,932.213886L258.054854,931.079698L241.495652,976.875313L237.610516,986.709924L232.513665,998.546292L263.817703,999.000000Z M492.362265,67.970814L489.065969,78.382173L484.635067,91.779809L487.922218,92.113086L486.738042,94.979274L494.623063,94.832632L490.097600,105.857541L482.091357,125.601397L483.050400,125.574734L495.469405,125.374760L513.127198,125.694718L533.362882,126.081334L531.027629,131.813936L530.622223,132.813812L527.330384,132.733822L522.592126,133.613714L521.608076,135.960096L520.456291,138.666442L521.213835,138.679774L519.262969,143.625876L514.534414,153.944786L508.627062,153.971450L497.003140,154.038110L494.894163,154.051442L468.595035,154.344746L462.638236,154.251422L458.767200,163.530546L454.793495,173.036414L453.944558,175.022926L450.062431,184.168939L446.201944,193.235049L443.547310,199.488052L442.709252,201.447957L443.880906,201.434624L450.169665,201.354628L455.565024,201.381293L469.935831,201.314630L485.879993,202.367914L503.590669,200.461337L502.931451,202.114592L494.473898,207.034377L486.774375,224.767156L494.004021,224.113837L489.642710,234.713664L485.264782,245.193616L484.810806,246.286951L482.973210,250.686972L490.886325,250.660305L497.219071,250.660305L499.431717,250.660305L508.140605,250.660305L513.802970,250.646972L511.403817,256.513700L520.603308,256.540367L523.111250,250.620305L524.936909,250.606971L533.438608,250.580305L530.380719,258.180391L537.923639,258.260392L540.948338,250.526971L550.539917,250.473637L559.095832,250.366970L567.548246,250.273636L574.659993,250.180302L576.338552,250.180302L584.306445,250.233635L585.158677,247.726955L590.887307,234.020338L597.592337,217.367345L598.606599,214.407437L601.865112,214.274108L607.539752,200.541333L640.641900,200.621330L642.599089,196.114891L645.013377,196.128224L664.627371,196.221552L694.269104,196.368211L732.090970,196.528203L749.252481,154.184762L725.667043,154.398074L726.077747,153.384842L754.630662,86.287421L767.486335,55.013439L750.759790,56.026560L746.025292,56.359824L743.867826,56.519791L738.446781,56.879716L731.918577,56.959699L724.502153,57.053013L715.456294,57.132997L718.595744,48.934735L710.944192,48.774770L709.952305,48.748109L709.265721,50.441077L706.497451,57.159658L705.211376,57.159658L704.677328,57.159658L690.650478,57.186319L688.018427,57.199650L699.869121,24.540350L692.353413,24.233758L688.554710,24.087127L688.710144,23.273993L689.165808,20.914574L678.192734,19.834842L676.579204,19.674882L672.838462,27.446313L661.539837,26.819797L660.318914,26.739816L662.106483,21.661056L656.095925,21.701046L653.176604,29.032599L650.832931,28.899298L631.794783,27.846217L634.016320,22.127608L637.099420,14.849431L643.406596,0.000000L634.491538,0.026659L628.354296,15.209339L625.574990,22.060958L622.120465,30.765521L620.028738,31.032124L612.312957,31.218747L609.092224,31.178756L605.430516,39.830087L614.144631,39.976720L609.935951,49.654579L600.802238,49.521275L600.672444,46.428615L595.087740,46.735214L583.485054,46.481936L578.653989,57.506253L571.809368,57.479592L567.705874,57.466261L566.692358,57.492922L572.683024,44.389064L567.365386,44.708994L554.678061,44.389064L554.607769,44.562359L549.858082,55.520000L548.973067,58.239435L546.918914,58.332749L537.781810,58.852642L533.898082,59.399196L521.609686,61.158837L520.226115,61.345466L517.655494,61.825369L507.688818,63.664999L507.169501,64.864759L492.362265,67.970814Z " data-aland="3221005" data-awater="0" data-classfp="C1" data-funcstat="A" data-geoid="2065925" data-intptlat="+39.7746935" data-intptlon="-098.7832662" data-lsad="25" data-mtfcc="G4110" data-name="Smith Center" data-namelsad="Smith Center city" data-pcicbsa="N" data-pcinecta="N" data-placefp="65925" data-placens="02395900" data-statefp="20"/></g><g fill="#000" font-family="Arial" font-size="12px" id="mylayer-label" stroke="none"><text text-anchor="middle" y="190.385718639"><tspan dy="0" x="582.279830106"><![CDATA[Smith Center]]></tspan></text></g></svg>