<?xml version="1.0" encoding="utf-8"?><!DOCTYPE svg  PUBLIC '-//W3C//DTD SVG 1.1//EN'  'http://www.w3.org/Graphics/SVG/1.1/DTD/svg11.dtd'><svg enable_background="new 0 0 1000 1001" height="1001px" pretty_print="False" style="stroke-linejoin: round; stroke:#000; fill: none;" version="1.1" viewBox="0 0 1000 1001" width="1000px" xmlns="http://www.w3.org/2000/svg" xmlns:xlink="http://www.w3.org/1999/xlink"><defs><style type="text/css"><![CDATA[path { fill-rule: evenodd; }]]></style></defs><metadata><views><view h="1001" padding="0" w="1000"><proj flip="auto" id="robinson" lon0="-76.8856943449"/><bbox h="0.29" w="0.4" x="-1044.65" y="-687.9"/></view></views></metadata><g class="" id="mylayer"><path d="M1000.000000,627.748659L996.202085,586.611625L995.782630,581.774437L986.819914,479.037452L984.961471,458.201021L981.984261,421.530856L981.060699,410.285966L977.415285,362.123518L977.239258,359.808430L974.268746,330.621913L969.690318,317.351636L969.779137,314.251111L962.729156,292.506173L955.726590,274.978032L953.860564,282.336534L952.096397,278.450582L948.125391,270.471991L946.893850,266.627392L945.679573,261.211888L944.003191,256.457827L943.093834,253.481375L940.684617,246.949724L938.231444,239.839333L935.304983,233.018332L931.233840,225.742612L929.301146,222.559489L928.391242,220.699224L923.989748,213.795582L917.665595,206.313206L915.445123,204.287593L909.943896,200.443066L900.187420,195.441053L895.927260,193.994191L894.143974,193.002058L886.772491,189.942981L884.093429,189.074865L867.009925,187.669345L852.198343,186.718552L832.640881,186.470519L822.329177,185.850437L816.678342,184.982322L808.355491,184.238224L800.678137,182.998060L791.004276,182.005930L784.302199,181.013800L776.758722,180.187025L773.354691,179.442928L770.484639,178.533476L767.360156,177.872056L759.404016,177.458669L751.226220,177.500008L744.211193,177.334653L737.196809,176.053153L730.602115,175.350395L725.172961,174.027558L717.524163,171.588577L714.847903,170.307080L704.626559,162.328734L693.909672,155.921267L689.900527,153.730330L688.987305,153.399622L679.203965,149.389797L674.884633,147.612247L670.936823,144.429195L666.825893,141.122131L665.803924,140.708748L658.289734,137.567040L655.444828,136.988305L649.143669,136.326893L646.151687,136.285555L642.714259,136.450908L639.377915,136.822952L636.229800,137.649716L626.845428,141.370160L615.603999,146.950833L611.926113,149.348459L597.249350,155.797252L593.033984,157.864175L581.974497,163.816921L575.869977,166.421251L572.295232,167.702747L568.523202,168.860228L567.079497,169.190937L554.088924,171.753932L543.473382,173.655510L536.447919,174.027558L525.700581,174.192912L520.096501,173.490155L515.097503,172.208657L510.435206,170.637789L509.829412,170.307080L509.135085,169.935032L505.918636,170.761804L503.833585,170.968498L498.060109,170.059048L492.448370,169.480307L487.113391,169.397630L480.840803,169.562984L470.511062,171.629916L466.827550,172.828737L463.664763,172.787398L461.690536,171.753932L459.721857,167.868101L458.069688,165.677157L455.356532,164.809047L452.478172,165.139755L449.896784,166.007865L446.414042,167.826763L442.884591,169.480307L438.262073,171.133852L431.449240,173.407478L411.442886,243.973279L401.654625,278.367902L396.028452,298.293786L390.459164,298.500487L391.828080,294.035756L379.979834,294.325136L373.536357,294.490497L371.481587,301.394297L370.647832,301.435637L366.491619,315.077917L361.804174,315.201938L353.125069,340.130242L325.001578,338.641980L303.584456,337.525784L253.086040,335.128031L226.751417,333.805133L159.888014,329.795103L138.208837,329.050974L135.177270,335.913501L129.885162,348.770441L66.331835,352.367085L70.299336,333.309047L41.853923,335.004009L31.974998,336.037523L31.758251,338.807342L31.072289,339.220748L28.187938,353.648649L25.203593,355.508985L16.257961,393.584064L9.392699,425.086233L0.000000,467.833721L13.945423,466.593458L83.035399,461.673751L80.294060,468.081774L74.632354,482.138122L70.902144,492.391024L72.297280,509.630848L73.206627,519.801144L66.973259,531.501155L66.038581,533.361585L117.536406,526.415987L134.154594,523.935419L152.266782,521.785596L184.312431,517.113868L233.746559,510.209645L241.793544,509.341450L255.559160,508.431913L340.088145,503.718861L348.084280,503.305435L360.379635,502.602612L372.265070,501.899789L442.050287,498.261650L459.764463,497.393458L464.254699,497.145403L478.708610,444.847580L495.963443,382.421946L512.584292,381.553783L517.829511,381.801830L534.826108,380.933666L552.505856,417.148652L551.603452,420.331951L546.117483,440.961449L536.524060,476.308865L532.299052,493.300557L531.794602,495.202308L528.661362,507.232978L527.064425,513.186314L519.278066,543.986722L512.910387,568.957989L506.312299,594.714962L500.789267,615.965640L499.464949,621.009595L494.874377,639.697094L494.349792,641.557581L489.415036,660.658634L485.945743,676.121467L484.821546,680.876095L483.020856,690.881508L482.012193,697.827431L480.599916,707.998271L479.358497,721.311367L479.160755,725.445879L478.787337,735.575454L478.854068,749.467491L478.849176,752.320326L478.962047,754.925091L479.227828,761.333649L481.320387,785.231468L481.832493,789.490093L482.981714,798.751587L484.581362,808.095797L485.512419,812.023681L487.671294,821.533312L493.776037,843.157481L495.577025,848.863307L501.475878,844.232491L586.355451,778.368064L616.000815,754.056836L638.141364,735.492764L657.416973,718.334521L676.448959,699.770638L686.620137,692.700677L699.476512,718.210486L707.046459,735.079311L710.545066,741.322451L712.177692,743.472409L713.848499,745.002187L719.416476,749.260763L730.010297,756.041420L736.209812,759.845208L742.557241,764.021111L745.537446,765.923010L768.086407,780.311315L772.929855,783.577635L780.727986,789.531439L791.700095,797.015055L792.489435,797.511207L801.736326,803.423689L802.777395,804.085226L810.637639,809.956373L814.536271,812.478489L816.108663,813.388104L849.165837,807.640990L858.960499,805.945800L860.137239,805.697723L880.243383,796.312173L889.740599,790.937200L895.242570,788.497792L895.353661,789.283364L900.424136,787.009340L901.817246,798.792933L902.296774,802.844844L902.146104,811.403488L902.295624,818.969843L902.399384,831.539125L902.136040,836.376656L901.916151,839.767067L901.401418,843.322867L900.198535,855.106649L899.969396,859.944213L900.197608,862.714445L909.391316,860.977882L925.774483,857.876877L925.996668,855.189343L926.121028,853.907596L928.665410,827.900644L936.611868,795.898713L955.854614,751.865526L966.649335,732.805323L968.093791,730.241919L979.272014,711.057798L979.755603,710.230898L988.169008,688.607548L988.461570,687.739309L999.503122,654.870425L1000.000000,627.748659Z " data-aland="2520571" data-awater="0" data-classfp="C5" data-funcstat="A" data-geoid="4242976" data-intptlat="+40.9641265" data-intptlon="-076.8899572" data-lsad="21" data-mtfcc="G4110" data-name="Lewisburg" data-namelsad="Lewisburg borough" data-pcicbsa="Y" data-pcinecta="N" data-placefp="42976" data-placens="01215632" data-statefp="42"/></g><g fill="#000" font-family="Arial" font-size="12px" id="mylayer-label" stroke="none"><text text-anchor="middle" y="457.158825541"><tspan dy="0" x="626.418920818"><![CDATA[Lewisburg]]></tspan></text></g></svg>