<?xml version="1.0" encoding="utf-8"?><!DOCTYPE svg  PUBLIC '-//W3C//DTD SVG 1.1//EN'  'http://www.w3.org/Graphics/SVG/1.1/DTD/svg11.dtd'><svg enable_background="new 0 0 1000 1001" height="1001px" pretty_print="False" style="stroke-linejoin: round; stroke:#000; fill: none;" version="1.1" viewBox="0 0 1000 1001" width="1000px" xmlns="http://www.w3.org/2000/svg" xmlns:xlink="http://www.w3.org/1999/xlink"><defs><style type="text/css"><![CDATA[path { fill-rule: evenodd; }]]></style></defs><metadata><views><view h="1001" padding="0" w="1000"><proj flip="auto" id="robinson" lon0="-75.8352727368"/><bbox h="0.3" w="0.3" x="-1043.06" y="-646.4"/></view></views></metadata><g class="" id="mylayer"><path d="M1000.000000,251.087698L963.966229,211.322669L950.726272,197.422055L864.802678,85.420603L827.128591,39.219119L789.549540,3.841870L669.095893,109.404482L655.607690,99.548863L652.469958,102.568213L608.990714,143.927743L587.046575,164.835480L603.643774,177.824516L571.861322,207.505694L548.211250,190.016001L519.803789,168.709401L482.132291,147.345898L483.108401,132.192093L189.116971,92.883511L92.616591,283.048012L86.693634,337.568894L226.119462,310.393854L213.205505,433.964250L135.551974,465.469648L134.062385,480.168418L131.575267,490.024588L127.505090,499.766828L121.947561,509.224221L115.107240,518.168875L107.066680,526.315928L98.043593,533.551430L88.305229,539.590516L80.173461,544.547129L109.099082,610.122883L140.524801,680.143215L162.104612,660.487313L180.022206,644.705658L189.658800,636.786358L199.902120,629.322853L210.867473,622.713955L222.182103,617.130581L300.422758,583.915294L300.205300,583.231620L387.668877,545.914471L430.254494,527.227486L440.582901,521.701163L446.939779,517.770069L453.131824,513.611088L458.456356,509.736972L463.645721,505.691940L468.699919,501.475995L473.648614,497.146108L477.208459,493.784750L480.567098,490.480365L487.380083,483.700686L500.689289,470.597122L511.385361,460.456121L519.112052,453.391612L525.934584,447.694432L532.951611,442.282116L539.720984,437.724380L550.732485,431.115668L551.295820,432.995732L552.396187,436.527975L549.173248,438.408040L542.535962,442.510003L536.063504,446.839856L529.389568,452.024288L523.319254,457.037809L516.628540,463.076827L504.896508,474.243329L491.649999,487.289927L480.416110,498.171607L467.179959,509.907888L461.693688,514.180811L456.134932,518.225848L449.599806,522.612721L442.899846,526.771707L436.068071,530.588861L431.964467,532.639870L427.847707,534.576934L414.897158,540.388131L381.570966,554.688255L345.022069,570.070892L301.915303,588.644047L301.697844,587.960372L256.826334,607.046334L223.193308,621.289625L217.740556,623.853420L212.406467,626.645109L207.144863,629.664693L202.048097,632.912171L197.023818,636.387545L189.835262,641.913962L182.887384,647.725250L173.930267,655.530616L165.078661,663.449938L142.123171,684.188350L41.017930,775.119054L23.783324,790.616136L0.000000,811.981657L160.377228,926.388037L170.517675,933.623962L292.270058,935.902996L364.842131,965.929332L368.291822,967.410710L376.797368,970.886254L420.878536,989.118641L435.337036,995.158130L449.647472,983.534967L637.722275,832.093795L633.900500,814.203675L634.494006,801.156452L634.236187,763.154418L637.202733,744.466839L639.728116,735.749784L637.427689,729.026835L634.743048,728.571042L629.858711,727.260638L624.730754,724.241011L620.407629,720.993489L617.991065,717.062280L617.100996,715.353060L616.744386,704.471033L619.461042,696.209821L623.796319,690.968229L628.417818,688.404408L632.864002,687.720723L636.868502,686.011510L642.635208,680.769926L645.720638,674.901636L646.606400,668.178746L645.374376,662.709282L639.357117,655.587589L631.620920,650.573923L627.808929,647.953144L623.314582,644.021977L621.686432,639.919893L619.052026,636.900305L619.442647,631.886652L620.838849,628.183388L625.477564,623.169741L631.171376,619.295562L637.438910,615.991117L643.511009,615.592305L647.198527,615.136520L654.338881,615.991117L660.730856,615.763224L666.470148,614.281922L672.483827,610.578668L679.371709,606.248711L685.719578,598.842213L694.567031,581.693351L703.243947,561.468006L707.276678,553.605775L724.701505,529.962164L744.731543,507.685969L749.911996,500.165634L752.304992,494.297499L754.499891,489.113034L758.010637,484.327378L763.595876,479.712642L769.289722,475.838544L775.682383,473.217833L780.699369,471.679589L787.025994,469.286767L789.700998,468.660076L792.906880,468.432188L794.338281,468.432188L795.657473,468.660076L797.714700,471.280786L803.393381,473.673609L804.729082,473.844525L806.599264,473.445721L808.542432,471.679589L843.148039,436.072201L845.338849,433.451505L845.718555,432.141157L844.666866,430.830810L843.918534,429.748349L842.411555,428.893775L840.970613,427.811314L840.905347,425.646393L841.598730,423.253587L843.127117,419.094664L845.681138,415.220601L846.324999,412.998713L846.450884,411.289569L845.379341,410.207112L844.393698,408.668882L844.763873,406.276082L845.523304,403.655397L850.287240,399.325572L853.731209,397.160661L856.679895,396.704890L857.999076,396.932775L861.934186,395.622435L868.129514,391.292615L871.148380,388.045251L873.806415,378.872883L876.623816,376.480094L880.628319,374.770959L883.577001,374.315189L885.436845,375.226728L886.620591,376.081295L887.682590,376.081295L890.140134,374.770959L902.416027,364.117360L912.323642,354.147430L913.508186,352.609214L914.211127,351.298882L913.700128,350.672201L913.149935,348.906102L912.467665,347.595770L912.270354,345.886642L913.970063,342.411417L917.177538,337.397981L923.373697,330.675425L929.321393,327.200207L931.768598,327.200207L933.644937,328.054769L935.019807,329.365097L936.896148,330.219658L938.716788,329.991775L940.329782,329.365097L947.056799,323.041343L949.049523,321.104339L955.585410,314.324828L956.516143,312.387826L957.011446,310.678707L956.652401,309.368383L955.834704,308.684736L954.584934,308.058059L952.972764,306.291971L951.597902,304.981647L950.470695,302.816766L950.481043,301.506443L953.242767,298.031241L968.083181,282.193456L985.144714,262.196881L993.029477,255.702279L1000.000000,251.087698Z "/></g><g fill="#000" font-family="Arial" font-size="12px" id="mylayer-label" stroke="none"><text text-anchor="middle" y="478.138841711"><tspan dy="0" x="462.692107668"><![CDATA[N]]></tspan></text></g></svg>