<?xml version="1.0" encoding="utf-8"?><!DOCTYPE svg  PUBLIC '-//W3C//DTD SVG 1.1//EN'  'http://www.w3.org/Graphics/SVG/1.1/DTD/svg11.dtd'><svg enable_background="new 0 0 1000 1001" height="1001px" pretty_print="False" style="stroke-linejoin: round; stroke:#000; fill: none;" version="1.1" viewBox="0 0 1000 1001" width="1000px" xmlns="http://www.w3.org/2000/svg" xmlns:xlink="http://www.w3.org/1999/xlink"><defs><style type="text/css"><![CDATA[path { fill-rule: evenodd; }]]></style></defs><metadata><views><view h="1001" padding="0" w="1000"><proj flip="auto" id="robinson" lon0="-95.2072003512"/><bbox h="0.24" w="0.27" x="-1305.05" y="-658.48"/></view></views></metadata><g class="" id="mylayer"><path d="M1000.000000,636.036201L927.647812,636.718826L901.755582,636.967053L919.173148,592.472505L895.482531,592.906899L955.674330,424.799101L847.148749,425.419644L831.528908,425.605807L783.038556,421.262007L821.384700,320.735080L823.683112,314.653883L788.030032,314.281565L765.533659,321.976141L710.521374,321.665876L708.828340,321.603823L707.061367,321.603823L718.064419,294.362595L708.209148,293.990279L670.659584,292.625119L681.730170,263.336313L598.816411,262.715790L554.952155,256.820818L572.441634,209.351023L581.282735,186.764239L590.948541,162.129865L605.457493,125.085444L618.520064,90.399199L627.880025,65.641180L511.157634,65.517080L477.623075,152.884248L450.983703,152.573992L439.536309,182.854998L424.709188,186.019622L427.641389,178.263195L419.688316,178.201144L416.608227,186.081673L398.892808,182.730895L397.478209,186.205776L397.009055,187.446806L353.711547,302.119194L274.136611,269.293345L294.146657,243.603694L378.757159,187.384754L387.252849,181.738073L238.560020,182.048330L107.053830,181.365764L32.525993,390.669349L152.879284,404.569439L63.030156,637.897905L50.626836,637.587621L45.830647,637.587621L0.000000,759.406585L58.796877,761.330391L60.481604,756.738080L80.251297,703.616499L88.749297,703.306211L80.632169,724.654070L85.731309,724.654070L66.628838,779.885853L64.435461,786.091708L82.635835,786.960528L102.487913,787.332880L118.145998,787.581114L133.136983,787.456997L134.312542,787.953466L137.046011,788.201700L138.980775,787.891407L178.354979,788.574052L154.976051,852.991290L131.277471,915.051034L129.280999,920.202026L260.942857,920.760568L262.311472,920.077906L298.983251,920.698508L306.028030,920.760568L311.191465,904.687006L318.302973,904.438766L353.711640,891.964724L348.977594,932.427895L524.123613,933.482920L570.467850,809.736082L584.407271,772.438837L653.263976,772.190604L676.427122,709.946378L682.997734,708.456994L846.411341,711.559878L839.781670,728.439600L962.941682,730.115164L982.475123,680.282890L995.346832,647.951121L1000.000000,636.036201Z " data-aland="1537421" data-awater="11801" data-classfp="C1" data-funcstat="A" data-geoid="2043900" data-intptlat="+39.1955367" data-intptlon="-095.2086059" data-lsad="25" data-mtfcc="G4110" data-name="McLouth" data-namelsad="McLouth city" data-pcicbsa="N" data-pcinecta="N" data-placefp="43900" data-placens="02395075" data-statefp="20"/></g><g fill="#000" font-family="Arial" font-size="12px" id="mylayer-label" stroke="none"><text text-anchor="middle" y="528.344811586"><tspan dy="0" x="450.062286879"><![CDATA[McLouth]]></tspan></text></g></svg>