<?xml version="1.0" encoding="utf-8"?><!DOCTYPE svg  PUBLIC '-//W3C//DTD SVG 1.1//EN'  'http://www.w3.org/Graphics/SVG/1.1/DTD/svg11.dtd'><svg enable_background="new 0 0 1000 1001" height="1001px" pretty_print="False" style="stroke-linejoin: round; stroke:#000; fill: none;" version="1.1" viewBox="0 0 1000 1001" width="1000px" xmlns="http://www.w3.org/2000/svg" xmlns:xlink="http://www.w3.org/1999/xlink"><defs><style type="text/css"><![CDATA[path { fill-rule: evenodd; }]]></style></defs><metadata><views><view h="1001" padding="0" w="1000"><proj flip="auto" id="robinson" lon0="-97.5384054489"/><bbox h="0.17" w="0.15" x="-1332.18" y="-670.45"/></view></views></metadata><g class="" id="mylayer"><path d="M515.017666,0.000000L368.497781,0.667281L279.032610,227.356214L231.187518,348.425633L299.630438,348.234971L150.102075,717.845064L143.475751,739.105230L198.927385,705.927962L194.196316,717.654390L178.527122,753.977856L118.646138,790.396874L100.597653,846.741905L146.259016,840.926235L85.613817,999.000000L259.297944,997.760564L294.144936,997.665223L357.894977,995.377034L439.021612,790.396874L468.635828,789.729508L521.912058,652.062951L576.651966,650.632913L645.470645,474.264087L914.386183,336.223253L855.398730,338.511197L837.881880,339.178515L829.688439,339.369177L880.437342,221.731787L788.242403,223.924359L810.897589,160.244743L767.688393,158.052193L813.004542,38.035108L648.727076,38.225761L502.808029,41.657512L515.017666,0.000000Z " data-aland="518841" data-awater="0" data-classfp="C1" data-funcstat="A" data-geoid="2049150" data-intptlat="+39.9127239" data-intptlon="-097.5384126" data-lsad="25" data-mtfcc="G4110" data-name="Munden" data-namelsad="Munden city" data-pcicbsa="N" data-pcinecta="N" data-placefp="49150" data-placens="02395139" data-statefp="20"/></g><g fill="#000" font-family="Arial" font-size="12px" id="mylayer-label" stroke="none"><text text-anchor="middle" y="446.553085817"><tspan dy="0" x="455.81025511"><![CDATA[Munden]]></tspan></text></g></svg>