<?xml version="1.0" encoding="utf-8"?><!DOCTYPE svg  PUBLIC '-//W3C//DTD SVG 1.1//EN'  'http://www.w3.org/Graphics/SVG/1.1/DTD/svg11.dtd'><svg enable_background="new 0 0 1000 1001" height="1001px" pretty_print="False" style="stroke-linejoin: round; stroke:#000; fill: none;" version="1.1" viewBox="0 0 1000 1001" width="1000px" xmlns="http://www.w3.org/2000/svg" xmlns:xlink="http://www.w3.org/1999/xlink"><defs><style type="text/css"><![CDATA[path { fill-rule: evenodd; }]]></style></defs><metadata><views><view h="1001" padding="0" w="1000"><proj flip="auto" id="robinson" lon0="-83.5714134607"/><bbox h="1.29" w="1.11" x="-1131.9" y="-698.48"/></view></views></metadata><g class="" id="mylayer"><path d="M928.934889,0.000000L922.272167,0.075860L909.504064,0.278154L894.051882,2.705678L871.295947,0.935608L870.523286,0.872391L869.608669,0.796531L855.468070,1.997649L841.799717,1.947076L818.265742,3.211413L788.710930,3.211413L781.552796,3.211413L753.580529,3.211413L751.977024,3.211413L751.190991,3.211413L715.557530,3.211413L709.833023,3.717147L708.521952,3.830938L689.686718,5.474578L688.506182,5.575725L642.942512,9.533112L525.324757,87.924505L458.399548,162.526765L428.857556,171.378140L375.955223,214.371316L402.635645,213.106792L421.979080,211.842270L443.895718,209.313228L452.280806,209.313228L486.486663,213.106792L495.919903,213.106792L516.893139,213.106792L522.610729,211.842270L516.888013,227.016615L566.992837,225.006005L549.595352,236.842091L540.112204,243.367155L525.744568,253.116870L504.441393,267.583497L493.889179,253.205389L482.170192,266.521257L488.958110,273.704037L491.522423,276.410235L500.894758,286.691305L514.241718,286.931577L508.332755,290.788579L488.098334,304.117446L495.236431,304.117446L533.920889,304.155384L534.217429,303.396622L537.461354,294.847926L546.601436,294.847926L544.481650,300.804186L543.300196,304.104800L541.668780,308.265354L540.594096,311.477463L539.060866,315.600100L531.270183,340.576460L469.665501,342.056086L484.744591,320.658568L482.961658,320.911492L475.002659,322.504913L468.217589,324.237445L456.075594,328.613045L454.356386,329.308590L448.448375,333.190999L442.968299,336.744615L441.544670,340.576460L437.744021,350.491249L440.628368,350.959168L463.371433,351.022400L459.868400,356.005116L452.530985,356.005116L450.336869,367.387019L444.091600,376.113207L428.212147,376.138500L427.219603,378.882834L422.141797,392.048124L432.532462,392.263120L432.967947,392.275767L442.449558,392.288413L444.603173,392.275767L450.899285,375.961446L484.416437,375.278525L510.176671,375.430286L507.860057,381.576586L518.519441,381.551293L515.135901,392.225179L524.727100,392.225179L522.219059,398.713019L515.852313,415.773778L513.672328,421.363783L530.871825,422.147903L537.157402,422.185844L552.600943,410.133208L553.238520,409.526152L554.648072,407.983221L555.929938,406.389703L557.063154,404.745599L558.048671,403.076203L559.158140,400.799758L560.298176,397.941559L560.660403,396.980396L561.585038,394.526905L562.375224,392.819581L562.744087,392.174592L578.353010,392.199886L583.054745,392.212532L584.920574,392.212532L598.457842,392.199886L614.269743,392.187239L617.867983,392.263120L621.692080,392.212532L626.179406,392.237826L625.670411,393.616332L596.663187,394.931604L595.926479,395.829531L594.986794,396.765400L594.435944,397.309215L593.338077,398.219791L592.174465,399.054485L590.335196,400.180059L588.410183,401.115931L586.443255,401.912686L583.786400,402.760030L576.460068,404.732952L573.143763,405.744708L570.791838,406.617348L570.512619,406.718524L567.898609,407.869398L565.347477,409.159390L565.173080,409.260566L551.367909,419.024072L545.642250,423.425261L521.372094,442.016639L520.865968,443.471077L519.497537,443.458430L517.708869,443.281367L516.650081,444.116089L514.683366,441.991344L513.765759,441.004857L503.433298,448.618534L463.819801,479.415142L421.692488,512.071666L404.036340,525.769419L391.584524,535.419902L391.243352,535.685512L360.977299,559.147977L360.243509,561.234953L360.053867,561.766184L359.245752,564.106133L359.033241,564.725903L357.458006,569.241384L355.560614,570.771844L314.536637,603.063683L312.725024,604.505639L298.771512,615.472144L295.971665,617.673044L258.929531,646.854277L258.609333,647.119909L256.299331,648.966683L256.105877,649.118473L231.191447,669.091621L229.261684,670.596892L214.837513,681.450070L211.747996,683.891415L210.759005,686.433959L210.004404,688.381981L195.574598,699.500940L138.799045,743.281912L139.071222,746.874517L136.362234,750.644233L134.998718,752.706196L134.390838,753.819404L134.015609,755.539819L132.863716,757.791541L131.649976,760.625174L125.329265,777.133732L115.895953,802.244826L111.420038,814.161686L109.768432,818.715926L108.626396,821.777397L100.843857,842.701842L89.912140,871.660075L83.355191,888.941685L76.063357,908.121237L74.197723,912.688438L73.432833,914.080109L73.046012,914.522914L72.464795,915.092234L71.065111,916.471256L111.990161,941.508966L113.932955,939.800973L114.602788,939.218990L116.348989,936.891062L117.262336,937.473044L118.703769,938.156240L157.696752,965.965136L156.622839,968.735935L158.082533,969.621580L159.108430,970.266836L160.434998,967.660510L164.133284,969.786057L163.632518,971.089221L162.969851,972.683384L163.442761,972.987035L205.976341,999.000000L238.083232,912.460710L278.534535,912.650483L289.848922,879.794803L339.678359,879.858059L394.961484,879.693593L416.851208,822.384631L361.814270,822.232823L375.012716,787.582928L379.292417,776.184959L383.559959,765.153939L384.269467,763.269060L329.747758,763.534714L336.182839,759.474010L353.439638,749.948479L389.515197,749.417177L422.489107,747.684120L428.360562,732.086704L428.940679,730.935564L431.125581,725.382273L432.494300,722.080668L434.603055,716.729809L452.283784,671.912424L453.173492,669.660841L464.665254,669.711438L466.504929,666.384667L468.857081,661.641186L470.891955,657.239250L471.917792,654.013702L472.880596,649.953317L473.786261,646.044733L474.561518,642.983649L475.454038,640.112308L476.857332,636.886800L478.761876,633.332425L481.043829,629.778059L509.155227,630.208124L527.687624,581.497762L512.848321,580.650310L508.615396,592.641167L495.153228,592.868843L500.011302,579.941993L483.882609,579.094542L468.128346,622.150749L459.295753,622.138100L455.946607,627.551841L436.845194,627.665682L432.460977,639.530451L421.130367,669.509049L395.799516,669.433153L400.707326,655.202726L390.587943,654.709407L406.852459,607.402205L393.681818,607.579287L388.779529,618.507869L375.913720,617.875426L379.644818,606.883605L343.336787,605.087481L344.207777,603.999689L344.904365,602.873952L345.897277,600.571885L351.389746,585.823568L351.760428,584.811683L399.844977,544.602467L435.503881,515.701621L459.696565,495.616831L497.538230,464.263380L495.154539,470.561839L498.034368,470.764199L595.111249,472.243962L593.263443,477.176516L603.509676,477.024744L605.312674,471.598937L595.481957,471.232158L595.920327,470.068585L603.393775,450.705347L617.509646,414.799956L618.367453,412.523492L619.152808,410.689676L621.619501,404.366191L641.411038,402.861206L644.025463,396.145703L672.292292,323.339563L673.092112,321.328816L674.876884,315.815085L679.368527,301.841160L660.312656,301.841160L660.846558,300.424806L661.318491,299.172852L694.333473,297.705916L697.519954,297.566810L696.072024,300.184532L695.682225,300.551266L696.285401,300.563912L696.899058,300.576558L698.943341,298.768180L743.136481,258.971789L743.966605,258.187760L744.887274,257.302566L785.960754,257.340503L792.062280,242.406097L792.623823,241.027739L802.974724,213.043566L795.257234,214.358671L787.508653,214.282799L783.266568,214.219573L707.033913,213.056211L709.168909,211.007685L711.864270,208.668323L715.233400,205.987544L719.198162,202.977998L745.850742,182.745915L764.659611,168.444535L767.190937,166.623680L770.634356,164.107363L794.789015,145.886329L802.930109,139.918074L821.263506,125.933236L824.776481,123.454925L827.802361,121.545616L830.303047,120.167375L832.861799,118.940868L836.123768,117.600563L838.762439,116.690168L842.930483,115.476308L844.441777,115.109622L845.994000,114.856735L848.968799,114.527981L853.578572,114.338316L873.964082,114.060140L882.235472,113.971630L886.651768,113.933697L890.527726,103.350415L905.201387,64.444567L905.893845,62.636489L908.755323,55.050171L910.091867,48.728271L912.570714,44.935144L913.376982,39.991451L914.306010,37.639725L928.934889,0.000000Z M235.449137,843.764519L240.120328,831.771500L243.779302,831.771500L245.303017,827.723247L248.353904,827.723247L244.687551,837.603535L242.266764,843.840424L237.714690,843.789821L235.449137,843.764519Z M225.248907,843.650660L231.145826,828.456992L234.790510,828.494944L238.935551,828.456992L233.183584,843.739217L228.893616,843.688613L225.248907,843.650660Z M200.958806,843.422944L204.984127,831.948611L207.282123,832.138373L208.824987,828.178675L211.911006,827.723247L210.257829,832.505247L223.373441,832.226929L227.181073,832.138373L222.558263,843.612708L216.369690,843.536802L212.867000,843.511500L200.958806,843.422944Z " data-aland="12997097" data-awater="791729" data-classfp="C2" data-funcstat="A" data-geoid="3968686" data-intptlat="+41.5978901" data-intptlon="-083.5562360" data-lsad="25" data-mtfcc="G4110" data-name="Rossford" data-namelsad="Rossford city" data-pcicbsa="N" data-pcinecta="N" data-placefp="68686" data-placens="01087197" data-statefp="39"/></g><g fill="#000" font-family="Arial" font-size="12px" id="mylayer-label" stroke="none"><text text-anchor="middle" y="432.346130989"><tspan dy="0" x="489.330645912"><![CDATA[Rossford]]></tspan></text></g></svg>