<?xml version="1.0" encoding="utf-8"?><!DOCTYPE svg  PUBLIC '-//W3C//DTD SVG 1.1//EN'  'http://www.w3.org/Graphics/SVG/1.1/DTD/svg11.dtd'><svg enable_background="new 0 0 1000 1001" height="1001px" pretty_print="False" style="stroke-linejoin: round; stroke:#000; fill: none;" version="1.1" viewBox="0 0 1000 1001" width="1000px" xmlns="http://www.w3.org/2000/svg" xmlns:xlink="http://www.w3.org/1999/xlink"><defs><style type="text/css"><![CDATA[path { fill-rule: evenodd; }]]></style></defs><metadata><views><view h="1001" padding="0" w="1000"><proj flip="auto" id="robinson" lon0="-97.0885426929"/><bbox h="0.95" w="0.86" x="-1319.68" y="-687.22"/></view></views></metadata><g class="" id="mylayer"><path d="M211.124235,446.200154L211.374246,446.716689L218.471266,478.105179L224.304803,475.384701L232.283003,471.665576L233.119497,471.269558L230.813470,467.757060L230.677931,461.007579L225.943176,453.534975L224.870651,450.969505L223.646142,449.867560L219.946232,448.231861L216.267860,446.578946L215.036997,446.027975L211.124235,446.200154Z M575.918256,0.000000L573.806124,4.802299L570.441337,13.288122L564.220906,28.125522L558.608228,41.499967L553.970625,52.413055L552.258982,56.440935L550.998401,59.608165L548.404943,66.045925L515.422380,64.324596L476.756084,63.463932L466.836731,88.044690L453.523018,120.113913L416.375829,119.993416L321.692586,120.182769L304.876353,159.190097L315.890556,246.400941L318.470901,246.452588L322.842576,246.538665L334.546949,246.435372L345.281522,246.573096L360.677870,246.917405L368.790248,246.934621L362.507032,260.087291L375.138634,260.345526L372.045723,267.627751L403.138421,267.610536L410.227398,267.593320L404.496742,280.350215L392.947106,307.379367L386.886729,306.983395L334.155933,307.121124L331.526770,306.983395L328.389767,307.103908L325.170590,306.346397L325.779169,302.335035L326.621354,294.157400L326.787085,289.715672L325.741694,285.480550L324.957453,284.447595L324.347870,287.322654L322.332904,289.991128L321.173864,291.213463L318.870349,293.021143L315.430076,295.362522L306.686730,300.647856L297.869001,305.606101L293.780700,308.033582L285.066678,313.852666L282.817977,315.229968L279.580353,316.658919L278.570772,317.261490L276.906719,318.501064L275.813968,320.136615L273.294396,319.138068L263.381486,322.288658L261.219173,322.357524L259.003738,323.321641L257.442707,323.046179L251.555772,322.409173L251.525054,323.820915L251.491051,324.905548L251.550558,326.506673L251.691917,329.622847L260.694795,327.074815L264.744487,354.173713L264.828300,354.914033L264.569217,355.792088L264.129770,356.893961L255.297202,354.586915L244.096099,353.571127L241.224355,358.994409L240.234266,364.641531L244.920576,374.369094L249.728712,378.518394L262.194937,382.650488L262.034911,382.960396L261.147457,384.682105L260.652760,385.646264L259.255595,388.401006L261.226966,388.246051L264.652642,390.828626L265.312408,396.475873L261.333802,409.698782L254.962238,419.581609L249.572702,423.868780L250.396858,424.540266L250.802893,425.091229L251.677421,425.711062L260.339015,431.771670L259.066788,434.801984L258.131990,436.936982L257.204109,439.089200L245.881419,465.226001L241.437688,475.694629L240.881436,477.072086L240.375554,478.397889L239.078365,481.755449L232.009701,499.146011L196.112421,583.295212L182.720401,614.755577L181.697500,617.166361L254.134353,618.561174L252.245227,622.745621L230.732051,672.684410L209.946761,718.801851L200.401815,737.986319L164.349036,747.440878L154.873117,747.785308L136.381056,747.423657L75.446770,867.100722L73.321351,871.509798L105.804330,870.407528L105.643832,884.909337L96.390114,885.064346L70.737119,941.953522L77.402374,941.798508L51.929679,998.741632L108.644199,998.862204L112.725941,998.896653L137.686894,999.000000L143.839082,998.948326L145.581638,998.931102L147.956947,998.931102L152.039065,998.931102L167.215029,964.465249L170.334478,956.903887L180.089767,933.720555L180.520883,932.669907L223.107545,932.428775L234.258005,906.558989L201.060276,906.025064L210.762583,881.292483L216.992971,881.223590L221.466881,870.838102L225.736442,860.934929L210.278604,861.365500L217.019483,846.002797L231.896653,811.351210L239.535709,793.302407L250.544944,768.313460L255.292141,757.119381L260.704707,757.033273L262.783891,752.331786L275.557083,752.194014L278.429670,745.219310L266.958433,744.668223L265.541617,742.911637L265.351404,740.207877L264.396615,739.105708L262.987840,739.174594L270.547348,721.987764L286.907803,684.790525L287.892768,682.569054L290.249475,677.247870L295.832576,665.159040L301.854970,651.331059L309.647697,633.766445L310.975734,630.770150L316.097726,618.630054L313.699998,618.750593L341.197465,562.959132L368.099265,497.320853L381.010555,497.458601L383.235979,497.475819L386.122886,497.475819L399.798752,497.286416L398.078307,500.368524L396.288731,503.278453L395.339731,504.810903L409.862239,512.679803L420.492175,520.204371L428.376565,523.441497L432.483452,526.833600L442.433886,531.603220L452.811285,535.098655L455.651905,536.045696L458.147171,536.097353L464.466816,536.252323L487.509641,536.510607L486.399091,539.127887L481.303432,550.165286L479.644574,554.108464L498.043638,554.418409L537.626166,554.676696L552.994183,523.785873L559.375172,509.149985L561.806138,502.348653L575.310334,499.748658L577.045324,499.748658L581.825615,499.576473L583.570909,499.920843L627.005671,499.645347L633.884052,500.058591L637.118013,500.179121L643.586326,500.385742L659.146307,500.213558L665.844506,500.213558L674.350755,500.041373L685.120798,500.265213L701.973346,500.230776L712.843115,474.747628L727.178792,437.815087L729.691171,431.995500L759.650356,432.374289L771.153521,432.512031L774.599313,424.023738L807.195570,423.851562L823.935796,384.406632L768.418091,384.406632L765.102670,392.653649L746.847946,392.240436L766.431717,346.839399L777.048035,337.508002L788.624425,329.399033L799.066995,324.664518L802.428522,325.422040L806.626955,324.509571L808.984312,321.703302L814.624791,315.350482L791.035168,313.938748L777.114016,313.267314L769.849769,313.060719L769.084818,310.340554L753.777524,313.336179L753.254027,309.410878L745.239540,308.291825L745.497150,298.306468L750.770155,275.202682L761.169658,250.911397L772.843898,236.880827L776.715452,234.728912L799.435792,231.957249L801.713298,231.148131L802.483878,230.304583L804.892752,225.535964L806.393063,222.471661L817.660521,219.579516L832.206086,212.986135L831.735449,209.439838L866.687359,191.794560L897.238933,119.993416L875.623170,120.165555L887.873326,92.933350L902.208936,92.124311L908.992016,92.089883L911.407063,86.237268L948.070321,1.445852L940.953891,1.428639L936.851900,1.411427L926.055187,1.187664L871.800981,1.308152L858.854333,1.325364L852.789705,1.342577L847.515665,1.239302L845.937760,1.204877L834.000685,28.762397L793.091688,29.399273L783.280712,53.359778L778.960880,64.531155L756.775066,64.840995L734.301625,64.823781L743.043123,44.718803L746.266528,37.299999L754.840306,17.591297L748.938962,17.625722L744.544845,17.660147L742.954358,21.670718L742.627318,21.670718L723.626864,21.980548L722.529707,24.562466L717.100892,37.472129L713.339708,37.489342L708.200079,37.437703L698.091451,37.334425L703.461418,24.596892L713.272817,1.308152L711.907788,1.308152L695.060681,1.101601L653.319729,0.585226L642.875635,0.602438L624.745941,0.636863L604.291639,0.654076L602.973386,0.309825L602.014630,0.223763L593.191920,0.206550L575.918256,0.000000Z " data-aland="11066714" data-awater="90499" data-classfp="C5" data-funcstat="A" data-geoid="3144420" data-intptlat="+40.9092109" data-intptlon="-097.0960953" data-lsad="25" data-mtfcc="G4110" data-name="Seward" data-namelsad="Seward city" data-pcicbsa="N" data-pcinecta="N" data-placefp="44420" data-placens="02396580" data-statefp="31"/></g><g fill="#000" font-family="Arial" font-size="12px" id="mylayer-label" stroke="none"><text text-anchor="middle" y="353.550874429"><tspan dy="0" x="501.99090097"><![CDATA[Seward]]></tspan></text></g></svg>