<?xml version="1.0" encoding="utf-8"?><!DOCTYPE svg  PUBLIC '-//W3C//DTD SVG 1.1//EN'  'http://www.w3.org/Graphics/SVG/1.1/DTD/svg11.dtd'><svg enable_background="new 0 0 1000 1001" height="1001px" pretty_print="False" style="stroke-linejoin: round; stroke:#000; fill: none;" version="1.1" viewBox="0 0 1000 1001" width="1000px" xmlns="http://www.w3.org/2000/svg" xmlns:xlink="http://www.w3.org/1999/xlink"><defs><style type="text/css"><![CDATA[path { fill-rule: evenodd; }]]></style></defs><metadata><views><view h="1001" padding="0" w="1000"><proj flip="auto" id="robinson" lon0="-86.3928999524"/><bbox h="1.47" w="2.09" x="-1181.93" y="-668.59"/></view></views></metadata><g class="" id="mylayer"><path d="M720.258240,341.261861L719.937295,342.572511L722.359594,342.540544L722.980186,340.550595L723.475078,338.712496L722.768464,338.272952L721.189227,339.152041L720.258240,341.261861Z M1000.000000,263.763354L999.115150,263.771344L983.558987,263.771344L987.940847,251.378052L987.986658,251.138339L980.670503,251.282167L974.803268,251.338100L971.835999,251.378052L961.546039,251.561831L942.372066,251.410013L947.717550,235.141753L949.575509,229.332920L958.242319,204.276559L961.151746,195.855456L962.006888,193.666310L962.164776,193.202916L961.197623,193.258842L963.584983,186.236065L967.655518,174.267994L944.765721,167.892589L943.624789,167.573022L907.231556,157.442841L892.208612,153.256607L889.605226,152.529612L888.862335,152.321899L874.171109,195.168351L868.387890,195.264226L851.728775,195.575820L850.059980,195.583810L806.941574,196.502614L772.221851,197.245648L745.744037,197.812911L726.160988,197.876828L725.237834,197.900797L718.977228,217.012331L714.882887,229.340910L710.041699,244.106814L705.471717,256.931426L701.582266,267.231289L698.901946,275.541641L691.334953,297.444827L687.060751,309.735293L685.961006,313.075664L663.324708,313.067672L655.458807,313.139594L653.866703,318.549760L653.036913,320.963175L652.207135,323.376601L651.247866,326.173631L650.869831,327.276464L649.098718,332.455015L647.634823,336.730553L644.844266,344.858165L636.562950,369.025946L635.085199,373.341735L634.222723,373.341735L630.328282,373.397681L623.801312,373.525556L623.709373,373.637448L620.243800,373.589494L597.907303,374.005091L580.162636,374.332773L577.551671,374.380726L566.847321,374.588525L566.055635,376.858329L564.564400,381.469898L571.954288,381.469898L568.910292,390.940920L563.027281,409.196084L555.208330,433.598541L534.276254,434.381868L524.424213,434.709587L526.969689,427.379927L527.917451,424.558394L527.260338,424.550401L518.151778,424.550401L521.399203,415.222662L530.516209,415.198683L530.703196,414.671155L531.064971,413.632086L525.745776,413.743986L526.957345,410.123246L521.548649,410.211166L489.063790,410.738690L490.146862,407.517607L473.510816,408.053120L475.729752,401.738887L480.504606,387.608061L481.911869,383.252196L477.634886,382.820607L477.410133,379.455828L477.336768,378.704550L477.147444,378.225012L476.422657,377.449759L475.030008,375.683465L474.434340,374.396711L474.188661,373.781308L474.116089,373.285789L474.144208,372.598458L474.398739,371.567462L475.046514,369.593390L476.232177,366.028891L465.695873,367.771177L463.606223,367.491452L464.121000,363.663227L466.656315,360.346519L467.921287,360.298567L469.143155,359.635228L470.487105,359.235627L471.561914,358.692169L472.476305,357.900960L472.811926,357.341520L479.034938,354.072803L483.783083,350.172746L484.568053,349.525403L491.529787,350.732179L493.296752,350.724187L495.503056,349.477452L497.920071,347.415551L505.098228,348.214736L504.658027,349.437493L506.863381,349.501428L507.379737,349.021915L508.377519,347.719241L508.984047,346.672309L509.328265,345.849150L509.542434,345.097919L520.605487,345.002017L519.405199,348.478468L526.887182,348.734208L517.063282,377.985243L521.130689,377.865358L522.135181,377.833389L525.031912,377.753466L536.311742,377.433774L536.745815,377.425782L536.339793,378.312927L535.318785,381.174181L534.884363,382.381027L533.388428,386.545066L532.025430,386.593021L531.371033,388.623102L530.661539,390.661183L537.423171,390.461371L535.928541,394.105957L537.922508,394.065994L541.099066,394.265808L542.779385,389.286477L543.181980,388.095600L543.302089,387.719955L548.458022,387.791887L549.479731,388.559162L550.667006,382.740684L552.122877,376.994198L552.938986,374.692424L548.316910,374.644471L554.598963,355.103765L549.286957,355.103765L550.161679,352.434456L550.208993,352.282609L552.813644,344.274763L556.824871,331.951542L561.491937,317.614765L560.856200,317.638739L529.734966,318.158181L503.964067,318.845443L460.545788,319.716509L459.729941,319.732492L458.913394,321.186936L457.948907,322.321725L455.369534,324.767123L451.299161,328.155536L450.281288,328.906743L449.504978,330.984557L448.620946,333.366061L445.531853,343.363698L445.675035,345.649355L447.143801,348.766175L448.874955,359.027834L448.382047,361.873001L447.128208,365.205702L445.060488,368.530432L443.122692,369.849140L439.272284,370.960055L434.025382,371.439587L429.776336,375.627519L423.598307,379.727568L423.346055,380.438885L450.069928,380.862479L464.330828,382.381027L450.789230,387.568098L450.291312,388.990755L440.223501,415.230654L432.939557,434.229998L433.640908,434.150067L432.893455,436.811787L461.298548,435.868593L444.860309,482.198911L444.511678,483.477927L440.592227,494.669444L429.809609,494.413636L428.335443,494.461600L426.572226,494.661450L418.407052,494.653456L418.086779,495.612740L416.674087,497.571283L416.233833,498.186826L412.695864,501.016736L408.126219,502.479661L404.397811,503.430965L403.682724,503.438959L403.376475,503.454947L401.403537,508.986929L401.278923,509.338675L400.940160,510.258014L400.455059,510.649732L400.106977,510.857583L399.940119,511.033457L399.823575,511.233313L399.661953,511.265290L399.119356,511.561078L398.286630,511.808901L397.819187,511.984775L397.671268,512.328529L397.481975,512.512397L397.216451,512.616323L396.707382,513.167929L396.533105,513.567644L396.534403,513.711542L396.385174,514.151228L393.845884,513.959365L391.444690,513.783490L384.470039,513.199906L384.126989,510.018186L383.928050,508.163523L384.387825,505.925146L384.473663,505.701309L384.624219,505.165698L384.673482,504.750001L384.595334,504.214392L384.729567,503.558871L384.741788,503.303058L384.537970,502.679515L384.514487,502.247831L384.558757,501.680248L384.316652,500.593048L384.321718,500.025466L384.178480,499.194081L384.187871,498.946264L384.120589,498.730423L384.129334,498.410660L384.134577,498.266767L384.084935,498.074909L384.064340,497.155591L384.022378,496.444121L383.908592,495.253008L385.029902,495.205044L387.046649,495.101122L406.327346,494.517558L407.945492,494.413636L412.722452,481.743263L412.907438,481.239651L413.017908,480.927892L415.411443,480.903911L417.203818,480.879929L424.559981,480.791997L443.371526,480.536195L444.606476,477.050903L447.108699,469.952487L437.239485,470.088379L426.629061,470.232265L422.440345,470.288221L421.989720,471.615170L421.440181,473.165947L420.653992,475.532090L419.636218,478.385863L413.914745,478.433826L414.651228,476.355446L415.640697,473.581620L417.219391,469.145128L415.841523,469.161115L411.019624,469.289013L409.506272,469.336975L408.755696,469.352963L405.995162,469.416912L393.288136,469.336975L392.149431,469.305001L390.874374,469.289013L389.613895,469.360956L386.101460,469.536817L385.277042,469.576785L387.515723,468.145923L395.765932,459.616783L395.881492,458.977303L395.893738,458.721511L395.761820,458.337824L395.735547,457.914169L395.680258,457.738312L395.744368,457.354626L395.657048,457.250710L395.518644,456.627220L395.400617,456.499324L395.347618,455.763927L395.498049,455.044516L395.492660,454.764746L395.551566,454.285140L395.575884,453.589712L395.522333,453.445831L395.508036,453.062147L395.570185,452.702444L395.718836,452.190866L395.706097,451.655309L395.755409,451.239652L395.887471,450.903930L397.053529,447.226989L397.447778,447.147055L411.080261,444.357393L414.279514,436.124374L414.887126,434.557717L420.390608,422.424270L420.590289,421.768847L422.445637,415.798147L419.381786,415.870083L413.241715,415.846104L412.670417,415.854097L400.065072,415.894062L401.532749,411.809724L401.629100,411.537969L402.174536,409.907441L400.367671,409.843499L398.600010,409.779556L396.298054,409.803535L396.966228,407.845309L396.251618,400.444079L397.418425,395.144988L397.541716,394.465622L396.674426,394.497592L386.691670,394.217853L383.472047,386.161430L383.184463,381.813569L383.173844,381.677699L385.443569,381.541829L385.565876,380.662671L385.620302,380.159153L385.693081,379.511775L385.401870,377.329874L385.474218,376.131032L385.467298,374.916207L385.528268,373.325751L385.648914,371.751283L385.431688,369.305672L385.514334,365.940977L385.593147,364.981923L386.159577,363.071812L386.308298,362.136739L386.366411,361.217652L386.194977,360.282583L385.368263,358.708153L384.652632,357.133728L384.302367,356.758104L383.834387,356.622241L383.032453,356.654209L380.658942,356.622241L378.976667,356.686177L386.002500,338.041192L421.471931,337.513739L424.697018,337.465789L425.175426,336.706578L423.272553,331.719785L421.989106,331.727777L390.596107,331.999492L389.883098,334.101293L384.016411,334.173218L373.294040,334.285101L369.812169,334.357026L371.072313,330.529036L372.361951,326.581200L365.442746,326.581200L366.363075,323.416559L366.726276,322.337708L368.033376,318.469846L382.110705,278.674038L387.152869,264.874050L388.470895,260.958657L383.194196,261.062534L385.071266,255.940604L394.945669,255.620984L403.086859,231.162656L404.251768,231.138685L412.680977,205.818578L412.935773,205.818578L413.068010,205.483009L422.663620,176.552932L432.359124,147.384751L416.976619,147.800173L401.754593,148.223584L370.772245,149.022473L369.814558,151.938430L367.291492,159.352221L361.948051,175.330569L361.392358,176.968377L359.031431,183.927117L355.064529,195.959321L353.072976,201.639957L351.571416,206.345902L351.466421,206.641523L357.582046,206.529666L356.762169,209.390007L350.490000,209.445936L350.057558,210.700336L348.691748,214.343707L347.068033,219.449261L344.663418,226.496443L342.919879,232.105491L341.075150,237.410970L279.583811,238.090139L277.078423,245.329334L274.573139,252.568626L271.948799,260.143620L269.497632,267.231289L301.148606,266.616009L300.922257,267.327177L297.513418,267.175355L277.593444,325.486360L280.476784,325.462385L279.992449,326.900861L284.479639,326.812954L310.922110,326.277521L310.435716,327.556169L299.176256,327.763949L297.716551,332.135350L293.488091,332.598864L288.047706,348.502444L286.013686,354.456417L297.145607,354.424449L295.554621,359.203658L294.921745,361.337533L294.312413,362.999883L293.714426,364.630270L292.761185,367.243695L307.678771,367.075860L309.306250,362.248628L328.569407,361.729144L326.847185,366.676253L321.322522,382.564851L320.959433,383.643822L321.850020,383.619845L325.319165,383.491967L323.327301,389.550228L316.303181,389.790002L318.268957,382.644775L306.573713,382.956478L288.687011,383.499960L287.715892,386.385218L286.692517,389.270492L284.779190,394.849264L283.758075,397.654657L276.649011,417.940238L271.620978,432.359609L267.523984,444.117594L266.750115,444.125588L261.306893,444.181540L262.761840,440.041037L236.752411,440.400732L232.294996,440.440698L206.529287,440.776414L197.042041,440.904306L192.291451,440.960258L187.048857,454.676818L186.796854,455.332280L186.021009,457.354626L181.033148,471.423322L195.815656,471.639151L206.393138,471.791032L215.502136,471.974886L218.910679,471.870968L226.932277,471.583196L226.325875,473.293847L239.072191,473.133973L238.358133,475.148390L255.702372,475.308265L254.829673,477.770342L255.728809,477.722379L286.198468,477.482566L298.719014,441.479819L330.223463,441.176076L312.611746,494.773367L312.242157,495.908520L330.458807,495.764627L342.126881,495.660704L342.436831,495.652710L343.676855,495.564776L345.026002,495.500824L344.771837,496.955740L344.642855,497.227538L343.954817,498.634495L342.915991,500.920807L342.273058,502.255826L341.275165,504.813955L340.493925,506.188954L339.836778,506.180960L337.873888,511.720964L337.296749,513.183918L334.800799,520.394820L330.050730,535.592390L339.121168,535.240627L337.798466,537.830889L335.361067,537.830889L334.724748,539.645680L332.107222,547.016829L331.725354,548.703732L332.050327,549.870977L333.163224,562.558927L333.363683,565.277241L332.984717,566.956206L332.355927,569.026937L331.299811,572.009123L328.745750,579.516630L327.901639,582.490878L326.500312,584.953440L341.839082,583.786120L340.981063,586.504540L365.834255,585.393184L366.111972,585.273254L366.828559,584.633626L367.021324,584.513696L367.171176,584.385770L367.515303,583.986003L368.418568,583.354372L368.657502,583.122508L368.855481,582.858662L369.019936,582.818686L369.407402,582.314981L369.837356,581.931206L370.078674,581.563422L370.051428,581.363540L369.907876,581.307573L369.965369,581.163657L370.437768,580.420096L370.681685,579.860426L370.920366,579.204814L370.927541,579.036914L371.019221,578.741089L370.935102,578.277364L370.780208,578.013521L370.746216,577.869607L370.426207,577.573783L370.179846,577.549797L369.620457,577.357911L369.561412,577.174021L369.604305,576.942159L369.404114,576.806240L369.348560,576.686312L369.135726,576.438460L368.841841,575.902780L368.624218,575.686909L368.278732,575.463043L368.196381,575.271158L367.921691,575.087268L367.647857,574.679513L367.114148,574.119849L366.965578,573.911975L366.596127,573.608158L366.376532,573.176418L366.363447,572.936563L366.484515,572.280959L366.427218,572.129051L366.437426,571.657336L366.364442,571.457458L366.381415,571.169632L366.516871,570.657943L366.759714,570.138259L366.910441,570.026327L367.067046,569.842440L367.586978,569.610581L367.970982,569.282781L367.917376,568.899015L367.780133,568.659162L367.738081,568.427304L367.474278,568.083514L367.434184,567.827671L367.234869,567.707745L367.032066,567.523857L366.788538,567.491877L366.290586,567.347965L365.910701,567.331975L364.861206,566.900241L364.526180,566.628408L363.931296,566.444521L363.857013,566.340585L363.439653,566.116723L363.050618,566.052762L362.097639,566.012787L361.595770,565.916846L360.451305,565.421152L360.257644,565.045384L359.956608,564.917463L359.584346,564.861498L359.264577,564.749567L358.938048,564.453750L358.777718,564.149938L361.692190,564.149938L382.411948,564.117958L376.370754,581.307573L371.797263,593.652449L357.007266,593.860331L355.707712,593.876322L353.699567,593.900309L351.196465,595.451434L350.416917,595.955151L346.536373,598.369800L345.946503,600.312721L347.065918,600.288734L343.512726,604.030676L342.442705,607.053032L347.193553,607.053032L345.487785,612.074337L342.051099,612.146299L341.308079,612.122312L331.999813,612.314210L331.620503,613.385641L324.951604,632.279961L324.814873,632.647779L324.353928,632.583811L323.524817,632.359922L322.662781,631.952124L322.493288,631.840179L321.962623,631.696250L321.441115,631.600298L321.127852,631.488354L320.972303,631.392401L320.723058,631.136528L319.527283,630.600795L319.013144,630.280954L318.864755,630.017086L318.733598,629.889150L318.679321,629.673258L318.477819,629.633278L318.284560,629.385402L318.160604,629.329430L318.017668,629.105542L317.940290,628.825682L315.819647,627.210494L315.296812,626.970615L314.672666,626.610797L314.038738,626.370918L313.442310,626.338934L312.810377,626.314947L312.503026,626.370918L311.716249,626.562821L310.663743,626.914644L308.970433,627.618289L308.172372,628.082055L306.292835,628.905642L301.825271,631.280457L301.602914,631.576310L301.418226,631.784207L301.250979,632.072064L300.382406,632.919645L300.184440,633.183515L299.969950,633.623298L299.829509,633.983121L299.584300,634.398916L299.183584,634.958642L298.423070,635.870196L298.109475,636.349962L298.056779,636.461907L301.653073,641.699380L299.492608,641.747357L298.616710,641.803330L295.547879,641.851307L294.000987,646.129281L293.202138,648.072372L291.242299,653.461886L290.714398,655.101141L290.683678,655.077151L290.234768,656.308595L286.158127,667.439687L284.397864,672.173668L236.090423,672.357591L235.797637,673.277203L219.171219,673.557086L197.374213,673.932928L193.766231,684.496605L189.339338,697.467576L188.891136,698.771087L184.533127,711.382521L180.903091,722.066880L180.590768,722.986576L174.148273,723.130529L170.872512,732.703462L166.690546,732.775439L151.884955,733.079345L148.115592,733.167317L133.943926,733.471223L116.909354,733.887094L104.010325,734.159010L89.931216,734.422928L78.943139,734.742830L72.462660,734.790815L50.637884,735.390631L41.348934,735.470606L34.852026,753.721312L0.000000,851.615249L10.260308,851.359273L95.146733,849.255480L126.214074,848.527553L143.033883,848.167590L143.170635,849.167489L143.314381,849.463459L143.544343,849.663439L144.503310,849.927413L144.887860,849.967409L148.024007,850.007405L153.693794,849.887417L156.570454,849.903415L206.168426,848.431563L229.675485,847.735634L249.146717,847.159693L252.259025,847.063703L251.930033,848.031604L258.666371,848.111595L259.876386,848.127594L260.285318,848.135593L266.462060,848.023604L276.236166,847.959611L303.399361,847.607647L312.930754,847.527655L314.989726,847.471661L317.317154,841.144351L317.982688,839.168581L319.612725,834.297179L322.632252,825.642347L329.319158,806.797360L330.739358,802.798082L330.927214,802.174198L330.899537,801.790269L330.678944,801.582308L330.016753,801.366348L329.699333,801.358349L329.443377,801.398342L325.849742,801.950239L325.284010,801.646296L325.068377,801.350351L324.967558,801.062405L324.971495,800.718469L325.065356,800.286551L325.761324,797.911004L327.380802,792.128152L328.009185,789.592674L328.310162,786.689286L328.324860,786.481330L328.758436,779.394892L328.938133,776.483560L329.048535,773.916161L329.609540,765.102318L329.635940,764.750407L329.672964,764.294523L330.267988,755.144925L330.297798,754.617068L330.684919,748.162860L331.048909,741.404818L331.109056,740.477094L331.763304,731.087967L331.714423,730.376192L330.444805,730.344202L326.320108,730.328207L325.558687,730.208245L325.137495,729.976318L324.823892,729.680412L324.648410,729.400501L324.616900,729.064608L324.703028,728.728715L326.540526,723.866287L326.898024,722.818632L329.586594,714.885305L329.903536,713.693716L330.292370,712.502130L330.918732,710.934679L331.282881,710.126963L335.406583,698.507186L336.275770,698.507186L337.067937,696.268028L341.889454,682.529395L345.698346,671.653888L350.849925,657.188198L353.087256,650.903060L353.643611,649.127881L355.276965,644.641982L354.384293,644.689959L337.963895,644.370110L349.356518,614.049290L359.105251,613.905366L359.452322,612.961866L361.352999,607.980530L355.165107,607.812621L355.448172,607.013053L367.546410,607.172967L368.431448,607.164971L369.400809,604.334510L369.566279,603.774816L371.115710,599.121382L403.101972,599.089400L415.000092,565.189295L415.931722,565.197290L422.482292,546.201360L421.682229,545.969512L426.442846,533.026121L433.618664,532.802273L437.790326,532.610403L440.234251,532.610403L444.541832,532.514468L448.061779,532.354576L456.271796,532.162707L465.107384,531.938859L481.222890,531.363250L488.679239,531.011489L488.405689,531.746989L484.973998,541.012773L484.684348,541.812244L482.858498,546.912896L480.663992,552.741130L470.560348,552.781105L449.921129,553.028946L448.358135,557.258254L446.976360,560.975915L439.349714,582.866658L423.319961,583.106517L421.548434,588.479400L413.236287,612.218261L413.067345,612.713997L413.016400,612.857921L414.630518,612.857921L416.548278,612.793955L419.655387,612.729989L421.614566,612.825938L422.528576,612.809946L422.454323,612.945874L422.561251,612.809946L422.842251,612.809946L423.074677,612.817942L424.185354,612.634040L426.915188,612.602057L428.818590,612.634040L429.696014,612.666023L429.761108,612.482120L429.915894,612.026363L433.648820,601.536045L463.876428,601.727940L460.356628,611.690541L461.274342,611.682546L460.835687,612.921887L468.351426,612.753976L466.931663,616.783852L463.827583,616.783852L461.215602,624.164039L467.005555,624.164039L465.165340,629.345422L466.205680,629.249470L468.402237,629.025582L462.608346,645.361642L449.293877,645.313665L448.697236,645.337653L447.699331,645.313665L447.238121,646.617052L446.596502,648.504171L445.820556,650.623189L444.504680,654.397460L443.472641,657.388109L442.408621,660.450742L441.557212,662.801704L440.600256,665.432555L439.895191,667.591621L438.948104,670.342444L439.620345,670.326451L440.410218,670.310458L440.189547,670.934193L442.665201,670.734278L464.683908,670.470390L479.267193,670.294465L499.656691,670.054567L479.980612,726.481436L470.600817,751.106034L455.996643,789.424709L461.455643,789.456702L460.597142,791.904197L459.602806,794.495675L461.472879,794.511671L469.559627,793.839806L491.607428,792.000178L497.694038,791.976183L519.286151,791.888200L520.267170,789.056786L520.860949,787.321151L521.630386,787.289158L523.288845,787.201177L535.184735,786.569312L532.986200,792.624051L528.352025,794.215730L526.283299,797.351113L526.010023,797.847017L520.638372,810.292752L518.991905,810.420730L514.499054,810.428729L512.943558,810.428729L512.163323,812.692348L510.319557,817.947499L512.255547,818.091477L520.150718,818.683384L523.335710,824.578500L517.250487,843.672066L520.628629,843.656068L520.207430,844.903932L532.794031,844.759948L533.240480,843.496086L533.596511,842.488198L534.140095,840.912377L526.870491,840.880381L527.823536,839.144584L529.801133,837.616767L532.114211,836.600890L533.875321,836.240935L535.888349,836.240935L535.213171,838.096709L548.684019,838.224693L547.685146,840.904378L546.767173,843.392097L546.240192,844.735950L550.396272,844.663958L554.943617,844.575968L555.462999,843.272111L555.620002,842.920150L555.910204,842.672177L557.140995,842.000253L557.900008,841.720285L558.712562,841.640294L559.566444,841.480312L560.423665,841.144351L561.035521,840.744397L562.536708,839.584532L563.420731,838.728633L564.762433,837.816742L565.094993,837.152823L565.099880,836.472906L565.613160,835.944972L566.340747,835.864981L567.095851,835.337047L567.723951,834.817113L568.434730,834.433161L569.037424,834.281181L569.709873,833.913227L570.347506,833.329302L571.028753,832.529406L572.762490,830.137723L573.336709,829.529805L573.998202,829.081866L574.471754,828.721915L575.407383,828.090002L575.996077,827.330108L576.396637,826.418236L576.615102,825.818321L576.449919,825.490368L575.757089,824.898453L575.375324,824.258546L575.394702,823.426667L575.477845,822.506803L575.869747,821.378972L576.275450,820.619087L576.795971,819.867202L577.454975,819.019332L578.198582,817.987493L579.941403,815.995809L582.298014,812.988299L583.309420,812.012462L584.204765,810.828661L584.713983,809.812834L586.901419,807.469241L587.770805,806.229461L588.579787,805.197645L589.347265,804.301807L590.096546,803.253998L590.835232,802.310172L592.428132,800.502510L594.766813,799.062783L596.212075,799.078780L597.126359,799.006794L598.111294,798.734846L599.243543,798.230943L600.595349,797.383107L600.892274,797.079166L601.013445,796.847211L601.091865,796.255327L601.070840,795.815413L601.202429,795.239527L601.695243,794.399694L602.230805,793.623849L602.684586,793.023970L602.817770,792.832009L603.232338,792.232130L604.130539,790.744435L605.068665,789.328729L606.267510,788.432916L607.736081,787.569099L608.301147,787.209175L608.745746,786.857250L608.877522,786.225385L608.681640,784.985652L608.978751,784.329795L623.945787,783.865896L627.409120,783.737924L638.275147,754.081214L631.741964,754.241171L632.478493,752.249717L637.036714,739.797296L638.052469,736.942157L638.694044,734.886785L640.468103,729.128587L641.100348,727.081243L638.752209,727.105235L639.383729,725.281825L639.607259,724.594049L637.988255,724.626039L635.247117,724.634036L628.918074,724.642033L618.108469,724.402112L613.008211,724.650031L600.799764,725.057898L589.497132,725.121877L581.785284,724.881955L576.381059,725.009914L575.958884,726.185532L573.837536,726.233516L574.238345,725.025908L593.992981,667.647597L625.240657,667.231776L625.492372,666.520084L633.858430,642.738884L645.198277,610.483186L648.035491,610.443207L648.718590,608.420293L649.810301,604.910196L654.458537,604.886209L653.449160,608.348332L679.399844,607.884582L701.632458,607.604733L711.006200,607.356867L715.084067,607.061027L726.014570,606.661244L731.011503,606.501331L731.982265,603.886754L736.212463,603.806798L735.290478,606.357409L738.663737,606.261461L742.464592,606.157517L743.249425,603.846776L747.965638,603.870763L747.167257,606.053573L753.332852,605.933639L755.862923,598.449756L763.340631,598.185903L769.213400,597.970023L766.795841,605.597821L769.967394,605.517865L788.493526,605.038126L795.784183,604.878213L801.890079,604.742287L810.391632,604.558387L813.629214,604.550392L815.938846,604.542396L816.398119,603.207127L823.393947,583.210456L828.238776,569.258796L831.723375,559.097094L834.149690,559.073109L848.107464,558.889225L852.682088,545.721674L856.881016,545.729669L860.968856,545.737663L866.481241,545.745658L883.511324,545.761648L883.923004,545.761648L883.595032,546.633079L882.242675,550.214755L881.529770,552.229458L877.449449,553.252803L877.291026,553.700516L876.973306,554.579955L876.658416,555.451400L876.340698,556.330842L876.016448,557.210285L875.698733,558.089729L875.063309,559.848622L874.748428,560.720075L874.464665,561.503585L873.867523,562.470982L873.405289,563.038629L871.555851,565.716969L871.410421,565.924841L870.478635,567.284005L868.617022,569.978357L866.552739,572.968543L864.996148,575.207196L865.566817,575.127244L867.113598,575.151230L868.990822,575.183211L872.300031,575.231182L871.405920,576.502421L870.398573,577.853616L869.187479,579.540615L868.360870,580.731912L867.693635,581.731324L866.952177,582.866658L866.227497,584.009989L865.145846,585.792952L864.113650,587.583916L863.124375,589.382881L863.020991,589.582766L862.170413,591.229825L861.353393,592.892879L860.862423,593.948281L860.600163,594.467988L859.486954,596.746707L858.590073,598.561693L858.323039,599.113386L856.966169,603.023227L856.819981,603.454991L856.482740,604.334510L857.812143,604.326514L857.327840,605.621808L853.848112,615.256653L849.007688,628.665762L847.192644,633.687266L842.115848,633.703259L837.901668,633.719251L837.503035,633.719251L835.886068,633.727247L830.887691,633.743239L823.139849,633.791215L821.973795,633.799211L819.779113,633.759231L816.610339,633.831196L811.730471,633.863180L805.944570,633.759231L790.823300,677.723354L805.428676,677.651383L823.379168,677.563420L821.358024,683.225115L821.293003,683.409041L836.448448,683.297086L839.856071,673.325183L841.758205,667.815525L842.290778,666.272191L843.402240,663.017609L851.947502,662.969630L857.494036,662.937644L858.098092,662.929648L859.828521,657.979843L860.243246,656.788378L861.340416,653.629809L861.893690,652.046534L861.140212,652.070523L857.076985,652.158482L858.027862,649.487714L862.006821,649.471721L862.787318,649.463725L864.358662,644.945838L867.219276,636.541868L868.251537,633.567325L867.333813,633.575322L852.697041,633.663278L862.377228,605.405926L862.803894,604.310523L863.160736,603.431004L863.285176,603.079197L864.687282,599.041426L867.019339,599.025435L869.342032,599.017440L871.668433,599.017440L873.997662,599.009444L876.320356,599.001449L879.574702,599.001449L880.121871,598.969466L880.514109,597.842094L875.331990,597.842094L876.438022,594.659880L881.631444,594.627898L881.696493,594.444001L882.008671,593.524521L877.269862,593.564498L878.082847,591.173857L877.618876,591.173857L879.106291,586.784378L880.697519,582.083117L881.433313,579.892407L880.505378,579.892407L881.763584,576.206598L887.900778,576.166622L888.697744,573.840018L890.400076,568.899015L892.428547,562.814768L892.753132,562.894718L893.281743,563.358430L893.956642,564.165929L894.547470,564.989419L895.181411,565.764940L895.695975,566.508482L896.134075,567.228039L896.785097,567.659774L897.478931,568.395323L898.010669,569.034932L898.669592,569.610581L899.805450,570.482050L900.270481,570.977749L900.474516,571.361516L900.946867,571.633351L902.025091,572.169027L902.786726,572.472843L903.323938,572.616756L903.428590,572.856611L903.293991,573.440259L903.177144,574.287748L903.482520,574.791446L904.156768,574.991326L905.744416,574.807436L906.449094,574.847412L906.950611,575.055288L907.530447,575.023307L907.965543,574.735479L908.161096,574.071878L907.786568,573.856008L907.586235,573.480235L907.711273,572.960548L908.039181,572.624751L908.713721,572.472843L909.410595,572.608761L910.326919,573.528206L910.662922,573.816032L911.330147,573.887989L911.914567,573.879994L912.705464,573.824028L913.490411,573.600162L914.234589,573.288350L914.932633,573.088471L916.142631,573.048495L916.950986,573.072481L917.543891,573.040500L918.244569,572.888592L918.867220,572.624751L919.255498,572.376901L920.837970,570.194225L921.314614,569.770483L921.954528,569.642561L922.340369,569.826449L922.538263,570.098284L922.871729,570.042318L923.880513,570.146254L924.787474,570.538016L925.115671,569.850435L925.312201,568.371338L925.094820,565.125335L925.442730,564.141943L926.515992,563.158554L927.433590,562.375042L928.193557,562.886723L928.544802,560.951930L927.510382,560.440251L925.983199,561.487595L924.598910,561.983286L923.537959,561.583535L922.710906,560.504211L922.499809,558.145694L922.154910,553.228818L922.288771,546.257324L960.554628,545.705684L961.220448,543.786942L967.349150,526.078869L968.430237,522.913063L969.848207,518.739982L970.157658,517.828623L970.337847,517.300996L972.498399,510.937525L972.982402,509.514549L974.710363,504.318316L975.030282,503.359017L975.061405,503.271082L978.359852,493.878037L980.669852,487.314993L981.109318,486.091925L982.890001,480.839960L984.750435,475.492121L984.787223,475.388202L983.493426,475.388202L984.704594,471.966893L981.104188,471.966893L979.958356,475.388202L979.598968,475.388202L975.584062,475.396196L974.627581,478.098087L935.997707,478.297931L935.693864,479.433050L931.759108,479.473019L932.772624,476.259521L931.658958,476.267514L929.579414,482.510671L921.142940,482.678542L926.491809,467.330573L928.371530,461.910925L934.853896,443.198368L933.685148,443.214354L930.106368,443.190375L909.972367,443.510105L903.356293,443.685957L901.859497,447.986355L899.981717,453.565732L897.889120,459.936524L896.386447,464.844562L896.337247,465.020421L896.104732,465.787806L894.060936,472.630369L893.433186,472.502470L892.825495,472.502470L887.202281,472.494476L886.062956,475.620021L885.768000,475.364221L885.500056,475.124409L883.745352,473.565633L883.247589,473.125979L876.305813,476.491340L875.958028,476.883034L875.567125,477.322691L875.462822,477.506548L875.280316,477.634448L874.568850,478.425832L871.731153,476.659208L871.744395,476.363439L873.570627,471.039625L878.055011,457.914169L873.507170,457.914169L866.731148,457.914169L865.604990,461.223481L862.778805,469.536817L859.892445,478.002162L859.527118,479.089316L863.420711,479.073329L863.347996,479.297155L862.787591,480.879929L861.938294,483.334038L861.312806,485.100683L860.916572,486.219828L853.563031,486.355724L845.916316,486.507608L837.995820,486.731437L836.899793,486.763413L843.990142,466.259429L846.411045,459.257076L847.894815,454.956589L847.748231,454.964582L844.421875,455.076490L852.525381,431.680195L832.009252,431.880022L840.360295,407.125963L851.296683,376.186978L853.377743,370.240757L855.603969,363.958934L860.072685,364.070823L857.778980,370.192804L857.175063,371.823213L878.010182,371.495532L879.908461,369.697289L885.662435,369.593390L885.823867,369.137836L885.874846,368.993977L905.132962,311.637224L921.122016,311.117789L901.817717,369.417562L901.612715,370.032960L912.461386,369.897093L912.351808,370.224773L910.159416,376.762422L910.874635,377.178021L912.543649,376.690491L913.118428,376.506669L914.790860,377.042152L916.232452,377.178021L917.430992,377.170029L918.846464,377.066129L919.004148,377.082113L919.262010,377.257944L919.211879,377.897327L919.396100,378.520727L919.550912,379.264013L919.744281,379.935368L920.119522,380.406916L920.959126,380.526801L922.054646,380.606724L922.857867,380.958387L923.152290,381.805577L922.945121,382.740684L923.312512,383.547914L923.659222,384.155335L923.983710,384.954575L924.463714,385.609953L924.701083,386.489119L924.882261,387.416242L925.303025,388.183517L925.707453,389.070680L925.979900,389.813980L926.224904,390.653191L926.452054,391.284598L926.890259,391.652253L928.286999,392.043886L929.578330,392.179758L930.872266,392.843137L931.535246,393.018973L932.195612,393.146853L932.695676,393.450569L933.314224,393.770270L934.076740,393.794248L936.293945,393.474547L937.282756,393.394621L938.319049,393.106890L939.016010,392.947040L940.037272,392.923062L941.186820,392.795182L942.304133,392.555406L943.347829,392.523436L944.055460,392.499459L944.966952,392.379571L948.602028,392.059871L949.252596,391.828088L949.772701,391.780133L950.337019,391.884035L951.016553,391.884035L951.368082,391.740170L951.582180,391.652253L953.174511,391.676230L954.122156,391.860058L954.675802,392.067863L955.459009,392.051878L956.977942,392.227713L957.614788,392.403549L958.607301,392.571391L959.315150,392.731242L959.957441,392.947040L960.632621,393.106890L961.503166,393.194808L962.242597,393.394621L963.026460,393.690345L963.680731,393.706330L964.529276,393.450569L965.377826,393.674360L966.300209,393.874173L968.479297,393.994062L973.169832,393.978076L974.068037,393.914136L974.725139,393.922129L975.692824,393.994062L976.768973,394.018039L977.633420,393.994062L978.404219,394.289786L979.061547,394.721383L979.782029,394.753353L980.710945,394.713391L981.528128,394.601495L982.573345,394.417666L983.326931,394.337741L984.631126,394.769338L984.969378,395.160973L984.980270,395.240899L993.600755,371.423602L985.406586,371.591439L962.104934,372.039002L957.330820,386.233362L953.185234,386.537074L953.625210,385.258287L958.983604,369.433547L963.047034,369.361617L963.422790,368.282675L964.248891,368.274683L965.513410,364.558341L970.117070,351.363539L972.999536,342.916158L974.038084,339.967198L973.156025,339.967198L968.322577,339.815355L949.442108,340.214942L945.752040,340.302851L955.059350,313.251473L956.160675,310.070928L952.311259,310.110884L954.088862,304.764733L955.967644,299.114971L957.236910,295.295222L988.456866,294.919642L991.526344,286.169489L992.535343,286.161498L994.630759,279.385222L996.299990,274.566766L1000.000000,263.763354Z M810.705551,312.364435L809.759904,312.396400L802.618079,312.748019L803.008619,311.093815L797.610487,311.189710L798.044501,309.855163L797.763554,309.855163L800.646764,301.632184L814.423160,301.456379L813.940096,302.910773L810.705551,312.364435Z M810.705551,312.364435L811.809106,312.292513L827.274338,312.052773L832.268251,311.972860L827.415355,325.973843L826.089198,329.769834L826.135571,329.841759L826.171709,329.905691L826.202181,329.985607L826.231555,330.105481L826.247862,330.225355L826.241965,330.297279L826.228436,330.409162L826.216873,330.497069L826.192242,330.584977L826.160210,330.656901L826.120546,330.768784L826.076314,330.856691L826.016182,330.952591L825.961716,331.032507L825.872615,331.136398L825.702914,331.320205L825.618612,331.392129L825.534310,331.464054L825.439774,331.527987L825.348071,331.583928L823.731634,341.525589L813.716550,370.352648L813.561632,370.808203L812.067333,370.784226L808.398758,370.848164L805.284696,370.896117L789.042157,417.932245L788.842841,418.531713L770.724659,418.787486L769.861288,418.771500L768.732463,422.160502L767.096143,426.428757L768.065806,426.476715L772.928066,426.492701L770.852450,432.351615L774.105376,431.911995L768.993641,446.323744L758.186248,476.579271L757.979592,477.162815L755.409640,477.186797L754.978374,477.186797L755.142568,476.723159L757.679115,469.320988L761.635726,458.002097L762.200230,456.371429L765.596944,446.523576L765.681887,446.283777L762.145575,446.379697L759.327154,446.459630L756.518098,446.531570L753.702508,446.603510L750.898244,446.643476L748.093980,446.683443L745.286884,446.731403L742.482619,446.771369L739.682057,446.819329L736.874960,446.867289L734.094219,446.859296L735.980720,441.367913L736.578418,439.625390L739.103888,432.367602L736.322081,432.399574L715.633858,432.679333L709.425102,432.775250L674.353442,433.262830L674.537084,432.855181L674.674764,432.503485L674.274441,432.471512L675.200102,429.969675L676.498532,426.452736L678.272062,422.480220L679.214422,419.083223L673.723398,418.979315L650.620577,419.011287L649.565755,419.019280L649.705415,418.643613L649.263929,418.635620L646.589296,418.715549L649.061273,411.482020L651.952387,411.418077L652.313499,411.450048L652.420268,411.130337L655.383682,402.658043L656.409364,399.708757L656.890068,398.334028L658.151770,394.737368L659.452290,391.012853L662.878465,381.310051L665.527609,374.021075L681.559503,373.677409L687.391043,373.557525L689.841488,373.501580L691.959787,367.507436L698.923862,367.307632L698.467908,368.778189L704.981684,369.129844L702.912416,373.197875L702.548238,374.372734L707.100409,374.396711L706.958231,373.101968L708.800157,367.795153L711.301629,360.554312L712.360611,357.493368L717.185473,342.612470L719.784145,335.651676L729.072775,335.547784L736.725999,335.467867L742.844658,335.403934L743.816244,332.958488L751.063185,313.331387L752.527356,313.403309L758.619251,313.690997L774.137713,313.227499L779.757365,313.059681L779.353487,314.106548L778.783528,315.584951L776.910058,320.979158L771.123696,337.649598L770.364149,339.847322L770.311821,340.087074L770.226188,340.254901L769.401489,342.636446L784.664226,342.452635L785.008200,342.108988L785.466302,340.798339L790.041672,327.524202L805.587881,327.148599L806.946375,323.224763L810.516571,312.915837L810.607244,312.660114L810.705551,312.364435Z M747.854371,484.461173L748.663994,482.174930L751.134426,482.302831L751.665454,482.334806L752.281429,482.366782L752.016416,483.078234L751.726586,483.933577L751.458744,484.653026L750.845599,484.613056L750.275364,484.581081L747.854371,484.461173Z M647.226733,377.945281L648.166494,375.275859L652.230590,375.275859L651.238564,377.945281L647.226733,377.945281Z M749.326420,480.304374L750.363408,477.394635L753.999561,477.570498L752.929482,480.592152L749.326420,480.304374Z M894.001133,545.793627L889.960789,545.817611L896.634280,542.211979L898.255168,545.793627L897.719329,545.793627L897.248837,545.793627L896.621514,545.793627L895.157760,545.793627L894.001133,545.793627Z M386.146229,406.646399L387.752971,402.594102L391.084152,406.190814L391.803927,407.054028L390.937580,407.525599L389.744925,408.125055L388.415686,408.796446L387.380950,409.355940L386.888838,408.292903L386.146229,406.646399Z M827.774840,248.245814L829.170261,243.483569L833.472436,243.603424L831.865228,248.133949L827.774840,248.245814Z M599.715026,604.390479L605.968883,604.390479L604.636229,608.156436L598.339916,608.276371L599.715026,604.390479Z M372.811823,405.831141L375.637275,399.668794L379.435341,400.124374L376.613689,406.054937L372.811823,405.831141Z M675.302791,326.916845L677.462524,321.434672L682.404831,321.426680L680.288017,326.916845L675.302791,326.916845Z M639.086901,432.991064L641.041201,427.475843L646.030049,427.116157L643.916956,432.895147L639.086901,432.991064Z M743.037017,265.537272L746.205680,256.955397L750.612533,256.835540L747.381286,265.649141L743.037017,265.537272Z M596.155793,596.794680L588.568862,596.794680L590.478914,591.397729L598.065819,591.397729L596.155793,596.794680Z M632.415286,608.084474L634.646853,601.464085L641.497175,600.960363L639.619942,607.964539L632.415286,608.084474Z M327.259575,415.662269L327.899621,413.967785L328.951107,411.002452L341.186489,411.250228L340.093860,413.576136L339.642687,414.535277L339.589076,414.631191L339.142078,415.486426L339.035721,415.694240L333.993142,415.726212L329.855337,415.694240L327.259575,415.662269Z M757.579014,254.694088L759.770356,248.517487L765.506677,248.517487L764.501146,250.946569L769.717261,250.810732L768.647249,254.766003L757.579014,254.694088Z M325.650363,332.718739L327.270408,327.324414L331.280752,327.420312L332.060566,325.222639L334.228895,325.206656L336.873323,325.174690L334.570277,332.622839L325.650363,332.718739Z M834.301780,381.829554L837.567635,372.318730L846.485992,372.190855L843.028318,381.597776L834.301780,381.829554Z M846.763875,262.548782L849.328944,255.740842L861.633206,255.533089L859.045513,262.404952L846.763875,262.548782Z M672.728082,503.191140L675.922906,494.021929L680.011484,494.045911L685.765480,494.293726L681.052117,507.843755L675.216844,507.843755L676.778797,503.359017L672.728082,503.191140Z M803.179019,294.767812L805.619602,286.872693L818.584613,286.736846L815.412179,295.774687L813.724275,300.073908L801.186207,300.313643L802.294227,297.189111L807.557942,297.085227L808.284977,294.887678L803.179019,294.767812Z M797.384395,261.166412L799.157120,256.555872L826.371639,256.124385L828.770511,256.084433L823.059046,273.144411L818.935713,285.378386L812.223318,285.514232L813.306472,282.110106L817.006505,281.846407L824.565265,260.111658L805.750495,259.536338L805.374418,261.038563L797.384395,261.166412Z M339.812178,533.289943L343.435749,522.969024L344.930382,523.416712L349.287313,524.527942L349.956224,524.631870L350.671099,524.679836L351.419738,524.687831L352.497507,524.559919L353.665240,524.344069L354.872622,524.016296L355.827990,523.680529L356.689263,523.296796L357.809749,522.753174L364.391041,520.131005L366.781846,519.395521L362.025999,533.042111L339.812178,533.289943Z M670.976068,484.613056L677.762847,463.293809L697.010643,462.654325L695.184166,468.345764L689.831709,468.569585L687.974122,473.869394L684.762075,474.101212L679.830336,488.450130L683.141093,488.530069L682.610367,489.881046L680.372118,489.817094L677.810854,489.761136L672.902014,489.913021L674.853120,484.533117L670.976068,484.613056Z M913.183938,251.769583L920.382894,231.474271L934.981754,231.114715L936.756224,231.066774L933.556800,240.639027L929.763912,251.977334L927.726506,252.177095L913.183938,251.769583Z M357.831376,560.696090L357.903899,560.288346L358.799524,558.017774L359.137788,557.450133L359.640714,556.306857L359.896432,556.082999L360.133857,556.003050L360.241021,555.811171L360.566223,555.483380L360.714555,555.267517L361.352766,554.867771L361.557950,554.675894L361.824561,554.531985L362.041072,554.308128L362.270435,554.140235L362.433147,554.068281L363.593467,553.116890L363.768810,552.917017L364.024305,552.269433L364.163483,551.525910L364.271301,551.166142L364.564046,550.542544L364.766183,550.414626L365.175244,549.647122L365.509595,549.127458L365.773593,548.935582L366.016679,548.599800L366.210538,548.439904L366.556652,547.776334L367.043697,547.120761L367.543593,546.521152L368.054164,546.057454L368.305529,545.993496L368.658398,545.993496L369.848133,545.641726L370.318625,545.641726L371.127392,545.553784L371.344341,545.457846L371.982773,545.481831L372.867342,545.345920L373.127855,545.329930L373.793731,545.018134L374.018086,544.938187L374.482915,544.954176L374.938812,544.866234L375.809004,544.586417L376.378386,544.602407L376.585751,544.570428L376.799868,544.482485L376.986322,544.306601L377.157311,544.266627L377.428933,544.274622L377.865444,544.130716L379.819510,544.074753L380.206140,544.034779L381.578408,544.034779L381.785990,543.946837L382.213789,543.882879L382.917347,543.722984L383.704330,543.475147L384.224266,543.243300L384.401136,543.131373L384.645094,543.051426L384.799528,542.947494L385.611124,542.611716L386.025853,542.547758L386.333850,542.323906L386.639668,542.180001L386.817192,542.140027L387.022596,542.132032L387.233227,541.980133L387.395939,541.908180L387.631400,541.132693L387.737913,540.868868L387.948981,540.605043L388.633806,540.221297L388.962713,539.901510L389.863616,539.165999L390.866460,538.142681L391.407091,537.391183L391.699188,537.175328L391.812672,537.039419L392.034631,536.855542L392.708568,536.152014L393.037043,535.704315L393.619723,534.225311L394.403871,534.225311L395.272969,534.225311L392.377037,538.822228L390.576978,541.284593L388.418436,546.880917L386.028012,553.796455L383.542721,560.887970L358.681787,561.671480L357.817249,561.695466L357.861897,561.495590L357.831376,560.696090Z M806.186300,430.920852L806.250771,430.665073L829.971660,429.921717L828.168541,435.141216L827.558728,436.899711L826.802570,439.089845L826.593059,439.681343L827.731966,439.657363L825.525199,446.219831L825.365570,446.707423L824.564816,449.097430L824.332455,449.808839L822.296335,455.963763L820.586322,455.939782L817.201598,456.179586L813.799657,456.283501L810.456525,456.387416L806.939170,456.891004L805.984083,456.930972L804.009209,456.843043L805.088619,456.027710L806.182171,454.932608L806.835086,453.605699L807.004950,453.126094L807.363627,452.094945L807.991261,450.304427L809.101287,447.115082L809.646835,445.556386L810.143384,444.117594L810.892345,441.615704L811.369731,439.825220L811.613222,439.137804L811.529799,438.985934L810.759412,438.578280L809.667550,438.506342L808.938115,438.370457L808.265308,438.074709L807.418042,437.994777L806.924710,437.874879L806.318768,437.427261L806.059556,435.428970L805.977646,433.206878L806.137511,431.464382L806.186300,430.920852Z M804.324654,494.573516L804.911836,492.822828L808.392468,492.662948L807.917630,494.077887L812.363436,494.181809L815.631720,494.141839L814.971841,496.116365L815.905388,496.100377L818.743279,496.076394L818.259762,497.571283L820.953898,497.547300L821.341353,496.028430L821.986512,495.996454L822.539705,494.341690L824.137051,489.553294L824.274865,489.145602L825.437321,489.073657L823.945055,491.719658L814.255447,520.178971L813.707422,520.194960L813.499762,520.818524L813.291379,521.130306L812.923081,521.266211L812.359157,521.290194L810.959022,521.258216L800.630785,521.250222L798.607709,521.298188L797.335228,521.330166L799.999749,513.655581L797.737230,513.327815L798.605609,510.745663L798.869818,510.737669L799.641777,508.483292L800.296835,506.540699L800.860251,504.893896L801.417138,503.247099L801.974031,501.600307L802.294934,500.657001L802.530929,499.953520L802.646097,499.609773L803.081298,498.306737L803.375860,497.419395L804.043365,495.404895L804.324654,494.573516Z M500.192931,667.559635L512.537565,632.631787L544.854348,632.775716L543.648619,636.054106L572.335282,635.542356L569.101235,645.089770L566.043144,654.029627L561.403825,666.959894L557.315674,666.951897L556.867002,668.183367L554.756531,674.260791L555.945049,674.244798L558.595681,674.196818L558.693708,674.196818L557.068242,678.810907L556.342229,680.882062L553.486147,689.086790L550.561445,697.467576L549.641250,700.106590L549.305592,701.074232L548.645593,702.977532L546.798550,708.311606L540.870671,708.423567L540.424323,708.447558L534.732593,708.575513L531.922231,708.631493L529.115577,708.695470L526.305216,708.751450L523.492026,708.815427L522.326797,708.839419L517.404278,708.991365L531.307475,668.647168L529.560648,668.671158L524.049201,668.807099L524.584514,667.367718L521.815578,667.343728L512.115519,667.367718L500.192931,667.559635Z " data-aland="46863790" data-awater="373769" data-classfp="C1" data-funcstat="A" data-geoid="1802908" data-intptlat="+39.7607134" data-intptlon="-086.3941455" data-lsad="43" data-mtfcc="G4110" data-name="Avon" data-namelsad="Avon town" data-pcicbsa="N" data-pcinecta="N" data-placefp="02908" data-placens="02396582" data-statefp="18"/></g><g fill="#000" font-family="Arial" font-size="12px" id="mylayer-label" stroke="none"><text text-anchor="middle" y="506.904401834"><tspan dy="0" x="548.646083016"><![CDATA[Avon]]></tspan></text></g></svg>