<?xml version="1.0" encoding="utf-8"?><!DOCTYPE svg  PUBLIC '-//W3C//DTD SVG 1.1//EN'  'http://www.w3.org/Graphics/SVG/1.1/DTD/svg11.dtd'><svg enable_background="new 0 0 1000 1001" height="1001px" pretty_print="False" style="stroke-linejoin: round; stroke:#000; fill: none;" version="1.1" viewBox="0 0 1000 1001" width="1000px" xmlns="http://www.w3.org/2000/svg" xmlns:xlink="http://www.w3.org/1999/xlink"><defs><style type="text/css"><![CDATA[path { fill-rule: evenodd; }]]></style></defs><metadata><views><view h="1001" padding="0" w="1000"><proj flip="auto" id="robinson" lon0="-86.5571795452"/><bbox h="0.53" w="0.44" x="-1188.17" y="-653.96"/></view></views></metadata><g class="" id="mylayer"><path d="M907.828428,0.000000L864.765343,34.016415L857.810192,37.218353L845.480599,38.042615L832.827006,38.835175L790.185228,37.471972L779.952326,37.123246L771.650376,37.535377L769.324661,44.478205L765.259259,57.698155L762.345068,66.987028L761.005048,71.171786L758.821109,77.924475L756.478421,84.613774L662.499842,89.464317L643.583386,87.688954L635.328902,86.896382L555.444819,318.399863L312.523838,323.028846L306.048272,344.208121L300.436004,362.534021L298.299761,369.604424L291.897627,390.720614L289.746463,397.759377L285.815596,410.663818L282.337779,422.078112L278.945889,433.238797L272.752642,453.435937L251.132999,517.991596L130.223311,878.748670L100.533469,967.287689L89.473429,999.000000L118.517999,998.936575L389.097728,998.334038L567.045607,998.112051L622.892150,998.143763L790.453225,998.175476L846.310491,998.175476L852.373060,998.143763L861.892881,998.016913L855.339427,992.340387L839.976400,978.291824L830.557319,969.666101L787.125178,931.548312L774.396826,920.829751L757.304595,904.815405L750.077285,896.792408L737.775205,880.397654L733.730660,872.786966L726.334743,856.963139L718.781152,834.067889L718.147574,830.991947L715.978391,820.273742L713.005139,799.217971L712.535621,787.358308L713.007029,766.017375L719.651131,731.453627L723.701068,715.979343L739.723901,654.685466L744.136880,636.008996L760.196453,575.985062L767.240928,551.665085L770.566944,541.835685L779.950841,514.028168L812.428873,424.297563L832.667619,370.587306L872.795397,259.650440L889.727905,214.883707L892.849680,203.533607L896.046657,191.961623L901.610235,169.673788L905.528208,147.608044L907.180274,126.683781L909.743084,102.462544L910.526571,72.471598L909.082620,19.940610L907.828428,0.000000Z " data-aland="5426588" data-awater="0" data-classfp="U1" data-funcstat="S" data-geoid="1802890" data-intptlat="+38.9171963" data-intptlon="-086.5556423" data-lsad="57" data-mtfcc="G4210" data-name="Avoca" data-namelsad="Avoca CDP" data-pcicbsa="N" data-pcinecta="N" data-placefp="02890" data-placens="02629855" data-statefp="18"/></g><g fill="#000" font-family="Arial" font-size="12px" id="mylayer-label" stroke="none"><text text-anchor="middle" y="588.703099736"><tspan dy="0" x="528.814201933"><![CDATA[Avoca]]></tspan></text></g></svg>