<?xml version="1.0" encoding="utf-8"?><!DOCTYPE svg  PUBLIC '-//W3C//DTD SVG 1.1//EN'  'http://www.w3.org/Graphics/SVG/1.1/DTD/svg11.dtd'><svg enable_background="new 0 0 1000 1001" height="1001px" pretty_print="False" style="stroke-linejoin: round; stroke:#000; fill: none;" version="1.1" viewBox="0 0 1000 1001" width="1000px" xmlns="http://www.w3.org/2000/svg" xmlns:xlink="http://www.w3.org/1999/xlink"><defs><style type="text/css"><![CDATA[path { fill-rule: evenodd; }]]></style></defs><metadata><views><view h="1001" padding="0" w="1000"><proj flip="auto" id="robinson" lon0="-89.9825782464"/><bbox h="0.42" w="0.6" x="-1244.47" y="-626.41"/></view></views></metadata><g class="" id="mylayer"><path d="M742.514010,244.723578L744.666308,244.580659L750.450906,244.866497L756.381377,232.975645L751.152897,232.261051L747.804849,238.778150L744.838086,244.266237L742.713704,244.323405L742.514010,244.723578Z M742.514010,244.723578L739.028631,244.980832L735.534437,244.980832L724.931625,244.923665L719.152138,263.245893L715.094687,275.994296L661.075287,276.165800L630.617411,276.394471L609.846330,276.508806L604.825052,292.572960L604.596954,293.344727L598.755025,313.067656L593.986453,327.645497L516.761831,382.183955L506.466789,380.611826L498.530710,377.124558L484.804039,357.658764L467.523770,321.671438L463.936841,324.444087L456.009997,331.875933L481.616948,362.117885L462.960358,378.839607L471.315268,389.215664L457.493626,401.392536L466.311506,411.768615L466.477787,411.968704L471.909982,418.314411L511.496375,465.335641L479.856238,489.032135L474.526406,479.313422L468.059432,477.283927L462.852896,477.141005L459.051574,478.084291L448.901063,481.400086L446.100044,481.971774L393.076448,466.564770L381.954570,475.140095L379.891410,474.511237L371.775036,473.567951L361.479278,469.508964L359.533011,468.165497L353.569446,464.020759L350.145439,457.903700L349.938805,454.130563L350.684784,450.843361L355.021673,442.353810L359.841454,432.949567L366.640434,421.801692L375.364089,402.821747L379.383587,385.070957L382.908289,359.030801L382.014061,335.334602L378.211758,312.753232L376.513567,307.236525L373.015257,304.263793L368.062631,301.919909L363.922676,298.003908L359.900412,290.314831L355.212174,287.656526L352.603328,286.856177L348.245603,283.111685L345.916456,278.538262L341.938564,274.622270L332.803395,268.991248L323.406910,264.589334L318.156348,260.673348L313.361843,255.356755L299.236883,245.009416L297.382150,244.380572L293.179040,239.664248L281.498639,234.033244L274.371058,223.943180L263.254902,213.452954L252.856562,205.306600L242.892225,200.304456L234.254299,193.787381L224.797319,172.092411L216.834610,165.918356L214.861744,159.115467L212.971721,160.087308L197.462417,168.062125L178.675732,153.913261L172.165654,148.110803L162.277957,146.853128L153.015045,145.595453L58.848026,183.354353L54.554606,185.097954L3.099440,197.932012L0.000000,202.190979L5.300181,204.106085L10.224543,206.535699L13.536264,207.593295L10.927580,211.766515L7.241711,217.826262L22.101894,225.629621L172.403156,384.670778L225.919580,441.210436L222.686350,451.072036L220.067690,464.306603L217.095570,470.309328L213.946685,476.855160L171.339215,476.797991L156.363395,520.532260L199.872963,521.018197L186.358551,563.323416L181.127291,561.265320L175.474723,559.292979L171.300883,558.749871L160.720454,558.835625L146.113639,558.778455L140.258842,558.778455L126.587927,558.121008L123.709548,557.863747L109.308124,599.340155L120.831966,599.768926L118.208578,607.829832L171.668075,609.316241L165.435041,628.753915L164.844236,630.640515L147.476106,685.009031L126.935592,750.554620L118.340822,747.381667L93.195053,738.034324L73.227566,771.450398L77.313354,772.193614L85.950360,775.023551L91.972735,777.567637L99.455455,781.598157L101.652021,782.884493L110.466204,787.944085L114.401484,790.288077L112.429436,796.634009L119.929145,804.809406L122.592957,809.354471L126.651369,812.956223L133.499085,820.788607L141.391369,823.418460L142.982803,823.932997L156.266748,830.050266L170.252415,837.425297L173.844165,840.541106L178.219487,842.742182L180.644617,846.029505L186.910439,846.829897L193.954164,850.574589L204.651138,853.404547L212.288182,853.404547L221.752071,851.203468L230.666332,848.201998L240.986696,845.857993L250.372638,846.315360L258.298313,848.344925L261.728756,851.031955L268.466744,851.803762L281.868562,850.231563L287.712477,848.344925L291.008431,848.030485L305.045438,842.513499L315.532961,836.596320L316.718813,835.938856L321.922810,831.679633L327.569226,825.562363L332.843077,821.017290L338.548126,819.130657L347.941122,814.728514L350.465733,813.299247L355.357503,810.497884L362.744525,807.353499L375.710060,806.553110L388.890088,804.666479L402.111602,806.067159L407.364923,806.067159L423.394312,808.582668L428.784208,810.154860L436.160223,811.384030L440.757292,813.899539L448.906554,824.561875L464.551060,840.569691L469.303276,847.944729L478.224356,849.831367L488.974228,848.087656L506.101364,840.398179L539.945567,830.193193L548.230902,826.705777L565.570423,819.359340L572.565408,818.416023L580.222910,820.274071L581.480467,811.498371L592.591938,780.254650L604.231051,762.045863L602.875207,755.471270L600.475492,750.611790L597.411674,747.295911L591.700570,743.865693L586.737024,741.979073L580.212050,738.062909L577.667537,734.146746L549.550579,724.256298L541.966211,723.170064L535.659115,719.082396L531.883263,718.453525L510.061590,708.277240L505.541519,707.019498L500.038426,703.875143L496.042150,699.015687L487.704932,693.841797L486.080002,691.011881L475.889092,681.292983L472.125216,672.803247L468.291058,667.943805L465.603227,661.054835L465.568647,659.454079L465.485212,656.509832L466.534257,651.507473L466.893315,649.763794L480.327917,617.720172L484.538985,603.284852L484.904692,594.337822L483.120963,583.675717L483.054229,581.960634L505.025754,566.639238L518.499645,554.319251L536.283308,538.569126L568.645869,517.130699L575.670095,547.316016L594.245738,578.416130L604.585803,581.131677L626.530247,589.078230L654.417337,591.136331L659.717205,590.850484L679.796572,589.735679L698.445973,585.476554L720.511140,575.128889L749.287007,552.975773L788.566340,514.758183L789.040860,543.028324L796.655240,536.482450L813.370829,525.648895L819.485021,522.504594L828.630729,519.360294L844.586076,515.272704L850.873210,514.014985L862.214120,509.955982L874.364305,506.325749L882.102357,506.583010L908.504848,451.329295L909.924146,449.385559L988.433293,466.764861L994.128723,459.075660L997.723172,454.216316L1000.000000,451.415048L989.372509,449.156884L961.281637,444.669141L936.099093,439.066612L917.783603,434.264446L896.826442,434.664626L898.110771,430.291227L908.832523,390.873547L916.273940,379.811469L926.316896,362.746736L930.567563,355.800797L921.405803,351.741856L916.583458,351.627520L912.236595,357.944605L887.954160,354.200088L854.879581,398.019598L854.554916,398.448361L849.281180,394.103561L847.894575,392.960193L840.214441,388.472475L840.768995,386.128571L843.852405,374.094637L834.091280,374.294726L835.935486,347.511412L818.394523,344.881677L807.456329,343.223801L807.816478,338.135839L810.954200,329.846467L813.134377,324.072495L816.082492,315.725967L818.306123,308.894395L813.519600,309.523243L749.142418,317.841182L743.930289,318.355694L729.819452,304.406713L728.818959,302.148580L728.475226,300.147704L727.855017,297.432229L728.562644,294.974011L729.650553,292.058450L742.514010,244.723578Z M727.671196,483.143737L728.129936,482.800723L742.434151,472.195899L757.303754,461.133736L770.370850,451.415048L773.119604,457.474935L771.580690,464.763953L767.942083,465.278472L779.653709,490.232682L765.995558,502.123827L772.335340,511.585300L770.165783,513.843478L754.007340,526.449263L728.286940,485.945013L727.671196,483.143737Z M587.055268,527.049539L585.130725,506.154242L625.314710,479.170499L629.572691,479.170499L634.288959,479.113330L641.296207,479.056162L648.497886,478.970408L636.903502,514.243661L622.188477,556.548853L615.431611,556.263006L614.148932,559.635995L591.212856,537.883095L587.055268,527.049539Z M168.614826,348.826279L174.875098,344.452916L205.511718,326.902313L228.064480,313.782255L228.550936,313.496416L232.211424,311.066777L263.466568,291.829778L279.687377,281.739658L254.532538,356.372479L232.524778,421.630187L209.821377,395.761445L242.458405,366.662761L227.558049,349.312209L193.820788,377.524736L168.614826,348.826279Z "/></g><g fill="#000" font-family="Arial" font-size="12px" id="mylayer-label" stroke="none"><text text-anchor="middle" y="507.683180813"><tspan dy="0" x="418.991432964"><![CDATA[N]]></tspan></text></g></svg>