<?xml version="1.0" encoding="utf-8"?><!DOCTYPE svg  PUBLIC '-//W3C//DTD SVG 1.1//EN'  'http://www.w3.org/Graphics/SVG/1.1/DTD/svg11.dtd'><svg enable_background="new 0 0 1000 1001" height="1001px" pretty_print="False" style="stroke-linejoin: round; stroke:#000; fill: none;" version="1.1" viewBox="0 0 1000 1001" width="1000px" xmlns="http://www.w3.org/2000/svg" xmlns:xlink="http://www.w3.org/1999/xlink"><defs><style type="text/css"><![CDATA[path { fill-rule: evenodd; }]]></style></defs><metadata><views><view h="1001" padding="0" w="1000"><proj flip="auto" id="robinson" lon0="-89.605191784"/><bbox h="0.28" w="0.44" x="-1243.53" y="-612.91"/></view></views></metadata><g class="" id="mylayer"><path d="M1000.000000,311.996424L753.809687,312.467346L744.156593,312.467346L742.636678,312.742051L814.655046,200.309293L830.857838,174.997162L808.861593,176.056740L754.308506,176.095984L637.573889,176.017496L604.919614,177.234049L567.751747,305.992170L565.351829,303.794534L536.033818,303.009664L528.300548,303.794534L524.444997,306.737796L522.738492,302.028576L518.097283,300.576567L477.041010,299.634723L427.681920,297.437087L426.167622,302.460255L379.054231,302.342524L374.384846,316.901860L329.315564,317.882947L292.272521,318.667817L273.103028,318.942521L228.686279,319.570417L186.862385,320.159069L145.006628,320.747722L119.848823,321.728809L85.315279,439.969237L42.193001,587.798696L9.846755,699.916381L0.000000,733.704670L25.782496,732.056461L61.097381,730.996899L116.120076,725.110439L150.412682,725.581356L198.451312,726.209245L185.423494,767.492928L176.232109,794.531361L169.246903,811.602059L163.632560,824.002838L284.286413,821.569774L294.734442,821.373559L325.127825,820.667186L339.922248,809.875368L389.643716,770.239939L416.188123,743.436947L490.432950,676.841435L535.397585,619.585683L540.335803,619.585683L545.460068,619.703412L550.628515,619.781898L559.308718,619.938871L624.965987,620.056601L639.766382,572.925516L668.344184,572.925516L653.834880,620.449032L743.410511,620.998437L928.728934,551.420222L941.029956,510.724953L953.231074,471.363913L957.795712,455.509605L959.587405,452.644840L959.585430,448.288828L960.245548,445.070873L963.643202,430.904019L972.079767,401.706940L992.729129,335.856459L1000.000000,311.996424Z " data-aland="2860984" data-awater="2808" data-classfp="C1" data-funcstat="A" data-geoid="2946406" data-intptlat="+36.5171768" data-intptlon="-089.6058310" data-lsad="25" data-mtfcc="G4110" data-name="Marston" data-namelsad="Marston city" data-pcicbsa="N" data-pcinecta="N" data-placefp="46406" data-placens="02395026" data-statefp="29"/></g><g fill="#000" font-family="Arial" font-size="12px" id="mylayer-label" stroke="none"><text text-anchor="middle" y="485.519197434"><tspan dy="0" x="474.92951714"><![CDATA[Marston]]></tspan></text></g></svg>