<?xml version="1.0" encoding="utf-8"?><!DOCTYPE svg  PUBLIC '-//W3C//DTD SVG 1.1//EN'  'http://www.w3.org/Graphics/SVG/1.1/DTD/svg11.dtd'><svg enable_background="new 0 0 1000 1001" height="1001px" pretty_print="False" style="stroke-linejoin: round; stroke:#000; fill: none;" version="1.1" viewBox="0 0 1000 1001" width="1000px" xmlns="http://www.w3.org/2000/svg" xmlns:xlink="http://www.w3.org/1999/xlink"><defs><style type="text/css"><![CDATA[path { fill-rule: evenodd; }]]></style></defs><metadata><views><view h="1001" padding="0" w="1000"><proj flip="auto" id="robinson" lon0="-94.5914315802"/><bbox h="0.11" w="0.13" x="-1301.45" y="-645.0"/></view></views></metadata><g class="" id="mylayer"><path d="M1000.000000,122.677599L978.431251,122.166233L946.780206,120.887817L894.066835,118.842353L851.642936,118.714511L682.131497,117.691779L623.951142,117.308254L599.240317,117.180413L406.364762,111.427546L324.935401,106.569570L176.060638,101.455914L70.032282,377.467866L30.567469,482.172118L0.000000,560.157416L234.739419,560.413106L198.327696,662.689483L122.389380,873.892269L116.958018,888.978289L255.190837,891.151700L347.971435,892.685872L470.815683,894.731436L585.004450,895.498522L591.104853,897.544086L606.684935,855.993620L692.552676,642.234155L724.854574,552.231024L738.065732,517.840756L758.699819,464.273907L878.008338,461.461333L897.617430,389.740857L937.988732,256.911805L1000.000000,122.677599Z "/></g><g fill="#000" font-family="Arial" font-size="12px" id="mylayer-label" stroke="none"><text text-anchor="middle" y="447.815003882"><tspan dy="0" x="466.653990501"><![CDATA[N]]></tspan></text></g></svg>