<?xml version="1.0" encoding="utf-8"?><!DOCTYPE svg  PUBLIC '-//W3C//DTD SVG 1.1//EN'  'http://www.w3.org/Graphics/SVG/1.1/DTD/svg11.dtd'><svg enable_background="new 0 0 1000 1001" height="1001px" pretty_print="False" style="stroke-linejoin: round; stroke:#000; fill: none;" version="1.1" viewBox="0 0 1000 1001" width="1000px" xmlns="http://www.w3.org/2000/svg" xmlns:xlink="http://www.w3.org/1999/xlink"><defs><style type="text/css"><![CDATA[path { fill-rule: evenodd; }]]></style></defs><metadata><views><view h="1001" padding="0" w="1000"><proj flip="auto" id="robinson" lon0="-90.2434211199"/><bbox h="0.28" w="0.24" x="-1239.68" y="-650.84"/></view></views></metadata><g class="" id="mylayer"><path d="M679.950127,0.000000L653.488518,0.302997L647.833854,0.302997L600.362659,0.363596L576.563900,0.363596L546.253379,0.424196L523.880579,0.424196L492.980006,0.484795L466.947360,0.545395L439.903316,0.545395L386.089061,0.605994L381.614501,0.605994L372.172830,1.030190L368.934329,1.151389L355.522533,2.242178L336.024572,4.847954L330.789568,5.756946L326.306538,6.484139L314.297816,8.483922L302.273839,11.089700L299.975526,11.756295L276.774511,18.482844L266.733944,48.176708L260.480819,52.418700L249.169007,57.206094L213.721987,72.234901L151.412435,98.414198L146.694588,100.656412L145.816492,107.807260L145.681715,108.473865L116.605770,297.368311L101.029893,398.453720L70.609739,460.148133L83.297569,463.238930L90.901796,465.117650L85.055096,500.268007L272.738930,532.085310L318.689568,542.569904L456.443791,574.023792L460.053089,574.811656L437.799655,621.174615L384.214095,732.144078L380.787045,731.538013L357.548934,727.537988L356.956602,728.810723L355.172799,732.507716L354.552476,733.719846L351.118779,740.871415L340.663424,762.204957L337.152606,769.295951L336.417346,771.962652L334.275117,779.780941L333.561045,782.387039L329.573768,792.811443L325.304361,803.902543L311.048160,833.721335L287.513697,883.055987L242.448615,977.544439L245.398381,977.968701L266.784372,980.938534L330.984774,989.726825L352.342817,992.636055L361.880591,993.908843L390.493926,997.727210L399.982535,999.000000L436.370509,929.057565L520.758999,766.508038L560.253237,766.205004L594.802083,765.841363L609.027941,737.235023L616.007043,723.174327L630.149195,694.386362L637.323636,681.174245L644.850635,667.234886L645.965675,664.325806L653.052341,645.174398L654.075860,642.386540L668.550582,604.629363L670.068124,600.568813L686.402007,603.780890L688.909093,604.205126L697.055882,585.538742L705.226194,573.417742L729.702503,536.873071L737.816950,524.630956L746.850573,512.994909L766.382529,487.783548L773.965966,477.905085L782.992882,466.147917L794.533140,447.481942L829.083983,391.544954L840.596539,372.818598L856.538244,344.517059L858.706513,341.971744L891.480786,286.338707L869.096743,288.338579L846.022216,287.671955L844.316369,287.065933L844.999557,286.096298L847.021136,283.126793L847.676339,282.096557L846.586318,271.430591L843.267303,239.432804L842.149443,228.706309L849.251294,213.737729L868.681401,172.650069L865.470850,172.831872L852.938070,173.377282L863.700463,154.409174L865.694957,150.954924L903.931486,83.506529L916.660820,61.023893L923.579584,50.237104L929.390261,38.541337L923.807578,37.632340L919.783972,36.905143L908.990789,35.147750L886.105616,31.269368L881.239317,30.420972L876.471361,29.572577L865.579852,27.815186L846.977742,24.906403L810.084633,18.058647L798.736207,16.483058L783.371813,13.877278L774.804954,12.362290L728.591635,8.544521L718.251316,8.726320L704.752136,7.817327L683.605962,5.575147L678.233578,4.908553L679.950127,0.000000Z " data-aland="1521687" data-awater="0" data-classfp="C1" data-funcstat="A" data-geoid="2949088" data-intptlat="+38.7455455" data-intptlon="-090.2430471" data-lsad="25" data-mtfcc="G4110" data-name="Moline Acres" data-namelsad="Moline Acres city" data-pcicbsa="N" data-pcinecta="N" data-placefp="49088" data-placens="02395367" data-statefp="29"/></g><g fill="#000" font-family="Arial" font-size="12px" id="mylayer-label" stroke="none"><text text-anchor="middle" y="359.88873169"><tspan dy="0" x="487.01196409"><![CDATA[Moline Acres]]></tspan></text></g></svg>