<?xml version="1.0" encoding="utf-8"?><!DOCTYPE svg  PUBLIC '-//W3C//DTD SVG 1.1//EN'  'http://www.w3.org/Graphics/SVG/1.1/DTD/svg11.dtd'><svg enable_background="new 0 0 1000 1001" height="1001px" pretty_print="False" style="stroke-linejoin: round; stroke:#000; fill: none;" version="1.1" viewBox="0 0 1000 1001" width="1000px" xmlns="http://www.w3.org/2000/svg" xmlns:xlink="http://www.w3.org/1999/xlink"><defs><style type="text/css"><![CDATA[path { fill-rule: evenodd; }]]></style></defs><metadata><views><view h="1001" padding="0" w="1000"><proj flip="auto" id="robinson" lon0="-83.7087355604"/><bbox h="0.84" w="0.84" x="-1125.73" y="-718.86"/></view></views></metadata><g class="" id="mylayer"><path d="M995.492235,0.000000L982.041851,0.672025L918.204588,1.996875L876.301545,2.860907L798.839039,3.686538L711.276262,5.491407L673.077321,6.048228L669.175896,6.048228L640.580759,6.681852L518.759524,8.217911L472.659970,9.465960L355.372553,11.981258L342.825983,38.075134L297.126959,159.656013L282.836433,199.978695L269.760734,234.522005L266.093487,245.428439L244.317432,304.281275L219.737938,371.333884L216.547258,380.954036L193.568023,443.514204L177.552246,487.621628L170.243106,508.571329L155.570950,550.528559L144.276483,579.524347L142.991347,583.307252L141.566930,586.110827L139.640429,588.895202L134.722662,594.579170L130.414747,598.918960L115.272129,612.476024L112.248445,615.740478L110.145209,618.448056L109.051755,620.291513L108.251997,622.480620L108.321649,625.130593L109.975174,629.700838L115.662192,641.529725L116.896349,644.659775L117.636993,648.193085L117.720291,650.727853L117.366207,653.685083L116.368691,657.506441L108.420347,679.436090L86.406654,739.656635L79.761277,757.477119L78.538397,760.780060L64.671908,799.013653L58.933663,814.817969L51.089220,836.287327L47.293852,846.599560L42.906917,859.139414L26.152787,905.227933L15.461652,934.647962L12.626854,943.616108L8.832673,962.896709L6.222661,982.042947L4.507765,999.000000L61.950848,996.849159L144.270106,993.699715L171.025151,992.662704L186.043795,991.779324L239.367076,989.532466L248.712999,988.937145L276.508436,988.533863L288.234415,988.649086L297.784924,988.706698L316.607685,988.072969L480.672401,988.361028L582.801836,990.761516L598.887942,991.049575L611.902172,991.452857L632.243254,992.221014L633.365044,992.163402L634.587178,992.336237L659.377049,925.180534L671.617258,892.745589L686.559500,853.051917L690.802575,841.760298L702.087831,808.519281L717.922630,761.797826L723.245784,746.070467L728.682614,730.055103L763.722954,626.743620L771.421518,604.065264L777.204694,587.013349L779.608545,579.946803L780.502932,576.951205L782.445311,572.630634L784.334934,567.676382L786.451429,561.742807L786.933628,560.398633L786.635178,559.822558L787.650737,556.519730L792.540908,540.562490L793.621509,536.933232L798.174022,523.933209L802.583547,511.336464L810.239626,491.193249L820.334402,464.098908L824.575345,452.980855L830.123970,439.596973L830.889855,436.927881L832.228548,434.623630L832.546831,434.220387L836.066754,424.446533L861.105100,354.820285L865.303131,343.126381L867.157597,337.980302L870.778027,328.033789L874.406082,318.068090L880.621064,300.978588L881.291234,299.077624L885.145877,288.497522L887.205763,282.871449L887.674567,281.642547L892.866998,267.913419L899.299361,250.920066L901.937332,243.949925L902.716706,241.933770L903.049198,241.050502L903.964136,238.650319L905.830340,233.677142L917.402868,203.089313L922.815523,188.803525L923.322260,187.478635L923.843372,186.076940L923.964570,185.769720L924.365261,184.713648L934.375930,158.369532L940.425233,142.470951L940.275548,141.760508L940.907728,141.126870L949.025108,119.583211L965.090203,77.129753L986.245095,21.255228L992.097649,7.795495L995.492235,0.000000Z "/></g><g fill="#000" font-family="Arial" font-size="12px" id="mylayer-label" stroke="none"><text text-anchor="middle" y="493.207134965"><tspan dy="0" x="492.333736822"><![CDATA[N]]></tspan></text></g></svg>