<?xml version="1.0" encoding="utf-8"?><!DOCTYPE svg  PUBLIC '-//W3C//DTD SVG 1.1//EN'  'http://www.w3.org/Graphics/SVG/1.1/DTD/svg11.dtd'><svg enable_background="new 0 0 1000 1001" height="1001px" pretty_print="False" style="stroke-linejoin: round; stroke:#000; fill: none;" version="1.1" viewBox="0 0 1000 1001" width="1000px" xmlns="http://www.w3.org/2000/svg" xmlns:xlink="http://www.w3.org/1999/xlink"><defs><style type="text/css"><![CDATA[path { fill-rule: evenodd; }]]></style></defs><metadata><views><view h="1001" padding="0" w="1000"><proj flip="auto" id="robinson" lon0="-83.932408596"/><bbox h="0.26" w="0.33" x="-1127.6" y="-720.84"/></view></views></metadata><g class="" id="mylayer"><path d="M1000.000000,122.402566L998.357248,122.451516L814.487859,126.612302L825.290205,99.200085L416.341613,106.444738L382.251925,187.800427L249.511355,190.541659L240.410897,201.604495L224.898864,233.618223L229.737426,245.757999L234.572807,267.002626L227.598476,288.247276L230.634048,313.310120L231.868044,342.093271L216.256330,381.107236L183.790435,447.240251L154.861251,554.150067L116.071826,662.186379L5.570389,830.238657L0.000000,850.406990L0.000000,850.406990L7.144124,848.155184L28.667545,843.113100L43.899607,839.196919L63.267662,831.609320L101.671322,813.692808L130.431740,799.007156L147.214276,792.104903L141.687797,804.391894L109.742741,889.373053L109.014338,892.946578L109.967692,896.373246L111.285032,898.576105L114.614433,899.799915L139.991865,899.261439L288.384286,897.401247L294.985663,897.743914L299.987788,899.457248L505.502646,893.974578L524.172294,848.057280L697.540725,844.826429L786.330861,647.794556L789.142432,641.528731L858.753819,491.198518L867.564146,491.394324L886.530567,437.988468L935.544541,299.995480L980.774043,172.772605L1000.000000,122.402566Z " data-aland="2365578" data-awater="0" data-classfp="C1" data-funcstat="A" data-geoid="2646880" data-intptlat="+42.9854404" data-intptlon="-083.9325302" data-lsad="47" data-mtfcc="G4110" data-name="Lennon" data-namelsad="Lennon village" data-pcicbsa="N" data-pcinecta="N" data-placefp="46880" data-placens="02398419" data-statefp="26"/></g><g fill="#000" font-family="Arial" font-size="12px" id="mylayer-label" stroke="none"><text text-anchor="middle" y="487.628262852"><tspan dy="0" x="510.381428399"><![CDATA[Lennon]]></tspan></text></g></svg>