<?xml version="1.0" encoding="utf-8"?><!DOCTYPE svg  PUBLIC '-//W3C//DTD SVG 1.1//EN'  'http://www.w3.org/Graphics/SVG/1.1/DTD/svg11.dtd'><svg enable_background="new 0 0 1000 1001" height="1001px" pretty_print="False" style="stroke-linejoin: round; stroke:#000; fill: none;" version="1.1" viewBox="0 0 1000 1001" width="1000px" xmlns="http://www.w3.org/2000/svg" xmlns:xlink="http://www.w3.org/1999/xlink"><defs><style type="text/css"><![CDATA[path { fill-rule: evenodd; }]]></style></defs><metadata><views><view h="1001" padding="0" w="1000"><proj flip="auto" id="robinson" lon0="-84.0209643881"/><bbox h="0.63" w="0.6" x="-1119.49" y="-744.34"/></view></views></metadata><g class="" id="mylayer"><path d="M181.848444,0.000000L177.760274,6.669729L171.409368,10.042922L166.341717,14.949382L161.101724,22.692381L145.633805,36.159555L141.827514,56.935231L138.030329,62.276077L138.373606,65.802565L136.294058,69.712365L117.614469,87.549200L113.611072,94.576592L107.860847,99.201890L106.613442,99.738526L92.255103,136.383022L62.462514,216.213098L45.150358,216.315312L41.809148,218.998444L30.958755,242.431074L29.565416,248.206169L32.606292,256.894355L32.714028,262.950524L34.709750,268.700047L40.649394,269.108901L48.056183,268.700047L50.639812,269.824397L60.807647,270.105485L68.421463,268.418959L80.237236,268.981134L87.700500,270.386572L89.502378,269.108901L97.309123,269.262222L105.940411,267.447929L110.379011,267.575696L136.909292,279.381367L141.365297,282.601092L161.144718,292.439130L176.948224,302.558238L188.273992,313.776119L192.402367,315.897037L189.893286,333.860930L189.728289,339.763706L193.067851,341.041362L195.752703,345.104308L194.487027,356.066582L191.939258,361.534935L193.834350,364.345769L194.272883,367.999851L193.086974,372.497180L192.726512,380.060862L195.648145,386.679077L202.006046,395.520387L202.940089,400.171014L201.851204,405.767093L201.892380,409.983313L203.220592,412.640808L205.987329,415.732700L204.571023,420.383312L198.562978,426.822614L198.015835,435.255024L194.478335,439.190145L189.293745,443.253027L187.127564,445.782744L184.946902,451.123256L181.271990,454.623971L178.742040,463.184107L179.992302,468.396841L172.042351,483.549517L168.234045,483.830595L161.878161,489.579915L160.446859,492.262928L156.203071,494.792626L155.170149,497.322323L151.938927,502.100636L148.752612,503.633784L147.193373,505.448009L141.883574,509.817477L138.190967,510.226316L133.801932,513.471475L128.111038,516.410002L121.419051,526.528749L123.381220,535.497624L120.035246,540.556984L113.658369,546.306251L106.082995,551.084527L104.705792,554.457426L100.563299,559.925606L101.851731,563.451814L98.767443,568.230077L97.108555,572.292875L98.589488,577.352206L103.708764,581.210581L105.192099,582.820366L102.921418,589.974961L105.657979,593.501152L110.053090,597.282861L110.459801,600.655735L112.700488,603.032077L111.732736,610.902106L113.595074,613.022924L117.289690,613.431757L120.136217,619.053198L123.539695,620.586317L124.781914,622.272748L130.104894,641.104531L128.092409,646.444876L132.453402,653.446089L133.934582,658.505354L142.261541,665.251035L151.067462,679.151203L160.394867,700.359122L170.489900,717.785334L176.785938,730.688877L188.812762,735.467014L197.495784,737.434481L202.273627,743.055812L205.004924,748.549381L208.432363,751.206734L205.715412,755.857098L210.797229,757.032464L233.711121,759.562056L267.510920,759.434299L278.778807,754.247357L291.080314,746.939638L300.477150,740.475111L312.396166,727.009453L320.425564,723.483337L335.573128,721.388108L348.561401,720.263838L358.529288,719.855013L370.423377,721.822485L378.600454,714.386971L381.716410,709.889886L382.233128,706.670380L379.328200,703.144253L380.135973,698.800470L383.251947,694.303374L386.569858,686.586758L393.962146,680.045514L400.656607,679.892204L407.620148,682.472930L416.280742,683.878275L429.221928,684.977000L444.176987,685.718000L454.122283,684.695931L461.461516,682.191861L469.316000,680.122170L479.691576,679.125651L492.566246,678.793479L507.395497,679.585583L524.237208,679.457824L532.947304,679.662238L539.403280,680.658756L546.012554,684.210448L550.019457,687.762138L555.508069,692.157031L561.678843,696.577474L567.164928,699.950295L571.717038,703.297562L571.662545,710.835296L561.993011,746.300851L559.339513,759.280991L556.031310,770.625815L552.752646,777.064761L545.944687,786.288794L544.091759,792.165595L543.087858,797.659122L542.775906,802.897131L542.317834,808.441751L542.116197,815.774950L543.936294,821.702826L545.220244,827.247430L544.430945,838.643236L547.862635,838.719889L550.471545,841.223897L549.387937,856.477886L549.062644,864.628663L546.654169,870.684249L545.744292,875.947749L549.333511,884.175153L552.508311,894.446619L548.351966,918.413307L549.819005,929.681196L549.682860,937.831880L554.555586,943.171977L556.327820,946.697972L556.211788,950.479471L557.529510,952.753480L557.720028,957.378147L560.293872,962.437171L568.472831,967.956102L570.900873,973.423927L574.211050,975.135815L576.415847,979.504961L577.170568,983.158688L585.186860,990.619440L587.073905,993.864353L588.038140,997.364770L595.661294,999.000000L618.604340,944.372859L759.989509,577.888801L789.920452,499.622047L846.883312,352.872448L864.900418,305.650184L902.605656,211.638995L970.434584,27.087743L903.172301,27.624386L833.839891,26.755536L801.892840,27.087743L770.373229,26.218893L700.510440,27.419950L556.692909,29.822065L545.528850,29.515412L387.568302,32.019744L333.075349,32.939702L314.914358,33.169692L242.420774,35.725130L237.982531,35.648467L233.719086,33.910769L228.378792,29.055433L222.661795,24.660073L218.982099,21.133561L216.355528,19.446967L212.558670,20.009165L208.135462,22.053521L203.666793,22.462392L198.122287,20.213601L194.983311,19.319195L190.729371,17.095957L188.289931,14.591620L187.834598,12.623925L185.297973,8.816307L181.848444,0.000000Z "/></g><g fill="#000" font-family="Arial" font-size="12px" id="mylayer-label" stroke="none"><text text-anchor="middle" y="366.053837552"><tspan dy="0" x="492.766144953"><![CDATA[N]]></tspan></text></g></svg>