<?xml version="1.0" encoding="utf-8"?><!DOCTYPE svg  PUBLIC '-//W3C//DTD SVG 1.1//EN'  'http://www.w3.org/Graphics/SVG/1.1/DTD/svg11.dtd'><svg enable_background="new 0 0 1000 1001" height="1001px" pretty_print="False" style="stroke-linejoin: round; stroke:#000; fill: none;" version="1.1" viewBox="0 0 1000 1001" width="1000px" xmlns="http://www.w3.org/2000/svg" xmlns:xlink="http://www.w3.org/1999/xlink"><defs><style type="text/css"><![CDATA[path { fill-rule: evenodd; }]]></style></defs><metadata><views><view h="1001" padding="0" w="1000"><proj flip="auto" id="robinson" lon0="-96.8995533964"/><bbox h="1.52" w="1.42" x="-1363.92" y="-555.49"/></view></views></metadata><g class="" id="mylayer"><path d="M247.407945,0.000000L244.027208,0.883180L241.841059,3.190487L242.486697,4.956845L245.488914,7.253108L253.568828,12.386574L255.547782,14.152925L251.520530,15.212736L245.396318,16.802450L239.649733,17.155720L229.715753,15.212736L225.990952,11.856668L224.675621,9.372734L223.396288,9.196099L218.384429,15.389371L216.667559,22.465800L218.277316,27.411561L219.744226,29.884437L219.806846,33.074886L216.991296,35.017857L214.922535,32.544985L211.570003,30.425379L210.240917,28.471365L208.912063,27.941463L207.188288,27.764829L200.763328,29.884437L194.230701,33.781421L192.021405,35.194490L190.558098,34.134688L188.376192,34.487956L185.291726,35.371124L180.137682,35.724391L174.983637,36.077658L174.367617,35.790628L173.928217,35.834787L172.466797,36.254291L170.968289,36.795232L168.178447,37.623201L165.440036,38.252457L164.519114,38.418051L164.051831,38.705080L162.883816,39.952553L162.469519,40.338938L161.817860,40.714284L157.450998,42.613090L155.120628,43.694967L153.124543,44.500855L151.532535,45.196347L150.427080,45.814562L149.410792,46.565251L148.784135,47.525692L148.730683,48.519251L149.591910,50.186221L150.001414,51.179779L149.910331,51.599281L149.581884,52.007743L147.900355,53.420802L145.375194,55.352717L143.153321,56.655379L141.443413,57.494381L136.101638,59.856833L134.632466,60.695834L133.726487,61.358203L132.890304,62.186164L132.096996,63.146599L131.460237,64.140152L131.107140,65.144743L130.812920,66.259729L130.647474,67.407833L130.127820,72.353505L130.026631,72.806122L129.257498,74.384760L127.056382,78.590778L125.355699,81.703889L123.563956,85.236493L123.183059,86.362509L122.829040,87.643076L122.611393,88.901563L122.606893,89.674319L122.797735,90.292523L123.132545,90.833451L123.361280,91.418537L123.329095,91.948426L122.984661,92.378960L122.322944,92.665983L115.392940,94.741379L115.040327,94.531632L114.779725,93.626406L114.687590,92.412078L114.794978,91.120474L115.010962,89.806791L116.690718,84.154633L116.836677,83.282522L116.831833,82.752631L116.425570,79.838231L116.007833,76.173147L116.029964,75.554939L116.185950,74.892574L116.257750,74.263326L116.126656,73.722394L115.907955,73.347054L115.468647,73.148344L115.014951,73.148344L114.643023,72.850279L114.324134,72.530136L114.209948,71.812572L114.168075,71.282679L114.220554,70.565116L114.145824,70.112499L113.696404,69.946907L113.135726,70.145617L112.727273,70.664471L112.257180,71.658020L110.633998,74.517233L109.855648,75.974437L108.949624,76.758236L108.284386,77.420600L107.745405,78.094005L107.219006,78.877803L105.578939,81.913637L104.064236,85.115059L102.977596,87.157344L102.238676,89.000918L101.396247,90.789294L100.741753,91.992583L96.156608,99.123992L95.782598,99.863626L95.090807,101.795505L94.759545,103.031907L94.494131,103.749462L93.280462,105.692377L92.219346,107.105406L90.770875,108.937926L89.757854,110.041853L89.061398,110.958112L88.582174,111.708782L88.046584,112.371138L87.441146,112.989336L86.745676,113.508181L86.198484,113.662731L85.231255,113.828319L84.101628,113.828319L82.716244,113.452985L81.729773,113.287396L81.076548,113.364671L80.281787,113.784162L79.579574,114.325086L78.561347,115.870580L77.966021,116.455660L77.351454,116.709563L76.683891,116.864112L76.110671,116.830994L75.371725,116.521895L74.715129,116.610209L73.980104,117.106975L73.428514,117.791408L73.145443,118.475840L72.768926,119.193390L70.473437,121.677215L69.168308,122.858412L68.292562,123.785705L66.870181,125.684448L66.325380,126.225369L65.078370,127.307210L63.918107,128.256581L62.986080,128.852697L62.194692,129.261147L61.053115,129.724792L60.090793,130.298830L59.745474,130.883906L59.372211,131.954706L59.245662,132.793683L58.923898,133.422916L57.608584,134.880085L55.502736,136.712585L55.184386,137.209347L54.925775,137.783383L54.441856,140.035368L53.642967,142.773072L53.058339,144.141923L52.072073,145.886103L50.213452,148.546528L47.939755,151.505005L46.025707,153.801134L42.844528,157.002464L41.563875,158.073253L40.274890,158.868065L38.799089,159.486252L37.124694,159.905736L35.856935,160.115478L34.626176,160.446649L33.961053,160.866133L33.489526,161.318734L33.307633,161.550554L33.252816,161.881725L33.527892,162.466794L33.639707,162.919394L33.507371,163.504463L31.437641,168.494102L31.214272,169.498652L31.104608,170.282421L31.159132,170.922683L31.440992,171.364243L35.681271,173.185677L36.158433,173.594120L36.812234,174.455161L37.271800,174.587629L37.865220,174.675941L39.294332,175.393475L41.179781,175.768800L41.553564,175.636332L42.044419,175.272046L42.590830,174.907759L43.081615,174.786331L44.410716,174.951915L51.592527,175.448670L52.296244,175.448670L52.755811,175.581137L53.074784,175.779839L53.381162,175.868151L53.681685,175.823995L54.404910,175.305163L54.701212,175.305163L54.966193,175.923346L55.378612,176.088930L55.915660,176.088930L56.299552,175.923346L56.906694,175.117500L57.234213,174.863604L57.864739,174.709058L59.531403,174.830487L59.873967,174.951915L60.000161,175.205812L60.098542,175.581137L60.338402,175.735683L60.765187,175.702566L62.387460,175.029188L62.698128,174.830487L62.860851,173.903212L63.032730,173.340223L63.718986,172.578533L63.842797,172.324636L63.942374,171.452555L63.764951,170.790215L63.589441,169.333066L63.157725,168.957740L62.855640,168.582414L62.673963,168.085658L62.556321,167.379161L62.608756,166.540196L62.861528,165.712269L64.186267,163.526541L64.922233,162.632379L65.231381,161.892764L65.206230,161.550554L64.954705,161.009640L65.106407,160.391454L65.535040,159.806384L66.769423,158.614167L71.063954,156.284925L72.579342,155.567385L73.753690,155.269331L74.661145,155.147901L75.424635,155.103744L76.981024,155.192057L78.521450,155.181018L79.354830,155.059588L80.324655,154.673221L81.006515,154.562830L83.460247,154.562830L85.076378,154.728416L86.841437,155.103744L88.040861,155.390760L88.560164,155.600503L88.778946,155.854401L88.788097,156.218690L88.939437,156.814800L89.271851,157.090776L89.804672,157.134933L90.508385,157.134933L91.448691,156.936230L93.404302,156.262847L95.758174,155.225174L97.764375,154.264775L99.247830,153.348532L100.194242,152.432288L101.311655,151.107598L102.146215,149.860180L102.625440,148.988092L103.243148,146.691958L103.404891,146.283511L103.875525,145.985455L104.777163,145.610126L105.587837,145.411422L105.955655,145.510774L106.269546,145.786751L107.100294,146.007534L107.893190,146.140003L108.703827,146.062729L109.287202,145.941299L110.684511,145.974416L111.184478,146.095847L111.730779,146.095847L113.196458,145.510774L113.684685,145.488695L114.091244,145.521813L114.564248,145.731556L115.062438,146.162081L115.410739,146.780271L115.360074,147.310148L115.262297,147.751713L115.076149,148.149120L114.829408,148.502371L114.589335,149.076405L114.474707,149.573164L113.992932,150.544604L113.339415,151.593317L112.874493,152.509561L111.547244,154.673221L110.668987,155.699854L110.098846,156.627136L109.780481,157.245323L108.490876,163.228487L108.305211,164.928498L108.385486,166.849288L108.795702,168.902545L108.782873,169.642159L108.553676,170.514240L108.098751,171.883076L107.431746,173.097365L106.393482,174.466200L105.210567,175.338280L103.995751,175.890229L102.714482,176.265554L101.677393,176.386983L100.624369,176.287632L99.708600,176.011658L98.929171,175.835034L98.405604,175.790878L97.958599,175.890229L97.344009,176.265554L96.786709,176.453217L96.579567,176.707113L96.709166,176.828542L97.085401,176.961010L97.701563,177.005166L99.317679,177.292179L100.502133,176.961010L101.847175,177.347374L102.707484,177.259062L103.775786,176.883737L106.585905,175.746722L107.783839,175.371397L108.741878,174.962954L109.189765,174.709058L109.486982,174.433083L109.759005,173.936329L110.280149,173.594120L110.820598,173.461652L114.548649,173.958407L117.326541,173.715549L118.214724,173.262950L118.775393,173.064249L119.342770,172.964898L119.958931,173.009054L120.979104,173.185677L122.442094,173.185677L124.486822,172.887625L125.333682,172.722040L127.417935,172.567494L127.934825,172.390870L128.216042,172.136973L128.330652,171.640218L128.269624,170.050602L128.384204,169.675276L128.691498,169.487613L129.014727,169.520730L129.388538,169.266832L129.470301,168.847350L129.302125,168.185009L129.250920,167.655137L129.339132,165.182396L129.561921,163.118097L129.734714,162.279130L130.000067,161.561593L130.452244,161.020679L131.806119,159.861579L132.707785,159.364822L134.108606,158.901182L135.717389,158.271956L139.133553,157.212206L141.460345,156.627136L142.087531,156.362198L142.675161,156.075183L143.086045,155.699854L143.491075,155.192057L143.732772,154.794650L143.707650,154.331009L143.525084,153.988798L143.566446,153.580352L143.745030,153.116711L144.036430,152.586835L144.215049,152.001764L144.193299,151.527083L144.064623,151.129676L143.727274,150.445252L143.282113,149.992649L142.646658,149.738750L142.038200,149.275108L141.823744,148.612762L141.850137,147.586126L142.340350,146.526372L143.886308,144.859466L144.786489,143.700358L146.335857,141.900981L147.139153,141.028890L147.774967,140.068485L148.375485,138.920414L148.666929,138.269105L148.888632,137.209347L149.068521,135.255417L149.182310,132.031980L149.323869,131.568335L149.655688,131.027416L150.932145,129.879341L153.043758,128.300737L153.832692,127.627347L154.408740,126.711094L154.841677,125.838997L155.317850,124.006489L155.570601,123.299980L155.892352,122.670745L156.433729,122.262294L156.794958,121.898000L157.009743,121.467470L157.161418,120.970705L157.579947,120.418744L158.021100,120.186921L158.575029,120.010293L159.500955,120.010293L160.613692,120.186921L161.832426,120.562254L163.200084,121.147333L163.788337,121.555784L164.130814,121.920078L164.579908,123.178549L164.708263,124.547410L164.587511,125.761723L164.291497,127.550072L163.462333,130.387143L163.288626,131.380669L163.328737,132.341077L163.484960,133.467072L163.491077,135.509317L163.752586,139.262628L164.038522,140.145759L164.719170,141.282790L165.470666,141.945138L166.332528,142.276311L167.191908,142.463977L169.459592,142.497094L170.069076,142.320468L170.550561,142.320468L171.972952,142.938659L172.713559,143.424380L173.064458,143.821789L173.178802,144.296471L173.138186,145.036092L172.956197,145.632204L172.939209,146.173120L172.992925,146.725076L172.810972,147.199757L172.420240,147.751713L172.234951,148.116003L172.100146,148.557567L172.318796,149.297186L172.325367,149.882259L172.022159,150.511487L171.692058,150.986168L171.405768,151.317340L171.308035,151.637474L171.381976,152.123194L171.875008,152.995281L172.293215,153.536196L172.788801,154.308931L173.169154,154.761533L173.433356,155.169979L173.514106,155.390760L173.539233,155.854401L173.467351,157.090776L173.062887,158.658323L172.587849,159.729111L172.069131,160.457688L171.506668,161.086914L170.906381,161.506397L169.539265,161.859647L168.531565,162.279130L167.689652,162.853160L166.947827,163.736283L166.024910,165.060967L165.674658,165.359020L164.754450,165.977206L163.124575,166.827210L159.671385,167.886956L159.465095,168.107736L159.357290,168.339556L159.344598,168.593453L159.600429,168.847350L159.937107,168.957740L160.368110,168.880467L160.944776,168.659687L161.483522,168.593453L161.944792,168.659687L162.780690,168.560336L163.282430,168.372673L164.144530,167.853839L165.822401,166.937601L166.361179,166.749937L166.803110,166.727859L167.463048,166.749937L168.857786,167.003835L169.393100,167.191498L169.972980,167.566825L170.858452,167.820722L171.852547,167.931112L172.782616,168.251243L173.859924,168.847350L175.594500,170.050602L175.955618,170.050602L179.142226,171.320087L181.873399,172.777235L183.062677,173.340223L183.503701,173.594120L183.750277,173.848017L183.851193,174.245420L183.844308,174.874643L183.601083,178.219452L183.674959,179.069453L183.988816,179.588284L184.860734,180.250622L185.713368,180.581791L186.889290,180.703219L188.279934,180.515557L189.298530,180.272700L190.011563,180.029843L190.738925,179.709713L191.055501,179.400622L191.150700,179.058414L204.087732,179.477895L238.452671,180.559713L237.892115,180.272700L237.780205,180.062960L237.898135,179.676596L238.316665,178.881791L238.576831,178.605816L238.894225,178.385037L239.228414,178.351920L239.566743,178.638933L239.969091,178.716206L240.368096,178.683089L240.580214,178.716206L241.067491,179.212959L242.139040,179.312310L242.956418,179.212959L243.949751,178.992180L244.662780,178.749323L245.294172,178.440232L246.904674,177.501919L252.030708,175.117500L253.026692,174.311654L253.624469,173.748666L254.019361,173.273989L254.494405,171.960349L254.625869,171.286970L254.600799,170.459045L254.478945,169.553847L254.298030,169.266832L253.502706,168.626570L250.938737,164.740835L250.938793,164.497976L251.016294,164.244078L251.731900,163.780439L252.079623,163.460307L252.488084,162.577184L252.595912,162.223935L252.737380,162.003154L253.031189,161.859647L253.601987,161.506397L254.067591,161.042758L254.348007,160.579118L254.692389,160.148595L255.562915,159.541447L255.901379,159.221315L256.056355,158.834948L256.186980,158.194682L256.447237,157.554417L256.531509,157.157011L256.669608,156.947269L256.919669,156.704409L258.618500,156.053104L258.962796,155.986870L259.935880,155.953753L260.736463,155.666737L261.108538,155.600503L261.486472,155.666737L261.675792,155.986870L261.809324,157.278440L262.272855,158.459620L262.495929,162.036271L262.771594,163.923947L263.043320,164.641484L263.760292,165.568762L264.300625,165.922011L264.801428,166.131752L265.304778,166.242142L266.294685,166.275259L267.281304,165.955128L268.270525,165.292786L269.256459,164.277196L269.800325,163.890829L270.235572,163.647971L270.556308,163.537580L270.918274,163.504463L271.282787,163.371995L271.610291,163.118097L272.054797,162.875238L273.135846,161.881725L273.540056,161.164187L273.827235,160.557040L274.342755,158.989494L274.688266,157.311558L274.633702,156.671292L274.515114,156.240769L274.234899,155.854401L273.588528,155.423877L273.192923,155.324526L273.023792,155.059588L273.010400,154.739455L273.162006,154.364127L273.992298,153.039437L274.346057,152.123194L274.696506,150.975129L274.861681,150.191353L275.171666,149.297186L275.563167,148.954974L275.917602,148.734193L277.160993,148.270550L277.640780,148.336785L277.945459,148.491332L278.181953,148.656919L278.367842,149.230952L278.408922,149.915376L278.386008,150.688112L278.450677,151.295262L278.793128,151.902412L279.316576,152.432288L279.989874,152.895929L282.324418,155.015432L282.934658,155.169979L285.212266,156.019987L286.554735,156.627136L291.637800,158.084292L294.088111,158.338190L294.919729,158.525854L295.669685,158.768713L296.126682,159.121963L296.406957,159.265471L299.141629,160.225868L306.914742,162.820043L309.388439,163.968103L309.698989,164.255118L309.922783,164.796030L310.244239,165.259669L311.103488,166.175908L311.847408,167.136303L312.324504,168.030463L312.547528,168.240204L312.871608,168.240204L313.193191,168.096697L314.266609,167.279810L314.834104,166.573313L315.261860,165.899933L315.809216,164.895381L316.018091,164.332391L316.132675,163.835634L316.148827,163.084980L315.580006,158.183643L315.309123,157.432987L314.974221,156.892073L314.537466,156.351159L314.317842,156.008948L313.712061,154.717377L312.845351,153.370610L311.705875,152.189428L310.536020,151.350458L309.971311,150.864738L309.585900,150.367979L309.406687,150.014728L309.486877,149.054326L309.452473,148.590684L309.320492,147.840025L309.323126,147.376383L309.197800,146.967936L308.998400,146.559489L308.666820,146.250394L308.311624,146.140003L307.061613,146.140003L306.405928,145.952338L305.587823,145.599086L304.789937,145.179600L303.924687,144.859466L303.265721,144.318549L302.775123,143.711398L302.487440,142.894502L302.448970,141.867864L302.177468,140.300307L302.109464,139.582763L301.905940,138.854180L301.753631,138.655475L300.963372,138.059361L300.820353,137.739226L300.188384,136.988564L299.856810,136.679468L299.292873,136.524920L298.849338,136.248941L298.765246,135.917766L298.818375,135.531396L298.986836,135.100868L299.240300,134.725537L299.824611,134.206696L301.002461,133.290446L301.381305,133.080702L301.715490,133.047584L302.084161,133.113819L303.932527,133.610582L304.635384,133.643699L305.351751,133.511229L307.000092,132.782644L308.509575,131.932628L309.279103,131.292356L310.029325,130.442339L312.311077,128.124110L312.939134,127.704621L313.533461,127.516955L314.006534,127.483837L314.439138,127.704621L314.970192,128.057875L315.295023,128.389051L315.551638,128.852697L315.751847,129.349460L316.403412,132.462508L316.866921,133.643699L317.154748,133.853443L318.242276,133.930717L319.468724,133.886561L320.749058,133.787208L321.820647,133.643699L322.886317,133.610582L323.190174,133.676817L323.589113,133.886561L324.028430,134.206696L324.849868,134.670341L325.353210,134.780733L325.859952,134.758655L326.819670,134.283971L327.136276,133.853443L327.531267,133.014467L328.215908,131.833275L328.722042,130.872867L329.059719,130.342987L329.427632,130.078046L329.836741,130.011811L330.180974,130.188438L330.414884,130.574809L330.806300,133.963835L331.019905,134.780733L331.358161,135.310612L332.075170,135.995040L332.433704,136.215823L332.940417,136.315176L333.836021,136.414528L334.649990,136.447645L336.265359,136.282058L336.579326,136.315176L336.718128,136.679468L336.749130,137.275582L336.699289,138.015205L336.313049,141.039929L336.224082,143.545811L336.271825,144.572449L336.392907,145.146483L336.832887,146.283511L337.408390,147.431579L338.321396,148.778349L339.238544,150.445252L339.512875,150.820581L340.659098,151.979685L341.397089,153.050476L341.714349,153.436844L342.516951,155.479073L344.137628,158.117409L345.241588,160.203790L345.467906,160.766781L345.647830,161.815491L345.689639,163.195370L345.579883,164.829147L345.135753,167.467473L344.951861,169.465535L344.502475,173.273989L344.590784,173.682432L344.796967,173.947368L345.199272,174.267498L345.723645,174.521395L346.240455,174.709058L347.142792,174.907759L347.886893,175.018149L348.633494,175.272046L348.856523,175.481787L348.934749,175.801917L348.810071,176.331788L348.651746,176.729191L348.418499,177.159711L348.016886,177.656465L346.481948,179.864258L343.085608,183.529191L342.093788,184.776592L341.597868,185.461006L341.456371,185.924641L341.388950,186.388276L341.237388,186.642172L341.037855,186.840873L340.605966,187.194118L339.657946,188.298011L339.434769,188.938269L339.337856,189.589565L339.496881,190.009044L341.075835,191.267480L341.532819,191.863581L341.946009,192.603188L342.169774,193.508378L342.258017,194.402529L342.174507,195.495380L341.702891,196.919397L341.060184,199.723273L340.932870,201.081054L340.971438,202.107669L341.113645,202.460912L341.360247,202.714806L341.870331,202.924544L342.435144,203.045972L343.168321,203.101166L345.815715,203.012855L346.465593,202.825195L349.825481,200.341450L350.791911,199.844700L351.940144,199.480417L352.703676,199.193407L353.409146,198.762890L354.256860,198.442763L354.645796,198.199907L355.018753,197.857702L357.867018,194.259024L358.366316,193.442145L358.709973,192.073321L359.073748,191.245402L359.451789,190.704496L359.809598,190.351250L360.140437,190.207745L360.472084,190.273978L360.928244,190.781768L361.205932,191.388908L362.235164,193.022667L362.681219,193.563573L363.219042,194.016168L363.719864,194.225907L364.389051,194.369413L365.304066,194.314218L366.436283,194.093440L367.226745,193.839545L368.401946,193.265523L369.651241,192.570072L370.927506,191.664881L372.045531,190.671379L372.828522,189.744110L373.843942,188.176583L374.370962,187.723987L375.585761,186.929184L377.027832,186.178537L378.378156,185.394772L378.955650,185.140877L379.817666,184.864903L380.901909,184.588930L381.492879,184.290878L382.465259,183.440879L382.687544,183.076594L383.163362,181.729842L383.436181,181.199972L383.861369,180.625947L384.445661,179.985687L385.104029,179.345427L385.769115,178.804518L386.302008,178.484388L386.788582,178.285686L388.240802,177.259062L389.273827,176.210359L389.445601,175.890229L389.539931,175.581137L389.725326,174.366849L389.701000,173.870095L389.452942,172.346714L389.797791,169.123325L389.922467,168.593453L390.131325,168.030463L390.634855,167.169420L391.113932,166.540196L391.758854,165.822659L392.457614,165.292786L393.133617,164.928498L393.998155,164.674601L395.035207,164.674601L395.718685,164.862264L396.329762,165.105123L396.844027,165.392137L397.489642,165.491489L398.094047,165.392137L398.651328,165.204474L399.293661,164.829147L400.167568,163.968103L402.042716,161.009640L403.838044,157.311558L404.384578,156.097261L404.987635,154.242697L405.104826,153.282297L405.106759,152.001764L404.933616,150.688112L404.508654,150.047845L403.762113,149.551086L403.116528,149.330304L401.159607,148.491332L399.358326,148.082886L395.887842,147.652361L394.270003,147.553009L391.360871,147.619243L388.968540,147.873143L387.422154,148.237433L384.469169,148.690036L380.985881,149.120561L378.485856,149.120561L377.729136,149.021209L377.157628,148.800427L376.853818,148.491332L375.818622,147.696517L375.518182,147.376383L375.280886,147.001053L375.024275,146.415981L374.481709,144.704918L374.099688,144.075688L373.389425,143.247754L372.754007,142.750994L372.249865,142.430859L370.938517,141.934098L370.604413,141.602925L370.495929,141.139281L370.788994,140.543168L371.252041,140.178876L371.805957,140.002250L375.345701,139.295745L384.635372,139.074962L386.051145,139.350941L386.982887,139.726272L387.905423,139.858741L388.915538,139.825624L389.658831,139.726272L390.743073,139.450293L392.148128,138.699632L392.583343,138.578201L393.073291,138.368457L394.099510,137.827539L395.190651,136.800898L399.533662,131.248199L400.158363,130.718319L400.658448,130.354026L401.134097,130.100125L401.644207,130.067007L402.198887,130.221556L402.895635,131.215082L403.430072,131.557296L403.983904,131.744962L404.568089,131.711844L405.200295,131.491061L406.500130,130.751436L407.979260,130.000772L410.165438,129.360499L411.010581,129.261147L411.679770,129.283225L412.433114,129.393617L413.092168,129.570244L413.639261,129.779988L414.595461,129.923498L415.902719,129.857263L416.944005,129.691675L418.017314,129.360499L420.834901,128.289698L421.827424,127.859170L422.702124,127.329289L423.745217,126.611741L424.299130,126.435114L425.394272,126.335761L425.938022,126.435114L426.303271,126.755251L426.532973,127.185779L426.638828,128.113071L427.183930,129.724792L427.389916,130.839750L427.892920,132.528743L428.616376,134.648263L429.562089,136.646350L430.397495,138.854180L431.167850,142.276311L431.412519,143.689319L431.467059,144.572449L431.258120,145.499734L430.830304,146.537411L430.317506,147.398461L429.744110,148.215355L429.342449,148.954974L428.927242,150.103040L428.196141,152.498522L427.529841,155.015432L427.278722,156.505706L427.441956,156.881034L427.756708,157.245323L428.047834,157.929745L428.365109,158.316112L428.689969,158.647284L429.379337,158.845987L429.768231,158.845987L430.088962,158.735596L430.760745,158.415464L432.429237,157.742081L434.020263,157.201167L435.080984,156.638175L439.191801,153.878407L441.356259,152.277741L442.808484,151.251106L443.699993,150.787464L444.841504,150.323822L446.125275,149.849141L446.952816,149.352382L448.871310,148.678997L452.950804,146.901701L458.378150,144.075688L459.782383,143.115285L460.267306,142.739955L463.103552,140.819146L464.724167,139.604841L465.348853,139.074962L465.635962,138.710671L465.817850,138.357418L465.959355,137.893774L466.502475,136.933368L466.654065,136.558037L466.738342,136.039197L466.707315,135.443082L466.625750,135.012555L466.433074,134.582028L466.064471,134.151501L465.553610,133.732012L465.162223,133.588503L464.465279,133.444994L463.678287,133.202132L463.086614,132.804722L462.451190,132.307960L459.364875,130.376104L457.850721,129.603361L457.353291,129.382578L456.728726,129.305303L456.191687,129.305303L454.515679,129.669596L453.275783,129.636479L452.566213,129.504009L451.870146,129.205951L451.183390,128.665031L450.582540,127.903327L450.111348,127.020191L449.708420,125.761723L449.324969,123.984411L449.270476,122.979843L449.340519,122.173980L449.356734,121.180451L448.134513,117.449191L447.730895,115.616678L447.408180,113.397788L447.427690,112.757512L447.544862,112.039960L447.774053,111.046426L448.006499,110.527581L448.530230,109.843146L450.356346,108.319726L452.821407,106.553441L453.706190,106.111870L454.388911,105.846927L454.973091,105.813809L455.925940,105.846927L456.558058,105.990438L457.179216,106.200184L457.703563,106.454088L458.304533,106.608638L458.933311,106.641756L460.102550,106.420970L460.723825,106.144988L461.803959,105.427434L463.219182,104.400780L464.289265,103.473479L465.541984,102.645532L466.865348,102.071488L468.346089,101.618876L469.569212,101.342894L470.443796,101.298737L471.793061,101.519523L472.654107,101.762387L473.268526,101.994213L473.785283,102.303313L474.789235,103.352047L475.517846,104.787155L476.065495,106.178106L476.182410,106.553441L476.199144,106.983973L476.033102,107.922312L476.009346,108.728180L476.062241,109.313261L476.253232,109.688596L476.702576,110.339913L477.024073,110.560698L477.440711,110.682130L478.162958,110.560698L478.961855,110.218481L480.245684,109.500929L481.408350,108.573630L483.237848,106.917738L485.927125,103.749462L486.243722,103.318929L486.476338,102.071488L486.478384,100.548064L486.669544,100.194806L486.982745,99.896744L487.614098,99.709076L490.447441,99.587643L492.965942,99.587643L495.375766,99.974019L502.357001,100.824046L503.119568,101.055872L503.635451,101.519523L503.870132,102.237078L503.698258,102.921514L503.472529,103.539715L502.353614,104.566369L501.237164,105.857966L500.896956,106.487206L500.836251,106.928777L501.010423,107.237877L501.353014,107.237877L501.826987,106.928777L502.387690,106.487206L502.945846,106.144988L503.678255,105.747574L504.171541,105.648220L504.382777,105.835888L504.516488,106.398891L504.757968,106.851502L505.066837,107.083327L505.456546,107.171641L506.188025,107.171641L506.510399,107.237877L506.889124,107.513859L507.692102,107.734645L508.803208,107.734645L510.045669,107.546977L512.211638,106.851502L513.024831,106.553441L513.646075,106.398891L514.210038,106.432009L514.858129,106.674874L515.864757,107.138523L516.129851,107.392427L516.447875,108.109980L516.386218,109.070397L516.560288,109.865225L516.969261,110.406149L517.898346,111.366565L518.974731,112.360098L519.813850,112.856865L522.365877,113.596495L523.859110,113.740005L524.289202,113.938712L524.560191,114.203654L525.201727,117.714133L525.345560,118.244016L525.630002,118.586233L526.060097,118.784939L526.502845,118.851174L532.661121,118.696625L533.299138,118.851174L533.881575,119.127155L535.520344,119.734312L536.869603,120.076528L537.568241,120.153803L538.481586,119.921979L538.978264,119.690155L538.325546,121.555784L536.374911,127.583190L529.737497,148.149120L515.611180,133.180054L513.408939,134.328127L512.700279,133.798247L512.939618,132.285881L513.741164,131.237160L500.909644,117.791408L488.916944,115.219265L496.367262,140.774990L482.025649,148.811466L479.998814,152.995281L476.661436,151.825138L461.025923,160.612235L460.287119,164.155766L459.131291,164.696679L457.309199,162.687575L424.585201,181.078544L411.216562,173.759705L394.059305,186.531783L403.874323,186.653211L418.264314,187.105807L415.303753,187.492170L412.115815,188.562945L410.591265,189.280475L407.271050,191.179169L405.555334,192.492799L402.538027,195.340836L397.533741,201.180404L395.417225,203.443371L392.748479,205.938152L388.783311,209.161493L383.154754,212.738073L381.127612,213.919226L372.526739,217.495799L341.984578,230.830630L336.454634,233.325384L335.707921,233.800049L334.794496,234.638992L333.801051,235.952600L333.246166,237.376593L332.916074,238.458387L320.887813,238.458387L315.906131,238.458387L305.127920,238.458387L302.520031,238.811625L296.138329,239.970689L293.771093,241.173907L290.691792,241.615455L283.030538,259.531187L278.584785,262.357070L275.639160,275.228046L283.092084,280.239540L279.446460,291.763731L267.287507,291.675423L255.487741,296.510269L249.075065,293.430540L238.505626,305.826705L239.120892,308.089578L234.857944,309.314840L223.397965,324.084170L217.546550,324.051055L217.407625,325.143850L217.098672,325.519153L216.186152,325.475000L215.966430,325.861341L215.088397,327.009326L213.839966,328.278733L211.494639,330.442241L210.451622,331.159730L209.272234,331.777875L207.727493,332.804437L207.132324,333.268045L206.516949,333.919304L206.062351,335.288051L205.786223,336.314611L205.829142,337.539860L205.260070,338.191118L204.571462,338.687840L203.186677,338.886529L202.812068,339.052103L202.498070,339.261830L202.313710,339.592978L202.489647,339.835819L202.471966,340.166967L202.314545,340.409809L201.329620,340.663689L200.326172,341.403252L199.221704,342.595384L198.538144,343.864782L198.503627,344.493962L198.053254,345.454289L197.261104,346.017239L196.645736,346.547074L195.876316,347.308712L194.666626,347.904776L193.576474,348.776796L192.303649,349.306631L190.758074,349.637777L189.470095,349.549472L188.295761,349.361822L187.054081,349.516357L186.005178,349.979962L185.235757,350.620179L184.719724,351.613618L184.369531,352.640171L183.622002,353.997870L182.697691,355.024423L180.939980,356.050975L179.487005,356.624961L177.593757,356.911954L176.201392,357.287252L174.719792,357.408672L173.648997,357.154794L173.217140,356.415235L172.925869,355.730867L172.298713,355.510103L171.641253,355.510103L171.026727,355.763982L170.801963,356.349006L170.917293,356.669113L172.025976,358.104078L172.212867,359.252048L172.122802,360.366904L171.866061,361.724599L171.492306,362.828415L171.105923,363.821850L170.546964,364.561406L169.774181,365.091237L168.326265,366.195052L167.503815,366.735922L166.652737,366.945646L165.568467,366.735922L164.229970,366.691769L162.745000,366.824227L160.985598,367.188486L159.003109,367.221600L156.906135,367.508592L154.111298,368.292300L152.908341,368.744863L151.553011,368.998740L150.738132,369.362999L149.610945,370.235011L149.073023,370.389545L148.731250,370.842108L148.704317,371.173252L149.524255,371.338824L150.696069,371.140138L151.986591,371.614777L152.886507,372.034226L153.998571,372.851047L154.333633,373.634753L154.433828,374.429497L154.691444,375.224241L154.722615,376.184556L154.354779,377.785081L153.522265,379.573252L153.017197,380.500451L152.213289,381.648412L150.698882,382.818448L149.877293,383.811874L149.173551,384.540387L148.436140,385.379280L148.068311,386.736961L147.848640,387.973224L147.555717,388.812116L146.864615,389.772426L145.778701,390.843116L144.746658,391.737197L144.265142,391.980034L143.792876,391.980034L143.087416,391.803425L142.505710,391.737197L141.800250,391.560588L141.439106,391.560588L141.054398,391.759273L140.295950,392.697506L139.385123,393.437054L138.474280,393.812347L137.935523,394.121412L137.582825,394.761617L136.798279,395.633621L136.251954,396.119293L135.769598,396.395244L135.251042,396.638080L135.052389,397.046487L135.152581,397.355551L135.851310,397.554235L137.127563,398.348972L138.255668,399.386544L138.824750,399.463810L139.312176,399.596266L139.579059,400.026748L139.758401,400.622800L139.612824,401.737638L139.805709,403.625134L139.618904,405.026958L139.954862,406.141793L139.879971,406.660578L139.299183,407.896830L136.830321,411.528319L135.894278,412.654189L135.013746,413.051555L134.809199,413.327504L134.544063,413.923553L133.746890,414.563753L133.575186,415.005270L133.384115,415.358484L133.125686,415.568205L132.693833,415.678584L132.365537,415.965571L132.425331,416.285671L132.632439,416.517467L133.000329,416.616808L134.000420,416.495391L134.361577,416.616808L134.770794,417.764753L134.615944,418.393914L134.637877,418.989962L134.824797,419.409403L134.937635,419.828844L133.563951,422.268221L131.379579,424.663445L129.629530,426.241863L127.251496,428.118303L125.930734,429.078599L125.056110,429.608417L124.499678,429.884363L123.853150,429.939553L121.676974,429.696720L120.140583,429.299356L118.380228,428.482553L117.981199,428.515667L114.714128,429.785023L110.605255,431.506930L109.771005,431.661460L108.950231,431.893255L107.803712,432.676943L105.276630,434.100826L103.871653,434.729984L103.195655,434.729984L102.612280,434.972817L102.374062,435.237725L102.273071,435.568860L102.512268,436.849250L102.876011,437.599823L103.326510,438.825023L104.335970,439.796352L104.636573,440.480697L104.866460,441.154004L104.961650,441.783160L104.917936,442.412315L104.758068,443.240151L104.698350,443.769966L104.941768,445.006201L104.938451,445.502902L104.720472,446.065830L104.707895,446.562531L104.591780,447.125458L104.342680,447.942255L103.630644,449.487546L102.944676,450.734815L101.822677,452.379444L100.826065,453.582561L97.648434,456.562756L97.431284,456.971153L97.393433,457.247097L97.472629,457.776909L97.430602,458.339834L97.356563,458.704080L97.472757,458.869646L97.759827,458.869646L97.963540,458.748231L98.200076,458.549551L98.758180,458.207381L99.155522,458.119079L99.442592,458.119079L99.675790,458.174268L100.532869,458.825495L100.753441,458.891721L101.213076,458.781344L101.708901,458.582664L102.070024,458.339834L102.688704,457.677569L103.012786,457.434739L103.505245,457.247097L103.927839,457.136719L104.319300,457.158795L105.391865,457.589267L106.372650,457.865211L106.576392,457.986626L106.762466,458.196343L107.341840,459.697477L107.460714,461.099269L107.372391,461.662194L107.230181,462.158892L106.464318,463.880777L105.212795,466.253886L104.150608,467.975769L103.045472,469.565198L101.822531,471.540945L101.651691,471.949340L101.549878,472.313583L101.438017,473.075184L101.510647,474.719798L101.734813,476.353373L102.114700,477.810345L102.306853,479.245241L102.339146,481.265131L102.245760,481.662486L101.542173,482.998041L101.436143,483.285020L101.361279,483.682375L101.364795,484.642649L101.271543,485.889901L101.249867,487.236492L101.317354,488.108463L101.463167,489.179112L101.296220,492.733221L100.874054,495.393281L100.211146,498.174751L99.603810,500.956218L99.571056,501.397721L99.748079,502.700153L99.676677,503.572119L99.571556,504.190222L98.188145,507.512522L96.186475,513.439671L95.805382,514.841434L94.814244,517.788445L94.239499,519.035681L93.720318,520.282917L92.852091,523.130585L91.349172,526.298335L90.815629,527.258594L90.204689,528.472713L89.581908,529.421933L89.181355,530.249740L87.424093,532.854574L86.813967,533.914166L86.430243,534.686786L85.964951,535.878826L85.567876,537.181240L85.061372,538.538841L84.068340,540.216525L82.906952,541.960433L81.554460,543.693301L80.271799,545.227496L78.695361,546.905176L77.586874,548.019950L76.393345,549.079536L75.959045,549.532067L75.722554,549.852151L75.246235,550.624765L74.678261,551.849910L74.373610,552.302441L71.705582,555.282522L70.648526,556.684262L70.304363,557.357538L70.168967,557.953553L70.071507,558.759277L69.483474,560.536284L69.042569,561.496529L68.472850,562.423662L67.192775,564.101331L66.182837,565.348544L65.172097,566.750279L64.213435,567.677410L62.794332,568.869435L61.948465,569.730342L61.230582,570.657472L60.470688,571.904683L60.208183,572.522769L59.822052,573.637531L59.564739,574.785405L58.963755,581.496040L58.480872,585.844698L58.551661,586.098554L54.022423,595.336669L88.534919,601.451245L92.101566,602.753626L103.970218,607.080174L123.571816,614.232208L150.432778,698.068446L256.657529,645.875301L286.026956,631.427910L327.137402,610.755527L329.671114,611.892347L365.766592,628.072660L372.997867,630.478728L376.589865,631.516206L392.207622,636.427666L399.119511,638.028027L413.729672,641.261857L414.627500,642.023407L414.997168,642.177925L415.344893,642.222072L415.779272,642.133777L416.115911,641.879927L416.344781,641.615040L423.282070,643.436137L426.818377,644.109391L427.041759,644.683312L427.291980,645.047531L427.749304,645.400713L428.369018,645.555230L429.035804,645.555230L430.659708,645.301380L431.012389,645.146863L421.811143,679.791584L420.719508,686.689570L419.889109,689.294244L395.105021,689.603273L388.926251,689.669494L387.287833,698.940346L387.213119,699.337667L381.017975,704.900162L376.806255,708.663668L379.651446,713.795713L380.333818,714.535168L392.597683,715.318770L393.883535,714.259252L401.082782,708.288421L399.770113,714.027483L399.955335,714.027483L399.883923,714.292362L399.661319,715.175293L398.308010,720.439765L401.568869,729.224897L401.032121,735.548849L400.547189,741.155411L402.279857,741.122302L402.428037,741.122302L402.801846,741.111265L401.451483,745.393435L400.637017,747.611772L398.917219,753.472147L396.996406,759.597384L396.608200,760.811393L405.507976,760.325789L406.173940,758.990379L412.011746,758.736541L412.985000,758.703431L412.429973,761.043158L412.043495,762.312349L411.510480,763.515320L410.985750,764.508599L410.116948,765.932298L409.104226,767.433251L407.447869,769.618460L402.040100,776.063713L401.680868,776.483095L400.646117,777.752278L389.888066,790.819309L388.020543,793.181080L387.171037,794.450254L386.688381,795.366267L386.165485,796.536114L383.964110,803.157880L382.680522,807.373729L375.640968,830.008968L372.954761,838.771655L372.957985,842.016270L373.232539,844.400066L370.809366,845.514710L370.586625,847.159086L371.402363,848.130260L372.352031,850.304365L371.526391,851.860450L370.667975,853.493785L371.464196,853.129596L373.618868,852.136351L375.242455,851.396935L377.727910,850.260221L387.907078,845.602999L429.076545,826.764339L429.605745,825.086842L429.927461,824.060478L431.297140,820.352321L446.828401,813.112570L460.069511,806.976425L462.398427,805.927981L463.519528,805.409277L465.252527,804.614667L470.404397,802.263943L477.504732,799.019279L501.412398,788.115410L503.220305,787.287686L504.970920,786.404779L507.128131,785.433582L512.441618,783.038695L513.933905,782.365478L559.275283,761.352178L566.726545,757.897770L603.119171,740.846389L624.966274,730.747944L629.388376,728.695141L630.949667,727.977763L633.754091,726.675446L633.123007,728.474410L631.519662,733.010441L628.142492,742.612233L633.641198,742.711561L633.934197,742.722598L666.802259,742.722598L683.231659,742.722598L682.696614,744.510514L670.175405,784.760365L667.124015,793.324552L693.174825,793.633568L715.461970,793.710822L717.526250,793.501132L712.259500,809.923101L710.478399,815.684008L708.990362,820.451646L708.107631,823.078258L707.279049,826.013880L701.857210,843.495106L696.862698,843.473034L674.952350,843.373709L669.973004,843.362673L632.115926,843.197132L621.663828,843.152988L590.084586,945.411401L585.059105,961.534446L580.363452,962.538684L578.689492,963.322210L577.002357,965.275508L575.066674,967.924044L573.091174,974.600550L572.895653,975.273717L572.693418,975.968956L572.576970,976.564874L573.578879,976.498661L574.882267,976.476590L576.165512,976.520732L577.603782,976.664194L575.485998,981.586033L578.627907,982.005382L585.206697,982.270234L591.127115,980.923903L595.399832,979.665855L598.101534,979.401003L601.540793,978.264344L605.330388,977.193899L607.421122,976.410377L611.635310,973.883240L623.443555,964.690622L629.737710,957.274705L632.064566,954.284054L637.150148,949.075236L643.151876,944.782368L649.648188,939.959780L654.113067,938.039571L655.798253,937.554001L656.281607,945.433472L660.156290,949.593911L663.914501,952.584568L666.821929,949.207664L665.072460,948.534490L664.122489,946.603251L666.062915,944.517512L668.769849,941.008170L671.183259,941.295097L672.668074,942.564199L673.926247,940.224636L676.430343,935.920718L677.324764,932.676221L679.899157,925.249177L681.063024,921.088698L683.058868,915.228703L685.062828,910.803349L688.049744,904.943331L689.150199,903.122418L690.314742,903.221741L692.111629,903.343135L696.021924,903.519708L697.685902,903.773532L700.560796,906.896672L702.650883,910.803349L703.369925,912.580113L704.257873,916.663355L704.083634,920.249980L703.734361,923.042027L702.800326,925.381606L701.272626,928.515754L700.171215,931.892685L699.672509,934.232256L698.859738,937.421572L699.118134,945.036188L699.164367,949.207664L697.391535,954.670300L696.757080,956.756031L694.213279,960.795061L691.743609,963.189783L691.055852,964.171950L690.703142,965.087903L690.249977,966.577705L690.757752,968.288217L690.616769,968.751711L690.666806,969.104849L690.887038,969.568342L691.098694,969.877337L691.876011,970.031835L692.701008,969.877337L693.445071,969.623520L695.669740,968.917244L697.281068,968.674462L698.367946,968.542035L698.417672,969.413844L698.871194,969.932515L699.767550,970.396008L700.097560,971.168497L700.841002,971.952021L701.056390,972.614153L700.838208,973.331463L700.302447,973.905311L700.202931,974.567443L700.163151,975.185433L700.643407,975.494428L701.583336,974.931616L701.944552,974.931616L702.245041,975.648925L702.158953,976.266915L701.690020,977.138721L701.901680,977.447716L702.624795,977.293219L703.040900,977.447716L703.125693,978.021563L702.772375,978.330558L703.306840,978.948547L703.080766,979.356861L702.624885,979.820352L701.911032,979.974849L701.366695,980.394199L700.999951,980.747335L698.948033,981.586033L697.566156,983.053755L695.967928,986.176799L695.318217,988.891526L695.848527,991.959386L697.004927,994.674108L699.261906,997.455039L699.595948,998.823433L710.786343,999.000000L713.046954,998.845504L714.956673,998.900681L715.548567,997.289508L715.783763,996.759807L717.033588,993.868520L722.362841,981.310146L723.935190,977.602213L744.975353,928.162611L745.315588,927.379074L791.422556,927.434253L787.728633,939.882530L786.907966,942.641449L830.873140,942.674556L833.170077,942.674556L865.446803,942.707663L871.936982,929.012362L879.718785,915.151452L890.735871,893.852299L902.200468,894.161303L902.429673,893.499151L904.655298,886.943831L904.955008,886.049922L905.257265,885.178085L910.057153,871.074150L912.056266,865.203006L917.232632,849.984320L913.453918,849.984320L911.831862,850.414726L904.774331,850.171933L890.804660,850.304365L881.966255,849.918103L877.720294,849.962247L876.248629,850.050536L874.760877,850.039500L874.223707,850.039500L864.016550,849.951211L857.651206,849.807743L850.983588,849.653238L838.055973,849.465625L835.678300,849.487697L831.682510,849.653238L816.600313,849.454588L815.460221,849.366300L815.525320,848.726208L816.738958,844.433174L816.807528,843.903442L816.700128,843.373709L815.921836,843.009518L810.327870,843.009518L800.640306,843.009518L797.094872,843.064699L788.657829,843.307493L784.692480,843.616503L781.940991,843.649612L814.205734,765.049384L817.667947,756.595468L848.004307,687.484216L848.744845,685.751445L851.042125,680.365497L854.620414,673.114317L858.193520,673.180538L891.008112,673.688232L891.377725,672.474181L896.185553,656.956362L904.754251,629.209472L905.310549,626.196367L905.487689,624.033110L905.377600,621.627036L904.862656,619.364442L904.574458,617.543328L902.986166,609.773226L902.346761,607.676178L901.569058,605.181792L901.317693,604.365045L900.608260,601.981027L899.833729,599.111373L895.687470,600.623460L880.201201,608.294256L867.399848,614.750950L865.988381,615.402137L864.476761,616.108510L863.297636,616.726585L866.849429,600.623460L866.952665,600.071604L874.229021,563.196273L875.581723,556.353142L878.218408,542.953797L881.913536,524.256406L882.363021,522.324849L884.492884,513.174770L885.848980,507.324884L890.128127,495.923085L891.190467,493.803868L916.146273,441.772122L919.360482,435.083195L950.723497,369.694143L955.944225,359.826033L959.987436,353.456998L968.895392,339.968279L934.507269,339.835819L927.580137,340.476039L907.626607,340.409809L902.502989,338.930682L904.660053,332.947934L908.443426,322.450497L907.642226,319.337684L900.969214,319.326645L890.806059,319.282492L870.066421,319.183147L830.136079,319.006533L820.681778,349.593624L796.843196,349.483242L791.918160,347.474285L791.343993,347.231444L787.210049,352.408369L770.363572,352.264872L703.677240,351.735038L694.479429,381.328307L679.050362,380.908860L675.840856,386.637619L676.055957,388.635507L679.332246,419.597047L679.373612,420.038564L675.083734,420.502156L665.210942,421.539720L660.034606,408.537032L659.631352,404.938654L662.337752,389.651007L664.580272,376.979299L664.672776,376.493623L654.309880,376.283899L654.579927,375.367736L633.268887,369.274694L633.615624,368.744863L628.422243,367.707278L638.909574,352.110337L638.818942,348.489802L639.193090,345.410136L632.982192,339.570901L620.081075,330.376011L628.355810,303.817714L631.085906,295.108386L636.172663,278.793493L639.147922,268.947106L651.412060,228.313796L657.429492,208.951755L663.864953,188.220739L660.900241,188.165544L659.332008,188.419439L656.444725,188.596062L649.967312,188.430478L648.477381,188.397362L635.244773,188.066194L629.171412,187.911649L628.608980,189.755149L623.008468,207.869949L621.226184,213.621178L619.439728,219.416549L617.802318,224.693084L617.090152,225.509952L611.785119,231.548148L609.025677,236.890890L607.574406,241.041443L602.304869,256.009867L600.218120,259.299376L598.457961,260.789588L596.358552,261.783063L591.560353,262.456418L590.668061,262.831730L586.275625,264.664137L581.153383,267.887403L576.630535,272.424254L573.961353,277.501985L572.168480,281.862202L570.386568,286.156181L566.208531,299.004958L565.385401,301.521721L544.710714,301.300953L537.613472,301.223684L536.036774,301.201607L533.281265,310.782947L532.952195,311.953016L524.369097,341.767515L526.024229,342.959646L530.159545,345.917895L529.957556,346.337348L527.191978,351.823344L521.810109,350.675370L521.628345,351.271433L521.109984,352.971317L514.830166,373.535410L514.242006,375.433965L513.071594,379.242109L501.530994,379.098614L493.665808,378.988233L492.865610,381.582183L488.853802,394.618123L489.653538,394.607085L489.502947,395.192100L501.599179,395.092758L503.182701,395.335594L505.594827,396.991297L507.274679,399.287202L506.642805,401.207814L505.934368,403.349184L503.639179,410.512827L492.469109,411.704926L490.135590,411.947761L481.911123,417.753715L485.013933,407.698147L474.978979,415.281219L474.228136,415.678584L461.924672,410.777738L459.926019,409.983005L457.490425,409.011665L449.190984,419.619123L448.298005,420.756028L444.115780,420.866407L440.653321,420.954710L438.939347,420.987824L432.057364,421.175469L416.212178,434.178091L415.075525,437.632937L412.619684,445.050352L406.100545,445.536015L397.958349,446.121019L397.188911,446.154132L396.378255,446.352813L394.981671,446.529417L393.625469,446.573569L393.692772,446.352813L392.701922,446.352813L388.768044,446.650833L386.671854,446.661871L384.569769,446.661871L384.029307,446.672909L384.417998,445.458751L382.230876,445.403562L379.270951,445.392524L377.483717,445.392524L376.347232,445.414600L375.050627,444.564689L373.989107,444.796483L372.803979,445.767809L371.868186,447.500743L369.018384,450.955571L364.995237,451.121137L345.311713,462.103703L342.183869,464.344361L340.440904,466.750583L337.801368,473.008957L337.203643,472.964807L303.576112,470.028781L263.077366,466.485678L256.403073,465.900679L259.530768,457.677569L262.598116,450.624437L281.736293,388.503050L290.524121,388.381632L298.364052,388.271251L314.730631,347.816470L316.736490,342.849263L318.070075,346.856144L317.136773,352.982356L315.532857,363.645239L312.724949,369.815562L312.831032,370.014249L312.668670,371.548548L312.655266,372.442636L312.805177,373.347762L313.862651,375.224241L314.079037,375.698880L314.282815,376.427394L314.713082,377.597433L314.958928,378.005843L315.256109,378.215566L316.185503,378.447366L316.298322,378.623976L316.204902,378.899928L315.919559,379.319376L315.315188,380.025813L314.951549,380.367994L314.646826,380.577718L313.861428,380.875746L313.644251,381.041317L313.423718,381.339345L312.888406,382.365887L311.469300,384.772186L311.030808,385.875993L310.788548,387.884919L310.940145,388.602393L311.399027,389.496474L312.105381,390.125643L313.518021,390.655469L316.750735,391.593702L317.984883,391.858615L318.984975,391.858615L319.921073,391.704083L320.763743,391.704083L321.346304,391.858615L321.959199,392.278061L322.724486,392.896190L322.997323,393.701966L323.183377,393.790271L323.452759,393.757157L323.660673,393.591586L323.856787,393.282521L324.035193,392.697506L324.239715,392.300137L324.483819,392.046262L325.871897,391.108029L327.714497,389.529589L328.084038,389.319866L328.648053,389.231561L329.797157,389.319866L331.059886,389.187409L333.779729,388.193985L334.076878,388.039452L334.404323,387.785577L334.794049,387.388207L335.359595,385.776650L335.680284,385.302014L336.070861,384.992948L336.478281,384.750110L336.987574,384.628692L337.339458,384.628692L337.822684,384.805301L338.379176,385.257861L339.061142,386.118830L339.179020,386.339591L339.239673,386.748000L340.291233,387.884919L341.592031,389.540627L342.211685,390.180833L343.003903,390.710659L343.628574,391.030762L344.359311,391.306713L344.941049,391.615778L345.970679,392.278061L346.974234,393.116951L347.263043,393.657814L347.407042,394.066221L347.407084,394.430476L347.469405,394.651237L347.595695,394.783693L347.802783,394.772655L348.656348,394.342172L348.930758,394.110373L349.300269,393.657814L349.546898,393.426016L349.784281,393.315635L350.223711,393.271483L351.540366,393.569510L352.241635,393.790271L352.719852,394.286982L353.012824,394.419438L353.197217,394.695389L353.299121,395.059644L353.355679,396.362130L353.345743,397.730843L353.054639,399.110594L351.961532,402.543411L351.713261,403.084273L351.544982,403.757590L351.683062,403.912122L352.534158,403.945235L352.998825,403.757590L353.716851,403.316070L354.458422,402.675867L355.194921,401.870094L355.558517,401.285080L355.846342,400.644876L356.088704,399.971558L356.342871,399.441734L356.606313,399.033328L357.301435,397.178943L357.466368,396.638080L357.485652,395.997875L357.660597,394.695389L358.233643,392.664392L358.654425,391.527474L359.160282,390.810002L359.413643,390.556127L360.160291,390.081491L360.456600,389.960072L361.143511,389.772426L361.809387,389.684121L362.506395,389.463360L363.825452,388.690697L365.772397,386.891494L366.128444,386.483086L366.298398,385.622117L366.470934,385.268899L367.122414,384.407930L367.781491,383.734608L368.587041,383.006095L369.040733,382.520420L369.825248,381.891249L370.181323,381.725678L370.585388,381.615297L371.180548,381.515955L372.595677,381.703602L373.396287,382.023706L373.692649,382.387963L374.000825,383.017133L374.085949,383.922255L374.070916,385.003986L374.014585,385.644194L373.734378,386.714885L373.528155,386.935647L373.463376,387.299902L373.408850,388.966648L373.236445,390.412632L373.228066,390.743773L373.366983,390.865192L373.920884,390.688583L374.642277,390.236023L375.260957,389.695159L375.813963,389.065991L376.719664,388.160871L378.287790,386.449972L379.345858,385.500699L379.698552,385.224747L380.281031,384.650768L381.059648,384.010560L381.445165,383.657341L381.793600,382.939867L381.875211,382.520420L381.843186,382.200316L381.391092,381.891249L381.114101,381.615297L380.347085,380.577718L379.614559,379.275223L379.273473,377.873385L379.359204,376.559852L379.614147,375.268393L380.068584,373.778248L380.287329,372.453674L380.546529,371.603739L382.714662,367.287829L382.968834,366.636578L383.125340,365.819755L383.082353,365.201619L382.745541,364.241300L382.777495,363.832888L383.010653,363.523819L383.558652,363.214751L384.215264,363.126446L384.844107,363.159560L385.400558,363.247865L386.369525,363.623163L386.894851,363.965346L387.224038,364.373757L387.493461,364.826322L387.703119,365.323039L387.938117,366.769036L388.150315,367.409248L388.764107,368.524100L389.090828,369.517533L389.152294,369.649990L386.337815,375.478117L381.171160,387.410283L378.036220,401.031206L377.204451,406.826147L376.779759,409.828474L376.453465,412.113330L376.466272,423.945982L377.404218,434.476113L377.559047,434.089788L377.888963,433.615161L378.340099,433.107419L378.664164,432.864587L379.728984,432.257504L380.550572,431.992596L380.803107,431.893255L381.468129,431.716649L382.255249,431.716649L384.041727,432.235429L386.080827,433.140533L386.568321,433.515820L387.988526,433.626199L389.626843,434.144978L389.860901,434.288470L389.954384,434.498189L390.859426,434.840362L391.104394,434.796211L391.258430,434.685832L391.297120,434.498189L391.041086,433.880069L390.688997,432.787322L390.605544,432.180239L390.783072,431.628346L391.054897,431.131642L392.292142,429.685682L392.208605,428.592932L391.707482,422.400676L391.707265,410.556979L392.247156,406.781996L393.286619,399.485886L394.430002,394.551894L396.430776,385.864955L401.588132,373.932782L407.771737,361.095423L412.764672,352.496675L417.308311,346.160736L420.907841,345.167294L422.596477,344.549153L424.221124,343.776476L425.516618,342.959646L426.375206,342.087624L426.968615,341.083143L427.322130,340.409809L427.545990,339.493633L427.907903,338.489151L428.130965,338.213194L428.955900,337.572975L429.723612,337.241827L430.558678,337.054176L431.457716,336.778219L432.163959,336.193190L432.018281,335.486740L432.774206,335.133515L435.370316,334.515371L438.229024,333.157662L439.121351,333.268045L440.028824,333.268045L441.006155,333.069356L441.903490,332.495364L442.379090,332.120062L443.043263,331.855143L445.788324,330.475356L446.040014,330.287705L447.012232,329.073491L447.635144,328.609882L448.386015,328.212503L449.149520,327.925507L449.600708,327.539165L450.676502,326.865828L453.739767,325.475000L455.523507,324.514665L456.595908,323.366679L458.201157,321.898580L458.768504,321.313548L459.392258,320.816822L460.180163,320.298020L461.198726,319.812333L461.883938,319.448067L462.864634,319.238338L464.139952,318.851996L464.815065,318.520845L465.576037,318.090349L466.118991,317.858544L466.855562,317.659854L467.646834,317.130012L468.095491,316.600171L468.538248,315.937869L468.973439,315.452181L469.709152,314.922339L470.229368,314.491843L471.034084,313.432159L472.073660,312.240013L473.324506,310.506987L474.744553,308.674613L475.252980,308.100617L475.892730,307.581812L476.546783,306.864315L477.365810,305.605937L479.925639,303.011909L480.940820,302.051566L481.928230,301.334068L482.987197,300.715916L487.099336,298.740036L488.535426,297.978383L489.665101,297.249846L490.321688,296.675846L490.806547,296.057693L491.210591,295.340193L491.978270,293.794809L492.442880,291.300115L492.793881,289.997575L493.325033,288.893727L494.187010,287.646377L494.740064,287.260030L495.613003,286.917837L496.693026,286.686029L497.631636,286.917837L498.434718,287.260030L498.783233,287.756762L499.290004,288.098956L499.686495,288.286610L500.196624,288.253494L501.138592,287.988571L501.996377,287.635339L504.145475,286.995106L504.594991,286.796414L505.161515,286.487336L505.619444,286.078911L507.028598,285.284139L507.473062,285.041292L507.766003,284.809484L510.264410,282.204396L510.995911,280.990159L511.496743,278.407144L511.434445,277.943526L510.852761,277.755871L510.208780,277.104598L509.887209,276.519555L509.700324,275.857243L509.075694,272.987220L509.163236,271.728825L509.994927,268.030905L510.873760,267.578323L518.740760,241.880383L521.751889,240.114192L532.996008,203.774537L533.894425,200.860277L537.779536,188.309050L538.317605,186.575938L538.939884,184.566852L546.165899,161.219382L544.006377,158.040136L542.196965,155.412838L541.379796,154.176462L541.115472,154.253736L545.236240,141.084085L548.076310,146.493254L549.748402,149.661477L552.642143,140.300307L552.937752,139.361980L558.869580,120.197960L559.919888,116.786837L564.198726,103.009829L564.608932,101.696152L567.051716,93.692642L567.305271,92.831573L539.960054,87.168383L532.229892,85.556635L564.769850,62.097849L530.778983,65.012270L529.096117,65.884388L522.288881,69.439092L520.387134,70.421603L527.483281,37.258894L530.864507,21.483270L533.017511,9.427933L531.080454,12.618408L518.933156,36.817311L522.484388,36.861469L514.910163,48.993951L511.118899,55.043611L510.215627,55.363756L507.042857,56.324194L506.634042,58.300264L505.601455,63.411546L505.327527,64.703165L505.280857,66.038940L505.122602,66.072058L504.192370,66.480518L503.365657,66.944176L500.435805,69.141027L499.206596,70.134577L498.368922,70.664471L497.436138,71.172285L496.789602,71.470350L495.785331,71.757375L494.560576,71.856730L492.856050,71.889849L487.220556,72.121677L486.153172,72.342465L485.445192,72.629491L484.899654,72.960674L484.088055,73.556803L482.682820,74.914653L482.093473,75.389348L481.500790,75.753649L480.237195,76.283541L478.906301,76.669920L477.492108,76.934866L476.013134,77.078379L472.349858,77.188773L471.848197,77.133576L470.591542,76.912787L469.479698,76.581605L466.573523,75.334151L462.073532,72.574294L461.273983,72.221032L460.337180,72.044401L459.350677,72.000243L458.420544,72.044401L457.625894,72.221032L456.743655,72.563254L455.820124,73.071068L455.021147,73.656158L453.465235,74.991928L452.739515,75.488702L451.793245,76.040674L449.907513,76.879669L443.543253,79.407694L439.784383,81.196077L432.154715,84.684524L430.241171,85.644950L426.225361,88.184005L424.874174,88.879485L417.911265,92.003622L417.215943,92.158173L410.678118,92.191291L409.408727,92.345842L408.599742,92.599747L407.690541,93.030282L402.698093,96.342083L401.976595,96.794695L401.232424,97.048600L400.079998,97.335622L399.127053,97.666802L398.058678,98.406436L397.277371,99.024638L395.572599,99.907783L392.900649,100.835086L389.541948,101.342894L387.800236,101.861741L386.988665,102.336431L383.875282,104.588448L385.959919,99.731154L390.641950,84.000082L381.980919,85.225453L369.470229,90.568507L360.908910,84.794917L382.285367,74.947771L388.033378,70.222893L391.120170,67.087689L400.519514,57.560618L415.870588,38.760278L415.991850,38.605724L397.952934,31.153994L395.423924,30.127309L396.545017,28.062899L402.154726,17.818101L376.159366,32.390430L365.543002,43.021554L332.491011,42.557892L328.607304,42.480615L315.026084,42.292942L291.319777,41.939676L287.614510,41.884478L300.595561,1.015657L258.321596,0.099358L253.188804,0.110398L253.194746,0.000000L247.407945,0.000000Z " data-aland="36191920" data-awater="5388696" data-classfp="C1" data-funcstat="A" data-geoid="4872530" data-intptlat="+33.0896091" data-intptlon="-096.9033280" data-lsad="25" data-mtfcc="G4110" data-name="The Colony" data-namelsad="The Colony city" data-pcicbsa="N" data-pcinecta="N" data-placefp="72530" data-placens="02412058" data-statefp="48"/></g><g fill="#000" font-family="Arial" font-size="12px" id="mylayer-label" stroke="none"><text text-anchor="middle" y="486.133467861"><tspan dy="0" x="513.538142501"><![CDATA[The Colony]]></tspan></text></g></svg>