<?xml version="1.0" encoding="utf-8"?><!DOCTYPE svg  PUBLIC '-//W3C//DTD SVG 1.1//EN'  'http://www.w3.org/Graphics/SVG/1.1/DTD/svg11.dtd'><svg enable_background="new 0 0 1000 1001" height="1001px" pretty_print="False" style="stroke-linejoin: round; stroke:#000; fill: none;" version="1.1" viewBox="0 0 1000 1001" width="1000px" xmlns="http://www.w3.org/2000/svg" xmlns:xlink="http://www.w3.org/1999/xlink"><defs><style type="text/css"><![CDATA[path { fill-rule: evenodd; }]]></style></defs><metadata><views><view h="1001" padding="0" w="1000"><proj flip="auto" id="robinson" lon0="-102.922173817"/><bbox h="0.28" w="0.26" x="-1456.03" y="-529.56"/></view></views></metadata><g class="" id="mylayer"><path d="M857.672775,0.000000L840.625138,5.451784L789.518983,21.685983L772.438410,27.077190L758.375265,31.317465L716.208042,43.795985L702.111963,47.975683L694.607480,50.216970L672.064940,56.698530L664.527528,58.879241L651.252410,63.058938L645.276536,64.997348L587.439305,83.291089L568.155373,89.348617L548.692258,94.982118L490.306727,111.700892L470.829052,117.213241L434.047126,128.177360L323.653798,160.887979L286.838893,171.791515L275.466072,175.789477L278.014907,208.984669L279.162358,224.310179L281.832476,345.884330L282.836104,391.618431L274.177933,447.044476L266.897101,449.225172L93.599016,499.684022L35.810969,516.463246L36.161665,534.756833L37.269455,589.455835L37.638908,607.688824L38.887111,680.196694L45.196492,709.635952L45.352865,711.150317L44.476504,725.203619L46.191025,730.715905L276.162378,759.004220L275.869204,772.996935L275.709974,779.781281L275.517818,786.505051L275.726462,801.042931L274.691795,840.658631L271.506174,959.444988L270.440320,999.000000L286.358075,994.396355L334.199378,980.464270L350.084179,975.800050L408.182943,958.839245L427.407498,953.145259L458.407374,943.816813L545.896242,918.436162L611.631608,898.628344L629.521373,893.782393L659.307435,885.241404L676.981164,880.092580L699.684792,873.247672L716.265753,868.825741L724.286376,867.250806L726.765204,865.675871L730.083409,864.040362L736.422098,861.920257L743.698992,859.921301L765.617722,853.803284L772.861671,851.743753L789.905055,846.473778L800.063679,843.263332L840.969306,830.542698L857.979737,825.212146L859.834595,824.848699L865.212285,823.697784L867.034199,823.273763L886.408813,817.761487L944.569371,801.103505L963.911027,795.530652L964.083905,789.715500L964.189031,786.323328L964.104040,772.391190L964.020393,766.576036L963.888640,736.894510L963.654267,683.528298L963.513252,647.789262L963.400872,618.047097L963.004499,517.856466L962.244674,335.828880L961.784958,217.101738L961.381396,125.088023L961.730042,116.668063L956.978789,118.121869L942.706648,122.543862L937.922466,123.937093L922.143930,128.419661L874.709519,141.685637L858.865114,146.047053L858.798856,130.539794L858.600493,84.017992L858.534508,68.510716L858.378902,54.820695L857.861094,13.750610L857.672775,0.000000Z "/></g><g fill="#000" font-family="Arial" font-size="12px" id="mylayer-label" stroke="none"><text text-anchor="middle" y="503.023408062"><tspan dy="0" x="566.250488328"><![CDATA[N]]></tspan></text></g></svg>