<?xml version="1.0" encoding="utf-8"?><!DOCTYPE svg  PUBLIC '-//W3C//DTD SVG 1.1//EN'  'http://www.w3.org/Graphics/SVG/1.1/DTD/svg11.dtd'><svg enable_background="new 0 0 1000 1001" height="1001px" pretty_print="False" style="stroke-linejoin: round; stroke:#000; fill: none;" version="1.1" viewBox="0 0 1000 1001" width="1000px" xmlns="http://www.w3.org/2000/svg" xmlns:xlink="http://www.w3.org/1999/xlink"><defs><style type="text/css"><![CDATA[path { fill-rule: evenodd; }]]></style></defs><metadata><views><view h="1001" padding="0" w="1000"><proj flip="auto" id="robinson" lon0="-105.841255049"/><bbox h="1.66" w="1.38" x="-1499.5" y="-525.38"/></view></views></metadata><g class="" id="mylayer"><path d="M345.525716,0.000000L343.137547,1.925505L343.013075,2.025792L336.404301,11.763629L336.145303,12.134689L330.251833,18.643292L329.077439,21.872520L325.751513,26.977107L318.703929,35.160489L312.274095,40.485702L309.323185,41.809484L306.664501,42.571661L304.314282,43.243580L301.450750,45.690570L298.949815,48.478533L295.238959,50.253603L294.679238,50.524376L294.550132,50.584548L293.073530,51.677670L292.539324,52.058758L291.187191,53.051594L285.389086,59.058749L284.854895,59.770782L280.172437,65.938393L275.852499,69.909731L270.548370,73.128921L267.169283,76.227768L264.578869,80.740649L263.843043,83.348092L263.248668,85.413988L259.283146,92.373850L259.071366,93.005653L256.543183,100.406772L252.007741,104.719075L250.471030,107.055741L244.154967,116.592946L242.309032,118.829325L239.557740,120.774873L236.197287,123.151652L229.787519,130.261928L225.151232,136.529800L216.753940,144.101386L216.158739,144.763272L210.311094,151.181568L206.930234,155.804744L206.373278,158.412175L206.077423,159.786091L199.989341,165.632752L195.805155,169.634153L192.672047,171.659925L188.442925,175.089697L187.676146,175.922068L186.644615,178.800267L184.720937,181.869009L179.695739,186.281578L177.474946,188.217091L174.385697,192.529373L173.097146,193.702715L169.451801,197.032196L165.735759,198.907537L163.633840,199.960535L157.535585,204.322957L153.824717,205.215498L147.828365,208.916034L144.493340,210.189660L142.726168,211.122316L134.954010,215.203935L134.353358,215.524849L133.476025,216.246904L131.279207,218.021957L129.154284,219.756896L127.715766,220.920207L127.217966,221.321349L119.736132,223.908713L119.416076,224.008999L116.548901,225.613566L108.328016,231.289720L103.375245,236.875616L100.545450,239.352664L97.589425,241.107658L90.175402,245.490127L89.718539,245.730812L89.283337,246.011611L88.894512,246.252295L86.410805,247.716461L85.586015,248.268030L85.697137,259.971321L84.518653,268.766335L84.829888,270.019900L85.683371,272.025603L93.416338,282.344945L96.738931,289.394987L102.326618,299.363322L103.404975,302.682756L104.477295,336.318318L109.342112,371.979571L110.770443,382.479370L115.868746,428.058663L117.532448,439.731759L119.303410,447.243052L122.261990,453.410533L125.460745,457.913294L131.931783,463.529209L137.218106,466.638018L143.747033,468.693843L149.362025,469.656571L156.331311,470.087793L163.588312,469.556287L270.920807,455.556615L280.405750,454.473545L285.813461,454.313091L296.117030,456.098150L301.129560,457.913294L328.721332,471.652225L332.758558,474.951573L335.158508,477.739472L337.771906,481.520182L340.204623,486.524358L345.124288,500.173014L359.651469,536.265192L364.421599,548.108708L375.671895,576.057774L387.044645,603.475301L392.855441,615.840252L396.952098,621.606549L404.937162,629.167918L414.689458,639.697670L414.932550,639.958406L418.768072,646.326397L420.897485,654.399201L421.799769,667.075002L422.445774,696.006687L423.476740,713.776841L425.061185,721.799479L425.114109,722.070243L426.221001,725.389608L437.985727,755.213735L448.645822,784.014940L451.527762,790.613540L476.217715,855.907487L484.195172,878.972423L490.593409,895.017584L498.993913,913.188715L512.030812,935.270833L527.954038,962.256720L550.082327,999.000000L550.773543,998.909746L551.467834,998.809465L552.486106,998.679098L559.695085,997.696336L562.093431,997.365407L572.917954,996.021630L576.663187,995.099037L606.730902,987.678182L620.983246,980.066788L623.123361,978.913547L631.318953,975.684470L635.647811,975.493934L637.393604,974.822045L639.606159,973.959621L642.628628,972.786323L644.368989,972.104406L645.261158,972.385195L646.479071,972.325026L648.042885,972.385195L651.202318,973.428127L652.750755,973.538437L653.728782,974.260467L654.607410,974.751848L655.192941,974.812017L657.227509,974.751848L657.736874,975.032637L658.206132,975.804808L658.981439,976.466668L659.679394,976.687289L660.591261,976.737430L662.241188,976.516809L663.159331,976.185879L663.957534,976.246048L665.579233,978.392081L666.038553,979.224420L666.379025,979.334730L667.255228,979.334730L668.531698,978.723011L669.382182,978.612701L669.908167,978.672870L670.333906,978.893490L670.761480,979.274561L671.035290,980.157042L670.932566,980.658451L669.907025,982.754342L669.909859,983.466344L670.662058,985.451925L671.589668,986.504884L672.858391,987.166744L674.644195,987.668153L675.215993,987.828604L677.813828,988.761226L679.888868,989.262635L680.637271,989.152325L681.563513,988.600775L682.090737,988.490465L682.840978,988.540606L684.039813,989.042015L684.952691,989.643706L685.539437,990.365735L686.758363,990.857116L687.436870,990.586355L688.305805,990.415876L691.332433,989.423086L693.388649,988.931705L694.306785,988.600775L695.226760,988.430296L696.315638,988.430296L696.918390,988.600775L697.445613,988.490465L698.235944,988.049225L699.078552,987.437505L700.256950,986.063644L700.426081,985.512094L700.775294,984.900374L701.368331,984.408993L702.601854,983.576654L704.376740,982.754342L705.747177,982.363243L709.114680,981.701383L711.538928,981.591073L713.273720,981.260143L715.593043,980.437831L718.630014,979.605492L719.674114,979.224420L720.449071,978.833321L723.541748,976.737430L724.323574,976.296189L724.866173,976.135738L725.471995,976.296189L726.112011,977.399290L726.215096,977.950840L726.615117,978.061151L730.433678,977.509600L732.335763,976.466668L733.866223,975.193088L736.857418,973.428127L738.522353,972.104406L740.434386,971.001305L741.324964,970.399613L742.676348,969.737753L744.555553,969.296512L746.819400,969.015723L748.058957,968.524341L748.374348,968.022932L748.592691,967.310930L748.823215,966.919830L750.275088,965.375489L751.013143,965.104727L751.642446,964.994417L752.194393,964.442867L754.816235,960.692322L757.247638,958.977500L757.885000,959.478910L761.614614,958.496147L770.534484,954.264248L777.469775,953.812979L784.917682,952.439116L788.924685,952.188411L792.665479,950.974999L798.109368,948.147046L808.918201,945.910757L818.417399,945.198755L827.770650,942.882240L841.710155,934.709254L842.463391,934.278041L844.479674,933.084685L844.685078,932.914205L845.376935,932.322541L846.062641,931.750933L846.505513,931.610538L849.049801,930.748112L850.054966,930.216617L851.230069,929.574812L855.159514,927.468888L859.840100,925.493331L860.330021,925.282739L869.280090,919.315953L882.580736,913.670069L884.984380,911.102846L889.082281,906.700459L890.110425,906.038597L892.699700,904.363885L893.236692,898.758110L894.839483,881.940779L895.371260,876.324971L896.391368,865.374142L898.374283,843.993937L899.445143,832.491540L900.009085,826.384336L900.460645,821.530663L901.256677,812.976562L903.646254,787.284156L904.437360,778.720014L906.240167,759.405556L906.797990,753.348475L911.629989,701.452057L912.276069,694.472356L913.421424,682.127505L914.414678,671.497491L915.244900,660.817329L915.481347,657.748662L915.422053,647.860731L914.804654,640.399653L914.157921,634.723616L913.143570,629.358456L912.387717,625.367177L908.540455,612.029481L905.037095,603.996775L902.969889,599.263393L898.492192,591.661901L896.383062,588.643366L892.468503,583.057570L888.466806,578.945942L878.761487,568.566586L868.595153,558.498103L868.354407,558.257423L854.230491,544.267840L840.477830,530.649298L825.480233,515.797255L809.456858,499.912276L781.451149,472.183731L780.892362,471.622140L772.834259,463.639521L766.552436,457.431930L752.384053,443.432249L741.724810,432.902397L713.138727,404.642252L709.732461,401.282722L699.071979,390.732790L691.692537,383.452131L669.564253,361.580050L662.191506,354.279323L657.724192,349.947022L655.277779,347.560244L644.323283,336.920027L639.853823,332.567665L638.976494,331.715244L636.344518,329.157980L635.461778,328.295530L634.374782,327.212453L631.105307,323.963223L630.012904,322.870118L626.093598,318.969034L618.172316,311.076609L614.335905,307.265780L610.411331,303.354665L603.838770,296.856196L584.107788,277.350745L577.530227,270.842238L569.669468,263.060106L565.860594,259.299410L530.834330,224.650826L519.160597,213.097940L511.499723,205.526384L508.396741,202.457646L476.116120,170.506639L465.351058,159.846262L453.377579,148.002506L449.357109,144.021157L440.384465,135.135825L404.235135,98.481278L401.858993,95.954067L390.991413,84.391068L386.807524,79.065869L380.383747,70.882508L376.550204,65.055873L371.306459,57.073079L364.719046,45.118937L358.874876,32.272237L352.517755,16.898305L345.525716,0.000000Z "/></g><g fill="#000" font-family="Arial" font-size="12px" id="mylayer-label" stroke="none"><text text-anchor="middle" y="528.417811941"><tspan dy="0" x="532.101314841"><![CDATA[N]]></tspan></text></g></svg>