<?xml version="1.0" encoding="utf-8"?><!DOCTYPE svg  PUBLIC '-//W3C//DTD SVG 1.1//EN'  'http://www.w3.org/Graphics/SVG/1.1/DTD/svg11.dtd'><svg enable_background="new 0 0 1000 1001" height="1001px" pretty_print="False" style="stroke-linejoin: round; stroke:#000; fill: none;" version="1.1" viewBox="0 0 1000 1001" width="1000px" xmlns="http://www.w3.org/2000/svg" xmlns:xlink="http://www.w3.org/1999/xlink"><defs><style type="text/css"><![CDATA[path { fill-rule: evenodd; }]]></style></defs><metadata><views><view h="1001" padding="0" w="1000"><proj flip="auto" id="robinson" lon0="-95.9036873429"/><bbox h="1.5" w="1.15" x="-1365.28" y="-498.58"/></view></views></metadata><g class="" id="mylayer"><path d="M685.952134,0.000000L665.171820,80.962897L665.131992,81.119175L664.248234,84.624284L663.756906,86.254048L663.593896,87.080094L662.884267,87.068931L658.376711,87.124745L553.732761,87.928465L550.886676,87.950790L517.580909,218.489898L515.565232,226.404506L512.160598,229.664122L508.354345,233.269796L450.961035,233.582363L449.020184,233.593526L442.626731,233.705156L437.574514,233.548873L436.146666,233.560036L431.068031,233.693993L429.972684,233.705156L426.584985,233.727483L423.190629,233.738646L420.461276,233.749809L418.330425,233.760972L399.874439,305.941945L391.729146,338.125641L390.726448,342.512819L390.261082,343.930559L363.666822,343.941723L369.857325,318.802004L371.576057,311.155177L366.215159,311.277973L350.063775,311.244483L334.550696,311.054708L304.857733,311.110524L223.046522,311.277973L214.683467,311.289136L210.687119,325.678576L206.153100,341.061589L199.986095,365.062750L192.145482,392.133955L187.411133,408.309763L183.540787,420.009067L182.074745,425.546151L181.459035,426.584355L180.880444,427.700703L179.798199,429.788275L175.960979,436.542191L172.781216,443.251461L168.875741,452.215774L165.118544,460.074909L161.112499,470.032808L157.969610,478.316186L154.565544,487.626629L154.620031,490.026806L151.549899,494.626217L148.393900,504.829780L147.522816,507.955601L149.240169,507.553710L195.820333,507.375092L195.420527,508.536111L191.365128,519.699777L189.219248,526.755225L184.853952,540.296800L184.644517,540.821495L184.518622,541.279207L184.049751,542.674672L182.770033,546.436849L181.090248,551.025145L178.842411,557.511283L177.390363,561.764675L175.966490,565.683158L175.458441,566.821862L174.910418,567.893585L173.682232,569.958884L171.688380,573.017761L171.093371,573.676424L169.728361,575.719398L169.331021,576.422717L168.064255,577.929830L165.955074,580.620305L161.234411,586.258029L158.757554,588.937345L158.184396,589.584847L223.413579,597.488838L203.350236,659.906217L215.463721,682.792398L186.210537,706.460160L200.296549,718.595510L216.716188,732.729265L290.630646,734.549016L310.701088,656.065814L339.161430,656.534700L331.260863,686.510016L331.743733,687.414302L332.133292,688.162292L334.797667,692.036210L336.680819,694.983515L338.028936,697.830346L390.235559,697.841510L381.828761,730.529934L380.520437,735.419818L377.644611,747.343114L367.076222,747.354278L341.933378,747.175652L337.513543,747.331950L331.384835,747.108667L330.841263,747.041682L328.385997,751.808775L323.850512,759.043153L319.525123,762.905958L316.703002,764.815033L314.198201,767.382796L308.098472,772.283877L305.629913,774.259941L302.719460,776.180184L301.859443,776.760723L295.599808,776.716066L294.806871,780.400256L292.773606,781.784619L288.771863,785.346006L282.320896,789.086023L271.974098,796.007852L260.596386,841.837283L257.477471,854.799099L260.942102,855.636427L260.729908,856.060673L259.791473,858.784781L258.777490,859.934712L258.211563,860.180328L256.190705,860.280807L255.991169,860.280807L242.100326,917.342254L202.672754,919.943582L212.022652,868.196359L214.251825,865.740192L216.507219,854.832593L209.613497,854.665127L202.321541,855.055880L199.787261,855.569441L182.214982,857.567864L181.650393,859.979369L180.990633,862.915602L168.877035,914.841407L129.030070,916.024843L115.226595,916.538410L117.056059,917.978630L118.981298,920.501807L120.109694,922.645393L123.066407,926.084062L123.489740,926.999552L124.370050,928.473269L125.946657,929.824176L126.356543,931.242071L126.967040,933.329837L127.852976,941.859545L129.415211,950.757697L130.427955,953.582333L156.449574,954.497828L152.401347,970.418533L130.204971,970.005443L128.896902,975.386785L128.763795,975.911522L128.496156,978.390068L133.863414,978.133281L143.110956,977.675532L192.678290,976.045497L192.830489,973.310167L227.893351,974.169842L222.884427,993.506988L230.205852,993.562811L233.276213,993.707951L235.734412,993.719116L240.688436,993.518152L270.054230,993.350683L299.043972,993.317189L308.527017,993.317189L311.101958,994.891405L311.151679,995.070039L313.176766,999.000000L313.298504,998.519919L315.202152,990.001288L316.904010,982.878248L317.246223,981.304035L318.906701,974.381970L319.307387,972.539809L321.883835,961.631995L322.643554,958.561734L322.947812,956.987528L323.177065,955.446817L323.807859,953.671649L326.223912,943.846835L327.645582,938.242233L332.710205,919.251383L339.034744,895.783652L345.956853,870.563211L354.999099,872.036912L373.998885,879.952481L374.887492,864.355808L374.677999,859.789575L382.970225,823.784571L392.250617,823.271013L440.362791,818.794129L476.698814,816.952021L486.458828,764.279152L492.418803,732.572967L504.210902,678.583566L510.645613,660.732351L517.136616,642.736063L489.630031,642.066227L504.592917,565.013331L471.218030,564.109066L484.207850,500.531778L493.929571,452.963731L494.177145,451.579452L499.818111,451.065930L505.850458,450.507753L534.878869,447.839669L559.848963,445.551146L561.367967,445.406021L563.783739,445.171587L567.200787,444.847845L623.217653,439.500520L649.600839,436.698480L736.193088,428.426330L736.419941,430.112016L756.499366,428.225387L768.765307,427.064384L766.981565,425.635459L764.902975,423.871629L763.286856,421.895694L761.622687,419.361586L760.385943,416.715844L759.602727,414.416171L758.863960,410.933174L758.127178,407.517159L758.066258,404.469539L758.015727,401.343778L758.082824,398.017076L758.102609,396.856080L758.338964,394.656887L758.943773,392.279079L759.272837,390.649222L760.118645,388.930057L761.079866,387.690919L762.277058,386.831337L763.785592,385.681507L765.554986,385.112174L767.276107,384.732618L801.867989,383.571625L807.773992,356.656750L797.058666,356.801873L790.759047,356.880016L791.429962,353.944059L802.040060,307.203391L832.887309,307.203391L836.798781,289.219449L851.279898,230.646473L868.210805,162.920525L868.624891,161.257248L879.709132,116.918274L884.603741,97.070786L884.773405,96.367530L863.619455,96.211251L847.928785,96.088460L839.434145,96.021484L825.840059,95.909856L827.328722,90.551718L831.014013,76.274539L850.128182,1.350674L815.710703,0.982308L813.173396,0.948820L792.882559,0.725569L783.769732,0.625105L773.516095,0.714406L770.155145,0.558130L766.781850,0.413016L762.145133,0.267902L738.748996,0.189764L685.952134,0.000000Z M273.687793,523.629392L277.713187,507.464401L300.141535,507.363928L302.727486,507.207637L306.276725,506.962036L320.335523,505.588908L320.941492,505.410289L322.954717,494.916471L328.076272,495.586289L330.682963,495.273707L332.415697,495.072762L350.632417,495.095089L350.685137,499.370760L350.724483,500.710396L344.600756,524.455505L343.444496,524.444341L305.687831,523.997794L273.687793,523.629392Z M624.149669,434.677886L635.434036,390.202685L686.502567,387.947677L680.184682,412.038355L712.642683,411.536000L721.731721,411.435529L722.950625,411.424365L728.181582,411.402038L729.644004,411.703452L731.020265,412.306278L732.043261,413.065393L732.965684,413.958470L733.685104,415.164123L734.394373,416.671190L734.923796,418.848066L735.289763,421.929184L735.647656,424.519110L721.342914,425.702439L650.241815,431.563270L624.149669,434.677886Z M399.181981,434.767194L421.380944,345.884139L515.935806,345.817159L496.881557,435.269552L508.563332,435.135590L506.639601,446.209794L500.291881,446.812625L494.793427,447.326147L466.122958,449.782123L463.880046,449.971903L461.090902,450.217501L448.035290,451.345018L447.558402,451.389672L451.728647,434.733704L442.684209,434.845339L438.672252,452.148792L437.749817,452.226937L435.187703,452.439044L437.823784,441.029922L442.764435,420.824000L424.227715,420.567240L421.416114,431.619088L401.254657,434.387635L399.181981,434.767194Z "/></g><g fill="#000" font-family="Arial" font-size="12px" id="mylayer-label" stroke="none"><text text-anchor="middle" y="432.513132873"><tspan dy="0" x="484.308392349"><![CDATA[N]]></tspan></text></g></svg>