<?xml version="1.0" encoding="utf-8"?><!DOCTYPE svg  PUBLIC '-//W3C//DTD SVG 1.1//EN'  'http://www.w3.org/Graphics/SVG/1.1/DTD/svg11.dtd'><svg enable_background="new 0 0 1000 1001" height="1001px" pretty_print="False" style="stroke-linejoin: round; stroke:#000; fill: none;" version="1.1" viewBox="0 0 1000 1001" width="1000px" xmlns="http://www.w3.org/2000/svg" xmlns:xlink="http://www.w3.org/1999/xlink"><defs><style type="text/css"><![CDATA[path { fill-rule: evenodd; }]]></style></defs><metadata><views><view h="1001" padding="0" w="1000"><proj flip="auto" id="robinson" lon0="-95.5048221924"/><bbox h="0.55" w="0.56" x="-1348.99" y="-537.71"/></view></views></metadata><g class="" id="mylayer"><path d="M1000.000000,394.027116L747.432291,393.038925L768.789463,321.320033L818.072779,320.990635L889.454571,96.219131L894.254147,81.575617L902.820791,48.934600L904.668393,42.256657L916.747382,10.424089L883.859688,9.705385L830.185457,8.507544L826.591832,16.503127L814.677109,42.406387L812.513178,47.107898L810.961713,47.048006L806.277689,27.822708L804.346295,19.946916L782.043247,23.151136L778.480854,23.660217L773.339967,24.378921L774.223324,20.785403L777.961405,10.004845L715.422786,12.789823L712.042247,25.666598L709.872947,33.811900L705.923198,48.665086L736.096824,50.461842L766.073826,50.042599L769.338347,49.952761L768.178447,53.276758L757.548797,101.160190L754.715703,111.611274L741.537438,155.960913L724.453234,219.236014L714.372067,243.611674L627.163046,243.581728L589.985649,243.521837L581.801810,271.940089L567.513870,321.469760L508.670774,322.398065L419.031421,323.775551L395.725135,403.220282L393.596589,410.437063L386.857373,410.467009L379.916297,410.407118L375.775231,410.377173L341.086534,410.107667L218.508431,409.089532L155.600001,408.580464L125.215159,518.149328L96.677699,619.033375L89.163891,647.420919L88.343351,650.535161L76.473612,693.266083L72.971516,705.872728L123.352132,719.497475L147.654245,726.055315L171.644703,732.553264L201.395176,740.578376L255.481492,755.221199L233.886778,827.536758L195.416166,856.672488L194.630098,856.941986L153.163286,857.181539L153.016261,857.780423L145.720188,887.005923L145.246306,888.652850L65.034304,918.806552L54.541324,922.998720L38.735005,925.693685L24.276047,932.940142L8.258542,949.648903L0.000000,965.159884L42.564007,966.297755L125.518647,963.902238L121.894981,977.377017L118.349470,990.492456L240.972411,988.306550L252.673421,988.007111L268.499638,987.617840L306.038378,987.048905L309.173364,974.831782L317.976743,944.318870L338.371704,944.408702L368.212277,944.738086L389.543262,873.321449L486.844503,873.740668L491.510074,859.547130L492.233754,857.031818L517.801321,858.139753L522.643604,858.019977L536.089823,860.625121L540.472773,863.948925L566.286991,863.320097L630.909477,861.313837L657.231369,861.822888L685.825276,861.822888L687.371024,858.648805L695.976034,830.321574L704.443018,802.563228L741.379565,802.413506L885.942273,801.006124L908.679503,720.305976L922.883308,668.831318L949.257072,576.302227L1000.000000,394.027116Z "/></g><g fill="#000" font-family="Arial" font-size="12px" id="mylayer-label" stroke="none"><text text-anchor="middle" y="568.413351008"><tspan dy="0" x="540.293478449"><![CDATA[N]]></tspan></text></g></svg>