<?xml version="1.0" encoding="utf-8"?><!DOCTYPE svg  PUBLIC '-//W3C//DTD SVG 1.1//EN'  'http://www.w3.org/Graphics/SVG/1.1/DTD/svg11.dtd'><svg enable_background="new 0 0 1000 1001" height="1001px" pretty_print="False" style="stroke-linejoin: round; stroke:#000; fill: none;" version="1.1" viewBox="0 0 1000 1001" width="1000px" xmlns="http://www.w3.org/2000/svg" xmlns:xlink="http://www.w3.org/1999/xlink"><defs><style type="text/css"><![CDATA[path { fill-rule: evenodd; }]]></style></defs><metadata><views><view h="1001" padding="0" w="1000"><proj flip="auto" id="robinson" lon0="-85.0613020925"/><bbox h="0.24" w="0.37" x="-1130.04" y="-751.9"/></view></views></metadata><g class="" id="mylayer"><path d="M1000.000000,179.578849L960.994038,179.403614L947.949627,179.447423L633.498712,181.594055L574.559749,181.418819L514.454535,181.725481L448.945576,182.032143L404.835687,182.514039L359.279653,182.514039L312.218257,182.864510L267.268836,183.127362L233.312973,262.858913L219.910726,295.145552L200.274204,342.020052L166.566669,419.603231L149.787446,459.336350L132.266352,500.339641L113.194646,545.854765L104.870105,565.392447L91.032037,598.816650L79.372026,627.597259L71.108283,648.799337L29.748440,747.580901L11.618375,791.605053L0.000000,819.596386L121.168309,810.923027L128.911111,814.515026L135.395720,816.223414L141.887207,816.880487L220.954691,815.566342L233.766741,815.653952L239.493052,815.653952L248.637542,815.610147L251.965961,815.610147L289.248953,814.339806L305.337735,814.120782L339.150848,812.587612L359.082215,810.353564L369.479327,810.309759L733.667517,816.617658L761.912029,754.677350L776.004586,720.027336L797.411257,675.082815L795.532064,672.366860L795.618981,670.001350L797.281745,664.700853L803.051713,652.435224L809.891980,635.175695L835.885385,572.883337L851.992035,534.070801L866.488323,498.017880L885.994904,451.013003L905.643183,404.270655L925.433722,357.703226L933.376149,338.909698L935.137334,335.010801L973.858813,242.137560L1000.000000,179.578849Z "/></g><g fill="#000" font-family="Arial" font-size="12px" id="mylayer-label" stroke="none"><text text-anchor="middle" y="491.984203909"><tspan dy="0" x="500.987701192"><![CDATA[N]]></tspan></text></g></svg>