<?xml version="1.0" encoding="utf-8"?><!DOCTYPE svg  PUBLIC '-//W3C//DTD SVG 1.1//EN'  'http://www.w3.org/Graphics/SVG/1.1/DTD/svg11.dtd'><svg enable_background="new 0 0 1000 1001" height="1001px" pretty_print="False" style="stroke-linejoin: round; stroke:#000; fill: none;" version="1.1" viewBox="0 0 1000 1001" width="1000px" xmlns="http://www.w3.org/2000/svg" xmlns:xlink="http://www.w3.org/1999/xlink"><defs><style type="text/css"><![CDATA[path { fill-rule: evenodd; }]]></style></defs><metadata><views><view h="1001" padding="0" w="1000"><proj flip="auto" id="robinson" lon0="-82.8787692547"/><bbox h="0.64" w="0.77" x="-1116.12" y="-714.75"/></view></views></metadata><g class="" id="mylayer"><path d="M1000.000000,253.191634L958.858750,251.335672L944.134242,250.766230L927.069434,250.049154L925.055579,254.836691L907.447310,295.014223L898.076591,315.978379L897.322306,317.201642L896.635884,318.024182L895.815342,318.741268L876.546343,365.056791L856.511137,362.926605L848.226276,380.685216L840.226162,398.612621L831.232407,418.607028L826.741641,418.543754L820.104115,418.375025L806.533842,418.121931L779.718934,417.362648L774.429000,417.193918L783.704817,395.976233L782.614466,392.243112L777.220685,382.140497L770.843512,371.911357L763.778887,357.632779L756.986766,342.426246L753.032630,333.441548L750.531791,327.704848L745.743798,318.298362L744.655983,316.906372L743.917852,316.147105L742.981325,315.493292L741.439310,314.776207L731.186509,290.353191L725.257466,283.709645L741.825460,263.188529L758.179589,243.490025L773.432852,225.141383L787.733409,208.121497L789.811515,205.696116L795.995624,198.504339L780.591336,197.702910L694.623092,193.210692L661.220044,191.439114L627.842710,189.646447L587.424793,185.702581L581.266334,192.240542L579.174201,194.476105L560.153120,167.628326L547.354337,149.554139L530.944988,126.713691L523.560053,116.970152L521.916450,113.448142L521.426464,111.824222L521.136252,109.820685L521.098532,108.745102L521.214902,107.542981L522.922654,101.426928L529.230597,80.927663L493.080094,82.361766L474.212813,82.910099L468.951116,83.120996L441.380385,84.091125L413.633510,85.019074L405.956865,85.229971L398.770292,102.038533L375.708375,154.489208L373.333773,159.888264L372.065793,162.840875L361.104917,162.946325L308.359144,164.211730L298.698270,185.955663L279.973063,228.178395L272.487728,228.030762L268.137318,237.711250L257.386933,261.859826L248.922351,280.883505L241.060126,297.903644L225.224331,333.315003L216.083857,353.857505L213.514648,359.488781L191.408904,361.028420L166.464728,391.589288L187.289923,395.111499L178.554197,416.687730L170.007951,435.880744L164.777299,447.923871L161.010079,455.516752L157.227117,464.143122L156.332309,465.999164L155.579021,467.264648L154.392769,468.698864L155.252854,470.407268L165.661064,471.187651L159.122963,482.766854L148.092214,503.900553L145.242039,509.806194L141.805283,517.314805L125.200417,555.216596L102.502014,607.165945L98.317273,615.476206L95.005456,621.128879L91.083216,627.182308L75.043610,662.954646L71.670489,670.210389L68.123372,677.824712L74.449910,682.950150L84.646928,685.270308L55.365588,713.892723L78.873651,719.756437L72.488250,729.184798L85.260387,732.222126L98.120192,734.943068L88.237507,757.005953L80.124158,775.588635L72.100902,793.939368L70.609556,797.335316L47.261375,850.573973L40.104056,866.963331L22.994874,857.682350L10.913957,875.484976L0.000000,893.393136L3.975806,896.367289L5.885677,897.400861L8.033676,898.181313L12.288904,899.531284L16.680802,900.438296L24.928065,901.514055L23.595669,904.635867L18.776229,916.574706L127.861057,917.650469L153.050868,917.734842L213.727162,918.072337L219.777017,910.816216L244.581430,880.230948L260.634861,860.846319L277.794907,840.322744L287.046666,829.502025L318.786247,791.682435L328.017266,780.418879L332.059608,775.588635L337.296246,783.709353L344.785148,791.302764L351.004957,797.609523L362.252376,813.661212L384.019233,839.289185L395.380428,851.164580L409.686838,853.948869L421.182177,852.198142L438.539642,841.778164L457.145741,830.936349L471.789350,819.208654L482.092229,807.480989L491.553268,797.925916L503.256340,790.986372L511.520257,790.121566L516.804402,792.294127L521.309063,799.233673L522.039073,805.751372L521.713853,813.998699L524.175013,817.900892L532.243040,816.593129L537.328199,811.826128L541.537350,800.963288L543.010068,795.626796L547.238988,794.740896L578.128497,788.244306L578.269295,789.868453L582.696214,790.459051L584.581349,787.716985L596.421154,769.809224L608.583133,751.838251L616.156518,740.785715L627.980597,766.687501L632.788192,775.736285L643.219740,752.112456L644.249206,746.248702L645.554376,743.738680L657.902351,715.305919L671.304849,685.101569L685.055786,653.863891L699.458717,621.171063L716.798169,629.945374L717.338826,628.595479L723.428675,631.442915L731.481671,621.276523L733.223863,624.503612L736.190060,627.688519L749.599371,634.184891L757.735110,639.521204L758.457222,640.006323L762.796925,642.853766L780.825153,643.528715L780.965170,643.528715L785.003467,643.676360L813.149040,644.709877L811.524353,642.263185L810.731336,640.786733L809.924462,638.804070L809.387143,636.758132L808.374755,627.266677L808.387690,622.942798L825.924051,617.479951L830.784318,615.687127L834.424056,614.063039L837.323997,612.586596L840.830829,610.582853L844.193026,608.410374L849.508991,604.402892L852.320545,601.935129L854.932559,599.530642L858.687386,595.396616L862.057270,590.946214L864.865944,586.453632L869.461751,579.472211L876.138858,547.792293L995.176136,278.542450L989.038203,278.394815L991.418583,272.932358L998.757204,256.081030L1000.000000,253.191634Z " data-aland="10536595" data-awater="304717" data-classfp="C5" data-funcstat="A" data-geoid="2655820" data-intptlat="+42.5980555" data-intptlon="-082.8815059" data-lsad="25" data-mtfcc="G4110" data-name="Mount Clemens" data-namelsad="Mount Clemens city" data-pcicbsa="N" data-pcinecta="N" data-placefp="55820" data-placens="01626771" data-statefp="26"/></g><g fill="#000" font-family="Arial" font-size="12px" id="mylayer-label" stroke="none"><text text-anchor="middle" y="501.920002916"><tspan dy="0" x="463.36150665"><![CDATA[Mount Clemens]]></tspan></text></g></svg>