<?xml version="1.0" encoding="utf-8"?><!DOCTYPE svg  PUBLIC '-//W3C//DTD SVG 1.1//EN'  'http://www.w3.org/Graphics/SVG/1.1/DTD/svg11.dtd'><svg enable_background="new 0 0 1000 1001" height="1001px" pretty_print="False" style="stroke-linejoin: round; stroke:#000; fill: none;" version="1.1" viewBox="0 0 1000 1001" width="1000px" xmlns="http://www.w3.org/2000/svg" xmlns:xlink="http://www.w3.org/1999/xlink"><defs><style type="text/css"><![CDATA[path { fill-rule: evenodd; }]]></style></defs><metadata><views><view h="1001" padding="0" w="1000"><proj flip="auto" id="robinson" lon0="-76.7567919391"/><bbox h="0.27" w="0.42" x="-1030.81" y="-722.14"/></view></views></metadata><g class="" id="mylayer"><path d="M1000.000000,178.502560L925.695577,180.796996L916.927591,181.026439L858.976325,182.976710L767.144301,185.271146L702.861628,187.374379L690.012664,187.756786L661.486114,188.368635L644.409305,189.133448L628.622717,189.401132L617.273474,189.668816L596.043018,190.089463L583.092774,190.663072L571.628343,191.160200L556.536727,191.695569L511.275780,193.263434L496.166374,193.760562L485.070682,194.028247L476.932706,194.181209L451.588783,195.366669L440.409593,195.863797L393.528265,197.355181L306.331936,199.190732L287.569016,200.146748L263.707791,200.567395L192.132553,202.938314L174.011238,204.047293L82.962465,208.368486L69.223621,209.018578L62.347239,209.362743L59.239367,212.154312L56.187068,216.360785L53.076488,225.691512L47.415771,246.035572L46.797141,249.477239L49.032268,261.102429L51.946451,267.029749L55.384030,272.651145L55.492967,274.180777L54.477041,276.972356L51.264055,279.878657L42.071964,287.718025L38.878289,291.006736L35.250868,295.748601L33.457208,299.457963L31.787210,304.046866L30.761983,307.909194L12.683505,375.442705L5.302594,404.697110L4.997992,405.882584L3.716183,413.760250L1.255450,435.940105L0.999565,437.775680L0.273662,443.167684L0.000000,444.965019L5.374497,445.003260L21.466290,445.117984L26.823006,445.117984L58.882888,444.467884L74.951481,444.123713L111.345286,443.932508L154.734731,443.244166L186.735068,442.670549L185.468869,446.150496L181.634726,456.513857L180.350756,459.955566L179.488080,462.326521L178.204114,465.768230L176.910105,469.324664L176.029652,471.657379L233.525843,471.313208L248.262487,471.580896L249.204907,472.039791L250.666906,473.684164L250.962303,475.137331L250.554090,501.523807L251.022958,530.204805L250.495949,533.570045L250.686246,535.137941L251.093707,535.673321L254.973922,536.246941L291.490161,533.455321L295.754489,532.537528L297.469996,532.614011L297.983442,533.990700L292.313657,587.911117L290.584038,601.639817L287.209212,614.488973L268.203206,663.858884L266.932687,667.874259L254.501442,719.997733L252.112595,731.967415L244.395369,775.142476L238.254373,814.072783L238.450973,815.449495L240.989217,820.497440L277.377015,818.585339L300.315622,817.744015L321.801588,817.323353L417.112302,813.766847L422.486803,812.237167L641.366396,815.105317L624.496447,785.314826L604.413996,736.556433L604.717626,693.802130L612.182924,658.810986L619.479353,624.546504L623.600230,595.788866L626.234282,575.214947L625.501676,560.759680L627.506021,547.145737L628.723727,547.719358L632.418580,549.325497L633.650198,549.860876L640.546671,553.034913L661.263971,562.480545L664.069732,563.742512L668.216124,565.501618L685.698595,573.035184L789.496492,620.645864L821.396747,634.642282L859.430660,650.512550L863.600910,635.560080L874.632758,597.471492L877.935654,586.037284L908.152511,483.091511L919.326467,444.965019L935.343700,391.695146L959.747931,310.318369L982.236462,237.087242L983.775961,231.810024L988.245336,216.475507L1000.000000,178.502560Z " data-aland="3054645" data-awater="0" data-classfp="U1" data-funcstat="S" data-geoid="3665332" data-intptlat="+43.0667095" data-intptlon="-076.7595427" data-lsad="57" data-mtfcc="G4210" data-name="Savannah" data-namelsad="Savannah CDP" data-pcicbsa="N" data-pcinecta="N" data-placefp="65332" data-placens="02631236" data-statefp="36"/></g><g fill="#000" font-family="Arial" font-size="12px" id="mylayer-label" stroke="none"><text text-anchor="middle" y="434.666393574"><tspan dy="0" x="509.668381599"><![CDATA[Savannah]]></tspan></text></g></svg>