<?xml version="1.0" encoding="utf-8"?><!DOCTYPE svg  PUBLIC '-//W3C//DTD SVG 1.1//EN'  'http://www.w3.org/Graphics/SVG/1.1/DTD/svg11.dtd'><svg enable_background="new 0 0 1000 1001" height="1001px" pretty_print="False" style="stroke-linejoin: round; stroke:#000; fill: none;" version="1.1" viewBox="0 0 1000 1001" width="1000px" xmlns="http://www.w3.org/2000/svg" xmlns:xlink="http://www.w3.org/1999/xlink"><defs><style type="text/css"><![CDATA[path { fill-rule: evenodd; }]]></style></defs><metadata><views><view h="1001" padding="0" w="1000"><proj flip="auto" id="robinson" lon0="-73.0885192618"/><bbox h="0.81" w="0.83" x="-994.26" y="-684.57"/></view></views></metadata><g class="" id="mylayer"><path d="M1000.000000,90.293089L998.099131,56.597686L991.324392,25.198101L990.619315,21.913744L989.931845,18.728321L989.133795,15.068060L986.581985,15.443978L976.257961,17.007008L956.730026,19.638441L939.969976,22.447946L930.719662,23.971413L926.432362,24.980462L921.272276,26.167581L918.573560,26.800711L892.668630,31.212844L878.302154,34.042155L866.923252,36.357050L853.851549,39.324869L842.078370,42.213551L839.301781,42.886259L825.977684,46.289373L815.908666,49.158282L784.978242,58.140971L767.330445,63.542481L746.338545,70.942382L721.400848,79.509690L686.559693,90.629453L667.141027,96.466371L647.138318,102.085661L621.769391,108.872367L619.988621,109.287880L611.221651,111.345663L608.117280,112.433915L582.038585,118.369846L565.712671,121.970989L490.040426,137.820073L477.978016,140.590216L469.487229,142.549106L457.790291,145.556700L418.679582,156.855014L376.912849,170.864246L351.523580,180.441250L348.596224,181.588912L332.009107,188.019789L319.634100,193.164510L304.021473,199.199685L302.980398,199.753735L288.793121,205.155733L273.961601,210.993078L255.889969,218.037495L244.314831,222.667832L243.080334,223.162527L196.126651,242.198507L184.964702,247.224677L181.597778,248.728574L173.412165,252.349805L124.500572,274.057577L111.778741,279.420254L93.819913,286.623289L67.314764,296.319735L66.772693,299.881710L65.318396,309.202249L64.605576,312.942353L63.223861,320.026809L61.640142,328.160120L58.465556,338.529658L48.426089,389.131618L46.907956,396.750749L39.707128,434.391781L34.454815,460.535220L33.673159,463.721544L31.503307,470.410865L16.563975,517.791082L12.571420,531.209802L10.848583,536.593155L2.686361,562.085171L0.000000,570.457252L6.570355,570.694758L52.976054,572.238551L84.467542,573.287540L115.371228,574.336529L199.410631,577.127240L224.168849,578.710624L265.316027,580.927364L309.319761,583.817048L302.508377,618.196786L299.880529,631.438235L303.345637,633.437328L304.296723,633.991532L304.678278,654.536818L303.485574,663.404231L290.849728,693.807176L281.259474,700.833983L282.864004,711.542502L266.240597,759.642677L262.321667,770.985035L259.695580,778.348704L246.594485,837.971960L243.844038,866.873833L247.868869,875.049597L238.132309,886.254226L230.995100,909.415996L233.928769,917.789952L230.368643,921.194978L227.363085,952.869995L228.891541,961.402564L226.413987,973.201740L233.223834,983.931940L244.631976,981.734421L297.291324,972.825590L339.179541,952.751213L375.551603,944.377068L375.357718,947.208038L398.337041,949.623276L420.670705,935.092312L446.658251,923.669565L465.530839,920.640671L495.878755,921.650301L543.610514,934.241047L570.765510,940.180114L573.399250,926.698465L560.403979,879.068209L566.980752,852.462420L569.583207,846.820626L564.653069,845.217173L572.072458,842.722915L569.954501,829.915164L575.506854,812.119098L569.067816,808.061069L566.201370,800.558692L558.055498,792.917787L554.102366,784.979995L558.904915,778.012192L562.099795,769.262892L574.426360,758.336233L592.772755,752.378070L601.709303,741.689063L601.840141,738.027106L602.415110,721.360359L596.440082,700.833983L607.613155,678.031615L597.837899,679.199437L599.350600,675.557420L594.886991,674.132286L594.175350,670.708009L592.095450,664.334521L585.635545,659.881012L588.040220,626.668134L592.707239,604.460634L600.196336,563.450827L637.648985,556.919442L662.314131,553.178752L680.933208,550.328708L728.064135,535.563983L736.373361,534.435853L755.242874,530.279592L760.726007,529.052507L764.402731,524.817094L768.539664,519.077533L776.366697,508.132843L807.239725,470.212956L808.707975,459.446726L814.345809,456.082295L815.645645,453.113685L820.565174,450.006546L827.995164,446.345275L843.385458,434.154295L845.054929,431.977345L863.738721,411.969332L865.524875,409.475770L889.485478,381.472944L886.673142,380.918830L887.457078,378.445107L888.366229,378.049312L890.599327,372.033236L892.785699,371.419756L893.903978,369.539737L898.821145,357.527464L901.622145,354.974620L911.789289,346.128752L913.470761,342.368779L911.219462,340.765846L921.365044,318.285375L922.352266,315.119138L931.863923,296.082270L935.573943,292.619248L954.236042,257.850925L953.547554,257.138549L954.421034,255.258668L961.066886,235.015464L962.773682,231.176607L968.827523,204.304867L970.116556,201.732487L971.613551,201.593974L971.854129,199.753735L977.019907,174.861253L978.132540,174.544658L980.132994,169.419785L988.471359,152.956988L995.522156,139.680026L1000.000000,90.293089Z " data-aland="13743031" data-awater="167315" data-classfp="U1" data-funcstat="S" data-geoid="3665409" data-intptlat="+40.7475875" data-intptlon="-073.0852315" data-lsad="57" data-mtfcc="G4210" data-name="Sayville" data-namelsad="Sayville CDP" data-pcicbsa="N" data-pcinecta="N" data-placefp="65409" data-placens="02390258" data-statefp="36"/></g><g fill="#000" font-family="Arial" font-size="12px" id="mylayer-label" stroke="none"><text text-anchor="middle" y="434.262724884"><tspan dy="0" x="497.580693461"><![CDATA[Sayville]]></tspan></text></g></svg>