<?xml version="1.0" encoding="utf-8"?><!DOCTYPE svg  PUBLIC '-//W3C//DTD SVG 1.1//EN'  'http://www.w3.org/Graphics/SVG/1.1/DTD/svg11.dtd'><svg enable_background="new 0 0 1000 1001" height="1001px" pretty_print="False" style="stroke-linejoin: round; stroke:#000; fill: none;" version="1.1" viewBox="0 0 1000 1001" width="1000px" xmlns="http://www.w3.org/2000/svg" xmlns:xlink="http://www.w3.org/1999/xlink"><defs><style type="text/css"><![CDATA[path { fill-rule: evenodd; }]]></style></defs><metadata><views><view h="1001" padding="0" w="1000"><proj flip="auto" id="robinson" lon0="-162.761257901"/><bbox h="0.63" w="1.37" x="-1811.39" y="-1084.89"/></view></views></metadata><g class="" id="mylayer"><path d="M1000.000000,589.363371L997.050203,585.494574L992.448316,583.955609L984.197956,583.634991L978.559745,581.786099L975.119872,580.236452L962.391252,579.146356L935.710311,574.198192L935.221699,574.069946L925.442959,571.259227L915.101997,569.250049L902.911724,563.842385L895.026105,563.682079L891.681962,564.451548L890.397583,564.248493L889.837781,564.130936L887.971236,563.821011L886.576937,563.596583L885.304734,563.372155L888.156677,562.752306L888.603088,561.982839L890.100015,561.512609L890.261538,560.743143L882.120565,561.202685L877.030712,560.892762L865.440357,558.733984L846.383204,556.094296L814.801510,549.607317L798.381881,542.810457L788.986558,539.871576L769.204480,530.606137L761.471676,525.978790L754.620677,520.261425L751.944740,518.658430L743.033227,513.315133L736.820466,506.678793L725.334682,492.487204L719.253589,482.922946L718.017646,476.895902L717.458746,464.713680L718.446079,453.760481L719.365500,449.592951L718.557868,441.717430L721.951837,427.216787L725.649885,419.661996L726.843517,414.415346L730.399878,405.012044L735.049855,396.517085L744.573457,383.715998L751.574322,375.851631L759.389912,366.288380L763.984775,361.971588L771.397351,357.494536L781.530617,353.797509L794.793564,351.019405L816.435750,347.162125L830.464702,343.155270L835.819381,340.216919L841.284994,335.900228L844.876886,334.511197L848.258055,334.361610L852.641233,332.812308L856.919799,330.034257L859.603351,330.194529L863.573740,328.955092L883.472793,320.321815L890.107641,318.163507L900.105590,316.315057L916.725867,314.926051L928.292078,312.767753L938.848658,309.840167L948.092806,306.602736L955.516041,303.205047L963.495247,297.649099L966.274008,294.262122L968.730648,286.547972L966.088597,277.444917L958.636258,276.515383L948.462142,272.198941L943.850927,269.570621L940.575580,269.421042L937.948045,270.959570L934.484155,272.038677L929.925301,272.198941L925.462708,273.587893L922.565814,273.587893L918.865678,274.196896L909.264343,279.442881L898.744596,282.990079L894.748008,284.688891L883.346759,287.156982L875.158945,288.086524L870.332055,289.315230L863.494342,292.712877L858.667439,293.941588L846.876852,295.180985L832.293689,297.649099L819.616867,300.427070L805.223542,304.273502L791.699509,305.512910L785.762059,307.361342L779.880433,310.908628L768.808765,313.996487L766.508416,315.075637L763.550007,318.163507L763.582319,321.400971L762.681937,322.950256L760.054317,324.488859L749.747728,327.875929L732.945905,332.662721L702.838195,340.302398L684.851971,344.854175L661.899517,349.480765L642.200193,354.267651L589.970304,365.219865L564.390741,369.857226L534.543481,376.182874L518.305157,378.811448L497.990351,382.978712L482.614546,385.607302L465.433939,388.075617L444.282426,391.783444L433.858110,393.450367L390.334482,427.377073L259.765405,529.163429L216.240264,563.094292L127.202576,630.927070L0.000000,727.847398L84.591945,725.292817L138.432206,723.657460L183.849617,725.346260L286.456268,725.966199L290.174745,725.998265L293.907450,726.019642L305.569608,726.083774L311.325402,726.126529L317.095424,726.158595L384.955849,726.564762L879.958988,729.578958L893.879960,719.777506L904.347428,714.529436L911.945811,707.742254L916.556416,704.503660L932.913906,692.008977L936.569371,687.530591L948.337120,679.354111L957.497309,669.008011L964.849257,662.841011L966.313383,660.382772L967.434837,658.512375L978.687942,648.337476L982.616323,642.779796L987.980647,638.761184L990.935336,635.672421L993.010566,630.424748L993.611395,625.636670L992.740993,620.859299L993.852578,616.990392L998.801445,609.583932L999.512002,605.576127L997.478852,602.327145L997.412441,598.468990L1000.000000,589.363371Z "/></g><g fill="#000" font-family="Arial" font-size="12px" id="mylayer-label" stroke="none"><text text-anchor="middle" y="568.271465213"><tspan dy="0" x="550.06001265"><![CDATA[N]]></tspan></text></g></svg>