<?xml version="1.0" encoding="utf-8"?><!DOCTYPE svg  PUBLIC '-//W3C//DTD SVG 1.1//EN'  'http://www.w3.org/Graphics/SVG/1.1/DTD/svg11.dtd'><svg enable_background="new 0 0 1000 1001" height="1001px" pretty_print="False" style="stroke-linejoin: round; stroke:#000; fill: none;" version="1.1" viewBox="0 0 1000 1001" width="1000px" xmlns="http://www.w3.org/2000/svg" xmlns:xlink="http://www.w3.org/1999/xlink"><defs><style type="text/css"><![CDATA[path { fill-rule: evenodd; }]]></style></defs><metadata><views><view h="1001" padding="0" w="1000"><proj flip="auto" id="robinson" lon0="-81.2646015628"/><bbox h="0.26" w="0.13" x="-1120.68" y="-636.69"/></view></views></metadata><g class="" id="mylayer"><path d="M468.384633,0.000000L435.706114,9.306247L395.923426,14.056991L367.778363,21.085493L362.539000,22.387068L359.780958,22.972777L355.409662,23.493407L355.118425,36.834559L353.620819,106.469118L352.362297,143.759574L359.288182,176.104098L361.766542,243.396618L327.786943,406.097752L314.212041,470.918522L251.378590,771.923327L264.450037,785.330425L300.743817,823.013565L337.143478,860.696828L392.823837,910.941367L406.559502,923.372368L447.426169,957.606502L447.930691,964.310156L450.939984,968.475535L466.796814,985.397403L469.296508,987.935686L487.260663,988.456359L551.596832,998.349158L556.984244,999.000000L564.345842,998.869832L577.729078,996.591884L602.148583,941.010094L617.803628,905.734669L618.676194,903.717074L636.713387,863.169999L650.283903,829.391726L722.128681,655.490489L748.621410,588.520984L735.930081,578.042797L730.677301,574.853785L726.482019,574.268048L727.882225,568.410683L728.997029,561.056439L730.318631,555.459407L729.283940,550.513195L727.380484,545.827312L724.728556,542.573228L722.297558,537.366695L721.790445,532.941144L721.468106,524.415454L722.281900,509.511783L720.541324,494.868456L716.381638,478.467952L711.427844,468.185108L708.869538,465.842183L705.745934,464.150071L703.071246,463.238934L694.966148,463.564340L681.984128,465.386615L677.367484,464.800883L672.341239,463.304015L669.124100,460.700766L665.316581,455.168864L664.493516,450.743344L663.516629,435.839767L662.640909,431.414255L661.188840,429.071337L655.921341,424.710908L649.277201,420.025076L644.860372,416.510703L638.362453,412.736007L632.932961,410.132770L619.554461,397.572156L614.016575,392.886335L609.521153,389.632293L603.432857,386.768738L600.235452,384.100425L593.522874,382.082921L590.772842,379.154286L589.519003,359.239591L588.630258,350.323546L588.429877,348.371128L589.510583,339.910655L588.551570,336.982031L586.782762,334.118488L585.885001,332.556556L581.340252,327.024715L573.706541,320.907153L569.034274,318.238855L556.821829,310.364128L541.644708,301.317959L533.735829,296.111535L531.223301,293.443243L530.140073,291.100353L529.054600,287.195538L527.876387,282.900243L517.983539,262.465072L514.933508,256.868185L511.671297,250.230019L506.527239,239.882298L502.543183,234.936221L498.111765,230.250466L485.049003,221.529760L475.394950,215.997972L466.222774,211.312224L460.409959,207.537596L451.690012,201.355017L446.422895,196.994674L445.169832,195.562920L443.481280,193.480369L440.618317,189.705746L439.328577,185.605726L439.154998,183.913655L439.013702,181.766026L437.383589,169.726297L434.855636,165.365966L432.952751,160.680239L433.326073,154.562765L433.395493,152.415142L433.496470,149.291327L435.202223,144.865924L437.961484,140.440523L440.222879,137.837347L443.511806,135.494489L446.123721,133.997663L452.811288,132.435758L455.180944,131.915123L459.282569,131.589726L468.418438,129.246869L477.431240,123.650046L480.283959,120.135763L481.891413,116.035768L481.073420,105.492930L480.189761,85.578706L478.806146,65.924833L479.007488,59.156620L478.189641,48.613834L477.524387,43.667838L475.669168,30.456836L473.774779,22.256910L472.933903,14.056991L471.885196,7.939595L470.080813,2.928538L468.384633,0.000000Z "/></g><g fill="#000" font-family="Arial" font-size="12px" id="mylayer-label" stroke="none"><text text-anchor="middle" y="567.892081176"><tspan dy="0" x="483.24218969"><![CDATA[N]]></tspan></text></g></svg>