<?xml version="1.0" encoding="utf-8"?><!DOCTYPE svg  PUBLIC '-//W3C//DTD SVG 1.1//EN'  'http://www.w3.org/Graphics/SVG/1.1/DTD/svg11.dtd'><svg enable_background="new 0 0 1000 1001" height="1001px" pretty_print="False" style="stroke-linejoin: round; stroke:#000; fill: none;" version="1.1" viewBox="0 0 1000 1001" width="1000px" xmlns="http://www.w3.org/2000/svg" xmlns:xlink="http://www.w3.org/1999/xlink"><defs><style type="text/css"><![CDATA[path { fill-rule: evenodd; }]]></style></defs><metadata><views><view h="1001" padding="0" w="1000"><proj flip="auto" id="robinson" lon0="-80.0392537651"/><bbox h="1.25" w="1.03" x="-1097.82" y="-658.08"/></view></views></metadata><g class="" id="mylayer"><path d="M171.276191,501.652811L170.286789,504.567366L173.800038,504.769766L177.807098,504.972166L179.203254,500.843214L179.674574,499.736765L175.833262,499.669298L171.868820,499.574845L171.552263,500.816227L171.276191,501.652811Z M419.470589,0.000000L418.028472,0.499035L415.877205,1.227356L413.946432,2.090553L407.236584,3.250474L406.787280,3.317912L406.126112,22.955829L404.848407,31.749841L403.403803,41.622953L403.299436,42.297349L403.203098,42.877330L413.403072,42.405252L414.500246,42.405252L420.523465,42.648035L424.895845,43.632654L442.045010,47.260916L443.142723,47.328356L449.375256,49.054819L447.149419,52.817978L446.524351,54.787235L446.023443,56.365340L445.818463,63.959160L447.437125,73.481854L448.905734,77.946487L456.597995,88.211163L462.709842,97.302424L464.411200,102.036922L465.819045,109.563601L466.871634,115.201898L468.298573,124.536173L470.410257,134.410084L472.369673,137.917231L483.441241,149.396468L486.379595,152.377582L488.199068,153.766972L489.184471,154.050246L490.403251,154.427945L493.388458,154.252585L500.763181,154.697730L503.723902,155.291257L505.731686,156.087123L506.585750,156.680650L507.057430,157.476518L507.036132,158.097025L507.018891,158.946850L506.569436,161.159096L506.297527,162.535008L504.382164,167.984713L500.787977,178.277172L499.432490,182.135182L499.578324,183.335754L499.495274,184.185598L500.321846,186.249508L502.901399,194.721017L502.730283,196.609579L502.532185,198.687000L502.044192,200.467650L501.051312,203.840101L498.397657,209.681208L494.844709,215.036707L488.317642,223.265608L479.856232,232.438877L475.802288,233.423659L463.596557,236.378010L459.535913,237.349305L452.691522,250.488848L451.298159,251.041953L411.643992,266.367120L398.428756,271.466561L397.297621,271.884770L393.871298,273.139398L392.733468,273.544117L390.573138,270.495237L388.703852,267.878063L383.013500,262.535810L380.348637,260.040068L380.095918,259.729787L379.346319,258.771964L379.097879,258.448193L378.707963,257.463389L376.018483,253.834464L372.942986,249.692917L369.803415,244.957811L368.363622,242.785874L366.366184,239.777546L364.870996,237.538168L363.933464,236.135186L352.682794,220.581091L337.850309,199.509876L345.250617,195.516911L353.918249,190.849476L395.165991,177.386864L411.817249,171.937115L411.832819,172.233882L411.879531,173.124187L411.899381,173.407465L412.140225,173.340018L412.868901,173.083718L413.103051,173.002781L436.426260,164.679815L431.372307,162.764327L439.644813,152.391071L430.283978,123.349151L430.232313,123.200773L421.884747,139.549407L395.189705,149.369490L343.367826,168.389395L348.848573,173.974023L309.649395,188.691131L309.048422,175.956977L298.092562,176.631452L284.626356,188.745089L285.026427,194.262367L269.630165,202.153874L269.841328,205.742167L262.823049,211.124627L263.837371,216.331743L264.279598,218.638530L286.177754,217.748191L303.195384,203.327487L315.717491,207.711686L328.647215,204.447143L346.830481,228.445798L348.965638,230.051122L350.564130,231.238254L352.604274,232.762641L353.607629,234.165619L354.433226,235.298794L358.213514,240.573471L359.503065,242.354185L360.774955,244.121412L362.404457,246.144958L362.616243,246.549668L363.231523,247.723326L363.436617,248.114546L365.798599,251.149876L367.907884,253.874936L371.478618,258.461683L372.862701,260.255916L374.827727,262.778639L375.311425,263.156373L375.742675,263.561089L377.040708,264.761746L377.465266,265.152971L378.909268,266.758346L379.389797,267.284478L383.106106,271.412598L385.211058,273.598080L387.183238,275.648658L386.172603,276.309701L383.157810,278.238868L382.736372,278.495192L382.189600,278.454720L381.555760,279.034820L379.632294,280.775121L378.991760,281.341732L375.062440,284.943762L366.602343,292.660509L365.255700,291.958984L363.827683,293.901668L360.552442,298.313193L353.401108,306.920436L333.253171,331.150576L332.724242,330.880749L331.890301,331.676737L328.767489,334.604356L323.933472,339.191424L321.601643,340.904834L317.389363,343.980883L311.640837,342.280960L294.341774,362.788131L288.414706,364.177774L287.823282,364.312691L282.691457,371.881558L274.337548,369.088762L269.421034,367.429278L268.980994,367.294360L267.665153,366.876117L267.229390,366.727708L263.464304,364.447608L252.160007,357.566863L248.388276,355.273290L244.547357,359.739015L244.480775,359.914407L237.774766,376.428299L237.516447,377.035432L239.431233,380.340938L239.437749,380.597284L239.470130,381.325846L239.480924,381.568700L238.850332,384.388511L236.958610,392.847982L236.317079,395.667820L236.140339,411.871900L235.590127,460.485499L235.403717,476.690484L234.928718,476.838907L233.505574,477.243698L233.023877,477.378628L229.556760,479.524019L222.908225,485.164122L214.041299,492.679805L208.031828,498.104080L184.272978,519.302174L178.728453,524.159844L171.107371,531.311450L170.174189,532.040107L169.501381,532.674309L158.789208,542.308818L155.552871,545.007574L151.521816,536.533500L145.133261,525.144874L139.625608,516.171686L135.104255,520.570564L138.464814,530.501832L142.756955,527.033975L148.361391,536.533500L151.816482,542.565199L153.400924,546.950682L147.576287,552.415692L135.182281,539.164774L125.062983,528.329360L111.391281,539.164774L100.238579,548.111151L95.450251,568.662441L98.284965,570.106307L114.293857,578.148812L109.609395,580.118964L107.325604,581.265972L102.307573,584.531577L99.366551,586.852591L95.323282,591.440656L94.828497,592.101879L88.824041,598.862564L89.913081,599.685724L106.872547,607.188651L135.081196,619.644157L144.901675,605.893178L138.208574,601.386023L131.074375,611.021101L124.915133,608.119773L130.896050,599.388846L123.863858,595.259559L117.078415,604.624696L105.537309,600.144535L99.924177,597.702044L95.846519,594.638818L99.746410,590.226166L102.788299,587.378868L105.830506,585.084841L108.464441,583.559991L116.219497,579.795103L115.919891,579.147382L115.774363,578.810027L117.285446,578.162306L118.900846,577.393138L120.041815,576.839877L122.576413,575.247566L124.515868,573.871164L127.472141,571.536682L127.925329,571.145353L130.770147,568.608465L130.964106,568.446536L131.528310,567.947255L131.715570,567.771833L133.021941,569.121239L135.997847,572.197893L140.271038,576.583488L146.887489,570.038837L142.248100,566.462909L137.425314,562.738559L133.387419,559.688918L129.102131,556.450370L131.134784,554.156404L133.545967,551.983888L137.673057,555.721698L141.446151,559.122171L142.372262,560.147713L148.377872,554.804112L159.323560,545.021068L171.062667,534.846789L172.377071,533.780789L181.470879,525.860033L184.936110,522.716034L200.479033,509.195587L221.722535,490.048636L228.073061,484.206112L231.934950,481.507497L234.563203,480.347094L234.369358,481.305101L234.209151,482.087699L244.345147,485.838777L247.467016,486.999185L262.660141,492.625832L287.208150,501.733771L300.455349,506.645341L301.156351,505.714300L304.692873,501.409932L307.093181,498.994635L309.674763,496.215026L317.980478,488.807266L320.726677,486.027681L322.379673,484.516453L325.428291,481.682907L327.684973,479.928810L330.667329,477.823897L332.815133,476.690484L334.386190,475.611044L337.016685,473.681548L341.064467,470.915493L342.800126,469.836058L343.788592,469.417778L345.963471,468.891554L347.314773,468.297866L349.071809,467.150969L350.956677,466.327903L354.888446,464.897658L357.398653,464.317465L359.039964,464.020622L360.770770,463.926172L362.171092,463.939665L364.213286,464.074593L366.635131,464.465886L370.111422,465.234980L371.863179,465.801681L373.933025,466.611254L375.531298,466.935083L378.836727,468.001022L380.148982,468.500259L382.483058,469.930509L384.597239,471.050422L385.047581,471.360760L389.896319,474.032365L391.335417,474.477634L392.976313,474.909409L395.635044,475.799946L397.276079,475.988848L403.816724,477.338149L409.198734,478.188209L411.467111,478.336632L411.697554,478.336632L411.459302,479.227172L410.746400,481.858316L410.501452,482.735366L410.222306,483.720361L410.130683,484.044195L409.438023,486.472954L409.031209,487.930211L408.668997,489.212060L410.730918,490.116101L416.916694,492.828230L418.971926,493.718781L423.947455,495.540365L433.295126,498.940662L438.854008,500.964653L444.565058,502.300489L454.021237,499.885191L452.249795,505.511900L448.708725,512.083174L452.795031,513.594438L459.929683,509.951217L499.819629,524.672599L516.309712,545.749733L537.372258,574.950695L559.682706,533.052131L547.318050,522.891450L537.897683,515.146184L552.569524,504.405446L562.991640,503.825233L563.907395,499.790738L570.421985,498.589837L570.591324,493.759260L575.545038,501.990143L577.638507,512.703872L584.549760,537.208185L600.017005,540.622098L592.937554,545.547326L602.390905,552.982435L610.960970,562.063859L641.021607,585.206290L682.938163,617.458024L697.221523,628.429215L671.583677,651.910338L682.994340,667.834587L686.032058,672.072094L720.927691,639.171096L721.350283,638.806734L722.624168,637.659669L723.040057,637.281813L723.203422,637.389772L723.460631,637.686659L724.619913,638.982167L724.999025,639.414004L726.795636,639.805355L729.006180,640.345151L739.864434,651.114132L745.167469,656.377203L743.341669,658.401468L739.640717,662.328551L741.361429,664.312341L742.608371,666.579533L742.964765,667.915559L743.177805,669.669939L743.212374,670.601110L743.262047,672.247532L743.155142,676.539036L743.321229,678.441877L743.906910,679.642963L744.222641,680.101805L744.773699,680.614629L745.552783,681.100462L747.518241,681.964166L749.598311,682.881852L752.011285,683.718567L757.868739,685.877833L758.674689,686.174733L759.775067,686.755036L760.754131,687.267863L763.914235,683.003311L765.890027,680.574143L767.991451,677.956045L775.201218,683.367687L779.997215,685.621420L787.726474,687.483790L794.088456,687.875158L800.910161,688.131572L801.235120,688.145067L805.496256,687.753699L809.056308,687.011450L811.998727,686.417651L823.493514,683.489145L824.746491,682.962825L834.251850,680.182777L834.254248,680.452684L843.764993,678.279933L847.825014,677.240792L853.637771,676.835933L860.233226,677.321764L863.365089,677.794101L867.094398,678.563335L874.835756,681.289397L877.501076,682.854862L880.048658,685.000631L883.067483,687.564763L885.997151,691.451458L888.334231,695.338166L889.347764,698.725550L890.104843,706.080661L889.878936,716.161962L883.728599,748.930164L881.808894,757.810666L881.007014,761.387180L875.218032,789.756738L865.417716,838.453564L858.183764,874.424106L855.514159,889.258057L851.922432,905.239520L852.591937,909.788338L849.912466,920.141350L848.596236,925.243650L846.279907,933.059121L845.072667,936.879137L838.043058,957.248264L828.891283,988.295324L825.816406,999.000000L827.683203,997.920079L835.150704,997.420616L837.331701,997.083140L839.370016,996.745666L844.591052,995.679245L849.908985,994.410342L853.055884,994.315849L861.532796,994.963799L865.967529,995.031294L867.412032,995.044793L873.708337,995.125787L874.427336,993.127940L876.454527,987.336903L876.988896,985.784532L882.518615,969.950463L884.539229,964.146041L889.638844,945.437097L894.849113,926.310007L911.175959,926.080537L904.491884,914.620632L898.833858,904.915570L897.556146,902.742402L897.209099,902.000017L892.183697,893.280398L881.827743,875.314948L881.436212,874.505092L872.479350,874.370116L861.983543,874.208145L861.577467,874.208145L868.356590,839.155418L879.008570,788.771485L884.358563,760.401950L884.946416,757.432771L887.252755,746.635820L894.154645,716.661306L894.697747,704.744592L893.189489,697.821347L891.785150,694.420469L889.919306,690.952125L886.712333,686.242210L884.297790,683.016806L881.157634,680.628124L875.604522,677.159820L869.116547,675.432420L869.535473,674.906103L869.904399,674.433768L871.176424,672.841324L873.733289,669.615958L875.037006,668.131482L875.210796,667.929054L876.484589,666.781961L877.735760,666.053220L878.130869,665.810306L879.858201,665.068071L881.517253,664.298846L881.648345,664.231370L882.783032,663.732048L883.659807,663.354184L886.272453,662.207095L887.144958,661.842726L881.926868,649.859095L877.262347,639.144106L866.426091,655.702449L852.084924,661.383891L847.649228,663.124766L844.568540,674.352796L844.462394,674.757655L844.313549,675.297467L834.237014,677.524194L825.016986,680.304235L809.929305,683.489145L806.893024,683.894007L803.071463,684.352851L795.563856,684.217897L788.213720,683.030302L782.647489,682.031643L778.673853,680.439189L771.104521,674.325805L766.492523,669.791396L748.686792,652.261209L736.319265,640.088748L732.163503,635.986307L723.872188,627.821951L727.698019,624.853108L739.192615,615.892647L743.011754,612.910341L742.814944,612.492009L741.704796,610.035998L740.720491,608.915951L740.123757,608.443642L739.350259,607.836388L738.098701,607.526014L736.277088,607.283113L733.968213,607.539509L731.488685,607.606981L729.768860,607.458542L727.772982,606.864783L725.999743,605.879684L724.716064,604.908080L721.346573,602.344130L720.619411,601.763868L742.348858,579.781609L740.759202,578.702073L683.949106,539.947411L665.008709,527.020481L663.641765,525.792565L659.540954,522.108825L658.163049,520.880914L634.386730,504.203046L632.225710,506.591367L613.256721,527.506250L597.873867,509.897243L593.804647,480.927295L597.921180,464.398422L615.146670,453.010503L623.369744,447.559453L622.418803,441.555232L614.407915,431.962036L606.585615,436.805848L623.569573,405.193255L631.479374,390.446403L626.175492,365.526945L608.246687,327.197628L605.192125,320.667875L597.374356,303.480230L598.393435,301.996222L599.545875,300.714581L600.815690,299.824178L602.570725,298.960758L604.284116,298.367157L605.024302,298.178284L608.372243,297.274392L609.974438,297.031556L613.397374,296.964101L615.855660,297.274392L622.646204,298.663957L625.267448,299.567850L626.761090,300.255888L627.104058,300.593162L628.110454,301.537529L629.025356,302.562843L630.327909,304.546018L630.640212,305.153113L631.261443,305.962574L631.568513,306.205412L632.080916,306.596652L633.776523,307.028365L634.359208,307.163275L640.602809,300.862981L659.342293,281.935324L665.579283,275.621677L669.658134,275.527243L681.894686,275.243939L683.290072,275.203467L684.325048,271.938732L684.641318,270.387312L685.313653,267.055139L684.380033,266.677403L683.292235,266.232215L681.722764,265.921932L679.603541,265.476744L677.031461,264.937123L675.930099,264.707783L675.459574,264.599859L674.276565,264.316558L670.731820,263.453165L669.542118,263.156373L657.610180,261.267702L656.296804,260.876478L654.617035,259.702806L660.251282,242.866816L641.987964,245.443462L623.655898,236.782716L619.136189,234.772677L600.809973,231.319195L586.327875,228.580699L569.992110,220.581091L543.226285,222.496675L539.293466,222.995807L537.193247,223.252118L535.744128,223.427488L518.813784,211.664224L515.130308,206.430149L513.997885,204.811368L517.683771,186.168570L504.658616,190.080565L502.568168,183.457161L502.205184,181.730495L502.391701,180.381540L502.800846,178.884201L509.478734,160.012505L509.649829,157.570943L509.388387,156.181548L508.884016,155.142875L508.109944,154.400966L506.669755,153.510677L503.803186,152.620388L501.097789,152.121287L495.784296,152.026862L491.403893,151.446826L489.969952,151.055639L487.954078,149.801144L486.182465,148.088018L475.082973,135.866897L472.616745,132.643025L471.852716,126.613464L470.593471,119.032718L469.693190,114.055352L468.730548,108.686835L468.679668,108.363106L466.633178,96.452644L464.037855,92.702830L458.211124,84.407422L453.456689,78.472533L449.765397,70.190716L448.821863,58.644830L448.911937,55.353734L449.722693,52.453801L452.879767,47.692531L453.217470,47.112548L452.353372,46.896740L448.683429,45.669335L444.076882,44.765642L442.793452,44.522859L438.950651,43.632654L427.404610,40.948557L423.177010,40.233699L419.201496,39.761622L414.657595,39.559304L414.634849,39.181643L414.052582,32.720963L418.582022,32.761426L418.245907,33.543720L416.746242,37.023583L425.216956,33.220012L446.311527,30.778720L446.720161,28.350920L447.075547,26.125442L448.267852,15.146479L451.081053,7.391133L450.578234,7.350671L443.089204,6.541420L431.592694,3.425811L425.420045,1.753367L423.634110,1.227356L419.470589,0.000000L419.470589,0.000000Z " data-aland="7329693" data-awater="237298" data-classfp="C1" data-funcstat="A" data-geoid="5463292" data-intptlat="+39.1472647" data-intptlon="-080.0503497" data-lsad="25" data-mtfcc="G4110" data-name="Philippi" data-namelsad="Philippi city" data-pcicbsa="N" data-pcinecta="N" data-placefp="63292" data-placens="02390636" data-statefp="54"/></g><g fill="#000" font-family="Arial" font-size="12px" id="mylayer-label" stroke="none"><text text-anchor="middle" y="414.091757448"><tspan dy="0" x="496.136156956"><![CDATA[Philippi]]></tspan></text></g></svg>