<?xml version="1.0" encoding="utf-8"?><!DOCTYPE svg  PUBLIC '-//W3C//DTD SVG 1.1//EN'  'http://www.w3.org/Graphics/SVG/1.1/DTD/svg11.dtd'><svg enable_background="new 0 0 1000 1001" height="1001px" pretty_print="False" style="stroke-linejoin: round; stroke:#000; fill: none;" version="1.1" viewBox="0 0 1000 1001" width="1000px" xmlns="http://www.w3.org/2000/svg" xmlns:xlink="http://www.w3.org/1999/xlink"><defs><style type="text/css"><![CDATA[path { fill-rule: evenodd; }]]></style></defs><metadata><views><view h="1001" padding="0" w="1000"><proj flip="auto" id="robinson" lon0="-87.0682922283"/><bbox h="1.34" w="1.66" x="-1151.83" y="-766.19"/></view></views></metadata><g class="" id="mylayer"><path d="M358.298294,524.518931L324.525144,524.853506L318.486512,524.902709L294.452003,578.955596L333.791211,580.106898L339.967032,566.104263L358.298294,524.518931Z M1000.000000,204.758635L987.345067,204.650374L949.376994,204.296064L936.718321,204.177960L935.158518,204.177960L930.475828,204.148434L928.912279,204.138592L881.078420,203.685863L878.114259,203.843334L873.126835,203.912228L871.093754,203.902386L865.002934,203.853176L862.974065,203.833492L862.281703,203.833492L860.205085,203.813808L859.508977,203.803966L834.158424,203.626811L832.690374,203.616969L828.262349,203.587443L826.790553,203.567759L825.708241,203.567759L822.473942,203.538233L821.395843,203.528392L820.524656,203.518550L817.903137,203.489024L817.028203,203.469340L776.974767,203.971279L767.502191,203.902386L761.752643,203.892544L761.434316,203.892544L755.920234,203.853176L755.773241,203.843334L752.018383,203.784282L743.320086,203.616969L743.759581,202.534354L738.653716,202.563880L734.088539,202.613090L733.105472,202.622932L730.140821,202.632774L729.154008,202.632774L727.238901,202.681984L724.384730,202.731193L721.520256,202.711509L719.618721,202.691825L719.308819,202.672142L718.363665,202.593406L718.050018,202.563880L717.387613,202.475302L716.134893,202.278463L715.316145,202.406409L714.573700,202.504828L715.850580,199.168403L717.331547,195.280820L719.996320,189.129568L721.448780,185.773437L723.639419,180.655573L730.187577,165.301908L732.374547,160.174153L734.753929,154.652699L738.140713,146.759258L742.135155,138.078407L744.677994,132.547053L749.874661,122.005946L752.343560,117.744213L755.221136,113.029724L758.877225,107.035712L759.790076,105.628249L764.809369,97.862578L753.415416,97.803524L750.806713,97.744469L750.575941,97.744469L746.666397,97.675572L745.576668,97.655887L730.586809,97.390141L725.579581,97.301559L721.334878,97.272032L713.131949,97.212977L708.597498,97.153922L706.107693,97.114553L704.357480,97.094868L699.918051,97.055498L686.584320,96.917704L685.415016,96.898019L684.335109,96.966916L681.937003,97.419668L677.972229,97.331086L666.061995,97.065340L662.089265,96.976759L633.760100,120.952816L627.965421,125.844450L607.643068,140.096068L544.873466,178.490319L531.241551,186.816692L519.891806,193.715943L515.042733,196.658698L501.814258,204.581480L485.175251,214.521823L464.575772,224.176706L462.075402,225.072314L451.993851,228.674429L448.987884,229.579878L446.614849,230.308173L439.496674,232.453690L437.119888,233.172143L411.004181,241.025896L399.000306,244.637825L385.096155,248.840253L372.104935,251.969924L359.430150,255.011016L335.800946,260.699518L297.329207,268.877944L180.572731,293.678752L155.563021,298.983332L117.540193,304.809497L116.406761,307.437171L113.002751,315.310331L111.865595,317.928150L93.019309,317.928150L71.896826,317.928150L52.864096,361.731856L44.091713,381.916092L42.707818,385.035725L40.166690,390.950222L44.370033,390.910858L71.373864,390.635308L78.140974,390.556579L80.106348,391.078156L80.529120,391.038792L99.467566,390.881335L156.291310,390.389281L162.604277,390.330234L175.268137,390.123571L202.617924,389.690564L234.928077,389.513424L335.966317,388.942641L338.071728,388.932800L308.828818,457.465020L328.768077,457.258364L388.439271,456.608874L385.010078,464.304342L378.703124,478.425749L374.746627,487.390579L371.349437,495.085934L368.738975,500.980439L360.912408,518.634333L358.298294,524.518931L371.235669,524.400846L399.371908,524.125313L404.969893,511.007948L411.764568,495.076094L419.839192,477.697539L420.933823,475.325936L429.798657,456.175880L454.600193,456.175880L468.676650,456.166039L464.680859,463.940235L460.235357,472.560702L453.683516,487.311854L450.208537,495.115456L444.570453,508.252602L427.648980,547.663544L426.621951,550.044905L425.495259,560.062338L421.987304,567.422857L415.721077,580.559547L415.150370,582.153656L412.887922,587.831432L412.132758,589.484577L408.832313,596.658029L408.716720,596.835151L403.825004,596.844992L389.149857,596.874512L384.258141,596.884352L379.461190,608.298847L372.443016,624.997353L386.644553,624.977673L395.886857,624.957993L393.290252,630.635652L390.725510,636.313295L385.235384,648.455723L380.034876,659.791216L375.278505,670.349305L370.685944,680.543272L370.086125,681.684678L367.628851,685.325366L360.249563,696.227713L357.788561,699.858536L357.063686,699.878215L354.889061,699.937253L354.160435,699.947093L338.502336,701.974053L291.516583,708.025404L281.879090,709.265191L279.707350,709.540699L278.569505,709.688293L275.846637,710.042518L273.195277,710.062197L268.569212,710.101555L246.741603,710.249149L239.464636,710.288507L230.441714,732.043682L212.380519,775.573021L229.949951,775.592700L247.539516,775.602539L248.009673,775.582860L269.279799,775.140094L328.757967,773.870829L325.907435,780.905892L315.086452,807.520845L311.818928,815.549539L302.001175,839.615755L298.730088,847.634485L306.836454,847.388512L307.394204,847.368834L333.594592,846.011063L339.190287,845.715896L340.318515,845.814285L341.802123,846.552204L351.383814,846.542365L380.141513,846.483332L389.719451,846.463654L390.327810,846.493171L392.145380,846.562043L392.749986,846.581721L403.804167,847.447545L427.052972,849.267744L436.942901,850.045017L447.981210,850.910840L451.930951,850.871484L463.780172,850.753418L466.308583,850.723901L465.286047,852.426030L463.033473,857.748862L456.260404,873.697599L454.004157,879.010537L453.897602,879.315539L453.577940,880.230543L453.467632,880.525706L451.500884,882.090067L445.609051,886.763467L443.638546,888.317985L442.663191,891.082662L439.749787,899.347157L438.778664,902.101981L441.716119,901.600210L449.535037,899.327480L455.073805,897.881196L458.537620,897.340069L466.452736,896.592329L474.359175,895.529752L475.241875,895.401849L486.823122,892.932338L493.746898,891.151533L499.966876,890.718630L503.444257,889.587179L508.832535,888.622985L514.907834,888.249114L525.320387,885.012173L533.310568,883.939751L548.182154,880.328931L560.397671,877.101817L565.030053,875.596484L569.556296,874.897931L578.026597,872.851463L582.223291,871.769196L603.651501,866.229946L606.814542,865.088642L615.144995,860.464387L619.066125,858.034189L620.918008,857.650473L626.445562,856.509165L628.293688,856.115610L640.574552,853.498468L677.404790,845.656862L689.681774,843.029868L717.774267,800.190698L730.005975,781.525764L765.777926,720.206770L800.973808,671.667833L802.182646,669.995074L822.945854,650.945207L839.034441,638.861833L883.014721,605.819152L937.854186,564.598703L970.307170,489.712965L965.491431,482.696595L945.509354,453.597596L915.569713,426.643512L906.063465,418.072060L974.487585,262.697380L1000.000000,204.758635Z M170.492954,370.421631L177.250550,353.563631L210.213586,353.012521L217.841506,352.874743L211.828919,365.875004L210.094558,370.520043L209.109964,370.923531L206.164608,372.114313L205.176268,372.507959L182.170816,375.509513L167.875825,377.369489L170.492954,370.421631Z M446.516182,419.646612L476.229317,347.924585L515.559804,348.190300L484.660089,419.508839L446.516182,419.646612Z M0.000000,400.141770L15.704053,398.616409L38.356947,396.402173L38.733523,395.132676L39.096515,393.932067L16.730178,396.146305L1.013500,397.701191L0.818664,398.193244L0.370925,399.275758L0.206538,399.659559L0.000000,400.141770Z " data-aland="33346386" data-awater="9381912" data-classfp="C5" data-funcstat="A" data-geoid="2626360" data-intptlat="+45.7462887" data-intptlon="-087.0836048" data-lsad="25" data-mtfcc="G4110" data-name="Escanaba" data-namelsad="Escanaba city" data-pcicbsa="Y" data-pcinecta="N" data-placefp="26360" data-placens="01626247" data-statefp="26"/></g><g fill="#000" font-family="Arial" font-size="12px" id="mylayer-label" stroke="none"><text text-anchor="middle" y="479.555859085"><tspan dy="0" x="592.214973154"><![CDATA[Escanaba]]></tspan></text></g></svg>