<?xml version="1.0" encoding="utf-8"?><!DOCTYPE svg  PUBLIC '-//W3C//DTD SVG 1.1//EN'  'http://www.w3.org/Graphics/SVG/1.1/DTD/svg11.dtd'><svg enable_background="new 0 0 1000 1001" height="1001px" pretty_print="False" style="stroke-linejoin: round; stroke:#000; fill: none;" version="1.1" viewBox="0 0 1000 1001" width="1000px" xmlns="http://www.w3.org/2000/svg" xmlns:xlink="http://www.w3.org/1999/xlink"><defs><style type="text/css"><![CDATA[path { fill-rule: evenodd; }]]></style></defs><metadata><views><view h="1001" padding="0" w="1000"><proj flip="auto" id="robinson" lon0="-95.3880521709"/><bbox h="0.69" w="0.45" x="-1308.71" y="-655.99"/></view></views></metadata><g class="" id="mylayer"><path d="M591.787071,0.000000L559.732443,76.309459L558.494703,79.814646L555.654951,87.847389L549.516856,105.081374L548.634324,107.588589L520.562679,188.429570L520.232027,189.257226L485.994780,189.914482L475.590244,216.983874L470.838859,230.056174L470.326870,231.419397L468.249444,231.419397L466.528147,231.419397L454.387788,231.346368L438.530742,234.900491L435.388954,242.739057L387.563811,242.909461L387.101733,244.929965L386.799056,251.161895L385.558866,257.466873L384.511547,261.361849L382.086409,262.919842L379.019004,264.502179L376.800719,266.352298L375.748120,268.470199L374.902377,270.880227L372.912657,272.121757L367.821725,272.243476L363.613724,275.335134L361.504713,281.372399L361.315305,286.460269L359.440221,293.666076L357.558737,298.096685L411.916545,298.023653L413.103662,298.023653L408.720450,309.221936L387.835170,363.315317L401.605905,363.315317L419.429666,363.217938L398.023799,419.917606L380.904373,466.101287L411.969899,465.833482L426.696760,465.711752L415.458313,494.756594L410.316850,507.611433L433.863977,507.027120L438.163410,495.413942L448.757830,466.661242L450.705991,466.636896L454.581018,466.539513L450.060546,478.688151L447.255117,486.162397L457.142010,486.284128L460.478707,478.395999L465.673471,465.979557L466.305532,464.348383L476.509039,464.153616L475.774949,466.003903L467.898134,485.724167L467.476274,486.795396L499.776051,487.404049L467.995368,572.349347L422.139721,572.325000L424.528954,566.116506L417.555027,566.140853L415.115563,572.325000L411.028923,572.300653L384.599174,644.685690L314.869381,645.586561L279.892662,735.699916L275.121519,747.996133L272.268896,751.380649L269.918402,757.224428L268.211830,762.142955L266.788243,769.472067L252.704269,805.752747L179.677014,993.837430L179.319405,994.738444L177.721615,999.000000L269.973366,998.366854L278.817379,975.938990L287.560596,975.841584L309.625647,975.573717L370.683523,974.697063L375.896684,961.108963L434.273886,809.283449L438.372841,798.618311L389.816447,798.983555L396.144042,781.744123L397.766698,776.995998L446.755156,776.849902L453.544042,759.172359L454.990132,755.422595L409.664011,755.617387L416.486852,736.795616L417.694032,733.630262L422.374416,733.654611L463.574009,733.118937L497.618975,644.636994L624.975068,643.346557L683.910382,642.737861L685.078016,639.889164L684.729498,639.499599L684.454080,638.598730L684.464809,637.673514L684.464860,637.040471L685.060186,634.556998L718.276776,545.445996L718.489975,544.666899L741.492024,483.581710L729.165339,483.581710L730.956164,478.809881L735.926766,465.249180L746.565487,465.370910L754.365683,465.516985L770.888356,418.383848L771.496060,416.606636L810.103984,304.060981L820.905743,275.554228L822.278385,271.634882L820.273230,269.492635L820.620560,268.567574L817.276381,265.670675L813.785493,260.266386L805.780624,254.764737L799.157864,248.849263L794.986030,245.416834L790.949822,241.570573L788.374230,238.892800L780.854631,234.364938L777.171477,230.737785L765.713595,225.211867L754.036031,217.373364L747.907791,212.407371L747.281735,210.070436L746.241968,207.149272L740.261852,204.739314L733.161512,202.572789L729.671040,200.698381L722.940218,199.286491L720.604647,197.971973L718.611425,196.852199L716.332350,195.123853L711.397328,193.882366L709.783201,189.013797L709.636547,186.822945L708.971549,176.477282L708.964566,171.754808L705.907646,170.464649L703.061302,167.981704L700.749889,163.916496L698.517173,157.587445L697.445346,155.226227L695.534188,148.093904L694.149739,143.931364L692.453517,142.495168L693.189621,140.377388L692.589822,137.602371L689.298444,133.512877L689.171597,128.425364L687.371591,124.579309L685.771262,120.149051L677.186310,114.087889L668.076043,108.635291L660.994328,106.420178L656.541466,100.261686L652.822841,92.886125L649.631657,84.001406L648.977666,80.423186L649.706754,77.429171L648.861721,75.360138L646.305916,73.631889L636.357001,63.408469L632.429814,56.641566L631.658068,48.901033L625.090342,42.474951L617.239294,31.618810L605.572125,17.281972L595.336326,4.454354L591.787071,0.000000Z M530.824204,557.302908L542.805398,525.798236L551.935775,526.723406L562.291324,527.916388L584.871183,531.860537L589.290459,543.863456L586.804128,548.854547L580.285100,559.055886L530.824204,557.302908Z " data-aland="4589772" data-awater="19369" data-classfp="C1" data-funcstat="A" data-geoid="2039150" data-intptlat="+39.0258255" data-intptlon="-095.3950156" data-lsad="25" data-mtfcc="G4110" data-name="Lecompton" data-namelsad="Lecompton city" data-pcicbsa="N" data-pcinecta="N" data-placefp="39150" data-placens="02395667" data-statefp="20"/></g><g fill="#000" font-family="Arial" font-size="12px" id="mylayer-label" stroke="none"><text text-anchor="middle" y="481.349235802"><tspan dy="0" x="524.150209524"><![CDATA[Lecompton]]></tspan></text></g></svg>