<?xml version="1.0" encoding="utf-8"?><!DOCTYPE svg  PUBLIC '-//W3C//DTD SVG 1.1//EN'  'http://www.w3.org/Graphics/SVG/1.1/DTD/svg11.dtd'><svg enable_background="new 0 0 1000 1001" height="1001px" pretty_print="False" style="stroke-linejoin: round; stroke:#000; fill: none;" version="1.1" viewBox="0 0 1000 1001" width="1000px" xmlns="http://www.w3.org/2000/svg" xmlns:xlink="http://www.w3.org/1999/xlink"><defs><style type="text/css"><![CDATA[path { fill-rule: evenodd; }]]></style></defs><metadata><views><view h="1001" padding="0" w="1000"><proj flip="auto" id="robinson" lon0="-94.7141197518"/><bbox h="0.47" w="0.63" x="-1303.52" y="-644.7"/></view></views></metadata><g class="" id="mylayer"><path d="M1000.000000,408.082021L838.105834,405.463749L843.079054,392.075500L872.543844,309.938659L892.255506,256.900306L905.037881,221.406906L925.087679,166.102717L930.833185,150.151309L937.580178,131.662884L757.036237,127.965211L755.952562,127.938220L754.980683,127.722298L754.064686,127.533366L751.496411,127.560356L746.700026,127.641327L729.227486,127.884240L719.109847,128.289094L705.860207,128.828900L686.183840,129.179774L587.282231,129.584629L532.597782,129.260745L496.213405,230.259978L460.946957,230.907765L173.540110,235.253337L168.034121,235.361302L117.741569,236.198027L108.955944,260.706084L95.671082,298.494181L78.172319,347.862259L72.708340,363.274747L66.641732,380.360825L59.333341,400.956006L50.673957,424.817418L22.007677,503.690824L20.731919,507.172956L0.000000,564.264236L6.150396,570.445807L7.742069,572.038441L11.314230,575.601624L31.481397,595.820059L41.265293,610.072912L49.368633,599.653207L58.789156,591.042127L71.949255,579.029842L78.427534,578.894873L66.558931,610.099906L66.464201,610.666783L61.619707,623.030103L28.019446,711.329252L41.224324,712.436043L315.469243,712.759981L325.151586,718.914824L330.658596,721.965254L328.434117,729.361884L321.978565,746.692736L317.004750,760.514288L309.257802,782.650482L301.101008,807.081446L287.174148,844.632578L282.283473,866.310376L498.195815,871.466634L531.674336,778.412200L702.433825,778.304218L703.524048,775.334724L718.010519,735.435771L720.062398,729.793805L720.674318,728.093118L724.192906,718.374925L735.778633,686.359071L744.438661,662.900763L753.098995,639.442614L782.141996,559.108436L785.710083,549.255751L792.071577,531.763930L795.583955,522.127271L795.739413,521.695376L804.877682,496.672583L896.488855,499.587850L964.906312,501.747309L969.511633,489.195473L981.671579,456.992798L1000.000000,408.082021Z " data-aland="7033039" data-awater="636246" data-classfp="C1" data-funcstat="A" data-geoid="2041465" data-intptlat="+38.3761719" data-intptlon="-094.7105243" data-lsad="25" data-mtfcc="G4110" data-name="Linn Valley" data-namelsad="Linn Valley city" data-pcicbsa="N" data-pcinecta="N" data-placefp="41465" data-placens="02395723" data-statefp="20"/></g><g fill="#000" font-family="Arial" font-size="12px" id="mylayer-label" stroke="none"><text text-anchor="middle" y="466.050639783"><tspan dy="0" x="478.973346349"><![CDATA[Linn Valley]]></tspan></text></g></svg>