<?xml version="1.0" encoding="utf-8"?><!DOCTYPE svg  PUBLIC '-//W3C//DTD SVG 1.1//EN'  'http://www.w3.org/Graphics/SVG/1.1/DTD/svg11.dtd'><svg enable_background="new 0 0 1000 1001" height="1001px" pretty_print="False" style="stroke-linejoin: round; stroke:#000; fill: none;" version="1.1" viewBox="0 0 1000 1001" width="1000px" xmlns="http://www.w3.org/2000/svg" xmlns:xlink="http://www.w3.org/1999/xlink"><defs><style type="text/css"><![CDATA[path { fill-rule: evenodd; }]]></style></defs><metadata><views><view h="1001" padding="0" w="1000"><proj flip="auto" id="robinson" lon0="-97.3286026196"/><bbox h="0.12" w="0.12" x="-1334.21" y="-658.02"/></view></views></metadata><g class="" id="mylayer"><path d="M1000.000000,449.334637L903.290911,447.139084L912.503087,423.262476L734.698880,410.226418L806.524278,255.029830L630.106726,244.189473L633.994859,235.270200L655.794041,186.008491L741.145604,4.743661L679.655191,5.292529L541.437111,3.645927L495.885308,3.097060L463.175354,2.822626L440.734309,2.548193L399.817536,2.136542L395.571351,9.957902L384.870532,34.794184L361.009317,81.585334L339.775425,136.609772L255.152679,350.123515L191.923957,510.810278L165.076448,577.500737L151.243503,607.278287L129.430762,663.814674L81.826962,781.416724L60.496357,839.600674L37.188183,893.942548L16.128818,951.715374L0.000000,994.393345L75.861864,995.079488L112.703041,995.353945L123.812355,995.491173L197.958449,996.863458L250.944645,995.216716L269.311795,990.139264L292.529273,990.139264L297.475164,991.786005L359.135612,996.589001L569.802974,995.628402L789.335679,994.256117L873.839238,773.457622L906.243101,689.750147L930.241839,628.410788L992.052866,469.643518L1000.000000,449.334637Z "/></g><g fill="#000" font-family="Arial" font-size="12px" id="mylayer-label" stroke="none"><text text-anchor="middle" y="572.646231121"><tspan dy="0" x="506.59424482"><![CDATA[N]]></tspan></text></g></svg>