<?xml version="1.0" encoding="utf-8"?><!DOCTYPE svg  PUBLIC '-//W3C//DTD SVG 1.1//EN'  'http://www.w3.org/Graphics/SVG/1.1/DTD/svg11.dtd'><svg enable_background="new 0 0 1000 1001" height="1001px" pretty_print="False" style="stroke-linejoin: round; stroke:#000; fill: none;" version="1.1" viewBox="0 0 1000 1001" width="1000px" xmlns="http://www.w3.org/2000/svg" xmlns:xlink="http://www.w3.org/1999/xlink"><defs><style type="text/css"><![CDATA[path { fill-rule: evenodd; }]]></style></defs><metadata><views><view h="1001" padding="0" w="1000"><proj flip="auto" id="robinson" lon0="-78.2805876378"/><bbox h="0.38" w="0.51" x="-1052.48" y="-718.99"/></view></views></metadata><g class="" id="mylayer"><path d="M1000.000000,684.670538L999.190197,682.047740L998.415711,679.616854L996.483390,675.362806L995.988405,674.691114L994.500524,672.612069L992.812051,671.076774L991.262075,669.669421L987.525289,667.430450L987.092061,667.238539L984.952450,666.278980L979.535469,664.423833L979.146426,664.327877L960.843656,660.009865L954.728013,658.538543L956.627100,655.691854L962.294915,647.087824L964.179280,644.209154L920.887358,631.766911L873.684745,618.205203L910.618987,505.522183L929.927136,446.510425L930.824245,443.791734L933.527386,435.603682L934.436306,432.853009L934.557371,432.309272L934.891119,430.614090L934.997461,430.038369L900.106128,430.134322L898.541060,430.134322L845.313651,430.965921L829.766030,431.189812L826.980862,430.901951L732.487463,430.486152L729.156918,430.454168L750.771080,363.766596L768.735194,308.337878L775.512395,305.715176L756.636151,279.168354L784.955063,265.255289L781.378100,240.019913L838.858675,189.645298L825.996656,156.797983L822.779514,149.057930L812.682197,122.447542L629.399207,122.863329L628.516192,125.901771L609.152837,192.076068L597.120477,237.173341L658.620955,266.310762L657.101381,286.524696L656.794131,287.931996L677.571775,289.851043L675.886134,330.279043L669.793447,331.334522L649.041894,335.812317L624.071215,343.168699L617.291557,368.436311L588.445965,379.822749L524.435855,378.031623L496.368662,388.458538L494.060431,389.322118L485.195668,393.288187L475.855903,398.181807L473.187814,399.589123L466.869721,403.267336L463.824139,405.122435L455.070424,410.943610L445.237286,418.108139L440.678824,421.690405L434.878725,426.839914L434.687065,426.999837L434.035706,426.967852L328.364557,423.417569L321.523772,423.193677L242.367031,420.538962L217.588491,420.187132L159.033102,419.355535L157.852700,421.978265L135.473417,486.843086L65.609921,689.276429L42.306084,756.733782L9.950501,848.436843L0.000000,876.552458L206.182257,872.810102L282.732678,871.402720L302.142879,871.210805L360.370548,870.571086L379.777816,870.315199L396.903619,870.059311L448.269217,869.323635L465.380286,869.035761L477.471494,868.907818L513.780515,868.428029L525.856992,868.268099L544.223685,868.172141L599.244176,867.884268L617.569610,867.756324L638.085120,867.660366L699.602188,867.308521L720.114765,867.148592L736.294304,867.084620L784.815259,866.796746L789.230811,866.764760L794.036108,852.658978L796.882701,844.438610L805.446194,819.713576L808.278136,811.461250L808.673446,810.245791L813.060143,797.131644L826.244136,757.725335L830.642835,744.579271L833.203304,737.926282L834.241603,735.399426L837.156756,735.335455L847.225690,735.079571L861.284753,747.809811L865.295352,751.392193L868.310023,753.791110L872.164400,757.437465L883.674538,768.376538L887.514228,771.990913L886.605709,753.311326L883.863398,697.176817L883.303938,685.822011L889.861298,679.265016L894.816675,677.409867L907.425688,679.041118L917.738684,680.352517L924.448967,674.819056L958.922087,678.593324L975.958244,680.448473L980.786040,681.312077L995.186926,683.838919L1000.000000,684.670538Z M578.312650,416.764789L588.356988,405.218388L602.628224,405.218388L591.094816,430.646075L581.645518,430.518137L578.312650,416.764789Z "/></g><g fill="#000" font-family="Arial" font-size="12px" id="mylayer-label" stroke="none"><text text-anchor="middle" y="594.548209743"><tspan dy="0" x="505.077778452"><![CDATA[N]]></tspan></text></g></svg>