<?xml version="1.0" encoding="utf-8"?><!DOCTYPE svg  PUBLIC '-//W3C//DTD SVG 1.1//EN'  'http://www.w3.org/Graphics/SVG/1.1/DTD/svg11.dtd'><svg enable_background="new 0 0 1000 1001" height="1001px" pretty_print="False" style="stroke-linejoin: round; stroke:#000; fill: none;" version="1.1" viewBox="0 0 1000 1001" width="1000px" xmlns="http://www.w3.org/2000/svg" xmlns:xlink="http://www.w3.org/1999/xlink"><defs><style type="text/css"><![CDATA[path { fill-rule: evenodd; }]]></style></defs><metadata><views><view h="1001" padding="0" w="1000"><proj flip="auto" id="robinson" lon0="-76.1706247444"/><bbox h="0.46" w="0.26" x="-1046.71" y="-649.92"/></view></views></metadata><g class="" id="mylayer"><path d="M745.223302,0.000000L726.615842,0.962806L670.766055,3.740131L652.139438,4.665907L649.131492,6.924800L625.388298,34.624122L606.807399,47.029630L596.500127,53.880449L557.100121,68.026504L523.810564,76.210501L474.609185,86.097978L454.212442,90.689923L438.266361,94.244981L411.499917,113.538632L407.460245,116.649326L404.523268,118.871251L395.164867,135.869022L384.695162,157.051533L369.411171,206.230946L372.748599,233.783537L373.108451,236.746192L384.553067,269.928086L394.751676,323.478919L400.638587,361.772283L407.058555,403.362112L398.839412,439.471177L383.534002,462.395976L387.198339,471.691852L369.547568,485.024622L358.907760,508.838543L352.114749,547.355917L352.277212,548.948470L354.757981,576.059011L423.102813,588.725475L420.909429,600.984577L420.667518,602.317895L417.381086,613.799267L413.699739,623.354757L410.076359,630.465834L405.950180,637.243591L399.732208,647.354693L398.681818,648.576916L389.331969,659.428790L382.787141,664.317699L379.100951,665.206592L376.289698,667.206602L368.432004,672.984415L358.015468,678.984461L356.279016,679.577058L354.887276,680.836328L351.346754,682.762272L347.752138,685.280814L346.397523,688.354920L345.109798,689.873455L324.353698,702.429170L321.875178,703.910672L306.502701,714.096019L299.940267,717.614600L289.481331,722.022089L281.820055,727.540717L269.423296,736.392761L263.912709,740.318778L249.587199,751.541283L247.742939,753.726527L246.837146,754.763592L244.661312,755.726582L241.549233,760.282266L239.890863,762.652705L234.751655,769.504764L228.836984,776.542027L221.813344,795.320466L220.790400,802.580005L222.336477,805.802356L224.608460,808.395053L228.932793,818.210282L233.450528,824.506856L237.169171,831.988680L239.079971,836.729646L242.258598,842.063239L242.959835,847.137567L243.600611,851.804472L243.660774,854.767590L245.600208,860.841988L249.410579,866.990473L252.288762,869.360976L254.103495,873.509359L255.775896,877.324394L256.677182,877.324394L258.872659,879.768982L266.278682,898.621987L269.866873,912.067309L269.076457,913.734087L271.809451,923.957011L270.881538,924.660764L270.625461,925.327477L271.647724,926.142349L271.424092,929.253681L268.613554,929.105522L268.270771,930.475990L270.587912,931.587181L269.588197,937.032020L269.438173,939.995201L270.582226,942.439827L272.771956,952.773944L272.931249,953.662902L282.437625,999.000000L300.456222,983.591255L358.553450,933.735484L357.330117,925.734913L354.556300,907.474411L352.485872,893.362397L352.141244,881.657982L353.625667,880.287531L362.002328,872.027793L367.545665,865.434831L372.152042,858.656685L378.438468,849.433980L379.548088,847.396839L381.261972,846.063438L385.562548,845.026349L388.416609,845.026349L392.282539,849.248785L393.881761,853.619382L398.559013,860.804949L403.692271,876.250258L406.522616,893.806869L407.625316,906.918819L408.432059,913.474810L407.821020,927.920253L407.548246,930.994546L407.435766,946.810526L409.894849,955.922337L415.666581,956.626095L422.629709,955.218578L424.487974,956.255696L430.221260,959.441131L437.266687,966.441689L442.063306,972.405136L446.940780,971.960656L448.519150,971.701375L453.124566,969.627132L462.007005,967.515849L467.769350,964.367448L471.056849,960.848649L474.167540,958.033613L477.430943,957.663213L482.578628,951.699788L483.140061,947.847641L481.561547,942.587986L479.791487,936.957941L480.141144,928.920324L480.429353,922.216149L481.820361,903.992702L482.265537,901.251785L483.538998,896.510742L484.681813,892.214178L485.981094,885.954536L486.152268,879.546747L487.199738,875.472435L487.949005,870.879580L488.308158,861.175339L486.262102,852.397096L482.768834,829.840432L484.235957,810.543290L482.215115,807.913552L478.533279,804.802315L469.599151,798.505772L453.483727,790.986972L449.503052,789.505437L440.115425,785.875678L437.127315,785.616409L436.200865,784.986758L434.323944,784.320068L433.370463,783.986723L420.676268,778.319863L422.906858,774.616038L472.441150,691.873478L478.001689,682.873384L484.312195,672.651080L499.742690,648.169509L505.398355,638.539885L507.303519,634.206562L507.342638,632.132495L507.073805,630.799166L505.850081,627.502884L502.140642,617.539980L500.897790,614.206672L500.711555,613.614084L500.122806,611.836321L499.906529,611.243733L501.482589,611.502990L503.577977,612.243725L505.662834,613.428900L506.988028,614.132598L519.762883,615.947399L558.090123,621.280695L570.845856,623.058463L573.266091,623.614015L578.846718,624.762157L602.966500,629.576949L611.000052,631.169535L617.161644,631.465830L635.588970,632.243606L641.731413,632.502864L651.422889,613.132606L680.448768,554.985364L690.121523,535.578449L680.800741,535.911773L652.789198,536.874710L643.449263,537.170998L639.571268,537.282106L627.888091,537.578394L627.347343,537.578394L628.255955,533.467397L631.537336,519.245604L641.403696,476.506459L644.666217,462.247834L645.859613,462.173764L649.431544,461.877481L650.616684,461.729340L657.148828,461.173810L676.706956,459.433151L683.230841,458.803551L694.178701,457.840633L711.208076,456.322187L726.992225,454.951883L737.920928,453.951931L741.312605,453.655649L751.457595,452.766803L754.830124,452.433486L684.120280,418.398257L685.010058,377.585995L702.790004,375.660200L702.341368,378.104479L707.658284,377.697099L709.845661,377.511926L734.870415,374.956545L734.210189,379.141446L766.231836,376.697167L768.333645,361.994490L772.922754,332.811504L779.209600,291.629789L741.653405,201.898097L723.778233,159.125351L738.448993,50.473554L743.310205,14.256954L743.698826,11.405559L744.864708,2.851387L745.223302,0.000000Z "/></g><g fill="#000" font-family="Arial" font-size="12px" id="mylayer-label" stroke="none"><text text-anchor="middle" y="433.542285141"><tspan dy="0" x="514.936601536"><![CDATA[N]]></tspan></text></g></svg>