<?xml version="1.0" encoding="utf-8"?><!DOCTYPE svg  PUBLIC '-//W3C//DTD SVG 1.1//EN'  'http://www.w3.org/Graphics/SVG/1.1/DTD/svg11.dtd'><svg enable_background="new 0 0 1000 1001" height="1001px" pretty_print="False" style="stroke-linejoin: round; stroke:#000; fill: none;" version="1.1" viewBox="0 0 1000 1001" width="1000px" xmlns="http://www.w3.org/2000/svg" xmlns:xlink="http://www.w3.org/1999/xlink"><defs><style type="text/css"><![CDATA[path { fill-rule: evenodd; }]]></style></defs><metadata><views><view h="1001" padding="0" w="1000"><proj flip="auto" id="robinson" lon0="-108.727619717"/><bbox h="1.7" w="2.54" x="-1461.3" y="-721.88"/></view></views></metadata><g class="" id="mylayer"><path d="M1000.000000,617.683262L999.041472,616.236184L997.435577,616.121438L995.509928,616.299932L994.406875,616.790791L993.599565,617.817132L992.642389,620.328802L992.261437,623.159214L990.735443,625.811135L988.454792,627.545085L984.367671,629.081417L978.415543,632.664069L975.967680,633.365301L972.897596,634.238653L969.409258,634.372524L967.466254,633.205930L966.588288,631.612222L967.050021,629.406533L968.219528,627.098848L971.683926,621.661135L971.945606,620.647542L972.274104,619.359833L971.835184,616.510300L970.575014,613.788266L967.989831,613.182662L967.362221,613.036042L967.285472,613.010543L960.891993,610.702874L957.183355,609.568164L955.766704,607.438991L955.299217,606.157664L954.014417,605.150451L951.266823,605.303446L949.273139,606.674019L947.835739,606.858888L947.538746,605.883549L947.400964,604.608597L946.158164,603.684257L943.000273,603.977496L940.506387,604.583098L937.490216,606.297908L936.014192,606.712268L934.782594,606.527400L933.088845,605.513813L932.010570,604.742467L931.631634,603.607760L932.020817,601.975823L932.833503,600.949488L935.400091,599.451422L939.053023,597.711117L940.680729,596.487167L941.133503,595.040102L940.854489,593.937273L940.595577,592.898192L938.589538,591.463879L933.556295,587.116320L933.090551,586.058118L933.360559,584.349696L932.962033,583.705850L931.988040,582.896263L930.945477,582.724146L930.649293,582.673148L927.929121,583.348867L926.715183,584.024585L924.112601,585.458895L919.838649,588.263769L916.004163,592.311717L914.289995,594.166764L912.561985,596.028186L910.892636,597.405130L910.230360,597.634620L908.891963,598.099976L907.677430,598.036229L906.505477,597.889610L905.663583,597.532624L905.051335,596.512666L904.807120,594.899858L905.072521,592.891818L906.242424,590.902903L907.363857,589.615209L909.378571,587.288437L910.489819,585.784005L910.475720,584.515438L910.691999,583.508234L912.116260,580.448378L912.205707,579.441176L911.639594,578.382977L910.448015,578.274607L909.315756,578.287356L907.600167,579.065069L906.463978,580.155142L904.975195,582.507406L902.958783,585.516267L901.318258,587.454180L899.894677,588.537882L898.752265,589.105232L897.908363,589.194478L896.978952,588.760997L895.621225,586.599968L894.569601,586.013495L893.553605,586.026244L892.378815,586.440600L889.935689,588.397638L887.807497,588.939489L886.757638,588.760997L885.794350,588.588879L884.528233,587.288437L884.442675,586.446975L884.244452,585.063663L882.930817,583.310619L882.362982,582.615776L882.331650,580.403755L883.181509,579.243560L883.230121,579.179813L883.750620,578.701711L886.407114,576.884925L887.097123,576.190084L887.593817,575.552615L888.164539,574.462544L888.148232,572.817877L887.628422,572.225032L886.951635,570.765232L885.458913,570.522994L881.619961,571.740557L879.295135,572.027417L877.193897,571.766055L875.837808,570.414625L875.189904,567.201792L877.414674,561.566596L878.678570,560.043055L879.674978,558.844622L882.685189,558.015919L884.422845,556.670870L885.085507,554.815852L884.694002,553.623796L883.449573,551.787903L883.008245,549.901015L883.512447,547.274673L884.085467,544.514467L884.201384,543.959877L884.153239,543.035559L884.002778,539.924755L881.923398,537.132684L881.811610,535.201185L881.934622,534.601974L882.598702,534.327867L883.928029,533.900771L885.958967,533.486423L887.216832,532.715099L888.286555,531.816284L889.033259,530.445751L888.959565,529.406696L888.287645,528.750116L887.168430,528.552504L885.865838,528.578002L883.995668,529.049720L883.268692,528.973225L883.009097,528.501508L882.958767,526.882368L882.530058,525.773195L881.700137,525.403470L879.219046,525.110241L878.232275,525.148488L875.732475,525.601082L873.047390,527.092729L871.684130,527.462454L870.190442,527.602694L867.742429,527.481577L865.839699,527.430581L864.379938,527.628192L861.780246,528.367642L855.484788,530.930218L853.837730,530.885596L852.752447,530.745356L852.305886,530.267263L852.065018,529.049720L852.556946,527.558072L852.859242,527.175598L853.023178,527.041732L853.097801,526.875994L853.590036,526.257661L855.572920,524.281549L856.387854,523.261620L856.601268,522.630539L855.982350,521.521368L853.907474,520.890287L852.083016,519.628127L849.879948,518.824935L847.339052,518.761190L845.086053,518.990673L841.951100,520.010600L838.943829,520.915786L836.883084,521.151644L833.572426,520.724549L832.449896,519.710997L831.954266,518.372343L832.382543,516.644843L833.347538,514.993839L834.061594,513.687060L834.152334,512.934866L833.847279,511.832073L833.589441,511.130875L834.276735,510.225693L835.282265,509.441627L835.177183,508.453577L834.400004,507.395408L832.936945,506.777080L829.157721,507.261543L826.627863,508.122102L823.853343,509.900593L820.732398,512.424903L818.566864,514.509374L816.985710,515.395434L815.558719,515.529299L814.856824,515.280693L814.343316,514.573119L814.700220,512.501398L817.997491,506.694211L818.485981,504.973094L818.087767,503.691818L817.021601,502.219308L815.261558,500.842417L812.964825,500.211342L811.726538,500.122099L810.682349,500.498194L808.226871,502.283053L805.413961,503.889428L804.340562,504.558751L803.717796,505.585047L803.694003,506.566721L804.030877,507.216921L804.639327,508.377083L806.831545,511.092628L807.045811,512.947615L806.339455,515.185075L805.050902,516.714963L803.668847,517.830507L802.989844,519.315775L802.306414,520.686302L800.796975,522.152448L799.437268,522.751656L797.754892,523.115005L795.213988,523.051260L792.954678,522.707034L790.529592,521.718979L789.523509,520.252833L790.257151,517.900627L790.677898,517.071937L791.158786,516.249622L792.294242,515.408183L794.294351,514.879097L796.448865,514.471127L797.247488,513.483075L797.821856,512.252791L797.743584,510.863145L797.159184,510.098203L795.088070,509.562743L794.561404,509.518121L794.125436,509.358759L793.093895,509.103778L791.596073,508.542820L790.644787,507.216921L790.561093,507.102180L789.328710,504.698990L788.734227,502.895006L788.557223,498.439233L787.462111,495.985055L787.394809,495.838442L786.369548,494.831274L784.549888,494.557171L780.853329,496.227285L779.152404,497.572302L778.402970,498.649591L778.289779,499.918115L777.416604,503.589826L776.347046,506.050386L775.994877,507.516524L776.278263,509.658361L776.039626,511.099002L775.153270,512.781877L773.262619,514.413756L769.431867,516.714963L766.499422,517.186678L764.794586,517.059188L763.928626,516.255996L763.856934,515.675914L764.511217,514.598618L765.742681,513.642438L767.094999,512.348409L767.560593,511.494223L767.677317,510.455176L767.498012,510.053581L767.219284,509.403380L766.221276,508.281465L764.269288,507.134053L761.588048,506.490227L756.639153,507.204172L753.690657,507.624890L748.727246,508.510948L745.603690,509.097403L743.884415,508.823299L743.877454,508.734056L743.701255,508.778677L742.387963,508.434454L741.198594,507.191423L741.346165,505.259947L741.035885,504.475882L740.382983,504.080663L739.242754,503.564328L736.750844,502.346798L735.971590,502.238432L734.797529,502.353173L731.591959,502.914129L728.392942,503.462336L723.643593,505.196202L723.382103,505.221700L722.757442,505.285445L721.864465,505.151580L721.095370,504.437635L720.535654,503.213731L721.189472,501.664727L723.146127,500.326083L725.492041,500.039230L728.788386,499.548394L730.144327,498.483854L730.917289,496.826487L730.748984,496.526886L730.434250,495.946808L729.431049,494.824899L727.926822,493.454386L727.079040,491.701405L725.968263,489.247234L724.778127,488.118953L723.658287,487.398639L722.543318,487.079915L721.172942,486.990673L719.682551,487.124537L717.185903,488.393055L715.444512,488.871140L713.510868,489.342851L711.167885,490.209778L709.677490,490.343642L706.111341,489.910178L704.083643,490.318144L702.025824,491.134077L700.832334,492.026503L699.825197,493.275900L697.407686,498.069512L694.946343,502.455165L693.441389,504.271898L692.311928,505.317317L691.244948,506.292617L688.973593,507.739631L687.133114,508.389832L685.421812,508.459952L683.698140,508.071106L682.609974,507.350786L681.863055,505.884649L681.236158,504.195404L681.098187,503.035245L681.275950,502.206559L679.158827,501.709348L677.313411,501.773093L675.238729,502.334049L673.523524,503.264727L671.542520,504.979468L670.684228,506.114131L670.654389,506.254370L670.551560,506.649590L670.896645,507.561145L674.641383,508.880670L675.731812,510.346809L675.740969,510.997010L675.210417,511.812949L674.028711,512.507772L672.447109,512.973113L671.161989,512.902993L669.391484,512.533270L668.100145,512.393031L666.889612,512.475900L664.082955,513.196221L661.658394,514.324513L659.842252,514.783479L658.349620,514.859973L657.478314,514.694236L656.736257,514.133277L656.289284,513.183472L655.790306,510.926890L655.431869,509.301388L654.596149,507.586643L653.295228,506.509351L650.574635,506.260745L649.058867,506.330864L648.691285,506.254370L647.112778,506.158753L644.832087,505.897398L643.002517,504.769110L642.585398,504.182655L642.615328,503.723691L642.736962,503.404966L643.023921,502.620902L644.178048,501.620106L646.087485,500.517317L648.107166,499.395406L648.997367,498.815328L649.867199,497.750788L650.085753,496.698997L650.020198,494.946014L650.255047,493.492633L651.508497,490.490255L651.890891,489.438468L652.116952,488.444051L652.108145,487.526128L651.526795,486.652826L650.707304,485.173952L649.967629,483.663206L649.794132,482.860025L650.296146,481.298284L651.381889,480.718210L652.827806,480.526976L653.078186,480.533351L654.809707,480.577972L658.327454,480.807452L660.326195,480.424985L661.888826,479.143722L661.355431,479.060854L658.199245,476.638567L657.010353,475.631406L656.422392,474.401141L656.603624,473.247369L656.415913,472.348575L655.885332,471.787625L655.067383,471.220302L652.773247,470.697599L651.020951,470.570111L650.041004,470.831462L648.953054,471.354165L647.198295,472.495187L645.548575,473.986803L644.643934,475.293561L644.302610,476.039370L644.245337,476.613069L643.996938,477.301509L643.453768,478.295921L642.492388,479.271211L642.025815,479.736545L640.212933,480.877571L638.263062,481.432148L636.611929,481.508641L634.496252,481.368403L633.566971,480.883945L632.313549,479.755668L630.768589,477.868834L630.211311,475.140575L630.023385,474.005926L629.167735,471.672886L629.256670,469.856175L629.471361,468.103211L630.058521,466.324749L630.856276,465.215602L632.536440,463.551882L634.237620,462.206883L635.208144,461.193353L635.722933,460.192573L635.678304,459.210916L635.270546,458.452363L634.180365,457.674688L632.380315,457.311348L629.254560,457.840422L625.860044,459.631626L622.260175,460.383805L620.562459,460.715273L618.859326,461.365462L617.127926,461.875414L616.318320,461.939158L615.631852,461.722428L615.246541,461.135984L614.595267,458.662718L614.422866,455.998224L614.903785,454.940076L615.352318,454.232519L616.215938,453.416599L618.365464,452.371201L619.459338,452.371201L620.451964,452.855653L621.986528,453.416599L623.907485,453.257239L625.959690,452.154472L627.135388,450.885971L628.000984,449.891569L627.971702,448.941788L627.031573,448.540203L624.870465,448.776055L623.335488,449.171266L622.224325,449.317876L620.798078,449.286004L620.189640,449.266881L619.184307,449.094773L618.654689,448.419090L618.643322,447.845397L618.979031,446.812750L619.829543,446.022329L620.873593,445.410391L622.962113,444.658216L624.146649,443.988909L625.438479,443.039130L626.559311,441.394547L627.525588,439.393002L627.973595,436.919757L628.000859,434.268033L628.098316,431.839414L628.373739,430.749404L629.831262,427.957452L630.544720,426.529605L630.946979,425.439598L631.191999,424.521697L631.089545,423.775903L631.053447,423.476311L629.003809,422.386305L627.442202,422.175953L625.315929,422.354433L623.790983,422.781511L622.219793,423.935261L620.358709,425.292989L618.147935,426.395745L614.085803,426.988556L610.215908,427.587741L606.017993,427.715228L604.551118,427.218031L603.713613,426.504108L603.447159,425.337609L603.564472,424.534446L604.000658,423.501808L604.702847,421.500276L605.413798,419.728221L605.557891,418.287631L605.006485,417.407978L603.659898,416.738678L603.534168,416.674935L602.547285,416.477332L601.755197,416.630315L600.804951,417.070141L599.227893,418.070905L597.343272,419.874830L595.576165,420.926589L593.130303,422.054841L591.529186,422.794260L587.320202,424.247602L585.258799,424.834038L584.110095,424.457954L583.558687,423.578300L583.547936,423.527305L583.256001,422.246070L583.833781,420.352902L585.328840,417.847804L585.953650,416.356220L585.811885,415.317211L584.655367,414.596917L582.335405,414.361069L580.526188,414.724403L579.260334,415.387329L576.519077,417.223124L573.567725,420.155299L572.440361,421.863612L571.509429,423.457188L569.927465,426.593348L568.804495,428.416403L567.984718,429.321556L566.935892,430.086475L566.363186,430.264956L565.773898,430.424314L564.787002,430.226710L564.234683,429.461791L563.905757,428.180553L564.194908,426.108900L564.646606,423.865143L564.599773,422.405427L562.446521,422.430925L560.334814,422.622154L558.862322,422.947243L557.879808,423.603797L556.812746,424.814915L556.772112,424.904156L555.934283,426.676214L555.015913,427.536747L553.334965,428.492894L551.581310,429.251439L551.170960,429.761384L550.003516,431.896783L549.182821,432.916675L547.195393,434.427392L544.106628,435.511029L541.355862,435.804248L537.699647,435.957232L533.720553,437.066367L532.805271,437.314966L532.009336,437.136485L531.477435,436.722153L530.861157,435.064825L529.558290,432.954921L528.265087,433.547734L524.149867,434.828975L522.562197,434.905467L521.380693,434.593124L520.040662,434.095926L518.910188,433.088782L518.483818,431.514323L517.666239,429.704015L516.494804,427.944703L516.440505,427.906457L514.897516,426.982181L513.586835,426.746332L513.015770,426.644343L510.726574,426.708086L504.861869,427.887334L501.123278,428.837108L500.259024,428.760616L499.429575,428.626755L498.919017,428.263419L499.002509,427.402886L500.196999,426.159895L502.881678,424.547194L504.172724,423.712160L504.510956,422.972741L504.406585,422.220573L503.416094,421.557645L501.884953,421.175187L499.534717,421.347293L495.912438,421.372790L493.923074,420.289159L492.033953,418.969680L491.118108,416.980901L490.826807,416.222360L491.067763,415.425574L491.311079,414.737151L491.909184,413.882997L493.013461,413.277440L495.955584,412.365918L497.795272,411.830479L498.716037,411.448022L499.561224,410.606618L499.801864,409.338137L499.279170,408.515857L498.322765,408.146149L496.228195,408.324628L493.022627,408.885564L490.326344,409.452874L488.858648,409.070418L488.116206,408.305506L488.235996,407.610710L488.664690,406.469717L490.035427,405.366969L491.091271,404.506444L493.483970,402.485804L494.231574,401.115340L494.344507,399.961600L493.815905,398.565640L492.663704,397.724240L491.294405,397.520264L489.893727,397.603129L487.989551,398.017455L484.884715,398.865230L482.313830,399.209439L480.627830,399.107451L479.539694,398.839733L479.065047,398.724996L478.798969,397.794356L479.517079,396.481262L481.748050,394.282150L484.229384,392.089414L485.162414,390.266385L485.015396,388.991540L484.269448,387.761315L483.437413,387.047403L482.498313,385.925541L482.104378,384.873795L482.469595,383.496966L483.405151,382.018149L485.298925,380.679567L485.992625,380.532960L487.197810,380.265243L489.292203,379.850920L491.069414,379.200752L492.425003,378.486842L493.615268,377.129138L494.758649,374.209759L493.748281,372.507851L492.214650,371.545350L489.916858,371.379621L488.464910,371.921426L487.112860,373.100650L485.445180,374.502971L482.854107,375.707693L479.809404,376.561835L477.399243,376.963409L472.937648,376.217628L471.681281,376.389731L469.889524,376.842299L468.542260,376.893293L467.567647,376.784931L466.309909,376.549086L465.478349,376.357861L464.208555,376.268622L462.733537,376.434351L460.121688,377.556209L458.808733,378.187254L457.795943,378.512338L456.480381,378.563332L455.734937,377.855796L454.805743,375.924415L455.103143,374.197010L456.381466,372.093529L456.891719,371.800317L457.737379,371.666459L459.109737,371.813065L460.739093,372.373993L462.810905,372.711825L463.073658,372.673580L463.798509,372.558845L464.804608,372.010665L465.969612,370.589223L466.060226,368.052301L466.520340,366.388642L467.363328,365.254041L468.183595,364.635747L471.925407,363.864473L473.765099,363.329043L475.098898,362.411164L476.306575,360.906863L477.038867,359.453556L477.588829,357.789903L477.961580,355.864911L477.752709,355.418721L478.226698,355.144633L478.644012,354.908789L481.302068,353.378996L482.191368,352.862691L479.278560,349.847726L476.581824,347.049485L473.326766,341.548623L471.262838,340.159067L467.754553,337.787901L466.440058,336.933772L464.430615,335.633456L463.667991,333.255919L463.150910,331.643275L462.874963,330.865637L462.317267,327.710467L461.947970,325.626145L460.036764,321.980178L457.417771,320.673496L455.272764,320.118953L451.505619,319.143722L434.319209,305.637130L431.351720,303.304238L416.090265,283.302640L405.363232,272.390421L388.735991,265.353592L385.000677,264.512234L384.408015,264.206285L364.597254,253.791307L363.380270,253.179412L359.732613,251.337355L358.513638,250.719087L356.679316,249.705637L354.157687,248.303381L350.979638,246.913873L349.018979,246.053398L347.457739,245.371392L342.777321,243.319002L341.219377,242.630624L341.231313,241.725533L343.039460,238.226277L342.673778,235.746844L340.720051,235.447272L337.942397,235.013850L335.213759,231.368004L332.847391,231.807800L328.486940,233.554236L327.414696,233.420385L318.051951,232.273091L311.755302,231.501855L309.793459,231.833295L309.102050,231.616584L303.411430,230.048617L285.625892,225.140757L284.165557,224.847561L277.494897,223.489934L279.296545,219.901467L282.273105,214.145908L284.562514,209.703364L286.624303,205.815348L291.369400,196.566988L295.098354,189.065067L296.638423,186.107646L297.311843,184.801028L300.285229,178.949935L301.446993,176.757372L301.897761,175.903292L302.321674,175.132072L304.010054,172.040817L304.945745,170.256177L305.797315,168.624507L304.598954,169.217262L300.436030,172.537967L298.093827,173.863701L294.156859,174.214255L292.097616,174.908991L289.877023,174.768769L288.290817,175.539990L285.178892,175.724828L281.769825,175.922414L280.105521,176.629897L274.237256,179.128400L269.109104,181.308217L266.684413,181.410197L265.374144,180.887551L262.464517,181.161621L258.218881,181.926470L256.586483,182.213288L253.138110,183.296824L252.664491,183.252208L252.010535,183.188471L249.114404,184.584321L247.952301,185.916434L249.613152,187.911418L249.575996,188.096257L248.649727,192.455908L248.653283,199.275843L247.646452,202.602957L245.594956,206.204149L245.716164,207.568141L244.501537,210.468221L243.534130,211.730234L242.469442,213.406546L242.279057,213.827218L241.202313,216.172782L239.644532,219.882346L238.718305,220.736439L237.102436,222.744195L236.667996,221.813616L234.981434,220.647205L234.477149,220.016196L235.549659,218.550217L234.784222,217.810853L234.634087,216.995004L234.593269,216.797416L233.675496,215.892334L233.033669,215.681998L231.445369,215.924203L230.206060,214.802411L228.186993,214.732299L227.266304,213.228080L227.864198,211.832215L226.096854,210.812406L227.100395,207.491656L225.772866,205.464789L225.508876,203.291326L227.008763,200.340264L227.689368,198.989023L227.456999,197.523054L227.892280,196.299290L227.499345,192.028865L226.078478,191.895016L221.820451,191.474348L220.397587,191.334125L216.714854,191.703804L213.244873,190.594769L210.938035,190.314324L206.526213,191.442479L205.336295,191.742046L202.771905,191.971502L200.159966,192.200957L198.377137,192.041613L197.403479,191.952380L196.398763,190.836972L196.113558,189.084189L194.455765,185.935555L191.987786,183.590016L190.561317,183.067370L188.867108,183.207592L187.932888,183.041875L186.729097,182.825167L180.596017,180.231056L180.400541,180.231056L178.095748,180.479631L172.823947,179.740278L169.780866,179.740278L168.512077,179.670167L167.473232,179.389723L165.847380,178.095855L162.999847,176.814735L161.259068,176.030767L160.007240,175.087456L159.481703,174.877123L157.949876,173.933812L155.317495,168.618133L154.309536,168.267579L153.201496,166.973716L150.414537,165.851944L145.437892,165.851944L140.832114,167.878783L139.015873,168.337690L132.837460,168.127357L131.090681,168.369558L122.753124,168.822092L120.335689,169.453089L118.826645,169.695290L114.123364,168.611759L110.852058,168.439669L109.695315,168.541648L108.707380,168.541648L99.654730,168.229337L98.181832,168.401427L96.681439,168.401427L89.877126,168.790223L84.924823,170.115955L82.601085,170.995528L79.531761,172.142796L75.061123,173.302813L71.993491,174.877123L69.649597,176.974079L67.693672,177.847279L65.605962,178.299814L63.769681,178.408168L61.782445,177.815411L56.053311,173.895569L54.534851,174.074034L59.042247,183.672875L62.867386,192.577009L68.021618,200.984016L75.856609,213.763480L88.975759,247.493897L93.911832,257.137608L96.704884,260.350061L97.660369,262.976117L98.356731,268.668038L98.854842,270.172288L103.389444,283.857175L104.054002,285.100100L110.020723,296.273704L111.732798,297.739725L125.508667,298.198654L129.186395,298.064799L129.329055,298.064799L129.766886,298.045677L129.907547,298.039303L133.840176,297.892701L145.628776,297.440147L148.352867,297.331789L148.651660,298.351630L147.858136,298.938039L143.724069,300.244711L142.392322,300.850242L130.838551,306.076938L127.374325,309.283075L124.473227,313.088375L122.812426,315.255550L118.769015,318.468072L116.396748,320.354793L108.706906,324.727401L104.031337,326.767104L102.716887,327.646726L99.012152,330.119869L88.056009,339.878607L81.832911,343.958037L76.426590,346.144360L67.323200,346.871010L59.063669,345.016141L46.898156,342.281646L45.198123,343.448108L42.045245,345.608934L40.146024,347.100478L38.485992,348.394425L43.872642,347.374565L45.558772,348.706757L47.392715,348.623894L47.709035,348.604771L48.293355,348.075719L50.493296,347.795257L52.333336,348.674887L53.194054,350.070821L53.063399,351.473130L56.287878,352.588603L57.621757,354.061029L57.070525,355.284864L53.428993,358.363576L53.636147,358.956372L58.053336,358.433692L60.479115,359.479053L60.929188,360.020856L65.015047,364.941706L66.059548,365.693858L67.210600,366.516126L67.269896,366.688228L67.642243,367.739966L67.183499,369.174155L67.340382,370.397997L68.216900,370.850564L69.047058,370.818693L69.832944,370.780448L70.447327,370.818693L71.052077,370.506358L68.783512,372.807438L68.316605,373.272753L65.872544,375.637577L63.486519,377.530712L61.488046,378.486842L61.335679,378.556958L59.291249,378.945784L59.114156,378.920287L58.635812,379.315487L57.238522,381.412600L57.085590,381.514587L54.695213,383.057145L54.086978,383.089016L53.400419,382.113763L52.323643,382.285866L51.169853,382.987029L50.827039,384.083393L50.675897,384.561459L50.954659,385.887295L41.866729,390.081532L35.558085,392.911690L34.543068,393.415254L34.965544,394.862206L35.613252,396.959330L37.076963,396.959330L38.376865,396.959330L41.885545,396.959330L42.663201,397.685994L40.831864,400.605399L31.888171,408.120652L31.276761,408.630593L27.292846,412.856738L24.674368,414.749900L20.970869,416.502829L13.615174,420.155299L5.403852,428.875354L2.167511,434.943713L0.000000,439.316510L1.954509,442.898894L4.727840,449.324250L5.600191,451.344926L9.672840,453.544086L12.412135,457.285850L12.747034,458.739211L13.925376,458.503359L17.644923,457.037249L22.537900,454.831711L22.702114,454.748844L29.921447,450.847725L32.670179,449.655718L34.344438,449.164891L35.507566,449.133019L36.688962,449.445363L40.824521,453.544086L45.243026,455.010194L46.153065,454.946450L48.120385,454.799839L49.994329,454.372756L53.179831,453.646076L55.273294,452.874777L56.970125,452.422196L58.482300,451.650896L59.223535,451.268434L62.922982,449.317876L63.399764,449.069276L67.173957,446.532278L70.056323,444.588098L74.943761,440.463892L76.545803,438.666327L79.850536,434.937338L82.589751,432.840183L85.796078,430.985254L91.009223,428.537515L95.080427,427.383763L96.678524,427.256277L97.145383,427.211657L102.462285,427.702479L103.976277,428.754242L104.606425,429.582903L109.844045,436.467179L111.584679,438.761942L109.356778,442.082977L109.078950,444.008032L111.794641,449.776831L111.776379,450.458888L111.091821,471.156557L110.765983,473.298364L110.005185,478.327793L110.515679,479.481567L113.816669,481.897483L114.460962,485.326939L115.239975,486.174742L116.360405,487.385890L117.078309,490.292647L120.280512,491.586664L121.761559,493.945221L121.973425,494.283068L124.049547,500.300585L122.021172,505.616919L122.472865,507.121304L123.951128,508.243218L129.656965,510.659160L132.178226,514.056783L134.808662,516.154004L135.846808,517.977121L136.432581,520.597058L137.015095,523.223373L138.002212,535.188436L137.604504,539.688895L137.783381,541.333541L138.634733,542.595712L142.262415,545.292169L144.496575,547.708147L144.246704,548.963946L143.040795,552.221378L143.224850,552.705849L144.660149,553.757663L145.295611,554.669235L145.410787,556.211897L144.862469,560.266168L144.706019,564.709300L144.863563,567.546024L144.636925,569.362804L144.274858,570.446498L143.567072,571.287955L141.400288,572.582014L140.945981,573.002743L139.563983,575.380499L138.431777,576.502443L137.607389,577.796505L137.465434,580.907356L136.466040,583.846094L136.053635,586.332230L135.551412,590.985774L135.463936,594.689492L135.203494,596.264051L134.902323,597.003521L134.235772,597.908734L133.183199,598.578082L129.825607,599.413174L127.246386,600.286514L125.917899,601.019610L124.856968,601.931199L123.635799,603.996620L123.122378,605.220574L123.307755,606.935385L123.177397,607.948973L122.820701,609.032683L121.337463,612.213696L117.845704,619.072967L117.649435,620.296928L118.825062,622.151995L118.903923,622.923346L118.612915,624.249306L117.541134,626.486866L117.021847,627.188095L114.768119,629.062292L107.709195,634.914385L104.973388,637.540820L103.640279,639.670018L102.927837,641.352979L102.807857,642.819196L103.596726,644.049544L103.658417,644.463910L103.010070,645.796256L102.041826,646.918233L99.346342,649.538305L93.762408,655.626318L90.911561,658.558769L88.962784,660.343741L86.320050,662.409211L85.751372,662.970203L83.622154,666.113035L81.820942,668.299633L82.041511,668.446256L82.245490,668.573755L83.574537,669.370620L83.911975,669.670242L84.275495,669.364245L85.366053,668.446256L85.727567,668.133885L90.426903,664.155936L95.334340,659.999497L96.696030,658.801015L98.540021,657.086168L99.425926,656.206433L101.052682,654.523462L102.457306,652.974365L103.841869,651.361520L105.111086,649.818799L106.696954,647.804339L107.679732,646.510241L108.162553,646.650488L109.112295,646.746111L110.081712,646.803485L111.352199,646.809860L120.225850,646.522991L123.166115,646.427368L153.680712,645.662384L156.463685,645.554011L158.486107,645.413764L163.300406,645.075896L165.687514,644.935649L169.752616,644.769903L171.389599,644.731654L172.292656,644.712529L173.366115,644.680655L174.982154,644.693405L175.870089,644.693405L175.407301,645.809006L175.039545,646.554865L174.601074,647.294350L174.100990,647.989211L172.498314,650.067419L171.826020,650.819655L171.112716,651.559141L170.273495,652.368751L169.389252,653.152861L168.314932,653.987971L168.114681,654.140969L167.670624,654.459713L166.836974,655.001578L165.125922,656.047061L163.014566,657.449537L161.675838,658.418521L160.378856,659.419381L159.138205,660.464864L157.428600,662.052216L155.930950,663.607694L155.469825,664.124062L154.304565,665.526543L153.016929,667.228646L152.436707,668.038261L151.630268,669.287746L150.899834,670.543607L150.268356,671.761219L147.188150,677.976786L145.774092,680.788140L143.572715,685.161364L140.678260,691.026342L137.589190,697.280208L136.037022,700.391210L130.311468,711.834376L129.104107,714.244142L126.353392,719.624685L123.971738,724.431484L121.930605,728.473282L121.638883,729.040665L119.543100,733.445852L118.156305,736.225395L117.338893,737.825546L116.732525,739.004941L114.057568,744.105034L112.432308,747.369100L110.945994,750.352664L107.987168,756.128548L105.423910,761.196802L101.256940,769.261405L98.276548,775.203090L97.861611,775.999991L95.993407,779.582861L93.272024,785.020929L93.006580,785.537323L90.662745,790.076494L89.057537,793.168491L86.722020,797.784180L84.800052,801.430836L84.041515,802.999155L83.703472,803.687685L82.712812,805.676775L81.706611,807.582987L81.378930,808.220516L81.067634,808.826170L80.133750,810.643130L79.820448,811.242409L77.855669,815.054844L72.492307,825.459380L71.980635,826.485810L70.077394,830.291895L93.053642,830.081508L102.329968,830.011379L185.384649,829.367468L186.239754,829.832869L188.883848,831.260949L193.500333,830.578786L194.243229,830.470405L198.331159,829.654359L198.460039,829.660734L230.379714,830.017754L230.818469,830.017754L232.134734,830.017754L232.573489,830.017754L233.132562,830.030505L234.804494,830.068757L235.361556,830.075133L236.242368,830.521407L237.060266,830.935806L238.360695,832.427640L238.989655,833.148056L239.830782,832.395763L240.878138,831.509588L241.123672,831.299201L243.467649,829.412096L244.354051,828.736308L245.265619,828.073272L246.567460,827.206224L246.739441,827.097843L248.744545,825.829150L250.908207,826.638819L251.008644,826.638819L255.701288,826.600566L259.659252,825.841900L262.674422,825.261744L262.364125,825.618763L262.055093,825.963032L262.300527,826.473060L262.419223,826.715323L263.749267,825.803648L265.828132,825.523133L267.509982,825.861026L267.582724,825.873777L267.533300,826.052287L269.039765,825.733520L269.476118,825.491257L269.756285,825.491257L270.291716,825.982158L271.062007,825.943906L271.804439,825.733520L273.030700,824.962103L274.932812,821.640553L277.280134,820.065846L279.228231,819.504817L279.468996,819.262555L282.124464,818.631398L282.331435,818.516642L283.405079,817.898235L284.521333,817.649598L285.352200,817.267079L286.830829,817.228827L287.837630,816.884559L288.663665,816.604045L289.993731,816.145023L291.064126,815.985640L291.834703,815.864509L292.519533,816.074894L293.168236,816.036642L294.187457,815.513866L295.162444,814.850833L295.784262,814.710577L298.169604,815.150473L299.213146,815.341733L300.963602,814.321682L302.157813,814.219677L303.504836,814.602196L303.880704,815.022967L304.204301,816.317156L304.831442,816.629547L306.621078,816.839932L307.372824,817.681475L309.192233,817.751603L310.167391,818.312631L310.922274,818.376385L313.044383,818.165999L313.289495,818.306256L314.207854,818.134122L314.398383,818.185125L315.045989,818.344508L316.958039,817.853608L318.178164,817.783480L318.878298,817.573094L319.673169,817.713351L320.833610,817.152323L321.065454,817.133197L321.736566,817.082194L322.768189,816.380909L323.174765,816.278904L324.090093,815.577619L324.532698,815.405486L325.223689,815.367234L327.086166,814.283431L327.981885,814.073045L328.544163,814.213302L329.223564,813.652275L330.377741,813.021119L330.861514,812.007445L331.253620,811.624927L331.850848,811.306162L332.516028,811.554798L333.576485,811.095777L333.857624,811.165905L334.767956,812.007445L335.638455,813.543894L335.804274,813.684151L336.174821,813.652275L336.873977,813.371761L337.402026,812.950991L337.720123,812.568472L338.174018,811.376290L338.786646,810.955520L339.220107,810.955520L339.473578,812.077574L340.208805,812.179578L340.891188,811.695055L341.866975,810.330740L342.426224,809.941847L343.083089,809.661334L345.683810,809.208687L346.164741,808.889923L346.521748,808.195015L346.996418,807.806122L348.519228,807.455481L349.611459,806.862579L349.936792,806.620318L350.521454,805.708651L352.209936,804.726857L352.868708,804.133955L353.119934,803.572930L353.034343,803.050157L353.158806,802.807896L353.793034,802.489132L355.214988,802.489132L356.066462,802.138492L356.954901,801.335207L359.245501,799.798765L359.856082,798.918978L359.961732,798.013690L360.167789,797.694926L362.348394,796.681259L364.046994,795.597464L364.457780,795.106569L364.878653,794.061027L366.313704,791.957193L366.640860,791.083783L368.156399,790.140247L369.001493,788.948076L371.314741,787.449894L371.363194,787.201259L371.234386,787.061004L369.647706,787.309639L369.546728,786.888873L370.500011,785.805083L370.817057,785.033679L373.083960,782.617467L373.583088,781.183041L374.860766,780.239509L375.940472,779.053718L376.149433,778.492699L376.127753,778.071935L376.662054,777.268658L378.005542,776.114745L379.130915,775.693981L379.738265,775.273217L379.846360,775.062835L379.730930,773.908923L379.068676,772.965393L380.260728,771.180338L380.211121,769.816046L380.463349,769.325156L381.964459,768.101120L382.725099,767.227720L383.150352,767.017338L383.626084,767.017338L384.752425,766.666703L385.170454,766.316068L385.603817,765.544671L385.867217,765.340665L386.875335,765.302414L387.495197,765.021906L387.761873,764.811526L388.035691,763.970002L388.383590,763.447238L390.073060,762.535588L390.810179,761.872570L391.322834,761.101174L392.111398,760.718664L392.986471,760.476408L394.072905,760.368030L395.589505,760.718664L396.074391,760.546535L396.815678,760.081148L398.175634,759.214125L398.758494,758.933618L400.599391,758.653111L402.628718,759.003745L403.806497,758.480981L404.222591,758.442730L405.373493,757.817965L407.033254,757.817965L407.465651,757.429080L407.551115,756.727812L407.854791,756.517432L408.468472,756.485556L408.845181,756.205050L408.795672,755.612160L409.001746,755.293402L409.451565,755.261527L409.999358,755.573909L410.295887,755.542033L410.557276,755.331653L410.946419,754.420007L411.371669,754.209627L412.351933,753.999247L412.751275,753.756991L412.861311,753.234229L413.041478,752.883596L413.552196,752.424585L413.921688,751.551190L414.801969,750.990178L415.540059,749.944655L415.771668,749.874528L416.065286,750.537543L417.460299,750.435540L417.977271,750.046657L418.291076,749.281640L418.630786,749.001134L419.090131,749.033010L419.645139,749.485645L420.193897,749.415518L420.529364,749.071261L420.219372,747.987488L420.347128,747.738858L420.990514,747.247972L424.681376,745.290808L426.153666,744.729797L427.612618,745.048553L429.428929,744.589544L429.648103,744.697921L429.935465,745.290808L431.942075,743.926531L433.531682,744.207036L433.975618,743.888280L434.239919,742.983013L434.598316,742.594131L435.300365,742.071371L437.054738,741.197980L437.552054,740.847348L439.314492,738.641560L440.953488,737.066908L442.638703,736.091518L444.564141,735.811013L444.983137,735.530509L444.725568,734.797372L444.833671,734.586994L445.410275,734.236363L446.680787,734.376616L447.671166,734.064236L448.326078,734.096111L448.772979,734.306490L449.096365,734.829248L449.437108,734.937624L451.147238,734.829248L452.159214,734.166237L453.581140,734.937624L454.216397,735.007750L455.904939,734.797372L456.617480,734.408491L456.852003,733.643479L457.334880,733.012345L457.993675,732.419461L458.728847,732.068831L459.336254,732.419461L460.092167,733.643479L460.496784,733.853858L461.225703,733.433101L461.570635,732.381211L463.528754,731.718201L464.027033,731.437697L464.177420,731.227319L464.279279,730.494184L465.247999,729.761049L466.192145,729.302043L466.488667,729.270168L466.502128,729.933177L466.835641,730.353932L467.483332,730.245556L468.446832,729.831175L472.118305,727.376769L473.024117,726.611759L474.069158,725.349494L474.876396,724.858614L475.390076,724.928739L476.818238,725.770249L478.451069,726.120878L479.150253,727.064390L479.923457,727.102640L481.293816,726.050752L481.532640,726.120878L481.828187,726.471508L482.360556,726.433257L483.893420,725.980627L484.584368,725.489746L485.097988,724.788488L486.204651,724.023479L486.573172,723.532599L487.416439,722.971593L488.246294,722.971593L488.679780,723.742976L488.944510,723.844977L490.484591,723.532599L491.976570,723.704726L493.161541,723.322222L493.890454,722.901467L495.213313,721.715705L497.717191,720.453443L498.626271,719.682060L498.815599,719.159306L498.658972,718.846928L497.307248,719.019054L497.090025,718.598301L497.401892,718.145672L498.139967,717.552792L500.331980,716.743160L501.271889,715.767778L502.030585,715.206773L502.434227,715.347024L502.824452,716.048280L503.479353,716.080155L504.030041,715.697652L504.110304,715.315149L503.895015,715.034647L503.251587,714.754145L503.097273,714.365267L503.271193,713.944514L503.764262,713.530137L505.198541,713.351635L507.851462,712.025627L508.940718,710.903621L511.596931,709.118611L512.916914,709.399113L512.844892,710.310742L513.055859,710.661369L513.523384,710.450993L515.092222,709.156862L516.045583,708.844485L516.621195,708.876360L517.171882,708.493858L519.228884,706.568600L519.624298,705.727097L519.531548,705.516722L519.177412,705.516722L517.915155,706.358225L517.551855,706.530350L517.271717,706.530350L517.219322,706.179724L517.487944,705.656972L517.800780,705.274471L519.230771,704.260843L519.472886,703.871967L519.628141,703.106965L519.967848,702.826464L520.471387,702.998590L520.884186,702.966714L521.267142,702.756339L521.713990,702.195338L522.095948,701.143461L523.961308,698.593458L523.434154,697.541583L523.369269,697.050708L523.910822,696.387708L525.796814,695.093584L526.134598,694.672835L525.984216,693.659211L527.330645,692.263089L527.841402,691.351466L527.544908,690.159344L527.971149,689.566471L529.300245,688.132101L530.169034,687.819727L530.913370,687.296979L531.951241,685.894486L532.918008,685.473738L533.904079,684.778866L535.004856,683.408249L536.163910,682.993876L537.773106,682.783502L538.897475,682.292630L539.473072,682.324505L539.756093,683.306249L540.312074,682.923752L541.714208,681.419261L542.216768,681.521260L542.332053,682.675128L542.946658,682.713378L543.416115,683.414624L544.533234,683.236125L545.464921,682.955626L546.524434,683.516623L546.454285,683.797122L545.953087,684.319869L545.862320,684.568492L547.113468,686.978231L550.587076,687.367104L551.403444,687.156730L552.889125,686.034735L553.223600,686.072985L554.154369,687.265105L554.747312,687.335229L555.730833,687.889852L556.322813,687.889852L556.583263,688.380725L557.153634,688.731349L557.230964,689.043723L556.034568,690.446218L556.250811,690.796842L557.692278,690.758592L558.114216,691.007217L559.030544,691.147466L559.713285,690.898842L560.762238,690.235844L561.111143,690.554593L561.571427,690.656593L562.719376,690.274094L562.949990,690.586468L562.819318,691.077342L562.999529,691.498090L564.183492,691.498090L564.393488,691.778590L564.037388,692.543588L563.979752,692.964337L564.376169,692.964337L565.207949,692.651963L565.674485,692.824088L565.472715,693.525336L565.630300,693.907836L568.539763,693.244837L570.112929,693.104587L570.613190,693.283087L570.831371,693.773961L570.626683,695.170084L570.892438,695.660959L571.382508,695.622709L572.539614,695.068084L572.555982,695.488834L572.314245,696.113584L572.407965,696.394083L573.146080,696.572583L573.657815,696.502458L574.024384,696.323958L575.071391,695.520709L575.193703,695.539834L575.341989,695.909584L574.653427,697.095333L574.754367,697.516083L575.735551,697.375833L576.016717,698.217333L577.999706,697.968708L578.244777,698.108958L578.536068,699.301084L579.553284,699.090709L579.772449,699.199084L579.774827,699.893959L579.956024,700.384835L580.230875,700.384835L580.500513,700.703585L580.180548,701.717212L580.937434,703.011340L580.733682,703.706216L580.850042,704.024967L582.602488,704.687969L583.121452,705.210721L582.747755,706.472975L583.063051,707.556729L582.854094,708.117732L582.451508,708.818985L580.605978,710.878120L580.088081,711.649500L580.305325,712.070252L580.924196,712.172253L581.103472,712.522880L580.716315,713.574762L580.831731,714.276017L580.647737,715.251399L581.608451,716.755910L581.694124,718.050046L581.953664,718.470800L582.718687,718.751302L582.988347,719.070055L582.840397,719.975313L582.995717,720.434317L583.724715,720.784946L584.126454,721.237575L584.364310,721.237575L584.704964,721.027198L585.078730,720.536318L585.671673,720.153815L586.639499,720.574569L588.709025,720.466193L590.320311,721.167450L591.798094,722.601839L592.087412,722.882342L593.158140,723.411473L595.857740,723.691976L598.358923,724.667361L603.197811,724.775738L604.618835,725.476996L605.001914,726.038002L605.201881,726.873137L605.745589,727.893150L606.372685,728.205529L607.626833,728.377656L608.977725,728.906788L610.372700,728.804787L611.903455,727.893150L612.550156,727.714648L612.661264,728.033402L612.308251,728.874913L612.491807,729.289293L613.445189,729.429545L614.478783,729.187292L615.484564,729.225542L616.450520,729.958677L617.883981,730.481434L618.515268,732.164458L618.946801,732.476837L619.756037,732.444962L621.683211,731.533324L622.219541,731.641700L622.757249,732.056081L623.319491,732.196333L625.111874,732.164458L625.312790,732.617089L624.608523,733.216348L624.401921,733.700855L624.619213,734.121612L625.162785,734.370241L627.239569,734.402116L628.309185,734.089736L629.354208,733.598854L630.433018,733.566978L630.901494,733.426726L633.173608,732.234584L634.259596,731.890329L635.241766,731.820203L636.350677,731.431322L637.593164,730.628061L638.257212,730.487809L638.850131,730.105304L639.664357,728.983289L640.158341,728.639035L640.993370,728.320280L641.485343,727.969651L642.158467,727.204641L643.917863,726.012502L647.010292,724.756613L647.558052,724.616361L648.901598,724.686487L652.028092,723.220221L654.907650,722.378712L655.794096,721.887832L657.404052,720.523568L658.610513,719.790436L659.652310,719.758561L660.994705,718.987179L661.485814,718.885178L662.401268,719.407933L663.125924,719.376058L664.474579,718.674801L665.137645,718.464425L666.229941,718.642926L666.676753,718.534550L667.144249,718.324173L668.013916,717.629292L668.769824,718.081921L669.593413,718.011796L670.114282,717.769544L671.101555,716.928037L672.878459,716.545534L674.528853,715.946279L677.355536,714.518268L678.234739,713.887139L679.049942,712.835257L679.651993,712.280629L681.296068,711.158622L681.476185,710.807995L682.551934,710.246992L683.926258,710.113116L684.467751,709.902740L685.346954,709.271612L686.214722,708.889110L687.002281,708.889110L687.739506,709.450113L689.020470,709.271612L689.597985,708.991111L691.152259,707.735230L691.453022,707.767105L691.601132,708.085857L691.424682,710.425493L691.792321,710.635869L692.770222,710.501993L693.901636,709.832615L695.000936,708.927360L695.816303,708.646859L696.870444,707.983856L697.692881,707.072227L698.611900,705.746222L699.297483,705.255346L699.649667,705.115095L700.241656,705.115095L700.284971,705.637847L699.771511,706.791726L699.925884,707.180603L700.544761,707.282603L701.578331,707.040352L702.847687,706.339100L704.102735,706.128724L705.182439,705.714347L705.874282,705.293596L707.252627,703.999467L709.613119,702.635214L710.385057,701.513212L710.861685,701.130711L711.500095,700.875711L712.155627,700.607960L712.789898,700.607960L713.460245,700.990461L713.965710,700.850211L714.790210,700.397585L716.344474,699.141709L717.668524,698.261958L718.589657,697.847583L720.269902,697.426833L722.045857,697.426833L722.471225,697.987833L724.147493,699.179959L725.171920,699.109834L729.358853,697.955958L729.792271,697.955958L730.579017,698.657208L730.591829,698.714583L730.808883,699.670834L731.120733,699.670834L732.946040,699.039709L733.690272,698.516958L734.188438,697.783833L734.731648,696.489708L735.704596,696.139084L737.346344,695.093584L738.565358,694.953334L739.594953,694.564460L740.572672,693.659211L741.769969,693.098212L743.871964,691.702090L745.283499,691.032717L746.219100,690.898842L746.506359,690.720342L747.663217,689.394347L748.569292,688.865223L749.343449,688.973598L750.139373,689.955345L750.058359,691.039092L750.195380,691.389716L751.327867,691.109216L752.584851,691.039092L753.168617,690.828717L755.225445,689.674846L756.918660,688.909848L759.016849,688.138476L759.375347,687.934477L760.758495,687.124855L761.291762,686.704107L761.777517,686.149484L762.186178,685.199614L762.168265,684.154120L762.992386,681.706134L765.683167,679.009528L766.484003,677.995911L766.547841,677.645289L765.679880,677.390291L769.704730,675.018812L771.696854,674.464192L772.683245,673.871323L772.961944,673.699199L774.649291,673.099955L774.698809,673.240204L775.325251,673.265704L775.741538,673.278453L775.695400,673.450577L775.852637,673.597200L776.462459,674.190070L776.374037,674.362193L776.968111,675.273809L777.277075,675.516057L778.063636,675.445933L778.945806,674.891313L780.034872,673.769324L780.894408,673.176454L781.841436,672.793958L782.274844,672.793958L782.722722,673.074455L782.751709,674.088071L782.266058,674.961437L782.311424,675.943178L782.460850,676.115302L783.104295,676.395799L783.358515,676.363925L784.815197,675.452308L786.831790,674.757439L787.929217,674.617190L788.106614,675.280184L786.728292,676.574298L786.736505,676.784671L786.865308,676.924920L787.556213,676.886670L787.942164,677.205418L789.788232,677.377541L789.876651,677.205418L791.883128,676.612548L792.163146,676.293800L793.450909,676.019678L793.621884,675.841179L794.964562,676.612548L795.378323,676.650797L796.128861,676.650797L798.220766,675.809305L798.554268,675.777430L800.494094,676.230051L801.697287,675.955928L803.955162,676.026053L804.136247,675.745555L805.348919,675.082561L806.775654,673.539826L807.728991,673.680074L808.221113,674.100820L808.799873,674.980562L809.332211,674.942312L810.199947,674.559816L810.331567,674.591691L810.697241,674.661815L810.936180,675.050686L810.966354,676.905795L812.060910,677.007794L812.205971,676.797421L813.960109,675.924054L814.829000,676.383050L816.014840,676.070677L817.614845,676.032428L819.247533,675.477808L820.544890,675.720055L821.527011,675.649931L822.420653,675.299309L823.132689,674.674565L823.445788,674.075321L823.492833,673.520701L823.093373,672.991581L821.106500,673.093580L821.079612,672.991581L821.433560,672.220214L823.449154,671.455222L825.413153,670.090987L825.309282,669.912489L824.402081,669.600118L824.324695,669.287746L824.511064,669.007250L825.009275,668.726753L826.413709,668.688503L827.158899,668.235884L828.004859,666.980024L829.009439,666.176784L830.120020,664.704179L832.249069,664.634055L832.357135,664.423683L834.263682,663.798941L835.823118,662.676957L836.660871,661.210728L837.310407,660.789985L838.698222,661.319102L839.303575,661.210728L840.596494,660.617862L841.053508,660.726235L841.436292,661.370101L841.715666,662.523959L841.803162,662.734331L842.243804,662.874579L842.731901,662.696082L843.542813,661.580473L844.662747,661.159729L845.488762,661.784470L845.361050,662.033091L845.430220,662.135090L846.162077,662.243463L846.356661,662.173339L847.017625,661.503974L847.979747,659.929373L848.556260,659.578753L849.226529,659.508629L850.910732,659.687126L851.898012,659.298257L853.110894,659.859249L854.956707,658.807390L856.204463,658.456771L857.050873,659.648877L857.083103,660.203493L857.558790,660.203493L858.557096,659.330132L859.005895,659.228134L859.414883,659.820999L859.564371,660.445740L860.286118,660.656112L861.237490,660.656112L861.598852,660.796359L861.745984,661.044981L863.462185,660.554113L863.489072,660.656112L865.057798,660.133369L866.583847,660.547738L867.940638,660.056871L868.418217,659.744500L868.989556,659.712626L869.332654,660.197119L867.354391,662.052216L867.305965,662.300837L867.722018,662.262588L869.419361,661.108730L869.634568,661.070480L869.887871,661.421100L869.736738,662.332712L869.830502,662.613208L870.371965,662.402836L871.537380,661.523099L871.786311,661.491224L872.773893,662.192464L871.987605,663.486570L873.241690,663.658693L873.471312,663.448321L876.003811,662.747081L876.357934,662.747081L876.514610,663.059451L876.409613,663.798941L876.636640,665.054799L876.945616,665.297046L877.480939,665.335295L878.431210,664.946425L879.033992,663.690568L880.008785,663.027577L880.571779,662.466585L881.572555,662.288087L882.338549,662.638707L882.363143,662.817205L883.457687,662.919203L884.134294,663.371822L884.602738,663.231574L885.174153,663.652318L885.728143,663.582194L886.456939,663.161450L887.234359,663.263449L887.713113,663.792566L888.514150,664.002938L889.060069,664.627680L888.944977,665.469169L888.345072,666.482780L888.018820,666.654903L887.910766,666.865276L888.531718,667.426269L888.519318,667.604766L889.540853,667.776889L889.807551,668.019136L892.969442,668.860626L893.921803,668.930751L894.391226,668.860626L894.993632,668.541880L896.418055,667.528267L897.533367,667.980887L897.273327,669.485369L897.914916,670.078237L897.908786,670.326860L898.783830,670.537232L899.343195,670.919728L899.755838,670.569107L899.973811,669.835990L900.434023,669.485369L903.033481,669.415245L903.752392,669.867865L904.328972,669.969864L905.438311,669.549118L906.248857,669.236747L907.425033,669.128373L907.540846,669.026374L908.560185,669.727616L909.597207,670.250360L910.560983,670.071862L911.703529,669.689367L913.073583,668.637504L914.069961,668.076511L916.457390,667.585642L917.226164,667.241396L917.701714,666.922650L918.033108,666.431781L917.615844,665.628541L915.971609,665.526543L916.967450,662.970203L917.952106,661.433850L918.876367,660.560488L920.297922,659.789125L921.675233,658.877514L922.810528,658.354772L923.150156,658.074277L924.203312,657.793781L924.410290,657.545161L925.897064,658.036028L925.921663,658.214525L926.749593,658.526895L927.732373,657.302914L928.120550,657.092543L928.725892,656.984170L929.088157,656.741924L929.275273,655.760190L929.817624,655.167326L930.570027,654.854956L931.320550,654.854956L931.945670,655.027078L932.552891,654.606335L933.028360,653.834974L933.836425,653.414232L933.958969,653.484355L935.250944,653.273984L935.438276,653.063613L936.196259,653.975222L938.091830,654.287591L940.142776,655.058952L940.624813,655.581693L941.284455,655.645442L942.175392,655.721941L943.461381,655.358572L943.790619,655.262949L944.080751,655.428696L944.625282,655.747441L944.825330,655.862189L945.074588,655.613568L946.071184,655.823939L946.158695,656.034311L946.544294,655.983312L947.345194,655.874938L948.454424,655.721941L948.892973,655.403197L949.458041,655.301198L949.872446,656.346680L951.371623,656.659050L951.949320,657.149917L954.030687,656.627176L954.388317,657.392163L955.680431,657.500536L955.576224,658.259149L955.521221,658.654393L954.797928,659.980372L955.786541,660.751735L956.018361,661.452975L956.610327,661.452975L958.002992,660.439365L959.309225,659.738126L960.267704,659.559628L961.127158,658.966763L961.343489,659.317382L961.030869,660.152494L961.425656,661.236228L961.311345,661.376476L962.108238,661.975717L962.199910,661.797220L963.831397,660.853734L965.341569,660.681611L965.966701,660.853734L966.736872,660.815484L967.965933,660.573238L968.753458,660.573238L969.323917,660.923858L970.081076,662.217963L970.900786,662.319962L971.795627,662.810830L971.966579,662.632332L972.922043,663.231574L972.993195,663.473821L973.966335,663.894565L977.640158,662.421960L978.512251,662.421960L978.853986,662.600458L979.315734,663.728817L979.376593,663.888190L981.979734,664.901801L982.104140,664.659554L983.576173,664.098562L983.852871,663.786191L985.388087,664.028438L986.587404,663.926439L989.003282,662.453835L989.658125,661.765345L990.917732,659.559628L991.752934,657.583410L992.563216,655.645442L992.374848,653.624603L990.854684,652.056382L989.081159,650.271415L988.891203,649.334309L988.623369,647.982836L989.617846,645.573136L990.291094,645.579511L991.475009,645.579511L991.961259,645.579511L992.320662,645.579511L992.479222,645.579511L992.991899,645.579511L994.718950,640.549748L995.823161,636.845962L997.011968,633.142181L997.472290,630.496627L997.554019,630.018516L996.779890,626.709984L997.090578,625.148155L999.323922,619.678572L1000.000000,617.683262Z "/></g><g fill="#000" font-family="Arial" font-size="12px" id="mylayer-label" stroke="none"><text text-anchor="middle" y="523.675701944"><tspan dy="0" x="394.551720907"><![CDATA[N]]></tspan></text></g></svg>