<?xml version="1.0" encoding="utf-8"?><!DOCTYPE svg  PUBLIC '-//W3C//DTD SVG 1.1//EN'  'http://www.w3.org/Graphics/SVG/1.1/DTD/svg11.dtd'><svg enable_background="new 0 0 1000 1001" height="1001px" pretty_print="False" style="stroke-linejoin: round; stroke:#000; fill: none;" version="1.1" viewBox="0 0 1000 1001" width="1000px" xmlns="http://www.w3.org/2000/svg" xmlns:xlink="http://www.w3.org/1999/xlink"><defs><style type="text/css"><![CDATA[path { fill-rule: evenodd; }]]></style></defs><metadata><views><view h="1001" padding="0" w="1000"><proj flip="auto" id="robinson" lon0="-84.0517983418"/><bbox h="0.83" w="1.2" x="-1136.44" y="-703.5"/></view></views></metadata><g class="" id="mylayer"><path d="M1000.000000,155.073353L968.934794,159.994641L967.101864,156.713781L959.983509,160.957208L954.850056,164.278748L947.917504,169.444094L940.049782,175.287324L927.333332,184.384362L919.366463,189.929375L915.506433,192.600206L914.883054,192.993374L924.442097,203.188667L923.597428,205.710384L914.835708,205.710384L907.448379,199.202735L906.880343,198.104571L900.193543,202.483671L891.141282,207.662683L879.117493,214.780459L863.037443,224.406447L860.356580,231.768329L864.700822,231.673424L857.927581,247.671722L831.461962,246.939594L825.413464,246.844688L786.282657,245.732938L776.966326,245.624475L775.846775,245.610917L773.280659,245.556685L768.638730,250.234175L763.631948,263.887091L760.886105,271.330481L756.303146,283.763317L751.147915,298.243542L744.208290,317.225286L743.059293,320.452203L714.664263,319.733603L713.037685,319.692928L714.702531,317.143936L725.811341,297.850351L696.760492,297.375810L694.668829,303.233010L692.162565,310.052875L689.281568,318.581133L688.900495,319.720045L687.412395,323.624891L673.017096,323.326604L669.426499,323.245253L668.115698,323.231694L665.763214,325.550200L665.320559,325.238354L664.047419,324.804481L663.106705,324.207907L662.144910,323.109668L659.338080,319.991214L658.120486,318.621808L657.500569,318.215054L656.153463,317.387988L653.078998,316.899883L650.830253,316.927000L650.233919,317.103260L647.459083,317.943885L644.508790,317.835417L643.973991,316.357545L644.366584,315.774532L645.436896,314.188194L648.486395,312.222222L655.550252,308.941086L657.712690,307.937765L659.347903,306.432785L660.549031,301.606008L663.370588,298.446917L666.502403,297.145319L671.342016,295.965746L673.944106,294.081143L674.988754,291.477954L675.259815,288.956118L673.709710,284.820857L673.563667,279.343346L673.025359,277.201155L669.491783,273.486223L667.936467,273.201502L664.489687,273.770944L661.482177,273.811618L659.695216,272.577828L658.517710,271.045761L658.331280,270.652576L657.238538,268.401930L656.534676,265.812336L657.016593,261.365293L656.412943,258.924847L655.087787,256.430172L653.551438,254.748981L649.773070,252.579703L648.518964,251.481507L647.366093,249.651183L647.177838,244.987252L645.697752,244.038198L644.962739,241.529986L640.018262,237.828685L638.664022,235.849237L638.268539,233.774887L637.397934,232.527567L636.589585,232.025927L634.476931,231.903907L631.641702,232.608914L625.084900,236.472899L621.843068,237.855801L621.463149,237.937148L617.603341,238.791294L614.665853,238.913314L611.582789,238.506578L609.587838,237.638875L607.369791,237.381275L602.731187,238.330326L596.921229,243.441650L596.494225,243.821272L594.590009,245.177063L591.028642,246.776899L589.866766,248.132692L587.745729,249.203770L586.982707,251.278138L584.879984,252.945769L584.113443,254.355799L582.871386,255.481112L581.276490,256.470846L576.391866,257.650393L568.965448,260.117954L563.236216,260.714507L561.633203,261.256829L557.975551,264.483645L556.067805,265.175107L552.317319,265.744546L549.810735,266.530914L547.189778,268.171443L546.919621,268.347698L544.994142,270.110251L544.840838,270.245832L544.146370,271.438946L543.250914,272.130410L542.963257,272.469363L542.316719,272.659177L541.191525,273.011688L540.606841,273.567572L540.492275,273.865851L540.532679,274.082781L540.383114,274.706455L540.210644,274.950502L539.433296,275.275897L539.028167,275.452153L538.167710,275.818223L537.741750,276.048712L538.095242,274.923386L539.141766,271.642318L526.236284,271.682992L511.328712,271.723667L500.512580,301.348400L498.676675,306.392109L493.851437,319.570902L489.726798,330.838031L471.094741,330.295689L468.708505,330.241455L462.596693,330.105869L462.337990,330.105869L465.048041,322.580886L466.712089,317.984560L480.002649,281.214375L473.153608,281.241491L471.770136,281.241491L454.124477,330.024518L423.760603,329.658437L419.786352,340.152787L409.430477,340.084994L413.887602,329.563527L405.685130,329.658437L400.088021,329.617761L399.069430,331.976951L396.585671,338.268139L396.371959,338.268139L391.438461,338.227463L386.296459,338.173228L389.707197,329.468617L385.431307,329.414383L382.038798,329.373707L377.385685,329.305915L373.925536,338.051201L373.543104,338.051201L367.759967,337.996966L371.196810,329.224563L369.513992,329.183888L363.908346,329.048302L354.590661,329.088978L347.288450,335.976734L345.549545,337.956290L340.621202,340.098553L334.713907,340.396843L331.747124,341.034099L329.452704,342.322170L324.071031,347.284642L322.417341,348.193074L320.312699,348.518482L317.621086,348.410013L314.174154,349.711648L311.298130,352.572537L309.707100,355.338519L308.886785,357.562154L308.735911,362.904315L307.523391,364.626283L305.124197,365.982165L302.246972,365.507607L294.459930,366.131312L293.868138,367.554990L286.283354,367.622784L280.188531,367.677019L280.621602,366.578754L285.142769,354.836845L284.180216,355.175814L281.858695,356.680835L279.156231,356.952010L274.318768,355.460547L269.846325,351.935277L265.829440,348.776098L264.023529,348.206633L261.132964,348.762539L258.802705,349.616737L254.995838,350.186203L254.230571,349.806559L252.531085,354.172467L252.005076,355.541900L250.122501,360.355262L231.993592,409.167541L227.023294,409.398047L219.617936,409.086186L220.035571,407.852304L219.633965,407.960777L219.148414,408.082810L217.985463,408.123487L209.915836,408.340433L207.387932,415.391202L198.333842,415.418320L196.411207,415.445439L191.294040,415.472557L184.962884,415.526794L179.649287,415.567471L174.039900,415.499675L171.655249,415.499675L161.741076,415.540353L151.957717,415.445439L152.340591,414.360703L153.538584,411.065823L158.708338,396.815198L165.206779,378.754624L169.572934,367.446519L171.050651,363.365314L171.951696,361.019642L164.239653,361.155230L162.698663,361.155230L160.168671,361.182347L170.256939,334.159882L170.960121,332.329474L128.084738,332.207447L127.456109,333.902269L99.468366,408.516702L92.114242,428.747060L79.823056,428.855535L76.496023,428.936890L61.718104,429.018246L45.838133,472.327170L44.636241,475.310290L50.840275,475.323849L50.986507,475.323849L50.543041,476.449300L50.365989,476.910329L50.177688,477.371357L49.966890,477.832386L49.728387,478.306974L49.489051,478.754444L49.222010,479.215473L48.932472,479.676502L48.636893,480.123971L48.330065,480.571441L48.000741,481.018911L47.665375,481.452821L47.307512,481.886731L46.943607,482.307082L15.855239,482.768112L0.000000,526.281731L24.197965,526.335971L41.878276,526.607172L103.947624,526.729212L110.863812,526.851252L110.702413,527.271613L102.008986,551.408648L88.430825,551.205245L90.161521,546.228651L88.552981,541.306311L90.147148,537.007749L88.449935,538.146799L73.513700,548.072837L71.275972,549.740742L69.222598,551.367968L68.861418,551.693413L67.252149,553.130798L65.218202,555.205515L63.690000,556.900547L62.348200,558.256574L61.265127,559.612602L60.752132,560.304177L60.152491,561.104234L58.998208,562.704350L57.457368,564.901121L56.182324,566.962292L55.782659,567.680990L64.499835,567.653870L58.106449,585.567177L48.984060,585.770584L46.377228,592.971215L45.092050,596.524080L42.441608,604.131573L41.299531,607.399686L40.673838,609.176132L48.783877,608.972722L37.532724,640.569338L37.897909,640.555777L56.350931,639.959098L50.531371,656.381417L23.606388,657.127273L3.057751,714.830371L2.473863,716.498432L124.696543,697.837937L163.381254,693.037230L167.822782,692.426972L182.679700,653.330190L178.497431,653.411556L174.483904,653.492922L179.730874,638.765740L196.098192,638.386035L196.925851,636.053564L200.843311,635.958638L208.594280,635.782347L202.525023,652.828434L214.349335,652.502970L223.299834,652.191067L231.424760,651.919847L223.372105,675.543241L222.222631,678.919974L246.299707,669.237310L251.837576,653.574288L262.696117,653.303068L267.934146,653.167458L269.806349,659.663187L276.000029,657.154396L283.804662,653.994679L290.147790,651.770676L293.992936,650.251847L301.224782,650.021310L329.688253,649.194091L355.319381,648.448238L339.745768,693.172843L338.246947,697.607394L338.023091,698.366829L311.238955,698.949967L298.567657,734.413234L293.727794,748.056270L294.605284,748.056270L302.676644,748.042708L331.063965,747.445993L348.556918,747.066265L375.850191,746.740784L374.640572,750.158338L375.095769,750.144776L429.473700,749.656554L424.293793,764.628767L424.014614,765.415354L422.905648,768.629516L420.190352,776.061439L398.128869,776.414049L400.059780,770.880789L367.399772,771.558883L367.161347,772.209855L354.576770,807.457590L372.963120,807.213471L372.325936,808.962992L362.535635,836.752125L370.932369,838.677986L369.854358,841.078535L380.714614,842.095717L380.361304,843.926647L386.226217,843.858835L389.351254,843.777460L395.269870,843.628273L408.221727,843.357024L445.261636,842.583965L457.332460,842.380529L458.125181,842.366966L465.597181,842.244904L489.486113,841.851593L492.555744,841.797344L506.457711,841.688844L529.177452,841.322659L561.962981,840.495350L582.204052,840.373289L604.125307,816.178089L619.953328,798.750697L629.137911,789.026694L625.431245,789.392869L620.424019,789.542051L580.794546,790.762635L581.171607,789.691233L583.156581,784.103683L583.932368,781.933766L585.369547,777.892301L585.509747,777.878739L587.680400,771.572445L596.333015,746.455988L597.669812,742.618029L598.630401,742.577344L600.799076,742.495974L601.315721,742.468851L602.574007,742.414604L613.870876,741.939946L617.573032,741.790767L628.656206,711.100972L630.307699,706.530774L633.752723,695.993596L634.713483,693.077914L636.776517,693.037230L649.009325,692.820250L650.560925,692.793127L651.942934,692.738882L653.527435,692.684637L658.508474,692.603269L664.603224,692.521901L665.700486,692.535463L706.408216,691.667540L713.912669,691.518366L717.689995,691.436998L720.550901,691.369192L726.161065,691.260701L727.577668,691.233579L764.019101,690.460586L764.913020,690.447024L779.999810,690.121554L782.479075,690.080870L786.116570,679.598034L788.469378,672.817449L791.606803,663.785749L792.349776,661.643101L795.482938,652.652141L799.064423,642.345817L799.673906,640.610021L807.187372,619.143246L807.817092,616.973529L808.249045,615.495411L810.212863,609.935529L814.365941,598.286954L819.985172,582.787280L824.727187,569.633681L826.269746,565.348612L827.855626,561.009312L828.042053,560.494021L833.171821,546.418493L834.058013,543.991222L835.115882,541.116468L835.618809,539.746894L838.563569,531.719312L843.415294,518.457609L844.167124,516.410054L849.004263,503.216263L856.034922,483.866448L850.660734,483.771530L857.346527,465.438893L859.739448,458.821833L864.815954,444.801340L869.140645,432.828413L877.509479,432.828413L896.376619,432.760617L904.429654,432.733498L911.286988,432.597905L927.587109,432.272481L940.692254,396.774521L946.196591,381.846061L950.716190,368.165138L943.924159,368.043108L945.063167,364.870342L946.700937,360.368820L929.074157,360.517967L929.848746,358.470592L939.657149,333.034520L945.277781,332.926051L945.894927,331.787131L947.109226,330.499067L953.554944,323.611332L964.438706,312.018845L972.258469,307.734389L974.494339,301.470425L982.006310,282.312589L988.170993,266.137730L986.327394,265.988591L987.816925,262.138102L988.419897,260.538253L990.298254,260.538253L995.397153,246.993825L999.908544,234.452779L924.416054,235.212019L935.097076,206.049324L981.499655,205.913748L998.124576,160.103099L1000.000000,155.073353Z M186.440994,431.594515L187.509958,429.045365L189.591544,429.248754L188.155333,431.377566L187.986198,431.730108L186.440994,431.594515Z M144.231732,436.733504L144.402745,436.258927L149.185002,436.313164L148.592188,437.886050L146.954287,437.845372L143.853254,437.777575L144.231732,436.733504Z M284.304986,427.662317L286.226077,422.103017L287.229687,422.184372L291.287849,422.103017L289.199713,427.716554L285.126119,427.662317L284.304986,427.662317Z "/></g><g fill="#000" font-family="Arial" font-size="12px" id="mylayer-label" stroke="none"><text text-anchor="middle" y="505.655711299"><tspan dy="0" x="505.870281224"><![CDATA[Y]]></tspan></text></g></svg>