<?xml version="1.0" encoding="utf-8"?><!DOCTYPE svg  PUBLIC '-//W3C//DTD SVG 1.1//EN'  'http://www.w3.org/Graphics/SVG/1.1/DTD/svg11.dtd'><svg enable_background="new 0 0 1000 1001" height="1001px" pretty_print="False" style="stroke-linejoin: round; stroke:#000; fill: none;" version="1.1" viewBox="0 0 1000 1001" width="1000px" xmlns="http://www.w3.org/2000/svg" xmlns:xlink="http://www.w3.org/1999/xlink"><defs><style type="text/css"><![CDATA[path { fill-rule: evenodd; }]]></style></defs><metadata><views><view h="1001" padding="0" w="1000"><proj flip="auto" id="robinson" lon0="-95.9082212206"/><bbox h="0.62" w="1.2" x="-1302.46" y="-690.6"/></view></views></metadata><g class="" id="mylayer"><path d="M1000.000000,483.966215L928.875818,483.679566L925.991911,484.198264L900.422571,483.584016L887.504192,482.819620L887.932275,481.782226L878.845368,481.700326L873.325545,481.645727L868.206348,481.604777L864.859539,481.563827L859.281903,481.645727L851.018588,482.178073L845.045009,482.341873L831.040465,482.382822L818.206123,482.246323L800.897459,482.492022L791.199569,482.546621L783.243220,482.300923L777.921368,482.205373L775.493112,482.314573L770.725816,482.642171L768.061312,482.669471L767.582486,482.573921L766.478061,481.823176L766.045216,481.645727L764.032446,481.413678L759.342786,481.318129L759.009895,481.304479L754.375582,481.318129L751.735032,481.208929L748.707894,480.813082L746.148018,480.540084L738.826344,480.048687L733.660340,479.611891L730.159891,479.134144L728.723696,478.820197L726.940567,478.205952L722.332963,476.131172L719.479581,474.738888L717.594586,473.592302L716.262208,472.500316L715.161120,471.421981L710.608329,471.189934L685.199549,441.925106L703.342328,399.612447L709.147816,386.045405L711.932305,379.794242L712.209655,379.166398L712.516205,378.443012L713.758924,375.590421L716.383209,369.557690L718.373511,364.807958L720.252445,361.013646L720.688408,360.331217L721.967659,358.324877L724.448175,354.762610L726.757313,351.951018L727.734670,350.763601L729.757400,348.361472L732.547015,345.481653L735.783232,342.533599L740.881424,338.548278L752.972937,329.062719L754.350070,327.970861L755.567760,327.015486L757.989622,322.579826L761.347780,322.593474L767.180995,317.939459L768.222455,317.106925L770.111224,315.660227L772.261596,314.022458L774.103085,312.234562L777.328752,308.672426L778.352704,307.348570L779.203644,305.287725L780.594149,302.353414L783.842068,294.451283L789.906474,280.544199L793.101804,273.379177L778.507034,273.297292L771.107773,273.283644L768.785827,278.947419L768.282215,280.162063L754.562949,280.011939L753.174782,279.984643L752.023385,279.984643L755.223920,272.328311L760.559916,259.049258L759.211128,259.035611L750.637944,259.021964L751.824617,256.169647L755.959885,246.575540L757.267537,243.491248L756.076790,243.477601L733.816189,243.532190L706.650502,243.627721L659.950131,243.791488L659.545924,244.664916L659.001985,245.947763L653.295443,245.988705L652.116269,245.947763L651.488665,247.135080L637.754880,247.312496L632.265947,247.053196L625.671485,245.647522L625.559460,245.565638L621.556978,244.569384L621.122530,244.555737L619.653791,243.600426L618.683516,243.013593L613.151442,240.406964L611.916618,239.751895L611.067870,241.034738L610.061376,242.290287L608.503842,243.887019L607.120487,245.019746L606.978387,245.115277L606.136785,245.715758L604.989264,246.425419L604.870025,246.493656L602.918195,247.476264L601.529837,248.008510L599.933649,248.445225L598.610089,248.718172L597.293457,248.868293L595.470005,248.909235L580.161949,249.045708L575.692444,248.991119L573.931791,248.963824L573.627013,248.963824L573.102260,248.950177L573.090400,249.004766L571.277092,249.154887L569.746271,249.277713L566.285830,249.878197L561.475529,251.106460L555.757182,251.734240L552.485992,252.048130L552.295020,252.498493L551.635300,254.054297L548.209999,262.078999L546.008922,266.923870L541.894266,276.654611L542.909918,276.681906L544.975943,276.654611L543.697013,279.138487L539.664373,286.972282L539.167406,286.999578L538.061620,289.660896L519.882983,333.498403L512.114412,352.223988L502.282057,375.713260L500.028402,380.790604L498.928119,383.493070L495.305969,390.467644L492.662680,396.118305L490.199877,401.236681L487.822187,406.314130L484.093841,413.752904L483.344652,415.254313L480.510444,420.823192L475.584779,433.298666L473.079009,439.877686L472.218847,441.747663L465.568271,457.895099L462.211487,465.470680L461.772478,466.453462L454.591208,482.655821L445.677476,502.735029L445.190416,502.339175L445.033991,502.735029L443.390183,506.748180L435.731840,524.425310L432.411156,531.277825L430.455516,534.881554L427.899897,538.649099L422.505637,546.266129L416.395781,555.999069L415.042698,558.073983L417.090500,560.995250L413.019158,564.503510L409.380950,567.602253L407.359877,569.308613L405.955555,567.506697L404.787217,565.813991L402.210496,569.445122L403.636568,570.769259L408.719511,579.478567L413.065668,586.249482L413.954848,587.641893L414.123095,587.751101L415.258508,590.481323L421.440717,594.303644L430.046219,607.545346L431.774914,614.179902L434.954928,619.067108L441.544746,633.551372L443.282556,635.899449L449.189188,651.011894L463.484258,677.564924L478.530239,709.975416L479.005774,710.985698L483.440324,717.552550L488.681831,720.132882L495.279065,720.897426L505.422907,722.085200L515.138364,725.512004L523.347104,732.925402L527.056983,736.857388L527.633280,740.270581L527.878996,740.543636L528.957511,742.823655L529.255411,743.533602L525.900775,745.991113L523.186493,750.510215L527.005672,754.824540L530.857697,759.248105L534.512423,756.694996L536.679554,751.547836L537.639028,749.254149L537.277291,748.721686L536.893240,748.161918L536.800071,747.875208L538.210460,746.810284L538.592017,746.468963L539.132970,745.991113L539.151991,745.199247L539.238582,740.379803L539.443766,739.601594L541.248741,733.976661L537.903196,733.771870L542.197440,717.224889L542.057785,717.074711L532.757649,707.572587L494.209876,705.046891L483.809690,704.678276L482.903663,703.244776L476.395638,691.148829L483.306072,671.626279L482.886240,670.697941L477.178924,659.325866L475.619813,656.022113L496.646029,606.767221L493.139581,606.303077L494.244654,604.173476L507.092169,605.879887L507.549419,604.746830L509.587373,599.641261L529.782084,602.712790L532.740422,599.272678L538.799717,602.426114L544.144800,605.879887L547.250412,609.183504L552.803145,614.466581L569.095211,628.568547L569.579678,629.237473L578.938548,638.384048L586.171387,646.766193L586.424303,647.448781L591.008376,659.981157L591.167903,660.404365L593.545536,666.015309L595.689239,669.592129L597.580157,671.899319L600.160041,674.179210L601.470753,675.216766L604.078876,676.923276L610.056137,679.872129L610.309491,679.940390L614.974292,681.455776L615.137594,681.496732L617.761989,682.124731L619.615839,682.466034L620.883683,682.698121L636.966138,682.711773L642.197574,682.861946L656.699133,677.728749L673.036345,671.912971L673.670458,671.721843L700.119955,662.233721L700.906615,662.028943L702.010195,661.742252L717.662850,657.223477L729.860928,653.264442L744.406698,647.066531L751.683334,643.585340L764.518533,636.254392L773.809565,629.988309L787.102557,619.736028L792.285641,615.039939L796.502923,610.971830L799.044749,608.514589L806.159133,600.883523L812.371739,593.115993L816.897028,588.160634L818.588889,587.177756L819.710065,586.822828L820.410828,586.740921L824.240133,577.963307L825.270033,575.424226L825.900854,573.854367L829.484991,565.336211L831.233921,561.445726L841.318837,537.229443L845.527088,527.291895L853.066311,509.382671L856.468305,501.643018L858.732301,496.510576L860.913435,491.200706L862.192177,488.074854L870.538712,488.252304L864.890040,501.643018L849.794964,537.447852L841.296860,557.623508L837.529243,565.854943L832.668284,575.628991L832.155768,576.652813L828.164895,582.932275L832.825859,583.096088L956.914944,583.669431L996.572698,492.006057L996.885386,491.214356L997.588702,489.740154L997.537765,489.753804L997.711452,489.317004L997.722741,489.317004L998.473935,487.569805L1000.000000,483.966215Z M173.946741,488.429754L173.130790,490.381705L167.846760,503.089933L166.494357,507.266888L170.400425,507.266888L172.496020,507.676394L181.382872,507.457991L187.944236,506.679929L201.870536,504.373049L207.835061,504.550501L209.162521,504.454950L210.487723,501.274464L213.402852,494.422115L214.873547,490.818505L215.550912,489.166854L216.280344,487.392355L216.112128,487.283155L215.077733,486.873656L214.926030,486.805406L214.532593,486.641606L208.315789,484.102714L205.211951,483.488467L201.057214,482.423772L198.243639,481.577477L196.629969,480.963231L195.432593,480.485484L194.505034,480.116937L192.453901,479.229694L184.908380,475.271232L181.310054,473.346605L180.848650,474.302093L174.402065,487.515205L173.946741,488.429754Z M61.677987,343.256964L55.573710,357.465019L22.127257,436.533574L26.596241,436.670068L72.150762,436.847510L110.368353,436.943056L123.864945,436.874809L128.363715,436.861160L128.928160,436.861160L128.564205,437.666476L129.250846,437.857568L129.931702,438.062309L130.595482,438.280700L131.253477,438.512741L131.894397,438.758431L132.529531,439.017770L133.147590,439.290759L133.759864,439.577398L134.360849,439.864036L135.455151,440.478262L135.908815,440.819499L136.694795,441.228983L137.182609,441.542920L147.511995,448.627018L148.347231,449.186650L149.182467,449.746282L150.040564,450.278615L150.909951,450.810948L151.785125,451.329632L152.666085,451.834667L153.558335,452.339702L154.164551,452.667292L172.420901,462.303945L182.823729,467.777488L189.470557,471.299133L193.900617,473.578652L194.455912,473.919897L195.213568,474.343042L195.999588,474.752538L196.791393,475.148383L197.594769,475.516929L198.420723,475.885475L199.275041,476.240371L200.039890,476.513368L200.928357,476.840965L201.704495,477.113962L203.268061,477.659957L211.255633,479.802989L216.073443,480.608333L219.112174,480.417235L224.634120,480.813082L226.309289,480.935931L229.157683,481.140680L233.015751,481.413678L240.923526,481.986975L251.262285,482.737720L264.912026,483.720516L266.925593,483.870665L278.398227,484.689662L317.935581,483.857015L320.765040,483.706866L325.198389,483.474817L326.085526,481.727626L326.907166,479.762039L330.225667,470.439195L332.380834,465.033889L335.133610,459.150868L336.878596,455.219769L338.808813,450.292264L339.484222,448.831761L340.362834,447.371260L341.641332,445.446676L343.493481,441.529271L345.486899,437.598229L346.122957,436.124091L347.360487,432.698093L351.774069,422.870581L355.202858,415.499998L361.957743,399.243924L362.869170,396.800754L363.347253,395.326665L363.849039,394.835303L377.123222,365.544985L387.026757,341.864829L389.585196,335.750372L284.445104,337.852213L282.457763,337.906806L278.581536,338.316256L279.403576,336.350898L285.036732,322.852789L288.342704,314.923230L288.950663,313.462887L289.616784,311.838769L230.020172,312.889668L226.475054,312.944261L226.859915,311.770528L197.441323,311.879713L195.539093,311.893361L190.153399,312.002545L193.900788,302.394358L199.330911,288.446242L195.092607,288.405299L174.687512,288.555424L141.593268,288.814732L120.909429,338.357201L68.280609,339.080563L63.454356,339.121508L61.677987,343.256964Z M0.000000,488.252304L4.425622,488.225004L107.457417,488.074854L124.197215,447.835344L130.818609,447.794395L131.038603,447.808045L131.699323,446.142802L133.227597,444.641355L134.472517,443.249106L132.996652,442.416487L132.093128,441.911456L130.280297,440.915045L127.424111,439.290759L124.522294,439.345357L109.274490,439.550099L70.981354,439.659294L20.829067,439.782140L20.083999,439.782140L19.418827,441.324529L11.850862,459.655905L0.000000,488.252304Z "/></g><g fill="#000" font-family="Arial" font-size="12px" id="mylayer-label" stroke="none"><text text-anchor="middle" y="454.301044089"><tspan dy="0" x="525.288091092"><![CDATA[N]]></tspan></text></g></svg>