<?xml version="1.0" encoding="utf-8"?><!DOCTYPE svg  PUBLIC '-//W3C//DTD SVG 1.1//EN'  'http://www.w3.org/Graphics/SVG/1.1/DTD/svg11.dtd'><svg enable_background="new 0 0 1000 1001" height="1001px" pretty_print="False" style="stroke-linejoin: round; stroke:#000; fill: none;" version="1.1" viewBox="0 0 1000 1001" width="1000px" xmlns="http://www.w3.org/2000/svg" xmlns:xlink="http://www.w3.org/1999/xlink"><defs><style type="text/css"><![CDATA[path { fill-rule: evenodd; }]]></style></defs><metadata><views><view h="1001" padding="0" w="1000"><proj flip="auto" id="robinson" lon0="-81.3039816147"/><bbox h="1.61" w="2.07" x="-1162.83" y="-474.08"/></view></views></metadata><g class="" id="mylayer"><path d="M1000.000000,182.079789L996.396663,182.063552L993.299200,182.079789L988.444278,187.097153L984.771485,190.677508L984.670879,190.766814L978.702001,197.050706L974.028524,201.532245L969.130490,206.346656L958.986296,214.822626L945.989444,224.183552L945.845894,224.703153L944.999497,229.014217L942.587988,241.297925L934.449223,241.111193L932.451373,250.512751L936.626526,252.412549L937.839125,245.811970L939.458983,245.811970L942.141215,245.901277L951.553281,246.266622L952.890067,239.844663L967.727722,240.218127L964.686625,254.758882L956.502323,294.135183L957.358263,294.500531L965.737250,254.767001L987.997445,255.026802L996.767142,211.128596L994.329872,210.990577L996.035141,202.587681L996.059053,202.465900L1000.000000,182.079789Z M389.155959,691.524324L388.981140,692.417451L387.724183,698.945405L387.550964,699.830414L386.318942,706.195987L399.986767,706.334016L402.659371,691.370056L389.155959,691.524324Z M0.000000,419.954208L0.559160,419.962327L1.118320,419.970446L23.253079,420.311444L92.993176,421.375034L113.817389,421.691675L116.239356,421.732270L116.563138,421.740389L117.525420,421.740389L117.843873,421.740389L117.358199,415.009735L115.885673,394.793457L115.388071,388.054711L118.290869,388.079068L125.846344,388.135901L132.572676,388.184614L133.911882,381.681325L153.085253,381.413400L163.575885,381.259139L167.502750,381.356567L174.855898,381.527065L175.796690,376.136079L176.096123,373.976438L193.211416,374.106341L192.957452,375.470325L192.820361,376.168555L192.744391,376.590740L192.504233,377.849178L192.422936,378.263245L190.447078,388.679871L189.929913,388.493135L163.348859,388.233328L162.076655,388.225209L160.646041,394.842170L159.903639,398.235903L159.458501,400.679716L158.701036,404.820398L129.795889,404.584947L128.564204,410.471216L127.266885,417.080080L156.385230,417.429198L156.172781,418.582096L155.823834,420.465705L155.457364,422.438624L154.917258,425.402063L154.565693,427.334389L136.660260,427.066461L136.069059,430.078616L135.692992,431.994705L118.592287,431.929753L118.716701,433.659104L118.928025,436.638787L119.200457,440.365421L120.456213,448.606243L120.571658,449.393790L121.843608,455.824075L124.160610,463.455987L126.421619,469.821333L129.322078,476.738782L131.750679,481.650825L137.221268,490.183986L137.112156,490.281415L136.361665,490.930943L136.179097,491.085206L136.105640,491.142039L135.907081,491.271945L135.274154,491.710376L136.824130,493.902532L142.938853,502.541257L144.308195,504.489844L144.698671,503.840315L145.126159,504.449248L145.311842,504.173198L145.845978,503.320692L146.021000,503.028404L146.958842,501.388344L148.559380,499.228662L150.287567,497.653556L150.636642,497.215125L150.645092,497.101457L150.596170,496.362619L152.528116,490.995896L151.889196,487.723902L153.955130,487.179923L154.629288,488.860574L156.028553,492.773977L157.496157,495.209707L159.204451,492.465452L159.942267,493.715793L160.892687,495.152873L162.444115,496.208356L164.453796,496.833527L167.029180,496.833527L169.169074,495.347731L171.261178,492.376142L170.376409,497.133934L168.882730,506.479026L161.807439,503.336930L169.689266,516.627925L189.287707,544.419751L189.670454,544.939377L190.821883,546.482017L191.199301,546.993525L200.728729,539.491422L204.987813,536.130094L213.646956,535.927115L217.391580,536.284357L213.970553,552.498320L212.043151,561.624273L211.687606,563.296824L211.552409,564.092504L211.467026,564.563417L211.269925,565.886844L210.678638,569.857127L210.476216,571.172436L210.257541,571.440370L210.006400,571.732661L209.592447,572.219812L209.368441,572.479627L211.463796,575.564921L217.749987,584.820813L219.838502,587.906114L221.239744,589.976513L225.441378,596.163359L225.924467,596.877850L226.644678,598.396146L224.589604,601.075491L220.429427,606.442304L213.947692,614.788883L213.379485,615.462781L209.073194,619.879653L206.365906,622.071851L204.830673,622.875658L199.721460,624.393959L198.747687,624.734968L191.553762,627.211342L190.273300,627.633543L189.977276,627.730975L189.087614,628.031387L188.786257,628.120699L188.335298,628.266846L184.318975,688.008650L183.918582,693.058879L181.969884,723.417168L180.279502,746.874095L179.473444,760.474117L180.139594,760.360445L180.985193,760.214295L181.257827,760.165579L181.026681,763.575737L180.336537,773.789985L180.100134,777.192032L179.830108,777.192032L179.006182,777.192032L178.356036,777.330062L176.176014,808.857940L176.874750,808.825462L177.681661,808.841701L177.951690,808.841701L177.067093,821.930320L174.408110,861.196331L173.529293,874.155139L173.519330,874.276932L173.391263,875.746573L173.326588,876.396138L172.996408,880.139259L172.863019,881.600781L172.733382,883.078543L172.340743,887.495592L172.271458,888.275072L172.271275,888.948997L174.749499,888.916519L190.823043,888.689170L194.344630,888.632333L219.263176,888.283191L220.110365,888.128919L223.414444,887.519951L224.962701,887.073374L227.122763,885.693046L229.383844,883.370848L243.443529,868.934263L258.198361,853.563962L275.197046,835.855275L275.424697,835.611689L275.677882,835.343745L275.807142,835.213833L276.182665,834.815977L276.306589,834.677945L277.000451,830.739982L277.198783,829.619490L272.052887,829.733163L271.691257,829.741282L262.011547,829.635729L248.295166,829.919912L249.687632,822.303817L263.705454,822.035874L275.849458,822.108949L276.585548,822.133308L278.499266,822.190144L278.670048,821.175207L278.943708,818.926106L279.118743,817.464597L279.256833,817.147937L279.351219,816.806918L280.293554,812.130092L280.908287,808.703670L281.171133,807.607540L286.275135,807.672496L287.234998,802.906362L289.068919,803.052512L287.813185,808.906657L286.354126,815.694548L301.655452,816.262912L303.771064,807.640018L318.102134,829.846836L351.777747,829.432741L359.446593,791.490389L372.049135,728.061454L372.326081,728.061454L374.476300,716.012298L374.880245,713.771353L375.348213,711.132559L383.059617,711.246230L385.406379,698.937285L386.647339,692.384974L378.931110,692.190110L379.091063,691.337579L382.815465,671.640089L382.931503,671.047379L383.039028,670.462789L383.206958,669.569664L383.422012,668.400483L383.643991,667.231302L384.907557,660.565352L395.181316,660.427324L396.204521,655.166018L393.578273,655.036109L396.907437,638.034326L503.267929,638.903089L510.543061,639.122309L507.825533,654.630145L521.920291,655.344643L526.595951,632.310240L540.755961,632.902947L547.144808,600.628933L547.433172,599.191830L547.775602,597.478673L548.059202,596.065928L604.309276,596.358220L610.281660,565.651388L611.199805,563.897644L611.165656,563.824571L613.820491,550.695864L616.220999,538.760699L616.700922,536.381787L559.776437,536.958247L531.716525,537.242417L534.104439,525.445301L539.225790,500.162359L540.565969,493.537173L543.423769,479.418078L557.469877,479.880865L559.157109,470.568287L545.246000,470.405906L547.274276,460.378864L545.241546,460.330149L519.488083,459.623792L517.995212,467.060850L513.132351,491.158278L506.305531,524.998749L498.597594,563.239990L496.075080,575.727305L467.623265,575.889689L469.934529,564.092504L473.584569,545.499599L474.222569,542.243816L474.867509,538.988035L475.241417,537.080034L475.613740,535.180153L479.886873,513.412752L480.023736,512.714508L484.893511,487.943117L489.460860,466.484397L490.450851,461.824056L499.888087,417.518507L500.487060,414.676856L500.844441,412.996223L506.352310,387.145387L508.184784,378.547408L505.603019,378.368791L495.953411,377.800464L478.088324,376.728762L478.240123,375.778845L480.169524,363.584192L480.919074,358.883329L481.316695,356.398937L481.981839,352.128383L482.133728,351.284015L482.578741,348.734675L482.725305,347.882188L483.143839,345.608892L484.381909,338.772770L484.795147,336.491358L484.552853,336.491358L483.825971,336.491358L483.576754,336.491358L481.576097,336.491358L480.088331,344.634622L473.124087,344.634622L473.786731,341.646863L471.822328,341.744290L470.075715,341.825479L471.170300,336.637499L467.803233,336.686212L465.815874,336.653736L465.656652,336.653736L463.453096,336.629380L463.918553,334.364206L464.322572,331.636257L464.693676,329.111280L465.827400,329.119399L468.321702,329.143756L469.207804,329.143756L470.336199,329.143756L470.736120,329.151875L471.939071,329.159994L472.340585,329.159994L472.804951,329.192469L474.182063,329.265539L474.641100,329.289896L474.717249,329.289896L474.924929,329.289896L476.013382,329.281777L479.055622,329.265539L480.069520,329.249301L481.208573,329.265539L484.625731,329.314253L485.757861,329.330490L485.894721,329.338609L486.282390,329.338609L486.413921,329.338609L486.692422,329.330490L487.526330,329.314253L487.799502,329.298015L488.566324,329.306134L489.021627,329.314253L486.039667,344.504720L488.999997,344.658979L497.954397,344.959379L499.491959,337.514340L507.517996,337.465627L508.044377,334.607773L513.912172,334.656487L513.806986,335.192334L513.486101,336.791758L513.375588,337.319486L522.513885,336.929779L526.996499,336.734925L525.376340,345.024330L523.965035,352.250167L529.036206,352.266405L533.477408,352.282643L534.384286,352.282643L533.541371,356.577554L537.990657,356.764289L537.907802,357.186473L537.655503,358.436788L537.567319,358.850854L551.698505,359.370465L554.058837,347.378815L556.790671,347.427529L559.599674,333.398057L559.640560,333.154490L559.773826,332.334482L560.157644,329.850100L560.278662,329.021972L562.663796,329.038210L569.819197,329.086924L572.197408,329.103161L571.678383,331.676851L570.401281,337.936523L574.442539,337.944642L598.918377,337.676718L598.765406,338.456133L598.575787,339.422283L598.304357,340.770021L598.146060,341.541318L598.042489,342.069047L597.753537,343.506094L597.724856,343.652234L597.622881,344.171844L594.810560,343.968872L591.343221,343.717185L586.310361,343.611640L583.464031,343.546688L580.832961,343.725304L580.039504,347.874069L577.849878,359.208087L581.036483,359.232443L579.798499,366.352750L577.378227,366.409582L571.325315,398.495710L586.956168,398.747398L588.341761,391.578343L591.461128,375.713893L594.684451,359.321752L595.483687,355.213574L592.152204,355.116147L589.627493,355.034958L590.799655,349.132502L593.310459,349.108145L596.677537,349.059431L595.787995,353.662859L609.244681,353.597908L608.785841,355.936158L608.277532,359.337990L610.752803,359.565320L628.020560,360.117407L637.273634,360.166121L643.124215,329.752673L656.622433,329.898813L657.646975,323.549841L661.369089,302.294631L661.833569,300.281155L672.389390,300.110659L669.542795,316.129183L669.374429,317.022260L664.541741,345.633249L662.982639,353.614146L666.219723,353.451767L665.153134,359.240562L665.100074,359.581557L664.938754,360.580186L664.880365,360.913062L668.537659,360.831873L671.694922,360.758803L678.948428,360.872468L675.370081,363.973901L679.230404,366.880481L682.329908,361.773669L682.533060,361.302771L685.507902,354.149995L685.966845,353.045821L685.456928,344.813239L685.410702,344.025704L686.804287,337.100276L687.215314,330.913675L686.997203,326.204717L687.767231,316.778693L688.278275,313.222626L695.953567,312.597473L694.830462,310.348545L694.368014,308.789722L695.902376,301.466508L696.183859,299.891449L698.148831,299.932044L716.968140,299.842736L717.316412,299.867093L719.241443,299.899568L721.415687,299.932044L725.469538,299.664121L727.712460,299.664121L730.336125,299.664121L731.667954,299.720953L736.820064,299.923925L743.415417,300.427294L745.087551,300.549077L747.301294,300.768286L747.752525,298.998375L750.969748,280.633550L765.256401,280.852758L761.559266,300.922544L761.492889,301.296012L761.261339,302.546316L763.764842,302.911665L768.713887,303.796621L774.790438,305.038807L775.180206,303.934641L775.278997,303.431272L776.340078,297.707477L776.686860,295.799547L777.713003,290.359919L792.224316,290.351800L806.745138,290.189423L807.498929,286.454755L808.581575,281.080086L849.960525,281.453552L851.726930,279.472557L853.170379,278.043643L853.750021,277.524038L855.082815,276.306213L857.634511,273.992348L858.825723,272.896307L865.602491,267.643431L865.677543,267.578480L868.358893,265.767984L871.665165,263.454123L889.526073,253.857695L890.553545,253.313735L893.303235,251.860471L904.909443,245.738901L918.328349,209.301878L932.111018,209.829597L931.436667,213.263826L938.336235,213.450557L937.661912,216.884789L947.272561,217.436864L946.891577,219.377247L946.738447,221.179611L948.634607,219.807541L950.593527,218.256858L959.501018,211.778095L963.953326,208.246442L965.495913,206.841899L972.097898,200.647304L978.536851,194.119846L986.556808,186.204095L986.944299,185.781921L987.749616,184.888863L990.539335,182.104145L989.070249,182.217807L988.767262,182.209688L939.223019,181.722566L913.999087,181.470886L840.454398,181.763159L836.983373,200.103348L838.453817,200.793441L838.288744,202.303525L838.577793,203.545692L837.092036,204.731027L836.675212,205.055777L829.119297,246.282860L815.681189,246.290979L786.288383,246.290979L787.768561,239.316942L787.965745,238.383282L788.201738,237.287247L763.306476,237.262891L761.975152,243.830986L759.922956,243.952767L759.670519,245.203061L758.255189,245.324843L758.020794,246.412760L754.294536,263.486598L732.455474,263.161845L737.465523,237.295366L733.421219,237.303485L721.289901,237.319722L717.240269,237.319722L717.157200,237.319722L716.907992,237.319722L716.824923,237.319722L717.327692,236.134381L718.760449,232.716376L718.815246,232.578357L719.246660,231.368660L719.621685,230.305101L720.501296,227.130663L721.215835,223.915633L722.154338,218.467946L750.060754,218.703390L754.129818,197.213081L745.373521,197.034469L747.623324,184.807676L728.798915,184.961931L729.609775,180.764558L732.365871,166.597429L734.224541,157.033620L736.410979,145.732430L737.550347,140.146792L739.123744,131.930717L740.075121,125.541346L737.992084,125.573820L739.331547,118.267050L735.814031,118.307643L734.449006,125.638770L727.949100,125.744312L714.260800,125.971634L712.191607,126.004108L710.454140,126.004108L710.095244,125.963515L709.713912,125.508871L709.672305,125.086702L709.715881,124.583347L709.777013,123.990686L709.928545,122.691705L709.942856,122.302010L710.009819,121.538859L710.047030,121.173520L710.128968,120.791944L710.216231,120.418487L710.387567,119.687811L710.553056,119.022083L710.782408,118.137152L710.915977,117.633797L710.951040,117.138561L710.986104,116.643325L711.054704,116.083140L711.138207,115.482361L711.178564,114.784160L711.400983,113.793687L711.643160,113.160435L711.806572,112.786978L712.057268,112.145607L712.241431,111.666608L712.103414,110.960289L711.788156,110.732967L711.340871,110.684255L710.890932,110.684255L710.340338,110.562476L709.755132,110.440697L708.726373,110.286443L708.368539,110.205257L707.710920,110.099715L707.087390,110.067240L706.706673,110.067240L706.329147,110.051003L705.914356,110.083478L705.455377,110.164664L705.015031,110.221494L704.592258,110.294562L704.148720,110.367629L703.703047,110.416341L703.252049,110.456934L702.771229,110.473171L702.297331,110.489409L701.814915,110.513764L701.344209,110.513764L700.862852,110.497527L700.386283,110.456934L699.900137,110.465053L699.410798,110.489409L698.922519,110.473171L698.447024,110.497527L697.985374,110.521883L697.532243,110.538120L697.076440,110.497527L696.205847,110.489409L695.393823,110.465053L694.983820,110.473171L694.570625,110.497527L694.402898,110.505646L692.146599,122.967738L691.596529,126.012227L691.430397,126.012227L682.276622,126.060939L681.601045,129.990361L679.043584,130.112141L679.754277,126.004108L677.976336,125.963515L677.071664,125.987871L675.746538,133.432667L672.056098,134.317600L674.380012,126.052820L664.698052,126.288261L660.639663,147.989419L662.404045,146.690433L663.257531,146.292618L664.199452,146.114008L665.067383,146.065296L665.658487,146.333211L667.224925,148.435946L667.813506,149.385830L668.100077,149.864831L669.838787,150.668580L670.341458,150.717292L671.434180,151.074513L672.828334,151.659057L674.277800,151.926974L674.636767,152.284195L675.698339,153.891692L676.641069,155.012069L677.595845,155.190680L678.108768,155.856412L680.846032,157.285299L681.828757,158.624881L682.752400,160.053769L683.241984,161.084841L684.898602,168.188693L684.749319,169.617582L684.225956,172.069428L683.617939,174.529394L683.498413,177.744400L684.666719,179.936450L684.892644,180.512878L685.329624,181.811872L685.572212,182.972847L685.257062,187.218934L684.923659,188.915746L683.779708,192.130759L683.373635,192.893919L680.405667,197.042587L677.462308,208.571191L669.785856,218.541015L663.086752,224.029295L662.299505,224.971072L661.777957,225.864136L661.363945,226.667893L659.981655,228.454022L659.333227,228.900554L658.727857,229.127880L655.969604,230.905890L654.260265,232.383507L652.681983,234.039736L652.051860,235.062702L650.060882,236.670220L649.156326,237.116753L648.050079,237.920512L647.174154,238.009818L646.826474,238.123481L659.529169,238.123481L658.926651,240.380502L643.593314,241.614557L639.730581,251.941659L636.533832,266.880262L639.473897,271.191354L652.205937,270.972146L653.898768,270.988384L654.134134,270.988384L656.538392,271.012740L655.698181,275.080271L667.270482,274.950369L667.956875,271.102047L669.414297,271.012740L673.779639,270.744819L675.231732,270.647393L675.771144,270.614918L677.397894,270.509373L677.931977,270.468779L680.563542,270.322641L688.463017,269.859868L691.090847,269.697491L689.397919,275.746014L689.413313,275.632351L676.412692,275.421261L672.308607,295.832022L670.397972,295.832022L662.639891,295.856379L656.860504,294.476174L656.682111,294.468055L656.127757,294.435580L655.944035,294.419342L654.383765,294.362510L649.438445,294.516769L645.517386,294.037756L644.071613,293.997162L637.689443,293.818547L635.073206,293.745478L632.317657,294.135183L632.068990,294.167658L624.052552,295.190633L621.299642,295.531625L618.618960,295.434199L615.058563,295.304297L616.314481,287.250402L608.812011,287.242283L608.008595,291.334180L605.511685,291.358537L600.455560,291.407250L601.099752,288.549417L601.751380,285.618515L602.258784,282.858110L602.765108,280.032756L598.117936,280.008400L595.760535,279.992162L595.177992,280.032756L595.094631,280.633550L594.549296,284.433165L594.362907,285.699703L593.734813,288.898527L593.392079,290.644078L587.577114,290.644078L587.376256,291.667053L586.749780,294.857760L585.223077,294.841523L580.640826,294.768453L578.594382,294.719740L577.738552,299.501744L577.427126,300.946901L577.333672,301.563934L576.974616,303.674838L575.934631,303.682957L574.653949,303.682957L573.847191,303.666719L573.036274,307.515060L576.207927,307.580011L574.044875,318.175140L573.387593,322.405078L567.036283,322.315770L562.442232,322.161511L559.489945,322.072204L558.852542,325.530849L558.387974,327.333243L555.274369,327.325124L554.907717,328.981378L553.704766,328.973259L550.095914,328.948902L548.886040,328.940784L549.347126,326.521354L549.553766,325.433423L550.026569,322.989638L546.824616,323.078945L544.745179,323.127659L545.008705,321.820518L545.806223,317.899099L546.064431,316.583840L560.745113,316.348393L561.559989,311.915487L561.640825,311.680040L561.906556,310.502804L562.191417,309.228141L562.684589,306.962977L568.083182,307.003572L568.331340,305.810099L568.556137,304.770884L568.995078,302.676218L569.204441,301.645123L569.324540,301.068684L561.612761,301.068684L561.580880,301.231061L561.215754,302.879189L560.639269,305.850693L548.173874,306.086140L538.247346,306.013070L535.512914,306.013070L533.831766,305.972476L534.406227,303.187706L534.718673,301.596410L534.798424,301.296012L532.241887,301.377200L528.944632,301.458389L527.817296,301.417795L527.517185,303.228300L526.025818,311.176670L532.583094,311.063006L529.606634,325.977388L527.465391,325.953032L525.254920,325.928675L515.723960,325.815011L515.772323,325.603919L515.913677,324.954408L515.956711,324.735198L519.965478,324.767674L524.868862,324.792031L525.379942,322.153393L520.527662,322.080323L516.525274,322.015372L516.796285,320.740707L517.581644,316.916714L517.847337,315.633932L518.213500,313.945206L519.289109,308.854673L519.644633,307.149711L519.952339,305.688316L520.452436,303.317608L520.871742,301.287893L521.116742,300.110659L521.698240,300.110659L527.296483,300.086302L528.637042,292.836167L530.473666,292.860523L536.374349,292.811810L536.125147,294.151420L535.166626,299.315011L535.034858,300.021351L540.501527,299.891449L541.956967,292.373392L543.651448,292.487056L542.316296,299.850855L544.033100,299.850855L545.244555,299.850855L545.494833,298.576195L546.000680,295.929449L547.229625,295.734596L548.874019,293.177158L550.878752,292.803691L551.262683,292.787454L552.450386,286.738915L552.742140,285.253167L552.348603,285.212573L548.597622,285.171979L550.097909,277.532157L553.835034,277.572751L561.137733,277.434731L568.320691,277.483444L568.284021,277.670177L565.952519,289.190805L573.693048,289.255756L574.455034,285.269405L581.124308,284.408808L582.432110,277.678295L596.196270,277.702652L610.698960,277.597107L611.210168,274.958488L611.725121,272.336108L610.509944,272.319871L607.401182,272.287395L607.348569,272.555316L597.207017,272.449772L583.417373,272.555316L583.436505,272.457890L583.824991,270.444423L583.208886,270.444423L586.157347,256.066009L599.134922,256.147197L598.111998,254.693931L596.391953,251.503244L596.501029,249.749584L596.902267,247.460084L597.494950,245.958108L597.655917,241.720102L582.034031,241.638914L579.901300,252.355717L573.041662,252.388192L571.550292,260.368975L571.012965,263.210558L570.218977,267.464817L570.197704,267.537886L569.709957,270.444423L562.467982,270.590562L555.155187,270.744819L554.719068,270.744819L553.583773,270.744819L550.170967,270.744819L549.028749,270.744819L548.751848,270.744819L547.907300,270.744819L547.623476,270.744819L546.266660,270.744819L545.733626,270.744819L545.408267,270.744819L542.196214,270.744819L540.832475,270.744819L540.658673,271.629771L540.128213,274.260269L539.950682,275.128984L539.583413,276.963839L535.052296,276.842056L535.422796,275.096508L536.079808,271.962642L533.761849,272.027593L534.054270,270.785413L532.737395,270.793532L534.245880,263.113133L532.755439,263.194321L532.312019,265.134717L531.799752,265.134717L530.055279,265.134717L527.746348,265.118479L527.857973,264.550162L528.194444,262.837093L528.307666,262.260658L528.631423,260.718084L529.597388,256.082246L529.915833,254.531555L530.229496,253.005221L531.156665,248.426221L531.225787,248.109588L531.465016,246.891769L531.490534,246.761868L531.568683,246.364048L531.595796,246.226028L532.198051,246.226028L534.004815,246.226028L534.601742,246.217909L534.291357,248.044637L534.043683,249.481664L537.852132,249.546614L538.230244,248.044637L538.680672,246.209791L538.820545,245.673951L539.121366,243.895936L539.217025,243.303265L540.671795,243.262671L545.025446,243.124651L546.474888,243.075939L546.558365,242.686237L546.808253,241.484657L546.886404,241.086836L545.436420,241.103074L542.925706,241.127430L543.651979,237.571404L547.559430,237.555167L548.026180,235.038346L548.310598,233.520135L548.693912,231.498561L549.570079,226.862744L541.158763,226.724725L542.155730,221.650499L543.920945,221.650499L544.339455,219.661403L544.533559,218.743984L545.817935,218.760221L549.668928,218.784577L550.947977,218.792696L551.104277,217.891514L551.552418,215.187970L551.701801,214.286789L551.867138,213.304420L552.010683,212.468189L544.528152,212.606208L543.621383,216.763008L537.373078,216.608751L537.451787,216.243407L537.667149,215.147376L537.740532,214.773914L538.205819,212.370764L539.434217,206.013788L542.411892,205.973194L542.799602,204.105885L553.841860,204.170834L554.124325,203.050449L554.518498,201.467296L555.559402,196.734076L569.690054,196.758432L569.801220,196.263189L570.232587,194.314695L570.257059,194.225389L570.323014,193.924997L570.342160,193.827572L570.895281,191.083444L572.540334,182.818592L573.088177,180.066349L574.899006,179.376259L576.541049,178.734882L577.087864,178.523795L577.206884,177.354702L577.264799,176.778274L577.460865,174.829786L577.612301,173.319708L577.660107,172.759518L576.982845,173.035553L574.952657,173.855542L574.270069,174.123459L573.477218,174.212765L572.314790,174.139696L566.398449,177.086785L564.427932,178.061029L563.935438,178.312709L562.648026,178.945968L562.468069,179.051511L561.975574,179.303191L558.171369,181.154256L546.760356,186.699336L542.950828,188.542285L545.624491,173.847423L543.952572,174.253358L543.291245,174.342664L542.442455,174.293952L541.590516,174.472563L541.083635,174.691768L539.941023,175.187009L538.394373,176.258677L537.069237,177.330346L536.121550,177.996080L535.706773,178.134098L535.319124,178.134098L534.937901,178.312709L533.367120,178.556270L533.019431,178.669932L532.541792,178.669932L532.111056,178.889137L531.451950,179.424972L528.820547,180.098824L526.637971,180.496641L524.289821,181.032476L520.483285,182.014839L519.729313,182.152857L517.783086,182.193451L516.607458,182.680574L516.119187,182.769879L514.677859,183.305714L511.254095,183.890261L510.235523,184.247485L509.452244,184.288078L509.254171,184.344909L508.549195,184.515402L505.847442,184.913219L505.019481,185.181137L504.539189,185.229849L503.792744,185.716972L501.738541,186.342113L501.230020,186.358350L500.392958,186.390825L499.773162,186.480131L498.176327,186.926660L497.025174,187.324477L495.523029,187.324477L494.020388,187.503089L493.150893,187.771007L492.124815,187.884669L490.557738,188.038924L486.193631,188.793965L485.224527,188.899508L480.831608,189.378513L478.227193,189.281088L474.661696,189.459700L469.911488,189.995535L465.994739,191.115919L464.845631,191.115919L456.880675,191.067206L455.895568,191.042850L454.366789,191.002257L450.588768,190.888594L444.927396,191.059088L443.235693,191.107800L442.710756,191.594923L442.525636,192.536695L442.521597,193.648960L443.064880,194.371526L444.686368,194.680038L447.127304,194.728750L447.734421,195.126568L447.916128,195.751710L447.814084,196.693482L447.516598,197.537830L447.148723,197.895054L446.245670,198.122378L444.281878,198.252278L442.870775,198.211684L441.119850,197.716442L440.903035,197.269912L441.524612,192.804613L441.413129,191.822247L440.732522,191.375718L434.202045,191.107800L432.492807,191.351362L431.674396,191.465024L430.734554,191.456905L429.800597,191.594923L428.686101,191.594923L427.420969,191.903435L426.057828,192.041453L424.763350,192.041453L423.440685,192.220065L421.387963,192.309371L420.487001,192.349964L420.168574,192.349964L418.597203,192.349964L416.584358,192.130759L415.398484,192.000859L413.711528,191.814129L413.386179,191.814129L412.894693,191.814129L412.244492,191.635517L407.527111,191.229581L406.022810,191.099681L401.534368,190.515133L399.416634,190.336522L392.504174,188.948221L391.224600,188.907627L389.206435,188.680303L386.574245,188.055162L384.253598,187.641107L384.080001,187.608632L377.769804,186.220332L376.622797,186.033602L372.393676,185.327273L370.665161,184.929457L370.024544,184.702133L368.890292,184.344909L367.856666,183.898380L367.323094,183.760362L366.507823,183.541157L365.341616,183.135221L363.337223,182.380181L362.714167,182.063552L360.452087,181.527717L359.356212,181.397817L358.082965,180.902576L355.436401,180.139418L352.027250,178.889137L351.041582,178.621220L350.213486,178.044792L349.428014,177.638857L348.374183,177.330346L346.735078,176.477882L345.331376,175.942048L345.001847,176.526594L344.805439,177.103022L344.611658,177.419652L344.156934,177.549551L343.769285,177.549551L343.407177,177.419652L343.096181,177.241040L343.036379,176.031353L342.909588,175.584825L342.145960,175.243839L340.932355,174.691768L339.235732,173.709405L337.375123,172.856942L333.582570,171.233203L332.573461,170.802912L331.944082,170.940930L331.201355,171.655375L330.795086,171.785274L330.214635,171.428051L329.972827,170.932811L330.450836,169.593226L330.684560,169.284716L330.847452,168.878781L330.842613,168.480965L329.101829,167.652859L328.595942,167.409298L324.734684,165.395863L321.696674,163.561040L319.828970,165.842391L320.159187,166.556836L320.165597,166.735447L320.012281,167.092669L319.693892,167.409298L317.306057,165.753085L317.517409,165.347151L317.999277,165.079234L319.039283,165.704373L320.934108,163.073919L320.435672,162.757290L319.402078,162.310762L318.961657,161.734336L318.428096,161.596318L317.633065,161.239096L317.048370,160.938705L310.663708,169.187292L308.235418,172.418532L307.319482,171.866461L306.768855,171.533594L304.332044,170.055992L304.161237,171.135778L302.780180,177.419652L301.984662,181.746922L258.941072,180.764558L260.261443,174.050391L261.296077,168.789476L262.468094,163.041444L264.704711,151.318073L262.597156,151.334311L242.966200,151.050157L241.941216,151.756481L240.942859,152.503399L240.742654,152.641417L240.431166,152.852502L239.939177,153.242198L235.258346,156.627686L230.862920,159.793971L230.377855,160.183667L223.430917,165.201015L222.060912,166.183376L221.568927,166.573073L217.661253,169.406496L217.213404,169.008680L217.113290,168.919375L216.351230,167.937013L213.199174,163.902025L212.363219,164.527164L210.437861,165.939815L199.338283,173.522675L195.044569,176.453526L193.398220,177.573907L185.137740,183.216408L176.509359,189.110595L173.488765,191.164631L175.666395,193.924997L171.744940,196.863975L171.397785,197.115656L164.626703,202.189863L162.007618,204.138359L160.863933,204.990827L162.728457,207.231599L163.899532,208.246442L166.899415,211.014933L156.375804,218.873884L145.591355,226.968288L137.836156,227.260563L136.241520,228.470260L134.745917,229.598768L134.259278,229.996588L132.712565,231.173810L128.524993,234.340131L128.018647,234.697357L127.736995,234.932802L127.193383,235.338740L126.656693,235.744679L126.022568,236.223687L126.408850,240.737729L124.559656,250.602057L121.955841,264.517687L106.143781,259.346005L106.420815,265.297093L106.619379,267.562242L107.076555,273.829972L108.939120,299.436793L109.560767,307.969717L109.196428,307.604368L108.105008,306.500202L107.907926,306.305349L107.735343,306.126734L104.969305,303.504342L103.201988,301.823738L101.236004,299.956400L95.554350,294.557363L91.640033,290.838931L89.603793,288.906646L88.413372,287.778127L85.712431,285.212573L85.385401,284.904057L85.065294,284.595541L83.641926,286.941886L82.211642,289.288231L78.651636,295.003900L75.090076,300.727692L73.734333,302.871071L69.041169,310.267357L68.726604,310.811321L62.185472,321.130413L61.879432,321.666260L58.037016,327.763544L57.685712,328.283153L51.835699,337.587410L46.759745,345.876816L46.415377,346.396427L42.151153,353.338102L41.353364,354.685844L39.593315,357.584301L34.033286,366.718102L33.732607,367.262071L29.176415,374.739619L28.548972,375.819440L28.456370,375.973700L26.899144,378.474337L26.351006,379.432374L26.161526,379.692181L25.672971,380.487839L25.372302,381.031809L22.967343,384.993861L22.613434,385.562189L22.262169,386.081802L19.504926,390.604067L19.360721,390.880112L19.021710,391.407845L18.721049,391.951816L16.467819,395.670306L16.114967,396.198039L14.826577,398.317093L14.532844,398.861064L12.251956,402.579558L11.900703,403.099173L8.649705,408.408991L8.355979,408.952964L6.687638,411.632232L6.555692,411.916397L6.490243,412.038182L5.622327,413.532077L4.167426,415.935301L2.612241,417.932576L2.146998,418.362883L0.911950,419.329044L0.142146,419.864899L0.000000,419.954208Z M238.320647,289.897145L238.733725,287.583274L239.183692,287.583274L240.775883,287.583274L240.407407,289.458727L240.326056,289.872788L238.320647,289.897145Z M402.784849,333.057064L403.528155,329.095043L406.899495,329.095043L406.161432,332.854091L402.784849,333.057064Z M268.469755,279.919093L268.553246,279.529389L268.789875,278.360277L268.868039,277.962454L270.294054,277.856910L274.565174,277.540275L275.985860,277.426612L275.893882,277.929979L275.607294,279.423844L275.509990,279.919093L274.104712,279.919093L273.633978,279.919093L271.723354,279.919093L269.881956,279.919093L268.469755,279.919093Z M447.849913,334.299255L447.976115,334.291136L448.706185,334.274898L450.875625,334.226185L451.600366,334.201828L452.567400,334.177472L455.447736,334.104402L456.409441,334.071926L456.049269,336.012343L447.618579,336.182840L447.849913,334.299255Z M286.383748,328.948902L286.516409,329.119399L290.310496,328.940784L289.173931,335.362831L288.803295,335.346593L286.162522,335.257285L285.953247,335.265404L285.395657,335.143621L286.383748,328.948902Z M246.894251,243.449403L247.384120,240.851392L248.963519,240.916342L253.708100,241.078718L255.289095,241.135549L254.774289,244.107024L254.663670,244.740290L246.670334,244.659102L246.894251,243.449403Z M238.654836,240.534759L239.420308,236.710814L240.043231,233.576966L242.187591,233.585085L242.337127,233.106077L245.454359,233.130434L245.249613,234.453794L244.610182,237.530810L244.153300,237.530810L243.883325,237.530810L242.495104,237.514573L241.828062,240.908223L241.321127,240.916342L240.779580,240.924461L239.793400,240.940698L239.281138,240.940698L239.319392,240.534759L238.654836,240.534759Z M538.102140,284.295144L538.571428,281.940682L539.503691,277.369780L542.909543,277.264235L542.837289,277.702652L546.367787,277.702652L545.841133,280.454936L545.045470,284.295144L538.102140,284.295144Z M304.099711,181.868703L304.302454,180.837627L308.480029,174.131578L309.230169,173.027435L309.515068,173.197927L309.749378,173.344064L309.903814,173.473963L310.719660,174.147815L311.004036,174.391376L311.367227,174.691768L312.004142,175.219483L312.516955,175.463044L314.801444,176.518476L316.200393,177.395295L317.371954,178.125979L317.163885,179.148936L316.614181,181.803753L304.099711,181.868703Z M279.052322,228.851842L279.463839,225.701761L282.541166,225.929086L284.448045,226.018392L287.620669,226.148293L290.163872,226.205124L292.073403,226.245718L292.238485,226.286312L292.296538,226.343143L292.449931,226.513637L292.676323,226.911456L292.688054,226.992644L292.709943,227.268682L292.815076,228.389072L292.491649,229.964113L292.021394,232.180537L291.209899,237.189822L290.971040,238.229025L290.464727,240.981292L290.260784,240.997530L289.655879,241.046242L289.446610,241.054361L289.073337,241.086836L287.935943,241.168024L287.550420,241.192381L287.566353,241.005649L287.614150,240.445453L287.630083,240.258721L289.423345,232.156181L289.607936,231.287472L290.022905,229.493224L279.433594,228.884317L279.052322,228.851842Z M265.308939,668.993193L266.337099,662.611416L278.397791,662.611416L277.272729,668.993193L277.157897,669.756408L265.244158,669.748289L265.308939,668.993193Z M349.721336,373.578610L351.041734,366.287798L359.272396,366.360868L358.844779,368.609815L364.650339,368.658529L364.478221,369.535375L364.395349,369.957560L363.684578,373.578610L349.721336,373.578610Z M171.863574,336.483239L172.079400,335.419663L173.267511,329.476631L173.418543,328.883951L187.709143,329.119399L186.128043,336.499477L171.863574,336.483239Z M280.979300,288.654961L281.293520,287.055550L281.693367,285.090790L282.868445,279.180279L283.256066,277.207403L285.122474,277.150572L289.704780,277.540275L290.447598,277.459087L292.591296,276.907007L292.278775,278.920476L291.332190,284.936533L291.119064,286.268022L290.993600,286.941886L290.764972,288.070405L290.841120,288.070405L293.945079,288.021692L294.981327,287.997335L294.928183,288.338327L294.773537,289.336944L294.721988,289.669817L293.365164,289.669817L289.273922,289.669817L287.910175,289.669817L288.116471,288.654961L287.500362,288.654961L280.979300,288.654961Z M293.321750,594.198507L293.493563,593.321631L304.779203,593.459658L304.642392,594.157911L304.599440,594.377130L309.622670,594.498918L305.081573,605.768407L304.245439,605.760288L300.654848,605.711572L291.242761,605.622261L292.984581,596.025332L293.321750,594.198507Z M203.091869,772.531472L206.066099,757.331900L219.737465,757.559244L217.023428,771.995589L203.091869,772.531472Z M288.740001,537.494111L289.114594,535.618587L290.219229,529.983900L290.588513,528.100260L291.233486,525.234204L291.974538,521.913478L296.546839,521.686142L299.016175,521.556236L307.090393,521.158399L307.014543,521.580594L305.601302,529.107033L304.221019,536.430502L301.348774,536.885175L298.832559,537.006962L291.864900,537.339847L291.263141,537.372324L288.740001,537.494111Z M247.585238,214.895695L248.330631,211.104239L253.200277,211.193546L252.835319,213.190757L252.376737,215.699451L252.288952,216.145982L252.025601,217.485577L251.932492,217.923989L252.740816,217.932108L254.691337,217.940227L255.140774,218.013296L255.916102,218.118839L259.050986,218.687152L262.425946,218.808934L267.570387,218.979427L267.754523,218.394877L271.804725,218.743984L274.622721,218.987546L274.528256,220.700604L274.081844,225.295822L273.664453,228.405309L271.834238,228.242934L266.409625,227.772046L265.658272,227.755808L265.034715,227.723333L264.388816,227.804521L261.952184,228.121153L252.685417,229.306493L249.597557,229.696194L249.349945,229.688075L249.577561,228.177984L250.065760,224.849290L250.288119,223.647714L250.558879,222.129505L250.924690,222.064555L251.395534,219.775066L252.367034,215.009357L252.154036,215.001239L249.507009,214.944407L247.585238,214.895695Z M313.113207,331.587543L313.213106,331.043577L313.642741,329.419798L314.760778,328.802762L315.248553,328.786525L316.696440,328.745930L317.178888,328.721573L317.572430,328.762168L318.735480,328.867714L319.123695,328.900189L319.449060,328.900189L319.397033,329.306134L319.231890,330.499611L319.174536,330.897437L319.624509,330.897437L320.962180,330.889318L321.406825,330.881199L321.483353,330.491492L321.692171,329.322372L321.763371,328.924546L322.364049,328.932665L324.153832,328.948902L324.749181,328.948902L324.901480,328.948902L325.365299,328.948902L325.512269,328.940784L326.268435,328.932665L328.528414,328.916427L329.279251,328.900189L329.098630,329.996240L328.910585,331.165361L328.306606,334.875697L327.811013,337.928404L327.437052,340.185460L327.259639,341.265275L326.908510,343.335597L326.718350,344.480363L326.535616,345.552060L323.321885,345.560179L315.042325,345.560179L313.671628,345.560179L311.511743,345.560179L310.452568,345.560179L311.117300,342.069047L312.967073,332.366957L313.113207,331.587543Z M335.400971,340.558930L335.434449,340.388433L339.620540,340.364076L340.798388,333.730932L339.147602,333.747170L337.636863,333.755289L337.645883,333.674100L337.734069,333.154490L337.818565,332.724189L338.345725,330.004359L338.376017,329.850100L338.564144,328.892070L338.970987,328.900189L340.189377,328.900189L340.590892,328.900189L341.199038,328.940784L343.009631,329.062567L343.612449,329.095043L343.437077,329.988121L343.139409,331.327739L342.574874,333.779646L343.831614,333.795883L344.979707,331.157242L345.449477,330.069310L346.238868,329.257420L346.538683,329.281777L347.434393,329.338609L347.728879,329.354847L355.811199,328.948902L355.449807,330.718821L356.995158,330.710702L357.772091,330.702584L356.482060,335.192334L355.963606,336.986611L355.615877,336.994730L354.556706,336.994730L354.203649,336.994730L354.097933,337.603648L353.764803,339.406045L353.653761,340.006844L353.979127,340.006844L354.963744,339.998725L355.283782,339.990606L354.923104,342.109641L354.702119,343.376191L354.290444,345.755033L353.833098,348.401799L352.022989,348.206945L349.767231,348.166350L342.987706,348.036448L340.726620,347.987734L340.584750,348.710318L340.133049,350.869950L339.985854,351.584415L339.882014,351.584415L339.558240,351.576296L339.449070,351.568177L339.589342,350.853712L340.011758,348.702199L340.153628,347.979615L340.258836,347.443767L340.574460,345.836222L340.679669,345.300373L334.514178,345.251660L334.744777,344.041942L335.400971,340.558930Z M294.861879,447.428982L295.378880,444.546723L297.105815,442.590036L297.689488,441.696942L298.573238,440.332945L300.824177,439.269352L309.383499,439.115090L310.693159,439.391137L311.541494,440.324826L313.934812,441.429014L322.280631,441.339705L321.889224,443.158368L321.755917,443.767296L320.892822,448.484457L320.567968,450.246290L320.343460,451.496622L319.778737,454.622455L319.658735,455.198908L319.634357,455.393765L319.414572,456.514194L306.297675,456.538551L305.556917,456.538551L305.811427,454.711765L306.566476,449.239528L306.088792,449.239528L302.101167,449.239528L298.113542,449.239528L294.527449,449.239528L294.861879,447.428982Z M245.483279,251.227205L245.724195,249.895722L254.108961,250.098692L254.467388,248.028400L258.430283,248.223251L260.262627,248.304439L261.675378,241.362875L263.145074,241.387231L265.429485,241.387231L266.190955,241.387231L266.640915,241.387231L267.990794,241.387231L268.433832,241.387231L268.537668,241.387231L268.683040,241.387231L268.842257,241.387231L268.939171,241.387231L269.423743,241.387231L269.852935,241.387231L270.856692,241.387231L271.334341,241.387231L271.458946,241.387231L271.811991,241.387231L271.929673,241.387231L272.933429,241.387231L273.355699,241.387231L274.740191,241.387231L274.442738,242.337129L274.296406,242.799900L272.645713,249.895722L270.041931,250.464038L269.425391,250.853740L269.156984,250.740077L268.659722,251.121660L264.168902,260.904816L263.047373,262.666598L257.856248,263.543430L257.387767,266.068380L260.291007,266.230757L260.555658,266.222638L260.220838,266.693529L258.801477,271.767791L256.171514,272.011355L254.874323,271.954524L252.824199,271.995118L246.647734,272.108781L244.592283,272.141256L243.967660,272.149375L242.098576,272.149375L241.468626,272.149375L241.625539,271.491751L242.107994,269.494521L242.259583,268.828778L244.900769,268.739471L249.363092,268.577095L249.801202,265.995311L250.040461,264.566400L250.335023,262.820855L250.631291,261.489371L249.866083,261.473133L249.597701,261.465014L250.071124,259.443431L250.392750,259.427194L251.169126,259.386600L251.085157,260.060460L258.122152,260.076698L259.012723,254.523436L252.322382,254.434130L252.769069,251.844233L249.233791,251.763045L248.732161,253.963239L245.015816,253.817101L245.483279,251.227205Z M281.775366,247.541272L281.828045,247.378896L282.347864,245.544050L287.217034,245.600881L287.805490,243.522472L288.006071,242.783662L290.113174,242.840494L291.931131,242.889207L292.270331,242.889207L291.951138,244.196331L294.629077,244.236925L296.449685,244.236925L297.634482,244.196331L298.063675,244.196331L299.351253,244.196331L300.666521,244.196331L301.021229,242.215347L301.368063,240.697135L303.885210,240.851392L304.720176,240.900104L304.653726,241.379113L304.450647,242.799900L304.378872,243.270789L302.585979,243.376334L301.614183,243.425046L301.322196,244.910784L301.166913,245.771376L302.243087,245.755138L304.024812,245.706426L303.997173,245.917514L303.908930,246.542661L303.875965,246.745631L303.803626,247.078501L303.579689,248.077112L303.502024,248.401864L303.235552,249.652158L302.420708,253.411161L302.148919,254.653337L302.094134,254.896901L301.914339,255.635712L301.854228,255.871157L301.541990,257.178285L300.601560,261.083430L300.284006,262.382440L298.641263,262.463628L294.496332,262.666598L294.299025,263.600261L293.909714,265.370162L293.875671,265.508182L293.475285,267.651549L293.063740,269.851749L296.662371,269.786798L298.484049,269.746204L298.343158,270.533730L297.906646,272.896307L297.760432,273.675714L294.135251,274.016705L290.611770,274.333339L291.318446,270.736700L291.474149,269.591947L288.249364,269.762442L284.640650,269.949175L282.152272,269.965412L277.663284,269.981650L278.306133,266.498678L278.838921,263.575905L281.227187,263.575905L281.680272,261.270163L282.877865,261.270163L283.774486,256.707394L283.929244,255.919870L285.628445,255.903633L286.016105,255.903633L287.154585,255.887395L287.536917,255.879276L287.584781,255.635712L287.650735,255.335317L287.829425,254.426011L287.890053,254.117497L287.509316,254.117497L286.367105,254.117497L285.979446,254.117497L284.768010,254.117497L284.283436,254.117497L284.375974,253.646606L285.010983,250.415325L285.291796,248.986417L285.410407,248.418102L285.582726,247.541272L284.868116,247.549391L284.376620,247.549391L281.775366,247.541272Z M209.715474,685.175003L210.688027,680.279047L211.000217,678.720137L212.885038,669.236772L213.168635,667.824012L213.682801,665.233952L214.857462,659.306860L215.178684,657.666762L215.506833,656.026663L215.810571,654.475878L216.121235,652.925093L216.465300,651.203803L216.722657,650.172653L217.274981,647.883014L217.799715,645.698926L219.570339,638.391574L219.678585,637.945014L219.786831,637.498454L219.969363,636.743362L220.160409,635.980150L220.493106,634.599874L221.976433,628.088222L223.123452,623.046162L223.803598,620.033919L224.551691,616.745622L225.047248,614.569664L225.781051,611.354443L226.416150,608.537067L227.894411,602.017321L230.349323,609.381468L230.807426,610.753619L237.716286,631.465836L240.166290,638.821896L240.859975,640.900431L242.935748,647.127920L243.624134,649.198338L244.124545,650.708526L245.616730,655.214734L246.111826,656.716804L247.521810,660.971317L249.109162,665.769827L249.743403,668.506034L251.035519,674.140839L251.313120,675.374976L252.537705,678.314170L237.183407,678.232977L234.064083,678.216738L233.039403,678.216738L229.866281,678.192380L228.514440,680.782445L227.358774,683.007141L224.412199,688.650078L223.670148,688.479572L214.717546,686.360425L209.715474,685.175003Z M296.728289,513.981091L298.556048,507.201627L302.148020,493.861936L302.535478,491.921472L306.876238,491.921472L310.318593,491.913353L312.665028,491.986425L313.205820,489.193457L313.310353,488.625121L314.659974,480.790202L315.140102,477.989120L315.684211,475.285468L317.319790,467.158279L317.858614,464.446512L325.004739,464.438393L331.311589,464.438393L331.912744,460.914721L344.048609,460.703626L347.098948,460.646793L347.202793,460.646793L347.928499,457.017575L348.847663,457.025694L349.999022,457.050052L353.446179,457.123123L354.592208,457.139361L355.280885,455.604860L356.820954,452.129908L357.326167,451.001361L358.002604,449.458742L358.522707,448.289600L359.327860,446.479054L360.087807,444.757818L360.602588,443.580558L361.256191,442.119132L363.199435,437.718617L363.847721,436.249073L364.514633,434.755173L366.497807,430.257235L367.159402,428.755216L367.549781,427.894601L368.698011,425.288397L369.083064,424.419663L364.702769,446.535888L381.460672,446.690149L382.796811,438.855281L387.765949,438.968948L393.840013,402.928674L378.657658,402.896198L357.918174,402.465892L356.048628,411.640351L354.861099,417.445436L354.843575,417.534745L354.795783,417.778315L354.772929,417.859505L354.008226,417.875743L351.705049,417.900100L350.935016,417.908219L347.631758,417.948814L337.705993,418.046242L334.397405,418.078718L335.047316,415.578065L335.241796,414.798641L329.526078,414.644380L327.399655,414.579428L328.164282,410.471216L330.437556,398.146594L331.195369,394.038392L331.813086,390.855755L333.237657,383.491853L348.164810,383.483734L347.207109,388.363232L360.771591,388.420064L361.243254,386.016851L362.267879,380.796359L376.633934,381.177950L380.555054,359.508487L369.719769,359.232443L366.523554,359.151254L366.279701,360.393451L366.070366,361.424555L363.998578,360.799397L362.414169,360.442164L363.634373,353.873951L364.980570,353.857714L365.123474,353.094535L365.282318,352.250167L367.893232,352.209572L367.986726,351.698080L368.099895,351.121637L365.482606,351.194707L365.941662,348.856458L364.874517,348.897053L365.807321,343.652234L365.102299,343.717185L365.684719,340.891805L366.051622,340.891805L367.181844,335.135502L371.231112,335.208572L372.492189,328.997616L379.381294,328.957021L379.958059,329.086924L386.796062,329.095043L386.297092,331.636257L387.454227,331.595662L390.022496,331.490116L390.158912,330.442779L390.333546,329.095043L390.998123,329.095043L392.991852,329.095043L393.649505,329.095043L393.409292,330.247925L392.676412,333.698457L392.496782,334.542822L392.751327,334.550941L393.539967,334.518465L395.891493,334.388563L396.674804,334.347968L398.590247,334.323612L399.827266,334.299255L400.558406,330.540206L399.281992,330.588919L397.360175,330.645751L397.657731,329.095043L401.027979,329.030091L402.300702,329.070686L402.203594,329.882575L402.074471,330.540206L400.766086,330.540206L400.419665,332.375076L400.260257,333.186966L400.038180,334.388563L401.055769,334.283017L400.888257,336.052938L411.436968,333.909548L411.067017,335.476496L403.745855,374.041390L401.932666,383.597400L413.743734,384.052062L425.267235,384.490486L430.893992,384.709698L431.787955,380.366054L432.192724,378.409386L432.366952,377.556896L432.542774,376.696287L432.953928,374.707144L433.809717,370.558362L433.960053,369.827657L434.111984,369.088833L434.947094,365.045600L436.258772,358.680356L436.691769,358.802140L437.382997,358.842735L435.848205,367.367617L435.361250,370.095582L436.386758,369.843894L438.460579,369.153784L445.235702,366.766815L446.091876,366.531366L450.430767,365.305406L450.151411,366.799291L449.301110,371.272829L449.016438,372.758596L447.946683,378.068390L444.709998,393.997797L444.544313,394.842170L429.902531,394.842170L428.885741,400.306243L428.418420,402.652629L414.395859,402.530844L411.648832,418.119313L440.392953,417.729601L451.557971,417.737720L467.810332,417.891981L470.205224,418.070599L470.282779,417.745839L471.134972,417.989409L481.437328,418.054361L483.043564,418.265455L481.335965,425.629396L472.827718,425.629396L472.009516,430.435853L466.682675,430.557638L466.567560,432.132728L466.460898,433.594152L466.025439,433.837723L460.590392,433.805247L449.320361,433.732176L443.035388,433.691581L437.179636,433.650985L423.292485,433.155725L422.035814,440.267993L435.821174,440.576516L435.556816,441.924275L434.768538,445.943198L434.803471,447.282839L433.954717,451.610289L433.253041,455.223265L432.879399,457.163718L431.650308,463.642725L429.502924,475.228634L428.723322,477.615642L439.754262,477.461380L440.527057,476.803735L442.518260,476.852449L443.259943,477.412666L444.114660,477.396427L444.559369,476.681949L445.305246,476.373424L453.668888,476.511448L456.707468,476.373424L458.312804,475.212396L458.572519,474.205631L458.814724,473.288176L459.332690,470.681954L460.862700,462.879533L460.857640,462.481700L461.311893,460.094697L461.985329,456.554789L462.218834,455.328813L462.922551,451.634646L463.157658,450.400551L463.275490,449.799742L463.623658,447.989196L463.736161,447.380268L478.386589,447.161054L476.276633,455.978337L473.125422,469.082498L472.001767,475.236753L460.239405,475.025657L456.676720,486.416728L456.289377,487.650830L454.937154,491.970187L454.447371,494.397797L454.115178,496.021617L450.962476,495.964783L448.029720,495.916068L445.096965,495.867354L434.264353,495.680615L434.209676,495.924188L433.204188,500.276027L432.773206,503.710409L424.097939,503.572384L423.339583,503.556146L424.192929,498.709039L425.189772,496.378857L426.033458,493.594006L426.270643,492.384261L426.488727,491.271945L419.846477,491.499279L402.584471,492.043259L397.410388,492.197522L397.083413,492.205641L397.135391,491.905234L397.781393,488.893051L398.191164,486.944469L398.878463,484.322004L399.855799,479.832151L400.324023,477.656238L400.489604,476.811854L395.976076,477.234046L394.728410,477.347713L391.891220,477.623762L384.734343,478.322002L384.165806,481.009418L383.046760,486.221870L378.228318,486.221870L371.284500,486.221870L365.309909,486.221870L365.499370,485.255699L365.663359,484.419433L366.773100,478.760432L364.457624,478.776671L357.493608,478.809147L355.172801,478.817266L354.143200,484.102789L353.238383,488.787502L352.298020,493.618364L340.078807,493.618364L338.031147,504.343700L336.121046,514.297737L333.651565,514.216545L326.223946,513.964853L323.749135,513.875542L320.707184,513.818708L311.581332,513.648207L308.539381,513.591373L306.183449,513.672564L301.743179,513.826827L299.089552,513.908019L297.382246,513.964853L296.728289,513.981091Z "/></g><g fill="#000" font-family="Arial" font-size="12px" id="mylayer-label" stroke="none"><text text-anchor="middle" y="426.091960323"><tspan dy="0" x="378.219907721"><![CDATA[N]]></tspan></text></g></svg>