<?xml version="1.0" encoding="utf-8"?><!DOCTYPE svg  PUBLIC '-//W3C//DTD SVG 1.1//EN'  'http://www.w3.org/Graphics/SVG/1.1/DTD/svg11.dtd'><svg enable_background="new 0 0 1000 1001" height="1001px" pretty_print="False" style="stroke-linejoin: round; stroke:#000; fill: none;" version="1.1" viewBox="0 0 1000 1001" width="1000px" xmlns="http://www.w3.org/2000/svg" xmlns:xlink="http://www.w3.org/1999/xlink"><defs><style type="text/css"><![CDATA[path { fill-rule: evenodd; }]]></style></defs><metadata><views><view h="1001" padding="0" w="1000"><proj flip="auto" id="robinson" lon0="-81.3890044817"/><bbox h="1.02" w="0.61" x="-1163.35" y="-476.42"/></view></views></metadata><g class="" id="mylayer"><path d="M796.283836,0.000000L795.272107,3.965621L795.135744,4.440841L794.228185,7.390477L793.090110,10.094311L791.599128,13.027563L790.281277,15.370887L790.093675,15.682237L788.403808,18.140270L787.882402,18.795746L784.945694,21.974802L782.854861,23.990390L781.579213,25.137473L779.174044,26.907258L778.572516,27.333317L776.336782,28.742590L774.043289,30.020769L771.712520,31.135078L769.361700,32.069132L765.831919,33.101507L763.460538,33.576727L761.111013,33.871691L758.769375,33.986400L755.790738,34.002787L749.148988,34.035561L747.486687,34.035561L739.185892,34.051947L735.834292,34.117495L732.017520,34.133882L729.471920,34.150269L722.369195,34.183043L706.487475,34.248590L700.320667,34.281364L690.591785,34.314138L689.736423,34.330525L687.138204,34.330525L686.551510,34.330525L686.272131,34.330525L679.040429,34.379686L657.327153,34.478007L650.084738,34.510781L635.903967,34.592715L600.879248,34.756584L593.357454,34.789358L579.165969,34.854906L577.137218,34.871293L571.029543,34.887680L570.359034,34.887680L567.715651,34.904067L566.584168,34.904067L559.324526,34.953227L558.193043,34.953227L556.888358,35.051549L555.324778,35.117096L553.441353,35.526769L551.179888,36.362502L549.564251,37.181847L547.163659,38.787765L545.482438,40.147879L544.167666,41.491606L540.429699,46.030783L538.629341,47.849732L538.160976,48.308566L537.146007,49.127912L535.170504,50.422479L534.221620,50.979635L533.042719,51.569565L531.838198,52.077559L530.475820,52.536394L528.916936,52.929680L527.491665,53.142710L525.436850,53.290193L523.397381,53.290193L499.445740,53.404901L493.530353,53.437675L487.600996,53.470449L478.730702,53.470449L476.484956,53.454062L462.218005,53.617931L460.471884,53.617931L458.708537,53.634318L452.649263,53.617931L450.214965,53.847348L448.933577,54.109539L448.369243,54.207861L446.846685,54.699469L445.339975,55.322172L443.887762,56.092359L442.479335,56.993640L441.145889,58.009630L439.887424,59.140329L438.721168,60.369350L437.664347,61.680306L436.716961,63.073196L435.283607,65.645947L434.550459,67.366577L433.992395,69.119981L433.413545,72.102407L433.071672,74.806255L432.928628,77.493718L432.954020,79.263510L433.111076,80.230341L433.237372,81.000529L433.597157,83.196383L434.078976,85.621656L434.257534,87.112871L434.287213,89.423435L434.062196,91.750387L432.480435,91.766774L430.898675,91.783161L424.166529,91.848708L417.437639,91.897869L428.680556,34.002787L429.182400,32.954025L429.912881,32.019971L433.950447,28.152662L429.498499,22.581117L428.354835,21.728999L427.462656,21.368487L423.867520,21.253779L405.541765,21.597904L389.398861,21.712612L386.259119,21.696225L384.693987,30.692632L379.593990,58.665108L372.382560,93.749599L367.804536,118.821716L361.419244,150.530644L355.007022,183.222880L351.779688,202.068068L338.152093,270.107631L336.610317,279.628611L332.662561,296.622187L325.002174,338.082021L321.858794,353.420556L321.685781,354.010500L313.465048,394.995293L310.002628,413.070597L308.872931,419.887762L306.436670,434.554514L302.701278,451.122229L298.444715,472.147363L294.919289,492.517032L293.875924,496.859725L293.537496,498.072402L291.553654,509.478125L288.887339,524.816873L284.230374,546.317373L284.044089,547.185915L282.821033,553.069061L276.152569,585.205184L275.415974,588.777691L278.452558,590.301742L277.547569,595.004998L277.424047,595.627728L274.748823,609.819446L274.496261,611.163235L274.411751,611.589315L271.567698,626.633210L267.166390,650.657596L263.384353,669.306844L263.267367,669.896803L262.684716,672.764660L257.537655,698.018219L254.756688,713.242485L249.086791,743.674686L244.413110,765.913018L243.642964,770.714668L234.859109,812.143311L234.159918,816.305849L229.244326,840.265048L217.226821,901.130143L209.354182,945.033824L206.778446,967.420008L205.255773,983.644280L203.932452,995.476541L203.716164,997.344793L212.131102,997.393958L216.585681,997.475899L218.566356,997.492287L220.452477,997.492287L236.441823,997.672557L267.079277,998.033097L283.236281,998.213367L287.753237,998.262532L300.242289,998.410025L351.169011,998.967224L368.249386,999.000000L372.097976,998.967224L377.512609,998.786954L405.359685,997.787274L414.631646,997.459511L415.012115,997.443123L419.654368,985.922235L423.813032,976.138503L426.948764,969.616019L429.821940,964.207932L432.517914,959.553701L435.382545,954.965025L438.415834,950.441903L440.772628,947.147891L441.603808,945.984334L444.967918,941.625096L448.476974,937.380577L452.141700,933.267163L464.142414,920.500841L480.062167,904.030829L481.330995,902.703396L482.895756,901.080979L486.531067,897.328114L526.608313,855.882800L532.795412,849.475094L584.244095,796.263407L607.226160,772.500947L630.208520,748.738532L662.411737,715.389288L669.517405,708.014775L674.949965,702.033228L679.020318,697.215217L682.481850,692.790515L685.795237,688.267488L689.007909,683.547809L692.467809,678.074294L695.671058,672.486068L698.248927,667.586130L699.553293,664.882152L699.730025,664.554397L700.868385,662.194561L701.389158,661.047420L701.909932,659.900278L703.992382,655.033120L705.550162,651.050901L706.799962,647.494765L708.895754,640.939677L709.724524,637.957113L710.271302,635.974201L711.197222,632.008376L711.460380,630.680972L712.591000,624.978053L713.642051,618.619630L719.718003,573.602740L724.891601,534.764127L729.137500,502.792010L729.320226,501.448233L729.857691,497.400513L730.029703,496.040349L733.832348,467.575254L745.188358,382.180361L748.651968,356.140854L748.979671,353.715528L750.016183,346.029871L753.107828,322.923765L754.133817,315.221739L754.254559,314.402375L754.578134,311.927896L754.688162,311.092145L755.113928,307.962175L756.366589,298.555883L756.781671,295.409530L758.401311,283.381289L761.083560,263.257773L763.228789,247.247475L764.724851,236.055028L764.869377,235.186507L765.099696,233.252821L767.406923,215.866041L776.047309,151.333610L779.535227,124.704658L779.802478,122.656280L781.060874,113.790902L782.419625,103.647344L790.513389,42.950042L790.844024,40.442843L790.937954,39.689045L791.124442,38.328931L791.222572,37.624294L792.161986,30.577923L792.300574,29.529162L793.677247,19.369287L794.208413,15.501982L794.365615,14.289352L795.054004,9.209420L795.661927,4.604709L795.763333,3.883687L796.283836,0.000000Z " data-aland="17723694" data-awater="0" data-classfp="U1" data-funcstat="S" data-geoid="1267270" data-intptlat="+28.3790986" data-intptlon="-081.3901454" data-lsad="57" data-mtfcc="G4210" data-name="Southchase" data-namelsad="Southchase CDP" data-pcicbsa="N" data-pcinecta="N" data-placefp="67270" data-placens="02402883" data-statefp="12"/></g><g fill="#000" font-family="Arial" font-size="12px" id="mylayer-label" stroke="none"><text text-anchor="middle" y="479.808001578"><tspan dy="0" x="498.253449991"><![CDATA[Southchase]]></tspan></text></g></svg>