<?xml version="1.0" encoding="utf-8"?><!DOCTYPE svg  PUBLIC '-//W3C//DTD SVG 1.1//EN'  'http://www.w3.org/Graphics/SVG/1.1/DTD/svg11.dtd'><svg enable_background="new 0 0 1000 1001" height="1001px" pretty_print="False" style="stroke-linejoin: round; stroke:#000; fill: none;" version="1.1" viewBox="0 0 1000 1001" width="1000px" xmlns="http://www.w3.org/2000/svg" xmlns:xlink="http://www.w3.org/1999/xlink"><defs><style type="text/css"><![CDATA[path { fill-rule: evenodd; }]]></style></defs><metadata><views><view h="1001" padding="0" w="1000"><proj flip="auto" id="robinson" lon0="-84.9836985612"/><bbox h="0.29" w="0.31" x="-1208.53" y="-503.58"/></view></views></metadata><g class="" id="mylayer"><path d="M1000.000000,69.613109L994.454094,73.508799L986.046785,82.436423L977.896137,89.849060L956.758685,100.886858L937.322210,110.734309L915.957123,116.361426L897.741749,123.503538L882.431574,124.423356L873.685514,124.423356L862.551314,127.399236L856.697860,132.431181L850.515259,140.493116L836.275632,165.761076L830.326365,171.009456L815.519816,183.941037L805.591348,191.678346L798.839103,199.415658L793.115191,215.485466L788.246949,221.437250L782.624849,227.064392L778.453270,227.389035L774.214958,225.603499L769.786937,220.842072L761.120622,214.295110L750.022420,211.914397L733.400367,209.533684L724.903995,211.048683L711.746596,215.214931L695.357395,223.222785L688.590471,229.823857L681.437518,238.102252L674.517400,245.569042L665.052641,255.091908L644.592898,268.185855L637.428375,272.514434L633.926847,275.328011L629.053025,278.303910L624.471628,281.009273L611.857120,289.017149L603.371241,293.886805L602.476621,294.373770L601.188838,294.968950L595.285673,300.217358L592.524957,294.211448L584.221752,276.085513L581.427504,270.025501L578.240533,262.071739L568.704652,238.102252L565.530217,230.094392L562.407636,218.461358L560.279537,210.507612L557.373773,187.133353L556.978251,181.452113L556.004692,168.682854L554.639000,152.017899L557.659216,124.098714L477.243625,120.689979L464.094749,120.419444L447.673298,122.367293L427.084064,124.423356L404.927565,125.289066L155.087999,25.624322L147.910414,22.810773L121.558422,45.697916L106.835932,61.659411L95.141745,81.462500L79.681860,127.020488L34.571847,262.991561L27.379458,284.039280L15.808608,317.910453L4.094593,353.404895L3.788855,415.736723L1.112746,478.772109L0.701954,506.962235L0.000000,551.222422L0.592176,558.851632L7.838693,562.368644L29.285852,557.985906L39.127918,559.825573L48.896934,567.184245L73.202311,608.198062L82.389836,611.282217L100.942670,609.875410L122.440488,599.270247L145.202900,593.372479L160.816264,588.935628L173.536769,586.067907L204.642726,586.122015L223.270229,584.390561L267.692498,582.388568L334.999307,581.360517L451.528242,578.276366L453.270608,583.308403L452.427341,590.775298L451.800381,599.703110L447.533154,638.660875L447.873270,656.191890L451.094367,678.809082L453.389842,690.442334L458.368551,694.013474L466.132001,694.284014L470.642094,693.688825L477.593143,693.688825L478.896296,700.831104L479.093475,707.378196L475.900085,730.265976L471.556193,736.542534L466.554025,744.280018L464.161973,753.478428L465.145398,761.811108L465.587851,767.492483L464.344302,775.500518L465.626773,795.141858L467.334251,805.530672L468.291571,815.378407L467.713613,825.496687L465.001935,835.885515L464.061806,848.979772L464.098568,858.827524L466.091352,865.374658L470.393438,869.486909L476.443708,871.001948L479.805398,871.597143L485.786978,878.414823L489.181879,887.072198L490.577504,894.214534L492.071307,904.332847L489.663242,919.807923L485.807382,925.164683L480.060460,928.735856L472.316668,931.982378L459.224148,937.068596L447.352245,939.449380L440.257825,945.076687L432.632083,952.814237L423.579292,960.551789L418.031473,963.257227L408.869448,962.662031L399.733598,960.551789L392.222488,962.986683L388.114168,965.638013L381.098157,970.724239L373.065774,972.022850L384.377742,972.076958L413.425316,972.076958L534.507680,972.022850L574.075934,971.914632L600.079014,972.942699L606.750236,973.159134L781.262119,975.377595L863.246540,976.189227L903.511469,683.408274L915.815473,593.697127L995.039828,100.562217L1000.000000,69.613109Z "/></g><g fill="#000" font-family="Arial" font-size="12px" id="mylayer-label" stroke="none"><text text-anchor="middle" y="468.929366753"><tspan dy="0" x="524.91723331"><![CDATA[N]]></tspan></text></g></svg>