<?xml version="1.0" encoding="utf-8"?><!DOCTYPE svg  PUBLIC '-//W3C//DTD SVG 1.1//EN'  'http://www.w3.org/Graphics/SVG/1.1/DTD/svg11.dtd'><svg enable_background="new 0 0 1000 1001" height="1001px" pretty_print="False" style="stroke-linejoin: round; stroke:#000; fill: none;" version="1.1" viewBox="0 0 1000 1001" width="1000px" xmlns="http://www.w3.org/2000/svg" xmlns:xlink="http://www.w3.org/1999/xlink"><defs><style type="text/css"><![CDATA[path { fill-rule: evenodd; }]]></style></defs><metadata><views><view h="1001" padding="0" w="1000"><proj flip="auto" id="robinson" lon0="-86.3151489923"/><bbox h="0.78" w="0.99" x="-1217.57" y="-545.92"/></view></views></metadata><g class="" id="mylayer"><path d="M52.722665,417.561611L58.834936,394.573063L93.227312,395.383233L89.737435,392.733299L82.396377,388.311113L78.357924,385.104182L72.841925,379.112279L66.722267,387.315277L63.476050,387.973542L60.594190,387.956663L57.408223,385.661175L56.926071,383.838288L58.013606,379.213551L59.337204,377.390661L66.765273,371.432507L67.517843,369.137012L66.873964,366.318278L66.001296,365.322438L59.836855,368.613774L57.994528,369.339556L53.258501,371.162448L45.226503,370.301638L38.252116,371.398749L35.246276,373.559214L33.256010,376.445458L33.787690,379.686152L34.476574,383.298173L37.898623,388.716199L30.947651,397.746231L24.186845,407.130696L19.885101,410.742698L4.913356,419.030039L0.000000,455.318652L6.569025,455.318652L42.698665,455.318652L34.065789,487.792531L96.699468,487.792531L102.837215,464.703016L120.627906,465.226244L112.977473,441.427738L106.266159,418.591199L81.102240,418.152358L52.722665,417.561611Z M52.722665,417.561611L46.046122,442.727375L25.548033,417.679761L52.722665,417.561611Z M70.357666,603.221729L63.733235,627.829649L65.546889,631.171456L71.880107,632.487925L76.664332,631.981591L78.526284,631.930958L96.986436,631.542768L105.832689,619.120686L108.125426,615.897016L109.763629,613.584749L110.780985,612.217641L116.719092,604.318792L118.462656,601.449549L121.052961,597.213193L117.480494,593.213125L127.633591,557.094232L133.191729,534.950191L141.583935,535.152729L142.620827,530.983833L144.145412,525.836002L145.414319,521.650220L136.331423,521.532073L92.121826,521.008850L82.694920,557.279890L70.357666,603.221729Z M1000.000000,533.363648L970.723265,533.363648L982.470123,485.176399L985.805850,463.251478L985.929731,462.356926L967.540372,469.867784L954.382618,475.133818L954.831742,473.496622L955.204523,471.825669L956.163892,467.893020L962.211677,442.879281L951.206207,446.305596L935.879495,451.065302L884.738483,466.947834L898.968355,413.173203L891.270319,413.730193L891.128029,413.409502L877.137750,413.460137L840.794396,413.409502L846.250203,387.686606L862.799691,324.340910L863.495467,323.648880L873.493270,324.121486L875.070308,319.311030L904.886983,320.323758L906.563976,320.273122L907.556807,313.487841L909.140831,306.618158L910.019912,302.668508L911.783045,296.676512L913.966741,290.600114L912.307702,290.583235L899.293234,288.996619L910.104256,268.488721L910.676437,267.138404L911.904860,265.619296L904.371752,259.458468L903.731615,257.854964L901.488195,258.057512L869.373197,257.348594L863.747332,257.331715L867.449024,239.929440L864.061409,239.996956L867.066156,228.586704L867.641254,226.476818L856.482422,226.628729L861.559426,205.766126L869.088255,206.272501L875.140128,182.118366L886.863838,182.033970L888.985403,182.877932L890.919783,182.928570L894.078551,178.641242L902.754126,170.876781L918.041774,157.440862L920.668012,154.942722L931.554713,145.760361L943.108881,136.206638L951.957504,129.235447L963.868666,119.782970L966.543679,118.331338L965.890260,116.778429L959.135522,110.313596L960.068319,106.752027L954.334140,106.768907L952.974898,111.292605L948.981979,111.123811L949.737396,107.106496L924.558111,108.068626L872.920657,109.722815L859.832257,110.127922L854.050135,109.469623L833.887137,191.182509L840.805278,191.418818L842.251012,191.435697L841.214427,195.655498L840.206868,198.643115L839.321413,202.508447L836.933562,202.559084L834.256157,202.896668L830.969602,203.065459L829.779670,207.487800L826.995989,217.851592L823.766485,228.823011L822.332163,234.646294L827.057833,235.000754L828.728817,230.426525L834.378597,230.460283L846.728776,230.426525L852.121876,230.409646L852.371767,238.882939L852.832192,248.436476L855.425817,248.200170L853.691044,259.272799L856.894595,259.255921L864.376887,287.646308L856.100192,328.577483L838.124395,389.104406L836.938815,393.459077L816.686346,400.649341L818.835003,408.616006L819.873674,413.375745L818.171170,413.308231L807.139875,413.460137L804.793815,413.460137L801.040121,413.460137L797.229552,413.460137L790.883598,413.477016L783.792267,413.409502L778.261255,413.409502L775.546277,413.460137L764.658835,454.542247L707.982614,452.618113L702.420060,452.415572L701.192006,452.381815L703.272731,448.617936L704.605826,447.132638L705.454025,443.351876L708.015960,432.212117L708.267883,431.317560L708.755987,429.427174L712.107125,416.869593L693.167923,416.548902L692.063361,416.532023L690.574899,416.515145L678.979245,416.329482L682.645474,397.611202L682.887607,396.379068L683.159618,394.927512L687.470857,371.803837L720.551693,371.128691L712.490209,400.767490L744.656763,400.109227L746.768807,395.585776L739.639336,395.501383L737.424024,383.720137L765.113137,377.491933L741.147573,314.500570L737.642709,305.166577L716.720308,245.718952L690.876883,171.585711L621.883160,171.619469L535.920848,171.197488L536.377222,169.374526L512.377623,170.015938L482.669192,170.471679L482.185113,172.345278L445.485997,172.784139L420.986479,172.632226L410.279235,214.442008L404.614545,214.999020L350.196568,215.556031L348.430889,222.408954L344.994608,235.169545L405.912733,235.405852L404.404021,243.592193L389.878941,293.992770L366.130895,294.380985L365.107186,294.380985L328.500733,295.376838L325.267062,307.377706L323.615454,313.268417L322.827170,316.981755L319.765098,329.353906L313.258335,355.431538L296.580905,355.161479L254.120391,355.178358L257.550144,345.219924L262.992892,322.129789L288.212344,233.228452L287.761077,232.519531L286.980428,229.093077L288.438711,224.839545L292.525195,199.318282L292.697295,198.778148L296.312933,187.215894L288.639038,187.148377L276.738700,186.827672L264.623601,186.726396L255.340098,186.777034L266.691691,144.156822L297.140030,144.713841L306.913300,109.739694L292.388160,109.452743L256.030019,109.199551L239.055711,108.980118L228.225643,108.912600L208.618080,108.811323L196.880297,109.216431L191.723738,133.354021L251.087767,133.708488L234.070204,188.059855L233.472306,189.292038L233.083935,190.591737L232.263050,194.372679L231.062789,199.098853L230.220212,201.411300L228.955592,203.706868L221.453620,231.911884L218.884273,242.106837L206.247375,292.456792L208.050851,292.625581L232.697603,291.798515L260.477698,292.288003L254.368729,318.416454L244.666691,355.279630L189.378990,355.465295L180.333213,356.224836L179.368115,358.250277L174.166798,377.812626L165.358791,377.356904L161.595395,377.340025L131.473253,377.154360L99.421896,376.951817L75.589547,376.799909L79.084808,381.087076L83.487807,385.222332L91.557055,390.167757L96.328986,393.931677L97.753989,395.096298L99.797988,397.087967L102.443177,400.936276L104.636319,404.345740L106.328802,407.552659L109.660663,418.658713L121.337881,418.911890L119.055324,427.283611L119.811729,430.642422L121.045072,431.030627L124.097038,418.962525L128.566152,418.945647L125.837384,430.439881L129.491563,430.439881L131.049156,418.911890L142.375345,418.827498L139.430359,430.439881L142.259859,430.439881L143.159497,426.895406L146.205302,427.097948L149.518232,427.097948L158.655536,427.064191L161.100428,418.776862L165.146716,418.692470L163.497557,424.093582L162.826068,427.047312L170.452473,427.081069L162.898442,457.209029L155.735005,456.128813L154.537492,459.082526L158.501502,462.677615L160.956558,464.888677L160.101902,468.264344L159.004156,472.180114L158.117283,475.302601L135.194072,473.547257L131.103589,458.981256L127.592714,460.956023L119.864012,438.575286L118.332246,439.149152L116.718198,439.925559L124.323121,464.483597L128.659887,472.078844L134.208136,478.914556L140.916849,484.433755L144.888398,487.893800L149.318055,495.033301L150.504969,498.324557L151.595102,503.691831L151.532527,504.890185L151.468509,506.307954L151.084853,510.426234L150.521771,515.219639L149.727076,518.477126L149.133656,521.565830L147.860348,526.089174L146.446473,531.034467L155.505437,531.135736L152.936833,541.549530L143.378747,541.667677L139.575249,556.942329L135.789484,570.866698L132.174381,581.955534L131.805737,582.968211L130.876160,585.128590L123.927811,598.327136L121.430268,602.428467L114.392193,613.129046L111.785311,616.892809L108.805887,621.095394L100.943203,631.795935L107.793251,632.184125L113.043446,628.639784L130.636389,619.795800L216.076883,616.808420L218.086924,616.521496L221.781610,616.369596L232.566296,615.863260L234.440816,615.390680L236.682305,615.677604L237.436144,616.318962L237.674582,615.475069L268.992356,612.504565L270.262771,611.576282L271.763105,611.120579L277.668309,610.462342L280.824307,610.732388L282.926897,611.863206L284.220840,611.863206L285.283330,611.289358L288.387784,609.719716L297.790894,609.061478L298.764465,608.875822L300.435197,607.778759L302.999778,607.491835L303.704295,608.318852L302.955318,610.816778L301.028734,616.302084L301.548409,617.129099L299.155694,626.884491L303.122850,626.884491L308.914334,603.694310L306.076412,603.458019L301.197719,603.356752L294.068575,603.002316L281.337862,602.698514L274.742376,602.529735L240.320177,602.681636L228.608870,602.715392L225.400490,602.428467L222.926913,601.837741L221.242613,600.470630L219.703037,597.702653L218.753020,594.428336L217.611491,591.339675L216.018784,588.504180L229.353430,588.943007L231.911292,579.423838L241.424193,546.461053L241.744172,545.363978L243.026944,543.051680L243.894019,542.089629L244.962449,541.279481L246.155221,540.857528L248.668919,540.654991L264.879171,540.384941L267.692976,529.903633L269.175262,523.844380L272.438507,511.725855L275.406308,499.809841L277.227689,493.598650L281.021214,479.218366L221.055453,478.863922L236.676245,417.156528L237.628888,417.156528L251.643135,417.122771L263.747548,416.785201L275.985867,416.211332L282.070648,416.160697L290.418453,416.261968L297.653419,416.110061L308.486371,415.688099L314.967818,415.856884L317.571435,405.206545L334.888261,406.067349L353.211379,405.763536L350.667000,416.565780L355.848489,416.329482L355.376650,418.051087L360.242363,417.932938L366.429505,417.122771L372.928073,416.852715L377.014803,416.937107L381.731015,417.595368L385.609024,417.983573L387.930517,418.557442L390.302119,418.996282L392.363882,419.316974L395.247354,419.755814L398.360602,420.346561L403.970241,420.532224L405.989277,420.532224L415.947151,418.962525L424.478826,418.051087L428.757777,417.679761L441.608310,417.477219L456.236995,417.646004L456.764152,415.823127L458.512923,408.869183L469.292156,367.246604L451.677077,367.347876L445.695618,367.330997L447.998125,358.722880L459.609471,359.651207L470.491649,315.614572L487.531806,315.428905L518.267098,315.125086L509.073260,349.709661L513.829706,349.895327L520.971864,350.199143L518.593230,359.414906L504.472919,413.983371L492.150006,414.287184L481.414322,414.557240L479.384036,414.439090L478.990784,416.025669L478.371712,418.354900L456.478434,502.662260L454.863308,511.844002L454.163867,515.118370L449.301942,534.325701L439.607331,537.954495L432.179011,540.064258L429.278455,540.384941L426.019471,540.823772L412.492051,538.595863L409.626400,538.089520L405.798083,510.223696L369.994954,509.903010L378.825660,539.490402L378.487210,541.245724L385.753085,541.245724L369.716324,600.318729L431.297537,599.576101L446.006112,549.887302L448.617825,543.001046L478.434285,543.271095L481.924707,543.406120L496.459417,543.287973L506.733918,543.844950L511.577098,523.422427L512.036053,521.802124L507.434070,520.873825L501.857107,520.350602L508.078402,495.117692L529.491104,415.131109L529.745879,413.477016L526.587159,413.645801L532.886393,390.319664L547.005333,390.319664L551.002691,375.922221L589.807165,232.468893L649.121533,231.945642L640.479437,266.108787L634.474321,290.515720L678.302387,291.663484L694.511912,292.034820L685.154376,327.666029L682.718278,336.831195L681.000794,343.346386L680.324135,345.945709L678.311981,353.034764L651.120481,352.950371L629.417127,352.224587L617.758078,352.224587L617.482962,353.473610L616.121616,359.718722L614.566165,367.871114L604.952063,409.983165L604.071443,410.675184L585.955578,413.730193L578.671531,415.029838L557.329960,497.159959L553.287645,516.333598L576.545211,516.350477L577.318062,513.548699L588.778454,513.548699L589.849134,510.696286L597.275241,490.881252L583.579395,490.358026L586.778672,478.745774L587.381172,476.585352L588.561327,476.585352L640.175334,476.585352L633.980874,498.240166L617.352314,498.105140L613.240779,513.312405L609.968707,525.414048L624.525780,525.211510L622.349944,534.578873L621.222105,536.469221L622.823592,536.435465L621.703956,538.241423L635.570238,537.802592L629.378398,561.752570L627.292505,570.782308L652.508599,570.225334L667.314956,569.887774L667.790205,569.972164L669.557977,570.275968L671.155121,570.579772L673.797814,571.069234L669.005232,589.111786L668.833334,589.651881L667.875218,592.723665L667.273579,594.613993L666.697439,596.622466L667.647204,602.040276L669.283174,602.090909L676.324720,602.293444L677.339531,602.327200L685.614429,602.597246L685.085308,604.268158L683.504284,613.432848L682.053931,613.432848L680.001889,613.449726L673.660429,614.091085L679.087442,620.319013L683.594882,626.850735L685.573896,624.217794L689.769082,622.074309L690.927824,620.977249L693.172240,622.698789L694.106807,623.998382L694.631333,625.449875L682.592883,633.568105L692.350796,645.922643L701.737670,645.753865L713.311253,611.491893L713.958632,613.230313L725.563255,605.567756L725.085742,603.778699L755.847883,604.183769L765.069446,604.369426L770.662671,604.082501L794.010149,604.993908L782.327544,615.306291L779.361492,625.939332L775.466487,640.606144L802.435430,639.660988L800.984888,636.234797L805.387569,631.542768L802.509414,625.568020L807.127263,621.618607L816.269924,614.766199L812.097712,601.939008L861.373764,602.074031L878.502551,602.040276L902.205053,601.989642L901.244339,605.500244L897.953918,616.605886L891.731062,641.753833L888.218793,655.998659L887.598195,658.496562L846.018323,657.703309L846.879289,655.424816L848.306050,651.711713L850.760849,644.555544L853.140530,635.272763L833.848911,635.525930L829.891567,649.196928L831.633118,655.222283L833.114940,666.884785L831.438972,679.087347L828.199159,686.040939L826.120107,690.175958L813.468410,710.513458L800.105914,742.580729L799.438148,743.542744L799.022039,744.842308L795.750892,754.057390L793.995623,765.061460L794.616465,783.238378L794.698277,784.858602L794.704320,787.407078L794.492200,789.331092L794.267422,791.356370L794.088416,792.352131L792.876493,799.221189L791.510107,804.368758L786.820482,820.857823L773.151463,870.054682L772.256204,873.160061L766.816036,891.944187L798.588247,892.247973L803.506804,892.146711L851.877346,891.150968L855.055517,877.835002L858.681171,860.957938L849.333607,843.456367L853.512682,843.355104L854.924928,843.338227L855.989853,843.236964L893.442493,843.996436L911.096385,779.356590L929.686347,694.918569L929.789406,694.530384L887.845787,668.167490L891.000517,655.964903L892.946100,648.369918L904.911168,601.972764L926.234594,601.939008L980.336801,601.837741L981.961716,596.200518L997.880216,540.756260L1000.000000,533.363648Z M869.284776,177.510332L871.658028,168.530562L880.644463,168.901906L878.171665,177.560970L869.284776,177.510332Z M148.286535,418.895011L152.695455,398.353859L155.833304,398.691430L159.587793,399.062758L154.319690,418.878133L150.774782,418.895011L148.286535,418.895011Z M75.589547,376.799909L73.418616,376.783031L73.975474,377.576326L75.589547,376.799909Z "/></g><g fill="#000" font-family="Arial" font-size="12px" id="mylayer-label" stroke="none"><text text-anchor="middle" y="434.128803632"><tspan dy="0" x="564.777203614"><![CDATA[N]]></tspan></text></g></svg>