<?xml version="1.0" encoding="utf-8"?><!DOCTYPE svg  PUBLIC '-//W3C//DTD SVG 1.1//EN'  'http://www.w3.org/Graphics/SVG/1.1/DTD/svg11.dtd'><svg enable_background="new 0 0 1000 1001" height="1001px" pretty_print="False" style="stroke-linejoin: round; stroke:#000; fill: none;" version="1.1" viewBox="0 0 1000 1001" width="1000px" xmlns="http://www.w3.org/2000/svg" xmlns:xlink="http://www.w3.org/1999/xlink"><defs><style type="text/css"><![CDATA[path { fill-rule: evenodd; }]]></style></defs><metadata><views><view h="1001" padding="0" w="1000"><proj flip="auto" id="robinson" lon0="-86.1636800413"/><bbox h="1.11" w="0.79" x="-1208.02" y="-571.85"/></view></views></metadata><g class="" id="mylayer"><path d="M475.476125,999.000000L481.455540,996.188550L486.234376,994.117748L489.587629,992.334137L490.645430,991.699292L493.576126,989.673832L495.390655,988.177410L496.605087,986.983294L497.752686,985.713601L498.812414,984.398561L500.184252,982.373095L502.496529,978.246582L503.487125,976.190880L504.719930,972.956170L505.780717,969.797032L506.200474,968.073865L506.495552,965.987923L506.832222,962.541581L507.193882,960.621906L507.976315,958.097607L508.271631,957.402290L508.545908,956.737205L510.104317,953.955936L511.501851,951.749057L513.008167,949.602639L523.628590,935.786915L525.361075,933.685830L527.105352,931.856826L530.786193,928.365087L539.718581,920.172330L546.974050,913.702753L553.443527,908.064532L564.209871,898.934517L567.612999,895.850861L573.202651,890.167250L577.749466,885.738257L579.320827,884.302233L586.142866,878.482550L588.264703,876.517459L590.714970,874.008187L591.883666,872.708201L594.937197,868.808240L598.812340,863.366424L599.422757,862.398988L600.257066,860.811789L600.974135,859.194356L601.785023,857.017622L602.250940,855.309489L603.230682,849.837409L603.614439,846.133923L603.661158,844.486247L603.440607,839.664145L603.478202,838.273442L603.892282,835.673432L604.722141,832.755974L605.557812,830.715264L610.569193,820.814013L613.464890,815.054641L616.859924,807.647554L618.356226,804.684713L619.961303,801.782334L621.127554,799.907879L622.494808,798.078773L623.979166,796.325248L625.841458,794.299623L632.157986,788.041337L637.175428,783.234237L642.867809,776.915455L644.512580,774.768879L645.694986,773.106037L648.368218,770.339671L649.897968,768.827994L653.174465,766.106973L655.597012,764.504593L658.115348,763.098730L660.146176,762.176604L664.307314,760.695156L671.243835,758.729967L672.485318,758.336930L675.593260,757.339218L681.021558,755.283326L686.299545,753.046029L692.929535,749.886600L704.159497,744.217758L723.402709,733.817287L725.325305,732.653278L728.289873,730.552013L733.506586,726.379713L742.379503,718.624656L745.916026,715.827993L749.859046,713.016208L753.746868,710.446295L754.494263,709.932312L761.941307,705.382046L768.157541,701.859741L773.991196,698.760712L778.923463,695.827970L781.135455,694.573239L786.923471,691.323029L793.996278,688.601919L801.677381,685.638929L814.407974,679.773408L821.732307,675.616136L825.514370,673.378765L832.341213,668.843546L832.916447,668.450493L841.811538,663.083805L845.009758,661.315063L846.780960,660.332428L846.978125,660.256841L849.717933,659.047444L852.259207,658.367157L852.900572,658.276452L853.780911,658.140395L854.807448,658.155512L853.187669,653.393502L851.922626,647.724429L851.495135,644.988152L851.241300,643.022868L850.914274,638.941120L850.797686,634.557011L851.058442,627.345891L851.236494,622.538466L851.395108,603.535434L851.269344,599.453617L844.295897,572.619277L838.825265,558.589709L835.120289,546.782433L833.667680,543.668084L831.805216,540.311839L831.597320,539.797820L829.539137,534.718088L826.413436,526.675157L825.266526,523.636373L823.806344,516.288850L823.402334,514.187394L823.272342,511.556791L823.058699,510.211252L822.530860,507.520171L822.078787,503.392834L822.328781,499.855110L822.557453,496.438329L822.989692,492.250498L823.651364,489.710582L824.646537,486.384498L825.255352,484.660980L826.855615,480.790619L828.386785,477.570353L829.917672,474.440794L832.990735,468.589869L836.417072,462.330724L838.773020,458.006763L843.013455,450.054284L842.018382,449.389057L841.377146,448.134195L841.332958,446.229223L843.430915,438.745389L843.107009,437.838256L842.259126,437.006718L833.397332,435.751849L830.293769,434.088770L827.652083,433.423538L817.369933,432.168668L813.158940,430.913797L807.128713,429.915947L802.552479,427.587630L800.424556,426.121091L796.285794,423.263606L789.938457,419.272192L788.009613,418.440647L781.304674,413.617678L765.574284,406.375647L761.280247,403.623971L759.612968,400.963008L758.243325,396.971556L755.909101,391.982232L752.335419,385.496096L750.271627,383.666669L745.045306,381.595334L742.180721,379.932216L741.140726,378.934345L739.631648,376.605977L739.205490,373.687955L739.646036,370.951361L741.574352,365.553760L743.310165,362.635724L746.073029,355.741282L746.157980,351.583441L744.098867,347.092963L743.100931,343.524767L741.944213,342.360566L741.031939,342.027937L738.874246,342.012817L736.701729,342.678075L733.363265,342.436163L732.196267,341.846503L730.978060,340.274074L731.508279,334.528653L732.596907,330.960437L733.721260,325.472027L734.832892,315.009237L734.862889,306.028134L733.174394,302.278438L734.192154,293.629923L734.129830,289.729009L734.665049,287.551752L736.228626,281.080448L736.990365,275.092964L737.187593,268.787945L736.876215,265.461550L735.654357,260.048587L736.001856,257.644501L736.445152,256.646579L738.161307,254.650731L743.643764,250.250790L745.864684,247.665253L750.518499,240.528553L753.812418,234.117601L755.064696,230.549233L755.538549,227.963674L755.264139,223.654404L755.115475,223.019353L749.661043,226.557492L748.837962,227.116941L740.111796,232.998706L730.212391,240.150549L727.033038,242.433691L723.980456,244.399309L723.225000,243.552581L722.839061,242.463932L722.583208,241.314801L722.453356,240.074949L722.430544,236.929955L722.795989,234.193201L723.396473,231.335484L723.934956,229.460577L724.594889,227.600789L726.411210,223.276398L728.806539,216.260586L729.451386,213.916937L729.493801,213.765734L729.966306,211.588407L730.367644,209.395957L730.571967,207.233746L730.547565,205.797311L730.275365,203.317568L728.451073,195.303748L727.853328,191.251466L727.059637,184.492607L725.932279,177.310353L724.047796,151.680869L723.974469,148.671843L724.123145,145.677935L724.334332,143.984409L724.863849,141.111460L725.835650,137.558072L726.296639,136.318165L728.472265,131.161959L731.000823,124.523895L731.195658,123.919059L731.754869,122.149913L732.262265,119.624719L732.258386,118.339440L732.139803,117.507788L731.774566,116.524926L731.216240,115.647911L730.519183,114.906984L730.055416,114.544081L728.395135,113.697307L726.817958,113.047106L723.473961,112.064242L718.881908,110.960411L717.731271,110.537023L716.703194,109.811216L715.872770,108.873714L715.439343,108.223511L714.686726,106.605563L714.181627,103.702327L714.046156,101.721471L714.133160,99.619645L714.231863,98.954318L714.257959,98.682139L715.387590,93.178065L716.008652,90.516751L718.149091,83.515663L719.188624,79.810976L722.307703,67.396450L724.984142,56.962753L726.258417,52.063436L727.660495,46.574375L730.194623,37.320060L731.149893,33.781635L731.510915,32.405580L732.832118,27.294510L733.130305,25.918451L733.488391,24.194596L734.293508,19.310332L735.944294,12.263667L737.488534,6.895485L737.624009,6.502322L739.725357,0.000000L738.658849,0.665355L733.127010,3.493110L732.038629,4.415532L727.640393,11.220275L726.020560,13.140721L723.645490,15.378719L710.976696,24.693607L706.777106,27.521333L702.102357,29.668589L696.337118,33.327991L692.018688,35.414755L690.128392,36.821051L686.887615,40.979450L685.573336,41.811129L681.036489,42.884750L673.876482,46.453403L670.708939,47.708479L663.530932,49.281104L659.515899,49.704502L655.183732,50.944455L651.569772,52.849747L650.378229,53.333631L642.507670,56.433506L634.491527,60.410415L632.666991,61.000146L625.002036,61.665483L618.155838,62.996157L614.861160,65.823837L613.265636,66.806720L598.127596,73.051796L591.348198,76.786737L586.105753,80.688004L581.208107,86.585257L576.690297,87.008649L572.711477,87.840311L569.942800,87.673979L567.721731,86.675984L563.685684,83.591269L562.071181,82.850332L558.550507,82.094274L554.750891,82.018668L551.368148,81.353336L546.976675,81.595275L544.322603,82.185001L541.236813,83.999540L539.850375,85.088263L534.302379,91.242564L531.564592,92.981491L529.781341,93.737546L527.601599,94.070210L524.172140,92.406889L522.466410,92.573221L515.489763,95.219413L512.262908,95.476471L509.878451,94.478480L507.623257,92.482495L505.603636,92.558100L504.310555,93.314155L500.380243,96.973458L497.406911,98.969439L492.782016,100.043034L487.194762,103.112607L485.693742,104.609589L485.869752,106.938225L485.266161,108.193269L483.119090,109.932184L473.854312,113.924122L471.134433,114.166057L469.766207,112.502751L469.351443,112.502751L461.576944,116.827345L456.044956,117.326337L454.635187,119.080365L453.258134,123.404948L452.247296,124.901917L451.279866,125.975500L450.125687,126.550094L445.677901,128.470446L442.737260,131.872639L440.850214,133.535932L439.097789,133.868591L436.150976,133.127669L433.057657,134.700236L427.116292,136.030869L421.893086,135.698211L419.956083,137.270776L418.470946,140.189092L416.783219,142.351365L413.874507,143.848322L411.069901,144.347307L409.918952,144.014650L409.254912,143.424940L408.130520,141.519722L407.931165,139.856434L408.312078,137.603434L407.570492,136.439131L406.428198,136.030869L403.612807,136.030869L396.633607,137.028843L394.265311,137.361501L390.241627,141.353393L386.372951,143.001558L383.379487,143.591269L373.918473,142.684022L368.884091,141.096340L363.554930,139.932038L361.501173,140.173971L359.039186,140.930011L357.405598,142.003587L353.954644,145.163829L352.318947,146.827112L349.957561,149.911744L348.456528,151.408696L346.634087,152.572991L343.608639,153.903614L341.969675,155.309840L337.854793,161.373232L335.366034,167.285403L333.511758,172.683458L332.790329,174.089672L330.732409,176.675290L327.794994,179.170181L325.376452,180.667115L321.961695,181.906998L318.278697,181.997721L317.404733,181.528985L316.547582,181.045128L316.068724,182.572301L315.013736,185.883694L314.552661,187.123575L313.977501,188.635623L312.433101,194.094112L312.152884,195.137423L311.382222,197.435729L310.095177,201.215833L306.712213,210.046132L302.134938,223.714885L301.749628,224.864025L301.161297,226.557492L299.536012,231.229642L299.171284,232.484619L296.452807,240.649514L288.251611,265.128910L285.512417,273.278572L281.855834,283.802027L274.686807,304.425443L271.146397,315.341870L270.456204,317.443503L268.724840,322.584181L267.569767,325.850017L267.171967,326.999107L265.974484,330.416133L265.568360,331.550101L263.253862,338.142222L262.055937,341.695308L251.753814,372.100428L248.321325,382.230342L247.859793,383.651550L247.402504,385.057638L244.023698,395.444522L240.850842,404.425284L238.883815,409.958868L231.552470,432.017478L219.307333,467.652510L218.022486,470.978620L217.042044,473.488319L214.328504,479.308995L210.871250,485.764637L209.131495,488.561572L207.881046,490.375799L206.752208,492.159787L206.065125,493.399506L202.209925,499.839991L199.952117,503.453307L197.319506,507.641119L194.053753,513.234934L188.904453,522.048947L183.085995,531.770024L181.757775,534.309894L180.597060,536.879999L179.391413,540.372312L176.991812,550.184023L170.982560,577.305860L170.556260,579.543322L169.606169,584.365952L166.813198,596.702166L165.748272,602.069004L163.199842,615.281956L162.347806,620.920871L161.057310,631.306719L160.399596,636.476949L159.997985,641.495993L159.853909,644.610213L159.881349,650.430468L160.555472,666.318937L160.955650,680.136224L161.401963,692.668465L161.852620,702.540014L162.097235,713.998821L162.140853,714.784912L162.577345,722.555098L163.479398,742.252556L163.577686,744.323577L163.784158,749.327275L163.885285,750.491276L164.059154,752.516939L164.099832,752.909977L164.188392,754.073977L164.220738,754.451898L164.803538,761.073076L165.543293,767.089564L166.103089,770.339671L168.297449,782.962136L168.864928,786.454088L172.651956,809.945265L172.978521,812.772052L173.264884,816.415124L173.086333,818.622128L172.767705,821.418671L172.626239,822.461705L172.528661,822.854733L171.858332,825.560572L170.669004,829.445487L167.954923,837.290881L161.515408,856.276928L158.880963,868.324524L158.666017,870.123344L158.288332,871.695421L157.098172,875.897699L156.400477,877.983719L154.852327,881.399951L150.067987,890.802122L145.192552,899.856589L148.270321,900.582154L150.925315,901.156560L168.208213,904.799497L170.783687,905.343670L173.856693,906.265740L175.723945,906.825029L177.754490,907.429665L181.216128,908.714515L181.764486,908.911022L182.990745,909.424962L186.004060,910.694696L187.288942,911.223751L192.919620,914.458545L194.353610,915.577118L196.113781,916.922428L196.870273,917.587524L200.393652,920.671152L201.997803,922.349006L205.381578,925.886101L210.032877,931.584742L215.009202,937.918230L215.652304,938.674015L219.068300,942.679671L220.254343,944.055197L220.567561,944.417973L223.869403,947.350409L226.495330,949.285211L229.734619,950.690964L232.543712,951.613017L235.324624,952.142063L237.574500,952.278103L239.472776,952.278103L240.650249,952.293219L243.773111,951.960676L246.854820,951.371167L250.310893,950.297958L250.646483,950.177033L256.360114,948.045729L260.262937,946.095811L264.485340,943.767999L274.199716,939.157717L285.375547,933.459094L295.694796,928.349971L302.137033,924.964038L311.620606,920.459530L319.955290,916.196868L348.923521,901.957704L356.439596,898.193835L356.754276,898.057791L368.008258,892.842781L380.413515,886.569638L383.518495,885.178963L385.331278,884.317349L386.141136,883.939448L388.977084,882.835977L392.202737,881.732505L395.260329,880.780193L397.566952,880.130202L399.541822,879.722068L399.864703,879.646488L401.960648,879.389515L406.432536,879.132541L408.766531,879.147657L411.921216,879.374399L414.966196,879.858113L416.900816,880.311595L419.860567,881.279023L420.023859,881.324371L421.254364,881.823201L423.614406,882.956905L425.308447,883.999912L425.567673,884.196421L426.914092,885.178963L429.781600,887.597528L431.072840,888.821925L432.250675,890.137018L432.647124,890.696310L433.281496,891.573038L434.211484,893.099753L435.065915,894.671815L436.198366,897.181066L438.040763,901.957704L440.468881,908.502893L443.424113,915.365496L444.757519,919.401423L447.117090,926.505848L448.244342,929.392959L449.920680,933.685830L453.151150,942.528515L454.589212,946.639974L456.097835,950.993276L456.392970,951.824635L456.526110,952.157179L457.353808,954.318710L457.853021,955.588420L458.289769,956.722089L461.468005,964.854259L468.415265,982.690519L471.103957,989.159909L473.422220,994.752593L474.534541,997.065239L474.726193,997.458237L475.292811,998.622117L475.476125,999.000000Z "/></g><g fill="#000" font-family="Arial" font-size="12px" id="mylayer-label" stroke="none"><text text-anchor="middle" y="516.445795471"><tspan dy="0" x="488.799837682"><![CDATA[N]]></tspan></text></g></svg>