<?xml version="1.0" encoding="utf-8"?><!DOCTYPE svg  PUBLIC '-//W3C//DTD SVG 1.1//EN'  'http://www.w3.org/Graphics/SVG/1.1/DTD/svg11.dtd'><svg enable_background="new 0 0 1000 1001" height="1001px" pretty_print="False" style="stroke-linejoin: round; stroke:#000; fill: none;" version="1.1" viewBox="0 0 1000 1001" width="1000px" xmlns="http://www.w3.org/2000/svg" xmlns:xlink="http://www.w3.org/1999/xlink"><defs><style type="text/css"><![CDATA[path { fill-rule: evenodd; }]]></style></defs><metadata><views><view h="1001" padding="0" w="1000"><proj flip="auto" id="robinson" lon0="-110.328872187"/><bbox h="0.95" w="1.25" x="-1541.49" y="-586.79"/></view></views></metadata><g class="" id="mylayer"><path d="M1000.000000,362.949038L995.436628,365.037232L990.264675,368.535628L985.786189,370.393301L983.256589,372.413687L981.932917,373.159466L979.379892,373.606934L978.545512,374.054401L976.497269,375.979865L975.283448,376.427332L973.800932,376.210379L972.474426,374.569666L969.001676,372.847595L968.029928,371.667907L966.787644,371.586549L965.542089,372.332329L963.851855,373.891686L962.704118,374.189997L962.126442,374.122199L960.375839,372.996751L959.784357,372.996751L956.914702,374.122199L954.779613,374.040841L953.575228,373.674732L951.222206,373.973043L950.405750,374.189997L946.034700,376.725643L944.059345,377.240908L941.405899,377.173110L940.300154,377.539219L937.614297,379.559596L935.282693,380.224015L933.498855,380.007062L930.005079,381.796924L928.164541,381.946079L926.741945,381.566411L924.536451,379.857907L918.550237,380.142657L916.636845,380.671480L914.556896,381.864721L913.345008,384.549511L911.981054,386.041058L910.802454,386.786831L909.206536,387.302093L905.604449,387.749557L904.145124,387.681759L902.899340,387.003784L901.296488,385.295285L898.734691,384.766463L896.066747,386.556320L888.989014,389.986873L887.268585,390.203825L886.460720,388.942792L885.622840,388.793638L883.409838,390.136027L879.166766,393.566573L877.496218,394.678448L869.146226,398.108985L864.806012,400.197134L862.945766,400.793747L861.027097,400.942901L860.164246,400.861544L858.608644,399.600520L857.234201,399.302213L855.894986,399.302213L854.614192,399.749673L850.887752,402.353077L849.272355,404.739527L848.262027,405.634444L846.400006,406.448006L844.671081,406.081903L843.689838,406.746311L843.168808,407.342922L841.820619,411.003941L841.078116,412.414109L840.108911,413.227666L838.943239,413.756479L837.337924,414.054783L833.679776,413.078514L832.122389,412.034448L830.606171,409.878518L829.328644,409.498856L828.687497,410.027670L828.278044,411.139534L828.341925,414.420884L827.957443,415.464948L825.779673,417.105620L824.530608,417.254772L820.948849,415.464948L819.942684,415.166644L818.573502,415.248000L814.222115,417.336127L812.113692,418.000531L808.584426,418.068327L804.375516,419.193745L802.440639,420.386958L801.827681,421.051360L797.901711,426.651313L796.721335,427.614014L790.409027,428.359769L785.897015,429.702126L782.325089,431.491934L778.613317,434.691889L777.270830,435.518995L773.656661,435.817295L770.414251,437.742687L766.132234,437.824042L763.203868,437.078292L760.653220,435.518995L756.969887,432.156332L754.982513,431.491934L750.362175,431.491934L745.580554,432.535988L742.745853,432.535988L741.246885,431.939386L740.858673,430.963127L741.915231,427.912316L741.775196,426.868260L739.755882,425.078447L734.970768,425.525900L733.310301,424.549638L731.429874,418.746290L727.872629,411.586991L727.910351,409.878518L728.644172,407.492075L731.301752,403.912405L732.014089,402.190364L731.925720,401.824261L731.372752,401.295445L727.097723,402.570027L724.665681,402.719180L723.754765,401.525954L723.930556,399.654758L722.901316,398.176782L722.049566,395.641169L718.648225,394.149630L715.418622,393.403860L712.575392,393.851322L711.284039,391.085191L708.483684,388.780078L704.050618,390.271622L702.066661,391.234345L698.209592,391.980116L695.594809,392.807244L689.546063,395.261504L687.624071,396.237784L685.179231,398.027628L682.395304,401.525954L680.506743,403.017487L676.003243,403.912405L671.816558,405.553088L668.725146,406.068344L660.572424,408.386992L652.585421,412.861566L647.098949,413.607327L645.345068,413.309022L643.822952,412.563261L638.154355,410.773432L635.381386,410.393772L634.022443,410.841229L631.687464,412.332753L629.125967,414.651392L624.130639,420.305603L621.944215,422.393724L620.523561,423.220836L618.023626,423.736086L616.765991,424.332691L614.957330,425.607255L613.773595,427.397068L612.098846,432.156332L609.853469,437.010496L609.107429,437.824042L606.464366,439.546045L603.911799,440.779921L599.669563,442.813780L594.142038,446.095067L589.135458,446.325570L581.889866,445.362879L579.969388,445.728973L577.927359,445.606942L570.436166,457.159193L566.303616,461.470927L562.135281,465.213179L550.192357,472.792568L544.807343,475.111121L432.297536,425.336071L412.488730,419.790352L413.391094,417.037824L417.833854,404.129355L433.887136,360.765923L464.383480,276.693476L466.934651,270.103099L468.929712,265.112837L471.829732,258.847868L473.448906,254.847496L511.340680,150.332632L521.916326,119.005355L518.627687,121.297284L515.173150,124.796200L512.164657,127.115244L503.832776,127.861135L501.404122,128.607025L498.088166,130.912503L495.692380,133.597702L486.767091,146.277750L483.163923,150.603862L473.661355,158.794963L472.130562,159.920558L469.803969,160.964785L468.093331,160.368084L467.289272,159.703576L465.173167,156.937051L464.804909,156.937051L463.194138,158.279630L461.641609,160.069734L454.731999,169.915268L447.996774,182.133954L446.222940,183.707052L445.576512,183.856225L442.092323,183.408706L440.743453,184.222377L439.712172,185.415761L438.194486,188.928101L436.290409,192.277700L433.996793,195.261143L421.694448,206.598176L420.450126,208.157690L419.207381,210.924128L417.257583,218.667419L416.374697,220.457457L411.271135,228.431237L408.072846,231.265445L401.337365,236.188006L398.507352,239.022201L396.158858,242.154726L394.364857,245.205882L389.179573,255.430602L386.942533,259.078398L385.502814,263.621180L384.748006,268.909777L383.433929,272.869433L382.267801,274.428884L378.533927,277.263013L361.049039,287.704499L353.791684,293.074380L348.926862,297.766232L341.473033,307.909264L338.606998,310.811136L334.231206,312.601073L331.063340,314.323208L327.572517,316.709785L325.615749,318.567516L322.582351,322.377892L320.852006,326.256060L320.535630,329.537579L320.913663,332.358053L320.780467,333.931008L319.387735,336.317556L316.375140,338.405784L310.750283,340.344850L307.644214,341.687279L304.309660,344.073816L303.320478,345.334883L301.922943,351.369007L298.630204,356.670881L296.452102,358.311611L291.971675,359.355711L290.047728,360.548968L289.028583,361.891380L286.004163,368.888179L284.428711,370.528897L279.813316,373.362860L274.690219,380.603683L270.818158,384.630868L265.449809,388.508889L260.661834,390.963156L257.343734,392.305543L253.146643,393.580133L246.646218,394.624210L242.109002,396.034392L232.607132,400.590356L225.607148,401.566633L218.540278,403.451387L217.805560,405.566648L215.459649,411.600550L214.404370,414.434443L213.054259,417.159857L211.582881,419.790352L209.008442,423.627612L206.605674,426.786904L206.028740,427.383508L203.027154,430.502116L200.023873,433.322417L197.695101,435.220694L193.799006,438.040987L189.703835,440.644330L184.830422,443.057843L179.144113,445.254407L172.127174,447.003521L169.722081,447.261142L159.869676,448.345863L156.329102,448.928900L153.193487,449.715322L149.137626,451.030544L144.216685,453.118626L139.579109,455.437207L135.478931,458.054082L129.332184,462.772581L127.114384,464.914884L123.539089,468.833392L119.388173,474.284035L117.084648,477.931346L115.388566,481.171887L113.603571,485.714057L111.796557,492.073074L109.916998,498.689679L80.493696,580.351053L72.976357,580.337495L56.535122,580.432400L46.016154,580.174800L33.218192,578.317363L14.619785,574.724506L7.208059,573.151781L4.714161,576.649736L14.343317,578.656312L12.131932,582.750803L7.039385,589.516182L0.000000,598.749048L39.853274,611.601764L235.465178,669.410633L299.837943,689.488710L349.975054,708.007504L358.777253,710.868002L372.678023,716.887233L472.283612,778.827101L474.888446,780.331849L478.354442,782.771978L592.030584,851.690586L593.055039,852.273481L634.877642,875.995777L647.905414,879.994645L647.016303,878.679764L646.623764,877.744436L644.413862,873.284675L642.069322,869.190902L641.080794,866.113788L641.415746,863.565336L641.938381,859.566429L643.440675,854.998173L644.538274,851.256803L644.208239,850.091012L642.426742,848.532105L639.273105,846.607191L637.787914,846.336076L635.992529,846.756304L632.874800,847.949209L631.778345,848.016987L631.285107,847.840763L630.946251,847.366312L631.204235,846.119184L631.678094,844.831388L632.892220,842.987804L635.308043,840.547763L637.837365,838.405947L642.178514,835.071215L649.676416,829.648872L661.132392,821.447545L664.296751,819.278592L664.075176,816.635177L664.101551,816.472505L668.802898,814.100205L671.610916,813.354625L674.833783,812.907276L679.388537,811.266997L686.309453,807.837318L696.321840,802.103096L700.806814,800.015455L710.194410,796.585752L719.957810,794.348986L723.396408,792.708689L726.554848,790.404136L730.412906,788.018244L741.124905,782.202615L745.377919,779.532028L747.076456,778.555975L748.270794,777.918829L744.572349,775.654925L735.732431,768.497172L732.365997,766.423045L735.273766,763.616868L735.392565,763.142394L737.511523,761.569848L741.173114,756.472620L739.997387,752.934376L720.471105,737.086744L719.640968,733.792478L720.020840,730.091505L720.789484,729.034082L720.123210,728.600268L726.747121,716.182279L727.979796,713.864063L728.536112,711.776311L729.022840,709.756340L731.037046,705.011432L752.246949,718.405594L770.656412,729.128979L778.674898,733.968714L782.866698,729.766144L789.097606,723.055566L790.941464,720.805144L793.527573,717.659970L795.475803,714.731700L798.284074,710.922229L798.479319,710.664649L803.787886,704.428485L805.868117,701.839115L806.791432,700.361409L809.181387,696.172310L811.069790,693.406686L812.469495,691.847631L818.310204,686.167235L826.173429,678.236340L830.565219,674.521686L836.618958,670.142721L839.462788,668.298943L842.901699,666.536506L853.604994,661.411872L870.493346,651.975995L878.399436,647.203806L880.202413,645.549806L880.873004,644.546559L881.875553,642.580736L883.286118,638.323704L885.515204,631.206030L887.358544,624.711973L887.902462,623.234199L889.971816,620.007494L893.393035,615.018292L894.791790,612.794838L896.318742,609.798594L899.519646,602.951952L904.030095,593.881802L905.686576,590.655040L908.405142,584.391308L909.554697,582.723687L910.681750,581.693286L911.837658,581.069622L1000.000000,362.949038Z " data-aland="19165665" data-awater="35830" data-classfp="U1" data-funcstat="S" data-geoid="0436430" data-intptlat="+34.9636930" data-intptlon="-110.3290388" data-lsad="57" data-mtfcc="G4210" data-name="Joseph City" data-namelsad="Joseph City CDP" data-pcicbsa="N" data-pcinecta="N" data-placefp="36430" data-placens="02582803" data-statefp="04"/></g><g fill="#000" font-family="Arial" font-size="12px" id="mylayer-label" stroke="none"><text text-anchor="middle" y="549.734943604"><tspan dy="0" x="522.372831329"><![CDATA[Joseph City]]></tspan></text></g></svg>