<?xml version="1.0" encoding="utf-8"?><!DOCTYPE svg  PUBLIC '-//W3C//DTD SVG 1.1//EN'  'http://www.w3.org/Graphics/SVG/1.1/DTD/svg11.dtd'><svg enable_background="new 0 0 1000 1001" height="1001px" pretty_print="False" style="stroke-linejoin: round; stroke:#000; fill: none;" version="1.1" viewBox="0 0 1000 1001" width="1000px" xmlns="http://www.w3.org/2000/svg" xmlns:xlink="http://www.w3.org/1999/xlink"><defs><style type="text/css"><![CDATA[path { fill-rule: evenodd; }]]></style></defs><metadata><views><view h="1001" padding="0" w="1000"><proj flip="auto" id="robinson" lon0="-80.5969016254"/><bbox h="0.13" w="0.24" x="-1109.16" y="-644.41"/></view></views></metadata><g class="" id="mylayer"><path d="M1000.000000,384.288223L955.057135,317.843565L943.630686,300.910971L898.412807,299.624952L698.622113,296.910025L677.504029,296.124125L681.883517,280.691923L575.986110,280.977705L498.516954,281.049150L493.126078,281.263486L498.437798,257.686560L468.807535,255.400316L144.684886,235.681484L113.760634,275.976534L7.577135,223.535848L5.119428,231.180452L0.000000,258.472456L1.364407,259.687024L2.712359,264.545296L7.583945,272.261380L13.510108,280.691923L19.928453,286.193215L25.194045,292.623299L28.469744,299.124834L29.018045,302.625662L31.483401,309.127204L30.324026,315.557305L31.016065,325.202465L33.022453,335.847876L34.517288,360.068017L34.292732,383.287977L33.726067,401.578203L42.516310,445.446315L44.045247,447.446820L45.152044,450.447579L45.121636,453.948465L42.173671,463.951005L41.536878,469.809640L46.100331,488.171486L47.090664,494.387372L47.280509,502.460886L46.501179,507.462181L43.926745,515.678600L40.252531,523.895027L35.103707,534.469222L31.861532,543.543034L28.720335,555.689096L26.855425,566.692013L26.203963,575.622962L25.028014,583.053518L22.848973,589.412364L18.174000,604.487848L15.249603,613.847521L10.224592,630.066214L13.599692,637.568263L100.391955,654.501480L118.113305,662.789480L124.625845,677.436394L212.647471,691.868987L259.402993,713.089226L285.853799,720.091201L288.516841,725.950001L309.809229,726.735937L370.173606,736.595878L430.458319,746.527278L507.460886,761.031428L584.543407,775.464152L591.153037,761.817368L598.453653,746.670176L605.030992,734.452412L610.656227,724.020883L620.271398,706.230153L850.886400,517.750568L879.678078,493.101326L954.979452,441.516752L958.883447,433.871972L964.931917,425.084054L970.111561,419.511233L987.874538,395.719611L992.170435,390.575485L996.898369,386.288715L1000.000000,384.288223Z " data-aland="841988" data-awater="20809" data-classfp="C1" data-funcstat="A" data-geoid="5412436" data-intptlat="+38.3689585" data-intptlon="-080.5974555" data-lsad="43" data-mtfcc="G4110" data-name="Camden-on-Gauley" data-namelsad="Camden-on-Gauley town" data-pcicbsa="N" data-pcinecta="N" data-placefp="12436" data-placens="02390766" data-statefp="54"/></g><g fill="#000" font-family="Arial" font-size="12px" id="mylayer-label" stroke="none"><text text-anchor="middle" y="469.702250693"><tspan dy="0" x="444.966841012"><![CDATA[Camden-on-Gauley]]></tspan></text></g></svg>