<?xml version="1.0" encoding="utf-8"?><!DOCTYPE svg  PUBLIC '-//W3C//DTD SVG 1.1//EN'  'http://www.w3.org/Graphics/SVG/1.1/DTD/svg11.dtd'><svg enable_background="new 0 0 1000 1001" height="1001px" pretty_print="False" style="stroke-linejoin: round; stroke:#000; fill: none;" version="1.1" viewBox="0 0 1000 1001" width="1000px" xmlns="http://www.w3.org/2000/svg" xmlns:xlink="http://www.w3.org/1999/xlink"><defs><style type="text/css"><![CDATA[path { fill-rule: evenodd; }]]></style></defs><metadata><views><view h="1001" padding="0" w="1000"><proj flip="auto" id="robinson" lon0="-89.4634349333"/><bbox h="0.27" w="0.29" x="-1258.64" y="-555.38"/></view></views></metadata><g class="" id="mylayer"><path d="M722.066480,104.703919L717.869022,108.104722L723.605876,108.162362L798.910925,108.565847L796.670980,101.245475L795.410756,95.423759L793.432251,86.489438L792.548699,77.958596L794.626500,63.894222L795.976477,51.040294L795.830959,44.008095L792.234011,38.243994L779.846972,50.290962L742.702574,86.201234L730.299737,98.132875L722.066480,104.703919Z M1000.000000,306.848380L963.080285,306.617821L935.860757,306.963660L889.952045,305.176825L886.987074,305.061545L900.876990,253.531425L942.650521,97.210623L899.057383,98.017594L836.657147,99.170409L832.936519,112.888900L829.188396,124.474673L817.831634,159.116651L814.051514,170.644743L813.023752,176.351144L812.599581,178.714401L809.538260,193.182133L808.952063,195.948869L808.188348,198.830885L792.684884,199.119086L746.142385,199.926050L730.606814,200.156612L717.939499,200.502453L680.002895,201.136497L667.352199,201.251777L651.961663,201.482339L605.806675,201.943461L590.384034,202.116382L561.922407,203.096267L554.573487,203.269188L503.162389,204.883116L493.762414,236.354673L483.713357,269.958834L481.569485,277.567311L475.122078,300.277437L472.978631,307.712978L455.992864,374.517371L440.984876,413.885116L394.219246,413.251083L326.503802,412.501771L292.952887,531.584168L200.013580,531.987640L144.147417,741.445529L128.433441,741.964271L33.895231,743.405219L0.000000,837.469962L5.601516,848.478721L16.048328,862.196428L32.377868,883.522247L48.739676,904.905669L64.281861,925.251588L85.490008,925.482136L95.339240,924.329394L155.708493,924.905765L147.061326,960.756006L185.370969,959.833814L194.789139,925.193951L319.571597,926.923064L403.936267,928.133443L435.433844,830.207634L496.738631,830.207634L546.362364,828.766696L599.064810,827.037569L612.305851,782.944770L633.222903,713.318192L650.830598,654.584889L656.049556,648.071759L671.642603,628.244157L673.904822,625.362236L675.734815,621.096991L750.313254,623.402529L899.825228,627.783050L913.925691,581.672230L949.107397,581.038205L949.512931,579.770155L962.706314,536.022358L938.001151,536.022358L944.465717,519.595282L958.014177,468.238923L983.001382,373.191662L998.114787,314.226277L1000.000000,306.848380Z "/></g><g fill="#000" font-family="Arial" font-size="12px" id="mylayer-label" stroke="none"><text text-anchor="middle" y="542.433361651"><tspan dy="0" x="535.181498029"><![CDATA[N]]></tspan></text></g></svg>