<?xml version="1.0" encoding="utf-8"?><!DOCTYPE svg  PUBLIC '-//W3C//DTD SVG 1.1//EN'  'http://www.w3.org/Graphics/SVG/1.1/DTD/svg11.dtd'><svg enable_background="new 0 0 1000 1001" height="1001px" pretty_print="False" style="stroke-linejoin: round; stroke:#000; fill: none;" version="1.1" viewBox="0 0 1000 1001" width="1000px" xmlns="http://www.w3.org/2000/svg" xmlns:xlink="http://www.w3.org/1999/xlink"><defs><style type="text/css"><![CDATA[path { fill-rule: evenodd; }]]></style></defs><metadata><views><view h="1001" padding="0" w="1000"><proj flip="auto" id="robinson" lon0="-80.2854716944"/><bbox h="1.81" w="1.03" x="-1151.63" y="-456.57"/></view></views></metadata><g class="" id="mylayer"><path d="M525.980426,999.000000L528.117039,998.082307L528.757181,997.869106L530.692273,997.368546L531.666320,997.192424L532.956674,996.886526L534.244486,996.506472L538.394118,995.051141L539.318401,994.578390L541.749034,993.169408L542.341171,992.826432L545.092707,991.306215L546.854454,990.138243L548.048702,989.396673L549.152413,988.497521L553.448375,984.724787L557.125125,981.313569L559.922276,978.523416L560.195568,978.236058L560.413029,977.995048L561.269179,977.151514L562.596527,975.844499L564.760864,973.712489L565.098302,973.332435L568.343126,969.680210L569.719484,968.011681L573.722647,962.913400L576.030089,960.160328L577.005357,959.094324L586.919108,948.684568L588.722293,946.932615L589.954641,945.625603L590.614486,944.772801L591.864959,943.011579L592.734751,941.871419L594.811395,939.257396L595.261301,938.691951L596.411926,937.310782L597.727039,935.586640L599.671190,932.166163L600.441992,930.562526L600.964053,930.080507L601.461088,929.561411L602.100515,928.690070L602.611088,927.698225L602.756016,927.420138L603.476144,926.187284L603.874181,925.204708L604.265727,924.611455L604.624328,923.981124L605.052384,923.007818L605.232000,922.006704L605.516236,920.996320L605.836746,920.004476L606.005674,919.327797L606.187911,917.650004L606.315580,916.982595L606.606080,915.981481L607.012049,914.998906L607.023700,914.007062L607.072175,913.339653L607.366261,910.994451L607.479530,909.789407L607.789807,906.294780L607.921928,905.293667L608.133369,902.614763L607.950677,899.351876L607.880109,897.053025L607.523106,892.510941L607.674026,889.507604L607.891482,888.163518L606.502384,886.504268L606.032316,885.725625L605.935079,885.429000L605.389315,882.954029L605.314035,882.314430L605.135265,881.368935L604.655210,879.542834L604.630779,878.884696L604.653866,878.226558L604.699584,877.883584L604.791156,877.549881L605.195514,876.576578L607.691434,869.995200L608.135399,869.021898L608.579234,867.696353L609.452866,865.388237L610.070538,864.109040L610.944037,862.551757L611.451767,861.532108L611.569633,861.272561L611.836578,860.623693L612.142994,859.622583L615.372065,854.913658L617.732632,851.734208L620.604467,848.044934L622.258275,845.273344L623.801338,842.853997L626.653463,838.701250L629.227969,835.697924L631.387113,833.287848L632.054989,832.435052L632.854054,831.248553L634.243352,830.126941L634.809251,829.709812L634.900096,829.644926L636.173529,828.551123L637.829341,826.650871L640.023111,824.268605L640.933918,823.165533L641.942284,822.136617L646.191434,817.260852L648.664420,814.646850L649.578566,813.525239L650.617655,812.060657L652.061845,810.457032L652.455136,809.854514L652.796320,809.233457L653.218259,808.250889L653.417298,807.583485L653.603528,807.296130L654.552287,806.202328L654.439389,804.978754L654.454619,804.320619L654.528615,803.643945L654.779663,802.642839L654.986626,801.975434L655.474855,801.020676L656.057715,800.112264L657.286388,798.341790L658.449740,796.979173L659.437704,795.931720L660.146471,795.116004L661.731478,793.169409L663.395279,791.269162L664.988213,789.322568L665.781078,788.126803L667.265930,785.679657L667.592958,785.049332L668.343525,783.074930L668.572505,782.064555L668.742905,781.777201L669.459603,780.961486L669.844995,780.358969L670.553234,779.061241L671.214814,777.846938L672.298462,776.002310L673.382430,773.759094L674.425231,771.877389L679.233624,767.196300L683.394802,753.774097L680.584533,745.348148L679.124876,741.306661L677.846610,737.533989L677.270499,734.966348L676.768802,731.323450L676.791347,729.302708L677.386877,726.605296L680.166993,717.391459L681.606798,713.433404L683.235074,709.836859L684.265494,707.760503L684.660498,706.972600L685.542207,705.415334L686.998965,702.949662L687.447359,702.393496L687.706154,702.143221L688.273772,701.716827L688.627188,701.512899L691.304897,699.964902L691.928385,699.668280L692.663282,697.341651L694.296115,693.059171L694.883221,691.863414L696.333283,688.906465L697.404628,687.043309L699.684464,683.391153L700.777911,681.537268L702.103485,679.405299L703.296147,677.616300L704.547166,675.855109L704.940553,675.252597L706.910768,671.693138L710.008342,667.280894L710.668458,666.428107L713.700334,663.350661L714.500095,662.646185L716.177983,661.329928L717.151931,660.273215L718.199660,659.290657L719.902927,657.436774L721.736204,655.212115L723.671608,653.080150L724.433859,652.320059L725.512858,651.383848L726.546423,650.392022L727.289918,649.604122L728.569787,648.343482L729.059061,647.824396L730.203882,646.433985L731.471250,645.154807L731.737978,644.904533L732.511073,644.172250L733.906829,643.059921L735.522213,641.650972L736.083601,641.215310L736.953820,640.603529L737.847383,640.038096L738.455458,639.695128L739.389042,639.259466L740.666479,638.805265L741.513355,638.147138L742.723254,637.451933L743.971922,636.849422L745.889123,636.228372L746.842718,635.857596L749.674734,634.596958L752.136223,633.327050L754.627307,632.112759L757.658520,630.360843L758.838826,629.610022L761.157753,627.987878L763.079064,626.375003L766.048104,623.251218L767.620967,621.286107L768.337804,620.470401L769.126750,619.738119L770.262044,618.885335L771.263942,617.541274L772.385855,615.705935L773.931605,612.878772L775.310215,609.615949L775.796990,608.670472L776.247505,607.706456L776.590501,607.076138L776.979344,606.455090L777.159387,606.158469L777.784958,605.277878L778.082088,603.933818L778.289212,603.266423L778.619702,602.441448L779.468644,600.318760L780.112119,598.325844L780.553039,596.314390L781.443247,593.301843L781.803754,592.310021L782.116748,591.318198L783.005306,587.962686L783.121999,586.961594L783.444998,583.272385L783.436662,582.614260L783.267451,581.001391L783.333327,577.024834L783.291655,576.375978L783.208721,575.736392L782.176824,571.435409L781.965109,570.851439L781.734228,569.933773L781.554197,568.997568L781.504614,568.348713L781.372499,568.070632L780.781516,567.393969L779.559966,565.688407L778.276759,563.269106L777.646199,562.240208L777.391563,561.674777L777.063584,560.812727L776.797708,559.913600L776.145078,558.523197L775.926691,558.328541L774.116228,557.299643L772.609182,556.344900L770.753732,554.861804L770.143593,554.203680L768.910755,554.101718L768.295589,553.999755L767.425361,553.730944L766.884390,553.480671L765.873307,552.850356L764.030763,551.867805L762.997594,551.228220L760.243177,549.504122L759.434226,549.114809L758.869081,548.910884L758.565668,548.836729L756.847791,547.205324L754.987426,544.869450L753.032283,539.187344L737.283778,503.620934L727.397773,481.819519L725.438420,475.108545L738.269238,446.902099L725.079933,411.929147L716.384090,393.121835L715.801833,391.870487L715.425528,384.992709L713.409196,348.369986L720.179430,348.369986L720.789147,348.369986L720.931217,346.219528L721.226637,341.900074L721.089245,339.323233L721.962953,334.475436L722.480487,328.265068L723.125379,324.687156L724.046117,320.237940L725.416338,315.315996L726.582600,310.866783L728.359035,306.371225L730.454620,302.125937L731.609520,299.057836L733.900787,294.386168L736.083456,290.316997L737.672831,286.859594L739.887290,282.614311L741.569851,278.684182L741.924114,277.729457L743.440060,273.669561L744.196337,270.397545L744.526668,268.960824L745.997503,263.482748L746.921849,258.356902L747.302956,252.906638L747.943109,248.698442L748.187450,245.982581L748.037113,244.138020L747.435460,241.459236L746.824228,238.789722L739.428186,206.134558L736.201747,202.556676L728.423503,181.858741L727.438172,180.079072L724.854494,176.538274L723.138145,173.544353L721.162522,169.354719L719.855271,169.271297L717.343152,165.378275L715.662868,164.729438L713.326856,162.449240L710.127673,161.003262L703.911348,156.971206L694.970075,152.243969L687.960106,149.231516L681.392104,146.534211L674.917793,143.975944L674.197052,143.670064L669.695967,141.760633L665.653478,139.591668L662.581111,137.487587L660.180430,135.522542L657.742089,133.196003L655.443460,131.323650L653.060366,128.691233L651.333445,126.327619L649.721562,123.370785L647.919854,119.579736L646.321460,115.890647L644.507842,110.236519L636.968765,88.278128L633.508801,69.647356L630.636650,50.395583L630.365714,48.476896L627.088426,26.694713L625.305426,15.136267L623.728735,9.797325L621.844202,4.847682L620.033914,2.159675L619.901907,2.057716L617.288879,0.000000L617.117998,0.945437L616.858787,2.335785L616.594552,3.753941L616.419109,4.680840L611.545998,31.032609L604.234394,70.537183L596.931183,110.051137L592.055652,136.393835L592.025527,136.560679L591.935155,137.061209L591.898787,137.218783L589.921991,147.553811L583.970403,178.549670L583.750458,179.680501L581.664556,179.875152L580.561384,179.977112L578.767223,180.134687L575.787363,180.412760L575.625656,180.431298L575.110538,180.477644L574.942586,180.486913L574.837979,180.496182L574.524157,180.523989L574.419549,180.533259L567.297898,180.551797L545.923801,180.570335L538.797578,180.570335L538.631299,180.570335L537.076468,180.542528L535.211160,180.523989L524.952415,180.375684L521.526031,180.320069L505.937442,180.440567L459.154608,180.764986L443.559770,180.876216L434.044752,180.950368L405.504713,181.145020L395.983449,181.209903L395.047448,181.219173L393.628448,181.228442L392.223610,181.246980L391.281365,181.246980L391.138840,181.246980L390.711267,181.246980L390.560824,181.246980L389.680250,181.256249L388.348348,181.265518L387.022690,181.284056L386.135871,181.284056L384.928984,181.302595L381.313343,181.330402L380.101885,181.330402L379.300490,181.339671L378.089032,181.339671L376.882145,181.358209L376.074506,181.358209L344.077180,181.580668L248.078936,182.238775L218.921271,182.433426L217.098450,182.442695L216.555002,182.470502L216.755583,182.850536L217.391633,184.370670L217.887794,186.270838L218.780678,189.876522L219.622536,193.194866L220.384783,195.419454L226.204824,221.335931L229.594598,236.639280L230.052790,238.224304L232.458625,249.022863L239.131920,278.341223L239.645097,280.148711L241.716547,288.898813L243.601630,297.278153L244.414407,300.717021L245.583274,305.342345L246.822653,309.884249L248.135445,314.370538L249.376504,318.245062L250.339533,320.719938L250.624656,321.378051L250.955427,322.397663L251.334405,323.676813L257.981587,340.602384L273.970752,381.386975L282.932829,403.929779L283.695635,405.672399L299.747844,445.956632L300.594108,447.764142L304.725832,458.321856L311.119080,474.700696L311.544709,475.766666L315.743196,486.352208L317.228139,489.494503L322.621931,504.436634L332.749953,528.666648L333.430216,530.298051L345.001838,559.403786L349.462238,570.610436L349.742638,571.296369L350.558016,573.233665L353.857877,581.474128L355.870341,586.572280L358.037433,592.087556L358.878709,594.145356L360.490398,598.566848L360.950827,599.836753L361.822964,601.987248L363.411346,606.714632L364.638910,610.366769L370.385977,623.362450L371.021916,624.845553L371.712453,626.421350L371.792874,626.810665L372.920982,629.739793L375.954071,637.618782L380.310541,647.518505L381.798449,650.252981L395.529036,685.838283L396.434418,688.025869L412.550686,728.635307L415.155623,735.114659L418.428138,743.123476L428.576308,768.707225L430.094525,772.201821L457.467944,840.295608L461.543434,851.029723L462.530914,853.866201L480.399127,898.369303L492.280852,928.541757L493.291365,930.766456L494.365321,933.167278L495.359935,935.215856L496.673952,938.441672L502.037435,951.585951L503.810203,956.007548L507.501326,964.878555L510.937793,973.536366L512.807516,978.124823L514.466977,982.296148L516.279969,986.671406L517.981237,990.963239L519.820202,995.459004L520.955137,998.360396L521.282678,998.962922L523.146291,998.860956L523.779880,998.860956L525.980426,999.000000Z " data-aland="35922763" data-awater="6816376" data-classfp="U1" data-funcstat="S" data-geoid="1254175" data-intptlat="+27.1777828" data-intptlon="-080.2855237" data-lsad="57" data-mtfcc="G4210" data-name="Palm City" data-namelsad="Palm City CDP" data-pcicbsa="N" data-pcinecta="N" data-placefp="54175" data-placens="02403389" data-statefp="12"/></g><g fill="#000" font-family="Arial" font-size="12px" id="mylayer-label" stroke="none"><text text-anchor="middle" y="474.571099381"><tspan dy="0" x="525.166217953"><![CDATA[Palm City]]></tspan></text></g></svg>