<?xml version="1.0" encoding="utf-8"?><!DOCTYPE svg  PUBLIC '-//W3C//DTD SVG 1.1//EN'  'http://www.w3.org/Graphics/SVG/1.1/DTD/svg11.dtd'><svg enable_background="new 0 0 1000 1001" height="1001px" pretty_print="False" style="stroke-linejoin: round; stroke:#000; fill: none;" version="1.1" viewBox="0 0 1000 1001" width="1000px" xmlns="http://www.w3.org/2000/svg" xmlns:xlink="http://www.w3.org/1999/xlink"><defs><style type="text/css"><![CDATA[path { fill-rule: evenodd; }]]></style></defs><metadata><views><view h="1001" padding="0" w="1000"><proj flip="auto" id="robinson" lon0="-81.591569865"/><bbox h="0.49" w="0.64" x="-1162.38" y="-495.02"/></view></views></metadata><g class="" id="mylayer"><path d="M1000.000000,474.487989L983.929734,474.905200L969.851631,475.244183L935.568333,476.860876L919.408933,477.590995L896.213665,478.112508L894.504467,478.216811L891.274795,478.373265L886.557883,478.634022L851.709196,479.677049L819.702036,480.302866L794.814405,480.746153L797.502873,473.262432L805.540776,450.733069L807.188549,446.039457L808.024125,443.171139L809.314425,440.563577L813.213115,432.714821L814.486809,430.081187L807.956406,434.357584L641.254395,430.159413L641.732146,429.690053L644.432245,426.821738L645.232619,425.674413L646.065624,425.100750L646.732583,424.162029L644.257070,415.192034L662.212332,359.494756L662.784831,358.686417L669.591465,350.942011L670.186911,349.507863L670.266655,347.786884L668.025510,338.034679L666.819307,335.166384L664.626101,331.724432L662.003940,325.101283L660.081925,322.259067L659.094922,321.685408L650.983174,321.111750L650.201132,320.824921L648.598744,319.807981L645.490366,316.079204L644.079250,312.924085L643.716524,310.055796L643.671141,306.327021L644.242040,302.311419L645.669070,296.992051L647.105737,292.872150L613.639117,294.097690L606.530751,294.332368L565.955752,295.792586L522.828139,297.357106L513.205976,297.722161L479.722707,298.921626L474.234728,299.052002L457.726402,299.443132L452.221810,299.547434L438.927540,298.921626L398.978158,297.044202L385.667283,296.392319L330.916009,296.992051L295.391797,297.357106L201.537248,298.347968L192.880905,298.452270L207.348801,211.699935L208.557040,204.398893L133.759338,204.398893L129.142744,204.398893L145.913832,120.906548L99.719119,121.975622L89.547958,122.210297L72.577263,217.618997L68.031574,222.677581L77.302415,236.080230L81.594548,242.260055L81.672577,241.999303L86.618324,223.981340L125.643928,223.329460L124.270402,229.743956L111.116865,291.177255L118.292219,299.234530L111.888775,299.286680L110.611201,304.632124L106.767532,320.616318L105.473400,325.935695L91.633369,397.434590L50.139898,611.881440L47.304600,626.483978L37.614299,683.303651L36.417566,691.804458L32.799929,717.228684L32.397494,719.940604L31.164991,725.703436L30.401292,728.962958L30.144979,729.953853L28.648520,738.715452L28.067992,741.948901L26.412060,749.380621L21.438855,771.701881L19.788609,779.107541L19.375107,781.871627L18.079186,790.111734L17.626883,792.849746L14.180008,809.903658L5.859105,851.000027L3.729276,861.065528L2.345725,868.471238L1.342224,873.165000L0.000000,878.093452L0.849058,878.067375L3.412958,877.910917L4.245394,877.858764L19.912081,876.633170L66.856680,872.904235L82.506730,871.652565L86.812931,871.652565L99.714913,871.626489L104.004492,871.600413L119.020551,871.756871L131.694887,871.861177L164.146775,871.861177L179.196282,871.861177L185.139581,871.782948L202.947382,871.443954L208.879632,871.313572L210.500007,871.313572L215.361131,871.313572L216.959308,871.313572L237.886023,870.713813L300.244411,868.914538L300.666152,868.914538L321.592856,868.314779L331.625956,868.210474L361.747550,867.793250L371.764026,867.662868L379.721665,867.610715L383.056774,867.584639L394.343948,867.532486L402.900903,867.480333L403.522416,867.480333L411.457858,867.428180L421.818434,867.245645L452.861338,866.671963L463.205289,866.463352L484.710265,864.611924L513.024690,862.160738L521.759894,861.378445L549.169706,859.005490L570.658028,857.127987L571.418393,856.997605L573.705058,856.580382L574.448799,856.423923L576.901698,856.267465L584.210527,855.719860L586.646803,855.537325L636.166100,857.623439L784.674278,863.803554L834.177057,865.863593L837.177833,861.169834L839.732811,858.562190L841.842917,856.997605L844.229782,856.215312L846.765705,856.293541L853.052806,856.476076L889.956270,855.172255L890.533389,855.172255L905.105866,854.911491L909.084771,854.781108L920.949322,854.416038L924.911602,854.259580L932.309207,816.631355L954.473049,703.695167L961.856883,666.041292L962.509452,662.677482L969.403009,627.735625L969.570375,626.849042L992.356562,512.819288L1000.000000,474.487989Z " data-aland="7840759" data-awater="1040082" data-classfp="C1" data-funcstat="A" data-geoid="1258025" data-intptlat="+29.5029649" data-intptlon="-081.5864918" data-lsad="43" data-mtfcc="G4110" data-name="Pomona Park" data-namelsad="Pomona Park town" data-pcicbsa="N" data-pcinecta="N" data-placefp="58025" data-placens="02407145" data-statefp="12"/></g><g fill="#000" font-family="Arial" font-size="12px" id="mylayer-label" stroke="none"><text text-anchor="middle" y="589.705791402"><tspan dy="0" x="464.078416161"><![CDATA[Pomona Park]]></tspan></text></g></svg>