<?xml version="1.0" encoding="utf-8"?><!DOCTYPE svg  PUBLIC '-//W3C//DTD SVG 1.1//EN'  'http://www.w3.org/Graphics/SVG/1.1/DTD/svg11.dtd'><svg enable_background="new 0 0 1000 1001" height="1001px" pretty_print="False" style="stroke-linejoin: round; stroke:#000; fill: none;" version="1.1" viewBox="0 0 1000 1001" width="1000px" xmlns="http://www.w3.org/2000/svg" xmlns:xlink="http://www.w3.org/1999/xlink"><defs><style type="text/css"><![CDATA[path { fill-rule: evenodd; }]]></style></defs><metadata><views><view h="1001" padding="0" w="1000"><proj flip="auto" id="robinson" lon0="-114.155195208"/><bbox h="0.24" w="0.34" x="-1533.03" y="-721.9"/></view></views></metadata><g class="" id="mylayer"><path d="M1000.000000,143.601472L799.882437,155.659952L766.786390,155.324994L739.679455,154.990036L692.606597,154.463674L610.331815,154.415822L584.435656,153.602353L537.438424,149.343604L511.010358,150.539882L500.546010,151.114095L488.914322,151.353351L459.346202,151.975415L390.566848,152.788884L389.764363,154.272269L330.792488,264.090874L312.418668,295.050731L307.717677,304.621020L293.179702,330.030160L287.019233,341.418824L223.857067,456.502096L220.397516,462.531425L170.584373,461.861499L128.115175,463.966979L11.390053,483.825494L0.000000,503.636175L0.000000,503.636175L8.565880,503.492620L19.094146,503.827583L128.042458,504.066843L196.463942,504.066843L222.642597,504.066843L230.034001,504.114694L328.736750,504.449658L340.846560,504.353954L349.388540,503.301212L360.914695,499.664467L371.019359,497.702539L388.057982,497.367576L419.239413,497.798243L387.828406,550.961768L320.035902,668.390950L312.041497,681.119662L353.741995,681.023958L369.197740,680.976105L491.622759,680.210468L512.921414,680.066911L515.658331,680.066911L491.242966,720.741418L444.812984,798.166757L440.314107,805.679614L413.743392,852.910187L419.298378,853.053745L474.396284,855.398528L487.103420,854.345768L626.123386,854.585032L653.089930,804.052626L724.671767,665.806927L825.918623,665.328404L897.858015,664.179949L931.385276,599.244510L943.393010,571.538146L945.106570,565.508787L949.169862,554.694226L958.841363,535.122756L977.640143,502.487729L846.871206,501.817803L841.542361,501.769951L809.008910,501.052172L836.108856,453.583137L843.907019,439.897527L875.090201,439.371158L889.870789,412.334929L893.684972,407.262649L896.980149,401.903260L912.350613,375.537001L914.700931,369.651253L916.540116,366.397344L922.808217,355.247924L935.994606,333.140509L914.905552,333.044806L903.806726,332.518439L900.468226,331.944221L903.436110,325.723524L928.473392,280.312493L951.440983,237.629084L975.575452,192.936009L1000.000000,143.601472Z "/></g><g fill="#000" font-family="Arial" font-size="12px" id="mylayer-label" stroke="none"><text text-anchor="middle" y="441.926971517"><tspan dy="0" x="602.150620671"><![CDATA[N]]></tspan></text></g></svg>