<?xml version="1.0" encoding="utf-8"?><!DOCTYPE svg  PUBLIC '-//W3C//DTD SVG 1.1//EN'  'http://www.w3.org/Graphics/SVG/1.1/DTD/svg11.dtd'><svg enable_background="new 0 0 1000 1001" height="1001px" pretty_print="False" style="stroke-linejoin: round; stroke:#000; fill: none;" version="1.1" viewBox="0 0 1000 1001" width="1000px" xmlns="http://www.w3.org/2000/svg" xmlns:xlink="http://www.w3.org/1999/xlink"><defs><style type="text/css"><![CDATA[path { fill-rule: evenodd; }]]></style></defs><metadata><views><view h="1001" padding="0" w="1000"><proj flip="auto" id="robinson" lon0="-105.991719765"/><bbox h="0.29" w="0.76" x="-1475.27" y="-601.47"/></view></views></metadata><g class="" id="mylayer"><path d="M1000.000000,669.974780L999.725165,664.895599L999.102771,659.048892L999.103992,654.579204L997.781248,651.373668L996.286534,648.642189L995.683513,646.903974L994.485207,645.030313L993.833054,643.427542L993.788502,641.824771L994.746395,640.199425L995.446695,637.964574L994.279012,636.361801L993.506175,634.736453L992.451596,631.147142L992.728613,628.302781L994.041137,624.329702L994.807711,619.476222L993.807733,618.121761L992.087347,617.737997L990.824985,618.121761L988.893508,618.979586L986.178566,619.611668L984.439953,618.618397L981.816464,614.532439L980.862387,610.311032L981.497660,606.834576L980.579921,604.238521L976.118320,603.493565L973.230316,601.507017L970.587571,600.265424L969.458737,598.910958L969.015406,597.037281L969.220821,594.441220L970.858244,591.958031L973.041934,589.339393L973.149409,585.998371L971.754970,583.650624L969.529632,582.273580L966.991702,579.677512L965.452699,575.343205L964.607064,571.482959L962.474013,569.496399L959.364579,569.135207L957.288520,568.006479L953.413433,563.310969L952.972331,561.076085L951.934007,558.457432L951.081189,557.712471L950.840886,554.619749L953.742919,551.391579L954.996526,546.921801L955.703880,542.587467L957.282241,539.607610L958.688216,538.117681L960.413280,536.763200L961.590274,534.889500L962.261962,533.038375L962.465318,530.803479L962.119113,526.582005L962.064716,524.347106L962.568759,522.247655L963.786726,520.261077L966.990104,515.542950L968.574128,513.917566L970.232266,511.073142L970.445639,509.470331L969.139274,507.235425L969.046132,504.752195L969.496677,503.510579L970.076104,502.268963L972.067143,500.891898L974.570049,498.408665L975.538310,496.805851L975.870359,495.180461L975.947076,492.584351L976.353260,489.739916L977.293142,487.505001L978.699154,486.015058L981.228273,484.525114L985.748440,481.658100L989.456799,477.933236L773.703340,479.829531L678.073369,480.642228L677.023911,480.642228L669.611309,473.824596L617.022099,473.282797L546.731327,472.560399L543.267936,472.515249L546.504381,464.004482L550.959682,452.288046L574.013889,391.515682L581.696370,371.265600L586.181044,359.368359L599.606933,323.653904L600.387568,321.554374L604.044900,311.733982L597.506864,311.892012L577.888715,312.275797L571.340463,312.411251L568.454099,312.298373L559.795007,311.959739L556.916839,311.824285L551.479669,311.485650L535.147736,310.424595L529.700354,310.063385L525.277437,310.379444L511.959628,311.259894L507.534691,311.530802L506.536338,311.643680L503.574064,311.892012L502.573692,311.959739L495.475272,315.233204L489.322240,318.032580L476.540455,315.458960L473.744379,314.894570L470.557638,314.239877L469.835448,314.352755L467.675058,314.623663L466.942654,314.713965L463.512032,314.781692L455.224945,314.939721L420.075972,315.504112L408.356241,315.684717L407.484745,315.752443L404.804810,315.933048L403.923099,315.978200L363.289454,313.698062L327.767785,311.688831L309.670457,310.672927L241.378533,306.835068L200.734828,304.532350L189.409665,305.096742L155.458757,306.722189L144.123373,307.264005L123.427710,327.852960L112.312308,338.892401L81.773275,377.970485L70.930458,398.197967L57.171435,423.820839L56.194007,426.462133L54.571437,430.322483L54.479256,430.525659L53.907882,431.541540L53.129822,432.670297L50.405095,435.763088L49.575964,436.778968L48.885927,437.817423L47.526162,440.142658L45.596805,443.935273L43.495574,447.795611L42.416518,449.398440L41.179835,451.181869L38.589220,455.832327L43.532137,458.496180L47.953006,461.837282L51.435499,464.162507L51.594667,464.839757L52.146771,472.244349L51.801711,474.614720L49.881395,484.163915L49.581372,486.511706L49.492076,488.836920L49.673878,492.900399L49.683863,493.329321L49.877191,502.381838L49.654091,506.242133L49.409339,508.589913L47.839510,517.326357L47.518662,520.441675L47.316487,523.534416L47.152759,531.187249L47.139259,537.259843L45.173982,555.251839L45.027975,560.624593L44.339013,567.645286L44.052199,568.435395L41.801428,573.266348L37.634699,580.332173L36.324196,582.725070L35.179404,585.117966L33.510071,589.158797L30.916105,597.217876L25.636625,612.523320L24.546323,616.541557L22.840025,625.300398L22.468984,626.880600L21.186789,630.108725L17.172886,638.935267L15.413360,643.630710L13.823888,647.806943L11.139262,653.427920L10.447048,655.030688L8.435501,660.674232L4.357954,670.335966L0.630293,679.997682L0.445812,680.810349L0.122911,684.693089L0.379784,691.442730L0.000000,694.467650L81.733666,690.810657L230.883915,684.083590L327.015974,679.613923L336.001299,679.207589L408.796351,675.776327L412.585286,675.482864L428.256115,675.528012L476.011256,675.595734L486.332321,675.618308L499.470456,675.640882L503.116076,675.640882L505.675375,675.640882L508.408574,675.618308L511.336118,675.618308L523.154734,675.573160L536.996664,675.482864L561.257880,675.347419L575.625573,675.279697L593.113121,675.189400L620.680343,675.076530L632.085698,675.053956L657.942614,674.986233L673.987847,674.963659L916.569005,674.354159L946.208608,674.263862L997.392537,674.218714L997.355818,673.812380L999.031915,671.577543L1000.000000,669.974780Z " data-aland="6567916" data-awater="0" data-classfp="U2" data-funcstat="S" data-geoid="3519645" data-intptlat="+35.8463974" data-intptlon="-105.9948982" data-lsad="57" data-mtfcc="G4210" data-name="Cuyamungue Grant" data-namelsad="Cuyamungue Grant CDP" data-pcicbsa="N" data-pcinecta="N" data-placefp="19645" data-placens="02584086" data-statefp="35"/></g><g fill="#000" font-family="Arial" font-size="12px" id="mylayer-label" stroke="none"><text text-anchor="middle" y="518.171586449"><tspan dy="0" x="444.141380973"><![CDATA[Cuyamungue Grant]]></tspan></text></g></svg>