<?xml version="1.0" encoding="utf-8"?><!DOCTYPE svg  PUBLIC '-//W3C//DTD SVG 1.1//EN'  'http://www.w3.org/Graphics/SVG/1.1/DTD/svg11.dtd'><svg enable_background="new 0 0 1000 1001" height="1001px" pretty_print="False" style="stroke-linejoin: round; stroke:#000; fill: none;" version="1.1" viewBox="0 0 1000 1001" width="1000px" xmlns="http://www.w3.org/2000/svg" xmlns:xlink="http://www.w3.org/1999/xlink"><defs><style type="text/css"><![CDATA[path { fill-rule: evenodd; }]]></style></defs><metadata><views><view h="1001" padding="0" w="1000"><proj flip="auto" id="robinson" lon0="-88.4543950638"/><bbox h="0.44" w="0.78" x="-1187.74" y="-722.73"/></view></views></metadata><g class="" id="mylayer"><path d="M1000.000000,341.584246L981.138555,327.452672L952.375298,307.977433L940.639776,302.592004L930.840278,297.498809L905.168759,285.788647L902.638261,285.058067L869.016010,275.435288L855.791032,272.116371L756.690639,254.749475L728.760024,250.157272L705.171651,247.172341L683.070966,245.836428L654.216761,245.836428L631.730172,247.151468L606.995990,249.865041L579.064669,255.250443L571.376518,256.669852L544.180204,262.076131L540.577417,262.952825L531.918742,264.706214L531.982586,262.451857L532.500724,257.713535L532.627794,256.586357L532.523197,251.848038L536.389334,248.612622L538.531702,245.857302L542.445967,240.075306L542.847163,239.449097L544.188033,237.779208L560.696841,225.275916L559.732493,219.577426L540.838879,215.381836L532.988537,216.404642L527.750796,218.951218L508.973889,249.677178L507.316751,255.521801L505.985532,260.260122L514.839703,255.897526L516.457702,259.049449L516.061501,260.364490L515.040011,263.787772L392.603809,285.663405L393.138647,284.306613L393.506813,283.388170L365.120716,283.137685L353.713120,282.949822L341.561005,282.887201L335.498312,282.782832L316.479444,282.553221L260.415860,282.177495L240.229439,281.927010L237.894318,281.885263L207.346560,281.509536L202.208801,281.509536L114.132515,279.756144L71.400353,278.900323L69.307420,278.858575L57.095796,278.608091L44.472557,279.296923L40.917079,279.401291L38.313716,279.380418L31.578875,278.816828L24.767438,278.023627L10.668660,278.065374L4.842401,285.392046L0.000000,291.528921L2.354392,292.802219L41.989249,303.426954L44.056323,305.055107L50.196519,306.829376L52.261445,304.053166L53.790486,304.408020L55.466681,304.742000L59.915190,305.848309L57.519787,308.958500L54.514191,312.945390L92.359449,318.685679L91.748590,319.687621L87.584928,328.329372L86.657752,330.249762L84.359711,336.177925L80.544806,345.926004L75.910105,353.711949L77.003791,354.609525L79.425713,356.216812L81.107799,357.072640L91.398983,370.348425L78.129873,415.853606L90.039459,417.690517L85.145469,423.869219L93.481182,424.370195L97.607230,424.349321L84.085258,444.367506L80.296385,449.314655L78.440520,453.489466L74.805006,462.152205L92.598089,462.089583L88.076620,487.869102L82.589603,527.947513L118.525923,528.803355L129.960368,528.970349L128.306208,532.665086L118.250433,555.063153L111.940995,569.028050L108.449534,576.730669L98.944467,598.105991L94.663988,607.854322L90.849686,616.120580L89.956775,618.166271L161.025086,618.542010L134.787910,680.998420L131.232707,682.668383L130.933251,683.712110L130.186964,685.862187L132.441190,686.551047L133.699662,687.427778L134.913495,688.575879L136.083330,689.870101L137.757032,692.437671L140.011932,696.382963L140.466673,697.113573L141.745459,699.096658L143.732306,701.330237L146.367195,703.709939L148.056930,704.837167L149.618294,705.693025L153.986264,707.488239L155.869294,708.030979L157.805078,708.406721L160.009557,708.678091L164.714971,708.761589L172.408081,708.197975L174.312240,707.989229L177.185248,707.780483L182.670050,707.696985L185.471942,707.863982L186.976269,708.030979L188.462233,708.406721L189.895022,709.032959L191.016183,709.700946L191.851137,710.515055L192.675213,711.767531L192.953783,713.124380L193.045074,715.587583L193.322228,718.927521L193.456183,724.918537L193.801293,728.508974L194.071971,729.719703L194.435159,731.452298L195.422117,734.708742L191.199754,741.722626L191.513167,743.037730L191.123670,744.791202L191.266188,745.688813L191.200671,746.669923L191.602706,747.567534L191.417138,748.339897L190.592276,748.945262L189.162087,749.508879L188.728294,749.759375L186.807975,751.450224L186.960518,752.076464L187.891611,752.702705L188.000797,753.349820L185.461965,755.896533L187.374692,759.132110L190.547158,764.726532L192.550333,768.901475L199.213354,773.640037L209.119998,775.017770L217.417496,774.704649L219.210393,779.422339L244.478083,779.568463L338.541871,780.152955L505.657719,781.217568L518.737650,781.175818L524.229327,783.221543L526.174169,783.534665L530.326053,783.618164L535.471426,771.719562L538.782050,763.494924L539.052181,763.098304L541.815060,755.437289L566.617237,694.316382L570.118253,689.598732L617.893066,641.399508L622.891787,636.452264L671.536757,633.822085L697.166010,623.739738L721.193524,615.661343L725.740157,604.243055L767.487408,504.297056L764.443047,504.213559L762.705359,504.025692L761.599646,503.733454L761.047531,503.441215L760.322841,503.065480L759.644047,502.167891L759.422113,501.583415L759.418017,500.685826L759.630487,499.725615L760.437086,497.596451L764.324293,488.411829L766.742009,482.441829L768.386447,478.851481L769.283438,477.661657L770.065538,476.951937L771.462099,476.179595L772.710019,475.720365L774.181774,475.469875L791.851689,475.824735L808.112418,476.033476L818.620866,476.263091L824.485067,476.346588L825.632075,473.612080L829.573052,464.051746L846.628245,464.510976L883.838042,464.886710L905.953309,465.366814L914.126664,445.014602L955.399469,444.117018L1000.000000,341.584246Z "/></g><g fill="#000" font-family="Arial" font-size="12px" id="mylayer-label" stroke="none"><text text-anchor="middle" y="474.641307648"><tspan dy="0" x="467.582792474"><![CDATA[N]]></tspan></text></g></svg>