<?xml version="1.0" encoding="utf-8"?><!DOCTYPE svg  PUBLIC '-//W3C//DTD SVG 1.1//EN'  'http://www.w3.org/Graphics/SVG/1.1/DTD/svg11.dtd'><svg enable_background="new 0 0 1000 1001" height="1001px" pretty_print="False" style="stroke-linejoin: round; stroke:#000; fill: none;" version="1.1" viewBox="0 0 1000 1001" width="1000px" xmlns="http://www.w3.org/2000/svg" xmlns:xlink="http://www.w3.org/1999/xlink"><defs><style type="text/css"><![CDATA[path { fill-rule: evenodd; }]]></style></defs><metadata><views><view h="1001" padding="0" w="1000"><proj flip="auto" id="robinson" lon0="-83.7766113392"/><bbox h="1.35" w="1.43" x="-1166.37" y="-602.57"/></view></views></metadata><g class="" id="mylayer"><path d="M1000.000000,37.498217L999.711225,31.885556L999.354844,29.121108L998.793108,26.596003L998.738542,26.344689L997.018409,26.763546L985.582707,31.729981L968.476746,39.149701L958.939481,40.633643L946.291022,44.355462L944.500901,44.882021L940.303706,47.945636L933.440237,49.154328L916.362796,53.725809L911.799754,52.768431L906.006959,53.917284L896.166765,61.001870L886.207445,69.043812L884.168072,71.150031L881.553887,73.830672L875.311695,77.085733L869.711887,79.191947L858.126983,84.744686L853.564647,87.042368L846.873084,92.403620L840.832950,96.041607L829.605377,98.722226L816.642098,99.296644L808.958235,101.594316L798.171721,105.998181L782.537801,110.976456L774.688789,113.848534L766.757602,118.635324L754.447229,123.996521L746.791228,127.825941L740.815108,130.698004L738.180680,132.804181L736.005447,135.484768L734.646594,139.804816L734.308307,140.845935L735.466597,146.590032L735.532380,152.334119L734.780822,157.120849L733.101838,161.333166L729.265736,167.077225L720.472118,173.778613L708.244755,180.479987L703.724960,183.172499L700.035020,186.235976L692.084902,188.916516L683.454481,188.533582L675.156127,193.511723L661.790133,199.830120L653.473746,205.957038L650.298062,209.403425L648.344012,214.572996L648.832264,219.934025L648.202327,224.026589L647.906810,225.869438L643.299437,231.038982L640.169836,234.868268L626.694866,244.824389L615.302934,251.334143L606.866511,255.163403L604.784587,261.864597L602.436571,268.948700L595.452095,276.415710L586.805725,283.691240L580.564646,290.200911L577.106223,298.433709L576.512428,306.475024L575.055114,313.176104L555.330488,330.215927L548.472865,332.896339L542.321465,333.662171L538.731440,333.662171L536.757311,333.470713L534.067992,335.768207L524.194886,351.659161L513.850949,361.040528L501.045361,368.124398L488.937015,373.868064L480.028818,376.249289L473.880002,377.888623L463.451489,382.674997L448.561650,389.950269L433.955778,395.693893L425.400325,400.480238L412.890365,411.967434L408.608820,414.815295L404.794259,417.328111L397.819025,424.220395L396.456919,424.818683L392.030911,426.709271L391.585672,426.900723L376.117472,434.558791L361.178849,443.293751L352.856403,448.151813L335.781127,455.426926L326.516534,455.618376L318.793580,453.703874L307.136941,463.850718L293.277154,475.146221L283.841575,482.995612L278.534304,482.995612L272.723543,485.053681L269.326133,486.250232L259.108540,490.844983L248.349815,496.779860L241.786353,500.608806L239.913186,500.608806L236.379484,503.671959L235.123336,507.500896L233.924693,510.348665L233.665007,510.946935L231.481200,514.201524L225.001035,519.370570L220.658574,520.902137L214.496360,518.987678L208.656818,519.753462L201.938164,523.103764L201.735053,523.199487L190.839579,531.240196L188.233580,534.877652L187.160124,537.833082L186.005289,541.003884L185.928198,541.781628L185.456919,546.172883L180.539421,554.596416L178.239813,557.982574L177.025206,559.765391L176.540278,563.151543L176.384701,564.168584L176.329916,564.766844L177.677395,564.695053L180.520469,564.647192L182.718517,564.671122L185.628880,564.898461L187.635451,565.317242L188.545881,565.747989L189.194663,566.274457L189.595546,566.848786L190.176461,568.188886L190.364927,568.619632L191.113888,571.922018L192.093686,575.439772L192.562633,577.713149L192.674271,578.275510L192.935021,579.711326L193.355198,581.984699L193.598215,583.516234L193.830481,585.322965L193.836136,586.220348L193.520054,587.524543L193.214503,588.146728L191.596946,589.702190L189.242672,591.580708L188.061489,592.466123L186.938844,593.351539L186.207451,593.961757L181.352901,598.329004L179.141428,600.016076L174.756174,603.055196L171.732603,605.735362L171.000772,606.584878L169.431565,608.379630L168.541531,609.576131L166.240174,612.663100L163.931511,616.013296L162.271184,618.023412L161.668406,618.729345L160.578590,619.806192L158.906384,621.110373L154.855953,623.527293L148.415995,627.368039L146.986916,628.301303L146.330027,628.720076L141.801760,631.543797L135.952405,635.468287L129.565453,639.667963L124.777312,642.683112L123.923080,643.245460L123.184149,643.712090L121.206728,645.195733L120.151282,646.152922L119.682770,646.799024L118.785252,648.904837L115.690622,664.231761L115.482667,666.756329L115.303694,671.625986L114.895529,678.924475L114.483815,684.129123L113.758423,686.043474L112.245840,689.238045L112.028268,690.063608L111.936688,691.367757L114.124353,699.276392L114.984093,701.956469L117.485734,709.757394L120.910221,718.252243L121.061379,718.575286L121.297598,719.077797L121.902097,720.166571L122.623815,721.458742L123.860584,723.097884L124.865533,723.947366L125.158925,724.114870L126.606369,724.952387L128.808115,726.017230L132.134377,728.194773L135.400593,729.833911L137.056378,730.659462L140.460578,732.633605L143.136586,733.949700L146.916913,735.361509L148.458232,735.804195L150.436823,736.151165L156.182811,736.629745L162.364851,737.730477L165.051572,737.921908L167.412048,737.754406L170.439690,737.132253L176.359067,736.055450L160.394492,742.588050L149.977952,747.230256L140.802726,751.728881L134.629288,754.743913L131.625848,756.335178L124.901944,760.893611L117.515002,766.062219L116.123914,767.067225L109.759489,771.087245L106.278535,773.492076L99.679539,777.751374L93.517819,781.914951L84.128937,787.837270L79.565098,790.445480L77.444022,791.546191L72.973874,793.556185L71.303666,794.309932L66.242463,796.475459L57.322468,800.016870L53.186642,801.644003L49.902126,802.684889L44.712381,804.108630L35.052124,806.286113L21.141523,809.707870L16.966609,810.485542L15.669205,810.892324L13.868560,811.454640L11.780575,812.304096L9.062001,814.194433L6.917307,815.989057L2.607211,820.296148L2.088188,820.846498L0.521910,822.461655L0.000000,822.988076L0.919664,823.251287L5.708600,824.651089L10.989535,826.206423L17.618793,830.202433L20.301424,833.229347L21.960828,834.892353L22.143481,835.071814L28.752360,839.342984L30.108763,841.041880L32.078708,841.963111L33.364400,842.752738L35.208519,842.752738L36.192987,843.673969L37.477512,845.181437L39.853919,846.964076L42.168816,847.873342L45.093739,848.662967L45.800258,850.110612L51.846173,849.919188L53.309853,850.768633L54.167493,851.689861L56.913294,853.137505L59.900274,853.269109L62.154141,853.915165L64.035051,854.704788L66.874582,854.908176L72.691178,855.039780L75.924436,855.231203L79.697175,856.092610L91.959528,856.475458L94.237120,856.630990L96.868864,856.810449L103.390334,857.001873L105.843178,857.396684L109.687831,858.449514L114.517810,859.298956L120.319924,859.956974L120.536385,860.052686L119.873672,861.715677L117.876333,866.668752L117.207305,868.319775L118.883598,868.020677L119.781650,867.781398L124.729243,866.453401L141.225934,861.500326L142.059116,861.249083L147.646366,859.562163L153.782743,857.695784L155.265516,857.289008L162.999570,855.159419L165.642034,854.417652L185.490795,849.751692L186.104246,849.620088L187.047644,849.392772L193.804104,847.813522L194.620112,847.622098L197.068135,847.047825L197.884142,846.856400L205.118532,845.073760L214.660354,842.764702L216.006310,842.800594L216.811264,843.123623L218.713142,844.248242L221.001471,846.270163L221.651740,846.928184L223.692714,848.962067L225.250754,850.026864L226.631564,850.553281L228.229039,850.732741L229.290235,850.672921L233.196606,850.014900L238.858225,848.782607L240.111504,848.495471L247.748262,846.772652L248.929806,846.497480L255.502472,844.810552L256.926687,844.403775L259.807820,843.578256L264.313203,842.022931L269.547142,840.036899L271.148615,839.522445L272.146571,839.342984L273.401821,839.354948L274.367959,839.558337L275.691484,840.216360L279.485520,842.465601L281.663537,842.968090L286.006403,843.338976L288.500630,843.793609L289.960047,844.284134L291.599421,845.133580L293.560594,846.425695L293.740376,846.581228L296.272154,848.639039L297.763196,849.189384L299.403136,849.356880L304.455054,849.297060L306.790840,849.045815L308.602990,848.579219L310.305286,847.849414L312.113472,846.784616L317.827150,842.752738L320.983127,840.527425L322.912743,839.175488L323.863921,838.003010L324.582731,836.926245L324.987647,837.249274L327.871181,841.209376L328.583977,842.465601L330.240299,846.282127L334.395012,858.461478L338.646605,871.561999L339.621131,874.660652L341.443341,879.565849L353.717504,869.468312L359.343969,864.957908L360.051727,864.395603L362.093153,862.959929L364.588472,861.404614L366.726571,860.244110L373.502069,856.965981L378.731403,854.417652L385.968370,850.517389L392.553405,846.712832L416.088691,832.870424L418.464751,831.458662L420.773774,830.178505L423.690996,828.682993L426.462040,827.390870L428.125280,826.661060L430.380637,825.703931L430.638121,828.682993L430.745454,829.975115L431.846633,837.392843L431.869764,837.584268L432.222326,840.300109L432.432675,841.879363L433.053981,846.617120L433.254584,848.196370L440.243766,844.547343L461.225025,833.552377L464.972301,831.578303L468.138509,831.255273L468.509824,831.219381L469.607688,831.099740L469.972679,831.051883L472.982771,830.728853L475.290754,832.750783L476.239447,835.837515L476.919969,837.512484L489.565439,868.834224L492.350021,875.725439L493.607693,878.824088L493.792937,879.266752L500.124167,894.951363L502.463649,900.741846L465.096457,921.953577L466.402158,930.974197L469.031751,949.123024L469.706981,953.776857L471.726497,967.726348L472.395503,972.368187L476.385542,972.643347L476.713872,972.655311L477.700471,972.583530L478.009822,972.559603L481.567618,971.722158L485.132380,970.418137L489.528038,968.360414L494.656479,965.584878L495.063190,965.357571L500.283416,962.534178L506.926859,958.933152L507.277920,958.729772L516.206573,953.693112L525.093511,948.835898L526.824255,947.938628L533.478731,944.469183L537.715141,942.184132L542.430531,939.623916L543.728508,938.738607L546.478121,936.262134L549.626945,932.972129L552.911631,929.514629L553.310193,929.179647L555.316405,927.696150L555.611814,927.516695L557.293768,926.619419L558.879643,926.057125L561.052254,925.626433L563.433741,925.147885L567.464574,924.430063L580.347747,922.037323L584.383614,921.199864L592.185029,919.548871L592.723301,919.441198L593.026857,919.369415L594.329970,919.010504L594.862452,918.854975L596.016631,918.232862L598.302154,916.557940L605.759510,911.377641L615.829968,904.366874L624.757502,898.313195L638.443094,888.801953L644.599055,884.518893L647.330320,882.616638L649.318830,881.228829L653.463337,878.345533L654.061552,877.926796L654.798312,877.161107L655.468174,876.084356L655.898610,874.923858L656.793842,871.394504L658.475600,864.646846L658.624776,864.024720L659.779165,859.047713L661.343912,852.300025L662.484627,847.370853L663.163737,844.595199L666.019425,832.020974L666.385179,830.405822L667.296239,826.481598L667.915543,825.309115L668.735633,824.627161L669.439031,824.351986L676.718034,823.909314L691.781051,822.964148L703.073678,822.509512L709.263499,822.258265L711.790608,822.258265L711.428055,821.277206L710.319783,816.024949L709.521723,812.208382L709.276808,811.191428L708.810663,809.313052L708.248913,807.087714L707.617008,804.120594L707.370197,801.715789L707.544869,798.317951L708.755660,786.581022L709.107823,779.605842L709.175352,774.473151L709.174244,773.898864L709.191732,772.953682L709.421550,762.018263L709.837294,761.623438L712.117834,759.421992L715.504668,755.677136L719.053971,753.236397L725.426420,748.845454L734.132557,743.258060L735.871257,742.265010L745.509404,739.788366L750.831403,738.412452L751.435604,738.244949L752.654836,737.192075L755.121110,734.105238L758.588173,729.570692L759.170681,728.254596L763.468388,727.728157L765.832072,727.345292L772.783091,726.208663L778.646956,726.208663L781.241717,724.952387L783.773613,724.629345L785.596518,724.737026L786.165306,724.760955L787.344811,725.478826L789.071847,729.355331L789.139062,729.427118L789.445499,729.379260L791.633727,728.553708L796.462958,726.208663L799.067825,724.713097L801.525256,723.289317L800.640621,722.427870L797.964317,719.819599L797.073363,718.946187L800.485144,716.134515L804.773408,712.784435L806.350024,711.540118L814.427880,704.911730L817.823770,701.645389L823.369765,695.986115L825.279202,694.023912L826.871545,692.384754L831.294805,687.850142L832.733751,686.677603L834.245147,685.660604L836.885802,683.734288L838.056799,682.645500L840.705237,679.773970L841.402666,679.247522L842.093773,678.709110L856.172259,669.699661L857.255626,668.814269L858.260587,667.522074L858.706164,666.445245L858.859586,665.332521L858.098650,662.102030L857.806880,661.180741L855.457224,653.762559L855.240083,652.853233L854.763173,650.843141L854.792297,649.993638L854.808060,648.952696L855.855944,642.037009L855.899150,641.546449L856.176126,628.851690L856.159000,628.265409L856.109882,627.858601L857.918773,625.669018L855.763675,625.597228L854.805345,620.811249L854.726961,620.404440L853.040893,609.145390L852.455303,605.304621L852.112045,603.067161L851.596674,600.171622L854.504532,599.286208L854.696772,599.262278L856.340212,598.975117L858.292424,598.699921L858.667147,598.652061L863.746479,598.257214L864.137281,598.221319L865.561939,597.778612L866.772178,596.893198L868.530276,593.554945L868.919343,592.777215L875.053778,580.309582L875.718443,578.945557L876.886993,576.097855L877.141981,575.583354L877.890867,574.027885L878.139533,573.501418L881.783151,565.939432L883.554278,563.031891L884.323702,562.050745L885.288644,560.830294L889.138734,556.798018L890.037880,555.840800L891.996409,554.081912L893.622593,553.005040L904.654247,547.201895L908.981046,545.179766L912.117497,543.803760L914.202923,542.894399L917.405719,541.219259L921.354604,538.814236L922.858090,537.892909L928.747542,534.267421L930.051224,533.226439L930.755250,532.269213L931.153248,531.120542L931.177323,529.541119L930.716028,527.375393L930.284908,526.430131L930.099240,526.023310L928.811321,524.324230L925.627578,520.698726L921.049889,515.505752L919.456125,513.818632L914.697259,508.781196L913.051847,507.070141L911.610915,505.598394L907.262307,501.171182L905.815068,499.687466L904.877223,498.706299L902.054490,495.726898L901.110331,494.733764L899.986988,493.549182L898.660277,492.053497L898.551722,491.921877L897.928560,491.203948L887.817455,499.747293L883.940100,502.786517L881.679472,504.306127L879.101425,505.741979L877.381487,506.567593L876.690736,506.866729L875.282850,507.488931L874.689660,507.788066L874.069538,508.147029L863.175367,512.179372L861.595996,512.957123L861.172093,513.244293L859.256767,514.512624L855.423658,517.635590L853.530325,519.167158L852.859178,517.970621L850.819917,514.369040L850.234795,513.076777L849.285797,510.911039L849.051367,510.504215L847.162062,507.094072L846.536282,505.909495L845.985806,504.904399L844.160287,501.578007L841.673980,497.019169L841.079272,495.930311L840.217992,494.410697L835.924699,486.597232L832.685927,480.853784L829.690817,475.553050L828.259511,472.824903L827.691224,471.712105L825.973734,468.349780L825.399134,467.225015L824.918789,466.315630L823.478314,463.551578L822.991655,462.630227L820.021160,457.006389L817.941842,453.069695L817.246760,451.956891L815.755733,449.946662L810.908046,445.016808L809.622163,443.413407L809.406182,443.078368L809.018337,442.288633L808.481700,441.235653L807.474760,437.777567L807.130980,435.815191L806.635167,432.955385L806.598906,432.775899L806.456644,429.975919L806.899919,423.574244L806.968168,422.521257L806.957778,420.451179L806.213454,420.427248L803.990791,420.319556L803.240148,420.283658L800.185241,419.948617L798.682613,419.541780L798.151693,419.386225L796.107485,418.249476L793.832111,416.287087L790.318380,412.386238L788.674499,410.806751L785.451050,407.695638L784.635655,406.798202L782.189478,404.105889L781.377525,403.196485L780.214808,402.047764L779.777791,401.497335L778.649332,400.025536L776.992734,397.165695L776.109620,395.179361L774.953240,392.989605L775.786471,391.888744L776.188787,390.895575L776.504420,388.777611L776.845453,385.857931L777.321625,383.452781L778.165975,380.580959L780.381656,372.934719L781.867005,366.676514L783.696239,358.372106L785.577751,347.746261L786.502018,342.660680L786.715485,341.476037L787.706177,338.400751L788.962896,335.995564L790.300184,334.057053L792.949329,330.981759L795.019397,328.971449L797.563393,326.805577L801.277200,324.065328L803.422072,322.473828L804.306092,321.875520L806.961589,320.068628L807.839290,319.458354L809.669857,318.213871L812.464158,316.263383L821.571002,309.861465L826.281905,306.570754L829.996926,303.962115L830.872306,303.292006L832.606434,301.975719L833.271284,301.461171L837.213186,298.062754L837.655428,297.643935L839.266640,296.076354L841.625205,293.707032L848.681405,286.599054L851.033661,284.217758L858.472484,276.762734L862.453164,272.754006L863.982910,271.198378L864.270277,270.911185L868.752480,266.854584L874.082661,262.427018L880.689873,257.221628L881.352407,256.647240L887.117325,251.657237L898.499092,241.581473L900.009429,240.229260L909.732968,231.816806L910.475783,231.098814L911.888573,229.746596L913.024306,228.645675L914.684246,226.874627L915.530848,225.965170L915.958705,225.426675L916.878067,224.230020L917.144727,223.811191L917.679167,222.901733L917.849477,222.614535L918.842077,220.891350L919.546106,219.323730L919.724412,218.940799L920.280520,217.684309L920.984552,216.116686L923.669565,209.080326L924.958194,205.681806L926.403070,202.690148L929.539350,197.580389L934.797493,189.024217L937.601815,184.560637L937.731993,184.345237L937.955085,184.010169L940.756059,179.761983L943.032479,176.830133L944.235817,175.358224L947.820012,170.930525L949.017038,169.446646L954.814183,162.613613L956.752300,160.315988L969.994832,143.765853L971.702924,141.623782L977.288928,134.575283L980.846066,129.597047L982.125725,128.029379L983.395499,126.054835L984.949353,124.211926L991.296750,118.587456L989.726065,114.446883L985.691024,105.100654L985.451975,103.963787L985.539778,102.096931L985.728754,100.828425L986.770734,96.795531L987.737063,93.025908L987.967708,90.967571L988.117056,89.531522L988.007151,88.454485L987.647512,86.922697L987.030407,81.908482L986.957556,79.921941L987.192797,77.779826L988.121251,73.734935L988.975049,71.544947L995.330381,58.189579L997.030487,53.462530L998.909697,46.653174L999.625455,42.907424L1000.000000,37.498217Z "/></g><g fill="#000" font-family="Arial" font-size="12px" id="mylayer-label" stroke="none"><text text-anchor="middle" y="552.51355627"><tspan dy="0" x="550.38428438"><![CDATA[N]]></tspan></text></g></svg>