<?xml version="1.0" encoding="utf-8"?><!DOCTYPE svg  PUBLIC '-//W3C//DTD SVG 1.1//EN'  'http://www.w3.org/Graphics/SVG/1.1/DTD/svg11.dtd'><svg enable_background="new 0 0 1000 1001" height="1001px" pretty_print="False" style="stroke-linejoin: round; stroke:#000; fill: none;" version="1.1" viewBox="0 0 1000 1001" width="1000px" xmlns="http://www.w3.org/2000/svg" xmlns:xlink="http://www.w3.org/1999/xlink"><defs><style type="text/css"><![CDATA[path { fill-rule: evenodd; }]]></style></defs><metadata><views><view h="1001" padding="0" w="1000"><proj flip="auto" id="robinson" lon0="-86.5287311222"/><bbox h="1.92" w="2.49" x="-1204.85" y="-604.42"/></view></views></metadata><g class="" id="mylayer"><path d="M78.119249,743.854759L76.346231,744.588968L80.100707,746.894519L82.033749,747.690483L82.268011,747.786547L84.931324,749.323579L91.894387,753.927804L101.080865,759.856328L101.568591,760.171966L104.702170,762.271647L107.340930,764.041964L108.086734,764.542867L110.318561,766.045576L111.060817,766.539617L111.117722,766.573925L113.732554,768.405993L115.395349,769.565615L119.978133,764.385048L123.472234,766.965041L120.152590,772.900383L120.755126,773.318944L124.287271,767.383603L129.581439,768.104079L150.513646,754.675733L152.953916,754.161103L171.230541,745.487859L188.587782,741.974634L196.156040,724.216278L187.473497,723.701640L185.160097,723.488923L189.042961,720.229544L189.540160,719.742352L190.227731,719.028719L192.096444,717.182878L198.893694,709.765184L201.715655,708.831966L189.461469,697.990135L194.782848,686.736520L197.212237,680.938137L190.808040,680.341142L186.739654,680.746000L180.614070,695.924690L179.214365,699.746790L172.985622,701.304448L169.841587,699.259593L169.175070,700.673151L168.529863,702.127879L164.774311,702.326875L163.071031,709.463261L164.789846,709.456399L164.438677,710.279826L162.074443,716.160459L151.943365,714.932184L150.333412,714.403820L143.260602,732.580842L138.207943,731.030073L133.324893,728.251036L122.715106,739.085826L114.965731,747.354257L109.585584,755.046266L105.548905,761.022818L83.525389,746.228929L78.119249,743.854759Z M1000.000000,350.537863L988.024616,355.479361L985.171305,362.589606L981.786290,371.017547L965.471048,374.140268L964.556460,373.906922L952.683838,372.300951L939.879259,370.557717L938.848320,373.872606L928.463963,376.604126L924.716415,380.255296L918.087778,373.351009L909.481271,364.394616L910.969167,363.076891L919.495936,359.109982L923.768992,357.112798L928.888246,347.874939L936.368459,342.803020L940.737319,342.137287L943.716602,335.788789L945.392077,332.206168L946.117145,331.986543L946.558819,331.986543L946.929547,332.206168L947.502519,333.963163L950.466876,334.560266L950.689843,334.299462L950.949469,333.990616L951.302402,333.462145L951.490854,333.167024L949.475457,332.913084L948.837875,332.707186L948.470694,332.494425L948.277875,331.883594L947.920525,330.792335L946.553485,331.046275L945.684333,331.073729L944.007834,330.902147L942.840407,330.504077L942.465595,330.298179L942.542131,330.078554L943.127202,329.653031L943.868507,329.453996L946.889942,328.431368L947.556090,328.184290L951.299247,326.784181L951.186439,326.392974L951.177028,325.466430L953.702695,324.231037L954.555586,323.826103L956.246206,322.954465L956.410422,321.801430L956.591083,320.517992L956.653993,318.747259L956.556197,317.422639L956.277370,316.537271L955.916414,315.871529L955.780939,315.706809L955.356235,315.198923L955.022609,314.986160L954.916698,314.759670L954.876147,314.313554L954.896781,314.093928L955.041534,312.330051L954.878303,311.657445L954.726371,311.266234L953.978345,309.721983L952.475885,307.594345L952.314925,307.120774L952.282023,307.024687L952.441427,305.343165L952.813282,303.661641L953.362651,302.247787L953.678831,301.129058L953.810409,299.728929L953.686972,298.603335L953.349477,297.182614L952.968016,296.304100L952.136076,294.835334L951.721721,294.217629L951.594750,293.085168L951.410045,292.522369L951.303830,291.094780L950.205830,288.397459L948.536176,287.395400L941.200054,287.868976L938.346023,288.047425L935.056116,300.133868L934.558979,301.973253L934.054214,303.819498L932.062732,311.149558L929.649934,319.989518L925.340532,319.948338L912.412326,319.824798L908.097334,319.783619L908.281496,319.296324L908.416203,318.918842L907.657366,318.932568L907.509963,318.939431L907.107429,318.939431L907.880093,316.681401L909.260093,312.645765L907.013155,312.625175L905.168750,312.604585L904.787075,312.590858L903.631405,312.529088L903.246182,312.508498L903.543130,311.341731L906.716937,308.980741L912.473875,304.684282L911.950262,297.333609L911.690589,293.792098L910.755962,294.471574L913.362400,287.367946L917.945236,281.794840L931.453612,265.356832L929.602332,264.533212L936.089633,260.319019L936.656350,259.955253L937.225110,259.584623L943.185369,255.713595L944.822982,252.954454L952.472687,240.009775L953.249533,238.170334L953.880027,236.653480L950.630151,236.509344L949.132021,236.433845L938.679078,235.960256L907.328463,234.512037L896.877590,234.031584L897.857333,231.848957L900.776285,225.294196L901.156795,224.429378L901.889143,223.152741L911.677015,221.841785L914.265441,219.569916L916.024321,218.018730L925.591916,215.870403L922.504658,205.643513L920.966920,200.557503L918.793371,193.364312L919.628668,190.090304L923.405981,175.230219L925.194991,175.154717L929.463871,166.115065L945.269949,132.626131L950.536625,121.458455L943.727357,121.197624L931.972233,120.744600L922.831805,126.544663L915.660821,131.081742L914.537209,131.081742L911.166373,131.081742L910.039216,131.074878L911.777833,125.013997L908.501079,124.698254L907.840219,124.533519L908.897235,121.417271L909.421318,119.920922L896.330321,117.985275L895.725642,119.358074L893.053045,117.408699L859.512890,114.237528L855.660431,125.027725L854.894180,124.972813L850.558184,124.760030L848.472264,124.650207L848.147996,128.027280L847.342063,137.842726L846.914970,143.066171L854.149863,143.512326L874.445027,144.740966L875.207744,144.789013L875.843933,144.830197L875.976052,144.837061L883.069708,145.269487L878.999043,154.261185L872.864973,167.796704L866.777097,181.215449L862.694207,190.193260L858.572183,198.326793L857.915970,199.610309L844.186282,197.976743L839.162703,197.612965L833.929281,197.221733L832.460109,197.180550L832.426345,197.612965L832.893641,198.971983L833.519828,199.534808L835.006479,199.761311L836.648124,199.692674L839.183807,199.569127L840.132954,199.685810L840.563862,200.022133L840.898343,201.188965L840.839836,202.136158L840.336199,202.438161L837.134011,202.396979L836.333125,202.664664L835.202608,203.419672L834.776023,203.838358L834.179519,204.057997L833.651981,204.064861L833.099874,203.872677L831.810400,202.740165L831.480878,201.950838L831.533892,200.646731L831.538235,200.482002L831.379235,199.232805L831.357504,197.654148L831.152003,197.461963L829.771317,197.386462L828.955000,197.461963L828.540676,197.839468L828.401366,198.175791L823.092651,197.530600L815.528962,196.610860L821.227641,186.431919L821.544738,185.855362L823.391161,182.547023L821.225392,182.423475L818.642657,182.142059L810.900594,181.277223L808.319908,180.988944L808.189831,180.975216L807.708110,180.940897L805.853899,180.803622L805.236511,180.755575L805.146616,180.137834L804.421019,176.568661L802.190531,165.572822L801.178763,167.261325L800.444308,168.469359L799.276697,170.061767L798.114678,171.654173L797.529095,172.306236L795.769348,174.234967L795.180221,174.880165L794.624504,175.600865L792.937039,177.756098L792.377778,178.469933L786.496400,185.395490L772.410936,183.624636L770.441227,183.274583L769.153813,183.054942L749.693489,179.623050L751.690619,176.259790L757.693818,166.149384L758.138848,165.387498L756.265706,164.488335L755.779490,163.849998L748.508248,162.662552L740.777260,161.385876L739.664125,161.481970L739.146960,161.660430L738.781139,161.893801L737.456514,163.712721L736.173615,165.504183L735.805204,165.765009L735.338351,165.943469L727.346925,164.790344L726.013864,164.536382L725.641910,164.508926L725.190872,164.653067L724.795054,164.893302L724.421321,165.284540L720.097841,174.935075L719.669848,175.545954L690.044560,169.945082L685.904112,169.450887L683.785696,169.018466L680.323588,168.311491L677.437139,167.680019L675.328956,167.213278L675.090621,167.206414L674.379709,167.172095L674.137829,167.158368L673.006150,167.110321L672.645922,167.062274L668.300976,166.410210L666.851480,166.190567L661.949436,165.325723L647.241847,162.717463L642.723914,161.914393L641.856326,164.131415L639.977168,168.936100L639.542846,169.924490L637.472848,174.619340L633.203546,184.180602L631.900649,187.145750L629.372478,192.890714L626.816265,198.711162L624.731325,203.625583L623.718252,205.993561L623.482503,206.240655L623.175171,206.446566L622.292847,206.480884L620.782629,206.371065L612.347174,204.737504L611.596429,204.799277L610.413451,205.279736L609.887001,205.808242L609.101074,207.057435L604.558620,217.236272L604.182577,218.066775L600.870221,225.355969L599.486359,228.780920L599.118376,229.659463L598.003253,232.295091L597.631729,233.166770L595.213961,239.611687L593.795013,243.379793L591.324138,249.440318L587.812676,258.918861L585.423110,265.363696L585.246184,265.995137L584.704228,267.889461L584.521713,268.520902L584.314506,269.028800L583.859329,270.106367L583.678160,270.545630L583.467408,271.046663L585.918405,276.894338L593.255133,294.437257L595.700879,300.284863L596.217096,301.630084L597.760182,305.665742L597.845720,305.885370L596.614960,306.695246L597.915427,309.612169L598.167119,310.174963L601.265336,318.788439L602.364383,321.856337L599.137909,321.595531L589.454944,320.806251L586.224928,320.538582L581.664489,320.476813L567.968449,320.284640L563.404465,320.216007L564.696124,316.949070L563.355008,316.852984L551.470008,315.967615L547.506661,315.665629L544.659593,315.576406L538.127929,315.356780L537.097201,317.841301L535.642991,321.334726L530.223151,320.929791L520.538600,320.202280L517.185976,328.417642L514.419794,335.171096L512.972069,338.774301L511.389026,338.664489L508.024256,338.417413L498.036964,337.504601L493.591913,337.092806L488.582908,336.866319L487.784504,336.825140L480.487637,354.360662L479.686093,356.282354L480.576499,359.844341L480.008937,360.379668L478.283887,361.985648L477.707188,362.514112L477.431793,362.781775L476.585291,363.577901L476.306350,363.838701L475.702118,364.422069L472.774082,367.270275L464.262396,375.519754L463.032541,376.720798L462.184425,377.578687L461.602562,378.162051L462.286730,390.941107L456.027302,392.622556L449.737495,400.865065L436.587545,417.857836L416.282704,414.508707L415.158160,414.323406L417.672940,409.107538L419.071007,406.252530L419.722928,404.063231L420.335220,401.537641L421.104803,399.197349L421.506764,395.312871L417.586944,395.971723L413.533005,408.778114L389.795108,409.279113L381.582064,409.128127L373.104738,408.963415L367.586104,423.608990L347.237066,423.224665L346.748311,424.734512L337.666557,452.680194L335.602645,451.142918L335.416230,450.717422L331.450337,441.747661L330.918964,440.546657L328.970288,442.152571L328.522961,442.509441L327.171840,443.573186L326.720965,443.923192L326.336759,444.218296L325.296619,445.007525L325.178551,445.103606L324.792302,445.405572L323.872397,451.067427L323.255922,453.043925L321.858550,454.450806L319.935405,455.651801L319.749164,455.789058L318.313220,456.818482L315.820773,459.048898L313.707165,460.833229L312.057565,461.979318L309.888294,463.255800L308.061952,463.962668L306.892279,464.360710L305.215553,464.264631L304.503824,464.683262L303.433110,466.213664L302.919300,467.188180L301.537928,469.123485L300.912369,470.736238L299.176507,472.472519L296.212310,471.648986L295.264822,471.319573L294.636870,471.456829L294.252556,471.827418L293.816396,472.541146L293.000308,474.098994L292.004317,475.979390L292.049440,476.748018L292.217574,477.516646L292.422376,478.237235L292.411590,479.005862L292.491439,480.014685L292.422147,481.167625L292.537177,481.757821L292.860798,482.567623L293.116898,483.322523L291.708937,483.995071L278.950087,500.444954L274.124679,516.579015L267.483340,516.386862L252.168421,548.620262L250.024256,548.290862L243.555205,547.275213L237.783930,546.376226L227.281758,544.708637L221.430181,543.816511L210.028995,542.032258L198.899229,571.739855L195.328844,581.161916L190.419301,581.594246L187.388317,595.723814L186.892230,598.029552L187.109453,603.011583L185.738020,603.354698L181.614575,604.377179L181.350159,604.438939L180.241633,604.706569L179.692330,604.541874L178.587840,604.438939L176.711203,604.713431L172.305103,605.351623L169.398272,605.461420L168.329858,605.763360L165.665066,607.389720L165.585712,607.430894L164.321825,608.727864L162.370784,610.717921L160.575635,612.447211L159.371655,613.016778L156.291761,614.478438L156.188969,614.560785L154.084329,616.221449L150.127269,619.879021L149.029629,620.373102L146.137024,620.867182L139.333607,620.654453L138.048421,621.121084L134.934379,622.246489L131.623114,623.358169L130.482289,623.433653L128.746156,623.536586L129.740471,621.567129L130.412703,620.228995L132.769411,614.320607L134.847200,609.105289L135.116494,608.425924L132.560091,608.391613L125.427693,608.288678L122.388894,608.240643L120.590928,608.213193L115.538127,608.130846L100.362952,607.883804L95.304561,607.801457L84.291595,607.623038L78.152492,607.526966L26.689223,606.689768L9.533629,606.408415L7.621840,610.745371L1.881578,623.735591L0.000000,627.990160L0.302801,627.743120L0.644311,627.441183L1.253693,627.159833L1.574673,627.002002L1.650507,627.310802L1.880051,628.230337L1.952336,628.532273L13.015939,652.419431L14.606082,652.412568L60.438677,652.144946L51.632636,672.641956L72.182342,676.628794L98.563289,681.747853L84.901689,712.969687L76.191761,732.869038L80.660627,734.069854L81.956620,734.412944L91.657985,712.063918L100.212115,692.370198L105.931717,679.009913L110.810940,667.591492L111.503092,665.265255L109.329643,664.187911L106.817904,663.721290L105.371395,663.076256L103.608231,661.559738L102.139244,659.768735L101.732569,657.696385L103.371652,654.292786L106.366468,648.494300L108.158711,645.008338L113.606352,635.627772L122.996799,637.068828L130.504793,638.146188L126.656847,651.829289L145.068108,652.515500L147.882534,643.244767L157.243411,633.322081L157.742596,630.892868L210.968024,638.139326L221.015649,613.147161L222.342626,596.492394L222.362172,596.313974L222.582908,593.843538L224.046765,593.171030L226.117052,592.114231L228.304521,590.851561L230.219747,589.808486L232.024889,588.985005L236.035537,587.495875L237.190389,587.166483L238.041054,586.994924L239.922191,586.761604L242.692065,586.397899L248.029974,585.691077L249.511523,585.485206L250.770378,585.313647L250.991031,585.286198L253.757351,584.915630L255.063322,584.867594L255.761308,584.833282L256.558875,584.840144L257.303540,584.874456L258.800214,585.162675L260.008163,585.444032L260.238833,585.533242L260.646832,585.684214L260.927827,585.773425L261.159031,585.842048L262.309023,586.130267L262.420322,586.150854L263.429208,586.274377L265.134039,586.370450L266.485278,586.301826L267.019064,586.274377L267.905317,586.095956L267.190902,589.060490L266.750416,590.879011L263.300342,590.879011L262.529815,593.205341L262.658922,593.617081L263.389464,595.991445L263.087349,596.931582L262.181545,599.731404L261.875885,600.664678L261.355921,602.243006L260.804036,602.105760L260.388932,603.162553L260.071026,604.136999L259.581032,604.919299L258.737571,606.250582L260.007337,606.305480L257.417393,614.107877L251.499953,614.375505L251.953280,613.641244L252.963231,612.502109L255.046062,610.313048L255.598882,609.695444L256.381779,608.830798L256.788147,608.254367L257.072818,607.842631L252.509929,604.178172L247.419117,609.729755L246.336915,613.799075L247.714416,614.300020L245.203765,622.569014L241.732691,622.225902L232.725159,643.930982L243.069597,645.248512L246.372891,645.667103L232.877199,674.830944L232.348076,676.121004L231.526883,678.110989L230.978809,679.991180L230.754291,680.746000L230.595087,681.281237L231.561973,681.301823L232.970626,681.322409L234.448872,681.391029L235.404042,681.432201L237.678842,681.548855L242.966056,681.802749L244.461975,681.981161L246.679181,682.235055L249.017370,682.495811L249.448403,682.550707L257.076955,683.449628L257.728566,683.552558L259.947205,683.895657L259.699440,684.540685L262.242337,684.019173L262.753864,683.916243L263.270982,683.813314L266.998119,683.051632L270.714171,670.576483L274.783846,664.846669L275.220937,655.425032L275.566114,647.835536L293.645700,648.734474L304.296200,631.860436L317.959578,633.637742L325.536728,637.020793L333.732748,618.115427L363.292520,623.824799L365.351576,610.361084L370.497370,600.506845L375.251788,595.840474L372.054040,590.988808L370.984699,590.824112L367.610545,593.219066L365.804412,590.268263L365.770419,590.213364L365.235684,589.341846L363.824092,586.775329L363.812741,586.493972L362.404979,582.054024L360.871162,577.229772L362.533276,576.097478L366.324559,573.503492L367.508436,572.700591L369.167002,571.561432L370.076169,570.930090L373.828121,577.977772L376.772759,583.097104L377.099011,583.598057L379.778011,587.749782L382.063335,591.702491L385.429224,597.981516L389.278499,603.951717L392.579879,609.921899L397.143793,616.592010L400.122344,621.862205L400.592635,622.706258L401.322664,624.030666L403.832296,627.756845L405.582789,631.215391L408.957271,634.872933L409.072494,635.030763L410.627096,637.775631L411.377955,639.161788L412.342414,640.939086L414.211553,643.848636L415.852218,646.511145L416.892820,649.386376L417.991056,651.616564L418.036693,651.726357L418.864118,653.833025L420.209561,655.946551L432.802817,676.237658L455.803257,713.292195L473.262256,734.268847L474.674609,735.970573L475.617008,736.732232L487.077342,746.002491L482.596314,751.107632L482.009562,751.821253L480.247796,753.948390L479.657493,754.655148L478.757088,755.972598L477.343626,758.037975L476.055884,759.924945L475.155486,761.242392L474.937145,761.544307L474.261793,762.443189L474.034307,762.738242L473.655867,761.715849L472.694278,761.997179L470.934689,762.065796L470.250513,761.921700L468.624452,761.578615L467.759186,760.933615L467.222010,760.069041L466.273162,757.804677L465.641912,755.732438L465.122699,754.675733L464.190464,753.879772L463.156395,753.275940L462.350372,752.939715L461.075464,752.788757L459.507658,752.720140L457.680710,751.265452L454.891000,750.284223L454.238937,750.050924L450.608713,749.865657L447.606669,749.899966L448.583508,746.613187L442.115277,746.681805L434.248891,744.492904L432.988863,744.197848L422.442504,766.361213L418.609467,766.086746L407.394921,765.434886L403.428219,780.551114L398.214799,780.969673L394.359852,781.333339L393.905822,781.374509L392.940649,783.549642L391.765327,783.439856L388.063434,783.137945L387.616641,784.283835L384.026007,784.077987L382.659093,783.879000L381.457323,783.782937L373.584112,803.050248L371.858362,805.300832L371.701426,805.094986L370.431959,803.777571L369.005553,802.913017L368.757041,802.789510L367.560739,802.185694L369.856885,796.792512L370.620412,794.994781L371.016279,793.944960L370.998069,793.197048L370.411073,792.311904L369.611666,791.934517L362.000393,790.109335L357.909616,789.121266L357.221415,788.915418L355.156812,788.297874L354.470651,788.085165L343.733589,785.299353L343.033682,785.114090L341.723936,784.647501L339.702557,783.432995L337.407941,781.895992L335.909370,781.086321L332.473081,779.947291L330.683790,779.645379L317.476448,778.190713L311.436528,777.833907L306.333031,777.525134L303.827467,777.751568L300.296070,778.437731L300.207313,779.357190L300.194811,780.283510L300.050397,780.317818L297.101718,780.887334L296.118320,781.072597L295.025970,781.436263L292.272363,782.177319L291.791947,782.156734L290.781311,782.094979L287.903513,790.026996L286.366064,794.240008L286.370154,794.809518L282.935642,802.940464L278.721238,813.658159L275.609981,821.548868L275.021341,820.800967L273.478550,819.895253L272.046071,819.634516L270.530509,819.634516L268.613217,819.744300L266.141403,819.668824L264.233626,819.332611L262.982333,818.838585L262.423519,818.310251L262.300671,818.083822L262.316894,817.521180L262.552213,816.992846L262.927219,816.615464L263.502877,815.826392L263.559176,815.373534L263.465592,814.804030L263.253641,814.124741L262.951161,813.486622L262.673467,812.388781L262.538216,811.188018L262.657490,808.999194L262.547517,807.976828L262.099770,807.187753L261.473672,806.885846L261.160687,806.659415L261.109622,806.323200L261.278894,805.753693L261.266977,805.417478L261.099268,805.342001L260.668715,805.266525L259.673007,805.568432L257.935005,805.300832L255.149142,806.282031L254.388763,806.055601L253.623114,805.451786L252.364088,805.115571L251.720959,805.115571L249.836117,805.342001L248.679859,804.923448L246.219695,803.153171L245.738085,802.741479L245.224299,801.911232L244.665514,801.382893L243.977843,801.156462L243.134375,801.190770L242.049251,801.417201L241.300658,801.677939L241.165387,801.719109L239.979533,802.021017L238.530836,802.322925L237.192868,802.741479L236.030239,803.228648L235.230064,803.756987L234.317715,804.662710L233.315953,805.492955L231.587044,806.474154L229.276587,807.379875L228.322060,807.674921L225.304004,809.644177L217.496330,827.765349L228.192841,829.521878L221.997616,845.550129L236.879402,850.160969L247.386702,851.011778L246.991032,851.835140L245.399707,862.573127L243.039693,863.156338L241.345447,873.770753L241.833275,873.427689L251.717249,866.833996L252.066197,866.600712L255.641720,864.110060L257.941157,862.243784L258.316086,861.941886L259.609342,860.789185L254.581218,877.372915L254.001795,879.266621L265.483140,882.072869L277.186506,882.964829L291.168217,884.508606L293.514438,884.762472L294.839801,871.547700L295.231210,868.027862L295.901596,861.893857L291.984724,864.027724L291.778735,864.137505L292.572760,860.768601L292.280735,861.036192L291.641804,861.530207L290.668254,862.134003L290.097806,862.134003L289.639374,861.907579L289.400155,861.564513L289.324692,861.159696L289.461443,860.473564L289.768591,859.684512L290.279221,858.737649L290.570749,857.756479L290.711279,855.382457L290.476942,854.627709L290.153070,853.948436L289.432459,852.816314L289.320061,852.178208L289.730652,850.401117L289.925306,849.124904L289.907520,848.431906L289.898131,848.068253L289.747808,847.162552L289.213441,845.159031L288.943938,844.541507L290.625021,844.191576L291.897789,843.917121L293.932377,844.033764L295.419942,844.109239L296.257778,844.150408L296.971007,844.253328L307.609748,846.092178L339.530232,851.594993L350.165541,853.426974L350.270443,853.186827L350.573964,852.466385L350.675312,852.219376L351.362572,852.390910L351.411965,852.281128L352.138704,850.531483L355.588107,842.215497L356.738105,839.436631L356.971859,838.894580L359.173981,833.741659L361.493284,828.307403L363.884694,823.044668L364.857576,821.294993L365.953495,819.545317L366.831436,818.303389L367.805327,817.246721L368.081626,816.937954L369.343411,815.702885L370.853829,814.440370L372.397163,813.349392L373.905548,812.752441L376.094927,811.839861L377.762405,811.290940L379.567597,810.824357L380.746204,810.659681L382.130683,810.536174L383.858282,810.481282L384.322979,810.460697L386.456149,810.584205L388.744165,810.995895L390.062649,811.414447L391.719654,811.935922L392.736148,812.354474L393.813055,812.889671L395.755932,813.898312L403.093690,818.790554L406.809354,821.267547L407.419708,821.603759L408.976848,822.461443L412.058377,823.778844L413.765277,824.245423L415.721911,824.567912L418.635278,825.020768L423.246044,825.727498L427.477261,826.111740L429.383674,826.283276L430.475205,826.317583L432.190064,826.324445L433.910515,826.331306L436.663911,825.816697L437.482612,825.583408L439.294951,825.055076L440.639088,824.464990L440.955927,824.320900L443.289418,823.017222L444.615419,822.186984L444.878895,822.015448L445.852101,821.130318L446.136484,820.869582L446.768427,821.603759L447.369743,822.516335L445.242228,827.381108L448.684757,827.991777L450.345881,826.296999L450.366736,826.283276L469.570100,807.688644L469.716080,807.592583L470.879469,807.366152L472.149567,807.928797L460.461571,800.662430L460.603174,800.298768L462.430334,795.523122L463.499160,792.565783L464.762035,789.162435L465.492073,789.189882L467.667449,789.265359L468.393934,789.285944L478.073995,789.738809L479.310377,789.793702L484.150288,789.841733L486.696969,785.580679L489.593920,782.719387L489.200335,781.484295L487.990167,781.058874L487.608020,780.839302L486.867249,779.549316L485.332188,777.168329L484.274530,775.439194L483.094024,774.142343L482.167214,773.497347L480.347149,772.866075L478.838973,772.577886L478.236110,772.461237L476.188470,770.299814L474.754305,768.351100L474.013582,767.061105L475.668823,765.235897L476.945934,763.911591L479.366875,761.372764L480.766616,759.918083L482.040180,758.586912L484.833834,755.979460L486.022224,754.991372L487.466001,753.783708L488.932253,756.226482L491.534042,764.728132L492.941747,769.325457L498.453189,776.674290L498.974972,777.120297L499.787727,777.339870L500.881615,777.573165L501.625054,778.026033L502.463747,778.911184L502.946233,780.242341L503.493961,781.353924L504.174207,782.019501L505.799205,782.479230L508.967694,782.938958L511.094136,783.179115L514.378195,783.419272L517.013709,783.432995L519.715973,783.240870L522.483995,782.808588L524.204208,782.383167L525.216230,781.950885L526.578863,781.072597L529.163989,779.768888L530.614252,779.329744L532.284130,778.904323L532.679148,778.911184L534.099602,778.911184L535.633417,778.924907L537.543793,779.158203L541.299313,779.844366L543.720273,779.864951L544.935490,779.652240L546.603097,773.963940L547.332922,771.507467L548.267913,768.680460L549.496433,764.940845L549.589165,764.666377L548.508906,763.897868L546.915958,762.765689L542.389670,759.554413L541.091442,758.634944L540.581671,758.449678L538.570435,758.518295L534.301904,758.655529L532.955973,758.291858L517.898211,754.181688L517.593499,753.776846L514.345790,749.481399L513.112168,747.930644L509.409831,743.264647L508.172685,741.707025L508.132087,741.617822L507.993518,741.350213L507.943776,741.254148L508.021541,741.274733L508.254838,741.336489L508.332604,741.357075L508.831828,740.128816L508.977847,739.374020L509.357937,738.358476L510.231693,736.697923L511.390404,735.339287L512.334997,734.701140L513.650462,734.358050L514.254418,734.358050L514.745942,734.454115L514.896406,734.474701L515.668865,734.810929L517.501614,735.380458L518.232891,735.723548L518.993242,735.949987L521.542908,736.402866L523.159730,736.814574L524.355100,737.233143L525.020324,737.535062L526.525305,737.946769L526.759993,738.173208L526.910675,738.550606L526.837362,739.305403L526.639971,740.101369L526.746100,740.252329L526.897090,740.252329L527.322220,740.101369L527.703724,739.833760L528.828554,738.852525L529.308862,738.365338L531.949915,736.478346L532.822109,735.462800L533.477260,734.406083L533.969187,733.390536L535.067856,731.462367L535.354543,730.892837L535.537357,730.522298L536.057126,729.657709L537.804007,727.091387L538.253120,726.219934L538.482228,725.204383L538.482374,723.811429L538.343139,723.132107L538.444304,722.528264L538.662905,721.924422L539.032493,721.320579L539.188212,721.135309L539.240579,718.719935L539.261149,717.841617L544.854695,713.772527L546.968813,712.228603L548.292942,711.254215L551.999805,708.509457L552.190333,708.639833L552.811719,709.051547L553.180078,709.298576L553.651328,709.312299L554.114946,709.332885L555.481919,709.380918L554.708933,711.473795L552.501650,717.395596L549.264115,722.493955L552.121488,722.137139L556.288073,721.608777L557.964664,721.649948L562.998517,721.759737L564.671556,721.794047L565.021822,721.800908L566.362885,721.842080L566.862100,721.855803L569.591528,721.910698L571.427203,721.999902L573.104784,722.075382L576.003552,722.068521L576.729696,719.982517L577.625560,717.381872L580.545035,708.969204L582.152094,705.236328L582.861763,705.256914L583.869326,705.291223L586.698858,705.366704L587.684323,703.273820L589.174779,703.376749L591.722075,703.555159L596.156339,703.857083L603.839416,704.385451L607.879213,704.659927L606.538770,709.415228L608.894898,712.118813L610.327691,713.751941L613.173962,718.946377L616.424685,718.733659L617.055663,716.723133L619.518297,716.640790L621.829108,707.528205L628.893557,707.390967L629.140810,706.540091L630.676103,700.940766L632.145304,700.927042L641.740369,700.817252L642.777786,696.686366L648.079481,693.090704L654.286077,688.877457L654.718428,688.589254L656.010417,687.704059L656.439215,687.408994L656.578827,687.635439L656.997662,688.314775L657.139314,688.534358L660.231855,693.275976L666.764926,703.301268L669.497154,707.487034L672.586390,712.221741L674.215146,714.945908L679.103574,723.111521L680.728856,725.828810L682.392836,728.491200L687.391007,736.457760L689.051510,739.113273L692.673714,744.897748L694.213566,744.232157L693.426666,741.233563L699.482641,738.900557L700.652018,734.474701L702.119157,728.896047L701.322084,722.562574L701.586058,714.897875L706.415624,715.563476L711.551529,701.777921L715.018751,692.479989L720.501060,677.774750L724.630962,666.699425L724.877050,666.040667L734.368510,640.575392L738.089961,649.578515L747.126074,671.427376L749.257552,676.580759L752.976249,685.576845L755.678768,692.102581L763.777810,711.672790L764.764885,714.053864L766.477195,718.191572L767.922593,721.684257L772.258966,732.162272L773.704484,735.654930L774.124237,736.670476L775.379957,739.710248L775.796166,740.718930L776.356533,742.070699L778.037663,746.126003L778.592456,747.477768L781.055362,753.420037L788.427826,771.246724L789.780780,774.506010L790.887526,777.182052L793.354422,783.131084L800.738855,800.978062L803.200507,806.927015L804.117034,809.170732L806.148067,808.244427L805.406156,806.542769L805.866408,806.254585L805.436449,804.971479L805.775108,804.847971L805.912401,804.799940L806.885158,804.443140L807.999880,803.853048L811.344561,802.062186L812.455727,801.465231L812.314554,801.149600L811.885446,800.202706L811.738682,799.887075L814.046527,791.756116L817.246928,780.468774L806.870605,779.535593L800.428052,778.952354L800.294222,778.273052L799.887146,776.235145L799.747728,775.555842L799.686776,775.459779L799.492736,775.171590L799.428229,775.068665L800.474991,775.102974L803.611722,775.199037L804.654929,775.226483L804.500988,775.048081L804.043240,774.499149L803.891337,774.313884L803.248832,772.372036L801.315779,766.546479L800.913849,765.338822L800.667717,764.604622L804.861469,761.969732L807.482163,760.357232L809.957412,758.820210L803.362063,744.101783L802.305272,744.685033L798.601931,746.722976L797.248252,744.088059L796.558131,744.472318L795.285704,745.179080L794.492837,745.645680L793.804231,746.043662L793.153255,746.427920L791.673820,747.285639L791.191180,747.573833L790.536650,747.951229L790.065633,746.750423L789.333214,744.904609L791.299417,743.669492L792.637012,742.818632L800.237378,738.015387L808.466874,732.807282L805.601705,726.563026L798.229736,731.105553L793.904713,733.767935L792.483070,731.023211L791.843744,731.462367L791.284275,731.839767L789.896391,732.615151L789.242377,732.971965L789.190110,732.827867L789.022124,732.395573L788.964265,732.251475L788.785195,731.668221L788.237331,729.897873L788.054711,729.307756L790.302516,727.407031L791.605731,726.295414L790.424343,723.928081L793.041130,721.444092L793.012699,721.389197L792.063958,719.330641L790.072218,719.220851L784.097522,718.870896L783.390404,718.822863L782.138395,718.651317L782.073903,718.548389L781.886542,718.219019L781.818497,718.109230L782.174043,717.834755L782.771201,717.368148L783.060846,716.826061L783.280248,716.407487L783.360682,716.249664L785.089478,712.180570L790.484291,699.479175L792.088422,695.698246L792.275332,695.238495L794.452568,689.886167L798.541318,679.812768L800.620815,674.789771L801.021632,673.835950L802.815453,669.492280L803.252916,668.490421L804.591315,668.634524L808.589738,669.066833L809.924585,669.204074L809.604150,670.075554L808.081739,674.522152L806.413155,679.366737L811.807689,679.654941L813.387951,675.276975L815.295837,669.965761L817.635609,670.240243L824.647821,671.049963L826.984043,671.317583L828.080420,671.523444L829.205520,672.065545L829.451394,672.291992L832.492313,675.119149L832.972416,675.517146L833.649811,675.853385L835.749457,677.067963L836.429360,677.452236L838.269255,677.960025L838.295532,678.172747L838.372849,678.797190L838.395573,679.003051L847.404886,665.937737L848.890453,663.083118L850.533883,659.226631L854.045787,659.000182L854.425397,658.512974L855.128524,659.082527L855.493922,659.226631L855.872543,659.363872L858.546710,659.755011L859.226304,659.857942L859.478932,659.892253L860.661276,660.015770L860.844295,660.002046L863.750419,660.873530L866.826554,660.118701L871.744814,658.904113L877.219015,653.277194L877.387412,653.105641L884.859776,653.702645L887.908709,653.942818L888.518481,650.271589L893.636494,637.919736L893.864662,637.377625L897.620431,628.312683L893.727839,627.900951L888.116925,627.626463L882.531933,627.358837L873.655526,626.933380L871.131177,626.809861L865.779008,626.549097L863.191111,626.432439L864.718245,622.685671L869.311479,611.424735L870.835142,607.671074L871.363780,606.531936L872.210222,604.699706L872.860762,603.093931L872.916811,602.942960L873.317241,601.934203L873.794708,601.193075L874.495515,600.246077L879.216129,594.804263L882.372449,591.277026L884.847964,588.497778L888.710583,584.174495L910.265429,560.039414L919.562772,549.622185L920.179296,548.620262L920.772758,547.282075L923.628633,540.213691L924.036772,539.198037L922.966898,539.053924L923.566517,536.096173L923.310359,533.440369L922.060185,532.623725L920.094978,531.635518L915.650303,529.000296L911.938218,526.797411L903.762887,522.323010L886.653148,514.273177L882.481800,511.960474L880.106097,510.848728L879.251534,510.450696L876.519127,509.222285L874.382411,508.529158L873.313923,507.101729L872.562459,504.871369L872.473409,503.045903L872.804365,500.616521L873.597627,498.907716L874.747105,496.828325L876.594568,494.206780L878.610106,491.283272L880.761804,488.428387L883.167820,484.962715L885.167642,481.565664L885.896172,480.055862L886.345536,479.108803L887.412561,476.253900L888.496038,472.328401L896.189372,446.139898L899.389111,444.781051L901.203181,446.990893L906.914809,442.186885L907.360011,436.140682L900.708777,431.659205L901.420201,430.094460L902.007289,428.797367L909.871914,411.530173L912.859443,410.809560L915.066960,410.342876L921.692083,408.915374L923.896047,408.441827L930.063226,406.993735L942.181994,404.145587L944.254141,404.227943L946.816975,404.145587L948.292311,403.884792L949.215550,403.713217L951.634371,402.930833L953.380849,402.059230L954.454711,401.324887L955.345835,400.810160L955.881083,400.364064L956.679218,399.410103L957.597799,398.051223L958.496962,396.362916L959.382114,394.496169L960.202406,392.471569L973.058881,390.639133L974.104599,392.142142L975.358864,393.940262L984.686795,394.290277L985.877449,379.912141L988.684531,373.426503L993.514032,371.024410L1000.000000,350.537863Z "/></g><g fill="#000" font-family="Arial" font-size="12px" id="mylayer-label" stroke="none"><text text-anchor="middle" y="487.173391867"><tspan dy="0" x="604.817532401"><![CDATA[N]]></tspan></text></g></svg>