<?xml version="1.0" encoding="utf-8"?><!DOCTYPE svg  PUBLIC '-//W3C//DTD SVG 1.1//EN'  'http://www.w3.org/Graphics/SVG/1.1/DTD/svg11.dtd'><svg enable_background="new 0 0 1000 1001" height="1001px" pretty_print="False" style="stroke-linejoin: round; stroke:#000; fill: none;" version="1.1" viewBox="0 0 1000 1001" width="1000px" xmlns="http://www.w3.org/2000/svg" xmlns:xlink="http://www.w3.org/1999/xlink"><defs><style type="text/css"><![CDATA[path { fill-rule: evenodd; }]]></style></defs><metadata><views><view h="1001" padding="0" w="1000"><proj flip="auto" id="robinson" lon0="-66.5564936228"/><bbox h="0.12" w="0.09" x="-971.0" y="-308.35"/></view></views></metadata><g class="" id="mylayer"><path d="M426.728707,0.000000L398.600844,7.438064L392.558507,21.367530L396.267691,171.616438L359.766549,187.844944L334.171548,208.130577L326.087354,218.814344L300.555348,253.164682L245.494649,326.733915L217.166632,363.248057L191.124167,396.786974L183.638458,403.684090L169.320188,416.802135L156.813111,422.076400L180.705428,448.988677L209.664734,519.988406L219.368706,575.841528L220.572284,593.963365L231.597359,633.587979L239.674430,664.692625L254.178278,688.900155L248.835967,745.835185L237.264886,778.156972L199.495523,811.290186L191.268734,823.461571L190.281221,831.305352L199.084476,837.661520L199.848593,895.948932L182.929118,926.377396L176.216128,935.032604L187.655324,951.937307L201.812491,950.314455L216.694004,938.684020L230.466590,930.028812L254.535718,914.611723L284.514250,865.790944L350.862665,884.318497L374.312121,879.044230L388.142231,877.150903L443.920336,869.712834L486.839325,868.766171L504.043610,868.495696L548.858125,867.413795L516.345289,985.611475L525.619248,991.967643L630.786197,998.323812L691.786955,999.000000L702.636305,980.337208L702.668796,938.278307L715.252713,930.975475L719.789241,914.341248L716.126880,861.733815L824.614770,902.169862L836.130222,882.695645L843.186889,828.735838L762.766439,753.273253L759.598807,748.269461L743.556284,746.240897L761.043670,723.385743L749.409002,707.292468L759.841283,673.347831L756.051874,658.877409L752.781207,638.997482L750.973634,634.534642L745.118242,619.523269L631.887072,615.060429L648.127589,262.901786L651.249348,156.740308L656.501252,14.876129L656.796794,8.114252L640.764646,2.299038L593.490877,0.811425L589.843458,0.811425L581.254375,0.811425L467.543294,0.135238L458.836553,0.135238L426.728707,0.000000Z " data-aland="288697" data-awater="0" data-classfp="U1" data-funcstat="S" data-geoid="7257862" data-intptlat="+18.3847639" data-intptlon="-066.5559078" data-lsad="55" data-mtfcc="G4210" data-name="Pajonal" data-namelsad="Pajonal comunidad" data-pcicbsa="N" data-pcinecta="N" data-placefp="57862" data-placens="02414892" data-statefp="72"/></g><g fill="#000" font-family="Arial" font-size="12px" id="mylayer-label" stroke="none"><text text-anchor="middle" y="525.764460392"><tspan dy="0" x="480.944736811"><![CDATA[Pajonal]]></tspan></text></g></svg>