<?xml version="1.0" encoding="utf-8"?><!DOCTYPE svg  PUBLIC '-//W3C//DTD SVG 1.1//EN'  'http://www.w3.org/Graphics/SVG/1.1/DTD/svg11.dtd'><svg enable_background="new 0 0 1000 1001" height="1001px" pretty_print="False" style="stroke-linejoin: round; stroke:#000; fill: none;" version="1.1" viewBox="0 0 1000 1001" width="1000px" xmlns="http://www.w3.org/2000/svg" xmlns:xlink="http://www.w3.org/1999/xlink"><defs><style type="text/css"><![CDATA[path { fill-rule: evenodd; }]]></style></defs><metadata><views><view h="1001" padding="0" w="1000"><proj flip="auto" id="robinson" lon0="-65.7746978444"/><bbox h="0.09" w="0.19" x="-959.66" y="-308.08"/></view></views></metadata><g class="" id="mylayer"><path d="M1000.000000,299.448073L963.023934,296.258278L899.923691,277.464351L866.530122,273.671081L846.213688,270.395075L808.131243,272.550342L786.037001,272.205500L773.830474,282.292149L760.400842,293.413326L755.703785,299.448073L753.642281,302.206815L714.409554,308.586405L698.623355,312.121043L675.890553,317.724737L668.462746,320.914532L651.993315,324.535380L634.020089,330.570128L608.694054,339.794671L591.671404,346.088051L555.269724,359.795549L509.633385,377.554950L508.981327,376.520422L505.804209,371.261570L490.844056,349.450267L481.401076,331.949499L479.271892,329.880443L473.802256,324.276748L467.241018,323.069799L459.287327,321.518007L436.478668,322.380114L389.115650,339.363617L369.544248,346.432893L318.533375,364.709558L324.131127,393.503927L329.024544,402.814681L338.804409,404.883737L344.968293,403.159524L337.649122,419.453343L334.031126,427.557148L328.504625,439.971488L324.222574,440.833594L269.859194,449.368453L243.903194,451.782352L220.567933,451.868563L210.724217,451.265088L198.038414,450.575403L154.936224,447.126975L125.283250,442.644019L65.815342,427.470938L0.000000,400.918046L4.290421,417.384287L7.585747,436.436849L5.578618,454.454884L11.611944,462.817321L57.046574,547.734857L74.404800,572.735960L83.521635,581.012188L102.133187,590.409155L74.974843,596.012850L44.850386,602.047600L50.278230,633.428297L50.447580,634.807669L55.770075,633.255876L62.069162,632.479979L65.953191,632.652401L74.929528,632.911033L83.221134,632.479979L95.636623,631.273030L117.794010,625.410701L129.500923,619.807005L140.376091,615.065416L148.963217,612.306674L158.339087,612.306674L169.400784,613.513624L179.979115,619.031109L191.897904,623.858909L207.584232,633.255876L219.660561,641.963157L228.886630,650.670439L233.087880,655.412028L234.098648,656.618978L241.431067,668.688478L247.785393,679.206185L255.968912,691.792949L258.964906,698.172542L266.539983,702.138235L272.023031,706.017717L284.548581,709.983410L300.072911,713.173206L313.275036,717.914796L325.347537,720.328696L338.551175,725.846182L349.015863,728.604925L357.341655,728.604925L366.571175,726.191024L378.564775,722.311542L433.323719,698.517385L467.712128,682.309770L481.658033,675.240492L494.969705,667.740160L505.431109,660.239828L510.987404,654.636132L515.186033,645.152954L518.478549,632.566190L522.603054,627.824601L525.755484,624.634805L537.870682,614.720574L543.583022,612.220463L550.244445,609.203088L554.554016,609.634142L558.758928,611.961831L572.747045,626.617651L576.669775,629.548815L578.489293,630.928187L582.162504,634.117983L585.915871,635.669776L593.866613,635.669776L599.299783,635.324933L607.479185,632.911033L618.729345,628.169444L642.501763,617.134473L654.241284,611.185935L681.691517,584.288195L692.152012,572.046275L704.487679,559.804355L714.200498,553.079920L723.803510,549.890124L732.502799,549.114228L744.014534,550.321178L754.162831,553.252342L755.555296,553.597185L762.315591,554.286870L768.206960,553.855817L772.554340,552.304024L777.427388,546.786539L779.083307,541.182844L780.542345,532.906616L782.265467,514.716159L783.879050,508.767621L785.786002,503.681190L791.262750,495.749806L802.627843,485.835576L838.403797,458.937840L848.186458,453.851409L859.738122,449.885717L869.034432,447.558028L878.972254,440.833594L889.066748,433.247054L897.874944,424.194931L906.421810,417.901551L912.085128,415.918705L928.440227,413.504806L933.392176,414.280702L938.679834,416.263548L944.119014,419.022290L953.826919,422.643139L958.438011,423.850089L963.504291,423.419035L967.138787,423.850089L970.517728,421.436189L974.039138,415.142809L979.856730,406.780372L983.264435,397.728250L987.911572,387.469179L988.140233,385.055279L989.299878,372.813362L989.298998,368.071775L987.353098,361.692184L986.558936,351.864166L983.969772,340.398146L984.233244,334.449609L984.704769,332.639184L986.484707,326.518226L989.034057,321.776639L990.785848,318.328212L992.270280,314.534942L994.020565,310.310618L1000.000000,299.448073Z "/></g><g fill="#000" font-family="Arial" font-size="12px" id="mylayer-label" stroke="none"><text text-anchor="middle" y="480.70154412"><tspan dy="0" x="495.10968137"><![CDATA[N]]></tspan></text></g></svg>