<?xml version="1.0" encoding="utf-8"?><!DOCTYPE svg  PUBLIC '-//W3C//DTD SVG 1.1//EN'  'http://www.w3.org/Graphics/SVG/1.1/DTD/svg11.dtd'><svg enable_background="new 0 0 1000 1001" height="1001px" pretty_print="False" style="stroke-linejoin: round; stroke:#000; fill: none;" version="1.1" viewBox="0 0 1000 1001" width="1000px" xmlns="http://www.w3.org/2000/svg" xmlns:xlink="http://www.w3.org/1999/xlink"><defs><style type="text/css"><![CDATA[path { fill-rule: evenodd; }]]></style></defs><metadata><views><view h="1001" padding="0" w="1000"><proj flip="auto" id="robinson" lon0="-79.649990425"/><bbox h="0.11" w="0.12" x="-1085.43" y="-677.77"/></view></views></metadata><g class="" id="mylayer"><path d="M1000.000000,253.157712L997.701474,230.850763L994.452261,200.110787L992.143055,183.788716L991.214033,163.386167L990.086639,140.263331L989.139647,124.213396L985.963320,76.063754L984.792761,60.013928L964.595975,66.814699L953.582917,69.943055L944.859249,72.255319L934.530819,76.335785L911.113566,92.657671L863.946122,132.238360L834.682657,156.585327L816.712891,171.683198L798.835145,186.509059L762.211013,215.752798L756.014836,220.513415L744.504675,231.394835L720.761821,256.286130L675.380694,303.484557L650.665546,331.912543L627.897057,357.892260L608.062055,381.151648L605.530024,384.008068L601.360799,389.720911L596.145192,394.889676L574.297797,420.461504L547.629028,449.705968L528.194637,470.789241L527.063486,472.149454L524.393465,475.413966L516.001839,485.343529L513.265968,488.472023L501.007334,502.890316L464.343367,546.145327L451.972932,560.563708L441.233370,572.805747L437.504379,576.886430L409.771581,609.940029L401.991612,619.053593L398.834494,621.774061L368.120425,653.059506L352.794862,665.301665L337.009303,678.904082L326.957850,684.481079L321.945195,687.065542L294.974089,700.667991L261.751640,712.910211L234.581963,723.792198L177.217187,748.548766L158.665678,756.438235L144.720111,764.599762L130.973111,775.481809L119.003239,787.724126L98.017775,812.072783L69.482461,844.855152L34.898503,888.247757L0.000000,934.225092L28.479499,938.986072L42.881963,907.971734L51.306800,899.265974L53.135195,897.497617L56.818124,893.552823L58.284813,892.192549L60.047350,890.288166L90.517526,858.729881L131.063117,831.116469L157.854474,812.752914L253.081363,837.781768L266.874142,841.318459L339.298557,813.705097L361.435664,805.135450L405.997173,812.616888L408.353459,814.249202L425.736055,826.355544L451.794361,860.770285L466.825003,880.494205L489.394101,910.012148L519.123934,915.045171L549.113817,899.129946L564.113879,880.902286L581.990705,836.965609L581.685373,802.142876L580.873520,722.840024L580.830740,715.358657L580.688673,706.517050L577.354073,694.546886L575.581207,687.881688L581.937343,673.055040L583.614168,670.742629L595.460537,662.173112L600.867303,658.092392L607.952902,656.324080L610.787997,654.555769L613.544667,654.011673L636.441852,638.232913L648.175371,627.351024L656.184248,615.244938L662.142018,607.219564L670.673454,601.506589L678.869326,595.793618L682.968253,595.249526L686.658480,592.937134L689.343003,592.937134L695.506617,589.264513L697.618296,588.312352L694.011799,586.408031L683.330311,580.287001L679.769818,578.246658L703.780690,550.906111L710.745192,542.880791L733.552843,517.444653L741.260639,508.875275L771.713198,481.670949L778.901443,473.645688L786.181694,465.348392L793.217428,454.466703L799.134628,443.585026L807.845338,425.766307L825.365154,389.176830L829.902349,382.375828L837.596678,372.854433L852.462286,361.972850L870.708738,348.370889L925.448126,307.565124L943.694599,293.963242L955.041374,286.210178L971.387262,274.920639L988.824614,261.726859L1000.000000,253.157712Z "/></g><g fill="#000" font-family="Arial" font-size="12px" id="mylayer-label" stroke="none"><text text-anchor="middle" y="524.809549035"><tspan dy="0" x="597.994964805"><![CDATA[N]]></tspan></text></g></svg>