<?xml version="1.0" encoding="utf-8"?><!DOCTYPE svg  PUBLIC '-//W3C//DTD SVG 1.1//EN'  'http://www.w3.org/Graphics/SVG/1.1/DTD/svg11.dtd'><svg enable_background="new 0 0 1000 1001" height="1001px" pretty_print="False" style="stroke-linejoin: round; stroke:#000; fill: none;" version="1.1" viewBox="0 0 1000 1001" width="1000px" xmlns="http://www.w3.org/2000/svg" xmlns:xlink="http://www.w3.org/1999/xlink"><defs><style type="text/css"><![CDATA[path { fill-rule: evenodd; }]]></style></defs><metadata><views><view h="1001" padding="0" w="1000"><proj flip="auto" id="robinson" lon0="-122.636363318"/><bbox h="0.74" w="0.93" x="-1605.2" y="-792.16"/></view></views></metadata><g class="" id="mylayer"><path d="M1000.000000,111.497157L999.519003,109.973581L998.772357,109.105497L997.108802,108.644881L996.675890,108.113401L996.889102,105.881184L996.332557,104.729644L994.918449,101.841935L991.112192,99.007374L989.965548,100.353790L979.070474,108.574017L967.925095,104.818224L906.216212,141.437191L871.478269,149.037349L878.749346,153.891529L826.391563,158.993732L774.528560,190.652178L733.266715,254.961087L726.036074,265.767808L571.234926,317.143979L410.620467,385.917076L405.748482,388.007550L357.539325,426.982455L309.006764,496.074232L300.529500,496.074232L307.445150,471.272071L324.712891,473.043654L301.027062,459.668197L293.132321,455.451826L193.341377,507.855252L119.355654,557.335495L83.738534,581.145512L21.797347,603.910282L0.000000,623.255896L21.116966,637.269059L45.493276,698.813525L72.464721,692.896474L86.554092,689.796222L101.775873,695.004645L99.098793,710.842496L106.420344,719.629489L100.471541,740.764323L100.476162,742.146147L100.635519,756.602153L106.123805,770.668407L141.266205,745.955022L142.545809,744.803502L168.927856,720.249539L213.215979,677.767243L243.822775,648.341402L234.064838,666.003996L236.345393,671.301001L232.152022,671.318717L194.772502,705.102605L187.355172,714.917110L179.915945,724.607603L173.927650,730.684089L139.094266,765.353702L137.524144,772.439975L127.947006,774.211543L120.734260,783.583136L113.877976,792.494119L101.187649,808.827963L85.792490,828.793507L54.016112,875.190761L46.482020,896.449504L53.954070,896.431788L57.786658,896.449504L62.654391,899.992626L85.261637,884.048572L94.366701,871.647636L151.042503,832.673234L164.388240,836.216363L172.020015,833.116125L172.527201,833.824751L174.733283,835.667178L176.386607,836.304941L177.353806,836.818695L182.228915,837.775340L184.061190,837.987928L188.292508,838.182800L194.903990,837.934781L200.041225,838.058790L206.547540,838.094222L210.300035,838.696553L213.262770,839.068582L217.323050,840.131521L220.042462,840.804715L224.033713,842.275113L228.207050,843.338052L231.287618,844.294697L234.960110,845.322204L242.290857,846.420574L246.991665,846.792602L252.783629,846.863465L260.233506,846.402858L263.332757,846.030830L267.882707,845.393066L276.889930,843.834090L285.236133,842.133388L288.456246,841.566488L311.042454,836.978136L312.943699,836.304941L315.380341,835.702609L316.867120,835.242003L323.939858,832.655518L326.838014,831.468570L333.445959,828.492340L338.796356,825.994434L344.132621,823.496527L346.878460,822.167853L351.081209,820.130552L353.478511,818.908172L357.277784,817.065744L374.140649,809.448011L376.382535,808.385071L377.841025,807.765023L382.962281,806.046604L388.345745,804.452194L391.625485,803.903009L394.195604,803.654989L396.282170,803.548695L398.004489,803.460117L399.321751,803.477833L401.111619,803.690421L403.518539,804.115596L404.460609,804.487625L406.140598,804.877370L407.891261,805.426556L409.398587,806.117466L412.870270,808.562228L414.404435,810.280647L416.216715,813.487181L417.188917,815.861079L423.141461,829.023810L426.448723,833.328713L427.216525,833.594447L428.599951,834.781396L430.992902,835.844335L433.161297,836.676970L436.792980,837.474174L439.232915,837.846202L441.316415,838.041075L442.666656,838.005643L444.952684,838.147368L458.056360,838.094222L467.632079,837.828487L476.210850,837.757624L486.909195,837.686762L503.035240,837.704477L505.399766,837.810771L511.461751,837.810771L545.723519,837.863918L563.327016,838.005643L570.899375,837.917065L586.800849,837.704477L590.730796,838.111937L595.707801,837.810771L600.070981,837.793056L605.267861,837.775340L625.278243,837.863918L643.256897,837.651330L654.880051,837.775340L673.486862,838.076506L680.379402,838.058790L705.883409,838.129653L727.390035,838.129653L729.090390,838.076506L732.327961,832.992115L769.592251,774.494994L800.698839,725.635114L724.808479,725.245368L735.107083,708.982346L732.274828,708.946915L707.360727,708.610316L709.952328,704.500270L711.120201,702.640120L713.189100,699.327281L748.795144,642.583784L758.973108,642.690078L807.466794,563.217138L808.532841,561.498706L827.158125,561.835306L840.825670,562.101043L872.598875,562.721095L880.048052,562.898253L884.712226,562.986832L886.699720,563.039980L902.269997,563.358864L915.537234,563.358864L918.840307,563.341148L922.794889,563.252569L923.112017,562.171906L923.557882,560.701495L924.334982,560.701495L924.620715,559.603116L925.174916,557.388642L926.264496,553.012841L931.660898,531.559007L937.941903,506.880882L947.883028,467.764335L956.518766,434.830579L907.541745,434.387683L831.130817,432.049190L834.538320,427.513931L839.365343,421.260233L833.665657,419.789817L829.272061,418.354832L817.780064,415.608874L846.863889,368.307491L871.661840,368.484649L912.247085,303.609022L887.096529,303.431863L837.919383,303.042113L844.106454,293.209778L866.042263,258.344831L877.850200,239.548218L891.586866,219.033148L912.168297,188.083363L921.181298,188.402251L935.016578,188.349103L942.050327,188.419967L946.944683,188.295955L948.459347,188.473114L957.325269,175.327864L944.030015,175.398728L947.239309,164.698278L950.028882,155.379672L950.988550,151.375859L969.347427,151.340427L973.278013,145.281560L971.780552,145.281560L975.112839,139.754172L978.548822,139.771888L993.247129,139.807320L993.045135,138.903804L992.443461,136.937329L992.075252,135.732642L992.195317,134.333078L988.858230,134.315362L988.712469,128.291924L994.080784,128.132480L995.066809,124.837305L994.278123,123.331445L996.653158,120.302010L996.063686,119.044174L998.735763,115.376962L999.389417,111.479441L1000.000000,111.497157Z " data-aland="11986612" data-awater="2353" data-classfp="U1" data-funcstat="S" data-geoid="5359880" data-intptlat="+47.3409027" data-intptlon="-122.6330400" data-lsad="57" data-mtfcc="G4210" data-name="Rosedale" data-namelsad="Rosedale CDP" data-pcicbsa="N" data-pcinecta="N" data-placefp="59880" data-placens="02585032" data-statefp="53"/></g><g fill="#000" font-family="Arial" font-size="12px" id="mylayer-label" stroke="none"><text text-anchor="middle" y="559.75306504"><tspan dy="0" x="520.928741868"><![CDATA[Rosedale]]></tspan></text></g></svg>