<?xml version="1.0" encoding="utf-8"?><!DOCTYPE svg  PUBLIC '-//W3C//DTD SVG 1.1//EN'  'http://www.w3.org/Graphics/SVG/1.1/DTD/svg11.dtd'><svg enable_background="new 0 0 1000 1001" height="1001px" pretty_print="False" style="stroke-linejoin: round; stroke:#000; fill: none;" version="1.1" viewBox="0 0 1000 1001" width="1000px" xmlns="http://www.w3.org/2000/svg" xmlns:xlink="http://www.w3.org/1999/xlink"><defs><style type="text/css"><![CDATA[path { fill-rule: evenodd; }]]></style></defs><metadata><views><view h="1001" padding="0" w="1000"><proj flip="auto" id="robinson" lon0="-81.2838789223"/><bbox h="0.74" w="0.93" x="-1142.86" y="-559.51"/></view></views></metadata><g class="" id="mylayer"><path d="M1000.000000,100.842629L976.645199,101.294517L920.764766,101.095686L879.445316,100.987233L807.376898,100.788402L805.374084,100.752251L803.770414,100.752251L798.550921,100.752251L781.540174,100.716100L758.568616,100.679949L731.935849,100.643798L634.799870,100.499194L550.992513,100.354590L539.584157,100.300364L498.838505,100.137684L490.032330,100.083457L404.837994,99.685796L356.884063,99.432739L329.961624,99.288135L245.491969,99.306210L214.825567,99.306210L183.529498,211.752296L159.373142,297.697757L139.976063,366.579201L118.692684,442.363571L98.871949,512.905079L86.669433,556.353497L74.800430,598.572437L66.619087,629.441118L61.020005,649.429717L47.848278,696.527202L0.000000,867.616545L34.468754,869.026143L42.558059,869.459865L44.292366,869.423721L63.863938,870.218879L67.321989,870.363453L74.676903,870.652601L109.024652,872.062197L202.420159,875.857262L216.207005,876.435557L219.190185,876.543987L311.279913,880.357119L588.464954,891.651918L627.901803,893.278366L644.600963,893.947017L673.239900,895.139745L687.046658,895.699965L704.912112,896.422831L784.835892,899.711865L853.353343,637.881163L855.894554,639.760742L861.273613,643.953646L866.060583,647.333268L866.565611,647.604361L867.837591,645.019944L871.907169,649.538154L903.904650,669.671226L913.262032,651.815329L915.236505,653.604537L919.554493,656.984150L924.220502,660.363760L933.869250,666.833807L943.350386,673.484570L950.139031,678.020817L951.023161,675.942457L951.218962,675.183404L952.312885,672.291771L952.578618,671.261626L952.951411,670.285699L953.198498,669.327844L953.556162,668.351917L953.803249,667.394062L954.171383,666.436207L954.637587,664.628932L954.987074,663.743367L955.434634,662.008382L956.951346,658.357682L976.982847,666.165116L979.193981,666.978389L984.672416,657.237169L939.212330,639.435430L896.109660,621.705898L861.084736,607.211356L934.792136,323.435818L943.257668,290.937871L969.707159,189.086219L975.328062,167.377986L976.233743,165.335490L991.557357,132.185433L1000.000000,100.842629Z "/></g><g fill="#000" font-family="Arial" font-size="12px" id="mylayer-label" stroke="none"><text text-anchor="middle" y="488.009470391"><tspan dy="0" x="502.908679928"><![CDATA[N]]></tspan></text></g></svg>