<?xml version="1.0" encoding="utf-8"?><!DOCTYPE svg  PUBLIC '-//W3C//DTD SVG 1.1//EN'  'http://www.w3.org/Graphics/SVG/1.1/DTD/svg11.dtd'><svg enable_background="new 0 0 1000 1001" height="1001px" pretty_print="False" style="stroke-linejoin: round; stroke:#000; fill: none;" version="1.1" viewBox="0 0 1000 1001" width="1000px" xmlns="http://www.w3.org/2000/svg" xmlns:xlink="http://www.w3.org/1999/xlink"><defs><style type="text/css"><![CDATA[path { fill-rule: evenodd; }]]></style></defs><metadata><views><view h="1001" padding="0" w="1000"><proj flip="auto" id="robinson" lon0="-120.754615786"/><bbox h="0.3" w="0.44" x="-1586.72" y="-781.3"/></view></views></metadata><g class="" id="mylayer"><path d="M1000.000000,809.953024L999.547859,807.984881L998.539878,803.528708L998.087207,802.154721L997.968551,801.709103L997.761677,800.075172L994.174888,783.884396L987.446332,753.582349L975.908833,741.699179L965.650059,731.152858L955.351088,723.837272L934.455956,708.909012L919.872575,707.720692L906.308594,706.569507L904.820521,706.420967L878.992769,706.161022L849.697546,705.826807L804.916879,706.049617L801.017750,706.049617L775.026078,706.012482L769.638733,706.012482L753.499057,705.975347L748.104308,705.938212L746.764913,705.938212L742.687198,705.938212L741.318039,705.938212L740.812045,705.938212L739.234535,705.938212L738.721137,705.901077L737.524351,704.675622L733.844707,700.999256L732.588397,699.773801L721.192830,688.299078L687.044149,653.763456L676.340402,642.919999L674.844021,643.625567L660.884317,651.089728L618.938248,673.445056L604.971125,680.872068L601.747800,682.171795L601.301182,682.320336L598.827981,677.826994L598.263389,676.935752L597.951407,676.415861L599.055159,674.039217L597.851957,671.885383L596.002593,668.580361L594.562688,665.089663L593.605327,662.675882L591.026061,660.039290L591.243844,658.145399L591.709649,653.911997L595.152184,649.381512L598.170941,644.516810L601.442780,639.577837L604.952580,634.787402L608.074981,630.442588L611.278169,627.100423L611.591404,626.431990L613.090968,622.755607L614.710229,618.485060L615.248048,616.554030L615.883040,614.214513L616.311763,609.943964L615.764409,606.898876L614.152804,604.039464L612.324975,601.588539L610.134515,597.317987L609.555651,595.906848L609.236939,594.755655L609.110967,594.272897L609.254320,592.453270L610.126484,591.004995L611.348575,589.371044L612.786414,587.774228L615.452937,585.323301L615.907279,584.914813L616.264767,584.617731L617.225578,583.763619L617.575667,583.429402L618.685458,582.426750L619.087673,582.055397L625.939324,576.559376L626.795720,575.928076L627.279826,575.519588L630.288394,573.291470L635.806135,569.615076L640.377539,567.164146L643.578676,565.753004L646.071584,565.567328L650.573944,565.010298L656.176583,565.344516L656.927912,565.530192L666.288892,558.437347L680.066038,547.965182L680.455393,559.328595L680.715165,566.755658L687.269424,574.702611L692.605025,581.164150L698.062908,584.654866L702.279723,586.697305L713.319388,568.463882L723.092034,552.235746L728.743823,541.615036L745.654884,509.678595L751.299445,499.020723L755.927194,486.097579L756.763230,483.720908L774.507395,446.102616L780.802671,432.733805L757.878123,432.399585L689.171591,431.285517L673.940695,431.025567L666.194926,430.988432L660.926880,430.988432L645.130316,430.877025L639.877239,430.802754L646.806031,416.876896L652.161173,406.107559L625.065361,409.635446L612.905381,411.195143L619.369058,400.611480L638.730559,368.860452L645.186997,358.239627L647.006113,355.268765L652.530580,346.244771L654.342313,343.236772L655.154924,341.937019L657.533235,338.037759L658.338453,336.700870L661.484654,331.576128L670.863784,316.201890L673.972864,311.040006L674.740754,309.814522L677.052007,306.026663L677.812505,304.764043L678.580399,303.538559L680.802189,299.899242L681.562690,298.636622L701.466645,298.302399L705.287531,301.198998L709.206386,303.092928L723.721731,304.095597L734.197709,304.392684L755.261322,304.949722L790.554044,309.406027L811.147310,317.464509L820.561128,322.440713L920.164351,162.310211L889.227804,161.790304L856.527935,161.233262L796.246827,160.416265L765.235801,159.970631L728.511132,159.079362L728.057316,159.042226L685.045373,158.262366L617.666277,157.371097L580.688179,156.851190L569.081354,156.702645L544.870790,156.331283L534.260880,156.257011L522.601924,156.145602L519.925587,160.044903L515.998469,164.538382L513.725613,167.175051L510.328412,170.443035L509.143748,171.668529L507.899560,172.894022L504.778799,175.307873L503.326280,176.533366L496.309768,182.252334L489.577678,186.708671L478.645623,193.838808L470.730455,198.332278L461.887448,201.154622L460.756104,201.451711L452.457380,203.419924L445.617180,205.239593L444.923688,206.390812L442.843215,209.844469L442.149724,210.995687L440.606151,213.558077L435.975445,221.245244L435.453532,222.062237L434.573299,223.770496L433.769726,223.770496L428.347234,222.545006L424.575450,222.136509L419.701689,222.322189L416.628229,222.730686L413.517026,223.547679L411.136071,223.547679L408.628874,223.361999L408.646019,221.653740L408.649566,218.979944L408.700030,214.597887L403.614702,211.627001L398.596299,208.693250L396.632611,208.247617L395.361631,207.244942L393.362579,205.425274L392.775528,204.868232L390.479260,202.751475L387.305719,200.114811L385.366801,197.849508L381.240895,195.212844L378.557343,193.393174L373.563172,189.085383L371.366020,185.223225L366.539641,183.403554L360.657027,181.361066L351.891168,176.644775L346.612007,174.045243L345.295913,173.413928L340.089848,171.779937L337.270487,171.371439L332.984807,171.371439L327.792512,170.554443L326.298055,169.774584L325.435577,169.328950L325.086436,168.920452L322.308505,165.429651L321.639989,164.612655L321.462031,164.167021L319.758024,164.278429L319.341361,164.278429L314.512178,164.538382L293.379984,165.578196L215.451251,169.403222L198.322279,170.220218L189.497428,170.591580L185.581560,177.536042L173.804298,198.369414L169.881111,205.276729L170.274587,205.908043L171.623142,209.993013L172.067533,211.478456L172.956319,214.449343L173.376513,217.308820L172.552478,221.393788L172.253845,222.136509L169.693606,228.115414L166.128460,234.428541L164.331717,237.065199L162.229362,240.110353L157.994295,246.646291L174.235980,247.351875L188.015008,247.946051L207.057047,268.853609L213.691718,276.169391L214.677516,279.028859L214.855498,279.474490L215.365107,282.333957L215.822981,284.933471L211.027856,293.140509L208.686327,297.076914L214.624199,296.854099L222.481837,296.557012L225.145660,296.482740L227.875619,297.039778L229.578291,297.968176L230.402878,298.970845L231.019520,299.676427L231.544928,301.867444L231.236993,304.058461L230.572496,305.803848L224.644561,315.496309L203.580174,349.921214L196.571253,361.359031L174.360755,361.470438L107.692099,361.767524L85.474205,361.841795L77.073753,361.804660L51.865006,361.656117L43.457163,361.581845L39.728869,367.672108L28.469752,385.868612L24.704354,391.921731L19.775340,400.202988L18.970017,401.539872L4.958680,425.046734L0.000000,433.327975L14.867081,432.956619L19.309347,432.845212L59.401206,431.953957L74.238518,431.582601L90.333266,431.248381L138.572949,430.171448L154.682664,429.762957L179.974343,429.280194L236.622121,428.128990L255.894276,427.609091L281.260621,426.903515L259.101746,463.593461L220.802044,526.983697L210.376911,527.392187L204.509619,536.935980L214.442878,537.195928L209.216689,545.774196L211.671919,545.997008L239.743895,548.113723L238.096193,550.898874L233.153106,559.254324L235.615915,559.365730L265.214528,560.479790L364.877391,560.999684L469.450934,561.816661L450.709442,593.084569L402.895373,673.073705L386.950452,699.699531L397.137089,699.885206L427.704562,700.330826L437.883800,700.479366L445.397441,688.150538L467.916482,651.052593L471.882153,644.516810L475.415536,638.649458L513.879629,637.201187L509.115362,646.002216L481.261231,697.248620L478.913047,701.296336L484.880714,701.370606L523.685207,702.076172L556.671015,702.558927L561.410945,702.596062L564.268166,702.744602L580.548945,703.041682L587.870816,703.190222L609.858792,703.598707L617.173261,703.710112L634.324614,704.044327L682.742872,704.898432L685.845766,704.935567L702.989723,705.232647L687.162336,735.126296L690.763838,735.126296L686.544868,742.479012L683.568563,742.330472L680.222093,747.789305L723.967844,748.494868L724.920310,748.494868L743.972088,715.816119L746.573581,711.248516L768.280146,732.935335L815.812924,780.542261L822.711212,780.208047L885.320920,764.759949L905.032364,796.881580L866.841558,823.878557L862.500433,827.035009L876.164951,840.774854L877.874897,842.483051L882.800673,842.854398L980.251879,842.260242L991.132086,824.287039L1000.000000,809.953024Z "/></g><g fill="#000" font-family="Arial" font-size="12px" id="mylayer-label" stroke="none"><text text-anchor="middle" y="408.663150476"><tspan dy="0" x="518.153622005"><![CDATA[N]]></tspan></text></g></svg>