<?xml version="1.0" encoding="utf-8"?><!DOCTYPE svg  PUBLIC '-//W3C//DTD SVG 1.1//EN'  'http://www.w3.org/Graphics/SVG/1.1/DTD/svg11.dtd'><svg enable_background="new 0 0 1000 1001" height="1001px" pretty_print="False" style="stroke-linejoin: round; stroke:#000; fill: none;" version="1.1" viewBox="0 0 1000 1001" width="1000px" xmlns="http://www.w3.org/2000/svg" xmlns:xlink="http://www.w3.org/1999/xlink"><defs><style type="text/css"><![CDATA[path { fill-rule: evenodd; }]]></style></defs><metadata><views><view h="1001" padding="0" w="1000"><proj flip="auto" id="robinson" lon0="-94.5524421606"/><bbox h="0.74" w="0.68" x="-1315.8" y="-602.38"/></view></views></metadata><g class="" id="mylayer"><path d="M385.932087,0.000000L375.214395,4.160082L366.876863,13.514509L357.268404,20.087881L345.790061,31.326952L333.741752,46.978874L327.286698,50.127640L326.600563,49.874819L319.492936,47.990156L314.280165,45.347031L286.757795,33.855166L280.326891,33.349523L268.437704,38.405947L259.841639,43.071643L256.323507,45.714770L253.449303,47.990156L252.497793,50.518363L256.673250,60.631176L258.355583,67.572234L256.675112,73.502005L257.257523,86.142969L254.637033,96.991194L249.585312,108.230117L244.102983,117.331560L236.204368,124.525367L220.383170,128.823261L213.466867,129.466796L201.081809,133.741702L199.160576,134.408219L195.848827,150.910247L197.748736,155.506903L201.390969,157.736280L202.336939,158.747544L204.095232,161.528518L205.651616,166.837646L206.763127,172.767316L206.148253,179.340510L202.793322,185.408066L199.410862,188.441842L193.442990,191.590532L181.098310,199.841470L177.770721,202.070830L172.835270,206.368666L167.853161,209.655245L165.772712,213.700262L161.202843,219.239173L158.820309,221.905203L157.098880,223.284183L152.236076,226.203024L147.394525,230.615758L145.808659,232.385447L138.386087,237.303800L136.165652,238.315050L133.425004,239.717009L130.546520,241.601610L129.865911,242.428996L128.239139,244.382545L126.229407,245.899417L123.861218,248.174726L121.980179,250.450033L120.361452,252.725339L116.247872,259.918979L114.350254,263.458339L113.115679,266.859799L110.400728,270.146343L105.481631,275.202562L98.974550,285.154105L93.697261,295.473356L79.622766,315.353374L69.402097,327.396265L47.756291,352.654079L45.090996,356.423206L42.203265,363.708647L41.899466,378.509324L49.002958,411.488957L45.412770,426.082671L45.978138,432.081022L47.925421,437.573759L48.366102,438.814795L54.174093,444.767168L60.255606,448.605182L85.187997,481.906159L93.497811,493.029424L101.718740,502.635863L113.850755,511.506866L115.580145,514.494506L118.465717,516.516908L121.550362,516.769708L125.290602,516.907599L128.049688,517.413200L131.752668,517.666000L133.443938,518.286509L136.212623,519.918219L139.018571,521.435019L141.529416,523.457418L143.159430,527.387306L143.174033,533.178715L143.581443,536.602997L143.225814,542.785086L142.429843,547.955973L142.169754,551.127448L139.657050,558.067916L137.804722,561.469201L133.881725,565.766769L127.612484,569.903462L121.838402,576.269368L112.242276,590.724772L105.374019,601.043473L98.238850,608.949101L94.269770,620.439821L92.288576,624.990140L90.577102,631.424928L88.532650,638.135484L86.491169,644.432369L84.081686,652.268994L82.894782,656.681399L83.295842,662.495657L86.449332,671.090637L80.554220,692.049463L76.943924,702.781638L72.611421,708.343058L69.845659,710.227504L63.510194,713.008211L55.533250,717.673360L55.199269,726.911724L55.858374,732.335233L55.358021,738.907785L57.798396,750.513145L53.169026,759.360780L54.543367,762.578099L54.845734,769.449366L54.476514,772.207062L53.808044,777.101971L52.245930,788.569368L52.275015,795.532526L49.814752,807.574403L49.617418,813.733215L47.201115,823.385072L46.659109,824.074489L46.660988,824.993713L48.430003,826.878121L49.172328,827.016004L52.492876,827.061965L58.495218,826.349567L63.710544,825.637169L71.804218,823.155266L72.968432,822.511809L73.878461,822.190081L74.657086,821.753450L75.548377,821.431721L76.536497,820.811245L77.551743,820.627400L79.536371,819.823079L80.966058,818.880874L82.366893,818.490204L83.793679,817.961650L85.406674,816.858580L91.927253,814.836285L93.136156,814.054944L99.553242,810.906597L100.561039,810.745732L102.077204,809.941410L104.013532,809.343913L108.753876,809.114106L111.696744,809.573719L116.700524,811.710919L118.161103,813.043796L119.346877,813.779176L120.769747,814.997150L121.081323,815.249937L124.756882,816.628774L128.052181,817.157328L130.379824,817.318192L141.440105,815.916375L143.638530,815.203975L147.857334,814.675421L148.820441,814.652440L152.288702,815.456762L152.603886,815.640607L153.201091,816.284065L154.191095,816.582813L155.301450,817.088386L156.063460,817.685882L158.268093,818.168475L159.729453,818.053572L165.925844,818.765971L169.704980,819.478370L170.335113,819.731157L174.931768,820.696342L185.285919,822.167100L189.061259,821.041051L190.238175,821.109993L193.500842,820.351633L194.646303,819.708176L198.905473,818.765971L201.336437,818.145494L209.653682,816.881561L216.129252,816.674735L218.626018,817.065406L219.437278,817.915688L222.339049,820.236730L224.120868,821.041051L224.669079,821.546624L226.247638,823.729781L227.085090,824.557082L227.794024,824.855829L229.532117,826.257645L232.763514,828.486761L234.498743,828.509741L236.858832,828.050130L238.879717,826.671295L241.393815,824.580062L242.280058,823.637858L244.919837,818.903855L246.324768,816.881561L249.881313,811.458132L250.569600,810.837655L251.245645,809.734584L253.718195,807.482480L254.997712,806.425370L256.375239,805.644027L258.311551,805.046530L259.796952,803.874516L261.831036,803.437883L262.944048,803.414902L263.365167,804.081342L264.378705,804.885665L265.354052,805.345279L268.320165,809.780545L269.208529,811.664958L269.868669,813.733215L269.673337,815.318878L269.842938,815.778491L269.841245,816.766658L270.499223,819.593273L273.048101,823.408052L273.907903,824.166412L276.133446,825.683130L276.969709,825.935917L277.465315,826.372548L279.076582,826.257645L281.870776,825.499286L294.025096,816.789638L295.759364,816.353006L297.729304,815.709549L298.354161,815.226956L301.279521,814.468595L303.606209,814.169847L304.719223,814.146866L308.509183,814.652440L310.226868,815.249937L310.779168,815.916375L311.941669,816.261084L312.609764,816.743677L312.984772,816.858580L313.832804,817.364154L314.215260,817.456076L315.499080,818.467223L316.507831,818.765971L317.311181,819.409428L318.243297,820.696342L320.338400,822.557770L322.809473,823.201227L323.654387,824.005548L327.548621,824.189392L330.493678,823.890645L333.504797,822.925460L334.433309,822.488829L336.553152,821.845372L337.327912,821.362779L340.122098,820.604419L341.384057,820.121827L342.691181,819.731157L345.767165,819.317506L357.072920,818.834913L359.447892,818.329339L364.505820,817.639921L365.520093,816.996464L366.340498,816.835599L368.530001,815.456762L374.906802,811.044481L376.052244,810.401023L378.007281,809.803526L380.480026,809.458816L382.690194,808.999203L389.300993,807.160751L392.793780,807.137770L393.229811,807.758248L393.404481,810.630829L393.438888,816.307045L393.283466,817.249251L393.874221,818.375301L395.808631,820.443555L398.594448,822.833538L401.337529,826.280625L405.575206,832.922009L406.819437,834.691511L407.938731,835.863519L409.406174,838.621183L413.398370,844.343332L415.408761,846.871187L417.275720,848.916451L419.751650,850.065475L421.878263,850.846811L422.767889,851.513245L433.100834,853.512546L434.915852,854.041097L436.069783,855.626749L437.185258,856.752791L441.311103,861.831469L441.874243,862.291078L443.057479,863.555002L445.014476,863.876728L446.269961,863.876728L449.533089,863.348178L458.466220,860.935232L460.729002,860.544565L464.423362,860.130917L466.106479,860.314761L469.072251,860.935232L470.458509,862.497902L472.682636,866.795241L472.714642,867.737438L473.827384,871.069596L475.166371,873.298694L474.991267,873.781282L475.183242,874.171949L475.180633,874.700498L476.292402,877.573045L476.436217,883.433036L476.893394,886.880087L477.486211,888.925336L478.543900,891.039525L481.108020,894.808295L482.642240,895.451744L485.959985,895.911350L487.121534,895.796448L491.953981,893.084773L492.769682,894.210807L494.248684,895.313862L495.139343,896.439896L495.043049,896.968443L494.991826,899.266471L494.360455,901.909203L493.075080,903.678684L491.840229,906.275453L490.487848,908.251754L488.874379,910.802560L486.612501,913.330386L485.924268,913.950852L485.521215,914.732179L480.829321,920.017626L479.621758,921.373458L477.916195,922.936110L474.283395,929.232677L474.926804,932.105196L474.894433,932.725660L475.064089,933.185263L476.003800,934.449171L477.288005,935.575197L480.893614,940.814665L482.009176,941.940690L486.926646,943.825058L487.227226,944.169760L487.932869,944.652342L488.341528,944.721282L490.180718,945.985187L492.186737,948.122335L492.844623,949.041538L493.172909,950.052661L493.095118,950.466302L494.261237,952.419608L495.572661,953.982252L496.398441,954.556753L497.213689,955.452976L497.363305,957.015619L497.619475,957.613100L497.650524,958.095681L497.799853,961.220965L497.652485,962.369966L497.942285,962.921487L498.023635,964.116448L499.161780,966.965969L499.617121,969.493768L499.760050,973.101626L499.354923,977.996359L499.608530,979.122377L499.576181,979.742835L501.228523,982.914067L501.946503,983.879225L504.732697,986.269137L505.325157,986.407017L506.639707,987.670912L507.108182,987.670912L507.431621,988.176471L508.864256,988.613089L512.993771,993.392909L516.129367,997.828026L517.188247,997.046711L526.498985,997.575248L531.839868,997.690147L534.075211,998.425503L536.662488,999.000000L539.738236,996.793932L542.815775,993.714627L543.878246,992.864371L544.450939,992.542653L548.559137,991.140879L551.199536,990.336582L552.902726,989.417386L555.491015,988.773948L556.648210,988.383290L560.842670,988.682029L564.404112,989.141627L565.055611,988.865868L565.984602,988.659049L566.927965,988.176471L570.763793,985.648679L571.504105,984.867362L572.328867,983.304726L574.364982,980.432234L574.883507,979.352176L576.197543,978.708737L577.359102,978.593838L583.692875,978.593838L585.899194,978.088279L586.894666,977.444840L587.410636,978.570858L587.803651,980.018595L588.395610,981.604211L590.001281,983.994124L591.309933,984.292864L593.157391,984.200944L595.621708,985.097161L596.128693,985.556760L597.742054,986.361057L599.529445,986.223177L601.655171,986.544896L602.273558,986.544896L605.998018,987.831772L606.740392,987.969651L607.663489,988.475209L611.513981,989.141627L613.528311,989.922944L613.825060,990.221683L614.823373,990.842140L615.499791,991.646437L615.350914,992.106035L616.734822,994.197205L619.910717,994.863622L626.111520,994.059326L627.874246,992.956291L628.588624,992.312854L628.941592,992.611592L631.464954,993.094170L634.011945,994.082306L635.651501,994.863622L639.111514,993.553768L647.955727,989.968904L659.649224,983.488566L664.770782,979.421116L667.616481,976.594581L677.025772,962.645726L684.513002,950.581203L689.243637,944.307640L691.675571,939.114136L692.439758,935.598177L692.992438,931.346851L693.746444,919.879745L695.142514,908.918181L696.920795,901.288736L698.463623,897.336128L702.304978,890.510978L705.637014,885.547227L711.024496,877.940731L724.341677,859.855152L728.397961,853.581488L729.896954,850.111436L733.602261,840.988177L739.357956,825.131596L739.987475,823.362091L740.714037,821.408741L770.571968,741.228859L774.460764,730.037137L774.726411,728.060773L774.820787,726.612971L774.134639,724.682568L772.953613,722.660240L771.286371,721.097531L747.994495,699.472361L746.301345,698.047533L736.589080,689.797312L731.740054,686.373122L728.798689,684.810403L725.780205,684.006063L722.121265,683.385571L716.259172,682.971910L709.877213,683.063835L700.512314,683.224703L695.391817,682.604212L690.986969,681.914777L678.391303,678.283751L673.575697,676.491219L664.630831,673.158945L654.969627,669.550895L650.455334,666.655261L648.374316,664.288194L645.848215,660.519270L643.559291,655.440410L641.203017,643.053490L641.027926,638.043559L640.742042,630.137971L640.064003,617.314348L640.984623,612.970856L643.362070,604.421752L644.915645,598.009915L645.884996,591.781923L647.945248,580.107293L649.618957,571.879881L666.878501,571.121488L766.198715,571.029562L800.118032,571.305341L817.502663,571.259378L820.574696,570.799745L821.379249,570.225205L822.063230,569.328922L822.854867,567.927043L824.614819,563.537550L830.644428,544.876423L845.576728,501.004148L856.645840,472.115830L858.096500,468.507653L861.702852,461.544094L871.609505,445.433650L874.153739,441.457741L876.883083,438.240241L880.211345,434.678007L885.000210,430.656127L902.264776,417.280483L913.289567,409.512482L922.644271,402.387976L925.374980,399.859923L926.922757,397.975374L929.452434,392.252776L933.096235,385.174213L938.122393,375.912313L942.862948,368.167240L948.944251,359.985489L953.442052,354.607590L954.329798,352.447236L954.916880,349.827231L955.397681,346.494767L955.721144,343.185284L956.769230,336.658242L957.409621,330.521897L958.100534,325.327831L957.895141,321.742544L957.439453,320.547448L957.058930,319.467265L955.449600,316.571454L953.434221,312.963179L950.567276,304.873280L949.031113,297.013198L947.207385,291.658223L946.187909,289.543811L944.926362,288.233794L928.039484,277.385927L903.992061,258.631939L902.649639,258.149299L901.423469,257.712624L899.024985,257.597710L890.339123,257.804556L871.491889,258.723870L859.987885,258.838785L827.473698,257.413847L797.784281,255.598200L779.312467,254.839765L771.944779,254.563970L761.745299,254.931696L760.419255,255.207491L758.906888,256.057857L757.193708,257.758590L756.177611,259.505288L752.354163,269.158082L747.191757,286.349209L746.807213,287.130622L745.097884,288.877311L744.248547,289.589776L741.916659,291.060672L739.800895,291.865068L729.425015,294.163340L709.941818,297.794610L693.782233,301.287981L680.895198,303.356423L673.331309,304.436609L668.248321,305.608726L663.378467,306.528033L662.270432,307.171548L660.684377,308.711387L659.427710,310.044381L651.054965,319.628143L646.998408,322.661849L645.253326,323.305362L642.818395,323.765014L624.139394,322.546936L621.190065,322.455005L616.700494,322.317110L612.376562,322.592901L608.791446,323.190449L606.951468,321.122014L597.342218,310.251225L586.247902,296.622491L565.622447,265.182052L557.187889,252.886220L550.623306,242.681808L549.052639,240.245617L543.538036,234.660760L541.000943,230.293996L535.978980,223.536996L534.120869,219.560935L532.280905,215.240126L528.767883,203.426832L527.408022,201.496253L525.933116,200.209200L523.312067,199.220926L520.185737,198.577399L511.048883,197.979839L508.655906,196.692785L506.734966,195.336781L505.283031,194.325524L502.814321,192.578806L501.083388,190.579274L499.365588,187.499533L498.205859,184.258908L497.506301,180.581601L496.642148,177.065174L494.887283,165.435669L494.367590,159.528975L493.861935,155.254087L493.694596,153.806141L492.848781,141.165323L492.695480,134.707003L492.655101,132.983251L492.350207,125.490670L492.593262,116.251339L492.144099,107.586580L491.483727,100.323801L489.567903,90.693710L488.054149,86.234904L485.150918,79.937408L482.138141,75.363676L478.776103,70.307284L468.639498,53.965915L466.801219,50.334493L462.269469,44.841389L459.484367,39.624085L456.323724,36.199508L452.991762,33.418474L450.504214,31.441871L447.451267,27.396727L446.454206,24.868511L446.202203,21.949570L446.328556,18.961675L446.906919,15.100393L449.125578,5.952823L449.184871,5.539114L448.622435,5.309275L446.306307,5.056453L444.950250,5.309275L442.470056,5.562098L436.127444,8.710886L429.035406,11.859673L421.369801,12.503220L415.460977,12.756043L409.212896,11.744754L404.558228,6.573388L399.147248,1.769759L390.826630,0.505645L385.932087,0.000000Z "/></g><g fill="#000" font-family="Arial" font-size="12px" id="mylayer-label" stroke="none"><text text-anchor="middle" y="499.046996558"><tspan dy="0" x="447.509703146"><![CDATA[N]]></tspan></text></g></svg>