<?xml version="1.0" encoding="utf-8"?><!DOCTYPE svg  PUBLIC '-//W3C//DTD SVG 1.1//EN'  'http://www.w3.org/Graphics/SVG/1.1/DTD/svg11.dtd'><svg enable_background="new 0 0 1000 1001" height="1001px" pretty_print="False" style="stroke-linejoin: round; stroke:#000; fill: none;" version="1.1" viewBox="0 0 1000 1001" width="1000px" xmlns="http://www.w3.org/2000/svg" xmlns:xlink="http://www.w3.org/1999/xlink"><defs><style type="text/css"><![CDATA[path { fill-rule: evenodd; }]]></style></defs><metadata><views><view h="1001" padding="0" w="1000"><proj flip="auto" id="robinson" lon0="-106.516417266"/><bbox h="0.2" w="0.3" x="-1464.2" y="-648.52"/></view></views></metadata><g class="" id="mylayer"><path d="M1000.000000,344.950886L991.436602,322.677662L990.362508,318.726893L987.164220,306.702827L986.067185,302.694811L985.504836,298.515024L983.888217,285.803910L983.372820,281.509621L982.021206,277.329849L977.897506,264.618777L976.522955,260.381759L947.694106,168.713989L721.222576,278.360477L408.639998,454.256860L391.980577,462.960192L341.886017,489.127520L325.203644,497.773641L308.869747,506.362515L259.821652,532.129205L243.464803,540.660866L235.669308,544.955330L212.167001,557.781481L204.348541,562.018697L197.555964,565.225240L177.015481,574.902141L170.199934,578.051432L139.302946,593.740647L58.291572,634.853446L46.589566,640.636744L15.648630,655.753508L2.883106,660.506134L0.000000,661.536825L8.299383,691.598705L11.318141,702.363756L14.725545,714.560351L24.855753,751.035753L28.194000,763.175180L32.114390,774.913798L43.736618,810.129783L47.634267,821.811226L51.127530,830.286011L64.318000,823.815397L101.819614,805.262521L136.607059,791.748733L160.605097,782.357811L162.954932,781.155316L169.912057,777.433309L172.262374,776.116292L192.410941,765.694686L252.880614,734.258187L273.006230,723.779389L424.053368,645.103057L705.743831,498.346233L866.704053,414.404910L877.267176,408.908108L1000.000000,344.950886Z "/></g><g fill="#000" font-family="Arial" font-size="12px" id="mylayer-label" stroke="none"><text text-anchor="middle" y="494.382091322"><tspan dy="0" x="505.814431201"><![CDATA[N]]></tspan></text></g></svg>