<?xml version="1.0" encoding="utf-8"?><!DOCTYPE svg  PUBLIC '-//W3C//DTD SVG 1.1//EN'  'http://www.w3.org/Graphics/SVG/1.1/DTD/svg11.dtd'><svg enable_background="new 0 0 1000 1001" height="1001px" pretty_print="False" style="stroke-linejoin: round; stroke:#000; fill: none;" version="1.1" viewBox="0 0 1000 1001" width="1000px" xmlns="http://www.w3.org/2000/svg" xmlns:xlink="http://www.w3.org/1999/xlink"><defs><style type="text/css"><![CDATA[path { fill-rule: evenodd; }]]></style></defs><metadata><views><view h="1001" padding="0" w="1000"><proj flip="auto" id="robinson" lon0="-104.459505761"/><bbox h="1.22" w="1.07" x="-1429.33" y="-665.75"/></view></views></metadata><g class="" id="mylayer"><path d="M939.684729,0.000000L938.656846,0.013756L937.623579,0.013756L924.044641,0.041269L866.154131,0.343905L817.232389,0.605273L786.933305,0.784104L786.232612,1.375622L785.505745,2.187239L781.456996,7.510918L780.552573,8.528885L779.562938,9.271727L776.873786,10.894976L773.554401,13.261073L770.144529,15.998599L764.092520,21.569970L761.749985,23.619692L757.690864,26.563596L756.992963,26.990050L756.450157,27.210155L756.108761,27.141373L755.871225,26.907511L755.449415,25.944550L755.377579,23.206996L755.563789,20.153051L755.994353,18.928724L756.783107,17.443026L760.254401,12.394421L760.313057,11.912948L760.066152,11.569038L758.809648,11.486500L757.214353,11.514013L752.214890,11.940460L750.529562,12.311883L746.866247,13.426150L744.008879,13.701278L742.457861,14.100214L740.349555,14.911842L738.680194,15.668445L736.900658,16.631395L735.175423,17.704398L733.760208,18.708620L732.694553,19.630304L731.773513,20.634528L731.111258,21.611240L730.182909,23.715988L728.063677,29.177350L726.895325,31.529734L725.487764,33.414397L723.191664,36.041926L721.466103,37.802787L719.732555,39.371056L714.323493,43.112902L701.043639,53.059129L700.265734,53.568136L697.904337,54.737478L689.679088,60.983166L684.715498,64.284867L683.072153,65.165322L681.924539,65.619307L666.140399,101.017041L645.509525,100.590554L561.845696,101.250920L517.366907,200.833699L504.344611,231.200337L506.399260,230.911389L426.615796,400.538690L412.579304,399.575364L322.671145,400.318501L299.850511,452.339516L271.880769,515.951997L211.286249,653.967395L210.274563,654.710723L209.250445,655.880778L208.958165,656.596577L208.869975,657.546388L208.953053,658.675149L209.318738,659.693789L209.334172,660.134283L209.108984,661.221751L208.489541,663.080086L208.120390,663.685767L205.727446,665.805651L205.481873,668.875361L205.213335,670.568524L204.641047,672.289220L203.812140,673.899795L202.719329,675.152466L198.730842,678.704004L197.199607,680.328354L196.708344,681.195594L196.081226,682.833714L195.324667,685.545567L194.242939,687.514074L192.338643,689.991920L189.694065,693.103003L188.356462,694.562186L185.870208,696.902391L184.399258,698.623133L183.288238,700.316346L181.703338,703.551355L181.021265,704.762765L178.743667,707.405847L176.157947,711.411782L178.052921,717.647856L178.409958,719.217206L178.553552,720.786558L178.586893,723.994100L178.491526,725.756188L177.891099,728.550756L156.356911,778.482603L154.788185,781.070812L153.695413,781.263551L110.619161,881.947350L111.794698,881.850971L113.056670,881.974887L114.673850,882.374173L116.187767,882.911144L117.268932,883.461884L119.193613,884.673512L120.816407,887.950424L121.366535,888.693926L122.081503,889.313512L123.099381,889.960635L124.315373,890.511379L129.947862,892.783200L126.413449,895.371704L122.195569,899.282012L120.664085,900.590040L119.272143,901.595158L115.066913,904.335143L111.853181,907.254129L110.439204,908.231716L105.028597,910.820261L97.231986,914.400174L94.523426,915.542995L60.315271,996.824329L66.561197,996.879409L68.628476,996.879409L74.723366,996.893179L105.679588,998.504277L114.660536,998.972460L116.384930,998.986230L148.630128,998.614438L187.119016,998.807219L217.362744,998.173795L249.770412,998.559357L265.706410,999.000000L310.323222,900.686422L337.833274,840.326112L340.084378,835.383447L348.410566,816.976020L349.498278,814.594232L355.718577,800.840545L361.639255,787.582665L375.711779,756.042561L377.971009,750.976413L392.140999,713.724494L396.841418,701.362561L399.343418,694.823738L401.325832,694.493357L403.413007,694.286868L411.132934,694.149209L414.495819,693.901424L418.193812,693.419618L422.245725,692.579900L424.024617,692.332114L426.418762,692.249519L428.977929,692.387177L431.088341,692.841451L432.848927,693.749999L436.423569,696.448115L438.341441,697.356666L438.776254,697.921070L439.159164,698.925984L439.580568,699.628048L440.441406,700.247516L441.507504,700.674261L443.348315,701.128539L449.499247,702.174754L451.060340,702.202286L453.226152,701.995796L456.715484,701.211135L460.670197,700.123623L463.193837,699.311431L469.114840,697.136412L471.640832,696.530711L472.916803,696.117733L474.182845,695.622161L475.422326,695.030227L479.000824,692.868983L479.662235,691.891606L480.791381,690.817870L481.557730,690.308534L483.160184,689.496350L484.160705,689.097142L484.899360,688.918186L485.086418,689.165971L485.168451,689.661540L484.935497,690.184642L489.613447,687.761858L491.871562,687.046037L492.970402,686.467874L493.943319,685.683225L495.873484,683.329281L496.773164,682.558400L497.485695,682.255554L498.636784,681.925176L501.278331,681.470908L500.677894,680.369652L500.606059,679.585007L500.874026,678.979317L501.851306,677.919360L502.665577,676.157357L502.522253,675.276357L502.837173,674.188873L503.786530,672.055205L504.749637,670.472165L505.442155,669.659997L506.217836,668.916658L510.819147,664.952190L513.251947,662.075208L518.118485,657.326142L520.632007,655.027326L523.161012,653.169006L524.778804,652.453210L533.558210,646.424022L535.718696,644.428066L536.251491,644.125231L537.596615,643.602154L540.725111,641.840211L542.177459,640.931711L544.694809,639.100948L549.653505,635.274250L552.620639,632.356059L556.037125,628.377972L557.963337,625.927809L558.718184,624.730260L559.413949,623.009645L560.487739,619.417012L561.914157,616.608986L563.189588,613.759673L565.023806,610.387309L566.187335,608.570367L566.795431,607.772014L567.348373,607.262721L569.630009,605.776136L572.100225,601.619216L575.538754,593.800950L577.402366,590.703942L577.404050,589.189853L577.552028,588.363987L578.278376,586.492028L579.185909,584.881594L580.120993,583.656566L580.343782,583.422572L582.062668,578.839052L582.832215,577.077224L583.265563,576.320190L583.734930,575.769620L584.983247,574.627188L590.446573,570.167586L591.325188,569.314208L592.212280,568.281897L595.762746,563.670919L597.677355,560.904342L599.164221,558.192829L600.710126,554.600431L602.099113,550.636419L603.071711,547.071576L603.595539,543.823312L604.049809,539.308794L604.424838,534.133640L604.439552,532.165437L603.969624,529.247549L603.145360,525.311166L601.517620,519.296513L599.187292,513.667272L598.278313,510.116324L596.937873,507.900429L596.025028,504.941323L595.197113,501.940935L594.627656,499.284636L594.263588,496.779739L594.172825,494.742795L594.531121,487.145579L594.335229,485.012314L594.808449,483.181838L595.448464,481.805542L596.451049,480.236568L601.366283,473.575336L603.080883,471.042978L604.582952,468.455576L607.916254,462.028388L609.495148,459.207045L612.305458,455.257178L613.843057,452.559717L616.448586,449.119088L617.775208,447.660265L619.332776,446.160157L622.114145,443.655394L624.613854,441.549747L628.861261,438.343117L630.286812,437.365991L632.692257,435.879661L633.681554,435.136497L635.052681,433.705219L636.632197,431.544544L637.642940,429.824265L639.290184,426.603910L639.823358,425.241455L640.225309,423.658809L640.785668,420.273329L640.921166,418.498021L640.796564,417.176864L640.178471,414.424458L639.878866,410.736247L639.661803,410.268341L638.891588,409.277481L638.401271,407.997622L636.927152,403.662627L636.044882,400.235930L635.905512,399.134986L635.922484,397.745046L636.110612,395.845923L636.394470,394.277085L637.285241,390.960514L638.175619,388.359560L645.066407,372.864070L645.490962,371.625542L646.111377,369.052161L646.499998,367.951252L647.809665,365.474210L650.609200,360.836654L653.140076,356.144075L655.611674,351.988203L663.716728,339.217950L664.885397,337.126286L666.007800,334.773170L667.091580,332.034755L667.597100,329.970629L667.823177,327.479921L667.914105,322.952630L667.716531,320.269291L667.192742,318.301513L665.194998,313.058713L664.402517,311.723936L663.460411,310.609330L662.579837,309.852500L661.590527,309.219514L660.358593,308.655332L658.722294,308.091151L656.982196,307.692096L654.657111,307.348083L652.405238,307.334322L651.616286,307.155435L650.771198,306.632536L650.165603,305.889469L650.029061,305.311529L650.686941,303.894199L651.245935,303.027290L651.765813,302.490633L653.245893,301.279714L654.085275,300.096318L654.646982,299.064288L654.998407,298.183622L655.167405,297.468083L655.138708,296.821345L654.596065,295.665475L653.314832,294.000474L652.188080,293.188615L649.055745,291.730022L648.779909,291.427296L648.462795,290.560398L649.558246,289.858624L655.324034,285.537908L657.446188,284.216929L658.974312,283.501399L659.962341,283.184915L661.347987,282.937232L665.308546,282.524427L666.577835,282.180422L667.534880,281.698817L669.178078,280.474164L669.664725,279.909998L670.272743,278.795428L671.680066,277.570779L676.250200,274.240840L679.465143,272.039234L681.097980,271.103553L682.778873,270.319233L683.772292,270.016513L684.840714,269.933953L686.113992,270.030273L687.260546,270.319233L688.521191,270.842113L689.856843,271.585154L693.165146,273.951879L694.013370,274.282120L695.122651,274.447241L695.633946,274.433481L696.344294,274.268360L698.753507,273.250117L700.102815,272.479555L701.859692,271.172353L705.414387,268.117636L707.300748,266.108683L708.201718,264.939089L708.991272,263.714456L709.456860,262.723744L709.737345,261.719272L709.707271,261.499114L709.336652,261.155117L708.389159,260.714802L707.537321,260.604723L706.489101,260.824881L705.961595,261.141358L705.316784,261.760552L702.972926,264.608851L702.030647,265.558285L701.639739,265.764684L701.188639,265.874764L700.104953,265.861004L699.526310,265.530766L699.564125,264.939089L701.017060,261.966950L702.345001,259.765372L703.421668,258.499466L704.470435,257.563798L706.015686,256.490533L709.628713,254.330246L710.743970,253.449621L711.998546,252.293801L713.036135,251.014146L715.129908,247.326546L715.686231,246.624802L716.239834,246.088176L716.871155,245.606588L717.420676,245.317635L720.382095,244.189344L721.503149,243.638959L722.551928,242.703305L723.138829,241.850210L723.280073,240.776962L723.180853,240.322895L722.950423,239.992666L721.438334,238.713026L716.691744,235.369460L715.613183,234.365016L714.899895,233.346814L714.536621,232.218537L714.521545,231.090262L714.779159,230.113341L715.376980,228.599805L716.248009,226.866120L717.010618,225.916722L718.212579,225.228754L719.071215,224.926048L719.887131,224.829732L720.655393,224.898529L721.913776,225.214994L725.315090,226.357023L729.031694,228.131985L730.215483,228.544767L732.145647,228.310857L735.075981,227.705443L736.347084,227.251383L737.147348,226.742285L737.713616,225.779129L738.221061,224.637101L738.540681,223.646428L738.525485,223.206129L738.175208,222.311772L737.730079,221.720122L735.873409,220.564339L735.376147,220.069005L735.285966,219.408559L735.528789,218.307817L737.775296,213.203141L740.665248,207.905863L743.501659,203.131459L746.274122,199.168858L750.333123,194.160594L750.995509,193.500165L751.768848,192.922291L753.540542,192.082997L758.496500,190.225547L761.227545,188.767107L763.490710,188.092923L765.145905,187.845264L766.559305,187.955335L766.972152,188.120441L767.170682,188.340583L767.269789,189.138596L767.048182,189.633916L766.544411,190.211788L762.253489,193.623996L761.243295,194.600880L760.779900,195.453934L760.529458,196.334508L760.576512,196.884866L760.883723,197.325153L761.367988,197.586574L762.036518,197.572815L766.653759,195.481452L767.201013,195.330104L767.857855,195.343863L768.955400,195.536488L769.485503,195.742872L770.967297,197.490261L772.345952,198.343318L773.835636,198.934955L775.386941,199.196376L777.397464,199.196376L779.307426,198.824883L781.135267,197.985584L783.546860,196.485856L785.690708,194.876059L787.059024,193.637755L787.714341,192.385693L788.321770,190.294341L785.361019,188.326824L783.303531,187.432499L782.556081,186.785834L782.467215,186.386828L782.570203,185.932787L783.488961,184.034072L783.814470,183.029681L783.904942,182.314225L783.818358,181.777633L783.552975,181.186006L783.093916,180.759485L782.285757,180.387999L780.051686,179.645027L779.196404,179.067161L779.013669,178.571847L778.980596,177.856394L779.099467,176.783216L779.349930,175.902660L779.954511,174.664380L781.239023,172.724411L782.627276,170.963308L783.615030,169.986447L785.672179,168.528037L790.885467,165.377329L792.974946,164.001477L796.211258,161.538707L799.951728,158.814533L800.741243,158.277954L808.551503,141.795494L814.606015,127.913569L816.965628,123.469744L819.566059,119.067213L821.998727,115.297561L824.059162,112.298359L825.759044,110.042085L827.442654,108.088486L829.059219,106.451318L830.689652,104.993003L837.483011,99.710067L843.766257,95.046249L846.928449,92.996377L851.128997,90.643845L863.903005,84.026519L869.344207,81.027413L880.238902,74.630268L884.603602,71.865064L888.085816,69.485068L889.690604,68.219408L891.276610,66.733635L893.305378,64.628794L894.955367,62.675286L896.367796,60.487911L898.795709,55.672953L908.036258,36.729762L911.226347,30.676822L914.248167,25.284235L915.300371,24.156197L916.555200,23.000648L929.526627,12.669548L932.113541,10.441017L934.470450,8.198734L936.585363,5.653817L938.284730,3.108908L939.231285,1.251816L939.684729,0.000000Z "/></g><g fill="#000" font-family="Arial" font-size="12px" id="mylayer-label" stroke="none"><text text-anchor="middle" y="496.46433131"><tspan dy="0" x="453.664204001"><![CDATA[N]]></tspan></text></g></svg>