<?xml version="1.0" encoding="utf-8"?><!DOCTYPE svg  PUBLIC '-//W3C//DTD SVG 1.1//EN'  'http://www.w3.org/Graphics/SVG/1.1/DTD/svg11.dtd'><svg enable_background="new 0 0 1000 1001" height="1001px" pretty_print="False" style="stroke-linejoin: round; stroke:#000; fill: none;" version="1.1" viewBox="0 0 1000 1001" width="1000px" xmlns="http://www.w3.org/2000/svg" xmlns:xlink="http://www.w3.org/1999/xlink"><defs><style type="text/css"><![CDATA[path { fill-rule: evenodd; }]]></style></defs><metadata><views><view h="1001" padding="0" w="1000"><proj flip="auto" id="robinson" lon0="-106.047187449"/><bbox h="1.31" w="1.2" x="-1451.86" y="-664.14"/></view></views></metadata><g class="" id="mylayer"><path d="M787.204864,0.000000L756.885070,8.461601L753.254677,10.233539L750.330848,11.042468L749.934465,10.965427L747.398641,11.260751L746.111844,13.649023L744.762435,14.303873L742.729333,17.308484L737.731786,24.755853L733.194196,32.742578L732.303046,34.013784L730.484150,35.567481L728.992583,36.504837L708.858237,47.226716L703.564481,50.629493L699.225042,56.446344L697.995051,56.163847L690.266128,54.378982L685.963888,56.716001L678.870460,63.483113L666.157756,54.199212L661.919861,51.040395L659.460725,49.204177L622.517138,85.723755L618.451117,92.979042L614.178535,100.593944L589.998168,135.985419L589.419443,150.252820L589.069871,158.882711L576.215836,170.877363L574.552635,172.508340L561.755999,184.271999L529.891386,234.615940L528.320794,237.081834L516.649120,251.941550L510.698220,259.493509L508.089178,273.300391L507.394226,276.729666L498.721781,290.215699L491.034984,302.160631L472.754725,318.267259L470.352778,320.425106L469.659026,321.041634L470.558780,321.850828L471.311948,321.902206L472.728976,322.017805L473.095845,321.504031L473.444593,321.105856L473.802747,320.759059L474.143850,320.476483L474.675117,320.116842L475.082973,319.898488L475.570734,319.615913L476.148493,319.538847L476.736728,319.461781L476.972695,319.448936L477.973375,319.436092L481.326613,319.384715L485.743384,319.320493L477.983525,346.640762L468.963332,378.470439L460.852787,379.087005L459.381044,381.103692L458.701903,382.028543L455.438550,389.620068L435.781245,435.697160L432.591570,435.684315L418.240518,435.632931L416.444176,439.679394L399.274552,480.324817L371.964280,494.533137L375.794642,504.669219L371.873576,506.853180L369.510462,508.163559L359.851350,513.520714L359.902079,514.111673L360.406273,524.260809L360.691367,530.029164L360.773199,531.403810L353.249794,549.120222L353.999405,548.837579L371.143427,544.006968L390.881978,538.328460L389.342191,541.900006L381.901545,559.179796L379.927838,563.740684L383.458947,563.714989L395.261524,563.676446L407.934176,563.612208L410.511398,563.612208L410.230871,564.267436L406.414881,573.376435L405.930328,574.532732L405.687266,575.149424L405.197740,576.292875L402.757225,576.267179L397.305484,576.202941L394.666439,576.151549L378.937395,580.442714L376.140403,581.200736L371.499526,582.472673L337.958882,599.419142L338.227388,602.952370L323.123539,609.723357L315.460561,617.663589L306.919240,627.068608L307.489565,629.676847L308.251289,630.858908L309.642205,633.043156L310.378007,634.212373L301.845548,640.097024L299.707860,641.664558L299.357426,641.895833L299.362263,639.852900L298.666094,640.084176L293.344771,641.844439L293.349018,642.666752L293.359604,644.208593L293.385816,651.172601L292.855191,651.506669L290.974181,652.817245L284.819119,656.941717L266.990953,668.904069L260.851910,673.015760L256.810467,675.726916L254.312851,671.795100L254.068700,671.435327L251.061254,665.781765L250.284776,664.291286L249.398318,663.057788L256.064122,658.547824L263.951289,650.645802L246.789860,640.097024L246.300633,640.970731L245.751160,641.715952L244.622849,642.589660L242.940560,643.142153L241.802517,643.206396L241.040843,643.052212L238.809503,642.268444L237.784615,642.435477L236.937061,642.898028L236.399109,643.591856L236.039538,644.529810L236.537282,646.328627L237.278611,647.998960L237.924365,649.990515L238.121922,651.095509L238.191882,651.519518L238.069637,652.637362L237.248576,653.601022L235.906004,654.192067L235.084353,654.153521L234.303808,653.896545L233.224379,653.138465L232.634752,652.508874L231.982511,651.609460L230.543098,648.975464L229.615798,647.176642L228.490268,646.110199L226.863993,645.968863L225.618319,646.431416L224.277857,647.433616L223.848607,648.191691L222.257981,653.254105L221.544605,654.847357L220.880972,656.055147L219.002649,658.779104L216.634288,661.644407L214.942363,662.929299L213.793314,663.019241L213.027176,662.826507L211.373315,661.721500L210.556323,660.937717L209.522206,660.269574L208.371279,659.678525L206.207504,659.177419L205.469144,659.164570L203.407317,659.575734L202.291022,659.858410L199.129676,660.757832L196.000037,661.901385L190.964992,664.265588L189.149145,665.203562L187.473431,666.205781L186.415334,667.233699L185.783382,668.171676L181.724960,675.842558L180.029005,678.874950L179.394981,679.915731L178.587306,680.995061L177.660972,681.984447L176.754264,682.781097L176.328407,683.115176L175.883916,683.076628L170.518605,682.614057L162.464787,694.088452L159.470554,697.339342L155.228150,704.021046L150.715481,710.600000L149.582083,712.244745L144.500154,719.517638L140.528844,724.978768L137.858045,728.820852L135.629602,732.290306L134.349138,734.474783L132.957676,736.967663L129.860556,742.467442L128.243698,745.487194L127.416291,747.029198L127.285893,747.260499L126.338570,749.033808L125.945305,749.830513L125.524862,750.935620L125.400585,751.642376L125.341455,751.976479L125.287927,752.811737L125.373094,753.004489L123.501398,754.636456L126.632664,756.525430L128.040466,757.373542L136.769365,753.672696L137.059001,754.636456L125.836271,763.284645L125.583779,763.336046L123.142159,763.875757L117.844805,764.968031L125.354042,772.395525L128.763353,775.569575L132.148114,778.923543L133.951973,780.658358L135.770263,782.457429L126.863840,784.050895L124.739646,784.436411L117.641019,785.747167L113.981433,786.415397L85.682724,791.581340L80.535635,797.441250L46.437913,836.225492L42.272240,840.967609L45.026132,843.666384L54.490642,852.919387L58.540621,856.826237L61.221279,859.525057L62.906704,861.170055L63.609064,861.414235L77.040375,863.303417L79.652608,863.663262L81.243324,863.496191L93.007322,865.192603L94.307946,865.385377L99.416656,866.130771L103.365938,866.696243L127.726603,863.290566L162.390287,852.893684L166.669910,851.608540L166.112103,866.683392L166.015523,869.947713L165.753913,876.759127L165.340774,888.287233L165.169917,892.656896L165.322614,892.618340L184.701156,886.577928L218.425449,876.245056L219.385071,875.936614L224.343325,873.456228L229.582058,870.834479L232.465391,876.784830L234.276664,880.537554L234.708276,881.488590L238.181943,888.582827L239.248515,887.901675L270.562036,867.865743L295.913622,845.748302L305.445986,837.986113L302.615427,854.088870L298.869061,875.692430L298.680461,875.692430L298.487252,876.977607L298.253029,878.481265L298.268744,879.008189L298.633978,887.516118L298.013109,887.914527L297.214503,888.557123L297.063728,888.762754L296.516714,889.135460L295.966126,889.688093L295.707896,890.292135L295.234124,891.988593L294.862826,893.273791L263.557467,893.415163L263.363882,893.402311L254.259797,914.184202L246.654566,931.534915L244.256415,937.022945L242.703791,940.557408L241.288011,943.796272L239.702461,947.407875L234.265286,959.810814L232.163984,964.604946L230.940571,967.394036L229.453509,970.800079L227.840637,974.476048L226.249755,978.100618L224.137595,982.920547L221.679436,988.550253L226.390158,988.511693L229.282655,988.485987L232.054399,988.473134L233.642103,988.460280L237.965131,988.421721L242.916852,988.383161L246.186565,988.357454L241.837986,999.000000L264.580798,993.691566L265.702046,993.421646L266.802338,993.151727L267.475984,992.997487L271.765864,991.982076L272.339278,988.138949L273.348483,983.717444L273.692297,981.956559L274.708256,981.712349L276.940275,981.172517L277.356443,981.056838L289.316924,978.152031L290.676718,977.740731L292.315956,977.239460L300.922150,975.195820L302.928122,974.694550L304.944573,974.193281L311.216923,972.805151L315.008317,971.828321L316.693944,971.365612L322.011256,970.054605L323.243281,969.746133L327.518186,968.692187L327.654049,966.584300L327.720799,965.324711L327.965352,960.363488L328.234330,958.679763L328.103187,958.422706L328.209751,957.535859L328.219565,956.507633L328.245683,955.980667L328.274249,955.595083L328.450311,952.780321L328.664877,948.281860L328.734715,946.868062L328.751471,946.019784L334.038689,945.171507L346.425911,943.205050L349.021095,942.845176L358.213334,941.367123L362.612353,940.660229L363.391282,940.480292L366.133663,940.094714L366.027380,934.336763L366.012554,931.110782L362.846241,929.619895L360.644632,928.887304L360.488478,928.835895L359.042106,928.591698L357.867146,928.398911L355.420988,927.846256L352.670353,926.265406L349.123400,924.684559L346.402587,923.450729L345.018277,922.718143L345.318684,921.304383L345.132220,920.931664L344.127364,919.556463L343.512322,919.132336L341.521108,918.888142L340.913194,918.104150L339.529615,916.806067L339.008370,916.407646L338.334431,916.047782L337.130700,915.456577L336.892253,915.328054L334.780107,914.312724L334.244714,914.364133L333.331098,914.466952L330.723700,915.443724L330.322699,915.058156L328.600862,914.968190L326.163069,914.788258L323.787635,914.634031L317.939715,915.225236L316.018767,912.757601L315.746630,913.271691L311.971632,913.156021L309.597220,912.950385L308.183498,913.438771L308.368802,911.755127L308.555416,910.534165L308.693662,908.053691L312.915293,906.781325L312.813572,906.627099L312.691916,906.421465L312.567314,906.100161L312.507506,905.945935L312.479131,905.791709L312.309164,905.380440L329.119889,902.527267L330.639295,902.257373L333.335282,901.833253L339.838022,900.715121L339.298158,903.105612L340.917299,901.768993L341.913037,900.959311L345.462321,897.926222L346.387775,896.962319L347.994242,894.944551L349.204596,892.823972L350.766537,892.258485L351.061447,892.181373L353.361193,891.924333L353.970438,891.847222L356.491749,891.513071L356.385996,892.618340L356.325891,894.327655L356.344348,895.510040L356.444592,896.795243L356.737178,898.684494L357.017592,899.866884L357.490463,901.383430L358.453031,903.568289L359.834216,905.778857L360.683000,906.832734L361.123873,907.321116L362.007659,908.195065L363.120432,909.146127L364.391396,910.045781L365.641511,910.675540L367.899141,910.958288L370.867233,911.343855L380.610561,912.988942L391.885515,915.071008L393.623733,915.392315L396.471903,916.279123L401.787966,910.264269L415.840052,894.327655L418.273023,891.577330L443.417588,898.568825L449.785476,900.291002L464.899985,904.519346L467.916305,905.380440L459.635007,911.665161L456.314584,914.261315L457.637661,914.646883L461.543520,915.829293L487.247912,912.809010L488.792459,913.387362L491.309333,914.338429L486.299732,920.764584L493.832086,917.114523L516.518480,906.151569L508.464525,901.730437L508.741135,897.013727L508.671446,896.563906L509.494492,894.417619L509.529992,894.211987L509.846042,892.271337L509.732405,890.600581L508.930900,888.480011L507.672340,889.071200L505.318899,890.189319L492.047663,889.713797L476.438627,892.476968L473.151734,893.376607L467.652281,894.893143L466.598900,895.175887L465.265876,894.764623L458.272496,892.618340L448.485443,889.482462L446.096314,888.698494L446.657349,888.145862L445.198603,887.734600L444.115022,887.426154L426.271394,882.401070L425.594471,883.249292L425.429262,883.390663L424.837692,884.161774L423.972058,885.279887L421.463573,888.402900L419.126821,891.320291L418.837828,887.927379L418.696795,886.320891L420.911404,883.223588L421.752123,882.041218L422.425594,881.103035L433.175849,866.053662L433.829404,865.064087L433.714391,864.524319L433.644353,863.830333L433.552462,862.917870L433.585406,861.786931L433.762610,860.514626L434.336810,858.509786L435.364872,855.810968L435.771960,854.834256L437.060189,851.698500L438.540227,848.138658L431.682715,851.557134L430.110556,853.690475L421.072659,865.860887L416.437188,872.145352L414.063987,857.378852L413.087914,851.402917L416.016679,851.390065L427.678839,851.364362L436.357010,830.699478L445.612574,818.413848L453.516209,807.991746L454.652104,806.462495L455.920413,802.761461L456.076185,802.568700L459.101757,793.508938L463.105533,774.837101L464.978905,769.182934L471.225551,750.511567L469.409222,747.825901L467.357401,747.478950L459.054799,746.142545L456.099021,745.679944L466.693607,736.440817L473.241707,730.709775L478.974131,725.685505L501.407443,744.394942L537.389747,754.161001L545.027005,747.915852L549.380548,753.659845L554.047655,759.969283L556.293036,762.950538L558.359453,765.713348L556.756608,771.470298L559.963453,772.742486L586.387459,783.498321L597.773285,774.464439L603.026735,783.177058L608.183950,782.534532L616.239586,781.557893L635.927872,779.129150L636.123410,778.255318L639.152547,764.017110L636.697495,762.873437L637.180776,762.282325L636.412127,761.948219L630.386408,758.864164L628.078210,757.450643L626.503429,756.037124L625.516049,754.328053L624.578182,753.287192L623.344541,752.104980L621.246787,750.909920L619.690771,749.869063L618.713775,749.213709L616.610339,747.517500L615.595711,746.386696L614.657672,744.831842L613.742136,743.199891L612.170656,741.362344L609.631982,738.381155L608.512093,737.276061L607.639358,735.862571L606.977898,734.885979L608.327548,733.935088L609.700561,733.125546L607.561957,729.527592L606.046350,726.996181L604.191366,723.886539L603.659093,722.999908L603.157222,722.164676L609.187612,718.206971L610.658026,717.243247L606.513667,710.227362L604.633885,707.053527L604.416267,707.194872L596.399771,712.488887L596.224577,712.604534L586.747252,699.343848L585.740978,698.585733L585.091256,698.071757L583.599940,697.467836L581.848063,697.056655L580.768410,697.082354L578.152578,697.172300L582.809975,695.591827L582.127463,694.885112L583.259408,693.561630L583.688826,693.047656L588.522720,687.381119L587.941427,686.070496L586.864039,685.723566L579.864359,683.693390L562.236349,678.515174L555.541850,674.082233L535.279977,660.295272L525.861355,653.806603L525.572157,653.601022L525.001611,654.616078L524.526303,655.065787L524.582934,655.374159L524.365609,655.759624L524.833622,656.967415L525.207559,657.905381L525.700991,659.151721L525.304312,659.858410L524.413031,661.451673L523.592189,662.929299L522.880269,664.201343L522.521561,664.843791L521.901759,665.704671L520.759252,667.028115L519.802635,667.966092L517.375308,670.137574L517.167118,670.330310L516.537570,670.895667L513.654555,673.324137L512.078561,674.583347L510.827021,673.002911L508.606835,669.842047L494.600583,659.138872L490.567184,655.759624L487.028391,652.791548L480.333617,647.356524L454.688650,628.109333L453.841775,627.248487L448.220579,635.535774L441.151851,645.981712L436.819937,645.968863L430.163794,654.153521L421.358239,654.140672L421.525432,652.868641L423.289815,649.553658L426.470165,642.024320L425.890976,639.069135L425.869212,638.850709L438.653018,606.485612L439.486578,604.391362L441.104254,605.727570L441.632084,606.819665L441.906044,606.742576L445.702134,604.506995L445.256554,603.491992L448.525796,598.571169L442.295526,597.119338L442.214031,596.232823L442.164762,595.564725L442.105290,595.140740L443.238235,592.494051L443.963682,590.823814L446.525564,584.888073L447.981555,585.157878L452.985468,586.121470L463.495159,588.613967L466.127694,589.243516L476.314896,594.716756L476.863394,595.564725L479.911332,600.241419L480.125076,600.549774L481.299473,599.984457L491.870090,594.845236L513.277188,584.631115L514.805949,583.898786L524.618115,560.952758L528.184565,559.963496L529.626102,556.571748L530.993282,556.314798L535.102678,555.672423L542.320032,538.765267L544.686273,533.189568L557.595840,502.819280L556.152912,463.084986L553.666524,398.162210L551.272920,398.663180L529.031433,403.287532L522.409071,397.789694L520.714740,396.389549L522.410718,395.683054L536.670284,389.761366L558.966031,380.487125L567.736392,376.839110L581.531297,371.097368L585.493725,369.453207L620.014974,354.848555L635.407130,348.361952L636.389812,353.011750L647.922788,408.078899L659.001716,400.166092L674.390160,389.016340L675.134066,388.502530L676.154582,387.783196L676.612609,373.460855L692.539872,364.893243L723.737209,348.387641L752.677284,333.141086L756.473459,331.175878L758.977949,329.364808L760.073420,328.568451L761.955253,327.232630L767.423207,323.199487L771.963306,319.962710L771.137915,322.133404L777.695381,320.373728L855.922730,299.309246L870.891362,295.301910L898.647922,287.878106L903.131360,278.026885L905.056726,274.340731L906.711884,270.551842L911.640555,259.198108L913.290827,255.396435L914.731081,251.620465L919.068486,240.254114L920.503855,236.465360L921.150064,234.859960L923.094753,230.005249L923.736007,228.387017L925.478124,223.956158L932.180484,206.952128L940.658843,186.686392L954.002685,155.197019L957.727760,146.387373L943.145800,147.684415L938.407530,148.108201L936.712883,148.249464L934.087508,144.820652L930.672188,140.351657L930.137080,139.645353L926.889471,139.915033L890.144600,142.624678L886.538300,144.512445L885.177461,145.218753L882.965531,153.039547L866.337142,154.516388L857.999509,155.248388L856.136718,155.415335L851.527647,151.678288L839.071145,141.545956L826.459489,135.317643L825.579395,134.829653L822.075551,132.839171L812.267388,127.792355L811.417109,127.381419L809.110487,132.710753L807.771609,135.857000L806.874229,136.190888L800.029210,137.423707L795.924365,139.105993L794.545789,139.658195L787.557013,142.496258L783.801724,144.242763L781.588615,145.128859L779.770203,145.925062L774.676617,148.300832L772.036954,149.546508L765.819969,152.294707L762.051291,153.681651L760.205773,154.272388L757.669994,154.811756L756.134186,155.119966L754.731202,155.338282L752.447791,155.582282L750.343423,155.530914L747.787989,155.261230L744.635382,154.747545L743.215988,154.002704L742.115809,153.270705L740.694047,152.140602L740.054765,151.408605L738.783771,149.585034L737.732755,147.761467L736.090557,144.165712L735.048655,141.661533L734.407469,140.274606L733.801056,138.977574L732.627436,136.511935L730.920408,133.262951L729.039311,130.322180L727.600172,128.280341L725.820977,126.469656L724.052358,124.902968L720.779445,122.398840L718.948174,121.320141L718.137558,120.767950L719.693429,118.019842L729.731163,102.995283L731.190820,100.837930L726.078788,99.618000L716.229662,97.280876L705.434254,113.949062L699.127692,113.242777L698.646941,113.191411L698.218563,113.140045L700.647894,109.210542L707.127683,98.744788L708.305336,97.293718L710.539453,94.674091L712.589305,91.605028L714.508583,88.767116L714.741123,88.420404L715.439660,88.574498L716.351568,88.792799L716.207565,88.420404L715.759575,87.316061L715.670195,87.084919L719.226126,81.897094L718.199003,81.678795L716.197673,81.216515L718.307710,78.275906L722.112306,72.972561L726.877604,66.821744L730.291647,62.404481L735.566326,60.144494L742.363486,57.216791L745.302070,55.958395L746.290418,55.534650L759.416589,57.679059L781.750269,61.287327L781.837797,58.886094L784.141444,48.048517L784.800217,45.878449L786.951968,32.832461L786.962327,32.344524L788.711855,21.481571L787.570920,11.838558L787.632291,9.938216L787.434595,2.247003L787.204864,0.000000Z M409.737766,575.085185L409.816866,574.802535L410.076948,574.635514L412.641872,574.468493L413.864224,574.378559L412.945679,577.038046L412.650500,577.898848L411.357833,591.466213L412.135320,595.988710L412.287831,598.275663L407.971775,600.061546L402.918170,602.053002L402.416607,602.245724L400.663364,602.939522L403.123033,595.333461L407.364550,582.292803L407.616247,581.509084L409.176472,577.179372L409.737766,575.085185Z M350.522029,612.460032L350.119833,607.770430L360.306721,603.479144L390.566439,590.721031L399.674503,587.187847L400.532340,591.620389L400.554906,593.598979L400.583529,596.566872L385.935258,602.836737L388.100962,600.151483L383.692329,597.993006L376.839265,606.292889L373.528418,607.590556L367.645842,609.903233L367.399014,607.102325L367.245206,605.136555L353.899404,610.982484L350.522029,612.460032Z M157.409205,798.199442L160.670877,792.043963L172.252743,770.210962L173.022375,770.493670L174.770546,772.652533L176.544664,774.824251L183.520575,774.143179L187.310658,773.757667L204.095955,772.948092L206.203972,772.845289L211.875790,773.449257L213.993062,773.667714L213.753257,774.130329L213.595392,774.425888L213.182782,775.145511L213.050852,775.453922L212.700074,776.224947L212.283146,777.420039L212.104285,778.499477L212.069754,778.653683L212.038281,779.437562L212.300507,780.465601L212.335517,781.069574L212.360050,781.673548L212.569194,782.997151L212.558499,784.050895L212.144987,786.119834L212.005500,786.543902L211.320616,788.561445L211.097647,789.229676L210.986163,789.563792L210.287558,791.221522L210.177623,791.478535L209.954837,791.876905L208.944136,793.945861L207.151386,797.132832L205.670924,799.638725L205.351267,800.165606L204.329608,801.476383L198.624149,804.894695L195.233726,805.987015L193.571457,802.671506L192.462568,802.324535L173.076852,796.181880L161.101582,797.723965L157.409205,798.199442Z M509.410755,354.193470L507.041122,354.296229L518.929728,338.214681L531.502988,318.948008L532.139596,317.804864L532.292135,317.522290L529.217145,317.291092L541.417434,297.600988L553.238729,278.527792L563.568474,262.177808L572.384317,250.361811L574.517519,248.538051L577.388592,243.991509L578.048009,243.015418L579.811000,239.611951L583.269274,235.039765L597.029360,215.749492L596.565103,215.659592L581.998863,212.692881L596.759041,189.460384L603.308935,187.572527L603.904282,187.405574L602.411659,190.641901L609.192875,190.706114L610.537437,188.034859L610.780630,188.176127L611.060216,188.330238L612.315166,188.676987L614.198076,189.049421L615.108971,189.319115L618.978539,182.885009L620.918151,179.314806L623.003681,175.282290L625.296364,170.864521L627.958822,171.275476L630.696227,171.609376L626.115778,180.213777L655.412037,185.055392L657.473562,185.402140L653.667754,188.805413L641.420943,199.606070L640.583291,200.338105L634.110272,206.053132L638.367399,206.849385L646.432851,208.364838L665.840597,211.986522L671.568821,213.065324L629.773891,274.905855L629.087550,275.920510L624.970062,281.982774L607.956798,279.028700L602.930323,278.193854L555.849254,347.886698L552.866311,352.305288L544.680945,349.967543L543.735298,349.851940L534.616199,347.835319L535.653855,346.293955L534.401732,347.064637L532.876176,347.886698L532.130978,348.207815L531.262205,348.426176L530.376213,348.464710L529.698496,348.310573L529.175075,348.040834L528.688948,347.488512L528.448028,346.730675L528.465267,346.152664L528.618711,344.816817L528.816051,342.376334L526.833101,343.532351L525.394158,345.227847L523.180876,348.143592L521.886468,349.941853L520.918064,351.174949L519.607164,352.253909L518.041478,353.242956L516.941346,353.756748L514.505661,354.013643L509.410755,354.193470Z "/></g><g fill="#000" font-family="Arial" font-size="12px" id="mylayer-label" stroke="none"><text text-anchor="middle" y="520.675936517"><tspan dy="0" x="494.377618507"><![CDATA[Y]]></tspan></text></g></svg>