<?xml version="1.0" encoding="utf-8"?><!DOCTYPE svg  PUBLIC '-//W3C//DTD SVG 1.1//EN'  'http://www.w3.org/Graphics/SVG/1.1/DTD/svg11.dtd'><svg enable_background="new 0 0 1000 1001" height="1001px" pretty_print="False" style="stroke-linejoin: round; stroke:#000; fill: none;" version="1.1" viewBox="0 0 1000 1001" width="1000px" xmlns="http://www.w3.org/2000/svg" xmlns:xlink="http://www.w3.org/1999/xlink"><defs><style type="text/css"><![CDATA[path { fill-rule: evenodd; }]]></style></defs><metadata><views><view h="1001" padding="0" w="1000"><proj flip="auto" id="robinson" lon0="-77.9938746446"/><bbox h="0.13" w="0.14" x="-1067.19" y="-664.44"/></view></views></metadata><g class="" id="mylayer"><path d="M1000.000000,206.964709L995.585113,201.036073L978.824776,174.475838L950.149382,196.648886L936.367479,183.013047L873.585596,127.284191L838.629820,159.535741L831.953721,166.887214L808.860563,191.905983L799.977941,201.036073L761.926211,171.748675L688.438135,115.308462L706.499026,84.479930L609.527983,54.600072L595.103960,76.061388L593.312285,78.669949L567.555709,109.972747L546.268846,135.702783L529.854279,155.504291L504.061585,179.574448L465.868885,215.027659L433.069629,244.433776L404.836748,268.267034L397.642788,274.195715L402.307555,278.108646L403.973392,282.021580L404.566137,283.207318L355.354265,321.388161L407.436190,425.378452L419.921943,450.160814L271.073523,544.666454L293.221960,620.319139L192.638454,687.909085L139.343125,575.496622L127.102662,585.457161L0.000000,700.241342L0.000000,700.241342L81.495065,857.834904L105.382693,836.727399L133.127636,814.434135L143.077037,807.437856L166.374503,790.955120L193.176504,774.709577L197.676783,772.100806L210.962313,764.037338L215.440768,761.191410L281.894347,864.119733L311.716060,909.062321L316.291213,906.216345L421.760127,839.691933L431.790542,833.051378L499.456928,787.279119L545.588732,765.578883L558.800097,789.294990L561.305704,793.919639L587.239558,829.731103L627.659161,881.551263L646.198106,905.860599L675.624761,944.399928L680.346807,935.269056L694.512992,907.876498L699.175783,898.627082L703.404751,890.444915L704.996473,887.243199L714.269215,865.542714L717.799184,857.123414L729.119408,831.391240L756.485487,769.254875L811.459262,643.916271L826.663023,608.342729L868.669211,517.630859L874.097204,505.654591L891.286498,467.472937L904.583732,436.406001L909.856204,420.635424L909.594376,417.789608L908.977272,410.556498L903.345324,402.967668L901.245439,400.121858L885.478853,381.742693L873.050879,368.106564L862.657354,356.604801L873.053050,349.727466L879.797306,345.221629L903.996861,328.028324L914.252190,320.676715L903.271682,312.257944L901.399473,310.835054L895.139819,307.989274L917.049423,286.408810L1000.000000,206.964709Z "/></g><g fill="#000" font-family="Arial" font-size="12px" id="mylayer-label" stroke="none"><text text-anchor="middle" y="510.502561813"><tspan dy="0" x="554.285326422"><![CDATA[N]]></tspan></text></g></svg>