<?xml version="1.0" encoding="utf-8"?><!DOCTYPE svg  PUBLIC '-//W3C//DTD SVG 1.1//EN'  'http://www.w3.org/Graphics/SVG/1.1/DTD/svg11.dtd'><svg enable_background="new 0 0 1000 1001" height="1001px" pretty_print="False" style="stroke-linejoin: round; stroke:#000; fill: none;" version="1.1" viewBox="0 0 1000 1001" width="1000px" xmlns="http://www.w3.org/2000/svg" xmlns:xlink="http://www.w3.org/1999/xlink"><defs><style type="text/css"><![CDATA[path { fill-rule: evenodd; }]]></style></defs><metadata><views><view h="1001" padding="0" w="1000"><proj flip="auto" id="robinson" lon0="-80.1955745929"/><bbox h="0.42" w="0.48" x="-1102.02" y="-650.29"/></view></views></metadata><g class="" id="mylayer"><path d="M1000.000000,446.255553L999.601514,444.654211L997.698892,440.455138L994.299486,431.772324L992.493076,429.032260L984.915560,420.883250L982.895327,418.926067L981.319152,416.933300L979.286237,415.296385L976.907827,414.122076L975.650313,413.801811L973.722027,413.410375L970.284138,413.232449L966.478684,413.588300L961.770777,414.620268L958.861155,415.438725L954.843510,416.292768L950.485329,416.755374L938.771639,416.826545L930.687623,416.363938L920.801829,415.474310L916.484464,416.363938L912.163785,417.822928L908.527484,419.495429L907.764221,419.815696L904.729745,420.385058L901.747858,420.598569L901.372571,420.598569L893.544136,420.242718L890.296374,419.637770L887.336379,418.570216L884.710857,417.075640L879.579352,412.769843L874.682125,407.894690L871.739814,405.652834L868.489169,402.450184L865.695280,398.891687L863.982530,397.432705L861.492002,395.689043L858.059863,393.909798L853.026377,391.988213L844.302766,389.212594L836.742501,387.433351L835.313457,386.828409L832.660919,386.259052L829.225617,386.259052L826.937477,386.935163L822.400195,387.789199L819.844536,387.931539L814.530238,387.753615L809.439179,387.041918L807.930334,386.508145L805.649613,385.298261L803.818845,383.661360L487.426363,213.605432L487.213258,212.431187L486.821011,210.438529L486.498384,208.872870L486.238585,207.663043L486.740368,207.627460L491.668218,205.421307L494.733270,203.357487L497.394179,201.293668L502.478280,195.885044L509.775037,186.135309L519.693715,172.400323L523.719097,167.240821L524.784666,165.853094L529.369600,159.448206L532.744665,153.221243L534.610120,148.417593L535.162041,146.638465L535.446569,143.115794L534.735166,140.198028L533.608590,137.315847L531.931002,134.255756L529.294892,130.377273L527.589374,125.360158L527.915652,119.097669L528.147469,118.350441L532.559755,102.267283L534.416168,93.585252L536.229483,81.878776L536.360523,76.897308L538.542990,69.211628L541.146386,64.728321L546.007531,57.434065L454.926836,56.615685L428.533247,56.366614L424.279294,60.494093L417.036668,65.973684L405.102938,74.477740L397.317728,80.775736L390.943655,86.433267L384.393762,93.122686L379.434268,97.570444L374.152170,101.662386L369.862676,104.508958L365.448392,107.106456L359.780069,110.024195L344.525108,116.393416L335.681324,120.520961L322.392668,127.530682L311.964466,133.508525L301.663592,139.913368L296.283934,142.831134L290.787987,145.286328L279.780871,149.129245L273.241450,151.691191L267.911913,154.075226L265.151629,155.249453L262.803095,156.957420L259.140174,160.017529L255.764212,163.362303L246.027662,174.926703L239.215365,183.858002L236.123842,187.309546L231.849588,191.223671L226.571712,196.418790L220.876065,202.681408L218.798388,204.353813L217.739623,204.602895L216.835406,204.353813L213.775628,200.724339L211.158138,198.553772L206.379851,196.276458L202.427683,194.034728L199.320350,191.116922L195.880258,187.131631L194.232350,185.743897L192.300845,184.711992L187.892718,183.288676L186.278756,182.256772L185.125850,180.762290L182.548979,181.438365L179.391332,182.683766L176.321108,184.391746L173.469069,186.419972L170.881909,188.804030L164.805782,195.920627L154.456155,208.623788L140.534399,226.700069L134.008324,234.243739L128.170050,240.221753L116.726216,250.683300L111.698835,255.629416L103.141829,264.881161L96.684623,271.179477L89.858100,277.086383L86.421041,281.000602L83.339731,285.163912L85.177961,283.704974L85.907251,285.448583L87.584063,288.046207L89.706637,290.323577L92.279221,292.173942L97.071216,294.593650L102.805635,298.721392L108.107895,303.311730L115.386750,309.254270L117.877851,311.460485L120.145659,312.990603L122.798943,314.022543L125.740060,314.591889L134.149933,314.840978L141.412737,314.413968L152.656756,312.599177L160.058804,311.816326L161.059838,311.567237L162.698511,311.496069L164.056145,311.958663L164.276896,313.666701L163.934725,315.979671L161.677094,321.210547L158.409958,329.323756L154.759095,340.070227L151.357872,348.895166L148.821002,356.794928L147.213844,363.093399L142.860992,376.010635L140.806408,381.704196L139.261253,386.686069L138.118572,391.952629L137.439364,393.304854L136.353450,394.479156L131.655681,397.432705L128.309609,400.030406L126.294850,402.058749L123.139862,405.901929L120.391585,409.923038L118.147663,414.086491L116.835144,417.573832L116.071126,421.061176L115.888718,424.441768L116.212352,427.680022L118.138378,435.152926L120.902487,443.088454L120.912840,446.219968L120.370460,449.458241L116.873768,460.454154L114.533234,466.325771L111.695153,472.126227L111.289392,473.620824L110.178154,476.645606L108.355444,480.382105L106.057248,483.976265L103.320909,487.214570L95.657055,497.498876L93.906494,500.630435L92.682368,503.833168L91.065821,505.043091L76.130577,515.967994L74.165932,517.462609L68.734785,522.409076L62.613455,528.743411L57.406570,534.828652L52.529173,541.340939L51.733664,542.230597L50.163825,543.476118L48.362148,544.259017L42.538358,544.792812L36.880092,544.792812L35.022349,545.291020L33.223233,546.251851L31.387665,547.888824L28.278742,552.515053L25.315059,557.603912L22.837918,562.799538L20.954096,565.895565L17.435127,570.913269L15.115715,573.831369L12.527121,576.500366L5.163842,584.792060L1.064058,589.169227L1.098933,620.805981L0.000000,915.762970L0.476206,915.157943L8.853607,904.801319L11.550587,902.060911L14.599191,899.676402L16.992520,898.288405L24.607185,893.839699L31.652889,889.177461L40.063050,880.671562L45.773642,874.728120L46.086032,874.372226L50.929188,869.923548L58.226007,864.264838L67.516598,855.153977L78.572888,843.978966L81.228363,841.558905L84.883932,838.427062L96.587236,830.846592L110.842257,820.063131L119.745204,812.482697L125.632619,807.179961L129.659286,804.154914L132.371826,802.482241L133.882183,801.521345L138.977978,798.958955L146.929973,795.471262L157.432579,791.485330L158.264627,791.129443L159.455780,790.453259L160.227504,789.919429L160.952519,789.350011L161.612987,788.709415L162.764928,787.321459L162.835336,787.001161L163.351888,784.403193L163.416178,783.264358L163.346204,781.627284L163.197378,780.524039L162.868526,779.349616L162.582161,778.317549L162.386628,777.178716L162.513577,775.185759L163.142343,773.157215L165.016475,769.811899L173.666877,755.968015L174.439303,754.686836L176.254316,752.836244L178.334319,751.341536L180.169053,750.451829L177.383539,756.644193L173.357839,764.509222L172.233368,767.391884L171.599683,770.274548L171.489877,773.050449L171.914981,775.683998L172.404380,777.178716L175.172235,784.082896L175.665864,785.470851L182.294618,803.763437L185.245744,813.336829L187.452665,817.393962L190.720293,822.127289L193.720055,825.116762L198.352358,830.383934L213.483551,851.239161L221.410592,863.481873L231.343032,884.159334L235.128581,891.134889L242.410058,901.455886L248.949370,908.395883L253.707787,911.207475L258.100947,913.520812L268.776835,919.037236L275.512078,921.991195L280.987717,923.699510L292.913151,927.792351L301.100721,931.742837L308.913982,936.155997L312.879972,938.077859L315.100745,939.109970L320.988408,941.352144L324.725677,942.241895L328.703947,942.633386L332.887530,942.455436L352.308030,931.956377L369.594847,924.802797L373.382296,923.201252L392.207645,915.834150L410.128593,908.217934L430.144148,902.879474L451.903286,898.715481L472.330793,893.910878L479.229010,891.028120L492.421770,885.440557L501.256252,883.483133L515.746283,880.137719L678.930018,709.240835L680.051404,708.137610L680.682975,707.497029L682.586791,704.614412L682.834622,704.187358L683.564497,702.763845L683.341981,702.550318L680.480070,700.699752L677.150405,699.240652L670.323715,695.930990L666.944759,694.258365L669.107365,694.080427L671.710491,693.226321L673.759920,692.016338L680.105497,686.073193L696.123267,669.880841L718.877664,645.645823L726.893890,637.852216L733.439023,631.731221L737.577530,628.065746L741.981032,624.756145L743.835194,623.617359L746.638498,621.838005L751.492188,619.311325L755.457059,617.603148L779.036269,609.987533L791.979806,606.322080L804.953154,603.119259L817.217701,600.806112L832.448933,598.421794L843.678675,597.211841L854.804919,596.428931L865.658676,595.966303L871.950462,596.250997L878.058957,597.033907L884.715281,598.564141L888.626475,599.916441L892.249936,601.731371L895.492249,603.937757L898.876602,607.176166L900.782513,609.596077L908.600123,620.699220L923.016330,639.667164L931.067703,650.948332L943.670727,667.105016L947.795438,672.799018L964.982498,696.429218L970.688659,703.262075L976.862593,709.703477L990.488244,721.910142L995.105823,725.362180L998.072291,727.248347L994.079266,716.749885L992.737851,711.482872L991.389353,708.102022L987.222638,701.518272L986.035710,698.920362L984.940885,694.721006L984.531140,689.987839L984.666684,685.824080L985.275172,681.624738L986.650469,674.578395L987.404289,667.674416L987.629075,663.688619L987.720225,661.624547L988.442609,657.709931L989.724541,653.759732L990.394053,652.158301L990.924743,648.955442L990.873838,645.859346L990.294858,642.976777L989.886160,641.873573L989.599784,637.674280L988.727599,633.688514L987.276415,629.987451L986.155097,627.923397L983.409039,624.115578L981.605601,620.805981L979.797653,616.393189L979.205394,614.578252L977.204194,607.994665L976.161830,602.229587L975.676148,595.041046L974.368263,586.500222L973.548596,577.781484L973.773959,571.838520L974.571809,566.749642L975.929206,561.625184L978.607241,554.009682L983.639779,542.337356L986.637753,533.689893L987.610085,530.273617L989.441872,523.619005L992.260131,516.110339L994.529447,510.558918L996.117899,505.434536L999.050989,489.919090L999.237831,485.684381L999.285726,483.015449L999.097555,475.613621L997.649222,457.749655L997.872010,454.796059L998.261417,452.981200L999.910303,448.034824L1000.000000,446.255553Z " data-aland="4700275" data-awater="0" data-classfp="U1" data-funcstat="S" data-geoid="5436340" data-intptlat="+38.7057933" data-intptlon="-080.1992766" data-lsad="57" data-mtfcc="G4210" data-name="Helvetia" data-namelsad="Helvetia CDP" data-pcicbsa="N" data-pcinecta="N" data-placefp="36340" data-placens="02586824" data-statefp="54"/></g><g fill="#000" font-family="Arial" font-size="12px" id="mylayer-label" stroke="none"><text text-anchor="middle" y="520.295283745"><tspan dy="0" x="430.74450535"><![CDATA[Helvetia]]></tspan></text></g></svg>