<?xml version="1.0" encoding="utf-8"?><!DOCTYPE svg  PUBLIC '-//W3C//DTD SVG 1.1//EN'  'http://www.w3.org/Graphics/SVG/1.1/DTD/svg11.dtd'><svg enable_background="new 0 0 1000 1001" height="1001px" pretty_print="False" style="stroke-linejoin: round; stroke:#000; fill: none;" version="1.1" viewBox="0 0 1000 1001" width="1000px" xmlns="http://www.w3.org/2000/svg" xmlns:xlink="http://www.w3.org/1999/xlink"><defs><style type="text/css"><![CDATA[path { fill-rule: evenodd; }]]></style></defs><metadata><views><view h="1001" padding="0" w="1000"><proj flip="auto" id="robinson" lon0="-93.2169369125"/><bbox h="0.76" w="0.65" x="-1321.32" y="-521.0"/></view></views></metadata><g class="" id="mylayer"><path d="M464.402957,0.000000L446.715150,3.850302L382.717928,32.093138L342.931303,37.890467L304.305537,42.681467L283.888740,44.934768L278.713600,63.004932L275.728455,72.761946L266.154884,118.484271L232.740324,119.971887L212.201237,199.362463L227.290365,199.253080L244.353713,199.121820L245.975115,199.099943L206.738302,354.380809L203.799121,364.597231L186.718517,420.776612L173.600479,463.961231L142.313992,583.933093L130.409668,625.651976L102.938884,718.627993L99.856554,729.041308L99.433489,730.900828L93.715571,754.571431L79.016894,807.381818L71.017801,836.740369L77.005198,837.615438L96.294803,836.040315L134.528007,832.933821L251.323382,833.765136L272.019529,832.277519L326.899457,834.771465L388.607818,837.287287L392.541135,837.440424L380.463943,880.603187L370.272490,917.618595L359.887905,957.652994L353.295241,984.058198L351.812639,988.980460L349.901572,996.965465L363.736493,996.899834L385.324780,997.009218L407.913197,997.337369L408.445932,997.359246L422.287055,997.687397L436.464539,998.146808L443.634270,998.212438L446.239128,998.124931L458.033226,998.190561L471.862303,998.146808L505.856889,998.671849L519.390889,998.759356L527.047263,998.671849L539.645794,998.715603L588.979260,998.759356L620.576698,998.803109L645.558819,999.000000L680.875419,998.956247L684.799905,998.934370L689.938436,998.956247L718.341535,999.000000L718.627568,997.512383L720.202514,994.537148L722.452556,991.190010L726.435386,984.276965L730.972216,975.985687L734.877776,970.057095L748.349721,955.224678L748.844946,954.830897L747.900685,950.302415L747.166574,945.752057L746.395739,942.798700L745.962301,940.042233L746.262428,936.695095L747.249353,932.932299L749.694106,927.397489L750.436877,923.853460L751.018687,919.521869L751.795191,916.546635L753.912280,913.002607L756.895707,909.830483L762.751494,903.901892L764.865532,902.523658L765.129998,902.020494L769.251124,899.942206L770.736831,898.760863L772.618722,896.791958L774.738609,895.391848L784.649202,891.038381L788.608010,890.053929L792.835753,888.063147L801.548487,883.119009L815.949923,875.790309L820.125395,873.230733L823.214102,869.664828L824.969111,866.711471L825.949975,863.736238L828.509760,859.995319L833.464966,852.294715L836.891085,848.925700L844.907484,842.209548L851.617672,837.462301L856.789511,834.093287L858.197170,833.065081L861.385643,830.724273L876.133919,820.639107L880.204185,818.473312L882.930815,815.498079L885.954918,812.938503L889.935178,808.191256L893.992869,802.459557L898.366341,795.546515L900.443069,791.389939L900.585584,788.633474L899.663380,785.483227L899.255007,781.939199L898.577008,778.570185L896.850251,772.663473L895.305994,768.922555L894.334055,764.569089L894.371362,762.206404L894.897683,760.237500L896.653891,757.349774L897.311867,756.277815L900.552829,752.143116L903.768572,749.561664L907.971972,747.592760L914.121940,745.011308L919.374341,742.036075L922.841157,739.279609L925.772186,736.304376L927.131149,734.138582L928.291681,731.950911L928.951107,730.178897L928.975938,729.391335L928.982199,728.603774L928.186938,726.437979L925.769853,723.878404L922.374780,720.531267L920.282760,717.381021L918.441398,714.821445L915.157480,711.058651L913.006576,708.892857L912.394117,705.348830L911.580727,699.639008L912.128885,693.907310L912.218947,691.347735L911.529037,688.788160L911.027765,684.828475L910.753033,676.340311L909.824802,673.977627L907.030447,669.842929L904.746560,667.480244L903.508779,665.511340L901.571949,660.392190L900.714856,656.235615L900.798685,654.463602L902.931861,647.944342L903.987689,645.384767L904.904150,643.415863L905.130338,639.653069L905.034795,637.093494L903.754179,632.368125L900.306737,629.217879L895.658137,627.642756L892.299903,627.839646L888.598485,627.861523L885.636560,627.270852L883.247467,625.301948L881.690999,623.136154L881.038313,618.979579L880.899981,613.663539L879.883347,602.812692L878.908949,599.859336L878.249995,596.490323L876.387512,592.552516L874.169145,588.417818L871.111824,585.267572L867.685914,583.495558L864.875649,583.101778L861.833374,582.117326L858.949073,580.542203L855.650373,578.988957L852.707064,578.398285L850.088866,577.216943L847.752532,575.051149L846.830872,571.900903L846.951967,568.531890L847.457201,565.184754L847.104884,562.822070L846.507840,561.443837L844.641902,559.671824L842.234373,557.702920L840.111755,556.543454L838.946005,548.820977L846.448910,522.853325L849.422103,512.571273L859.652216,473.565105L860.353497,470.874270L868.681032,432.458774L869.544834,428.258446L872.140900,372.888503L874.279056,331.519651L874.987878,316.380970L871.584808,293.432305L854.736586,265.145723L855.153972,247.491220L857.215781,233.336991L875.203068,166.284880L876.229188,156.834142L877.342103,146.573966L875.927553,139.026501L876.389696,125.441064L867.133185,110.980559L860.269920,105.752025L822.975561,99.954697L687.737070,78.734288L591.323486,51.082124L579.544061,46.947426L558.066237,39.990631L533.642091,28.505357L502.759922,9.866398L497.756613,6.847411L496.295469,6.409877L481.420188,2.187671L464.402957,0.000000L464.402957,0.000000Z "/></g><g fill="#000" font-family="Arial" font-size="12px" id="mylayer-label" stroke="none"><text text-anchor="middle" y="507.198864571"><tspan dy="0" x="524.651129602"><![CDATA[Y]]></tspan></text></g></svg>