<?xml version="1.0" encoding="utf-8"?><!DOCTYPE svg  PUBLIC '-//W3C//DTD SVG 1.1//EN'  'http://www.w3.org/Graphics/SVG/1.1/DTD/svg11.dtd'><svg enable_background="new 0 0 1000 1001" height="1001px" pretty_print="False" style="stroke-linejoin: round; stroke:#000; fill: none;" version="1.1" viewBox="0 0 1000 1001" width="1000px" xmlns="http://www.w3.org/2000/svg" xmlns:xlink="http://www.w3.org/1999/xlink"><defs><style type="text/css"><![CDATA[path { fill-rule: evenodd; }]]></style></defs><metadata><views><view h="1001" padding="0" w="1000"><proj flip="auto" id="robinson" lon0="-76.0509250841"/><bbox h="8.38" w="5.14" x="-1056.25" y="-621.71"/></view></views></metadata><g class="" id="mylayer"><path d="M463.882002,0.000000L450.275683,20.405163L408.563136,82.974749L403.645614,90.547386L395.315427,103.376955L372.833904,138.002411L341.683518,185.988284L340.175447,189.184126L331.858406,206.811252L328.966061,213.260039L327.587269,216.333710L326.193074,219.439976L324.990204,222.248859L331.835076,222.450512L331.196786,225.740108L328.016196,242.133165L326.751285,244.119161L322.372864,243.817697L318.494721,242.408149L317.934146,242.308340L316.228223,242.000765L316.631622,240.933420L310.212597,240.012734L309.642541,241.006749L309.275374,241.642268L307.511458,244.493954L305.173183,248.300961L305.144562,248.309109L304.107044,248.604463L304.092074,248.708346L304.054554,248.804081L303.993411,248.865189L303.849726,248.932408L303.579489,248.997589L303.493099,248.999626L303.329672,249.005737L303.058968,248.993515L302.958867,248.954814L302.820713,248.995552L301.883999,249.187023L301.651196,249.235909L300.116729,249.604593L299.735307,249.702365L299.319220,249.800137L299.196495,249.820507L299.074322,249.838839L299.071959,249.987535L299.067945,250.136230L299.071153,250.221781L299.076012,250.307332L299.184431,251.301352L299.402228,252.926819L299.468228,253.468642L299.827029,256.552553L300.246716,259.887012L300.368341,260.406430L300.459223,260.856592L300.576594,261.233425L300.813181,261.797656L301.254931,262.445402L302.038223,263.264250L304.048877,265.468217L305.328555,266.824818L305.641818,267.222021L305.929704,267.688480L306.318015,268.442149L306.790329,269.397474L307.119866,270.051332L307.390606,270.623713L307.810922,271.302015L308.184074,271.813288L308.635380,272.310302L309.090638,272.701396L309.547638,272.994716L310.084380,273.340996L310.157533,273.375625L310.012681,273.520248L295.985906,287.455029L286.330748,297.047075L283.357160,299.491432L276.911872,308.046703L271.951701,314.167811L272.466417,316.948286L272.535494,317.314943L272.560166,317.443272L272.582092,317.563454L272.642521,317.712154L274.148972,323.731434L274.993354,328.477610L275.608647,331.936416L275.677920,332.942689L275.730674,333.071020L275.784527,333.201387L275.812013,333.252312L275.852696,333.321570L275.964335,333.451937L276.050684,333.541565L276.199178,333.700450L276.547321,334.067108L277.117636,334.710797L277.544417,335.183379L278.605333,336.356687L278.690030,336.452426L279.442404,337.301852L279.869209,337.756101L280.499461,338.532196L281.314562,339.436621L281.410819,339.532360L281.436670,339.558841L281.469123,339.591433L281.503774,339.628099L281.573628,339.699394L281.536713,339.774762L281.108616,340.636411L278.991429,340.644559L278.303575,342.496189L277.098734,345.800199L276.537670,347.336097L276.214706,348.218118L276.187148,348.295524L275.784825,349.397541L272.700487,354.082647L270.498346,355.508551L269.644210,356.596312L268.736112,357.749257L268.830644,358.028327L269.116438,358.881833L269.444229,359.378863L270.385816,360.804768L272.586850,361.823273L272.971410,363.452880L274.347430,363.249179L277.527486,363.249179L277.649669,363.249179L279.930874,364.831937L280.290719,365.082489L279.982192,365.880997L279.945280,365.974700L279.739780,366.508397L280.284513,366.868948L281.280445,367.526903L281.528603,367.689864L282.821122,368.545410L284.308353,369.767618L284.513047,369.902061L285.849060,370.786125L287.312703,371.869817L287.499787,372.008334L288.190936,372.401478L288.881537,372.796659L288.930512,372.823140L289.129147,372.986101L289.766873,373.509614L290.416155,374.045350L291.039596,374.505715L291.177161,374.607566L290.921619,375.124969L290.648455,375.677000L290.419893,376.167922L289.763989,377.457354L289.139464,378.746787L288.886147,379.213264L288.592619,379.797889L288.532042,379.918073L288.397660,380.219552L288.383890,380.252145L288.348091,380.335662L287.660781,381.826761L287.612318,381.926575L287.268134,382.606941L286.753226,383.674340L286.729547,383.719155L285.382715,385.847843L284.186793,387.644498L283.895506,388.147643L283.606442,388.569307L283.238098,389.082638L282.931434,389.453376L281.714780,390.551333L280.646768,391.520958L280.119368,391.999659L279.605725,392.494656L279.150439,392.932617L277.596853,394.427796L277.542902,394.480758L277.480692,394.539832L277.366183,394.651869L277.257179,394.755757L275.509263,396.438343L275.286301,396.652231L274.974705,396.949637L274.625124,397.283710L274.276643,397.619820L274.094419,397.799079L273.778419,398.106670L273.456914,398.416299L273.153576,398.707594L272.850790,398.996852L272.611313,399.229074L272.371836,399.461295L272.012346,399.807591L271.652305,400.155923L271.549358,400.255738L271.446411,400.355552L271.271896,400.524626L271.028015,400.760921L270.607418,401.168328L270.005150,401.752956L268.979536,402.730731L268.877139,402.834620L268.815480,402.897768L268.581513,403.109619L268.253415,403.370360L267.933029,403.596470L267.420535,403.885729L267.072639,404.048692L266.292632,404.380728L265.785653,404.606839L265.295180,404.863505L265.159763,404.936838L265.025447,405.012208L264.634606,405.242393L264.449644,405.352393L264.269637,405.456282L262.895640,406.250725L262.225702,406.664243L262.118907,406.735539L261.841460,406.924984L261.535387,407.134798L261.237014,407.383316L260.995339,407.605353L260.675503,407.835538L259.599289,408.609612L259.317434,408.827574L259.059797,409.047574L257.493070,410.328870L256.999243,410.903314L256.487223,411.673314L255.566699,413.013685L255.509442,413.097203L255.012848,413.810167L254.559198,414.462019L253.197706,416.413502L251.902856,418.161283L251.419491,418.813136L251.406279,418.831469L248.518232,422.728330L248.056753,424.893707L247.697170,426.578342L247.629991,426.894084L247.625035,426.918528L247.441116,427.843347L246.103435,429.108352L246.012054,429.195945L245.716443,429.477057L245.565060,429.621687L245.306882,429.868170L245.050906,430.112615L244.941910,430.216505L243.316881,431.768734L241.691856,433.320964L240.541398,433.416705L236.792773,433.728374L235.566011,430.752248L235.196730,429.857985L231.508993,427.006121L230.512233,426.117970L228.316202,424.156297L225.390633,423.818148L223.340812,423.581851L223.033669,423.545184L222.592201,423.626666L222.381925,423.665369L222.171649,423.704073L220.319900,424.048334L219.298244,424.235741L217.232913,424.618706L216.426486,424.767410L212.446011,422.736478L211.636384,422.322958L210.040741,419.063692L208.724904,417.835356L204.372469,413.767389L200.630758,409.285907L200.079922,410.711833L200.519071,415.193316L194.462695,421.711846L194.021725,424.563705L194.026122,424.596298L194.037665,424.675743L194.178904,425.790006L194.242475,427.234270L194.352605,430.063726L194.340998,430.338727L194.295670,431.489659L194.405353,434.137820L193.653087,436.590427L193.722801,438.128399L194.235105,439.641927L194.784848,441.267493L194.822222,441.862312L194.457152,443.053987L194.195587,444.131588L194.086536,444.846593L194.157865,448.303473L194.180926,449.409593L194.747947,448.778107L194.391730,450.010524L194.321808,450.250897L194.323458,450.299786L194.330051,450.593122L194.338293,450.972014L194.381167,452.890921L194.457093,454.779272L194.664618,458.765794L194.733443,459.776175L195.074765,460.743778L195.448027,461.801011L195.450236,462.043421L195.449168,462.951950L195.449768,464.117148L195.451988,464.487893L195.533491,465.090863L195.616099,465.708093L195.769862,468.372569L195.778130,468.525349L195.788050,468.665906L195.872376,469.918700L195.888915,470.193703L195.892248,470.542041L195.890628,470.896490L195.891224,471.389459L195.889057,471.764279L195.883167,473.412263L195.881027,473.982641L195.878886,474.528574L195.881689,474.970617L195.890658,476.313043L196.021831,477.502689L196.048288,477.747136L196.128764,478.494740L196.237358,479.505124L196.457980,482.210348L196.351182,482.220534L196.373841,482.760357L196.405346,483.505923L196.625543,483.448885L196.496014,485.659104L196.493819,485.697808L196.779270,492.395691L196.943156,496.266126L196.989758,497.659483L196.943792,498.710612L196.951531,498.828763L196.954847,498.877652L196.983590,499.303400L197.109626,501.155099L197.146716,501.868075L197.148373,501.886409L197.191507,502.546420L198.861132,550.269081L198.879031,550.735573L198.933383,552.298017L198.940099,552.475244L199.041987,552.520059L199.077235,552.536356L199.263940,552.621914L209.204558,557.087205L209.506379,557.223690L211.347594,558.046673L220.112659,561.972138L220.867235,562.310294L221.213684,562.471224L223.152797,563.801442L223.295476,563.897185L224.000710,564.510348L228.581781,565.225366L228.646761,565.235551L228.943039,565.300738L229.232711,565.365925L231.469670,565.854825L232.871372,566.366134L235.700824,566.881517L238.105168,567.343936L250.176753,569.918815L260.161619,571.809233L266.673237,573.047782L278.369413,575.913966L291.696487,577.951054L291.811224,578.162911L291.917134,578.358472L316.966624,618.336374L319.998314,623.174466L341.636760,656.988147L341.874125,657.340564L342.464769,658.210401L343.734668,660.247492L344.838403,661.673455L351.365968,664.262597L357.678719,666.766181L359.277833,666.969890L368.313293,669.006979L368.592146,671.044069L368.312694,674.735275L367.623352,683.877729L372.657355,695.896543L375.146274,701.396675L379.122543,706.896805L380.450451,709.952431L380.789476,714.230306L381.031011,723.804592L370.655615,740.304932L369.018714,739.852701L363.268658,738.267855L357.820770,740.712348L353.959017,737.860440L345.979031,741.119763L341.687789,743.564255L330.840013,745.193916L328.637145,745.397623L328.251995,745.601331L325.829221,746.008746L317.820150,748.612128L317.752996,748.634536L317.682537,748.656944L314.769524,754.562421L311.195668,755.582994L285.539895,761.897917L277.006519,764.138694L265.381150,804.963474L258.871125,828.640107L250.242661,860.896586L249.735342,862.809355L238.494405,908.016813L235.329730,921.772646L232.087240,928.115829L228.640350,939.797925L224.471437,955.926672L215.841747,989.204377L214.976746,992.540882L214.426526,994.105249L213.523256,998.798344L222.950481,998.725014L226.587167,998.678165L226.648886,998.676128L226.670379,998.676128L226.851140,998.674091L226.904048,998.674091L227.400035,998.667980L231.099046,998.635389L241.081698,998.692423L241.114765,998.692423L241.146179,998.692423L241.169326,998.692423L241.306012,998.694460L242.443002,998.702608L247.742682,998.731125L259.666994,998.804455L259.701715,998.804455L260.077029,998.804455L262.132159,998.804455L262.158613,998.804455L263.148978,998.804455L266.616081,998.804455L280.227677,998.806492L290.605295,998.808528L290.628442,998.808528L297.450763,998.806492L317.522572,998.800381L330.611684,998.796307L331.578902,998.796307L338.984657,998.739273L353.043361,998.633352L355.333200,998.615020L358.417740,998.592614L371.591947,998.796307L393.747016,998.796307L397.863534,998.847230L398.970791,998.861489L403.220712,998.920560L403.268660,998.920560L403.506201,998.922597L403.957026,998.924634L404.047961,998.924634L404.621725,998.936855L404.730303,998.938892L405.061543,998.942966L405.189962,998.945003L405.318381,998.947040L406.739234,998.963335L407.261721,998.969446L409.139446,998.983705L409.213304,998.985741L409.970048,999.000000L420.809503,999.000000L442.522888,998.796307L476.266615,998.993889L477.190870,999.000000L485.842660,998.796307L486.615045,999.000000L486.945718,999.000000L487.661360,998.796307L487.992033,998.796307L488.984051,998.796307L492.788440,998.796307L493.079432,998.796307L493.780458,998.796307L534.904588,998.399105L535.003247,998.401142L544.760516,998.590577L561.717403,998.590577L561.892660,998.590577L562.286160,998.590577L566.254230,998.590577L569.825494,998.590577L569.919735,998.590577L573.041284,998.590577L573.365343,998.590577L575.276630,998.590577L575.514714,998.590577L578.268610,998.183190L579.557766,998.203560L589.807649,998.368551L590.945239,998.386884L592.379013,998.590577L594.475761,998.397068L594.582635,998.386884L594.686797,998.386884L603.510789,998.386884L604.502806,998.386884L613.267278,998.386884L614.755303,998.386884L617.830557,998.386884L620.219665,998.386884L621.163734,998.386884L621.768865,998.386884L624.209227,998.386884L624.376216,998.386884L626.261049,998.386884L628.195482,998.386884L628.334365,998.386884L630.230771,998.386884L632.168511,998.386884L635.752999,998.386884L656.651656,998.044679L750.827136,998.056901L752.377939,973.972095L754.204395,846.836989L751.817921,832.288453L748.379860,807.157382L746.715261,786.909022L743.991120,735.572801L740.370177,713.142504L732.729313,665.745598L732.455657,661.722345L729.945024,624.685988L728.553070,604.115439L729.501239,584.351588L730.099686,571.904976L730.185569,570.126598L733.154644,508.692273L738.157651,406.222207L739.716379,374.552567L741.224531,344.054492L742.967218,308.916490L747.781029,212.697858L747.788735,212.687673L746.324876,209.190335L806.346913,102.197665L750.519442,82.974749L750.436936,82.974749L750.349480,82.974749L750.326938,82.966602L750.301095,82.958455L747.979201,82.180418L747.798859,82.121352L747.632263,82.066360L706.469097,68.304140L706.090855,68.177862L670.067469,56.130673L550.699884,24.584398L542.820245,22.502925L541.866011,22.250379L538.906098,21.431640L538.880266,21.423494L537.051562,20.916365L536.926244,20.879705L520.258844,15.950991L478.133416,3.494865L471.415225,1.847226L463.882002,0.000000Z " data-aland="646755922" data-awater="641362601" data-classfp="C7" data-funcstat="A" data-geoid="5182000" data-intptlat="+36.7794040" data-intptlon="-076.0236031" data-lsad="25" data-mtfcc="G4110" data-name="Virginia Beach" data-namelsad="Virginia Beach city" data-pcicbsa="Y" data-pcinecta="N" data-placefp="82000" data-placens="01498559" data-statefp="51"/></g><g fill="#000" font-family="Arial" font-size="12px" id="mylayer-label" stroke="none"><text text-anchor="middle" y="529.980093224"><tspan dy="0" x="513.016024052"><![CDATA[Virginia Beach]]></tspan></text></g></svg>