<?xml version="1.0" encoding="utf-8"?><!DOCTYPE svg  PUBLIC '-//W3C//DTD SVG 1.1//EN'  'http://www.w3.org/Graphics/SVG/1.1/DTD/svg11.dtd'><svg enable_background="new 0 0 1000 1001" height="1001px" pretty_print="False" style="stroke-linejoin: round; stroke:#000; fill: none;" version="1.1" viewBox="0 0 1000 1001" width="1000px" xmlns="http://www.w3.org/2000/svg" xmlns:xlink="http://www.w3.org/1999/xlink"><defs><style type="text/css"><![CDATA[path { fill-rule: evenodd; }]]></style></defs><metadata><views><view h="1001" padding="0" w="1000"><proj flip="auto" id="robinson" lon0="-106.083921798"/><bbox h="0.36" w="0.61" x="-1476.19" y="-602.28"/></view></views></metadata><g class="" id="mylayer"><path d="M1000.000000,454.390851L999.355048,447.469318L998.858710,446.269213L997.942301,445.348202L996.678977,444.817923L995.119143,444.790013L994.049374,445.041198L993.351363,445.208655L991.517412,445.934300L987.644014,447.887960L983.552518,450.316079L973.465529,457.153881L967.205414,460.977465L963.273552,463.154395L961.540768,463.852129L960.096788,464.131223L958.954216,464.019585L958.034637,463.545126L950.427429,458.186528L945.822926,455.144405L942.723262,453.469841L930.201440,446.297123L914.211753,445.655206L913.540554,441.245515L913.070885,439.096487L912.497244,437.170735L911.650564,435.244981L910.467117,433.682051L908.954609,432.398215L907.158546,431.393474L904.919652,430.667827L902.763703,430.277094L900.309149,430.081728L897.760770,430.081728L895.128720,430.249185L882.222553,431.951663L879.489335,432.147030L876.748776,432.174939L874.124795,432.007482L871.693359,431.560930L863.771128,429.132805L861.731396,428.797891L859.471471,428.630434L856.948293,428.686253L854.303276,429.076986L851.607126,429.858452L848.940705,431.058560L846.390131,432.565672L844.008619,434.296059L841.897335,436.221813L838.170088,440.212865L836.185540,441.915341L833.996941,443.115447L831.639644,443.841093L829.214816,444.064368L826.871577,443.813183L824.551458,443.310813L822.198797,442.585168L811.996686,439.794223L809.929304,439.347672L807.484901,439.124397L804.835352,439.152306L802.397924,439.347672L799.596075,439.794223L797.074973,440.157046L787.366485,442.138617L784.961962,442.306074L783.667463,442.361893L779.781521,442.473530L778.606050,442.389802L777.238398,442.333983L774.288527,441.999070L773.244683,441.803704L771.935505,441.524609L771.660018,441.468790L770.924569,441.301334L770.681988,441.217605L769.185890,440.826873L767.007925,439.933771L765.181784,438.761574L763.621346,437.421920L759.311803,433.319228L757.976828,431.672568L757.427332,430.556189L757.013987,429.690995L756.367620,427.402416L754.473980,417.159622L754.059257,412.107993L754.146286,409.679861L754.518956,407.279637L755.144362,404.935232L756.030210,402.562916L758.439380,397.567096L763.983788,387.268439L766.324356,382.523795L767.091198,380.291021L767.390001,378.281523L767.195570,376.439483L766.487595,374.820720L765.377397,373.369414L761.353686,369.294595L758.140256,366.057065L754.559961,363.014902L752.903323,361.814783L748.642510,359.079626L747.839200,358.660979L746.197228,357.795776L743.556944,356.735204L740.767163,355.897911L738.725031,355.507174L737.863236,355.311805L734.885783,354.865249L725.942508,354.055865L723.286425,353.413939L720.911475,352.437097L718.817657,351.125336L716.875784,349.646116L715.113495,348.111076L713.495439,346.492307L712.367414,345.152635L712.031771,344.761898L710.785865,342.808209L709.793073,340.659152L709.030642,338.314724L708.475821,335.774927L707.748494,330.332501L707.251544,324.694702L707.107461,321.401332L706.984974,318.861529L706.688568,315.986805L706.136613,313.251630L705.286044,310.711824L704.159612,308.367386L702.802824,306.218318L701.261184,304.264619L699.559886,302.562109L697.754591,301.082879L695.822546,299.826929L693.718243,298.794259L691.396177,297.984869L688.876659,297.342938L686.164570,296.980108L683.437052,296.784738L680.512081,296.756828L677.629783,296.924288L674.719457,297.231298L669.563522,297.956958L669.077996,298.040689L667.641728,298.236059L667.143605,298.291879L663.616116,298.794259L661.535051,299.073359L659.130563,299.240819L654.666106,299.129179L653.417529,298.933809L652.649203,298.794259L650.870379,298.180239L650.506725,297.929048L649.463710,297.231298L648.398730,296.031167L647.712834,294.914766L646.491737,291.705112L642.711491,282.522703L640.973570,278.419921L640.021518,276.159203L637.119876,269.377045L636.155242,267.088415L635.900878,266.474392L635.102438,264.604412L634.835479,263.962479L632.737205,259.161931L631.158223,255.310327L628.924664,249.756198L627.306686,245.011462L625.982070,240.210902L624.525793,232.396029L623.495777,226.786062L623.335284,225.976663L623.212577,225.250996L621.868919,216.626707L621.473185,214.338059L621.217625,212.914631L620.359124,210.709713L619.057761,208.783898L618.833080,208.588526L617.331007,207.276738L615.345848,206.104502L613.259114,205.211370L612.187712,204.904356L611.313364,204.681073L609.994121,204.429880L608.871931,204.262417L606.558886,204.178686L604.207647,204.262417L599.198819,204.708983L589.008480,206.076592L581.394877,207.053455L571.139121,208.225691L567.745725,208.672257L540.156086,212.272693L528.385230,213.919404L526.546730,214.282238L522.495530,215.035818L519.592119,215.761486L516.728930,216.626707L513.918556,217.659389L512.377866,218.329237L506.637251,221.036539L503.014272,222.739068L500.611008,223.715929L497.651522,224.720700L494.892346,225.362637L492.001936,225.865022L489.736416,226.088305L489.056273,226.144125L484.389126,226.339497L483.843062,226.339497L482.182116,226.339497L481.613299,226.339497L480.248138,226.339497L479.370942,226.311587L472.714974,226.032484L470.480337,225.920843L463.733771,225.390547L461.145661,224.999803L455.820742,223.939211L453.225735,223.129812L452.947829,223.018171L450.792845,222.125041L448.519638,220.869077L446.388234,219.473561L444.398632,217.938493L437.178907,211.519114L433.621043,208.979271L431.802491,207.974497L429.818971,207.360469L427.492917,207.500021L425.049421,208.337332L422.587214,209.788671L420.301327,211.630755L418.085721,213.779852L415.879860,216.152231L405.713161,227.707102L404.444257,229.130527L401.942211,231.754093L396.776830,236.694210L391.591962,241.187760L386.995029,244.816090L386.511527,245.206833L384.932223,246.295332L383.914839,246.965177L381.389257,248.528149L378.580484,250.119031L376.429925,251.151709L374.542651,251.961104L370.798578,253.496165L368.916588,254.166009L367.022003,254.807944L365.274093,255.421968L364.914922,255.533609L359.858907,256.984938L358.609531,257.291950L356.535770,257.738513L354.608684,258.157165L349.746077,258.827009L349.303616,258.854919L347.554088,258.910740L346.937325,258.854919L345.622948,258.715369L345.137828,258.547908L344.582014,258.324626L344.061547,258.129255L342.829254,257.264040L341.292250,255.673159L339.669522,253.942728L338.338500,253.161243L336.741344,252.798410L334.867896,252.882141L332.819323,253.384524L330.636258,254.193920L327.870956,255.477788L325.973520,256.315094L322.606487,257.626872L320.858573,258.240896L319.657137,258.603728L318.139599,259.022380L312.616334,260.194607L311.018354,260.334158L309.951409,260.389979L308.338808,260.194607L307.962169,260.166697L307.469329,260.082967L306.903357,259.887596L306.567350,259.748045L305.309048,259.329392L303.483162,258.157165L301.986387,256.705836L300.684643,255.031225L299.930579,253.914818L295.744244,247.662933L292.459082,242.248349L291.301181,240.741196L289.687398,239.736428L287.571810,239.485235L285.144160,239.903889L282.589321,240.797017L279.879669,242.052977L278.204464,243.029836L277.172038,243.615951L274.511934,245.485936L267.551040,250.733056L263.891283,257.850153L259.117407,267.590797L257.643687,270.577181L251.121897,284.057757L248.524337,289.444399L247.333429,292.654054L245.716294,298.347699L245.051165,300.050209L243.107796,304.264619L240.422115,311.018833L237.810402,317.382302L237.391506,318.470789L234.642487,325.336630L231.432746,332.593202L230.262621,335.495828L224.374474,337.170420L220.760807,337.784437L213.736637,340.017225L210.020992,341.161529L206.463006,343.310586L190.785404,350.064763L182.111686,356.204918L180.715250,358.353971L167.530547,374.513713L154.062339,390.952513L161.167876,391.622345L163.018209,391.789803L164.677154,391.482797L165.643002,393.017827L176.787733,395.780880L180.798835,396.450711L186.058532,397.315910L187.736998,397.455458L173.542517,404.823594L130.999702,426.816317L125.203025,429.802633L120.518514,434.547245L118.617162,437.896381L108.949271,442.892172L96.120009,450.260260L89.920614,452.102281L80.286138,451.879006L58.226228,451.348727L53.478948,452.576741L48.396510,454.725764L42.300408,458.409803L30.994810,466.280243L28.988394,478.671981L33.617131,478.895256L41.428144,479.565079L3.831683,528.796898L5.004337,529.075989L5.324949,529.382989L1.222914,535.215987L0.102478,537.169622L1.219473,537.476622L3.763921,538.425530L4.817160,539.095347L5.695699,539.932619L6.346320,541.021071L6.753981,542.276978L7.434244,547.161059L8.348683,549.337963L8.819725,550.482232L9.513418,551.514865L10.427318,552.380044L11.530961,553.161496L14.668331,554.919763L15.787776,555.282580L29.346682,548.472783L33.495795,546.574970L33.255544,556.678029L37.231418,560.696922L40.242615,567.367162L39.882691,571.358140L42.511284,582.019341L40.084391,588.689561L38.507239,602.029982L35.697827,612.691136L34.608232,624.691893L28.302787,642.023181L19.685458,656.703112L14.250084,668.703792L11.558530,682.044059L4.796048,688.686275L0.000000,702.807938L72.552546,692.705091L113.599294,686.955950L121.266454,685.895429L124.791271,685.588435L134.807015,684.639547L141.456511,684.500005L148.049990,684.639547L157.026705,685.420985L160.988040,685.727978L167.200986,686.788499L169.642687,687.207126L173.517554,687.876929L176.871523,688.602549L179.247413,689.076993L189.812373,691.309669L204.833326,694.491231L281.588969,710.678102L291.373024,712.743321L307.266480,715.841148L312.511210,716.873756L328.404694,719.971582L333.399134,721.004190L346.453934,723.711297L371.562725,728.874333L377.555586,730.102298L385.618424,731.832611L398.630228,734.595530L416.775505,738.446871L423.228386,739.786467L432.646038,741.795860L470.978394,750.391593L489.017383,754.410373L504.842513,757.759355L552.302977,767.722567L568.115591,771.043634L571.560699,771.769246L581.850520,773.946079L585.283027,774.643781L587.327832,775.090311L593.459791,776.374084L595.491992,776.792705L601.131048,777.992753L616.817353,781.285908L618.045778,781.537081L623.715292,782.653404L627.812608,783.462738L640.104564,785.890740L644.179131,786.700073L646.256850,787.118694L652.467253,788.374557L654.532368,788.765270L660.512773,789.965316L675.054374,792.839844L678.431250,793.565453L684.368615,794.821314L688.305125,788.876902L690.721585,785.360486L697.069353,776.039187L709.722584,756.950018L712.965102,752.038177L714.556241,749.414806L715.704251,747.321690L717.493791,743.777345L718.754096,740.874888L720.791965,734.958338L721.830302,731.665161L725.488836,719.915765L730.836864,703.896366L733.476131,696.389004L734.154377,693.960971L734.642896,691.616662L735.235576,686.983859L735.708712,684.806998L736.204939,682.378961L737.497781,677.885694L739.771739,671.383011L740.639411,669.122420L742.093344,665.187316L747.839021,647.074644L748.047275,646.376928L761.865816,604.067324L765.966148,591.480446L768.276774,584.252052L768.623305,582.298430L769.062612,580.902986L770.858001,575.153753L771.026369,574.065305L771.063465,572.837313L770.452591,570.325510L767.958731,561.980735L769.169585,562.092370L770.233765,562.231915L776.980455,563.013366L777.963771,563.125002L779.138920,563.459909L783.735903,564.771630L784.933808,565.106538L789.010951,565.720535L789.792992,566.948528L796.954529,569.404515L801.402051,570.939506L803.060979,570.632508L806.497876,571.693047L811.717970,572.167499L819.425216,571.246504L827.097077,568.483520L832.158557,566.641530L836.737996,564.185542L844.045792,561.422555L847.491748,559.580563L850.108438,559.580563L855.154514,557.906025L862.626854,556.817574L862.842161,558.352568L864.143338,558.966566L875.740842,562.176097L882.318153,564.799539L890.374087,565.860079L900.962669,565.525172L903.597212,565.413536L907.490227,565.720535L921.659991,568.176522L924.580922,569.404515L929.950833,569.404515L933.204634,569.404515L945.162733,571.497685L950.159861,572.334952L950.435360,572.390770L951.272007,572.530315L951.534903,572.558224L953.651354,572.307043L952.160155,590.671090L960.136475,594.578328L962.752828,587.322027L966.897040,575.739840L968.155719,572.279134L969.351047,568.930063L970.579285,565.553081L973.183136,558.268841L975.755530,551.821864L983.381813,532.480898L985.918929,526.005988L983.843786,525.643169L980.666661,525.057078L977.897346,523.912804L976.019982,523.131349L976.428140,522.321985L979.348280,518.610070L980.614423,517.130886L982.266671,514.339971L985.192413,508.423228L988.994362,499.659741L990.002875,498.013097L991.768913,495.222175L994.752111,489.835691L995.436829,488.328591L997.497651,482.663010L998.086460,481.044271L998.399425,479.620897L998.216029,476.997423L997.491451,474.485586L996.136450,470.829465L994.895546,468.736265L994.565814,467.703619L994.784972,466.475608L995.535164,465.163869L997.756670,462.121749L998.770466,460.335550L999.498620,458.521440L999.902972,456.846878L1000.000000,454.390851Z " data-aland="5432520" data-awater="0" data-classfp="U1" data-funcstat="S" data-geoid="3523840" data-intptlat="+35.8927574" data-intptlon="-106.0856219" data-lsad="57" data-mtfcc="G4210" data-name="El Rancho" data-namelsad="El Rancho CDP" data-pcicbsa="N" data-pcinecta="N" data-placefp="23840" data-placens="02408059" data-statefp="35"/></g><g fill="#000" font-family="Arial" font-size="12px" id="mylayer-label" stroke="none"><text text-anchor="middle" y="501.26892323"><tspan dy="0" x="466.354301352"><![CDATA[El Rancho]]></tspan></text></g></svg>