<?xml version="1.0" encoding="utf-8"?><!DOCTYPE svg  PUBLIC '-//W3C//DTD SVG 1.1//EN'  'http://www.w3.org/Graphics/SVG/1.1/DTD/svg11.dtd'><svg enable_background="new 0 0 1000 1001" height="1001px" pretty_print="False" style="stroke-linejoin: round; stroke:#000; fill: none;" version="1.1" viewBox="0 0 1000 1001" width="1000px" xmlns="http://www.w3.org/2000/svg" xmlns:xlink="http://www.w3.org/1999/xlink"><defs><style type="text/css"><![CDATA[path { fill-rule: evenodd; }]]></style></defs><metadata><views><view h="1001" padding="0" w="1000"><proj flip="auto" id="robinson" lon0="-97.8476162356"/><bbox h="0.24" w="0.35" x="-1352.2" y="-628.9"/></view></views></metadata><g class="" id="mylayer"><path d="M1000.000000,287.664309L941.169429,287.517933L737.326758,835.120191L795.457397,836.242449L1000.000000,287.664309Z M0.000000,320.306140L70.370329,375.294866L143.105439,432.186710L140.287979,438.432140L112.879163,524.014335L214.018856,526.014837L224.076910,526.161216L252.360143,526.697936L256.625383,526.697936L262.002838,543.531442L352.863800,587.249857L387.526247,615.891347L407.369995,635.798924L433.680439,636.774787L482.326721,639.019270L483.628512,636.140476L545.702579,637.165132L557.474077,607.108601L583.944651,527.137070L630.254378,389.151864L633.073453,380.905973L659.232345,309.474313L667.095797,287.957061L660.048820,288.005852L607.748623,288.152228L557.617279,288.640147L562.739305,273.709827L565.215785,266.537424L600.929736,162.757551L384.395017,172.515852L233.874984,179.102708L218.839439,217.306538L176.770934,218.331163L129.568482,219.355789L121.963942,219.306997L108.583197,261.511865L98.005317,295.519810L35.432165,296.788401L3.941044,297.276320L0.000000,320.306140Z " data-aland="1196773" data-awater="0" data-classfp="C1" data-funcstat="A" data-geoid="2051600" data-intptlat="+37.4568942" data-intptlon="-097.8459295" data-lsad="25" data-mtfcc="G4110" data-name="Norwich" data-namelsad="Norwich city" data-pcicbsa="N" data-pcinecta="N" data-placefp="51600" data-placens="02395275" data-statefp="20"/></g><g fill="#000" font-family="Arial" font-size="12px" id="mylayer-label" stroke="none"><text text-anchor="middle" y="399.544974702"><tspan dy="0" x="437.752910159"><![CDATA[Norwich]]></tspan></text></g></svg>