<?xml version="1.0" encoding="utf-8"?><!DOCTYPE svg  PUBLIC '-//W3C//DTD SVG 1.1//EN'  'http://www.w3.org/Graphics/SVG/1.1/DTD/svg11.dtd'><svg enable_background="new 0 0 1000 1001" height="1001px" pretty_print="False" style="stroke-linejoin: round; stroke:#000; fill: none;" version="1.1" viewBox="0 0 1000 1001" width="1000px" xmlns="http://www.w3.org/2000/svg" xmlns:xlink="http://www.w3.org/1999/xlink"><defs><style type="text/css"><![CDATA[path { fill-rule: evenodd; }]]></style></defs><metadata><views><view h="1001" padding="0" w="1000"><proj flip="auto" id="robinson" lon0="-77.1300007796"/><bbox h="0.67" w="0.74" x="-1064.75" y="-634.04"/></view></views></metadata><g class="" id="mylayer"><path d="M1000.000000,168.393159L999.750744,162.413670L996.041182,166.353642L994.423815,167.489282L986.963314,171.823256L983.329882,172.727133L974.771780,172.217254L974.221835,171.776903L973.826484,171.452435L972.908765,169.667857L970.539749,167.512458L970.779567,164.824006L970.420451,163.317546L967.974892,158.728641L966.873916,155.808431L965.329135,151.613529L964.320141,150.083897L962.954771,148.554265L961.261278,147.650393L958.773407,146.769696L957.380868,146.653815L955.791079,146.769696L950.356995,147.673569L947.474812,146.398877L946.130266,144.730189L945.659057,143.617731L945.777467,137.730979L945.424981,136.201352L944.585239,135.065719L943.147760,134.185025L939.365275,132.910337L931.779462,126.281962L928.818165,125.285389L925.987964,125.146332L922.979470,124.381520L916.099469,121.600388L912.211477,120.696520L906.739473,121.206394L903.698418,120.951457L898.845181,120.209822L897.255398,120.325703L891.603654,121.994382L885.298526,121.345451L871.456677,127.209007L863.610999,130.523194L858.201220,133.582445L856.164154,134.347259L853.226766,135.112072L850.507039,135.112072L849.022785,134.857134L844.879411,133.466565L838.315574,135.506067L832.731011,136.015942L831.160388,136.525818L830.056622,137.174751L822.317266,143.015150L820.878350,143.919022L819.905471,144.173960L818.894667,144.034903L816.103834,142.505274L810.533486,142.899269L805.673014,142.644331L797.107986,141.763635L796.411923,141.902692L789.923696,145.587709L787.459749,146.468405L785.790804,146.862401L780.918383,145.726766L776.116243,145.332771L769.116903,143.432322L765.602386,143.061502L751.952402,143.571379L741.685452,143.200560L735.164517,141.925869L726.831005,139.770483L721.651101,137.870036L717.857369,135.251129L715.021670,132.956689L696.750960,146.537934L676.217868,161.741558L640.642418,188.278488L636.378164,191.662246L630.049186,196.830595L621.789260,204.038481L614.444932,211.060965L613.049296,209.044607L597.624215,184.222615L591.946895,174.975240L576.373520,150.083897L569.624351,138.936140L565.280407,132.122348L546.877082,102.943667L538.659984,89.640658L533.564576,81.250975L528.756877,73.695638L526.163441,70.682777L523.721841,68.388368L520.994747,66.372071L486.026977,45.838333L483.135330,44.795426L480.800139,44.169681L479.509067,43.961100L476.409742,43.845221L473.218036,44.053803L471.857857,44.285560L466.648815,45.189413L444.925204,49.615978L437.865187,50.960171L426.152209,53.231395L410.075247,56.336949L403.623063,57.588441L395.172973,59.071691L386.069524,60.346360L378.599608,61.087985L368.957419,62.015017L359.266596,62.849347L338.701204,64.657060L325.817608,65.769499L315.349077,66.766060L289.687802,69.014116L276.676367,70.311963L262.148775,71.401228L256.678478,71.378052L255.053262,71.354876L247.965390,71.215821L244.793110,70.960887L236.386032,69.987501L234.087668,69.825270L231.116501,69.917974L228.071696,70.335139L225.028280,71.076766L220.981390,72.444141L217.319702,73.973748L213.741027,75.804642L210.289479,77.913647L206.983816,80.300763L201.312401,84.935944L195.774717,89.826066L168.493113,115.087909L159.933945,123.014130L156.665122,125.864792L154.133701,127.904291L143.242117,135.853709L110.264486,159.053109L103.655278,163.688367L84.858928,177.200170L81.261854,179.425102L77.758202,181.256037L75.134361,182.368503L72.465006,183.179677L71.794277,183.295559L69.268015,183.735911L63.225171,183.944498L59.229949,183.944498L56.917290,183.898146L44.926064,183.851793L36.976613,184.037204L28.109471,184.547085L27.639623,188.371193L26.965537,192.056246L22.862960,209.693550L21.195336,217.527223L18.650672,218.361579L15.830578,219.636291L9.454404,223.321367L7.389480,225.105965L5.791038,226.635621L4.363856,228.420221L1.743990,232.615190L0.755561,235.164621L0.041594,238.594767L0.000000,240.124427L0.000000,240.124427L0.089707,241.654088L4.103034,252.593495L6.489007,262.397264L8.399884,268.006049L13.538377,277.299959L15.077828,280.985080L15.963399,282.816054L19.592902,290.163131L21.365352,296.258664L23.914125,301.867489L25.883902,307.731267L27.100171,312.552086L28.295946,323.375770L28.239075,327.199990L30.107209,336.123181L32.699625,342.172418L37.563728,350.191726L41.744065,354.155030L44.900839,356.310513L47.795416,358.860010L50.636194,361.664458L52.656180,364.584794L54.399747,368.015033L62.013543,379.093793L78.084512,399.211774L79.454871,401.251390L72.157000,412.724244L69.012354,416.919376L62.841990,424.034883L60.967700,426.468528L58.480999,428.878997L55.410749,431.428532L47.666152,436.759384L45.718896,439.053970L42.126993,443.898098L41.323549,445.798667L39.404261,452.543374L38.449130,454.977034L32.714546,466.032816L32.180927,467.446661L29.693327,477.111803L29.028409,478.525650L27.713558,479.916320L23.972593,482.581772L23.248919,483.740664L22.886188,485.015446L22.917376,486.290229L23.243990,488.306704L23.702075,489.465598L27.984818,495.839519L31.866492,502.700186L32.535472,503.974973L35.231488,507.289421L36.470687,509.329083L43.617237,516.977821L44.968562,518.623461L46.364883,521.033976L47.630345,523.838518L48.030337,530.212485L48.324181,531.487280L50.126925,535.172597L51.116035,538.487066L51.945866,542.427348L53.245792,556.056111L54.089073,562.059269L55.143605,569.429952L55.549580,570.310726L56.966915,571.724601L57.602995,573.115297L60.819435,575.919870L61.638555,577.194677L62.121290,580.509175L62.047523,582.548868L60.766104,588.899734L59.368831,593.349981L57.861161,596.803561L56.682708,598.704190L54.611368,601.369707L52.946122,604.058405L46.591442,619.078052L45.043696,623.134291L44.265144,626.332929L42.856857,635.372567L42.335454,637.667247L40.017465,643.508256L38.347808,650.763170L36.012334,653.961825L34.770111,655.097580L33.487857,655.978370L31.713324,656.743266L25.964470,657.763128L24.077385,658.528025L22.513750,659.408816L19.105359,664.137272L18.131260,666.177000L16.148474,671.763077L14.944724,673.686914L18.801474,672.922014L22.638988,671.763077L23.572370,671.647183L26.613797,671.902149L27.757601,671.508110L33.160372,668.077656L38.831680,666.802825L40.172722,666.177000L44.141541,665.018063L46.835723,664.647204L49.311869,664.647204L51.598390,664.786276L62.587319,666.316072L67.099471,667.335936L71.881320,668.726661L81.239646,672.296188L87.104957,673.571020L90.015078,673.825986L102.358798,674.220025L120.589753,673.965059L124.681675,674.220025L138.594980,675.888897L141.983674,676.769690L143.323110,677.534590L145.350962,679.968363L147.589235,682.123991L153.299805,686.713397L155.177118,688.753134L158.378602,693.458440L162.323372,697.792889L166.386837,700.852502L168.235210,705.302851L171.457576,709.011479L173.011451,711.792952L173.476839,713.322763L173.497895,726.442068L172.717040,732.816302L169.139575,744.011794L167.730105,747.187332L166.236479,750.131081L164.078685,753.167547L163.495128,754.164251L160.352740,754.396042L151.274897,754.720550L142.443963,754.836446L141.392443,754.905983L138.946166,754.998700L134.718287,755.485462L131.300593,756.157658L128.881690,756.945749L122.290669,759.541816L114.351020,762.856439L109.058425,765.174358L104.580073,767.399562L98.400727,770.922804L93.396105,774.075180L89.506381,776.671255L91.160734,779.429588L93.136026,782.048846L99.295659,788.886738L102.588178,792.085485L114.092820,803.744701L117.450797,807.175251L126.006255,815.682098L128.262998,817.443736L129.806863,818.347734L131.939869,819.159015L134.240176,819.645784L137.070801,819.784861L139.381224,819.576246L141.727632,819.043118L143.600492,818.394093L145.892123,817.327839L146.694694,816.748352L147.712230,816.006610L149.815227,814.152255L151.670799,812.112465L159.947306,800.685023L161.279678,799.363799L163.145921,797.880320L165.385324,796.535918L167.261218,795.678282L169.194918,795.145157L171.650839,794.820646L174.039843,794.797467L176.304642,795.145157L180.292768,796.095510L181.066460,796.211407L162.662766,826.367832L157.897257,834.156147L151.174392,845.398231L145.807678,854.113762L149.554026,854.925048L154.941510,846.070439L175.144324,846.139978L192.024713,846.348594L210.961034,846.649929L229.513028,846.719467L270.529654,847.414855L274.052380,847.693010L278.357957,848.318859L283.305458,849.524198L296.324830,853.812426L306.363428,857.103934L308.610604,858.239736L310.417713,859.537796L312.027618,861.067653L312.660946,861.809402L314.752179,865.077735L318.813144,873.097909L321.336060,878.081550L323.013623,881.419433L325.384939,886.078566L325.739455,887.075296L326.031657,888.489263L326.098293,890.366826L325.900739,891.919872L325.209958,894.284213L324.487140,895.837260L321.805597,900.519586L321.166976,902.304434L320.872617,904.066103L320.935698,905.758233L321.350634,907.334465L321.877016,908.122580L324.088407,910.440569L329.256340,913.708934L338.217091,919.341654L340.775224,921.033790L342.282258,922.331866L343.302549,923.560404L344.473039,925.646600L345.076163,927.616897L345.340048,929.262675L345.389987,931.001174L344.543928,938.928735L345.218145,938.140615L346.342723,938.210155L346.897485,938.766475L346.894037,939.438696L348.993683,939.971837L369.348604,947.296731L381.856169,952.859950L386.619427,954.714357L387.638612,955.154779L391.636156,950.263780L393.090397,947.853053L398.584183,936.772994L399.400608,934.362273L401.241475,923.792203L401.559307,919.967513L400.652885,910.417389L400.898842,907.241745L401.221088,905.711874L404.032949,898.062524L407.276089,892.592087L412.148748,886.866678L413.798355,885.220914L415.829740,883.551971L418.400573,881.767130L428.633876,875.925835L431.880607,874.535052L442.237398,870.965376L445.102457,870.455423L452.777755,867.673860L461.008021,863.269721L463.354294,861.878941L472.743087,853.464732L480.982995,844.934640L482.573765,843.033914L488.829232,834.225686L491.480398,829.914295L495.426873,824.675729L501.242330,816.029790L508.249831,802.794346L511.137866,798.969750L511.876442,797.625347L512.242940,796.929967L514.684712,791.969588L517.279436,785.085332L518.141196,783.439603L522.179536,778.340162L530.464280,770.181068L532.252370,768.906211L533.431096,768.257193L548.480740,759.727249L550.783461,758.753724L550.320769,784.204519L550.438987,785.108512L550.881693,786.058863L551.627567,786.800601L552.549324,787.055573L553.818357,787.078752L555.129944,786.754242L557.831637,785.433022L565.334325,780.750806L568.376621,778.363341L571.196830,775.767265L574.678567,771.965869L576.496024,770.389681L578.472702,769.045286L580.583251,767.955863L586.858077,764.293549L588.833746,763.018693L594.240540,758.846441L598.230331,755.369566L599.557573,754.396042L601.437432,753.260264L603.874481,752.078128L610.267047,749.783394L614.088154,748.021780L618.752333,745.472078L621.901139,743.501854L626.834461,740.071349L632.523721,736.687204L635.184795,734.716984L639.722632,730.961979L644.712165,726.673858L663.651704,708.617437L672.905743,699.160443L681.541772,689.633930L675.694302,684.534588L678.255442,681.266376L682.419064,675.726645L684.618218,672.412082L687.252824,667.961762L689.376911,663.789591L694.693675,651.620780L698.976397,643.485077L701.349936,638.501677L703.368262,638.594391L718.283430,640.170536L720.827521,640.657287L723.249438,641.375823L725.243465,642.279789L725.853887,642.442040L726.841503,642.465218L754.464356,643.485077L755.343421,642.372504L758.685764,637.412283L760.245117,634.236817L760.883843,632.452067L760.885304,631.061353L761.506215,627.491856L762.987481,623.667398L766.225893,617.687342L766.995943,615.902598L767.734519,612.843038L769.348598,607.627884L770.006624,606.237178L771.322703,604.313367L773.900142,601.647848L776.688492,599.098223L779.205632,597.568448L782.229249,596.038674L785.541350,594.879754L790.837277,593.604943L801.338844,589.525550L803.724672,587.995778L805.578675,586.489185L807.860547,583.939568L817.668373,570.820648L820.708155,565.605539L822.931230,562.800972L825.383971,560.112298L828.060299,557.956724L838.623167,550.956909L840.556267,549.172190L842.076176,546.993443L843.155520,544.582915L844.519274,540.248603L850.377405,528.288705L852.686702,524.719284L855.475090,522.169699L859.051322,519.620116L863.211589,517.325492L872.517678,513.756079L877.597090,511.461457L880.095481,509.931710L881.785244,508.541032L883.244844,506.640438L886.635062,500.127435L888.313712,496.071298L889.978658,493.382661L892.030935,490.717203L895.929640,486.637897L897.745158,484.343289L902.510403,475.303933L905.279584,471.502773L907.022610,469.463127L913.274732,464.364017L915.746793,462.069420L917.082203,460.539688L918.970244,457.990138L921.063666,453.794970L922.940657,448.579988L923.646471,445.636423L923.927031,440.560516L923.920703,434.580687L923.345963,431.127224L922.213097,426.932080L921.381669,417.521992L918.873090,410.777334L917.428700,403.522781L916.871656,401.854004L916.261339,400.834196L911.275270,394.622642L909.438161,392.837981L902.492576,388.503806L899.393688,386.209244L895.962955,381.388351L895.255882,379.719581L895.046635,378.213054L895.012631,372.859090L890.990277,363.194158L890.637111,361.270445L891.073892,358.350111L894.226229,352.741220L896.406163,347.781297L899.007035,341.407572L900.490460,336.192712L901.969252,331.719526L904.425123,325.855718L904.919510,324.974989L909.385405,319.760147L910.912220,316.700776L912.772088,309.701313L916.843289,299.016722L918.493934,291.368331L919.219224,288.818870L920.193361,286.779302L921.266286,285.249627L926.376718,279.154108L927.693040,277.230428L928.798487,275.190865L931.170383,269.095359L932.315399,266.916739L936.532565,261.192071L938.158234,258.642626L939.645564,255.722355L941.213761,251.133360L942.874148,247.077435L944.255989,244.527997L945.605306,242.488449L950.479021,236.763810L951.406460,235.350034L954.495330,228.976460L956.309483,227.215037L956.810498,226.311149L957.231943,225.291378L957.687674,222.371127L958.090363,221.351357L958.800200,220.702413L960.509289,219.705820L964.419106,218.292049L972.622817,213.587208L975.224622,212.683323L982.759960,212.173439L983.936670,211.663555L985.073374,210.898730L986.132560,209.878962L987.823772,206.703779L988.476022,204.872835L990.361270,199.565419L993.940287,188.371193L996.116493,180.722980L999.663071,170.038678L1000.000000,168.393159Z "/></g><g fill="#000" font-family="Arial" font-size="12px" id="mylayer-label" stroke="none"><text text-anchor="middle" y="431.501891273"><tspan dy="0" x="447.452270145"><![CDATA[N]]></tspan></text></g></svg>