<?xml version="1.0" encoding="utf-8"?><!DOCTYPE svg  PUBLIC '-//W3C//DTD SVG 1.1//EN'  'http://www.w3.org/Graphics/SVG/1.1/DTD/svg11.dtd'><svg enable_background="new 0 0 1000 1001" height="1001px" pretty_print="False" style="stroke-linejoin: round; stroke:#000; fill: none;" version="1.1" viewBox="0 0 1000 1001" width="1000px" xmlns="http://www.w3.org/2000/svg" xmlns:xlink="http://www.w3.org/1999/xlink"><defs><style type="text/css"><![CDATA[path { fill-rule: evenodd; }]]></style></defs><metadata><views><view h="1001" padding="0" w="1000"><proj flip="auto" id="robinson" lon0="-78.132542792"/><bbox h="0.48" w="0.52" x="-1072.95" y="-652.85"/></view></views></metadata><g class="" id="mylayer"><path d="M1000.000000,841.011438L998.695685,839.437941L996.725909,837.077698L999.561688,828.980767L993.729646,825.407633L991.260668,821.801723L981.197597,819.277588L978.093108,814.786599L975.512676,802.362656L977.556230,790.659936L976.620931,787.611335L973.522955,781.874729L978.464111,771.057155L965.351680,753.978575L955.191986,749.323776L947.639944,742.833293L946.074455,729.524565L947.695946,717.461530L945.546406,712.806784L953.168307,696.941361L953.566550,690.123187L951.839268,683.468925L948.901086,675.896851L950.359799,663.145649L952.949904,653.410189L948.544834,645.149823L947.691919,632.562638L951.638695,616.533716L944.439702,608.797904L937.265301,575.888136L934.364472,572.479175L922.884884,567.267405L915.676638,566.382389L904.176937,558.089467L898.335563,552.713829L891.227009,549.665453L886.403522,544.093161L886.499742,539.405887L883.848168,529.146353L885.567547,521.574642L885.364597,520.492970L885.145014,519.378521L884.852234,517.805182L883.215608,515.838509L876.286821,514.035726L873.352913,511.347943L872.594350,506.496828L868.263121,493.713519L867.042146,484.175238L868.419140,479.389718L870.418127,472.473673L876.651356,449.463997L867.690645,405.215085L867.590981,398.725295L869.743215,392.268296L875.467930,383.254740L876.845074,380.567066L873.189755,372.995705L869.671031,360.606243L869.817582,355.755355L873.007886,345.627513L875.652645,337.204056L882.222427,327.862895L883.649633,323.175937L882.705260,318.325106L879.103666,306.820800L881.512751,293.317223L884.613333,285.582190L895.477458,275.683997L896.928059,270.833238L894.973080,260.738439L896.640245,252.118554L908.095989,213.804596L911.386041,209.380002L912.779905,207.511842L911.156736,207.511842L745.237536,207.282419L727.103075,208.724507L726.997421,202.956159L731.569225,191.091747L733.895080,185.028460L718.707263,189.026950L713.647781,191.747238L712.494635,184.700715L711.697578,176.572651L711.499038,169.886679L710.854640,164.315046L709.920562,160.742651L707.117852,153.171809L705.771683,147.632979L705.632304,145.732081L705.842722,140.586553L706.352358,136.293156L708.229645,128.558503L709.743853,123.937384L711.700437,119.349045L714.788126,113.580858L718.381444,107.550491L719.609140,105.616843L699.039037,31.909683L679.489942,39.480238L680.421775,37.120583L677.428270,37.251675L667.925563,37.612178L667.463587,36.071848L661.366793,36.432350L657.189111,36.956718L646.632042,37.284448L636.690261,37.776042L625.507795,38.497048L620.791238,39.218054L607.299106,45.772661L601.677484,48.066777L601.540789,49.476020L600.918380,51.344087L600.083223,52.687786L598.702557,54.162577L594.667295,57.276028L598.208836,60.586122L598.970328,61.405453L600.443443,62.945795L605.221873,68.222291L606.798026,70.123143L608.264456,71.860129L612.331121,77.202188L615.622858,82.380387L592.726417,95.784754L571.659570,108.074870L564.421176,111.745527L556.807017,114.990130L557.686600,124.068479L559.286068,126.067686L529.085542,139.078947L487.088814,160.677102L566.693897,321.537142L573.434790,335.401374L570.128349,337.171280L565.873886,339.432828L556.280649,343.497064L523.865196,357.230286L484.377838,373.913444L469.502288,380.206524L410.813164,387.941786L386.269521,379.845983L366.821598,373.454574L341.942601,392.235519L340.934361,396.070385L331.228297,432.747670L320.271792,474.145322L292.378514,512.790168L287.817827,519.116298L117.770958,551.730482L35.277801,552.254934L20.408263,636.135558L19.949150,638.692328L14.283665,670.586576L0.000000,681.141576L8.881544,722.509643L8.788804,745.717950L20.830617,824.620889L160.602062,823.375210L168.245985,819.769302L177.326853,815.114408L182.592482,813.114773L186.078530,812.065785L193.276919,811.147920L203.286213,810.787330L208.052958,809.902247L213.445001,808.099300L218.507769,806.853628L219.405908,806.788066L222.106982,806.656943L225.027631,806.853628L227.628983,807.574806L230.060781,809.377753L233.084628,810.459521L237.472262,810.820111L239.208658,810.623426L242.688154,810.820111L245.745158,810.656207L252.341564,811.016796L255.129204,811.737976L257.594212,812.819745L260.475130,814.983285L261.449885,816.065055L262.012347,819.113683L263.226662,820.719950L269.054915,823.604677L277.441195,826.128816L291.568993,828.849642L298.564654,829.734731L304.535807,831.013193L312.473005,833.176745L316.850744,834.094616L332.265866,836.258170L339.178424,837.503853L346.503514,839.142911L352.331561,839.667409L362.909928,841.109781L371.658876,843.666714L372.261005,843.961745L381.233000,847.797149L388.604919,851.206401L392.280943,853.206060L398.139672,859.139481L400.385294,860.942457L402.214960,861.663647L405.348538,861.860336L413.451732,860.942457L420.530421,860.417955L430.167200,860.057360L438.094266,860.417955L449.883672,862.778215L452.222321,863.663313L455.053425,865.466291L462.841679,871.793113L467.256427,875.038482L469.934501,876.644778L473.188066,878.283855L475.576602,879.005049L491.610620,880.971944L494.049030,881.529231L496.573983,882.414334L498.819660,884.217323L499.867715,885.495806L500.336927,886.577600L503.687333,890.347491L507.383706,894.117387L508.455696,899.165775L508.974878,900.608174L509.780174,902.247263L517.694845,907.459574L518.569873,908.344684L521.577457,910.704979L523.483741,911.786782L524.195744,912.507983L530.187343,915.556702L537.669668,920.965726L540.231587,923.653851L544.586647,927.095964L549.833150,930.144697L562.864468,936.996160L569.897640,941.520100L573.178136,944.208241L574.552317,945.814571L576.419014,948.338805L577.257488,949.256708L578.911293,951.780945L581.862710,955.550912L582.990783,957.353941L587.426003,961.845127L593.331300,965.090587L597.253563,966.369103L600.201032,967.090317L614.977239,965.844583L621.876204,964.598851L627.185039,963.156424L637.742987,960.992785L642.329925,959.386448L644.817855,957.944024L654.343040,948.764974L655.866320,947.519248L657.263264,946.601345L657.805311,945.781789L659.105553,943.782073L665.674563,939.684297L668.075992,938.176317L670.683874,937.651803L676.774648,937.225635L681.175575,936.930595L691.752372,929.718530L713.441853,916.769634L724.005759,911.524526L743.995426,898.739612L748.453186,899.919756L755.349556,902.443954L755.848573,902.640645L762.076178,904.476427L768.499990,906.017173L772.112732,906.738373L775.858534,907.459574L780.768771,908.901976L785.353113,910.803325L789.648146,913.130840L791.990356,914.704372L794.701716,915.851740L797.702391,916.572942L800.905874,916.802416L806.351325,916.572942L820.109783,916.572942L835.425139,916.966326L845.421259,916.736852L848.208682,915.884522L850.929485,914.638808L853.487191,912.966930L854.471659,912.180164L861.013972,908.082429L861.941972,907.656265L868.481219,904.705899L874.248892,902.542300L879.933306,899.952538L884.403596,897.592251L894.105716,891.855449L902.477295,886.380910L910.665839,880.545783L918.135863,874.710667L923.457220,869.990131L927.511351,866.023575L932.263780,860.811331L936.650316,855.664659L939.460590,852.812684L943.208836,849.501775L947.239897,846.485899L951.490574,843.797839L962.922317,837.274385L963.979959,836.422076L965.457213,837.864446L966.525373,839.601847L967.021354,841.208125L967.214745,843.371683L966.942514,845.928618L967.474918,846.715368L968.319885,846.912056L973.582194,846.059743L977.580579,845.863056L978.701526,845.502462L1000.000000,841.011438Z " data-aland="5398824" data-awater="3415" data-classfp="U1" data-funcstat="S" data-geoid="5116240" data-intptlat="+38.8501128" data-intptlon="-078.1315813" data-lsad="57" data-mtfcc="G4210" data-name="Chester Gap" data-namelsad="Chester Gap CDP" data-pcicbsa="N" data-pcinecta="N" data-placefp="16240" data-placens="02630625" data-statefp="51"/></g><g fill="#000" font-family="Arial" font-size="12px" id="mylayer-label" stroke="none"><text text-anchor="middle" y="577.672199162"><tspan dy="0" x="560.376756233"><![CDATA[Chester Gap]]></tspan></text></g></svg>