<?xml version="1.0" encoding="utf-8"?><!DOCTYPE svg  PUBLIC '-//W3C//DTD SVG 1.1//EN'  'http://www.w3.org/Graphics/SVG/1.1/DTD/svg11.dtd'><svg enable_background="new 0 0 1000 1001" height="1001px" pretty_print="False" style="stroke-linejoin: round; stroke:#000; fill: none;" version="1.1" viewBox="0 0 1000 1001" width="1000px" xmlns="http://www.w3.org/2000/svg" xmlns:xlink="http://www.w3.org/1999/xlink"><defs><style type="text/css"><![CDATA[path { fill-rule: evenodd; }]]></style></defs><metadata><views><view h="1001" padding="0" w="1000"><proj flip="auto" id="robinson" lon0="-104.741647493"/><bbox h="1.71" w="4.28" x="-1429.25" y="-679.81"/></view></views></metadata><g class="" id="mylayer"><path d="M1000.000000,382.463217L982.686758,383.116456L979.435145,391.140985L978.759572,392.795396L969.810133,414.879644L969.655100,415.262355L968.524178,418.065055L967.467983,420.643563L967.415914,420.767270L967.381382,420.844587L967.212751,420.844587L965.917791,420.844587L959.839694,434.661484L959.665064,435.059687L961.644403,435.051955L947.492109,470.010995L944.695328,476.997922L944.155619,478.242982L938.056708,493.323355L932.381343,491.679941L920.742404,488.311939L920.665117,488.292605L915.038907,486.703356L914.031964,486.378547L914.326219,485.740531L918.371398,476.939922L918.567317,476.522326L906.031531,476.398593L903.994161,476.379260L896.132783,476.298061L895.361563,476.286461L873.915020,475.880466L873.701545,476.344461L869.249235,485.991870L867.516299,489.746525L864.489296,496.308593L863.794063,497.816692L870.724140,497.874696L871.541591,498.296192L873.361947,497.832160L876.295865,497.967503L876.634912,498.191785L877.070721,498.470204L876.290872,500.125260L878.413648,501.993010L878.252910,502.681335L880.201646,503.926512L881.533501,504.792725L882.449964,505.983773L882.319114,506.269935L875.027805,522.136902L873.046277,522.063424L870.987101,521.842989L869.573754,521.672829L868.629491,521.556811L868.068661,521.487201L864.040976,520.771758L862.924645,520.570660L859.602186,519.936432L854.087802,518.872942L853.980413,518.849739L852.944832,518.660244L849.660315,518.033755L846.868999,517.500079L846.650542,517.376329L846.547410,517.322188L842.224691,516.490740L838.669759,515.771442L835.525022,515.152694L839.298918,507.093618L841.130206,502.975227L831.987893,502.890153L831.218101,502.882419L823.208449,502.847616L822.949244,502.843749L819.592918,510.322634L817.557291,510.341969L816.050162,510.353570L815.952346,510.558527L815.861432,510.748016L815.767067,510.945239L814.536891,513.516883L811.869271,513.683171L810.445365,513.772115L809.300678,513.884263L805.236355,514.363791L806.821795,510.361305L806.993897,510.353570L808.432208,510.353570L810.787233,510.345836L811.274756,509.274649L812.397229,509.297852L813.460831,506.942802L815.327536,502.816680L807.763755,502.816680L804.408035,510.365172L803.501136,510.365172L799.101206,510.384507L797.509886,510.392241L791.598726,510.403843L790.311431,510.407710L791.994679,509.038757L792.599190,508.447093L792.637265,508.404555L792.683430,508.358150L793.081277,507.944373L793.224570,507.758753L793.664263,507.194161L793.983528,506.706912L794.512303,505.686011L795.110542,504.452427L795.305332,503.930379L795.419649,503.160844L795.422229,502.812813L795.340997,502.495719L795.148773,502.213429L794.764868,501.861532L794.381560,501.629513L794.193171,501.602444L793.834675,501.571508L793.461943,501.629513L792.681210,501.981409L792.155851,502.310103L791.390976,502.754808L790.058297,503.559146L789.657091,503.795033L789.066096,504.135331L788.486373,504.471762L787.886371,504.796592L785.632034,505.933501L784.755569,506.293137L783.913889,506.567698L783.066165,506.741715L782.315462,506.733981L782.024866,506.672108L781.734699,506.552229L781.885758,506.235131L782.677091,504.711518L782.948637,504.224272L782.972799,504.170134L782.083273,504.174001L781.467676,504.170134L781.801081,503.095104L782.911354,503.102838L783.310570,503.106705L782.916109,503.833704L783.146675,503.837571L783.641664,502.828281L788.534548,502.267566L788.747099,502.240497L788.752438,502.178626L788.786682,501.880867L788.799247,501.702986L788.859486,501.161608L784.645734,501.683651L784.001986,501.757124L783.372800,501.869266L782.563585,501.942739L780.441793,501.969808L779.163789,501.981409L778.597219,502.031680L778.209924,502.051015L778.039548,502.054882L778.364985,501.482568L778.466758,501.347223L778.829139,500.856117L779.166819,500.434617L779.516042,500.001517L779.675795,499.800435L780.247386,499.332534L781.155367,498.388999L781.434099,498.106712L781.732734,497.801225L782.018100,497.511205L782.455239,497.066509L782.745031,496.695284L783.059903,496.289259L783.253369,496.034043L783.319979,495.948971L783.595588,495.573881L783.818666,495.245195L783.972116,494.951311L784.146982,494.545288L784.251033,494.162466L784.316950,493.914986L784.341616,493.481896L784.312401,493.133878L784.151807,492.766526L783.979990,492.538381L783.776293,492.403041L783.354223,492.279302L783.049723,492.205832L782.812962,492.151696L782.342081,492.058892L781.931389,491.973821L781.463796,491.923552L780.925659,491.888750L780.090348,491.935152L779.492878,492.004756L779.071335,492.093693L778.535990,492.252234L777.953245,492.310237L777.569300,492.279302L777.307623,492.209699L777.003830,492.070492L776.786116,491.881017L776.655983,491.780478L776.614572,491.645139L776.470316,491.447930L776.269489,491.184985L776.079665,490.925907L775.915402,490.709364L775.719319,490.492822L775.498322,490.260812L775.283854,489.978534L774.738163,489.340509L774.499593,489.019564L774.453088,488.574881L774.308463,487.751254L774.379613,487.035899L774.574365,486.471350L774.971270,485.767598L775.290600,485.280386L775.676546,484.708107L776.040760,484.120362L776.832888,482.488603L777.472638,481.119789L778.066903,479.959783L778.298707,479.518982L778.484882,479.109115L778.610263,478.799781L778.684054,478.328049L778.643398,477.898850L778.501225,477.233787L778.131413,476.209129L777.758351,475.640735L777.610563,475.408738L776.876999,474.685682L776.767698,474.581283L776.460613,474.264222L776.058782,473.881429L774.190627,471.395220L774.009802,468.657709L775.737908,464.930407L780.068590,460.576798L781.723100,456.865071L781.183663,456.370178L782.662164,456.536431L784.041660,456.667887L784.567853,456.679486L784.858858,456.683353L786.111819,454.077443L790.117608,454.127705L792.073871,449.890254L791.011951,449.867056L788.705929,449.843859L786.702727,449.805196L786.532634,449.801330L786.909483,449.128602L787.541106,447.906870L788.016032,446.978977L788.146465,446.708342L788.838086,445.273980L790.175000,442.501934L790.368273,442.525131L790.513346,442.200374L793.387989,435.701452L792.703722,435.616399L790.587558,435.353507L786.292876,435.017161L784.722621,434.928242L784.265172,434.862519L784.006447,434.800662L781.504659,434.646020L780.646511,437.912847L776.443268,437.735007L775.764364,437.723408L775.816635,437.549435L776.355988,435.743979L776.386988,435.631863L776.760355,434.383129L777.769496,430.942375L778.500116,428.452687L779.037191,426.624095L780.161785,422.576494L780.529058,421.277563L781.147323,419.089497L781.580096,417.558634L782.775425,413.495702L783.096162,412.614313L783.202647,412.347578L782.055616,412.258666L781.615911,412.231606L781.519006,412.227740L781.365379,412.208411L780.561423,412.134962L779.771374,412.073111L773.805060,411.597627L767.468795,411.551238L744.238543,411.439132L735.840826,411.385012L728.796503,411.342489L724.130075,411.311563L715.625912,411.253578L714.114258,411.218786L711.921451,411.191726L711.611375,411.187860L710.158833,411.056426L704.293129,410.526824L702.532791,410.372196L697.363143,409.908312L697.169610,409.892849L691.216375,409.409637L685.846926,408.972814L683.497635,408.783396L682.032653,408.644231L679.168445,408.261529L677.766589,408.002529L675.700913,407.264187L672.956535,406.286176L671.418788,405.733389L670.836787,405.547839L670.817345,405.513048L670.426672,405.404810L663.323032,403.545446L659.678927,402.594508L658.075801,402.180889L657.917821,402.149965L657.299378,401.960551L657.097055,401.879373L654.815843,401.075333L652.613630,400.286757L649.902066,399.328099L648.798550,398.957006L646.788251,398.408099L646.305324,398.299864L645.614064,398.145243L644.434288,397.994487L643.736813,397.924907L642.722703,397.901714L641.496454,397.805076L640.843394,397.828269L640.218343,397.824404L640.049993,397.816673L634.976392,397.607934L628.848152,397.352810L628.553075,397.151802L628.726786,396.742058L629.349579,395.249973L629.599917,394.654688L634.347388,383.336780L639.613539,371.501402L646.772706,355.388011L646.903259,355.074951L641.990775,355.040167L633.560453,354.982193L631.688593,354.970598L632.198976,353.915474L633.963649,350.008070L639.530266,337.663974L641.031097,334.332631L627.959983,334.259202L626.211970,334.255338L626.818696,332.914310L629.408607,327.179266L629.022829,327.202453L598.294876,327.542533L610.948692,299.750077L610.070680,299.750077L604.987117,299.750077L601.896110,299.719163L595.741278,299.653473L583.273144,327.221776L567.796040,327.001497L552.516794,327.291338L548.235675,336.887172L540.065147,355.179304L539.900782,355.546473L543.461931,355.515554L555.113092,355.407335L556.780725,355.391876L567.135027,355.295252L568.006463,355.302982L570.447523,355.322307L569.734273,356.972640L564.756721,367.980262L561.268983,375.702865L557.947559,383.054611L555.695570,383.039150L542.770986,382.892268L542.391270,382.923190L541.974446,383.854734L532.992598,403.874023L531.725126,406.707532L529.555026,406.757786L501.723712,407.194605L500.393297,410.140253L499.778251,411.500984L499.717799,411.500984L499.607407,411.740658L497.496874,416.395029L493.348731,425.541636L493.293681,425.657614L493.387681,425.653748L493.334084,425.773591L493.251154,425.823848L472.263912,439.919355L471.360812,441.867885L470.893510,442.927211L470.775332,442.672045L470.050989,441.168114L469.693708,440.479943L469.391497,439.853631L467.887475,436.749156L465.246368,435.106080L459.929089,434.630556L459.649092,434.630556L458.354108,434.630556L458.176815,434.472048L457.509121,434.414058L456.452673,434.015856L454.384485,431.077684L454.037727,430.764539L453.739462,430.563508L451.781068,430.118920L451.254965,429.972012L448.399908,428.309646L446.979056,428.626655L444.932114,431.816090L444.870704,432.109907L444.786612,432.504240L444.371643,433.432085L444.520304,433.768430L444.489877,433.907607L444.580767,433.946267L445.486732,436.018469L445.444879,436.923130L445.085068,437.955374L444.936874,438.407707L444.841507,438.628074L443.602796,440.750571L442.262567,441.527665L436.792118,443.514868L432.597391,445.061340L432.308158,445.409297L432.255042,445.471156L431.681212,446.170939L428.350795,446.723807L425.514903,447.551178L423.799198,448.150443L421.416080,448.861831L416.931214,449.577087L413.726825,450.253682L412.329905,450.702169L411.581436,450.945744L410.520541,451.340104L408.692159,452.020570L406.652128,451.587546L406.451598,451.545017L406.270784,451.529552L405.859773,451.545017L405.035949,451.537284L403.923331,451.463825L403.064507,451.456093L402.360270,451.351703L401.582850,451.247314L401.013006,451.077197L399.935851,450.767896L399.869860,450.744698L399.366283,450.590047L396.748490,449.406972L395.282955,449.147933L392.090187,449.186596L396.796652,438.620342L396.688468,438.442502L395.088077,436.528790L392.558400,432.488776L390.697477,432.566096L385.522628,434.112507L383.115679,434.243952L382.721488,434.100908L373.121639,454.576198L372.742650,455.388127L372.285585,456.381777L372.152458,456.679486L387.018020,455.925548L388.383797,455.859821L388.264506,456.126598L385.605066,462.088567L382.259258,469.593409L382.654996,469.605008L382.806550,469.593409L382.879735,469.593409L382.921100,469.593409L390.821795,469.415548L399.881808,469.206755L405.769868,469.075293L409.319013,468.994096L409.537112,468.990230L411.245728,468.947698L413.419180,468.897433L416.492686,461.972575L419.227319,455.813424L419.599266,454.974430L423.779812,454.897103L426.597417,454.850707L432.121535,454.750183L433.224740,454.730851L435.580070,454.665124L429.291683,468.688641L428.570601,470.266186L426.488380,474.824880L424.146883,475.350739L413.652883,477.991650L409.596233,486.904428L405.683467,486.873494L405.564532,487.445778L403.062359,499.738564L402.992219,500.102058L401.228538,500.125260L397.478430,500.171664L396.122051,500.194865L395.484495,501.351090L392.010280,507.631140L389.328220,512.480488L387.718907,515.384724L386.576798,515.376990L376.487287,515.303513L367.632168,515.237771L357.910060,515.168162L356.885168,517.020546L349.740178,529.937305L349.363225,529.933438L332.633027,529.658854L322.570603,529.488689L319.385968,529.422944L326.388972,515.678630L333.929189,500.898654L348.954864,471.221224L333.935667,471.948138L317.570281,472.725319L314.429099,472.876116L317.412303,466.318473L317.776573,465.518111L320.864103,458.763458L325.825516,447.976463L328.816002,441.326625L328.893751,441.287964L340.025818,417.032885L342.020746,417.032885L342.497646,415.981390L353.524376,391.728532L354.761382,389.015003L356.922236,388.999542L366.303953,388.404270L366.475260,388.021596L372.265670,374.995530L367.154707,373.584732L364.163661,372.761448L360.049753,381.999380L359.890824,382.347258L357.245489,388.241923L354.600198,388.280577L338.801011,388.485443L338.614749,388.489308L337.143461,388.527962L338.272492,386.119829L338.416355,385.748754L342.191836,377.380375L343.194827,375.161734L343.086655,375.161734L340.856965,375.146273L340.318397,375.126947L331.993745,375.088295L328.472076,375.080565L328.182557,375.080565L321.896500,389.034330L318.510104,396.548782L309.380734,416.781608L309.849896,416.785474L324.072111,416.785474L327.027905,410.379927L327.132768,410.074537L327.178587,409.950834L327.114059,409.931506L326.828881,409.943103L326.515406,409.989491L326.569040,409.869655L327.666284,408.292454L328.083881,407.608231L328.291002,407.202336L328.664617,406.502653L329.654240,404.248988L330.114212,403.448806L331.912589,399.459527L333.810846,395.261570L334.005878,394.882752L334.326841,394.144445L334.724225,393.228328L335.382966,391.771051L336.628465,389.088446L338.397426,389.088446L353.973800,389.018869L352.738242,391.736262L341.765448,416.302250L339.371200,416.391163L337.633770,420.245381L327.947769,441.581791L325.203473,447.709693L320.048023,458.894915L317.099378,465.502645L316.734555,466.318473L307.678345,466.376471L306.776134,466.380337L306.136569,466.380337L304.699796,466.384204L304.355546,466.712855L303.129543,467.853474L300.399117,467.996534L298.203544,472.899315L297.958883,472.934115L286.498042,474.256489L285.565804,474.299021L284.182353,474.368620L283.880548,474.310621L283.367702,474.326088L283.233508,474.341554L282.477729,474.387953L282.451518,474.453685L263.807419,475.373938L260.517920,474.376353L260.055629,475.559536L257.148713,475.698734L262.500304,458.233765L262.650986,457.669274L240.145474,457.050656L238.929654,457.015859L238.622918,458.249230L235.973409,468.789171L234.445638,471.379753L211.308112,510.558527L207.781458,516.533279L199.794188,530.424596L199.606357,530.382055L184.989887,530.177083L184.354548,530.146144L183.523205,530.033990L183.321372,530.385922L182.999765,530.884816L181.520359,531.503600L180.570063,531.515203L178.607005,531.550009L178.244872,532.338961L177.543358,533.858861L175.832714,531.399180L169.384527,531.294760L168.615260,531.271556L156.460629,558.437544L142.216620,558.437544L142.275920,558.290568L155.015693,530.478740L140.390355,530.478740L133.915475,544.475189L119.166385,544.502262L119.625402,543.539234L125.707695,530.614098L124.413998,530.617966L112.296299,530.660507L111.191804,530.668242L111.061598,530.973766L100.442842,530.610231L95.297214,530.432331L92.168069,530.327911L88.834087,530.211890L81.144018,529.952775L81.261509,529.647251L79.036260,529.627915L77.251605,529.612445L74.161078,529.585373L73.030225,529.573771L69.610479,529.542832L65.716589,529.511893L58.700626,529.446148L51.914830,529.484822L48.255575,537.598701L48.082684,537.985450L42.136039,551.189407L39.057862,558.019823L35.077135,566.884922L27.144185,584.561828L26.761114,584.550223L26.458510,584.557960L26.280794,584.948644L26.020134,585.525001L25.687445,586.248349L25.564755,586.522990L25.122932,587.497775L22.188078,593.953875L18.427744,602.208932L15.003888,609.775642L0.000000,642.311799L0.000000,642.311799L0.351549,642.315668L3.853393,642.335012L5.005247,642.342750L14.417942,642.389178L23.657048,642.439475L27.806431,642.462689L30.899440,642.478165L32.370373,642.462689L38.732047,642.385309L44.577858,642.315668L49.435044,642.257633L53.825834,642.203467L56.119891,642.176384L58.642829,642.157040L59.383475,642.137695L60.626712,642.126088L61.769829,642.110612L57.439140,651.643933L49.457015,669.248959L49.073050,670.038310L61.614191,670.193085L78.214955,670.394292L78.734214,669.237351L90.867677,642.191860L91.217771,642.191860L105.634429,642.215074L112.572367,642.222812L115.231348,642.226681L118.278614,642.230550L119.292698,642.218943L119.351442,642.222812L119.268576,642.408523L119.000990,643.008216L118.217273,645.128429L94.452329,698.282337L94.955228,698.282337L94.805124,698.619007L125.018442,698.630617L185.171826,698.916981L185.299732,698.622877L186.073008,696.873742L193.236068,680.648339L197.605967,670.761883L203.990422,655.938680L208.721416,644.946585L209.313276,643.576957L238.629459,643.696896L239.067210,643.693027L239.013713,643.812966L238.532240,644.892419L231.970421,659.684065L227.048431,670.850879L225.638269,674.077965L217.927988,691.730884L214.791160,698.847325L214.656634,699.149168L244.571291,699.331048L275.308095,699.346527L289.511556,699.307829L305.887882,699.207215L306.233360,699.203345L306.556292,699.207215L334.288163,699.230434L335.994201,699.230434L336.140481,698.909241L336.302809,698.537742L343.235793,682.656629L344.503602,682.904281L351.752019,684.308934L354.728420,683.600802L357.289151,685.961248L359.339437,685.945770L360.677393,686.793213L364.973118,689.517434L369.858021,689.540652L370.335451,689.540652L370.925740,689.544522L370.989796,689.393606L371.199207,688.902160L371.792035,687.578746L372.321875,686.375296L373.278123,684.200586L373.540731,683.596932L373.819786,682.977802L374.413714,681.623461L375.549603,679.038621L375.958791,678.106073L376.315987,677.297351L376.697328,676.434459L377.115149,675.482572L377.523692,674.522950L379.188141,670.730928L381.206293,670.723190L406.720559,670.785100L408.327643,672.135518L408.911774,670.788969L409.000905,670.603239L421.565478,670.634194L439.018545,670.672888L439.348096,670.669018L450.417027,670.692235L461.660747,670.723190L468.786076,670.703843L468.967495,670.703843L469.018419,670.703843L469.234849,670.703843L469.471834,670.707712L475.789263,670.580022L479.633933,670.537459L497.392136,670.262733L499.262948,670.235648L501.185056,665.921328L501.732996,664.698627L503.370493,661.030559L504.225603,659.111420L504.336734,659.119158L511.970129,659.780795L513.803521,660.194803L516.423980,660.349572L521.757078,661.173721L522.677964,661.607077L522.934053,661.982394L523.966245,663.487540L525.083308,664.559333L526.992138,666.397254L530.723416,669.995747L529.770905,672.162604L534.740565,672.123910L535.647661,672.123910L536.149083,672.120040L536.311365,671.748578L536.656830,671.744709L537.256245,670.363337L539.807644,670.351729L540.932890,670.347860L541.452629,669.202526L540.450582,669.187049L537.835396,669.156094L537.999143,668.788505L539.152283,666.199919L539.709042,664.950132L542.059379,664.954001L541.799679,666.172833L541.978731,666.428209L544.492437,670.359468L543.884280,671.717623L549.889273,671.698276L549.961018,671.694406L551.544588,671.690537L552.024661,671.706015L565.657745,671.717623L566.669608,671.725362L579.345713,671.613149L581.959311,671.597672L596.934493,671.733100L597.171479,671.736970L599.602339,671.760186L602.599472,671.791141L603.033528,671.802750L605.416910,671.818227L606.441241,671.833705L608.255168,671.841444L609.874681,671.856921L611.155359,671.868529L613.322048,671.891746L616.131661,671.914962L616.354457,671.914962L616.440392,671.914962L618.199685,671.938179L619.598126,671.949787L627.174122,672.061999L629.255141,672.077477L630.338749,672.081346L634.585263,672.108432L641.682361,672.123910L641.984200,672.139387L642.244117,671.562847L642.425565,671.141083L643.846043,667.886947L643.990786,667.561922L645.314292,667.577400L647.995624,667.488405L648.569983,667.492274L648.586808,667.418757L648.616080,667.260114L648.671825,666.884789L648.691022,666.741624L648.740809,666.401123L649.068634,666.401123L649.206952,666.404993L650.040574,666.412731L651.858197,666.404993L652.149958,666.435947L657.717310,666.555896L658.043675,666.552027L658.623709,665.313846L658.702972,665.135858L658.393048,665.124250L658.492988,664.899831L658.568805,664.729582L658.760071,664.300090L658.970556,663.820298L659.954291,663.812560L660.118335,663.808690L660.256185,663.499148L660.414977,663.135436L660.702742,662.489268L661.631795,660.396003L660.718611,660.388265L661.245385,659.219758L660.502084,659.223627L659.380565,659.212020L655.831673,659.169458L649.714717,659.161720L647.760253,659.169458L648.661122,657.018182L649.090885,655.988980L650.203379,655.985111L653.419652,655.981241L658.489994,655.973503L658.961037,655.973503L659.820372,655.973503L663.518696,655.973503L664.315927,654.247858L664.451012,653.973148L664.553619,653.764214L665.058832,652.715679L663.878714,652.742763L664.566984,651.133211L659.537523,651.156426L658.831755,651.133211L661.745307,644.428138L662.274160,644.412662L662.970901,644.420400L669.245548,644.466828L669.046417,644.892419L669.027195,644.942716L670.518146,644.946585L675.635075,646.741814L679.993313,648.154018L681.181711,648.537055L681.311922,648.451936L682.034847,647.972172L682.204930,647.604612L682.478151,647.012647L682.686150,646.559969L682.816863,646.273661L683.091811,645.677830L683.712901,644.312068L682.152460,644.292722L682.400897,643.727848L682.464652,643.491839L682.519802,643.368032L683.064813,642.180253L683.111347,642.075791L683.219661,641.839784L680.017500,641.804963L681.466317,638.616950L682.912434,638.628557L684.385736,638.636295L684.681723,638.636295L684.946617,638.055956L685.546676,636.701839L686.986137,633.463590L687.344095,632.302937L687.491134,631.958611L687.708437,631.327993L688.013132,630.701244L688.159380,630.380133L693.498599,630.182824L694.220951,628.604356L692.030389,628.585012L692.269718,628.054989L692.045477,628.051121L693.979522,623.803239L696.026854,623.822582L696.478516,623.830320L696.875015,623.869007L697.476128,623.927038L700.905896,623.957988L702.660696,623.969594L702.816642,623.969594L702.928033,623.969594L704.965153,623.961856L705.635220,623.957988L706.289374,623.954119L708.318670,623.942513L713.399138,623.911563L713.127326,624.507346L711.169011,628.817139L710.967880,629.254312L711.351517,629.250443L716.030354,629.285262L716.372352,629.289131L716.076431,629.939089L715.346977,631.540778L715.103639,631.536909L711.328251,631.467270L711.047387,631.490483L710.781506,631.494352L709.749247,633.761492L709.411888,633.761492L709.209182,634.245100L709.058044,634.570084L708.464103,635.839076L708.063331,636.717314L707.543648,637.862511L715.295919,637.928282L714.740828,638.945809L714.627211,639.150862L714.562780,639.266930L713.373312,641.294259L712.502671,642.605841L712.205426,643.015953L711.615844,643.832311L711.193578,644.408793L710.150856,644.420400L708.774235,646.010567L708.551762,646.281399L706.981202,648.192709L691.796125,664.609633L687.267764,669.504337L686.489282,670.309166L685.026085,671.922701L687.568872,671.930440L688.078119,671.930440L695.284891,671.949787L701.204357,671.965264L708.625606,672.089085L717.767518,672.108432L718.085797,672.108432L717.971315,672.387029L718.498198,672.383160L747.815091,672.189690L748.737311,670.146652L751.105340,664.841791L752.694574,661.293667L753.051174,660.492734L754.087735,658.178940L754.735089,656.689301L755.770115,654.421969L756.050936,653.791298L757.350911,650.893327L757.874099,645.430213L753.468540,644.002547L749.810717,643.983202L747.505266,643.971595L742.290591,643.967726L742.807387,642.764469L743.238841,641.824308L743.734162,640.597847L744.005493,639.967208L745.296602,637.197058L746.670045,637.193189L747.025041,637.189320L747.588369,637.189320L748.231263,637.189320L748.271565,637.127418L748.429064,636.895284L748.484718,636.663150L748.543555,636.431016L748.558660,636.361376L748.716827,636.156325L748.813082,636.040258L748.975067,635.676583L759.031303,636.543214L762.433909,635.692058L763.800595,635.045955L764.490347,634.604904L764.589659,634.539133L765.164963,633.347525L765.686681,632.047594L766.078914,631.138420L766.252436,630.763145L766.339127,630.554229L766.507806,630.554229L766.669390,630.155742L771.487338,630.171217L774.356595,630.167349L784.607915,630.117054L784.569741,630.209905L786.860432,630.233118L786.680290,630.616130L788.015529,630.612262L789.611743,630.608393L789.787191,630.643212L790.604492,630.801833L791.182956,630.917898L790.122853,631.440188L787.816351,632.581494L786.192982,633.382345L786.186798,633.610607L786.186696,633.753754L784.630427,634.546871L784.428362,634.078739L783.726055,634.047788L783.386041,634.032312L783.109538,633.974279L782.916716,633.935591L782.692331,633.889164L781.037100,633.896902L780.636089,633.896902L779.639662,633.904640L778.405007,636.748265L778.389236,636.790823L779.325723,636.767610L779.480213,636.763741L782.738689,636.686363L786.438356,636.597378L788.782623,636.543214L791.387987,636.438754L794.068275,636.330425L796.914322,636.214358L801.551787,636.063471L809.086216,635.796518L812.264976,635.676583L814.814507,635.575992L816.514154,635.525696L822.475911,632.043725L825.994184,629.989384L826.085140,629.935220L826.871245,629.935220L827.119617,629.370376L829.653792,623.644622L833.166908,615.721615L833.280113,615.481761L829.581198,615.504973L826.488426,615.532053L821.968148,615.563002L818.386986,615.586214L814.240524,615.621031L812.484951,615.632637L810.218447,615.648111L809.755253,615.651980L804.504722,615.771906L803.683336,615.593951L803.582528,615.377309L803.513281,615.168405L803.632977,614.785415L804.885392,612.081287L805.065033,611.713775L804.862545,611.725381L804.607943,611.725381L804.561409,611.829831L804.366659,612.266977L804.006194,613.083242L803.859702,613.412070L803.535825,614.089070L803.047458,614.270894L802.296928,614.441111L800.965082,614.858918L799.760538,615.276726L799.347886,615.431470L798.693360,615.586214L797.984191,615.663586L795.791424,615.756432L794.970854,615.740958L793.485005,615.775775L792.464463,615.744826L791.244066,615.555265L790.730645,614.607460L790.276231,613.562945L790.169985,613.272802L788.642801,608.793041L787.021528,605.624757L786.187262,604.382985L786.046561,604.170221L786.067235,603.845273L786.098646,603.346246L786.131119,602.816272L786.184801,601.945880L787.147638,601.942012L787.236747,601.942012L787.309945,601.942012L794.082290,601.942012L794.908225,600.081316L794.955963,600.081316L800.256993,587.857518L800.357250,587.625425L798.529737,587.648635L792.459251,587.602216L789.488725,587.455225L789.331061,587.459093L785.225985,587.544193L784.644792,587.555798L785.884546,584.817126L786.227381,584.055100L786.789186,582.801822L787.678329,580.821345L782.361991,580.825213L779.711848,580.802005L779.503534,580.798137L773.640217,580.836818L773.161132,580.840686L773.068842,580.840686L765.590855,580.867763L765.408266,580.856158L765.426967,580.821345L766.429994,578.585590L766.988154,577.347810L759.933332,577.332338L759.425875,577.328470L759.717568,576.667033L759.840269,576.384666L763.740147,576.388534L764.312247,575.162368L764.535891,574.674997L764.745474,574.226307L764.865652,573.971019L764.241641,573.978755L763.622944,573.924603L762.060806,573.866583L760.962762,573.824035L765.657933,563.500524L766.041104,563.647503L766.079292,563.647503L766.265325,563.651371L769.447121,563.666842L766.180400,570.865027L767.245033,570.861159L767.711382,570.857291L768.004159,570.857291L769.721442,570.845687L770.447021,570.845687L770.584980,570.536250L772.358354,570.513042L770.958768,573.588086L770.833152,573.862715L770.736584,574.079323L776.214908,574.083191L776.345821,573.839507L776.937701,572.454764L777.568328,570.961726L778.870450,567.991145L779.416198,566.745677L779.212528,566.745677L779.030601,566.761149L782.193978,559.930514L782.266413,559.768066L782.619650,559.768066L786.190206,559.768066L787.316654,557.327491L789.168641,553.045902L789.260321,552.833178L793.183688,552.798369L794.217454,550.601520L795.250588,548.377615L801.057531,534.694229L805.074519,528.328478L803.945766,528.347815L804.584363,526.909160L805.122368,525.710287L805.854531,524.097617L806.594250,524.101484L808.350534,524.109219L807.720434,525.485982L807.575514,525.810837L808.236142,525.984867L808.766376,525.973265L809.223840,525.903653L812.710031,525.257810L816.101405,524.639040L817.949048,524.306451L819.004411,524.109219L819.635935,524.113086L820.252970,524.213636L820.452373,524.244575L821.180863,524.480480L822.036648,525.037373L822.550835,525.718021L822.892385,526.421875L823.223099,527.392578L823.676801,528.900848L823.766571,529.248912L824.149212,530.788131L824.338460,531.433987L825.290203,531.426252L825.832901,531.422385L828.707460,531.484263L831.999691,531.522937L834.293903,531.573214L839.903039,531.604153L847.743814,531.654429L848.687436,529.674323L850.599184,525.559461L853.184420,520.056316L853.294979,519.758539L853.622321,519.816547L853.786720,519.847485L855.484423,520.122059L863.198984,521.653493L869.985479,522.740197L870.740154,522.817543L871.857060,522.910358L872.960583,522.976102L874.096464,523.026376L875.221341,523.072784L876.692687,523.084386L880.575573,523.111457L880.985803,523.119191L881.540421,523.138528L882.089863,523.169466L882.635856,523.208139L883.175217,523.254546L883.709403,523.312556L884.240140,523.378300L884.762520,523.455646L885.283176,523.536859L892.049956,524.689315L896.112322,525.369962L898.912429,525.605869L900.299561,525.706419L902.146142,525.725756L902.627661,526.387069L902.839142,526.390937L902.908080,526.421875L901.753088,528.904715L901.063901,530.385922L901.875481,530.428463L904.852313,528.726817L906.241368,528.080967L906.760743,528.015222L908.420237,528.061630L911.961260,528.912450L914.626907,529.863825L916.170011,530.977634L917.480929,531.027910L919.369816,531.066584L925.232583,531.171004L945.800334,531.596418L948.116738,526.665518L949.645522,523.536859L965.399223,516.931600L967.738461,515.953200L968.731254,515.539411L968.049649,517.032147L967.924022,517.306719L968.588286,517.329922L968.835902,517.024413L971.210889,514.089222L971.622447,513.551687L977.750568,505.191030L974.895425,504.386687L973.126721,503.957448L966.495675,501.923404L960.602025,500.190998L971.171614,477.021122L970.910694,477.021122L968.274305,477.024988L965.577728,477.021122L964.906334,477.021122L969.428519,469.411682L964.618460,469.245421L967.347566,462.788392L975.861143,462.776793L977.391637,462.776793L977.450310,462.645334L980.227154,456.374044L988.378483,437.986303L989.758755,434.866385L989.853694,434.653752L980.570445,434.665350L978.904378,434.676948L978.656740,434.661484L984.446554,420.662892L990.360716,406.232057L995.939031,392.648509L997.903959,387.766480L999.012958,384.964087L1000.000000,382.463217Z M799.236565,615.988548L799.429896,615.918913L800.585887,615.338623L803.336575,614.564906L803.191280,614.905341L802.832285,615.725483L802.770243,615.864753L802.704352,615.976942L802.548407,615.976942L802.311175,615.980811L801.801967,615.980811L801.294217,615.984679L799.236565,615.988548Z M772.649387,437.046844L772.239956,434.402459L773.877573,434.340603L772.430679,439.323973L771.387958,439.343304L772.649387,437.046844Z M803.131674,516.278044L803.458523,515.388591L806.109519,515.059881L806.456015,515.253240L806.102169,516.324450L805.621637,516.966405L802.781704,517.283516L803.131674,516.278044Z M639.624985,457.731136L641.203143,454.220497L643.156534,454.228229L646.439241,455.291469L647.740056,455.712900L647.629495,455.960345L646.820393,457.742735L645.617643,457.742735L639.624985,457.731136Z M268.037784,526.738997L268.382669,525.895918L272.856355,525.818572L274.808393,525.779899L274.618674,526.240111L275.308024,526.228509L276.000557,526.216907L275.861412,526.506957L274.968983,528.390356L275.001225,529.457750L275.006495,529.488689L272.182341,529.577639L269.549392,529.658854L270.380642,527.705833L268.664353,527.736772L267.620052,527.752242L267.882622,527.121864L268.037784,526.738997Z M764.547440,433.517138L767.033840,427.845732L768.626082,427.807073L770.090868,427.818671L773.988956,428.031298L770.824406,431.688512L769.020100,433.768430L765.612871,433.845750L765.691148,433.656315L764.547440,433.517138Z M796.694405,630.055153L796.969842,629.443883L797.639092,627.969876L798.561661,625.927171L802.495797,617.238110L802.851741,616.460518L802.998228,616.131686L803.494983,616.216796L809.533608,616.178110L809.483367,616.298036L810.379124,616.301905L810.077554,617.071759L809.279692,619.048630L808.866127,619.276881L808.020304,619.768200L807.195704,620.290469L806.560320,620.723760L806.114945,621.044860L805.397762,621.590343L804.482375,622.395031L803.627056,623.164902L802.808610,623.973462L801.346644,625.640884L800.853463,626.290834L800.317222,627.130354L799.910907,627.799650L799.199599,629.153724L799.080703,629.420670L798.942590,629.737912L798.814025,630.055153L796.694405,630.055153Z M281.062888,549.069924L288.801977,531.673766L289.243088,532.068242L290.012854,532.752775L290.383774,533.197530L290.763220,533.986487L290.901016,534.589808L290.898460,534.752241L290.967263,535.146721L291.022673,536.055576L290.710030,537.204217L290.177180,538.461153L289.701618,539.718095L289.363543,540.731388L289.010843,541.392737L288.497668,542.092764L288.108964,542.962965L288.044583,543.570174L287.839723,545.182959L287.522861,545.685747L286.597825,546.424461L286.155494,547.101295L285.680714,548.563262L284.906618,549.398675L284.011590,549.827985L283.096917,550.002030L282.292437,549.893736L281.062888,549.069924Z M202.788517,530.517413L206.717387,522.210380L206.779851,522.198778L208.272107,521.800449L209.584514,521.448528L216.600249,519.592247L212.498545,528.734551L211.683805,530.621833L206.365380,530.559955L202.788517,530.517413Z M50.365473,585.710673L57.783112,569.221147L60.941461,569.225015L63.481885,569.244355L56.079925,585.699068L53.649734,585.710673L50.365473,585.710673Z M292.991782,590.441490L288.651445,586.789895L294.862462,586.820841L306.498540,586.925282L302.597681,595.594035L301.614728,597.768036L298.464031,595.036999L297.065104,593.814617L296.776335,593.563178L292.991782,590.441490Z M260.727288,594.329099L262.132595,591.095223L264.101631,589.985038L277.812810,590.132031L266.814117,614.998187L253.624130,614.858918L251.642483,614.827970L252.235404,613.477836L253.282791,611.052255L259.733773,596.619140L260.727288,594.329099Z M246.418945,559.497320L249.692206,552.133124L254.803837,541.110407L259.456505,531.024042L288.678002,530.184818L288.341623,530.923490L287.951117,532.068242L280.533902,548.864938L270.182380,572.044758L270.532168,572.052494L285.753173,572.195609L285.483766,572.799015L284.381264,575.332561L283.770312,576.736658L283.502374,577.343942L279.837323,585.710673L279.694006,586.031731L276.108768,585.993050L271.701852,586.062677L267.355230,586.182590L265.345150,586.329581L265.310700,585.950500L265.230003,584.848072L264.796236,585.056952L264.231890,585.223283L263.855646,586.151645L259.327353,586.279295L238.472763,586.963964L234.225232,587.025855L234.609871,586.085886L238.582212,577.138935L243.571134,565.902475L244.568082,563.662975L246.418945,559.497320Z M459.601929,459.351149L460.268749,457.823929L461.605563,454.904836L461.652232,454.800445L463.955831,454.444743L465.925135,454.139304L466.084784,453.810667L466.732425,452.376269L470.960003,443.070259L470.934748,443.019999L471.456266,441.867885L472.318628,439.946418L493.327516,425.823848L493.407540,425.765859L493.460861,425.653748L494.471478,425.642150L501.812017,425.456586L505.638328,425.359938L508.663741,425.282620L512.477652,416.669500L510.872189,416.232666L510.497160,416.132155L506.129898,414.941496L503.423093,414.207001L502.803836,414.040774L503.759226,411.748390L502.519062,411.462326L501.592363,411.485521L500.055057,411.500984L499.816431,411.500984L500.426289,410.151851L501.742870,407.237127L529.534276,406.804173L531.709564,406.742323L529.720205,410.990709L529.631335,411.296101L528.659345,413.476374L526.895662,417.512244L526.709142,417.879496L526.162253,419.116557L523.527009,425.066129L523.245216,425.696273L522.481377,427.397282L520.260542,432.349599L519.147300,434.839322L518.753177,435.720783L511.089240,452.998743L509.675499,456.296717L507.461571,461.477672L505.607005,465.456248L504.778611,466.968044L504.117235,467.942403L504.082949,468.012001L503.816847,468.023600L503.641567,468.031333L503.534836,468.035200L503.567668,467.961736L502.660904,468.004267L502.584537,468.004267L502.490534,468.008134L500.778111,468.023600L493.842509,468.085464L492.795383,468.093197L481.631443,468.232392L475.520504,468.278790L473.908448,468.290390L469.468293,468.329055L465.563524,468.344521L463.346902,468.356120L455.627637,468.398652L455.787266,468.069998L455.923249,467.780010L455.990651,467.629216L457.750448,463.592612L459.601929,459.351149Z M130.425532,620.325287L133.102730,614.220602L137.399094,614.313448L139.992598,614.321185L142.500172,614.328922L143.120769,614.328922L147.709457,614.344397L148.298228,614.344397L149.299003,614.348265L162.551225,614.390820L162.616332,614.394688L162.879608,613.783453L165.092235,608.719539L170.874584,595.481854L172.997844,590.619429L173.058295,590.484041L176.648460,590.518855L177.327504,590.530460L202.837031,590.874733L202.942052,590.874733L202.544298,591.779905L200.552308,596.263254L196.411754,605.574467L195.396174,607.856865L195.245951,608.193424L195.166524,608.371375L186.736452,627.339267L184.161757,633.130869L180.544770,641.301997L179.913839,642.694828L179.738792,642.694828L179.420795,642.687090L168.811455,642.547806L154.247954,642.354357L150.304794,642.304061L149.986797,642.296323L145.455115,642.238288L120.813540,641.913294L120.997076,641.487708L121.723618,639.866616L123.258694,636.419409L127.474042,626.952391L130.425532,620.325287Z M529.313320,413.472508L530.288766,411.284503L530.779298,411.269041L531.451809,411.280638L561.258702,411.477789L562.181113,411.485521L564.264562,411.500984L557.757967,425.595759L555.706522,425.707871L554.177984,425.789055L553.686679,426.674352L554.179327,426.867649L555.017010,427.200119L555.351046,427.335427L556.039464,427.660167L556.613416,428.027432L557.071450,428.433357L557.552263,428.959128L557.832781,429.569951L557.905629,430.026136L557.933064,430.640827L557.840651,431.359902L557.694788,431.792894L557.489573,432.194959L557.304669,432.473312L556.933925,432.832851L556.533290,433.138267L555.852067,433.594458L555.167386,434.058382L554.733086,434.460450L554.329701,434.843188L553.753672,435.562274L553.660181,435.685988L553.472021,435.921818L553.094956,436.459201L552.719698,437.035246L552.318594,437.711810L551.971426,438.303322L551.686009,438.813647L551.336802,439.552074L551.127831,440.104929L551.128701,440.572730L551.159774,440.638454L551.286972,440.909083L551.515714,441.187444L551.854445,441.504468L552.188188,441.782830L552.673400,442.007066L553.279327,442.281563L553.830100,442.451674L554.505788,442.598588L555.399683,442.648848L556.215635,442.474871L556.892137,442.285429L557.735857,441.956807L559.185244,441.148783L559.880438,440.746705L560.554538,440.356227L560.984507,440.120393L561.888796,439.698986L562.095808,439.648727L562.719557,439.555940L562.643707,439.675789L562.578937,439.842032L562.546099,439.915489L562.211088,440.657784L557.566770,450.976674L555.979517,454.506604L556.395352,454.444743L559.943870,454.379016L569.822568,454.317155L570.955586,454.309422L572.605612,450.667373L574.669451,450.655774L573.034165,454.286224L573.389080,454.282358L573.490899,454.282358L600.713128,454.108373L602.014784,454.100641L602.199332,454.100641L602.069748,454.390615L596.002781,467.818675L595.721467,468.441184L595.574628,468.769838L594.172546,471.936538L593.887154,472.539724L593.414019,473.548902L593.381018,473.537302L593.282015,473.502503L592.585265,473.274374L592.127888,473.115844L591.901244,473.046246L590.754938,472.663454L588.158413,471.808942L587.252391,471.515083L585.086801,470.757238L582.944673,470.010995L582.490484,469.852467L582.499500,469.597275L582.501051,469.508345L582.537108,468.622910L581.476980,468.638376L581.241518,468.638376L580.310395,468.649976L579.532004,468.661575L575.316042,468.704107L569.089736,468.773704L567.307037,468.796904L564.580761,468.823969L561.858400,468.785304L559.732513,468.750505L557.382165,468.719573L554.206517,468.677041L548.989168,468.603578L541.998855,468.503048L537.818269,468.445050L536.686051,468.429584L536.228128,468.421851L534.720443,468.406385L513.927794,468.147328L508.660996,468.077731L507.775706,468.008134L505.160929,467.807075L505.810281,466.453800L509.234622,459.304753L509.595646,458.411618L510.579295,456.068603L511.908545,452.909818L514.750950,446.167072L519.620340,435.225927L520.346360,433.602190L521.551786,430.892117L523.867384,425.692407L527.442304,417.663010L529.313320,413.472508Z M567.446808,429.202684L569.158314,425.367670L573.215859,425.344475L584.206217,425.371536L585.509032,422.514640L589.100860,414.531725L590.470340,411.504849L594.563658,411.636284L599.172260,411.682673L600.879973,411.528044L601.997421,411.419804L604.507417,411.385012L607.592119,411.338623L608.913343,411.315429L610.436741,411.288369L611.169430,411.307698L618.800049,411.191726L622.700286,411.071889L624.047941,411.110546L630.083663,411.153069L645.358080,411.176263L650.049957,400.534153L650.132105,400.371799L650.232918,400.132134L651.629099,400.638523L653.075638,401.160375L653.404123,401.272477L653.864308,401.438697L654.202338,401.550799L655.427471,401.991475L656.522360,402.381900L656.819306,402.486271L656.875749,402.509465L658.610102,403.035186L661.618126,403.800576L662.915671,404.129153L670.366476,406.023312L670.899498,406.154744L672.437048,406.757786L673.937249,407.337634L675.266116,407.859499L677.406781,408.636500L678.791828,408.876172L680.715874,409.034665L683.228374,409.421234L688.504379,409.846460L690.955135,410.001088L691.590096,410.039745L696.919375,410.488167L697.095272,410.507495L698.091022,410.600272L703.591653,411.106680L707.071876,411.435266L709.837872,411.717464L711.339046,411.868227L711.591578,411.879824L712.171000,411.914616L713.904630,412.015125L714.114073,412.030588L714.891938,412.076977L712.915952,417.102469L712.332231,418.579208L712.711129,418.571476L715.252136,418.559879L730.499590,418.764767L732.613700,418.768633L737.417812,418.776365L740.114176,418.780231L740.576978,418.784097L742.176642,418.849815L742.678531,418.873010L743.317770,420.902575L743.766388,422.340676L743.835001,422.514640L743.973423,422.738861L744.083587,422.862569L744.211661,422.974679L744.323467,423.051997L744.512541,423.148644L744.757706,423.233694L744.872881,423.260755L745.108689,423.295548L745.318409,423.303280L747.481440,423.318743L748.443604,423.237559L748.913031,423.369000L749.274725,423.577758L749.505422,423.801979L749.690293,424.107385L749.760997,424.312277L749.879946,424.772320L750.137112,425.777457L750.515243,427.231047L750.109235,427.420478L739.513308,432.434652L739.100617,433.308372L737.954628,436.521058L750.111053,436.644772L751.553312,436.664103L751.621857,436.660237L754.171105,436.687299L754.865916,436.698897L754.556997,437.247880L754.332170,437.758203L754.213710,438.094553L754.188436,438.179607L754.144252,438.349715L754.114159,438.481163L754.072065,438.682200L754.022606,439.092007L754.014511,439.501814L754.022327,439.640994L754.069597,439.969614L754.110142,440.128125L753.985506,440.143590L752.182060,440.170653L752.126786,440.294369L751.845875,440.951610L752.070327,441.353688L752.030146,441.635917L752.006782,441.802161L751.972328,442.057326L751.939602,442.308626L751.911967,442.505800L751.871514,442.795762L751.842789,443.023865L751.811155,443.244236L751.786975,443.433679L751.752613,443.596058L751.693342,443.742972L751.645525,443.835760L751.566254,443.963344L751.086444,444.531672L750.423093,445.297178L749.386391,446.499566L749.011583,446.932582L749.393675,446.924850L749.464858,446.936448L749.536858,446.924850L750.730317,446.917117L751.376502,446.909385L752.368051,446.897786L752.560688,446.893920L752.605234,446.893920L752.442609,447.265077L752.115362,448.018991L751.937196,448.424946L751.753483,448.807704L750.026016,448.799971L749.109287,450.887750L748.770470,450.976674L748.441199,451.065599L747.105839,451.398098L745.065557,449.611883L745.691552,446.159340L745.060431,442.942676L741.836070,444.690186L734.492773,450.636442L730.858132,451.657139L729.487487,451.862052L729.400307,451.943244L729.232583,452.097896L729.213857,452.132692L729.122857,452.186820L728.956953,452.380135L728.750866,452.585049L728.410510,452.898219L727.574318,452.925283L727.005038,452.917550L719.880859,452.917550L719.411399,452.921417L719.375945,452.979411L718.796482,452.944614L718.129382,452.913684L717.902492,453.799068L717.672895,455.167746L717.400799,457.336767L717.019846,459.977505L716.903138,460.310016L718.293221,463.395424L719.362483,463.979258L719.841520,464.246043L719.004943,466.047819L716.570839,471.341088L715.132139,474.569684L714.689175,475.540203L714.602837,475.733534L714.378262,476.193662L714.129514,476.707924L714.069252,476.792990L707.363640,474.608350L705.821874,477.918183L705.063286,477.864050L702.638143,477.651385L701.364523,477.539252L698.935560,477.299520L698.747281,477.314986L698.769729,477.264720L698.569440,477.214454L698.528618,477.198987L698.462340,477.183521L698.837331,476.336727L699.238227,475.431938L700.688429,472.149200L700.714333,472.091201L700.807314,471.890140L698.061119,471.035630L693.517639,469.624341L693.341355,469.570209L692.597399,469.326618L691.397235,468.936099L690.714104,468.727306L690.708012,468.719573L687.983492,467.838008L687.819759,467.834141L687.767121,467.838008L687.905014,467.536420L686.575609,467.563485L684.177990,467.609884L678.761910,467.667881L675.632721,467.706546L663.592337,467.841874L661.221261,467.857340L657.303225,467.888272L657.366315,467.768410L658.886473,464.315640L660.709246,460.178558L660.806524,459.946574L660.852980,459.892444L661.230442,460.016169L661.785907,460.190157L666.903841,461.817917L672.304642,463.546215L672.872571,463.727938L673.075201,463.260098L673.368286,462.618269L675.570484,457.510753L676.902645,454.429278L676.991015,454.224363L677.039655,454.108373L677.107842,453.934389L677.272854,453.586421L675.691469,453.586421L674.269177,453.586421L670.667311,453.586421L669.287838,453.590287L668.600556,453.590287L667.138628,453.586421L666.548256,453.590287L665.886429,453.590287L665.728790,453.594154L665.199147,453.590287L663.616035,453.594154L665.915193,448.363086L667.454930,448.370818L680.755376,448.405615L683.948433,440.526336L684.483400,439.030149L684.809054,438.009499L685.426198,435.945014L685.963134,434.259416L686.118840,433.725903L686.667785,432.106041L687.090885,430.760673L687.839571,428.622789L688.304500,427.354757L688.529948,426.828989L688.853973,426.125390L689.167441,425.495245L689.313385,425.282620L689.762325,424.555829L690.371693,423.477244L690.556120,423.121583L690.655245,422.928289L691.024431,422.387066L691.498669,421.575234L689.820644,420.175796L689.293908,419.866529L688.358133,419.383300L688.128886,419.298251L687.857728,419.228666L686.334652,418.977388L684.946988,418.900071L684.558545,418.907803L683.679650,418.973522L683.066016,419.050838L682.022190,419.236398L681.394538,419.394897L680.973617,419.510872L680.128947,419.777615L680.140344,419.232532L680.158249,418.459368L679.087741,418.455502L682.375982,411.292235L667.900359,411.218786L665.632220,416.263592L662.464699,416.267458L656.818632,416.271324L653.667019,416.275189L650.857302,416.282921L650.669582,416.282921L650.531395,416.634708L650.416620,416.820266L650.323291,417.029019L649.948526,417.860167L648.041559,422.054601L645.505039,427.493931L636.906342,446.341052L635.196178,450.025573L635.049324,450.354205L635.535038,450.520454L637.825442,451.255046L640.644664,452.152024L643.466806,453.056737L644.909515,453.559357L642.855760,453.555491L637.806520,453.454967L634.485117,453.396972L634.006111,453.400838L633.657560,453.404705L631.335983,453.416303L629.996147,453.424036L623.963427,453.466565L626.109916,448.556398L616.274685,445.417030L612.428312,444.326765L607.847416,442.730037L605.750181,442.068925L600.327803,440.425817L590.984549,437.375461L580.305076,434.011990L580.163545,433.965597L579.582063,433.764563L569.678601,430.594436L567.185533,429.794177L567.446808,429.202684Z "/></g><g fill="#000" font-family="Arial" font-size="12px" id="mylayer-label" stroke="none"><text text-anchor="middle" y="550.581916622"><tspan dy="0" x="473.685217231"><![CDATA[Y]]></tspan></text></g></svg>