<?xml version="1.0" encoding="utf-8"?><!DOCTYPE svg  PUBLIC '-//W3C//DTD SVG 1.1//EN'  'http://www.w3.org/Graphics/SVG/1.1/DTD/svg11.dtd'><svg enable_background="new 0 0 1000 1001" height="1001px" pretty_print="False" style="stroke-linejoin: round; stroke:#000; fill: none;" version="1.1" viewBox="0 0 1000 1001" width="1000px" xmlns="http://www.w3.org/2000/svg" xmlns:xlink="http://www.w3.org/1999/xlink"><defs><style type="text/css"><![CDATA[path { fill-rule: evenodd; }]]></style></defs><metadata><views><view h="1001" padding="0" w="1000"><proj flip="auto" id="robinson" lon0="-118.628847095"/><bbox h="2.04" w="2.47" x="-1656.86" y="-590.98"/></view></views></metadata><g class="" id="mylayer"><path d="M1000.000000,368.794937L999.765918,368.147328L999.504337,367.795965L999.316042,367.658176L998.604900,367.541055L997.623254,367.733960L997.088363,367.926865L996.388406,368.264449L994.768821,369.476992L993.861908,370.234831L992.953213,370.613751L992.417316,370.723982L991.964906,370.723982L991.423919,370.648198L990.858406,370.648198L990.257056,370.723982L989.205642,370.992670L987.039538,371.674724L985.500652,372.315441L983.862823,373.190398L983.409847,373.376412L982.423321,373.865561L981.454262,374.396046L981.048936,374.547613L980.557503,374.361599L980.216412,373.982681L979.717102,373.149061L979.376012,372.770143L979.048077,372.542792L978.796004,372.508345L978.017438,372.659912L977.747332,372.770143L977.268489,372.921710L976.491703,373.452196L976.005236,373.906897L975.394858,374.402935L974.774512,375.009203L974.360557,375.381231L973.059503,376.745332L972.309593,377.392935L971.705711,377.957865L970.719627,378.715697L970.268999,379.094613L969.410516,380.114241L968.907590,380.610275L968.377228,381.175203L967.870552,381.595454L967.319978,382.125935L966.246661,382.918210L965.617477,383.262678L964.334978,383.827604L963.111497,384.130735L962.489931,384.172071L961.351277,384.475202L960.945951,384.626768L960.352040,385.081464L959.669551,385.460377L959.355547,385.680836L958.835154,386.135531L958.162072,386.590227L957.476278,387.162041L956.439246,388.147213L955.810845,388.787918L954.357681,389.965989L954.123858,390.269118L953.563322,390.909823L952.205236,392.232566L950.474358,393.823988L950.048259,394.127116L949.509056,394.430244L948.692694,394.960717L947.834788,395.794318L946.328329,397.006826L945.755195,397.309953L945.302220,397.495962L944.862962,397.647525L943.810984,398.102215L943.251011,398.556905L942.609909,399.314721L941.596016,400.341215L941.086993,400.568560L940.624609,400.678787L939.899342,400.795904L938.694377,400.299880L936.691346,399.052930L935.918032,398.708468L935.523229,398.563794L935.200935,398.336449L935.115656,398.067769L935.146394,397.805978L935.270864,397.578633L935.634810,397.048161L935.725349,396.820816L935.792762,396.552135L935.894275,396.297233L935.983247,396.173227L936.043606,396.021663L936.620604,395.339627L936.888918,394.850489L936.976714,394.630033L936.986513,394.506026L936.859019,393.789542L935.998254,392.997276L935.719302,392.845711L935.404515,392.769929L935.008147,392.728594L934.663740,392.542583L934.301303,392.501248L933.430402,392.501248L932.815888,392.425465L932.130208,392.542583L931.584900,392.577030L930.840259,392.728594L930.410967,392.769929L929.779431,392.921494L927.826364,393.451968L926.649907,394.134005L926.071113,394.437133L925.331566,394.774707L923.569260,395.876989L922.803845,396.180116L920.747078,396.786370L920.241356,396.820816L919.593356,397.013715L919.223863,397.089497L918.662092,397.165278L918.109727,397.316842L917.573824,397.427070L916.861713,397.695750L916.215057,397.998877L915.875183,398.184886L915.058813,398.715357L914.623304,398.942702L914.119932,399.170047L913.328647,399.438727L912.148048,399.548954L911.709348,399.514508L910.436978,399.287164L909.808744,399.245828L909.150890,399.094265L908.423270,399.018484L906.386607,398.722247L905.781497,398.722247L905.202431,398.074658L904.230353,397.661304L903.580120,397.206614L903.202740,396.634806L902.629118,395.504969L902.438927,394.747150L902.454169,394.140895L902.786166,393.307293L902.910642,393.079947L903.198739,392.356573L903.403518,391.757205L903.401172,391.564305L903.308845,391.412741L903.252355,391.185394L902.975376,390.730701L902.749733,390.544690L902.530584,390.427572L902.255385,390.351790L902.033492,390.241561L901.684776,390.165779L901.345464,390.165779L900.922664,390.276008L900.527303,390.317343L899.991400,390.427572L899.479185,390.393126L898.973464,390.427572L898.342490,390.393126L896.987213,390.089997L896.259599,390.014214L894.826927,390.089997L893.124713,390.089997L892.574884,389.752421L892.302997,389.483738L892.063637,389.332174L891.224251,388.202327L890.673420,387.782079L890.264908,387.671850L889.610813,387.596068L889.091941,387.478949L887.142942,386.948472L886.634477,386.989808L886.398866,386.914025L885.897462,386.838242L884.725066,386.459330L884.323616,386.231982L883.809062,386.004634L883.407612,385.777286L882.184459,384.943677L881.465052,384.378752L880.675875,383.889608L880.023330,383.242010L879.721838,382.863096L878.927581,382.187939L877.351410,381.388773L876.942901,381.278544L876.111592,381.278544L875.718975,381.312991L875.300493,381.312991L874.851825,381.388773L873.837641,381.464556L873.119435,381.464556L872.618034,381.388773L872.112887,381.237208L871.267668,380.789399L870.503792,380.520714L870.238573,380.334701L869.906901,380.031568L869.622307,379.880002L868.971536,379.611317L867.217174,379.273737L866.911796,379.273737L866.316094,379.349520L865.981105,379.239290L865.652605,379.197954L865.452839,379.046388L865.251738,378.784591L864.561958,378.329892L863.985282,377.875193L863.506230,377.076023L863.098301,376.779779L862.735871,376.738443L862.084118,376.855563L861.767354,377.082913L861.461399,377.268926L860.971159,377.647843L860.684581,377.799409L857.804926,379.804219L856.172119,380.865182L855.623493,381.092531L855.154040,381.319880L854.537552,381.547229L853.898944,381.815914L853.450275,381.891697L852.537809,382.194828L852.124406,382.380841L851.046530,382.801091L849.063251,383.407354L848.536745,383.593367L847.475908,383.786268L847.066251,384.048063L846.219662,384.654325L845.803515,384.847227L845.354272,385.109021L844.624680,385.336369L844.282050,385.529271L843.769265,385.680836L842.845060,385.715282L842.519469,385.680836L842.260740,385.563717L841.669356,385.529271L841.380441,385.487935L840.738662,385.494824L839.965385,385.150357L839.345374,384.619878L839.144273,384.358084L839.025089,384.089399L838.921612,383.483137L838.839270,383.221342L838.415284,382.766645L837.525970,381.478335L837.320550,381.326769L836.195826,380.913407L835.790065,380.796288L835.438611,380.727395L834.758236,380.348479L834.543417,380.121130L833.420264,379.135950L833.141329,378.984383L832.700884,378.571020L832.438415,378.378118L832.176945,378.267888L831.166084,378.150768L830.185830,378.226551L829.816333,378.302335L829.381386,378.343671L828.968559,378.343671L828.031215,378.226551L827.490811,377.964755L827.315581,377.737405L826.826155,377.248258L826.676791,377.055355L826.428625,376.641992L826.230857,376.187291L825.958992,375.918605L825.326278,375.505241L824.352508,374.712959L823.257570,373.955123L822.064086,373.231734L820.992688,372.783922L819.933432,372.405003L819.488090,372.287883L818.952765,372.212099L818.269077,372.026085L817.361928,371.833181L815.774259,370.779097L815.382227,370.627530L814.970818,370.510409L814.147169,370.207274L813.759463,369.945475L813.262397,369.759460L812.821384,369.532108L812.242734,369.380540L811.431638,369.414987L810.551938,369.153188L809.679309,368.774268L807.753500,368.285117L807.051766,368.243780L806.677200,368.133549L806.039422,368.002649L805.736126,367.940644L805.370955,367.906197L804.821246,367.809744L804.520861,367.754629L804.149040,367.637508L802.716966,367.527276L801.582610,367.720181L801.037305,367.754629L800.106036,367.906197L799.606968,368.023318L799.114972,368.023318L798.174306,368.099102L797.582344,368.250670L796.820229,368.360901L795.909754,368.360901L795.131172,368.512469L794.435502,368.739821L793.494836,368.815605L793.143389,368.746710L792.770150,368.746710L792.208378,368.822494L789.778001,368.932726L789.368916,369.008510L787.267034,369.160078L785.665803,369.091183L784.421360,368.595142L782.772476,368.560695L781.679122,368.636479L780.917595,368.560695L779.954400,368.409127L778.878693,368.071544L777.656781,367.802855L777.225169,367.651287L775.700792,367.389487L775.231914,367.430824L774.626816,367.430824L773.680681,367.051903L773.111121,366.480077L772.751298,365.949588L772.446513,365.763572L772.014902,365.612004L771.676187,365.425988L771.385553,365.005730L770.437696,364.247886L751.687858,361.629878L750.582647,359.066978L748.238586,353.638017L745.226243,350.482591L737.875137,346.266154L736.995421,345.763211L732.020920,343.558530L731.808773,343.551640L729.511839,343.468965L728.196466,343.420737L727.817414,343.406958L726.326038,342.352842L724.247266,340.885346L720.842037,339.624538L712.089052,336.386389L708.105032,334.719083L705.251369,330.144309L704.893794,330.034073L701.784505,327.974040L700.114494,326.871679L699.801014,326.664986L695.572702,317.508448L695.432604,317.377542L694.434300,316.406075L692.667107,316.881474L690.078754,319.403149L688.474643,319.086218L686.011125,317.349982L680.616398,315.448387L676.864368,314.972988L675.694855,314.346012L669.228346,314.339122L661.491496,313.546789L659.745120,312.196376L658.843334,311.493609L657.882877,308.696317L657.384961,307.235659L655.834767,305.974805L652.403065,306.284851L645.297205,303.129267L642.616271,299.966783L640.152549,300.600659L636.340661,303.439314L633.892469,304.431464L630.127360,305.961026L628.493362,310.060515L627.765699,310.694384L625.617783,310.535916L618.365602,308.400051L614.889865,307.373457L608.394285,307.056521L608.013596,306.422650L608.299482,304.527923L611.475712,299.326017L612.023005,296.094620L612.858045,291.120038L610.898677,286.545053L610.482976,282.438573L610.891261,281.811575L610.575901,280.233743L612.432241,274.811220L612.467788,274.707867L612.178782,273.446971L609.973408,273.446971L598.116734,278.649019L594.521854,279.751436L589.661624,279.276019L586.225074,280.378435L592.182811,249.620538L593.979980,247.098677L599.335518,234.475491L600.971114,228.005355L602.097627,225.180254L602.419098,224.374066L606.827509,218.069234L609.917971,212.701481L611.992566,207.499072L612.680180,199.450788L614.317985,195.343931L626.510504,176.256465L630.675008,170.578387L631.145469,168.207918L630.320356,165.527351L628.649406,163.790835L626.374731,163.156868L617.384180,163.156868L614.672085,162.839885L597.399579,154.315746L592.636789,152.420716L587.837810,147.838176L579.467404,144.682068L576.179656,139.472399L570.120481,135.682279L552.977727,130.789556L550.835773,130.631058L534.043363,129.211475L528.900956,127.474894L526.908017,125.738310L525.075867,123.216122L524.847039,114.691632L527.114843,107.435074L527.188824,106.470286L527.429568,103.486326L528.752235,100.171571L529.724759,98.910444L530.601633,96.429536L530.952386,95.437170L530.763352,91.178257L527.413677,86.919326L525.219702,85.134428L523.970326,85.658182L515.863118,90.544243L507.548054,96.560473L502.777785,100.013069L502.018406,101.122583L500.571948,104.747446L500.886483,106.325567L500.478331,107.745185L499.534477,108.537689L496.345487,109.798802L490.894817,113.582133L482.941783,115.318739L479.475144,120.053042L476.603215,122.106634L475.783376,123.367730L479.132237,125.262816L479.924983,127.626500L479.010519,129.521578L478.166516,129.638728L475.507363,129.997070L472.636620,128.887589L470.204218,129.046086L469.163266,131.258155L469.511748,131.575149L467.717428,135.675388L459.893302,136.309372L455.852661,138.514534L451.661812,139.934104L442.921208,144.041197L432.575600,150.980492L430.970305,153.034017L429.966567,153.778247L421.796251,159.814754L420.910487,161.241184L424.130648,164.238746L428.049305,165.499787L429.028692,166.602335L428.018750,167.546390L417.892741,170.392333L408.937141,176.228902L402.759293,181.438371L394.843145,187.433360L393.710546,190.272353L393.635936,192.415374L393.586022,193.745285L391.445399,195.950314L384.692346,197.059717L380.654171,198.479201L372.648134,203.523173L371.037867,206.369009L369.858400,207.567979L369.182042,208.257041L348.692519,207.002947L347.423445,207.533526L338.097994,211.419830L333.707977,211.736798L318.405309,214.107160L316.672623,214.892685L311.225280,223.416285L308.261686,226.096690L295.644352,227.674612L292.957464,226.103581L289.801632,225.311174L284.185762,226.730615L274.846864,227.206059L267.838824,225.793509L262.710687,225.848633L253.729457,225.951990L253.606274,227.054468L258.946924,238.216988L259.109501,240.573503L261.177891,247.649904L260.994873,249.696332L262.203210,253.003680L261.205643,255.518635L259.473396,257.082727L256.989362,258.178279L251.974902,259.280720L251.033785,261.044622L250.718248,261.637183L241.043807,266.157166L220.574319,272.647714L218.534387,273.267827L216.858826,274.349580L207.803826,281.356829L202.734992,284.622727L192.911240,287.220278L189.475194,289.866053L189.074432,290.176105L184.558872,291.147598L154.195050,294.103412L152.616118,291.285398L151.306210,290.968458L150.015229,291.809040L149.597023,292.077750L148.403158,293.497092L143.983954,293.503982L140.411687,294.137862L133.329708,297.162567L114.174354,305.347823L111.620963,305.823227L106.472034,304.086968L105.274810,304.720841L101.058192,310.556586L97.369117,313.085168L89.356377,316.557651L84.789516,319.713191L81.605117,323.344115L80.062683,324.446480L78.377820,331.350012L78.812519,339.376510L78.179112,339.617649L76.729287,338.942461L72.688875,339.686545L72.333880,339.796780L70.265278,340.630429L68.447481,344.819333L68.457259,348.112570L68.801063,349.235575L66.777678,352.266992L63.334357,354.519880L60.684086,355.422412L52.464354,356.393838L49.416910,357.427270L46.209028,363.896522L42.368643,367.995760L41.175607,370.207274L39.122010,372.577239L37.174168,374.313373L34.050551,374.630286L31.210958,373.838003L26.383162,374.471829L18.056731,377.950976L7.207379,380.637833L7.393072,382.993993L0.709080,397.867981L0.000000,400.837239L0.744370,403.324244L0.514609,408.353346L1.362187,422.083348L3.007677,424.239622L5.937731,430.804861L5.768234,431.541983L5.014784,432.155103L4.346647,432.327328L4.459755,432.568443L4.707784,432.981782L4.806028,433.402009L4.898292,433.553567L5.210636,434.387133L5.281414,434.876250L5.377396,435.103586L5.714620,435.406700L6.115991,435.634036L6.464041,435.895816L7.111995,436.653602L7.339832,437.032494L7.920081,437.562943L8.238561,437.714500L8.771789,438.093392L9.380630,438.169171L9.586004,438.320727L10.113247,438.430950L11.884670,438.541174L12.290405,438.658286L12.764969,438.616952L13.762736,438.582507L14.567248,438.465395L15.595228,438.355172L16.004351,438.279394L16.625955,438.238060L17.265652,438.052059L17.866415,438.162282L19.083769,438.045170L19.379784,437.969391L20.350724,437.817834L20.676953,437.666278L21.810428,436.908493L22.157498,436.605379L23.257041,435.847594L23.973646,435.468701L24.417342,435.206920L24.873159,435.014029L25.721617,434.786693L25.904526,434.710914L26.130739,434.710914L26.552953,434.786693L26.931862,434.786693L27.168091,434.676470L27.646373,434.710914L27.856106,434.752248L28.091052,435.014029L28.353465,435.206920L28.355091,435.585813L28.455449,436.185153L28.512024,436.908493L28.933598,437.170273L29.323509,437.624944L29.468457,437.928058L29.962102,438.306950L30.192036,438.382728L30.673578,439.174956L30.819167,439.292068L30.971223,439.478069L30.968828,440.235852L30.866727,440.690521L30.869352,441.634303L31.074610,442.736529L31.428661,443.266975L31.864635,443.790532L32.318700,444.169421L32.597599,444.320977L33.278516,444.513866L33.643694,444.548311L34.302140,444.513866L35.007277,444.362311L36.385067,443.942088L36.851230,443.907643L37.290565,443.756087L37.746378,443.563198L37.943018,443.452976L38.463612,442.998308L39.440020,442.350750L40.409325,441.820304L40.788235,441.820304L41.210452,441.896082L41.372523,441.971860L41.542671,442.013193L41.856800,442.274972L42.196122,442.274972L42.404884,442.233639L43.408120,441.703192L43.678279,441.592969L44.368048,441.096967L44.851327,440.835188L45.120513,440.642298L45.680695,440.187629L46.133762,440.001628L46.912417,439.850071L47.307806,439.808738L47.600437,439.925850L48.061604,440.187629L48.197820,440.228963L48.442785,440.380519L48.651884,440.607854L48.879734,440.986744L49.126336,441.517191L49.332080,442.419639L49.513241,442.915641L49.614254,443.328975L49.829010,443.556309L50.457613,444.348533L50.742509,444.768756L51.137797,445.678089L51.405241,446.056978L52.051971,447.186755L52.383559,447.489865L52.668117,447.641420L53.053026,447.910086L53.288619,447.985864L53.424203,448.213197L53.772904,448.288974L54.151183,448.474974L54.400508,448.516307L54.601536,448.778084L54.923749,449.005416L54.962705,449.191416L55.103946,449.418748L55.235521,450.024968L55.388131,450.975629L55.489785,451.202961L55.647220,451.843624L55.951981,452.029623L56.123433,452.181177L56.572489,452.374065L56.843318,452.560063L57.955847,452.904505L58.228751,452.787395L59.421900,453.014727L60.599875,453.393612L63.131848,453.014727L65.394294,452.560063L69.350310,452.325843L71.343226,451.795402L76.410149,450.093856L77.326117,449.597859L78.070764,450.396966L79.206171,451.719625L80.560352,452.890728L81.863916,453.607166L83.767171,454.819600L84.909291,455.274262L86.160795,455.653146L89.377070,455.274262L91.497226,455.460260L93.323655,455.914921L94.097283,457.010242L94.688636,457.995341L96.189892,459.166435L97.785765,459.731316L99.577627,458.939105L101.794463,458.215782L103.956480,457.161796L105.991080,455.377594L108.859268,454.736934L111.284194,455.108930L113.782225,454.730045L115.777812,453.710499L117.384083,453.483167L118.476883,453.593389L120.601388,453.669166L122.575525,452.987171L123.159456,451.437182L125.388402,449.349860L128.553673,446.814755L130.895275,446.360089L131.201650,447.875642L132.985163,447.572532L134.651892,446.242978L136.715614,444.768756L139.953999,442.915641L140.552435,443.783643L140.781344,444.727422L141.189787,445.788311L142.106315,446.056978L143.733404,445.678089L147.850839,444.272755L148.250173,444.803200L149.663528,444.761867L150.724409,445.519645L151.273072,446.242978L152.679334,446.318756L153.519435,446.580533L154.146032,447.675865L155.090447,448.626529L155.947616,449.611636L156.344671,449.949190L156.457173,452.518730L156.420288,454.413159L157.691993,455.777145L157.404371,456.796689L159.595942,455.852922L161.769424,456.004476L163.634844,456.645135L165.425435,457.175573L167.140458,458.009118L167.838941,458.725553L168.256826,459.862203L168.348503,461.150405L169.662588,463.458141L171.358861,464.140128L173.594435,463.568361L175.481308,463.871466L176.961827,465.194106L177.429679,465.538543L177.625695,465.614320L177.973798,465.876092L178.272105,465.993200L178.764129,465.993200L179.789808,465.690096L180.167036,465.311215L180.534503,464.587897L181.016064,463.947243L181.331202,463.341032L181.667768,462.397272L181.748617,461.825504L181.746932,461.446622L181.849583,460.805966L181.873759,460.461527L182.029115,459.972423L182.185171,459.779537L182.554328,459.435098L182.689239,459.366210L182.806854,459.269767L182.975861,459.214657L183.255395,459.180213L184.821457,459.138880L185.452447,459.173324L185.631988,459.290434L185.893450,459.400654L186.315682,459.476431L187.299727,459.476431L187.852439,459.111325L187.982350,459.097548L188.812627,458.532667L189.481522,458.188227L190.211806,457.774899L190.764233,457.623345L192.251360,457.127352L192.602117,456.900021L192.785017,456.824244L193.298469,456.486693L196.631188,455.914921L198.764015,455.501593L201.701344,454.971154L203.231182,455.687591L205.103246,455.460260L207.477682,453.490056L210.401188,451.561181L214.250714,451.409627L216.220478,451.788513L217.567415,452.580730L218.538352,453.379835L219.704083,454.626712L220.795222,455.308706L221.399386,456.176696L222.626753,456.900021L225.019844,457.919564L225.928676,457.540680L226.778188,457.878231L227.279018,459.090659L227.257022,460.564859L227.201705,461.853059L228.052210,462.273274L231.462441,462.273274L233.308037,462.197498L234.236733,462.535047L236.064159,462.121721L237.533100,461.288180L239.386386,460.909297L240.555026,461.212403L241.990901,461.398400L243.715316,461.357068L244.782271,461.432844L246.627866,461.357068L246.776273,462.417938L247.084848,463.630360L248.360617,464.615452L249.361195,465.524766L249.338139,466.434079L248.993935,467.680940L248.776570,468.893355L249.569441,469.458229L250.636403,469.534005L251.848981,469.726889L252.696878,470.636198L252.772304,472.447926L252.726748,473.129906L252.950425,474.569640L254.935088,475.478945L257.521375,474.679859L259.314864,474.266538L261.441631,473.584559L264.175763,472.144823L267.225384,470.367539L270.644740,468.059819L273.429878,466.392747L275.577451,465.559210L276.003110,466.392747L275.895648,468.280259L275.005097,469.947328L273.528594,472.034604L272.049389,473.660335L270.528883,474.907185L270.319228,475.816489L271.061119,476.608686L273.057407,476.836011L275.478058,477.786646L277.144217,478.544397L278.240896,479.681023L280.853987,481.113858L281.928151,482.023157L283.729963,483.008229L285.216706,484.599497L286.068586,485.129919L286.490834,485.205694L287.828225,486.604078L289.516946,487.589145L294.205105,488.271114L294.592974,489.483502L290.758978,495.386983L291.024102,497.205551L291.652521,499.134331L291.506388,501.786397L291.444188,504.128475L293.542085,505.037751L296.616811,505.113524L299.718222,504.355794L303.384951,504.280021L305.617335,504.851763L306.753714,505.988356L308.323322,506.704754L308.788298,508.674845L310.090540,509.962979L312.952198,510.190297L315.804457,510.341842L317.810824,511.395768L319.786246,512.229264L321.271973,513.255635L321.980833,513.179862L321.601956,515.749228L319.835643,519.799580L320.001724,520.901714L320.588735,523.133531L320.337078,524.531858L319.144356,527.142521L317.925777,529.718736L314.280903,535.546191L313.686634,537.137369L312.797594,539.369147L310.998270,542.551487L309.922615,544.783252L307.003001,550.011346L306.291352,551.712708L305.261033,553.717144L304.490836,555.948882L303.243960,565.908978L302.075162,569.993551L301.232108,571.811972L300.350151,574.608477L299.539656,576.543983L298.045075,578.961639L296.434644,581.386176L294.782154,584.299745L292.954926,586.800035L290.784697,588.542657L287.456340,590.622778L285.613749,591.642174L282.930706,593.536318L280.381543,595.278927L280.295487,595.409795L281.149325,595.623316L283.069383,595.843725L285.005115,595.499336L286.042916,595.265152L286.980637,594.941426L287.805441,594.404179L289.290860,593.315909L290.904469,592.303403L295.169012,589.775577L295.877925,589.472513L296.843892,589.376083L297.348111,589.444962L297.834992,589.713587L299.449329,590.829412L300.047093,591.146252L300.655523,591.180691L301.245291,591.077374L301.996028,590.726095L305.646476,588.163826L307.038794,587.323510L307.471923,587.130651L308.025181,587.047997L308.769689,587.109987L309.362336,587.240856L309.839970,587.447491L310.039789,587.599024L308.031366,589.389859L306.724336,590.726095L304.951711,592.833763L304.530684,593.550093L304.191074,594.218209L303.033340,595.506224L302.401888,595.898827L301.900380,596.050358L300.324932,596.256991L298.613347,596.890666L297.576707,597.448574L296.097127,598.550615L295.576729,599.005207L295.504221,599.087860L295.244701,599.370258L294.645916,600.348317L294.142943,601.298824L292.801795,604.453400L291.638935,607.387559L291.400320,607.759494L289.883691,609.295446L288.838275,610.287271L287.210254,611.733679L286.324589,612.608411L285.379432,613.703546L283.577195,616.155542L282.919779,617.650155L282.294825,618.338915L281.960898,619.007013L281.569338,620.274330L281.280968,621.424557L280.964354,622.120202L280.570107,622.712534L280.366817,622.967374L279.587793,623.545929L277.155115,624.868341L275.492535,625.805048L273.550766,626.576453L273.266928,626.721091L272.432199,627.368520L267.291569,633.360657L266.216185,634.441993L265.259578,635.523327L264.409905,637.017908L263.786165,637.803078L262.896762,638.602023L261.593094,639.518054L260.575502,640.013950L256.903996,641.322563L255.631189,641.990643L255.250679,642.321240L254.970261,642.741373L254.893118,643.133955L254.966810,643.375015L255.252860,643.636737L255.925060,644.022432L256.195496,644.848921L256.363244,646.515672L256.674470,647.665865L256.615504,647.927586L256.377939,648.382153L256.090501,648.692085L255.038459,649.373935L253.420283,650.696309L252.667333,651.095776L251.065796,651.708751L250.636787,652.004907L249.150073,653.437475L247.854476,654.319054L246.883853,654.725407L245.398525,655.131759L240.536839,656.929350L238.821835,657.742053L237.367353,658.582304L236.589895,658.830247L233.753614,659.305470L232.289369,659.360569L231.861905,659.326132L230.752284,659.016204L230.084184,658.506544L229.941073,658.141517L229.805165,657.445898L229.577042,657.067096L229.049146,656.688294L228.085047,656.254393L227.833955,656.075323L227.620915,655.772280L227.316185,655.145534L227.099372,654.994013L226.631120,654.863153L226.272386,654.897590L225.720142,655.062886L220.943030,670.028928L219.730755,671.922910L219.193431,672.604743L217.129861,676.082771L216.025060,677.522188L215.494786,678.768763L213.241834,681.571829L212.623504,683.693062L211.545159,686.117322L210.461986,687.701353L208.150153,691.220645L206.879967,692.322573L205.168667,694.560861L205.692126,694.581522L206.041103,694.671053L206.233945,694.939647L206.487973,695.125597L207.101834,696.268843L208.069612,696.991979L210.514909,698.266076L211.146907,698.823923L211.325199,699.285352L211.353670,699.526396L210.824853,701.110403L210.742462,701.757779L210.813117,702.205433L211.647597,703.348669L211.993166,703.617261L212.666625,703.872079L213.538033,703.899626L214.524769,703.651696L215.430571,703.038756L215.679081,702.783938L215.817553,702.549781L216.077986,701.440978L216.939099,699.292239L217.047548,698.693070L216.969360,698.321172L216.686341,697.852855L216.353451,697.467183L216.306804,697.129720L216.511084,696.730273L216.755820,696.399696L217.200355,695.311547L217.945346,694.051220L218.665332,693.052600L219.019247,692.632490L219.619795,692.033317L220.062156,691.675190L222.890505,690.111828L225.561886,689.113203L226.779333,688.996123L228.470509,688.541576L229.291333,688.369399L231.644442,687.701353L231.914734,687.604933L232.578879,687.115950L233.232215,686.441016L233.635500,686.124209L234.025592,685.883161L234.490076,685.710984L238.497863,684.836322L239.428895,684.657257L241.109445,684.257805L242.560846,684.078740L244.516853,683.996095L246.443903,684.085627L247.369148,684.574612L244.624230,694.609070L242.482999,702.701295L237.660667,716.178993L230.346165,731.825821L224.019763,749.083849L217.581257,765.260370L211.706873,786.828616L213.053703,797.075418L218.496411,802.474224L231.945749,804.085596L244.617596,800.855963L256.514527,792.764613L265.218398,786.002255L274.560829,778.744027L286.995267,770.652480L296.844815,766.341549L310.273158,762.560860L324.140754,760.405378L327.284723,759.882002L336.927948,758.249891L341.927319,758.621765L343.458876,758.738836L343.518950,763.449220L343.252968,765.212165L342.727574,767.257452L342.656195,768.090715L342.779980,768.703611L343.001888,769.027275L343.413024,769.330280L344.094616,769.550647L344.454066,769.571306L345.351509,769.419804L346.052660,769.178777L346.271679,769.054821L347.551822,793.928395L348.504915,812.617556L340.467820,862.953790L341.548341,863.394478L343.570398,864.027966L344.150436,864.262081L344.409522,864.392910L344.826461,864.482425L345.549992,864.441111L346.245649,864.213881L346.793513,863.931566L347.138039,863.890251L348.468997,864.014195L350.676219,864.096824L351.608105,864.200110L352.448945,864.262081L354.236570,864.702769L356.418101,865.418885L359.242799,866.437972L360.747543,867.092116L362.677938,868.069887L364.281678,869.157828L365.171905,869.536542L366.288673,870.369711L366.709567,870.762195L368.174375,873.123984L369.386611,874.769657L370.325475,875.623479L372.459192,876.573698L376.745308,878.171166L379.515123,879.314180L382.414977,880.884101L383.715362,881.696603L384.566157,882.302536L387.117901,883.638341L388.506859,884.085905L390.204747,884.581667L392.506590,885.407936L393.141962,885.545648L395.406442,886.110265L400.904390,887.149985L401.382485,887.156871L401.857120,887.115558L406.127278,886.192892L407.248451,886.062066L408.758323,885.807300L409.855754,885.807300L411.168836,886.075837L412.408953,886.172235L414.849618,886.151578L416.620396,886.165349L417.244276,886.289290L417.783453,886.640454L418.018092,886.847021L418.421656,887.425408L419.299892,889.043513L419.822074,889.608128L420.880187,890.276026L421.383413,890.689158L421.984948,891.480994L422.354527,892.486281L422.507598,892.727274L423.068119,893.195489L423.587236,893.525994L424.979452,894.434882L425.506035,894.903096L426.198068,895.908379L426.383274,896.011661L426.641296,896.059860L427.270683,895.956577L428.112861,895.688043L428.577293,895.515906L429.189709,895.412623L429.737137,895.529677L430.199145,895.818867L431.440988,896.906775L432.187631,897.547125L433.428982,898.166819L436.131000,899.736706L436.960511,900.225574L437.492763,900.693786L437.838338,901.161997L438.066387,901.726604L438.087106,902.656139L437.879193,903.406652L437.688652,903.757810L437.421652,904.102081L437.122542,904.370613L436.789490,904.639145L436.575415,904.921447L436.438525,905.265719L436.499809,905.623761L436.885369,905.906063L437.628421,906.057542L438.427137,906.140167L438.634249,906.188365L439.097358,906.560177L440.366770,908.019884L441.295897,908.983840L441.564314,909.176631L442.231636,909.376307L442.644956,909.403849L444.120858,909.575984L444.749308,909.830743L445.678471,910.367803L448.656811,912.509155L449.638345,913.156380L450.863870,913.645240L451.641053,913.810489L452.456382,913.865572L459.733974,913.645240L465.104797,913.610813L469.921593,913.817374L470.199903,913.259660L473.795452,904.515207L474.367024,903.888633L480.182566,889.518616L486.657587,874.074206L487.261201,872.869214L488.307372,871.333707L489.780035,869.536542L491.550887,867.615430L492.855778,866.396658L494.907429,864.750969L497.141905,863.242991L499.851011,861.693697L502.099655,860.619518L503.773799,859.951598L505.483687,859.421394L507.761449,858.842988L517.120700,856.260817L518.480767,855.799468L521.307512,854.594452L522.563413,853.954071L524.081036,852.996942L525.888485,851.709292L527.449776,850.414754L528.976228,849.051355L532.299941,846.269465L534.219452,844.899175L536.220318,843.694144L537.694675,842.888493L539.243829,842.179245L541.883687,841.173902L543.075671,840.836492L544.105951,840.678116L545.239491,840.629915L551.215497,840.822720L563.814251,840.919123L575.144642,840.919123L591.033079,840.822720L625.695591,840.685002L649.074436,840.443995L664.421629,840.485310L672.494499,840.326934L698.480349,840.030839L699.795987,840.065269L701.665619,840.072155L717.017578,839.831147L726.919568,839.610798L748.313698,789.658893L773.013172,789.025352L792.617860,788.743013L822.499712,788.619060L829.995738,770.335703L837.744859,751.673214L839.821352,746.721736L840.268511,745.440821L840.453841,744.903663L840.854731,743.326619L841.137306,741.350145L841.208170,739.621587L841.163369,738.567923L840.935530,736.922001L840.473586,735.324283L839.737585,733.747222L838.926869,732.514496L837.581604,731.061392L838.201955,730.482904L839.369065,729.539418L840.180957,729.119325L840.546654,728.967816L843.074858,727.645555L845.379965,726.130462L847.325034,724.766876L847.914902,724.236592L848.166045,723.974894L848.708281,723.479043L848.925486,723.217345L849.665578,722.494229L850.002877,722.115454L851.301517,721.282148L851.584751,721.096203L852.354312,720.682993L852.617661,720.490162L852.870232,720.338652L853.230692,720.001197L853.380915,719.808365L853.637715,719.546665L854.078026,718.823547L854.398893,718.486091L854.888914,718.107314L855.111356,718.031559L855.453894,717.838727L856.532705,717.501271L856.981399,717.425516L857.357874,717.232684L857.940778,716.819472L858.282309,716.330505L858.671830,715.834650L858.948874,715.607383L859.950345,715.194171L860.632259,715.001338L861.422064,714.622560L861.791992,714.360859L862.155193,714.016515L862.622477,713.410469L867.996409,709.512482L869.909718,707.659899L870.434104,707.095170L871.639853,705.201261L871.927459,704.478131L872.104433,703.947835L872.145767,703.644809L872.127265,703.307348L871.994570,702.887243L871.793220,702.625538L871.717623,702.246755L871.695316,701.833536L871.636154,701.413430L871.638322,700.924455L871.766244,700.318400L871.937567,699.788102L872.104657,699.367995L872.412264,698.879019L873.333593,697.515392L874.148096,696.420357L874.528170,695.848735L874.995471,695.242677L875.585788,694.526426L876.026765,694.071881L876.586951,693.431387L876.677347,693.204115L876.991933,692.598055L877.865642,691.268854L878.523838,690.552600L878.923905,690.215134L879.240550,689.987861L879.796075,689.643508L880.335163,689.340477L880.739035,689.078768L881.168805,688.851495L881.407328,688.706866L882.237521,688.169674L883.693927,687.067741L885.858323,685.821177L886.313989,685.628338L886.940306,685.290870L888.313037,684.498854L889.002358,684.002982L889.622386,683.396916L890.142987,682.756414L890.467042,682.226106L890.767941,681.654474L891.062730,680.828018L891.347194,680.297709L891.610985,679.918916L892.143789,679.347283L893.321537,677.907869L893.723365,677.267363L894.043187,676.847246L894.612993,675.414715L894.800776,674.843079L895.168670,674.202571L897.838467,667.391121L908.975208,642.679386L913.224033,633.477745L913.176172,632.830320L913.034548,632.148458L912.913393,630.633206L912.727433,629.579417L912.627196,628.594501L912.672227,627.912635L912.643276,627.416733L912.648718,626.734866L912.517255,625.074967L912.580526,624.048721L912.658165,623.483941L913.357687,622.010001L914.610768,619.812861L914.814315,619.585571L915.158667,619.089664L915.765517,618.332028L916.126028,617.994535L916.456396,617.732806L916.868688,617.464189L917.099179,617.353987L917.432288,617.085370L918.718314,616.141767L919.151301,615.721622L919.518806,615.267039L919.873071,614.660927L920.114217,614.054815L920.957025,612.505096L921.181732,611.940309L921.335653,611.368633L921.433540,610.838284L921.678945,610.121967L921.903655,609.557178L922.259603,608.193418L922.512007,607.360009L922.765813,606.636801L923.199552,605.162834L923.461408,604.405186L923.845830,603.723303L924.149265,603.344479L925.106741,602.359535L926.019615,601.870506L926.602114,601.643211L927.474346,601.071529L928.101159,600.548061L930.008364,599.749083L931.094646,599.108523L931.393826,598.839901L931.751897,598.309544L931.902624,597.930717L932.076500,597.593217L932.440579,597.090411L932.757369,596.649594L933.041448,596.305205L933.368034,595.967705L933.751996,595.471785L934.353685,594.528159L935.118761,593.088611L935.313341,592.599578L935.545067,591.917686L935.673121,591.311559L935.657442,590.967169L935.605088,590.629666L935.647728,589.754913L935.766340,589.073019L935.698311,588.391124L935.812370,588.019182L935.966893,587.716117L936.596457,587.185754L936.952723,586.958455L937.489402,586.462530L937.963045,586.125026L938.855992,585.401802L939.468640,585.098737L940.833414,584.341072L942.683093,583.018603L943.182625,582.715536L943.508745,582.564003L943.991833,582.302264L944.338184,582.185170L945.337248,581.579037L945.614334,581.351737L945.861745,581.014231L946.528461,580.291003L947.107974,578.934087L947.226600,578.252185L947.177324,577.039913L947.294131,576.661078L947.422203,576.054941L947.480536,575.524571L947.379159,575.111295L946.962358,574.353623L946.554524,573.857692L946.286739,573.478855L945.939681,572.645414L945.771787,572.115042L945.531189,570.530812L945.332670,570.262182L945.118184,569.848904L944.642358,568.671061L944.282651,567.954711L944.180240,567.458776L943.956317,566.969729L943.871397,566.515122L943.898119,565.495698L943.829646,564.999762L943.652804,564.207641L943.494361,563.753033L943.419366,563.188216L943.581393,562.582070L944.042616,561.707291L944.783849,560.612094L945.008131,560.233252L945.564562,558.834979L945.688392,558.339039L946.404542,556.823666L946.689130,556.293285L946.879965,555.728463L947.278154,555.012104L947.905315,554.288855L948.425573,553.834241L949.255509,553.269418L950.620313,552.511728L950.923294,552.318861L951.720650,551.636939L952.037823,551.223653L952.397328,550.803478L952.644758,550.465961L952.765369,550.162884L953.478311,548.840365L953.678103,548.537288L954.333484,547.359418L954.612361,546.374414L954.830129,545.926684L954.971459,545.472067L955.127789,544.411291L955.098929,543.915344L954.948009,543.157646L954.772652,542.930336L954.118955,542.668586L953.906433,542.634145L953.156069,542.331066L952.901533,542.103756L952.799153,541.607807L952.834877,540.850107L952.778207,539.940867L952.815865,539.562016L953.079752,539.183166L953.253175,539.031625L953.923406,538.583892L954.265981,538.391023L955.101093,538.012172L955.683603,537.784861L956.479125,537.406009L957.521594,536.875617L958.178120,536.462324L958.697897,536.193684L959.020245,535.966373L959.461336,535.511750L959.640415,535.360209L960.376042,534.264981L960.704514,533.624375L960.821355,533.245522L960.896187,532.673798L960.914981,532.143403L961.320590,529.987379L961.650875,528.589060L961.824188,527.300952L962.123333,526.350368L962.538506,525.406672L963.957888,523.360845L964.212352,522.906216L964.304203,522.789115L964.520113,522.417146L964.687347,521.996958L965.389068,520.901714L965.979594,520.185327L966.243493,519.806469L966.814657,519.124523L967.100661,518.704334L967.424875,518.173931L967.987609,517.044240L968.159123,516.513836L968.287273,515.907660L968.256454,513.896254L968.279548,513.255635L968.066888,510.948022L967.942437,510.493387L967.740187,510.148966L967.357952,509.205253L967.188738,508.109994L967.046809,507.614027L966.900234,506.746085L966.854934,505.609492L966.787542,504.741547L966.836531,504.135364L966.994858,503.453406L967.172045,502.922995L967.630120,502.241036L968.440715,501.255984L968.782431,500.766902L969.012410,500.388036L969.344175,499.554529L969.552894,498.831237L969.677295,498.149276L969.937419,497.012673L970.363955,495.841626L970.650983,494.367482L970.799387,493.795734L970.950194,493.416864L971.263640,492.927778L971.511107,492.590240L971.968683,492.094264L972.265166,491.832500L972.464480,491.715394L972.734573,491.605178L974.125828,491.150533L974.551874,490.847437L974.949128,490.503009L975.343634,489.710825L975.631543,488.987525L976.411131,486.645409L976.595361,485.997882L976.693388,485.467460L976.705212,485.054144L976.613353,484.716603L976.391759,484.406616L976.139661,484.372173L975.913440,484.372173L975.597245,484.413505L974.891677,484.751046L974.339321,484.902595L973.704018,484.978370L972.873172,484.792378L972.614904,484.489279L972.552694,484.261955L972.650725,483.731533L972.868894,483.084004L973.167268,482.519137L973.704546,481.837164L974.950138,480.810759L975.531803,480.287223L976.577565,479.563916L977.719984,478.881941L978.189393,478.654615L978.572597,478.544397L979.121183,478.317072L979.451088,478.241297L980.207044,477.862421L980.396934,477.669539L980.868241,476.684461L980.979472,476.305585L981.098768,475.437613L981.219942,474.948517L981.960830,474.039212L982.569243,473.164349L982.937379,472.523701L982.605599,472.220599L981.872288,471.690170L981.440591,471.538618L981.195525,471.387067L980.526833,470.594866L980.278000,470.367539L979.836881,470.140212L978.571960,469.609781L976.678772,469.038018L975.064232,468.817579L974.526460,468.548919L974.200844,468.514475L973.838904,468.287147L973.148435,468.018487L972.769519,468.018487L972.394893,467.908268L971.889156,467.942711L971.397131,467.942711L970.918818,467.908268L970.390470,467.715383L970.015342,467.336503L968.763618,466.957623L967.791414,466.544299L966.782889,465.938090L965.793209,465.483433L965.243278,465.145885L964.985029,464.842780L964.849311,464.615452L964.660818,464.236570L964.471800,464.043685L964.300785,463.706136L964.202268,463.285922L963.981747,462.603935L963.675091,460.902409L963.516770,460.447749L963.524331,460.144643L963.588958,459.882869L963.849139,459.428209L964.069205,459.159547L964.295950,458.973549L965.125439,458.594666L966.093913,458.250226L966.829135,458.022896L967.148240,457.988452L967.444213,457.912675L967.804286,457.761121L968.520667,457.382237L968.873210,457.079130L969.076822,456.851799L969.414817,456.286917L969.569421,455.983810L969.656161,455.680702L969.714112,455.336261L969.804616,455.108930L970.379666,454.048051L970.557933,453.600277L970.828918,453.104281L970.946490,453.007838L971.298336,452.876950L971.577853,452.842506L971.804069,452.842506L972.301216,453.028504L972.610372,453.104281L972.772488,453.180059L972.982249,453.221392L973.384652,453.062948L973.502054,452.952727L973.779716,452.539397L973.939977,452.236288L974.046938,451.967623L974.774688,450.906741L975.059388,450.376299L975.268717,449.466970L975.320166,449.053639L975.322119,448.295863L975.207160,447.916975L974.559277,446.973199L974.326917,446.704533L973.557828,446.249867L973.235493,446.022534L972.830708,445.988089L972.378277,445.988089L971.571450,445.912311L971.278752,445.795200L970.976274,445.802089L970.660445,445.643645L970.359350,445.533423L970.054492,445.347423L969.778784,445.002978L968.883531,443.260086L968.615884,442.881196L968.091852,442.578084L967.720516,442.274972L967.027868,441.827193L966.758304,441.751415L965.766288,441.103856L965.574541,440.917855L965.376119,440.649187L965.210782,440.311630L965.071399,439.326512L965.045125,438.341394L965.217273,437.624944L965.595785,436.674269L965.666081,436.412488L965.803224,436.068040L965.858449,435.730481L965.852852,435.275810L965.897645,434.779804L965.976001,434.483578L966.126860,434.104685L966.254589,433.684457L966.468166,433.346897L966.658074,433.154006L967.118082,432.850891L967.531461,432.664888L967.753914,432.589109L967.956998,432.547776L968.100277,432.471997L969.045258,432.285994L969.500967,432.093102L969.836527,432.017324L970.047731,431.486871L970.089244,431.183755L970.149589,431.032198L970.166586,430.804861L970.433560,429.750843L970.540535,429.482172L970.617877,429.103277L970.933317,428.311040L971.049707,428.118148L971.431083,427.629027L971.754857,427.284576L971.924550,427.057238L972.111717,426.871234L972.465664,426.451004L972.630243,426.037662L973.258118,425.128309L973.695541,424.597853L973.939296,424.184510L974.127922,423.426715L974.186441,422.896257L974.108726,422.324466L973.837343,421.869787L973.419937,421.497778L973.091965,421.270439L972.720105,421.153324L972.096705,420.815760L971.808321,420.588421L971.479880,420.092407L971.398882,419.713508L971.285964,418.576809L971.557532,417.894789L971.924473,416.689197L972.120159,415.814281L971.687226,415.097813L971.491190,415.022033L971.408259,414.946253L971.079746,414.904918L970.740429,414.904918L969.694242,414.677577L969.412532,414.532906L969.018095,414.188450L968.865950,414.002443L968.767486,413.582207L968.726631,413.017298L968.841212,412.445501L969.126506,411.729030L969.762007,410.516541L969.926052,410.289199L970.150998,409.724289L970.244818,409.304050L970.596037,408.890701L970.703024,408.622024L970.877031,408.284455L971.014745,407.753989L971.012383,407.561092L970.733970,407.223523L970.209425,407.106407L969.883826,407.071961L969.530795,407.106407L969.332017,407.037515L968.973330,407.071961L968.590673,406.996180L968.216077,406.885953L967.840469,406.693057L967.542686,406.389933L967.420722,406.128144L967.322267,405.707904L967.696295,404.385180L967.817002,404.082055L967.986706,403.854712L968.127628,403.586033L968.361441,403.282908L969.516404,402.001516L969.702569,401.732837L970.031221,401.092140L970.158981,400.671898L970.323584,400.258545L970.438182,399.686739L970.445787,399.383613L970.506696,399.046041L970.571051,397.833535L970.529663,397.454627L970.565646,396.696810L970.650625,396.014774L970.632364,395.677200L970.884998,395.525637L971.279567,395.188063L971.852244,394.616254L973.085998,392.838822L973.661188,391.777873L974.115665,391.020051L974.527256,390.455129L975.203632,389.807535L975.416680,389.655971L975.867300,389.277059L976.845757,388.822365L977.541957,388.409006L978.808937,387.499617L979.507882,387.079369L980.840876,386.018413L981.591781,385.453488L982.374210,384.923009L983.377191,384.392530L984.408952,383.903387L984.991490,383.676039L985.939208,383.483137L986.761672,383.221342L989.292949,382.573743L990.841233,382.008816L991.610392,381.781467L992.662366,381.326769L993.661595,380.720505L993.960871,380.451820L994.796774,379.204843L995.134294,378.825928L995.989012,377.730516L996.722742,375.987499L997.183066,374.547613L997.753191,373.300628L998.052650,372.349888L998.226678,372.012306L998.498307,371.330252L999.592707,369.249640L999.826535,368.946505L1000.000000,368.794937Z " data-aland="107445360" data-awater="169948" data-classfp="U1" data-funcstat="S" data-geoid="0604734" data-intptlat="+35.1793999" data-intptlon="-118.6259708" data-lsad="57" data-mtfcc="G4210" data-name="Bear Valley Springs" data-namelsad="Bear Valley Springs CDP" data-pcicbsa="N" data-pcinecta="N" data-placefp="04734" data-placens="02407815" data-statefp="06"/></g><g fill="#000" font-family="Arial" font-size="12px" id="mylayer-label" stroke="none"><text text-anchor="middle" y="511.608135555"><tspan dy="0" x="526.603324723"><![CDATA[Bear Valley Springs]]></tspan></text></g></svg>