<?xml version="1.0" encoding="utf-8"?><!DOCTYPE svg  PUBLIC '-//W3C//DTD SVG 1.1//EN'  'http://www.w3.org/Graphics/SVG/1.1/DTD/svg11.dtd'><svg enable_background="new 0 0 1000 1001" height="1001px" pretty_print="False" style="stroke-linejoin: round; stroke:#000; fill: none;" version="1.1" viewBox="0 0 1000 1001" width="1000px" xmlns="http://www.w3.org/2000/svg" xmlns:xlink="http://www.w3.org/1999/xlink"><defs><style type="text/css"><![CDATA[path { fill-rule: evenodd; }]]></style></defs><metadata><views><view h="1001" padding="0" w="1000"><proj flip="auto" id="robinson" lon0="-121.26949092"/><bbox h="0.42" w="1.01" x="-1655.76" y="-672.06"/></view></views></metadata><g class="" id="mylayer"><path d="M1000.000000,304.652330L999.235729,302.740444L998.774922,300.548372L998.381764,297.927782L998.159763,296.493876L997.201019,295.422569L992.737201,296.345541L989.473505,297.004808L982.768664,297.416850L980.239809,297.021289L976.503681,296.394986L977.995987,295.257752L978.288007,295.027010L982.476036,291.813095L983.963155,290.659385L982.160513,290.511051L981.658684,290.461606L978.944814,290.379198L976.465699,290.527533L976.303614,290.527533L976.106198,290.544014L974.466590,290.741793L973.194800,290.906609L972.815540,290.989016L971.672569,291.219758L970.149278,291.615316L968.603103,292.109764L965.519014,293.296439L962.432804,294.647932L961.815551,294.961083L956.356946,297.614630L942.862575,304.602884L936.942514,307.849802L932.594640,310.470418L929.763915,312.332872L926.979913,314.343667L924.308105,316.453358L922.843834,317.722471L921.748492,318.661945L919.301076,320.969429L916.968981,323.342847L914.765717,325.782198L912.694407,328.254520L911.622874,329.655505L850.051930,351.725386L805.310271,367.746535L674.026028,389.042519L622.000637,397.465432L616.575748,397.696197L613.061671,397.861030L602.505932,398.355528L598.986662,398.503878L598.735210,398.520361L597.962155,398.553328L597.705511,398.553328L594.397170,398.685194L578.757345,399.377492L576.159712,399.492875L561.593226,400.119240L558.962197,400.943406L493.862895,421.251052L462.077005,412.580694L443.147582,412.778496L423.699675,412.959814L403.676307,416.932347L384.280566,420.624674L374.948842,425.306036L316.871042,454.400183L285.134896,478.137657L261.170212,496.056512L257.253545,498.974331L255.618937,500.045849L254.603682,500.639305L237.559432,511.024846L209.839050,527.992420L184.046190,547.181456L166.378663,560.304059L141.475735,581.587428L136.363233,585.939775L63.025052,632.745137L36.783791,649.479515L15.886727,662.768287L11.732140,674.359005L10.906291,677.310289L8.844173,683.196396L6.782106,689.082535L4.493630,695.578762L2.218724,702.075029L1.783496,703.394073L0.453924,707.318239L0.000000,708.620802L8.931360,700.442715L31.646078,693.649675L48.258711,684.597854L57.812447,674.408468L61.546825,671.770455L74.516822,654.804896L81.177124,647.649437L86.807774,641.598661L90.764626,639.323447L105.751720,636.685523L133.813018,634.426807L139.996707,632.530807L153.672197,626.117409L169.401813,614.049117L185.236455,598.584763L190.674048,591.792390L203.176746,572.569557L210.772827,563.881481L220.063581,558.985197L243.940260,550.692890L252.251151,546.159350L265.440883,536.746137L267.293734,534.438182L270.694925,530.827891L273.923628,527.398951L284.847433,516.201171L296.739769,505.370483L324.037677,477.923357L334.242904,467.653539L348.064882,459.345445L362.660008,456.707969L370.719887,457.466243L377.426606,460.103721L386.080861,467.637054L392.085775,474.049497L398.272756,479.324544L401.056253,480.742218L413.968064,487.253650L434.490704,487.995461L437.308711,487.550375L451.859055,485.242520L453.724257,484.517195L455.581146,483.808356L481.901800,473.670354L524.655730,451.037419L544.994938,438.591987L562.644566,437.075468L570.432133,438.212857L591.513065,441.971195L611.826596,442.350327L615.318565,444.987766L620.064679,447.790053L634.270939,456.180475L635.761917,457.054138L639.760157,457.911317L640.218377,457.993738L641.579529,458.241002L642.032555,458.306938L645.247363,458.949824L658.466440,457.433275L674.710773,449.141747L689.644227,437.075468L699.393681,427.547822L703.913048,423.113705L721.593317,408.789495L731.748400,405.393911L743.054984,407.668621L753.658816,412.943331L764.635066,424.630204L772.749771,427.663208L796.669778,428.042334L840.565076,410.322456L852.372082,407.240052L869.286133,402.789539L883.389690,397.135766L904.966751,385.449203L912.226350,378.608751L918.461440,372.246346L930.103899,357.922838L941.237283,339.066875L957.147832,318.694909L964.407839,312.283426L971.166114,310.025407L981.086745,309.530951L993.032443,308.904640L998.751808,310.767091L999.799595,308.690376L999.879965,307.058674L1000.000000,304.652330Z " data-aland="1578643" data-awater="299661" data-classfp="U1" data-funcstat="S" data-geoid="0604856" data-intptlat="+40.0067829" data-intptlon="-121.2481908" data-lsad="57" data-mtfcc="G4210" data-name="Belden" data-namelsad="Belden CDP" data-pcicbsa="N" data-pcinecta="N" data-placefp="04856" data-placens="02407822" data-statefp="06"/></g><g fill="#000" font-family="Arial" font-size="12px" id="mylayer-label" stroke="none"><text text-anchor="middle" y="453.323132038"><tspan dy="0" x="512.226921807"><![CDATA[Belden]]></tspan></text></g></svg>