<?xml version="1.0" encoding="utf-8"?><!DOCTYPE svg  PUBLIC '-//W3C//DTD SVG 1.1//EN'  'http://www.w3.org/Graphics/SVG/1.1/DTD/svg11.dtd'><svg enable_background="new 0 0 1000 1001" height="1001px" pretty_print="False" style="stroke-linejoin: round; stroke:#000; fill: none;" version="1.1" viewBox="0 0 1000 1001" width="1000px" xmlns="http://www.w3.org/2000/svg" xmlns:xlink="http://www.w3.org/1999/xlink"><defs><style type="text/css"><![CDATA[path { fill-rule: evenodd; }]]></style></defs><metadata><views><view h="1001" padding="0" w="1000"><proj flip="auto" id="robinson" lon0="-93.8861663543"/><bbox h="0.43" w="0.45" x="-1252.74" y="-739.97"/></view></views></metadata><g class="" id="mylayer"><path d="M1000.000000,364.904947L933.698016,363.132164L958.216206,313.132357L875.517549,313.096177L870.625568,312.915280L864.463573,326.337824L857.822824,340.158326L851.261832,332.379773L837.145915,316.388501L838.977067,311.902257L824.884396,311.649002L825.947799,308.392857L827.498898,303.146843L827.819889,299.492722L828.777061,294.897934L829.523966,289.651915L828.956770,283.103433L821.800782,274.275640L790.010891,247.828401L755.988956,231.728482L761.798113,218.559094L795.056213,144.824740L849.023365,22.536185L771.523858,19.786488L766.648592,23.368330L754.778539,29.953129L746.709531,34.728914L742.008429,39.106716L738.384394,44.063400L735.323735,51.842132L732.345907,58.390735L727.775618,65.952378L722.016218,73.116035L713.266736,80.894749L706.915869,85.887595L704.155311,89.469419L701.062906,95.222042L700.538469,98.405883L701.068199,104.773561L704.308360,111.141237L704.973076,114.723053L704.700594,119.317907L703.672101,122.103762L702.570383,123.478599L701.133936,124.672537L698.409642,125.685575L693.685461,125.070516L678.206052,122.103762L664.589539,121.524883L655.223453,120.113865L647.707942,115.157213L641.830919,111.575397L637.972781,110.562358L633.177429,110.562358L628.775818,111.792477L622.241922,115.157213L616.713614,118.341048L611.572206,120.150045L599.995602,125.106696L586.968633,132.270319L580.514412,134.477293L570.958028,137.480225L563.931349,138.457082L559.190716,137.878203L553.055021,137.878203L542.827459,139.868097L530.198671,143.666984L526.748442,144.245862L510.243039,145.041819L497.225306,144.390582L490.701549,144.064963L474.301387,142.075070L464.247700,139.687198L456.512429,136.720447L448.623698,134.549653L440.155998,133.717516L433.133316,131.148742L429.421314,127.784010L427.597407,123.804219L422.490346,121.018364L419.079007,120.005326L415.385430,118.630488L414.237742,117.617449L413.060016,115.229573L412.606242,111.249777L411.704517,109.368419L411.075664,108.065940L405.462051,103.905242L403.766354,102.132422L399.617134,94.751702L394.159569,90.771900L389.641427,89.179978L384.115177,86.792096L381.706954,84.621294L380.456145,80.822389L380.265707,76.263701L381.294100,66.929240L338.405596,161.105670L332.452632,174.130399L320.242993,201.699364L315.593892,212.119114L310.510800,223.624245L306.848915,231.873200L275.498563,221.887622L260.297477,258.392831L239.153688,309.080265L234.937444,309.116444L219.480898,308.718471L182.240198,309.261162L167.248601,309.478238L153.534399,337.408699L136.309762,373.189988L83.499062,373.189988L45.454014,459.079141L0.000000,559.692442L31.060706,559.511549L152.093109,562.442021L155.260753,562.550557L146.393216,581.725238L139.462400,597.426747L129.547989,619.821262L51.097257,618.229408L37.717912,648.112823L4.343961,722.495452L80.229000,724.557610L59.172566,767.790498L38.932955,814.206902L34.769329,823.757879L27.476523,831.608488L23.862983,842.570390L26.394992,842.570390L34.960694,842.534212L45.770755,842.606568L78.501928,842.751279L177.724708,843.149236L191.973772,843.257769L236.438455,843.474837L239.788091,843.511014L446.603926,845.356086L477.157471,845.573153L463.614884,874.841017L473.028049,874.841017L463.867482,893.617275L454.615347,894.377007L415.724721,979.213512L555.392013,979.177335L619.705090,837.686375L632.358923,837.831087L675.542826,744.925926L795.235083,487.262523L805.662960,469.173068L808.811028,461.068984L810.835368,455.895392L829.488683,461.973458L852.491407,469.426321L866.698069,473.623077L870.006730,475.649096L925.005178,493.051143L935.624597,496.162526L945.385378,475.214949L955.554310,453.435222L959.985603,443.883967L967.808075,426.807464L986.476628,390.917789L1000.000000,364.904947Z M211.904656,402.278040L219.172301,386.033602L228.609201,367.835464L245.949524,368.414332L234.844317,391.460476L233.455286,394.318630L231.428632,398.841022L229.980900,402.024786L211.904656,402.278040Z "/></g><g fill="#000" font-family="Arial" font-size="12px" id="mylayer-label" stroke="none"><text text-anchor="middle" y="494.166533841"><tspan dy="0" x="466.202007029"><![CDATA[N]]></tspan></text></g></svg>