<?xml version="1.0" encoding="utf-8"?><!DOCTYPE svg  PUBLIC '-//W3C//DTD SVG 1.1//EN'  'http://www.w3.org/Graphics/SVG/1.1/DTD/svg11.dtd'><svg enable_background="new 0 0 1000 1001" height="1001px" pretty_print="False" style="stroke-linejoin: round; stroke:#000; fill: none;" version="1.1" viewBox="0 0 1000 1001" width="1000px" xmlns="http://www.w3.org/2000/svg" xmlns:xlink="http://www.w3.org/1999/xlink"><defs><style type="text/css"><![CDATA[path { fill-rule: evenodd; }]]></style></defs><metadata><views><view h="1001" padding="0" w="1000"><proj flip="auto" id="robinson" lon0="-92.2331003671"/><bbox h="0.47" w="0.42" x="-1231.14" y="-739.35"/></view></views></metadata><g class="" id="mylayer"><path d="M271.920683,0.000000L259.931015,28.814753L259.700104,29.331764L244.146467,65.936055L237.784034,80.308897L219.442039,80.067626L223.858646,70.623602L154.843171,67.349212L144.749857,91.028200L72.747211,247.542785L54.087977,286.145514L146.377957,285.869781L106.660258,374.173087L224.878598,376.034274L249.403813,376.034274L268.119010,334.123029L291.720776,312.098890L302.833915,301.069574L311.158365,292.280580L402.040413,293.314580L425.131062,289.661114L419.565896,301.552106L329.869225,499.320097L326.531417,512.072547L325.276711,514.691967L328.180332,514.864297L285.533860,608.473769L248.560873,690.777857L229.524455,733.480652L317.266678,732.343292L327.055646,716.075575L340.351428,712.491160L370.551460,710.147504L404.154847,710.354297L414.769305,710.423228L473.857273,715.351799L488.720937,717.729920L503.209087,717.833317L559.559002,718.212437L491.087358,878.028064L460.653422,946.337710L437.942977,996.518536L477.640826,997.449085L542.144387,998.965535L558.225386,999.000000L560.581646,999.000000L637.162773,996.863183L640.352936,996.966578L647.208572,981.733133L665.631752,940.582067L479.602584,940.582067L507.524065,878.028064L584.703117,699.532114L586.006968,693.431707L578.953740,685.194430L569.433485,676.061042L568.289361,673.028066L625.789236,546.641963L621.859157,545.780313L643.049017,499.078834L613.510861,498.734173L595.299881,498.768639L557.971950,498.768639L513.702384,498.803105L488.685871,498.630775L476.991374,523.997799L444.866209,524.170129L455.863138,498.458444L335.815574,497.700190L333.400351,497.769122L421.959843,301.276373L426.983291,289.454314L428.708983,289.213047L482.056833,288.868381L487.522190,288.833914L566.363396,291.660180L585.983302,249.817592L605.963986,249.886526L663.156109,250.403527L692.439914,250.679261L709.969913,251.023929L716.833311,253.643403L722.185496,258.503215L725.379117,266.671831L726.268677,269.256835L727.511533,272.703506L730.003405,279.010911L733.180222,281.940580L736.251644,282.181847L743.858166,280.975513L749.638143,280.872113L739.252934,304.895369L712.975481,361.144768L648.483792,499.113300L652.328937,499.147766L656.174081,499.182232L667.296720,499.320097L737.952259,500.078351L776.743284,500.043885L809.175785,500.009419L811.191210,500.009419L819.479999,500.009419L856.227212,499.974952L897.333985,500.285147L905.453897,482.604028L908.757054,475.331670L945.912023,395.852455L869.411060,399.988419L860.703254,401.436006L818.876385,402.676795L838.626921,356.974325L871.790588,280.148312L772.648202,298.760309L742.709083,304.274970L753.665018,278.528378L767.419440,261.708622L786.988861,251.954532L809.993940,245.440312L839.310344,237.823151L851.732610,234.031803L864.225041,202.046562L834.226441,206.423857L809.888691,209.629277L795.313591,211.249220L778.704010,213.420633L764.069724,247.404918L751.366459,276.873977L745.276319,277.735644L737.748101,278.321578L733.199940,276.873977L729.814049,267.292232L728.743575,264.603827L725.123150,256.056076L719.673151,250.334594L712.491708,247.473852L694.539704,246.612182L664.754222,246.887917L666.521623,242.993170L722.555119,113.052721L643.587342,113.121656L625.467504,113.018254L581.131084,113.018254L546.897109,113.087188L527.493181,112.363378L513.603293,103.677656L509.672769,114.259071L506.679415,114.224604L482.799766,112.018707L462.531740,110.433218L473.927480,88.029554L479.029806,73.553318L470.753199,74.035860L402.864838,72.622703L349.028547,69.934257L377.650046,0.827219L370.180287,0.965088L346.757833,0.723816L331.747585,0.585947L271.920683,0.000000Z "/></g><g fill="#000" font-family="Arial" font-size="12px" id="mylayer-label" stroke="none"><text text-anchor="middle" y="373.211701032"><tspan dy="0" x="458.203735188"><![CDATA[N]]></tspan></text></g></svg>