<?xml version="1.0" encoding="utf-8"?><!DOCTYPE svg  PUBLIC '-//W3C//DTD SVG 1.1//EN'  'http://www.w3.org/Graphics/SVG/1.1/DTD/svg11.dtd'><svg enable_background="new 0 0 1000 1001" height="1001px" pretty_print="False" style="stroke-linejoin: round; stroke:#000; fill: none;" version="1.1" viewBox="0 0 1000 1001" width="1000px" xmlns="http://www.w3.org/2000/svg" xmlns:xlink="http://www.w3.org/1999/xlink"><defs><style type="text/css"><![CDATA[path { fill-rule: evenodd; }]]></style></defs><metadata><views><view h="1001" padding="0" w="1000"><proj flip="auto" id="robinson" lon0="-95.6202287692"/><bbox h="0.51" w="0.77" x="-1275.42" y="-741.25"/></view></views></metadata><g class="" id="mylayer"><path d="M1000.000000,172.327355L995.094502,172.578645L867.390104,174.777426L794.382185,176.117635L784.483517,197.916932L778.177905,211.779655L746.996957,212.114705L753.278897,198.377627L763.212205,176.578331L739.746939,176.955265L669.389946,178.002303L645.926852,178.337355L638.160245,195.089938L614.861032,245.347423L607.094830,262.099831L601.761912,273.826490L598.141944,281.783854L585.522277,309.006340L580.086194,320.732914L578.901912,323.287629L577.076956,327.224401L575.412654,330.888948L574.265023,333.401778L570.948334,340.668041L569.145964,344.667623L567.639185,347.955236L565.144481,353.336866L562.300338,359.472338L555.163846,374.570180L553.360563,378.423161L548.044663,389.667987L546.600548,392.746177L543.609927,399.049131L542.304866,401.938856L540.904927,404.996099L512.370052,405.268320L426.760065,406.022160L398.227360,406.252500L389.185894,406.357200L367.236404,406.545661L364.557796,412.806722L359.879189,423.716450L344.451662,458.853606L329.276694,457.806613L317.888501,456.989959L278.610129,457.618155L195.541647,457.680974L190.958977,457.680974L184.081012,472.925167L185.486200,472.904227L184.017558,476.778089L161.072772,476.882788L160.053422,479.081465L157.005090,485.656553L155.995455,487.834288L155.490638,488.923155L153.976189,492.189755L153.471374,493.278621L152.578241,495.205077L149.908556,500.963500L149.025135,502.869013L144.015876,513.673892L139.006658,524.478753L136.475129,529.902116L120.875317,563.216964L104.178735,599.232825L98.700760,610.937938L87.213265,635.457882L86.102309,637.928717L66.117686,638.075292L46.590722,638.200928L34.909057,663.139555L54.838980,662.888284L74.881980,662.616075L74.260752,663.956183L72.337862,667.955568L71.709114,669.274736L69.686980,673.525387L65.373134,682.571098L63.655078,686.277324L61.684658,690.527964L52.026048,710.880745L47.557022,720.261430L34.960844,747.063313L27.632815,762.872185L23.420453,771.959653L20.304878,778.681020L15.840219,788.312875L14.168427,792.291245L11.345051,798.531001L2.840549,817.250233L0.000000,823.489965L0.000000,823.489965L5.363829,823.552781L21.430561,823.720290L26.786866,823.762168L55.988867,824.474083L143.543252,826.609829L146.960113,826.672645L174.837506,822.212705L177.786681,815.700768L186.628953,796.102104L187.293229,794.594512L189.622354,789.569203L196.907348,789.464509L204.192341,789.359815L219.818684,789.213243L224.792718,789.150427L239.287449,788.731651L290.120971,787.789405L310.678358,787.412506L340.954467,786.847159L345.256539,786.784342L358.182160,786.554015L362.476705,786.470260L362.907447,786.470260L364.157688,786.449321L364.580904,786.428383L376.221823,786.218995L444.150281,785.381442L453.694523,785.234871L462.275269,763.186268L373.814551,766.578366L375.129921,763.814435L379.068522,755.501696L380.376377,752.716821L384.355017,744.131862L396.291094,718.376918L400.269841,709.791915L401.560513,707.007021L405.432546,698.652333L406.732934,695.846495L407.237563,694.757662L408.770861,691.449285L409.285196,690.339512L410.459435,687.805879L411.676853,685.104733L415.721665,676.079964L418.838029,669.170040L421.954411,662.260109L422.536691,661.003757L449.069456,661.003757L450.283016,661.024696L460.343597,661.213149L475.332888,661.213149L476.485472,660.584973L476.808673,660.333702L543.887960,660.208067L544.208191,659.517073L547.535579,659.475195L567.673183,659.370499L579.668630,632.966107L591.029768,608.823062L588.240880,608.781183L584.661646,608.697426L572.760684,608.948698L569.544240,609.011516L567.551042,609.074334L569.816519,604.111703L576.642118,589.160967L578.900107,584.177381L584.187473,573.623893L599.998112,541.963325L605.278107,531.388829L629.140355,480.610069L667.129955,480.086575L688.927229,479.521201L705.655904,442.981183L708.412200,437.034250L716.663938,419.193417L719.403057,413.246462L759.503514,327.622267L762.665163,325.632941L789.519843,325.193195L803.568515,321.235481L810.575459,321.654287L811.488265,321.989332L816.778283,323.287629L930.118969,321.277362L953.638956,271.125172L957.018682,263.796010L959.253161,258.937817L963.661725,249.388945L973.699456,228.029576L975.104625,225.035070L985.005181,204.492306L995.955896,180.829304L1000.000000,172.327355Z " data-aland="5656893" data-awater="122742" data-classfp="C5" data-funcstat="A" data-geoid="2765308" data-intptlat="+44.2382472" data-intptlon="-095.6162422" data-lsad="25" data-mtfcc="G4110" data-name="Tracy" data-namelsad="Tracy city" data-pcicbsa="N" data-pcinecta="N" data-placefp="65308" data-placens="02397044" data-statefp="27"/></g><g fill="#000" font-family="Arial" font-size="12px" id="mylayer-label" stroke="none"><text text-anchor="middle" y="504.102957194"><tspan dy="0" x="452.336487224"><![CDATA[Tracy]]></tspan></text></g></svg>