<?xml version="1.0" encoding="utf-8"?><!DOCTYPE svg  PUBLIC '-//W3C//DTD SVG 1.1//EN'  'http://www.w3.org/Graphics/SVG/1.1/DTD/svg11.dtd'><svg enable_background="new 0 0 1000 1001" height="1001px" pretty_print="False" style="stroke-linejoin: round; stroke:#000; fill: none;" version="1.1" viewBox="0 0 1000 1001" width="1000px" xmlns="http://www.w3.org/2000/svg" xmlns:xlink="http://www.w3.org/1999/xlink"><defs><style type="text/css"><![CDATA[path { fill-rule: evenodd; }]]></style></defs><metadata><views><view h="1001" padding="0" w="1000"><proj flip="auto" id="robinson" lon0="-73.7276081674"/><bbox h="0.23" w="0.27" x="-992.54" y="-714.92"/></view></views></metadata><g class="" id="mylayer"><path d="M1000.000000,430.418439L993.842430,423.489869L965.969378,386.196145L953.815945,370.712350L916.141896,307.210892L891.508663,272.267138L882.767050,262.687744L871.433069,251.059935L854.694442,236.841488L815.039801,209.067358L780.776208,188.703714L773.828640,183.341694L756.652533,168.219604L736.844224,146.530579L729.011337,137.071764L699.392189,99.055828L677.113913,69.173324L646.693786,90.681491L621.157975,108.032640L584.495321,133.577427L465.577708,144.120689L352.333739,162.556355L298.113332,167.858120L268.191972,172.135681L195.653767,185.028621L144.211158,197.198603L71.091418,222.201321L56.256032,270.098218L39.502654,290.100491L25.838484,306.367422L0.000000,311.849984L6.442490,323.598338L25.180097,369.386890L39.999586,394.811649L45.486964,403.969394L60.156763,429.394215L64.914365,437.045770L122.175728,539.528804L127.217173,547.662409L135.919868,561.700422L146.600526,581.160865L164.261100,610.381705L175.975101,629.601219L178.005755,632.553435L195.502242,665.148350L201.682362,674.908765L207.207731,683.524445L216.675128,700.273824L240.318881,735.339135L258.388088,769.320036L270.878228,801.794768L284.040329,835.655328L295.710305,830.232813L314.164664,821.376043L341.523440,808.301773L354.668397,847.283618L365.332426,882.590297L390.505662,878.312521L463.806229,867.708461L467.943822,874.697499L468.816483,877.529266L468.462560,883.915806L461.011036,910.727254L460.912080,918.258568L462.965841,924.042621L466.738699,927.597404L472.635059,929.344671L478.468050,929.826676L483.474879,928.501163L486.931888,927.175650L490.409686,925.789887L492.866811,924.464375L498.383941,920.066084L504.886573,912.956522L510.505643,905.364960L515.727724,896.026139L521.655652,883.192801L530.257519,863.189688L563.332180,862.526934L648.970614,854.995649L673.624481,852.947141L726.356006,847.765620L764.111665,844.692858L767.564682,843.668605L769.696563,841.981599L771.607680,840.354843L772.972821,838.426837L788.248024,799.806517L804.100076,757.631561L821.538354,756.065065L894.021271,751.305329L960.729644,746.184095L965.886867,745.581597L969.464584,744.195852L971.199950,741.484611L972.402224,739.014371L972.710658,703.346554L973.419332,679.849224L971.510664,660.750141L971.848954,619.057595L973.940835,576.340939L974.983562,540.432537L973.837568,527.238030L964.283035,485.967619L965.114924,477.472557L968.465827,466.748301L982.287793,445.962548L1000.000000,430.418439Z "/></g><g fill="#000" font-family="Arial" font-size="12px" id="mylayer-label" stroke="none"><text text-anchor="middle" y="480.707001222"><tspan dy="0" x="527.516311539"><![CDATA[N]]></tspan></text></g></svg>