<?xml version="1.0" encoding="utf-8"?><!DOCTYPE svg  PUBLIC '-//W3C//DTD SVG 1.1//EN'  'http://www.w3.org/Graphics/SVG/1.1/DTD/svg11.dtd'><svg enable_background="new 0 0 1000 1001" height="1001px" pretty_print="False" style="stroke-linejoin: round; stroke:#000; fill: none;" version="1.1" viewBox="0 0 1000 1001" width="1000px" xmlns="http://www.w3.org/2000/svg" xmlns:xlink="http://www.w3.org/1999/xlink"><defs><style type="text/css"><![CDATA[path { fill-rule: evenodd; }]]></style></defs><metadata><views><view h="1001" padding="0" w="1000"><proj flip="auto" id="robinson" lon0="-75.2315021033"/><bbox h="0.18" w="0.27" x="-1002.02" y="-744.8"/></view></views></metadata><g class="" id="mylayer"><path d="M1000.000000,167.708349L854.922591,217.636463L737.161024,256.891415L562.208005,322.858783L546.136233,329.853477L523.960817,341.491192L515.693285,323.763270L511.744852,316.828872L508.353767,314.055112L504.087380,312.185839L491.082439,309.170881L478.882811,309.773873L451.532690,314.175710L444.768277,313.452121L440.473974,312.065240L437.984705,309.532676L434.461728,300.487800L435.040872,286.317482L432.238876,276.790197L427.427013,269.916075L394.761433,295.482966L0.000000,668.730183L190.231601,694.055163L334.000006,710.395781L375.174248,717.872663L441.435537,731.741062L491.468707,741.931312L458.682317,795.173741L445.442154,816.760082L521.461453,831.291651L686.194350,826.588490L730.663134,757.910091L820.597035,647.746594L834.461527,615.246089L870.120975,531.130335L872.851597,527.994828L874.229474,524.497530L874.491308,520.397249L919.254431,389.187636L1000.000000,167.708349Z "/></g><g fill="#000" font-family="Arial" font-size="12px" id="mylayer-label" stroke="none"><text text-anchor="middle" y="515.735297629"><tspan dy="0" x="553.497820957"><![CDATA[N]]></tspan></text></g></svg>