<?xml version="1.0" encoding="utf-8"?><!DOCTYPE svg  PUBLIC '-//W3C//DTD SVG 1.1//EN'  'http://www.w3.org/Graphics/SVG/1.1/DTD/svg11.dtd'><svg enable_background="new 0 0 1000 1001" height="1001px" pretty_print="False" style="stroke-linejoin: round; stroke:#000; fill: none;" version="1.1" viewBox="0 0 1000 1001" width="1000px" xmlns="http://www.w3.org/2000/svg" xmlns:xlink="http://www.w3.org/1999/xlink"><defs><style type="text/css"><![CDATA[path { fill-rule: evenodd; }]]></style></defs><metadata><views><view h="1001" padding="0" w="1000"><proj flip="auto" id="robinson" lon0="-87.6400812531"/><bbox h="0.49" w="0.61" x="-1196.97" y="-671.07"/></view></views></metadata><g class="" id="mylayer"><path d="M1000.000000,94.081750L989.649959,94.218749L911.801421,95.150341L893.310472,95.396939L837.094549,96.081933L738.837583,97.287524L697.524606,97.780720L573.251545,99.315110L466.549334,100.602902L442.847195,100.986500L371.738236,102.082495L348.023603,102.438693L347.263634,103.479889L345.883506,105.918481L345.248099,106.740479L343.230173,110.192876L341.172039,113.015078L340.768480,113.754879L339.682115,115.261883L339.138746,115.645484L337.396934,117.782692L331.678573,125.673944L330.119199,128.605773L329.366680,129.564783L328.014069,132.113013L326.045599,134.688647L325.103468,135.428458L324.811994,135.921665L318.271671,140.579740L317.621401,141.566157L316.797166,143.648596L310.639973,160.774008L307.260280,168.035233L305.838007,170.775326L302.495262,177.132358L297.753273,187.215973L296.946895,189.928695L296.161124,193.819677L295.776916,197.902477L295.862184,198.779321L296.064430,199.272546L296.060073,200.396004L296.522070,201.656469L296.607340,202.533315L296.355856,203.163549L293.177904,205.300864L291.526647,208.671250L290.624372,209.301486L289.193050,209.164478L287.895398,207.301174L287.762998,206.862749L287.824746,201.382455L287.721258,199.135539L288.049476,197.491456L287.448066,196.614613L286.759690,196.285796L285.944377,196.368000L283.341898,197.601062L275.079309,203.355359L262.247835,211.986840L248.202726,221.796639L237.929155,229.688361L231.624182,235.798989L231.118417,236.511440L229.269271,238.265168L228.681317,239.142032L228.137961,239.525661L226.374102,242.156257L224.067895,246.896822L224.008577,247.801093L224.161478,249.171201L226.314837,255.966954L227.186014,257.583690L226.795573,259.337439L226.027953,259.967693L225.220065,259.967693L224.452446,260.597947L225.268642,261.995467L226.139387,262.872344L226.067597,263.749221L225.776153,264.242464L224.003139,263.995842L222.711206,263.475196L219.165619,263.721818L218.204817,262.351698L218.564947,259.940290L218.380074,259.337439L217.541587,258.186541L216.783198,257.556288L216.199578,257.309667L213.314316,256.789023L212.975026,256.487598L212.061642,255.172288L213.159825,252.706086L212.640861,252.158041L211.231966,252.021030L209.880725,252.404661L207.771818,253.391142L204.890524,255.391506L204.621516,255.884748L202.829746,257.665897L202.498466,258.268748L201.681054,259.036013L196.752926,265.804402L196.169742,266.297646L195.447149,267.174525L193.822288,268.681661L189.415720,271.915157L188.087212,272.792038L185.160606,274.052556L184.462690,274.490997L184.123689,274.682815L179.793233,275.915931L177.619090,276.217360L167.757211,275.998139L161.693564,276.875022L159.893784,277.751906L157.914765,279.122038L155.982387,283.451662L155.581262,283.999716L154.454725,284.876604L153.409054,283.369454L153.889110,281.369057L153.624572,280.985419L153.449654,280.355158L153.655656,278.738401L153.306260,278.217751L152.520373,277.477880L151.605036,277.094243L149.393004,276.573594L148.046520,276.573594L147.323489,276.710607L142.974763,276.573594L141.844247,274.929438L142.672557,271.476716L142.477009,269.668150L142.710806,268.654258L142.568438,268.243221L141.261215,267.147122L139.632810,266.873098L139.276274,266.927903L120.887601,310.306528L104.459410,348.972779L91.737224,379.665237L65.850179,440.421447L62.882666,447.354969L57.032776,461.605771L47.622888,483.804368L38.111204,506.222494L9.510540,573.478592L2.991712,588.771903L0.000000,595.897864L2.179677,596.199347L3.783260,596.418608L4.160104,596.802314L5.013124,597.048983L5.565024,598.063065L5.110916,600.858646L4.939577,601.763099L4.429848,603.599415L3.564564,606.723898L3.991609,610.615805L4.408864,611.629895L7.950545,612.506946L9.023122,612.890656L9.539306,612.890656L9.843752,613.164735L11.173152,613.521037L12.797645,614.918839L13.614800,617.056656L15.734244,619.934491L17.679557,620.263386L18.215847,620.455242L21.617607,620.975994L24.784182,620.537466L26.830952,619.907083L30.419064,619.605595L31.020749,620.482650L32.217112,622.812330L33.351026,625.004973L35.577231,627.279843L38.884862,625.525726L39.921703,624.895341L41.851382,624.401996L45.791167,624.182732L47.048170,624.429404L52.219064,626.320560L52.461264,626.704273L53.179639,626.950946L56.258890,629.472491L58.323345,632.131081L60.545599,632.624428L65.607738,632.651836L67.178534,632.405162L71.680834,633.912612L74.600264,636.132677L75.586037,637.064557L80.262813,638.462378L100.809893,640.655040L105.787139,640.545407L113.182931,640.079466L114.731282,639.832791L121.972930,639.915016L135.372606,641.395064L136.782269,642.272130L137.473550,642.902521L138.097713,643.779588L137.842364,645.533723L136.496414,649.179040L136.375095,650.193152L136.434167,652.193970L137.238304,653.564394L137.897623,654.715551L139.388183,656.853417L140.990324,658.251253L141.489152,658.360888L142.137884,658.799425L143.293495,660.005403L144.792734,660.635800L147.526553,661.512876L150.560186,663.047759L152.558258,663.787793L153.736104,664.747096L159.477340,668.529497L163.134367,672.860081L164.871410,674.504610L165.522476,674.751289L165.871831,675.025378L167.383142,675.189831L163.238372,683.330273L157.712656,694.842074L144.171740,722.251427L139.965161,730.748413L123.139238,764.736768L101.155850,807.990639L326.129118,804.098295L290.308690,904.918250L305.373193,904.534476L320.285692,904.260352L415.473659,902.396310L446.193839,901.793238L507.065416,900.422621L514.447489,878.218766L535.065122,819.475844L540.900472,802.837397L545.151931,790.502571L549.875319,776.249101L556.639224,757.610123L571.856329,713.206293L574.940166,704.709392L604.184442,619.194476L618.860736,576.603021L632.761959,536.150317L635.596858,527.106141L639.850351,514.773249L645.024945,500.522014L645.372201,498.329527L645.594550,495.862982L717.377082,293.892127L717.400662,291.973927L717.649529,291.288856L727.355540,264.571293L729.791854,257.556288L732.009180,251.144159L732.157674,249.500027L731.158801,247.307854L733.202156,245.389704L734.148753,244.019599L735.169601,241.827433L740.403221,226.619354L759.310607,171.679557L762.404150,162.363255L766.403676,150.306936L768.346043,146.196847L770.438524,142.908782L771.834012,141.538757L773.104664,139.894728L776.270155,137.976697L779.884462,136.058667L784.322095,134.962651L790.330584,133.866636L797.137133,133.044625L802.747335,133.044625L810.626884,133.592632L816.327000,133.839236L823.443415,134.140640L835.935970,134.962651L844.812728,135.236655L862.815928,136.332671L870.246673,136.880680L875.856879,136.880680L880.992993,136.332671L886.552646,135.236655L893.009931,134.140640L895.577986,133.866636L898.470016,133.318629L904.154507,132.496618L915.997579,131.400604L922.977961,129.482582L927.041038,127.564562L930.655300,125.646544L935.241482,122.906522L940.251206,119.618501L945.485339,116.330487L949.423576,114.138480L950.218806,113.864480L956.154267,111.672476L959.819076,110.850476L983.381827,110.850476L994.534862,110.850476L995.637358,107.507678L998.909961,97.451922L1000.000000,94.081750Z " data-aland="6172211" data-awater="0" data-classfp="U1" data-funcstat="S" data-geoid="1755886" data-intptlat="+39.9414083" data-intptlon="-087.6379426" data-lsad="57" data-mtfcc="G4210" data-name="Olivet" data-namelsad="Olivet CDP" data-pcicbsa="N" data-pcinecta="N" data-placefp="55886" data-placens="02628557" data-statefp="17"/></g><g fill="#000" font-family="Arial" font-size="12px" id="mylayer-label" stroke="none"><text text-anchor="middle" y="458.149233935"><tspan dy="0" x="403.921747353"><![CDATA[Olivet]]></tspan></text></g></svg>