<?xml version="1.0" encoding="utf-8"?><!DOCTYPE svg  PUBLIC '-//W3C//DTD SVG 1.1//EN'  'http://www.w3.org/Graphics/SVG/1.1/DTD/svg11.dtd'><svg enable_background="new 0 0 1000 1001" height="1001px" pretty_print="False" style="stroke-linejoin: round; stroke:#000; fill: none;" version="1.1" viewBox="0 0 1000 1001" width="1000px" xmlns="http://www.w3.org/2000/svg" xmlns:xlink="http://www.w3.org/1999/xlink"><defs><style type="text/css"><![CDATA[path { fill-rule: evenodd; }]]></style></defs><metadata><views><view h="1001" padding="0" w="1000"><proj flip="auto" id="robinson" lon0="-89.106273358"/><bbox h="0.16" w="0.22" x="-1220.87" y="-659.94"/></view></views></metadata><g class="" id="mylayer"><path d="M1000.000000,151.324116L973.543428,150.872113L901.410673,149.516104L894.016513,149.440770L867.445050,149.139434L818.568451,148.612098L779.293897,148.160095L672.179734,146.352083L623.348960,145.523412L615.832143,145.448078L593.362049,144.996075L585.810687,144.845408L560.615286,144.468739L484.906428,143.338733L459.649702,142.962064L454.954071,142.886730L440.744519,142.660729L435.987558,142.585395L364.686728,141.304721L297.430179,140.551384L254.169207,140.099382L204.331261,284.063809L164.981895,394.054616L127.789571,498.849068L16.226180,813.243192L0.000000,858.900618L48.647305,857.318424L66.172959,857.017054L118.803465,855.962259L136.294558,855.585546L142.934080,855.886916L144.651402,855.886916L162.844866,856.640341L169.449831,856.866369L173.846810,857.092397L186.915085,857.770480L191.277507,857.921165L202.274184,826.804768L209.702138,805.558312L235.081415,733.456527L246.044336,702.265421L347.532855,700.758609L366.284982,700.457246L515.255893,698.573731L526.043512,699.628500L650.651759,699.854521L751.489850,700.005203L762.502890,700.080543L795.419347,700.306565L806.397830,700.306565L817.083370,668.512907L825.467370,644.404082L883.626638,476.624358L888.262666,463.063557L902.848216,420.648581L912.709764,391.869848L919.193806,373.111009L930.681440,339.586318L963.494108,239.691366L967.892188,230.425175L982.563822,199.161300L990.859837,183.416422L992.707027,177.013014L998.187321,157.802831L1000.000000,151.324116Z " data-aland="921528" data-awater="0" data-classfp="C1" data-funcstat="A" data-geoid="1755132" data-intptlat="+39.2863055" data-intptlon="-089.1066104" data-lsad="47" data-mtfcc="G4110" data-name="Oconee" data-namelsad="Oconee village" data-pcicbsa="N" data-pcinecta="N" data-placefp="55132" data-placens="02399554" data-statefp="17"/></g><g fill="#000" font-family="Arial" font-size="12px" id="mylayer-label" stroke="none"><text text-anchor="middle" y="440.908824052"><tspan dy="0" x="499.994954827"><![CDATA[Oconee]]></tspan></text></g></svg>