<?xml version="1.0" encoding="utf-8"?><!DOCTYPE svg  PUBLIC '-//W3C//DTD SVG 1.1//EN'  'http://www.w3.org/Graphics/SVG/1.1/DTD/svg11.dtd'><svg enable_background="new 0 0 1000 1001" height="1001px" pretty_print="False" style="stroke-linejoin: round; stroke:#000; fill: none;" version="1.1" viewBox="0 0 1000 1001" width="1000px" xmlns="http://www.w3.org/2000/svg" xmlns:xlink="http://www.w3.org/1999/xlink"><defs><style type="text/css"><![CDATA[path { fill-rule: evenodd; }]]></style></defs><metadata><views><view h="1001" padding="0" w="1000"><proj flip="auto" id="robinson" lon0="-90.8384461302"/><bbox h="0.12" w="0.24" x="-1226.59" y="-705.96"/></view></views></metadata><g class="" id="mylayer"><path d="M1000.000000,278.930085L903.487923,275.500054L771.736484,270.657659L614.738417,263.326815L566.470080,261.040131L518.479357,259.291491L506.119012,258.820703L487.173976,258.080894L469.235314,256.668531L456.762994,256.332254L365.374730,256.937552L203.303912,257.879127L144.758072,392.727085L97.053510,502.557221L65.402971,578.356191L0.000000,734.596710L58.571175,735.471072L121.077197,736.278175L149.344857,736.479951L234.036223,737.085279L262.276156,737.219796L282.450901,737.556089L342.975142,738.564969L363.149891,738.901262L435.255418,739.708366L651.600479,741.927901L723.678310,742.667746L784.375538,741.524349L801.287257,741.120797L891.509393,543.987642L924.625700,471.484518L926.735230,465.095121L939.404108,433.013687L984.857541,317.467576L1000.000000,278.930085Z "/></g><g fill="#000" font-family="Arial" font-size="12px" id="mylayer-label" stroke="none"><text text-anchor="middle" y="495.740344517"><tspan dy="0" x="500.704651758"><![CDATA[N]]></tspan></text></g></svg>