<?xml version="1.0" encoding="utf-8"?><!DOCTYPE svg  PUBLIC '-//W3C//DTD SVG 1.1//EN'  'http://www.w3.org/Graphics/SVG/1.1/DTD/svg11.dtd'><svg enable_background="new 0 0 1000 1001" height="1001px" pretty_print="False" style="stroke-linejoin: round; stroke:#000; fill: none;" version="1.1" viewBox="0 0 1000 1001" width="1000px" xmlns="http://www.w3.org/2000/svg" xmlns:xlink="http://www.w3.org/1999/xlink"><defs><style type="text/css"><![CDATA[path { fill-rule: evenodd; }]]></style></defs><metadata><views><view h="1001" padding="0" w="1000"><proj flip="auto" id="robinson" lon0="-90.7608808717"/><bbox h="0.48" w="0.6" x="-1229.58" y="-696.94"/></view></views></metadata><g class="" id="mylayer"><path d="M1000.000000,102.553125L890.397591,101.787977L780.784060,101.050157L705.760993,100.558277L700.870852,100.722237L670.963892,101.705997L646.241440,102.525798L451.690655,100.066396L448.665316,107.198667L425.477545,163.437633L398.593742,227.903345L371.243820,293.572919L370.080354,295.868512L368.740851,297.152951L367.735996,297.617535L366.369826,298.246091L363.496252,298.628690L333.522023,298.054791L296.535651,296.906994L284.738591,297.070965L275.815110,296.852337L261.175596,296.934323L227.684925,297.152951L205.346431,297.289593L188.405612,296.906994L173.822876,297.016308L161.493154,297.098294L151.143707,296.988980L153.644347,291.140687L100.693344,289.992892L76.385183,286.467526L56.507322,277.859093L52.056807,272.120151L49.134339,279.389479L42.727335,294.584073L0.000000,395.591857L20.678336,396.083786L37.866256,396.083786L74.789544,396.056457L109.311738,395.919810L106.352713,402.670184L67.288537,494.280033L107.394804,494.334694L141.726022,494.334694L259.720487,495.810533L287.178846,495.837863L273.096632,530.793587L241.738954,609.370329L236.188042,623.309380L221.909441,659.086582L197.405111,719.545307L197.026040,720.474610L190.604541,736.272806L186.992306,745.128580L149.100705,838.197827L139.714253,861.158098L127.920340,890.022695L127.324955,890.760714L126.109953,893.740126L128.816533,893.767460L174.352428,894.177471L219.571262,894.587482L284.302362,895.188832L331.931855,897.129552L343.553351,897.621566L380.151019,897.457562L447.055286,897.894907L451.528750,897.976910L500.045934,898.851601L553.800883,898.933604L558.851329,898.933604L560.684001,898.660262L589.048677,898.414255L604.784900,897.812905L606.177916,897.840239L628.476230,898.086246L634.523535,898.140914L650.559213,898.304919L655.462988,898.386921L671.340133,898.550926L707.913182,827.455762L722.214312,799.657779L733.474275,777.763978L736.215939,772.762047L750.515985,744.691257L765.133122,700.849980L798.158464,601.772208L829.577930,507.535275L830.836737,504.282953L831.527636,502.533806L887.515068,501.795885L890.518269,502.205841L904.856296,502.697788L931.116902,503.107745L937.424325,503.189736L941.341728,503.135075L944.546956,496.165827L980.067396,408.928642L982.051035,403.900011L873.570748,402.588195L898.650030,343.065190L915.619466,302.755299L957.795776,202.625185L1000.000000,102.553125Z " data-aland="7564285" data-awater="0" data-classfp="C1" data-funcstat="A" data-geoid="1907075" data-intptlat="+41.5095761" data-intptlon="-090.7648761" data-lsad="25" data-mtfcc="G4110" data-name="Blue Grass" data-namelsad="Blue Grass city" data-pcicbsa="N" data-pcinecta="N" data-placefp="07075" data-placens="02394201" data-statefp="19"/></g><g fill="#000" font-family="Arial" font-size="12px" id="mylayer-label" stroke="none"><text text-anchor="middle" y="480.752234536"><tspan dy="0" x="529.110175545"><![CDATA[Blue Grass]]></tspan></text></g></svg>