<?xml version="1.0" encoding="utf-8"?><!DOCTYPE svg  PUBLIC '-//W3C//DTD SVG 1.1//EN'  'http://www.w3.org/Graphics/SVG/1.1/DTD/svg11.dtd'><svg enable_background="new 0 0 1000 1001" height="1001px" pretty_print="False" style="stroke-linejoin: round; stroke:#000; fill: none;" version="1.1" viewBox="0 0 1000 1001" width="1000px" xmlns="http://www.w3.org/2000/svg" xmlns:xlink="http://www.w3.org/1999/xlink"><defs><style type="text/css"><![CDATA[path { fill-rule: evenodd; }]]></style></defs><metadata><views><view h="1001" padding="0" w="1000"><proj flip="auto" id="robinson" lon0="-94.9748494625"/><bbox h="0.2" w="0.36" x="-1281.71" y="-707.81"/></view></views></metadata><g class="" id="mylayer"><path d="M1000.000000,295.704972L947.368863,295.886156L983.114162,215.622128L769.469531,216.437447L619.847479,216.980992L617.983085,221.148178L612.411909,233.513863L610.529800,237.635763L602.097117,254.213977L576.837088,303.948844L568.386956,320.481913L566.796413,324.196197L561.949624,335.339059L560.341360,339.008054L442.796137,338.147426L201.843718,336.335576L142.030871,471.410191L79.070593,613.508508L72.751299,626.554333L53.718504,665.691951L47.344060,678.692572L31.936763,712.304043L0.000000,781.747107L0.000000,781.747107L25.956835,781.792406L53.813165,781.792406L92.945254,781.883004L210.288296,782.018901L249.402644,782.064200L273.329465,782.109499L296.542022,782.154798L345.074443,782.154798L368.983522,782.154798L388.111985,782.426592L445.424304,783.151377L464.535029,783.377872L510.511141,783.377872L557.446924,783.332573L605.196629,673.845648L629.303128,618.491285L629.791826,618.491285L631.728875,618.445987L645.284003,618.310093L677.511004,617.857113L685.891941,617.947709L699.330075,617.993007L718.329736,618.128901L722.765608,618.128901L766.513538,617.721219L775.688126,617.630624L794.808992,617.404134L807.028542,617.313538L837.955442,616.996452L843.669445,616.996452L855.811703,616.996452L936.773117,436.622122L1000.000000,295.704972Z "/></g><g fill="#000" font-family="Arial" font-size="12px" id="mylayer-label" stroke="none"><text text-anchor="middle" y="502.876599046"><tspan dy="0" x="507.235850972"><![CDATA[N]]></tspan></text></g></svg>