<?xml version="1.0" encoding="utf-8"?><!DOCTYPE svg  PUBLIC '-//W3C//DTD SVG 1.1//EN'  'http://www.w3.org/Graphics/SVG/1.1/DTD/svg11.dtd'><svg enable_background="new 0 0 1000 1001" height="1001px" pretty_print="False" style="stroke-linejoin: round; stroke:#000; fill: none;" version="1.1" viewBox="0 0 1000 1001" width="1000px" xmlns="http://www.w3.org/2000/svg" xmlns:xlink="http://www.w3.org/1999/xlink"><defs><style type="text/css"><![CDATA[path { fill-rule: evenodd; }]]></style></defs><metadata><views><view h="1001" padding="0" w="1000"><proj flip="auto" id="robinson" lon0="-86.0765305009"/><bbox h="0.15" w="0.17" x="-1169.89" y="-686.21"/></view></views></metadata><g class="" id="mylayer"><path d="M1000.000000,169.467127L881.149491,169.565815L810.956290,169.861879L816.709047,153.677039L856.749658,40.778812L778.504413,40.384065L698.321318,230.654005L657.153396,231.344827L608.940973,228.877605L624.156724,202.034279L582.588492,204.008050L572.003221,229.371050L471.233796,237.956986L297.399336,235.391073L224.805292,236.871407L175.666220,236.871407L172.968107,214.765110L169.381343,191.770677L42.930392,216.442818L11.349926,295.098104L0.000000,325.099819L63.805273,334.870138L50.416994,370.299981L30.341374,427.442032L185.427686,427.639415L159.357057,496.624916L116.624785,606.075222L48.768700,820.637645L113.652662,818.861116L172.580037,817.972852L246.235769,815.406755L195.726241,958.615935L338.133835,956.345887L377.917874,955.655003L385.281885,956.444584L394.308916,928.710569L405.221595,929.598846L535.974040,938.185525L571.310350,838.205566L579.867180,838.205566L646.499429,837.415995L659.797794,836.725121L717.316050,687.004263L694.194183,687.596430L717.331993,632.919888L727.982327,606.075222L769.713918,606.272609L857.905424,595.811109L871.913294,559.590737L885.344291,518.830675L925.003096,427.540723L954.420203,358.753191L966.079214,330.527773L946.900387,324.310299L968.619915,262.135821L1000.000000,169.467127Z " data-aland="603216" data-awater="0" data-classfp="C1" data-funcstat="A" data-geoid="1817776" data-intptlat="+40.8645385" data-intptlon="-086.0770238" data-lsad="43" data-mtfcc="G4110" data-name="Denver" data-namelsad="Denver town" data-pcicbsa="N" data-pcinecta="N" data-placefp="17776" data-placens="02396685" data-statefp="18"/></g><g fill="#000" font-family="Arial" font-size="12px" id="mylayer-label" stroke="none"><text text-anchor="middle" y="504.892912099"><tspan dy="0" x="481.213864056"><![CDATA[Denver]]></tspan></text></g></svg>