<?xml version="1.0" encoding="utf-8"?><!DOCTYPE svg  PUBLIC '-//W3C//DTD SVG 1.1//EN'  'http://www.w3.org/Graphics/SVG/1.1/DTD/svg11.dtd'><svg enable_background="new 0 0 1000 1001" height="1001px" pretty_print="False" style="stroke-linejoin: round; stroke:#000; fill: none;" version="1.1" viewBox="0 0 1000 1001" width="1000px" xmlns="http://www.w3.org/2000/svg" xmlns:xlink="http://www.w3.org/1999/xlink"><defs><style type="text/css"><![CDATA[path { fill-rule: evenodd; }]]></style></defs><metadata><views><view h="1001" padding="0" w="1000"><proj flip="auto" id="robinson" lon0="-85.516925443"/><bbox h="0.2" w="0.39" x="-1174.02" y="-653.31"/></view></views></metadata><g class="" id="mylayer"><path d="M1000.000000,242.727696L944.128087,243.637796L824.552884,245.197968L822.681780,245.848039L813.525950,246.498111L786.993227,246.281421L762.187197,246.584788L694.490449,246.758140L683.920383,246.584788L677.743364,247.061507L676.493212,247.538227L673.957716,248.491666L672.351987,250.138516L671.487270,251.568676L586.739149,252.218748L507.494614,255.989172L378.702881,251.742028L168.244108,249.878487L119.834989,397.880946L0.000000,750.160887L318.259700,756.272304L346.306012,754.278508L349.233366,754.365195L421.797784,755.752183L550.725123,755.188719L827.915664,754.018447L842.847423,706.427673L865.967752,638.206505L891.111364,561.188136L1000.000000,242.727696Z "/></g><g fill="#000" font-family="Arial" font-size="12px" id="mylayer-label" stroke="none"><text text-anchor="middle" y="495.865466135"><tspan dy="0" x="499.723040134"><![CDATA[N]]></tspan></text></g></svg>