<?xml version="1.0" encoding="utf-8"?><!DOCTYPE svg  PUBLIC '-//W3C//DTD SVG 1.1//EN'  'http://www.w3.org/Graphics/SVG/1.1/DTD/svg11.dtd'><svg enable_background="new 0 0 1000 1001" height="1001px" pretty_print="False" style="stroke-linejoin: round; stroke:#000; fill: none;" version="1.1" viewBox="0 0 1000 1001" width="1000px" xmlns="http://www.w3.org/2000/svg" xmlns:xlink="http://www.w3.org/1999/xlink"><defs><style type="text/css"><![CDATA[path { fill-rule: evenodd; }]]></style></defs><metadata><views><view h="1001" padding="0" w="1000"><proj flip="auto" id="robinson" lon0="-87.5075403861"/><bbox h="0.97" w="0.84" x="-1185.69" y="-696.93"/></view></views></metadata><g class="" id="mylayer"><path d="M934.398875,0.000000L933.118998,0.016885L913.503576,0.726050L896.157915,1.249482L890.598722,1.367676L874.863489,1.958648L797.673824,4.406960L789.137919,4.694004L786.215780,4.795313L782.440154,4.896623L763.649813,5.251206L755.153075,5.403171L750.267568,5.622675L735.610343,6.247418L730.717487,6.450037L720.881053,6.770851L691.343055,7.699523L681.499268,8.003452L669.530502,8.054107L633.637494,8.172302L621.661381,8.206072L614.868108,8.189187L594.501583,8.104762L587.700965,8.070992L581.546414,7.817718L563.068778,7.057895L556.900240,6.804621L549.072291,6.821506L525.580400,6.821506L517.745105,6.821506L471.139794,6.855276L459.109113,6.956585L458.284879,9.050320L424.210901,96.077518L401.237049,154.773416L399.852436,158.505296L391.085351,180.998058L388.552301,187.364304L380.925355,206.463174L378.385082,212.812622L375.753933,219.499830L367.867338,239.544717L365.242972,246.215136L364.060358,249.221055L361.754944,255.080923L360.392560,258.188180L359.083334,261.160344L357.827969,264.031189L354.067849,272.593088L352.805159,275.447064L348.397170,285.478233L347.132807,288.585542L330.978164,328.052213L325.586199,341.191073L322.698339,348.284071L322.352216,349.128477L314.048274,369.529454L311.153218,376.605675L309.871273,379.865137L309.133992,381.739752L306.465214,389.592892L305.364506,392.818600L304.258584,396.128757L300.919526,406.042375L300.570349,407.072584L299.680348,409.335667L299.501019,409.791662L297.933566,413.777399L293.231279,425.734664L291.670517,429.703547L291.371649,430.463547L290.481689,432.726660L290.189464,433.469773L289.425697,435.412000L287.134412,441.238693L286.370657,443.180928L286.018666,444.076046L284.975980,446.727624L284.630633,447.605854L274.277146,473.936080L270.810608,482.752316L269.941375,484.998605L260.779774,504.776205L252.983224,524.570912L238.107877,559.347296L235.880899,564.549454L232.357356,575.933452L230.772031,581.034317L229.973550,582.317981L228.639821,584.429272L224.652646,590.763160L223.325567,592.857570L217.129223,610.508143L211.446668,626.638723L204.807841,643.529537L196.961034,663.494686L190.009978,681.145954L186.110680,690.605079L174.371211,718.982752L170.450835,728.425185L170.324721,728.746128L169.931663,729.675171L169.798192,729.979222L169.192734,731.448801L165.658140,739.945359L163.594059,744.877773L137.067714,808.865251L138.047378,808.865251L140.999643,808.831466L141.971949,808.814573L137.322102,820.436621L123.331205,855.303219L118.674418,866.908676L117.423514,867.314109L116.183589,867.905364L115.016537,868.631764L113.978340,869.493308L113.444824,870.067671L113.047644,870.473104L112.314333,871.520473L111.756328,872.584736L105.648062,887.636516L104.955796,889.292051L104.599768,889.984673L103.968901,890.913801L103.175274,891.758463L102.211526,892.501765L101.789371,892.721378L97.276479,904.496013L82.348879,943.216023L77.363944,956.122881L71.266828,971.648401L65.601125,986.075937L86.439792,985.687372L81.212182,999.000000L163.568823,998.205970L175.517010,967.171496L179.804832,956.038412L180.732875,953.639486L190.704554,953.622592L185.556608,966.732253L195.507699,966.732253L228.043011,966.816723L239.807959,936.036202L323.132530,934.448199L328.257227,922.217239L244.898783,922.217239L243.217886,927.352881L211.197286,926.778499L203.779549,926.778499L198.982952,938.992596L186.344758,938.992596L196.912201,911.371625L198.065182,908.364597L201.544070,899.292865L202.689719,896.268964L205.002393,890.238071L211.953859,872.111730L214.273284,866.064026L222.968923,865.945775L239.250098,865.827524L243.720559,865.776845L265.731784,865.607915L314.087634,865.354520L339.017267,865.202484L343.564294,853.411215L357.164044,818.037878L361.683518,806.246922L366.623560,794.810782L369.129391,788.966048L375.501338,774.134698L382.607026,757.614274L388.573606,742.462239L400.590037,742.546699L408.701167,742.597374L413.544849,742.664941L428.089891,742.867643L432.919579,742.935211L441.738538,743.036562L468.153434,743.340615L476.083357,743.425074L476.958401,743.441966L486.946300,743.560209L489.220834,743.577100L516.890094,743.965613L526.864001,744.083856L536.873258,744.218990L544.110799,744.320342L569.926109,744.725746L591.557058,744.810205L610.310132,745.131150L633.633637,745.502771L645.454882,745.621014L659.760589,745.756149L662.902085,745.739257L689.477785,676.551540L697.450695,655.116728L710.604991,619.747316L721.728106,590.796941L729.961004,569.346264L731.398045,566.187800L735.653237,556.712442L737.068957,553.537110L738.257021,550.513794L741.785911,541.426987L742.276358,540.143352L742.528578,539.501536L753.931031,509.454627L754.971012,506.701619L756.320282,502.698787L773.274757,457.283308L787.271086,419.789799L798.341759,390.133324L799.406502,388.208035L802.558766,382.432178L803.616165,380.490008L803.845479,380.084686L804.505436,378.868720L804.727397,378.446510L806.884390,370.931186L813.362297,348.368511L815.512128,340.836424L815.820645,339.873805L816.766120,336.935288L817.081280,335.955783L818.804376,331.075156L823.951719,316.382688L825.667539,311.485226L827.297284,306.486450L832.206566,291.439543L833.829041,286.423935L836.379582,280.293767L843.995329,261.852724L846.538633,255.705751L855.341472,255.773300L855.873195,255.773300L870.119912,255.874624L881.749992,255.975947L890.545481,256.026609L891.816744,252.936243L895.622516,243.614514L896.893098,240.490395L903.373223,225.258279L904.026203,223.704678L904.472593,222.640800L905.052521,221.272958L909.905946,209.857424L904.669262,208.692233L894.407994,205.466853L887.844951,203.440439L884.401458,202.376573L878.093558,198.171774L876.796858,197.057251L870.691719,190.842951L869.554977,188.681461L866.821988,183.463498L865.775629,174.598062L867.762034,166.560104L871.208186,156.732230L876.141862,150.450523L884.549297,143.341414L892.145342,136.907778L899.963008,131.369128L901.252266,130.795001L903.337947,129.832494L905.047536,128.616696L906.287752,127.704848L908.601975,125.627863L909.431622,123.483336L915.049010,108.741893L916.912183,103.828105L916.271954,103.321530L914.364557,101.768033L913.716981,101.244573L909.801676,99.353362L907.337021,97.580353L904.684601,94.186313L903.338982,90.387022L902.565266,88.512708L900.783402,84.257515L896.565046,76.557669L894.252262,72.336275L894.719405,63.538923L900.535483,44.525981L900.666254,44.086963L905.091273,32.841394L905.717556,31.000909L905.857788,30.680091L908.633073,24.196198L909.546164,22.018021L910.296662,20.430823L911.321692,18.252650L912.582796,15.652354L913.353938,14.048277L914.255482,11.650607L916.671257,9.067205L916.972047,8.729506L920.441790,6.703311L925.148089,5.268091L931.068258,5.014817L931.312759,4.997932L934.398875,0.000000Z M145.590467,875.524131L149.093308,866.570816L152.676145,866.570816L156.293609,866.553923L163.423934,866.537030L166.999411,866.520137L163.069397,875.456558L161.721080,878.497317L144.469074,878.379065L145.590467,875.524131Z " data-aland="15902224" data-awater="0" data-classfp="C1" data-funcstat="A" data-geoid="1819270" data-intptlat="+41.4977751" data-intptlon="-087.5087663" data-lsad="43" data-mtfcc="G4110" data-name="Dyer" data-namelsad="Dyer town" data-pcicbsa="N" data-pcinecta="N" data-placefp="19270" data-placens="02396914" data-statefp="18"/></g><g fill="#000" font-family="Arial" font-size="12px" id="mylayer-label" stroke="none"><text text-anchor="middle" y="422.374201787"><tspan dy="0" x="521.353167127"><![CDATA[Dyer]]></tspan></text></g></svg>