<?xml version="1.0" encoding="utf-8"?><!DOCTYPE svg  PUBLIC '-//W3C//DTD SVG 1.1//EN'  'http://www.w3.org/Graphics/SVG/1.1/DTD/svg11.dtd'><svg enable_background="new 0 0 1000 1001" height="1001px" pretty_print="False" style="stroke-linejoin: round; stroke:#000; fill: none;" version="1.1" viewBox="0 0 1000 1001" width="1000px" xmlns="http://www.w3.org/2000/svg" xmlns:xlink="http://www.w3.org/1999/xlink"><defs><style type="text/css"><![CDATA[path { fill-rule: evenodd; }]]></style></defs><metadata><views><view h="1001" padding="0" w="1000"><proj flip="auto" id="robinson" lon0="-118.93338447"/><bbox h="0.13" w="0.24" x="-1577.66" y="-755.62"/></view></views></metadata><g class="" id="mylayer"><path d="M1000.000000,235.843928L976.508248,235.571303L882.272147,235.230521L719.314005,234.685271L646.594750,234.480802L632.938658,258.267320L608.225156,257.517603L577.944053,256.699729L296.252441,258.608101L202.206742,258.608101L175.685230,258.199164L158.300314,257.926540L104.627389,345.983912L75.260036,394.033490L114.092534,396.759701L108.404908,406.642209L103.628271,414.957140L95.001907,430.087571L91.373913,436.425989L51.688007,505.671256L50.024509,508.533747L54.450051,508.465593L59.486293,508.397438L65.910488,508.329284L68.448412,508.261129L74.444374,508.261129L79.385490,508.261129L35.301223,581.254409L84.403987,582.072258L101.353049,582.140412L99.547088,585.343654L98.628370,587.115659L87.618999,607.493702L83.975623,614.240938L74.391407,631.211242L65.607112,646.613984L47.714699,679.123239L46.035366,681.917530L43.785647,685.597816L40.649780,692.140544L39.589298,695.207446L13.140979,740.529340L0.000000,762.951680L146.166681,762.883527L170.151064,762.883527L186.505601,763.019833L192.192268,762.883527L214.439634,762.815374L251.757571,764.042127L265.922415,763.360598L277.446766,763.496904L376.295760,764.314739L400.145423,764.451045L441.190187,764.519198L454.432033,740.393034L494.197579,667.946063L502.632210,652.475198L506.478928,652.543352L510.613535,645.523525L503.705513,645.659832L495.020888,645.796140L505.735891,625.350016L515.422002,607.630010L516.594183,605.517238L524.157669,591.545672L528.950045,583.776110L543.501539,560.262928L547.763178,553.311195L553.656347,543.360667L569.719934,516.098900L575.082378,506.966193L576.660576,506.829883L581.300048,506.489111L582.862331,506.284647L584.067817,506.216492L597.763067,503.762928L599.610716,503.354000L608.833045,501.241208L624.240116,497.083776L642.358333,491.222477L652.610347,487.337661L655.147534,486.315340L665.803355,481.544511L671.099435,479.022786L688.287908,470.844214L705.697350,461.234384L712.221864,457.554021L791.355383,411.753848L809.914000,401.121636L844.652809,381.083979L859.786670,372.428245L856.062305,366.226101L855.471699,361.318907L852.718921,339.304663L800.406172,361.114440L801.066036,363.227260L807.512294,382.038154L778.024474,392.465918L689.433876,423.680995L686.397032,424.703321L659.756046,434.722114L653.278172,437.175694L633.915615,444.127502L627.445513,446.376616L653.712125,402.416586L636.572020,401.053481L642.956525,390.353104L656.224522,367.998142L672.003612,341.417487L720.125670,260.516473L986.265090,259.289662L1000.000000,235.843928Z "/></g><g fill="#000" font-family="Arial" font-size="12px" id="mylayer-label" stroke="none"><text text-anchor="middle" y="479.695290474"><tspan dy="0" x="363.423825407"><![CDATA[N]]></tspan></text></g></svg>