<?xml version="1.0" encoding="utf-8"?><!DOCTYPE svg  PUBLIC '-//W3C//DTD SVG 1.1//EN'  'http://www.w3.org/Graphics/SVG/1.1/DTD/svg11.dtd'><svg enable_background="new 0 0 1000 1001" height="1001px" pretty_print="False" style="stroke-linejoin: round; stroke:#000; fill: none;" version="1.1" viewBox="0 0 1000 1001" width="1000px" xmlns="http://www.w3.org/2000/svg" xmlns:xlink="http://www.w3.org/1999/xlink"><defs><style type="text/css"><![CDATA[path { fill-rule: evenodd; }]]></style></defs><metadata><views><view h="1001" padding="0" w="1000"><proj flip="auto" id="robinson" lon0="-77.3800279817"/><bbox h="0.76" w="0.93" x="-1083.01" y="-579.79"/></view></views></metadata><g class="" id="mylayer"><path d="M1000.000000,553.348202L998.257079,542.381128L986.039250,517.819084L963.769124,483.329620L875.814520,347.027658L861.534700,337.227642L823.164328,310.364083L811.046561,302.972903L767.689398,276.492222L744.104032,263.479902L675.570159,224.552031L585.588724,173.413779L577.126030,166.843477L569.244589,157.645025L557.986827,139.868553L552.181002,128.041835L532.906973,105.848335L513.112388,92.068552L498.648707,88.016734L486.858360,90.863958L477.000363,93.236643L436.690897,109.170072L413.997942,120.777866L403.340911,126.216719L398.673970,129.063899L398.224022,132.476861L396.853363,142.679215L396.393014,146.073907L395.394922,153.520311L395.132502,155.491414L393.429546,168.942326L392.700487,175.749883L392.207512,180.276076L391.822162,183.141444L391.289154,187.174855L389.684425,199.238547L389.141027,203.253681L388.834203,205.516753L388.160471,209.805635L387.678574,212.871724L386.247750,219.295900L383.981638,228.220366L383.556301,229.589146L381.499605,236.159281L380.810018,238.148568L378.523114,244.025169L378.020129,245.284438L377.722124,245.977949L375.721164,250.558764L372.709860,257.439096L369.617350,264.282908L367.550291,268.827189L366.761118,270.615699L364.412267,275.908221L363.612671,277.678475L358.670794,288.628476L343.819941,321.459937L338.867834,332.391493L336.556431,337.537885L329.575910,352.922249L327.841839,356.754638L327.254122,358.050349L325.467655,362.028725L320.063017,373.963815L318.266148,377.923916L316.305209,382.230747L310.396918,395.132946L308.425581,399.421497L303.644769,410.097222L303.095491,411.301659L297.585444,423.236511L296.467396,425.426386L293.257575,431.667518L289.377404,438.346608L287.445796,441.357667L283.333731,447.762998L280.973260,451.212015L279.959423,452.580672L276.871531,456.631891L274.283566,460.026150L271.001926,463.949616L267.265894,468.292794L263.862410,472.161501L262.981353,473.128676L259.235391,476.979127L251.589717,484.041313L243.760964,490.756757L239.919416,493.858994L233.744912,498.530591L232.990861,499.059795L228.327156,502.308009L222.051043,506.432139L215.567421,510.246042L210.731299,512.928544L204.076120,516.468712L195.723978,520.684060L179.765271,528.914004L160.291627,538.731508L147.917749,545.100091L119.414402,559.716747L115.884136,561.541542L105.302661,566.979423L103.449849,567.910066L101.766624,568.767717L81.517966,579.077754L63.266160,588.365874L50.470061,594.259888L48.184188,595.172273L40.397393,598.237884L31.409970,601.394730L27.917463,602.599074L20.382436,604.679304L14.068025,606.412828L0.000000,609.368940L1.555103,612.379790L3.137321,614.989191L4.614603,616.886935L5.394970,617.908797L7.362134,619.897777L9.346845,621.759023L11.925986,623.656762L14.987027,625.499757L17.896500,626.813575L21.752223,628.145639L24.793354,629.003269L26.181749,629.240486L29.200041,629.714920L34.744300,630.700281L43.095545,632.160075L47.512670,632.889972L67.371779,636.156258L82.805565,638.783881L85.844735,639.294807L98.616719,641.411501L115.341514,644.185098L124.408003,645.681379L165.424152,652.688341L166.989030,652.943803L182.157261,655.370688L181.589680,656.410781L181.162383,657.669841L180.876481,659.202608L181.000776,661.611241L181.444267,664.129354L183.483299,672.632528L183.804940,673.855085L185.682645,681.099180L189.002640,694.455993L195.999384,723.851678L196.789727,726.844142L201.341884,744.360937L201.598761,745.364500L202.378716,748.338692L202.625162,749.324006L202.842741,750.126855L203.465294,752.535399L203.667782,753.338246L204.409358,756.403662L206.648109,765.545145L207.379279,768.592299L211.958735,767.150832L219.012038,764.888273L225.707529,762.844671L230.282319,761.421446L232.897786,760.636848L235.752533,759.742770L239.981060,758.611488L240.717337,758.447270L243.316388,757.845135L245.605348,757.334233L252.487321,755.801527L254.765845,755.272378L256.654147,754.852708L262.308617,753.575451L263.029799,753.411233L264.191145,753.119288L266.008634,752.681371L266.704287,752.498906L271.418047,751.477100L273.211122,751.075676L275.831036,750.510033L277.559073,750.126855L279.369469,749.834910L282.764756,749.542965L283.564749,749.542965L284.736323,749.506472L286.065727,749.561212L290.219976,749.725431L292.895196,749.652445L294.209710,749.469979L295.582373,749.178034L295.972594,749.068555L297.912152,748.448171L302.912394,746.422802L309.619094,743.448607L314.937628,741.240767L318.713510,739.872270L321.283677,739.087665L326.437787,737.700920L326.738556,737.646180L333.305741,736.222942L334.720340,735.766775L336.965524,734.836195L338.263323,733.832629L338.638653,733.485942L339.334709,732.829061L340.312189,731.661273L341.482755,730.092058L342.741864,728.176153L343.981219,726.278494L347.428506,720.877456L349.358562,717.811997L352.072111,713.688218L357.189138,705.531875L357.743786,704.601284L359.893798,700.970151L360.931174,699.035977L361.255659,698.415581L362.179172,696.572640L362.493223,695.933997L361.501636,702.594126L356.029218,720.238819L355.137732,722.665639L352.646144,729.289203L354.617181,733.923862L355.558082,736.149955L361.612207,746.842473L364.017898,751.075676L367.061705,754.524271L371.433740,759.450827L376.776690,764.121923L379.568271,766.548699L380.309924,766.895382L381.233825,767.296803L383.964904,768.482821L384.878371,768.865995L386.046012,769.376895L386.360564,769.504620L389.969015,769.796562L391.289108,769.887795L391.647827,769.960780L392.068235,769.851302L394.503660,769.121445L395.308512,768.865995L401.515329,766.548699L404.163051,764.632823L415.476623,756.385415L419.688173,754.670243L426.434175,754.615503L427.866499,757.991107L428.532820,759.578552L427.292931,767.862442L438.730144,788.863987L443.549769,797.713412L473.013849,851.867556L480.782623,866.135736L484.437471,872.868391L488.603754,880.495062L501.057619,903.374934L505.213664,910.983266L510.685602,908.410667L519.465590,904.232469L544.996089,890.256437L564.077460,879.783483L665.614462,843.729913L669.255509,842.416210L705.510033,836.157867L726.345489,833.950110L762.478587,830.118460L787.639575,832.253237L790.391262,832.472188L807.668001,833.384485L813.317916,821.834777L830.272639,787.167084L835.912331,775.598914L857.203720,733.996849L856.077213,728.121413L854.749445,721.260638L860.045303,702.703607L864.909821,689.620543L872.517394,672.887988L881.579311,658.381483L883.818991,655.461925L886.317879,652.177417L891.158762,645.809110L901.102332,636.776669L913.216258,627.342751L942.519736,607.690161L984.191643,579.734675L987.796335,575.902632L992.675830,570.683745L996.702910,562.891890L997.602996,561.140088L998.555310,558.001439L1000.000000,553.348202Z " data-aland="9833586" data-awater="5285719" data-classfp="U1" data-funcstat="S" data-geoid="3762680" data-intptlat="+34.5552177" data-intptlon="-077.3775664" data-lsad="57" data-mtfcc="G4210" data-name="Sneads Ferry" data-namelsad="Sneads Ferry CDP" data-pcicbsa="N" data-pcinecta="N" data-placefp="62680" data-placens="02402862" data-statefp="37"/></g><g fill="#000" font-family="Arial" font-size="12px" id="mylayer-label" stroke="none"><text text-anchor="middle" y="519.05471955"><tspan dy="0" x="561.163882168"><![CDATA[Sneads Ferry]]></tspan></text></g></svg>