<?xml version="1.0" encoding="utf-8"?><!DOCTYPE svg  PUBLIC '-//W3C//DTD SVG 1.1//EN'  'http://www.w3.org/Graphics/SVG/1.1/DTD/svg11.dtd'><svg enable_background="new 0 0 1000 1001" height="1001px" pretty_print="False" style="stroke-linejoin: round; stroke:#000; fill: none;" version="1.1" viewBox="0 0 1000 1001" width="1000px" xmlns="http://www.w3.org/2000/svg" xmlns:xlink="http://www.w3.org/1999/xlink"><defs><style type="text/css"><![CDATA[path { fill-rule: evenodd; }]]></style></defs><metadata><views><view h="1001" padding="0" w="1000"><proj flip="auto" id="robinson" lon0="-80.4337069875"/><bbox h="0.71" w="1.08" x="-1122.58" y="-591.19"/></view></views></metadata><g class="" id="mylayer"><path d="M1000.000000,420.884247L986.121339,404.845416L966.891761,405.255053L963.905796,430.983294L962.755269,441.744006L960.936247,457.656529L959.889013,465.644258L958.957380,470.717317L968.700151,481.399061L976.869399,490.489531L986.283336,462.115166L993.222533,441.224090L999.368220,422.743357L1000.000000,420.884247Z M839.762075,236.761555L835.347012,240.086172L860.270978,235.059853L868.257481,220.154153L867.150512,220.280206L866.912152,219.823264L864.569912,216.104701L859.584010,224.455703L839.762075,236.761555Z M0.000000,397.802788L12.395494,406.168860L22.161252,408.201291L31.763415,401.473780L21.966733,399.173502L29.504222,393.674884L48.975435,397.771277L52.717917,398.559044L57.379965,414.582166L53.901653,437.568919L64.896459,432.621824L83.099508,424.539445L79.202571,438.514222L77.365171,445.162845L70.390313,470.181653L69.948354,472.245534L72.819034,471.095432L77.114964,469.598724L80.399876,468.637679L81.131750,468.417111L84.210535,467.692389L87.582946,467.172479L93.062472,466.652569L97.607692,466.384736L101.175567,466.384736L105.856021,466.668323L110.166562,467.172479L112.723140,467.613614L121.546656,434.039783L155.562163,437.033247L161.479215,425.768347L162.067194,424.980590L178.229873,433.519865L179.909090,434.528190L181.472392,435.678311L182.906851,436.970227L184.195279,438.419692L186.198950,441.287110L186.497548,441.712496L189.628440,446.864385L190.774829,448.361109L192.131604,449.605752L193.772063,450.614070L195.743795,451.449083L197.908723,452.047772L199.232539,452.362871L197.257535,463.296782L195.820790,471.237226L200.729685,471.536567L210.349595,472.245534L212.035096,472.466101L217.732189,456.994823L218.467722,455.135741L220.241441,456.033772L222.071988,457.199637L232.300611,442.610532L232.510706,442.263922L232.673356,441.901556L246.133929,443.083183L252.563220,444.595665L251.798407,445.320395L244.894226,452.063527L242.733611,454.316485L240.624849,456.616705L233.526528,464.698966L223.423720,476.672632L219.787084,480.989438L201.208946,503.030222L206.882397,505.330391L263.936558,528.394969L270.265888,530.947182L305.909055,545.661734L307.989775,546.859060L311.737841,549.348234L316.196774,551.790143L317.695332,552.845677L319.977186,554.972498L325.221240,560.439205L328.977165,564.046909L332.973728,567.434050L334.904211,568.804659L336.993492,569.970463L340.148272,571.498612L343.673395,572.947988L347.068208,574.066528L349.789459,574.759708L351.535556,575.043281L358.160006,575.452887L381.909877,577.500916L384.840896,577.752981L417.322063,578.729732L416.276145,581.833277L414.342711,583.629235L410.834439,584.795032L405.621534,586.527972L401.695253,589.048609L398.688494,594.814556L395.094311,598.784544L381.991443,608.709481L376.484591,612.868489L354.105946,636.924414L353.285700,637.806617L342.893227,650.377972L333.418049,664.099256L324.185549,674.197183L310.635187,684.295064L301.274977,696.204517L292.038423,702.348257L282.124770,710.996724L277.845092,717.502742L277.495292,718.605455L276.058801,720.810880L260.816473,722.055368L259.485201,722.149886L258.505746,724.434072L256.908808,727.663434L255.677657,730.735262L255.057620,733.555039L255.001063,734.720755L254.964421,735.382378L254.923828,736.154271L254.756710,737.776820L254.571796,739.226087L254.379286,740.990410L254.355115,741.510255L254.414457,742.534191L254.564909,743.747162L254.723419,744.786850L255.023139,748.173710L257.898996,749.969532L248.766943,755.104943L245.900955,757.672644L239.201424,764.761373L256.378978,770.180297L261.624520,771.818573L262.095425,772.180884L265.108428,775.047865L279.682108,790.627162L299.972091,777.930595L310.822315,771.125457L325.146610,775.047865L319.811576,795.983011L308.903671,799.653336L291.078285,805.670764L286.370605,829.882082L313.205208,828.511637L349.200123,826.684376L349.648356,826.700128L350.145951,824.715343L351.312967,824.463307L378.290671,824.668086L377.832979,823.108611L378.388586,820.430721L379.773490,819.611601L381.258662,820.430721L382.601788,818.713720L381.328514,818.115132L383.382224,816.256357L384.893885,815.972815L385.320203,815.878301L393.874216,804.174285L398.527650,798.771198L403.484717,795.258397L406.059799,794.675555L406.351635,794.313248L408.080422,791.934620L409.084428,790.611409L410.444440,788.784116L411.255151,787.649934L411.551088,787.224615L411.941466,786.689028L413.558477,784.389155L413.944285,783.774805L414.762729,782.372826L415.131039,781.679713L415.280823,781.364661L415.601208,780.514021L416.180969,778.607957L417.072605,775.882755L417.238950,775.362918L417.349482,774.906092L417.263121,773.551365L417.256206,772.763733L417.280655,772.338411L417.251986,771.487768L417.159301,770.826156L416.969676,769.518685L416.893553,768.652288L416.831765,768.211213L416.761305,767.754385L416.620231,766.793471L416.593594,766.557180L416.566958,766.320890L416.556726,765.832556L416.559579,765.391481L416.597115,765.013416L416.648047,764.777125L416.750223,764.399060L418.784842,759.358188L424.590057,750.363352L429.957927,742.030100L452.241255,719.660909L460.608578,707.405015L462.699290,702.348257L481.359178,685.397794L489.633428,673.630062L501.982695,656.064990L532.194348,661.232129L526.506877,678.639627L584.904763,659.830071L585.327244,665.154736L585.613813,671.078016L585.624118,675.536219L585.584572,677.930727L585.520504,682.042343L585.570406,686.736823L584.734510,686.768329L583.754556,692.786070L594.887361,688.138863L598.837307,687.634759L604.663398,686.311484L611.546143,683.948492L621.655800,681.364951L623.146826,676.134846L652.195005,666.808845L652.694915,674.669784L659.130506,672.621847L675.690240,667.171173L675.982708,670.920482L676.194343,673.677322L677.676270,674.843071L682.660301,678.214287L683.493969,678.812913L694.184018,658.869110L686.991843,657.545818L691.191500,653.056071L705.061424,638.184704L700.370878,611.198585L699.818421,609.607449L698.619146,595.964593L695.450319,552.829923L691.841302,552.120982L698.190238,537.863349L691.225610,537.516753L682.256341,536.886579L674.516102,535.200863L666.242017,535.011811L663.972307,534.035040L655.531425,522.077441L652.542467,514.436517L654.933609,512.955593L652.733720,505.456428L724.979306,478.263864L729.912096,479.287924L737.966088,480.768871L742.769164,481.651137L759.945873,484.628782L766.512368,485.826140L789.505860,490.001136L839.645625,392.083590L851.487537,393.753661L831.830384,381.448680L826.779042,378.281830L826.118890,377.998231L815.116241,373.224314L804.808890,368.938808L801.386825,367.300231L799.211901,366.260363L798.863179,363.581915L798.674870,361.218575L798.711011,360.367772L798.833086,359.438191L799.025642,347.873537L818.594484,334.638710L813.533378,329.644117L800.461760,330.132548L799.563233,329.392024L799.957026,313.116190L799.964998,308.688764L799.911326,306.640486L800.045687,298.447354L800.022433,296.477847L800.433055,292.664876L800.699319,290.963217L801.180641,289.135508L801.957402,286.693309L803.678400,281.619827L804.473365,279.492743L805.992124,278.752202L824.157495,275.727011L822.242870,269.566324L831.933657,242.670230L826.194589,247.019006L822.161570,247.019006L814.704125,241.661818L808.427048,241.929677L806.825555,236.667016L798.857461,243.426540L781.626499,233.342394L753.885486,217.097369L744.762572,231.089211L702.661248,204.854435L702.233844,204.570814L694.368139,199.434118L685.419936,199.780767L682.171480,199.891064L672.864767,199.938334L666.755083,199.969848L678.817261,180.179282L684.910703,170.220906L681.152921,170.016065L672.271317,169.543356L657.021696,169.149432L655.517870,169.117918L654.994672,171.434191L653.182136,179.281139L652.534509,181.770728L651.399197,186.923221L650.734532,189.475828L649.876439,193.651382L649.740459,194.297411L640.942558,194.470735L639.486442,194.549519L641.353611,184.780289L642.737808,177.799991L640.579563,177.941803L634.048581,178.288455L635.474760,170.914212L598.453620,170.630587L594.185571,200.789199L593.547213,210.841979L595.641261,210.841979L592.301311,232.554568L588.201877,246.514800L587.557628,251.572605L587.511446,251.982271L586.752985,257.749100L586.581382,258.001201L574.743104,276.152429L574.363553,276.026379L571.507831,274.923444L571.245745,275.175544L571.112500,275.285837L570.708223,275.537937L570.282355,275.774280L569.942569,275.979111L569.658610,276.120917L569.309878,276.215454L568.930890,276.278479L568.551761,276.294235L568.224197,276.262723L567.918084,276.199698L567.637823,276.136673L567.288387,275.994867L566.951877,275.853061L566.654146,275.711255L566.171324,275.632474L565.912936,275.679743L565.658951,275.758524L565.060777,276.010623L562.854120,278.720690L558.798433,287.024187L546.750950,294.240485L540.424661,301.141638L537.057463,304.797034L529.855019,312.643512L520.064296,319.497340L514.071866,325.642133L504.028171,340.074452L497.874118,345.478670L494.357208,345.195067L492.599181,345.195067L465.848779,344.927220L457.726284,344.848441L458.017639,342.863219L405.400644,346.802150L401.044777,346.943951L380.381394,347.637202L369.463737,347.999583L354.552155,348.503765L353.165543,350.236891L351.942013,351.749436L349.884764,354.002496L346.138768,357.815362L305.925063,336.450625L235.669190,326.319635L232.689314,325.484574L206.448681,322.664274L202.177261,322.207353L187.053051,338.404341L175.227602,351.008920L166.567769,360.178705L159.991987,367.379008L159.741422,367.158431L159.629761,367.284475L143.287677,359.028545L142.225885,358.414076L142.123164,358.650410L141.759030,359.375169L140.653289,361.407643L139.147930,363.818249L138.160993,365.220495L127.819540,362.258445L122.653084,360.761663L119.090930,359.737548L99.313549,354.002496L105.883714,341.854852L76.652344,327.012892L68.902244,323.073926L63.141462,320.143331L60.118736,323.861720L33.210621,356.948802L0.000000,397.802788Z "/></g><g fill="#000" font-family="Arial" font-size="12px" id="mylayer-label" stroke="none"><text text-anchor="middle" y="464.712823555"><tspan dy="0" x="492.290640129"><![CDATA[N]]></tspan></text></g></svg>