<?xml version="1.0" encoding="utf-8"?><!DOCTYPE svg  PUBLIC '-//W3C//DTD SVG 1.1//EN'  'http://www.w3.org/Graphics/SVG/1.1/DTD/svg11.dtd'><svg enable_background="new 0 0 1000 1001" height="1001px" pretty_print="False" style="stroke-linejoin: round; stroke:#000; fill: none;" version="1.1" viewBox="0 0 1000 1001" width="1000px" xmlns="http://www.w3.org/2000/svg" xmlns:xlink="http://www.w3.org/1999/xlink"><defs><style type="text/css"><![CDATA[path { fill-rule: evenodd; }]]></style></defs><metadata><views><view h="1001" padding="0" w="1000"><proj flip="auto" id="robinson" lon0="-81.0941502628"/><bbox h="0.78" w="0.79" x="-1131.05" y="-593.32"/></view></views></metadata><g class="" id="mylayer"><path d="M1000.000000,867.830285L941.477200,856.457295L910.749684,832.468934L916.262645,824.308567L925.819662,810.151031L935.218717,796.250455L944.793405,782.092796L954.455938,767.806562L953.268163,767.785144L950.395220,768.020749L947.955193,768.663310L946.615207,769.134521L943.935180,770.398223L927.948445,779.115610L921.061049,782.799609L917.421351,784.555933L914.641885,785.605443L911.160323,786.397930L908.000681,786.526441L905.736350,786.140907L903.337520,785.284165L898.510751,782.713935L888.283962,776.780980L883.878536,774.017976L880.795410,771.619087L877.624603,768.770403L875.267045,766.285835L874.272567,765.107806L872.728339,762.537561L872.073258,761.209600L871.108334,758.446582L860.264538,767.485282L854.478526,763.415728L829.383591,792.480797L815.858861,808.116282L804.005301,802.804509L786.067920,823.473253L769.271834,842.792518L764.023688,840.350844L762.736522,839.729716L755.399665,836.324218L751.415304,834.460831L743.165761,830.605545L741.720632,829.920160L731.873895,825.165299L730.744713,824.608423L721.828267,820.303340L720.909708,819.874973L716.110828,824.908280L684.613897,857.999397L733.096748,901.285064L753.602385,880.852417L758.126055,876.247557L762.667282,871.642691L767.190959,867.037818L771.726339,862.454357L780.791266,853.244578L784.220610,849.753422L794.594098,854.636756L797.548763,856.028933L802.603880,858.406341L807.366465,860.633821L811.813107,862.732792L802.232611,877.489799L792.827751,891.989725L792.102052,893.103454L785.348391,903.491097L780.684321,908.417184L779.753759,910.152021L777.207975,914.135719L769.295695,925.615594L767.101137,928.442721L765.491836,930.156130L770.541046,934.482484L785.106528,920.175509L793.492356,912.101035L796.272080,908.995463L799.432227,905.140266L805.471718,897.044337L809.135691,888.327269L810.265190,886.699509L811.464897,885.136002L812.740665,883.615330L813.998568,884.536300L815.262327,885.435852L814.425469,886.442494L816.595972,888.969805L818.825264,889.291073L821.809425,889.162566L822.470615,889.183984L823.102536,889.312491L823.664226,889.569506L824.184946,889.912192L824.623737,890.361967L825.477886,891.475696L827.490557,892.846440L831.937372,894.110093L832.346948,894.217182L832.803347,894.217182L833.283161,894.131511L833.745429,893.981586L834.231112,893.745989L834.687549,893.424722L835.126440,893.039200L835.512677,892.589425L836.554373,891.154428L837.174694,890.426221L837.871076,889.740849L838.555736,889.226820L839.304749,888.798462L840.071301,888.498612L843.453474,887.299210L844.799347,886.613837L844.846239,885.928464L844.881370,885.735703L845.015993,885.371599L845.226677,885.050330L845.513422,884.771897L846.514081,884.000852L846.701412,883.251225L848.421838,881.966150L848.451146,881.537791L848.726231,880.916671L849.065701,880.124207L849.358364,879.310325L849.592512,878.517861L849.803244,877.811069L850.060784,877.125694L850.353432,876.440319L852.477992,872.006797L852.840880,871.128659L853.098446,870.250521L853.274099,869.350965L853.332721,868.494244L853.297721,867.658941L853.139912,866.309605L853.110708,865.902662L853.157574,865.474302L853.298070,864.960269L853.473633,864.767506L853.684294,864.638998L853.889084,864.660416L854.427379,864.810342L854.684822,864.896015L854.977381,864.917433L855.281648,864.896015L855.591778,864.788924L855.896061,864.638998L856.200354,864.424818L856.481246,864.167801L856.738740,863.867948L856.949426,863.546678L857.113305,863.203989L857.247931,862.839882L857.429466,861.726143L858.395130,860.119787L859.325680,858.577686L859.916780,857.635290L859.987088,856.928493L860.069080,856.371622L860.186145,856.071769L860.490463,855.664825L860.747940,855.493480L861.034662,855.407808L861.613942,855.343553L862.052801,855.215045L862.503377,854.979445L863.855122,854.144139L865.142498,853.351669L866.137255,852.987561L866.289289,853.715777L866.365306,854.079885L867.032217,855.043700L867.400776,855.557734L867.757644,855.986096L868.213997,856.307368L868.711321,856.542967L869.255468,856.671476L869.846439,856.692894L870.443273,856.628639L870.712441,856.542967L870.946492,856.521549L871.192244,856.521549L871.402880,856.585803L871.601807,856.692894L871.771473,856.842820L871.911878,857.035583L871.993767,857.249764L872.063948,857.506781L872.075614,857.785216L872.034619,858.063652L871.970216,858.363505L871.870706,858.663358L871.724389,858.941793L871.548819,859.198810L871.338141,859.455827L870.150202,860.526731L869.886864,860.783748L869.623517,861.105019L869.412831,861.426290L869.248952,861.768979L869.126026,862.154504L869.061616,862.518611L869.032313,862.882718L869.084933,863.203989L869.178514,863.503842L869.564597,864.274891L870.050165,864.938851L870.635218,865.495720L871.302203,865.945499L872.039418,866.266769L872.846865,866.459531L874.654857,866.780802L876.456996,867.123490L878.276689,867.466179L879.680931,867.915957L880.950653,867.894539L882.735232,868.301482L884.338427,868.665588L889.387736,871.257167L889.879217,871.449929L890.399968,871.535601L890.967541,871.514183L891.540976,871.407093L892.143680,871.192913L895.637056,869.650817L896.151999,869.372383L896.666949,869.029694L897.135100,868.601334L898.627351,867.059236L900.113718,865.795572L900.453116,865.581392L900.810052,865.495720L901.131865,865.538556L901.395147,865.731318L902.079588,867.016400L902.225848,867.187744L902.436485,867.251998L902.682237,867.251998L902.922151,867.144908L903.167926,866.952146L903.372748,866.716548L903.507362,866.416695L903.589315,866.116843L903.577646,865.838408L902.817482,861.747561L902.799952,861.554798L902.799976,861.362036L902.893638,861.019346L902.981430,860.826584L903.215521,860.483895L904.707799,858.749030L906.650612,857.099837L909.008924,854.958027L911.665560,853.523014L911.882074,853.373087L912.034236,853.137487L912.104483,852.880470L912.075286,852.409271L912.092888,852.023745L912.186559,851.616800L912.338745,851.188438L912.549438,850.802911L912.789384,850.438803L913.076137,850.096113L914.299211,848.768188L914.556695,848.532588L914.837578,848.339825L915.136007,848.211316L915.428581,848.104225L915.715294,848.082807L915.990298,848.104225L916.230187,848.189898L916.458368,848.318407L916.639734,848.489752L916.785985,848.725351L916.891274,848.982369L917.072518,850.117531L917.347321,851.745309L917.786034,852.773379L918.681215,853.223160L920.266987,852.494944L920.530308,852.366435L920.793614,852.366435L921.015949,852.452107L921.173908,852.644871L921.244091,852.901888L921.232352,853.201742L921.126990,853.523014L920.360339,854.658174L920.079433,855.043700L919.775127,855.386389L919.447422,855.686243L918.873941,856.178859L917.352538,856.864238L916.995587,857.078419L916.808319,857.314018L916.662004,857.592454L916.603458,857.870889L916.638534,858.127906L916.802332,858.427759L917.896389,859.434409L918.645221,860.483895L918.920210,860.633821L919.271284,860.633821L919.575551,860.612403L919.885664,860.633821L920.160661,860.719493L920.400544,860.869420L920.628719,861.062183L920.792525,861.297781L921.436006,862.604283L922.155624,863.311079L922.992417,862.754210L931.559284,857.164092L933.004243,859.648590L934.355577,862.218758L935.607432,864.896015L936.753963,867.637523L937.806871,870.464701L938.754454,873.356131L939.590860,876.333229L940.321942,879.374579L940.947701,882.480180L941.427209,885.350181L943.994164,903.448261L975.767673,891.561368L1000.000000,867.830285Z M612.778790,889.548088L603.944371,920.710951L611.439886,920.710951L610.175252,925.915441L606.533678,940.650741L611.840839,940.565071L626.182464,940.308060L616.066639,978.666646L621.683763,980.337194L624.743917,981.343806L628.997690,982.928683L634.017946,984.984739L636.615833,986.141270L638.183917,986.955125L665.597189,991.217151L688.790301,905.333026L619.681542,865.131613L612.778790,889.548088Z M224.572719,42.510427L230.803742,50.201433L235.691854,54.143335L239.650003,57.763881L242.847740,61.213037L245.156118,64.833576L246.457791,69.118232L246.465772,74.538315L245.712989,80.301159L243.341518,91.976780L241.708251,102.174169L239.559759,113.035639L239.294997,115.285052L238.930114,118.541341L238.741768,120.255177L238.561808,127.003395L239.507087,130.795244L240.347613,133.751599L250.080875,101.081593L250.439054,99.132094L250.767307,98.189479L251.071929,97.589632L253.407724,86.685265L255.075102,78.030300L256.188568,75.245281L258.986805,72.653070L265.019155,71.710447L265.763437,69.825200L266.256185,67.897106L268.324601,63.162559L269.485310,59.756251L269.936346,58.942165L271.097638,54.700342L271.127542,53.757714L272.670081,48.123364L273.409679,44.588500L272.584037,37.283104L272.446922,32.591360L272.834036,31.177408L272.734913,30.706091L273.122029,29.292139L273.022906,28.820821L273.410023,27.406868L273.293350,26.935550L273.932682,24.600383L274.307434,24.129065L275.051756,22.243791L276.457328,20.122857L277.838938,18.794595L276.412869,16.823623L275.717020,16.352304L271.072644,15.302547L250.069689,7.782849L247.565505,16.288033L235.796236,22.350909L236.207210,36.747517L224.572719,42.510427Z M165.478768,144.184509L157.162963,156.609699L172.169133,156.931039L171.365665,159.930216L170.304211,163.807718L185.415297,164.771737L186.769830,160.015906L196.699739,166.442704L200.257823,155.817059L204.366751,143.884590L216.710955,144.184509L224.573929,144.184509L233.035023,142.063653L237.552984,139.857105L236.974838,138.250394L236.437242,137.264944L235.642703,135.551117L234.148433,130.302518L233.723747,126.660628L233.742950,124.154149L234.419500,118.477072L231.184301,118.369958L229.084151,118.155728L225.358587,116.441892L221.065912,114.171057L213.484523,121.861896L205.836190,115.884895L221.220381,101.938515L228.273131,106.116008L222.055716,112.542911L224.546953,114.085365L229.928231,115.713511L234.661314,115.542127L235.143069,112.500065L241.649379,76.809177L241.820698,74.388352L241.745996,72.417414L241.419673,70.532168L240.765792,68.561227L239.188196,65.669085L237.913993,63.976644L234.195856,60.120448L226.560156,53.200706L224.657930,54.443262L223.065801,55.642970L221.590529,57.056911L220.267172,58.749355L219.259688,60.506068L217.197176,65.090656L214.736730,69.846623L211.972147,74.495468L209.231342,78.608726L205.583221,83.471791L194.092930,100.824516L191.012384,105.601856L190.210199,106.608738L189.689137,107.165737L174.369061,130.109712L165.478768,144.184509Z M0.000000,417.999096L15.149078,415.171523L32.037878,419.391460L31.349063,449.744855L81.302941,449.744855L133.013944,445.953374L145.847147,441.005163L136.269061,430.209040L134.846708,431.430032L125.674395,439.677070L124.831496,440.448221L120.399436,434.900217L122.770104,432.715286L122.425118,432.308289L116.443528,425.046595L110.754618,428.902364L108.293498,424.939490L110.868911,422.840237L98.243262,411.187212L107.591458,402.490259L117.817648,393.086384L122.308807,397.199244L130.691126,389.466206L147.575159,402.683049L154.932705,407.802686L165.338171,402.233206L185.767466,393.643334L190.139246,391.137058L191.543816,390.365896L194.575305,388.780728L197.038279,400.433833L202.045614,402.147521L208.956745,399.341356L209.532329,406.474580L211.761878,405.639158L212.966398,407.074370L206.944375,410.287528L208.404927,414.507472L218.119413,409.987634L219.480393,414.443209L242.304443,437.577826L245.995008,440.191171L235.764164,472.643596L234.358865,475.021285L227.538146,484.810494L215.349563,500.490304L217.081019,501.347122L214.629678,501.004395L212.856293,502.289621L211.193996,503.746211L208.358519,498.969451L206.316365,499.440701L205.197987,501.347122L205.758175,504.624449L207.324491,508.394441L205.170116,511.200513L203.648184,512.785621L202.278307,514.520670L201.066374,516.319980L200.065044,518.183550L199.033925,521.246657L186.986872,534.741428L181.777317,539.925119L167.056362,540.289263L145.314235,581.330090L124.685067,620.678247L123.536839,624.233909L111.230747,627.960924L104.620803,638.392259L102.490960,638.606454L99.241230,644.711019L98.139548,648.994916L95.915392,650.965507L81.499356,663.752901L85.510503,670.585675L90.317313,677.718304L92.773186,681.830805L97.147163,688.749217L102.228643,697.059861L105.895115,702.907285L113.204632,698.644878L113.082276,697.231214L112.872956,693.632794L116.027653,690.955395L118.643873,688.770637L119.474610,689.070506L122.218165,690.655527L123.657757,690.012951L129.018049,687.999545L136.743024,683.630022L137.357477,683.372991L140.698921,682.002159L174.456642,657.669792L188.496739,648.245235L197.587589,637.021408L210.173465,635.929010L209.621855,640.191500L210.931739,642.140677L216.893984,641.905062L229.082824,638.606454L234.191551,636.421660L239.323496,634.729515L243.784713,642.997458L245.738333,644.646760L243.998158,651.265380L256.858129,652.700483L275.171026,654.735330L316.343033,658.997795L323.759107,650.815571L324.613706,649.808856L340.774013,650.215826L341.158533,654.970944L334.443041,685.300722L332.680669,688.984829L332.007245,690.676946L333.563888,689.863016L336.220982,687.656837L335.212897,692.883123L334.356863,698.387848L332.978391,709.268757L328.110326,747.351650L326.157122,763.737009L325.500227,769.220195L325.059719,775.131745L324.918067,779.501145L324.957924,783.463585L429.239258,821.995388L463.196775,784.727282L458.247545,781.385982L446.155013,774.446349L448.368043,769.434382L442.395201,765.022132L449.769458,758.082463L455.405098,776.631050L463.566671,779.651075L490.756700,757.439901L498.976419,761.723649L512.043419,779.479726L535.512541,803.875432L544.825512,813.342372L556.297547,823.323325L564.268167,817.154843L564.888588,816.233853L598.803541,782.135633L623.414602,804.089616L675.161852,751.378387L563.538160,714.216560L548.619933,728.588706L536.974518,713.466893L517.472528,694.211112L514.694416,690.312819L511.501126,685.622011L532.975640,642.976038L521.841836,641.005442L508.227239,638.992006L512.161194,632.501879L541.825430,580.451874L552.598633,575.653806L556.261587,574.839848L557.671776,574.497128L562.913739,575.803746L566.651763,577.860061L586.956129,539.689497L605.164385,506.873592L615.374776,489.630116L572.006691,479.476771L570.491095,480.076548L558.225819,485.067541L555.727131,486.052886L554.864851,476.949141L521.356165,347.930272L517.875193,335.505805L516.701637,330.557427L514.558438,322.481486L514.080400,319.032604L504.749385,283.151157L500.061616,263.657192L505.761142,261.622101L529.768961,255.988106L534.695659,254.981269L544.044120,202.346846L541.258868,203.096630L539.281091,203.653613L529.720177,205.817274L499.159426,212.243981L497.181716,212.672428L492.769920,213.593588L479.425909,161.215576L432.833143,170.684383L433.052450,146.541014L429.008929,147.976339L428.043412,148.297681L433.831985,115.799203L427.079958,116.870351L426.035238,122.226086L403.341408,122.418892L402.866234,124.475492L402.033451,127.710350L400.878445,131.673582L398.909267,137.200675L395.130257,146.069714L390.396581,156.695390L388.123615,161.601184L378.029598,184.244866L375.123491,191.399980L372.913903,198.062363L370.315602,199.219174L367.061843,200.718743L367.694723,198.983527L371.626770,188.272298L375.756749,179.274838L384.450384,160.208711L389.461867,144.977152L381.711020,143.413289L377.516664,142.770606L375.112299,142.513532L372.543949,142.534955L371.256682,142.813451L369.963351,143.434712L368.974176,144.163087L364.984171,144.184509L362.509441,144.184509L324.712244,140.371252L315.503897,140.028487L286.112091,138.914501L282.012425,164.214749L272.825072,224.968826L268.432281,223.383579L263.448604,221.776908L231.176794,212.779540L226.994457,211.515622L222.349921,210.273126L216.271989,209.073474L212.370168,208.323691L205.783288,207.059771L201.284601,206.502790L184.494731,204.810422L169.693128,213.936346L160.820069,219.870325L130.853052,239.835838L137.210651,252.581997L144.591041,267.298930L151.549520,283.429641L154.914875,291.270038L106.790027,317.683040L104.299892,313.827141L101.220405,307.314945L77.333309,305.708315L62.694931,315.905043L57.781237,324.495118L41.154986,332.399681L39.364915,332.014093L38.288460,331.906986L35.896174,330.835907L31.280247,330.450319L21.277483,347.437578L20.732742,348.530072L15.852995,359.240780L10.840214,377.684535L10.729081,388.095250L10.933379,388.952098L10.510025,392.743645L10.087211,395.571237L8.217107,402.340311L5.978989,408.081160L4.590825,410.908739L2.406499,414.593156L1.211973,416.392521L0.000000,417.999096Z M553.078473,558.881936L557.258545,551.813305L566.273670,554.854960L562.310065,562.030684L553.078473,558.881936Z M155.058697,632.202005L151.507703,630.809731L159.100139,621.406516L156.070144,619.393067L166.612847,592.339911L172.410609,579.487977L174.542647,574.004469L185.660601,571.091352L189.796360,559.246077L197.760932,569.527692L204.301886,570.384492L212.498898,570.641532L241.917256,570.641532L248.078076,571.091352L260.938465,570.855732L256.768449,581.158731L248.893994,593.582262L260.846361,596.345420L262.349287,598.294624L257.094937,613.909627L257.427875,615.387586L256.029997,614.080985L251.919450,607.162413L246.148279,612.667284L243.947791,614.038145L243.374257,614.402280L240.641199,616.115856L234.308390,621.492194L234.033922,620.121336L230.529105,620.356952L209.739380,623.591320L189.769413,625.176373L177.078236,626.268774L172.578984,625.904640L170.098342,625.476248L167.822653,624.619463L161.353433,634.536739L158.147533,633.422921L155.058697,632.202005Z " data-aland="6939241" data-awater="40007" data-classfp="C1" data-funcstat="A" data-geoid="3764500" data-intptlat="+35.3554514" data-intptlon="-081.0944453" data-lsad="43" data-mtfcc="G4110" data-name="Stanley" data-namelsad="Stanley town" data-pcicbsa="N" data-pcinecta="N" data-placefp="64500" data-placens="02406656" data-statefp="37"/></g><g fill="#000" font-family="Arial" font-size="12px" id="mylayer-label" stroke="none"><text text-anchor="middle" y="486.971148413"><tspan dy="0" x="394.480075386"><![CDATA[Stanley]]></tspan></text></g></svg>