<?xml version="1.0" encoding="utf-8"?><!DOCTYPE svg  PUBLIC '-//W3C//DTD SVG 1.1//EN'  'http://www.w3.org/Graphics/SVG/1.1/DTD/svg11.dtd'><svg enable_background="new 0 0 1000 1001" height="1001px" pretty_print="False" style="stroke-linejoin: round; stroke:#000; fill: none;" version="1.1" viewBox="0 0 1000 1001" width="1000px" xmlns="http://www.w3.org/2000/svg" xmlns:xlink="http://www.w3.org/1999/xlink"><defs><style type="text/css"><![CDATA[path { fill-rule: evenodd; }]]></style></defs><metadata><views><view h="1001" padding="0" w="1000"><proj flip="auto" id="robinson" lon0="-120.083382302"/><bbox h="0.98" w="1.01" x="-1663.05" y="-621.7"/></view></views></metadata><g class="" id="mylayer"><path d="M1000.000000,22.578021L974.262495,21.121853L897.056557,16.770284L871.312696,15.297186L831.882564,15.957540L765.084757,17.041199L735.972014,80.096777L718.492693,117.923514L715.075109,120.260174L709.053158,122.241256L702.256137,138.293110L699.185325,145.540156L681.777876,186.431868L674.948006,202.466876L668.743585,217.045714L650.131595,260.782332L648.946764,263.542333L643.976444,275.344308L640.022325,284.555613L631.257511,304.942423L628.175009,312.155704L624.228496,321.350104L623.283671,323.551343L623.101156,324.008523L619.823287,331.932985L618.730678,334.574474L614.662212,334.625272L602.450362,334.760733L598.375445,334.794598L599.149144,330.307454L601.470377,316.846032L602.244166,312.358895L602.762972,310.191524L603.134167,307.888692L603.463101,304.214322L603.502426,302.588794L603.385947,301.166458L603.083057,299.794919L602.627639,298.491111L601.692438,296.323742L599.315335,291.955140L598.809052,290.769861L596.922864,285.673161L596.806789,285.368375L594.846767,279.357320L594.394193,277.088359L594.268621,276.326395L593.862132,273.854244L592.635668,267.860127L592.409981,267.267489L592.306810,266.996569L591.867393,266.166875L591.330315,265.404911L590.887497,264.998530L590.429321,264.659880L590.163185,264.321229L589.678395,263.948714L588.834494,263.677793L587.747668,263.525401L587.365227,263.457671L575.590079,263.694726L571.528131,263.762456L570.362165,263.762456L566.844922,263.711659L565.672508,263.694726L557.554360,263.593131L533.158767,263.288345L525.013187,263.186750L516.268030,263.203683L489.997857,263.271413L481.246253,263.271413L478.837643,263.322210L471.626351,263.440738L469.218563,263.457671L467.565224,263.474603L457.004586,263.406873L420.379666,263.119020L408.160066,263.017425L400.219425,262.949695L375.755950,262.898897L278.493543,262.627977L246.068447,262.526382L243.895155,264.744542L242.366189,266.133010L239.490851,268.452766L237.886176,269.570313L235.115637,272.093260L233.541121,274.226760L232.337230,277.477808L231.775734,280.542598L229.563108,282.405179L226.049668,284.454017L225.308932,284.454017L223.805215,287.061631L222.054731,289.381391L221.779423,289.703110L220.637860,290.956119L216.696995,294.224104L213.263539,296.086686L212.797148,296.086686L212.488782,296.357607L210.886046,296.831719L202.159605,296.357607L202.001582,296.086686L197.380753,295.443249L197.026432,295.629507L195.147153,295.629507L194.980214,295.443249L188.926602,295.900428L188.606163,296.103619L186.475716,296.560798L183.730180,297.492089L181.334709,298.694302L179.067358,300.269031L178.312902,300.269031L176.114001,302.131615L175.252000,302.605727L170.434180,307.245254L165.814584,310.784164L164.198409,312.375828L162.156634,318.217573L161.473255,319.809237L160.287136,321.485565L159.228851,322.416858L155.949493,326.125099L155.549650,327.056393L155.248557,327.310382L154.559826,328.275541L152.217821,332.644155L151.301832,334.777666L149.763755,336.826513L146.484441,340.534758L142.617052,343.887419L137.385060,347.511003L133.773311,349.373594L127.132198,351.710299L126.377732,351.710299L126.043582,351.913490L124.123820,352.167480L123.712169,352.455335L119.007369,353.572890L115.283538,355.249222L111.715283,357.298073L99.807310,385.355509L48.069338,507.203740L52.626577,505.662850L47.524318,508.473704L29.811462,550.484187L5.657776,606.295181L12.936095,621.721138L12.476892,621.992066L11.121080,622.754051L10.655424,623.008046L8.519978,624.532017L4.165967,627.613825L2.128177,629.070064L0.000000,630.577102L5.693631,640.872379L22.487431,671.182534L22.727874,671.741325L27.624001,682.713958L28.476079,684.661262L29.003790,685.829645L33.687658,683.289682L37.023827,681.460910L37.808221,681.359311L39.858783,681.088382L40.153347,680.817453L40.367200,680.766653L40.987778,680.631189L41.577699,680.343326L46.890908,679.886133L47.217747,679.699869L52.208969,679.225743L52.510796,678.937881L62.938678,678.294424L64.191153,677.549369L65.194252,677.193774L65.519472,677.075243L68.750737,675.043274L69.224437,675.026341L69.615030,674.755412L72.920491,673.637829L78.128015,672.435581L79.536234,671.775191L81.227694,671.317999L86.314937,670.843873L92.080865,670.098818L94.618825,670.098818L97.879805,670.843873L100.642857,672.046120L102.621521,673.349967L104.168428,675.212605L105.034244,677.159908L105.213352,678.277491L106.021877,680.326393L106.807038,681.342378L109.282796,683.662210L112.765726,684.305667L112.930343,684.593530L115.854854,684.779794L116.013016,685.050723L125.692776,686.439236L125.859818,686.625500L127.492339,687.201225L131.165715,688.488140L132.067106,689.233196L137.101058,691.282100L137.581215,691.282100L139.123353,692.484349L144.744812,694.059127L146.986617,694.973514L149.675500,694.973514L154.970953,694.973514L156.969870,693.127807L157.921311,692.636747L158.192460,692.484349L159.605494,692.484349L160.562580,692.619814L161.012073,692.467416L163.909155,692.941543L169.750937,692.467416L170.059207,692.196487L172.018572,692.010223L173.442906,691.536096L173.909344,691.536096L183.119492,689.029999L185.812409,688.284943L186.223973,687.997080L192.616115,686.879496L192.924385,686.608567L206.079871,685.490983L206.491434,685.203121L207.106357,685.304719L210.512645,684.559664L218.504226,682.239831L218.824600,682.036634L221.062370,681.681040L190.388824,753.680691L189.873244,754.882946L189.749796,755.170810L162.434072,817.976095L119.438005,817.976095L117.826554,819.110622L112.854212,822.548073L108.488689,825.562193L106.522188,826.916854L107.011352,827.695784L111.551109,834.994023L128.518286,864.728881L132.555639,871.823939L139.598828,884.388466L141.509575,883.067666L144.641164,880.883267L149.830359,877.259535L183.286251,938.050301L208.391512,983.668948L209.062989,983.702814L209.144409,983.448813L210.194130,980.519326L210.546459,979.537186L215.770155,967.124974L227.069587,940.217776L231.621319,929.854539L237.072402,917.425438L237.260324,917.019037L237.803910,915.782901L237.985371,915.359566L238.513176,915.376500L240.118367,915.376500L240.639711,915.376500L249.528403,915.444233L276.216255,915.596633L285.098487,915.647434L294.515782,915.698234L322.740231,915.850634L332.151066,915.884501L336.897244,915.918367L351.102674,915.969168L355.849649,915.969168L358.846979,915.986101L367.846227,916.019968L370.837095,916.019968L375.186199,905.809149L388.234929,875.142870L392.577987,864.915147L396.664694,855.381698L408.905976,826.730588L412.986585,817.180232L418.123144,805.039097L433.533703,768.615756L438.678111,756.457731L442.711500,756.457731L454.792292,756.406932L458.805503,756.389999L465.177582,756.406932L484.301081,756.440798L490.680420,756.440798L492.017623,756.457731L496.043752,756.474665L497.374496,756.474665L510.577040,756.559330L550.206455,756.762529L563.402542,756.830261L568.999098,756.864128L585.761328,756.965727L591.351425,756.982660L610.420051,757.016526L667.661430,757.067326L686.723597,757.084259L690.173468,748.973270L700.496035,724.640334L703.932448,716.529364L704.209135,715.852039L716.072553,687.895482L723.817350,669.641625L751.901507,603.992296L762.216300,579.845888L763.843900,576.019042L766.983749,568.602414L776.418153,546.318692L779.565485,538.885149L781.001166,535.634033L785.309081,525.846826L786.738350,522.578780L787.579289,520.682299L787.804456,520.157380L789.845496,515.399244L790.811565,512.859314L791.734059,510.420983L794.206112,504.850074L801.595018,488.137361L804.047021,482.549529L806.395765,476.978632L813.422824,460.215157L815.765239,454.627337L818.753429,447.566369L827.733641,426.315755L830.715579,419.237869L833.424688,412.955825L841.545799,394.092781L844.248613,387.793817L846.270112,383.018798L852.321028,368.693753L854.336166,363.901809L856.059052,359.854903L859.113308,352.641594L861.098713,347.663397L862.705473,343.599565L864.806227,338.960024L871.115881,325.024479L873.210269,320.368013L876.808279,311.664659L887.610853,285.503836L891.202719,276.783574L902.778571,250.165647L902.858519,249.979390L937.207322,169.516398L948.661060,142.678588L949.460743,140.816029L951.140089,136.904657L958.536226,119.582881L961.008942,113.792029L962.004978,111.472303L963.496232,107.967315L964.972133,104.530058L965.961745,102.193401L966.768774,100.313917L967.932890,97.570886L969.197978,94.624668L969.685111,93.490205L969.957425,92.728252L970.339472,91.966300L970.964753,90.510124L973.822990,83.821876L974.769026,81.586816L975.517926,79.842793L977.786459,74.559928L978.528927,72.798974L982.826972,62.758152L995.707996,32.635740L1000.000000,22.578021Z " data-aland="18856304" data-awater="0" data-classfp="U1" data-funcstat="S" data-geoid="0645050" data-intptlat="+37.0122814" data-intptlon="-120.0798987" data-lsad="57" data-mtfcc="G4210" data-name="Madera Acres" data-namelsad="Madera Acres CDP" data-pcicbsa="N" data-pcinecta="N" data-placefp="45050" data-placens="02408158" data-statefp="06"/></g><g fill="#000" font-family="Arial" font-size="12px" id="mylayer-label" stroke="none"><text text-anchor="middle" y="480.131190044"><tspan dy="0" x="477.524076454"><![CDATA[Madera Acres]]></tspan></text></g></svg>