<?xml version="1.0" encoding="utf-8"?><!DOCTYPE svg  PUBLIC '-//W3C//DTD SVG 1.1//EN'  'http://www.w3.org/Graphics/SVG/1.1/DTD/svg11.dtd'><svg enable_background="new 0 0 1000 1001" height="1001px" pretty_print="False" style="stroke-linejoin: round; stroke:#000; fill: none;" version="1.1" viewBox="0 0 1000 1001" width="1000px" xmlns="http://www.w3.org/2000/svg" xmlns:xlink="http://www.w3.org/1999/xlink"><defs><style type="text/css"><![CDATA[path { fill-rule: evenodd; }]]></style></defs><metadata><views><view h="1001" padding="0" w="1000"><proj flip="auto" id="robinson" lon0="-120.36889889"/><bbox h="0.92" w="0.9" x="-1642.27" y="-675.01"/></view></views></metadata><g class="" id="mylayer"><path d="M715.741670,0.000000L715.085543,0.885556L712.275073,4.355494L709.578116,8.421841L706.196657,11.114674L704.063129,12.397838L699.921695,15.976246L679.760031,36.308316L676.157354,42.164016L671.085705,48.019745L666.502490,52.881468L655.981990,65.279853L650.465319,71.135695L646.617689,75.599891L643.218393,79.178488L640.161168,83.136647L634.690345,88.902207L629.789247,93.366468L621.631074,103.180673L615.973930,109.343962L613.715992,111.928577L606.204304,120.260834L575.895516,149.975475L556.360540,166.730954L550.365114,172.478843L545.612336,178.732866L541.242376,185.872615L540.019360,191.837501L539.281609,197.693964L539.175471,203.152792L534.011514,209.985399L531.631234,215.950406L531.229015,220.704357L527.541474,225.675239L523.000934,229.633883L514.908225,234.894019L497.404034,250.367270L489.368027,254.723677L479.572469,261.267356L471.954530,268.317216L464.274524,274.463282L457.279061,281.133607L462.403033,287.695507L468.492899,295.721683L466.861960,296.950922L465.700193,298.162085L465.070572,299.084016L463.778749,301.813659L461.130792,307.869511L459.342948,311.521115L458.793235,312.461133L458.297348,313.148070L457.721568,313.816931L456.422817,315.064265L454.930109,316.166983L451.214265,318.173570L446.121465,320.614018L437.844242,324.157195L433.524470,326.272261L431.781899,327.194213L430.459649,327.754616L429.147746,328.206554L427.822205,328.568105L422.543296,329.381594L421.586658,329.453904L419.842156,329.851610L418.959559,330.158929L418.084903,330.538558L416.362867,331.478591L409.770738,336.413780L405.718355,339.848538L402.505414,342.650585L398.526201,345.940740L393.921478,349.176669L392.420697,350.442119L391.400485,351.725648L390.694159,353.063412L389.931469,355.070061L389.923066,357.492507L389.719355,358.306016L388.436838,361.017716L384.939154,364.705639L383.340062,366.224199L381.715937,367.616214L380.066780,368.881683L378.490918,369.767512L376.457271,370.707577L365.442549,374.558234L364.305283,375.046346L361.906190,376.239510L360.812392,376.582997L359.774652,376.727623L358.813506,376.691467L357.982618,376.456449L357.317365,376.040650L355.682849,373.961652L355.164798,373.636244L354.161530,373.419306L351.667234,373.509697L347.291278,374.268982L346.188334,374.630547L345.415315,374.955955L344.665082,375.353676L343.219329,376.275667L341.913883,377.360363L340.736155,378.661999L339.416486,380.596378L338.457624,382.404212L337.524710,384.718242L336.653699,386.616474L335.168130,389.201690L333.955953,390.864909L329.615844,396.541565L328.238965,398.765230L324.731553,403.646462L322.474998,407.081414L320.889465,408.925446L319.180031,411.836128L317.750181,414.927607L317.466084,416.663177L317.360340,417.928698L317.406577,418.923038L317.724576,419.790825L318.302939,420.495903L318.700043,420.767087L320.828533,421.634876L322.732303,422.213403L324.704446,423.008877L328.371150,424.943328L329.647137,425.413382L330.869592,425.666488L332.829545,425.811120L333.536172,425.793041L334.487000,425.937673L335.277901,426.281175L337.002020,427.655181L338.537986,428.667607L339.566074,429.481165L339.749597,429.969300L339.625985,430.565909L339.211268,431.180598L333.088643,436.333150L323.067600,445.878990L321.975573,447.216860L320.733712,449.115191L317.100033,455.949210L314.300907,460.487165L310.876505,466.760781L309.521314,469.382331L306.104207,474.878564L305.066728,476.813099L304.042795,479.073074L302.158193,483.593038L301.339048,484.949030L300.244821,486.232704L297.699131,488.655417L293.390228,492.452216L282.666843,501.275300L278.829644,504.638214L275.410351,507.820335L272.732324,510.152690L269.662647,512.702014L268.150765,513.696433L265.597585,515.106701L263.004610,516.155363L259.587346,517.366749L256.849304,518.614297L254.130622,519.970330L250.774674,521.941100L248.852862,523.188653L245.222908,525.231750L240.374553,528.070395L235.808172,530.909048L233.913886,531.867320L228.643323,534.308207L226.494488,535.212240L224.000881,536.152436L220.882692,537.418084L215.845060,539.750498L212.880784,541.504331L205.974729,545.771401L203.250265,547.344434L200.159118,549.496059L195.070613,553.455780L192.133396,556.095602L188.145659,559.404429L186.907537,561.031723L186.253003,562.062345L182.392790,569.258638L180.547947,572.350526L178.802561,575.098877L173.242718,585.188275L171.002433,589.708643L168.945800,594.717230L168.777697,595.548983L168.805963,596.344574L169.061451,597.013593L172.359207,601.353189L174.145180,603.251767L175.305736,604.625978L175.545222,605.385411L175.589359,606.560725L175.320670,607.826449L174.751728,609.128338L174.348531,609.779283L170.843338,614.806037L168.438958,618.946796L163.597422,626.324255L162.403741,628.656843L161.436185,630.718204L159.859882,633.719841L158.364799,636.179020L156.755598,638.511628L156.443737,639.216835L156.288191,640.229442L156.532253,641.097392L157.141703,641.712190L158.075454,642.037671L161.107554,642.146165L162.966114,642.110000L164.858958,641.947260L166.515511,641.694108L171.879140,640.536841L172.617755,640.573006L173.536665,640.898487L175.099183,642.182330L175.564637,643.375762L175.509555,644.424538L175.106199,645.780714L174.581911,646.847573L173.607794,648.041011L171.607317,649.415274L158.132458,664.098286L154.860571,668.781698L161.573183,669.360345L168.116066,668.365796L180.178786,666.991511L188.290840,668.383879L195.827320,670.680385L205.232639,673.067309L194.807485,677.515680L185.927209,686.249726L172.324188,700.336449L168.913265,705.001921L158.982556,715.815762L154.659187,722.669402L151.144973,731.711203L145.504085,739.939302L137.796823,748.673808L133.096806,756.920109L125.114400,767.228067L113.541374,780.031760L106.695285,788.766562L100.233927,799.002458L99.154977,800.286472L92.474697,807.429958L87.607477,813.687326L78.792206,826.292585L73.051696,834.720280L69.016949,840.182037L62.177128,848.230037L55.676432,854.578048L44.901352,863.512343L32.432075,872.627565L21.848992,883.063133L17.574701,887.530380L13.293662,893.480707L11.124766,898.834219L11.284004,906.484718L10.793457,911.277609L10.171759,917.300402L14.709754,925.891526L25.349419,926.777772L137.975281,925.801093L121.852460,956.621132L125.874513,955.445470L129.477562,954.305983L132.069126,953.582500L134.758832,952.605799L138.151752,951.176923L140.342574,950.453442L141.983147,950.055528L146.616109,949.404395L153.222096,949.549091L156.812634,948.699002L158.335635,948.445785L159.637169,948.337263L160.741253,948.590480L163.287419,949.368221L164.052468,949.910832L165.210385,951.086488L167.554834,953.763371L168.510590,954.486854L169.789414,955.011380L171.238294,955.228425L173.269443,955.409296L175.640796,955.445470L178.525871,955.228425L182.211214,954.631551L185.130514,954.287896L185.772151,954.251722L186.379562,954.342157L189.669781,953.293107L192.211280,953.492065L194.424142,954.577290L196.270538,955.771038L201.778792,958.737326L206.324562,961.522750L211.881977,964.597576L215.718663,966.876570L222.840391,970.439767L234.605299,973.008170L239.096717,972.519812L241.015314,974.599859L241.520591,977.186359L243.175341,978.759966L246.540331,980.062264L248.087718,981.436912L248.253077,985.108679L249.874228,993.248105L252.858085,995.129225L255.998455,997.317839L260.430846,998.005173L264.219366,998.909561L269.160802,999.000000L277.695034,998.294577L283.929792,997.498717L285.718767,997.100786L291.239627,995.219663L297.923846,993.121492L305.429576,989.160298L311.926356,986.374809L324.908965,978.325868L330.025413,975.540404L352.211270,966.695697L359.747479,961.233355L363.536207,958.755413L367.229410,957.760620L370.294820,957.362703L375.038350,956.168954L382.095509,952.479190L383.029337,952.099362L390.595560,947.812740L398.325725,941.554662L403.118716,937.087211L409.712065,932.022914L417.501835,926.470298L422.443153,921.297527L429.497794,916.142866L435.278231,910.572239L440.712174,907.805022L451.421716,904.024977L460.795333,899.539582L464.016826,897.568183L470.470807,891.310372L472.593413,886.047325L475.719839,882.176920L484.547506,876.009619L484.851665,871.849875L486.382482,863.114458L491.297971,858.846245L495.017056,855.066358L498.566085,851.593936L503.008761,845.734247L505.672854,840.869280L506.568483,835.714969L510.538264,826.383011L518.237036,819.130900L528.707470,807.212940L534.762310,798.984373L539.762394,792.021784L544.591278,784.986898L553.422780,775.257485L555.179748,773.864992L561.601457,769.994955L568.614529,765.130300L569.906851,763.629314L576.246354,757.571136L584.930832,749.632257L587.676496,747.751528L589.863898,744.478344L591.183663,740.807325L592.551402,736.629972L595.656749,732.362215L601.085369,727.696635L606.944406,723.031072L615.234088,716.285932L616.579062,713.211752L620.010930,710.824747L625.432713,707.642081L631.447104,702.669183L633.920016,700.300282L639.715351,693.645686L644.230979,686.792215L649.205685,678.853811L653.115132,672.994977L656.474206,668.637037L660.862113,662.271940L666.592485,657.009912L671.113650,653.935886L677.753914,648.782389L681.351643,644.804267L685.955115,641.097392L685.169788,640.301772L678.497861,634.443129L676.760517,633.123130L673.470792,630.410808L671.615960,628.530268L670.336575,626.215762L666.972032,620.538009L665.424387,618.313928L659.112007,608.043430L664.676131,602.347682L667.437161,593.505765L677.172221,579.908508L679.622397,573.561969L682.790568,567.703656L686.133317,562.351642L690.493718,555.191553L695.964168,546.657362L699.900024,539.515448L703.054132,531.776917L709.247861,525.629522L719.152168,514.401567L721.687704,510.441975L723.230018,503.191798L726.682927,487.317501L728.724018,477.789408L726.869184,474.119214L726.855745,470.358633L727.662428,465.386730L725.818444,460.432927L732.964650,451.610146L733.525516,450.706176L735.201699,444.161456L733.762586,440.491366L730.724783,438.104910L730.541250,432.156869L736.099353,424.509432L740.625406,419.754668L743.059354,414.294847L745.077819,408.835052L749.842355,404.460002L754.365176,399.506453L756.542754,390.973380L760.370922,387.393846L761.397335,384.718242L761.671785,381.446059L767.833656,372.605787L768.716230,370.038685L776.612342,360.909248L780.394910,357.420195L785.620893,352.954945L789.543931,349.393604L793.747744,345.922662L803.352912,338.872343L809.771430,333.105574L817.266915,326.471113L823.456279,320.306702L831.780060,314.558100L839.880682,311.774197L841.829485,309.387998L848.036752,305.917173L855.871296,299.463635L862.298395,289.250123L865.391522,286.068586L869.526216,280.211690L870.508403,275.746729L870.352933,272.474845L870.800949,268.009914L872.592334,263.852300L875.411869,258.483577L880.728948,253.223336L883.611979,246.878541L886.020270,238.744237L891.649084,233.484084L892.526857,230.194240L894.281408,223.469972L899.552582,217.215714L905.591784,209.678112L918.795904,197.657813L923.058002,193.193162L926.762973,187.336721L931.521113,177.521825L934.446495,170.273675L938.138697,150.336972L967.938782,123.351556L971.527079,115.615729L973.519598,109.362036L976.604945,102.620375L982.224719,96.764379L986.244379,94.685869L989.828241,89.715533L989.645741,85.648909L982.581384,81.781112L976.913292,78.907382L978.127391,72.961134L982.261815,68.984935L987.891551,63.725530L988.236917,59.261379L976.391382,54.110456L958.883548,51.146427L954.368363,45.995539L953.708778,41.025405L946.721457,36.977021L944.805236,33.199746L925.221125,35.187784L913.259164,29.241753L903.221237,29.548994L891.814468,33.615426L881.339830,34.609445L866.452805,32.946723L859.832211,29.874308L831.096525,28.103155L802.159578,26.729609L783.328909,27.434454L754.471527,19.807685L742.462810,17.530508L719.905157,5.638651L715.741670,0.000000Z " data-aland="13705685" data-awater="14513" data-classfp="U1" data-funcstat="S" data-geoid="0647472" data-intptlat="+40.1494455" data-intptlon="-120.3702050" data-lsad="57" data-mtfcc="G4210" data-name="Milford" data-namelsad="Milford CDP" data-pcicbsa="N" data-pcinecta="N" data-placefp="47472" data-placens="02628757" data-statefp="06"/></g><g fill="#000" font-family="Arial" font-size="12px" id="mylayer-label" stroke="none"><text text-anchor="middle" y="508.149100459"><tspan dy="0" x="501.87800848"><![CDATA[Milford]]></tspan></text></g></svg>