<?xml version="1.0" encoding="utf-8"?><!DOCTYPE svg  PUBLIC '-//W3C//DTD SVG 1.1//EN'  'http://www.w3.org/Graphics/SVG/1.1/DTD/svg11.dtd'><svg enable_background="new 0 0 1000 1001" height="1001px" pretty_print="False" style="stroke-linejoin: round; stroke:#000; fill: none;" version="1.1" viewBox="0 0 1000 1001" width="1000px" xmlns="http://www.w3.org/2000/svg" xmlns:xlink="http://www.w3.org/1999/xlink"><defs><style type="text/css"><![CDATA[path { fill-rule: evenodd; }]]></style></defs><metadata><views><view h="1001" padding="0" w="1000"><proj flip="auto" id="robinson" lon0="-95.195309181"/><bbox h="0.18" w="0.21" x="-1270.92" y="-738.13"/></view></views></metadata><g class="" id="mylayer"><path d="M1000.000000,87.403349L923.291118,87.783377L693.081519,88.695443L616.344979,88.999465L580.290347,89.227482L471.973541,89.835526L435.891264,89.987537L422.726006,89.607509L383.042347,88.467427L369.814462,88.087399L363.081633,102.984478L342.953267,147.523662L336.255522,162.344708L332.531918,170.705295L322.985364,191.986778L321.368500,195.635031L317.617285,203.919604L271.224436,202.931536L267.298249,211.596133L239.277382,273.008298L228.748032,273.160308L213.955019,305.158432L217.559982,305.082427L192.351325,358.209881L203.250924,357.525837L194.229544,377.667124L189.491447,388.231795L234.879004,388.003780L233.787036,390.511939L230.350883,398.112418L229.231273,400.544571L225.010711,410.121172L212.223821,438.850957L207.975655,448.351541L204.952055,455.191961L195.818652,475.713209L192.732440,482.553623L185.670672,498.438577L176.894575,518.047744L174.828633,523.216050L164.625478,545.789375L157.473540,561.598294L126.128101,631.598268L64.048216,770.001680L31.719139,841.597282L0.000000,911.596651L46.065362,910.988622L65.308682,910.684608L101.601449,910.760611L121.358826,910.836615L144.435809,910.912619L183.394190,910.912619L229.117049,910.912619L309.268314,910.684608L389.579826,910.380593L550.596605,908.100486L631.139954,906.884429L658.939565,844.713435L661.458164,839.241166L721.586646,707.374400L753.578112,636.234526L783.995897,568.514693L791.204038,552.173747L812.933584,502.922845L820.114193,486.505861L827.648617,470.544896L837.911794,448.655560L849.347555,422.585949L856.353386,406.548948L860.573486,396.972346L873.268830,368.166519L873.556042,367.406470L877.461323,358.513901L921.531805,358.969930L949.485713,359.197945L977.462886,302.498256L944.096886,301.510191L956.208451,272.476263L958.406871,267.155906L918.406006,267.383922L920.120281,263.659672L925.305437,252.258904L926.992072,248.458647L934.381329,232.269549L945.423800,207.871877L956.424006,183.702202L963.785730,167.437065L971.007538,151.475941L992.743097,103.440511L1000.000000,87.403349Z " data-aland="994943" data-awater="0" data-classfp="C5" data-funcstat="A" data-geoid="2731796" data-intptlat="+44.0558583" data-intptlon="-095.1953496" data-lsad="25" data-mtfcc="G4110" data-name="Jeffers" data-namelsad="Jeffers city" data-pcicbsa="N" data-pcinecta="N" data-placefp="31796" data-placens="02395461" data-statefp="27"/></g><g fill="#000" font-family="Arial" font-size="12px" id="mylayer-label" stroke="none"><text text-anchor="middle" y="487.769514051"><tspan dy="0" x="499.942680492"><![CDATA[Jeffers]]></tspan></text></g></svg>