<?xml version="1.0" encoding="utf-8"?><!DOCTYPE svg  PUBLIC '-//W3C//DTD SVG 1.1//EN'  'http://www.w3.org/Graphics/SVG/1.1/DTD/svg11.dtd'><svg enable_background="new 0 0 1000 1001" height="1001px" pretty_print="False" style="stroke-linejoin: round; stroke:#000; fill: none;" version="1.1" viewBox="0 0 1000 1001" width="1000px" xmlns="http://www.w3.org/2000/svg" xmlns:xlink="http://www.w3.org/1999/xlink"><defs><style type="text/css"><![CDATA[path { fill-rule: evenodd; }]]></style></defs><metadata><views><view h="1001" padding="0" w="1000"><proj flip="auto" id="robinson" lon0="-103.277666078"/><bbox h="0.72" w="0.7" x="-1455.83" y="-547.22"/></view></views></metadata><g class="" id="mylayer"><path d="M811.844702,0.000000L783.825841,1.274888L776.855357,1.043090L792.546813,20.050489L793.479673,25.381824L789.868982,33.332458L765.789344,50.879451L761.351902,63.071920L761.117817,73.711338L756.400170,90.145613L746.649110,111.285272L745.683303,113.394598L722.505850,119.004013L714.323451,119.328524L700.885353,115.086695L688.291169,95.175560L685.452645,90.678741L674.760803,79.483041L672.202301,75.148469L661.350540,56.627994L549.934480,59.108211L511.634735,59.455905L506.558400,63.744128L502.028463,68.032348L497.056791,70.280765L492.623257,71.393383L485.340038,72.691438L478.883370,75.496162L473.168234,78.300886L465.782292,81.082428L460.009900,83.516277L452.845042,84.443457L447.746738,85.926945L442.773133,88.731664L439.257611,91.003254L434.342330,92.463561L426.703985,94.874227L421.146339,93.761612L404.744872,78.996271L399.066101,77.651859L394.989615,77.095550L387.523350,78.416783L376.240384,79.529400L345.039071,76.284266L336.134408,74.592160L323.140041,74.035851L280.476695,70.813895L249.928965,68.333682L230.800619,62.724226L222.749777,59.641342L219.628059,58.111489L211.000562,85.138842L204.116271,106.950720L187.117651,160.819503L177.342670,192.180954L163.893392,235.363561L146.539249,290.297565L134.200185,323.953119L135.944096,327.661710L137.633387,330.929904L104.959774,429.855788L97.082508,454.610217L82.122823,501.569218L78.217218,513.691357L70.455673,536.985274L59.568716,571.242255L51.977127,595.045891L46.644452,612.012016L44.490216,617.481960L18.536571,700.156396L15.710825,709.079707L49.044779,710.423997L80.244692,711.606045L139.527309,713.831076L122.067228,777.962647L121.031117,781.763705L137.141992,781.670996L160.327758,781.485578L252.348709,780.743909L266.349605,774.903257L279.096916,738.283190L295.820833,671.624903L291.188349,662.098928L298.394620,661.287713L362.206414,654.937054L359.909869,668.750887L357.297990,685.206928L359.125284,732.488858L367.248125,778.148064L369.049061,791.845768L371.341805,809.205426L372.973350,821.721040L373.089802,822.764007L372.047405,823.830150L377.273171,859.360456L377.133473,864.575261L371.759729,908.750295L371.205728,936.701406L371.042611,964.652406L370.867902,977.144566L368.803328,985.951642L375.704434,997.308118L419.331968,999.000000L431.036517,963.980285L435.175157,957.606725L450.691593,945.415826L482.019767,930.397351L502.943929,919.365241L519.242681,908.333113L537.249015,893.963509L560.206856,878.203265L580.467196,863.926307L603.894037,848.838127L621.600746,838.593906L630.769124,831.687161L636.041826,829.717115L642.268553,830.203832L643.972165,824.061921L646.405481,815.324173L652.389882,792.749677L678.263077,792.888740L703.377784,792.958271L727.836869,792.819208L753.270681,793.050980L780.213067,792.958271L805.990247,793.398637L830.617592,793.282751L856.086910,708.222143L931.121691,456.812152L938.741375,432.243158L984.289175,280.307490L978.299994,279.751197L962.153574,282.161797L957.887264,282.138618L953.311132,281.373717L950.693095,278.569076L949.318979,271.314092L946.438146,260.095506L943.758131,249.410019L939.512604,245.284164L932.595388,244.333827L926.621515,245.075554L924.403273,246.095428L920.407487,240.207969L915.674757,235.896678L909.540580,234.204611L902.355070,231.770815L899.896958,227.853561L898.931188,223.356830L899.556843,210.446094L899.623280,199.227409L900.199437,188.796798L896.904806,186.339807L889.559620,185.018595L881.803638,180.336402L875.660171,176.349581L875.227402,173.730332L871.270183,169.558074L867.378490,166.220265L866.430717,157.875738L866.345649,151.965024L872.191333,129.851958L869.160390,131.706306L864.472894,131.474512L867.409104,122.272306L867.660570,121.484207L881.282010,78.857194L906.234875,0.788113L876.931218,0.463596L859.226241,0.788113L851.615876,0.788113L839.215316,1.367608L811.844702,0.000000L811.844702,0.000000Z " data-aland="13667824" data-awater="0" data-classfp="U1" data-funcstat="S" data-geoid="3549950" data-intptlat="+32.6242493" data-intptlon="-103.2776403" data-lsad="57" data-mtfcc="G4210" data-name="Monument" data-namelsad="Monument CDP" data-pcicbsa="N" data-pcinecta="N" data-placefp="49950" data-placens="02629120" data-statefp="35"/></g><g fill="#000" font-family="Arial" font-size="12px" id="mylayer-label" stroke="none"><text text-anchor="middle" y="446.690853234"><tspan dy="0" x="515.809246761"><![CDATA[Monument]]></tspan></text></g></svg>