<?xml version="1.0" encoding="utf-8"?><!DOCTYPE svg  PUBLIC '-//W3C//DTD SVG 1.1//EN'  'http://www.w3.org/Graphics/SVG/1.1/DTD/svg11.dtd'><svg enable_background="new 0 0 1000 1001" height="1001px" pretty_print="False" style="stroke-linejoin: round; stroke:#000; fill: none;" version="1.1" viewBox="0 0 1000 1001" width="1000px" xmlns="http://www.w3.org/2000/svg" xmlns:xlink="http://www.w3.org/1999/xlink"><defs><style type="text/css"><![CDATA[path { fill-rule: evenodd; }]]></style></defs><metadata><views><view h="1001" padding="0" w="1000"><proj flip="auto" id="robinson" lon0="145.765875682"/><bbox h="0.2" w="0.25" x="2136.9" y="-254.7"/></view></views></metadata><g class="" id="mylayer"><path d="M1000.000000,517.780304L999.267212,510.604874L990.788929,491.402059L978.521781,471.720882L965.303278,459.488483L956.778050,451.493005L947.637952,441.037379L942.109678,432.085176L939.725866,424.021360L940.593240,421.834563L857.957969,395.798004L851.813842,378.645310L845.748237,359.237482L821.537509,347.346769L797.293917,326.162167L686.721253,236.161773L653.503371,209.510175L629.728216,189.623982L588.965347,155.455266L494.965773,171.172876L398.565036,187.163835L147.701055,101.810380L138.886426,92.858176L132.536885,90.739716L121.355990,92.038127L112.685858,94.019913L104.620967,99.418570L97.936398,107.550725L96.208536,109.600848L87.662929,119.031414L82.966254,123.883372L76.016896,131.195477L65.570011,140.011006L60.778809,145.341326L50.075699,157.095365L42.029023,165.295856L33.887051,173.633023L20.750364,187.163835L8.717584,197.482787L0.000000,204.931567L18.203550,223.382674L18.766214,223.861036L29.214768,231.583165L57.090451,247.300774L85.338767,258.713125L89.261449,260.284886L106.496652,273.268998L108.521190,275.592470L114.749821,282.426213L116.881739,284.681348L120.020253,288.234894L125.781493,294.453600L128.923065,299.373895L131.536750,303.337466L135.613062,309.487835L142.933845,323.838694L144.615058,327.597253L158.543367,358.007408L161.666765,365.524525L165.395188,376.458513L167.807716,386.709127L168.662343,394.909618L167.966665,404.476857L166.673532,414.044096L160.487483,426.344833L159.775102,428.394955L159.310768,429.146667L158.368488,429.898379L157.675769,430.035054L154.721120,433.930287L153.219973,435.912072L145.485837,445.205962L142.375388,448.896182L149.514292,456.823324L171.014122,480.399734L178.260367,488.258538L193.519639,504.932868L211.003712,522.700598L213.504583,524.340696L231.822880,535.684708L257.905424,551.402314L317.965481,586.937772L324.786669,591.721391L327.781291,595.138262L330.783355,601.972004L332.045409,605.388875L334.148332,610.855868L340.749840,624.523351L345.423197,630.673719L351.767882,636.140712L362.657519,643.657828L368.103816,648.099760L370.318031,649.808195L376.420762,653.908440L385.608182,658.897072L391.613394,662.108930L398.824831,665.047439L415.412048,671.676168L420.341130,674.546340L427.375549,678.509910L433.720191,683.976903L443.777788,693.544141L451.866778,704.478127L453.963702,707.211624L473.737983,734.546589L504.423558,779.649281L514.491216,794.000137L535.572403,823.658573L547.389694,840.469576L572.137954,875.321654L582.399564,891.107595L593.679660,908.260284L616.397431,892.816030L633.107372,878.533512L642.718384,863.635957L652.613947,836.506006L673.339333,822.633512L688.239813,811.631189L701.823702,799.603805L731.081293,791.745003L749.083949,789.831555L766.090383,791.403316L780.524541,785.867985L797.232525,759.763094L807.229713,741.311993L821.611559,722.655879L836.484577,710.150133L855.137200,699.421159L870.816422,684.045240L865.902299,666.072500L855.522593,651.311618L845.291172,633.338878L839.785986,623.839977L847.628374,620.218094L853.738943,616.937898L859.789765,613.657702L874.454520,598.965157L880.928142,592.336428L889.806587,587.142784L896.405672,583.247551L902.476160,578.053907L905.696306,575.320411L907.366122,573.953662L915.296238,566.778233L918.480079,563.839724L921.697960,560.081166L927.037821,559.534467L933.658747,560.149504L937.187440,556.459283L942.119002,549.557204L948.668143,544.705247L957.142672,540.605002L968.123404,535.138008L979.102619,528.987640L990.133241,524.477371L995.804335,522.427248L1000.000000,517.780304Z "/></g><g fill="#000" font-family="Arial" font-size="12px" id="mylayer-label" stroke="none"><text text-anchor="middle" y="447.468742416"><tspan dy="0" x="518.295076831"><![CDATA[N]]></tspan></text></g></svg>