<?xml version="1.0" encoding="utf-8"?><!DOCTYPE svg  PUBLIC '-//W3C//DTD SVG 1.1//EN'  'http://www.w3.org/Graphics/SVG/1.1/DTD/svg11.dtd'><svg enable_background="new 0 0 1000 1001" height="1001px" pretty_print="False" style="stroke-linejoin: round; stroke:#000; fill: none;" version="1.1" viewBox="0 0 1000 1001" width="1000px" xmlns="http://www.w3.org/2000/svg" xmlns:xlink="http://www.w3.org/1999/xlink"><defs><style type="text/css"><![CDATA[path { fill-rule: evenodd; }]]></style></defs><metadata><views><view h="1001" padding="0" w="1000"><proj flip="auto" id="robinson" lon0="-117.279164145"/><bbox h="2.05" w="1.63" x="-1650.6" y="-556.25"/></view></views></metadata><g class="" id="mylayer"><path d="M567.327779,0.000000L555.144226,4.343831L553.478637,5.063712L549.498771,6.421668L547.835854,6.986119L542.233684,8.687653L538.570545,9.931080L532.856324,11.935286L526.333711,14.307609L517.615102,17.702480L502.095972,23.256965L496.196640,24.353135L493.283892,24.884860L484.136616,24.991204L480.334309,23.535098L475.940415,23.232424L475.775012,23.216063L475.271145,23.150620L466.519704,21.817218L460.532634,20.982818L455.598280,20.287485L454.979071,20.107517L453.139617,19.518528L452.522636,19.314018L449.758556,18.610504L449.400944,18.520520L441.459477,16.499960L438.691580,15.788264L436.939695,15.166553L431.934157,13.366861L431.648335,13.342319L429.713586,13.047824L426.982396,12.385210L426.514254,12.278864L420.350559,10.847289L417.104411,9.612042L416.971701,9.562960L414.300511,8.164104L413.555115,7.787803L412.584649,7.296976L411.238405,6.765247L410.444375,6.446209L406.453488,4.777396L405.073996,4.687411L402.498086,5.235502L399.364297,5.104614L396.897364,5.006449L394.921499,5.693608L393.281408,6.585277L387.950338,6.961578L384.715226,7.493307L383.729748,7.746901L381.043629,7.444225L380.143417,7.337879L379.127304,7.526029L377.142286,7.885969L376.099492,8.720374L375.105335,9.497516L375.049386,9.685666L374.878510,10.258297L374.818731,10.438267L374.768841,10.610056L374.618368,11.109062L374.567676,11.264491L367.527594,13.366861L359.209694,15.845527L356.425807,19.011344L352.403990,20.074795L348.979059,20.581979L346.530695,20.933736L344.595559,21.121885L339.056061,18.430535L336.916867,17.391624L329.625871,16.818996L314.988409,17.694299L313.013103,18.954081L306.833777,22.880668L303.742603,23.060636L302.998416,23.199702L300.775742,23.608721L300.027725,23.739607L298.270446,24.058642L292.998606,25.015745L291.240526,25.318419L289.336708,25.866504L283.628281,27.502576L282.948219,27.690725L281.751551,27.903414L280.310381,28.165185L280.164127,28.189726L276.915720,28.590564L276.113118,28.516941L274.799794,28.377875L274.613817,28.361514L274.038342,28.304251L273.848536,28.279710L271.423872,28.345153L268.567081,29.040483L252.280695,32.942507L249.755157,33.539671L247.574806,32.500769L246.701819,34.913967L246.426981,35.674737L245.828843,37.327161L245.541892,38.120652L245.254943,38.914142L243.984573,42.456211L243.000365,45.188427L242.918586,45.409294L241.848786,48.354192L240.735491,48.378733L237.377258,48.427814L236.263162,48.435995L235.808277,48.460536L234.440593,48.542338L233.988737,48.558699L231.991504,48.599600L229.997299,48.632321L229.089757,48.656862L219.739823,48.828647L214.392015,48.934991L209.492233,49.016793L205.174964,49.229480L204.281939,49.270382L201.929098,56.199049L202.890095,62.309671L203.282550,64.861892L202.037843,65.704452L201.709163,65.925317L201.453524,66.097100L201.343163,66.154362L201.035684,66.317965L199.777533,66.956020L199.358892,67.160524L199.241673,67.217785L199.124453,67.275047L198.367871,67.651335L195.387148,69.107406L194.392297,69.590036L193.428262,70.211729L192.794795,69.810901L189.707540,67.831299L188.622295,67.798578L186.887719,67.741317L186.706370,67.749497L186.156263,67.790398L185.980971,67.782218L184.167768,67.029641L178.721317,64.771910L176.904295,64.011152L175.797998,66.980560L172.488293,75.864215L171.381260,78.817244L171.012402,79.757958L170.640517,80.706852L170.038468,82.277435L168.421535,86.441107L166.897089,90.392088L166.808464,90.612950L166.053423,92.559807L159.785438,108.731726L144.803615,114.482252L139.313515,116.584503L134.611688,116.649942L134.429095,116.772642L133.878285,117.148920L133.691860,117.263439L133.290154,117.533378L132.775061,117.868756L132.393384,117.917835L132.181203,117.786956L132.032356,117.688797L131.966433,117.533378L131.450429,117.500658L129.881840,117.402498L129.362005,117.361598L128.445973,117.353419L125.679527,117.304339L124.759664,117.287979L123.600808,117.083480L122.341298,116.854441L120.563977,119.562005L119.631633,120.968955L119.462428,121.574270L119.417810,121.713329L119.751918,123.071198L119.875048,123.553814L120.384642,124.993480L121.069838,126.866681L121.931626,129.263394L122.257797,130.179542L122.440439,130.686696L122.363187,131.488325L119.660027,133.287901L119.575064,133.443318L117.005415,138.032227L115.170919,141.598643L112.080544,143.962617L111.907037,144.060775L110.140701,145.034175L109.809629,145.205952L108.316596,146.367487L107.399327,147.381785L104.646724,150.408316L103.725629,151.414432L106.001446,161.369224L109.177833,175.266579L112.245516,184.435994L114.493151,190.039048L117.264036,196.934463L117.912400,199.167492L118.489989,201.146951L119.995116,206.291899L120.172583,207.109854L120.343801,207.870553L120.562818,208.835739L120.539393,209.195639L120.690074,209.400128L123.223259,220.720580L125.004166,227.419571L125.135069,228.474722L125.947165,235.067353L127.835251,243.794781L129.828988,251.254369L130.532372,254.804206L132.241749,260.251638L135.069891,274.320008L135.700710,278.548677L137.866269,286.973269L137.908654,287.136853L139.454198,292.175231L141.827729,297.033653L144.541729,303.642396L145.118205,304.272189L145.163409,304.353980L145.493550,304.926518L146.632498,306.873147L152.106496,303.830516L147.078059,307.560192L147.141625,307.666520L147.713772,308.901565L148.469461,312.181381L150.917559,319.509826L151.277648,321.448261L153.212160,328.236854L154.454331,333.855828L155.013735,339.744691L155.497743,342.312883L155.456259,344.243115L156.158085,348.782422L156.552688,353.280824L156.798499,357.959150L156.493703,360.249236L156.543502,360.838115L156.384719,361.508782L156.222912,362.187628L157.071439,367.536596L157.108308,373.875186L156.450074,392.040237L155.706904,398.894001L155.446137,401.306716L155.254067,415.652083L157.702679,428.328911L158.292998,430.128196L158.966126,432.557228L161.143709,437.096319L162.167835,438.445776L164.533097,439.934267L165.969525,441.504542L167.818732,448.881546L170.414391,456.299413L170.889999,458.409451L172.024295,460.797554L176.202114,466.236201L177.789931,468.845110L178.442360,470.235436L178.580431,470.734317L178.599288,470.906063L179.871257,473.645820L180.010060,474.365516L181.207986,477.064376L181.507417,478.184810L182.058318,482.282160L182.764681,484.752015L182.991692,486.551245L184.097180,491.450049L184.819381,495.678222L184.810118,498.377050L185.465214,500.985914L185.687683,504.134538L186.195093,507.013276L186.299566,514.250990L187.051745,522.298315L186.908893,533.363329L187.775254,540.600942L187.352434,544.420100L187.430921,546.399190L187.514609,550.537280L187.158324,557.464062L187.316371,563.221367L186.080410,572.029029L186.420340,590.780951L186.484368,591.852250L186.652113,594.649074L186.468701,598.787057L186.676769,601.976405L186.400929,606.253395L186.609742,608.363263L186.168686,613.310814L186.417897,615.199876L186.164481,616.369294L186.248726,618.798083L186.046585,625.904522L185.039777,628.873026L185.228437,630.443143L185.655031,631.833348L186.117137,635.431524L185.997481,644.377866L185.705336,647.845175L185.474246,656.480711L185.454397,660.790286L185.609680,663.398923L185.294638,664.977188L185.344577,665.696811L185.631339,666.146575L185.132996,668.853336L185.045458,669.294922L185.199408,670.104495L184.846000,674.463104L185.011302,679.721225L185.488295,681.700172L185.530232,687.776016L185.849452,689.346083L185.886928,692.404439L186.357714,695.143871L186.197619,697.752461L186.331404,703.468450L186.696266,705.398307L186.334785,713.534762L186.032508,717.402632L185.466496,720.869807L185.451471,723.699148L185.750533,727.517934L185.454843,736.202167L185.664280,738.311890L185.616983,742.809354L185.301916,747.437642L185.620037,750.814813L185.197174,756.702360L185.356618,758.092473L184.449061,764.568749L184.452501,765.247449L184.462746,769.385057L184.442746,769.532244L184.114087,772.394220L184.253534,776.033013L183.766134,777.112383L183.228614,777.472173L182.531058,777.652068L181.274380,778.510658L181.408971,779.001281L182.527272,779.001281L183.538474,778.715084L184.490947,778.420711L184.354430,780.129712L184.217919,781.838711L184.012390,781.912305L183.394147,782.100376L183.187790,782.157616L181.634640,782.648237L181.260661,782.918079L181.127687,783.408700L181.399740,783.768489L183.957816,783.138858L184.091774,783.277868L184.056214,783.727604L183.570699,785.657380L183.502306,786.475081L182.026459,803.196988L181.153363,809.934772L180.910496,813.401777L180.798965,813.908744L178.884784,822.167385L178.705163,823.361205L180.264929,823.001424L184.922814,821.905726L185.136031,821.848488L186.016921,822.510813L186.734209,823.058662L188.028642,823.622864L189.464524,823.729163L190.461839,823.778224L192.095643,823.254906L192.536326,823.083192L194.890079,822.077439L197.698114,819.747035L198.459389,818.929348L200.211827,817.024137L200.055546,816.648000L199.938543,816.369986L199.537322,815.560475L199.357444,815.192515L199.164606,814.636487L199.008029,814.186758L198.567835,813.352716L198.393760,813.099232L198.268010,812.919340L198.101326,812.608618L199.943908,811.872698L205.466979,809.640403L207.305715,808.896304L208.719975,808.372982L212.968787,806.786660L214.379201,806.255160L218.038442,806.099798L220.433930,805.985322L222.542557,805.625537L224.777031,804.905967L226.405500,804.006505L227.668986,803.147927L229.340612,801.610662L231.270402,799.819911L232.835278,798.274467L235.223200,795.911325L235.564520,795.674192L237.091678,794.603009L238.750082,793.752604L243.642600,789.974837L244.316368,789.189845L244.672179,788.764642L245.715125,787.276427L246.802435,786.393311L247.830483,785.559256L249.296142,784.357234L251.005003,783.351461L252.087170,782.705476L269.554884,765.631772L269.398900,766.277763L270.458426,779.213884L271.761791,781.446214L265.822507,791.242270L270.705880,799.337471L270.560692,800.940153L270.453842,801.471654L270.050988,802.322056L268.817865,804.456236L270.334107,804.456236L272.321911,805.502883L272.434700,805.494706L274.204722,805.290283L275.604258,805.085860L277.025736,804.840552L277.964239,804.677013L279.918973,804.529829L284.326636,804.521652L292.300508,803.605835L297.398204,798.397121L299.600401,797.244170L305.065297,794.406762L317.407619,787.971473L323.670994,785.591964L327.995658,784.488067L335.550640,782.550113L335.830572,782.590998L336.659663,782.705476L336.935750,782.738184L340.288734,781.887774L340.965694,781.707879L344.751866,781.282673L349.790439,781.405329L352.887123,781.454391L353.948881,781.421683L354.716456,781.405329L356.034250,781.348090L360.168795,781.299028L361.982219,781.274496L367.903413,781.552515L379.937905,782.108553L385.983372,781.454391L386.910631,781.339913L392.342631,780.358669L399.811916,778.355294L404.312966,777.145092L410.309124,775.992127L415.487477,775.624160L420.720470,776.131137L421.155483,776.253793L424.877075,777.194154L427.214990,778.109983L429.357639,779.369247L435.392829,784.398120L447.678414,794.635717L452.558486,796.974330L457.575067,798.217228L461.552402,798.855031L462.725600,798.855031L465.760260,798.830500L474.682364,798.282644L475.234157,798.070043L476.913658,797.366824L477.467636,797.129692L467.437754,825.372709L466.636115,827.621339L466.089913,829.158582L465.088222,829.158582L464.621681,829.158582L442.563893,829.158582L433.302678,849.960309L429.126432,860.115786L414.222582,891.276900L408.538874,903.811520L402.793512,916.476882L396.463066,931.586900L395.726007,933.344821L394.765256,937.441182L395.270015,937.114127L397.191467,935.977613L399.139347,934.955567L400.660120,934.236046L402.618851,933.426585L403.906809,932.985061L404.607022,932.723417L406.110691,932.273716L408.102850,931.783133L410.074242,931.423372L412.018004,931.194433L413.927277,931.096316L429.769362,930.818319L430.639901,930.801967L432.261653,930.851025L433.850260,930.990023L435.416431,931.227139L437.829689,931.660487L437.856860,929.706330L437.878888,927.449645L441.181307,927.425115L442.964386,927.408763L443.119181,927.416939L443.581060,927.392410L443.738033,927.376057L444.053649,927.376057L445.002674,927.351528L445.314441,927.343351L449.293941,927.343351L451.401166,927.359704L463.527424,927.408763L469.679422,927.359704L471.496807,927.343351L475.828588,927.188000L476.639553,927.147118L479.063918,926.991766L479.871035,926.942708L479.156573,929.142159L478.520967,931.071787L476.879867,935.748675L476.589281,936.574487L476.072398,937.939940L477.210652,938.463226L478.017567,938.880220L479.002192,939.485270L480.183085,940.507314L481.083859,941.284067L482.444999,942.207993L483.893513,942.894806L485.814290,943.491678L488.728126,943.851437L494.877640,944.088550L500.308065,944.284782L500.630544,944.284782L503.699879,944.129432L512.907045,943.647028L515.972530,943.483502L517.461597,943.352680L521.935658,942.960216L523.420876,942.821219L528.197824,942.649515L542.553602,942.085348L547.332724,941.889116L550.620272,941.774647L560.498815,941.406712L563.782514,941.284067L564.190340,941.275890L565.409134,941.226832L565.816125,941.202303L565.777294,941.382183L565.652268,941.889116L565.615614,942.044466L565.412103,942.559576L564.792202,944.055845L564.587857,944.554601L564.200075,945.960929L563.016171,950.179907L562.624556,951.578055L561.593826,955.102036L559.552687,962.076393L558.861396,964.455682L558.510818,965.649413L557.476336,969.165192L564.540338,969.304188L585.732352,969.721175L592.789497,969.860171L593.364410,971.372771L595.098221,975.886036L595.669308,977.390456L596.937202,980.709985L598.663422,985.206876L599.184314,986.400594L599.826201,987.545255L600.570672,988.616330L601.420737,989.605642L601.662748,989.842750L604.042697,992.099362L604.623126,992.647163L606.357556,994.290563L606.931127,994.838362L607.458003,995.345281L609.027088,996.841509L609.556140,997.323900L609.903099,997.667296L610.425291,998.149686L610.942300,998.664780L611.278549,999.000000L615.336971,998.730189L627.497669,997.904403L631.548388,997.618239L641.210418,997.372956L658.693439,996.906918L660.606487,992.066658L663.438413,983.334535L665.715703,976.294846L669.303543,976.482899L674.869661,976.981646L677.433824,977.210579L680.389086,977.439513L684.452725,977.807441L683.961043,980.930742L683.798997,981.985468L683.377746,984.675426L683.122396,986.318833L682.264409,991.796846L683.201411,991.805022L683.205605,991.886783L683.615612,991.854079L684.831070,991.739613L685.240238,991.690556L688.910208,991.338982L699.903378,990.292438L703.569494,989.932688L724.149262,989.311301L726.025929,989.245892L730.372928,972.934428L733.157547,964.014165L743.008093,932.429067L747.209648,918.937991L754.754193,894.735580L755.721442,891.644845L757.982059,884.392226L758.420938,882.977676L758.602719,882.372608L759.552473,879.273676L760.348886,877.000578L761.676588,876.935165L771.480398,876.452744L774.747776,876.281035L775.378157,876.264682L777.266794,876.166562L777.899352,876.125679L779.955667,876.019383L786.114735,875.708671L788.167200,875.594199L791.525441,875.455196L801.606187,875.021835L802.492603,874.980952L804.960578,874.874656L806.673838,874.768359L811.812782,874.433118L813.483028,874.424941L817.926440,872.495255L831.077366,834.162792L835.555253,819.722504L840.455763,805.960791L836.367012,806.909314L845.243463,782.362041L848.054280,774.569320L850.842134,766.727503L857.799640,747.650248L858.899398,744.518387L866.207928,723.690971L868.643459,716.732093L840.395886,716.813866L839.327826,716.789334L840.110314,715.039389L841.082085,712.422646L843.055837,707.851514L843.867376,705.929836L844.306581,704.850424L855.108654,674.945576L860.670036,659.048466L862.416614,653.978372L850.804880,654.305475L849.072747,655.188654L848.587515,653.937484L847.124982,650.183970L846.638939,648.916442L846.244619,647.902419L845.060847,644.843990L844.662694,643.821787L844.241481,642.750518L843.716197,641.384853L843.262099,639.324087L843.011383,638.571744L842.998929,638.121973L842.369785,632.463030L842.274523,629.764395L842.660741,627.769038L843.334767,625.495637L843.547473,624.342580L844.142042,622.600726L846.078438,617.816755L846.212836,617.489645L844.805335,617.195246L845.089430,616.164850L845.302771,615.363431L846.084714,613.188148L846.129969,613.065482L846.509289,612.018728L846.773137,611.266373L847.585806,608.952064L847.848832,608.183352L848.044944,607.651796L848.616544,606.065305L848.808815,605.525571L848.857089,605.394726L848.998895,605.010370L849.046344,604.863170L848.685771,604.854992L847.597191,604.830459L847.232775,604.814103L846.204572,604.830459L845.153311,604.797747L845.200408,604.168057L846.623418,600.218176L845.381726,600.218176L846.164562,598.059231L846.345599,597.568561L846.884044,596.072018L847.064257,595.564992L850.638942,595.507747L852.721130,595.442325L852.960322,594.812631L852.518254,594.820809L851.187383,594.820809L850.741473,594.820809L850.329863,594.820809L849.088174,594.820809L848.669704,594.820809L847.304532,594.820809L846.899782,594.820809L843.920822,594.788097L842.692853,594.788097L843.012921,593.585955L844.629500,587.624296L844.335708,586.152278L843.903520,586.152278L840.965190,586.176812L841.745618,583.968783L844.571991,583.968783L844.981948,583.936072L845.309843,583.772514L845.723337,583.469932L846.101140,583.003792L846.284667,582.562186L846.334575,582.259604L846.313429,582.112402L846.217907,581.850709L846.088910,581.605372L846.120409,581.073809L846.764915,577.802646L846.937442,577.074811L846.853450,576.837652L846.963694,576.167062L846.762780,575.651853L846.603872,575.357448L846.427382,574.850416L845.962487,574.269783L845.727856,574.106225L845.154588,573.689150L843.747192,570.810516L843.967224,570.344373L844.824683,569.731027L846.254811,568.978655L847.894848,568.103614L847.490054,567.490267L847.249903,566.876920L847.179622,566.435310L847.132955,566.189971L847.169372,565.143191L847.335588,564.153657L836.460472,564.251792L837.220424,562.043738L843.871090,542.702707L844.658614,542.539145L845.573702,540.821750L844.715924,540.543695L847.881590,531.204307L848.128001,530.443742L846.530454,530.460098L847.457113,527.949413L847.749354,527.213381L852.070801,516.230112L852.307085,515.404115L852.410270,515.068810L853.562345,511.036958L859.480090,495.023960L877.217292,447.016852L883.158113,430.946052L883.871947,428.901411L886.013497,422.767475L886.726544,420.706468L890.534495,409.150063L893.493335,400.153520L896.274371,391.713088L881.833189,391.606764L872.157173,391.524977L870.298495,391.598585L864.725481,391.811232L862.865984,391.868484L858.709869,392.089309L850.486874,392.326493L829.402706,392.915361L813.449771,393.373370L807.650951,393.528765L801.099217,393.716876L798.079389,393.684161L789.006188,393.586017L785.979501,393.553302L786.987367,390.936108L790.013247,383.059968L790.267838,382.389309L791.017326,380.434581L793.564199,373.539855L797.591644,362.637465L801.298280,353.068173L801.393581,352.847342L803.115149,348.651559L803.785956,346.835838L804.354823,346.001586L807.575947,336.800262L812.240972,324.155522L813.458516,320.990234L816.825546,312.230455L819.993740,304.640249L820.906507,302.652722L826.838304,291.463642L818.075954,291.193729L810.153927,291.545434L792.673762,291.349134L788.884458,291.357313L783.626471,291.349134L778.527872,291.373671L781.570483,278.834950L784.900454,271.105558L793.933702,250.117438L792.004543,250.289205L787.295114,250.689993L785.301200,250.869939L780.793705,251.262548L774.929149,251.745130L775.354497,249.536704L775.154009,247.778140L775.548642,245.986856L775.446993,244.146495L775.407064,243.549400L775.369348,242.927766L775.095370,241.553627L774.781586,240.621176L774.393336,240.261282L774.686987,239.337009L778.486301,226.814291L779.867959,222.241965L779.230130,202.594736L778.890181,201.547750L777.151706,199.960911L777.110928,199.830038L772.941585,197.286185L772.467452,196.991720L771.229871,196.239197L769.921271,195.437595L762.980214,200.149042L762.194144,200.549841L759.860941,201.703162L759.074062,202.087602L758.430468,202.733789L756.507954,204.631448L755.863552,205.261275L752.901039,207.764219L744.016566,215.264850L741.050247,217.759601L740.902048,218.921091L740.442939,222.389195L740.290916,223.542502L738.631814,226.601625L733.631004,235.787142L731.961273,238.838065L731.478940,239.623288L730.021253,241.970777L729.528230,242.747819L723.517122,242.903228L705.470888,243.385812L699.458965,243.524862L680.839362,243.925652L668.868760,244.171033L682.214291,209.318332L683.323673,206.373695L688.659906,192.239367L693.829335,178.538454L693.998730,178.080391L695.363191,174.464968L697.028383,170.203340L703.712284,153.132189L706.087182,146.711040L712.852288,128.420864L720.581918,106.449506L729.565390,81.091318L731.245701,76.215961L735.513069,63.773926L738.278805,55.446468L739.523759,52.730629L740.648070,48.746845L741.625086,45.253869L738.301202,45.024821L734.664859,44.787593L731.388986,44.558545L726.454369,44.419480L722.415984,44.304956L714.091508,44.059548L713.159506,47.004448L711.280420,52.935135L708.016641,52.673367L704.697150,52.673367L700.136279,52.673367L684.518735,52.935135L684.443292,52.935135L681.092536,59.692004L681.189434,60.616368L680.348982,61.238064L679.901036,62.170607L678.931505,64.142035L675.890781,64.092954L674.318578,64.060233L671.947954,64.109314L669.436330,64.150215L667.739750,69.606397L666.869183,72.404012L664.070390,73.369271L655.659486,76.248682L652.859886,77.197578L652.244454,77.025795L650.398158,76.510446L649.785753,76.330483L649.002757,75.610631L646.659833,73.434712L645.879870,72.706678L647.266189,68.960163L651.440439,57.679670L652.006509,56.149968L652.600535,53.933124L649.882127,54.162171L641.706325,54.849311L638.977225,55.070177L630.083697,54.620264L603.415246,53.237804L594.530816,52.763350L593.969227,52.779710L592.269134,52.796071L591.706741,52.796071L585.820339,52.967856L568.160322,53.466851L562.270085,53.630455L559.323546,53.753159L550.477871,54.137630L547.530527,54.243973L549.672086,48.272389L553.048052,38.873240L556.094141,30.365700L558.232140,24.385857L559.934884,19.878466L565.050827,6.298961L566.755950,1.766984L566.872453,1.415223L567.215105,0.359941L567.327779,0.000000Z "/></g><g fill="#000" font-family="Arial" font-size="12px" id="mylayer-label" stroke="none"><text text-anchor="middle" y="468.494314399"><tspan dy="0" x="500.818165119"><![CDATA[Y]]></tspan></text></g></svg>