<?xml version="1.0" encoding="utf-8"?><!DOCTYPE svg  PUBLIC '-//W3C//DTD SVG 1.1//EN'  'http://www.w3.org/Graphics/SVG/1.1/DTD/svg11.dtd'><svg enable_background="new 0 0 1000 1001" height="1001px" pretty_print="False" style="stroke-linejoin: round; stroke:#000; fill: none;" version="1.1" viewBox="0 0 1000 1001" width="1000px" xmlns="http://www.w3.org/2000/svg" xmlns:xlink="http://www.w3.org/1999/xlink"><defs><style type="text/css"><![CDATA[path { fill-rule: evenodd; }]]></style></defs><metadata><views><view h="1001" padding="0" w="1000"><proj flip="auto" id="robinson" lon0="-120.07648938"/><bbox h="0.56" w="0.62" x="-1645.88" y="-659.29"/></view></views></metadata><g class="" id="mylayer"><path d="M1000.000000,299.027390L998.010284,247.753323L995.279192,207.584011L993.392060,178.165072L985.587821,129.479072L979.890998,112.715440L977.460424,108.116348L969.821881,93.747650L931.523378,57.526964L928.330792,54.615183L918.756974,45.825440L915.555296,42.886462L912.907909,44.764142L912.667068,45.036269L911.268797,46.478547L908.140968,50.750958L907.446947,51.322427L904.869574,52.683070L904.287376,52.927985L902.122451,53.472243L899.224164,54.206990L897.789038,55.077803L896.785256,56.111892L895.248379,58.724332L893.838817,60.792516L892.177886,62.969554L891.152275,64.466268L890.447271,66.126262L889.788727,67.133144L889.148144,67.731831L887.354336,69.908875L886.902552,70.344285L885.667399,72.140348L884.577828,73.446577L883.655226,75.052151L882.635213,77.093137L878.622185,82.290855L877.375113,83.787583L875.775392,85.883003L873.922906,87.951212L873.132563,88.631544L871.404581,89.883356L869.382331,91.380089L868.280841,92.386982L864.326241,97.230962L862.432598,100.033944L860.869127,101.775604L860.293602,102.238233L858.529729,104.306457L857.136780,105.830413L855.371842,108.225202L855.248422,108.715046L854.832136,109.585879L853.258468,111.626897L852.907228,112.361663L852.673733,113.776770L852.159718,114.620392L851.288864,115.654509L849.988388,117.124045L844.751005,122.566780L842.226717,125.206511L840.352862,126.485557L838.781008,127.410825L837.571265,128.227238L833.659042,130.295486L830.249558,132.146025L829.485248,132.771943L827.108659,134.268705L825.138478,135.656611L821.481837,138.024219L818.338478,140.337401L815.339958,142.949939L813.363449,144.582777L812.187807,145.698550L810.216572,147.413032L806.858416,149.943936L804.861168,151.712849L803.644042,153.100767L803.283682,153.808333L803.238672,154.597542L803.469988,155.550035L803.815568,155.985461L805.815947,156.665814L812.360266,156.829099L815.838621,156.502529L817.952915,156.203174L820.464128,155.305108L825.085056,154.951325L829.152623,155.060181L831.309448,155.876605L832.123665,155.794962L832.879172,155.604463L833.508467,155.631678L833.808348,155.931033L833.967603,156.339245L835.416031,157.618308L835.581966,158.244233L836.443992,159.360013L838.537895,163.088356L838.783291,165.401564L839.983206,170.490630L840.474018,173.402560L840.620653,176.015137L840.296544,178.083429L840.840815,181.022584L840.667166,182.220019L840.877812,185.023107L840.827596,187.445195L840.361887,191.663446L840.556365,193.758967L840.360947,195.419056L840.137374,196.072206L839.644579,198.956956L839.078290,201.161342L838.866011,202.903081L838.636123,203.801166L838.597843,204.808109L837.480749,208.999178L836.076112,213.652906L835.634262,215.040861L835.135486,216.918685L833.855666,221.218636L832.734665,223.749623L831.868896,226.117324L831.658725,227.205923L830.886456,229.192617L829.796381,231.288173L826.915976,236.295743L826.083202,237.574852L824.992372,238.745102L824.478441,239.588771L823.737097,241.140033L823.279055,241.820412L821.540376,244.160916L817.549493,250.148264L816.802881,251.617888L815.653872,254.856508L814.963542,256.625504L813.902991,258.149563L813.622147,258.829947L813.307960,260.136284L813.200052,260.408438L812.219745,262.830608L810.169525,268.001541L809.279874,269.770547L809.000852,271.049676L808.488360,272.029434L807.394093,273.716797L807.174422,274.315539L807.104288,276.084550L806.397080,280.901711L806.010787,281.663748L805.225785,285.392293L805.106087,287.079666L803.862473,295.244391L803.991913,295.761491L803.755187,297.693814L803.335990,299.544492L803.294557,302.783180L803.486205,305.858578L803.854416,306.756704L804.408366,308.471309L804.741013,308.933980L806.047254,312.689786L806.702043,316.418383L807.064387,318.024131L807.134520,319.221638L806.116746,321.861600L805.498836,322.923029L803.782032,324.800943L800.618664,327.713074L799.068485,329.427695L797.686357,331.115101L796.719354,332.258183L792.466676,336.476705L790.303896,339.334418L789.754876,340.205341L788.188275,342.464299L787.679271,342.926977L786.689126,344.396662L785.456344,345.539750L784.499926,346.846138L783.301297,348.288609L782.462915,349.023453L781.570089,350.057679L778.725428,353.786337L777.573963,355.500978L776.195720,357.133970L775.364060,358.086549L773.891936,359.637894L773.237470,360.590474L772.589291,361.298106L768.755095,365.707199L765.392834,364.863483L764.833816,364.781833L759.711193,363.774817L758.443400,363.693168L751.742765,363.856467L747.339361,364.264717L741.476380,361.515838L739.192723,360.454391L735.296175,376.212851L730.748580,383.969646L725.325528,393.141751L721.798938,393.522789L719.762633,393.658873L718.919525,393.522789L718.047546,393.168968L717.528523,392.679062L715.837569,391.535949L715.112481,390.828308L714.946857,390.665007L712.476937,388.324350L711.996926,387.752795L710.773980,386.881853L709.521609,386.582467L704.627607,386.255865L702.924974,386.528034L701.353805,386.664118L699.128297,386.500817L697.324064,386.800203L695.804352,387.616710L693.319654,388.923122L688.551476,392.134723L685.983912,393.985477L683.929641,395.781800L683.346485,396.353357L682.872643,396.788829L681.947110,397.659774L680.555449,398.857324L678.392860,400.463131L675.566233,402.531629L668.502049,408.138358L667.299158,409.172611L667.429287,407.648449L666.881916,400.680868L665.607288,396.162838L661.657276,388.297133L660.521630,386.038129L658.484587,383.996863L654.958260,381.873948L649.742732,372.021471L646.953077,370.442901L643.527813,369.082066L640.735042,365.516682L636.300813,362.141820L631.395430,360.726557L626.581501,359.583461L621.773700,359.447378L616.975463,359.801193L613.442751,359.175212L612.136956,358.848613L609.147405,358.059333L605.371055,357.433352L594.499906,359.093562L588.580194,359.801193L586.301678,360.073359L580.750782,360.889857L579.748783,360.808207L576.325811,360.508824L572.919288,359.665110L567.356113,355.500978L562.665734,352.616028L560.686517,351.010255L560.132377,350.547575L555.716742,345.975213L558.997740,355.147163L564.940529,361.298106L581.436131,366.686999L581.557448,366.850299L584.535520,370.769502L549.728765,436.389952L530.397735,506.067843L463.527230,528.604746L464.215795,531.707671L463.808917,536.362065L461.437943,541.696939L459.642404,546.569105L456.843879,551.686252L454.724786,556.122937L452.251309,560.559630L450.028703,564.424732L445.653743,569.596357L442.395453,574.795214L437.507884,584.240287L429.631630,595.073590L424.189937,604.056016L416.712534,614.889414L412.579615,621.966536L408.091291,628.118207L403.040604,634.705412L395.806740,641.782596L392.315959,645.103437L389.967850,648.397062L388.615988,651.227950L387.264132,654.058841L386.796968,658.005764L387.233741,658.250745L387.723038,658.849589L388.624040,659.421213L392.178847,660.836664L379.147040,688.220362L378.106672,689.935257L375.707771,694.263330L374.987217,696.468201L373.862276,699.380811L373.289836,700.115770L372.246186,702.347867L370.559258,704.906615L370.104346,705.859341L369.068029,708.771964L367.448116,711.793473L365.692567,715.794938L365.627220,716.720448L366.988310,718.462585L364.201412,722.954039L357.061468,736.237905L355.885538,738.932797L355.257289,739.831096L352.959130,746.500290L352.845098,747.017494L352.543804,747.834131L351.744232,749.276858L350.630709,750.774029L349.592226,751.835660L347.569390,752.407307L344.657584,752.706741L339.995867,753.006176L336.322684,752.951733L334.038554,751.890102L332.494895,750.066275L331.458111,747.180821L330.392967,744.540361L329.497913,742.471550L327.553746,741.301039L326.541031,741.056048L325.235607,741.192154L324.097327,741.627693L321.759066,742.117674L320.043399,742.417107L315.384276,743.778167L312.536547,744.268149L310.136583,744.377034L307.534326,744.213707L305.877773,743.832610L303.692537,743.723725L301.353155,743.288186L299.492495,743.288186L297.471119,743.995937L296.108955,744.622025L294.677963,745.438662L293.420334,746.309741L292.336628,747.698025L291.016606,749.766841L289.228702,752.815627L288.725670,753.822816L287.989604,754.993333L286.931900,756.327179L285.021504,758.287118L280.283383,762.179779L277.605063,764.820260L276.072143,766.453548L275.144981,767.977951L273.894948,770.781767L273.502352,772.578389L273.371727,774.429456L273.558900,776.171637L273.886665,777.804934L274.539013,779.547118L274.836376,780.826535L275.520035,782.595944L275.471246,784.229245L274.983858,786.270873L274.134377,788.421390L273.039767,790.435800L271.917117,791.905776L270.958102,792.940204L270.354975,794.110742L269.238488,797.377361L267.261803,810.797775L266.949288,815.071635L267.021344,816.405516L267.443390,817.331067L268.971800,823.456046L269.021734,828.873264L268.468279,832.167156L267.915405,833.882160L265.804022,838.537176L263.178144,842.321086L260.831643,844.498878L257.531766,847.003342L253.425897,849.943368L250.269846,851.821721L247.549746,854.271747L245.236046,856.612887L240.808958,863.010198L230.786356,879.969967L222.142790,894.180336L220.486018,896.630408L217.515024,900.441638L216.441492,901.530561L215.559030,902.265585L213.732353,903.354510L212.935525,903.817303L211.093748,904.334543L210.145697,904.742890L209.047286,904.770113L205.434885,905.423468L204.308137,905.695700L202.593082,906.457948L200.821594,906.920742L198.737015,907.111304L195.534845,907.601321L194.733560,907.655768L192.695391,908.445240L191.847452,908.690249L190.669593,908.744695L187.144931,909.724730L185.360449,910.214748L184.504839,910.568649L179.891165,910.813658L179.202121,911.004221L178.413829,911.031444L174.234646,911.712025L172.352399,912.174820L169.474204,912.310936L164.891216,912.120373L161.352560,911.412569L160.760659,911.167560L159.718058,911.031444L156.559194,909.806400L155.111929,909.125820L153.734088,908.717472L149.773326,907.084081L147.424663,906.621287L146.424882,906.349056L144.838524,905.913485L144.019792,905.586807L137.034075,904.443435L135.237716,903.844526L132.785360,902.810048L131.870350,902.592263L131.107433,902.102247L125.932369,897.583215L125.097682,897.011531L122.995049,896.358178L120.405698,896.167617L118.598446,896.194840L113.534687,897.011531L112.207089,897.147646L109.657941,897.800999L105.881312,898.427130L98.422851,899.434384L95.859225,899.978845L94.624069,900.060514L90.977645,899.624945L87.384946,898.427130L85.396302,897.256538L82.512718,895.269257L79.329324,892.193056L74.085816,887.075140L66.923739,881.521669L61.947313,877.329352L59.251606,873.463716L57.279823,870.169764L55.047855,868.209729L53.201325,867.066375L50.600179,865.786909L46.376682,864.425776L45.670206,864.235217L40.990694,862.901308L39.853601,862.220742L38.182517,861.730734L36.894796,861.458508L33.911177,861.676289L32.331351,862.247964L31.786727,862.275187L31.084681,862.492968L30.313817,862.901308L28.926560,863.255202L28.068568,863.799655L27.172477,864.099104L26.349631,864.616335L24.344206,865.569128L18.133294,868.046392L14.644327,869.461973L13.588452,870.142541L12.662530,870.550882L10.454791,871.231451L5.197564,872.592588L2.121792,874.117063L0.000000,875.777653L0.783863,877.383798L1.310769,877.764917L2.494243,879.044390L7.530291,883.018927L8.297025,883.454493L10.685237,884.298403L13.987853,884.897307L23.525019,885.196759L24.330143,885.087867L26.692936,884.407295L30.637343,884.543409L32.821762,884.978975L33.894180,885.006198L38.815042,886.530682L41.649848,888.109612L44.795101,890.940799L47.148458,891.022468L48.043667,891.049691L50.701274,892.628624L52.368875,894.425343L55.031204,895.623156L59.699612,898.372684L61.931310,899.080484L64.187249,900.387191L65.971819,901.938908L66.978131,903.218394L68.749976,904.007865L69.835130,904.797336L70.524003,907.437982L70.851565,907.819107L70.962674,909.071373L72.217724,911.222007L73.289021,912.365382L74.378890,912.773731L78.877107,912.909847L80.162757,912.583168L82.269493,912.392605L84.660974,912.719284L86.105266,913.127633L88.040220,915.060484L89.675587,915.114930L91.550167,914.761028L92.119299,914.543242L95.720203,914.053223L99.864000,914.189339L102.250779,914.897144L106.146825,915.877182L106.669052,916.639434L107.246844,918.027822L107.451654,920.151240L107.890356,921.784640L109.521025,922.220214L111.063710,923.118584L112.675822,924.289189L114.321354,926.085933L114.955834,926.984305L116.279599,926.902635L117.784172,927.555997L119.568806,929.107732L122.995390,931.721183L125.101032,932.646781L130.470945,937.547012L132.633263,937.982588L133.892063,938.037035L136.040529,938.826518L138.328946,939.044307L139.746414,939.833790L144.386725,939.997131L147.264075,940.187696L148.880910,940.977180L151.539723,941.439980L155.528483,941.576098L157.284410,942.120570L158.733416,942.147794L159.739805,943.427303L161.702766,943.862880L163.781589,945.169614L165.216531,946.340230L167.547765,946.421901L169.770369,947.102492L172.189791,945.931876L173.354881,945.115167L174.766837,943.781210L176.957076,942.719489L178.844864,941.548875L180.718803,940.732167L181.503265,940.759391L182.531392,940.786615L184.467097,940.351038L184.515015,941.086074L187.825801,942.828384L190.776206,944.026222L197.310051,944.352906L199.878775,944.679589L201.969963,945.496298L203.796399,945.196838L206.386850,944.271235L208.243743,944.325682L211.514927,945.686863L214.048720,945.251285L215.298792,946.530796L216.643649,947.565294L219.008328,948.273110L220.847756,947.946426L224.991585,948.082544L229.412960,950.097096L231.560605,951.213267L233.374486,952.193320L237.743705,955.106259L239.256629,956.113538L243.858547,951.158820L247.118627,948.273110L249.752293,945.632416L254.289919,941.276639L256.553837,938.853742L258.308274,936.430847L261.447399,931.802853L263.614638,928.236582L266.590427,923.254701L274.104618,911.548685L275.106582,909.588614L275.768378,908.526910L280.123648,901.258330L284.381816,894.425343L286.382583,891.022468L288.013594,887.837382L289.647829,884.135066L290.749095,877.465466L292.363817,872.783147L294.614139,867.883056L296.254976,865.188010L299.138291,861.050169L302.388081,855.170091L309.176362,845.914444L316.186490,835.869388L321.721751,827.893264L330.995233,815.752187L339.308338,806.551144L346.091573,801.297312L355.674408,795.607942L357.796187,793.947411L362.380864,791.443005L364.225900,790.408578L368.128911,788.775272L373.556493,787.196411L377.709063,786.107542L381.877883,784.474240L385.907010,782.623165L392.833203,779.111572L404.297463,771.244534L415.638837,765.119696L422.182275,761.853122L431.703075,758.613775L435.551740,757.279927L440.457431,756.191073L449.667797,753.741152L454.323363,751.645110L458.033487,751.019021L458.312292,750.991799L461.743610,750.392931L467.996652,749.358522L470.282916,748.977424L474.262688,748.296893L478.162436,747.180821L481.841251,746.527511L497.981582,742.553213L503.140076,741.491587L512.347732,740.021644L523.203372,739.368336L528.508018,739.531663L531.927485,739.885538L534.263042,740.375519L543.289849,742.253780L549.736867,743.179301L553.013967,744.295370L555.921296,745.629210L559.334836,747.480255L561.869142,749.549071L565.419133,752.135094L568.348630,753.468938L573.014458,754.367242L575.013342,754.448906L586.404439,755.782752L591.187231,756.436065L595.602914,756.327179L611.542908,758.804324L614.937001,759.675409L618.356493,760.029287L622.509615,759.403195L627.310717,758.069347L632.095570,755.238325L635.865330,752.352864L638.508949,750.202382L643.559619,747.371370L647.335882,745.493104L650.106208,743.587619L654.615523,740.266634L657.272149,738.088942L667.721135,732.209183L673.271547,728.888215L680.950209,724.913948L688.875790,720.422491L696.314064,715.931042L704.638368,711.439602L705.871436,710.759082L708.151789,709.833575L710.293030,709.153055L722.656427,704.552745L730.702196,701.340701L760.075283,692.058462L763.873717,690.180242L769.424161,686.859335L773.745380,684.164505L775.461346,683.075686L780.736267,679.264822L784.255996,675.372303L785.329935,673.494098L786.886208,670.744842L787.836405,668.893861L788.027507,668.539997L788.650197,666.307933L790.774259,661.163306L794.786779,655.310968L801.692700,645.811157L803.706851,642.381436L807.450355,637.046324L810.359496,632.391722L812.490653,628.717043L813.719883,624.797391L813.959871,622.810349L813.333074,620.551110L812.304651,618.019677L811.155960,616.250398L809.643544,613.201796L809.000679,609.445489L807.852005,607.676216L807.456983,606.369677L807.076422,605.172017L803.895931,597.360022L801.871352,595.291345L799.956849,591.507849L799.190995,589.493616L798.169030,587.969333L797.519896,583.205954L797.392964,580.456809L800.240455,568.371497L804.995880,556.558440L807.376545,550.924123L809.501618,546.242479L810.883275,542.050783L811.622685,539.111157L814.617223,531.217735L816.741860,526.073416L818.993171,521.174075L821.263809,517.254611L822.509881,515.294881L826.519714,509.960069L828.543887,507.020485L831.035563,502.638334L833.183046,500.460870L838.461759,496.133168L848.671140,489.736894L852.577120,487.123953L856.343951,484.755978L859.867137,482.388005L862.903525,480.482742L868.311840,477.924248L882.547667,470.657052L886.207145,469.023977L893.004147,466.247753L898.197735,465.159039L900.569660,464.505810L907.644970,461.239671L911.800888,459.633821L914.185813,458.953377L920.593789,459.171119L921.258277,459.171119L924.677504,459.524950L933.518085,459.797128L937.813191,460.450355L947.659655,460.749751L954.978637,459.987653L961.918179,458.953377L974.389301,456.122730L976.923012,455.687246L980.497261,454.789061L981.027380,453.400957L982.608596,449.209433L983.129571,447.794116L991.572740,400.163743L998.718279,359.937276L998.848197,354.194585L1000.000000,299.027390Z " data-aland="3364142" data-awater="6013" data-classfp="U1" data-funcstat="S" data-geoid="0611418" data-intptlat="+39.2351651" data-intptlon="-120.0782068" data-lsad="57" data-mtfcc="G4210" data-name="Carnelian Bay" data-namelsad="Carnelian Bay CDP" data-pcicbsa="N" data-pcinecta="N" data-placefp="11418" data-placens="02628716" data-statefp="06"/></g><g fill="#000" font-family="Arial" font-size="12px" id="mylayer-label" stroke="none"><text text-anchor="middle" y="501.330765937"><tspan dy="0" x="676.433285211"><![CDATA[Carnelian Bay]]></tspan></text></g></svg>