<?xml version="1.0" encoding="utf-8"?><!DOCTYPE svg  PUBLIC '-//W3C//DTD SVG 1.1//EN'  'http://www.w3.org/Graphics/SVG/1.1/DTD/svg11.dtd'><svg enable_background="new 0 0 1000 1001" height="1001px" pretty_print="False" style="stroke-linejoin: round; stroke:#000; fill: none;" version="1.1" viewBox="0 0 1000 1001" width="1000px" xmlns="http://www.w3.org/2000/svg" xmlns:xlink="http://www.w3.org/1999/xlink"><defs><style type="text/css"><![CDATA[path { fill-rule: evenodd; }]]></style></defs><metadata><views><view h="1001" padding="0" w="1000"><proj flip="auto" id="robinson" lon0="-121.54184325"/><bbox h="0.5" w="0.52" x="-1672.36" y="-645.43"/></view></views></metadata><g class="" id="mylayer"><path d="M1000.000000,623.574758L999.537801,621.253204L998.139870,614.255852L997.666327,611.901606L996.510912,606.212182L995.108709,595.846989L995.051793,594.996848L994.160114,581.296525L994.834395,559.748855L994.063418,540.065044L993.858359,534.669996L990.662614,523.716437L991.355214,523.422162L993.398938,522.441248L994.095315,522.081579L993.792391,520.904483L993.171487,519.269627L994.242459,517.929045L993.485335,516.588464L994.090773,515.280581L993.273059,513.613030L993.655236,512.730209L993.136566,511.389630L993.715418,509.166231L993.359565,508.446896L993.741746,507.564077L992.848361,506.060014L992.958046,505.307983L993.366723,504.425164L993.938166,503.705830L992.991753,501.744012L993.741099,501.155466L993.044539,499.684103L993.154227,498.932073L993.665127,498.343528L993.146515,497.460710L993.017715,496.250924L993.433868,494.321806L992.294349,491.346388L992.865798,490.627056L993.138255,490.038512L992.593073,488.240184L992.687591,487.063098L991.563304,484.970499L991.994688,483.924201L991.354858,481.700817L992.168480,480.229461L991.358335,477.973382L991.256083,477.221356L990.294575,475.292247L990.498842,473.820893L991.009716,472.774597L990.744741,472.316843L990.888497,471.434031L990.244961,469.962679L990.430350,469.047171L989.979800,466.987279L990.414994,466.104468L990.592711,463.717611L989.706910,461.625025L990.441101,460.611429L989.631022,458.813114L990.304666,457.930305L989.759559,456.589744L990.168236,455.249183L989.623132,453.908623L990.361037,451.685256L989.793211,450.050427L989.827239,449.461889L990.398707,448.742565L989.656796,447.369311L989.777869,446.649987L990.337982,445.897967L989.743695,444.720892L989.614968,443.968873L990.186438,443.249550L989.811692,442.399441L989.402878,441.451242L990.050038,440.568437L989.334547,437.593059L988.993873,436.841040L990.030778,434.029147L989.387285,432.557808L990.041949,430.170970L989.973760,428.830418L988.936618,426.607065L988.399052,423.762482L989.216388,419.021515L988.357171,417.386700L989.004344,416.503900L988.247332,415.163353L988.777122,412.645740L988.281276,411.599460L988.110907,409.964648L987.115444,408.166356L987.872374,406.989292L987.380322,406.106495L987.471121,404.765951L986.903355,403.131141L986.907120,402.379129L987.558068,400.744321L987.202278,400.025006L986.895667,398.226718L986.009975,396.134166L986.146165,392.864555L985.941766,391.818280L984.639747,389.137202L985.048494,388.254408L985.218791,386.913870L984.673761,385.573332L984.571561,384.821324L982.853219,381.093978L983.458777,379.786138L982.887258,377.987859L983.292227,377.399332L981.884266,374.718263L982.463333,372.494939L981.040243,370.075441L981.611747,369.356131L980.828294,368.015599L980.832080,367.263594L981.433864,366.250021L979.908599,363.536264L980.514172,362.228430L979.075968,359.383893L979.757242,357.912581L978.470437,355.198829L978.966256,354.185260L978.182820,352.844733L978.080640,352.092730L978.890594,351.373424L977.350230,348.234632L977.671949,347.482630L976.812838,345.390104L977.732559,344.376537L976.192213,341.237751L976.790244,339.602967L976.404237,337.804706L975.026650,334.829403L975.783636,333.652361L975.291639,332.769579L975.223550,331.429060L974.440153,329.630802L975.060883,328.748021L974.303983,326.949765L975.121551,325.184205L974.474425,323.091691L974.868087,321.783870L974.474531,320.116398L974.554088,318.056582L973.880462,316.421808L974.410450,313.446521L974.009339,311.680967L974.418131,310.798190L973.914798,309.882718L974.111645,308.999941L974.104142,307.528648L973.422954,306.024660L973.862064,304.389890L973.233867,302.885903L973.355015,302.166605L973.941691,301.414612L973.525397,300.826095L973.381636,299.649063L973.975937,297.850820L973.680796,296.543007L972.795277,294.450507L973.593903,293.698515L972.708389,291.606017L973.382126,290.723245L972.496590,289.088482L972.931889,288.205710L973.382457,285.230443L971.978532,281.797446L972.584208,280.031906L971.903023,278.985660L971.316538,276.762389L971.343386,271.727338L972.081574,269.504071L971.275580,267.411585L972.059076,266.692293L971.306073,264.599809L971.786794,263.847823L971.003494,262.049596L969.857291,255.085559L970.436765,250.344789L969.933517,248.971602L970.028200,248.252313L968.325371,244.950127L967.337823,242.105672L967.398434,241.517164L967.254683,240.797877L967.330437,240.176675L967.663563,239.457388L966.403468,237.201444L965.408517,232.885728L965.401098,231.414462L964.992517,229.779723L965.060861,227.687258L964.754392,226.804499L964.747029,224.875509L964.482197,223.960057L964.508865,222.358016L963.964114,220.102081L963.003403,214.740154L963.207948,213.268895L962.663106,211.928415L962.629326,209.541707L962.349363,208.658953L962.656121,207.024223L962.349667,206.141469L962.444428,204.964464L962.236362,204.212489L962.213803,203.002790L961.933844,202.120037L962.028609,200.943034L961.430910,198.687111L961.586250,197.379330L961.071741,195.744605L960.939395,194.829159L961.064815,190.840433L961.579652,189.957682L960.974262,188.747988L960.932812,187.407516L961.300105,186.099739L960.414837,183.549575L961.130495,181.032106L960.687768,180.443608L960.858269,179.103138L960.075093,177.304949L960.646685,176.585673L960.026231,174.950956L960.647115,173.610489L959.966023,172.564271L960.484699,171.387276L960.102755,169.294841L960.810644,168.281318L960.307417,167.365878L960.190269,166.188885L961.110102,165.175363L960.769594,164.423395L960.940040,163.540651L959.948845,160.990501L960.660569,159.682732L960.259490,159.061542L959.877493,157.426833L960.184166,156.707560L959.544726,155.628652L960.309513,153.863167L959.564215,152.097683L960.609004,150.757223L959.939431,148.828270L960.560338,147.487811L961.131943,146.768541L960.375230,145.428083L961.030301,143.499132L961.601908,142.779862L960.655993,141.275935L961.439698,139.641233L962.223327,138.464247L962.590743,136.698770L961.501223,134.017861L963.000683,129.865725L962.584474,129.277234L963.512167,126.759799L964.254250,125.157797L963.546874,123.196161L964.092080,122.019181L963.573743,121.136445L963.062789,121.267221L962.313402,121.397997L961.632187,121.267221L961.200753,121.169139L957.666010,120.449874L956.980998,120.384486L943.901528,118.651710L940.877657,118.259384L939.242577,118.815180L938.864000,119.403669L939.072015,120.155629L937.163776,124.275061L936.486103,125.452042L935.528067,128.263721L935.936514,129.898419L935.262683,130.781156L936.045868,132.121609L935.526994,134.214025L934.205993,135.064069L932.154707,135.031375L930.512776,131.598505L931.235754,131.010014L930.380853,128.623354L930.922223,127.740618L930.226115,126.269390L930.873456,125.386654L930.718509,124.176979L930.063957,123.130774L930.533532,121.659548L929.485606,119.403669L929.641026,118.095914L928.857946,116.297752L927.707415,116.265058L924.653745,113.420694L924.150564,112.505266L923.166585,112.341797L922.031335,111.589839L920.089960,110.805188L919.435331,110.216699L917.255524,109.432048L916.146860,108.222378L914.122076,108.189684L913.073995,106.849239L910.061482,106.489607L909.463685,105.606875L908.044386,105.868425L905.550425,105.247244L903.219264,104.331818L902.239321,102.958681L901.251499,103.089456L897.898336,102.893293L897.039464,101.716318L895.461209,101.977868L892.509377,101.029750L890.280251,100.866281L888.713535,100.245101L884.512805,99.133514L875.365616,97.662297L869.121216,96.387243L863.020579,95.373738L859.977985,94.164072L856.254034,93.510199L852.132897,91.940903L851.554013,91.188949L849.775367,90.567769L847.069380,90.404301L843.050268,89.586960L842.172370,88.965781L837.176785,88.311908L836.011217,87.854198L835.432337,87.102244L826.493380,85.467564L824.688247,84.846385L822.595445,84.388675L821.921786,84.355981L820.116655,83.734803L815.439094,82.623221L814.379501,82.165511L811.136178,81.675107L810.345364,80.923155L806.803024,80.563526L806.012212,79.811574L802.186056,79.321170L801.065989,78.536525L796.554885,77.751880L795.915430,77.130703L793.311677,76.803767L791.506554,76.182590L787.548051,75.234478L786.219794,74.613301L781.405933,73.795963L777.451405,72.095901L776.047417,71.638192L775.358613,71.638192L770.548616,70.526614L768.232655,69.578503L767.653794,68.826553L767.040724,68.663085L763.823792,68.630392L763.142821,67.584201L761.780361,67.551508L758.775485,67.061106L757.821989,66.145689L755.029054,65.655287L754.136147,64.609097L751.297831,63.987922L750.654527,63.660988L747.172792,63.170586L744.538696,63.137893L723.448671,56.566520L717.446792,54.539531L716.629514,53.787584L713.518682,53.297184L701.972676,50.027851L698.668923,49.210518L695.910229,48.131639L690.888340,47.020067L689.696438,46.104655L684.693313,45.581562L680.878798,44.208445L678.188116,43.554579L674.502329,42.017996L670.645987,41.364131L668.466269,40.579493L667.259227,39.696776L663.819158,39.173684L661.325405,38.094808L659.013097,37.767875L658.191967,37.310170L653.272201,36.492840L652.065165,35.610124L645.249366,34.596634L643.338451,33.517759L641.503009,33.190827L638.963753,32.438884L635.482324,31.033078L634.593338,29.692659L633.650891,29.954204L629.140140,28.254160L625.515121,26.129107L624.724226,25.834868L622.817197,24.461758L621.965709,24.298292L621.148462,23.546351L619.310202,20.080883L614.091509,19.165477L423.817312,198.327471L422.617346,199.373696L420.285547,201.433452L409.625943,210.718714L408.176153,211.961109L406.071499,213.759315L406.108759,216.767223L405.438485,218.728904L404.382298,220.036691L402.773512,221.507953L401.615107,222.979215L399.707305,224.581257L398.772239,225.856352L397.928043,226.935278L396.845453,227.785342L396.122376,228.831574L396.879071,230.172060L397.635768,231.512546L394.202513,234.291604L392.415670,236.776411L391.155143,237.953425L389.546451,238.966965L387.229752,241.451775L386.608899,242.334536L382.316447,245.538636L382.282281,246.127144L381.949098,246.846432L379.378905,248.906212L378.610326,250.508264L375.143007,253.418115L373.314550,255.935628L369.192308,259.859029L367.386594,262.213071L363.733837,265.122930L361.818324,267.771231L360.694111,268.653998L359.501657,270.256058L358.479660,270.975351L356.988119,273.165923L356.238645,273.754436L352.525254,277.252816L350.269246,279.149136L349.546196,280.195382L348.387904,281.208933L346.309622,284.151501L343.516165,286.178605L341.873270,288.238405L340.007081,290.265511L338.364190,292.325313L337.239987,293.208086L336.320141,294.221640L335.161856,295.235194L333.522797,297.000741L332.633208,298.177773L331.509006,299.060547L328.953935,301.545393L327.897866,302.395473L324.858201,305.926573L324.562948,306.220832L321.655884,308.836464L320.633834,310.013499L318.692011,311.746357L317.457953,313.381130L314.229214,315.833289L312.374339,318.350841L310.939720,319.789443L305.496415,325.936203L304.580348,327.113243L303.558367,327.832545L296.669210,334.698621L286.267465,344.343841L276.573732,352.060035L270.502356,357.160577L268.007969,359.056934L265.937480,360.953292L258.571631,366.903939L257.610182,367.950207L256.527641,368.800301L255.804636,369.846570L252.288241,372.919986L249.298000,375.372182L246.879293,377.562812L241.371872,382.990346L239.804782,384.886716L231.220051,393.354996L229.516690,395.545635L226.961723,398.030541L226.238733,399.076817L224.671695,400.515448L223.437706,402.150256L221.530024,403.752369L219.902384,405.779533L218.532121,407.708609L217.748605,408.427926L216.351925,409.441509L214.368538,411.207105L210.519077,414.999871L207.214726,417.615574L205.708233,419.381174L205.000395,420.394760L194.636971,428.241883L193.777753,429.124686L190.908701,431.315344L188.524148,432.917468L188.141821,433.800272L183.652769,437.429577L183.270444,438.312381L174.405884,445.897967L171.336207,448.807959L166.801765,452.306490L158.815324,460.055586L156.941772,461.069182L155.545111,462.082778L154.523143,463.259857L153.440633,464.109971L152.445160,465.287051L150.912232,466.594918L150.563990,467.346942L149.542046,468.066270L141.180943,476.109666L121.953178,494.060230L119.984993,495.793167L117.899486,497.264529L113.539202,501.188163L106.957160,506.877440L104.129796,509.493201L100.238868,512.860997L95.231378,517.667468L93.709832,519.008050L91.264770,520.740997L90.269326,521.918094L89.160342,522.768219L88.164900,523.945317L84.410252,527.018850L81.446651,529.928900L81.026524,530.321266L77.146979,533.721777L74.592158,536.206767L68.729327,541.601817L64.384255,545.263915L61.693189,548.043189L61.061110,548.893320L59.452529,550.364701L50.001652,557.787009L46.969958,560.272014L39.426686,566.092163L34.317107,570.604420L30.214307,573.972266L28.109925,575.999515L27.462718,576.882350L25.854153,578.353741L25.010139,579.661645L22.618111,581.852384L16.990072,588.457309L12.187148,594.310196L7.138166,598.233924L2.028649,602.746216L0.177874,604.511896L0.000000,605.067759L17.032221,606.506463L30.173490,606.506463L122.851220,606.277578L153.736224,606.179485L154.213125,606.179485L177.910558,606.212182L250.395711,606.277578L274.558689,606.277578L242.253300,676.578485L230.769081,701.560123L276.039319,759.567816L309.549469,803.548269L339.123657,842.297238L325.777094,855.279043L316.238173,867.476091L309.374431,876.239676L293.573988,897.789019L277.102520,951.483021L275.847193,955.570596L268.621962,979.834523L364.315911,941.770960L363.744294,941.574757L357.384409,938.827916L353.636545,936.963989L348.571426,934.969261L348.230524,934.217151L347.140361,934.053648L345.845466,932.843732L342.729604,930.587403L338.871433,926.957659L336.652603,924.537831L329.263820,911.359605L329.028986,910.836401L327.782864,908.089580L326.997926,903.315349L326.886627,898.116021L327.593409,894.584406L328.137262,890.431492L328.813735,886.736383L330.851890,879.640475L336.443177,868.587888L338.758965,866.102695L339.439879,864.631200L341.475340,861.263113L342.633299,860.249417L343.355967,859.203022L343.688861,858.483626L345.808071,856.881334L345.868476,856.292737L346.965790,854.952045L348.634701,853.807552L349.679026,852.466860L351.612772,850.864571L353.130128,849.131483L355.461189,847.071399L355.820583,846.352004L356.331414,845.763409L358.390105,844.291921L358.620732,843.278230L360.876139,841.381647L368.096615,835.855401L369.303634,834.220419L372.395478,832.062243L373.613863,830.459961L375.297916,829.282775L375.630821,828.563384L378.257173,826.666808L384.058352,821.402179L384.527449,820.388493L392.436847,814.862276L408.952087,803.679066L409.224472,803.090477L414.613510,799.460846L420.573925,795.111833L421.432923,794.228951L422.079960,793.346069L437.422155,783.209294L439.098891,783.078497L441.592796,781.181942L442.239838,780.299063L443.685556,779.579681L448.480567,776.832948L449.979377,776.571355L452.439351,775.263388L453.726200,775.001795L455.410273,773.824625L456.295874,773.399536L457.582723,773.137942L459.217628,772.124269L463.418488,769.802630L465.219906,768.658161L468.395449,768.265771L471.441938,766.205728L474.038408,765.976834L476.759613,764.963162L478.841314,764.701570L481.675942,763.099315L482.936295,762.837722L483.651662,762.837722L485.491285,763.328208L488.087456,761.725954L494.268303,761.366264L496.039504,760.516089L501.932725,760.319894L512.080340,760.319894L514.097888,760.941176L514.942211,762.151042L518.087434,761.595158L521.948125,761.497060L522.637098,761.954847L524.400957,762.151042L526.043755,762.608829L527.372330,762.772324L528.576432,764.865065L529.159427,765.322852L532.301136,765.976834L534.038866,767.775285L536.593863,768.265771L537.998208,768.723559L539.368729,770.227719L540.383188,770.554710L542.919127,770.456613L546.973999,775.263388L548.991453,775.426884L549.809302,776.636753L550.869325,777.552331L552.236144,779.350786L552.925018,779.350786L554.859603,781.181942L556.475808,781.181942L557.698630,782.261016L559.406294,784.811557L561.359734,786.315723L562.071615,787.525595L563.161743,787.689092L565.392014,791.286013L567.810729,791.613006L568.568184,793.411468L569.563869,794.294350L570.627504,794.457846L571.233414,795.667721L573.250993,796.289009L573.591837,797.041094L574.443510,797.204590L575.397572,798.120172L577.755881,799.035754L578.096727,799.787840L580.012038,800.114833L580.621546,800.572625L582.430876,800.899618L583.933924,802.403790L584.728663,801.945998L586.644094,802.730784L587.087097,803.319373L588.926632,803.352072L590.289373,803.842563L590.970953,804.888944L593.022331,804.463852L601.553801,804.463852L602.144292,804.561950L604.797706,804.954343L606.807214,803.646367L610.009250,803.253974L612.847526,801.357410L613.839093,800.932318L616.128926,800.507226L616.802671,800.539925L619.372167,798.479865L619.916904,797.302689L627.205903,793.574965L628.499925,791.809202L630.543469,790.370433L631.674814,788.898965L633.759987,787.427498L634.641864,787.296701L637.915435,785.432843L639.523696,783.961377L641.881359,782.359114L642.240754,781.639731L648.337256,776.996444L648.882005,775.819274L657.078943,770.129621L657.468550,769.115949L665.355209,763.753296L666.002232,762.870421L671.194604,760.123700L674.354560,757.932864L675.561915,757.671272L678.294238,755.774729L679.853458,754.924555L681.257696,754.924555L685.208629,752.341334L686.434940,752.210538L691.093593,749.300329L691.778640,749.136834L693.697375,748.025070L695.196067,747.305693L697.553748,745.703445L699.200156,745.409154L700.381123,745.605348L703.113450,743.708810L704.661310,742.825940L705.811958,742.858639L710.826308,739.523351L711.704466,739.686845L712.590057,739.261760L714.709286,737.659515L723.205373,732.296904L724.090965,731.871819L724.806329,731.871819L731.591769,727.228589L735.047011,725.201265L741.245852,720.852331L754.332471,712.383368L763.415156,706.497612L764.191147,706.824598L767.411667,704.502997L767.790039,703.914422L777.973966,697.080421L780.263739,696.426450L780.861662,695.935972L781.266531,695.347398L788.453168,690.409923L788.574138,689.690556L788.846535,689.101984L789.629781,687.924839L791.688504,686.453408L791.510490,685.864836L793.383425,682.791182L795.979497,680.731182L796.554609,679.717531L796.244032,678.671182L796.891085,677.788326L802.233153,666.016923L804.381999,660.687104L804.101747,659.804252L806.587288,653.460797L808.081767,650.289074L811.108559,643.749445L812.043257,642.703106L811.482775,640.937408L813.907854,634.724776L820.090248,621.482090L821.494055,618.964350L821.187334,618.081506L822.507996,616.315819L828.747574,604.838875L829.633114,603.956034L830.756798,601.013233L832.629817,597.481876L835.312713,593.231171L836.996834,592.054054L837.166965,590.713448L839.006022,587.770658L840.027849,587.051309L842.162095,583.814242L843.399623,582.800615L844.549900,580.315597L846.934179,578.713414L847.766681,577.372813L849.435614,575.770632L849.931304,574.757008L853.999718,571.977716L854.245660,571.389160L855.055478,570.212049L860.130594,566.746113L863.748670,564.424592L866.568226,562.855113L867.230585,562.855113L870.950834,560.370107L872.071206,560.697081L874.459301,559.258394L875.761271,558.964117L876.805965,559.454578L878.921563,558.146681L883.501245,557.754312L885.953942,558.408260L886.979782,559.454578L887.759418,559.029512L888.448270,559.029512L889.000903,559.323788L890.117586,560.402804L890.806438,560.402804L891.835969,560.697081L894.497263,564.620777L896.306430,564.489987L899.141963,569.296519L900.777655,573.776081L901.099618,575.541749L903.636208,580.479085L902.921591,585.514519L903.338018,586.103077L903.493379,587.312890L905.007747,589.994099L904.599179,591.334705L905.928166,594.473684L905.175423,597.416480L907.299405,601.471002L906.959118,603.694452L907.655856,605.623622L907.247228,606.506463L908.432232,608.468332L909.257791,611.149555L908.924837,611.868908L909.826152,614.844414L909.640846,615.759955L910.337525,617.231360L917.826513,630.702918L918.784133,630.866408L920.003135,632.239725L920.760371,633.580344L921.441685,633.711136L923.902379,636.294282L925.969216,637.667601L926.446162,637.896487L927.733341,639.465995L928.872784,640.381541L931.249624,639.825673L942.676439,640.152654L943.698236,639.433297L945.299186,639.008221L949.625309,638.648543L951.173182,637.765695L955.533168,636.359678L956.396305,637.242526L960.657681,634.790172L961.467608,634.528587L962.182963,634.528587L963.186029,634.822870L964.881464,633.678438L972.254156,631.716557L973.275953,630.997201L974.850408,630.572126L975.565762,630.572126L977.601985,630.179750L978.835739,629.460394L981.363998,629.035320L982.965034,629.068018L984.199180,630.408636L986.992166,628.839132L987.385769,628.675642L989.376460,627.694703L991.802469,626.975347L993.649326,625.961710L996.722479,624.817281L997.982727,624.097926L1000.000000,623.574758Z "/></g><g fill="#000" font-family="Arial" font-size="12px" id="mylayer-label" stroke="none"><text text-anchor="middle" y="439.283185984"><tspan dy="0" x="585.327441178"><![CDATA[N]]></tspan></text></g></svg>