<?xml version="1.0" encoding="utf-8"?><!DOCTYPE svg  PUBLIC '-//W3C//DTD SVG 1.1//EN'  'http://www.w3.org/Graphics/SVG/1.1/DTD/svg11.dtd'><svg enable_background="new 0 0 1000 1001" height="1001px" pretty_print="False" style="stroke-linejoin: round; stroke:#000; fill: none;" version="1.1" viewBox="0 0 1000 1001" width="1000px" xmlns="http://www.w3.org/2000/svg" xmlns:xlink="http://www.w3.org/1999/xlink"><defs><style type="text/css"><![CDATA[path { fill-rule: evenodd; }]]></style></defs><metadata><views><view h="1001" padding="0" w="1000"><proj flip="auto" id="robinson" lon0="-117.551193483"/><bbox h="1.91" w="2.6" x="-1650.56" y="-568.58"/></view></views></metadata><g class="" id="mylayer"><path d="M1000.000000,453.720331L982.603294,453.772083L983.069158,452.445942L961.325930,452.801736L958.511374,452.847019L965.904391,432.443657L966.951692,429.558433L968.970182,423.988505L970.700226,419.220728L966.225666,419.266012L961.290517,419.317766L951.808283,419.421273L941.929660,419.518311L928.471181,419.660633L926.022232,419.680040L907.801574,431.039861L898.256132,437.638335L893.522662,440.905212L891.707945,441.170443L882.480977,442.503067L879.882714,434.940728L867.799937,435.561761L861.477888,430.651714L857.184404,430.858725L858.757362,427.384806L862.755235,418.534995L862.434305,418.528525L858.743416,418.412080L860.534600,414.051839L860.147181,413.922455L858.984926,413.534302L858.597507,413.404917L858.040549,413.282002L856.371656,412.893849L855.811765,412.764465L854.353383,413.340225L853.874945,413.521363L852.018182,411.684104L851.655041,411.334766L850.819154,410.513173L849.512117,409.924473L846.670590,410.040919L846.503981,410.053858L841.438117,410.435542L839.124407,409.659234L836.587476,409.115818L835.834396,405.920007L834.796725,401.501492L834.661212,401.333290L834.254199,400.815747L834.115755,400.641076L833.083116,400.848094L832.167068,401.074519L831.247999,401.365637L830.153822,401.805548L829.251218,402.251929L828.237235,402.821226L825.186109,404.425606L821.995917,406.353447L821.385959,406.696318L820.183546,407.492036L818.941806,408.391262L816.137998,410.493766L815.883380,410.752535L812.081356,414.957528L811.572122,415.475065L811.278355,415.695018L810.911201,415.824402L810.684356,415.811464L810.381068,415.403904L809.413250,412.305150L806.015624,401.430330L805.548613,399.935923L805.414211,399.282524L804.925177,397.775175L804.851141,397.813991L804.623171,397.917500L804.546203,397.949847L803.255821,398.551492L802.362566,398.959059L800.953137,399.547765L799.423531,400.239980L798.089266,400.673423L796.845023,401.210374L796.465576,401.372106L793.108035,402.704779L791.861899,403.189975L789.750201,403.882187L788.973807,404.095674L785.726585,404.981964L783.195522,405.628890L781.745792,405.926476L780.417184,406.146431L779.664423,406.269347L777.631178,406.528117L775.875550,398.907304L775.235309,396.138439L786.261275,390.057260L783.449683,383.471435L782.326750,380.838388L779.426952,374.045484L780.131203,373.922564L782.238092,373.540866L782.939411,373.411477L784.237661,373.172107L788.129003,372.434589L789.426779,372.182280L790.818165,371.910562L794.997238,371.082470L796.385691,370.804283L797.733486,370.519626L799.035705,370.241439L800.982607,369.685064L801.812428,369.458632L803.178001,369.070463L804.499984,368.669355L805.296522,368.417045L807.501276,367.763627L808.459599,367.440153L809.785081,366.987288L811.105647,366.547362L815.061479,365.214645L816.381571,364.761780L817.705636,364.270097L821.659201,362.801517L822.980335,362.303364L824.326429,361.824619L828.361782,360.381914L829.704945,359.896699L831.063804,359.398544L835.147758,357.884671L836.503686,357.380046L845.779775,354.074100L852.041618,351.835625L873.622378,344.033277L882.904399,340.669063L883.318940,342.060038L884.551345,346.220011L884.962978,347.604508L885.348336,348.859612L886.490727,352.618445L886.873173,353.867073L888.109764,353.194237L891.826913,351.156319L893.060573,350.477012L893.713193,350.121184L895.660272,349.053700L896.309961,348.691402L898.481610,347.500995L898.724806,347.371602L905.959512,343.438071L908.371901,342.124734L908.736696,341.930645L909.822758,341.341907L910.184622,341.141348L910.494007,340.979607L911.410910,340.481443L911.717364,340.313232L911.484847,338.372334L910.783957,332.530210L910.551011,330.576359L918.556042,327.664984L921.292369,326.662176L932.744115,322.424490L942.562311,318.911404L950.560889,316.045286L954.356033,314.667218L955.440860,314.266090L958.158082,313.256799L965.736172,310.461835L966.363637,310.228921L969.532357,309.038470L969.746620,308.928483L970.399247,308.572642L970.610581,308.456185L973.086724,307.116926L980.517147,303.079730L982.990363,301.733994L982.785234,301.281102L982.528301,300.737631L982.153683,299.922425L981.937777,299.469532L981.368635,297.308583L979.652501,290.806302L979.080486,288.638866L977.461526,279.839679L977.280249,278.856236L987.042243,274.314270L986.350559,271.965639L984.280998,264.919716L983.583993,262.571065L983.338121,261.885232L982.462432,259.141895L981.587236,256.411492L980.868513,254.205166L979.113196,248.828440L978.343318,246.473283L978.012399,245.373346L977.285562,243.386985L976.556278,241.407091L976.231007,240.462434L975.177761,237.350237L974.487292,235.325040L973.808172,232.051071L973.210747,229.171781L972.867112,227.495967L972.674973,226.952459L972.182562,224.888420L971.702814,223.173776L971.374665,222.520270L971.039367,222.339100L970.578009,222.248515L968.119968,222.306748L967.295777,222.390863L966.631152,222.565562L966.110628,222.701440L963.568109,223.477883L961.347301,224.060215L960.462771,224.487258L959.755265,224.817246L957.623960,225.787798L955.228236,226.376599L972.692264,176.967953L964.925047,177.071484L966.010982,174.159693L966.779916,172.095553L957.178384,171.992022L955.102240,177.407957L953.363323,181.937391L951.585077,186.570336L943.167017,208.492433L940.430283,208.518315L937.216848,208.550667L933.157321,208.583019L932.120151,208.589490L923.282453,208.900071L920.332960,209.003598L918.502999,209.068303L892.261798,209.993576L891.519035,210.019457L892.917391,206.286009L887.828083,206.305420L888.360022,202.455489L889.291136,200.630812L889.670687,199.873764L892.646073,193.992064L889.887265,186.382689L889.731286,185.942689L889.260423,184.616219L889.101518,184.169748L887.525653,185.153278L886.576622,185.735631L882.776765,187.961509L881.190720,188.886800L877.463854,191.119143L866.272032,197.803202L862.542251,200.029055L861.259190,200.837867L857.419853,203.238418L856.133866,204.040757L855.745005,204.241341L854.580885,204.836625L854.189096,205.030739L853.510588,205.567787L852.818159,205.943074L851.491432,206.512475L850.804051,206.803645L849.076752,207.547747L846.165428,208.783603L843.947162,209.288298L842.260675,209.670054L841.287922,209.818874L838.377511,210.258864L837.401829,210.401213L834.762994,210.750617L831.043027,211.307074L830.588347,211.326485L829.610670,211.488246L829.399902,211.546480L827.285892,212.102936L826.364315,212.400576L825.280005,212.743508L822.243663,214.024651L820.787090,214.878745L818.200723,216.308704L810.567199,220.792682L809.920219,221.232667L807.141655,223.309654L806.441938,223.930808L805.446721,224.875479L804.908212,225.483692L804.592091,225.833090L804.257810,226.201900L802.859163,227.838894L802.100361,228.912969L801.406699,229.999982L801.028813,230.653484L800.615762,231.526976L798.731771,235.913836L797.834634,238.527826L796.304875,242.947009L795.728885,246.020368L795.752386,249.798970L795.886039,250.439519L794.018169,251.170651L788.427329,253.344633L786.556530,254.069292L784.465239,254.806891L783.988753,254.968646L782.679033,255.337445L781.025695,255.518610L778.498240,255.745065L778.441418,255.738595L777.239851,255.596252L776.637429,255.479789L776.286191,255.453908L775.181403,255.156280L774.566918,254.929825L774.350999,254.845712L773.374390,254.366920L772.659863,253.907538L771.994428,253.389924L769.748852,251.203002L768.282466,249.773089L767.789843,249.339586L767.016894,248.381996L765.193552,246.842086L763.792737,246.330938L761.063120,245.884493L758.767775,245.897434L758.465978,245.897434L755.753402,246.369760L754.692982,246.777383L752.333246,247.767326L751.165834,248.569632L748.033833,250.782440L744.348336,253.784604L740.328353,257.000276L738.080362,258.546642L735.082208,260.138296L732.471174,261.108816L731.023436,261.387032L728.592855,261.684658L726.594487,261.639367L725.106471,261.399972L723.883949,260.901772L722.460864,260.222408L722.183792,260.086535L721.075540,258.947791L720.272610,257.757284L719.545968,256.366201L719.142120,254.735720L718.992427,251.190062L718.920767,250.698327L718.887915,249.863672L718.845768,248.174949L718.774950,247.482637L718.737844,247.126775L718.524008,246.130362L718.204259,245.185709L717.779066,244.305758L717.318362,243.561681L716.784081,242.869366L716.020183,242.086467L715.160091,241.400620L714.385854,240.928292L715.102822,239.142501L717.253770,233.785111L717.970768,231.999308L718.474625,230.504667L718.924807,229.165311L720.042113,226.001319L720.572470,224.493728L717.699579,224.480788L709.085829,224.429025L706.215400,224.409614L704.865132,227.690077L703.308739,231.455803L700.636792,237.162599L700.349510,237.266124L699.122007,237.673751L697.362423,238.644291L697.179657,238.657232L696.105424,238.831929L695.137916,239.051918L694.751760,239.103680L694.204736,239.252496L694.140533,239.265436L692.806052,239.770117L692.669202,239.860700L691.333661,240.410672L688.913160,241.659430L686.840030,242.901717L685.022908,243.995187L684.450087,244.325169L683.528584,244.849257L681.192786,246.130362L680.634798,251.125360L680.604987,251.642975L680.352373,255.466848L680.278753,260.067125L680.468452,264.570330L680.825275,267.061319L680.850800,267.320123L681.066584,269.785225L681.561227,272.211502L680.458382,272.787337L677.154301,274.488961L676.050988,275.051855L675.895084,274.243099L675.429843,271.810358L675.276407,270.995129L670.649080,273.511983L670.398001,273.647855L670.012445,273.343762L669.190959,272.683816L669.115052,270.361062L666.657335,271.622726L665.827986,271.266872L665.960629,269.047636L664.030219,268.795303L663.817778,267.540106L663.780419,267.326593L668.176387,264.893835L666.317893,264.990887L665.849025,264.990887L658.976739,264.965007L658.100745,264.958537L656.983216,264.382697L657.139530,264.085072L657.600155,263.185726L657.748152,262.881630L656.332121,263.515702L655.136682,264.363287L647.413738,269.804635L644.838455,271.616256L642.672802,272.832627L636.177844,276.462325L634.009266,277.672221L633.546427,276.721126L632.141761,273.867836L631.676006,272.910268L631.168075,271.978579L629.646291,269.164098L629.135443,268.225935L628.876565,265.236751L628.754503,263.871558L635.044325,259.931252L634.103689,256.566776L632.856827,255.169221L629.316583,256.825582L627.278740,257.776694L626.511493,254.735720L623.897995,244.435163L621.846649,236.340874L630.716812,231.766377L630.343392,230.750539L629.892458,229.527649L629.348764,227.599492L629.046014,226.525416L629.025054,226.467183L628.953860,226.286014L628.929974,226.221311L628.275526,224.584313L626.301456,219.673307L625.641653,218.036300L624.391737,214.451698L623.704954,212.588218L621.889818,207.670686L619.958657,201.471975L618.021036,196.140279L616.044991,190.711498L615.733630,189.844444L614.806950,187.223864L614.492672,186.350336L609.545747,188.983859L594.704061,196.858507L589.754221,199.485534L589.019522,197.634969L588.770877,197.013799L586.924943,191.979726L586.232007,190.090325L586.154520,189.883267L585.940687,189.255623L585.510562,188.006803L585.118306,186.686806L584.855474,185.819748L583.963850,183.347982L582.578234,179.497969L581.291556,175.926180L580.977325,175.052643L580.710526,174.224400L580.428490,173.422038L580.368107,173.240860L580.170794,172.697324L580.099634,172.516146L579.938365,172.076141L579.459487,170.743183L579.295294,170.296706L579.082891,169.707874L578.445686,167.941377L578.227898,167.352544L577.946806,166.576060L577.453784,165.223683L577.106004,164.240135L576.827382,163.457178L576.539521,162.641867L575.675948,160.195931L575.382706,159.380618L575.085614,158.532950L574.183572,155.989943L573.883563,155.135802L573.569389,154.262247L572.634270,151.622168L572.322569,150.742140L572.007944,149.855641L571.060696,147.176726L570.743155,146.283753L570.470429,145.513725L569.736034,143.436587L569.641023,143.190695L569.349674,142.427136L569.074183,141.579455L568.955917,141.210616L568.230639,139.237004L568.142255,139.101116L567.698952,138.382849L566.654309,139.159354L563.530236,141.462979L562.485133,142.226540L561.493780,143.287758L558.861520,146.083157L558.506027,146.464936L557.511756,147.519679L557.263879,147.746158L556.501156,148.419122L556.250353,148.639130L556.450739,147.234963L555.845281,146.277282L552.266336,140.602356L551.075022,138.706393L547.744898,134.034416L546.757793,132.649643L528.646551,146.930835L521.950663,152.204539L517.245875,156.268186L513.977724,159.063551L500.234876,170.788477L494.485418,175.699708L489.993368,179.530323L488.824363,180.520327L481.910406,186.169160L481.682239,186.343865L481.005127,186.848571L480.774034,187.016806L480.540107,186.654453L480.359925,186.363277L480.189131,186.033277L480.091030,185.852101L478.236144,183.263865L477.580586,182.338569L477.106745,181.672096L476.684186,181.083271L475.515877,179.834442L475.470912,179.782677L474.822040,179.420322L474.139255,178.637376L472.082601,176.282066L471.396899,175.492647L470.838999,174.735581L470.508549,174.386166L467.585794,171.319072L466.608625,170.290235L459.194516,177.705606L443.322882,193.565009L437.954107,200.902572L431.719344,209.411236L431.349419,209.915930L430.236720,211.423541L429.863870,211.921764L418.354441,216.179296L409.738183,219.362728L409.362050,219.543899L408.982991,219.718599L408.349429,220.009766L401.873900,222.326159L401.589079,217.764543L400.033908,205.270146L398.691201,194.483825L398.683644,194.347943L398.663436,193.933829L398.658343,193.791477L398.997775,192.885602L399.954771,185.515631L383.170828,192.303253L382.700802,200.177877L382.748547,200.307287L382.881002,200.695517L382.923357,200.824926L382.980953,200.928454L383.142965,201.239038L383.195172,201.342566L383.058110,208.201263L382.445189,219.071561L382.036286,226.305425L381.857592,229.437065L362.878340,236.839086L360.591612,224.694309L340.128062,230.232914L335.588828,248.744327L335.499904,249.119599L332.246906,262.383431L330.097765,272.761457L329.519231,275.556519L356.329629,274.016648L369.799017,273.233771L382.277276,293.711306L373.094717,300.763511L367.377121,294.500638L357.019442,301.921621L361.679803,307.932127L359.571351,309.691924L359.292460,310.028356L352.843007,317.617447L351.884134,318.749659L348.423785,321.428146L343.021890,315.708857L337.330443,320.781169L338.802222,321.913379L341.074979,323.660214L343.229897,325.277651L344.709081,326.390447L345.768853,327.231512L348.439855,329.334173L348.950649,329.748235L349.997193,330.595768L336.811191,333.041317L314.719297,337.136628L298.845919,340.086795L297.253050,340.377929L284.064030,342.816986L284.713676,343.121059L286.651841,344.033277L287.296100,344.337350L289.481008,345.366021L294.743839,347.824475L296.009754,348.477905L298.150979,349.564799L299.743427,350.379968L301.398682,351.143380L303.330438,352.100878L303.809747,352.314375L304.053561,352.424358L305.454593,352.864289L306.482810,353.278342L308.734222,353.834725L310.511005,354.307004L312.483459,354.675770L314.259429,355.051005L315.968384,355.361544L317.699018,355.600918L321.442181,356.273752L329.766486,357.541785L334.204332,358.272844L347.514506,360.446609L351.949444,361.171197L356.999507,362.063991L372.149741,364.742371L377.194445,365.635163L381.315176,366.165662L383.540391,366.295052L387.772182,366.320930L391.372794,366.107436L393.442169,365.952168L397.483310,365.402261L398.436128,366.113906L398.541346,366.191540L401.283817,368.248839L402.233715,368.954013L401.294299,369.355121L399.792029,369.989129L399.826842,370.280256L399.896470,370.862508L399.942419,371.237738L400.049792,372.117585L402.052765,372.434589L408.064151,373.379130L410.064199,373.689664L409.312568,375.255271L408.610613,376.704425L406.981313,379.926200L406.722300,380.437284L405.991729,381.394757L407.789831,382.080514L413.186611,384.131313L414.987183,384.810599L414.248857,385.405783L414.012901,385.586925L412.001651,387.120168L411.254067,387.683004L410.780527,388.148798L409.771919,388.944530L405.204783,392.522082L403.679634,393.712441L404.232747,394.398190L405.899475,396.436027L406.449665,397.115306L404.318095,398.525615L402.147281,399.968270L389.228922,408.514178L384.918247,411.360643L378.163044,416.865943L357.888870,433.362269L351.125497,438.860989L350.717919,439.139159L349.481000,439.954261L349.070491,440.225961L347.503709,441.455081L342.784744,445.148903L341.215038,446.371548L340.824172,445.925186L340.756664,445.847558L340.535446,445.323567L340.196668,444.087982L340.118686,443.796875L340.040806,443.434609L339.783355,442.211960L339.276212,439.831349L338.779529,438.699263L338.497680,438.434031L338.064384,437.858284L339.179642,436.810293L342.160500,434.597867L342.329677,434.507299L345.054184,432.359559L349.517717,428.827422L353.211569,425.916312L355.927778,423.762085L356.263307,423.503319L357.274817,422.714081L357.607416,422.448846L353.346375,416.956512L351.661161,414.782860L344.147871,405.072533L337.617497,411.134220L329.843350,418.340919L328.864374,418.987838L325.916669,420.928591L324.934764,421.569039L325.622830,423.445096L326.134256,424.835964L327.956493,427.811769L328.423988,428.439274L329.542865,429.933642L331.084251,432.003758L332.438838,433.828044L332.598918,434.597867L332.460787,435.911091L331.940200,437.748309L331.792435,438.278773L330.888518,440.911681L329.694326,444.379088L329.605386,444.896611L328.201444,446.009283L327.732486,446.378017L327.377290,446.688530L327.825889,447.535972L329.630619,450.912792L330.232205,452.038396L330.391040,452.329500L330.838240,453.138123L316.170296,465.053920L314.799726,463.682510L320.949730,454.522484L321.647046,454.134346L322.215779,453.545669L322.812707,452.769391L323.279941,451.540284L323.867810,450.589342L323.308578,449.664275L321.957515,447.717104L318.712023,440.445909L318.686447,437.819469L315.762936,435.982251L314.638605,432.857680L313.251260,429.021496L308.317378,424.590137L305.722503,420.967406L301.611959,415.235704L301.089770,414.511153L302.399353,413.320818L303.947575,411.800550L305.261251,410.500235L306.742123,409.128756L307.474130,408.507709L307.968188,408.087208L311.027347,405.725929L312.899937,404.529115L316.036467,402.517170L317.110245,401.734386L317.444852,401.449738L318.840691,400.259388L319.166040,399.942392L320.378853,398.609716L320.924799,397.911031L321.220383,397.516403L321.664753,396.914757L322.295282,396.021991L321.979145,395.776157L321.581895,395.077469L320.204350,391.499926L319.498873,389.287407L318.190407,385.755129L317.178799,383.199720L315.045855,377.810699L313.458201,374.899451L312.910908,374.000198L311.483576,371.942910L309.780451,369.859740L306.952790,367.233129L305.219459,365.952168L304.755844,365.428139L301.787037,363.144401L299.786709,361.856967L296.962977,359.857881L293.752148,357.884671L290.864003,356.040848L290.540522,355.814413L288.535090,354.384639L287.133731,353.563003L285.596802,352.941924L284.632676,352.586097L283.914581,352.476114L282.949969,352.404949L282.906262,352.463175L282.741524,352.527871L282.491021,352.605506L282.270048,352.605506L277.750084,352.359662L278.099391,351.809747L281.772245,346.064740L265.632382,344.997252L260.254229,344.641423L251.286421,344.130322L245.070834,344.389107L241.454194,344.531439L229.505632,345.877121L224.814186,346.478795L221.801729,346.860503L205.471341,351.861504L196.291862,354.669300L190.401310,356.467839L187.806481,357.295942L179.659952,359.754369L174.935662,361.462326L173.559971,361.947540L167.620399,364.030725L155.860346,365.376383L153.584492,365.635163L153.126440,365.039968L151.746434,363.241444L151.230357,361.934601L150.728461,360.647165L149.377020,360.161950L148.172501,359.715552L147.388586,359.424422L146.907763,359.243275L146.599408,359.062128L146.465135,359.075067L144.811335,359.172110L144.254679,359.204458L144.412204,358.790407L144.892165,357.528846L145.052152,357.108325L138.876534,358.551034L137.187427,358.939207L121.818430,363.778414L120.133776,364.140707L113.980416,365.454017L117.208310,362.976194L122.271606,359.683204L126.676610,357.638828L126.722316,357.561193L128.478625,354.404048L119.416132,348.277348L104.186385,338.883438L95.328389,333.410089L94.815453,333.384210L93.273254,333.287165L92.757391,333.254817L92.223364,333.241877L90.615891,333.203059L90.076474,333.190120L91.504153,329.580023L95.776587,318.749659L97.196067,315.133044L94.093219,314.874252L92.829761,314.809554L89.856419,315.230091L82.327281,316.278199L80.982208,316.866951L79.662412,317.559218L73.305746,322.663871L68.396875,326.513372L68.204907,326.720403L66.884494,327.994940L59.700387,334.891649L57.916272,337.058991L57.301453,337.796534L54.902532,340.701412L53.993551,341.801252L52.555194,343.541585L50.768184,345.702441L50.754411,346.517613L50.712636,348.950187L50.695942,349.758887L50.685168,350.282924L50.652852,351.855034L50.644543,352.372601L50.565397,356.758969L50.495663,360.582469L42.253993,368.630539L38.374947,372.408711L35.167853,375.539926L25.556971,384.920579L22.347007,388.045288L19.377043,390.950031L15.352350,394.870451L18.433644,398.033948L20.300527,399.955331L20.390035,400.045901L20.517590,404.470891L19.554476,405.784152L17.177936,408.999371L6.374136,423.231614L5.970597,423.399812L0.000000,425.819274L1.992360,429.564902L2.384881,429.539026L3.556116,429.435520L3.942778,429.396705L3.685227,429.875420L2.912107,431.298625L2.643777,431.777339L2.794914,432.527755L3.061809,433.795699L3.243647,434.649619L3.305511,434.869568L4.517160,436.402741L4.884371,436.868515L11.392388,434.481423L13.799193,433.595157L39.280174,424.234333L41.796305,422.720550L50.742563,417.338194L67.010651,405.544790L90.513500,389.397386L91.725831,392.444450L80.654804,421.549631L78.354917,427.171325L126.102129,437.166093L146.235803,442.431908L131.151807,484.654540L126.087012,498.827573L132.530110,498.808167L137.698697,498.795230L141.926956,498.788761L170.098862,498.737012L178.746489,498.717605L179.096603,497.824923L184.019053,497.566175L198.775614,496.789928L203.695127,496.524711L197.289046,512.683460L195.661450,516.965682L195.221840,518.136499L195.542316,518.130030L253.911850,518.130030L255.976406,512.683460L263.451915,493.355032L268.791360,493.076876L284.814603,492.229470L290.151110,491.944845L295.239631,484.725697L302.693981,488.412902L301.413146,491.343252L296.320373,503.821405L295.370203,506.137190L291.949207,512.075409L282.702666,528.123963L282.432280,528.835501L282.211057,529.417669L286.494104,536.785297L291.248763,544.954961L291.550331,545.608273L292.246474,546.585006L295.528135,551.184047L296.622039,552.717056L300.955291,557.400160L302.591420,559.166021L304.039618,560.731361L305.644934,562.464875L317.960244,575.763684L322.462286,580.627800L322.844067,581.041766L326.280121,584.767456L326.906154,585.446616L327.762245,586.371568L332.253011,590.485329L334.169186,592.238201L334.521577,592.658631L334.913131,593.117870L335.572886,593.906984L335.922345,594.320945L332.102010,597.723183L324.667704,598.208292L323.729230,598.266505L322.345012,602.975287L321.405726,602.865329L315.453002,602.160307L312.149581,609.566253L304.382459,610.090165L295.930487,628.937901L304.015648,628.996113L300.156240,637.171557L297.891249,641.957785L305.953547,644.603138L309.036507,645.612121L308.931631,645.618589L308.181455,645.521571L305.894759,645.127033L305.703156,645.120565L304.909314,645.081758L303.646368,645.185244L300.941817,646.245969L296.809540,647.546004L295.678357,647.714167L294.295924,647.720635L292.627444,647.571875L291.066334,646.828075L289.223135,645.890238L287.318885,645.269326L283.823130,644.467313L282.558879,644.389699L280.674175,644.370295L280.185072,644.409102L280.018444,644.422038L278.873132,644.499652L278.489861,644.557863L276.449395,644.991208L274.995539,645.398682L272.687740,646.110145L270.964900,646.459408L269.195720,646.575829L267.334010,646.595233L265.917126,646.763396L264.665108,647.235548L263.273827,647.804717L260.190422,655.895940L272.573330,655.553147L269.881576,662.641814L308.186450,661.606975L303.168522,675.958811L338.459523,675.266771L344.959454,658.146725L334.538291,658.405436L330.558016,658.495984L332.884095,651.872973L334.142235,648.289804L327.633428,647.714167L330.440637,640.321415L334.230920,630.354379L336.765771,623.679454L338.124119,620.102661L340.671885,613.408270L340.781948,613.104272L341.025127,613.485886L352.074982,630.761858L356.065652,637.003391L356.371923,637.559630L356.782403,638.309905L357.192884,639.060179L373.376318,668.702070L390.707999,700.438640L403.460699,723.779666L406.308500,729.315730L409.171086,734.884103L410.287485,735.692517L438.844622,756.245442L442.564914,758.929323L446.237722,761.567927L453.326220,766.670504L453.906298,767.045598L455.635755,768.170877L456.210445,768.545970L464.229924,774.392230L466.401347,775.802054L467.284174,776.487564L469.838602,778.479420L472.072650,780.193190L478.766056,785.315082L480.997217,787.022375L482.869248,788.496852L486.049421,790.999579L495.131508,798.139111L498.369603,800.674150L501.205465,802.905239L501.974700,803.506663L506.254999,806.875920L501.742236,818.774943L488.210786,854.458311L483.701765,866.350357L500.503416,865.774834L550.913695,864.048264L567.712363,863.466273L572.873752,863.304609L588.349583,862.813150L593.508029,862.645019L599.061987,862.528621L609.708706,862.289357L615.638058,862.405756L621.111119,862.502754L623.679314,862.412222L624.443890,862.386356L634.431418,862.037161L637.758796,861.920763L638.377809,861.894896L640.237300,861.810831L640.847982,861.778498L641.192051,861.681499L642.223279,861.364637L642.566859,861.254705L645.138015,852.822256L645.523910,851.477197L649.468438,837.644979L641.243896,835.491560L645.148128,832.445727L653.681112,825.765559L654.030243,824.873142L655.079613,822.176488L655.212013,821.827280L655.676712,821.426338L655.994495,820.488650L656.934137,817.669115L657.248989,816.724957L658.634767,813.368663L660.785574,808.136964L664.971584,807.703682L667.874002,807.399738L671.060563,807.554944L674.600483,807.716616L680.611435,808.001159L683.797512,808.143431L684.032266,808.149898L684.736042,808.156364L684.967857,808.156364L686.293568,808.143431L687.651138,808.117563L689.911116,805.356199L691.052387,803.952880L691.155354,803.752405L691.453475,803.150982L691.553504,802.944041L692.031285,801.172104L692.910349,797.886900L694.699229,797.718759L696.246000,797.563552L697.998080,797.563552L703.243051,797.550618L705.233884,797.233738L709.984933,796.845721L722.449870,795.080241L724.463310,792.499919L728.471600,787.345725L728.786729,787.339258L730.644598,787.572070L731.004802,787.617340L732.040679,788.283441L732.992594,789.583308L733.478208,791.814419L733.547074,792.784466L733.574413,793.224221L733.582754,795.235448L733.986582,797.369544L733.961235,798.915144L733.837551,806.578443L733.565699,810.736650L733.298334,814.726703L731.039579,819.660897L730.890411,820.708522L730.489051,823.502182L731.144454,825.726758L731.564830,826.580374L732.053089,829.089481L734.212148,835.155290L735.825516,839.688459L736.426401,839.539725L738.210432,839.099989L738.802986,838.944788L739.854292,838.660253L740.862469,838.375717L743.017534,837.696712L744.072277,837.360443L748.449526,836.209367L750.181614,835.679095L750.317378,835.633828L755.353361,834.152947L757.078093,833.642075L757.042773,833.920144L756.931977,834.198214L756.699116,834.741420L756.542228,835.226425L757.394941,835.821363L759.264603,836.577970L760.848095,836.894839L761.725049,835.420426L762.781934,833.428672L766.827261,833.267004L769.335619,833.163536L770.151153,833.131202L772.987369,833.215270L780.721167,833.435139L781.123051,833.441606L782.322822,833.448072L782.721766,833.448072L791.636252,833.383405L790.671989,835.827830L785.372462,849.226805L788.351036,855.564102L802.214254,856.055565L812.989302,856.430628L813.274544,856.488827L813.605857,856.553493L813.988157,855.900366L814.195481,855.538236L814.926262,854.406578L818.009777,847.280343L828.783611,822.325224L832.375032,814.002415L835.119021,807.147530L842.048558,791.342330L804.653024,789.744983L806.005014,788.212304L806.227080,787.953624L806.895211,787.300456L807.374156,786.705491L808.118295,785.851845L809.274711,784.493771L810.030626,783.594854L810.105141,783.497848L811.177320,781.906957L813.491465,777.865049L813.721412,777.457624L814.711875,775.414029L815.383637,773.997738L815.790203,772.840129L816.192174,770.486104L816.624595,766.075528L816.621732,765.784507L816.603646,762.007694L816.267822,760.675458L815.545987,758.754709L815.002363,757.487141L814.397396,756.523531L813.756153,755.598722L813.212859,754.913199L812.522575,754.117734L812.129635,753.774972L811.697986,753.406341L811.122287,752.934235L810.663686,752.565604L810.305545,752.216374L810.085601,751.886546L809.855870,751.511448L809.652122,751.110480L809.377941,750.269741L809.184535,749.713559L808.931434,748.859885L808.601915,747.909201L808.555991,735.847733L808.595024,733.584172L808.629339,732.200164L808.157440,726.806396L807.854924,723.339884L807.743477,722.596134L807.298704,719.575860L805.851527,719.582327L805.142399,719.575860L799.201408,721.723036L793.265319,723.857274L792.015460,724.309991L787.597825,725.894497L786.046539,726.431289L778.590597,726.418354L777.597694,726.463625L776.271504,726.605908L774.638468,726.903406L773.201923,727.265579L771.760930,727.724761L767.860826,729.238122L765.717433,730.014203L765.487705,728.487909L764.709803,721.684232L763.858298,714.279042L763.611467,712.797998L763.274937,711.368691L762.854583,710.004057L762.234842,708.497138L761.524402,707.087228L760.723261,705.774329L759.947011,704.694258L759.597950,703.937561L758.157051,702.094323L756.770038,700.322224L755.300759,698.440175L753.703813,696.098926L752.490237,694.494974L750.973073,694.359156L750.023865,694.275077L746.343551,694.171597L744.789101,694.119856L742.240348,694.003440L734.585763,693.647724L732.034074,693.524841L730.794664,693.608919L727.078889,693.854686L725.836542,693.932297L724.111041,693.919362L721.149066,693.996973L717.440724,694.081051L714.749324,694.042245L713.860791,694.139259L712.752206,694.262142L709.146657,694.572585L706.922238,694.624325L705.128590,694.663131L702.288258,694.533780L702.039804,694.520844L700.877387,694.501442L700.604916,694.494974L697.392590,694.436766L696.227236,694.410896L695.056454,694.456169L694.157176,694.482039L691.546077,694.572585L690.372357,694.611390L689.958241,694.637260L688.702174,694.708403L688.279730,694.727806L687.175123,694.740741L685.345227,694.747209L685.081084,694.747209L683.863272,694.760144L682.755728,694.766611L683.897691,698.207343L685.519725,702.087855L689.546361,709.292636L694.560447,716.950090L694.361856,717.189384L693.746974,717.900800L693.545446,718.133627L693.927889,718.773901L694.328760,719.834556L694.489801,720.248470L694.483695,720.733525L694.415543,721.865319L694.182120,723.262275L693.723257,724.685099L693.021298,726.166127L692.656438,726.715853L692.268531,727.297915L691.607053,728.132205L690.961295,728.882418L686.639721,729.147579L673.684804,729.917193L669.360288,730.175887L668.228252,730.104746L664.832147,729.891324L663.694721,729.820183L660.099963,729.988334L649.314716,730.466917L645.719471,730.622134L643.447007,730.615666L638.303216,730.589797L636.602628,730.667405L634.283065,730.770882L633.995383,730.790284L633.131370,730.822621L632.840750,730.835556L631.827798,730.777350L628.783549,730.602732L627.767659,730.538058L626.765488,730.479852L623.742804,730.305234L622.735243,730.247028L622.785280,730.143550L622.927547,729.839585L622.974647,729.729640L627.669345,719.187815L629.920997,713.878060L632.683914,707.533484L634.125758,703.775874L634.783876,702.055518L636.512638,697.968045L637.468554,695.704406L638.737187,692.502966L640.219347,688.738837L640.594339,687.736360L641.128765,686.455776L641.024835,687.354772L641.135776,687.872180L641.285292,688.628888L641.964944,689.579623L642.593752,690.323395L643.079632,690.776125L643.913853,691.390544L644.839920,691.649247L646.776097,691.746261L648.960005,691.403479L650.358404,690.957217L651.033929,690.569162L653.441069,689.780118L655.138775,688.687096L655.353960,688.603018L656.866691,687.898050L661.544805,685.343348L662.140837,685.136385L662.952054,684.845343L664.771529,684.198581L665.194536,684.049826L667.324297,683.267245L669.990833,682.206555L671.933010,681.236410L674.182055,680.111042L674.064361,679.412537L673.983292,678.106073L675.484973,677.032442L676.140953,676.553836L677.502835,675.706572L677.509901,673.727465L677.528316,670.027949L676.737960,651.413759L675.368345,655.022789L669.468225,671.082183L660.657563,671.017506L660.241915,671.942385L658.845791,671.871241L656.558719,678.267764L655.528201,681.423972L653.711852,680.925964L650.606873,680.059301L649.158839,679.102090L647.901237,678.481196L647.510701,678.416520L646.688957,678.280699L645.839648,678.345376L644.636969,678.474728L644.234644,678.455326L644.715147,677.245875L645.240313,675.932940L648.243208,668.346346L649.240608,665.817470L649.766817,664.459247L651.328815,660.371635L651.846713,659.006938L652.399414,657.635771L654.043826,653.515794L654.593608,652.138153L654.939805,651.808295L655.555241,651.180918L655.947066,650.773446L656.673346,650.010244L659.317659,647.119127L659.902681,646.543490L661.261542,645.178776L661.621990,644.797173L662.687164,643.652364L663.044677,643.264293L663.921469,642.417003L664.640395,641.673199L664.954254,641.343338L665.923799,640.308479L667.254277,638.904950L668.538699,637.494951L669.916737,636.065547L670.564050,635.425225L672.484913,633.517192L675.001117,631.020576L677.333900,628.737395L677.581055,628.498081L677.737001,628.342851L678.433849,627.657248L679.120398,626.984582L679.748067,625.742735L685.510115,619.565817L686.827404,618.168730L687.962703,617.023893L689.079911,615.827310L690.237309,614.624259L691.310384,613.472950L693.323646,611.293222L694.489596,609.812039L695.469780,607.755196L696.488092,605.200308L697.949859,601.448816L694.004180,595.200612L698.683189,572.652450L701.797766,559.877540L708.833571,533.441085L712.347631,531.241792L713.968508,530.323262L714.238631,530.193892L714.521105,529.961025L714.928985,529.766969L717.044394,528.738473L717.748393,528.389172L722.468542,527.030780L728.646813,526.332177L724.790251,536.701206L724.214002,538.247173L727.884302,538.163083L753.056960,537.593857L765.291481,506.240689L765.361458,505.360950L765.568870,502.799354L770.313224,502.682917L772.782741,507.676731L776.716279,507.424454L779.012348,506.544716L778.957103,507.896666L778.988879,508.465907L779.066821,509.921353L779.284109,510.697590L779.897379,512.418246L780.397753,513.343260L781.155893,514.753419L781.891557,513.582599L782.201735,513.078046L783.056860,512.515276L783.749199,511.557918L783.873531,510.691121L783.945314,510.445313L784.293926,509.229208L784.493473,510.108943L784.506163,510.160693L784.698413,510.988678L784.856007,511.680822L785.480762,512.689929L785.933792,513.427352L799.219359,513.472632L798.966362,514.138900L823.491385,514.067745L825.981134,514.054808L818.392738,533.770979L856.158035,533.382869L864.816675,533.292310L855.858266,557.018526L879.924893,556.779197L877.115159,564.153109L867.372410,589.709149L884.378365,589.838512L888.460298,589.877321L898.259896,589.948471L897.105780,592.904421L895.188842,597.813737L891.606445,606.998432L880.857458,634.545590L879.676164,637.559630L877.423820,643.723510L877.132855,644.376763L876.248700,646.323583L875.954801,646.970367L875.312305,648.820166L874.119612,652.248106L872.326453,652.370994L870.745497,652.474479L869.407153,652.506818L865.375468,652.590899L864.034188,652.616770L862.519927,652.629706L857.979115,652.649109L856.461917,652.655577L848.632064,652.364526L847.421321,655.598422L842.981020,667.402061L843.657298,667.395593L842.612764,669.736902L842.817424,670.092626L842.852185,670.157303L844.934579,673.733933L834.424360,678.604081L833.283501,681.611533L835.805907,680.447359L847.490060,675.040402L848.292955,674.671745L850.687923,673.559306L851.487881,673.184180L854.486739,671.787161L858.060082,670.112029L863.472051,667.583156L866.462583,666.179662L870.020239,664.517457L879.275642,660.184070L880.683433,659.485552L884.231350,657.706917L889.581246,653.949136L891.750526,652.422736L904.761335,652.442140L909.779935,652.442140L912.698674,652.435672L921.459316,652.390397L924.377572,652.370994L928.118648,652.299848L932.826601,652.209299L935.682202,644.454377L937.321333,639.991553L938.377808,637.391465L941.541933,629.591163L942.013036,628.420466L942.595533,626.984582L944.849657,621.156943L951.622310,603.647968L953.873806,597.813737L963.620815,572.639514L969.158639,558.331604L968.174454,555.996525L976.197793,551.132299L967.814982,542.315836L967.111616,532.140915L964.812829,529.307704L956.219281,523.660664L955.437298,522.412231L952.567297,517.832475L962.768632,508.452970L961.442331,506.622340L963.630557,504.578241L966.019912,502.288327L972.722129,484.195256L961.914425,484.466945L965.456730,482.817401L966.699904,475.611130L966.994016,471.969163L966.120525,470.791828L965.388948,469.808558L969.254850,465.021576L973.206971,463.229686L980.951375,464.665786L983.547377,461.690082L986.273162,462.233472L991.820975,462.129969L1000.000000,453.720331Z " data-aland="100584521" data-awater="260456" data-classfp="C1" data-funcstat="A" data-geoid="0616350" data-intptlat="+33.8623520" data-intptlon="-117.5638573" data-lsad="25" data-mtfcc="G4110" data-name="Corona" data-namelsad="Corona city" data-pcicbsa="Y" data-pcinecta="N" data-placefp="16350" data-placens="02410232" data-statefp="06"/></g><g fill="#000" font-family="Arial" font-size="12px" id="mylayer-label" stroke="none"><text text-anchor="middle" y="474.626461507"><tspan dy="0" x="569.465934259"><![CDATA[Corona]]></tspan></text></g></svg>