<?xml version="1.0" encoding="utf-8"?><!DOCTYPE svg  PUBLIC '-//W3C//DTD SVG 1.1//EN'  'http://www.w3.org/Graphics/SVG/1.1/DTD/svg11.dtd'><svg enable_background="new 0 0 1000 1001" height="1001px" pretty_print="False" style="stroke-linejoin: round; stroke:#000; fill: none;" version="1.1" viewBox="0 0 1000 1001" width="1000px" xmlns="http://www.w3.org/2000/svg" xmlns:xlink="http://www.w3.org/1999/xlink"><defs><style type="text/css"><![CDATA[path { fill-rule: evenodd; }]]></style></defs><metadata><views><view h="1001" padding="0" w="1000"><proj flip="auto" id="robinson" lon0="-84.0798362432"/><bbox h="0.39" w="0.43" x="-1141.89" y="-689.03"/></view></views></metadata><g class="" id="mylayer"><path d="M1000.000000,510.038885L923.524946,510.873795L878.045385,451.975199L872.294561,444.537048L867.787190,443.322658L863.848596,441.842620L859.612787,439.299993L853.797772,436.871217L851.015745,435.656830L848.939521,433.721400L833.464857,414.405121L825.994673,404.576251L821.343704,400.781329L816.854545,396.379224L809.709734,387.537084L800.426910,377.860090L795.804933,372.205702L794.500699,366.741069L794.391816,361.352342L794.448920,353.648754L795.775657,347.007745L797.822236,341.049822L808.977282,314.789551L810.376697,309.818338L810.741839,303.063572L810.841888,299.230817L811.015418,295.284223L810.689575,290.313040L808.420006,279.232260L804.127506,263.104479L803.488720,260.675832L801.034310,251.113051L800.067265,244.737878L799.782273,236.009984L802.083297,210.623325L803.127914,197.114210L801.416356,191.649865L798.127081,188.500281L788.199057,223.904811L607.002650,179.924321L599.433271,183.681044L584.833491,191.687812L575.307285,198.783873L566.950217,203.906708L561.561910,206.600942L556.311730,207.056306L552.098450,206.828624L547.835960,204.020549L544.109533,198.745926L542.650746,187.172144L545.407504,177.685468L548.408460,169.489001L554.607482,160.533626L564.942750,147.859534L643.119844,51.780863L568.405479,51.515246L551.847875,97.960509L511.749463,97.732835L489.504355,98.339967L437.471991,98.150238L407.275176,98.036401L386.269949,167.439888L363.917874,235.402827L344.005273,235.554616L312.074257,235.972036L294.057819,236.085878L275.807761,236.237668L231.890566,236.579193L169.251891,237.414035L162.791088,321.354599L95.980695,515.124249L0.000000,789.366019L25.122541,788.872621L39.329599,789.138297L45.631909,789.062390L49.679597,788.720807L51.963880,788.227409L58.568156,785.722469L262.516674,786.899032L287.725104,786.936985L279.521019,804.547518L296.817323,804.433656L303.281918,786.861078L395.479404,786.443588L388.382999,793.844554L378.097822,804.016164L362.972895,817.945248L354.264121,824.701065L342.276161,831.077355L327.838494,835.593900L315.201068,837.871153L294.892440,839.768864L283.801947,840.831583L277.121608,859.922627L297.794264,857.379678L322.805341,855.406048L349.333168,854.760823L316.191297,947.484754L327.052074,944.751960L332.681404,943.271698L338.678007,941.222106L345.573682,939.286381L352.717506,935.490844L356.460170,932.833972L364.474743,927.785919L366.972750,926.799083L370.715681,925.584515L376.402902,924.711545L382.871863,923.421068L389.041895,921.751040L392.722078,920.536474L397.642839,917.917568L401.957586,915.070934L405.479119,913.097269L409.085845,911.996572L412.547451,911.882707L420.724771,911.996572L427.547235,911.617021L440.372417,911.123606L447.194879,910.744055L452.173528,908.732438L457.328665,905.733991L461.418686,902.052359L465.252894,898.978009L467.395852,897.763451L469.879821,896.814579L473.769912,896.814579L477.101945,896.966399L477.995370,893.360685L479.862565,882.961071L480.925109,878.558325L482.024134,874.990586L482.585253,873.472401L483.530994,871.422851L484.956240,868.500348L500.194920,870.473987L516.293907,872.751263L538.342039,875.483997L541.760782,875.825588L547.573717,876.394908L557.387432,877.343775L570.608150,877.647412L568.697382,884.175623L567.531595,888.009055L567.237304,890.248389L567.100631,892.146130L567.273602,894.309557L567.587890,897.194128L568.637293,901.824629L569.045077,909.719269L569.601760,914.919114L570.147143,917.348241L571.797378,932.492374L604.006321,932.264642L623.601734,879.241509L629.750573,879.241509L665.591752,878.861962L690.117726,878.710143L721.782402,878.596279L733.811760,878.558325L761.547593,878.634234L806.221534,878.292642L814.611783,878.254687L821.590309,878.216733L836.505855,878.178778L861.721999,878.026959L869.436097,877.951050L906.290787,784.507954L939.857372,682.148669L1000.000000,510.038885Z " data-aland="4183752" data-awater="1219" data-classfp="C1" data-funcstat="A" data-geoid="3930282" data-intptlat="+41.0271322" data-intptlon="-084.0789358" data-lsad="47" data-mtfcc="G4110" data-name="Glandorf" data-namelsad="Glandorf village" data-pcicbsa="N" data-pcinecta="N" data-placefp="30282" data-placens="02398967" data-statefp="39"/></g><g fill="#000" font-family="Arial" font-size="12px" id="mylayer-label" stroke="none"><text text-anchor="middle" y="535.761834975"><tspan dy="0" x="507.731960248"><![CDATA[Glandorf]]></tspan></text></g></svg>