<?xml version="1.0" encoding="utf-8"?><!DOCTYPE svg  PUBLIC '-//W3C//DTD SVG 1.1//EN'  'http://www.w3.org/Graphics/SVG/1.1/DTD/svg11.dtd'><svg enable_background="new 0 0 1000 1001" height="1001px" pretty_print="False" style="stroke-linejoin: round; stroke:#000; fill: none;" version="1.1" viewBox="0 0 1000 1001" width="1000px" xmlns="http://www.w3.org/2000/svg" xmlns:xlink="http://www.w3.org/1999/xlink"><defs><style type="text/css"><![CDATA[path { fill-rule: evenodd; }]]></style></defs><metadata><views><view h="1001" padding="0" w="1000"><proj flip="auto" id="robinson" lon0="-112.588707911"/><bbox h="1.64" w="2.21" x="-1514.35" y="-719.9"/></view></views></metadata><g class="" id="mylayer"><path d="M1000.000000,187.485165L999.945132,186.341315L999.820767,185.454099L999.295450,184.772189L998.717763,184.200264L997.604250,183.686999L995.919236,183.459696L994.118563,183.415702L984.892450,183.489025L981.436560,183.379040L977.808879,183.386372L973.745912,183.320381L971.604916,183.379040L962.156159,183.276387L957.227320,183.283719L952.508470,183.159069L948.199035,183.225060L944.227742,183.181066L943.815514,182.858442L943.573673,182.352510L943.645330,181.531286L944.020058,180.666068L946.429240,176.361981L948.418324,172.505173L958.394703,153.895788L959.292352,152.458662L959.408492,151.725435L961.054143,148.961170L964.084055,142.574778L964.611794,140.895694L964.695061,139.949835L964.219455,138.454059L961.665653,135.389188L959.807788,132.742256L958.835859,130.967860L959.042454,130.293297L959.082214,130.161317L956.432300,130.205310L950.762063,130.315294L946.230187,130.205310L942.127954,130.190646L937.292698,130.205310L926.816522,130.183314L923.251823,130.095327L913.909162,130.102660L911.265964,129.985344L909.088567,130.044002L895.576649,129.934019L888.218081,129.846032L881.519723,129.831368L873.818642,129.838700L862.699251,129.780042L859.143283,129.721385L851.693055,129.611402L851.522817,129.611402L844.305486,129.589405L840.232262,129.508751L830.278178,129.545412L824.305839,129.457425L814.531972,129.486754L805.717804,129.472090L799.163185,129.450093L791.514181,129.428096L781.631992,129.318113L779.402843,129.325445L773.142706,129.332778L760.745151,129.208130L744.078373,129.222795L733.286846,129.142140L722.768123,129.120144L714.158826,129.017493L705.569620,129.002828L700.681697,128.922174L680.429028,128.900177L674.518758,128.775530L673.054294,128.716872L671.544755,128.731537L660.649670,128.834188L659.780242,128.834188L612.231722,128.760866L611.530812,128.775530L601.646464,128.658215L573.132793,128.518903L567.322573,128.526235L552.788356,128.372259L545.195920,128.438248L538.562272,128.416252L527.273130,128.379591L521.401652,128.364926L504.059667,128.460245L492.356174,128.379591L490.850076,128.364926L474.084541,128.210950L433.608717,128.122964L432.147924,128.240279L412.996329,127.954323L402.290515,127.998316L394.819109,127.939659L390.192999,127.778350L385.336062,127.822343L373.193209,127.859004L364.627981,127.924994L363.182125,127.785682L360.212138,127.837008L349.248687,127.771018L314.444176,127.719693L312.601963,127.719693L287.859352,127.749021L261.009814,127.521723L256.129008,127.587713L253.843964,127.734357L196.963824,234.266124L196.564697,234.273457L140.715900,340.428374L127.398896,365.748713L126.933094,370.170449L124.513612,372.216330L121.121978,378.412646L117.494318,385.041621L117.055176,386.222226L112.275730,394.354482L112.550003,394.479142L112.834562,394.801793L112.722277,395.527758L112.293458,396.334386L112.526241,397.177679L112.250703,397.947642L111.732241,398.064970L109.903812,399.113587L109.353691,399.553566L109.173584,400.235534L111.633653,401.247488L113.042768,402.692088L114.527832,402.369436L114.812088,402.772751L116.088831,402.853414L118.001450,402.332771L118.878703,402.215443L119.674094,402.252108L120.730666,402.655423L120.972356,403.058738L121.065916,403.740707L120.556504,404.950653L120.558849,405.632623L119.764868,406.519917L118.741044,407.084559L117.003368,406.681243L116.064991,407.165222L114.610188,408.529163L113.540373,409.695113L114.761154,410.384417L115.114540,412.796982L115.522489,414.248923L116.084634,414.850232L116.412722,415.216883L118.122056,416.096848L119.806260,416.177511L121.354003,415.656866L121.766911,415.818193L124.496477,416.060183L125.889100,416.346171L127.602157,416.544163L128.844291,416.426835L131.105082,415.502872L131.760922,415.458874L132.740635,415.583535L133.157979,417.189471L133.495761,417.915443L132.404664,419.888032L132.259878,421.178650L133.104183,422.747924L133.331575,423.429899L133.242739,424.111873L132.749233,424.353865L132.329029,424.801182L132.441124,426.729779L132.779231,427.375089L132.781316,428.137729L132.536790,429.787671L132.783682,430.432983L133.913616,431.041629L134.618708,432.449581L134.722665,433.615543L135.040109,434.906167L135.294589,436.475450L134.444087,437.560749L134.408795,438.565385L134.751778,442.187942L135.386359,442.950587L135.424395,444.160552L135.781092,446.052499L136.874842,446.294492L136.967020,447.665788L137.634131,447.863782L138.953561,449.557737L140.101448,449.961060L140.921231,451.325025L144.584740,452.293000L145.708651,452.901651L148.679595,456.362901L150.765836,456.282236L151.887026,457.330878L152.263301,459.186169L152.197621,459.904820L153.042997,460.190814L153.558435,460.594138L154.162208,463.131418L156.157236,463.050753L156.727062,463.248748L157.623564,464.216729L157.886407,465.507369L156.535041,468.565311L156.714472,469.085968L157.983501,469.936619L159.750214,470.457277L161.297638,470.017284L164.092488,470.743272L166.999460,470.743272L169.556943,469.855954L170.300129,469.819288L170.772721,470.303279L173.148834,470.787271L174.241820,472.312578L174.585237,473.199896L175.508164,473.603223L177.302872,473.727887L178.354100,473.969884L180.313464,473.361227L182.732453,473.764554L184.213626,473.449225L185.458292,474.013883L187.068956,473.969884L187.167885,474.893869L187.836633,475.260530L188.565834,475.421860L188.399587,475.986518L187.715461,476.507177L186.868663,476.910504L186.495281,477.269832L186.195241,477.834490L187.240686,477.995821L188.075391,477.878490L188.719453,478.039821L188.758744,478.641145L188.481794,479.242470L188.042464,479.645798L186.667809,480.012459L185.763874,480.775116L185.570977,481.985100L186.246906,481.743103L186.836820,481.743103L187.636388,482.630425L189.237476,485.248393L189.279302,486.531712L189.340748,488.819687L189.398518,490.748335L189.433148,491.884992L189.092828,494.906300L188.804753,496.306956L188.428391,498.125611L188.176670,501.586925L188.643238,502.070923L189.517567,502.474254L190.087534,502.488921L190.899058,502.518254L192.701241,501.953590L193.248306,502.034256L193.244779,502.716253L193.931436,502.877586L194.374918,503.324917L194.420333,503.926248L194.057705,504.688912L192.671352,506.016241L191.781710,506.500240L190.826598,506.580906L189.011978,505.818242L188.273999,506.096908L187.187362,506.940239L185.721478,507.306904L184.868610,507.710237L184.463410,508.472902L184.892927,509.118234L185.474680,509.396900L186.777593,508.993567L187.370467,508.472902L188.156814,508.274902L188.689628,508.634235L187.748385,509.638900L188.719464,510.203566L187.937299,511.252231L187.984440,512.777564L187.113996,513.305564L186.111079,513.144230L185.555268,513.503564L186.008172,514.104897L184.278699,516.158232L184.507916,517.008900L184.244622,518.614903L183.537154,519.179571L181.915409,518.900904L179.820347,519.421572L179.246960,519.905573L178.921690,520.426241L180.104133,521.108243L180.388560,521.511578L179.783067,522.479582L179.864252,523.608919L180.842467,523.564919L181.708728,523.124917L183.306396,521.914913L184.130367,521.394244L185.444312,521.313577L185.938211,522.684916L187.384310,524.496257L186.880528,525.948264L185.177356,528.558946L185.290378,529.284951L185.890790,529.768954L187.159570,529.006282L188.331604,528.082276L189.443622,528.038276L190.514409,528.243611L191.212411,528.646947L191.362770,529.130950L190.787209,529.607620L190.224874,530.414292L190.936277,530.780961L192.473495,529.776287L194.024807,529.328951L194.913423,529.453619L195.172585,529.812954L195.097921,530.296958L192.724974,532.027637L192.746780,532.753643L193.681868,532.870978L194.832845,532.753643L195.371775,533.112980L195.210850,533.919653L195.457969,534.564992L199.467967,534.286323L200.969342,534.528325L202.217350,534.491658L202.603297,533.684984L202.348041,532.196305L202.623007,531.506967L203.378831,531.022963L204.785917,531.030296L204.970424,531.873636L206.261003,531.836969L206.859077,532.680309L205.414442,535.056330L206.140522,535.819004L207.449795,534.212989L208.706665,534.491658L209.793251,533.648317L210.394237,533.970987L210.726788,534.535658L210.321648,535.298332L209.594728,535.899671L207.054584,536.743012L206.372145,537.432353L205.856302,538.231694L206.702077,538.437030L206.377921,540.409718L207.216264,540.365717L208.145113,539.727710L209.399919,539.163037L210.123938,539.082370L210.735985,539.727710L210.958117,540.248383L209.877345,541.172393L209.185937,542.382408L210.686345,543.233085L211.288603,542.866414L213.439084,540.695721L214.037724,540.255716L214.762020,540.094381L214.955254,540.497719L214.042438,541.781067L214.058747,542.345741L215.258660,542.147738L215.765263,543.071750L215.352803,544.523768L215.868106,545.007775L216.706451,544.963774L218.026465,543.761092L218.867726,544.318432L219.842058,544.281765L221.761961,541.949736L222.308777,542.111071L222.341678,543.159751L223.052026,543.196418L224.012134,543.438421L224.368079,543.959094L224.055826,544.890440L222.402969,545.609116L221.845662,546.738465L222.776871,546.863133L223.701464,546.496461L224.473589,546.577129L224.692117,547.024469L224.120870,548.351821L220.884747,553.551237L220.660807,553.881242L220.473359,554.211248L218.831706,556.843961L219.338353,557.767978L218.434537,558.530659L218.669414,559.542679L217.947786,560.386028L216.602038,560.870038L215.865927,562.072729L215.099327,562.153397L214.560898,561.632720L213.568448,561.955393L213.844807,562.637407L213.659484,563.158085L211.590345,565.336131L211.890728,567.587515L210.113395,569.479559L209.598981,570.528250L210.977970,571.012262L211.407751,571.290935L211.378799,572.009620L210.519216,572.940976L210.866811,573.820998L209.770844,574.510349L208.834606,574.063004L207.015812,574.143673L206.094451,575.031029L205.689106,575.874385L204.748002,576.879078L206.633851,577.084417L207.081344,577.524429L207.200287,578.331117L206.141206,580.061832L205.499747,580.582513L204.716240,580.259837L203.852858,580.179168L202.963263,580.663182L201.505343,581.953885L201.051889,582.635905L201.515483,583.721270L201.263967,584.366623L201.554295,584.850637L201.205736,585.415321L199.020952,587.307379L198.985827,588.392746L198.409668,589.397445L199.334985,590.644152L199.302970,591.128168L198.249854,591.736854L197.662606,592.418877L197.657689,595.073633L196.898813,596.159004L196.125211,596.848362L195.601188,596.804360L195.464926,596.041667L195.074976,595.916996L194.447984,596.078335L193.813737,596.929031L193.730244,597.933733L193.368307,598.535088L192.749156,598.498420L192.105516,598.175742L191.496076,598.212410L190.163616,599.862469L189.265653,600.705834L188.249831,601.072514L187.096087,600.507826L185.755130,599.539791L184.683980,599.415120L184.147685,599.737798L183.651406,600.500493L184.046275,602.150554L183.762772,603.279930L182.798069,604.409306L182.311865,603.961956L182.297135,603.565941L181.454700,603.331265L180.559234,603.081922L179.120061,603.558607L178.457971,604.805321L175.846860,605.370010L174.358394,606.374716L173.747519,607.181414L173.903796,607.746103L174.436473,608.186121L170.177681,611.933606L168.977996,612.050945L167.800786,612.732973L166.896745,613.576342L166.425768,614.383043L161.342817,618.731899L160.350621,618.973909L159.025157,620.015289L157.285216,621.665364L155.455650,624.686837L155.268711,626.058235L155.615265,627.627644L154.459766,629.116383L153.808838,630.685793L153.001608,631.690510L151.302030,632.497217L149.164086,633.098581L147.504811,634.264640L145.865877,634.785333L144.619415,636.193406L144.626093,637.887494L143.716514,638.569530L142.769940,638.210178L141.011366,638.452191L139.267569,637.887494L134.518755,636.750768L134.519316,635.386697L133.094568,635.504037L132.287634,635.225356L129.464527,637.036783L128.624205,636.992781L128.237560,636.186072L127.173594,636.391416L125.878719,637.718819L124.798301,638.562197L123.421684,638.840878L121.618908,637.711485L120.256731,637.630814L116.572418,640.204951L115.435022,640.204951L112.090049,641.979713L106.650821,643.666472L105.351210,643.387790L104.111420,644.267838L102.427971,645.719919L100.741990,647.612026L100.071882,647.934711L99.386493,647.003325L98.462412,647.208670L97.442635,647.766035L94.362220,650.142171L94.022570,650.186173L93.099619,649.702145L89.749682,650.787541L88.464551,650.985553L87.614995,651.909607L87.096230,654.329750L85.607765,655.334477L84.460880,656.383207L83.793802,657.307263L83.061124,657.827961L80.698097,658.429331L78.207686,660.805478L76.486086,662.088892L73.625434,664.223027L71.979534,665.352433L70.325809,666.679852L69.044339,667.970603L69.033214,668.850661L68.706955,670.060741L67.395668,670.823458L66.176784,673.118946L64.798780,674.167684L64.538733,675.253091L64.877288,675.898469L64.075902,676.983877L63.371066,678.311303L63.686261,679.000685L62.403654,679.961419L61.390353,681.090832L61.661301,681.611536L62.935314,681.090832L63.972661,681.611536L64.299001,682.623609L62.003363,684.633087L61.908280,685.843175L62.415175,686.767243L62.051443,688.300023L61.193095,689.744797L60.713603,690.991558L60.972092,691.959631L62.812310,692.847032L61.494144,694.218470L61.992741,695.501902L58.751038,700.496294L56.738546,701.457037L55.562881,703.591208L54.646441,704.881980L54.237454,706.935481L53.152798,709.150331L53.286734,710.353098L53.094399,711.563200L52.500109,712.934649L52.111664,714.262096L51.512050,715.391526L50.217291,716.718973L48.884929,719.652562L47.667638,719.894584L46.700457,720.261283L45.301965,719.733236L44.039124,720.576644L41.151198,721.742747L39.958956,722.109446L39.314582,723.231546L38.803254,724.962368L38.547880,726.898543L38.004909,729.032738L37.285818,730.719561L36.487239,731.284280L35.375313,731.247610L33.704685,732.171696L32.267663,732.655741L31.401202,733.176456L31.532067,733.777846L32.085103,733.939194L32.785841,733.902524L32.594569,734.423240L31.912286,735.112638L29.611687,736.799465L29.177581,737.525534L27.327112,739.212363L26.764776,740.099782L26.772251,741.632597L25.830827,742.798711L25.084808,743.356099L23.287159,744.771571L21.293356,747.587851L20.965335,748.709964L21.845629,749.274687L21.739522,750.162110L20.889356,751.328228L20.748708,751.936957L21.341652,752.619026L22.082538,753.022401L22.835106,753.220421L24.591367,752.134977L24.836124,753.301096L25.182843,753.667800L25.984320,753.785146L26.516439,754.833920L27.149546,754.672570L28.790955,753.711805L29.318459,753.909825L29.249596,754.555225L27.898217,756.161391L26.092571,757.855567L25.755336,758.742993L26.433702,759.344390L27.219854,759.227044L27.137374,759.989791L27.786544,760.554517L29.437679,759.667090L30.253030,759.586415L30.580535,759.909116L29.975418,760.877218L27.466127,763.209466L25.938105,763.612842L24.375063,765.182344L22.345580,766.473150L21.977689,766.707842L20.605405,767.917973L17.762056,770.455584L16.236765,772.905188L15.994198,773.579930L15.316622,775.486810L15.175818,777.459699L15.630678,779.593941L14.937060,781.324805L13.776251,782.652291L12.451182,783.613069L10.707882,785.189919L10.074849,786.634754L9.689082,788.805676L9.747890,791.181958L9.413447,792.832155L7.210260,796.983322L6.693345,798.633524L7.585085,800.804457L7.540657,801.816582L6.623179,802.777368L5.672842,803.628140L4.688961,804.794286L1.719308,810.309649L0.361986,811.915854L0.000000,812.597942L0.041693,813.287364L2.529213,815.179608L3.753824,816.631797L5.668162,819.008108L7.232665,821.699796L8.471382,822.873285L12.299125,824.120118L13.892693,824.200796L17.243677,824.890221L17.970612,825.572313L18.209746,826.657792L17.793107,827.706600L16.164077,829.400830L16.349387,830.163600L18.821914,833.104670L19.189958,833.786764L18.971808,835.642354L19.057910,836.683832L20.249093,837.087221L21.504320,838.906142L22.863951,839.588238L23.165399,840.556374L22.896960,842.609998L22.776317,842.837363L21.715586,844.824980L20.541121,846.350531L19.446052,848.162125L18.978018,849.812364L19.142657,851.462604L18.995800,853.963636L18.562412,855.892587L17.287301,858.628326L16.824945,860.439930L17.368670,861.811469L19.038492,862.940973L22.849794,863.623076L24.089477,864.107149L24.675809,865.478690L24.840744,867.048263L24.893553,868.771860L38.815625,869.820688L39.474222,868.625171L40.280357,867.679026L43.838270,867.187617L46.930885,867.378313L50.635788,867.745036L56.597030,867.723033L67.570778,867.781708L78.975678,867.715698L86.423245,867.781708L92.394337,867.385648L94.049732,867.326972L97.694246,867.532337L99.368296,867.943066L108.692503,850.252428L117.969541,832.422576L127.063840,815.282288L144.743870,781.676846L147.647788,776.044206L148.797935,774.151994L178.022476,774.423357L201.995239,774.687387L205.421048,784.097125L207.449251,788.116261L207.916782,790.800579L206.163602,794.827061L197.916077,805.395694L163.738243,870.979533L171.029301,871.478277L175.682803,870.114066L192.154097,862.618257L206.277769,857.850877L225.620970,853.266867L233.023929,851.535948L249.396012,845.947140L279.090380,834.864913L288.944281,831.850498L291.466630,831.843163L296.358743,831.175739L316.857802,830.662335L323.777562,831.161070L350.646894,837.527283L361.690332,839.874278L377.355333,842.052585L380.063709,843.724823L383.875987,847.582708L388.764024,849.423641L404.452899,849.423641L413.840151,850.259762L427.390243,853.948968L447.702606,856.633363L449.052040,857.300796L460.081488,857.850877L473.230235,856.538016L494.323235,852.702118L494.677763,852.687449L496.774400,852.416076L498.837537,852.276723L501.113866,851.792652L506.288633,851.073881L512.026030,850.039730L518.118947,849.034918L523.805891,848.279475L528.456973,847.538702L530.726511,847.113307L532.306942,846.702582L534.793748,845.844459L535.581653,845.448402L536.985631,844.590279L538.130757,844.208892L538.672750,843.966857L539.422654,843.504791L540.918962,842.426638L541.533534,841.898564L542.236047,841.135789L543.193333,839.984294L544.360535,838.700780L545.704959,837.541951L546.206757,837.226574L546.881081,836.918531L547.386880,836.779178L547.907846,836.771844L548.508700,836.889194L548.998667,837.123893L549.695384,837.622629L550.353520,838.297390L551.004462,838.744786L551.659874,838.942814L552.901054,838.862136L553.823482,838.407406L554.110170,838.084694L554.900703,836.823185L556.138175,835.062940L556.692109,834.454189L558.441719,833.368706L559.536173,832.899308L561.307532,831.967847L562.336460,831.381100L562.616677,831.219745L563.909850,830.214941L566.483921,828.021976L565.927831,838.972151L565.998393,843.944854L565.979012,849.328294L567.852414,849.673010L572.595587,849.504319L574.922748,849.027584L576.461151,848.374823L579.254374,846.548560L580.437370,846.049821L581.780345,845.719774L582.764768,845.939806L583.591579,846.629238L586.074764,850.597145L587.039683,851.829324L588.940814,853.567578L590.087306,854.491714L592.512757,856.457337L594.931351,859.721156L595.757515,860.469268L596.773641,861.100029L599.511781,862.992314L601.470841,863.623076L606.169120,864.239169L612.990826,864.957945L615.617526,864.811256L616.950659,864.671901L617.491259,864.547216L631.433555,859.809169L635.245558,858.378956L638.468796,857.095432L642.115537,855.621214L643.669455,854.939113L646.730181,853.376884L647.470706,853.127514L648.044919,853.054170L649.531264,853.142183L650.843203,853.318208L657.586200,840.116312L677.796697,802.557340L714.173661,734.965958L720.487911,722.498147L722.318758,719.080512L744.254027,678.069286L782.276622,608.061449L783.323838,606.110705L789.184693,594.457612L799.625140,569.750898L840.464513,491.738326L844.658457,483.723078L845.901481,481.347108L849.599469,474.277879L849.854212,473.786553L862.923808,448.824423L893.833887,389.338732L906.935024,364.164809L915.464468,347.761200L915.561832,347.577879L917.188330,344.446760L918.088939,342.796874L922.447698,334.246818L924.113545,331.431026L929.153524,321.759097L929.573696,320.945160L930.466862,319.229296L932.840200,314.543671L934.673233,311.207277L940.700569,297.502443L941.656786,295.324636L943.221546,292.699537L958.037308,266.287379L962.575288,259.416744L963.454294,257.693588L966.066809,252.890757L966.802928,251.402248L974.900181,236.333892L976.454034,233.283569L979.609726,227.527560L981.434172,223.956642L988.488999,210.714224L989.924387,207.898569L996.009056,196.562657L998.605043,191.437316L999.397721,189.648216L999.851231,188.394379L1000.000000,187.485165Z M307.503134,394.141825L321.052809,368.659872L321.692017,367.457277L366.468656,367.831255L425.608158,368.366556L430.627116,358.899803L439.550859,342.063592L441.037471,339.255124L495.906194,235.549313L501.899756,224.139954L502.989262,222.079529L527.444462,222.079529L530.610238,216.411535L531.910873,214.079815L547.020330,213.977161L547.820750,213.969829L552.201033,205.537528L561.143051,188.321055L561.883419,186.905908L596.551884,186.964567L584.965598,209.086423L599.715612,209.145083L593.905858,220.884336L622.816684,220.920999L729.240324,221.837557L739.321088,221.815560L742.419888,221.808227L762.577175,183.980294L783.119147,183.745658L790.041663,170.804073L793.472099,170.767411L794.149173,170.774744L802.117519,171.317336L802.520114,170.422792L803.674226,168.457730L803.875674,168.113111L805.391086,165.216848L805.469047,165.070201L809.971390,156.601399L812.192789,156.608732L827.073170,156.535409L837.357498,156.484083L852.370388,156.447421L852.105327,156.946017L856.072952,156.916688L866.013684,156.814036L867.649218,156.814036L867.231681,157.576593L863.976851,163.882368L862.972632,165.840094L861.372210,169.594240L858.699040,174.748866L856.818994,178.503025L852.173933,187.184538L850.906795,189.545562L849.806629,191.466646L848.948575,192.955120L845.730301,199.055674L841.937164,206.043465L841.328730,207.165326L837.918078,213.456557L836.256667,216.616844L834.929316,218.999893L833.238638,222.306835L828.494299,230.959166L826.007893,235.248680L825.527339,236.187242L821.551211,236.209239L813.420910,236.267899L794.833686,236.392552L768.434213,236.663855L767.613355,236.663855L766.697056,238.364998L763.309097,244.956940L756.436995,257.612930L754.045190,261.587188L752.391527,264.630212L758.617548,264.608215L773.059238,254.870549L777.884719,251.534234L780.719903,249.906407L782.391801,249.231813L783.479099,249.085162L784.659956,249.048499L785.594806,249.165820L786.086722,249.327136L786.885014,249.598440L787.215278,249.972400L787.480141,250.984293L786.758459,252.399476L785.381653,255.024533L784.137217,257.583600L780.946640,263.816295L778.962189,267.687906L772.922692,278.870149L768.737892,286.459438L765.678333,292.171584L764.299883,294.994665L761.742139,300.002892L756.644115,309.506084L755.470058,311.933217L752.927971,316.626170L743.253517,334.972765L742.707165,335.955361L740.409558,340.509035L738.375181,344.109450L737.454867,345.796000L737.112436,346.646609L735.850272,349.022448L727.395715,364.868766L726.797542,365.983365L607.413382,395.505759L571.017361,404.503340L560.189990,407.187221L539.589312,412.276337L526.513988,415.436875L517.692849,417.629454L504.185405,420.870661L493.816915,423.503229L481.695842,426.458455L470.359038,429.311021L458.174903,432.258921L423.576988,440.845982L397.951094,447.093803L384.710491,450.129722L380.594781,451.134363L347.629048,459.200836L348.696083,457.169549L349.838860,454.984267L350.235784,454.214286L353.659231,447.805117L331.780559,447.629122L324.830256,447.570457L325.339438,446.646482L327.021929,443.067917L327.390191,442.283273L327.993876,440.757985L328.982329,438.932040L331.010927,435.514814L335.126181,427.323758L337.441192,423.459231L338.158111,421.823959L338.096343,421.024656L293.427748,420.672669L307.503134,394.141825Z " data-aland="87567380" data-awater="186488" data-classfp="U2" data-funcstat="S" data-geoid="1602935" data-intptlat="+42.8876302" data-intptlon="-112.5893865" data-lsad="57" data-mtfcc="G4210" data-name="Arbon Valley" data-namelsad="Arbon Valley CDP" data-pcicbsa="N" data-pcinecta="N" data-placefp="02935" data-placens="02407754" data-statefp="16"/></g><g fill="#000" font-family="Arial" font-size="12px" id="mylayer-label" stroke="none"><text text-anchor="middle" y="493.804138865"><tspan dy="0" x="478.434766001"><![CDATA[Arbon Valley]]></tspan></text></g></svg>