<?xml version="1.0" encoding="utf-8"?><!DOCTYPE svg  PUBLIC '-//W3C//DTD SVG 1.1//EN'  'http://www.w3.org/Graphics/SVG/1.1/DTD/svg11.dtd'><svg enable_background="new 0 0 1000 1001" height="1001px" pretty_print="False" style="stroke-linejoin: round; stroke:#000; fill: none;" version="1.1" viewBox="0 0 1000 1001" width="1000px" xmlns="http://www.w3.org/2000/svg" xmlns:xlink="http://www.w3.org/1999/xlink"><defs><style type="text/css"><![CDATA[path { fill-rule: evenodd; }]]></style></defs><metadata><views><view h="1001" padding="0" w="1000"><proj flip="auto" id="robinson" lon0="-90.8778182024"/><bbox h="0.09" w="0.11" x="-1229.47" y="-700.13"/></view></views></metadata><g class="" id="mylayer"><path d="M1000.000000,567.209890L945.206290,568.761214L806.743506,572.949790L790.615677,554.023640L789.130414,551.696656L748.572453,486.541214L727.669610,461.409891L723.922597,454.894368L651.099374,347.233445L643.872313,337.925613L725.996514,284.405673L729.128701,276.804303L818.051202,62.881307L737.206331,62.726178L551.847742,62.105666L541.171383,62.105666L512.807896,61.950538L514.661772,57.451821L500.383752,57.451821L455.234338,57.451821L351.043381,57.451821L335.736314,57.451821L299.848318,57.451821L292.902254,57.451821L280.425065,57.451821L249.547264,132.068604L223.847179,193.809954L212.851108,220.181950L194.311890,264.859299L185.872980,285.026194L142.707148,255.551509L62.496538,200.790773L0.000000,259.429754L10.759055,266.720858L157.910052,367.245298L142.766747,381.207069L126.726162,396.409898L164.546946,422.937314L269.827399,496.779911L339.091431,545.336234L391.534765,580.396150L412.666374,594.358081L420.590441,599.477459L442.302154,613.904804L466.913344,630.348888L442.060528,670.062962L393.814957,666.960297L370.656928,665.408965L366.750744,672.079695L300.491697,667.115430L288.526386,666.184631L175.063542,937.514655L374.064000,938.445468L864.809032,939.686552L925.915446,941.548179L922.023079,928.827068L901.342502,890.974059L799.469605,744.837350L783.523412,721.722413L775.840377,710.397656L774.419783,708.225786L787.068928,700.003708L794.751951,711.328458L804.207739,711.793859L811.991288,712.259260L839.971145,713.034928L865.440634,713.034928L885.506700,712.724661L897.918653,712.259260L946.215405,710.242523L1000.000000,567.209890Z "/></g><g fill="#000" font-family="Arial" font-size="12px" id="mylayer-label" stroke="none"><text text-anchor="middle" y="505.981999666"><tspan dy="0" x="518.935621052"><![CDATA[N]]></tspan></text></g></svg>