<?xml version="1.0" encoding="utf-8"?><!DOCTYPE svg  PUBLIC '-//W3C//DTD SVG 1.1//EN'  'http://www.w3.org/Graphics/SVG/1.1/DTD/svg11.dtd'><svg enable_background="new 0 0 1000 1001" height="1001px" pretty_print="False" style="stroke-linejoin: round; stroke:#000; fill: none;" version="1.1" viewBox="0 0 1000 1001" width="1000px" xmlns="http://www.w3.org/2000/svg" xmlns:xlink="http://www.w3.org/1999/xlink"><defs><style type="text/css"><![CDATA[path { fill-rule: evenodd; }]]></style></defs><metadata><views><view h="1001" padding="0" w="1000"><proj flip="auto" id="robinson" lon0="-88.5710148979"/><bbox h="0.57" w="0.65" x="-1240.91" y="-574.66"/></view></views></metadata><g class="" id="mylayer"><path d="M1000.000000,222.221317L998.786981,220.939393L989.863920,220.494643L988.277163,218.480190L989.301302,215.471588L989.921387,214.006529L990.212992,213.300161L983.652354,207.701536L979.947187,206.105665L973.061759,202.076742L972.584721,198.780346L973.836171,194.463634L976.889326,192.318357L978.959633,191.167233L979.974406,186.693540L981.960509,184.260477L985.050287,181.539631L985.452532,180.676285L983.398478,177.353709L980.868150,176.647335L977.031430,178.949592L969.067905,189.571355L966.067579,191.010261L964.299092,190.146917L963.982918,187.269103L963.598021,179.237375L967.576537,173.900321L966.227900,168.144666L964.531924,164.560459L963.238211,160.112898L961.733675,157.365872L957.738802,155.796142L952.166892,154.200250L951.702160,153.781655L953.619235,152.185761L958.552869,149.020134L959.807753,147.162617L958.858746,143.996986L957.280868,137.534905L955.747808,136.383764L954.444088,135.939005L954.296168,132.930338L956.739310,128.247279L956.910627,127.881006L957.836532,125.735692L953.857390,118.122434L950.342228,116.395714L944.635367,116.238739L942.798427,115.087592L941.420120,110.482998L940.763524,103.314473L941.100102,98.709866L940.326944,95.387219L938.297350,92.954099L938.049835,90.364001L938.800844,87.773901L938.220832,86.779721L935.700128,88.061690L932.617144,89.186683L931.227210,87.616925L932.067750,83.744854L936.086377,80.291381L937.690948,71.239082L936.994376,69.224550L935.766547,68.518156L931.179629,67.942575L930.971198,67.837924L925.263268,65.064670L924.311928,63.704204L941.764724,64.750716L943.300690,57.582105L934.408455,57.555943L925.892823,57.503617L881.410994,57.294314L845.761762,57.241989L838.888268,57.215826L777.475078,57.006523L765.999725,56.980360L758.838563,56.823383L750.548644,56.666406L746.706526,56.666406L730.513195,56.666406L701.577925,56.666406L612.388584,56.352452L602.729023,56.352452L601.890043,56.326289L582.412442,56.273963L573.766574,56.221638L564.115658,56.116986L526.081849,55.829195L496.713503,55.750706L459.111722,55.619892L422.086322,55.672218L403.975200,55.698381L376.649420,55.462915L294.355307,55.175124L258.576910,55.044309L239.559900,56.247801L226.829230,57.555943L226.198669,57.634431L218.373288,64.332112L214.753421,70.375712L207.849118,75.843722L206.266247,77.858251L203.309780,84.608221L198.130912,92.509334L195.530458,95.936633L193.961717,97.977314L192.044952,101.142983L190.348090,103.026685L188.006012,106.610950L188.557155,109.201037L188.004594,112.078909L185.690411,114.668992L183.017619,115.950952L176.811540,125.447906L170.883298,137.953501L170.171778,142.427251L167.784217,146.168452L167.345705,149.177108L163.897302,151.636355L161.117221,153.363060L159.880153,157.104250L161.006379,162.127382L158.053172,171.336439L154.778041,178.661810L149.911287,187.583047L147.908092,194.489796L146.104856,196.216482L144.956205,198.230947L142.933121,201.239562L140.060484,213.614102L137.605124,218.637160L134.513524,223.084654L132.182341,226.407190L130.612140,232.869122L127.074195,236.610235L126.121320,242.365787L124.037788,246.106892L117.076761,261.202080L113.172769,266.879111L111.143219,269.835350L104.817259,274.282784L101.382616,275.721659L95.997662,277.448308L91.051497,279.907473L86.928955,281.921895L79.223826,287.232638L71.053984,292.124794L63.270862,295.159497L56.061636,300.182448L49.045221,301.621313L33.008787,309.835915L22.315793,315.643680L21.084150,316.297707L10.516138,322.497878L3.047688,327.965531L0.000000,330.764757L19.020221,330.450825L33.627228,330.084571L55.342366,329.535190L80.840136,329.116614L128.731454,328.279463L134.485064,328.200980L151.558108,327.939370L168.105731,327.468471L176.401249,327.233022L201.280214,326.552836L209.561609,326.291226L225.341866,325.846489L251.313795,325.140141L267.969943,324.669243L285.081952,324.198345L288.078672,324.119862L342.859922,323.178064L345.870762,323.125742L372.702099,322.000818L376.480296,321.922335L393.916858,321.529919L398.353872,321.425275L422.445777,322.785649L422.800687,322.759488L420.768403,328.645716L418.939671,331.209493L415.282248,334.165683L413.916210,335.133638L397.435941,342.484858L357.750920,356.271629L354.119644,359.437086L347.826904,364.669239L321.185660,377.566468L312.319065,386.434923L311.038539,389.129464L310.784052,390.306691L309.744929,393.890688L308.420994,396.585224L303.060154,403.020710L302.014246,403.857846L494.285270,403.622402L495.852065,408.776014L522.428192,408.906817L523.097328,411.915267L524.144589,419.684908L523.487776,435.354942L523.993181,442.522850L524.664455,445.374314L527.028596,455.341339L527.225862,460.651843L529.254650,472.450031L529.199359,482.076906L527.199729,490.997441L524.518810,496.726454L522.657747,501.199787L521.066982,513.128649L518.911887,519.590101L518.846942,527.228727L519.110669,536.279955L516.234697,544.180143L516.018782,547.920955L517.485845,550.798500L517.163476,554.382348L516.018901,558.855615L515.501411,564.610686L517.527021,568.482275L524.007558,576.382397L529.090942,582.137443L530.261019,585.590466L532.277739,589.043486L534.436214,600.396577L536.216242,603.692629L538.005893,608.453588L541.205254,612.769837L543.498374,617.216877L542.160593,624.829151L538.925220,632.022866L538.444483,637.202333L536.547174,642.250999L534.734985,647.979788L534.951381,655.173460L536.913474,662.785659L537.167829,669.848511L538.398780,678.036171L541.207619,685.648325L542.497186,692.135648L541.323068,702.180512L541.825244,706.365865L544.394323,712.408460L544.705800,721.746997L544.114384,728.208100L551.618667,747.486713L551.118123,750.337952L550.657521,758.970129L549.272920,770.191931L547.685577,778.667117L546.791214,801.084416L546.139803,808.277805L546.112701,809.794954L546.039873,812.593831L544.654741,818.348526L543.137600,827.556020L541.382904,831.139612L538.083914,836.606546L533.701196,845.813997L532.477108,851.987162L531.991160,858.160316L530.772860,863.339481L529.893011,875.293386L528.690715,881.466504L526.996630,898.704098L527.219658,904.903336L525.564211,913.090500L524.727067,927.895359L522.078777,935.088513L518.337674,943.955691L538.248612,943.720279L544.025037,943.040201L550.287676,942.255496L553.911945,940.686085L556.885521,938.515065L558.945425,935.376238L562.316419,926.587512L568.354965,907.466731L573.065287,896.977727L576.455665,893.368038L580.669374,890.438433L602.655046,885.363933L629.351876,879.164664L632.920226,876.888981L638.744116,873.122329L643.484986,869.721877L646.969572,867.210772L646.905270,862.711704L646.914488,862.005455L647.055300,846.232517L647.080556,840.974857L651.067735,839.876240L654.366143,839.431562L661.689399,838.882253L675.702082,833.676898L687.664528,823.109222L697.336056,811.756784L699.026764,809.742639L701.308525,808.460909L706.468227,806.237500L715.240678,804.432613L717.959473,804.040247L739.448679,801.502941L791.556055,793.917172L815.323520,787.037652L820.844046,785.442020L838.367198,779.059486L857.731340,771.342883L860.924869,770.061141L891.583620,755.805000L902.983033,752.875291L908.615959,752.090547L911.570455,751.933598L911.671248,750.311794L911.899847,748.323774L910.562541,745.446376L910.649340,738.252871L906.401854,726.612444L905.643267,709.374084L904.495478,697.001132L902.618009,685.648325L904.063435,679.160992L906.100383,675.577259L905.907329,674.295485L896.848924,675.289514L893.859539,673.693836L892.248482,671.836571L892.101633,665.375373L891.315246,664.642929L889.883865,665.087627L886.481569,667.389594L884.415762,667.101848L882.179275,664.930675L882.995693,660.614484L883.959681,657.737021L882.911673,655.435048L879.761373,653.420821L875.561186,652.557581L872.312240,655.304254L870.712707,655.879748L867.875314,654.284062L862.836974,657.737021L860.558946,658.181720L859.423165,657.606227L858.892717,655.016508L856.007341,651.563546L855.172979,648.973823L851.909739,648.398329L848.878821,649.418523L847.612792,648.843029L845.894715,641.361597L845.126464,637.045380L843.907857,632.859952L840.645489,627.261936L838.212510,620.225166L837.083158,614.757926L835.725468,613.449973L834.163831,613.894677L828.828420,617.923171L826.762638,617.635422L824.662325,614.470177L813.211409,610.310884L815.660649,607.851929L820.548488,604.843630L822.731711,602.253876L823.611030,599.219414L822.411159,596.917407L819.462233,597.205158L814.795252,599.376369L812.377305,598.356162L809.946903,593.333598L806.593426,592.470344L803.330234,591.894842L802.162433,590.456085L801.930506,587.735525L804.199186,581.404983L805.679489,577.795000L805.181220,576.068485L802.627530,574.917475L796.410954,576.068485L795.235588,574.655882L796.347897,569.319375L794.835198,566.598800L787.501887,559.692717L783.832822,557.521483L782.787726,556.108873L782.073453,552.655823L778.871977,551.792560L776.089847,551.504806L772.565875,548.758059L774.533149,544.441738L783.125014,537.117062L787.459594,531.074193L791.364532,523.592534L793.297658,521.865995L794.882371,521.865995L795.487058,523.749492L795.070083,525.188273L795.695040,529.923170L792.925848,537.980328L791.777676,539.994615L792.062264,542.008901L793.221765,542.427454L797.672002,542.427454L799.814570,544.023186L802.594313,542.296656L802.149563,535.966040L802.901472,533.820953L805.087144,533.245442L807.450929,534.527262L811.260177,538.686637L811.931070,538.843594L813.847984,537.247860L814.088201,534.396464L813.707524,529.792372L813.040139,526.627055L813.739318,525.188273L815.887082,524.743559L820.889036,521.865995L821.623981,523.749492L822.469477,528.772146L824.678226,528.641348L835.910183,523.592534L838.226102,523.017021L841.895888,521.290481L842.860073,518.412914L844.787750,513.259448L846.038667,508.943088L847.254044,506.771826L855.339661,502.167700L858.277250,499.447078L859.963717,495.575420L859.732710,488.956969L858.798000,485.216100L853.095326,483.620344L852.750452,482.338506L852.810780,481.606027L860.801744,474.856752L862.101906,472.842431L864.003033,470.252588L864.293352,465.805380L864.071478,465.072898L862.471837,460.180961L860.861038,458.323593L859.515222,449.559944L862.813414,438.180251L862.307659,431.012335L863.455899,428.997991L868.575579,423.242717L875.602398,408.435928L876.735845,401.529562L882.026061,392.190252L883.343486,386.147157L883.179013,383.269489L885.633458,378.246645L888.469291,373.930134L890.298385,368.593350L891.940449,366.448170L896.902191,367.154510L897.990110,365.872634L898.407166,364.433793L896.796622,357.108775L897.875209,348.894274L901.243527,343.714421L910.473291,335.238282L912.367535,333.720946L916.952381,330.110732L922.010802,325.166302L923.547768,323.308870L923.731912,318.704525L924.778696,315.617519L925.932693,312.085771L926.697858,310.045204L931.079669,298.298842L931.029339,295.551915L931.309930,294.583950L931.567771,293.694468L934.919123,287.075670L939.363531,282.602089L944.661918,279.750505L951.878084,274.701366L964.653129,266.800627L968.153474,264.760036L972.784423,262.039246L975.777145,260.626528L980.114349,256.597661L980.386322,255.734332L980.746446,255.315748L980.703799,254.714034L980.801344,254.452419L981.685522,251.626976L981.958541,250.685161L983.778951,244.929621L995.377590,235.171346L996.196935,232.869122L994.279016,228.552448L996.394005,225.674662L999.597772,223.084654L1000.000000,222.221317Z "/></g><g fill="#000" font-family="Arial" font-size="12px" id="mylayer-label" stroke="none"><text text-anchor="middle" y="357.408405655"><tspan dy="0" x="602.78762664"><![CDATA[N]]></tspan></text></g></svg>