<?xml version="1.0" encoding="utf-8"?><!DOCTYPE svg  PUBLIC '-//W3C//DTD SVG 1.1//EN'  'http://www.w3.org/Graphics/SVG/1.1/DTD/svg11.dtd'><svg enable_background="new 0 0 1000 1001" height="1001px" pretty_print="False" style="stroke-linejoin: round; stroke:#000; fill: none;" version="1.1" viewBox="0 0 1000 1001" width="1000px" xmlns="http://www.w3.org/2000/svg" xmlns:xlink="http://www.w3.org/1999/xlink"><defs><style type="text/css"><![CDATA[path { fill-rule: evenodd; }]]></style></defs><metadata><views><view h="1001" padding="0" w="1000"><proj flip="auto" id="robinson" lon0="-89.7646389952"/><bbox h="0.16" w="0.21" x="-1263.28" y="-553.63"/></view></views></metadata><g class="" id="mylayer"><path d="M1000.000000,120.941881L674.109530,123.556340L548.942921,124.536762L473.269659,126.089096L246.112644,130.746099L214.403161,131.318012L201.733989,183.361984L177.069172,269.720357L103.105107,528.221284L78.422049,614.414733L74.308361,626.587995L61.899267,662.862637L57.671496,674.954169L19.890058,800.852722L0.000000,867.110494L258.829372,874.953569L363.508902,878.058119L399.751483,874.299979L508.570752,862.943859L544.790708,859.022319L610.975560,859.267415L616.149870,841.375381L625.809432,807.552039L812.928567,810.656599L821.534537,777.895292L842.292150,698.075120L844.087130,691.212367L846.756612,680.999933L854.027388,653.957382L875.772628,572.339305L883.021259,545.133204L896.310651,501.832123L936.066280,371.846606L949.242587,328.463441L985.605692,179.848816L1000.000000,120.941881Z "/></g><g fill="#000" font-family="Arial" font-size="12px" id="mylayer-label" stroke="none"><text text-anchor="middle" y="485.601415068"><tspan dy="0" x="500.646724363"><![CDATA[N]]></tspan></text></g></svg>