<?xml version="1.0" encoding="utf-8"?><!DOCTYPE svg  PUBLIC '-//W3C//DTD SVG 1.1//EN'  'http://www.w3.org/Graphics/SVG/1.1/DTD/svg11.dtd'><svg enable_background="new 0 0 1000 1001" height="1001px" pretty_print="False" style="stroke-linejoin: round; stroke:#000; fill: none;" version="1.1" viewBox="0 0 1000 1001" width="1000px" xmlns="http://www.w3.org/2000/svg" xmlns:xlink="http://www.w3.org/1999/xlink"><defs><style type="text/css"><![CDATA[path { fill-rule: evenodd; }]]></style></defs><metadata><views><view h="1001" padding="0" w="1000"><proj flip="auto" id="robinson" lon0="-89.5532087235"/><bbox h="0.73" w="0.81" x="-1267.72" y="-527.0"/></view></views></metadata><g class="" id="mylayer"><path d="M1000.000000,257.927331L960.580591,256.319425L988.367001,150.753999L964.688064,150.362328L941.920306,150.094343L904.969415,149.805743L891.513495,149.743900L862.726888,149.372843L828.898068,149.372843L826.495121,158.546189L839.422122,159.226460L816.926513,173.862577L802.887594,184.231540L798.812853,181.242476L772.860879,161.844470L711.550568,179.036752L719.420013,144.260505L743.693894,46.878519L670.815505,45.868416L613.992053,47.270192L613.590168,47.270192L613.258176,47.270192L613.013550,47.270192L612.699031,47.270192L612.314619,47.270192L611.854912,47.290806L606.702833,47.414492L605.525575,50.506644L595.915274,50.506644L531.292435,50.465415L522.335314,50.506644L464.918133,50.506644L438.223448,50.156200L394.517498,49.043026L370.002500,49.043026L365.050169,66.338455L350.549786,118.801872L339.833975,159.762430L322.751715,225.027082L305.398347,225.501209L245.560803,227.129731L215.516419,336.549690L204.843497,373.696303L201.611567,386.703789L190.382570,428.447265L184.760612,453.720073L150.389465,452.648144L143.155444,478.539350L94.838925,478.003386L24.283298,476.910844L10.417224,530.465986L9.175082,534.609394L0.000000,569.653112L23.451691,569.117150L21.330769,577.218427L42.044335,576.661851L112.438535,576.373255L154.127009,576.064046L161.871174,575.919749L178.772392,575.507470L249.809527,574.765369L244.741325,594.327986L232.580481,648.068424L251.984675,647.841671L357.477340,666.888890L359.995043,666.950732L355.682934,684.431285L377.002812,684.163305L373.607882,699.809215L357.208968,770.102328L351.684364,792.756875L323.505173,902.896055L320.529887,913.470878L315.536185,933.301237L310.681135,951.132059L329.833254,951.338195L351.052752,951.791696L408.377319,952.513174L409.468827,952.616242L410.880291,952.698697L416.439104,952.492560L422.616103,952.595628L435.617850,953.131584L439.310989,952.575015L464.664454,952.657469L466.668696,944.123413L468.919328,932.909578L491.240876,831.984859L563.121776,834.108075L573.557792,785.521439L493.085033,783.377606L503.961440,733.183006L470.180237,733.389144L449.036246,733.718965L458.029564,694.202250L469.045798,648.027196L506.205725,498.967824L534.664608,498.060809L563.754651,384.209486L571.296849,384.168257L579.775976,384.085801L589.810312,384.003345L591.321328,383.838432L592.848807,383.343694L594.215442,382.395446L595.371375,381.117373L596.292183,379.736230L596.932122,378.293244L597.402717,376.829644L598.130105,373.984900L600.028324,365.801106L604.125144,351.556763L634.928512,351.103252L678.697697,350.649742L686.950895,350.629128L735.694539,350.464215L754.660673,350.505443L760.374721,350.505443L783.237592,350.546672L793.384678,350.567286L814.571313,350.670356L851.485971,350.835269L890.100494,351.515535L890.986279,351.536149L975.746479,350.361145L979.668913,350.196232L980.067237,348.340962L980.224258,347.207186L981.740003,338.013292L1000.000000,257.927331Z M689.310951,341.682604L704.962641,276.974825L741.793297,277.325266L776.275773,277.634478L756.928872,341.909360L689.310951,341.682604Z " data-aland="9696467" data-awater="29494" data-classfp="C1" data-funcstat="A" data-geoid="2871560" data-intptlat="+31.4170284" data-intptlon="-089.5417769" data-lsad="43" data-mtfcc="G4110" data-name="Sumrall" data-namelsad="Sumrall town" data-pcicbsa="N" data-pcinecta="N" data-placefp="71560" data-placens="02406689" data-statefp="28"/></g><g fill="#000" font-family="Arial" font-size="12px" id="mylayer-label" stroke="none"><text text-anchor="middle" y="386.635919571"><tspan dy="0" x="481.993755803"><![CDATA[Sumrall]]></tspan></text></g></svg>