<?xml version="1.0" encoding="utf-8"?><!DOCTYPE svg  PUBLIC '-//W3C//DTD SVG 1.1//EN'  'http://www.w3.org/Graphics/SVG/1.1/DTD/svg11.dtd'><svg enable_background="new 0 0 1000 1001" height="1001px" pretty_print="False" style="stroke-linejoin: round; stroke:#000; fill: none;" version="1.1" viewBox="0 0 1000 1001" width="1000px" xmlns="http://www.w3.org/2000/svg" xmlns:xlink="http://www.w3.org/1999/xlink"><defs><style type="text/css"><![CDATA[path { fill-rule: evenodd; }]]></style></defs><metadata><views><view h="1001" padding="0" w="1000"><proj flip="auto" id="robinson" lon0="-80.4497106814"/><bbox h="0.99" w="1.5" x="-1159.09" y="-427.6"/></view></views></metadata><g class="" id="mylayer"><path d="M1000.000000,413.036343L993.423989,413.114436L992.695054,413.125592L991.554696,413.136748L995.655133,384.565952L949.843362,385.112601L927.884337,385.358036L926.589849,385.436129L926.863351,383.349935L928.413336,372.372317L934.166113,331.529744L934.688641,327.814752L937.292665,309.295566L945.990129,252.756209L949.755082,228.201499L957.242863,176.961197L958.235008,170.234019L954.179097,170.289800L940.503951,170.490611L939.714978,174.071745L930.811495,174.830366L930.164274,178.422656L929.682219,181.457137L928.410309,184.826303L926.195467,188.530154L923.064643,191.977413L918.611012,195.982480L913.122655,201.080852L911.309740,202.977401L908.745571,206.290785L906.746963,209.537230L902.368479,218.250199L896.958912,229.239022L894.654934,233.444896L894.383858,233.946924L894.308736,234.058485L893.858357,234.605137L892.504387,236.323186L888.699779,242.447919L888.547765,242.682198L885.617349,247.278536L883.362287,249.610173L881.814165,251.707530L880.267819,253.793732L871.171832,263.477274L864.311757,269.925531L855.408533,277.310902L853.706629,278.750045L843.534568,287.317966L842.308232,288.835202L838.345310,292.282451L836.857800,293.576563L820.290775,307.532897L805.003370,320.239737L790.683859,333.058134L789.024541,334.530743L776.589243,343.857267L770.033051,348.754806L768.370170,349.948512L757.997123,357.434271L751.309763,361.651285L742.357530,367.419000L735.860835,371.580232L732.875586,373.510241L730.704236,374.893599L723.326671,374.837819L695.663105,375.217127L690.895469,375.295220L634.815660,376.154241L623.056036,376.399675L615.281969,376.611641L589.238524,376.790139L588.633976,376.801295L588.021630,376.801295L587.131816,376.801295L560.552227,377.102510L537.808648,377.347945L518.298643,377.414882L519.734188,367.285126L521.215921,357.166524L501.923572,357.188837L500.452453,367.541717L498.929329,377.559911L479.637986,377.816502L480.323137,372.294224L480.968361,367.686747L482.424296,357.490052L485.577839,336.962779L483.941742,336.962779L480.758852,337.063185L465.984744,337.554054L464.580045,337.542898L458.542038,337.487117L452.836785,337.565210L436.021157,337.475961L426.390976,337.687928L424.583191,348.531684L424.219530,353.172632L422.614596,358.460635L421.455104,368.054899L414.852208,368.121835L403.001857,368.155304L402.136203,373.487929L382.999383,373.856080L382.248189,379.010206L377.544666,378.865177L368.111082,379.043675L361.908251,379.121768L363.448271,368.757734L365.116356,358.672601L354.291212,358.817630L355.878289,348.821743L346.743480,348.866368L347.971709,338.480013L349.801420,328.283309L350.830038,318.432443L352.521431,308.023767L354.198415,297.827054L349.156571,297.704336L338.444228,298.284456L329.757074,298.161738L328.320140,298.172894L329.824009,288.043116L315.466040,288.143521L317.015416,277.969115L297.989503,278.002583L299.574489,267.605051L301.209891,257.553356L294.432440,257.575669L292.867201,267.426553L292.785662,267.939736L289.797705,268.017829L289.046851,272.803817L288.118815,278.102989L278.422118,278.192238L268.436636,277.991427L259.448311,277.957959L261.103173,267.783549L262.907663,257.932666L252.089111,257.977290L243.425083,257.709543L241.980553,267.883955L240.953895,273.562436L240.204455,278.158769L238.672644,288.221614L220.644555,288.478205L209.162217,288.545142L204.182388,288.634391L199.746508,288.612079L198.994908,288.645548L189.317687,288.612079L159.855479,288.511674L160.478128,283.268285L160.761757,281.483301L161.134729,279.196291L161.845603,274.722675L162.435891,271.610109L162.566714,270.907272L133.182563,270.918428L131.966763,270.862647L133.912422,258.680128L126.058071,258.735909L127.931626,246.586854L128.737429,241.276522L130.217525,231.604129L130.912483,226.449981L132.191826,216.777584L138.110406,178.110283L119.088808,177.998721L116.067250,177.987565L99.607971,177.887160L91.669411,177.931784L80.166416,178.009878L75.999125,207.886117L74.239204,218.774539L69.316203,247.635533L67.963124,259.338341L48.647737,259.628401L31.676797,259.795744L30.075450,259.818056L27.557975,274.934642L24.536929,293.041069L23.228993,300.850368L20.073663,321.611941L39.759237,321.221477L36.842280,341.269045L46.419338,340.789332L55.922322,340.655458L74.582781,340.454648L81.231714,340.398867L92.065332,340.320774L102.898949,340.242681L113.100382,340.108808L124.246193,340.053027L132.871057,340.086496L139.655710,340.019559L146.507334,340.253837L152.317845,339.874529L150.768868,350.048917L149.289824,360.446424L148.551388,364.373379L147.637614,370.609650L147.113559,372.584283L146.106713,380.672468L144.433135,391.092278L143.546088,396.558772L143.007719,401.155089L141.477172,411.217898L140.415936,417.119477L139.700827,421.503826L138.269514,432.871892L134.493253,457.147553L133.928732,462.513632L132.562639,470.278268L131.617612,478.042903L130.617921,482.594585L111.830796,482.806550L111.426344,486.621930L110.947705,489.578291L108.931312,502.106566L108.259321,503.568012L101.608074,503.757665L94.738142,503.757665L89.272959,503.768821L75.866211,503.779977L69.408095,503.958475L57.962534,504.393561L50.787857,504.505122L48.870642,516.408651L47.661148,523.972466L46.153493,534.079862L45.476319,539.434773L44.689863,545.659855L25.696594,545.782572L6.412017,545.871821L0.000000,586.000146L35.693663,585.855118L38.536417,585.486968L32.167724,625.838366L70.926779,625.793742L77.125654,585.063038L77.374430,585.063038L96.189586,584.918010L106.074694,584.851073L115.844663,584.906854L124.640752,584.828761L135.526995,584.784137L139.271017,584.706045L146.938770,584.683733L153.238980,584.717201L154.473292,584.717201L157.868592,584.605640L159.592338,584.717201L164.226212,584.639108L166.834823,584.661420L169.227219,584.538704L174.363632,584.549860L188.446733,584.438300L193.737282,584.382519L203.701111,584.482924L213.291686,584.282115L216.466595,584.293271L222.299726,584.315583L232.490292,584.192866L247.062100,584.137086L251.882033,584.092462L257.887394,584.114774L261.635676,584.070150L271.060459,584.070150L282.346484,584.159398L291.485986,584.148242L311.124103,584.304427L317.405177,584.337895L321.524854,584.304427L323.461189,584.282115L329.406331,584.382519L339.853155,584.393675L350.170287,584.438300L342.902144,629.274424L342.084494,635.521802L340.944605,642.293511L337.556917,664.583248L351.194354,664.326659L344.548770,705.983213L342.997100,716.023616L341.380189,726.476789L339.838324,736.517187L338.250051,746.367929L338.147614,747.014977L338.061074,747.561620L337.940977,748.320228L344.530680,748.521036L364.427976,748.253292L384.213690,748.085952L400.458559,747.740116L403.378019,747.673180L391.587855,828.765981L428.577818,828.542862L469.963381,828.297431L510.998424,828.029688L512.311112,828.018532L548.862664,827.784257L587.425897,827.717321L626.239410,827.761945L664.885025,827.416110L700.236669,827.326862L704.448700,827.315706L742.555137,827.293394L781.055658,827.259926L819.209189,827.181835L853.667404,827.114899L858.310029,827.103743L897.590205,826.557101L932.917633,826.802532L935.276359,826.590568L935.825551,824.024697L948.693663,746.769545L948.935434,745.241174L949.018378,744.716842L949.133089,743.991703L949.373100,742.474488L955.078987,706.228645L962.156797,661.626902L962.703763,657.990039L974.201514,581.203046L975.016506,579.440390L974.905713,578.146288L983.590448,523.503912L986.660472,503.646104L987.572291,497.711072L987.799628,496.216158L989.931274,481.981000L990.330365,478.980014L990.504275,477.641284L990.681625,475.979028L991.559267,467.846241L992.162752,462.167793L992.842954,455.764197L996.550130,436.664965L996.766960,435.236984L997.001800,433.574726L997.126659,432.726862L1000.000000,413.036343Z "/></g><g fill="#000" font-family="Arial" font-size="12px" id="mylayer-label" stroke="none"><text text-anchor="middle" y="534.383076319"><tspan dy="0" x="565.617749664"><![CDATA[N]]></tspan></text></g></svg>