<?xml version="1.0" encoding="utf-8"?><!DOCTYPE svg  PUBLIC '-//W3C//DTD SVG 1.1//EN'  'http://www.w3.org/Graphics/SVG/1.1/DTD/svg11.dtd'><svg enable_background="new 0 0 1000 1001" height="1001px" pretty_print="False" style="stroke-linejoin: round; stroke:#000; fill: none;" version="1.1" viewBox="0 0 1000 1001" width="1000px" xmlns="http://www.w3.org/2000/svg" xmlns:xlink="http://www.w3.org/1999/xlink"><defs><style type="text/css"><![CDATA[path { fill-rule: evenodd; }]]></style></defs><metadata><views><view h="1001" padding="0" w="1000"><proj flip="auto" id="robinson" lon0="-96.9804762663"/><bbox h="0.13" w="0.15" x="-1304.96" y="-716.01"/></view></views></metadata><g class="" id="mylayer"><path d="M1000.000000,490.935647L730.440987,473.155103L717.689458,474.362423L711.265197,474.472180L545.638571,478.642924L569.242105,432.764771L589.435447,386.776938L697.660318,382.276940L687.948048,355.386719L693.966311,338.155040L606.982338,339.801378L722.858300,67.498341L670.557553,70.571476L582.276379,71.669024L480.635959,320.484348L476.864374,325.972139L419.440019,325.094093L390.359195,324.764825L383.835109,325.094093L30.906803,471.947782L0.000000,531.874846L125.805866,504.545455L142.846065,499.716167L156.884216,497.082011L175.219992,497.411281L97.064461,781.901606L62.655211,906.586554L82.410412,909.001233L102.794273,911.635428L147.430980,919.208741L202.851931,931.501659L641.205203,911.745186L769.220693,913.391559L796.704425,913.830591L992.622383,509.155230L1000.000000,490.935647Z "/></g><g fill="#000" font-family="Arial" font-size="12px" id="mylayer-label" stroke="none"><text text-anchor="middle" y="607.336011527"><tspan dy="0" x="495.140605432"><![CDATA[N]]></tspan></text></g></svg>