<?xml version="1.0" encoding="utf-8"?><!DOCTYPE svg  PUBLIC '-//W3C//DTD SVG 1.1//EN'  'http://www.w3.org/Graphics/SVG/1.1/DTD/svg11.dtd'><svg enable_background="new 0 0 1000 1001" height="1001px" pretty_print="False" style="stroke-linejoin: round; stroke:#000; fill: none;" version="1.1" viewBox="0 0 1000 1001" width="1000px" xmlns="http://www.w3.org/2000/svg" xmlns:xlink="http://www.w3.org/1999/xlink"><defs><style type="text/css"><![CDATA[path { fill-rule: evenodd; }]]></style></defs><metadata><views><view h="1001" padding="0" w="1000"><proj flip="auto" id="robinson" lon0="-81.6740915958"/><bbox h="1.03" w="1.23" x="-1162.22" y="-503.31"/></view></views></metadata><g class="" id="mylayer"><path d="M1000.000000,412.236067L990.231128,404.651603L980.465341,397.053604L967.971041,387.356350L942.273260,367.365971L904.082651,337.678484L871.902326,312.663640L839.880629,287.866549L839.468449,287.541507L838.220385,286.566381L837.796683,286.241339L821.490577,275.081571L790.904163,252.044300L789.076703,250.771226L755.288242,227.002711L710.561998,191.465231L677.290640,159.787753L651.471967,132.715084L643.056523,123.871462L629.759280,104.586180L625.902835,98.992918L619.319195,90.569178L614.767972,82.646539L591.339782,102.784960L588.336881,105.371675L567.900281,122.923448L509.036691,173.534051L486.796230,192.629947L484.109979,197.695110L483.462513,199.008802L481.517130,202.963425L480.861140,204.263575L477.145077,201.839337L477.923033,200.769421L474.460779,198.656678L472.539508,195.514651L457.185844,185.113470L446.151955,177.637632L439.469301,173.100670L435.860829,169.877397L431.831879,166.992705L429.950510,165.651933L424.688908,161.358757L419.970066,157.268730L415.674006,152.569265L411.379841,146.610295L409.698630,144.416312L407.683670,145.973769L406.004491,147.680201L403.453359,149.630409L405.603209,152.623438L407.842540,155.941503L412.489284,162.807873L416.803010,169.200240L422.533984,177.678262L418.649305,180.657761L416.501956,182.553807L410.879960,186.616765L406.763051,189.812960L402.820328,192.846638L399.729660,195.257330L390.452135,202.462325L389.048963,203.545784L387.352948,204.859478L387.639388,209.924650L387.685185,210.655986L389.931490,215.247149L392.504152,217.996432L393.549262,219.106980L394.419442,220.122725L396.647798,222.709491L397.737662,223.982559L402.382730,226.582869L406.427147,224.131535L425.763186,208.949537L429.979109,206.660728L433.410925,204.791761L437.643625,211.969681L446.291355,226.596412L447.595564,228.776882L451.485186,235.318295L452.780891,237.485224L452.936982,237.769634L453.414231,238.582232L453.564784,238.839555L451.671794,240.992942L450.121993,244.148536L441.652697,261.362127L439.839472,265.032380L439.372314,267.199320L438.941778,267.009713L437.656155,266.413804L437.228611,266.210654L423.317250,259.655664L413.414694,254.983206L409.721730,253.236115L394.632562,283.464938L391.141123,290.046085L390.930612,290.425301L381.847095,291.590036L382.456283,283.451395L382.870678,282.097053L383.976004,275.528503L384.324510,273.429277L386.975206,259.344167L387.573612,256.635495L388.498422,251.719260L388.809287,249.999256L390.416135,243.769323L387.876654,242.225385L380.244170,237.552941L377.699169,235.981917L377.472608,235.860027L376.761352,235.480814L376.526261,235.345381L373.480854,233.327429L368.768126,230.198927L364.616875,227.449639L364.316093,227.246490L361.247670,225.228541L356.924665,223.048073L364.878225,208.746388L364.813430,208.570326L358.424225,192.954984L360.732056,188.038801L378.928910,149.237659L388.663058,128.449016L363.960307,132.511937L290.564616,144.551743L290.477160,145.364330L289.126929,157.675024L288.952039,159.300200L283.429306,159.733580L276.675790,160.261762L277.243948,156.388426L278.945972,144.727804L279.505662,140.840935L280.197460,137.346817L280.438345,136.100854L280.921936,133.392237L281.869653,126.864478L281.992602,125.943550L282.235888,123.383912L245.880283,122.774474L190.461424,121.826460L137.101027,119.646030L121.856856,119.023049L116.117227,143.833959L94.284910,143.928761L87.538486,143.955847L73.109352,144.023562L28.793941,144.186080L25.276703,144.199623L21.005206,165.706106L19.117629,174.712307L13.423795,201.717447L12.959275,203.870821L11.516481,210.710159L11.251469,210.710159L10.456430,210.710159L10.194412,210.696616L9.755948,212.836450L8.412006,219.228869L7.965031,221.355163L7.724628,222.546971L6.971852,226.108854L6.722926,227.287120L5.366646,233.787901L3.473673,242.821291L1.341600,253.249658L0.000000,259.736924L19.097292,259.872358L40.306183,259.994248L76.401149,260.224485L95.492910,260.332832L84.380378,307.137906L82.309556,315.832813L81.423859,322.293056L81.596698,322.293056L100.442696,321.846121L103.945628,320.437598L110.220919,319.936489L129.024184,318.378988L130.292559,318.270640L129.672219,323.999537L128.073095,331.759965L123.264549,355.041312L122.121687,360.580634L121.657127,362.788237L123.500317,362.842412L125.831228,363.140371L129.773547,363.655027L137.420651,365.551129L137.854638,365.673022L141.760517,366.770053L144.908218,367.230535L154.351327,368.611982L157.499032,369.072464L157.745106,374.219034L154.580175,390.010904L154.292163,391.419443L152.916353,397.649525L151.476363,404.692234L150.933629,407.671844L151.415649,408.619902L152.478210,409.026212L154.552319,409.026212L158.215787,408.768882L160.288225,408.619902L168.789609,408.213591L169.395656,408.078154L180.402153,407.807281L189.568427,407.468688L194.579622,407.265533L207.664887,407.130096L214.225055,378.309205L219.095186,356.883238L230.105437,356.490474L274.858280,354.878789L299.567420,353.971370L303.832771,353.023321L307.156499,352.738906L318.280831,351.777313L327.793652,350.964700L329.617570,351.262658L332.422583,351.709596L334.730608,353.050408L335.143031,354.052632L335.375058,354.567287L334.565920,354.526657L333.782819,354.472482L332.277315,353.984914L331.527554,353.727586L330.588236,353.754673L329.660440,353.781761L326.490035,353.632781L325.260444,353.930740L324.699610,354.174524L318.264972,356.910325L313.992381,359.456517L308.761619,363.993617L307.955284,364.670796L306.222032,365.266714L304.648776,366.025155L301.832203,367.352427L299.919760,369.438141L299.053778,371.429051L298.140828,373.528309L296.344229,381.925353L295.542312,385.609221L294.523572,387.613679L293.781924,390.972503L295.137545,395.739869L296.722094,401.766800L296.867268,403.405584L294.907488,411.707863L294.725961,412.425679L294.882389,413.387282L296.090673,421.432244L295.955114,425.021330L296.960129,429.707460L297.215311,429.856441L298.443922,432.538102L297.796773,438.131669L297.938409,438.429632L300.743063,443.941943L301.278412,445.431757L301.794783,450.713830L300.691296,455.034298L293.704889,466.587164L288.259255,472.099500L287.291878,474.185250L286.024401,479.927839L282.371695,488.907417L281.595996,490.803559L279.780871,498.035991L278.988077,500.270733L278.218027,501.462596L276.874855,502.275230L274.547542,502.952425L273.795469,503.697339L273.614005,504.415166L272.808753,507.489633L272.757941,507.719879L272.827392,508.762760L272.173212,512.040388L269.848191,515.318018L266.895852,518.148699L265.673391,519.719796L263.814350,528.509818L263.768159,529.606878L263.681823,531.042538L262.355618,538.410458L261.917078,541.390134L261.489720,543.326925L261.664641,544.153108L261.886947,544.816764L265.056642,551.602308L266.082544,553.010886L268.681453,556.586506L270.397349,560.351745L272.954370,565.945431L273.594486,567.326923L276.894913,575.819045L278.188263,583.484989L279.052331,591.164488L280.852842,598.830452L280.881860,599.169055L281.129368,602.853055L283.054614,612.618377L284.550134,618.063126L284.217745,624.063191L289.990504,621.557519L294.982664,619.403997L327.248823,605.399351L338.005205,600.726628L344.183414,598.315776L362.712488,591.056135L368.885145,588.618198L371.283703,587.670112L373.893521,586.600129L375.850351,585.773940L384.753180,581.981597L388.869565,580.193779L393.844650,578.013183L399.104403,575.900309L410.881229,571.146345L414.875550,569.493971L419.003030,567.760333L420.129753,567.354011L422.398565,566.419472L429.179394,563.575224L430.084187,563.182447L431.431135,562.613598L438.030151,559.809983L442.877624,557.737748L457.909145,551.236620L464.383537,548.527819L468.537050,546.780643L480.968992,541.512030L482.940332,540.672303L485.108422,539.724224L491.739874,536.825813L495.312954,535.254712L508.001393,529.972565L509.298819,529.837125L510.506608,530.108005L511.390892,530.487236L514.411631,531.733280L516.983398,532.925149L517.641074,532.816797L519.115192,532.559462L519.579535,532.491742L520.228676,532.369846L520.322983,532.830341L520.577314,534.184738L520.663087,534.631689L520.292418,548.744523L491.839902,575.290826L492.824588,580.491748L494.347588,589.417300L495.688826,597.286423L496.516985,601.891423L497.502999,604.735689L499.517645,608.663487L501.600523,611.236874L504.103357,613.525834L504.861379,614.216586L508.476420,616.112767L513.363275,617.467183L529.440774,620.853223L543.684370,624.090279L552.705657,626.135449L557.076109,627.218983L558.748363,622.979657L563.785702,610.221063L565.452469,605.954661L567.637674,606.496426L571.657481,597.150982L572.842511,594.076470L573.906785,591.340561L629.349713,590.798797L658.685470,590.026784L657.325552,593.737867L645.677951,622.993201L642.278620,631.878182L637.967122,642.862530L621.960743,640.302674L584.035167,634.248416L572.669900,632.433494L566.265692,630.591485L562.721508,629.575671L561.312115,632.988806L557.540023,632.013624L555.393192,631.349959L553.428666,636.131059L552.582953,638.189778L551.584488,640.627735L551.076299,641.887346L549.852118,644.826441L548.395945,649.445021L547.238018,653.129052L546.426106,655.661825L546.154376,656.894351L542.710521,674.136199L541.871074,680.976066L541.691818,687.016827L541.772019,689.685057L543.642371,701.536347L544.006287,703.283568L546.537485,702.308375L571.308737,692.813795L573.371688,699.504695L574.445248,702.999136L583.585619,732.688420L572.286100,739.514809L593.726724,791.471464L596.422526,798.013483L596.210356,799.395028L602.325189,825.414191L598.695182,826.931189L587.796618,831.468640L584.158069,832.972094L584.470787,833.906675L584.784850,835.044424L585.761210,838.511854L586.568702,841.071794L586.630651,841.261419L587.263419,843.306662L587.589837,844.336057L587.954340,845.663434L588.487204,847.586777L590.096695,852.679575L590.831165,854.995717L591.272961,856.390820L593.237302,861.808698L593.925983,863.704957L595.758866,868.987395L598.729219,880.094075L599.579140,882.775934L601.036730,887.408241L601.733742,889.737940L602.891465,893.638833L604.174349,897.756446L605.592297,902.307495L607.041771,908.808999L608.307756,916.353461L610.382626,915.513682L649.339160,899.842343L682.507626,886.487197L682.847908,874.527188L683.834232,839.906953L703.536303,835.843558L711.904254,834.109844L721.417044,820.009889L748.784075,778.428080L812.906659,681.544927L813.021479,681.599104L813.337337,681.734547L831.950402,691.554173L859.432824,706.046615L863.342797,704.461926L885.174756,673.526707L901.301814,650.650457L903.629769,647.250856L910.588073,637.011432L912.898987,633.584751L915.024699,630.266424L921.381827,620.297912L923.487512,616.966049L925.342372,614.406204L930.895460,606.726676L931.410916,606.008837L932.589850,604.058483L934.708357,600.564099L941.061366,590.040328L943.171373,586.532408L942.013023,586.193806L938.526451,585.178000L937.359565,584.825854L936.847828,584.690413L935.287004,584.243458L934.766729,584.094473L929.474786,582.591080L913.598992,578.080904L908.298536,576.563968L905.711268,575.859677L897.949471,573.746804L895.362208,573.042513L895.686007,571.782915L896.640341,567.977037L896.955609,566.703897L895.860900,566.703897L895.438119,564.022177L894.781224,563.290799L892.979141,561.272739L892.476236,559.633911L893.059959,558.293053L896.449672,555.462352L898.186925,553.227590L940.970533,493.038298L1000.000000,412.236067Z "/></g><g fill="#000" font-family="Arial" font-size="12px" id="mylayer-label" stroke="none"><text text-anchor="middle" y="414.641231914"><tspan dy="0" x="548.526304952"><![CDATA[N]]></tspan></text></g></svg>