<?xml version="1.0" encoding="utf-8"?><!DOCTYPE svg  PUBLIC '-//W3C//DTD SVG 1.1//EN'  'http://www.w3.org/Graphics/SVG/1.1/DTD/svg11.dtd'><svg enable_background="new 0 0 1000 1001" height="1001px" pretty_print="False" style="stroke-linejoin: round; stroke:#000; fill: none;" version="1.1" viewBox="0 0 1000 1001" width="1000px" xmlns="http://www.w3.org/2000/svg" xmlns:xlink="http://www.w3.org/1999/xlink"><defs><style type="text/css"><![CDATA[path { fill-rule: evenodd; }]]></style></defs><metadata><views><view h="1001" padding="0" w="1000"><proj flip="auto" id="robinson" lon0="-75.1977126413"/><bbox h="0.49" w="0.62" x="-999.38" y="-751.32"/></view></views></metadata><g class="" id="mylayer"><path d="M1000.000000,445.515039L954.907157,349.358829L929.728329,296.720348L880.215731,192.019633L870.691376,171.783508L867.704041,165.581248L860.267891,152.125468L855.671590,143.400212L853.997932,139.589478L848.305615,141.113772L841.170714,142.296414L839.932431,142.217571L837.987387,140.903524L835.158562,141.823357L832.984744,143.768145L832.118184,143.846988L827.194297,142.690627L820.153552,140.220220L816.757142,138.354273L813.258921,135.594773L811.762729,134.228163L806.549321,127.947006L806.285327,127.027170L806.527839,124.609316L805.784062,121.718401L806.647578,118.485831L807.739232,116.856405L811.539467,113.229614L811.641448,112.073246L807.215155,111.258531L803.064022,109.576540L802.265793,109.234885L795.172548,106.790740L791.893382,106.186273L788.186010,105.870900L774.844742,105.529245L772.149527,105.792056L768.720020,105.187590L766.553309,104.477999L765.313192,103.584439L765.279728,102.270381L764.965853,101.955007L763.266910,101.902445L746.792525,105.476682L736.916914,107.631736L735.918940,108.420170L735.634979,109.077198L735.683819,110.759190L735.142124,111.416218L730.983008,112.625149L726.884922,114.780199L716.392593,121.192780L707.165389,128.840560L702.202360,133.939072L690.851242,147.552595L681.979938,159.089891L680.550845,161.639130L677.521185,165.975460L676.043893,168.656099L674.398171,170.390629L672.964532,171.546982L671.475599,172.151439L670.309186,171.993754L669.890961,171.494420L668.589586,171.704666L666.177592,172.834738L664.359543,174.043652L658.502852,180.114496L655.441763,181.901582L652.769828,182.979090L646.842847,184.030317L645.676081,184.634772L643.428961,186.369296L638.953800,191.835668L638.433229,193.254822L639.711043,197.617401L640.292305,197.906487L641.466167,197.985329L642.583885,197.748804L642.814053,198.116732L642.582343,199.509603L646.524359,200.298020L653.500401,200.192898L654.779960,200.744790L655.439352,201.874854L655.141014,203.215162L651.279961,208.471269L650.219054,210.836515L649.902106,214.042735L650.685801,217.117551L650.249290,221.059619L650.388813,222.084556L650.791321,222.978091L651.290734,224.134430L652.899246,226.131742L654.054345,226.788752L657.320924,227.603444L658.769617,227.577164L661.219845,227.104117L665.666719,226.867593L671.728361,226.210583L679.144161,226.604789L683.049011,227.787407L683.555365,228.339296L684.143415,230.073801L684.151731,233.096045L683.526546,238.430956L683.968468,238.982843L685.305888,239.377048L688.073754,240.848747L689.502517,242.399285L691.250745,243.371657L691.859256,244.054945L691.556031,244.764513L689.705187,246.472732L688.649700,246.656694L685.676354,245.920846L683.681896,245.736884L682.634363,246.367611L682.308817,247.313701L682.696460,248.364912L682.241717,250.073130L681.516877,251.229461L671.382996,257.484158L655.779036,266.471984L654.963880,267.523190L654.947315,268.153914L655.685028,268.075074L655.946328,268.416716L655.179561,270.624248L655.563842,272.621538L653.010792,274.487427L650.058771,275.801432L649.362982,274.829068L645.646147,273.777864L643.903990,272.437577L640.496027,261.058266L639.856730,259.639136L638.566481,258.062323L636.542920,256.669471L635.042464,256.485510L625.825125,256.669471L623.919286,257.063674L617.124797,258.430246L609.376116,260.348701L604.044869,262.293436L598.035269,265.736139L596.993812,265.998941L595.984318,265.998941L595.100144,265.657299L593.965329,262.661358L593.136290,261.583870L592.252118,261.242228L588.604825,258.771889L587.023030,256.643191L582.677490,247.234860L577.060836,241.584596L571.631571,237.589986L569.210948,236.459931L564.508368,235.461277L561.759127,235.461277L558.603144,235.750361L551.238027,237.852789L537.832994,243.187695L523.898418,248.443753L509.632850,253.489563L490.007398,259.796817L482.913016,260.926865L477.567184,262.267155L462.957885,267.312949L444.320843,274.145785L431.499825,278.298042L403.948452,287.942825L392.459545,292.620669L381.318309,298.165747L366.797685,306.365090L358.094376,310.885234L342.947526,316.693087L342.525880,317.139845L342.160373,317.901961L342.076895,320.529945L341.766183,321.318340L315.762311,331.252105L310.355107,333.696123L309.194390,333.932641L308.049418,333.774962L307.165012,330.857908L306.270343,330.779069L276.877196,342.105637L261.381171,346.757142L247.816518,351.881676L238.833841,356.401772L223.526396,362.997951L217.207367,365.468231L214.581293,366.361736L212.824504,367.754552L208.580635,370.540184L206.708523,371.486247L203.389006,372.747664L189.381218,379.606613L180.948040,382.628752L173.304233,384.494593L157.580149,390.118391L148.674398,393.140522L144.641652,394.296815L141.766969,394.638447L139.468692,394.638447L137.636848,395.006359L132.618820,398.028487L130.342975,399.079661L127.688331,399.289896L125.748229,399.894321L110.262710,408.146031L104.932023,409.854185L102.039855,411.063032L97.978162,412.298159L94.255271,412.902582L88.863964,412.902582L86.363109,412.166762L84.301956,411.930249L83.503305,412.350717L81.359464,414.505617L80.191747,415.346554L75.764036,416.818192L70.677996,419.498675L67.505724,420.944033L65.418310,421.364500L62.011485,422.336831L56.576987,425.674291L50.994712,428.302210L48.674160,429.826402L46.326488,432.244085L30.534530,442.676898L14.044131,451.559223L6.651901,455.080613L0.000000,457.813630L3.260675,473.397050L17.770696,539.461722L56.702581,707.588371L68.117508,771.389662L69.709687,791.701821L72.166066,803.158573L81.785612,826.124541L88.857978,851.350179L95.584583,866.275280L101.357353,867.930702L107.970307,879.886508L117.231242,897.097555L419.626760,745.638017L769.714697,569.051222L770.732145,567.448244L773.245639,563.874388L817.745980,539.934735L824.109224,534.941817L833.925406,532.892090L1000.000000,445.515039Z " data-aland="5646246" data-awater="485070" data-classfp="C1" data-funcstat="A" data-geoid="3677728" data-intptlat="+44.8613241" data-intptlon="-075.1972282" data-lsad="47" data-mtfcc="G4110" data-name="Waddington" data-namelsad="Waddington village" data-pcicbsa="N" data-pcinecta="N" data-placefp="77728" data-placens="02391189" data-statefp="36"/></g><g fill="#000" font-family="Arial" font-size="12px" id="mylayer-label" stroke="none"><text text-anchor="middle" y="484.343542176"><tspan dy="0" x="472.719128938"><![CDATA[Waddington]]></tspan></text></g></svg>