<?xml version="1.0" encoding="utf-8"?><!DOCTYPE svg  PUBLIC '-//W3C//DTD SVG 1.1//EN'  'http://www.w3.org/Graphics/SVG/1.1/DTD/svg11.dtd'><svg enable_background="new 0 0 1000 1001" height="1001px" pretty_print="False" style="stroke-linejoin: round; stroke:#000; fill: none;" version="1.1" viewBox="0 0 1000 1001" width="1000px" xmlns="http://www.w3.org/2000/svg" xmlns:xlink="http://www.w3.org/1999/xlink"><defs><style type="text/css"><![CDATA[path { fill-rule: evenodd; }]]></style></defs><metadata><views><view h="1001" padding="0" w="1000"><proj flip="auto" id="robinson" lon0="-72.6710356075"/><bbox h="1.49" w="1.51" x="-988.39" y="-686.23"/></view></views></metadata><g class="" id="mylayer"><path d="M1000.000000,7.456103L999.364847,7.586832L991.786622,9.188268L984.592292,10.571823L970.424762,12.924962L955.011403,14.951281L944.313904,15.920865L939.640522,16.389316L935.784938,16.661671L876.337711,20.245877L835.508273,22.620830L823.296561,23.514162L778.087570,28.438400L775.233397,28.928647L769.460625,29.800197L764.366549,30.432071L763.149457,30.639064L752.959466,32.305908L739.514085,34.735364L726.746191,37.241089L713.123190,40.117234L703.205442,42.372399L693.160457,44.801883L669.580493,50.510652L665.544128,51.807114L663.254101,52.646002L654.208508,55.413250L645.005874,58.278558L613.723507,68.334447L565.087203,86.223968L554.382744,90.222466L546.075569,93.327580L534.780224,97.544014L526.194863,100.703629L521.048108,102.664775L513.285396,105.584711L494.307411,112.525046L487.478746,115.194420L483.205795,116.839630L475.488571,119.530808L461.512225,124.967666L456.970091,126.667372L448.514022,129.816194L445.817797,130.829485L431.904913,136.037603L411.084751,143.424901L403.179234,146.170638L388.619785,151.204511L380.430530,153.993855L376.222398,155.377635L368.423813,157.643987L364.971932,158.798957L363.273300,159.332859L359.906478,160.389768L358.454118,160.771127L331.108911,168.932251L305.032146,176.014729L303.525879,176.537745L296.698832,178.804151L268.112542,187.019922L238.524761,195.301146L237.380836,198.853380L221.816991,252.476389L194.743890,343.297459L219.387637,349.574853L212.956545,370.761385L211.748019,374.804757L210.527062,378.859046L208.571104,385.376464L204.268732,399.730210L199.976944,414.051493L191.357460,442.781948L187.080169,457.060330L182.573292,472.036529L191.668311,473.747799L194.793214,474.336389L200.717614,475.404573L207.744842,476.712555L211.278857,477.344747L205.251672,486.522482L198.820817,496.179917L197.319109,497.825834L193.002065,502.567398L192.094231,504.213327L188.369633,510.949675L186.100758,515.048190L185.557328,517.675174L185.174396,519.539138L184.004182,525.141955L183.659814,526.798826L182.426957,532.685104L182.086054,534.331088L181.260281,538.277104L181.203426,540.816952L181.261456,543.335006L178.495729,549.374004L172.159603,571.219392L171.774225,572.636526L169.689620,576.637219L168.993823,578.381396L166.745454,585.118311L165.973424,591.113991L164.008537,596.869883L163.367957,598.439678L161.822977,603.323503L161.299810,606.484922L160.750683,609.330209L160.171935,612.895006L159.557740,615.718511L158.740591,619.610383L157.113385,628.680584L154.179002,634.458525L151.814587,640.454541L146.230030,679.026261L140.629294,679.549575L139.849840,681.217639L120.082357,728.622522L73.063774,853.437864L32.955189,959.207410L27.456210,960.090785L13.747606,966.536181L2.830597,966.536181L0.950524,978.958153L0.000000,991.543897L23.990091,984.204009L67.374595,970.909480L89.901805,961.988409L118.024636,954.670582L134.182507,951.355223L149.142945,946.502171L153.216076,933.775307L155.318190,926.577677L166.176439,921.975588L181.916852,915.279700L183.051708,914.963446L186.807041,913.872916L190.513245,917.155416L195.402097,915.781344L200.021996,911.582806L210.483763,908.463906L214.195885,902.836826L209.219898,900.753944L202.212574,902.509672L199.113211,900.753944L203.376393,896.402807L231.720734,880.176204L237.567268,881.212168L241.108462,880.001726L240.552398,876.348602L243.879624,872.880874L251.366091,870.776254L268.707411,871.975778L275.052913,874.680165L280.429349,883.131430L291.136488,883.338623L295.364062,881.920986L306.062269,880.874117L312.611189,875.639789L317.483180,860.613081L320.466424,845.270403L322.595883,843.514790L327.253333,848.770734L333.623110,865.160323L337.125314,866.894170L348.733952,861.169217L359.952198,851.551381L366.690096,846.317229L377.609929,847.189586L384.550189,851.714949L398.336519,854.168469L427.994262,843.525694L446.181859,840.734169L456.177912,831.509111L471.343950,828.881188L476.703804,825.217373L491.954264,823.461801L507.404213,814.891170L520.789426,813.855285L524.047430,817.017463L528.084753,815.774399L529.666801,811.619958L537.572299,808.130680L575.520684,802.351593L580.331771,768.855451L605.733643,763.621795L614.867555,745.816694L608.771669,744.431989L600.442673,739.918085L583.066679,739.743635L581.036326,737.453982L577.803261,734.499250L574.678240,735.218851L572.946256,736.570832L567.457188,747.223207L551.646641,765.737060L549.787164,778.973942L539.672780,789.114358L527.098283,798.011851L509.120618,805.524634L502.057614,806.004408L495.644056,801.293915L504.692722,768.517443L500.680312,768.855451L492.085550,798.884160L488.835597,795.013299L482.261595,793.432248L462.084277,799.930931L436.980782,797.466659L424.842695,787.860429L418.474265,779.333761L402.468319,757.504998L380.955672,736.418189L387.512562,726.747212L402.798659,709.815080L405.675501,707.318355L419.568842,695.249130L431.039974,681.021396L435.378993,675.635632L438.713251,671.492759L435.457235,670.576969L438.415300,667.709679L442.834595,661.757085L468.774175,622.259482L473.387542,622.183171L482.638588,622.095957L490.157505,622.335794L490.749335,621.289235L493.236701,617.321044L496.005552,612.633369L499.737516,606.550331L505.924611,596.117690L507.304975,593.544979L510.210238,588.824727L518.471074,574.424300L519.746505,572.582021L521.221648,570.478122L531.076784,553.854227L535.844837,545.776762L544.747724,530.145279L545.138302,528.597407L545.214022,526.537215L546.778158,521.250501L547.764620,517.904082L549.447379,512.214108L550.483490,508.682419L550.581375,508.344511L551.483791,505.292447L555.598912,491.372987L557.689903,484.222590L561.798298,470.183564L562.413286,468.069010L567.533548,450.662278L572.830854,442.280574L576.545575,425.223126L582.773283,424.536475L595.746968,423.686336L617.046755,422.683610L618.328025,422.814401L620.016418,422.454727L669.266606,419.250372L668.690648,429.005164L668.400334,431.174121L709.617522,426.541933L716.039097,425.953374L726.593977,424.699963L743.943186,422.618215L773.740905,419.326666L800.011647,416.176817L819.451541,414.596447L827.484217,413.920704L829.687705,413.724520L844.711672,412.024265L858.853097,410.269518L868.310134,409.016129L889.114565,335.407187L909.415568,263.613294L930.759825,246.548387L937.551887,241.121684L943.219600,228.219777L942.742788,226.116696L945.763302,224.362317L953.487992,220.025419L954.047853,212.147139L954.819188,196.554233L948.638296,187.433981L944.628905,187.793559L958.441760,141.049627L960.284588,136.168351L973.919681,99.908277L986.224156,51.044489L990.705489,35.083987L994.267319,23.786520L995.403088,20.202300L997.730601,13.850967L998.844631,10.789706L1000.000000,7.456103Z "/></g><g fill="#000" font-family="Arial" font-size="12px" id="mylayer-label" stroke="none"><text text-anchor="middle" y="411.463575367"><tspan dy="0" x="484.880810555"><![CDATA[N]]></tspan></text></g></svg>