<?xml version="1.0" encoding="utf-8"?><!DOCTYPE svg  PUBLIC '-//W3C//DTD SVG 1.1//EN'  'http://www.w3.org/Graphics/SVG/1.1/DTD/svg11.dtd'><svg enable_background="new 0 0 1000 1001" height="1001px" pretty_print="False" style="stroke-linejoin: round; stroke:#000; fill: none;" version="1.1" viewBox="0 0 1000 1001" width="1000px" xmlns="http://www.w3.org/2000/svg" xmlns:xlink="http://www.w3.org/1999/xlink"><defs><style type="text/css"><![CDATA[path { fill-rule: evenodd; }]]></style></defs><metadata><views><view h="1001" padding="0" w="1000"><proj flip="auto" id="robinson" lon0="-73.8719442823"/><bbox h="0.42" w="0.84" x="-994.41" y="-716.13"/></view></views></metadata><g class="" id="mylayer"><path d="M1000.000000,493.309744L997.556937,492.574247L996.572229,492.264564L995.867220,491.935526L993.581010,490.793570L991.106156,489.593548L979.157394,483.709577L963.757285,476.199783L958.859876,473.741682L952.571194,470.664220L950.667615,469.715820L947.510577,468.167412L945.067890,466.967396L939.210005,464.083488L924.352313,458.160838L904.687934,450.399467L879.066238,440.644544L840.302225,422.567020L836.020389,420.418625L826.441752,415.250867L823.006596,413.625057L819.814778,412.270215L814.137342,410.025050L809.932273,408.999243L799.513465,407.044402L796.467048,406.289563L758.162981,386.934749L544.747696,292.948849L513.399181,284.761940L449.522126,251.414460L447.357549,253.582137L434.879589,265.581790L427.464384,272.936430L408.700777,292.135964L405.005283,295.755239L395.036302,305.103432L387.865766,311.335571L373.711132,323.354718L352.780619,340.328668L347.758587,344.393134L343.487653,348.051157L339.678778,351.302735L337.399168,353.431745L334.146815,356.838164L302.633518,386.876684L300.327073,389.083129L293.636844,395.412148L289.824887,399.089563L285.877535,403.018594L270.492891,418.076681L269.016857,419.508944L261.243811,426.089616L255.154783,430.638026L243.149618,438.031621L239.713817,440.160669L236.456305,441.960683L232.945928,443.702633L228.921247,445.909103L220.824141,449.857526L216.473665,451.289798L213.322499,452.412390L209.360278,453.651112L208.193081,453.960793L203.901771,455.083385L201.298234,455.876942L199.024001,456.554369L193.747410,458.064063L177.605249,461.780235L167.769605,464.489945L159.224122,467.044816L152.254993,469.638399L143.429129,472.909412L133.465083,476.915922L128.096717,479.199828L116.167461,485.354766L112.263044,487.677386L108.008967,490.406466L104.067919,493.251678L100.382376,496.193669L93.356217,502.426049L90.904981,504.864808L86.699739,509.722976L84.195384,513.148858L80.569034,518.607047L66.111651,545.027094L52.442451,570.285954L50.360545,574.253832L45.313039,584.183221L42.412523,589.215667L34.322690,604.216259L32.568334,607.100249L29.767681,611.242359L26.975373,615.036070L19.582981,623.900977L17.076916,626.359153L15.089221,628.294725L9.153382,633.559486L0.000000,640.740474L6.098208,647.147240L23.159979,663.948106L29.156925,670.045209L47.871938,688.472055L53.254238,696.853196L64.814571,717.854502L67.255447,721.377311L71.254490,724.435576L79.620086,729.584304L87.560729,735.681489L89.967835,738.004228L94.705648,742.823916L98.387610,747.585540L120.167733,731.539273L128.931866,725.248532L135.830200,720.912765L138.090224,719.673975L140.512075,718.570678L145.036678,717.099615L148.489849,716.635069L151.923947,716.596357L155.961784,716.344728L162.271956,716.209235L177.919976,715.357568L191.672964,714.505901L197.925419,714.583325L200.101217,714.931734L203.919665,716.286660L210.652108,720.448218L212.875035,720.428862L214.372813,720.138521L217.496500,718.260980L225.301840,712.512226L260.125633,686.304187L261.530229,685.355745L264.302701,684.213744L266.737203,684.000829L270.663097,684.813779L276.917767,687.155849L284.207659,690.310872L290.457240,692.343250L294.357564,693.369117L296.996254,693.911085L303.664279,694.782104L322.748600,699.679173L326.599879,700.105005L329.684709,700.008225L334.671782,699.195273L356.278064,696.117668L362.973963,695.517632L365.211523,695.595056L366.884183,695.866040L370.516993,696.737060L378.071567,700.472770L397.709382,711.931544L413.395751,721.028901L418.385498,724.009741L420.504873,724.706561L422.655125,725.267888L431.874845,726.932515L437.386696,727.803540L443.617016,728.964908L448.127693,724.242014L453.592915,719.035224L454.861350,717.506093L458.696125,712.879991L467.108218,702.040607L471.304335,695.536988L474.263644,691.259315L475.661058,689.033378L476.599125,687.252629L477.809458,684.639575L479.811679,678.813437L482.017657,670.683954L495.500148,667.877349L506.871482,666.019185L518.662830,664.432003L529.745821,663.406142L540.995775,662.825466L552.822126,662.806110L557.460451,662.999669L562.040917,663.638412L566.653179,664.741697L569.204553,665.767558L571.080195,666.657929L576.093418,670.451683L589.435469,679.084420L592.806511,681.174861L593.058002,681.329708L604.972315,689.865685L606.272505,690.794772L612.289655,694.472409L616.114929,695.807972L621.600883,697.356452L626.932471,697.588724L632.113280,697.143536L638.709181,695.904752L646.134715,694.820816L655.299968,693.814305L667.868265,693.136845L671.015915,693.136845L675.759853,693.582033L678.343721,694.143357L680.285213,694.704680L680.658482,694.878884L686.505126,697.472588L697.646754,705.273064L701.200619,706.279578L708.518889,705.505336L710.808987,705.060147L719.234024,702.156743L725.405796,700.705042L730.680447,699.988869L738.191414,699.214629L741.897538,698.575880L749.945747,696.853196L752.880867,696.446720L756.853003,696.291872L760.771511,696.291872L767.489958,695.904752L772.492839,695.324072L777.086418,694.394985L781.044176,693.678813L792.088628,692.207758L795.263521,691.433519L797.299447,690.794772L800.251190,689.459209L815.708328,678.677945L827.711102,670.451683L836.802888,664.741697L841.391988,662.341569L844.358375,661.102794L849.087376,659.689817L851.686905,658.722024L854.182120,657.638097L856.500826,656.321900L860.474647,653.379813L862.730948,651.270028L871.268544,641.456638L874.999262,637.779041L878.121946,634.836965L892.059698,622.507366L893.440265,621.210534L902.393585,612.190786L903.779456,610.971379L913.730184,616.042565L919.071093,618.287824L925.236330,620.610507L928.012432,621.868628L931.754592,623.397728L935.554766,615.578028L954.972618,577.873315L963.285144,562.311495L971.024329,547.756206L978.180801,534.188084L992.610089,507.458411L996.712898,499.832449L999.116751,495.303329L1000.000000,493.309744Z " data-aland="8208193" data-awater="25222" data-classfp="U1" data-funcstat="S" data-geoid="3680423" data-intptlat="+42.6882295" data-intptlon="-073.8735427" data-lsad="57" data-mtfcc="G4210" data-name="Westmere" data-namelsad="Westmere CDP" data-pcicbsa="N" data-pcinecta="N" data-placefp="80423" data-placens="02390496" data-statefp="36"/></g><g fill="#000" font-family="Arial" font-size="12px" id="mylayer-label" stroke="none"><text text-anchor="middle" y="524.290030381"><tspan dy="0" x="497.395329464"><![CDATA[Westmere]]></tspan></text></g></svg>