<?xml version="1.0" encoding="utf-8"?><!DOCTYPE svg  PUBLIC '-//W3C//DTD SVG 1.1//EN'  'http://www.w3.org/Graphics/SVG/1.1/DTD/svg11.dtd'><svg enable_background="new 0 0 1000 1001" height="1001px" pretty_print="False" style="stroke-linejoin: round; stroke:#000; fill: none;" version="1.1" viewBox="0 0 1000 1001" width="1000px" xmlns="http://www.w3.org/2000/svg" xmlns:xlink="http://www.w3.org/1999/xlink"><defs><style type="text/css"><![CDATA[path { fill-rule: evenodd; }]]></style></defs><metadata><views><view h="1001" padding="0" w="1000"><proj flip="auto" id="robinson" lon0="-122.777319546"/><bbox h="0.98" w="1.51" x="-1607.84" y="-791.24"/></view></views></metadata><g class="" id="mylayer"><path d="M1000.000000,174.298904L998.456046,175.124745L996.100150,176.309174L995.461577,176.569965L994.058267,177.015485L992.968957,177.178479L990.973350,177.265410L988.219769,177.232811L983.304934,177.135014L979.007447,177.243677L967.695525,177.048084L960.220686,177.080682L948.127636,177.221945L925.869744,177.232811L898.014138,177.352340L883.548901,177.461004L878.900846,177.450137L869.388017,177.526202L867.880283,180.612236L866.747339,182.828965L864.918920,185.817202L862.649355,189.153160L860.022461,192.673845L858.003425,195.270893L849.873491,205.061436L835.957518,221.578210L833.194974,224.870696L823.560843,236.443294L819.145496,241.659110L815.028772,246.505471L812.206605,249.950081L806.616260,255.969997L803.157466,260.566430L802.280010,261.729121L797.794507,267.379581L795.254631,270.313472L792.485532,273.519020L786.396453,280.832013L784.094527,283.689839L780.549199,288.188469L777.096350,292.426307L770.394877,300.293471L766.303539,305.281078L762.021533,310.464275L759.819855,313.006975L758.729616,314.289191L756.841912,316.353776L754.408120,318.907341L751.337708,322.025951L746.075225,326.959220L743.569180,329.154198L741.101647,331.175316L738.749712,333.261632L733.919613,336.967014L729.373623,340.270346L725.230219,343.204226L724.430819,343.780135L719.024707,347.268192L715.500561,349.441435L708.503277,353.440202L705.513647,355.059268L677.899905,369.261401L668.927107,373.803474L648.275053,384.441481L643.773256,386.821177L640.282789,388.744493L637.364455,390.472218L634.220775,392.493329L630.392352,395.199010L627.630141,397.317916L625.611285,397.959021L624.583573,398.371936L613.848877,402.414156L602.899400,406.662833L597.161721,408.966463L584.525690,413.921440L576.822137,417.018299L562.772108,422.505716L556.538356,424.994068L542.229182,430.535813L532.296772,434.556294L527.276596,436.457872L523.629926,437.794410L520.114229,438.989687L518.059688,439.576460L502.133845,444.118513L494.872143,446.237414L478.535890,450.812064L473.398116,452.539782L471.359966,453.267814L468.908624,454.256634L467.752797,454.778209L465.933357,455.712697L461.873590,457.896793L453.334145,462.634432L448.786064,465.144511L442.199896,468.676007L435.060892,472.609549L433.665288,473.489706L430.545702,475.695532L427.834547,477.857893L425.287263,480.454898L421.683606,484.475367L418.515280,488.115520L417.405836,489.191266L416.253996,490.223548L414.864241,491.331893L409.532440,495.287162L408.450518,494.809053L405.771433,494.320077L403.998969,494.396140L403.151341,494.700391L402.145778,495.189367L398.355553,496.645427L396.767186,497.123536L393.733849,497.569047L392.469992,497.579914L390.152204,497.319127L387.254545,497.210465L384.653640,497.308261L383.217390,497.471252L380.541337,497.536449L378.905607,497.406056L377.532826,497.145269L373.568467,495.765271L370.784351,495.124170L368.904846,494.743856L366.796142,494.635195L362.883105,494.276613L360.456456,493.939763L357.882307,493.113937L357.263804,492.853150L354.852502,492.212049L353.763927,492.038191L353.115625,492.049057L351.865320,492.331576L349.399412,492.994410L348.606651,493.168268L348.149084,493.179134L345.701310,493.113937L344.178272,492.885749L342.187068,492.657560L340.921241,492.461970L340.029123,492.027325L338.306662,491.701341L337.571620,491.516617L337.485855,491.375357L337.575349,490.951579L342.040523,483.138833L355.875008,460.461204L337.206448,460.102621L309.999276,459.407187L284.126489,480.498363L168.532212,542.435198L127.597263,570.687010L109.635088,586.323279L81.075037,610.826228L77.129223,614.238166L58.988920,608.174913L48.968995,611.608584L50.089154,613.912185L50.994404,615.933268L51.284512,616.346178L52.236385,616.530901L53.769237,616.911212L56.847348,617.302390L58.769388,617.628371L60.276265,618.106476L64.260485,620.084096L65.843703,621.235896L67.057927,622.311633L68.822761,624.876018L69.274138,626.342932L69.354275,626.842770L69.740653,627.016626L69.445900,649.998270L51.039061,668.101044L46.987279,673.208065L42.785471,678.836653L40.692176,681.401028L34.481520,688.702975L28.259857,695.016114L25.471108,697.765208L22.905544,699.818878L22.578128,700.123126L21.754781,700.905477L9.046560,715.161638L7.797759,716.672008L4.900415,719.834005L1.904040,723.365444L0.767240,725.310451L0.384352,726.375316L0.045606,727.103335L0.000000,728.309457L0.461647,730.417454L1.457609,731.775699L1.831823,732.514584L2.641004,734.090148L7.204133,744.923504L10.098000,752.660058L11.156204,754.854979L12.307577,756.550066L15.094056,760.027167L16.274977,761.157224L17.796766,761.961304L19.125740,762.558930L20.456468,762.874042L21.649335,763.047897L22.664852,763.102227L25.375979,763.037032L30.045598,762.624126L32.313562,762.602394L33.491897,762.645858L34.418830,762.787115L35.237966,763.102227L38.455871,764.569129L39.647868,764.884241L42.385382,765.405806L45.439677,765.612258L54.059027,766.003432L58.850482,766.275080L70.015347,766.742316L73.396154,766.785779L77.576638,766.840109L80.175044,766.774913L94.233621,766.448935L96.699025,766.318544L98.658635,766.220751L102.214404,765.688320L109.158990,764.221419L110.178116,763.906306L111.564298,763.558596L124.764572,759.190489L128.893963,757.788783L133.918277,756.202356L135.982600,755.669925L139.381138,754.887577L150.858452,753.018634L152.316927,752.736120L153.828297,752.312348L155.586193,751.714721L163.526775,748.585329L179.149719,742.337408L195.802351,735.785237L201.103696,733.612046L207.179493,731.210669L212.039677,729.189600L214.247320,728.342055L217.003102,727.407582L218.315089,727.081603L219.707113,726.864284L221.076120,726.809954L234.176091,726.994676L234.704083,727.038140L228.762460,736.915297L226.909879,739.903434L223.658515,745.847110L222.873414,747.379208L222.514650,748.237618L221.670620,750.899775L221.596796,751.410475L222.645154,763.580328L223.024474,765.807845L223.716533,767.502931L224.427584,768.817709L233.462262,778.064615L240.965890,785.627297L247.218234,792.103384L259.092279,803.947228L260.040977,804.696975L260.809266,805.164209L261.605340,805.446723L262.325226,805.642309L263.405436,805.816164L264.561669,805.881359L265.398072,806.000884L314.377614,806.022616L329.382975,806.142141L337.136906,805.957420L339.440356,805.696639L341.845837,805.327198L344.752143,804.751305L349.777597,803.610385L362.774761,800.198489L367.785457,798.731592L373.459965,797.242962L375.567398,796.514946L379.798806,798.459944L381.149285,799.177094L382.478639,799.970305L383.123619,800.426674L384.454613,801.958767L384.936660,803.349603L385.181636,804.675244L385.242670,806.087811L385.019312,807.315659L383.745746,812.672549L381.613872,821.191412L381.188993,823.234200L380.985221,823.744897L380.905709,824.222996L380.990767,824.505510L381.100730,824.635900L381.467883,824.701096L381.788725,824.701096L383.195058,824.320789L384.927483,823.386323L386.089813,822.756101L391.980882,819.029099L397.572523,816.540809L399.312976,815.943184L400.976680,815.693269L402.396849,815.682403L404.687108,815.736732L407.081610,815.986648L416.919131,817.323153L419.973715,814.661008L420.441047,814.704472L421.016217,814.671874L422.010378,814.508886L431.001628,812.509560L433.163017,812.813805L443.101539,798.861982L452.927835,790.408301L490.112648,758.364678L501.177843,751.703855L525.514477,739.425332L529.322565,741.185617L508.293318,751.051898L504.058911,756.484870L510.128666,756.484870L525.248124,748.878709L539.113202,739.099354L617.064499,649.585361L623.327173,642.392056L620.232337,625.006410L575.966172,646.857990L574.005375,647.825066L539.610088,644.565260L528.698949,650.682829L518.057467,656.659137L499.275508,667.220897L471.812768,682.596287L469.204752,672.816889L467.532383,672.969013L428.318852,678.738859L415.249204,687.246932L414.632114,686.508045L413.827138,685.736559L412.686674,684.639094L419.986371,680.249232L426.504628,677.119825L432.120328,674.229469L441.171693,670.132986L443.535261,669.187644L457.258698,661.527110L475.606896,651.595574L500.513700,636.861249L507.076551,632.666962L524.734107,621.290226L546.828626,604.393529L549.030625,602.296381L600.347902,571.773617L633.477061,553.301286L645.673839,534.372557L650.471447,526.929279L669.792612,496.960545L673.543203,491.136303L702.115107,446.813320L765.000975,395.742319L857.777510,303.868466L866.774681,294.969010L906.562708,255.567945L958.380073,215.362689L990.318461,193.477952L993.513274,191.304690L992.578462,183.633072L1000.000000,174.298904Z "/></g><g fill="#000" font-family="Arial" font-size="12px" id="mylayer-label" stroke="none"><text text-anchor="middle" y="568.71714775"><tspan dy="0" x="425.841883476"><![CDATA[N]]></tspan></text></g></svg>