<?xml version="1.0" encoding="utf-8"?><!DOCTYPE svg  PUBLIC '-//W3C//DTD SVG 1.1//EN'  'http://www.w3.org/Graphics/SVG/1.1/DTD/svg11.dtd'><svg enable_background="new 0 0 1000 1001" height="1001px" pretty_print="False" style="stroke-linejoin: round; stroke:#000; fill: none;" version="1.1" viewBox="0 0 1000 1001" width="1000px" xmlns="http://www.w3.org/2000/svg" xmlns:xlink="http://www.w3.org/1999/xlink"><defs><style type="text/css"><![CDATA[path { fill-rule: evenodd; }]]></style></defs><metadata><views><view h="1001" padding="0" w="1000"><proj flip="auto" id="robinson" lon0="-90.8737779134"/><bbox h="0.13" w="0.3" x="-1240.66" y="-672.0"/></view></views></metadata><g class="" id="mylayer"><path d="M1000.000000,298.589650L763.513015,295.583424L725.904552,294.708886L681.036274,293.725031L661.716936,293.287762L643.124639,293.178445L577.169519,292.522542L510.935296,291.538687L437.582548,290.664150L401.955349,290.117565L357.827954,289.898931L312.914968,289.625638L269.273393,289.188370L236.158030,288.751101L151.459080,288.149858L122.477815,362.650224L120.507201,367.624260L114.719426,382.218452L106.048221,404.082526L34.655932,591.354014L24.150080,616.772559L12.177998,651.757530L0.000000,689.421437L46.548178,691.061384L115.944553,691.389373L122.973880,691.990688L163.453969,692.264012L300.076383,695.106590L351.072834,695.762570L361.968195,696.090560L392.366318,696.965200L425.179710,697.019865L848.721451,710.850142L927.056134,488.916449L1000.000000,298.589650Z " data-aland="1343049" data-awater="0" data-classfp="C1" data-funcstat="A" data-geoid="1750790" data-intptlat="+40.0065964" data-intptlon="-090.8737287" data-lsad="47" data-mtfcc="G4110" data-name="Mound Station" data-namelsad="Mound Station village" data-pcicbsa="N" data-pcinecta="N" data-placefp="50790" data-placens="02399405" data-statefp="17"/></g><g fill="#000" font-family="Arial" font-size="12px" id="mylayer-label" stroke="none"><text text-anchor="middle" y="490.015256802"><tspan dy="0" x="500.467390194"><![CDATA[Mound Station]]></tspan></text></g></svg>