<?xml version="1.0" encoding="utf-8"?><!DOCTYPE svg  PUBLIC '-//W3C//DTD SVG 1.1//EN'  'http://www.w3.org/Graphics/SVG/1.1/DTD/svg11.dtd'><svg enable_background="new 0 0 1000 1001" height="1001px" pretty_print="False" style="stroke-linejoin: round; stroke:#000; fill: none;" version="1.1" viewBox="0 0 1000 1001" width="1000px" xmlns="http://www.w3.org/2000/svg" xmlns:xlink="http://www.w3.org/1999/xlink"><defs><style type="text/css"><![CDATA[path { fill-rule: evenodd; }]]></style></defs><metadata><views><view h="1001" padding="0" w="1000"><proj flip="auto" id="robinson" lon0="-74.6417104668"/><bbox h="0.49" w="0.47" x="-1016.19" y="-681.54"/></view></views></metadata><g class="" id="mylayer"><path d="M480.754460,0.000000L464.111253,15.764228L454.686909,24.332512L437.805718,35.511490L408.462550,54.154388L389.860733,65.366970L378.798060,71.994131L365.605397,79.156841L351.678844,86.286100L347.303576,88.060051L338.472713,89.967886L304.902921,93.080672L280.963448,94.888098L258.824456,96.327345L216.181464,98.837663L199.788169,100.076087L187.495160,100.912861L163.267660,102.586409L152.851786,102.988060L137.600290,103.590538L111.648914,105.565327L88.621236,106.937638L68.547716,108.042182L60.878982,108.477306L56.596370,108.845488L28.333583,275.871632L32.102708,276.072472L93.119726,279.218964L92.502520,281.829886L89.845904,294.148118L81.967283,330.132434L70.165932,381.783390L69.315210,386.068157L41.645781,527.168344L35.515562,547.053569L98.111700,543.136770L156.566863,541.295541L249.759743,540.358189L237.760084,589.469219L232.712425,610.627100L219.178869,676.311414L169.735001,849.971443L156.916294,895.037322L155.691208,899.289494L155.237344,900.963580L152.937450,908.999206L139.528414,953.329545L125.709261,987.582307L127.606110,989.323418L137.937672,999.000000L142.737536,995.383834L158.783272,981.722808L168.607424,969.401163L176.421687,964.211359L187.985096,952.057213L196.147814,942.682155L204.352148,931.800437L212.093822,920.383054L221.645618,906.588515L231.315222,894.233763L239.058414,883.586627L252.060042,867.549047L262.417074,859.245706L279.746600,849.067456L294.086090,841.333352L308.153828,836.512105L329.025638,828.878483L353.923225,819.269527L371.537309,811.301153L390.363925,800.754815L411.026398,789.471957L431.387301,776.548628L455.998109,759.574306L476.472340,746.985929L505.908568,729.241783L523.136664,720.068444L538.255467,714.979599L549.811134,712.401701L556.498105,712.535618L559.273110,712.569097L568.419100,714.410453L580.780028,715.515266L585.051939,716.385726L586.947336,716.753998L590.390302,717.457062L606.031721,719.599734L626.781979,721.206740L651.866331,718.930149L669.512543,718.260564L684.100308,717.323145L701.838381,717.055311L718.427151,717.189228L738.028025,719.800610L754.306591,724.085961L764.955524,728.036525L775.078637,733.627588L782.228988,739.888255L805.090349,755.991969L824.902049,764.830642L828.439990,766.270277L830.004920,763.022729L831.553003,759.741705L861.380998,697.403077L866.402688,685.953295L870.176733,676.847073L939.507280,676.445329L931.288685,653.813839L926.836559,640.857738L921.589627,625.993458L919.053741,617.557014L917.749348,611.731867L916.537069,605.103269L915.098007,591.009186L915.057065,588.900102L914.752547,579.526417L914.814329,577.183002L928.339716,548.760894L934.139357,521.812081L936.735957,504.939930L938.738584,486.394086L945.402007,469.656079L951.769427,454.357639L959.697771,435.310041L971.666417,406.588280L967.265344,402.939502L942.655939,382.754157L934.135680,376.126169L915.404586,360.058392L905.782224,350.417776L898.892521,343.522080L896.660807,341.279309L886.269978,334.551009L868.264552,321.897838L843.445402,300.909782L832.405172,289.930455L827.941510,286.650056L810.099166,273.662395L802.630504,267.369429L756.069776,228.875569L738.153674,214.315003L689.680336,173.880590L688.219167,172.675601L671.071349,158.215778L660.541668,149.345789L643.404878,134.852631L585.014429,86.486925L569.055848,73.567248L558.529703,65.032265L493.085690,10.040898L480.754460,0.000000Z "/></g><g fill="#000" font-family="Arial" font-size="12px" id="mylayer-label" stroke="none"><text text-anchor="middle" y="429.64569855"><tspan dy="0" x="470.57066609"><![CDATA[N]]></tspan></text></g></svg>