<?xml version="1.0" encoding="utf-8"?><!DOCTYPE svg  PUBLIC '-//W3C//DTD SVG 1.1//EN'  'http://www.w3.org/Graphics/SVG/1.1/DTD/svg11.dtd'><svg enable_background="new 0 0 1000 1001" height="1001px" pretty_print="False" style="stroke-linejoin: round; stroke:#000; fill: none;" version="1.1" viewBox="0 0 1000 1001" width="1000px" xmlns="http://www.w3.org/2000/svg" xmlns:xlink="http://www.w3.org/1999/xlink"><defs><style type="text/css"><![CDATA[path { fill-rule: evenodd; }]]></style></defs><metadata><views><view h="1001" padding="0" w="1000"><proj flip="auto" id="robinson" lon0="-74.8763959797"/><bbox h="0.47" w="0.64" x="-1027.45" y="-655.58"/></view></views></metadata><g class="" id="mylayer"><path d="M1000.000000,334.034552L990.285623,333.090725L980.785809,331.779855L969.887385,311.985801L888.135483,267.417010L827.033559,220.306086L825.515324,213.306379L813.759407,206.490204L805.431557,190.419840L807.308007,184.626147L813.988586,153.691733L819.249287,144.726072L799.010507,163.968206L773.904033,188.165279L771.317157,190.655783L764.289865,197.445696L721.951245,239.286668L705.664437,255.383580L636.299085,321.292918L592.004634,364.210999L584.186567,372.023904L578.775129,368.694240L566.834205,361.563007L546.456557,349.293142L521.885931,335.345424L523.129949,334.086987L525.446078,335.555163L598.808399,249.851893L597.978449,248.908099L595.543667,241.331547L593.193748,237.084494L593.140407,234.226913L595.877934,223.845271L595.464353,219.100142L590.630082,217.212580L588.237257,214.486103L587.911524,214.145294L585.010434,212.493680L575.363201,203.003477L565.498229,190.708215L564.941682,188.112848L566.678841,182.214297L571.635534,171.098845L572.129510,167.323798L569.197439,151.961515L567.395140,148.894314L564.736227,147.216530L558.538622,145.329025L549.451824,137.988740L548.269932,137.516866L541.923223,135.629368L538.010918,135.603153L534.979082,136.782839L532.463117,138.670337L527.093867,144.096904L526.173770,143.965827L525.464578,143.625028L524.831022,143.389090L524.059495,142.681277L521.992956,142.681277L515.070502,146.220346L508.943925,147.635976L503.044709,147.845699L498.120833,145.250379L492.924191,140.977282L482.259287,137.910095L471.326634,138.355754L436.366445,144.935794L430.846512,146.823299L427.387534,148.946744L424.396228,152.013946L413.370477,162.395273L405.167646,167.821894L392.379758,172.540705L388.142651,175.136055L385.985300,175.371996L381.525650,174.166075L378.840242,175.109839L376.086361,175.345780L374.395201,172.986371L374.103095,167.323798L372.447590,163.758481L369.521819,160.455325L368.486579,157.388112L364.811718,154.530627L357.461642,154.530627L337.838110,158.515378L323.112874,166.773271L317.226581,172.435842L312.066719,176.210898L310.753899,178.570310L309.576313,186.618547L306.695041,191.337395L302.579128,195.112480L301.822298,195.584366L273.660852,207.145605L265.435255,211.130444L248.681988,223.163650L242.888967,229.088519L238.317042,235.930974L236.726284,239.234236L235.078205,241.357763L231.155797,242.956964L231.392577,243.455076L230.438991,244.739682L226.719484,245.866989L223.179554,248.409986L220.571157,254.806816L220.025803,255.645746L218.943822,256.353593L215.196291,256.563325L213.532645,256.641975L212.557757,257.926587L213.186321,258.975251L213.746967,259.892832L213.735951,262.462061L211.555546,264.873993L206.801812,267.993777L203.738180,268.413245L201.381475,266.866460L199.629034,265.293459L197.974545,262.881527L195.422386,261.492046L193.376539,260.915280L190.227972,261.623129L185.210272,264.192359L179.547145,264.323443L170.901478,262.645577L166.606157,263.196127L164.413158,264.638043L162.317670,266.761593L158.537902,275.544198L154.848830,278.087227L152.974841,278.952382L151.921178,276.959904L152.094920,274.416877L151.447195,273.577940L147.900852,271.585467L148.078890,269.461913L152.947066,264.506959L152.884330,261.754212L152.672858,261.387179L149.583635,261.387179L142.485748,263.930193L139.119840,264.218576L138.046587,263.956410L136.665763,264.087493L131.835634,258.424703L126.230928,254.885465L122.391755,254.466001L119.757571,252.342461L120.596375,250.507305L122.554203,248.200254L121.583759,248.095388L120.362405,246.889431L117.899673,249.825676L115.095040,253.705721L112.584960,257.743071L110.435210,261.859078L108.653514,266.027526L107.676291,268.911362L96.081462,303.360364L95.394267,305.693685L94.246521,310.386553L93.439669,315.079430L93.397634,315.656209L92.934115,320.847224L92.999816,326.483946L93.601883,331.963377L94.510653,336.184382L95.735009,340.274308L97.311695,344.180717L99.219407,347.903610L101.719966,351.783815L62.459637,366.596816L54.397713,369.664299L51.375678,371.027626L49.681707,371.787943L46.007514,373.701846L41.526458,376.402287L37.216141,379.391129L33.097871,382.668372L29.221979,386.207799L25.625214,389.956976L22.315299,393.889685L19.953665,397.062075L6.118002,416.987929L0.000000,424.958317L0.000000,424.958317L71.332000,484.946830L140.440605,546.929553L151.187986,556.526007L169.557206,572.729943L179.442009,581.566116L250.568930,644.967271L258.206637,651.522491L278.542731,668.723472L287.727868,676.537374L326.441021,709.418969L349.212706,730.946957L410.608175,788.714244L417.264493,795.060077L441.440481,819.499558L450.089428,828.126859L459.123327,839.140480L460.866229,840.241845L464.556999,842.182346L473.371168,848.292313L482.529326,855.188989L497.754272,859.279803L500.696701,860.722079L507.175940,863.396847L519.867304,850.888398L525.141238,844.909540L590.312838,770.961734L614.598286,743.376115L617.377495,740.229487L654.048896,698.641937L657.926461,694.079413L681.196023,666.835554L711.058815,631.883107L742.444596,595.593935L759.760564,575.771470L795.671162,537.647774L842.608179,491.160761L897.848715,436.442015L979.373001,355.690243L994.543086,339.907263L1000.000000,334.034552Z " data-aland="6368624" data-awater="81193" data-classfp="U1" data-funcstat="S" data-geoid="3463180" data-intptlat="+39.0190509" data-intptlon="-074.8778704" data-lsad="57" data-mtfcc="G4210" data-name="Rio Grande" data-namelsad="Rio Grande CDP" data-pcicbsa="N" data-pcinecta="N" data-placefp="63180" data-placens="02389752" data-statefp="34"/></g><g fill="#000" font-family="Arial" font-size="12px" id="mylayer-label" stroke="none"><text text-anchor="middle" y="446.557557618"><tspan dy="0" x="484.21487898"><![CDATA[Rio Grande]]></tspan></text></g></svg>