<?xml version="1.0" encoding="utf-8"?><!DOCTYPE svg  PUBLIC '-//W3C//DTD SVG 1.1//EN'  'http://www.w3.org/Graphics/SVG/1.1/DTD/svg11.dtd'><svg enable_background="new 0 0 1000 1001" height="1001px" pretty_print="False" style="stroke-linejoin: round; stroke:#000; fill: none;" version="1.1" viewBox="0 0 1000 1001" width="1000px" xmlns="http://www.w3.org/2000/svg" xmlns:xlink="http://www.w3.org/1999/xlink"><defs><style type="text/css"><![CDATA[path { fill-rule: evenodd; }]]></style></defs><metadata><views><view h="1001" padding="0" w="1000"><proj flip="auto" id="robinson" lon0="-80.6636824975"/><bbox h="1.38" w="1.51" x="-1136.52" y="-552.39"/></view></views></metadata><g class="" id="mylayer"><path d="M720.992413,409.211042L711.923725,406.662081L703.747028,404.268271L695.679287,402.107192L677.341883,396.953841L678.655657,394.216466L672.862581,392.265947L671.567412,395.335798L664.969891,393.473939L656.083553,416.503275L651.159092,415.539105L646.552131,414.608183L651.059524,404.778064L657.617292,391.357181L656.040075,390.891716L649.306640,389.273669L651.091651,384.408441L654.296720,375.608895L649.587436,374.899611L647.489767,374.578216L646.183388,376.694987L644.503761,376.451170L639.449054,375.708638L637.762912,375.453739L637.911898,375.121262L638.875640,373.292637L641.727776,367.851086L642.357232,366.831487L643.639424,364.736874L643.366630,364.637131L642.556628,364.304652L642.286627,364.193826L643.130236,363.063399L645.498122,359.838355L645.672229,359.849438L646.768084,359.860520L651.411712,353.222016L652.035574,352.446230L644.415164,348.733536L636.091516,361.733485L634.541128,364.448726L634.262711,364.925278L633.538274,366.100035L632.897646,367.053139L632.413421,368.272225L631.964569,369.646467L631.437511,370.998543L630.949555,372.417114L630.787527,372.838252L630.409467,373.747023L630.085394,374.921776L630.213844,375.631060L623.376279,372.727426L624.370867,369.114502L624.803910,367.507526L621.021641,358.430861L600.491246,354.186207L590.174405,352.047254L589.436098,351.836684L588.015346,351.415543L587.590690,352.435148L587.185594,353.377174L586.186379,355.493960L583.151513,361.844311L582.148590,363.938926L581.740718,364.781204L580.488245,367.274791L580.070136,368.083821L574.343363,365.834052L557.163131,359.084736L551.427105,356.834960L552.105926,356.025927L553.231711,354.662761L554.150776,353.565579L554.823083,352.745462L550.646563,350.883575L549.628789,352.113750L548.294422,353.676405L531.140286,376.550913L530.433786,374.478473L530.572741,371.896232L530.689229,370.732561L530.703210,370.566322L531.178204,368.903933L528.861971,366.310604L527.822746,367.995160L527.057389,368.261142L526.023954,367.817838L525.243858,366.443596L523.644577,363.628613L520.567921,358.918497L520.272825,358.464109L518.487593,353.654240L517.566275,349.996961L517.588298,344.998672L518.450367,338.404463L517.774866,335.101812L515.984775,332.785520L514.252189,332.087308L513.348192,331.721577L507.573163,329.848593L506.739021,329.316621L506.546377,328.751400L505.707442,329.161462L503.200891,330.314068L502.358235,330.701965L499.917686,332.552783L496.944523,334.780413L495.026338,336.331995L493.173358,337.661921L492.563465,338.049816L490.903258,339.058344L490.020550,339.568148L490.871267,341.474374L491.271498,342.360990L486.943594,345.087334L486.453035,344.300462L485.377904,342.582645L485.509194,342.505066L485.849993,342.261246L486.871463,341.496540L487.256020,341.263803L487.737419,340.942404L486.683523,340.543427L485.171498,340.521262L484.016067,340.488013L481.643614,334.979902L481.771348,333.771884L481.906558,332.386542L481.083699,331.145274L479.803754,329.538276L475.960224,324.695109L474.673781,323.077024L474.020125,323.453838L472.058229,324.551033L471.398057,324.916764L469.361152,323.542501L465.554544,320.915881L463.497255,319.031807L461.659665,317.347222L461.913014,316.748751L462.656312,314.909005L462.859370,314.399195L462.915252,314.288367L460.946584,311.573077L455.040651,303.427190L453.077622,300.689723L452.804912,300.257491L451.958855,298.960795L451.676836,298.528563L451.565134,298.417734L451.081082,297.974419L449.299415,296.289821L448.697148,295.724594L447.120316,294.039995L442.868303,289.451673L442.388925,288.952942L440.811190,287.235090L436.882125,283.433645L433.888511,280.795905L431.950544,278.845306L430.310386,277.448854L430.245239,277.338024L426.822589,274.112881L428.068613,272.827256L430.071647,271.198057L432.628631,269.624273L436.071860,268.449476L438.927536,267.573919L443.391176,266.376955L448.370651,264.980496L450.339948,264.260100L451.547622,263.717033L453.285111,262.919056L455.206063,261.910501L457.575941,260.192632L460.445098,257.455122L461.493682,256.435483L462.875808,254.462700L463.640445,253.387644L463.494552,252.268255L455.642098,231.764518L451.069948,234.867796L454.363968,245.097506L449.620540,248.178603L448.242773,244.044612L440.697678,247.934775L440.470485,248.023440L418.101312,256.646060L415.594037,260.347794L412.447623,269.646439L411.932407,271.098310L410.394717,273.392487L413.755552,274.168296L422.196297,278.058416L423.836504,279.233210L427.546050,281.948532L429.981067,284.475441L434.476944,289.130269L436.414777,291.856664L438.291216,294.383564L438.526701,294.704968L444.843007,303.216615L446.951264,306.042742L448.918974,308.724790L454.812864,316.770916L456.771311,319.452953L458.202019,321.237282L462.036204,325.969627L462.823929,325.614979L465.302567,324.462371L465.468249,324.728357L465.956930,325.448737L466.124483,325.670393L466.362780,325.980710L467.077673,326.911662L467.309455,327.210897L468.721551,329.106049L470.784323,331.854570L473.002575,334.724999L474.432389,336.586897L474.795433,337.030206L475.865947,338.360133L476.225271,338.781276L477.142172,340.055788L478.708819,342.261246L479.906866,343.823907L480.853578,345.054086L483.482424,348.401056L488.041990,354.208373L491.311344,358.486274L493.894640,361.866476L491.700887,363.440208L485.470679,367.840004L485.084270,368.006243L484.227658,368.338721L482.796607,368.438464L483.334695,369.036924L484.624993,370.455496L484.911720,370.832304L485.409774,371.441846L486.643286,372.827169L487.402944,373.691610L490.195791,377.127207L491.374382,378.545774L493.275766,376.949886L498.966893,372.140049L500.861764,370.533074L503.379036,373.769188L509.833348,382.070025L510.917923,383.455343L513.440853,386.669277L510.361601,389.428824L501.126659,397.696368L498.040903,400.444822L497.635928,399.835286L496.981454,398.848945L496.368868,398.028842L495.933170,397.430388L495.263809,396.355387L493.118862,393.230124L492.403884,392.188369L492.106853,392.443267L491.213903,393.141464L490.915944,393.363114L490.648711,393.573682L490.101220,393.861826L489.770686,393.917239L489.473673,393.950486L485.497702,397.940182L480.869012,402.561573L487.228878,406.806152L490.682085,409.100217L490.392088,416.824665L483.945008,423.008640L477.200920,429.447496L495.158162,450.293329L493.322967,452.365713L490.966362,454.992208L479.271843,468.069238L481.196413,468.745252L485.330471,470.185938L486.995269,470.673554L488.959880,471.227664L489.592094,471.416061L490.407734,471.615540L491.513875,471.881513L492.150744,472.014499L491.635859,472.801334L490.228999,474.430415L487.825883,476.946068L485.793339,479.062761L483.366023,481.711396L478.545847,486.798097L476.099920,489.446725L474.394196,491.264191L469.893402,496.007331L467.605640,494.444755L466.605619,493.757665L460.813446,500.373672L461.323707,500.861283L463.357303,502.767399L463.125468,503.022286L462.398305,503.764785L462.159952,504.008590L460.643247,505.593324L458.812774,507.499437L456.251422,510.236701L456.122004,510.380767L454.576439,511.932252L453.728240,512.785568L453.325092,513.239931L451.513254,515.256859L449.585954,517.140801L448.292708,518.393068L445.773902,515.013054L438.220387,504.861908L435.695137,501.470797L429.211760,496.273301L428.049762,497.115540L423.347767,500.440164L403.691199,493.646844L400.945414,497.115540L392.904559,507.222386L389.466041,509.782337L381.268724,515.855288L382.251093,517.794639L383.834068,520.897599L393.781777,536.401266L384.078244,559.684310L401.732789,565.557680L409.903019,580.507012L394.764266,592.918555L389.016012,597.550706L261.187878,554.885869L254.439070,552.625169L250.609510,557.623087L248.323698,560.559775L239.638593,571.708082L235.457141,576.994093L230.309273,583.787211L224.789935,590.946010L228.895555,595.234632L263.405842,631.216686L280.651242,649.877971L298.010146,694.668986L283.386468,717.939644L273.419795,732.666548L274.852242,733.929800L279.776444,738.373341L282.771760,741.010651L284.684821,742.694983L277.417797,749.587433L268.820463,757.732028L271.105448,760.712833L278.097689,764.081471L278.118897,766.696595L278.131803,769.566581L272.414879,771.561163L268.853573,773.278719L262.979502,776.082212L258.301145,779.129484L254.841485,781.367841L251.653656,783.340254L242.079919,789.224240L241.795954,789.390454L238.826811,790.864219L238.540545,789.523426L237.659405,785.478879L237.366626,784.127002L236.860461,782.254319L236.128718,779.539480L233.145613,781.068655L231.226700,782.032700L227.730623,783.971869L224.805270,785.567527L227.232158,792.792301L228.350562,796.116578L198.475442,810.178225L192.416960,812.937358L182.413378,817.015108L182.894241,818.211838L182.419396,818.433455L181.006022,819.053981L180.530235,819.242355L178.310548,820.217468L174.035964,822.067964L171.647752,823.120641L169.421541,824.084672L165.701878,825.691388L161.295073,827.586205L154.541972,830.589098L150.826036,832.217972L149.704088,832.716607L149.475052,832.849576L145.458511,835.043569L144.113142,835.763818L141.183917,836.894056L134.136449,839.586678L132.387834,840.207200L129.446470,841.237709L127.599154,841.880392L126.747184,842.157410L120.022666,844.307072L118.622259,844.728140L115.919204,845.514872L111.154582,846.722670L101.444633,849.005297L98.372752,849.592575L97.661382,846.833477L97.204884,846.168634L96.106862,845.758647L94.694247,845.858374L91.980898,846.501056L80.192149,847.719935L77.890497,842.511994L77.443319,841.847150L76.314576,841.448243L66.485006,842.356864L66.119985,842.401187L58.668305,841.891473L55.805700,841.647696L49.348821,842.068764L48.683900,841.935796L43.017543,842.102007L38.660521,842.467671L36.795376,842.700366L35.486228,843.165757L34.562607,843.653309L30.514339,849.116104L23.709070,849.182589L24.376902,846.456733L20.233017,846.456733L21.544566,841.248790L5.542646,841.115821L2.151191,854.545647L1.720582,856.440444L0.020180,862.822909L0.000000,863.864491L0.710744,864.629056L3.151437,864.551491L3.757734,864.806346L4.311956,865.304975L6.031908,868.385393L8.792115,871.698501L8.027386,874.069753L7.537285,876.163988L5.700950,885.083861L6.354069,886.114354L7.403632,886.347046L8.944787,886.291643L14.541362,886.070032L14.718294,886.070032L16.773650,886.524335L21.316116,900.253122L22.820988,902.967846L23.252413,903.732400L24.403790,904.818289L29.872656,904.142378L34.203340,902.845960L34.604633,902.657592L41.462916,899.422083L49.721574,895.654706L60.475485,890.668463L65.493975,888.341547L75.561713,883.787434L76.945310,883.211244L80.721727,881.416190L84.662069,879.709780L88.204662,877.659870L91.194140,875.698603L94.531789,873.427078L97.617031,871.011503L100.544799,868.296748L103.406370,865.327137L105.975535,862.335360L108.085658,859.465468L108.350927,859.077645L115.504461,858.922516L117.895687,858.523611L123.804687,857.060962L126.906300,864.640136L125.201316,870.302343L124.444797,874.601623L150.895295,872.440903L156.078995,857.991739L163.141060,857.238253L157.218038,874.402172L160.118725,874.235963L161.326069,870.402068L164.673657,870.014246L167.306918,869.393731L169.559987,868.064055L171.675849,865.836846L182.464839,846.877800L186.136906,839.431548L189.057962,833.303888L188.517576,832.417426L188.953944,831.276106L196.852083,833.082273L201.267268,834.112784L214.526798,837.148913L218.947580,838.157262L219.463514,838.290231L221.006642,838.633734L221.518844,838.744541L239.410659,842.910900L247.359177,844.739221L251.525813,845.869455L252.070681,835.641930L287.195010,836.051918L287.082602,836.794329L286.152628,842.744689L286.522359,845.381903L285.079455,851.631424L285.637741,852.927866L284.239515,859.000080L284.102879,859.653840L283.665036,861.615118L283.519089,862.268876L283.359307,868.008652L282.740223,870.800971L278.700468,888.773689L276.993736,895.887397L276.686903,896.995449L274.268537,905.715808L273.452109,908.441608L270.977717,916.607910L270.929362,916.763036L270.192042,919.322618L268.411463,925.361450L266.194851,932.873961L263.069934,943.477870L261.540503,948.630226L262.291967,948.530503L282.092442,949.372607L341.493936,951.898919L361.300035,952.718862L362.154939,952.763184L364.728015,952.862906L365.585708,952.896147L370.210365,953.095593L384.089918,953.671769L388.708054,953.860134L390.162692,953.926616L394.529393,954.114981L395.977506,954.170382L399.357030,954.247945L409.479767,954.469551L412.852767,954.536032L418.167680,955.101128L418.570893,949.871222L419.820519,933.727151L404.129386,932.319942L394.397513,931.433511L390.783200,931.067858L379.951420,929.926577L376.333376,929.538763L372.541186,929.139869L372.576417,921.228453L372.729575,884.097690L372.774454,871.709582L372.823381,859.676001L360.547099,859.465468L327.455220,858.822790L329.623067,839.631001L325.959604,839.387225L326.759692,829.846685L333.888045,829.791282L355.021675,829.625070L355.337497,827.519720L355.605041,825.791115L356.391856,820.594215L356.652890,818.854526L357.754697,811.629818L360.131255,795.939283L355.681436,794.232822L350.324525,792.171769L347.942300,791.462590L340.804003,789.301807L338.415263,788.581546L335.428642,787.683989L336.605346,783.750249L343.656562,760.147699L345.612009,753.565544L346.734849,752.989328L356.305998,748.113647L360.669672,776.603019L376.366311,769.477932L371.959655,740.124161L392.808523,729.475171L394.454608,728.633002L409.392652,757.654460L425.990601,789.889097L424.371765,809.192028L435.986430,808.737713L449.285837,780.913521L464.506463,779.229213L487.007747,776.735991L486.686383,771.206571L489.825050,762.142288L490.787218,760.169861L493.643019,754.263652L494.598678,752.280138L496.923046,752.701220L503.886842,753.964463L506.204691,754.374463L508.377095,754.252571L514.905467,753.842571L517.074138,753.698517L516.299536,756.812299L516.001037,757.997973L522.676904,758.629594L525.216321,758.862296L525.052052,757.776352L524.948447,757.078245L524.670996,754.518517L524.661264,753.299598L542.267235,751.016894L554.457686,749.421217L557.300834,719.524258L542.979954,721.186440L525.413108,723.203219L525.450918,722.017530L525.548527,718.449380L525.579822,717.252608L525.680273,713.784183L525.788069,709.916829L526.052853,704.686474L526.071093,703.356721L526.125039,699.888279L526.153569,698.702580L526.241960,695.134401L526.273287,693.937619L526.403887,691.422160L526.416838,691.111883L526.730797,688.275062L527.260723,685.172286L527.682151,683.720629L528.418942,681.127591L529.099105,679.166189L530.078008,676.573147L530.251083,676.107729L531.456205,673.281974L536.465169,663.264375L537.575489,661.037006L538.702585,658.853961L540.426477,660.216979L542.644904,661.945684L545.681012,664.161971L547.452388,665.447417L548.209861,667.209363L551.119080,671.963288L552.082307,673.536846L553.157101,674.445520L554.519673,675.542578L556.371239,677.138297L557.427415,678.046970L559.169070,679.487549L565.996500,683.510083L569.088446,685.283100L577.945144,690.048075L579.057086,690.513491L580.331089,691.111883L580.824670,691.333509L584.203361,692.818406L585.488529,693.372472L585.723202,693.438960L586.429069,693.594098L586.662800,693.627342L588.327831,694.004107L589.545871,694.270059L593.342457,695.056832L595.006548,695.400352L596.983538,695.832523L600.849983,696.674703L602.942412,697.018223L605.056153,697.018223L605.266589,696.996060L605.884855,696.907410L606.088769,696.874166L606.345763,696.852003L607.127906,696.741190L607.383959,696.685784L608.832877,696.774434L613.154484,697.029304L614.596881,697.106873L616.672399,696.962816L622.880330,696.530646L624.949326,696.375507L626.847853,696.009824L632.518287,694.901693L634.415871,694.502766L636.211062,694.214652L641.583590,693.328147L643.372258,693.028951L645.410456,692.663268L650.662835,691.699193L651.533419,691.532973L653.573464,691.122964L661.508315,689.527253L663.419844,689.072918L668.469137,687.842890L672.025747,686.513129L681.473101,682.978178L689.503204,679.376735L693.040173,677.792098L694.425540,677.171541L696.138625,676.395845L702.721593,672.439788L704.250260,671.508950L708.313978,669.015634L708.812025,668.627785L710.253089,667.453154L709.362314,668.550215L714.899888,671.520032L732.212159,680.795150L740.948851,668.284261L737.939021,667.220445L739.618894,664.505496L744.627822,656.371715L746.301196,653.645674L754.783920,656.493611L756.688314,657.103091L764.096865,642.952033L758.424718,641.145746L757.463625,640.635996L754.799348,639.716230L756.392908,637.788043L760.053658,632.790267L757.871678,631.693193L760.577418,627.825727L750.534433,622.151955L754.680425,617.298212L761.758615,609.009153L769.918476,599.345940L775.171338,593.239925L775.763369,592.552859L777.547835,590.458414L778.133346,589.760266L779.371373,588.208824L779.811661,587.643656L781.912453,584.441034L782.666377,583.222042L783.704179,581.504370L784.491622,580.263214L786.851166,576.550822L787.634883,575.287499L787.934594,574.799901L788.823477,573.303860L789.119459,572.794097L790.915767,573.536577L794.740257,575.099109L796.110454,573.281696L797.689154,571.153992L797.068955,570.843702L796.554909,570.555575L793.911107,569.037368L793.166134,568.704914L791.977902,568.172988L792.789512,566.688025L793.317241,565.701743L795.107203,563.031024L795.499068,562.399360L796.370281,560.936558L796.739819,560.393548L797.863327,558.742353L798.229137,558.177179L799.146910,556.714375L801.884408,552.314876L802.798458,550.829905L803.647264,549.012477L804.559353,547.017737L805.328742,543.815069L805.462739,543.393957L806.023827,541.498950L806.396034,540.279940L807.185111,537.664606L807.490311,536.600741L807.771308,535.559039L807.815031,535.348482L808.029935,534.384353L808.251339,533.320487L808.760389,531.890916L808.949320,531.436556L809.343930,530.461344L810.416235,528.643902L811.249346,527.369476L812.176466,525.906656L814.227161,522.903439L817.583952,518.448478L818.822036,516.786177L819.802280,515.556073L820.540475,514.547610L820.698725,514.325969L822.583811,511.943334L822.802555,511.555463L823.388966,510.447260L823.888878,509.904240L824.345964,509.383384L824.937078,508.552231L825.204233,508.120031L825.576566,507.455109L832.589862,503.122025L832.839949,500.761544L833.952799,489.801352L831.421729,487.429778L817.135036,494.466920L807.877773,499.021658L806.477492,499.664419L802.264545,501.603782L800.857744,502.235460L800.891045,500.772626L800.996547,496.361958L801.035442,494.876957L798.381589,493.325463L797.693449,492.915425L794.328121,490.455197L792.028949,488.272020L791.272787,487.429778L789.192414,485.080367L787.813164,482.719871L787.594309,482.331996L786.140529,479.528212L784.681971,475.560796L784.472405,474.951277L783.517731,472.236143L784.583609,470.185938L785.334835,468.645512L790.581359,457.762770L790.962097,456.953767L791.346366,454.061299L788.175044,453.640173L778.647113,452.321384L775.472069,451.878093L772.529452,447.112714L770.689428,444.475129L758.374779,426.798812L755.530170,423.307864L755.390503,423.197040L752.692139,420.825410L749.707029,418.852744L748.583195,418.176718L747.620441,417.600433L744.672607,416.181885L737.108480,413.832414L731.826453,412.291957L728.738059,411.394281L727.511827,411.050726L734.634346,399.524976L742.836999,387.112578L751.385261,369.635384L759.456842,359.516959L777.322395,345.264657L792.300892,329.649103L803.026360,316.316521L813.765390,297.464607L834.706607,263.739199L894.690417,179.784093L902.354473,165.009948L904.806455,148.495618L911.374931,134.596905L934.805349,117.627966L942.660394,112.396502L959.270656,91.537048L978.022362,74.146660L989.806273,61.976649L1000.000000,47.290543L999.311291,46.625510L997.234938,44.597158L996.545311,43.898872L990.150998,54.705650L984.557538,61.821475L963.857364,78.557999L951.146643,92.778423L938.347012,109.270919L930.739376,115.366910L914.128031,126.007154L906.002548,133.122795L900.917701,140.216250L897.314838,152.396999L897.078134,162.305595L894.128461,172.967825L879.108373,194.281078L847.500167,238.181650L829.658668,262.896889L818.361741,278.568232L811.529688,289.750912L802.431107,307.117778L797.526674,316.416267L795.810647,318.200597L786.804964,328.662738L784.003271,331.909984L767.088231,345.863122L753.835247,355.261225L746.465652,364.404396L734.497441,385.993243L722.809833,407.061049L720.992413,409.211042Z M720.992413,409.211042L721.374155,409.321866L722.503553,409.643257L722.878777,409.742999L725.636740,415.239880L733.916483,431.708295L736.668106,437.194051L724.047978,449.329171L708.559431,464.201546L699.963354,460.699563L685.594671,458.970735L683.751101,458.749090L671.851746,458.084155L681.679790,448.309601L711.164190,418.985733L720.992413,409.211042Z M756.508253,486.310484L758.982024,484.991710L761.001454,483.961071L765.270789,493.624680L761.717136,496.384122L756.508253,486.310484Z M272.193569,794.775787L273.548112,781.223789L275.771611,780.603254L277.799560,779.982719L277.965292,779.916233L278.968868,779.074079L280.425550,776.913287L280.689918,776.603019L282.262890,774.054390L290.014021,770.563872L292.599675,769.688472L300.340799,767.051188L302.919929,766.164706L302.030484,768.846314L299.363097,776.813558L298.469947,779.472994L297.678867,780.913521L295.299117,785.224017L294.501522,786.653460L293.698860,789.767206L291.262997,799.108424L290.853766,800.659750L290.732268,802.177832L289.183763,802.410531L287.396880,802.665392L287.137408,803.695914L289.079841,803.562944L290.606968,803.452135L290.567979,803.828885L290.451016,804.959135L290.417608,805.313723L289.032044,805.491017L287.293567,805.701554L287.103921,806.676671L288.665506,806.576943L290.028751,806.488296L288.682957,817.048351L283.669252,816.693764L287.021424,793.246620L272.193569,794.775787Z M541.071176,427.386177L540.655932,426.632576L543.316999,424.792903L551.283446,419.229546L553.928688,417.378785L560.834622,412.624430L565.800156,409.177795L572.295899,423.706830L575.140267,430.079190L572.127276,432.207001L563.087375,438.557177L560.070663,440.662817L560.647003,441.737801L560.944950,442.291916L562.180506,444.741104L562.303410,445.029244L562.824824,446.137473L565.994227,444.497294L575.474501,439.576750L578.637385,437.925485L581.701624,444.608117L581.994931,445.993403L586.947089,469.532088L586.957500,473.444101L586.952419,483.329389L585.288586,483.983235L580.275672,485.955855L578.605320,486.598619L574.704898,485.634474L572.067023,484.204878L569.367598,480.691838L567.167231,476.491699L565.232270,472.790252L564.069249,470.385417L560.723632,463.525531L560.530888,463.181982L559.267344,460.843632L560.119281,460.344932L562.417179,458.948570L562.664846,458.815583L563.509333,458.272554L562.973934,457.108918L561.727161,454.371602L560.861258,454.925715L559.555886,455.745801L558.719743,454.039134L556.216929,448.896962L555.377079,447.168126L554.827734,445.838251L553.151780,441.848624L552.595927,440.507665L551.965582,440.939875L550.081996,442.170011L549.450720,442.568974L549.271953,442.280834L548.733789,441.349920L548.551298,441.039615L550.487960,439.377269L553.985126,436.362877L552.630420,434.423469L551.495452,432.794365L552.001964,432.484060L553.502878,431.553143L554.005666,431.220672L553.753350,430.744131L552.995473,429.281261L552.736641,428.793637L550.774863,428.450084L546.735854,427.740813L544.770320,429.037449L542.697710,430.389496L542.301084,429.635896L541.678216,428.450084L541.071176,427.386177Z M612.465482,438.656918L612.895628,437.615180L613.301567,436.595606L614.147897,434.456716L614.562218,433.403894L616.773536,433.459306L619.111481,433.492553L620.204552,431.741542L617.702735,431.176343L615.634802,430.699802L616.220443,429.225849L617.974585,424.815067L618.553716,423.330029L619.179404,421.734166L621.053686,416.957654L621.675658,415.339622L626.246302,416.082143L630.043225,416.680593L632.625097,417.001983L634.317791,417.600433L635.990003,418.464860L639.191045,419.949901L640.143537,420.382115L643.178855,421.933649L647.437622,424.172290L647.694602,424.371773L648.844484,424.427184L649.159189,424.471514L650.774611,424.637750L651.787631,425.236198L651.937551,426.488505L651.772756,426.920718L651.092163,428.660649L669.922383,455.357923L647.808039,453.662337L647.296024,455.546321L646.655510,457.164329L646.344562,457.917922L645.411716,460.067876L644.823342,461.552895L642.541262,461.962937L635.697811,463.181982L633.414796,463.558778L632.888744,463.835833L631.307794,464.678082L630.778016,464.932973L627.354461,466.251756L624.452305,467.348894L617.954133,465.608988L614.939223,464.788904L612.854492,464.378862L612.289315,464.256957L615.619555,457.618701L615.817881,457.718441L617.700574,458.560692L618.407202,456.754286L619.387547,454.194286L620.658387,451.368309L620.836212,450.958265L621.330576,449.550816L622.371535,449.705968L625.502791,450.138177L626.537233,450.282246L626.975744,449.318088L627.138672,448.930209L627.987770,447.223537L628.608789,446.680505L629.189770,446.148555L629.400192,446.015568L628.988620,444.840845L627.468098,442.413822L626.237162,440.463335L624.875915,440.286018L616.481251,439.199952L612.465482,438.656918Z "/></g><g fill="#000" font-family="Arial" font-size="12px" id="mylayer-label" stroke="none"><text text-anchor="middle" y="610.527737537"><tspan dy="0" x="495.896423725"><![CDATA[N]]></tspan></text></g></svg>