<?xml version="1.0" encoding="utf-8"?><!DOCTYPE svg  PUBLIC '-//W3C//DTD SVG 1.1//EN'  'http://www.w3.org/Graphics/SVG/1.1/DTD/svg11.dtd'><svg enable_background="new 0 0 1000 1001" height="1001px" pretty_print="False" style="stroke-linejoin: round; stroke:#000; fill: none;" version="1.1" viewBox="0 0 1000 1001" width="1000px" xmlns="http://www.w3.org/2000/svg" xmlns:xlink="http://www.w3.org/1999/xlink"><defs><style type="text/css"><![CDATA[path { fill-rule: evenodd; }]]></style></defs><metadata><views><view h="1001" padding="0" w="1000"><proj flip="auto" id="robinson" lon0="-82.1091153626"/><bbox h="1.2" w="1.09" x="-1146.89" y="-586.88"/></view></views></metadata><g class="" id="mylayer"><path d="M420.040579,521.545874L416.015674,511.115372L408.685410,510.236713L406.387524,510.874449L368.657793,533.280114L382.289306,566.427493L367.061010,617.883324L363.532315,630.892294L340.223874,597.420214L347.184783,589.087520L353.028979,579.125081L356.400673,570.608071L357.489684,561.821760L343.397360,522.566246L307.765575,540.890321L301.692046,561.864275L300.276004,560.390438L274.982179,533.875327L237.561549,497.552790L214.460491,475.132489L214.825284,472.737383L205.034749,475.175006L204.774561,463.227786L204.771096,451.152932L179.594750,470.569029L169.330097,474.055400L163.253007,476.308783L157.207062,478.703884L152.868008,480.532095L153.464255,471.546915L139.669321,476.847327L140.550808,486.144266L139.003395,486.895389L134.979367,488.936173L129.800643,491.657215L129.380744,491.869796L123.821039,494.916790L118.308031,498.091327L109.424312,503.476690L82.283289,520.015315L80.852565,520.893970L74.834178,524.550301L71.686998,520.157034L67.464798,522.750480L58.530461,528.022391L59.986521,533.691094L58.143689,534.839005L42.841123,544.192319L43.925629,567.093552L44.658280,571.869328L46.145842,578.104743L47.684460,585.686410L48.307705,588.733238L49.013281,593.650667L45.999481,593.367242L46.194535,595.124476L46.576475,597.519412L47.071211,599.971030L47.609317,604.052328L49.670310,604.066500L46.457322,612.087357L52.029801,612.144041L51.156035,615.332534L50.150322,619.215401L49.579295,620.830899L52.846458,622.616446L59.380507,625.422303L59.454697,626.215878L60.306563,626.853572L63.095257,628.171472L65.720629,629.489371L68.408285,630.963149L73.484240,634.066581L75.176173,634.959349L75.264652,642.299862L74.864600,643.504383L77.536463,644.312121L79.722252,645.148199L81.830314,646.097644L83.876199,647.146284L85.824910,648.294119L87.625864,649.470294L89.356858,650.731494L91.010110,652.063546L92.589521,653.494793L94.137889,655.081917L95.499657,656.796575L103.881193,669.082551L100.331966,671.817480L89.339056,682.006114L84.464176,685.662104L79.569902,689.431450L77.913744,690.451723L73.022977,693.356663L81.876824,708.688996L83.304954,710.757859L100.040344,698.174601L100.370708,697.777830L102.217225,696.360790L106.295209,693.441685L115.457744,686.228923L118.302308,690.409211L106.333208,700.030921L104.175801,701.901409L102.640259,703.035037L104.726175,706.365065L105.181476,707.045241L106.437083,706.039148L109.158133,703.686873L120.062747,696.374961L120.848856,697.636126L106.395641,708.915721L107.092233,709.992664L108.150682,711.494714L111.905861,716.822730L115.105275,714.598002L116.911168,717.757965L129.668906,706.705153L143.160790,726.444293L131.280781,734.889685L120.143289,742.839086L124.688715,749.413963L127.252700,751.893706L136.182205,745.743938L138.781640,749.116394L136.970365,750.915979L133.635489,754.316765L132.799927,755.365340L132.065504,756.470593L131.455554,757.632525L131.106017,758.525229L130.818716,759.446272L130.477425,761.245846L130.207037,764.788311L129.890165,776.081638L127.071662,777.810347L126.281626,784.016680L124.684760,793.977940L124.874656,799.929164L125.155560,801.587001L129.555299,797.066911L129.361582,812.511683L129.242638,822.316916L128.974655,843.273291L128.948929,845.837915L150.094635,841.983893L162.456144,839.660141L172.328919,837.648109L187.804923,834.474195L200.571179,832.717204L209.528541,834.729242L258.193363,845.667885L270.386898,848.473380L283.896258,847.240663L296.743568,850.683768L306.985037,853.673454L314.414005,855.387916L316.502666,855.855496L324.949353,855.727974L333.317975,855.161210L335.740985,855.472931L353.083810,852.681615L416.470444,842.408970L427.281711,842.508154L434.375730,843.443322L446.783275,846.234652L452.914115,849.025977L467.232870,859.922023L468.948777,861.197238L475.003422,866.142231L492.433602,882.422352L490.556575,884.292644L483.875814,890.371077L539.905504,938.176007L545.904137,930.411692L619.059906,996.053068L622.512036,999.000000L624.683750,996.308091L625.367304,995.217158L629.889090,989.181596L593.653889,960.094425L551.125764,923.653309L497.302948,877.505744L481.511555,863.336764L473.137218,855.657129L471.487380,854.311064L458.986089,845.299486L453.155088,843.074922L446.040813,840.935371L443.259675,840.099387L435.235099,837.492248L427.534426,836.557077L414.946961,838.002340L354.247136,847.538216L339.541323,850.797121L329.372254,851.548085L320.330051,850.867966L317.320127,851.037996L315.499890,850.697937L309.183487,849.479390L306.351687,848.445042L302.998986,841.601325L303.612828,840.637818L313.692699,846.433020L316.878463,847.580723L320.717133,848.048305L324.913650,848.615072L327.410342,848.615072L336.498795,848.657579L340.407058,848.487549L341.355920,848.430873L343.483017,848.204166L344.984042,848.048305L346.512280,847.878275L389.581455,834.941781L393.006906,833.893255L396.871811,832.858897L400.200267,832.164602L407.681966,831.300275L423.242115,832.249618L434.071514,836.287861L437.933884,837.308047L438.357852,837.421401L445.398372,839.787664L446.433061,840.141895L462.665204,845.582869L463.423718,845.837915L474.459694,850.357877L476.564122,851.108842L480.504528,852.440740L481.655926,852.837476L483.301326,853.390071L485.685792,854.183542L487.171709,854.679461L495.904405,857.598294L503.123955,859.992868L505.391736,860.743828L508.406585,862.047381L511.020496,862.812510L513.747198,863.591807L521.623461,865.207076L523.125241,866.113893L525.872135,867.927526L547.613210,875.833810L564.366496,880.651241L576.425715,885.270295L584.732902,885.737868L591.604711,885.737868L601.286458,883.357498L704.137935,852.894152L707.851181,851.987328L709.142029,851.618931L711.307693,850.995489L713.131206,850.471230L718.566741,848.898455L719.842074,848.586734L720.755801,848.360027L721.646194,848.133320L722.423830,847.934952L723.100375,847.764922L723.994582,847.439031L724.620549,847.240663L740.799535,843.499998L746.208296,842.536493L752.441871,842.054739L762.062457,841.261263L763.019132,841.261263L768.817090,840.708664L778.356425,840.467787L791.684002,840.793679L811.803154,843.074922L831.425377,846.404682L848.885177,849.451052L862.925624,851.222195L894.044057,855.047857L931.966361,861.338929L934.960613,861.055548L947.560432,860.630476L948.829723,862.429945L952.572547,859.751994L953.229590,859.525289L954.923849,857.938352L957.158877,851.902313L899.441561,845.001933L866.311842,840.127726L838.249975,835.876952L835.379625,835.451875L815.886151,832.547173L795.876052,830.379270L782.283900,829.826667L765.262569,830.379270L762.824479,830.719334L764.805864,822.926199L831.736786,780.134182L833.828015,778.802228L821.400898,748.464575L852.031481,751.638647L852.331173,751.992896L852.728015,752.247955L853.202553,752.389654L853.727574,752.432164L854.699739,752.375484L856.084109,752.304635L857.002033,752.531354L860.001888,743.830987L861.529619,737.525319L858.119147,737.539489L853.328339,737.822891L833.065762,735.088066L815.047459,732.934212L810.560111,722.009028L782.515784,658.001087L777.505396,661.515421L802.869047,723.426047L806.328052,731.885624L714.362420,720.847072L712.246473,714.130384L667.409748,715.547409L646.989027,714.371278L635.135501,713.521062L635.408478,702.128135L634.682321,697.451911L634.901638,693.583389L628.960327,668.501556L628.267377,667.197857L720.418061,599.205785L734.481487,588.832437L740.374287,584.481848L739.711964,582.171921L745.068416,578.331485L745.721475,577.906343L745.012682,575.936521L744.124750,573.470698L738.441919,577.821315L736.350693,579.408508L718.326548,593.168845L719.000336,595.096133L678.088925,625.379790L637.764428,655.096087L632.408129,659.191426L628.878804,662.025565L626.729354,663.782729L625.112198,657.972745L622.452812,652.006863L618.194493,644.765587L613.545304,640.826093L608.119750,639.338153L596.942920,645.091516L591.749771,641.945591L589.803182,637.850211L586.934389,618.081718L586.106855,612.115699L581.597953,608.388697L578.120523,606.518108L572.700711,608.417040L568.922843,612.115699L566.053779,613.603663L565.337303,611.747250L564.725628,609.508216L568.626123,602.252590L569.525347,596.456571L569.006279,592.729536L550.891594,565.888977L548.792389,567.249438L547.517314,568.071383L546.899247,568.539041L546.638818,568.765784L545.939110,569.275956L543.319269,571.557557L545.144574,574.774467L558.232778,596.584112L558.381709,598.894019L557.784368,601.884140L553.645320,614.142164L553.048649,618.365139L553.128620,622.588104L553.405814,624.685412L554.243787,628.313181L556.784680,631.303251L563.062767,634.576734L575.312576,635.384476L576.417776,636.886591L581.010676,651.723448L584.230131,657.986916L586.677839,661.019447L588.049112,665.341502L590.741036,666.971127L594.245402,668.062266L598.222865,666.829420L604.334313,663.981119L608.441121,664.533775L611.363425,667.793024L616.316599,672.667716L617.433689,674.424869L619.040912,676.437090L625.279747,685.222819L626.101809,687.801846L626.128247,692.988231L621.521466,714.456299L621.765237,718.764051L623.147334,721.300519L627.259448,723.964514L629.796292,726.118379L569.346862,735.428148L562.313069,737.128558L559.552141,737.326938L524.102039,744.086047L511.281508,745.531388L488.165080,749.768213L467.696024,752.559694L453.882930,752.559694L441.083451,750.264161L456.141517,731.488861L477.028684,745.276328L481.315144,740.444350L483.051916,737.893741L486.141109,733.855269L489.090262,729.731766L491.032934,726.812717L493.679472,723.879493L492.519772,722.448304L469.543412,706.450087L468.302373,705.529016L460.801226,712.897571L457.442824,715.533238L455.003203,713.152636L457.381783,710.772029L452.837494,706.875197L450.619416,704.239516L453.226862,700.810291L449.207794,697.253526L453.945340,692.095494L446.591834,685.208648L444.910951,683.465676L440.134487,688.637904L438.647631,686.143900L446.413657,657.278380L454.575723,656.612356L455.662564,652.772084L463.027619,652.460328L469.000430,644.496341L449.728265,644.963979L451.319610,639.026394L453.606163,639.026394L454.359607,637.127496L475.723580,636.135533L494.963952,611.378802L489.162261,611.775592L489.664057,604.194040L476.960332,605.256876L459.874199,606.560622L458.545551,609.196451L457.310338,612.044843L455.183307,612.186554L452.360553,621.000951L438.746177,620.745872L436.128872,628.213985L446.795798,628.752481L445.995864,631.034003L448.998412,631.997627L448.237279,634.094923L441.354192,633.882359L439.730985,638.402875L427.038711,639.253127L424.686672,648.223265L417.092095,648.350802L410.334087,649.470294L410.497799,650.235517L406.420091,660.948593L428.416537,664.505433L423.232279,670.825537L420.651777,673.900557L411.253956,683.635723L413.331770,685.931343L406.685584,692.605630L412.576368,698.528861L404.989112,705.146417L402.343813,703.431807L401.051070,700.356839L400.096018,696.091553L399.884106,692.520607L399.815855,688.510370L400.272463,684.245054L400.716549,678.321774L400.386921,672.625204L399.563942,667.878048L398.853525,662.677417L384.731344,673.517951L384.478679,673.716340L384.735686,674.396528L385.701443,677.003913L385.833895,677.457371L386.114371,678.392627L385.803375,678.591015L383.844092,679.823852L378.879823,682.998050L380.351773,686.824084L386.302121,702.454053L380.980636,706.591791L365.616496,692.704823L365.363335,684.514294L361.163321,676.635478L351.809760,666.659373L377.418363,645.998448L364.372797,631.997627L366.087384,631.317422L368.544636,630.481337L370.931951,629.772790L373.334814,629.050071L374.983367,628.525746L377.015545,616.891350L396.165423,560.957298L408.592245,549.067359L413.276578,545.680341L413.410998,541.655591L455.525061,534.073731L463.380742,535.845197L469.762357,536.908075L477.491641,534.073731L480.995168,524.734534L475.600466,521.730108L479.362021,515.537006L486.851589,506.594523L495.959133,507.969203L502.375738,499.706938L499.896835,495.001822L497.822404,490.395899L504.719008,486.257643L504.181399,483.749175L533.761998,465.622906L539.461705,463.468716L538.396905,444.704472L536.663338,414.162535L528.695642,365.379350L518.020374,346.571518L510.438221,333.206068L492.948884,320.237373L485.563539,314.752223L463.507310,308.147342L484.987661,297.106080L623.028651,226.037770L624.766536,225.314882L624.248806,222.565071L623.862795,217.504839L625.265034,210.729492L627.642791,201.672030L630.499195,194.400512L634.825367,187.128963L637.888553,183.358519L639.987675,180.679513L664.227043,161.869660L663.612546,160.919948L663.301230,159.417418L653.825884,136.071334L645.230138,142.109878L636.335197,123.030274L626.740060,128.501861L627.469565,145.157492L616.447971,153.662432L613.616482,147.694803L606.836335,152.896989L609.504661,159.630040L617.374639,184.279869L611.410297,185.059472L600.761245,188.971659L583.868809,198.808785L560.876079,210.431830L543.882125,218.256079L534.337014,220.864154L528.360879,221.261035L518.756641,219.574292L516.668570,219.064016L511.345194,216.866994L506.025587,213.932902L501.133523,209.949900L494.581386,207.001622L489.168908,206.491343L482.092563,207.752867L473.441540,209.354575L474.673262,204.053340L476.258582,197.122020L471.471906,195.137588L467.233520,193.450819L453.572162,177.887106L450.017305,169.410636L446.643851,147.850727L467.999904,132.796903L482.652351,150.955031L482.932332,151.252703L483.531013,150.430560L484.180252,149.721815L484.292995,149.608416L484.716748,149.126469L486.085254,148.049176L487.601529,147.156156L487.364311,146.787608L478.941150,133.222154L479.721936,125.737719L492.076010,98.166935L489.575863,96.777753L487.779525,96.224914L484.354094,95.913057L481.301987,96.536772L479.035291,97.401467L475.956054,99.272610L473.160653,101.214627L468.328189,107.224943L467.733345,107.692727L455.971625,104.815149L454.995684,104.418242L445.395780,101.611535L447.471884,99.442714L449.890083,96.324142L452.106095,93.049635L453.785525,89.222282L453.812624,87.124322L453.291553,85.876885L452.171716,84.558570L450.779723,83.382008L448.660640,81.751831L446.335500,80.277582L443.699318,78.789157L440.581023,77.399959L439.192955,76.762061L436.739507,74.905070L435.172551,73.260709L434.375477,72.722039L432.866882,72.013262L431.976506,71.772278L430.608000,74.252996L425.553801,81.539199L422.991701,84.799552L415.025392,92.794479L413.481869,93.786754L411.421202,94.197840L374.403544,112.469778L371.355346,113.972349L370.791528,113.178538L370.177161,112.313850L363.438629,102.773909L359.651412,97.401467L348.935550,87.989022L355.727855,81.043058L347.792151,72.084140L344.172322,67.930701L351.711217,60.686967L358.666917,53.996055L365.404893,49.162138L372.461685,46.057650L381.271973,44.129746L395.583819,42.853926L376.672704,20.626155L373.414715,14.133550L371.937426,9.101056L371.879432,0.000000L365.728510,3.288861L364.764138,7.357399L363.228229,11.808682L361.311302,16.458416L347.236323,31.754253L344.281374,34.447667L341.999067,36.389757L338.919832,32.519750L338.173483,26.523347L336.529607,5.812206L334.243282,10.065028L331.109308,16.259952L312.756817,62.501447L310.909983,64.259223L313.262252,65.549203L313.814355,66.002822L314.312026,66.399738L315.579532,67.434556L317.006450,68.696182L281.904993,82.574007L277.756539,98.677247L287.480796,105.453036L295.704287,111.194009L325.305412,131.833000L328.921234,129.281490L358.617621,108.231386L362.618820,115.120539L364.566945,118.480055L365.056907,119.543191L365.410769,120.294474L366.845666,123.398827L379.740650,149.877739L387.645881,156.738375L393.929676,162.195680L397.433222,165.243258L406.489620,173.096063L384.093944,175.179743L379.735339,175.590809L355.177824,177.858757L353.805446,179.332922L351.624414,181.671738L345.485346,185.342964L332.833735,190.771829L323.836787,194.017800L317.717143,197.660651L314.252785,197.958315L306.056369,197.178718L296.145517,198.950530L288.559693,199.602557L281.565023,201.757077L276.106338,205.371563L267.878811,204.662841L267.847817,205.796796L267.553308,215.463733L229.318716,236.512522L209.011652,247.695915L200.761060,250.261423L194.120150,252.359184L189.944379,254.315202L186.259019,260.395852L189.206708,263.471604L192.690836,265.314217L194.149092,266.504828L195.078144,264.562998L203.924335,267.312742L205.429156,267.737960L205.394331,269.013613L206.274441,278.906976L208.553028,279.232974L219.696298,275.179254L220.159650,279.658189L220.307606,281.033049L228.764192,277.928981L243.309927,275.462731L243.112292,279.884970L246.351159,279.346365L246.320168,280.097577L246.200134,283.343379L250.668924,290.401915L244.257518,292.939012L242.477095,295.518626L242.796760,300.436892L244.091249,320.478322L244.251296,323.809089L250.426802,328.046949L259.209878,324.432721L266.527178,321.527160L267.739467,316.977467L276.371411,316.127055L276.422243,317.601101L277.899699,317.019987L301.111288,307.920565L346.811137,290.019224L400.717823,266.136306L421.165893,301.797562L433.006756,322.434262L434.278969,325.410689L456.742790,313.037224L457.539771,312.512803L490.678177,349.505383L498.333040,358.391988L504.080790,373.854854L505.489554,377.653227L514.167149,409.627260L482.941651,428.859581L474.389173,435.081340L475.529415,437.731604L443.302517,462.150690L440.348058,464.375743L427.383165,473.417650L425.572396,476.918188L424.178103,481.495803L420.040579,521.545874Z M420.040579,521.545874L461.572224,506.807103L462.957975,510.350088L464.549838,513.907238L471.937984,513.637972L471.782570,513.949754L471.775206,514.955958L467.794062,516.755787L468.634726,518.541442L468.060315,521.191578L439.316693,532.217233L439.006220,533.691094L435.720879,534.909863L431.057621,532.854962L427.685227,530.431592L426.177568,533.124225L421.713003,531.962142L420.605014,523.019744L420.040579,521.545874Z M166.247587,762.563644L168.490295,760.381484L169.412306,761.061638L172.326035,762.946230L178.596725,766.502861L175.887506,768.940069L169.149674,764.490744L166.247587,762.563644Z M206.870482,258.184709L211.022660,254.187635L213.079463,253.450585L214.386401,257.320094L211.824227,258.879235L213.710846,265.101608L208.586432,267.667090L206.870482,258.184709Z M346.887078,844.123443L345.304606,844.619365L347.752574,841.431294L359.616819,827.970487L369.801331,833.213129L373.033379,827.715439L376.430399,824.768216L380.874085,822.685320L386.963520,815.657298L387.802902,814.679608L393.128431,817.258443L399.609330,820.389880L409.031164,824.924079L413.702885,826.695247L419.747878,829.203217L420.584225,829.557450L421.568304,829.840837L422.785773,830.209239L422.972692,830.591810L419.507007,829.571620L416.885375,828.792307L411.953458,827.587915L408.433797,827.276189L403.922796,827.474560L400.679669,827.814624L396.720993,828.168857L392.914312,829.033186L388.858969,830.251747L378.808269,833.553192L370.616122,836.330369L357.540547,840.751172L346.887078,844.123443Z M399.841725,721.640603L402.767819,717.772136L405.769572,717.077794L410.555919,715.745792L411.890190,716.496815L419.322776,711.551395L431.380603,723.071792L424.116533,730.213550L424.248888,743.873497L424.277022,745.432198L428.989316,743.816817L437.076841,748.365385L434.239247,750.462541L420.511872,744.100217L419.912854,743.859327L418.531864,743.065806L402.243308,732.424088L400.411032,731.276309L405.253069,725.268170L399.841725,721.640603Z M276.413583,739.948399L288.834081,724.800554L324.930144,680.759107L328.435488,683.890792L335.481108,689.941586L336.064684,690.451723L334.977526,708.561464L333.967974,711.438033L321.320655,724.092045L319.602529,725.424041L318.936151,730.029339L318.149662,735.413978L317.360041,742.130585L316.250183,746.353248L312.162031,751.525287L309.014522,748.918014L305.823617,752.177105L308.559164,755.223641L306.484036,757.901754L276.413583,739.948399Z M186.312312,802.097104L193.711096,792.079212L190.450839,789.585357L199.918035,778.618022L220.162021,790.067125L225.685984,793.198612L213.930819,808.345859L219.980024,811.774871L231.556179,796.514297L236.982916,799.574925L239.994800,802.848089L243.812020,806.673859L245.625352,808.572571L248.007101,811.548160L254.729192,815.076352L253.035366,817.981083L255.460268,821.523431L256.779551,823.096231L258.589018,824.966587L262.395340,816.989224L263.241678,814.580422L269.991217,818.434504L263.289660,829.656635L260.139036,835.026797L256.428337,833.921593L237.143975,828.721461L218.515170,827.134496L200.505570,826.992803L189.378286,818.377826L194.598377,806.943079L186.312312,802.097104Z M282.957093,818.930433L278.572811,816.450786L308.016470,771.986576L361.903817,803.641583L364.716500,805.299417L342.349417,845.228640L340.953339,845.299486L329.395827,845.880422L323.580996,844.491842L319.419189,843.457491L294.311368,829.486604L289.553603,826.836940L287.071640,825.462514L290.636548,823.478804L288.986935,822.302747L288.411984,823.294603L282.957093,818.930433Z M732.329045,750.675090L725.364926,740.231800L738.236584,739.792528L812.747646,747.557697L825.178571,777.923705L759.742286,817.385968L755.661845,831.697015L748.285327,832.688866L741.783907,833.808239L741.596672,827.842963L739.744474,821.140858L737.599005,812.185785L740.745637,774.905549L739.709117,766.332823L736.537696,757.760055L732.329045,750.675090Z M311.103627,757.306618L313.415987,754.656844L315.137073,751.695327L317.176707,748.124496L318.783722,742.810746L319.768415,737.256088L322.603648,730.695334L324.794595,726.401782L329.461555,719.968520L334.970399,717.063624L335.059940,717.247837L335.690243,717.842987L336.188175,718.154732L344.818434,705.599868L349.767218,709.850961L351.477262,707.952141L359.180079,713.606084L357.104877,716.199240L366.131274,724.262087L368.412946,722.363283L373.369603,726.585994L370.621899,729.590065L369.034536,728.272242L366.924459,731.035417L372.946777,735.413978L376.013056,731.885624L381.160408,736.264183L377.219872,747.841096L380.509614,747.501017L381.127985,747.586037L381.691978,747.784416L382.189926,748.096156L383.341563,749.045544L388.353003,740.118439L391.734655,744.086047L394.458886,740.911962L401.695488,746.820857L421.342660,761.430055L426.392058,764.249857L429.904574,765.737690L434.112568,759.743839L435.655123,757.561676L440.327644,760.948279L447.566271,763.442175L462.667175,764.363215L473.162573,763.442175L511.685317,757.136579L549.405997,749.456473L550.615268,749.215584L553.667600,748.592105L569.260294,746.268228L634.138778,736.335034L634.543379,742.654875L634.451701,751.213548L635.249175,763.470515L636.780431,773.729458L640.178923,784.710995L643.951720,796.925215L652.782947,807.495689L661.386745,815.232216L689.638525,824.584014L698.688581,830.690995L701.260061,837.194693L702.543886,843.074922L702.957498,844.931087L692.113561,847.977460L614.230451,869.783664L607.169164,871.200562L601.282349,872.631628L591.790122,873.595117L581.912351,873.835989L573.080001,873.113372L568.241445,872.164052L514.837315,854.282726L507.953009,853.007505L496.731981,850.910474L495.607942,850.712106L494.600572,850.513738L482.883987,845.965437L480.985687,845.228640L478.939570,844.435165L477.850333,843.939244L469.004212,839.943526L466.985605,839.560957L465.822665,839.334249L460.497859,838.030679L449.559624,834.134132L448.567781,833.879085L447.727635,833.666546L447.412576,833.581531L426.811806,825.816748L423.927721,828.083841L424.287225,824.768216L410.882194,818.760400L392.897452,808.685927L369.150527,793.793735L311.103627,757.306618Z " data-aland="11140681" data-awater="47722" data-classfp="C1" data-funcstat="A" data-geoid="4575580" data-intptlat="+34.9461350" data-intptlon="-082.0989010" data-lsad="25" data-mtfcc="G4110" data-name="Wellford" data-namelsad="Wellford city" data-pcicbsa="N" data-pcinecta="N" data-placefp="75580" data-placens="02405703" data-statefp="45"/></g><g fill="#000" font-family="Arial" font-size="12px" id="mylayer-label" stroke="none"><text text-anchor="middle" y="527.392788269"><tspan dy="0" x="365.119644005"><![CDATA[Wellford]]></tspan></text></g></svg>