<?xml version="1.0" encoding="utf-8"?><!DOCTYPE svg  PUBLIC '-//W3C//DTD SVG 1.1//EN'  'http://www.w3.org/Graphics/SVG/1.1/DTD/svg11.dtd'><svg enable_background="new 0 0 1000 1001" height="1001px" pretty_print="False" style="stroke-linejoin: round; stroke:#000; fill: none;" version="1.1" viewBox="0 0 1000 1001" width="1000px" xmlns="http://www.w3.org/2000/svg" xmlns:xlink="http://www.w3.org/1999/xlink"><defs><style type="text/css"><![CDATA[path { fill-rule: evenodd; }]]></style></defs><metadata><views><view h="1001" padding="0" w="1000"><proj flip="auto" id="robinson" lon0="-113.994094293"/><bbox h="0.79" w="0.92" x="-1481.08" y="-810.95"/></view></views></metadata><g class="" id="mylayer"><path d="M1000.000000,358.527616L867.394739,261.477169L827.766771,182.294141L809.503009,183.383973L804.680890,183.848492L794.521284,187.278786L780.327485,191.798915L766.909110,194.639631L740.569923,200.982112L740.884193,181.043513L747.576195,155.566497L788.286638,71.471562L683.252321,108.400316L671.976769,120.960067L665.236335,131.733243L662.933757,139.933731L665.936194,150.063760L680.293217,163.588353L682.712552,170.448922L684.589697,173.021638L692.375792,184.295145L695.239705,188.797406L698.131813,193.371135L701.077023,199.517088L695.261624,197.801938L691.658598,197.623276L684.097270,197.837670L667.457561,200.714120L621.942051,209.200548L576.653785,218.848289L540.841654,226.780886L525.027936,229.032029L522.143048,230.568525L521.326962,237.607823L505.598552,259.958533L489.626733,280.558411L481.760712,293.529397L475.672941,307.625991L467.859195,317.899192L460.169880,329.601727L460.876867,331.692105L462.051695,335.158204L459.628430,350.898603L459.731233,364.137716L458.699006,368.479293L456.054435,373.624869L456.017500,376.036860L460.877816,376.054726L460.799562,376.233392L458.923719,379.449380L456.709677,385.273896L453.661070,392.402681L450.935931,397.208808L448.590074,401.782672L445.692149,406.285072L444.118302,409.018674L441.804052,412.020276L438.912329,413.521078L429.764526,413.735479L427.767672,413.878412L423.632484,415.825882L419.443848,419.667223L416.126431,423.329898L412.381157,426.760309L409.947377,429.368851L404.062049,433.728335L401.272664,435.389942L397.381276,437.569685L388.098252,441.571838L382.543263,443.644383L382.284731,443.697983L378.941337,444.484121L373.384581,445.681195L369.142375,446.288665L356.514891,449.844154L347.483484,451.952434L341.378112,453.095909L336.455188,454.203650L329.772745,455.364992L321.885953,456.883669L319.427772,457.562608L316.055748,458.491682L310.809033,460.403430L295.267844,465.781341L291.802661,465.513339L289.901680,465.495472L288.333975,465.227470L286.042933,465.531206L283.662553,466.245879L279.762938,467.228554L275.409320,468.640033L269.574279,470.873387L267.327620,471.981131L260.215972,475.286497L253.890294,478.556131L248.873188,480.700153L243.550693,483.308715L237.465886,486.506885L233.486279,488.525842L227.653000,491.634680L222.929467,493.903775L217.687423,496.994748L212.247135,500.085722L208.965902,501.622276L205.673437,503.462569L201.399679,505.642333L196.687376,507.607694L191.450130,510.073331L180.742346,514.825936L170.751957,520.203889L164.078849,523.723681L160.580419,525.885584L157.189118,527.582946L152.896416,530.388062L147.357299,533.336115L142.847979,536.480706L137.591794,539.571698L132.975358,543.180834L128.672016,546.003823L121.270969,550.649250L117.783774,552.507422L114.929885,554.562132L109.869021,559.153964L108.732099,561.226543L107.608224,563.870868L105.820910,567.247744L101.945752,575.645275L99.551273,579.969114L97.469869,583.506802L95.083675,587.223163L93.211134,588.938407L90.857398,590.510715L88.723775,591.761414L85.931463,593.119316L78.854239,596.960753L74.452124,599.640825L67.688040,604.500694L65.197669,607.180769L62.432048,609.396299L60.853674,610.950744L59.316046,611.558229L57.568964,612.469455L52.051783,615.095932L48.289374,616.489573L45.202918,618.008285L41.594517,620.331022L38.740703,622.385751L40.356005,623.761527L40.620073,624.529817L40.628432,625.726921L42.512675,629.050225L44.250596,631.122824L45.335618,632.105521L48.186744,633.356228L49.927494,633.927980L53.533511,636.643801L55.354971,639.502561L56.319495,642.468526L57.166310,645.916909L57.877417,648.096716L58.496715,653.992920L58.460942,656.119128L59.466227,658.138132L59.952368,659.460313L61.888673,661.532921L66.455353,663.659131L70.089610,664.570364L73.198993,665.981882L73.651765,666.196290L76.381789,667.911553L79.159380,670.734591L82.309724,673.003742L83.001827,674.004313L84.213109,675.701711L86.164393,681.312059L85.982584,683.992164L85.984192,689.048630L85.048178,693.801354L85.299036,696.088380L86.376544,697.392700L88.122398,699.143705L89.455577,700.019208L88.458875,701.073385L86.487030,703.003065L84.565067,704.754072L80.448694,708.166749L78.155153,709.828420L76.911069,710.632454L70.574224,714.420351L67.909226,715.921216L65.307768,717.529286L62.366307,719.208826L60.286192,720.298741L55.717914,722.996727L54.253768,724.122378L51.215943,726.248606L48.820020,727.749474L47.632834,728.410570L45.445455,730.107981L44.272308,730.840547L36.923776,736.182926L35.328302,737.505121L34.427616,738.327026L32.590162,740.363921L31.248250,742.472287L30.036693,744.955871L29.460138,746.706888L27.843699,749.940910L26.823286,752.460232L24.968152,758.660269L23.649519,763.770390L22.170649,767.343903L21.183086,769.309336L20.611416,770.292053L19.866174,771.328372L18.335397,774.205053L17.002895,777.081736L15.992736,779.869081L8.751487,797.504425L7.877051,799.612808L7.482497,800.559793L5.736224,803.204206L4.146793,805.205384L5.618949,807.796196L7.014682,809.493625L7.601534,810.029655L8.782263,811.137451L9.902370,812.513263L10.322444,813.281573L10.618571,814.067751L10.751778,814.889665L10.711528,815.693711L7.699917,825.806830L7.286230,827.665073L6.816438,831.399427L6.360356,837.653134L6.588874,838.671596L6.094779,839.904470L6.029519,840.869329L5.255927,844.210599L5.442871,844.657293L4.960338,845.300533L2.802658,852.983674L2.880200,855.467296L2.682087,857.629299L2.592150,858.540557L2.878240,858.987251L1.482950,866.009299L0.000000,874.818136L0.040839,875.890206L30.546585,875.961677L25.737979,878.588250L17.729891,882.733591L14.037258,884.913469L11.566655,886.753859L10.535333,887.414970L9.478983,888.236892L9.027241,889.612718L7.438941,893.347104L6.909044,894.901609L6.453370,896.545455L6.153487,898.189301L5.988098,899.868883L5.981908,901.637805L7.712443,914.109609L8.046195,915.878535L8.206274,917.772536L8.690736,920.595671L8.878737,922.775561L9.388732,927.528438L11.223894,926.777983L14.154347,925.187735L16.957442,923.526015L19.296579,921.953635L22.003841,920.452728L24.530190,919.184103L26.659043,918.558725L29.201813,918.165631L31.857674,917.915480L35.353272,917.254366L37.891586,917.486649L40.533283,917.236498L42.675460,917.182894L45.647142,916.450309L48.682817,915.539044L54.024566,911.447288L62.818010,905.247121L73.941788,898.653866L77.271883,897.367378L80.817612,896.313172L83.815467,894.633591L85.924810,892.828935L88.825966,889.505510L91.433020,886.342898L93.182135,883.930737L95.045303,881.018277L95.920087,878.481043L96.249251,876.193959L98.143177,869.332713L100.304018,866.277316L102.080208,864.722816L104.213539,863.472070L108.623819,861.989042L110.985526,861.899703L114.323137,862.668018L118.494760,862.131984L124.009156,861.006313L130.023501,859.398211L144.023123,854.609643L151.840665,852.304699L154.386473,852.215360L157.499586,853.930667L159.211392,855.145676L161.773586,855.931859L165.897259,856.664438L171.398302,857.343414L174.906616,857.611431L179.434511,857.950919L187.786557,858.075994L191.643607,859.541153L192.357794,860.220129L194.420084,863.865161L197.560321,866.438126L201.270164,869.314845L206.651504,871.977151L210.133780,873.120692L213.236288,872.477450L217.668181,873.120692L220.768289,874.121290L221.715609,875.193360L221.624729,876.819333L255.182031,877.212426L565.820753,681.937417L568.857916,680.025610L804.841719,531.710219L958.389267,404.301872L964.100284,401.872005L966.384596,399.442140L972.108956,389.937085L973.788874,387.024825L976.551283,384.505631L983.076660,376.412058L986.426697,372.052610L988.069417,370.105152L992.516654,365.852907L996.789793,361.940129L1000.000000,358.527616Z "/></g><g fill="#000" font-family="Arial" font-size="12px" id="mylayer-label" stroke="none"><text text-anchor="middle" y="518.929734872"><tspan dy="0" x="486.411994749"><![CDATA[N]]></tspan></text></g></svg>