<?xml version="1.0" encoding="utf-8"?><!DOCTYPE svg  PUBLIC '-//W3C//DTD SVG 1.1//EN'  'http://www.w3.org/Graphics/SVG/1.1/DTD/svg11.dtd'><svg enable_background="new 0 0 1000 1001" height="1001px" pretty_print="False" style="stroke-linejoin: round; stroke:#000; fill: none;" version="1.1" viewBox="0 0 1000 1001" width="1000px" xmlns="http://www.w3.org/2000/svg" xmlns:xlink="http://www.w3.org/1999/xlink"><defs><style type="text/css"><![CDATA[path { fill-rule: evenodd; }]]></style></defs><metadata><views><view h="1001" padding="0" w="1000"><proj flip="auto" id="robinson" lon0="-90.4073462136"/><bbox h="0.24" w="0.27" x="-1229.73" y="-683.9"/></view></views></metadata><g class="" id="mylayer"><path d="M1000.000000,69.024841L987.614877,70.406556L944.611774,66.201336L938.130953,65.540516L914.870223,71.788272L903.609904,72.449093L899.071022,67.462902L896.658112,70.586780L867.713679,63.257685L850.708407,62.897238L843.444677,62.717014L832.461735,62.416642L810.181370,71.728198L793.377860,78.696858L772.391369,65.600591L767.696742,62.656940L768.402666,60.854705L769.252271,58.812173L763.428169,58.752099L702.181569,67.342753L695.604143,66.802082L683.935982,65.720740L571.302059,55.327856L539.307307,55.027484L530.908779,55.087559L376.122656,433.090909L368.103768,431.168373L359.534497,444.445898L351.116443,457.843620L342.797542,471.241380L339.900784,476.107841L335.972369,482.596462L333.914063,486.081096L309.156053,485.900856L295.697282,485.720617L272.178225,485.540377L274.180450,480.553747L211.030989,479.952949L209.127852,484.939578L181.547416,552.590036L166.131907,590.441074L75.118958,590.501155L71.574271,590.441074L59.259064,620.121307L22.880249,706.579578L0.000000,761.856028L69.176281,762.637113L90.517828,762.937530L94.856259,765.400953L90.781912,775.555075L78.431354,805.837322L74.305034,815.871364L71.306202,818.214646L69.523617,823.021382L133.600692,824.042815L125.919523,840.626097L129.974999,841.407195L116.950657,863.157825L79.194509,926.187155L74.546028,933.757942L75.338988,933.757942L86.915029,933.938199L88.080950,933.998285L91.526631,934.058371L92.666511,934.058371L95.616591,934.118456L104.417273,934.298713L107.317794,934.358799L217.357840,936.341626L547.379092,942.290114L642.867104,943.972516L658.021031,906.899730L736.676165,713.549181L764.626522,644.935088L825.851992,494.372132L862.584744,404.733594L870.151163,386.169258L892.691276,331.137548L915.232150,276.106484L1000.000000,69.024841Z " data-aland="1551198" data-awater="0" data-classfp="C1" data-funcstat="A" data-geoid="1766677" data-intptlat="+40.7212040" data-intptlon="-090.4069201" data-lsad="47" data-mtfcc="G4110" data-name="St. Augustine" data-namelsad="St. Augustine village" data-pcicbsa="N" data-pcinecta="N" data-placefp="66677" data-placens="02399158" data-statefp="17"/></g><g fill="#000" font-family="Arial" font-size="12px" id="mylayer-label" stroke="none"><text text-anchor="middle" y="524.614485403"><tspan dy="0" x="522.052426502"><![CDATA[St. Augustine]]></tspan></text></g></svg>