<?xml version="1.0" encoding="utf-8"?><!DOCTYPE svg  PUBLIC '-//W3C//DTD SVG 1.1//EN'  'http://www.w3.org/Graphics/SVG/1.1/DTD/svg11.dtd'><svg enable_background="new 0 0 1000 1001" height="1001px" pretty_print="False" style="stroke-linejoin: round; stroke:#000; fill: none;" version="1.1" viewBox="0 0 1000 1001" width="1000px" xmlns="http://www.w3.org/2000/svg" xmlns:xlink="http://www.w3.org/1999/xlink"><defs><style type="text/css"><![CDATA[path { fill-rule: evenodd; }]]></style></defs><metadata><views><view h="1001" padding="0" w="1000"><proj flip="auto" id="robinson" lon0="-90.2196903475"/><bbox h="0.15" w="0.76" x="-1216.87" y="-709.93"/></view></views></metadata><g class="" id="mylayer"><path d="M1000.000000,474.294767L993.171165,471.819200L982.057653,466.078451L969.117241,458.395678L948.251101,450.691579L937.145312,450.904989L922.785393,449.624531L923.205102,448.536142L924.758181,444.737453L857.402817,449.816599L853.009542,450.072691L846.854455,450.179396L842.232169,450.051350L836.211778,449.581849L829.891671,448.685528L823.935826,447.426412L819.113796,446.081932L813.434907,444.075884L808.765718,442.027154L795.591191,435.710247L790.453862,433.298727L782.307274,430.375029L776.361390,428.795806L770.405334,427.622059L766.032710,426.981834L761.712526,426.555017L757.843356,426.320268L755.405344,432.573138L747.671683,452.420198L667.975841,466.889411L661.758891,483.279383L650.107505,487.846393L638.509381,492.370726L635.405956,493.565834L623.352387,493.800587L606.737986,494.056682L591.301480,494.291435L585.555357,493.885952L597.243064,470.090572L591.802025,465.779676L593.909071,460.572462L595.523246,457.136558L588.822029,456.346941L574.070239,458.459701L567.089790,459.099931L565.430601,460.060277L564.685312,460.487098L564.099708,460.828554L563.976710,460.529780L564.262342,459.846867L566.128161,455.301232L566.878794,453.252496L569.537067,452.782995L568.822420,454.661002L568.357985,455.856098L573.684862,454.468933L583.511021,452.911041L591.963900,451.545218L592.153031,450.584874L592.514003,448.536142L584.453591,449.048325L586.213572,444.374657L583.382405,435.518179L584.189756,435.070020L590.231706,431.676821L591.385205,430.993914L592.813724,430.161620L595.377748,428.731783L597.063293,427.835468L598.305207,427.195242L599.555906,426.576358L600.602572,426.064178L603.352493,424.655683L610.892388,420.857018L612.489658,419.875342L613.465759,419.277799L614.770156,418.488190L615.524653,417.954670L616.510105,417.207743L613.818264,417.122380L592.166083,417.143721L581.290897,417.271765L580.111469,420.430202L579.298313,422.628306L578.699677,424.228867L576.432377,429.649440L569.771078,432.871910L560.840546,415.393777L545.595213,414.156012L534.271881,413.238359L514.780788,413.174337L499.660602,411.595121L487.267543,410.143950L478.618229,425.231886L475.927384,424.847751L470.051282,434.237726L469.374304,432.765205L459.256268,420.963722L449.483557,409.226299L434.535082,419.811319L431.765667,421.731991L431.235615,421.347857L430.422468,420.878359L432.315961,418.722939L439.411884,410.058587L432.142559,401.821070L417.680230,402.141180L383.752636,402.632016L379.282870,409.802499L378.220192,409.802499L377.219719,409.738476L376.095556,409.589091L374.847847,409.311662L373.892446,409.012891L373.229354,408.692780L372.725809,408.329988L372.240407,407.839151L371.914408,407.348314L371.703460,406.878818L371.433194,405.619716L371.258680,404.851450L371.084167,404.083184L370.918004,403.464304L370.672791,402.653357L370.295828,401.522300L370.014905,400.796717L369.777466,400.305881L368.116475,401.778388L345.465425,419.597911L351.267830,426.896471L359.768950,437.524222L354.893312,449.560508L353.634278,452.654949L319.358127,464.520554L320.928501,482.190984L300.722639,489.212229L265.461974,501.483433L260.019148,524.361331L258.255615,524.724135L240.602424,528.394856L236.495822,538.297283L235.674281,540.346065L173.465179,563.138833L173.162080,561.068697L172.668550,560.343083L172.307224,559.809544L171.972394,559.297345L171.558216,558.678439L171.055902,557.931484L170.562233,557.248554L171.580035,557.440628L174.012810,555.562570L175.685104,553.343048L169.006425,551.059502L170.050096,540.815577L164.686168,545.297291L162.730750,547.431442L160.862758,549.907059L153.134366,541.071675L147.397809,535.138748L139.805269,528.096076L125.491592,515.654055L120.679852,511.279083L117.346998,506.925458L116.131941,504.834012L114.980824,502.166353L112.546681,504.428528L97.080161,518.791233L72.163364,501.974282L66.261103,498.004809L64.351086,499.776132L63.560382,500.523076L45.961449,516.891853L41.559445,514.458940L41.152652,514.288210L38.440037,512.474197L35.815841,510.702868L32.785293,508.632761L32.202108,508.248618L20.291657,500.224299L17.635986,502.507813L0.000000,519.303426L21.949286,533.730212L28.329167,537.913137L28.903580,538.275942L36.571664,530.742412L37.833383,529.504609L43.308232,523.699748L43.619270,523.379628L43.974804,522.995483L44.725899,523.486334L46.016124,524.297307L44.149463,526.346081L38.807104,532.257653L56.655754,544.251557L83.429075,562.263827L89.473060,566.318734L96.512641,558.635756L106.347676,565.144945L111.084699,568.090089L114.276258,569.733395L117.451386,570.992553L122.476790,572.443785L127.733447,573.596235L133.532095,574.215144L138.889358,574.407219L144.221539,574.151119L149.802818,573.553552L153.178733,573.020010L157.272904,572.209027L160.729581,571.355361L166.447015,569.754737L171.740065,567.940698L172.059305,567.812648L174.267209,566.980324L176.190165,566.617517L182.619888,563.864448L233.986857,544.464972L229.511392,556.138792L222.632992,574.108435L270.030898,573.980385L292.013387,573.425502L326.011760,573.404160L349.977154,573.105377L345.698904,584.224400L347.992831,584.160375L359.276278,583.904274L374.227464,572.337077L380.250258,572.123660L385.041855,571.974269L422.471856,570.608403L438.715740,570.010837L434.838524,580.425575L427.960419,598.694119L445.071482,598.352650L486.768547,597.541662L494.672041,577.032245L497.949638,568.516922L506.735360,568.346189L509.153244,576.541386L523.021799,576.541386L523.896959,574.279169L524.542550,571.803536L524.752072,569.989495L525.217391,568.495580L526.842101,564.483354L533.093198,548.391811L534.627695,547.644858L539.750960,548.989374L546.693725,554.580858L551.207804,555.349154L561.431047,557.035138L569.648585,557.291237L578.263205,557.995509L586.738718,555.135738L594.096451,552.873534L600.240294,550.803404L603.033011,549.843035L610.261253,546.535099L613.826699,544.870461L621.917323,540.516797L648.909244,527.050347L659.240602,522.632679L664.515157,520.989394L673.122275,518.492454L683.891050,515.739420L693.221455,514.138820L704.646646,511.044329L711.079586,509.934581L718.990563,509.102270L729.202286,508.824833L735.940721,509.102270L771.073275,514.245527L774.726072,510.169335L783.400131,500.565759L817.730883,490.556724L842.054872,494.270094L835.876605,507.181553L833.113221,512.858341L830.001558,519.452815L838.303153,515.526007L845.663555,515.163204L857.084682,516.102223L868.502843,517.980262L881.811190,521.437562L893.924935,527.413151L904.261455,532.513750L943.660627,549.779010L948.383326,551.827798L950.809199,552.041213L956.572913,552.532069L959.607779,550.568647L968.742096,552.190604L970.610110,552.382678L971.270902,550.632672L981.808385,522.632679L995.391807,486.501899L996.659985,483.129995L998.990987,476.919724L1000.000000,474.294767Z "/></g><g fill="#000" font-family="Arial" font-size="12px" id="mylayer-label" stroke="none"><text text-anchor="middle" y="494.630494091"><tspan dy="0" x="526.438976131"><![CDATA[N]]></tspan></text></g></svg>