<?xml version="1.0" encoding="utf-8"?><!DOCTYPE svg  PUBLIC '-//W3C//DTD SVG 1.1//EN'  'http://www.w3.org/Graphics/SVG/1.1/DTD/svg11.dtd'><svg enable_background="new 0 0 1000 1001" height="1001px" pretty_print="False" style="stroke-linejoin: round; stroke:#000; fill: none;" version="1.1" viewBox="0 0 1000 1001" width="1000px" xmlns="http://www.w3.org/2000/svg" xmlns:xlink="http://www.w3.org/1999/xlink"><defs><style type="text/css"><![CDATA[path { fill-rule: evenodd; }]]></style></defs><metadata><views><view h="1001" padding="0" w="1000"><proj flip="auto" id="robinson" lon0="-75.5682282279"/><bbox h="0.34" w="0.34" x="-1042.54" y="-635.56"/></view></views></metadata><g class="" id="mylayer"><path d="M507.960240,0.000000L505.419580,0.745149L503.478933,1.788358L499.718330,5.166368L494.555284,10.680475L484.601975,23.248678L482.938158,24.738980L480.606292,26.030575L478.575931,26.676372L476.175950,26.775726L473.997063,26.229282L472.905274,25.533807L466.439497,19.622278L461.688823,16.343616L451.541191,11.375948L447.959719,10.382415L444.184979,9.935325L439.504103,10.283062L434.708831,11.326272L432.338290,12.468835L430.283242,14.207518L429.185375,15.399759L416.770357,31.445341L403.715153,47.192890L390.168205,62.543049L381.739418,71.534579L357.446070,100.993075L351.622771,106.854979L345.307693,112.319470L338.609073,117.287191L331.621238,121.708465L310.793698,133.481980L304.773785,136.313587L236.759779,225.981592L205.036175,267.760717L102.655166,399.756159L197.771232,437.859818L234.728897,391.310779L278.533046,420.968998L305.230154,445.957486L307.260953,447.894966L322.698253,461.258621L300.272270,482.620637L289.171598,498.716700L270.343840,526.040326L274.572213,528.027502L207.750116,602.695940L200.813913,616.556614L178.944992,645.122583L169.850459,653.766910L131.607664,689.834707L113.017081,716.314321L69.762909,768.131116L24.919480,820.743091L25.369644,821.289581L24.786773,821.935433L50.750112,849.558083L41.179330,857.606424L12.457964,882.645751L4.243421,890.445713L8.911720,894.022768L12.689052,896.904286L31.822360,908.132277L43.206693,915.584490L51.308950,921.546265L75.470816,935.208680L101.052897,950.262201L140.192890,973.910684L182.227200,999.000000L186.004599,996.565588L189.033420,993.932450L194.421008,987.324765L205.090585,972.618958L212.637820,963.179432L222.253767,951.951376L327.755234,823.823310L283.162374,796.101374L294.021927,778.564062L496.581325,690.977353L520.909562,674.880962L571.620135,687.350695L583.754696,690.828313L594.848710,695.150496L606.407153,701.261173L623.162940,711.644365L647.980695,727.989222L655.834837,731.963659L779.377993,578.601270L751.189374,566.976234L740.096179,558.630064L686.579949,526.884875L606.834115,555.947368L630.348741,517.048360L730.025467,346.997502L742.845012,345.010364L754.099515,342.725157L766.031227,339.744452L807.091261,327.076467L815.735553,325.784830L822.949568,325.437081L843.682739,326.778397L876.961001,330.702986L904.347068,332.839156L920.267804,334.279829L931.240035,336.018572L942.300523,338.303778L944.839145,335.124361L946.816388,331.795910L948.145765,328.914565L954.015803,319.724075L976.152750,310.881342L995.756579,284.949329L921.449449,228.962260L739.311587,91.852486L735.664937,89.368632L716.982477,114.157526L710.694167,122.254915L692.153949,103.178870L574.168724,27.024110L549.682189,10.233385L543.066421,4.570248L540.043136,2.732213L538.187439,2.036741L532.850821,0.993532L507.960240,0.000000Z " data-aland="2038467" data-awater="0" data-classfp="U1" data-funcstat="S" data-geoid="5149336" data-intptlat="+37.8433659" data-intptlon="-075.5687525" data-lsad="57" data-mtfcc="G4210" data-name="Mappsville" data-namelsad="Mappsville CDP" data-pcicbsa="N" data-pcinecta="N" data-placefp="49336" data-placens="02584875" data-statefp="51"/></g><g fill="#000" font-family="Arial" font-size="12px" id="mylayer-label" stroke="none"><text text-anchor="middle" y="435.395926537"><tspan dy="0" x="456.832810736"><![CDATA[Mappsville]]></tspan></text></g></svg>