<?xml version="1.0" encoding="utf-8"?><!DOCTYPE svg  PUBLIC '-//W3C//DTD SVG 1.1//EN'  'http://www.w3.org/Graphics/SVG/1.1/DTD/svg11.dtd'><svg enable_background="new 0 0 1000 1001" height="1001px" pretty_print="False" style="stroke-linejoin: round; stroke:#000; fill: none;" version="1.1" viewBox="0 0 1000 1001" width="1000px" xmlns="http://www.w3.org/2000/svg" xmlns:xlink="http://www.w3.org/1999/xlink"><defs><style type="text/css"><![CDATA[path { fill-rule: evenodd; }]]></style></defs><metadata><views><view h="1001" padding="0" w="1000"><proj flip="auto" id="robinson" lon0="-84.373771876"/><bbox h="0.57" w="0.69" x="-1156.74" y="-658.85"/></view></views></metadata><g class="" id="mylayer"><path d="M1000.000000,173.431669L963.724306,163.571019L955.708298,161.179086L948.092888,159.250898L945.466832,158.494267L942.982206,157.493563L940.690409,156.273193L937.817963,155.126045L934.767860,154.271787L893.809193,147.657398L887.840816,146.681106L873.571777,178.215565L868.962437,188.466811L841.817082,239.748220L821.567194,234.866545L846.732460,176.165323L852.851349,161.886903L858.213942,149.390317L868.147821,130.133033L870.365044,123.225839L865.564053,121.492942L861.086605,119.979710L858.776225,118.637327L847.377482,111.705765L839.372082,106.263041L833.879159,102.211516L831.615652,100.551857L828.667789,98.208812L825.541677,97.818305L820.968911,95.109163L803.407930,84.760762L742.606943,219.269673L737.504034,218.732693L716.313343,264.278813L705.970152,265.450431L645.835009,263.839457L628.118145,262.716657L586.589186,261.471815L539.592230,261.667084L532.638633,278.020956L532.317137,278.802040L529.676211,285.197174L524.525601,296.767048L478.633894,295.619821L477.040498,299.305595L464.011747,329.988085L462.445270,333.771559L462.249945,334.650302L461.528742,336.090465L454.766992,343.877129L453.827321,345.317299L449.281299,355.618204L448.180352,357.302481L417.112209,353.763061L400.522613,351.883510L399.340213,352.152017L398.508229,352.737851L397.908691,353.518963L387.480407,377.513904L365.755947,429.459156L350.946405,428.311855L336.515434,427.042501L326.165058,451.282415L325.614495,452.747071L309.394667,491.121447L293.641978,528.520069L312.326003,530.790372L304.785441,548.904070L296.201550,568.531491L278.896415,609.324906L275.265613,617.552042L273.386518,622.092850L292.284847,624.436496L289.676595,630.857125L288.498776,632.297497L283.748687,642.502195L259.510596,698.067422L249.645486,720.577138L237.727809,720.577138L220.902948,714.473612L204.069976,708.394517L195.490441,708.272447L172.289581,708.394517L169.093834,714.375955L167.023328,718.184554L163.650924,740.108545L166.221371,762.081600L148.245476,774.118051L71.758931,766.036775L63.010969,788.889045L44.956243,833.715389L22.742086,832.372538L14.703997,852.100332L12.897812,856.959063L6.233871,873.000281L0.000000,888.113811L22.506489,888.406805L46.272557,888.675382L52.985248,888.797463L61.759913,884.719972L68.751628,881.814459L72.598054,880.886649L75.741114,880.398328L79.726645,880.300664L80.862369,880.349496L91.601564,881.497050L130.259643,885.281542L161.945675,888.650966L168.779945,889.359034L202.154434,892.728465L225.057309,895.218918L270.361837,899.858004L303.947795,901.884555L313.265050,902.592628L317.871083,902.836791L363.195341,905.400505L382.466734,907.109649L410.002591,909.111791L440.176813,911.065103L456.320215,912.090592L486.607851,914.239238L505.293051,869.289060L516.200021,842.529399L522.867206,825.585048L527.539528,814.183093L537.565434,789.938888L538.955559,787.033509L555.031813,747.335213L556.325011,744.185750L561.530569,731.490289L571.628864,706.856436L576.587013,694.722724L577.178144,692.720790L577.483021,690.743273L578.114795,680.733644L578.351867,676.705393L580.078372,657.321069L581.784114,635.568854L581.661445,633.029890L581.104143,630.661820L580.428833,629.001732L594.811659,619.212121L616.034252,604.124982L625.647773,596.654692L647.544633,579.614720L662.785930,581.372419L664.976613,581.592131L676.771252,582.788343L706.915066,587.255836L726.410438,590.307408L731.867888,590.795660L736.135940,591.039786L745.632445,591.625688L756.458716,571.583035L768.115474,573.072190L772.171015,563.160785L789.669711,520.537407L791.143118,518.096233L799.037592,497.736950L808.625425,474.814691L820.320574,446.375823L832.420506,417.205035L835.144672,410.321278L837.559161,404.243086L843.868587,400.410662L849.311105,396.675885L854.525836,392.672603L859.524462,388.425227L861.748030,386.472413L867.445422,381.443926L873.876677,375.292590L880.015892,368.945994L882.397294,366.285311L885.851389,362.379728L890.892389,356.228449L892.698950,353.860700L896.534114,348.759065L901.895495,341.118840L906.904084,333.405416L911.956058,324.910919L937.164185,280.876795L943.809249,269.941639L963.376906,236.575130L989.603679,191.346932L1000.000000,173.431669Z " data-aland="5968144" data-awater="1964" data-classfp="U1" data-funcstat="S" data-geoid="3939914" data-intptlat="+39.2073935" data-intptlon="-084.3747309" data-lsad="57" data-mtfcc="G4210" data-name="Kenwood" data-namelsad="Kenwood CDP" data-pcicbsa="N" data-pcinecta="N" data-placefp="39914" data-placens="02393069" data-statefp="39"/></g><g fill="#000" font-family="Arial" font-size="12px" id="mylayer-label" stroke="none"><text text-anchor="middle" y="537.102052838"><tspan dy="0" x="522.515460647"><![CDATA[Kenwood]]></tspan></text></g></svg>