<?xml version="1.0" encoding="utf-8"?><!DOCTYPE svg  PUBLIC '-//W3C//DTD SVG 1.1//EN'  'http://www.w3.org/Graphics/SVG/1.1/DTD/svg11.dtd'><svg enable_background="new 0 0 1000 1001" height="1001px" pretty_print="False" style="stroke-linejoin: round; stroke:#000; fill: none;" version="1.1" viewBox="0 0 1000 1001" width="1000px" xmlns="http://www.w3.org/2000/svg" xmlns:xlink="http://www.w3.org/1999/xlink"><defs><style type="text/css"><![CDATA[path { fill-rule: evenodd; }]]></style></defs><metadata><views><view h="1001" padding="0" w="1000"><proj flip="auto" id="robinson" lon0="-81.3615488165"/><bbox h="0.95" w="1.16" x="-1104.55" y="-691.24"/></view></views></metadata><g class="" id="mylayer"><path d="M773.526982,498.435358L776.107443,492.265791L777.948191,487.828792L790.886907,480.039431L784.682973,472.475485L793.678047,464.474934L782.130531,455.798338L782.855241,453.136212L759.894751,452.671397L760.529191,451.037502L763.650749,443.008915L766.032186,435.515612L770.328680,437.304422L775.245685,439.473535L783.236034,420.698155L793.674652,425.881428L795.782851,420.022077L799.486954,419.571359L812.914524,386.204564L813.176033,385.542589L823.896653,384.274978L826.963435,370.669368L827.696047,367.500380L822.514901,367.782067L826.516013,351.937241L817.849863,351.866820L816.291683,351.923156L815.761053,353.106230L817.050064,353.894946L816.346717,355.007601L815.738162,355.824487L815.236507,356.570952L814.720174,357.261081L814.279800,358.063884L813.898667,358.993446L813.314261,360.584971L812.743413,362.753955L811.354291,368.232768L809.106739,378.007365L807.492779,383.528497L806.896053,386.190479L784.246107,388.782044L781.487796,389.162328L760.440575,391.767984L758.422390,391.936999L760.891807,382.387649L760.157799,382.387649L768.337653,359.852588L772.795911,359.669492L774.154897,355.796318L776.093192,350.669663L753.956691,350.669663L730.075910,353.444251L761.155121,267.688273L764.563892,258.252504L766.565553,251.689757L775.403336,229.311882L780.035100,217.580903L783.360319,216.693690L794.391608,213.947560L799.760385,212.497042L800.939434,209.060871L802.783645,205.427552L805.770523,200.723968L809.071823,195.147286L802.095755,196.823105L802.771856,194.654399L803.516077,191.908315L803.954116,189.753699L804.702600,186.542907L805.039780,183.374369L805.148901,180.515650L805.270781,177.459786L805.212870,173.221018L804.883323,169.348401L804.966408,168.179577L805.230417,166.799522L805.537318,165.785604L806.173027,164.602701L805.538599,164.067579L804.391168,163.307142L803.480156,162.828349L802.005870,161.293396L801.072811,160.293565L800.397411,159.645787L799.021555,157.772867L798.784336,157.040598L798.462556,156.252002L798.344851,155.576062L798.375884,154.196020L798.501474,153.168030L798.676526,152.520256L798.931069,151.942893L799.182046,151.407776L799.333799,150.760002L799.382763,150.041820L799.050999,148.957505L798.481074,147.014191L797.582744,145.465174L796.333416,143.887995L795.973931,143.592274L795.576883,143.465537L795.332236,143.465537L794.728901,143.620438L794.171611,143.873913L793.868161,143.972487L793.360084,144.056978L792.972626,144.000651L792.404950,143.733094L789.901961,142.240409L789.374308,141.958770L789.017282,141.817951L788.656136,141.817951L788.259487,141.916524L787.956036,142.015098L787.548290,142.015098L787.064622,141.902442L786.318634,141.677132L784.906543,141.522230L783.946340,141.212428L782.335251,140.930790L780.848744,140.691397L778.554990,140.170367L775.739450,139.804237L772.915827,139.395862L771.915445,139.424026L771.240309,139.325453L769.657360,138.480539L768.874920,138.227065L768.365893,138.184820L767.724596,138.283393L766.945562,138.311557L766.222321,138.184820L765.644506,137.945428L765.307539,137.199088L764.829270,136.424586L764.559424,136.171112L764.268734,136.072539L763.721192,136.072539L762.397464,136.480913L761.883759,136.678059L761.292628,136.734387L760.811973,136.678059L760.277192,136.480913L759.671563,136.157030L759.012201,135.917639L758.370511,135.790902L757.105195,135.875393L755.779567,136.030293L755.023277,136.157030L753.884996,136.438667L753.129262,136.466831L752.055971,136.438667L750.729950,136.368258L749.927617,136.396422L749.197080,136.678059L748.322621,137.100515L747.467895,137.565217L746.335078,138.058083L745.370988,138.438294L744.272008,139.128306L741.003832,141.409575L739.225823,142.691030L737.788278,143.803503L736.892812,144.704748L736.195949,145.507420L735.280589,146.690305L734.487356,147.760536L734.062960,148.647701L728.387793,148.943423L703.064091,148.675865L688.073295,148.506881L688.056742,145.253945L683.536588,145.253945L683.472311,148.084422L644.997398,147.845028L640.102939,147.816864L609.365067,147.605634L587.385852,147.464814L586.214286,147.450732L568.307462,147.323994L564.421471,147.309912L495.772995,146.845207L494.974379,159.603541L493.779430,178.572289L493.536207,182.416768L415.345800,183.050474L418.543197,173.108360L407.272559,173.995542L406.964758,175.431935L406.357421,179.769286L405.460546,184.684030L405.149380,186.711896L404.994743,188.725682L388.177110,188.711599L371.634945,188.838341L343.351927,189.993101L349.831133,172.009944L356.591214,153.280686L299.196074,152.590666L289.594116,152.435764L296.963835,141.198346L296.481116,141.212428L296.315017,141.156101L296.124117,141.071609L295.723520,140.987118L295.384174,140.958954L294.032217,141.057527L292.417387,141.142019L291.550223,141.156101L290.907407,141.226510L289.787874,141.423657L288.492665,141.494067L287.998870,141.409575L287.432173,141.268756L286.913577,141.156101L286.493255,141.029363L286.164631,140.874462L285.984455,140.663234L284.955865,138.959324L284.715806,138.170738L284.601029,137.875018L284.577376,137.649708L284.674944,137.185006L284.909046,135.565592L285.053657,134.453126L285.139799,133.664543L285.252686,132.284524L285.618871,130.848179L285.718517,130.313071L285.732337,129.369591L285.661737,128.918974L285.820081,127.736104L286.090200,126.792626L286.320746,125.215470L286.628918,123.455253L286.803052,120.709320L286.933487,118.892783L287.216177,116.653798L287.534398,114.316246L287.731860,111.570332L287.945592,109.458095L288.098772,107.740144L283.667960,107.557084L280.774434,115.132981L274.635017,115.132981L277.522564,107.444431L270.705061,107.289534L261.629591,107.064230L259.925735,107.007903L258.639770,106.923414L257.567654,106.698109L256.105681,106.261582L255.009345,105.909543L249.761249,104.050782L245.122866,102.375083L239.197852,100.164290L231.427035,97.418406L228.456762,96.221484L225.139083,94.954156L223.528342,94.348655L219.589908,92.799701L216.785161,91.757678L213.273097,101.727334L222.401957,101.642845L221.335164,104.473228L219.797512,108.416059L218.879425,110.866253L218.295403,112.260331L217.804923,113.879716L217.410062,115.654001L217.178432,116.555227L217.020516,117.090329L216.700660,117.428289L215.897852,118.104209L211.497819,118.061964L190.471600,118.639312L189.428122,121.469732L188.623199,123.638316L188.109079,125.032407L187.870533,125.694249L187.120869,127.806513L185.923076,131.129815L179.297220,149.675687L179.068840,150.309378L178.967337,150.591018L177.074906,155.745047L164.042269,191.133779L158.366759,206.399253L152.067742,222.749280L147.016404,236.057594L116.235990,320.853775L98.676809,369.218675L96.292845,375.838356L92.894244,384.725684L86.050915,403.049828L86.025005,403.218846L85.578805,405.331562L85.387583,405.894953L85.017481,406.599193L78.423438,424.458843L75.623398,432.332379L75.278537,433.290165L71.307753,443.994879L67.016373,456.108215L63.798260,464.982010L59.800921,475.729244L59.653864,476.137725L53.012616,494.618111L52.961909,494.758969L46.660264,512.070488L46.249557,513.211451L38.360991,537.425452L30.509267,560.470731L17.318053,593.433522L16.595625,595.602898L3.403096,635.243955L3.365574,635.413002L3.290530,635.751098L0.000000,652.571454L6.984936,654.078816L20.357239,655.839756L23.039322,655.445306L25.458944,655.262168L26.241675,655.191730L28.904476,654.980417L29.950138,654.924067L35.726096,654.642317L42.603886,654.698667L60.134760,654.811367L79.193106,654.726842L85.984785,654.698667L89.618060,652.275617L101.706811,652.810941L121.251331,653.966116L130.733053,654.557792L141.977765,655.431218L152.473271,655.698881L151.030074,658.868579L144.884498,671.547447L151.100616,672.406797L173.826764,675.083465L183.531175,667.476108L191.950966,669.659697L196.472915,665.024858L210.614546,665.813766L208.150636,668.743998L205.396894,672.350446L203.900200,674.308640L198.861405,681.028505L194.341983,686.790431L192.924348,688.593679L191.397783,690.537809L181.497713,703.160639L177.699834,708.147818L172.578592,715.065096L169.072070,719.728292L163.497443,726.772427L159.233531,732.083730L154.728982,737.578205L148.324553,746.087644L145.086127,751.074990L140.494505,758.302451L131.615854,772.461628L126.534448,780.759966L190.139454,781.816634L181.465154,804.711327L170.094246,835.595156L141.541978,835.116113L148.514364,816.208139L142.018139,815.996800L105.808620,814.841479L105.042651,816.194050L104.105454,817.828409L98.961583,827.338731L97.498115,830.663838L108.297346,830.931537L105.531286,840.019270L139.926799,840.484225L126.310282,883.810367L135.263931,883.669467L132.804356,891.841716L133.561813,891.841716L130.996447,900.211281L135.812165,899.619492L136.103061,900.042198L136.355948,900.408544L132.989123,905.917834L167.964661,906.425085L189.986397,844.767460L199.643666,844.711101L216.721862,844.725191L224.446799,844.922445L225.328301,844.415219L230.156757,844.922445L227.192274,851.516401L201.430839,901.761207L200.244415,902.662982L197.870658,904.987876L196.690954,906.551897L221.043259,906.819613L262.423535,907.242322L284.862623,846.232780L272.333110,846.077794L296.242879,782.352013L315.132465,782.901481L416.105099,786.170116L434.929891,735.295882L433.098318,734.070192L435.895939,734.196987L438.056714,734.182899L441.784983,733.957485L444.589660,733.675717L445.875474,733.534833L447.110110,733.309419L448.823992,732.788149L454.277791,732.041465L466.410353,729.928212L476.163313,728.308053L487.341406,726.645632L496.575549,724.912771L498.851254,724.222445L500.545362,723.658914L502.139662,723.081295L503.666068,722.433235L547.806447,712.641931L565.058124,671.885552L565.758566,668.349543L569.894047,658.079675L619.678661,658.741791L649.978850,659.150330L680.502459,659.488432L694.271268,659.629307L707.520267,659.530694L705.580486,664.926245L724.774178,665.081209L730.403704,665.109384L732.075010,660.460474L776.753880,659.896971L779.221133,660.164635L780.442180,656.994934L782.894431,650.627381L784.341390,646.894207L785.915507,643.034257L788.607996,636.906258L789.946656,633.863400L793.190258,626.397159L796.251047,619.212705L799.008955,612.352292L800.413975,608.379750L827.610008,613.239777L843.528384,616.183976L853.534616,618.395652L862.824998,620.297414L867.826857,621.325775L875.205272,622.776753L882.329865,624.058685L890.567543,625.777322L891.987113,626.171764L894.079989,626.735252L901.408383,628.876510L905.534366,629.975314L907.205222,630.383845L910.091478,631.074120L915.476382,632.074316L918.766384,632.581457L922.747398,633.046337L929.625740,633.652091L935.182291,633.947924L940.221088,634.257844L943.066745,634.412804L945.589684,634.525503L948.901424,634.680463L961.536434,635.511614L985.009640,573.359927L1000.000000,532.607970L990.351128,535.495640L988.802504,535.946399L984.851145,536.890175L980.372937,538.002988L978.244774,538.510092L976.445359,538.524178L974.984824,538.017074L973.227846,535.904140L971.187063,531.340215L966.609198,523.916828L964.102995,520.874238L962.298980,519.183914L947.464702,555.512298L945.715219,559.794580L898.834214,558.385933L880.916898,557.794302L872.836684,557.583005L852.173123,556.949115L848.997777,556.836423L843.879135,556.878683L800.509460,555.977151L818.375436,509.929425L790.543639,508.267287L797.310436,493.082764L794.808721,488.603505L789.183903,491.899562L786.498409,493.308136L784.548003,494.195539L778.973401,496.477433L775.543751,497.590210L773.526982,498.435358Z M773.526982,498.435358L761.379471,529.875255L750.513113,529.635790L756.966203,506.253003L764.998356,502.548419L767.403195,501.337037L769.876423,500.097484L772.541142,498.843847L773.526982,498.435358Z "/></g><g fill="#000" font-family="Arial" font-size="12px" id="mylayer-label" stroke="none"><text text-anchor="middle" y="458.929128325"><tspan dy="0" x="430.01839076"><![CDATA[N]]></tspan></text></g></svg>