<?xml version="1.0" encoding="utf-8"?><!DOCTYPE svg  PUBLIC '-//W3C//DTD SVG 1.1//EN'  'http://www.w3.org/Graphics/SVG/1.1/DTD/svg11.dtd'><svg enable_background="new 0 0 1000 1001" height="1001px" pretty_print="False" style="stroke-linejoin: round; stroke:#000; fill: none;" version="1.1" viewBox="0 0 1000 1001" width="1000px" xmlns="http://www.w3.org/2000/svg" xmlns:xlink="http://www.w3.org/1999/xlink"><defs><style type="text/css"><![CDATA[path { fill-rule: evenodd; }]]></style></defs><metadata><views><view h="1001" padding="0" w="1000"><proj flip="auto" id="robinson" lon0="-77.3960135944"/><bbox h="0.41" w="0.38" x="-1062.64" y="-653.09"/></view></views></metadata><g class="" id="mylayer"><path d="M318.069293,0.000000L308.774355,11.047693L275.433134,51.945264L268.451007,60.491700L265.059133,64.660699L257.564526,72.998712L251.320789,80.669698L236.466368,98.804968L233.560216,102.598794L229.449801,108.810669L227.578000,111.645623L223.743810,116.606795L206.396639,137.952415L198.555785,146.540724L184.899623,163.175412L174.259009,175.766124L171.332477,179.851860L168.922386,184.020983L161.470676,194.235352L156.404075,202.156717L151.896449,210.244864L147.990322,218.583176L145.770999,224.586772L144.270196,228.547482L141.807135,236.927524L137.640895,254.646576L135.521645,266.820651L134.019123,275.159080L132.954782,281.037683L132.210542,284.623218L128.970908,300.508010L127.214175,308.679739L123.633910,325.356786L123.357777,326.607568L120.660550,341.033274L119.956673,345.494413L118.857229,352.498828L118.436479,355.125487L117.041064,362.213305L113.902554,377.764856L111.579536,387.812940L108.147188,405.907893L107.972974,408.951522L106.204109,422.210098L99.589994,456.899406L93.796182,489.545985L86.147686,528.113482L85.433234,533.283639L84.855066,538.787362L81.922350,551.754497L81.142427,552.880263L79.484475,559.718256L79.617713,560.510463L72.488714,591.865316L71.536533,596.701991L71.401572,598.494897L69.640461,607.918094L60.801498,655.034405L59.066231,666.167277L58.728195,667.960214L57.106637,688.474809L56.123708,700.816972L54.793959,719.580468L51.129735,770.534221L50.351510,781.750803L48.923442,801.515415L47.407441,816.860158L46.465846,833.330803L46.680384,839.126817L47.214581,842.629449L46.572690,855.639250L46.928327,857.265478L46.166661,869.774947L45.785396,875.862902L44.137261,886.037313L43.443691,897.087419L42.579482,910.722875L42.736333,915.476530L42.764890,918.186951L42.789561,921.022469L41.599480,940.787756L40.875482,949.919851L39.542135,959.051967L39.031817,962.763197L38.056332,978.900836L36.258208,999.000000L54.058594,987.240726L59.664421,983.696271L92.906640,962.721498L105.196615,956.883608L112.259096,953.672773L123.381336,949.461161L141.571554,944.040281L148.502281,942.163824L154.420133,941.288144L163.478654,940.662659L173.283805,940.704358L183.874248,941.621736L187.922130,942.455717L193.971093,944.624067L200.911932,946.417127L203.029204,946.917516L206.616233,937.159943L217.686063,933.907424L438.743018,870.317024L442.535789,869.191171L489.992181,855.972835L495.307451,854.513400L514.768846,852.845475L525.649652,851.677928L536.123087,851.636230L560.831625,851.427739L696.280318,849.634721L721.339208,847.591516L758.609459,838.960025L786.964975,826.325558L837.496703,812.898874L838.304381,812.690385L860.608939,806.310641L877.678564,801.348624L878.776607,791.424610L879.294747,786.003940L880.645182,769.408394L882.072257,759.067486L883.721203,732.506483L885.242144,716.244729L891.347626,654.158787L892.931931,637.688868L895.277749,614.881267L895.463129,611.462222L895.943524,602.914624L896.765183,595.367735L897.158785,590.697844L897.254646,590.155803L898.748892,580.941124L898.811193,578.939749L900.101162,570.850867L901.063434,552.630093L901.291739,547.835166L902.237270,540.663633L903.602268,530.531781L905.256711,519.440975L907.047500,508.683757L911.292224,485.084687L912.047924,479.664426L914.104005,468.365288L917.940856,448.810767L921.157966,436.469369L925.837691,423.544296L930.849567,412.995800L933.866070,406.366522L938.544748,397.819356L942.794685,390.356235L948.403891,381.642329L952.088412,376.388979L959.966530,364.756584L963.741792,360.212038L944.151287,349.413549L936.429509,344.827326L925.846376,338.281545L897.428965,322.521683L883.863077,316.101016L870.565444,308.679739L848.330633,296.213690L819.917663,280.328915L773.776193,253.312433L757.369852,244.640514L747.549656,240.054410L704.020679,215.039391L686.343067,205.533725L666.560845,193.693365L655.514914,187.898271L636.440094,177.975757L624.831920,170.679805L595.880581,155.462578L554.772014,133.199670L548.692605,130.239630L542.824979,127.362973L470.962437,85.880974L405.615903,48.943593L366.645066,28.015340L357.474292,22.178795L350.326837,18.385045L345.376564,15.049883L325.224550,3.543596L318.069293,0.000000Z " data-aland="4028677" data-awater="22025" data-classfp="U1" data-funcstat="S" data-geoid="5132592" data-intptlat="+38.8716383" data-intptlon="-077.3990544" data-lsad="57" data-mtfcc="G4210" data-name="Greenbriar" data-namelsad="Greenbriar CDP" data-pcicbsa="N" data-pcinecta="N" data-placefp="32592" data-placens="02584853" data-statefp="51"/></g><g fill="#000" font-family="Arial" font-size="12px" id="mylayer-label" stroke="none"><text text-anchor="middle" y="512.48901272"><tspan dy="0" x="460.316082597"><![CDATA[Greenbriar]]></tspan></text></g></svg>