<?xml version="1.0" encoding="utf-8"?><!DOCTYPE svg  PUBLIC '-//W3C//DTD SVG 1.1//EN'  'http://www.w3.org/Graphics/SVG/1.1/DTD/svg11.dtd'><svg enable_background="new 0 0 1000 1001" height="1001px" pretty_print="False" style="stroke-linejoin: round; stroke:#000; fill: none;" version="1.1" viewBox="0 0 1000 1001" width="1000px" xmlns="http://www.w3.org/2000/svg" xmlns:xlink="http://www.w3.org/1999/xlink"><defs><style type="text/css"><![CDATA[path { fill-rule: evenodd; }]]></style></defs><metadata><views><view h="1001" padding="0" w="1000"><proj flip="auto" id="robinson" lon0="-78.3775956408"/><bbox h="0.58" w="0.6" x="-1079.45" y="-642.29"/></view></views></metadata><g class="" id="mylayer"><path d="M1000.000000,272.964744L944.818918,253.457666L939.100672,252.488019L935.418935,251.660967L907.142931,243.561569L900.468377,241.764874L896.526372,240.880786L891.959404,239.454838L889.116242,238.057410L886.428967,236.289236L884.111670,234.207355L882.254090,232.211032L871.142051,221.915724L869.942334,220.974603L848.196046,201.268151L860.608388,191.400702L860.567511,190.602181L860.144192,188.520324L859.315359,186.638098L858.363949,185.326245L856.852009,183.957354L852.870085,181.647352L851.041461,180.021796L849.559725,178.082537L848.485729,175.858094L847.777721,173.177357L847.104816,172.407359L846.336862,172.036619L845.201146,171.894026L844.140494,172.122174L841.480429,173.462542L837.470569,176.086242L828.383989,182.987723L824.499388,186.124764L823.095406,187.122914L820.453114,189.261808L813.342615,195.963681L800.337289,207.913007L792.386463,214.957138L790.385538,216.411595L785.470487,219.206437L779.897453,212.048224L772.774764,203.492608L809.487365,147.254152L804.713166,144.031587L798.365794,139.725332L787.976727,130.970246L787.256341,129.658410L786.987668,128.146948L787.029003,127.148813L778.340868,127.006222L774.766732,127.376958L762.772672,129.430265L760.160585,129.515819L757.689754,129.202120L756.298224,128.831384L754.689075,127.947321L752.513088,129.915074L747.032943,134.306872L741.438227,138.071275L735.640546,141.350872L732.682421,142.605675L714.655238,148.109701L711.932519,149.193396L700.192760,156.864826L692.305708,161.741467L685.468236,165.334786L680.152929,167.530704L675.924503,168.785515L671.669438,169.584032L661.071785,170.040327L658.041273,170.525140L655.088037,171.295139L650.905345,172.863654L647.733991,174.916984L644.385403,177.569204L640.198643,181.961056L634.011917,182.731057L618.773122,186.695136L617.122167,187.122914L611.804204,188.235139L607.761438,188.862547L604.431569,188.719954L601.226980,187.607730L598.712195,185.725504L597.002246,183.386983L595.847066,180.734759L595.016961,179.793648L591.375931,174.146985L585.810406,167.901444L582.062716,164.878491L575.504882,160.971471L559.187330,153.128923L557.828339,150.619311L557.189787,147.938591L556.869672,145.742683L555.969090,142.776784L555.786348,138.556085L552.696097,135.419082L549.470802,132.738372L544.482432,126.806595L543.374750,126.179197L542.617032,126.008088L541.065604,125.865497L537.073497,126.321787L535.830760,126.150678L534.441938,125.380689L530.539844,121.787407L528.051789,120.361502L527.752475,119.734104L527.449643,118.650417L527.317861,116.910814L526.830262,115.827128L523.898465,114.886032L522.841439,114.087527L522.123350,112.690143L521.296587,109.553161L520.820504,103.592900L516.532920,95.294180L516.188843,93.725696L516.886924,90.275031L516.587623,89.647638L516.033793,89.333942L515.887722,88.735067L511.925360,84.799604L509.161918,79.466772L507.179299,74.305055L506.899118,73.535075L506.036906,66.148985L504.674569,63.183145L504.094147,62.413168L500.801020,56.139285L500.340063,55.511897L500.063872,54.884510L497.111446,52.374960L494.156620,51.433880L491.428774,50.350211L486.751170,48.753227L484.903022,49.066920L481.502028,50.179106L475.886369,52.374960L473.259959,53.601217L471.754267,53.772323L470.534649,53.601217L468.711523,52.660136L463.566940,48.895815L459.315261,47.498454L454.973247,47.498454L450.912361,47.641042L447.190439,47.184761L444.791969,47.641042L442.315284,48.439533L437.008299,50.606869L433.957229,52.175337L425.655183,59.076602L423.301452,60.473967L420.294161,63.610910L416.993621,67.660423L413.912585,70.968479L409.961867,74.561715L406.701011,77.384974L399.421597,82.860391L399.009370,83.316677L396.115032,85.369960L395.568691,85.655139L393.903861,86.909924L390.477836,89.276906L389.372731,89.733192L384.961061,92.699051L379.995568,95.351216L375.488492,97.547096L370.376937,99.600387L369.128314,100.541479L363.516130,103.193649L356.538406,107.728008L351.228059,112.091264L347.963708,114.458262L343.759427,117.737838L341.028361,121.502226L338.598978,124.325518L334.607027,127.433995L332.267954,128.859902L330.049297,129.801001L328.371245,130.086183L326.796725,129.943592L322.969610,128.203984L316.361405,124.468109L312.968667,122.899613L308.288447,120.218911L306.051480,118.023019L304.646935,115.199731L303.473838,112.062746L302.267284,110.209075L298.743700,103.621418L296.483549,98.773367L293.746840,93.896803L290.794428,91.387229L288.854265,88.735067L285.764260,85.598103L283.503285,84.029622L279.506139,82.318553L273.531675,80.265271L269.606827,79.324183L266.606306,78.069401L264.803776,76.044638L263.540409,74.305055L260.842589,71.481798L259.207677,68.344848L258.004623,64.295335L256.097043,60.987285L255.522596,59.105119L254.457194,58.335143L253.187906,57.707755L244.071973,55.968179L241.787949,54.399710L237.443412,50.663905L235.437040,48.781744L232.766848,45.787400L229.491207,43.277857L227.254386,41.082007L225.777744,40.140929L222.687876,37.004004L220.263822,33.724494L218.952344,30.587575L218.168103,27.308070L217.732303,22.773803L217.762370,21.034243L218.084540,15.188186L213.169091,17.982886L202.528840,24.199673L193.565898,29.275772L184.890284,34.551501L176.723775,39.199851L187.259479,68.515954L191.705242,81.348947L196.982357,95.664913L199.463757,102.651808L202.842048,112.148300L233.456350,196.762203L234.670837,200.384072L240.036526,215.185288L245.977452,231.555097L247.626778,236.517388L254.006307,253.200995L256.324979,259.960015L264.582476,283.488338L266.855992,289.619985L269.955215,296.863896L272.725831,301.940346L267.714642,305.761947L266.115168,306.874204L262.555111,309.070201L259.575596,310.553213L256.506365,311.636952L254.053208,312.121783L251.909199,312.264381L249.349896,312.093264L247.429316,311.636952L239.525820,308.842046L236.414871,308.271657L232.767798,308.186098L230.121877,308.385735L228.313657,308.642410L225.324826,309.298357L223.075092,309.954304L221.560462,310.467655L217.871153,312.007706L213.254393,314.574459L208.300490,317.968279L197.940059,325.582996L194.884125,327.636406L192.404291,329.147944L184.578808,333.425885L169.847296,340.669876L158.244998,346.003059L123.858712,361.517813L113.671100,365.738750L109.862295,367.136223L102.757261,369.760051L97.475565,371.842003L88.256243,375.834791L82.954995,378.373066L76.752066,381.538781L40.383282,401.645409L36.556694,403.727378L23.038598,411.085578L18.720305,413.424233L13.829909,416.447375L10.042407,419.099757L5.766754,422.465146L0.395318,427.113951L0.000000,427.513236L20.229379,481.388443L21.568270,484.982051L24.763153,493.310106L22.316360,498.301244L23.533504,509.566978L24.826689,512.846881L27.336632,518.494025L29.552890,522.401397L32.105666,530.558405L33.425578,534.294662L34.247562,544.476694L35.116203,548.098880L36.730735,552.947480L38.549152,557.653480L40.073837,560.619689L40.049900,561.247156L41.544974,565.953166L42.323613,570.972916L44.309447,574.566604L45.231693,575.821544L47.187937,581.155042L48.463848,583.322668L50.539751,585.518818L52.684537,588.028704L55.822537,590.538592L56.533319,591.337193L60.022219,593.675954L66.048187,598.838346L68.633096,600.407030L73.182151,601.348241L74.682284,602.289452L78.576898,605.911690L80.633761,608.250460L81.688980,610.617753L81.980408,610.960012L81.943395,613.584001L81.341558,617.805204L81.474502,618.917549L81.911734,620.172502L85.355670,624.850060L87.866090,627.217362L91.861234,627.844840L96.392055,628.301188L99.971033,629.242405L107.762265,633.435103L113.053909,636.629542L115.665589,638.654590L117.232638,641.478250L120.164892,645.699483L124.732291,647.125576L127.924645,646.640704L130.557427,646.954445L131.707513,647.439316L132.611556,648.209407L133.510782,649.464370L133.942432,651.831687L134.196939,654.797965L134.605498,657.165285L135.536265,658.391729L137.516696,659.817827L147.055084,664.039079L150.424641,666.235272L152.264517,669.230084L155.130734,670.941405L161.570475,677.986355L163.622677,680.810042L165.189822,683.633732L167.173238,689.423728L167.926376,693.359789L169.034432,697.267332L169.888806,700.861134L171.479087,703.684837L171.450411,704.797206L174.171817,718.402355L174.690958,724.848417L174.694775,728.584856L172.956059,737.198644L173.385928,741.134752L173.383253,743.330988L173.781306,745.812451L174.402295,748.008689L178.061648,758.989899L179.217569,761.642508L179.978066,759.617398L181.849189,756.023544L184.834590,751.317310L191.196183,743.473601L192.552844,741.619635L200.489545,726.730897L205.369259,718.430878L209.989733,710.929500L212.863350,706.679677L216.399163,701.830890L219.999091,697.780732L221.414821,695.727132L223.100459,692.760823L225.134270,691.819591L228.763023,689.937127L230.311770,688.995895L244.907103,681.038219L247.524334,678.670885L248.236745,678.214531L272.001732,704.626072L273.331466,705.909575L275.552454,708.162836L276.194033,708.961461L276.948136,710.473143L277.317239,712.583795L277.167925,714.494792L275.796821,719.600295L274.737102,722.481057L273.324680,725.304776L269.899666,730.638473L269.449022,731.693804L269.237418,733.034360L269.645065,734.546052L270.646664,736.314446L271.842241,737.426824L274.276702,738.567725L277.975347,739.651581L280.525303,740.792482L282.350775,741.961906L283.984853,743.388033L285.561725,745.241999L287.485777,748.265393L289.337260,750.518678L292.538346,753.285371L294.401595,754.483321L296.504638,755.339000L298.864341,755.795362L301.356777,755.880930L309.900309,754.797070L316.490357,754.226618L319.529468,753.713210L322.594252,752.800486L325.592314,751.488446L332.650630,747.381192L336.210032,745.498703L342.887017,742.446789L346.801328,740.535779L348.795520,739.337833L352.642031,736.171834L355.308653,734.574574L356.443051,734.175259L362.556445,733.576287L389.111319,701.887935L393.973606,704.426416L374.261231,728.128497L360.205670,745.042342L335.987456,773.907280L330.503161,780.581613L325.361691,786.799592L298.861813,818.773846L300.323288,820.627847L302.096794,823.223450L306.383342,828.100906L312.368628,834.889423L321.816269,843.874241L325.255136,846.384289L328.979984,848.552060L332.136509,850.063795L339.119791,852.773510L340.708154,853.885920L341.949679,855.312087L342.806603,857.023488L343.358216,861.330518L344.194674,864.439568L345.413545,867.348957L347.031690,870.001637L348.258214,871.713045L348.740831,873.909352L348.715274,876.105661L348.202446,878.387541L341.577966,894.703022L334.216389,913.043755L332.530524,918.434748L332.588163,919.490129L333.074405,920.345843L333.915909,920.859271L336.544477,921.344176L338.638066,921.372700L338.088337,924.795559L341.944177,926.364371L343.741180,926.849276L346.416294,927.020419L348.892288,926.849276L352.866368,925.907989L357.351163,924.567369L360.978069,924.253606L365.512219,925.793894L367.794989,925.651274L373.876498,923.597558L376.413699,923.141177L378.150178,923.283796L381.313393,924.538845L383.137883,924.852607L389.537366,923.911320L391.412440,924.053939L394.044719,924.995226L395.587976,925.166369L401.433417,923.911320L406.446609,923.283796L409.130153,923.426415L411.185295,924.053939L413.078066,925.308988L414.507837,927.505325L416.699196,934.236961L418.178889,936.889685L421.016383,940.341081L423.655431,942.822666L426.537441,943.935101L428.666279,944.391484L440.029750,945.646539L454.583297,948.613035L459.368885,948.755655L462.621827,948.613035L466.018078,947.985507L468.517842,947.186835L472.539436,944.990488L482.891498,937.631307L487.580591,933.723531L488.897912,933.096005L490.565434,932.924862L492.662741,933.409768L495.155449,935.292346L498.528644,938.572597L505.868944,947.500599L508.855189,949.354659L518.296083,951.722153L521.324486,953.433595L524.162075,956.885006L527.282474,967.039586L527.967580,968.551366L529.237295,971.289685L534.160024,976.908950L541.937376,983.811814L558.073358,963.445546L566.912627,948.698607L570.026198,945.275728L570.863790,943.535765L571.486046,940.883036L572.204095,939.000456L576.577418,931.783906L577.295473,929.901330L577.825017,927.562373L577.482501,923.797225L576.922345,921.315652L574.920091,918.320653L574.755346,917.236749L576.747861,911.589043L581.467718,900.464798L589.395359,892.164420L590.922582,889.654343L591.428395,887.942928L592.129119,880.726469L593.212088,875.421097L593.376151,873.224789L592.776284,868.689559L594.002603,862.899304L595.723596,848.323873L597.903564,836.572292L598.273242,832.664614L597.765637,824.535514L597.030989,820.456708L594.699544,815.294031L594.059410,809.332715L594.196759,806.680075L596.674094,797.752385L596.625965,795.727257L596.125001,793.046103L593.700895,788.197213L591.947873,786.000952L585.229581,779.269564L583.815333,776.474330L582.136259,770.199322L581.606062,769.258071L577.497093,755.966498L575.107920,750.062316L578.195007,747.980167L579.775577,746.696651L581.501694,744.842684L585.100561,739.623058L587.070856,737.255689L589.343269,735.116502L594.374637,731.380057L601.374856,726.531240L603.274409,725.418866L605.749224,724.392058L608.267673,723.764565L609.628278,723.850133L610.778436,724.335014L611.776812,725.333298L612.130633,726.246016L612.228173,727.244301L611.938913,728.613378L611.442130,729.668709L608.676613,733.319585L606.782213,735.430249L600.124847,741.619635L599.069310,742.846105L598.469507,744.015529L598.283640,744.956774L598.502914,746.012109L598.872130,746.325857L599.628145,746.268812L600.899280,745.641315L608.479131,740.706914L615.674022,736.371491L624.009166,732.007551L627.295701,729.953934L632.688556,725.932269L639.100662,721.197549L640.081091,723.194117L641.288864,726.531240L642.040911,729.925411L643.786420,742.304176L739.731253,672.396030L739.724645,670.855839L740.553972,669.144518L742.843979,666.320838L750.749030,658.020944L751.281754,656.765978L751.356182,655.967364L748.189923,650.348548L745.420755,644.558609L744.614908,642.362427L744.482569,640.622595L745.317430,637.798936L746.628920,635.003801L750.512408,628.900144L758.123118,622.767976L760.111779,620.885544L768.198821,611.501923L777.262276,600.378509L779.664180,597.098534L782.307002,592.535095L786.788332,581.753991L788.509536,575.308160L789.089016,570.145798L789.873349,567.493316L791.050728,564.527102L797.364956,554.031286L799.498937,550.095361L800.858239,546.045357L802.408655,540.255568L803.018415,532.726004L801.233104,512.675756L801.853880,511.591961L810.482495,500.925159L822.387532,482.928560L824.911041,478.222648L828.010335,471.491778L828.794778,468.839362L829.120901,466.643277L828.980270,464.932042L828.248333,462.564836L823.259178,456.005115L822.222177,454.122763L820.979289,450.671785L817.678667,438.949892L817.341826,434.700357L817.090365,434.301072L821.105067,432.675413L826.148902,430.850112L831.132281,428.682568L832.928843,427.684357L834.860372,426.229822L836.226922,424.889369L837.652923,423.035551L838.938935,420.639850L839.569389,418.586392L839.821854,416.561456L839.699945,415.021365L838.828074,415.392127L837.666585,415.648809L836.257655,415.648809L834.838886,415.135446L834.044547,413.994637L833.687249,412.625668L833.741686,411.114098L834.251842,409.545488L835.160877,408.033920L843.086809,411.770062L845.923944,413.110511L856.560510,418.614913L857.593054,417.388543L863.762013,412.540107L892.745205,390.921861L907.593919,379.998703L924.523812,367.193262L949.785629,347.771281L990.773787,315.943394L992.874621,315.087809L995.031474,314.745576L993.169693,307.843865L992.216764,305.990102L990.879215,304.421534L990.480758,304.050782L989.368928,303.280757L986.523454,301.968865L985.261981,301.626632L980.101578,301.113283L979.027093,300.685492L978.049836,299.772872L977.480299,298.575058L977.324707,297.149090L977.624828,295.666083L979.392224,291.331144L979.823325,289.249234L979.826787,288.222539L982.244756,287.309922L984.556095,286.055073L991.284324,280.721971L997.495993,275.417395L1000.000000,272.964744Z "/></g><g fill="#000" font-family="Arial" font-size="12px" id="mylayer-label" stroke="none"><text text-anchor="middle" y="458.530490453"><tspan dy="0" x="473.897534984"><![CDATA[N]]></tspan></text></g></svg>