<?xml version="1.0" encoding="utf-8"?><!DOCTYPE svg  PUBLIC '-//W3C//DTD SVG 1.1//EN'  'http://www.w3.org/Graphics/SVG/1.1/DTD/svg11.dtd'><svg enable_background="new 0 0 1000 1001" height="1001px" pretty_print="False" style="stroke-linejoin: round; stroke:#000; fill: none;" version="1.1" viewBox="0 0 1000 1001" width="1000px" xmlns="http://www.w3.org/2000/svg" xmlns:xlink="http://www.w3.org/1999/xlink"><defs><style type="text/css"><![CDATA[path { fill-rule: evenodd; }]]></style></defs><metadata><views><view h="1001" padding="0" w="1000"><proj flip="auto" id="robinson" lon0="-76.3369480359"/><bbox h="0.4" w="0.5" x="-1042.66" y="-671.08"/></view></views></metadata><g class="" id="mylayer"><path d="M1000.000000,459.886197L999.532404,459.283277L997.701416,458.914826L996.428433,459.383763L995.996386,459.015313L994.343401,453.488558L993.734898,452.550686L993.287218,451.277860L991.908714,448.698715L991.518301,445.684134L991.504475,443.473444L990.380899,439.654985L989.663287,438.281681L990.713678,437.042359L994.373617,434.664202L994.687755,433.324397L994.553624,431.147215L994.367182,430.175857L993.564868,430.544303L991.974592,431.582651L989.793328,432.754980L988.240409,432.721485L988.905446,429.405471L990.622155,425.453057L990.170077,422.806953L987.239310,419.758914L988.795870,417.179807L989.115650,416.342435L988.083854,414.835167L986.145602,412.724993L985.841339,411.519181L986.745825,409.007073L985.558789,406.863411L985.626077,405.523623L986.110398,403.212490L986.664501,399.293619L984.972566,399.092652L982.132323,399.226630L978.280271,398.657222L976.865088,396.714537L976.350088,393.834007L977.184779,391.455899L978.403521,390.551548L978.364206,388.508387L977.036302,386.029801L976.394766,383.115792L977.461357,379.397923L977.449463,375.881026L977.612770,373.804385L979.533416,367.473992L980.656774,365.397359L981.311956,363.153258L979.878733,360.574219L977.582729,359.334942L976.323446,357.593256L977.068406,354.545310L977.266645,351.664837L977.280365,346.506791L977.916247,343.023442L978.092681,340.645389L980.979687,335.855799L983.599865,333.209806L987.443169,329.559011L988.725516,328.453726L952.453227,312.276434L961.921217,278.716480L960.353302,265.989289L953.106662,174.054337L940.200778,166.820279L925.091372,158.748975L920.369538,155.902257L912.219262,151.581950L905.085726,147.429106L904.401352,146.558349L903.566206,144.950800L654.343582,132.659782L653.808363,134.870150L652.745081,137.448916L651.799819,138.788536L650.654488,139.893724L647.678104,142.104100L544.611667,209.387703L547.373076,197.632177L481.546886,197.967092L472.712803,156.906980L445.509016,149.438546L423.201093,140.195138L424.699841,126.798967L375.327961,126.798967L377.887362,110.053870L359.711120,105.867617L291.092293,93.543334L291.730661,106.771847L292.557067,118.627343L292.896371,129.076310L292.693123,132.056954L292.038579,134.903641L290.911845,136.209769L288.694175,137.582878L287.110638,138.252688L284.482969,138.755046L279.513241,139.290894L274.577878,139.458347L251.546072,140.730987L238.691812,141.132874L216.548324,142.372024L207.445599,142.706930L204.113545,143.008345L202.215844,143.544195L201.550610,143.912591L200.735074,144.582403L199.771067,145.721084L198.871803,147.261653L197.592267,151.648932L196.617803,157.844723L192.534648,181.221437L190.226369,192.842907L189.654446,194.216053L188.361726,196.392994L187.277420,197.565194L186.358398,198.302006L183.194279,200.411968L178.654321,202.622407L153.422978,213.440193L149.766550,214.679386L147.358294,215.181761L144.228820,215.449695L141.336314,215.315728L135.626659,215.416203L128.781093,215.985562L122.739030,216.789364L120.600680,217.392215L118.088215,218.396968L115.441568,220.172032L111.016534,224.358509L112.470550,229.382293L116.314752,237.252912L119.858953,242.779108L121.204987,245.458482L122.510886,249.477548L123.267505,253.932021L123.297914,254.702345L123.343746,256.376962L121.967555,261.936700L121.249751,263.510845L119.720114,266.089767L114.273981,274.194969L111.626865,278.917436L108.986674,283.271493L107.948490,284.644697L106.199435,287.223644L100.949288,294.190166L99.043729,297.003575L82.644106,324.200058L80.045234,327.817350L78.149150,329.994427L74.401929,333.946665L72.515291,335.487370L68.176596,338.535289L61.251227,342.822479L58.711817,344.865597L57.067671,346.506791L52.238730,351.363392L47.141038,356.722414L38.221260,366.703628L34.148607,370.990875L33.123587,372.062688L29.079050,375.914521L20.656940,384.757015L18.697272,387.135116L17.097892,389.848165L16.157511,392.125788L15.437067,395.441744L14.994627,399.092652L15.072188,402.140662L15.917621,406.662443L17.994219,411.887623L18.636051,414.366239L18.699497,415.639043L18.364455,418.084169L16.716988,421.902589L12.541274,428.769065L8.191578,436.271970L2.467441,448.464247L1.479671,451.411841L0.942054,453.890503L0.147358,458.914826L0.000000,461.460488L0.744743,471.241215L2.167449,477.839882L4.147645,482.763774L5.399922,484.874016L5.966558,485.510439L8.362827,487.386213L11.169351,488.659060L16.325488,490.568332L30.395734,494.386882L44.747841,497.401531L53.424481,498.674385L61.674700,500.081223L69.120053,502.124491L71.378647,502.961896L77.170660,505.809076L81.790699,507.852349L89.863746,512.072886L94.760540,515.322035L97.041564,516.695388L98.818243,518.102239L101.750662,521.317900L103.077217,523.193705L103.880733,524.902029L104.619371,527.682245L105.016272,533.276185L104.855948,536.123405L104.529180,538.803146L104.645672,541.382399L104.356895,545.502511L104.387330,549.220668L103.236800,561.179108L102.034752,565.064778L101.953694,565.667728L101.353923,567.476577L106.877370,572.300183L119.845074,584.459736L125.136677,589.149390L127.803061,591.125747L131.528649,593.135603L134.281074,593.973044L141.922410,594.877481L152.610435,595.949406L171.208503,597.423304L221.350125,600.203614L225.141809,600.270609L230.858626,599.801641L238.597829,598.662718L214.603285,673.296915L215.045941,673.631904L216.826637,676.847799L219.175876,679.393719L220.112975,680.767177L221.426077,683.380100L221.295245,684.921056L219.949326,686.227520L223.690735,689.141942L224.758073,689.409935L225.966328,690.012919L227.513757,691.017893L232.420361,693.630829L236.397978,695.104794L246.680514,698.153225L250.262218,699.057705L253.473550,699.225201L257.896804,698.856709L261.926715,699.124703L263.713507,699.459696L267.283328,699.794689L272.977940,701.737649L276.017857,702.273638L280.178687,702.474634L282.562140,703.178120L284.313971,702.843127L286.164341,702.977124L289.004708,702.843127L291.487290,703.580112L296.245369,703.714109L298.502264,704.384097L300.831445,704.652091L303.860063,704.183100L305.755877,703.479614L306.692306,703.814607L307.547150,705.188081L311.537156,705.322079L313.101323,704.886587L313.770268,704.853088L314.305238,705.590074L317.088858,705.288579L319.629366,705.322079L321.684823,705.154582L323.128082,705.188081L324.965388,705.623573L327.864972,705.389078L330.197212,704.953586L331.912313,705.255080L333.767753,706.327060L335.414926,706.930049L336.702309,706.762552L337.209722,706.025566L338.553139,704.987085L339.489570,705.322079L340.216561,706.059065L341.416125,706.863051L343.029627,707.399041L344.555180,707.432541L346.115575,706.662054L348.019510,706.193063L353.513164,705.389078L355.394738,705.858069L356.707082,705.958567L359.163995,705.389078L362.188254,705.020584L363.879696,705.657073L364.790583,706.159563L365.394788,707.198045L368.626152,708.169528L371.495836,708.203027L374.014572,708.739018L375.851300,709.610003L376.862624,710.748984L380.446244,711.820967L381.521141,712.758953L383.077320,713.562941L386.256734,712.356959L389.245434,711.753968L390.506255,714.098933L393.135302,714.199432L394.849829,714.936421L396.917769,714.902922L399.129686,714.500927L401.543636,714.500927L402.869773,715.338415L404.972694,715.974907L406.854856,716.008406L408.463863,715.170918L409.606539,714.333430L410.980418,712.591456L412.425417,711.318475L414.319912,710.011996L416.075216,707.064047L417.280450,708.370524L420.498761,709.643503L423.087313,710.045496L425.978188,710.011996L431.309866,710.413990L433.403347,710.212993L435.632097,709.844499L438.060417,710.145994L437.856069,711.485973L438.296435,713.562941L439.118377,715.907907L439.422168,717.549386L439.428570,719.090366L442.040945,720.631348L443.112654,720.798846L443.971893,722.071832L445.126636,723.277819L445.909251,725.053301L446.251652,726.225791L446.819173,727.900776L447.654596,728.034775L449.440436,730.714755L451.315389,733.026241L452.774349,733.964236L454.377851,734.098235L456.166559,734.600732L458.419710,734.935731L465.669690,740.027712L468.121860,741.468209L470.263583,743.109706L471.799927,744.583705L484.035289,751.953715L486.139003,753.628721L488.570569,754.700725L490.360619,755.806231L491.412479,756.643735L492.958669,757.045737L495.304722,757.347239L497.248770,758.486245L499.042612,759.926754L501.252840,760.831261L502.388893,761.836268L504.286575,761.300264L503.639584,762.305272L505.092328,763.176279L506.426646,764.248288L509.067295,766.827812L510.282847,770.010346L510.638897,770.445851L511.682070,771.484364L512.564444,772.857881L513.057871,774.767406L512.591756,776.241427L512.412668,779.323473L513.069909,780.194487L514.576972,781.501009L516.381662,784.382059L517.651883,786.090591L519.789323,787.832625L520.415345,788.368635L521.373785,789.675162L520.104258,792.388719L519.549063,794.231261L518.166810,797.648341L518.000802,800.428910L516.547651,804.851028L515.719741,808.770640L515.684660,811.484222L515.870684,812.891266L515.841054,814.633321L516.094436,816.174371L516.869022,817.715423L517.183516,819.323477L517.850278,821.032037L519.629248,822.606593L520.547792,823.779135L522.916679,826.090721L524.520758,825.789210L525.919775,825.789210L526.504796,827.062258L526.726959,828.268304L531.386805,832.790983L532.081559,834.064035L534.013188,838.452721L536.807708,842.975421L536.350335,844.248479L537.654026,844.549993L537.907438,846.091065L537.315351,847.096112L535.936973,847.464630L534.537131,846.426081L533.367614,846.828100L532.725288,849.206713L533.316062,854.365969L533.860640,855.940549L536.780948,859.458233L537.225858,861.434839L536.592826,866.560622L537.550023,870.647856L538.448792,872.490464L539.030342,874.902608L540.113823,877.549269L541.425451,879.994921L542.767485,881.737031L542.996777,884.048678L544.173161,886.661849L545.634148,887.767422L546.452764,887.867928L547.695889,887.666915L548.592459,887.867928L553.330137,891.017139L557.562722,896.545021L558.149181,898.421154L561.190971,901.034341L563.426121,904.116567L565.142171,905.456666L567.568030,902.642458L571.066374,897.650599L573.212726,893.898336L576.328833,885.690285L577.638684,882.675090L581.312464,875.740159L583.137284,872.657974L585.576733,869.106767L592.721593,860.563792L597.650804,855.471525L602.602574,850.915296L605.475002,848.771192L609.117960,846.359078L612.716111,844.348984L625.227637,838.787735L640.237058,831.919948L646.613672,828.670319L650.009206,826.693744L651.906050,825.119185L653.135844,823.745634L655.437630,820.630023L659.733528,819.189473L671.969929,815.973365L676.995348,815.001833L684.118068,814.164306L692.568637,812.857765L727.911113,806.057062L743.109557,803.276485L753.929819,801.936449L763.067525,801.232931L771.573766,800.964924L775.323210,801.165929L779.266045,801.969950L781.362275,802.974977L782.658645,804.080507L784.202738,806.224567L785.939163,809.842672L787.877458,815.772358L789.801054,819.926498L793.120186,825.219688L796.059838,828.502813L803.994641,834.901570L805.835334,836.107620L807.902256,836.945156L810.280137,837.146164L812.745180,836.811150L815.953838,835.772606L815.404870,834.298545L814.953131,832.690479L815.160808,830.211380L814.118475,824.918177L814.090191,823.879639L813.397712,818.954965L811.986620,815.001833L811.441514,805.186037L811.016701,804.013505L811.401729,799.758893L810.896227,797.279832L811.726958,792.656725L811.329425,781.333506L807.897144,773.795893L806.394092,770.914857L805.480963,768.770833L803.900791,766.827812L800.446316,763.611783L800.035113,761.702267L800.509323,757.079237L800.158700,752.288716L796.577171,746.091205L793.278930,741.166709L790.426107,737.783219L790.370443,736.744723L791.380003,734.332734L794.156066,729.977760L795.917118,729.006268L800.660342,725.890794L807.313165,722.808824L817.515214,719.693359L831.105694,716.879394L848.190529,714.031934L865.945646,711.753968L879.335640,710.614987L892.352988,710.480989L919.207627,710.916482L931.858868,709.944998L941.771327,708.873016L952.558607,705.121083L962.738878,699.124703L968.704248,693.965821L973.057978,688.438460L976.882929,682.241133L979.400693,676.881298L980.965727,670.717503L981.458517,664.821716L981.431243,658.054981L980.777102,653.097188L978.709716,644.454577L973.927189,630.519277L970.445645,623.920141L967.908138,618.325965L967.181284,614.205712L968.461242,609.984974L970.638288,605.529760L973.269937,601.978994L978.037786,596.183889L981.511480,590.924761L984.457755,585.598651L987.199148,582.047919L988.970623,579.569109L987.737956,578.262710L989.062811,573.640075L990.349651,569.050947L992.097752,552.335886L997.454842,491.171261L996.055272,463.771683L1000.000000,459.886197Z "/></g><g fill="#000" font-family="Arial" font-size="12px" id="mylayer-label" stroke="none"><text text-anchor="middle" y="445.329485101"><tspan dy="0" x="547.625533016"><![CDATA[N]]></tspan></text></g></svg>