<?xml version="1.0" encoding="utf-8"?><!DOCTYPE svg  PUBLIC '-//W3C//DTD SVG 1.1//EN'  'http://www.w3.org/Graphics/SVG/1.1/DTD/svg11.dtd'><svg enable_background="new 0 0 1000 1001" height="1001px" pretty_print="False" style="stroke-linejoin: round; stroke:#000; fill: none;" version="1.1" viewBox="0 0 1000 1001" width="1000px" xmlns="http://www.w3.org/2000/svg" xmlns:xlink="http://www.w3.org/1999/xlink"><defs><style type="text/css"><![CDATA[path { fill-rule: evenodd; }]]></style></defs><metadata><views><view h="1001" padding="0" w="1000"><proj flip="auto" id="robinson" lon0="-74.8991279039"/><bbox h="0.58" w="0.64" x="-1022.24" y="-673.58"/></view></views></metadata><g class="" id="mylayer"><path d="M1000.000000,242.979568L993.484978,240.320562L987.068518,238.022977L982.683741,235.931920L981.340088,235.286532L979.843206,234.589514L978.465290,233.918312L977.578250,233.505264L975.624760,232.575908L974.750051,231.853075L973.709429,230.510673L973.100402,229.142456L972.728957,226.948148L969.269641,227.851686L966.368213,228.393809L963.040194,229.013379L960.263898,229.426425L944.753541,229.323164L948.172221,216.854371L946.837012,217.060892L945.235777,217.035077L942.581192,216.518773L939.451163,215.357089L922.210745,207.122065L906.149646,199.584085L897.478445,196.305590L895.750592,195.737663L889.265345,193.930622L861.390268,185.644074L838.584866,179.087147L805.379066,169.432505L797.685474,166.954318L790.726112,164.295433L786.157184,162.049582L783.637523,160.629793L781.895163,159.364891L780.661006,158.099989L778.747793,156.163918L772.286692,147.387090L770.533361,144.805678L762.187003,133.395888L760.772763,131.692170L759.759664,130.194965L753.946895,122.863843L746.333823,113.777427L743.462588,110.912118L742.830908,110.292593L739.912578,108.253323L735.775391,105.981734L726.856039,102.212968L716.104973,98.005384L712.792675,96.817970L707.595597,94.752903L704.392273,93.488051L689.428952,87.654255L687.691209,86.983112L673.411242,81.536536L637.828953,67.984707L616.219060,59.982726L604.603231,55.697810L592.627465,51.412905L588.169940,50.096460L583.805900,49.089768L582.227100,48.857454L577.822094,48.521891L574.797227,48.444453L571.134714,48.780017L566.734879,49.373707L561.492538,50.561087L557.813328,51.490342L521.969221,61.608931L510.253458,64.938787L502.506469,67.158694L501.671362,67.391010L498.498436,68.191210L472.911529,75.444652L466.914446,77.148313L464.518092,77.767826L460.845747,78.877788L450.575330,81.717228L437.793379,85.408508L435.360868,85.873145L432.606947,86.079650L429.892792,85.821519L428.217404,85.356881L425.217821,84.117850L427.977252,80.245881L430.006934,77.148313L423.132377,79.084292L410.475562,82.646500L409.636485,84.918057L364.188565,136.958212L305.334442,191.374953L260.187894,210.297320L236.980659,213.808179L215.370833,217.086707L205.748879,218.532360L168.563074,236.241706L160.357067,244.115455L137.777719,265.826544L115.823479,315.548843L115.093296,316.865497L109.082451,327.398769L93.718188,354.403491L87.538835,365.272628L80.024832,378.103981L79.380567,379.214143L78.752480,380.272670L78.161746,381.279563L77.525572,382.363909L76.889398,383.448256L43.872565,439.835275L31.286275,468.726618L22.416306,483.185388L22.824914,488.168529L23.099636,491.550877L21.812437,500.122964L20.971279,505.648369L21.040566,506.035665L23.712698,525.090712L27.041255,540.427860L27.681502,543.319729L28.785324,546.624728L31.729534,555.481125L33.661216,557.495123L39.095514,563.201463L40.661433,564.828161L53.311670,572.445259L61.340770,575.208080L67.079315,577.170460L71.840695,582.050600L79.050182,588.918968L79.762984,593.540932L84.092487,621.376268L86.384941,636.172050L75.757922,691.560574L71.138556,715.653222L69.555354,723.890768L68.001453,732.102531L64.611682,749.765706L63.625451,754.878766L61.200916,767.429070L59.359018,777.035540L58.239357,782.845932L39.873210,837.877811L31.601817,862.618220L5.328782,935.756956L0.000000,950.555547L40.186926,942.936710L74.918603,933.665019L78.450860,932.528660L104.776402,923.928509L137.213626,912.513363L141.064648,911.170410L192.931056,893.634641L210.715621,887.152393L226.425661,882.968645L241.049989,877.855190L241.492771,877.726062L261.419075,871.708734L260.483663,808.773441L260.400328,804.099229L259.644150,784.317901L259.151324,762.884093L252.957835,671.909702L274.092362,665.686544L304.853256,656.313117L353.580848,641.026542L372.902913,635.113360L414.202835,622.176735L491.792826,597.491559L520.910419,588.428370L528.420614,585.949557L541.822341,581.224332L569.992886,570.586168L585.207220,565.008905L602.338125,558.450482L618.332093,552.615056L622.499877,550.936729L623.009251,550.730166L624.323669,549.981374L625.688522,549.206763L626.179792,548.922739L628.799739,547.115314L630.895281,545.359532L640.376561,536.787211L646.326643,531.106782L698.957343,482.720640L735.344905,448.949291L749.832525,435.007191L755.918244,428.759103L760.392362,424.344145L772.463337,411.357526L785.567712,397.235015L792.625621,389.437995L802.165697,379.394867L808.934522,372.656453L832.658429,349.575655L849.934663,332.613796L854.438925,328.508897L858.885053,323.913488L890.076233,293.759657L891.598207,291.875060L892.175738,290.842406L892.846450,289.241792L914.415277,279.534880L922.894420,275.585009L932.421169,271.738411L935.052333,271.247906L937.658080,271.041378L939.544624,271.170458L942.265863,271.609331L944.805373,272.357997L950.925434,276.075515L955.012673,278.373152L963.901749,283.458944L965.274320,281.780889L970.713018,275.301031L976.118231,269.130991L987.685241,256.403742L990.002268,253.873793L990.814652,252.970241L991.648212,252.066689L1000.000000,242.979568Z "/></g><g fill="#000" font-family="Arial" font-size="12px" id="mylayer-label" stroke="none"><text text-anchor="middle" y="412.318461708"><tspan dy="0" x="412.534471081"><![CDATA[N]]></tspan></text></g></svg>