<?xml version="1.0" encoding="utf-8"?><!DOCTYPE svg  PUBLIC '-//W3C//DTD SVG 1.1//EN'  'http://www.w3.org/Graphics/SVG/1.1/DTD/svg11.dtd'><svg enable_background="new 0 0 1000 1001" height="1001px" pretty_print="False" style="stroke-linejoin: round; stroke:#000; fill: none;" version="1.1" viewBox="0 0 1000 1001" width="1000px" xmlns="http://www.w3.org/2000/svg" xmlns:xlink="http://www.w3.org/1999/xlink"><defs><style type="text/css"><![CDATA[path { fill-rule: evenodd; }]]></style></defs><metadata><views><view h="1001" padding="0" w="1000"><proj flip="auto" id="robinson" lon0="-88.3749455101"/><bbox h="0.61" w="0.58" x="-1246.57" y="-544.12"/></view></views></metadata><g class="" id="mylayer"><path d="M514.438996,999.000000L523.107477,966.623599L546.202031,862.289684L549.754641,845.811445L558.112636,815.449455L762.067389,815.145834L819.768872,603.023192L845.002580,502.439226L853.599936,469.315840L860.167151,444.721649L879.001970,370.966292L900.374191,290.944383L910.011532,253.734927L967.720348,34.726100L974.604007,8.722944L941.060690,8.860965L921.587854,9.109403L739.018979,7.508357L628.232825,5.217205L479.904535,4.168243L469.416516,3.975013L281.465012,0.000000L256.075815,99.844087L255.821429,100.782622L253.673298,108.622145L251.728024,115.799167L246.247068,138.682788L242.067745,150.497229L239.978106,156.404443L231.734811,186.133687L210.472809,268.199154L202.846799,295.912993L141.752207,536.197357L111.266770,652.707519L92.298998,730.656179L68.975679,822.294712L60.890557,854.478395L51.256361,891.354248L25.395993,986.800210L35.991766,986.772608L219.096216,989.063520L230.302468,990.305581L260.210871,990.802405L340.042182,993.424532L361.450076,994.031761L445.401317,998.972399L514.438996,999.000000Z "/></g><g fill="#000" font-family="Arial" font-size="12px" id="mylayer-label" stroke="none"><text text-anchor="middle" y="469.950134657"><tspan dy="0" x="491.131958074"><![CDATA[N]]></tspan></text></g></svg>