<?xml version="1.0" encoding="utf-8"?><!DOCTYPE svg  PUBLIC '-//W3C//DTD SVG 1.1//EN'  'http://www.w3.org/Graphics/SVG/1.1/DTD/svg11.dtd'><svg enable_background="new 0 0 1000 1001" height="1001px" pretty_print="False" style="stroke-linejoin: round; stroke:#000; fill: none;" version="1.1" viewBox="0 0 1000 1001" width="1000px" xmlns="http://www.w3.org/2000/svg" xmlns:xlink="http://www.w3.org/1999/xlink"><defs><style type="text/css"><![CDATA[path { fill-rule: evenodd; }]]></style></defs><metadata><views><view h="1001" padding="0" w="1000"><proj flip="auto" id="robinson" lon0="-75.4815472571"/><bbox h="0.39" w="0.52" x="-1021.4" y="-700.26"/></view></views></metadata><g class="" id="mylayer"><path d="M1000.000000,124.282309L627.232051,129.639791L593.168017,130.109745L451.781473,132.177547L359.773203,133.587413L326.862948,134.026038L208.960478,135.717878L188.183452,210.504222L182.357312,231.464718L159.512795,313.741278L153.195206,336.519609L147.068033,358.514772L145.111493,365.595864L143.803568,370.327043L140.204971,383.267319L132.905232,409.523997L127.896270,427.571653L116.117166,470.027855L115.203392,473.380506L57.860229,679.871984L55.861644,687.079025L32.453331,771.433779L3.186083,864.721337L0.000000,874.717691L9.817324,874.122296L47.064487,871.803391L157.355318,864.909356L209.463573,861.681699L258.285602,858.642063L263.199599,858.328699L304.533664,855.759112L339.128743,853.596900L398.891323,849.867871L792.954199,825.300243L841.034376,663.233172L957.964214,269.406959L994.504932,143.143184L1000.000000,124.282309Z "/></g><g fill="#000" font-family="Arial" font-size="12px" id="mylayer-label" stroke="none"><text text-anchor="middle" y="483.175302135"><tspan dy="0" x="498.260467345"><![CDATA[N]]></tspan></text></g></svg>