<?xml version="1.0" encoding="utf-8"?><!DOCTYPE svg  PUBLIC '-//W3C//DTD SVG 1.1//EN'  'http://www.w3.org/Graphics/SVG/1.1/DTD/svg11.dtd'><svg enable_background="new 0 0 1000 1001" height="1001px" pretty_print="False" style="stroke-linejoin: round; stroke:#000; fill: none;" version="1.1" viewBox="0 0 1000 1001" width="1000px" xmlns="http://www.w3.org/2000/svg" xmlns:xlink="http://www.w3.org/1999/xlink"><defs><style type="text/css"><![CDATA[path { fill-rule: evenodd; }]]></style></defs><metadata><views><view h="1001" padding="0" w="1000"><proj flip="auto" id="robinson" lon0="-79.8536162472"/><bbox h="0.55" w="0.43" x="-1117.5" y="-578.9"/></view></views></metadata><g class="" id="mylayer"><path d="M850.381597,0.000000L846.931051,1.611730L842.353158,4.680213L840.316479,7.252778L838.067571,10.631205L836.607742,14.908475L836.271790,17.450039L837.309810,23.927922L838.722163,28.887060L838.873298,33.474257L841.255663,36.697690L840.563019,39.425208L839.462489,40.974934L836.677500,43.175543L833.035638,46.584935L829.973075,50.521231L828.628564,56.503152L827.931247,59.540602L826.430617,64.654669L824.556007,67.196204L820.826899,68.404982L816.528967,69.241828L812.530507,71.473417L808.116989,74.696821L802.887363,79.655899L800.435717,82.538361L799.537940,85.265850L799.283611,88.179302L798.370723,90.379887L790.307208,97.043622L787.163153,99.926072L784.793229,101.134841L781.944256,101.630746L779.225922,100.948876L777.753766,99.430167L775.125168,99.089232L772.430018,100.267007L770.483212,101.816710L768.251991,103.180448L765.826186,103.335419L763.751298,102.839514L761.264116,97.384557L759.638146,95.183976L757.009601,94.161170L753.778372,93.479300L747.480371,90.906787L741.699644,92.115558L731.620916,94.843041L728.861726,94.998011L725.874154,93.975206L723.017017,94.502106L720.924491,96.020817L719.554502,99.957066L718.233647,101.661740L715.669084,102.343609L714.205101,100.793906L712.451242,94.502106L711.517706,92.301523L709.181688,92.115558L705.183205,94.347135L703.195572,96.051811L700.167080,96.547717L698.848757,95.710876L698.630914,94.006200L697.874525,92.301523L696.092164,92.642458L693.217372,95.183976L690.039417,98.779291L686.651669,102.002674L685.846137,102.529573L683.394575,104.048282L678.598773,106.093888L673.574535,107.643589L669.920077,107.984523L664.855025,109.689194L660.328466,112.075731L654.994001,115.485068L650.824047,119.049372L648.323401,122.117771L646.310016,125.186167L644.989052,128.254561L645.809440,131.663885L647.386442,134.050410L647.978350,137.645692L647.642447,140.187182L646.460205,143.410534L645.909967,143.844447L643.760306,145.580097L643.243876,145.983015L637.306784,149.051394L636.908099,149.299344L634.608092,150.632073L631.485071,152.460701L622.585922,155.870006L619.392919,158.256517L617.607951,162.502645L615.942962,168.143479L614.378420,170.870913L611.390716,171.211842L608.631590,170.003093L605.736122,168.143479L600.273668,168.143479L586.132378,171.397803L583.170459,169.693157L581.926778,167.988511L577.246482,168.329440L575.169115,169.693157L572.935321,174.280202L570.988407,177.193593L567.974870,180.261949L565.743632,181.625663L563.089313,181.966591L560.304402,182.803415L558.342462,183.826199L556.957475,185.871767L557.354866,187.576406L559.421529,189.467005L560.754958,191.512570L560.737345,193.527141L559.816344,195.076810L556.963775,196.657472L547.683314,201.709388L545.020786,202.763161L542.928342,202.918127L541.479395,202.577201L535.940284,197.804226L533.465523,197.463299L531.967519,198.672040L531.428833,200.717601L531.467063,204.467793L530.708054,206.668317L526.799252,209.922612L516.668958,215.377424L514.527457,217.082051L510.575446,221.669045L507.628493,222.536854L506.269322,221.855004L506.151990,215.191464L505.641571,212.650019L503.241508,210.759430L500.538165,211.968167L497.304342,214.509613L494.470408,216.214241L491.433673,217.422977L488.558930,219.282569L486.612064,221.514079L485.429882,224.055519L482.880328,226.627951L479.469391,227.991650L476.148358,226.968876L476.982199,221.173154L476.161630,219.809453L473.866336,220.150379L468.816230,224.427437L467.123627,224.427437L466.057040,223.900553L464.813342,222.195929L463.738595,221.700038L459.530368,222.195929L456.722208,221.855004L452.978055,220.491304L451.839218,219.654487L451.018701,217.608936L449.520781,217.453970L445.799727,219.313562L444.171214,219.654487L442.901786,219.313562L441.006479,217.453970L438.391124,210.635457L436.762661,210.294531L434.247038,210.790423L432.285085,211.813201L430.004956,211.999161L428.068798,210.976383L423.799264,205.180639L421.788439,205.025673L420.339445,205.366599L419.557181,206.389378L419.325960,211.844194L416.889388,215.253451L414.347968,217.794895L413.411883,218.135820L411.888121,220.708256L411.488175,222.226922L412.285407,223.776581L411.721061,225.822129L410.100566,228.177608L409.536130,231.586852L408.728134,233.973321L410.881954,240.109949L410.433046,241.814566L408.599235,244.201029L405.895795,246.773449L404.982950,248.292106L404.664636,249.500832L403.279647,251.546369L400.958615,253.250981L399.686733,254.769636L399.799674,256.970134L401.043385,258.674745L400.927799,261.743042L399.337535,265.834101L398.416535,267.383744L397.057239,268.747429L392.169172,272.993446L390.491571,275.565849L388.552872,277.766336L389.193905,279.811859L389.142366,284.584741L388.293597,287.126144L388.642051,289.016698L390.963006,288.675779L392.950702,285.607501L394.987266,284.398785L396.810433,284.584741L398.297783,286.630260L398.361749,289.698537L396.271224,298.221518L396.604588,298.903355L399.053683,300.607949L402.333958,301.785668L406.101476,303.645223L407.386032,305.194852L408.922318,308.418079L407.398650,310.308624L405.103338,310.649542L401.538627,309.285870L400.692316,309.285870L395.304376,309.099915L388.920840,310.649542L383.791596,312.695049L379.857163,315.949262L377.608355,319.327442L377.110492,321.899817L377.467105,324.441197L377.441358,327.168530L374.507072,331.786397L372.145232,334.327771L368.721244,342.168832L367.579946,343.873408L362.655910,344.555238L359.911776,345.237068L358.298366,346.786682L356.913421,348.832172L355.974904,352.396279L357.667476,354.441766L358.154710,355.805423L357.192938,357.509994L354.228457,359.028611L351.550771,359.555478L350.165833,361.600961L350.253203,363.801404L351.986589,365.691925L352.830494,368.915105L352.150741,374.710626L352.661246,378.615624L351.789240,380.661098L350.314546,383.047483L348.839866,384.752043L348.634648,387.479338L349.455274,390.206630L349.136999,392.097139L352.099114,392.438050L353.791734,393.801695L353.073614,395.847162L351.688698,397.892628L346.444040,400.279003L344.531064,401.115784L341.289122,404.369929L339.376136,405.888530L337.185711,407.097211L328.978936,408.460851L325.950340,410.320360L324.206370,413.047638L323.578006,416.115824L322.541637,419.369958L320.797668,422.779048L317.987058,425.661277L315.576302,427.706728L312.832151,429.070362L309.974929,429.597220L306.677051,431.115811L303.101721,433.688118L300.021817,438.274878L298.817595,441.776927L298.570455,442.520725L297.226351,445.093025L295.059237,447.479374L293.699984,448.161187L288.750258,448.161187L286.878080,448.843001L286.380304,450.733484L286.442082,455.661131L282.890074,460.774721L281.628747,463.811881L282.438940,465.020546L286.044584,466.911022L285.465216,468.429600L285.195938,470.134125L277.978868,477.479074L274.719483,482.065786L273.563087,484.607071L273.088651,486.993397L273.909363,489.720626L276.463548,492.974704L278.538598,494.834176L279.090019,496.538691L278.820756,498.243205L276.458992,500.784480L272.704172,504.038549L272.075885,507.106669L273.163591,510.670644L277.279963,516.465971L278.190450,518.170478L280.906719,521.393543L284.127800,526.011199L286.267046,529.575158L288.906602,539.616210L289.099116,544.729699L286.417448,564.656754L285.381195,567.228980L282.970552,570.637951L281.957699,575.069610L280.213876,578.478575L279.275602,582.042490L278.532071,586.815033L275.631916,592.083418L272.836626,596.174160L268.797489,600.605792L261.132867,605.657228L256.028168,608.973197L250.858126,611.173512L239.435020,615.109284L230.422600,616.999693L225.293275,617.681479L220.930976,617.495537L216.924221,617.030683L213.662395,616.658799L209.843396,617.526528L203.980913,620.408624L195.404722,627.071528L193.825189,628.590049L188.849879,631.998971L183.915327,634.571156L179.876036,636.275616L165.436778,634.912048L148.332726,636.461557L144.432162,638.320966L141.190326,641.574930L137.882227,648.392751L128.691811,657.875702L127.814035,658.774412L120.763616,661.687471L115.414054,664.569537L109.720656,668.660209L105.301371,671.418312L134.039612,852.488474L136.587946,886.265900L136.751457,888.373107L145.755470,891.874786L313.060071,956.763796L332.928149,964.107906L347.714160,969.809653L419.695316,997.636549L423.286345,999.000000L638.841127,852.271553L810.166294,740.773152L816.454944,736.465624L822.057192,683.504357L850.989138,379.979274L858.377938,361.848899L872.089484,336.652198L886.819670,293.851555L890.523970,262.734814L890.802567,261.092191L894.698629,207.722089L894.124124,196.657472L889.961237,159.093346L889.206089,152.708651L885.052166,112.385671L877.920097,79.283969L874.611798,63.507879L865.970780,45.779079L872.751860,27.430313L869.517676,7.965657L861.030791,3.967333L850.381597,0.000000Z " data-aland="5678452" data-awater="0" data-classfp="C1" data-funcstat="A" data-geoid="4567435" data-intptlat="+34.5098909" data-intptlon="-079.8538924" data-lsad="43" data-mtfcc="G4110" data-name="Society Hill" data-namelsad="Society Hill town" data-pcicbsa="N" data-pcinecta="N" data-placefp="67435" data-placens="02407364" data-statefp="45"/></g><g fill="#000" font-family="Arial" font-size="12px" id="mylayer-label" stroke="none"><text text-anchor="middle" y="544.903858224"><tspan dy="0" x="538.018215994"><![CDATA[Society Hill]]></tspan></text></g></svg>