<?xml version="1.0" encoding="utf-8"?><!DOCTYPE svg  PUBLIC '-//W3C//DTD SVG 1.1//EN'  'http://www.w3.org/Graphics/SVG/1.1/DTD/svg11.dtd'><svg enable_background="new 0 0 1000 1001" height="1001px" pretty_print="False" style="stroke-linejoin: round; stroke:#000; fill: none;" version="1.1" viewBox="0 0 1000 1001" width="1000px" xmlns="http://www.w3.org/2000/svg" xmlns:xlink="http://www.w3.org/1999/xlink"><defs><style type="text/css"><![CDATA[path { fill-rule: evenodd; }]]></style></defs><metadata><views><view h="1001" padding="0" w="1000"><proj flip="auto" id="robinson" lon0="-145.280192252"/><bbox h="2.17" w="5.75" x="-1682.4" y="-1030.13"/></view></views></metadata><g class="" id="mylayer"><path d="M1000.000000,360.299864L997.968643,359.024650L995.935317,357.749440L993.130968,355.988820L992.040012,355.303992L991.164712,354.752981L989.196485,353.517146L974.703732,344.415143L968.169641,340.311584L960.213069,335.313393L961.688409,330.438589L966.122688,315.806743L967.599955,310.929606L957.793400,310.953218L912.175982,311.066029L829.626728,311.265416L745.903510,311.470049L691.655161,311.601225L691.070147,311.601225L690.480210,311.603849L689.817693,311.601225L689.154274,311.601225L668.179364,311.580237L647.209380,311.556625L645.301550,311.556625L643.396631,311.554002L638.249905,311.548755L630.346770,311.538261L617.293999,311.525143L616.205286,311.522520L615.113661,311.522520L569.486718,311.475296L523.864716,311.425450L481.562035,311.380850L476.598258,311.375603L429.329807,311.325756L422.638933,311.315262L419.706726,311.312639L415.950070,311.304768L399.182681,311.278533L390.841306,311.268039L382.415296,311.252298L381.821134,311.249674L381.222048,311.249674L380.500585,313.400960L378.724573,315.888073L375.609974,318.356841L368.991336,322.447007L366.904981,324.259920L366.300062,325.256894L366.154403,326.093831L367.324668,328.625643L369.129791,329.659362L370.332118,331.690079L368.521685,334.681081L365.865520,336.987319L361.189886,340.101685L357.697268,342.898604L354.927527,345.540745L354.401687,346.705707L355.026137,348.056964L356.942326,348.757520L364.168839,348.867720L364.323740,349.206192L365.930160,349.229806L366.889733,349.578774L367.278466,350.423644L366.449529,352.089776L363.717691,354.225586L360.825108,356.028178L352.869365,360.097823L350.400268,362.241557L351.022999,363.592878L352.250307,363.947108L356.990905,363.850023L367.518301,361.328435L372.066343,361.399281L373.604521,362.427855L374.111815,364.115040L371.913518,366.261424L369.705450,367.232287L365.320067,368.675467L353.491191,370.672313L349.831510,371.958069L348.534943,372.611444L345.501095,375.245951L346.008518,376.933202L347.580551,377.460633L359.637604,377.484250L360.077983,377.484250L361.727019,378.179621L362.923871,380.213262L360.655694,383.364775L358.223598,385.004833L355.634417,386.306389L349.313538,388.723204L344.781034,391.003580L342.315366,393.144892L341.417050,395.816302L343.004462,398.692423L347.895852,398.936474L350.530481,398.304040L353.272719,397.340958L358.372823,394.567192L361.115041,393.604121L363.555154,393.139643L365.698092,393.171133L367.344472,393.869162L367.731753,394.714146L367.396170,395.713959L363.485417,399.345851L358.119781,402.114409L352.262541,405.546928L346.439663,408.475620L342.971613,409.596192L339.495244,409.541082L337.847794,408.845644L337.226231,407.494138L338.045187,404.654680L337.158040,403.297942L332.342675,403.224463L328.685000,404.510346L322.784826,407.271074L320.085106,408.906003L318.378900,410.388731L316.936369,411.876714L316.264334,413.879072L316.885919,415.230604L320.422593,418.306347L323.180513,419.692015L327.657843,420.768011L329.039763,421.458225L329.927254,422.815038L329.701415,423.484261L326.668555,426.119176L323.700464,427.751574L318.938829,429.523077L313.944850,430.788067L306.913569,430.512498L305.613564,429.987606L303.609780,427.945783L301.807829,426.909130L298.064634,426.851392L296.614942,427.166325L293.872564,428.129494L291.742640,429.271129L289.274346,431.415315L288.255785,433.244575L288.801454,434.425596L291.216901,435.638114L293.816661,436.097403L294.621940,436.698416L297.913314,437.504142L299.417682,439.624760L299.158557,440.795305L296.959162,442.942190L293.725348,444.569423L290.067609,445.855467L286.446095,446.637595L284.041019,446.600851L283.126523,446.921051L279.995570,447.041782L268.309855,447.028659L266.058037,447.330488L261.944922,448.776644L258.451795,451.574489L257.856449,453.747691L258.790042,455.773926L260.248481,456.634817L262.351707,457.170251L263.048081,458.692566L262.031899,460.521979L259.108706,462.826476L253.934518,465.430209L243.422153,469.128491L241.673338,469.939546L240.188247,470.755853L237.344197,473.228409L236.550885,474.391200L237.638307,476.756165L243.145729,478.352067L244.681644,479.381007L244.957257,480.559569L242.681057,482.538721L239.940618,483.502053L237.499101,483.969283L231.584214,484.381391L228.462723,485.675465L227.324603,486.665055L227.722517,488.683618L228.256943,488.691493L233.091993,492.290288L233.833049,494.482134L233.160334,496.484994L232.022326,497.474617L229.245870,498.941994L224.674565,500.551128L220.142158,501.653639L216.365871,502.099895L213.468997,502.727278L209.355782,504.173678L206.770757,505.475706L204.461614,507.956398L204.011556,509.292567L204.949656,512.495194L204.468637,514.332781L203.563422,515.829110L201.096039,517.973859L200.602828,518.638026L200.725354,519.478080L198.605956,521.793490L198.076849,522.961703L196.938939,523.951405L197.558103,525.303390L198.248183,525.649919L201.186498,525.694548L202.633527,525.382146L206.746706,523.935653L208.874331,522.793690L211.162454,521.987755L214.097817,522.035008L215.217664,523.898901L214.543495,525.901940L214.646329,529.595651L212.102938,531.569848L208.526346,533.024250L198.122535,535.213741L194.926796,536.337371L193.633359,536.988448L189.837040,540.288482L189.007612,541.364872L188.863461,542.790439L188.294018,543.284007L187.992403,543.782826L189.110679,545.646841L195.741358,546.032773L197.010001,546.106284L197.968959,546.455460L198.355603,547.300836L197.862587,547.965061L194.371111,550.763749L189.879098,552.541165L186.260941,553.323546L178.714303,554.213572L173.421809,555.977879L171.604556,557.794705L172.224270,559.146829L178.414992,561.089696L180.635641,562.468089L181.562972,564.497618L181.461780,566.004677L178.059961,571.324071L178.913110,573.182991L182.647508,573.243380L184.552784,572.768146L190.110995,571.009001L194.523539,569.063449L198.634602,567.616765L200.233459,567.643020L200.620377,568.488450L200.286222,569.488791L198.904190,570.893475L196.300418,572.951938L193.414394,574.753104L190.756632,577.063651L187.868610,578.864840L184.672943,579.988618L181.511937,580.610899L171.751889,581.298822L168.668203,582.089149L165.014294,583.375730L162.619028,584.512652L161.100710,585.833377L159.972343,587.996963L156.558777,590.964038L153.403933,592.762676L147.277340,595.018209L138.178930,597.730645L131.331092,600.141135L126.920369,602.086870L125.024184,603.735895L125.187297,605.248385L127.125103,606.774011L127.778565,607.293933L129.350267,608.530721L129.147721,609.229207L129.092258,609.420896L127.582875,610.662944L127.400973,610.741721L125.028201,611.765824L120.897743,612.944858L118.669536,614.252568L117.448404,615.699457L118.036249,616.552888L120.316442,616.912643L123.453974,616.736705L127.364975,616.623789L130.038733,616.815483L130.824396,618.020795L129.175474,619.559610L126.417090,621.329519L123.566541,622.479702L120.939014,623.354158L119.141242,623.950261L115.251785,624.535861L111.782656,624.580503L108.382399,624.005407L106.434066,623.180842L106.413916,622.185590L106.626859,621.544849L105.914667,621.066920L102.176662,621.009149L100.808805,621.489704L97.304136,621.938747L94.562585,622.905113L92.435159,624.047423L90.349692,625.861998L89.744975,626.859887L88.780436,630.536347L85.936422,633.010102L84.264317,633.992256L82.438244,634.635647L79.657558,634.927143L76.719996,634.882500L76.404615,633.031110L77.801397,630.869856L78.172751,629.365127L77.785461,628.519541L76.676087,627.831519L75.340748,627.810511L64.496055,631.337295L61.112621,632.626695L58.985118,633.769039L57.277461,635.255405L57.027509,637.600516L58.995704,641.324366L59.915831,642.177863L61.826019,642.879046L62.136895,643.553969L63.434917,644.079201L66.086926,644.176369L68.713666,644.270911L70.260900,644.520397L70.725819,645.534100L70.613903,645.867625L68.073341,647.842517L65.219832,649.142486L58.372738,651.555978L52.553922,653.310300L46.119924,654.891299L38.894844,657.633117L36.866847,659.397977L36.620174,659.613332L36.172567,660.947489L37.216913,663.831178L36.813132,665.827189L35.994087,666.893484L34.778511,667.912508L33.286341,668.815975L31.051247,669.259831L29.221148,669.230941L27.753242,669.125886L27.409883,669.146897L25.557528,669.259831L23.381898,669.729950L20.932863,670.281488L18.736664,671.006368L16.176620,671.623568L15.222895,671.852063L11.609154,672.666244L7.383174,674.052982L6.870810,674.221072L3.604855,675.602563L1.614274,677.057601L0.465895,678.481128L0.002652,679.053692L0.000000,680.795028L0.389164,682.709721L1.209135,684.406426L1.828729,685.764322L3.002502,686.678344L3.561143,686.893717L5.205319,687.526706L6.902132,688.070394L8.701695,687.776224L9.087602,687.713188L10.502151,687.479428L14.677997,686.793910L15.647574,686.631067L17.849368,686.255477L18.151159,686.202947L20.414255,685.801093L22.032621,685.483287L22.119424,685.464901L23.946541,685.060421L24.888408,684.837170L25.837665,684.598159L26.805053,684.335511L27.772000,684.062356L28.737387,683.776070L29.704125,683.474025L30.677357,683.158848L32.654264,682.486471L33.632885,682.131897L34.605024,681.766818L35.562849,681.396487L36.461836,681.039289L36.511283,681.018277L38.386239,680.243472L39.302695,679.846878L40.205513,679.437153L41.085745,679.016921L41.989928,678.567800L42.831013,678.150196L43.718870,677.695823L43.890267,677.606525L45.509365,676.755562L49.666553,674.525735L51.593998,673.490932L57.104684,670.533620L57.990099,670.045115L59.262828,669.359633L59.766730,669.086491L60.654157,668.597987L62.643137,667.518555L65.094623,666.186998L69.528352,663.807542L71.564727,662.754388L72.178481,662.436604L73.951925,661.546286L74.850717,661.112946L75.753973,660.690112L76.666618,660.275158L77.576792,659.873335L78.497470,659.482018L79.420601,659.101206L81.279597,658.355342L81.668887,658.205645L82.211656,657.995543L84.072845,657.302206L85.960859,656.624630L88.377967,655.771095L87.986105,658.575950L87.474569,662.221247L84.763358,681.572460L83.862862,688.020490L88.343953,687.749959L91.847183,687.064440L93.705800,686.455091L98.279016,684.745243L99.888504,683.910021L102.083818,682.431315L104.664154,680.154173L105.436952,679.623630L105.856722,679.242796L106.466525,678.523151L106.868587,677.651174L107.479828,676.703033L107.895588,676.298564L108.296805,675.907228L109.845600,674.730595L113.757971,672.603210L114.659046,671.844184L116.081599,670.896060L116.982951,670.024104L117.217533,669.643280L117.241480,669.112754L118.858444,667.140361L120.200117,666.039923L122.841579,663.537031L124.421925,661.147088L124.762395,661.488508L125.102867,661.829927L123.129348,664.180479L122.812125,664.750392L119.855479,667.368853L119.014251,668.808096L119.157286,669.073359L119.469314,669.073359L120.346724,668.731932L124.441107,666.720145L126.426767,665.997901L127.639873,665.238890L128.772636,664.101690L128.886155,662.925099L129.185166,662.089932L131.195360,660.611323L132.454424,659.245652L132.581259,658.791305L134.772605,658.221402L135.150783,657.879986L135.236609,657.575339L136.708914,655.679176L137.718981,654.087668L139.350167,653.289290L140.168654,652.719397L149.875213,644.042435L150.776402,643.236203L152.073929,642.401086L162.889660,636.290088L165.988031,634.165578L167.169886,633.404014L168.814237,632.343079L170.030926,631.355678L171.725435,630.218594L173.881604,629.002733L182.076451,624.979656L187.199149,622.096307L190.043346,620.993393L195.411285,619.018661L197.563640,618.338536L198.773360,617.955147L200.257579,617.445711L205.938084,615.486756L207.231429,615.105995L208.416584,614.664839L211.230710,613.614468L212.017457,613.320365L217.320717,611.799961L219.777634,611.353556L221.073972,611.117225L223.804322,610.736469L226.807908,610.392477L229.433601,610.276937L232.037316,610.237549L233.704842,610.311074L234.951159,610.539527L236.160281,610.576290L237.325147,610.878268L237.797898,610.873016L239.167850,610.857261L240.428002,610.838880L241.573029,610.762728L242.805636,610.494887L243.850478,610.116758L246.825629,608.877338L246.663747,609.145178L246.503878,609.413019L251.196265,608.738166L246.337778,611.479600L245.794092,611.857731L245.711742,611.933882L245.854979,612.086185L246.705895,612.388164L247.144653,612.388164L249.433213,612.464316L250.700326,613.068277L251.400914,614.129149L251.743761,614.433757L251.998775,614.659587L252.580488,614.924806L253.120356,614.888043L255.068259,616.174752L257.007455,618.259758L257.505129,618.488216L259.870481,618.522354L262.422119,618.559117L263.920143,618.333285L265.549057,617.989284L267.952992,617.001925L269.645441,616.206264L271.983489,615.447367L273.445697,615.255674L278.610148,614.990454L280.382300,614.798761L282.611693,614.759372L284.610561,614.646457L287.480988,614.391742L289.320655,614.226309L293.745325,613.049895L295.897862,612.403920L298.544328,611.873486L299.984550,611.757946L303.115917,611.056829L303.719107,610.922908L307.414950,609.670356L309.713024,608.609498L315.333725,606.634840L316.336018,606.180565L317.491713,605.306154L320.083525,603.980099L323.594150,602.727573L325.849157,602.270678L335.946190,599.805030L337.412062,599.271991L340.188671,598.513133L341.645856,598.324075L342.888469,598.368714L344.831438,598.436985L347.603990,598.132392L348.958625,597.754277L350.986536,596.995423L353.122197,595.855832L358.345455,593.960023L359.387852,593.694821L360.413215,593.503140L360.988536,593.568784L363.672745,593.198552L364.708866,592.951731L366.685476,592.744296L368.166871,592.366187L371.113525,591.226612L372.554478,590.772359L374.640971,590.354866L379.228420,589.708935L379.979076,589.708935L380.114565,590.656826L381.089081,591.074319L382.087278,591.074319L382.463614,591.074319L383.649525,590.848505L387.803983,589.861228L388.635095,589.955754L389.468220,590.050281L388.235235,590.543919L386.184920,591.604720L385.825631,591.985453L386.344962,592.250654L387.653660,592.479095L390.208181,592.518481L392.564360,592.555242L396.395975,592.479095L401.374786,592.213894L406.086695,591.680866L410.593983,590.543919L412.737940,590.583305L416.323671,590.165813L420.526137,590.318106L422.751626,590.620066L423.498598,590.961412L426.180354,590.964038L427.870503,590.622692L429.960590,589.863854L431.754238,588.876579L431.885966,588.803059L433.663853,588.157131L435.769014,587.779028L437.458886,587.550591L441.378936,586.831146L443.212343,586.642094L446.772383,586.642094L448.661083,587.022822L451.244627,587.059582L454.351351,586.453044L455.193021,586.392652L455.370568,586.379524L457.532516,586.797011L458.629629,587.327405L459.626667,587.442936L461.175598,587.427182L465.793851,588.083611L466.182958,587.933945L467.344239,587.484948L467.734239,587.332656L473.899761,584.943266L481.014027,581.364464L483.448082,579.726053L490.638973,576.317973L493.703456,575.120690L495.702835,574.338257L503.632368,571.100896L515.982514,566.831724L525.498998,563.295127L529.609383,561.851093L533.718855,560.409691L538.285362,558.808141L542.966424,556.870538L553.315802,551.669521L560.425364,548.847197L566.835874,543.956100L567.906883,543.110733L571.594940,540.196595L574.023847,538.437623L575.502537,537.860053L576.986144,537.279857L579.115202,536.140473L583.645714,532.685589L589.239494,529.251743L591.825586,527.952247L594.111633,527.148924L596.202360,525.337518L596.924922,524.003909L599.626533,521.192322L600.046165,520.357514L602.899875,517.884604L608.881643,514.033517L609.253772,513.792005L611.347515,511.978047L612.144749,510.815124L611.420827,508.615294L613.854898,505.798589L623.674815,500.587878L626.339500,499.459121L634.107700,496.734368L637.382238,495.781498L643.361578,494.371885L645.875147,494.080513L648.934485,493.899390L654.634690,493.560769L657.940180,493.613268L659.715803,494.051638L663.580613,491.775797L667.450344,489.497347L667.580717,489.415974L671.687074,487.864642L679.841058,484.922119L689.744804,484.591382L692.221932,484.801374L695.953334,484.866996L701.895358,486.318567L706.694761,486.402564L709.739741,486.121699L713.204321,485.006116L714.955648,484.195023L717.813084,481.722385L718.801432,480.394202L718.116913,478.869161L717.811826,478.189326L718.801221,474.506691L720.780129,471.850390L723.253313,469.708566L723.329865,468.700654L724.320375,467.372524L730.337750,461.926198L735.135218,458.479966L741.492843,454.388106L749.302802,449.983966L755.014939,447.393478L758.938355,446.117926L762.822394,445.346298L766.822965,445.417162L769.336305,446.892180L770.384115,448.047004L771.432848,449.199206L772.234840,450.390783L773.945837,451.264783L775.585253,451.965559L781.525465,452.241146L782.516773,452.088917L790.018149,449.364557L792.533342,447.894777L797.295174,443.774178L797.523686,443.104913L799.350640,441.288720L799.581178,440.619461L802.017135,437.803337L809.523007,431.543914L818.093582,426.483972L826.133377,422.589339L830.133264,420.306119L832.191591,418.996556L835.389485,416.700239L847.925451,409.858622L855.276666,406.796080L861.373886,403.877901L892.405962,390.607334L903.291091,387.859866L913.219985,384.750296L927.827080,379.843270L929.124083,379.284346L933.812019,377.258582L941.816770,373.870967L950.772151,370.837624L954.619446,369.394435L963.459908,366.697000L974.626975,362.692871L987.515968,362.427855L994.961822,361.603946L998.744243,360.444178L1000.000000,360.299864Z " data-aland="157278253" data-awater="0" data-classfp="U1" data-funcstat="S" data-geoid="0227420" data-intptlat="+62.3607816" data-intptlon="-145.2656691" data-lsad="57" data-mtfcc="G4210" data-name="Gakona" data-namelsad="Gakona CDP" data-pcicbsa="N" data-pcinecta="N" data-placefp="27420" data-placens="02418593" data-statefp="02"/></g><g fill="#000" font-family="Arial" font-size="12px" id="mylayer-label" stroke="none"><text text-anchor="middle" y="442.629276459"><tspan dy="0" x="513.169553904"><![CDATA[Gakona]]></tspan></text></g></svg>