<?xml version="1.0" encoding="utf-8"?><!DOCTYPE svg  PUBLIC '-//W3C//DTD SVG 1.1//EN'  'http://www.w3.org/Graphics/SVG/1.1/DTD/svg11.dtd'><svg enable_background="new 0 0 1000 1001" height="1001px" pretty_print="False" style="stroke-linejoin: round; stroke:#000; fill: none;" version="1.1" viewBox="0 0 1000 1001" width="1000px" xmlns="http://www.w3.org/2000/svg" xmlns:xlink="http://www.w3.org/1999/xlink"><defs><style type="text/css"><![CDATA[path { fill-rule: evenodd; }]]></style></defs><metadata><views><view h="1001" padding="0" w="1000"><proj flip="auto" id="robinson" lon0="-75.6189300283"/><bbox h="0.21" w="0.27" x="-1039.71" y="-647.88"/></view></views></metadata><g class="" id="mylayer"><path d="M1000.000000,187.429759L864.894039,155.182592L800.341362,139.760084L781.358901,132.176302L724.378566,109.361272L705.363082,101.713792L658.107464,141.671964L516.223197,261.420345L468.934802,301.315669L432.496757,332.671254L323.164494,426.802557L286.693533,458.094954L293.456521,460.962900L313.782519,469.439278L320.564028,472.243496L311.216574,484.862489L283.226002,522.719599L223.351678,613.093097L195.568302,656.113317L171.211787,681.989306L48.142288,831.829666L0.000000,886.960989L0.000000,886.960989L13.724050,895.756545L15.126862,895.374129L22.089869,892.569748L34.028657,883.837932L52.487096,872.939110L64.166276,865.991916L96.792524,852.033813L103.552030,849.930540L139.476475,843.302045L150.845680,841.517452L157.337921,841.581187L161.382432,842.600955L167.137921,845.915201L177.409394,851.651400L169.040409,880.842347L169.091468,881.734649L206.583523,881.989592L226.285496,882.117064L251.456524,883.519252L284.625761,895.820281L313.498767,897.286208L314.635567,897.286208L335.097756,892.123597L352.070096,878.866537L379.831379,854.073352L382.147000,851.970078L397.790218,828.515426L419.416015,778.929483L427.141459,751.778455L435.000368,723.990184L438.681774,716.469523L453.448318,686.068288L459.754192,673.066541L492.199073,644.067630L525.283136,624.437664L551.739153,608.950423L576.553673,607.484554L606.768776,625.329934L608.594509,627.050741L660.239257,675.743369L692.895754,723.990184L731.901250,761.402400L737.190531,766.501183L772.995010,806.399289L782.290283,781.670086L784.471722,775.933942L791.585666,756.940967L818.855014,684.347467L830.299224,653.818899L853.243018,593.463215L922.148510,412.335446L945.061761,351.918043L973.886031,265.626551L1000.000000,187.429759Z "/></g><g fill="#000" font-family="Arial" font-size="12px" id="mylayer-label" stroke="none"><text text-anchor="middle" y="493.89244388"><tspan dy="0" x="570.255687914"><![CDATA[N]]></tspan></text></g></svg>