<?xml version="1.0" encoding="utf-8"?><!DOCTYPE svg  PUBLIC '-//W3C//DTD SVG 1.1//EN'  'http://www.w3.org/Graphics/SVG/1.1/DTD/svg11.dtd'><svg enable_background="new 0 0 1000 1001" height="1001px" pretty_print="False" style="stroke-linejoin: round; stroke:#000; fill: none;" version="1.1" viewBox="0 0 1000 1001" width="1000px" xmlns="http://www.w3.org/2000/svg" xmlns:xlink="http://www.w3.org/1999/xlink"><defs><style type="text/css"><![CDATA[path { fill-rule: evenodd; }]]></style></defs><metadata><views><view h="1001" padding="0" w="1000"><proj flip="auto" id="robinson" lon0="-75.4847963007"/><bbox h="0.34" w="0.25" x="-1028.56" y="-678.23"/></view></views></metadata><g class="" id="mylayer"><path d="M463.811617,0.000000L445.246987,12.120376L437.064353,17.447490L430.649638,21.650540L426.186206,24.534030L411.325091,34.259721L404.885867,38.413918L397.143497,43.496708L373.827168,58.647377L366.060290,63.681323L365.451543,60.944419L363.672392,52.587101L363.079347,49.801333L351.164900,54.981886L315.316622,70.474719L303.377649,75.606430L274.789197,88.020315L234.069542,105.663749L193.419475,122.965155L158.842418,145.642836L156.171404,147.451192L148.180922,152.680768L145.501088,154.391378L138.230329,159.132218L136.221196,160.256335L132.441168,163.139943L128.468954,166.121302L145.016649,315.827991L146.137513,326.238788L160.864018,472.384310L176.782490,615.847620L183.382244,674.847740L187.366966,713.806953L192.033855,759.414728L202.887199,862.071117L207.607532,903.134538L217.070491,992.595849L217.871279,999.000000L250.047389,969.374791L281.025536,940.727557L282.381450,935.496774L283.262217,932.123656L285.375511,924.155291L286.574667,919.413389L287.260479,916.773570L336.031811,892.819751L351.376419,885.340328L363.597181,879.327470L376.179913,860.653460L401.382982,823.941240L454.178927,741.816800L507.925130,657.739066L509.840939,644.247716L514.746176,608.906496L527.013087,521.801485L529.049846,506.306607L545.551026,492.718096L604.798524,443.887887L624.550019,427.562427L651.224616,453.810285L666.649401,469.011651L716.075441,517.451181L726.569779,527.471553L728.896983,529.866671L731.337956,532.408430L757.519967,559.194778L758.517358,560.221267L768.821761,570.583928L776.044771,577.769377L843.915306,548.294469L845.163466,541.646764L846.426479,535.830032L848.297917,526.738354L851.163850,512.416566L870.871489,414.902918L871.531046,411.970219L858.057023,400.337208L721.698331,283.178373L661.315979,232.445005L618.579617,181.223639L577.443790,135.916829L560.142839,115.047552L542.307771,92.712189L478.158237,17.545235L463.811617,0.000000Z "/></g><g fill="#000" font-family="Arial" font-size="12px" id="mylayer-label" stroke="none"><text text-anchor="middle" y="423.619460455"><tspan dy="0" x="415.585103531"><![CDATA[N]]></tspan></text></g></svg>