<?xml version="1.0" encoding="utf-8"?><!DOCTYPE svg  PUBLIC '-//W3C//DTD SVG 1.1//EN'  'http://www.w3.org/Graphics/SVG/1.1/DTD/svg11.dtd'><svg enable_background="new 0 0 1000 1001" height="1001px" pretty_print="False" style="stroke-linejoin: round; stroke:#000; fill: none;" version="1.1" viewBox="0 0 1000 1001" width="1000px" xmlns="http://www.w3.org/2000/svg" xmlns:xlink="http://www.w3.org/1999/xlink"><defs><style type="text/css"><![CDATA[path { fill-rule: evenodd; }]]></style></defs><metadata><views><view h="1001" padding="0" w="1000"><proj flip="auto" id="robinson" lon0="-75.9084652647"/><bbox h="0.47" w="0.27" x="-1029.55" y="-692.91"/></view></views></metadata><g class="" id="mylayer"><path d="M599.933424,0.000000L590.223874,5.451717L553.325428,26.140363L512.861406,48.821135L538.595184,103.758863L540.654370,108.197256L527.865813,115.571291L449.625497,160.514810L445.522992,151.847584L440.505302,154.713358L391.740955,182.357717L376.267198,172.327437L373.692374,170.614953L345.113302,152.022326L329.628020,142.027084L298.116913,121.582364L285.928671,113.474407L277.204014,122.176483L275.531703,123.958838L263.809575,136.225664L252.532704,149.401193L214.197996,195.498478L231.936604,212.099247L259.548391,237.926711L298.109156,273.994624L300.720207,276.371206L305.812882,273.540278L313.378997,269.381265L314.186264,270.674403L343.385988,316.563648L357.892148,339.316278L371.195049,360.321531L392.986392,394.573307L391.372478,395.412130L389.497065,396.425709L386.709639,397.998504L381.826030,400.724683L377.002192,404.045033L373.059161,407.155680L368.622061,410.615841L363.940593,414.285712L363.027443,415.019687L346.221132,428.126406L340.609388,432.495324L333.991239,437.703081L324.896280,444.763275L314.165731,453.326402L307.547588,458.534191L308.608533,460.875952L311.826781,467.796388L312.870608,470.103203L314.279512,473.213911L315.563175,476.010055L318.948932,482.091677L320.544366,484.992684L322.454628,488.417973L322.608806,488.732541L325.892295,496.317123L328.777598,502.853158L311.656842,511.835860L311.865320,522.531247L301.804653,527.739144L295.493663,531.094572L263.937561,548.046525L265.628135,555.037046L266.182190,557.938117L266.799755,559.965372L268.125886,564.264556L271.623296,573.701809L272.425126,575.868885L273.545185,578.035963L269.998841,580.657430L265.749466,583.733288L262.056218,586.704289L259.789247,589.220904L258.344410,590.758836L257.398969,592.017145L257.011911,592.821065L249.237769,601.454476L225.944347,627.354842L223.945349,629.591860L247.309503,679.086268L255.398802,696.178786L276.361727,740.535852L284.302764,757.384001L267.432041,793.492457L256.715043,816.423102L273.810144,810.515650L272.437573,815.269575L254.796482,876.302191L250.815302,890.074882L235.631049,942.544465L271.033283,943.173685L273.671383,943.243599L314.824520,943.977689L349.127378,944.606910L404.692247,964.112813L445.107763,978.270395L454.679181,983.688745L481.744604,999.000000L507.290689,983.304217L672.632121,881.580551L714.151864,926.429468L785.802004,881.091166L780.982378,870.849059L777.290785,863.438408L776.399497,861.620704L773.674227,856.062729L770.709016,850.015383L770.331938,849.246358L760.311683,828.692460L758.780928,825.511511L757.115256,821.701368L756.904236,821.211992L755.842698,818.869979L755.597401,818.310693L751.880399,810.375828L750.549999,807.544450L748.928241,804.118834L744.034079,793.842009L742.383418,790.416407L741.972091,789.577485L740.738111,787.060719L740.338577,786.186843L738.420162,782.097104L732.664976,769.827917L730.729462,765.703243L729.290962,762.592263L724.888704,753.259343L723.421296,750.148375L722.970368,749.169644L722.233443,747.666593L721.559725,746.233453L721.091662,745.219769L719.242999,741.095125L718.929177,740.396034L713.394868,728.930952L711.447660,724.841283L709.265885,720.332167L702.703495,706.769900L700.504631,702.225854L698.334710,697.681814L691.825019,684.049731L689.666941,679.470761L687.526011,674.926752L681.045433,661.294762L678.875622,656.750777L675.999025,650.529024L671.883346,641.720719L669.942581,638.470040L666.659918,632.423088L664.000602,627.529609L663.591583,626.341194L654.157500,607.746044L634.124840,568.179265L626.380589,551.436926L623.572914,545.355178L619.970935,536.826769L617.732924,532.143144L617.076522,530.745048L614.918858,526.166289L608.445939,512.430047L606.259394,507.851312L605.813942,506.942556L604.489384,504.181338L604.055730,503.237631L603.622076,502.293925L603.342617,501.664787L601.116501,496.946259L600.374465,495.373418L598.804735,492.052978L594.073117,481.986821L593.313963,480.379035L592.498078,478.596490L592.206831,478.002309L591.368482,476.114910L591.060103,475.485778L589.764526,472.724586L588.691669,470.417769L585.872484,464.371120L584.559793,461.574985L583.668937,459.757499L581.019979,454.235143L580.140929,452.382709L577.766099,447.419590L570.677091,432.425421L568.285188,427.427380L566.955426,424.596325L566.235921,423.128371L563.408504,416.592490L563.123744,415.893466L561.887253,412.957568L578.047809,403.905229L590.556177,396.845121L614.840023,379.754128L625.941194,373.777544L639.366314,370.771781L641.983177,369.618407L648.817854,366.682549L649.978407,366.158289L660.780523,363.467088L664.519935,363.187483L667.426879,362.803026L668.740472,362.768075L672.172332,362.628272L675.164928,362.418569L678.904340,362.138964L690.302147,359.482717L700.871679,356.966274L714.507186,352.737257L723.209938,348.123789L735.788882,338.197866L750.409509,326.594358L753.276391,324.357542L753.863698,323.903189L741.439468,297.550815L734.796605,283.466011L712.146426,235.480258L704.481717,219.368662L700.636672,211.050775L700.179546,210.177048L696.457477,202.523214L683.493531,174.948587L682.169413,172.187642L678.208887,163.869871L676.867660,161.073987L673.991500,155.027894L665.328896,136.819785L664.604263,135.282061L662.138790,131.018374L660.386588,127.383759L655.318416,116.864370L655.119382,116.340148L654.245247,113.788939L654.552536,111.936693L654.654315,109.665072L647.851042,98.202144L631.297395,64.302860L623.996927,49.345346L620.857816,42.880086L603.204040,6.674859L599.933424,0.000000Z "/></g><g fill="#000" font-family="Arial" font-size="12px" id="mylayer-label" stroke="none"><text text-anchor="middle" y="541.247889613"><tspan dy="0" x="487.859020421"><![CDATA[N]]></tspan></text></g></svg>