<?xml version="1.0" encoding="utf-8"?><!DOCTYPE svg  PUBLIC '-//W3C//DTD SVG 1.1//EN'  'http://www.w3.org/Graphics/SVG/1.1/DTD/svg11.dtd'><svg enable_background="new 0 0 1000 1001" height="1001px" pretty_print="False" style="stroke-linejoin: round; stroke:#000; fill: none;" version="1.1" viewBox="0 0 1000 1001" width="1000px" xmlns="http://www.w3.org/2000/svg" xmlns:xlink="http://www.w3.org/1999/xlink"><defs><style type="text/css"><![CDATA[path { fill-rule: evenodd; }]]></style></defs><metadata><views><view h="1001" padding="0" w="1000"><proj flip="auto" id="robinson" lon0="-97.0026820181"/><bbox h="0.16" w="0.15" x="-1270.24" y="-790.06"/></view></views></metadata><g class="" id="mylayer"><path d="M580.694362,999.000000L585.570741,989.036472L592.903702,973.887842L722.350911,975.514540L771.337466,874.760853L825.319689,763.636865L841.790624,729.984477L878.003356,658.816255L905.873491,600.051607L927.374309,554.300566L976.322469,449.988130L851.370844,450.293138L845.447197,450.293138L838.800841,451.106490L813.889061,451.106490L714.061263,451.309828L681.521772,451.309828L657.115254,451.106490L650.673352,451.004821L646.647438,451.106490L634.831521,451.208159L619.314273,451.411497L619.130976,355.639189L689.445761,0.000000L515.802610,352.385776L330.118206,353.097460L323.679455,366.416119L156.228789,367.839487L182.349438,412.777241L269.444661,436.262804L272.443841,453.343210L255.035532,487.910692L174.271358,658.206241L96.973581,820.266393L69.772248,880.149296L23.677531,977.141239L67.375278,974.904528L92.122483,976.734564L172.212989,978.564600L192.947975,977.649582L238.809901,977.954588L316.047983,976.327890L367.050595,978.564600L386.026334,978.259594L488.334789,984.766389L514.385790,986.088081L556.672047,997.678308L580.694362,999.000000Z " data-aland="437145" data-awater="0" data-classfp="C5" data-funcstat="A" data-geoid="3832300" data-intptlat="+47.2366886" data-intptlon="-097.0029803" data-lsad="25" data-mtfcc="G4110" data-name="Grandin" data-namelsad="Grandin city" data-pcicbsa="N" data-pcinecta="N" data-placefp="32300" data-placens="01036065" data-statefp="38"/></g><g fill="#000" font-family="Arial" font-size="12px" id="mylayer-label" stroke="none"><text text-anchor="middle" y="659.669297713"><tspan dy="0" x="496.157467944"><![CDATA[Grandin]]></tspan></text></g></svg>