<?xml version="1.0" encoding="utf-8"?><!DOCTYPE svg  PUBLIC '-//W3C//DTD SVG 1.1//EN'  'http://www.w3.org/Graphics/SVG/1.1/DTD/svg11.dtd'><svg enable_background="new 0 0 1000 1001" height="1001px" pretty_print="False" style="stroke-linejoin: round; stroke:#000; fill: none;" version="1.1" viewBox="0 0 1000 1001" width="1000px" xmlns="http://www.w3.org/2000/svg" xmlns:xlink="http://www.w3.org/1999/xlink"><defs><style type="text/css"><![CDATA[path { fill-rule: evenodd; }]]></style></defs><metadata><views><view h="1001" padding="0" w="1000"><proj flip="auto" id="robinson" lon0="-93.4529419134"/><bbox h="1.37" w="2.24" x="-1239.55" y="-758.24"/></view></views></metadata><g class="" id="mylayer"><path d="M1000.000000,245.935747L999.022331,244.006036L998.645477,243.729322L997.577116,242.957437L994.326068,242.972001L989.431735,242.993847L988.268517,241.988938L988.429213,240.911210L988.582928,239.913582L990.112286,237.459559L991.365124,235.442451L991.929411,234.168103L993.306918,232.733549L995.079358,230.862073L997.497446,228.276956L998.773908,226.791422L999.214406,225.801064L999.243475,224.868962L998.169299,224.213578L996.404240,224.111629L994.518514,223.936860L992.887556,224.759732L983.431221,226.616653L982.760561,226.296243L982.173918,226.012243L980.867392,225.385988L978.259277,223.681988L976.960569,221.781370L975.155273,219.123413L974.860134,218.693770L973.791465,217.222788L971.584168,214.200716L971.416715,213.115681L970.945556,210.064470L970.913109,204.588292L971.649408,202.367229L972.089780,201.027307L973.307645,198.412998L972.341522,198.376587L931.646058,196.963839L927.968484,196.927428L927.831980,196.992968L923.223914,197.153176L920.240917,197.255127L918.094082,197.211434L911.195863,197.058508L909.846343,196.876452L891.662496,196.170077L885.887415,196.344851L882.552482,196.323004L874.770694,196.199206L831.037284,194.866560L808.959621,195.478267L779.661030,195.762273L728.793417,195.259800L703.639139,194.895689L690.651673,194.750044L639.263744,193.533912L630.335543,192.667326L564.833964,193.147954L558.776516,193.228058L542.726889,193.228058L540.885711,193.228058L538.372961,193.220776L533.306019,193.206211L530.307813,193.198929L522.249325,193.162518L521.507448,193.140671L518.804529,193.264469L509.376302,193.621299L498.773657,194.021821L478.526146,193.038720L477.723602,193.162518L475.146104,193.206211L473.704908,193.198929L467.802099,193.031438L464.191524,193.016873L448.603302,192.965898L429.548081,193.104260L398.708346,192.900358L368.753320,192.703737L348.634686,192.565375L324.692723,192.579939L316.355623,192.609068L311.346407,192.623632L299.409093,192.667326L298.550667,192.667326L291.174117,192.667326L278.677350,192.652761L260.885349,192.630915L256.305340,192.703737L248.555065,192.834817L235.175070,192.900358L225.216213,192.863946L224.002575,192.863946L222.815949,192.856664L200.861676,192.900358L194.194064,192.929486L192.139397,192.878511L185.791872,192.725584L181.133840,199.789334L180.492095,200.765148L180.208945,201.384134L178.731974,205.738874L177.766609,208.418706L176.258979,212.620497L175.265224,214.637643L173.245898,218.715617L168.948950,227.410395L167.658397,230.024642L160.149464,245.236682L159.288257,246.977062L158.905581,247.748945L158.387081,248.804822L156.708721,252.176340L154.307214,257.077040L148.481358,268.946410L143.325077,279.468548L136.144995,294.104727L134.348707,297.760104L133.551223,299.413030L132.273773,302.063532L118.906780,329.747828L110.529879,347.092062L108.491752,351.315223L104.247180,360.103718L103.194836,362.288089L84.316593,401.700766L81.935625,406.207695L78.290111,413.932780L75.948099,418.898361L74.004947,423.004778L73.525817,423.987695L70.824200,429.506578L67.016761,437.391693L64.065496,443.573063L59.402433,453.329225L58.800112,454.465012L58.243669,455.513429L55.873615,459.983756L53.514343,464.650643L46.873529,477.682884L45.749240,479.947131L45.690495,480.464048L45.633964,480.937282L42.494831,488.552686L41.762718,490.088865L34.759461,504.729799L34.103206,506.113070L27.268457,520.411636L25.974104,523.112619L23.358046,528.587369L20.292196,534.993961L19.633383,536.369917L18.728954,538.270046L18.607634,538.561253L18.432311,538.983503L17.198659,541.538841L13.613514,548.964580L1.637414,574.015193L0.637242,576.111820L0.547159,576.839815L0.216432,580.865618L0.203154,581.011217L0.175127,581.331533L0.137152,581.790168L0.071536,582.620078L0.000000,583.449988L2.157457,584.469174L5.317807,586.092591L8.196810,587.541288L8.511109,587.708725L12.822436,589.936366L17.436327,592.564395L20.088558,594.224200L20.194811,594.289719L20.941862,594.624591L22.729996,595.687447L25.944510,597.412766L28.218318,598.592097L32.723509,601.263786L35.533244,603.265729L38.866306,605.107513L42.209164,607.342402L44.800279,608.630919L45.606764,609.431692L46.614311,610.414457L48.407649,612.256231L49.117233,613.217155L49.707935,614.010645L49.979770,614.374631L51.208754,616.427510L52.607001,618.706056L53.354145,620.038239L53.770472,620.707970L52.868215,627.033996L54.282671,634.808629L54.403886,640.865237L53.678849,645.029137L52.933584,649.418688L51.946535,655.140366L52.122525,659.289658L52.183519,662.135918L52.406064,664.538128L52.593642,666.576362L54.409972,670.907599L55.502400,673.972213L55.831216,674.911249L57.401811,679.184221L59.615140,683.631881L62.622033,689.906621L65.991628,696.567126L69.727005,701.844549L72.812485,706.561454L76.283753,708.788875L77.424347,710.841592L77.638905,711.227386L80.905801,716.402837L83.862437,719.561962L85.149668,720.995940L85.895708,721.825754L87.186565,723.718310L87.558929,724.264239L90.173032,727.110345L91.679406,729.075682L94.836093,730.553323L97.737052,732.111031L100.993519,732.722467L105.855883,733.435809L106.893513,733.472204L108.802932,733.544994L111.413494,734.221940L113.426854,734.170987L115.434290,734.120034L118.088045,734.054524L131.094101,733.887107L135.726248,733.523157L137.926461,733.348461L139.528872,733.224718L145.813490,732.329401L152.694603,731.113807L158.817505,729.781747L163.097753,729.112078L171.922327,727.998387L182.562348,727.059392L190.379313,727.554366L197.639709,728.282269L203.223193,730.502370L206.296593,731.281224L208.050130,732.809815L212.918309,736.776864L216.687816,742.163293L218.562590,746.770855L219.909968,749.551397L221.786326,752.768666L223.624757,755.265318L225.624221,758.213254L227.746077,760.491530L230.700995,762.929936L233.303659,765.543028L235.795202,767.595648L238.328789,768.985896L241.066615,769.786561L244.061415,770.660014L262.097824,772.537935L268.461611,773.258532L276.884222,774.204769L285.603215,779.649260L289.946742,783.936414L290.838940,784.809857L297.936162,789.642892L302.504167,792.699922L303.644844,793.223984L306.370031,794.636037L306.915589,794.919903L311.652150,796.026253L316.672090,796.914244L321.070167,796.674050L328.941544,795.378456L333.047908,794.752495L338.481646,793.580636L343.655354,791.862879L349.815701,789.839415L354.512941,788.114374L358.459328,787.073525L361.161577,786.513067L366.206768,785.945330L368.736909,785.035496L370.373440,784.940873L370.593321,784.926315L372.141621,784.700676L372.794809,784.489594L375.774479,785.253856L376.244190,785.574118L378.941713,787.422901L382.016037,789.198894L384.759747,791.309702L388.163499,794.141091L392.169492,797.249060L400.021988,802.686166L402.912061,805.189993L404.393008,806.434625L408.243885,805.408349L419.343121,802.453252L420.233428,801.346908L438.380407,786.047232L442.733386,786.294707L444.539690,786.061789L447.540756,786.338379L449.202360,786.513067L450.036487,786.593132L458.571477,778.812207L458.869621,778.950503L462.057082,773.229417L462.479814,772.472426L460.527090,772.494262L456.396568,772.537935L455.356177,772.377802L455.782005,771.380612L480.005186,722.313451L480.594139,722.320730L483.174399,722.480870L485.294665,722.779311L487.743949,723.783821L488.961495,724.606354L493.848809,728.740847L496.213394,730.553323L497.959125,731.295782L500.071120,731.819871L502.111396,732.060078L516.268358,732.744304L533.977583,733.457646L535.777515,733.588668L545.539470,734.338404L553.823208,734.978955L555.308931,735.175488L559.316270,735.699575L560.107029,735.757806L563.768733,736.027129L565.052660,736.172708L568.924809,736.616726L571.857585,736.835095L576.802321,737.446529L580.713039,737.948778L585.711213,738.676675L591.226681,739.542871L591.696638,739.382734L593.662125,739.579266L594.741235,739.615661L597.602276,739.550150L599.036632,739.470081L600.126314,739.353618L606.335817,737.402855L612.403882,735.437531L613.426708,735.117256L613.417488,735.837875L613.262409,738.953275L613.412288,744.033980L613.463203,744.558063L643.854986,743.218740L645.251802,743.000371L645.408991,739.542871L645.589674,735.553995L645.689804,733.363019L648.266576,729.963723L655.252808,720.733894L656.710685,718.812217L662.698168,715.012528L671.504665,705.207529L674.215810,700.061147L674.599287,696.225002L670.031503,694.528942L659.466780,693.968441L651.914760,689.404352L646.906881,685.131416L646.216287,682.350724L645.024339,677.568210L645.151239,674.190593L645.244581,671.664654L653.423397,664.064966L655.824038,660.519884L661.293965,652.432400L666.562482,644.643322L676.030981,636.359182L686.814284,636.919709L689.812761,635.696739L697.278597,632.653867L703.212409,628.504483L705.374041,622.032871L711.194407,613.865051L719.194140,606.825539L730.436858,596.925018L733.196133,594.500834L742.859486,590.496916L746.691745,590.780831L748.795358,590.933708L754.736542,591.501537L762.657893,590.482356L765.393578,590.132923L767.944806,589.266618L769.203137,588.378474L774.682987,584.600212L781.428408,578.244844L784.291137,573.389116L787.927983,566.371207L786.614406,561.661032L783.180300,557.198361L780.258363,553.390882L774.726442,548.840818L774.403787,543.620965L774.305805,542.084853L777.541317,536.646565L777.825879,536.166072L780.918344,532.169241L782.410662,529.679405L784.366037,526.396016L787.537275,521.889533L787.889466,516.618601L787.954838,515.606638L781.495607,510.779779L769.760452,509.323710L766.745345,509.520279L760.249424,511.114675L754.889645,514.383544L748.726334,516.312828L742.894051,515.766805L739.744654,512.017437L738.740991,508.937851L739.327513,504.256574L739.752611,500.849350L743.188888,496.968888L744.541249,493.255865L744.517551,492.309406L744.399223,488.225064L737.033217,490.285438L730.338853,489.397221L724.285420,480.143705L724.925292,477.653762L726.206654,475.302144L728.701014,470.722666L731.658124,465.298618L731.934954,464.796255L735.398785,458.418416L735.474440,457.617543L735.602964,456.234216L735.787280,454.210188L728.513740,452.477384L721.936920,449.958261L715.973209,445.604390L716.165713,441.942174L718.947221,435.360352L725.110891,423.150396L729.439984,414.580782L733.912021,408.355579L738.624710,401.111005L740.501751,396.509403L737.844047,395.016792L734.042436,393.487773L719.160394,387.517300L717.523546,386.862002L717.915522,383.891316L726.035925,366.867976L726.253803,366.067043L726.958733,363.409399L728.572467,357.336841L728.816566,356.426683L731.283797,352.516636L735.105535,348.752203L737.126001,343.953808L737.048047,340.793702L736.939544,336.534098L738.627318,331.582746L741.045984,323.813451L744.056229,319.997959L744.609831,319.291655L745.660227,318.949425L755.755695,315.643624L756.962561,315.192170L768.908383,310.765002L771.433468,309.825683L772.245624,308.216461L773.350192,306.031993L776.099055,300.585368L777.223537,298.240691L777.937709,296.755241L778.574109,294.403274L779.848250,291.614405L787.505704,283.808448L791.198452,279.548647L796.076505,274.677163L801.261806,270.053241L806.480362,266.885663L810.839915,267.257034L814.374323,269.201273L817.796027,270.679474L818.501761,270.832392L818.998529,271.196480L822.072342,272.529044L822.899303,272.390691L824.977248,272.041166L827.057786,271.698923L829.365604,270.781419L834.024228,267.621124L849.282841,261.591783L854.340391,260.033470L862.712225,256.144962L867.959521,253.756508L872.820351,251.812245L876.530881,250.843754L880.256058,249.583985L883.957434,251.681171L887.170604,254.186139L888.411195,255.358520L889.662899,256.545464L891.118274,256.625564L894.459756,256.814893L900.787595,256.013888L909.451537,256.086707L912.893605,256.159525L916.604689,256.239626L917.563003,256.785765L917.957382,259.305286L914.391114,268.007059L914.965558,272.128547L915.301457,274.516965L915.262284,275.237858L915.052267,279.301068L916.008484,282.483178L917.724139,287.048800L918.930940,290.252735L919.314865,290.565846L924.654320,294.949397L926.630036,296.223682L931.997957,298.095059L939.783378,297.629035L939.905118,297.621754L944.450883,296.704269L947.715302,296.544074L952.147029,297.250391L957.858724,299.056231L962.883701,301.510131L965.202686,304.146065L966.275528,305.362088L966.184362,310.073256L966.778284,311.689757L968.320923,312.097523L969.966977,312.214028L971.576050,311.828106L974.093517,310.801410L979.894189,305.697040L979.980730,305.624225L983.731924,301.364499L986.433808,295.655715L987.151119,291.505180L987.013731,288.577952L986.986663,287.937164L985.353235,287.274532L982.787557,287.551236L978.474305,288.024545L971.702415,287.230842L969.782779,283.422518L968.487437,279.621464L967.993017,277.203929L968.075573,274.910179L968.261067,270.329949L969.976848,264.810348L970.312545,263.725358L970.353454,257.958144L968.053745,254.295367L967.092611,253.392414L965.939694,252.300132L959.008801,251.258822L958.290820,250.406840L958.628277,249.110662L960.473784,246.845987L964.718732,244.253622L965.775226,243.081230L967.001085,241.719506L970.106843,240.649059L974.616937,240.379627L977.101120,240.721879L979.710109,241.879709L986.045267,249.241736L987.662114,250.173819L991.781013,249.736905L994.848733,249.423784L997.811863,248.717439L999.234516,247.326594L1000.000000,245.935747Z " data-aland="74623882" data-awater="2535298" data-classfp="C5" data-funcstat="A" data-geoid="2753026" data-intptlat="+45.2600562" data-intptlon="-093.4525561" data-lsad="25" data-mtfcc="G4110" data-name="Ramsey" data-namelsad="Ramsey city" data-pcicbsa="N" data-pcinecta="N" data-placefp="53026" data-placens="02396311" data-statefp="27"/></g><g fill="#000" font-family="Arial" font-size="12px" id="mylayer-label" stroke="none"><text text-anchor="middle" y="460.307575493"><tspan dy="0" x="425.057209041"><![CDATA[Ramsey]]></tspan></text></g></svg>