<?xml version="1.0" encoding="utf-8"?><!DOCTYPE svg  PUBLIC '-//W3C//DTD SVG 1.1//EN'  'http://www.w3.org/Graphics/SVG/1.1/DTD/svg11.dtd'><svg enable_background="new 0 0 1000 1001" height="1001px" pretty_print="False" style="stroke-linejoin: round; stroke:#000; fill: none;" version="1.1" viewBox="0 0 1000 1001" width="1000px" xmlns="http://www.w3.org/2000/svg" xmlns:xlink="http://www.w3.org/1999/xlink"><defs><style type="text/css"><![CDATA[path { fill-rule: evenodd; }]]></style></defs><metadata><views><view h="1001" padding="0" w="1000"><proj flip="auto" id="robinson" lon0="-93.7428453994"/><bbox h="0.48" w="0.81" x="-1244.19" y="-755.14"/></view></views></metadata><g class="" id="mylayer"><path d="M372.632587,352.274045L400.017803,276.297003L347.831377,273.237888L365.972306,228.830405L297.760667,225.331364L240.024777,348.495231L372.632587,352.274045Z M372.632587,352.274045L366.405659,365.869741L347.752671,406.596493L341.535115,420.171959L333.385527,437.965925L308.897590,491.327220L300.741231,509.100786L300.191994,510.620231L298.495405,515.178562L297.929877,516.698004L271.934136,517.957541L193.948820,521.696164L198.870001,510.560253L164.154356,510.580245L150.292096,510.500275L128.335698,510.340333L111.256360,510.240370L109.252183,510.240370L138.291252,444.103820L129.833467,443.324088L139.809079,420.051999L121.394530,394.340536L102.051588,443.504026L22.702499,439.445419L0.000000,484.309732L0.000000,484.309732L27.223172,503.882685L42.161790,511.999727L49.304125,515.758349L56.666603,517.257799L90.104881,523.975323L105.575334,524.315197L122.901308,524.695056L128.686823,524.835005L131.765350,524.695056L158.912962,523.375544L167.955025,522.915714L163.820087,531.872393L151.417432,558.702290L150.760159,560.101757L148.408874,565.199809L147.447550,567.618882L152.875396,585.332033L160.368001,616.539721L162.152729,623.956749L163.682846,648.046971L162.655884,657.583049L155.208556,672.776739L138.929572,680.213623L114.853154,687.170692L98.781192,689.209830L90.670983,694.607542L89.023876,702.224297L91.671488,705.622843L95.531443,707.761925L103.201749,706.562440L109.900352,703.143904L118.819874,699.145611L128.412972,697.946122L130.968513,698.485892L136.112188,699.565432L144.323763,703.303835L146.020248,710.700663L141.492447,720.836288L134.832010,727.053587L130.109362,734.590297L125.429466,740.147859L126.682623,742.926636L127.186683,742.786698L130.334265,741.927076L134.215883,740.567675L142.049145,735.489903L157.213119,728.353021L163.054242,725.134422L169.073683,722.095742L169.743629,721.735898L176.921455,719.476876L184.977367,717.577698L193.578667,716.658095L200.385887,714.638967L202.958618,716.778044L204.288773,716.897992L206.352383,717.337802L208.843298,718.837153L213.306105,720.656366L216.244314,722.495568L217.729323,724.554674L218.219978,725.974057L217.878095,728.393004L217.023004,730.971879L210.592263,757.860022L210.813429,759.939096L211.483722,763.777381L213.294885,766.156317L216.973981,768.655196L222.553976,771.913732L228.901886,775.132282L229.133136,775.232237L233.641860,776.951461L244.167767,775.352183L246.960699,775.871948L249.757848,776.631606L254.568680,777.691127L259.828267,778.090946L262.985974,780.589816L266.102845,774.352634L270.959246,764.636997L296.065436,754.541498L308.141450,749.663661L317.855195,745.745393L330.488133,740.647639L327.176514,748.164325L313.503085,779.270413L308.931424,789.645703L307.474451,792.044609L303.290977,789.365831L301.888978,788.406268L301.327790,788.386277L300.799193,788.366286L299.708304,788.186368L299.183733,788.086413L298.901453,789.485776L298.697339,790.465330L298.201794,792.864235L298.038323,793.683861L297.975350,793.963733L297.748905,795.063230L309.839351,797.022333L323.576478,797.022333L328.982677,795.642965L337.800685,790.905129L346.239554,787.386732L359.457417,781.189545L372.320367,777.511208L380.746519,773.273120L385.720040,772.233588L398.565845,770.514361L410.363711,770.514361L414.939304,771.553894L421.178257,774.512561L424.990890,775.332192L429.237550,774.812426L437.861436,774.092751L444.129343,774.532552L451.377756,772.973255L462.095144,769.994595L484.353866,762.557927L494.000705,757.860022L508.000106,749.563706L515.723235,743.586346L519.750593,739.488149L525.223863,733.370831L529.497737,727.773274L536.193512,719.057058L541.290773,718.957101L581.898420,720.736331L589.138707,730.192219L596.061689,738.668509L603.652635,746.824917L605.836610,748.923989L642.648478,723.295221L644.007469,722.355629L652.026138,716.977957L660.737015,711.120483L661.396362,713.239570L664.366372,722.555542L670.159708,740.867543L672.709353,747.364678L672.924540,747.784493L674.378847,750.623236L675.575111,752.922217L678.062738,756.600583L679.283118,758.419773L683.569299,763.437533L684.603734,764.417095L686.081499,765.816469L687.823258,761.798266L689.208096,758.559711L705.099590,721.675924L725.587576,674.076196L735.466171,647.907029L804.815734,646.307683L819.259840,646.007806L849.986230,645.308092L903.046273,644.088591L957.928299,546.766813L870.083139,549.085938L857.701066,576.595424L845.564238,606.523707L753.209725,608.402962L767.806202,575.915686L800.532201,503.082976L811.859836,477.772058L815.029183,471.134406L815.959013,469.494984L830.609381,429.168921L805.940140,428.209246L802.520472,428.169259L800.017972,431.108262L799.206038,430.568446L798.866802,430.348520L797.692200,429.568785L796.723374,428.909009L795.878855,428.369192L794.656825,428.369192L791.009046,428.329205L789.796171,428.309212L730.447696,427.149605L749.632250,386.283168L688.088685,386.503096L691.240063,379.585339L695.503268,370.168368L699.240615,361.970981L700.677990,358.831976L703.796838,351.914158L723.043319,351.834183L770.010837,351.634246L780.782757,351.594259L796.184004,351.514284L800.022096,351.494290L809.752431,349.814817L824.376712,349.794823L820.824737,357.552381L817.437560,364.950034L831.165490,372.047766L841.742873,377.486017L842.262369,379.625326L845.762811,376.606301L856.275301,367.489225L859.768599,364.450193L860.908620,363.490499L864.290972,360.551432L865.423854,359.571742L867.118599,358.112204L872.204847,353.693598L873.892452,352.214064L886.125132,351.154397L889.555716,350.814504L890.653935,351.654240L903.393445,331.160611L913.077741,315.845284L920.067998,305.168497L927.242361,296.011224L936.823835,284.514609L942.317488,278.316416L946.849858,272.118211L952.183692,266.019966L966.361655,248.185027L982.162683,228.050619L989.174024,218.573206L1000.000000,205.176814L998.432332,204.117096L995.827677,202.297581L986.833996,201.977667L979.887289,202.097635L977.939312,202.117629L977.155249,202.157619L967.936729,202.257592L949.787836,202.397555L939.683131,204.077107L935.970731,204.676947L933.534201,211.635081L921.821950,241.626863L921.131609,243.846243L910.574223,277.436672L856.814384,283.434925L829.165602,286.494029L819.764528,284.394644L809.591492,282.095316L787.664301,286.713965L776.219576,289.113260L767.691960,288.593413L742.076544,287.033871L733.532647,286.514023L731.815446,283.574884L732.313311,281.135596L730.847945,278.856259L713.274004,279.056201L633.116915,279.935945L606.398549,280.215864L603.467829,280.175875L591.567551,306.268168L574.180901,344.376518L568.380481,344.376518L562.779735,356.072848L587.290084,356.132830L588.926559,356.152823L592.674034,356.152823L613.094748,356.212804L605.467179,375.466667L582.612668,433.167562L581.306719,436.446444L568.617596,435.726690L554.956131,435.386806L513.939164,434.367154L500.270572,434.007276L499.226810,436.286499L498.997914,436.786328L496.155585,443.064178L495.130139,445.303407L493.768598,445.323400L489.676834,445.363387L488.308154,445.363387L486.713030,448.882173L481.913402,459.398522L480.311153,462.897300L477.716236,462.657384L472.388912,462.157559L474.047342,458.998662L474.707643,457.699115L473.027357,457.739101L474.062894,455.299949L477.180690,447.922504L478.209096,445.463352L475.697832,445.503339L471.403404,445.523332L468.083653,445.763249L465.405564,446.203097L464.952552,448.722228L463.611847,456.239623L463.168003,458.738752L459.840320,459.458501L452.997646,461.057943L450.586604,462.017608L449.347486,462.517433L446.147348,463.776992L440.129267,466.955877L435.807740,472.194032L433.034750,478.711725L429.347279,487.368639L427.303677,492.186911L423.441991,492.186911L418.814485,492.186911L407.857754,492.166918L406.293527,492.166918L410.494074,483.030188L416.683517,469.514977L417.803951,467.815575L419.246228,466.196144L420.933996,464.716663L422.512976,463.617048L424.541046,462.497440L425.241535,462.177552L428.735905,460.738055L437.216239,457.199289L433.775918,449.981793L423.406339,428.329205L419.949901,421.111643L435.030671,388.182549L451.064063,353.173762L399.337518,352.593944L392.172484,352.513970L372.632587,352.274045Z M392.427447,513.799068L406.133305,514.718731L403.597181,520.256695L392.427447,513.799068Z M718.611204,319.384211L719.299884,317.844678L734.097046,317.624745L750.346316,317.364824L744.150519,331.500506L727.746319,331.600475L713.022340,331.660457L713.580821,330.440832L714.892066,327.541722L715.267439,326.721973L715.844233,325.462358L716.540048,323.942822L718.611204,319.384211Z " data-aland="6750397" data-awater="160741" data-classfp="C5" data-funcstat="A" data-geoid="2755006" data-intptlat="+45.0924912" data-intptlon="-093.7454857" data-lsad="25" data-mtfcc="G4110" data-name="Rockford" data-namelsad="Rockford city" data-pcicbsa="N" data-pcinecta="N" data-placefp="55006" data-placens="02396406" data-statefp="27"/></g><g fill="#000" font-family="Arial" font-size="12px" id="mylayer-label" stroke="none"><text text-anchor="middle" y="528.808261001"><tspan dy="0" x="503.63821616"><![CDATA[Rockford]]></tspan></text></g></svg>