<?xml version="1.0" encoding="utf-8"?><!DOCTYPE svg  PUBLIC '-//W3C//DTD SVG 1.1//EN'  'http://www.w3.org/Graphics/SVG/1.1/DTD/svg11.dtd'><svg enable_background="new 0 0 1000 1001" height="1001px" pretty_print="False" style="stroke-linejoin: round; stroke:#000; fill: none;" version="1.1" viewBox="0 0 1000 1001" width="1000px" xmlns="http://www.w3.org/2000/svg" xmlns:xlink="http://www.w3.org/1999/xlink"><defs><style type="text/css"><![CDATA[path { fill-rule: evenodd; }]]></style></defs><metadata><views><view h="1001" padding="0" w="1000"><proj flip="auto" id="robinson" lon0="-96.1016483665"/><bbox h="0.18" w="0.37" x="-1282.23" y="-740.09"/></view></views></metadata><g class="" id="mylayer"><path d="M1000.000000,259.973271L972.992361,259.973271L912.486054,259.142099L883.868888,259.273337L855.683843,259.404575L825.120635,259.229591L781.247821,258.792132L758.040134,258.442165L746.507438,258.617149L729.064351,258.879624L716.235286,259.054608L664.144199,259.098354L639.707450,258.835878L613.629878,258.617149L563.347268,258.179690L380.180613,258.529657L324.502684,258.310928L275.607055,258.529657L264.639593,258.573403L70.913226,261.416885L67.348662,269.072413L0.000000,413.564285L205.241931,413.608031L378.885148,413.301813L310.669233,564.397784L270.086313,654.205988L173.687930,655.430841L133.278868,738.676830L211.159773,738.939297L224.792863,738.895553L259.261543,738.808064L408.707210,738.589341L585.374858,740.776566L595.654076,740.820310L606.589416,717.635717L660.763373,601.712218L709.221013,602.980819L836.924024,600.881065L848.061329,577.958726L947.739521,369.381331L1000.000000,259.973271Z "/></g><g fill="#000" font-family="Arial" font-size="12px" id="mylayer-label" stroke="none"><text text-anchor="middle" y="452.932046304"><tspan dy="0" x="519.900837977"><![CDATA[N]]></tspan></text></g></svg>