<?xml version="1.0" encoding="utf-8"?><!DOCTYPE svg  PUBLIC '-//W3C//DTD SVG 1.1//EN'  'http://www.w3.org/Graphics/SVG/1.1/DTD/svg11.dtd'><svg enable_background="new 0 0 1000 1001" height="1001px" pretty_print="False" style="stroke-linejoin: round; stroke:#000; fill: none;" version="1.1" viewBox="0 0 1000 1001" width="1000px" xmlns="http://www.w3.org/2000/svg" xmlns:xlink="http://www.w3.org/1999/xlink"><defs><style type="text/css"><![CDATA[path { fill-rule: evenodd; }]]></style></defs><metadata><views><view h="1001" padding="0" w="1000"><proj flip="auto" id="robinson" lon0="-114.349000152"/><bbox h="0.26" w="0.3" x="-1491.77" y="-799.77"/></view></views></metadata><g class="" id="mylayer"><path d="M1000.000000,70.707193L975.782234,74.467794L886.601956,88.365668L839.005696,95.341857L827.615243,97.031403L795.516990,102.481551L779.573735,106.024148L761.306273,110.057258L748.542278,114.090369L721.739257,122.483599L678.976172,138.071030L654.850251,148.698825L640.247415,155.130005L625.605498,163.032726L608.071176,150.878886L594.583822,145.646740L582.801948,142.976166L569.183946,140.850607L538.726646,140.469096L535.595163,140.414595L501.871681,140.578099L434.251375,140.905108L351.701178,141.123114L327.665344,193.444587L261.666153,340.217426L217.617407,438.156989L209.038925,457.232601L176.973326,528.738940L134.084961,624.117171L66.243056,775.033038L31.477571,851.826389L0.000000,910.361615L2.973018,928.292807L58.419073,927.747786L80.562822,927.529777L94.123293,928.129300L112.530668,926.003718L133.114292,926.821250L143.365027,926.930254L169.151987,900.224227L161.118431,900.769247L150.124031,898.970679L149.040508,897.935139L140.555162,895.700553L132.760560,885.999183L125.871494,874.826258L126.354857,870.302587L125.104738,866.814455L125.872968,855.369022L130.076413,845.013633L147.171165,806.589700L170.785329,768.874313L204.894742,707.995616L212.171067,698.239768L213.640010,696.768216L230.674012,691.808540L237.865793,689.519459L258.058859,684.123768L268.024183,683.905760L281.061867,685.322810L294.517008,684.178270L318.877256,679.436602L327.250527,677.202023L331.271792,676.329993L378.934088,654.747235L389.020322,651.586125L407.046475,644.119364L440.925002,631.638431L450.215219,626.951269L454.254824,621.610084L457.204129,617.685949L457.012795,608.693140L453.160889,593.596124L454.561589,587.655421L461.208423,579.861656L467.757149,573.048926L467.223726,566.563206L471.849770,558.224426L482.474565,549.558635L497.971342,540.565834L508.609470,538.385761L515.324554,535.061151L519.045054,528.193922L518.621390,518.710608L509.879355,510.480836L508.440545,504.431137L511.573075,492.059231L511.714721,489.007132L511.988888,483.066438L513.004145,479.632826L513.732064,475.654197L517.636011,459.303667L518.583378,450.365380L520.424918,440.936577L520.290591,438.429497L520.876962,436.467435L523.644527,427.529150L533.735104,404.910934L536.005890,392.975059L536.111331,388.505919L536.452497,377.496576L541.011198,364.688678L551.035863,344.032542L558.258147,335.257774L566.276240,328.009053L573.908528,323.267409L592.332249,312.312578L607.498614,303.810321L619.459951,298.632666L632.675763,293.237004L636.548812,291.656457L651.871545,289.912405L653.992729,289.694398L660.046187,288.386359L680.967134,279.012080L692.841622,274.869957L700.730741,276.123494L707.733375,272.308381L711.166936,265.931692L715.395143,253.614329L724.271657,241.351470L732.080381,231.650187L757.505591,210.449074L772.140572,201.892329L778.237511,199.548762L791.726591,196.496674L801.955694,197.750210L820.506830,202.328341L830.250623,200.638793L841.605222,195.461145L857.500829,190.447002L870.403564,188.321441L895.889621,184.615336L912.061093,180.091708L925.600190,177.693640L986.464857,99.865480L993.813746,86.512618L995.023036,84.005551L998.324588,77.410873L1000.000000,70.707193Z " data-aland="809059" data-awater="0" data-classfp="U1" data-funcstat="S" data-geoid="3024100" data-intptlat="+47.8288466" data-intptlon="-114.3485730" data-lsad="57" data-mtfcc="G4210" data-name="Elmo" data-namelsad="Elmo CDP" data-pcicbsa="N" data-pcinecta="N" data-placefp="24100" data-placens="02408079" data-statefp="30"/></g><g fill="#000" font-family="Arial" font-size="12px" id="mylayer-label" stroke="none"><text text-anchor="middle" y="411.7877319"><tspan dy="0" x="415.997413627"><![CDATA[Elmo]]></tspan></text></g></svg>