<?xml version="1.0" encoding="utf-8"?><!DOCTYPE svg  PUBLIC '-//W3C//DTD SVG 1.1//EN'  'http://www.w3.org/Graphics/SVG/1.1/DTD/svg11.dtd'><svg enable_background="new 0 0 1000 1001" height="1001px" pretty_print="False" style="stroke-linejoin: round; stroke:#000; fill: none;" version="1.1" viewBox="0 0 1000 1001" width="1000px" xmlns="http://www.w3.org/2000/svg" xmlns:xlink="http://www.w3.org/1999/xlink"><defs><style type="text/css"><![CDATA[path { fill-rule: evenodd; }]]></style></defs><metadata><views><view h="1001" padding="0" w="1000"><proj flip="auto" id="robinson" lon0="-94.4592163044"/><bbox h="0.4" w="0.46" x="-1280.94" y="-693.59"/></view></views></metadata><g class="" id="mylayer"><path d="M1000.000000,148.012567L849.549020,144.059732L859.532609,122.678568L864.113749,112.221609L876.617295,83.725653L884.777789,65.686718L850.252821,65.650784L826.660833,65.650784L739.403714,65.578916L704.876699,143.341036L703.553559,143.233231L683.930717,143.556645L667.491702,143.808189L647.097887,143.772254L630.647308,143.556645L613.821532,143.808189L607.647508,143.915993L567.934984,143.269166L326.700846,145.497126L318.530573,166.878429L306.499210,195.734409L282.763239,253.662694L251.589146,328.697769L221.325538,401.506319L201.935914,447.003443L179.502176,500.371673L164.275015,535.843127L159.442852,548.313926L151.678880,567.397568L141.188343,591.405010L133.287092,611.027981L112.402563,660.301528L110.926603,665.081566L102.026293,687.292656L87.797504,720.753318L64.201368,777.468251L15.619979,892.302631L10.449674,904.451214L0.000000,929.503308L85.977917,933.421084L86.716357,932.019310L88.261072,930.186223L90.279427,928.712565L92.743124,927.382679L101.764452,926.520051L111.791110,926.591937L125.059515,926.879479L148.773077,926.951365L179.554944,926.771651L201.497409,926.951365L213.947821,927.202965L231.756399,927.095136L238.587151,926.771651L239.479775,926.771651L243.392202,926.807594L247.886044,926.663822L250.980958,926.591937L260.831512,926.304394L275.117365,925.729308L279.193681,925.729308L299.783540,925.729308L315.343019,926.016851L381.378700,926.555994L442.808763,926.160622L475.579813,926.627879L517.513219,927.382679L534.781411,927.993708L676.181983,928.892279L677.604385,925.297994L678.012535,924.327538L787.328708,663.176738L806.774614,616.886141L825.754195,569.302344L837.237637,543.354352L849.235025,516.256515L920.038644,342.497497L926.161763,326.182199L929.506502,317.952706L1000.000000,148.012567Z "/></g><g fill="#000" font-family="Arial" font-size="12px" id="mylayer-label" stroke="none"><text text-anchor="middle" y="521.214278472"><tspan dy="0" x="508.066738918"><![CDATA[N]]></tspan></text></g></svg>