<?xml version="1.0" encoding="utf-8"?><!DOCTYPE svg  PUBLIC '-//W3C//DTD SVG 1.1//EN'  'http://www.w3.org/Graphics/SVG/1.1/DTD/svg11.dtd'><svg enable_background="new 0 0 1000 1001" height="1001px" pretty_print="False" style="stroke-linejoin: round; stroke:#000; fill: none;" version="1.1" viewBox="0 0 1000 1001" width="1000px" xmlns="http://www.w3.org/2000/svg" xmlns:xlink="http://www.w3.org/1999/xlink"><defs><style type="text/css"><![CDATA[path { fill-rule: evenodd; }]]></style></defs><metadata><views><view h="1001" padding="0" w="1000"><proj flip="auto" id="robinson" lon0="-94.9858458611"/><bbox h="0.24" w="0.36" x="-1284.29" y="-702.26"/></view></views></metadata><g class="" id="mylayer"><path d="M1000.000000,183.712741L423.551747,166.084075L409.328760,166.622354L287.297664,171.242585L276.646297,196.272637L256.328454,242.340778L194.101512,386.334129L178.110372,420.695692L156.291955,473.763628L142.574987,504.850990L138.811245,513.374250L128.952055,536.925428L104.779705,594.749590L96.002077,613.052471L53.416036,707.752874L10.208195,805.101677L0.000000,828.519470L387.035171,824.795945L468.476922,822.328550L582.684745,820.758390L585.632676,823.405231L594.888746,828.070852L602.952301,830.762559L609.289511,832.198136L627.584103,832.915925L688.780457,832.691616L711.145453,832.601892L723.632152,803.396937L851.527208,509.292055L854.154482,508.035996L859.818334,504.492116L862.172215,501.890281L865.414281,496.462320L893.606938,429.084251L910.599783,390.595670L924.852282,357.580028L937.745987,327.704625L959.497239,276.163191L986.839782,212.824828L1000.000000,183.712741Z " data-aland="2578569" data-awater="0" data-classfp="C1" data-funcstat="A" data-geoid="1932565" data-intptlat="+41.8418310" data-intptlon="-094.9859480" data-lsad="25" data-mtfcc="G4110" data-name="Gray" data-namelsad="Gray city" data-pcicbsa="N" data-pcinecta="N" data-placefp="32565" data-placens="02394969" data-statefp="19"/></g><g fill="#000" font-family="Arial" font-size="12px" id="mylayer-label" stroke="none"><text text-anchor="middle" y="493.343637454"><tspan dy="0" x="500.571062732"><![CDATA[Gray]]></tspan></text></g></svg>