<?xml version="1.0" encoding="utf-8"?><!DOCTYPE svg  PUBLIC '-//W3C//DTD SVG 1.1//EN'  'http://www.w3.org/Graphics/SVG/1.1/DTD/svg11.dtd'><svg enable_background="new 0 0 1000 1001" height="1001px" pretty_print="False" style="stroke-linejoin: round; stroke:#000; fill: none;" version="1.1" viewBox="0 0 1000 1001" width="1000px" xmlns="http://www.w3.org/2000/svg" xmlns:xlink="http://www.w3.org/1999/xlink"><defs><style type="text/css"><![CDATA[path { fill-rule: evenodd; }]]></style></defs><metadata><views><view h="1001" padding="0" w="1000"><proj flip="auto" id="robinson" lon0="-109.322245692"/><bbox h="0.58" w="0.4" x="-1525.46" y="-590.73"/></view></views></metadata><g class="" id="mylayer"><path d="M435.894432,0.000000L435.499531,2.580804L433.736865,4.692370L431.283515,6.129407L429.682199,6.950571L423.536947,10.968406L422.268575,12.258804L417.376945,15.484799L414.176621,21.115621L412.592693,26.277200L411.011471,27.567594L408.580824,27.567594L406.494220,28.857988L403.875066,35.133986L401.486707,37.245535L394.947515,39.650353L391.668314,42.876327L388.481330,48.536437L385.119744,55.457598L381.656559,61.410960L376.233725,64.314321L372.821718,65.282107L369.966798,66.895084L366.706329,69.153250L364.210219,71.558050L363.617502,73.171024L364.862733,76.396971L363.968274,78.831092L361.777881,79.945509L359.565597,80.268103L358.247330,81.235886L354.489604,89.300732L351.775127,91.382926L349.207218,92.673299L344.365560,96.221824L332.606786,105.430376L325.119281,110.415890L321.527279,113.641807L315.953550,120.885448L310.156437,125.724310L305.968542,128.803583L295.000432,135.402018L289.160956,138.129368L278.590836,145.871512L269.971888,153.936230L262.202463,163.291282L261.028609,164.259045L258.180902,167.162332L256.308774,169.244486L252.150015,174.405878L250.540822,176.165442L247.624525,179.713893L245.976547,181.971997L244.525047,183.760883L242.636066,187.133372L240.010720,189.890013L239.509643,190.271250L239.734873,191.033725L243.988735,202.118919L246.730978,206.576449L249.754484,210.858019L256.073750,217.632274L261.607045,222.353718L272.297198,230.594238L279.172530,235.462295L292.385646,247.251181L294.840246,250.330362L297.180258,253.262913L300.334737,258.629476L303.288991,266.899247L304.103468,269.333255L306.100149,277.720306L308.315294,286.429917L310.371238,293.673250L312.269784,299.772888L313.054942,303.203931L315.564321,310.916435L316.816343,316.810772L318.020890,325.520299L322.714365,359.126582L323.586789,370.181991L323.723871,371.970794L323.282094,383.524686L322.688829,392.673937L322.541492,394.843948L322.270891,399.183968L320.619034,410.297916L278.437803,453.844357L251.460645,475.983950L226.713226,492.053407L188.972779,506.803234L168.069957,504.281399L163.153974,503.577630L164.162297,507.712268L167.404047,514.808585L181.160946,545.041105L190.118109,564.687722L210.094405,608.525723L225.938560,643.302554L236.426414,666.320779L270.009554,726.724667L374.748853,647.173144L378.867732,644.739364L384.977250,642.980004L388.316979,643.126618L390.755382,644.416815L393.590198,647.642306L394.804920,649.577599L396.425022,650.867794L401.484989,650.721181L405.478373,650.398632L409.930975,649.284373L409.535081,650.427955L397.227194,685.057811L390.573396,702.915088L370.356961,757.248809L367.479680,765.019087L362.217269,778.301829L361.143770,781.028744L354.746413,793.666358L349.814542,800.674206L343.398765,809.822508L326.655983,809.470650L319.292952,809.793186L304.240113,811.787044L289.813712,814.631222L269.626789,819.791787L254.723449,823.017137L242.421370,825.450808L234.537709,826.535697L228.580757,842.955605L220.566878,863.011258L215.159242,877.935647L212.626339,878.082252L211.487435,876.792130L210.433294,873.566824L210.157028,871.631639L205.980788,865.503547L203.710670,864.213421L197.802360,862.278231L191.552074,861.339957L185.025649,860.694893L180.443038,859.082234L178.078571,858.114638L172.059505,857.792106L172.224206,858.261244L172.970068,866.324536L174.559494,871.631639L174.643200,873.566824L175.362222,876.000464L175.251466,877.613117L175.798238,880.515890L175.615344,883.242735L176.345145,885.647049L174.770934,892.097639L171.539831,908.370674L170.551986,920.304191L168.478215,927.722304L167.323977,933.029326L167.080513,937.691290L164.914385,945.754421L164.376133,947.220443L163.031625,949.243553L162.510436,950.269768L162.312909,951.266662L162.297169,952.292876L161.161983,957.482583L159.598538,961.675393L159.125494,962.701604L158.363014,963.991698L160.977537,969.064109L162.294286,974.459037L163.956124,978.651829L164.637311,981.319966L165.671918,983.812182L167.200257,989.089808L171.654016,992.168421L173.644988,993.956947L176.474767,997.328756L177.136866,999.000000L184.613858,996.859635L188.006861,996.009353L194.692245,995.041790L196.797754,995.862753L200.023009,995.862753L205.249876,996.507794L206.614191,996.331874L211.933455,996.331874L217.719595,996.830315L220.481717,995.862753L222.880863,994.572669L228.830727,992.461622L233.973745,991.171537L237.802526,990.379894L248.796261,989.412330L255.016699,988.268845L262.059226,986.656237L265.578848,985.395470L267.687359,984.897028L272.216079,984.427905L278.217951,982.961897L283.437832,978.446587L285.696302,976.687374L288.382331,975.074762L294.315872,974.253795L299.153740,974.253795L303.582297,973.139626L306.799782,971.849535L312.828448,966.835768L315.407571,966.366643L318.843615,965.399073L325.140122,964.900628L328.020640,963.610534L329.679323,962.173838L331.212114,961.997916L339.495714,962.642964L343.653687,960.561220L351.990892,954.110740L355.294955,951.208021L358.462360,949.595398L360.767160,948.627824L363.579346,947.982774L365.895644,947.836172L368.852242,947.191123L371.588344,945.901023L373.843067,944.610923L377.311868,942.177325L388.835734,936.225264L395.812652,931.709901L401.475342,927.692984L404.211444,926.402878L405.407265,926.226954L408.028706,924.790245L411.910554,923.001688L416.166615,920.128267L417.458588,918.838158L419.272455,917.372126L421.749484,915.935413L426.425602,914.146852L435.631373,914.967831L439.783427,916.639109L438.504762,917.958539L420.346697,934.114186L407.692295,945.637139L393.921329,957.775787L388.291856,963.669175L398.623566,971.585653L408.027090,977.244458L412.730275,978.857070L418.522685,978.945031L420.593216,978.681149L426.264526,977.918823L441.803327,971.585653L452.896238,964.578105L462.497921,955.928604L465.323697,952.820643L484.101085,932.354954L490.941480,925.523260L492.429129,924.027909L502.079906,917.342805L509.958824,913.648401L512.330135,912.827421L518.570506,914.645304L533.260232,915.935413L535.422543,915.290359L541.474436,914.146852L547.134344,913.677721L551.861532,915.290359L554.284232,920.098946L555.905650,924.467719L557.239151,926.080352L561.266421,927.370457L562.771396,927.663663L556.884260,951.765108L552.999919,970.148960L551.372864,978.974351L555.741890,978.153385L558.194386,978.094745L583.297222,975.016121L594.281312,973.550109L601.364268,971.761574L608.553307,967.979259L614.095303,962.848206L618.209610,957.541224L619.556942,954.198701L619.745591,953.553653L621.493395,955.283555L631.947055,939.919647L636.283866,935.580212L637.083651,934.319430L637.117723,933.439814L635.735464,932.091069L634.225072,929.452218L633.287577,928.924448L629.850060,928.191434L629.910151,927.634343L626.509533,923.588100L618.771746,916.932316L611.990768,912.915384L607.197643,910.892255L600.824951,909.631465L586.325838,908.018825L580.600011,908.077467L569.285887,908.869126L576.534565,889.517404L578.672163,883.301377L583.736358,868.523612L588.948815,853.276655L592.400523,844.333701L593.686607,840.961762L595.862121,832.282673L596.920650,826.711625L598.550082,815.980007L609.467966,811.875008L618.775187,808.092542L624.588195,806.157325L632.841478,802.492140L637.372470,799.853204L647.896852,793.607715L675.353102,775.398982L688.674962,766.778393L698.981444,759.946417L712.504710,750.973933L732.433028,737.339236L740.968016,731.005684L745.956879,726.988565L753.497475,720.479064L769.296906,706.814942L786.641093,691.303468L804.099354,676.202448L798.087390,675.205486L789.802305,675.352098L788.099174,675.205486L783.849872,674.061911L783.059415,673.592752L780.246558,671.158988L778.106387,670.367282L772.057720,670.191347L767.349200,667.610969L763.620547,666.819262L762.818675,665.529072L757.571836,664.414817L754.809046,662.303595L749.341104,657.465376L744.797270,653.125634L739.982334,644.739364L738.894827,642.129647L774.617318,520.468036L780.094387,501.818209L780.026562,460.061050L777.168917,445.692265L696.153367,447.803600L705.934644,420.385484L709.608010,410.121970L721.876311,377.571797L728.298501,359.038608L733.196194,345.901106L738.035234,331.678539L755.778166,283.702667L770.223155,244.641207L775.353693,229.626491L812.948974,127.747833L825.264877,81.910401L841.636986,33.550324L838.497652,33.579651L809.241142,33.755614L788.538777,33.902249L758.061370,33.667632L730.560587,35.221968L724.881048,35.221968L711.717034,35.221968L698.229387,35.251295L690.471569,34.488791L682.597012,34.371482L695.193405,10.176570L494.327686,2.287531L435.894432,0.000000Z "/></g><g fill="#000" font-family="Arial" font-size="12px" id="mylayer-label" stroke="none"><text text-anchor="middle" y="466.86157456"><tspan dy="0" x="502.806515689"><![CDATA[N]]></tspan></text></g></svg>