<?xml version="1.0" encoding="utf-8"?><!DOCTYPE svg  PUBLIC '-//W3C//DTD SVG 1.1//EN'  'http://www.w3.org/Graphics/SVG/1.1/DTD/svg11.dtd'><svg enable_background="new 0 0 1000 1001" height="1001px" pretty_print="False" style="stroke-linejoin: round; stroke:#000; fill: none;" version="1.1" viewBox="0 0 1000 1001" width="1000px" xmlns="http://www.w3.org/2000/svg" xmlns:xlink="http://www.w3.org/1999/xlink"><defs><style type="text/css"><![CDATA[path { fill-rule: evenodd; }]]></style></defs><metadata><views><view h="1001" padding="0" w="1000"><proj flip="auto" id="robinson" lon0="-111.833636336"/><bbox h="0.43" w="0.38" x="-1514.3" y="-697.86"/></view></views></metadata><g class="" id="mylayer"><path d="M571.253968,0.000000L549.377952,41.314811L506.512183,36.198167L500.151337,51.700853L496.694563,60.063162L482.437117,93.550749L470.375149,93.245274L372.998851,90.916026L358.957064,91.336054L319.444229,90.992395L295.457422,121.807300L272.767691,149.987669L257.931910,176.526264L239.386111,213.375093L183.778355,323.808947L165.222516,360.620873L109.315209,468.652746L79.430523,526.316702L52.810780,577.756672L68.368692,593.108588L98.174457,615.296408L53.893878,704.430755L56.775122,706.187492L91.908312,705.996542L173.633927,706.302062L173.017480,708.593459L171.497618,716.384219L169.481401,731.316550L168.789696,736.395846L168.474872,739.030972L213.806523,738.763640L218.941810,705.767402L230.025021,705.881972L242.220317,706.302062L251.440625,704.774464L270.264514,705.041794L293.765830,705.385503L349.377374,706.072922L380.235249,706.263872L353.722700,765.611464L341.698088,787.532859L252.983694,807.506634L252.853301,811.974967L256.274559,830.001113L257.726154,833.591076L259.344161,850.547959L379.984925,817.398080L378.880268,819.842301L377.683768,822.783008L370.955395,839.281554L359.018863,871.209480L347.609600,900.960720L342.555986,913.067512L340.251935,917.956068L339.655596,919.140016L336.591372,925.097954L334.836477,928.267886L333.293189,931.017708L329.824348,936.899278L315.785810,959.241683L312.407622,964.817755L309.987567,969.057102L313.820197,972.570798L318.121315,975.091495L318.930794,977.192077L320.643493,981.584207L324.253567,987.236693L327.268195,989.986554L332.339478,991.857988L349.101432,993.958579L350.552526,994.722430L352.780054,995.830015L356.279463,999.000000L354.891756,993.271113L355.947797,978.605197L527.038244,949.731824L534.543983,931.246860L536.300515,919.903854L540.008469,910.279509L543.393981,903.557758L547.284168,898.096343L549.284716,894.124409L550.896037,888.663006L550.111440,877.778413L550.896318,874.837668L560.864007,855.551017L562.283731,851.349976L564.717527,846.957983L570.888518,840.236333L577.397164,834.163942L584.872531,823.470446L588.733059,816.748833L592.365161,808.155879L596.016974,792.612223L597.693095,786.959999L601.271352,779.856539L603.650678,776.075670L618.921610,759.080897L625.818924,753.619669L629.106220,749.418730L629.468023,747.318262L629.104347,744.835892L627.800467,741.895241L627.146372,735.402900L626.056637,729.712563L623.075380,720.928836L622.325175,714.627478L623.056421,705.385503L623.102973,705.041794L624.704731,705.003604L629.434295,704.850844L631.023642,704.774464L666.585015,704.927224L669.483297,699.236928L710.215910,619.077132L743.768570,553.048605L765.932810,509.437502L768.511290,504.320292L775.245158,489.197826L795.473462,443.716193L802.195339,428.555758L846.688547,343.093163L848.079759,340.458285L886.638461,266.338687L944.137252,155.906334L947.189220,149.223971L934.454731,150.064039L918.665392,150.560443L879.218430,150.713182L874.383154,150.636813L858.067845,150.293148L831.823600,150.560443L826.776586,150.904107L828.724980,147.352911L795.866339,147.620205L641.555564,147.925684L710.934891,8.744044L571.253968,0.000000L571.253968,0.000000Z " data-aland="3594106" data-awater="0" data-classfp="C1" data-funcstat="A" data-geoid="4957850" data-intptlat="+41.5677919" data-intptlon="-111.8329780" data-lsad="43" data-mtfcc="G4110" data-name="Paradise" data-namelsad="Paradise town" data-pcicbsa="N" data-pcinecta="N" data-placefp="57850" data-placens="02413112" data-statefp="49"/></g><g fill="#000" font-family="Arial" font-size="12px" id="mylayer-label" stroke="none"><text text-anchor="middle" y="447.659163043"><tspan dy="0" x="475.880335061"><![CDATA[Paradise]]></tspan></text></g></svg>