<?xml version="1.0" encoding="utf-8"?><!DOCTYPE svg  PUBLIC '-//W3C//DTD SVG 1.1//EN'  'http://www.w3.org/Graphics/SVG/1.1/DTD/svg11.dtd'><svg enable_background="new 0 0 1000 1001" height="1001px" pretty_print="False" style="stroke-linejoin: round; stroke:#000; fill: none;" version="1.1" viewBox="0 0 1000 1001" width="1000px" xmlns="http://www.w3.org/2000/svg" xmlns:xlink="http://www.w3.org/1999/xlink"><defs><style type="text/css"><![CDATA[path { fill-rule: evenodd; }]]></style></defs><metadata><views><view h="1001" padding="0" w="1000"><proj flip="auto" id="robinson" lon0="-112.144350773"/><bbox h="0.17" w="0.35" x="-1515.93" y="-702.77"/></view></views></metadata><g class="" id="mylayer"><path d="M1000.000000,516.054960L660.753731,521.766746L683.784069,474.736797L785.633669,264.787793L690.085816,266.630227L621.361276,267.873871L275.283976,274.184213L273.617422,274.230274L232.829918,275.013310L225.743403,275.197554L207.218839,312.737326L206.714867,313.796734L202.435976,322.456250L128.276311,323.792028L118.578581,324.897499L120.927815,335.537671L131.693225,384.086570L134.621060,397.628743L139.106521,418.356617L140.812939,426.371414L143.854951,440.512490L145.988465,450.231621L147.742156,458.154336L128.431532,496.340126L117.680413,517.575032L64.974307,610.576510L43.367311,648.625078L16.108146,702.427824L3.803122,726.703707L0.000000,734.212207L0.000000,734.212207L114.723381,732.093243L159.945425,731.310148L165.747761,731.171954L177.902032,730.941632L188.260389,730.711310L605.599503,723.018557L608.756360,722.972493L624.675116,690.359015L651.741552,634.759894L657.176361,634.667766L687.063348,634.207130L704.067669,633.608302L722.106209,633.377983L863.546166,631.166928L912.882261,630.706291L916.235867,630.798418L925.756006,630.936609L943.762056,630.844482L946.012658,626.145991L1000.000000,516.054960Z " data-aland="1576310" data-awater="0" data-classfp="C1" data-funcstat="A" data-geoid="4961260" data-intptlat="+41.8752278" data-intptlon="-112.1429973" data-lsad="43" data-mtfcc="G4110" data-name="Plymouth" data-namelsad="Plymouth town" data-pcicbsa="N" data-pcinecta="N" data-placefp="61260" data-placens="02412492" data-statefp="49"/></g><g fill="#000" font-family="Arial" font-size="12px" id="mylayer-label" stroke="none"><text text-anchor="middle" y="503.346425541"><tspan dy="0" x="446.015149878"><![CDATA[Plymouth]]></tspan></text></g></svg>