<?xml version="1.0" encoding="utf-8"?><!DOCTYPE svg  PUBLIC '-//W3C//DTD SVG 1.1//EN'  'http://www.w3.org/Graphics/SVG/1.1/DTD/svg11.dtd'><svg enable_background="new 0 0 1000 1001" height="1001px" pretty_print="False" style="stroke-linejoin: round; stroke:#000; fill: none;" version="1.1" viewBox="0 0 1000 1001" width="1000px" xmlns="http://www.w3.org/2000/svg" xmlns:xlink="http://www.w3.org/1999/xlink"><defs><style type="text/css"><![CDATA[path { fill-rule: evenodd; }]]></style></defs><metadata><views><view h="1001" padding="0" w="1000"><proj flip="auto" id="robinson" lon0="-85.6098789056"/><bbox h="0.74" w="1.13" x="-1166.02" y="-680.43"/></view></views></metadata><g class="" id="mylayer"><path d="M1000.000000,633.020117L955.342267,633.151808L950.868945,645.706459L949.230641,650.315721L945.145392,650.418149L935.399421,650.681536L893.921802,651.735085L880.095923,652.086268L871.873212,652.071636L847.205079,652.027738L841.476087,652.013105L838.789606,652.671574L813.204563,652.598411L805.111375,674.518336L795.582163,674.518336L717.240238,674.518336L707.179138,702.013998L733.429902,702.013998L754.488340,702.013998L745.657220,727.929936L730.600804,727.856768L685.395419,727.637263L670.326959,727.564094L669.688454,727.564094L667.759552,727.534827L667.114353,727.520193L664.541553,725.134906L661.102707,723.305702L656.469858,721.974043L651.420715,720.232646L650.738037,719.925341L647.557565,718.476618L646.169460,716.310854L645.133402,715.388943L643.168417,709.828223L638.754017,699.043437L635.752202,683.576168L635.530078,682.010430L635.443150,680.503227L636.656133,676.069429L624.436422,675.849934L604.293784,675.454844L602.673810,680.078869L597.807331,693.936433L596.180754,698.545905L604.383523,698.516639L605.581546,698.502005L602.165154,708.628282L610.029280,709.096551L606.706754,717.583972L602.793977,727.520193L601.581219,727.476292L589.244822,726.686074L586.080407,726.642173L583.304181,726.656807L582.549225,726.217797L581.924110,725.851955L571.425722,719.676570L567.916018,717.613239L493.388987,672.557523L497.734460,647.652589L482.227394,647.594059L476.627907,659.270916L453.529671,643.057971L458.826659,625.660060L504.482828,625.630795L519.548422,582.012900L523.756810,569.795530L525.788830,563.489373L531.873094,544.571129L533.898593,538.250491L540.273997,518.703573L545.691873,502.068493L525.301422,502.287952L513.896515,536.816648L502.930877,569.985739L492.432934,570.000371L480.482710,570.000371L470.965899,570.000371L469.676913,570.000371L473.809029,559.143853L470.409240,559.085328L467.563593,559.026802L474.331313,538.967414L481.576405,517.474588L486.628703,502.463519L478.888286,502.448888L455.667036,502.404996L447.914573,502.390366L445.853326,502.361105L439.626760,502.258691L437.558826,502.214799L436.884914,504.087513L434.863201,509.705675L434.364820,511.066327L434.177258,511.578402L432.013645,517.386803L425.702675,517.416064L419.607211,517.416064L421.678237,512.353829L422.094863,511.315049L416.083554,511.841754L410.801941,511.724709L410.547409,512.353829L408.464318,517.416064L406.524852,517.416064L405.681606,517.416064L405.356354,517.416064L400.675674,517.401434L398.729521,517.386803L395.549279,517.386803L386.000537,517.342911L382.813608,517.328280L387.994573,503.282831L390.177153,497.357463L403.332564,461.118340L408.140565,447.863645L408.435372,447.059005L408.691333,446.327515L418.406466,418.004612L431.552529,379.632378L459.952313,379.939585L469.114459,350.140974L441.769427,350.243373L443.662446,344.421257L456.093991,306.168701L457.045993,303.243132L458.722083,298.079522L391.142170,299.703204L389.707285,304.208569L388.428016,308.158093L364.959222,308.465279L294.574262,309.328325L271.104129,309.606255L271.442009,308.684697L271.943510,307.251164L272.424880,305.905400L272.756081,304.969217L276.253135,295.168603L279.138576,287.430570L279.632018,286.084831L282.323122,278.844198L285.942208,269.073079L296.255825,240.915790L304.746094,217.995574L311.063238,200.443731L312.464875,196.523859L319.673978,175.359724L320.030816,174.321273L303.947036,174.101882L281.715102,173.765483L276.948059,173.692353L272.193061,173.619223L264.702557,173.516840L257.224099,173.414458L255.699763,173.399832L252.746135,173.341328L246.183090,173.238945L239.614679,173.151189L238.584184,173.136563L237.541643,173.121937L215.181285,172.741660L207.008279,172.595400L208.755893,177.582889L210.538034,182.936056L212.567477,193.525459L213.687183,200.619248L214.197627,213.183415L213.254326,228.102641L207.571263,265.635656L201.128128,305.378797L200.956222,306.241840L200.415098,308.801720L200.236513,309.650139L198.839678,318.880392L194.653815,346.527748L193.250696,355.743693L191.428665,367.285679L185.974229,401.883131L184.146137,413.410989L193.977967,413.996163L223.460115,415.722427L226.919874,415.912609L232.831642,416.117420L233.349618,416.117420L233.162033,416.497784L231.572583,420.374578L228.822158,427.879505L215.825516,463.181172L211.491356,474.943778L210.306648,478.177054L209.125986,481.366450L206.183764,487.818422L204.708663,491.022476L197.938665,491.022476L177.616627,491.022476L170.834583,491.022476L169.951171,491.066368L167.310329,491.139520L166.425592,491.154150L165.032201,491.241933L160.862748,491.476019L159.462671,491.549171L162.284369,482.566133L163.851442,477.533324L154.443359,477.533324L151.869833,488.008616L150.433618,493.802258L150.058126,495.353087L149.665230,496.918548L150.897321,498.323076L150.844317,500.078739L150.703033,504.672737L147.611440,513.012211L147.352816,513.685224L145.019624,517.225864L140.955986,523.385437L133.385153,530.437533L131.052782,532.134725L126.784359,535.236497L119.707292,539.494132L110.341341,543.883465L98.240503,549.062901L87.063798,552.837760L82.658994,555.588441L81.413790,556.554107L78.154844,559.070697L70.043363,566.020610L66.062382,570.015002L65.596389,570.497842L64.483651,571.595205L64.171663,571.887836L63.685610,572.326782L60.425146,575.340882L58.810435,576.526040L57.066425,579.774258L55.004977,583.593121L53.205615,588.143586L45.243795,599.717364L40.726774,605.701833L37.657421,609.740270L34.587987,614.042102L33.750569,616.427138L33.103432,618.226893L32.404282,623.392060L32.098322,625.674692L31.419324,630.752102L24.309391,646.086905L17.254245,662.490123L16.600427,664.538714L15.749757,666.894598L14.749550,667.948163L13.731937,669.016362L6.580549,676.537684L0.000000,737.515044L11.085772,739.680851L15.600671,740.544248L17.150700,740.851560L17.907916,743.061275L19.530821,747.349015L21.540228,753.773341L22.083555,754.592848L24.252872,757.783077L27.296181,761.778193L28.595498,764.646491L28.948707,765.787959L30.385658,770.353843L32.292169,777.158802L33.937318,777.173436L35.575775,777.173436L37.413684,777.188071L52.772871,777.290511L57.882339,777.319780L58.225025,777.305146L59.234344,777.246608L59.570339,777.217339L71.975259,776.997824L80.451363,776.749040L90.904555,776.792943L101.438581,784.022343L94.493994,795.525094L97.699575,799.900855L107.587295,792.568904L118.671761,799.578892L132.951499,808.623163L158.571762,785.558963L171.630995,773.807537L175.354749,776.470987L181.163945,780.612518L186.519415,784.446742L190.236541,787.095585L193.924214,773.266067L203.184789,772.256300L208.920774,771.627025L214.616519,757.709906L222.721840,756.729422L260.111873,753.714805L264.768890,753.334320L271.744928,734.076102L272.082298,733.680990L272.332680,733.095640L272.968683,731.588364L273.573918,729.934753L273.947509,728.881126L281.683195,728.910394L304.866161,728.998196L297.803153,749.119725L307.525375,749.119725L314.312561,729.027463L317.909341,729.042097L321.222342,729.042097L333.884030,729.042097L339.214282,729.027463L332.151637,747.568525L329.574361,754.314801L311.363359,803.193664L304.452035,821.721394L306.544323,822.423874L351.258603,822.409239L492.646104,822.321429L539.780623,822.277524L578.512514,821.853109L658.160902,820.960375L674.422952,776.763674L682.028740,756.070888L689.496001,764.178197L693.432078,753.056273L694.852089,748.944118L699.081440,736.593114L700.494828,732.466389L712.305193,732.554191L747.740306,732.773697L759.543980,732.846866L762.506289,733.081006L763.243855,733.139541L757.788637,746.207568L769.944403,746.075862L777.378947,745.973425L781.814151,734.046835L804.089625,734.310242L811.514784,734.398045L809.164749,740.822292L806.597952,747.773400L802.801372,757.987954L828.337835,757.900149L874.495418,757.724540L879.566031,757.695272L871.435921,780.056411L854.774534,825.848468L862.968309,825.877739L880.560628,825.936279L888.599206,807.379205L891.608219,799.447180L897.987545,781.739369L898.617734,779.983239L900.160674,777.114899L914.811076,734.983396L915.923092,731.910306L914.026315,731.924940L910.045357,731.939574L908.028107,731.954208L905.028332,731.954208L908.400718,723.788612L910.360124,720.935058L912.547117,718.315649L913.842717,716.749860L915.732597,714.613367L918.017298,711.759838L921.098305,707.091774L922.939947,704.165099L924.802959,700.521400L935.132562,677.093737L937.597931,671.474687L939.096117,678.542403L936.121088,688.814820L932.779465,699.892168L932.094510,704.794333L932.035932,708.511215L931.883665,712.154941L932.669964,717.876642L932.806602,718.886358L933.011733,722.047211L933.022594,723.466672L932.484839,726.715341L932.290815,727.344589L932.007137,728.251878L931.156110,730.973747L930.865741,731.866405L930.628884,732.481022L929.875477,734.310242L929.619879,734.910227L928.422199,737.822354L927.588481,739.607682L895.080815,826.126534L902.114007,826.199710L914.619542,826.331425L921.725021,826.404600L923.955641,822.643399L925.009818,819.760308L929.215909,808.257292L949.295705,753.348954L955.991440,735.041931L962.353758,735.071199L963.693210,731.442027L965.230718,727.271421L1000.000000,633.020117Z M831.355325,748.300223L836.286761,734.983396L847.957926,735.056565L842.658460,748.622170L831.355325,748.300223Z M853.497103,748.929484L858.622472,735.115100L870.178518,735.173635L866.179973,746.105130L878.483048,746.558782L877.404501,749.573379L853.497103,748.929484Z M756.032601,727.988471L760.654199,715.915749L766.206199,701.399398L781.072393,701.399398L779.632189,705.072367L774.890050,717.144965L772.998913,723.071564L771.396894,728.076273L760.913087,728.017739L756.032601,727.988471Z M362.446617,730.988381L363.122702,729.832317L365.130891,726.320232L365.805645,725.134906L368.162163,718.696121L375.231972,699.380002L377.576613,692.941374L379.946887,685.346771L384.406392,670.991802L391.405715,670.991802L397.670170,670.991802L400.438299,671.064966L403.585242,671.123498L407.595101,665.270355L409.752003,662.109671L411.134718,662.182835L415.258771,662.402326L416.629440,662.475490L419.473542,656.022454L427.987353,636.648951L430.824927,630.181441L477.226189,670.011398L542.618133,718.827823L575.154800,733.651723L567.389634,735.480945L362.446617,730.988381Z "/></g><g fill="#000" font-family="Arial" font-size="12px" id="mylayer-label" stroke="none"><text text-anchor="middle" y="589.365433522"><tspan dy="0" x="371.974112253"><![CDATA[N]]></tspan></text></g></svg>