<?xml version="1.0" encoding="utf-8"?><!DOCTYPE svg  PUBLIC '-//W3C//DTD SVG 1.1//EN'  'http://www.w3.org/Graphics/SVG/1.1/DTD/svg11.dtd'><svg enable_background="new 0 0 1000 1001" height="1001px" pretty_print="False" style="stroke-linejoin: round; stroke:#000; fill: none;" version="1.1" viewBox="0 0 1000 1001" width="1000px" xmlns="http://www.w3.org/2000/svg" xmlns:xlink="http://www.w3.org/1999/xlink"><defs><style type="text/css"><![CDATA[path { fill-rule: evenodd; }]]></style></defs><metadata><views><view h="1001" padding="0" w="1000"><proj flip="auto" id="robinson" lon0="-86.1147683661"/><bbox h="1.49" w="1.99" x="-1178.85" y="-665.76"/></view></views></metadata><g class="" id="mylayer"><path d="M1000.000000,249.013980L937.355390,250.643827L932.959231,250.643827L932.597694,250.736241L929.881814,250.736241L928.276975,250.736241L926.190090,250.820254L920.641728,250.937872L918.244263,250.988280L917.734783,251.072292L917.538817,251.240318L917.195851,251.828409L916.843052,252.836566L916.811690,252.945783L915.038894,258.129417L914.449933,259.851704L914.221601,260.523817L913.682625,262.103286L919.820838,261.985666L918.495960,266.026773L913.837179,266.110788L912.303846,266.161197L912.944725,264.270862L899.953058,264.472498L898.421687,264.497702L868.604525,264.959784L867.358942,268.597637L862.551234,268.597637L865.218851,260.817867L865.924480,258.801528L866.339041,257.616932L867.276958,254.936898L870.530882,245.443455L871.167986,243.427168L872.033448,240.915220L887.734022,240.184321L888.040321,251.517561L901.213157,251.248720L912.119840,220.047135L914.894473,219.937924L926.493618,219.677497L928.925424,212.965257L947.211200,212.704833L950.631120,202.934839L951.877979,199.372989L952.301446,198.163309L953.463052,194.845102L941.172404,195.004712L935.130443,195.063515L935.705896,193.341415L937.541978,188.351550L955.834395,187.914729L956.208880,186.805877L959.614561,177.078307L961.038058,173.012599L961.943935,170.425345L964.346893,163.680056L966.424432,157.825241L966.647977,157.186843L937.369384,158.035240L933.700370,158.152840L944.535912,127.174498L936.549477,127.342489L935.245503,127.384486L911.443871,128.006054L880.080912,128.913207L860.297905,129.534776L856.404579,129.685968L855.990169,129.694368L849.985663,129.744765L848.149720,129.778364L845.944430,129.828761L844.452326,129.937956L840.273961,129.963155L839.624416,129.996753L838.741707,130.030351L837.830593,130.047150L837.350548,130.047150L830.625923,130.215142L827.341988,130.290739L826.215340,130.315937L823.659304,130.408333L821.015113,130.458730L818.965605,130.475530L818.089753,130.509128L803.715689,130.803114L779.861125,131.281891L757.523906,132.147052L750.624850,132.382241L745.634260,132.533434L738.432460,132.810622L736.807133,132.869419L721.638392,133.415396L713.953595,133.700983L713.464719,133.726182L707.598238,133.969772L705.815179,134.028569L697.699306,134.330957L695.875100,134.389754L689.150417,134.616545L688.664484,134.633344L685.703823,134.725740L670.137298,135.271718L663.923000,135.548907L659.790593,135.716901L657.984985,135.800897L649.266520,136.237680L647.543235,136.262879L646.390151,136.246080L643.782208,136.271279L637.893254,136.363676L622.150493,136.649265L616.387921,136.733262L616.378119,136.741661L614.333487,136.783660L592.711497,137.270842L582.382743,137.077649L578.816676,137.077649L570.002240,137.396837L559.953491,137.539632L559.683092,137.548031L557.893200,137.548031L554.333924,137.665627L554.104672,137.674027L545.859361,138.110811L542.520504,138.245207L541.445766,138.278805L529.498226,138.673592L526.964778,138.623193L525.940988,138.648393L514.007295,138.807987L509.256759,138.841586L505.450665,138.841586L503.420747,138.841586L498.647699,138.841586L495.369622,138.900384L492.186585,138.942383L487.789712,138.984381L484.323564,138.992781L475.661913,139.345569L474.361833,139.395967L466.047306,139.227973L465.882718,139.227973L465.136220,139.185974L464.497472,139.169175L455.138437,139.261572L443.738712,139.345569L441.902788,139.320370L436.065768,139.362368L424.773791,139.471565L420.038906,139.538763L414.915100,139.580761L398.545418,139.639559L393.026686,139.849553L392.360469,139.891551L391.777553,139.891551L389.386030,140.042746L387.975215,140.135143L387.559794,140.185542L385.682569,140.395535L375.087833,140.941518L365.406505,140.975117L361.933494,140.983517L360.324808,141.033915L356.052296,141.151512L354.473986,141.193511L354.295682,141.193511L352.985835,141.193511L344.573244,141.168311L333.803373,141.353106L328.140694,141.445503L320.103266,141.504301L318.112516,141.529500L317.080895,141.537900L312.611520,141.571499L310.818679,141.579899L306.693122,141.689096L306.587310,141.697496L294.262554,142.033486L281.490267,142.100684L279.706260,142.083884L275.512206,142.075485L267.349270,142.277079L264.957733,142.428275L264.558001,142.453474L260.638302,142.386276L257.053500,142.537472L245.747732,142.705467L228.359846,143.125455L220.004836,143.385848L218.567350,147.720150L218.316440,149.198523L218.148518,149.736114L217.785200,150.870097L209.297477,175.255455L208.647637,177.128708L207.942861,179.119571L206.760341,179.127972L196.155869,179.211975L192.615168,179.237175L190.962391,179.237175L181.845731,205.186208L201.092221,204.043721L202.512852,204.001718L200.832634,208.756493L195.845222,222.869829L194.540564,227.355923L193.183922,232.010071L191.122121,238.050436L180.979709,266.253614L180.087801,268.916895L171.500775,292.920571L168.157673,302.288734L167.452387,304.263208L163.707329,314.740634L151.842764,347.955365L137.275966,388.701155L134.907714,388.667542L128.764002,406.650679L126.102177,414.432333L118.025173,414.953354L115.709489,421.785500L114.731056,424.836040L113.538955,428.340398L147.052247,427.046220L146.367013,429.180775L146.048414,430.189228L146.092434,430.710263L146.161902,431.432990L143.820060,438.635093L138.878583,438.819979L136.647422,438.904018L133.126552,448.946772L144.353945,448.518166L143.816808,450.190572L139.591584,461.502549L139.444571,461.922760L138.981973,463.225417L138.442932,464.746588L137.588316,467.150213L136.681760,469.839595L121.774794,470.158960L115.188050,489.791820L111.346684,501.264227L114.882165,501.196989L117.616086,501.146560L119.492595,501.037298L121.888450,500.894417L125.092723,500.793560L126.078502,500.759941L120.710905,516.342577L120.394428,517.267126L116.931905,527.285962L115.370191,531.614621L104.903708,531.925614L105.729858,533.152774L104.817631,534.329505L110.970361,544.020813L107.330076,554.863830L106.372040,557.721712L104.855669,562.235511L101.300941,572.658565L100.339068,575.449284L98.039250,582.106713L95.294859,590.075550L93.883527,594.152474L88.808540,609.123845L82.434898,609.283564L78.963266,619.354354L74.003716,619.648578L72.256670,624.608379L75.572877,624.541127L77.374052,624.490689L78.414774,624.457063L79.032156,624.457063L82.736448,624.457063L84.519997,624.457063L83.578972,627.248019L82.620335,630.089427L80.735403,635.620963L79.780716,638.411971L79.242114,639.757039L76.872626,646.734628L74.473854,653.796365L73.798280,655.729950L70.126804,666.238672L69.233973,668.912120L68.297099,671.711686L65.515935,680.026390L65.192878,680.951187L63.514018,685.835820L62.828784,687.836765L62.281584,689.442570L60.856316,693.562195L59.018030,698.942971L57.547824,703.230811L56.334237,707.098300L55.672573,709.032053L52.986827,716.859614L52.585540,718.028292L51.274096,721.979953L50.451954,724.334146L48.935026,728.874400L48.660895,729.462954L46.954212,734.684294L46.566684,735.853005L45.072352,740.309265L43.239472,745.774533L42.417433,748.128817L39.961267,755.359889L39.294861,757.268570L36.761406,764.524975L35.186105,769.233697L30.957331,781.661531L29.932948,784.655012L26.820786,793.786900L24.247827,801.354866L22.378981,806.316138L21.317645,809.553600L20.054816,813.388123L18.716471,817.104942L18.486568,817.744035L16.196856,824.816151L14.954400,828.179850L10.396419,841.634828L8.688625,846.529149L7.051296,851.221678L5.308377,856.216991L5.114722,856.772029L0.392155,870.681762L0.000000,871.825502L3.361794,871.825502L8.411255,871.707764L10.418491,871.657305L19.864733,871.522747L20.670381,871.514338L33.999789,871.320911L46.172746,871.236812L64.030230,870.984517L79.420755,870.723811L83.563637,870.648123L99.676576,870.479926L99.667727,870.446286L107.139985,870.286499L108.652294,870.278089L123.535206,870.135122L128.736536,869.975335L131.333206,869.218450L133.125971,868.209271L140.116661,847.185091L141.204963,843.947431L150.941867,814.977439L153.259887,808.334295L155.529218,802.027578L165.981592,771.134012L170.720266,757.125629L172.363910,752.417001L174.163908,746.867592L174.451559,746.043593L175.314517,743.571603L175.602172,742.747609L179.547285,731.447226L182.500402,722.988891L183.703996,719.541691L184.496619,717.271594L191.253685,697.547328L195.124274,686.247779L197.558375,679.278146L258.142637,680.211349L294.750322,679.496734L327.678100,678.849377L332.705963,664.372310L365.849526,662.732943L366.187131,661.766138L366.856475,659.849348L367.696101,657.444961L370.262015,650.097350L372.153628,644.464801L373.603932,640.135340L373.912217,639.252638L375.059129,635.713436L375.624759,633.956453L379.695405,622.439512L381.256579,618.009331L381.683342,616.807219L382.761009,613.722089L387.262734,600.835326L388.763377,596.539799L388.895529,596.161525L389.300797,595.001486L389.435887,594.614807L389.700194,593.858262L389.782423,593.622892L390.817134,590.621940L391.159755,589.621626L392.717252,585.124435L392.781864,584.939505L426.192833,583.905576L456.257272,582.947303L453.641792,590.453820L450.733740,598.759010L449.617955,602.012188L448.988650,603.911984L448.473865,605.483944L447.987793,607.720001L445.778695,613.789339L448.231500,613.680057L456.438546,613.318585L457.158661,612.965520L457.644423,612.301421L460.029860,610.578131L479.084005,596.758357L479.427192,597.229098L479.893930,597.876368L486.859250,597.397220L486.286744,599.154098L486.369060,599.154098L486.301528,599.347439L486.283911,599.397876L485.358034,602.029000L482.586351,609.905628L481.656601,612.528391L483.340149,612.461141L483.774262,612.435922L488.372189,612.293015L489.366825,612.234171L485.694207,623.044777L478.498483,623.456693L477.555755,623.465099L471.797833,639.815886L473.004211,639.857919L476.684961,639.748632L476.482441,640.387540L475.893485,642.270643L474.810549,645.843509L469.683309,645.910764L468.331861,649.466838L468.248074,650.374775L499.335753,649.592940L501.716040,649.416397L501.481929,653.073374L501.439260,653.863620L501.351845,655.233943L501.092559,659.336523L501.008096,660.698452L500.946839,661.522335L500.751305,663.968773L500.703634,664.557265L500.686129,664.784254L500.605110,666.961679L500.577104,667.651058L500.359071,673.325857L500.351329,673.485592L500.340688,673.712585L501.745998,673.695771L503.650107,673.645328L505.009342,673.603292L565.213541,671.871422L565.976944,671.846200L566.867714,671.770536L567.213573,644.742224L567.643534,610.485661L577.903582,610.157817L577.881801,609.729097L591.490293,609.241533L609.638936,608.737157L611.726211,608.653095L673.357734,606.442253L742.109143,603.642986L743.075665,600.835326L747.537682,587.839558L747.770510,587.133456L748.752815,584.359496L749.538446,582.089901L751.458997,576.491604L752.817012,572.524073L720.409919,573.591605L730.283861,543.827490L730.884900,542.440607L733.287635,542.356553L740.682994,542.079177L741.206262,542.053961L743.064694,520.847664L748.777633,501.196989L754.101280,492.792275L758.040654,484.992805L758.499740,483.580842L759.830031,479.479446L765.681906,479.437424L766.808709,479.235717L768.347100,425.928523L768.384068,424.684773L768.481272,420.953537L768.521190,419.701393L768.450292,417.961842L770.519721,417.869402L772.694972,417.768558L775.034838,417.667715L774.840422,425.071344L775.903501,424.777214L804.317225,424.197358L804.913957,424.197358L805.607221,422.155261L806.663766,418.995487L806.956551,418.138318L807.547988,416.348349L809.653688,416.348349L810.643319,416.264313L815.410294,416.264313L818.256760,416.264313L818.874067,416.264313L824.841359,416.264313L831.661101,416.180277L839.935926,416.113049L832.127372,438.492227L856.425052,438.483823L857.922089,434.475175L846.627235,434.508790L847.234208,432.575909L853.300095,416.045820L856.314129,416.096242L857.249884,416.087838L858.634409,416.071031L861.393663,416.045820L869.667501,415.961784L872.422833,415.928170L873.406601,415.919766L876.336344,415.877748L877.316190,415.860941L882.987546,415.785309L884.141804,415.760098L899.290249,415.592026L899.976144,415.592026L900.319092,415.592026L905.614204,415.592026L906.835098,415.592026L911.940096,415.507990L925.383644,415.507990L931.024624,415.440762L932.340558,415.423955L937.368171,415.423955L938.582205,415.423955L944.055702,415.600430L946.587659,415.676062L948.283808,415.768502L948.951096,415.802116L954.945912,416.096242L963.980215,416.348349L970.653106,416.684493L971.396219,414.793686L973.335767,409.793581L973.620693,409.096091L974.380487,407.196904L974.921943,405.843947L975.516269,404.339732L969.103089,403.986788L967.448107,403.894350L976.125267,384.348308L979.833471,374.113358L980.885162,371.222731L988.947145,371.155507L989.179229,370.550494L989.277153,370.290002L989.572882,369.483319L989.669823,369.206022L990.491405,366.954039L992.489091,361.475368L992.906252,360.282167L984.487653,360.290570L961.226765,360.298973L961.903463,358.324315L962.457744,356.660565L968.577770,338.746139L969.997913,334.469274L969.411991,334.477677L942.744767,335.225496L951.021848,310.892449L952.821717,310.825232L961.902383,310.472343L967.075665,310.388321L972.009880,310.321104L973.003385,310.304300L978.411809,310.136258L982.413432,298.323000L984.642109,291.735908L989.569996,278.629153L995.208559,262.884621L995.615180,261.742024L999.296449,251.063891L1000.000000,249.013980Z M504.460412,620.615316L504.489565,620.119337L506.438703,620.077305L507.398084,620.060492L516.116780,619.883958L517.106536,619.858738L516.272780,622.187319L513.883655,622.271383L506.719214,622.515170L506.284112,622.523577L504.326164,622.590828L504.359239,622.103254L504.460412,620.615316Z "/></g><g fill="#000" font-family="Arial" font-size="12px" id="mylayer-label" stroke="none"><text text-anchor="middle" y="401.20435046"><tspan dy="0" x="478.277304976"><![CDATA[N]]></tspan></text></g></svg>