<?xml version="1.0" encoding="utf-8"?><!DOCTYPE svg  PUBLIC '-//W3C//DTD SVG 1.1//EN'  'http://www.w3.org/Graphics/SVG/1.1/DTD/svg11.dtd'><svg enable_background="new 0 0 1000 1001" height="1001px" pretty_print="False" style="stroke-linejoin: round; stroke:#000; fill: none;" version="1.1" viewBox="0 0 1000 1001" width="1000px" xmlns="http://www.w3.org/2000/svg" xmlns:xlink="http://www.w3.org/1999/xlink"><defs><style type="text/css"><![CDATA[path { fill-rule: evenodd; }]]></style></defs><metadata><views><view h="1001" padding="0" w="1000"><proj flip="auto" id="robinson" lon0="-76.7293598357"/><bbox h="2.2" w="2.28" x="-1055.61" y="-651.9"/></view></views></metadata><g class="" id="mylayer"><path d="M1000.000000,513.607720L997.048031,505.611107L996.333874,504.655077L995.400527,503.424838L994.436694,502.135312L994.388164,502.076023L994.246978,501.883336L994.200649,501.816636L994.142295,501.749937L993.973836,501.527605L993.919886,501.446084L992.662255,501.327507L991.400814,501.201519L981.038015,499.993518L972.136128,498.948562L947.114408,499.111605L943.968892,498.081472L941.959378,497.295904L936.301725,495.087426L936.032835,494.798397L934.223046,492.389829L932.413275,489.981269L931.970492,488.699177L931.529915,487.409676L931.157240,485.304978L929.593168,476.486060L928.534755,470.498147L927.656698,465.562600L927.845949,460.293606L930.492348,451.371229L933.801658,437.469127L935.079045,433.637943L937.761091,425.568063L939.084826,421.581322L945.004467,394.719531L950.962532,370.867055L951.375855,351.913059L948.311041,348.512060L942.835313,342.139858L937.437480,337.708987L931.385961,331.736984L926.874548,327.661823L917.536651,319.237423L912.753401,315.955118L906.006506,312.361641L902.498305,310.472293L900.349303,309.309051L897.351385,307.523439L895.211427,306.249064L892.032771,300.343991L890.758931,291.534626L890.997087,289.482333L891.888604,281.680707L893.288666,275.301659L893.773502,273.834708L895.290398,269.204200L897.041312,262.899345L900.464598,256.268561L904.245778,251.141783L909.352887,244.207353L909.895956,243.473907L910.140302,243.259060L912.834345,240.814247L913.728555,239.991903L917.832371,236.265434L931.289408,232.020395L932.983925,231.761100L934.678442,231.501805L936.468985,231.101750L939.770087,230.353501L943.325761,230.264600L945.466007,229.901588L950.210192,228.486584L957.431131,226.567813L960.977197,224.552739L964.612304,223.167378L969.239455,220.752264L974.672948,217.870435L979.407744,214.447815L984.958915,209.676916L988.046715,205.728352L989.000932,203.735558L989.921733,200.764897L990.987186,196.460794L990.628983,193.727219L989.545193,191.512216L987.687108,189.838004L986.975050,189.200915L983.795721,186.815542L979.587328,183.807908L974.050983,178.577914L973.247849,177.681559L972.448523,176.792613L970.305584,174.399871L967.884568,170.599650L964.498778,165.295670L958.629198,156.443441L956.369507,149.983972L956.371946,149.895081L956.283442,140.487469L956.452852,137.820766L957.126015,135.783708L958.360017,132.005906L962.541185,125.117020L964.777619,122.272596L966.135848,120.539280L966.822392,119.183741L967.514951,117.828205L968.303189,116.272674L975.921136,106.546977L976.455134,105.784037L982.365462,97.310275L985.888464,90.392082L988.267885,84.325754L988.280633,78.918690L986.754428,72.422858L984.779342,69.126818L984.687447,68.971275L982.844529,65.897455L979.279499,59.586905L978.937578,58.979554L977.927658,56.076129L977.051602,53.550454L976.435468,45.173571L976.570103,43.855202L977.020431,39.381653L974.678029,39.233523L969.819643,38.692847L968.641520,38.470652L965.720556,38.085514L963.066561,37.611498L957.121857,36.500524L949.032845,34.456336L946.701529,33.908257L938.904404,32.034425L931.832849,30.227255L929.101243,29.590303L926.797179,29.071854L923.013970,28.131240L916.135301,26.524052L908.183680,24.805772L904.544369,24.168824L898.069550,23.102308L896.008644,22.776429L893.683236,22.450549L891.288774,22.013575L889.412120,21.835823L887.740114,21.576601L886.044422,21.376630L883.785402,20.969281L878.324029,20.354556L873.249345,19.813894L866.782219,19.265827L862.778397,18.984387L859.201747,18.762197L857.440653,18.680728L855.844695,18.569633L853.316964,18.458539L851.310376,18.414101L849.688164,18.310413L847.794559,18.310413L845.235797,18.162286L843.190931,18.125255L840.415498,18.058598L835.875267,18.043786L833.027079,17.999348L830.609244,18.043786L828.287235,18.028973L827.182722,18.043786L825.641322,18.132661L823.503129,21.813604L822.438149,23.650379L819.749431,27.746107L819.015581,28.916319L816.798536,31.975173L815.097377,34.352645L809.705285,41.344382L808.937236,42.447957L808.519301,42.921976L805.352530,46.484536L800.946212,51.461780L800.202630,52.261697L798.127110,54.483694L796.332489,56.187229L795.219227,57.238979L793.214819,58.920300L792.783170,59.238789L791.782072,60.075748L790.279396,61.223791L789.444564,61.845957L787.132230,63.431001L783.876028,65.378981L780.644744,67.223270L776.914706,69.349023L773.974336,70.963710L767.176195,74.830086L762.256635,77.578040L759.826425,78.933503L755.325617,81.466671L750.331451,84.303533L748.144422,85.488648L743.160683,88.310711L738.242094,91.095750L733.163143,93.954869L726.554286,97.932471L722.495880,100.554589L717.276024,104.087796L712.762038,107.169181L711.642308,108.021008L710.900733,108.532105L710.131672,109.095053L709.370217,109.672816L708.560668,110.250579L707.799213,110.828342L706.928065,111.532029L701.982415,115.294914L700.501227,116.391191L695.756184,120.146692L692.524737,122.576297L688.604733,125.339242L686.344196,126.791088L683.729075,128.383677L682.967508,128.820714L681.771973,129.442937L680.836427,129.939233L679.938796,130.368864L679.034173,130.761457L678.104888,131.176273L676.590722,131.798497L675.161587,132.317018L673.957348,132.746650L672.961567,133.102207L671.733529,133.450357L670.762044,133.724433L670.024906,133.857767L667.764284,134.442956L664.898053,135.042961L660.717904,135.835560L651.881660,137.746692L650.808583,137.998546L649.115664,138.272624L645.460749,139.057819L644.617968,139.243007L643.853341,139.428195L642.871670,139.635605L642.058947,139.820793L641.059606,140.087463L640.227003,140.339319L639.299189,140.628212L638.497261,140.857846L637.624168,141.124517L636.750461,141.413410L635.949512,141.680081L634.978385,142.013420L634.298288,142.257869L633.440772,142.613431L632.350136,143.065291L631.638750,143.354186L630.704058,143.746786L629.822859,144.161609L628.953070,144.598655L628.157267,144.969033L627.324528,145.443118L626.550314,145.902387L625.919407,146.324619L622.873222,148.213554L621.186138,149.435809L619.348257,150.821033L617.539324,152.391451L614.649058,154.947091L611.182730,158.043501L608.288304,160.532491L605.342477,162.851111L603.110259,164.510447L599.743228,166.769817L597.422554,168.221744L595.811188,169.169942L592.519993,170.933002L589.797126,172.362713L587.373272,173.414627L584.607711,174.503581L582.204960,175.444380L579.788469,176.229614L577.060331,177.051888L574.210234,177.718598L570.870090,178.496427L568.215573,178.829783L565.750498,179.052020L563.200274,179.237217L560.992984,179.340928L557.450519,179.607613L550.580308,179.985416L550.080326,179.948376L542.737863,180.155798L536.304567,180.459522L529.407359,180.726208L526.596034,180.859550L522.569756,181.518855L519.987370,181.852212L516.966833,182.304096L513.890077,183.267128L510.210250,184.659823L507.458990,185.882137L504.408703,187.482261L503.572758,187.926740L502.243439,188.674947L499.543447,190.289893L491.621014,195.164382L484.736494,199.320316L482.622266,200.624143L478.478228,203.150315L472.962785,206.424720L461.568336,213.366211L439.747532,226.664122L434.463742,229.968264L435.201413,230.760963L437.683033,233.427997L440.630687,235.983913L446.897732,241.280983L452.186059,245.807601L455.456045,248.452461L456.902370,249.348901L464.332483,252.519787L470.191155,254.972046L476.488897,257.565079L482.832802,260.084033L484.010179,260.632277L486.172777,261.647271L488.324854,262.899345L492.662367,266.159193L493.219120,266.611127L497.667157,270.226613L499.118877,271.367570L499.726556,271.789872L500.274722,272.189948L501.021299,272.590025L501.868867,273.034554L502.585241,273.293863L503.415241,273.575399L504.210012,273.753211L505.013990,273.960658L505.755869,274.094018L506.752246,274.301465L507.996963,274.442233L509.200204,274.560775L509.947344,274.575592L515.106591,275.138665L517.682733,275.109029L518.905699,275.020123L521.469094,274.286647L525.817961,272.101042L526.984406,271.515746L529.025417,270.537783L531.036974,269.537595L532.557165,268.915257L533.717274,268.633723L535.050756,268.315145L536.245629,268.300328L537.996461,268.255875L538.699914,268.255875L538.944215,268.263284L540.767108,268.441095L542.372479,268.804125L543.622275,269.270879L545.227240,270.159934L548.094619,272.078816L550.061012,273.308681L552.324291,274.894173L554.750294,276.538938L559.108405,279.569169L561.133282,281.006496L562.628010,282.043744L563.933389,282.969859L566.053267,284.451646L568.983468,286.422426L573.582732,289.652740L575.971767,291.260493L578.252361,292.949748L579.511815,294.090739L579.986435,294.616781L580.499650,295.416957L581.064928,296.365316L581.516805,297.209949L581.866923,297.891584L582.064747,298.499128L582.255658,299.432672L582.450015,300.899673L582.528608,302.129585L582.585610,303.855911L582.660087,304.796871L582.757849,305.619286L582.799995,306.789932L582.880491,307.730896L583.037392,308.516268L583.261426,309.338687L583.438191,310.057379L583.733931,311.042802L584.077774,312.028226L584.674472,313.295202L585.265829,314.317676L587.550487,317.770386L589.020401,319.941305L590.574506,322.112229L591.389901,323.371813L594.318730,327.973016L595.287223,329.425253L596.585490,331.425789L597.349668,332.433468L598.046161,333.204047L598.766318,333.915352L599.428388,334.478468L600.560998,335.278687L601.417901,335.752891L602.697632,336.523474L604.368531,337.575617L604.851051,338.035003L605.195110,338.353611L606.138916,339.242747L606.880933,339.961467L607.597907,340.643140L608.282569,341.554508L610.305985,343.866275L611.146726,345.081438L611.667067,345.918716L612.469235,347.667370L613.101508,350.208853L613.755350,353.283837L614.647900,360.182219L615.049030,363.561041L615.535935,367.176991L615.689083,369.874145L616.345745,375.505596L616.597278,377.165400L616.783489,378.721469L616.755475,380.047836L616.451193,382.100374L615.952164,383.574945L615.300403,385.138437L614.640287,386.123958L613.722013,387.168760L612.531328,388.502551L611.651965,389.295417L610.385946,390.377272L609.437239,391.140500L608.450248,391.911139L606.056781,393.326449L604.705813,394.067450L602.619419,395.319743L600.979998,396.423837L599.186823,397.802105L597.755235,399.076634L592.796812,403.352251L586.378960,408.895028L584.774797,410.325190L583.120930,411.740534L582.274054,412.444502L581.281455,413.274443L580.051939,414.193309L578.793961,415.126995L577.790748,415.830966L576.709367,416.534938L575.885942,417.261141L574.616309,418.698728L573.297342,420.625396L572.173027,422.100042L571.168781,423.433894L570.610740,424.056359L570.234704,424.471337L569.812371,424.819621L569.271972,425.382805L567.615925,426.583277L566.399249,427.398414L564.935232,428.317296L562.818581,429.651159L562.307861,429.932753L561.800346,430.243988L561.278600,430.562634L560.738213,430.903511L560.087783,431.311081L559.441162,431.726063L558.510918,432.326303L557.943068,432.719054L557.480452,433.000649L557.079570,433.297064L556.535171,433.712047L555.957297,434.178902L555.490669,434.534601L555.012414,434.949584L554.464003,435.438671L554.078752,435.824013L553.701116,436.224175L553.479226,436.424257L552.966691,436.994860L552.018392,438.039731L551.323254,438.840059L550.070480,440.322150L548.676798,441.974685L547.373118,443.486424L546.261263,444.798082L544.502382,446.910079L543.141582,448.532986L542.242402,449.614926L541.351239,450.770973L540.937728,451.311944L539.996655,452.757006L539.621228,453.372085L538.910263,454.609654L537.986231,456.462307L537.532434,457.603543L536.821476,459.285757L536.201723,461.227349L536.000488,462.368592L535.874219,463.480195L535.889667,464.984565L536.175707,466.044296L536.472770,466.844654L537.177342,468.437960L537.942059,470.253592L536.567268,471.357795L535.831866,471.869138L532.301789,474.700056L529.632391,476.982585L520.151213,484.860324L518.346900,486.357326L517.488835,486.957610L516.077167,487.943262L514.899602,488.647300L513.383296,489.499557L511.207134,490.366638L507.189740,491.945171L505.353332,492.923419L503.965509,493.768270L502.749277,494.865096L501.323194,496.162020L499.078556,498.452024L496.757773,501.038476L494.595337,503.476715L493.521844,504.781065L491.844441,506.478206L490.405532,507.656572L488.588999,509.012807L486.205429,510.658079L483.446227,512.332999L480.808668,513.659598L478.365529,514.837975L476.697480,515.593916L474.263157,516.742652L472.293644,517.602352L469.613794,519.010483L467.786802,519.936886L466.724286,520.537196L453.850760,527.185106L445.363995,531.416972L443.167589,532.513851L440.759534,533.877542L439.892421,534.144351L439.119725,534.477863L437.757325,534.974425L436.000841,535.441342L431.779462,536.108366L426.860132,536.938442L425.532784,537.175607L419.764933,537.805576L413.647350,539.065516L410.400930,539.628784L407.930033,540.051235L404.914308,540.384750L401.895159,540.547801L401.815379,540.532978L400.532287,540.318047L400.020331,540.199464L399.209482,539.791835L398.504284,539.554670L397.600431,539.176688L396.407104,538.457780L395.658176,537.761108L394.459003,536.515993L393.615649,535.530278L391.030831,531.706014L389.836679,530.201512L388.974531,529.764244L387.479358,529.089813L385.934082,528.563610L383.833773,528.104108L381.529009,527.644607L378.201966,527.185106L374.595297,526.614436L371.913496,526.088234L369.753868,525.747315L366.793448,525.147001L362.163100,524.257647L360.588179,523.790737L359.527203,523.294182L358.485069,522.693870L357.854857,522.204727L357.287585,521.685939L354.518984,518.439819L353.183205,516.987221L352.445563,516.394325L351.669637,516.031177L350.901730,515.742140L350.581618,515.645795L349.928767,515.475337L346.942929,515.001021L344.774708,515.052900L342.928601,515.275235L341.925169,515.393814L338.970797,515.682851L337.009634,515.786607L335.918810,515.653206L335.842841,515.645795L334.809347,515.319702L333.730754,514.882442L332.163488,513.763354L331.702672,513.311273L330.792467,512.429344L329.013563,510.465389L328.447128,509.620520L328.100586,508.723773L327.863091,507.723272L327.735441,506.737594L327.663118,505.707451L327.681609,504.432744L327.679274,502.743019L327.697772,501.468317L327.616242,500.408537L327.346892,499.474746L323.221272,491.211486L320.795843,492.249021L318.733415,493.279145L315.044323,495.309755L308.625088,498.896685L306.909841,499.689666L305.770092,500.104684L305.479042,500.193616L303.191132,500.890255L301.649092,501.283040L299.273201,501.749937L297.519694,502.105668L295.592197,502.520687L293.835881,502.906063L292.592299,503.306260L291.999171,503.521181L291.476997,503.780569L290.632897,504.232645L289.825274,504.744010L288.264339,505.907551L286.851945,506.915461L284.102303,509.264785L281.616265,511.354727L280.182217,512.496045L278.944418,513.422440L277.281863,514.563761L276.025228,515.371581L275.061656,515.942242L274.244418,516.364680L273.255201,516.698184L269.147018,517.550473L267.463249,517.995146L266.144693,518.424996L264.511031,518.943782L262.331935,519.840540L259.541882,520.648365L255.188526,521.819342L250.966063,522.893974L247.968343,523.672157L246.862058,524.035309L245.445872,524.591155L243.440555,525.510154L243.099177,525.828839L242.805907,526.147524L240.503235,529.015700L239.006212,530.853710L238.301001,531.728248L237.464895,532.699135L236.943905,533.358746L236.642614,533.825662L236.368176,534.485274L236.186342,535.278291L235.900609,538.279906L235.795746,539.339739L235.724686,544.186823L235.671322,547.862919L235.178807,549.174756L234.668456,550.182723L234.094965,551.079518L233.489002,551.842906L232.662745,552.598883L231.181014,553.799555L229.610285,554.955759L226.112626,557.394170L222.934685,559.424949L222.216872,559.877058L220.967664,560.558927L216.968069,562.359954L215.624245,562.834299L214.664083,563.130765L213.739602,563.367938L210.244328,564.160985L204.923737,565.146736L198.502459,566.214017L198.160086,566.273310L191.998988,567.355416L187.310207,568.178114L183.121152,569.200929L181.992002,569.519633L180.554356,569.905042L178.602950,570.460921L177.096748,570.935271L174.939074,571.557856L174.313260,571.720914L173.796894,571.839502L173.160455,571.876560L172.518805,571.809855L171.952124,571.713502L171.430946,571.565268L171.023426,571.439268L170.580024,571.231740L169.851779,570.809272L168.860141,570.119982L167.859485,569.319517L166.531898,568.081762L164.611146,569.727161L162.496557,571.498562L159.528237,573.855496L156.446263,576.190201L155.743473,576.753496L152.711414,579.021505L149.866581,581.185754L147.431476,583.023888L145.908834,584.180136L144.757433,585.099206L142.596149,586.744641L139.724061,588.879264L139.410753,589.123857L138.350358,589.939166L136.841351,591.110248L133.937395,593.311591L132.265221,594.586446L129.735312,596.520968L128.386870,597.536408L127.001949,598.714914L124.668885,600.412262L122.913527,601.724188L119.536915,604.281340L117.776951,605.689629L113.309286,609.084360L110.480316,611.256105L105.849490,614.754630L100.771665,618.623779L98.477305,620.373056L98.006443,620.662132L99.534021,621.996330L99.830955,622.878384L101.924334,625.606087L102.490083,626.332488L102.565864,626.421435L103.059449,627.147836L103.649484,628.237440L103.973487,629.008317L104.231145,629.860730L104.393378,630.609371L104.500888,631.380251L104.511579,632.173368L104.467740,632.907187L104.291158,635.442204L104.203258,636.546644L103.970217,639.615365L103.653551,644.077633L99.334773,649.318236L94.566889,655.381665L89.314968,661.778709L84.504468,667.864474L77.594505,676.359422L75.606881,678.857517L74.167623,680.643994L71.986591,683.327424L70.824134,684.809985L68.343686,687.893723L67.306895,689.176146L65.295846,691.652044L63.193213,694.253970L59.076162,699.383718L56.975754,701.978256L53.858830,705.847841L52.776567,707.182185L50.637296,709.806402L44.370061,717.597561L42.289353,720.206986L40.130287,722.897966L37.998680,725.537062L35.889531,728.161340L33.731679,730.807868L31.602298,733.439577L29.505199,736.063883L27.423530,738.636303L25.355088,741.164253L23.274446,743.773757L22.177408,745.137820L21.210841,746.346203L19.133428,748.985379L17.085260,751.505948L15.022689,754.115487L12.967330,756.680554L10.739589,759.319764L8.700084,761.892262L7.108488,763.908750L7.116772,764.123744L7.088198,764.442527L7.010983,765.005959L6.739483,766.162478L6.504491,767.378308L5.893525,770.284445L5.703965,771.225977L5.470103,772.174923L5.284637,772.738360L4.806882,773.961614L4.239578,775.385039L3.844841,776.652779L3.696060,777.193978L3.548293,777.772247L3.475917,778.380170L3.460643,778.876889L3.646092,780.114980L4.146991,781.627380L4.475036,782.405823L5.506357,784.926500L6.574797,787.484254L6.931816,788.529600L7.161270,789.397015L7.312881,790.101328L7.372246,790.731502L7.428565,791.250470L7.440238,791.939956L7.470127,792.547891L7.598450,793.148412L8.206643,794.623769L8.500066,795.498605L8.858634,796.336373L8.987051,796.632928L9.368411,797.292763L9.934100,798.182430L10.765358,799.413137L11.128172,799.791247L11.812887,800.502982L13.217393,801.889386L13.857217,802.630779L14.601322,803.446312L15.084941,804.106154L15.597366,805.114451L15.717999,805.477736L15.781705,805.870676L15.689803,806.686212L15.440932,807.523992L15.095494,808.524880L14.515669,809.970610L13.844109,811.623935L13.112409,813.277263L12.874635,813.774004L12.265676,815.034392L11.752785,816.376337L10.913686,818.148301L8.538778,822.559692L7.447864,824.754276L6.675774,826.118480L5.751808,827.690283L4.941765,828.898794L3.907407,830.174035L2.941909,831.197195L2.167599,832.042415L2.107880,832.101729L1.265799,832.932121L0.746536,833.384389L0.000000,834.014598L0.630283,835.719874L0.983175,836.698555L1.539156,838.107265L1.889097,839.197164L2.393586,840.657779L2.836485,842.022011L3.622208,844.216649L3.764136,844.609608L4.565066,847.137900L5.684624,850.578169L6.381087,852.587471L6.885356,853.907237L7.469162,855.100959L7.908240,855.931376L8.328416,856.643163L8.692579,857.199246L8.957986,857.925863L9.137689,858.860085L9.202650,860.869409L9.282170,862.708203L9.384189,864.228178L9.342089,866.193028L9.278182,867.846471L9.187746,869.366456L9.112843,871.056979L9.058389,872.354532L9.003506,873.592770L8.803015,875.483497L8.705208,876.299106L8.609448,877.188862L8.558197,878.820085L8.363376,882.616397L8.110729,886.931760L8.128185,888.392463L8.011147,889.556579L7.813564,890.809674L7.688344,891.677202L7.651736,892.529902L7.697135,893.390018L7.815404,894.754341L7.946884,896.074177L8.043584,897.571972L13.789144,896.837904L16.159018,896.533896L15.081159,896.882393L14.031609,897.297623L13.207833,897.742513L12.602358,898.120669L12.097522,898.483997L11.516083,899.166162L15.709160,901.412864L20.352047,903.785625L23.820763,905.676425L27.247829,907.626548L29.343744,908.812937L30.512658,909.495112L31.493212,910.021573L31.910428,910.318171L34.735454,912.290550L36.568640,913.632661L37.762058,914.678175L38.503929,915.360354L40.040637,916.769205L42.287987,918.600715L44.144821,920.187533L45.609080,921.455507L48.666866,924.184253L49.867952,925.244610L51.882534,927.009404L55.245092,930.272058L58.307812,933.349347L59.220943,934.305904L59.923254,935.121574L60.545172,935.944660L60.926338,936.545291L61.170619,936.938297L61.468019,937.598250L61.813109,938.502906L62.091008,939.370487L63.043145,942.729590L63.740904,945.851419L64.684718,948.995507L65.520871,952.117360L66.381412,955.380118L67.258409,958.628059L67.919612,961.772197L68.831580,965.064657L69.431416,967.341208L70.072581,969.113511L71.605862,974.326627L71.963414,975.676259L72.233762,976.529049L72.469772,977.315100L72.992119,978.879789L73.325856,979.762246L73.730162,980.629872L73.926952,981.000652L75.972761,979.295063L79.248426,976.262089L81.300391,974.474938L82.935735,972.976998L84.260084,971.716357L88.256613,967.956694L91.888018,964.434343L92.760244,963.440672L93.656669,962.365432L94.143964,961.675797L94.869769,960.607975L95.118109,960.237204L95.670063,959.147138L96.316168,957.678888L96.754285,956.648149L97.179760,955.335626L97.796493,953.459539L98.134283,952.584527L98.487195,951.820747L98.920364,951.131120L99.509034,950.322849L100.650287,948.706309L102.024960,947.134265L102.949726,946.125785L104.087360,945.028323L105.293500,943.841880L106.492456,942.699929L108.061537,941.283617L109.892472,939.592943L111.767855,937.813291L113.909940,935.803772L115.365913,934.342980L116.281285,933.082401L117.499855,931.043233L118.101459,930.353625L119.397697,929.248770L121.461475,927.624858L122.551749,926.727630L123.850932,925.815572L124.781019,925.214950L125.627640,924.814535L126.664682,924.339969L127.775218,923.739348L129.102133,922.916274L132.988684,920.217194L134.317943,919.305144L136.031130,918.356020L136.611036,917.881458L136.944187,917.488462L137.234492,916.895260L137.611194,915.990629L138.043623,914.492800L138.308522,913.113613L138.554497,911.615788L139.035617,909.183684L139.389870,907.685867L139.932928,905.795063L140.314477,904.326913L140.994120,901.894831L141.365410,900.359953L142.082039,898.046521L142.768017,896.059347L143.459577,894.012860L145.206842,889.037546L145.558208,887.954993L146.258603,885.574865L153.323968,883.980702L155.125333,883.565479L157.727400,883.046450L161.187238,882.312395L164.598955,881.578341L167.860739,880.903606L170.970539,880.214041L173.890064,879.517063L176.743573,878.738524L179.760066,877.937741L181.143029,877.574424L182.321928,877.270423L184.794153,876.580862L185.135529,876.484472L186.725780,876.091496L188.675597,875.520570L192.252782,874.289743L197.934851,871.702048L199.999831,870.641762L203.693498,868.795534L205.284625,868.217199L207.437323,867.631449L208.505015,867.438671L211.214433,867.409013L212.396400,867.520231L214.051771,867.698180L215.113149,867.972519L216.124648,868.313588L217.747742,869.106946L219.098414,869.967036L220.835500,871.227514L221.704707,872.250727L222.842969,873.563112L223.219408,874.037646L223.522203,874.415792L224.073513,874.949644L224.569076,875.468668L224.898278,875.757838L225.240242,875.943204L225.533206,876.009935L225.949107,876.128569L226.377769,876.143399L226.939930,876.113740L229.156146,875.780082L231.552214,875.164668L233.577275,874.704962L234.734159,874.475109L235.952660,874.341646L236.719176,874.393548L237.659388,874.549255L238.638918,874.734620L240.435289,875.268473L242.342129,875.794911L245.985199,876.855203L249.142704,878.234327L251.483535,879.791405L252.869184,880.999996L254.660316,882.038052L255.898348,882.304981L258.052544,882.727618L261.027381,882.898156L263.658774,882.786935L266.342970,882.497762L270.240966,881.949076L275.708642,880.873947L280.784483,879.984187L283.836160,879.672771L285.040429,879.546721L288.062173,879.153744L289.946697,879.005451L291.499983,879.101842L294.107086,880.065748L295.690206,880.933264L297.262048,882.000978L299.194361,883.313379L302.180185,885.048420L303.302664,885.745403L306.561400,887.777039L306.901626,888.029141L310.076788,890.342544L312.106136,891.855157L314.895295,892.225896L317.641288,892.255555L319.424153,892.085015L320.230416,891.921890L320.902738,891.743935L321.905566,891.425100L324.189178,890.357373L326.431992,889.163597L327.230730,888.600076L328.347774,887.673233L328.846356,887.087469L329.487371,886.345996L330.688702,884.729587L333.502049,880.518043L334.923212,877.937741L335.514728,876.410325L335.659756,875.698521L335.816814,874.986717L335.805015,874.215597L335.885780,871.449952L335.860342,870.664006L335.936994,869.655624L336.175581,868.283930L337.157823,865.014117L337.684684,863.583115L338.318307,861.447739L338.678997,860.617316L339.865195,857.369779L340.524813,855.390122L341.875922,851.972075L342.377604,851.193564L342.947063,850.429881L344.567291,848.516972L345.671596,847.085999L346.994775,845.566058L347.910736,844.587365L349.725216,843.215715L351.447870,842.133225L355.231178,840.227750L356.408128,839.768064L357.079414,839.553050L358.019013,839.427007L360.093618,839.367693L360.629506,839.345450L366.235426,839.182336L370.789525,839.219407L371.060183,839.219407L373.727150,839.048878L374.791883,838.967321L376.342464,838.403836L378.346467,837.143411L381.259118,835.942301L381.929959,835.667974L383.723179,835.178634L384.869616,834.963621L387.669483,834.770850L388.483953,834.904307L389.837250,835.208291L391.741847,835.742116L393.235981,836.179557L394.882383,836.468713L395.962526,836.639241L396.971367,836.624413L397.924606,836.513199L401.555767,835.282433L404.996216,833.984941L407.818928,832.924707L414.207217,830.611473L417.164745,829.684698L420.236680,828.372387L419.788481,827.349231L419.595551,826.681956L419.300200,825.184297L419.205697,824.205630L419.177654,823.367832L419.246402,821.291878L419.416547,820.313216L419.744064,817.243783L419.940027,815.590446L420.169583,813.195709L420.269037,812.313439L420.511958,810.096648L420.959983,805.425838L421.469202,802.008009L427.256323,800.747642L431.735653,799.739349L435.719445,798.820025L437.819381,798.330708L442.002233,797.389144L444.160111,796.907241L450.557311,795.394811L456.461319,793.882383L463.532272,791.984439L470.249243,790.205121L472.607493,789.574947L474.913226,788.959601L478.729024,787.795634L479.832454,787.462013L481.840985,786.713220L484.474430,785.682705L487.452164,784.444605L489.385879,783.643919L493.807218,782.020309L494.173805,781.879447L498.588247,780.137221L501.231513,779.114128L502.074118,778.787924L503.208202,778.432066L509.955188,776.956740L510.753783,776.778811L512.577908,776.104166L513.867190,775.792791L518.203126,774.821600L519.248457,774.562121L527.167496,772.582674L531.822478,771.448386L536.155465,770.588404L539.808678,770.113932L542.321360,769.936005L543.822896,769.861868L545.560018,769.824800L549.552525,769.787732L553.633779,769.654287L558.688038,769.646873L560.136617,769.528255L561.135000,769.528255L562.124436,769.639460L563.202914,769.795146L564.102135,769.906350L565.518299,770.180654L565.610128,770.195482L567.117094,770.447545L568.353706,770.536509L569.941497,770.536509L571.885308,770.492027L573.939137,770.380822L575.688433,770.262204L577.457827,770.217723L578.274311,770.121345L579.383298,770.032382L581.235279,769.973073L583.023889,769.884109L584.401321,769.802559L585.398235,769.706182L586.155017,769.669114L587.000544,769.535669L587.606525,769.439292L588.708317,769.090852L589.684980,768.697930L591.530634,767.889847L592.847611,767.059523L594.205220,766.132824L596.317982,764.546317L598.439105,762.870851L601.420561,760.424381L603.331481,758.889780L603.687936,758.600653L604.539762,758.000158L605.275997,757.525693L606.134131,757.066056L608.281817,756.131955L609.444334,755.761281L611.155767,755.405433L613.335141,755.094067L615.237711,754.864249L616.768275,754.753046L618.267890,754.827181L619.773520,754.901316L621.386820,754.997691L623.125394,755.056999L624.421987,754.923556L625.407008,754.745633L626.184903,754.515815L626.599007,754.397199L628.139243,753.767054L629.859612,752.996053L631.876289,751.935928L633.762707,750.949939L639.699489,747.502695L644.089290,744.789390L645.332475,743.944265L647.278445,742.676578L649.343086,741.394067L650.937444,740.459984L652.343308,739.755717L654.110172,738.969903L655.851659,738.310117L658.153642,737.605851L660.280185,737.168466L662.105136,736.916413L664.508040,736.642121L668.858672,736.249215L674.176124,735.759937L677.043147,735.522712L681.140589,735.152047L683.901554,734.907408L686.693763,734.618290L689.674466,734.403304L691.420203,734.418131L691.859682,734.477437L692.678498,734.596050L694.058112,735.114980L695.765144,735.989750L697.200800,736.664360L698.421704,737.272252L699.973835,737.939451L702.594015,738.777157L704.901745,739.451770L710.442536,740.986332L712.391764,741.571987L713.656828,741.950068L714.307109,742.150229L715.047020,742.372630L719.195444,743.492049L719.781914,743.603249L721.359865,743.899784L726.654949,744.641123L730.373415,745.263847L733.335681,745.597450L734.957777,745.664171L736.478941,745.604863L737.706718,745.419529L738.619694,745.160060L741.106164,744.300107L741.927756,744.085119L742.810519,743.907198L744.728037,743.870131L746.003363,744.010985L747.259920,744.255627L748.409111,744.618883L749.435232,745.011792L750.341069,745.404702L751.132635,745.797612L752.309000,746.576019L754.069527,747.858539L755.862777,749.192955L766.977095,758.274458L768.076205,759.171494L770.539277,761.491930L772.612700,763.382387L774.906154,765.139403L780.910599,769.795146L791.656339,778.661891L794.858232,781.330831L795.503632,781.872034L795.951535,782.146342L796.598046,782.339099L797.315828,782.413237L797.641959,782.591167L799.635829,782.702373L800.667262,782.895130L801.526215,783.243577L801.696744,783.621678L801.801887,784.199951L801.619372,784.815294L801.415772,785.623395L800.769093,787.580634L800.169371,789.582361L799.800929,790.560984L799.597404,790.983572L799.345312,791.346850L799.258844,791.739783L799.216805,792.043750L799.226246,792.295821L799.324543,793.059446L801.084511,793.452380L812.111971,793.645140L820.075676,792.933411L817.183887,786.683565L817.477192,784.133227L817.845928,780.923076L826.527083,766.903838L845.369468,745.211954L891.232153,687.915961L898.756907,677.901272L903.169430,660.785422L902.438274,643.454989L901.858585,627.622221L904.539979,615.532906L912.991515,601.449944L921.777402,595.253522L932.542085,594.868100L962.832061,595.357289L977.726802,589.042326L979.901865,586.010866L983.840391,580.503866L986.213382,577.190792L988.781088,560.040113L993.182988,537.101493L999.330032,521.530303L1000.000000,513.607720Z "/></g><g fill="#000" font-family="Arial" font-size="12px" id="mylayer-label" stroke="none"><text text-anchor="middle" y="516.132949401"><tspan dy="0" x="572.98392477"><![CDATA[N]]></tspan></text></g></svg>