<?xml version="1.0" encoding="utf-8"?><!DOCTYPE svg  PUBLIC '-//W3C//DTD SVG 1.1//EN'  'http://www.w3.org/Graphics/SVG/1.1/DTD/svg11.dtd'><svg enable_background="new 0 0 1000 1001" height="1001px" pretty_print="False" style="stroke-linejoin: round; stroke:#000; fill: none;" version="1.1" viewBox="0 0 1000 1001" width="1000px" xmlns="http://www.w3.org/2000/svg" xmlns:xlink="http://www.w3.org/1999/xlink"><defs><style type="text/css"><![CDATA[path { fill-rule: evenodd; }]]></style></defs><metadata><views><view h="1001" padding="0" w="1000"><proj flip="auto" id="robinson" lon0="-67.0860104781"/><bbox h="0.17" w="0.17" x="-979.37" y="-302.09"/></view></views></metadata><g class="" id="mylayer"><path d="M555.788367,0.000000L442.268063,14.609326L375.101296,21.267998L382.011867,45.815641L392.716794,110.315321L376.166836,138.639526L328.581308,136.850629L267.795169,150.068592L191.867043,178.690948L150.480990,201.648463L129.404037,222.121399L126.964209,257.601197L126.968274,261.178991L128.438661,294.671126L128.238822,304.907595L125.057081,321.902121L122.819592,366.127643L119.836736,397.333967L112.742209,430.826105L108.116040,479.225726L97.902071,533.588340L94.562311,546.806307L109.367076,547.601373L1.654587,956.762121L155.164897,999.000000L191.849446,917.505740L197.635680,908.561248L221.717629,868.410420L279.692652,793.177312L290.505984,800.432288L344.241822,816.631755L406.449926,835.613952L642.492283,898.722308L700.096339,909.753847L736.031288,911.244596L736.562155,896.635260L741.806138,876.162312L751.863432,853.304168L760.478341,838.297300L763.518107,831.837389L764.382336,822.793515L761.587628,808.581713L757.006661,795.860659L755.551993,776.679696L754.703994,758.393182L753.630152,744.280763L755.026261,729.671429L762.266595,706.415755L773.791648,680.874266L774.447126,665.867400L772.211822,644.897540L767.554082,623.927681L758.834421,598.386195L753.287759,556.844012L749.927645,544.023577L744.915270,532.196975L738.958858,510.332669L735.947106,491.151710L818.343381,519.774074L885.083640,542.930362L903.743195,468.989255L938.540743,334.821936L966.623236,346.052237L985.528370,293.080995L998.345413,254.023402L936.433590,232.854783L904.949622,222.817081L810.306795,193.797191L731.501533,169.249546L730.737082,156.429115L733.000093,25.044558L666.391137,15.006858L555.788367,0.000000Z " data-aland="806352" data-awater="0" data-classfp="U1" data-funcstat="S" data-geoid="7248862" data-intptlat="+18.0099881" data-intptlon="-067.0854391" data-lsad="55" data-mtfcc="G4210" data-name="Maguayo" data-namelsad="Maguayo comunidad" data-pcicbsa="N" data-pcinecta="N" data-placefp="48862" data-placens="02631216" data-statefp="72"/></g><g fill="#000" font-family="Arial" font-size="12px" id="mylayer-label" stroke="none"><text text-anchor="middle" y="473.91314027"><tspan dy="0" x="472.187828495"><![CDATA[Maguayo]]></tspan></text></g></svg>