<?xml version="1.0" encoding="utf-8"?><!DOCTYPE svg  PUBLIC '-//W3C//DTD SVG 1.1//EN'  'http://www.w3.org/Graphics/SVG/1.1/DTD/svg11.dtd'><svg enable_background="new 0 0 1000 1001" height="1001px" pretty_print="False" style="stroke-linejoin: round; stroke:#000; fill: none;" version="1.1" viewBox="0 0 1000 1001" width="1000px" xmlns="http://www.w3.org/2000/svg" xmlns:xlink="http://www.w3.org/1999/xlink"><defs><style type="text/css"><![CDATA[path { fill-rule: evenodd; }]]></style></defs><metadata><views><view h="1001" padding="0" w="1000"><proj flip="auto" id="robinson" lon0="-86.8938278321"/><bbox h="0.96" w="0.7" x="-1213.45" y="-588.42"/></view></views></metadata><g class="" id="mylayer"><path d="M160.498393,0.000000L152.772559,13.646498L146.422160,25.416757L144.220922,29.080570L133.315133,47.204849L136.507072,48.833195L137.011685,49.098686L151.288782,55.824450L171.853239,65.789164L181.376717,78.851190L188.078085,97.311350L187.544921,118.886359L183.589661,143.523031L182.530142,186.654254L187.755669,203.591483L200.408595,234.350721L222.297003,268.171235L227.357010,276.630708L229.556604,280.471086L243.506915,311.777882L243.941745,312.733538L244.381903,314.520966L252.985086,335.155932L255.075717,337.421165L276.674777,350.941729L298.501757,359.878705L304.884035,361.294461L319.984863,364.196756L341.038968,370.089821L374.561284,379.433746L413.584383,385.822279L432.688714,440.239092L432.887940,440.504537L433.452266,441.265478L433.642090,441.513226L438.721269,455.864877L453.946209,498.866185L459.016692,513.199769L459.211496,513.730641L445.256022,514.491557L438.169578,516.296519L399.568625,526.011437L389.369124,531.267031L396.126906,546.502874L399.706278,554.607379L403.780040,566.215527L404.784836,569.064469L417.224832,563.808965L427.003403,559.650561L450.720666,549.935790L464.014047,544.397113L468.717108,542.432914L469.067354,543.530035L471.910350,552.466235L472.663027,554.731247L474.887728,561.490877L475.631019,563.738184L474.876952,563.879746L472.571988,564.251348L471.808517,564.375215L470.495552,564.587559L448.029467,568.498220L376.657874,580.884883L370.330058,581.981984L364.281268,602.384427L361.245870,612.523645L376.394619,610.311778L447.748241,599.889429L471.531303,596.403505L474.865175,595.695702L484.886479,593.554598L488.210944,592.829100L488.923264,595.483362L489.457066,597.500598L491.045710,603.446127L491.748649,606.082681L491.868497,607.622144L492.344685,610.187913L492.569516,610.665677L492.641942,611.267305L492.766697,611.638898L492.880439,611.798153L493.624465,612.842154L493.349317,613.638425L491.648427,615.885679L490.558043,617.584389L489.520396,619.902419L489.376512,620.097062L488.945744,620.627908L488.975819,622.025802L488.198613,623.848371L487.864546,624.396911L487.386439,625.440906L485.641598,628.289771L484.523578,630.483926L481.246073,638.004197L480.237703,640.021395L479.669812,640.923825L478.802832,642.604821L478.587815,642.994104L476.939964,647.010794L476.120015,648.780259L475.602687,649.558823L475.224096,650.160440L474.982629,650.390470L474.214583,651.080561L473.963711,651.292896L472.284502,651.363675L471.111721,651.894513L470.104857,652.655381L458.741743,661.113388L456.704061,662.617423L455.072881,664.174541L438.684506,670.349918L431.352399,673.800336L402.180606,687.513483L377.278184,693.547241L361.865826,692.060921L360.597519,691.919366L362.817332,682.382122L365.930954,670.721502L369.602208,668.102720L389.070897,653.734752L388.061752,652.301489L383.607842,646.002199L354.864840,662.493561L344.461076,690.521517L339.870485,690.096854L326.127819,688.822863L322.413738,688.185868L320.833611,691.919366L319.645755,695.104337L338.612434,698.377774L370.989284,703.969147L383.837748,703.314461L404.740381,694.573509L406.282050,694.024986L430.381284,685.248608L431.348609,684.823944L433.640239,683.797671L434.206937,683.549950L435.159713,683.125285L440.736749,680.807323L457.429338,673.835725L462.996960,671.500058L465.502864,669.836779L473.001768,664.811543L475.498267,663.130564L483.187585,662.405089L485.162930,662.316616L499.369675,684.116170L510.944532,703.509097L506.884318,703.562180L501.553886,703.880676L495.537722,704.606138L488.633890,705.632400L482.929886,706.835604L478.381323,707.968031L475.608832,708.746574L473.055923,710.321354L470.594293,712.533121L468.475691,715.116461L466.536133,719.186102L465.588877,722.494891L465.595138,725.626735L467.089737,728.793963L469.379706,731.377285L473.022804,733.960603L473.857144,734.243707L477.638506,735.800774L480.433537,736.296204L473.307235,739.038762L451.062166,749.195045L419.903963,763.385452L414.242497,766.994967L411.063159,770.374459L408.968158,773.877801L408.820375,775.187129L406.451208,799.356484L404.340277,820.836199L404.153027,822.481671L403.973431,824.250994L405.011866,823.631731L408.118640,821.703168L410.008870,820.606186L415.613707,817.191385L416.460360,816.731360L420.058445,814.714324L425.826595,811.688768L427.121785,811.087194L429.035094,810.060981L431.635760,808.822447L436.103574,806.416150L438.681159,805.106840L439.340293,804.841439L445.749635,801.462001L448.322076,800.170381L449.000025,799.940367L450.936411,798.984922L451.609218,798.772601L454.196208,797.480980L454.411069,797.392513L457.468798,796.083197L460.065195,794.809268L463.343804,793.340710L464.661193,792.862986L467.128271,791.783684L467.929517,791.429814L472.462295,789.200433L477.058290,787.254146L481.572251,784.989374L488.101238,781.999163L493.919789,779.150497L503.022082,774.815563L504.939647,773.824720L510.676162,770.657558L515.060170,768.038895L517.595850,766.623400L520.828290,765.013273L524.083808,763.473921L525.179559,762.907722L526.006514,762.465378L527.320511,761.899179L529.274073,760.784474L533.165641,758.908937L535.779962,757.723455L538.417362,756.608748L539.703137,755.989466L539.795698,757.723455L539.888261,759.457443L540.307709,767.525778L522.007488,777.876558L504.421881,792.526810L493.848572,804.876826L487.987285,814.130445L482.044649,828.019648L476.116659,841.908762L469.900053,858.894056L466.023339,876.640009L461.799471,888.971857L458.297069,896.668169L454.504811,901.055939L449.982902,914.413815L447.467293,925.223903L445.337647,939.112400L447.477868,951.426204L453.998054,966.092985L463.536296,978.035104L474.077055,986.527238L475.175061,987.004920L483.180011,994.860113L493.428504,999.000000L501.043672,998.681547L500.197324,985.218036L501.572309,980.635824L507.165853,961.634577L513.414693,935.821631L525.224734,907.195265L531.392902,889.573409L538.630335,869.173633L546.729585,844.757347L550.981119,831.929840L556.854813,802.806699L556.408663,783.715439L554.551366,771.082205L552.752015,759.351281L549.342733,754.060843L548.647359,752.999216L547.971678,751.919893L550.366121,750.539776L553.589148,748.911944L557.531132,747.213335L558.803234,746.540969L564.699525,743.975359L566.649570,743.072971L569.844372,741.392052L570.993176,740.843541L572.450159,740.135785L577.530912,737.322452L578.849168,736.791634L580.230895,735.942325L582.134781,734.898383L584.084823,733.995991L586.639309,732.615862L589.862329,730.988017L592.388593,729.554804L593.038314,729.271701L597.398350,726.635294L604.055498,722.052540L609.669697,718.655280L615.367678,715.470344L620.527062,712.887003L625.008505,710.533683L628.908580,708.728880L631.536558,707.596454L632.859074,707.101017L636.155583,705.720871L639.551302,704.499972L642.771546,703.332155L646.062911,701.969702L652.035920,700.041032L656.056388,698.873212L657.379650,698.625493L660.726442,697.723087L662.600081,697.333813L662.850452,696.272158L663.100823,695.210502L664.905748,687.548872L665.042102,686.929570L671.779440,658.193787L674.070783,648.408671L676.214645,639.331301L682.618302,612.045882L682.754683,611.426559L689.776841,606.188851L694.612347,602.667547L696.919657,600.986520L697.508107,598.261485L708.588597,544.680241L721.046416,484.514813L722.814198,480.586307L721.273278,481.382627L719.585984,482.232033L716.635255,483.523839L715.072154,484.196285L700.737482,494.318350L670.605837,515.588691L664.940503,504.599630L662.347676,499.556323L653.670235,504.581934L627.060744,520.242657L606.802108,481.435714L606.571102,481.329539L610.738183,472.552315L612.448755,460.165046L613.114954,447.016768L612.333383,432.293436L607.851418,405.731024L596.127895,368.302436L642.075824,303.159266L677.943987,252.367155L682.196485,246.349894L694.924965,228.298016L699.168117,222.262993L710.890606,209.520368L716.525977,212.652937L718.380489,213.679427L725.954556,217.449121L734.260678,205.998435L743.723253,196.423706L735.131730,187.149807L749.449849,175.486586L768.011820,160.336697L769.382710,159.274785L771.058441,157.965092L776.041992,154.036011L777.708325,152.708618L779.271029,151.487415L783.920646,147.806103L785.473951,146.567199L788.943595,143.841607L790.000245,143.009770L790.383872,142.691194L799.337983,135.664812L802.798230,132.921508L814.957447,123.328767L824.733668,115.576671L852.976770,108.904182L863.181705,106.479427L863.659933,103.435205L864.669932,96.762680L866.144571,86.992794L866.684867,83.435271L860.792798,84.886599L856.425111,85.948547L854.920423,86.320228L843.497509,89.081288L809.228713,97.364447L803.770595,98.674175L801.803149,104.036970L800.758093,105.328994L799.052513,107.541364L797.243304,109.859924L793.687819,113.930674L791.863412,116.001444L789.863293,118.426189L783.829601,125.665011L783.414181,126.142878L781.494478,127.541083L759.300268,144.124786L715.541296,176.778569L694.338521,197.255523L690.661154,200.795168L678.904768,212.953805L674.833904,218.546401L664.150514,233.218052L632.057169,277.232427L621.350143,291.885995L599.528544,321.794548L588.677846,336.642492L568.413764,364.798451L522.383033,387.556559L492.973956,402.085525L481.967301,407.465288L475.874398,389.397018L447.414691,304.929005L441.605134,287.691686L437.954321,276.736894L436.724794,273.161974L432.997785,262.419483L431.758903,258.826843L431.416931,258.402097L431.336587,258.278212L421.752947,229.412989L376.079511,275.391875L391.774239,322.060007L386.603792,320.679621L355.374902,310.255911L319.181314,294.045087L303.165218,283.638950L291.503837,267.516421L288.922382,263.888393L268.664093,225.714108L254.098961,194.176028L245.191931,170.442534L242.140104,145.186705L247.365967,110.284699L248.584243,83.506067L242.766673,59.010332L235.516334,49.134085L235.022315,48.532305L233.114439,46.390676L228.357339,40.443660L210.649766,24.213185L210.213650,23.912291L194.405051,12.903111L184.233255,7.717096L182.624279,7.097605L171.632403,3.079762L160.498393,0.000000Z "/></g><g fill="#000" font-family="Arial" font-size="12px" id="mylayer-label" stroke="none"><text text-anchor="middle" y="486.606380714"><tspan dy="0" x="482.67491065"><![CDATA[N]]></tspan></text></g></svg>