<?xml version="1.0" encoding="utf-8"?><!DOCTYPE svg  PUBLIC '-//W3C//DTD SVG 1.1//EN'  'http://www.w3.org/Graphics/SVG/1.1/DTD/svg11.dtd'><svg enable_background="new 0 0 1000 1001" height="1001px" pretty_print="False" style="stroke-linejoin: round; stroke:#000; fill: none;" version="1.1" viewBox="0 0 1000 1001" width="1000px" xmlns="http://www.w3.org/2000/svg" xmlns:xlink="http://www.w3.org/1999/xlink"><defs><style type="text/css"><![CDATA[path { fill-rule: evenodd; }]]></style></defs><metadata><views><view h="1001" padding="0" w="1000"><proj flip="auto" id="robinson" lon0="-123.911234"/><bbox h="0.25" w="0.59" x="-1639.65" y="-762.63"/></view></views></metadata><g class="" id="mylayer"><path d="M1000.000000,386.497866L912.573374,387.663606L901.719323,387.052980L896.483507,386.747667L864.664014,385.914995L815.619224,385.998262L770.994661,385.914995L747.751499,385.332125L731.589101,386.386843L747.418709,360.629462L759.425974,341.089298L742.076809,340.950518L674.839634,340.284375L705.107627,295.763613L672.467127,291.655694L660.359414,291.627938L624.053142,291.516913L611.962296,291.461401L601.991569,291.433644L572.011905,291.350376L562.035549,291.294863L550.996321,291.211595L534.710228,291.100570L452.801744,290.406664L425.510167,290.156858L403.471082,289.962564L359.460402,289.573977L355.676535,295.874638L342.373925,317.024821L325.169577,344.336745L309.910768,368.595389L300.499198,383.528002L253.805089,383.222688L234.206273,383.083910L207.679234,384.499453L177.907214,385.554171L169.400801,400.736536L141.891768,449.336470L123.474192,481.976726L122.316079,484.030613L92.880267,536.210179L85.729462,548.866422L83.879836,551.725175L79.167018,552.002724L72.339691,552.724350L85.624000,529.937556L112.451759,483.864082L118.354861,473.705660L119.917757,470.874620L115.497451,471.152173L114.383874,470.874620L112.646094,470.846865L110.683423,471.152173L96.803643,470.708089L94.588591,474.760360L89.371290,483.531019L49.421570,550.642735L41.978185,562.854867L40.820166,565.130761L54.959097,566.185444L69.817905,567.240126L78.490126,567.406654L75.994168,571.958438L72.486332,578.286521L0.000000,709.426023L237.178902,700.877769L263.842632,699.906375L361.774537,696.381604L478.378166,692.190730L590.066172,688.166378L598.637254,687.944345L600.003905,687.916591L615.621938,687.500278L680.281789,685.751766L680.681090,685.724012L740.443180,579.424465L745.979074,569.793566L748.496868,565.241780L759.197542,545.813384L768.184180,529.465721L806.644621,461.271281L809.387435,456.386338L816.267003,444.173962L828.959491,442.647414L830.039230,442.536392L833.267181,442.147816L834.341287,442.009038L839.014497,441.426174L849.373167,440.149423L853.343387,439.538803L865.220279,437.651432L869.184862,437.013056L880.184726,436.013860L889.148818,435.181195L899.710861,436.679991L908.288453,440.371467L910.977465,442.758435L918.006005,439.150227L922.375000,437.068567L928.346028,432.794224L936.616635,426.882301L938.410053,425.189214L942.002863,422.829993L961.898914,419.998927L969.479570,419.332794L993.579854,393.103725L1000.000000,386.497866Z "/></g><g fill="#000" font-family="Arial" font-size="12px" id="mylayer-label" stroke="none"><text text-anchor="middle" y="502.63276201"><tspan dy="0" x="446.363127017"><![CDATA[N]]></tspan></text></g></svg>