<?xml version="1.0" encoding="utf-8"?><!DOCTYPE svg  PUBLIC '-//W3C//DTD SVG 1.1//EN'  'http://www.w3.org/Graphics/SVG/1.1/DTD/svg11.dtd'><svg enable_background="new 0 0 1000 1001" height="1001px" pretty_print="False" style="stroke-linejoin: round; stroke:#000; fill: none;" version="1.1" viewBox="0 0 1000 1001" width="1000px" xmlns="http://www.w3.org/2000/svg" xmlns:xlink="http://www.w3.org/1999/xlink"><defs><style type="text/css"><![CDATA[path { fill-rule: evenodd; }]]></style></defs><metadata><views><view h="1001" padding="0" w="1000"><proj flip="auto" id="robinson" lon0="-73.5076419711"/><bbox h="1.21" w="0.88" x="-990.44" y="-713.92"/></view></views></metadata><g class="" id="mylayer"><path d="M690.186879,0.000000L663.845227,0.668094L642.522594,1.282741L621.115836,1.884026L587.337505,2.832720L555.214126,107.899160L553.969500,111.974685L549.402263,127.047498L532.057363,183.878578L465.423357,402.086563L456.168027,432.703014L455.803286,433.184113L453.109829,436.992818L452.606391,438.168840L449.981806,444.329600L449.582771,445.492261L448.444425,452.428146L447.831819,454.633200L447.716353,456.811527L446.776124,459.551144L444.587941,463.600436L443.557837,466.246511L443.108184,468.558488L442.356692,470.295812L441.810577,472.113322L440.489812,474.572308L438.183409,480.064942L436.292285,485.317033L435.798220,487.241465L435.445913,490.368671L434.908831,493.161776L434.616817,493.883441L433.729935,495.433682L432.192329,499.429568L431.805613,502.463238L429.017841,512.914054L426.250414,523.338180L425.611018,526.558976L433.592148,527.507841L429.334343,540.110412L410.708214,590.227230L387.073906,590.227230L375.725206,623.532017L361.673203,669.440341L356.086415,685.371439L375.573134,685.211058L372.801529,734.715647L318.559515,895.424483L266.015135,897.950669L203.829371,900.677349L151.900150,903.123343L145.612814,903.150075L147.593394,913.936535L146.264168,916.810258L144.688324,921.341390L143.942219,923.840867L143.762355,925.885895L136.416583,951.321899L151.332895,952.204077L177.149159,953.647641L170.672467,973.510091L163.835993,994.455374L162.569738,994.816270L161.157723,999.000000L196.776192,994.081111L199.239238,993.626649L224.104273,990.565715L224.797319,990.485516L235.053379,989.269163L260.690955,985.539909L261.695313,985.392877L267.145854,984.604254L311.009050,977.733888L315.260127,977.078932L353.724479,971.946219L355.015302,971.772455L367.407973,970.115019L377.185555,954.436255L419.221631,884.905416L440.595728,849.606017L452.242823,831.615658L460.951763,819.025150L502.258383,755.939804L504.219022,753.133074L517.406845,730.037800L525.258434,717.394288L530.037503,711.446778L533.157299,705.098326L538.558992,697.400012L548.773948,683.072651L581.502514,633.822901L585.881430,627.167234L622.238332,546.846061L634.828704,518.647319L749.440888,264.670679L849.311145,43.065656L849.738261,42.370828L862.114271,39.912208L863.583417,28.434219L852.169953,28.380771L853.783334,18.065318L855.517721,6.493881L844.895430,6.493881L826.735551,7.068444L755.418605,8.324464L709.251957,8.765407L691.876595,9.380055L690.186879,0.000000Z " data-aland="12594720" data-awater="22635" data-classfp="C1" data-funcstat="A" data-geoid="3622557" data-intptlat="+42.5389760" data-intptlon="-073.5049759" data-lsad="47" data-mtfcc="G4110" data-name="East Nassau" data-namelsad="East Nassau village" data-pcicbsa="N" data-pcinecta="N" data-placefp="22557" data-placens="02391652" data-statefp="36"/></g><g fill="#000" font-family="Arial" font-size="12px" id="mylayer-label" stroke="none"><text text-anchor="middle" y="437.784155294"><tspan dy="0" x="547.167915711"><![CDATA[East Nassau]]></tspan></text></g></svg>