<?xml version="1.0" encoding="utf-8"?><!DOCTYPE svg  PUBLIC '-//W3C//DTD SVG 1.1//EN'  'http://www.w3.org/Graphics/SVG/1.1/DTD/svg11.dtd'><svg enable_background="new 0 0 1000 1001" height="1001px" pretty_print="False" style="stroke-linejoin: round; stroke:#000; fill: none;" version="1.1" viewBox="0 0 1000 1001" width="1000px" xmlns="http://www.w3.org/2000/svg" xmlns:xlink="http://www.w3.org/1999/xlink"><defs><style type="text/css"><![CDATA[path { fill-rule: evenodd; }]]></style></defs><metadata><views><view h="1001" padding="0" w="1000"><proj flip="auto" id="robinson" lon0="-96.93402221"/><bbox h="0.1" w="0.13" x="-1317.93" y="-684.98"/></view></views></metadata><g class="" id="mylayer"><path d="M1000.000000,136.337935L874.791899,125.164150L854.333509,181.892728L784.772807,198.346533L708.977883,203.380911L699.778899,224.009611L543.693623,273.125739L471.939973,291.175977L402.578380,290.562023L386.670206,290.316441L371.498018,333.538912L359.037069,385.479803L303.310761,384.251883L234.755329,384.129091L219.047631,384.129091L189.659035,384.129091L50.178455,382.532795L37.879333,410.038239L0.000000,500.659402L160.771357,501.273369L118.696753,602.578511L68.596251,723.900468L210.088055,721.690136L190.599702,766.265270L297.666092,766.388067L359.539101,724.882838L366.806550,763.440944L437.886044,764.791709L420.242881,801.139621L385.767795,873.835850L490.572678,860.082468L728.839732,776.334612L759.478664,701.919962L791.704246,619.892585L798.213983,605.402790L810.765821,577.774004L889.103946,390.391485L932.423606,390.759862L983.547637,268.459696L943.996993,265.881094L982.052867,178.209044L1000.000000,136.337935Z " data-aland="291462" data-awater="0" data-classfp="C1" data-funcstat="A" data-geoid="3139380" data-intptlat="+40.7912097" data-intptlon="-096.9329663" data-lsad="47" data-mtfcc="G4110" data-name="Pleasant Dale" data-namelsad="Pleasant Dale village" data-pcicbsa="N" data-pcinecta="N" data-placefp="39380" data-placens="02399690" data-statefp="31"/></g><g fill="#000" font-family="Arial" font-size="12px" id="mylayer-label" stroke="none"><text text-anchor="middle" y="501.941164341"><tspan dy="0" x="525.295132909"><![CDATA[Pleasant Dale]]></tspan></text></g></svg>