<?xml version="1.0" encoding="utf-8"?><!DOCTYPE svg  PUBLIC '-//W3C//DTD SVG 1.1//EN'  'http://www.w3.org/Graphics/SVG/1.1/DTD/svg11.dtd'><svg enable_background="new 0 0 1000 1001" height="1001px" pretty_print="False" style="stroke-linejoin: round; stroke:#000; fill: none;" version="1.1" viewBox="0 0 1000 1001" width="1000px" xmlns="http://www.w3.org/2000/svg" xmlns:xlink="http://www.w3.org/1999/xlink"><defs><style type="text/css"><![CDATA[path { fill-rule: evenodd; }]]></style></defs><metadata><views><view h="1001" padding="0" w="1000"><proj flip="auto" id="robinson" lon0="-96.7535360876"/><bbox h="0.32" w="0.35" x="-1351.45" y="-586.35"/></view></views></metadata><g class="" id="mylayer"><path d="M1000.000000,38.837513L912.526380,39.670956L861.860980,40.112191L852.749719,40.210243L825.335225,40.504399L816.199442,40.553425L790.237682,40.847581L712.263002,41.631998L686.292551,41.828103L643.657533,42.269337L515.671752,43.593040L473.012202,43.985248L448.341747,44.279405L374.321693,45.063821L349.626715,45.308951L287.561085,45.063821L282.169516,45.014795L213.137590,264.990508L189.440936,340.487323L181.932352,364.361767L172.414792,394.707175L170.175361,401.766504L145.498383,462.309718L130.971444,504.419980L86.021328,510.400692L39.707789,516.479442L38.948818,517.704996L36.622857,521.283611L35.799008,522.460141L35.165774,524.421025L33.266077,530.303673L32.648677,532.215532L28.419423,546.186792L24.798906,558.148126L17.296433,586.629730L16.990086,587.953313L13.519073,601.826400L32.010647,601.924443L60.389351,602.022486L87.404660,602.218571L91.278800,602.218571L100.544766,602.267593L105.855879,602.316614L88.872289,660.161644L37.973632,833.546318L20.968600,891.340093L3.786280,947.809808L0.000000,960.162487L63.565944,959.525246L129.690187,958.838987L176.314961,958.299783L180.931463,958.250765L194.659899,958.103709L199.251869,958.005672L306.471975,956.780209L453.900076,955.015541L628.163810,953.005779L715.480818,951.927371L722.740337,928.937610L723.088444,927.859197L739.903011,873.644179L743.373926,862.516804L804.243337,666.338283L824.508187,600.944014L832.640847,574.129215L833.762988,570.403566L836.880999,558.246170L841.843341,529.127144L848.340634,507.753492L852.756597,494.076276L861.349658,467.211976L864.843711,457.015275L875.189114,426.474092L878.618378,416.228299L889.108085,385.490815L920.481931,293.326437L930.947956,262.539296L931.945275,259.450769L934.937246,250.185176L935.950405,247.047617L940.181228,233.320780L952.889787,192.091053L957.096260,178.315064L975.973606,116.984564L1000.000000,38.837513Z " data-aland="3394788" data-awater="0" data-classfp="C1" data-funcstat="A" data-geoid="4040200" data-intptlat="+34.9581828" data-intptlon="-096.7535265" data-lsad="25" data-mtfcc="G4110" data-name="Konawa" data-namelsad="Konawa city" data-pcicbsa="N" data-pcinecta="N" data-placefp="40200" data-placens="02411555" data-statefp="40"/></g><g fill="#000" font-family="Arial" font-size="12px" id="mylayer-label" stroke="none"><text text-anchor="middle" y="493.75220815"><tspan dy="0" x="492.150588113"><![CDATA[Konawa]]></tspan></text></g></svg>