<?xml version="1.0" encoding="utf-8"?><!DOCTYPE svg  PUBLIC '-//W3C//DTD SVG 1.1//EN'  'http://www.w3.org/Graphics/SVG/1.1/DTD/svg11.dtd'><svg enable_background="new 0 0 1000 1001" height="1001px" pretty_print="False" style="stroke-linejoin: round; stroke:#000; fill: none;" version="1.1" viewBox="0 0 1000 1001" width="1000px" xmlns="http://www.w3.org/2000/svg" xmlns:xlink="http://www.w3.org/1999/xlink"><defs><style type="text/css"><![CDATA[path { fill-rule: evenodd; }]]></style></defs><metadata><views><view h="1001" padding="0" w="1000"><proj flip="auto" id="robinson" lon0="-98.5611354531"/><bbox h="0.24" w="0.25" x="-1294.37" y="-782.63"/></view></views></metadata><g class="" id="mylayer"><path d="M1000.000000,30.471398L827.359433,31.762084L634.311910,34.085319L500.163786,34.666128L485.970531,34.730662L482.777682,33.762647L481.453486,32.988236L479.639759,30.794069L479.029894,26.470270L472.796148,37.763774L409.717636,38.021911L378.114513,37.441103L377.308068,39.183529L296.396696,215.232614L258.926151,296.674357L152.493129,506.408499L151.488121,508.344501L141.700338,527.381840L114.145013,606.435078L94.439019,668.709534L37.225190,846.110415L20.634931,907.416423L6.449690,959.429640L0.000000,972.529730L4.290178,972.529730L18.691462,972.465197L100.955985,971.884405L122.816109,971.368146L146.847164,970.851886L227.763475,969.754834L348.210412,969.625770L524.302050,968.915913L537.908072,968.786848L549.745922,944.845297L550.095379,944.135440L1000.000000,30.471398Z " data-aland="1420589" data-awater="0" data-classfp="U1" data-funcstat="S" data-geoid="3888020" data-intptlat="+46.7833593" data-intptlon="-098.5609884" data-lsad="57" data-mtfcc="G4210" data-name="Ypsilanti" data-namelsad="Ypsilanti CDP" data-pcicbsa="N" data-pcinecta="N" data-placefp="88020" data-placens="02584359" data-statefp="38"/></g><g fill="#000" font-family="Arial" font-size="12px" id="mylayer-label" stroke="none"><text text-anchor="middle" y="486.241333977"><tspan dy="0" x="474.434346598"><![CDATA[Ypsilanti]]></tspan></text></g></svg>