<?xml version="1.0" encoding="utf-8"?><!DOCTYPE svg  PUBLIC '-//W3C//DTD SVG 1.1//EN'  'http://www.w3.org/Graphics/SVG/1.1/DTD/svg11.dtd'><svg enable_background="new 0 0 1000 1001" height="1001px" pretty_print="False" style="stroke-linejoin: round; stroke:#000; fill: none;" version="1.1" viewBox="0 0 1000 1001" width="1000px" xmlns="http://www.w3.org/2000/svg" xmlns:xlink="http://www.w3.org/1999/xlink"><defs><style type="text/css"><![CDATA[path { fill-rule: evenodd; }]]></style></defs><metadata><views><view h="1001" padding="0" w="1000"><proj flip="auto" id="robinson" lon0="-80.8933868318"/><bbox h="1.92" w="3.02" x="-1128.73" y="-594.63"/></view></views></metadata><g class="" id="mylayer"><path d="M964.822816,370.554068L965.245785,371.269737L965.653369,372.210812L966.042503,372.847586L966.360885,373.489996L966.665422,374.335271L967.368329,375.851128L967.962038,376.938712L968.626503,378.324957L968.855683,378.888471L968.843378,379.204039L969.224834,379.581592L969.584758,380.173281L969.866238,381.001644L970.123108,381.328481L970.180020,381.610237L970.858347,383.064096L971.116759,383.571256L971.415163,384.067145L968.282001,386.535317L972.265930,392.750796L974.234709,391.032105L974.327004,391.234967L974.311629,391.477274L974.431619,391.984429L974.910017,393.088899L975.217682,394.125747L995.812943,374.543772L997.235704,373.675956L996.603523,369.483382L997.412576,368.936768L997.300297,367.961878L996.952706,364.856876L996.343705,359.531575L995.803825,359.649916L994.613322,359.852785L993.518183,360.010572L992.516869,360.145818L991.437113,360.230347L990.520400,360.173994L990.065121,360.083830L986.270511,363.555139L985.321536,361.825121L988.033300,359.244177L984.935596,357.711386L984.526466,357.519787L983.505180,357.035153L982.617705,356.685767L981.614872,356.370191L980.765845,356.167321L976.210014,355.243135L968.872901,363.121226L964.822816,370.554068Z M1000.000000,410.940546L999.120113,410.309434L998.877011,409.475463L997.800285,409.362764L996.263647,409.261335L993.716405,408.787999L992.556624,408.742920L990.953807,408.123075L988.944961,408.094900L987.380611,407.604659L983.804324,406.827035L982.133871,406.725606L980.344897,405.333770L980.146455,405.012577L979.225012,403.603833L977.369847,400.915943L977.092970,400.729988L976.914535,400.555303L976.637660,400.420063L976.394627,400.329903L975.783971,400.183393L975.391739,400.132678L974.893375,400.115773L974.401167,400.143948L973.815134,400.245378L971.920136,400.510223L970.971105,400.775068L970.472748,400.893403L969.528324,401.006103L968.662347,401.135708L968.128611,401.248408L967.804058,401.203328L967.482588,401.316028L966.288990,401.614683L965.335335,401.693573L964.803141,401.885162L963.984848,402.059847L962.777397,402.138737L961.516118,402.414851L958.916649,402.910730L958.513652,402.933270L958.230633,403.006525L957.141624,403.209384L956.603271,403.288274L954.905156,403.643278L954.206836,403.750342L953.553123,403.896852L953.176275,403.925027L952.800968,404.032091L951.695036,404.195505L950.412218,404.432174L949.864640,404.612494L949.486254,404.663208L949.054031,404.691383L948.634116,404.775908L948.197285,404.939322L947.682001,404.950592L947.159028,405.023847L945.591651,405.305595L945.104058,405.418294L944.548784,405.508454L944.207313,405.525359L943.935057,405.491549L943.541292,405.632423L943.342873,405.733853L941.767803,406.009966L941.310972,406.111395L940.297328,406.274809L939.885105,406.398778L939.159097,406.556557L938.393090,406.522748L938.100841,406.596002L937.214868,406.883385L936.841097,406.951005L936.450406,407.046799L935.336780,407.187673L934.304679,407.435611L933.861690,407.520135L933.021852,407.520135L932.357371,407.706089L931.954374,407.796248L931.486878,410.844753L917.898752,412.766263L916.528248,412.986025L916.622008,410.596815L916.505109,410.653165L916.114418,410.799673L915.714497,410.912372L915.346875,410.957451L914.959260,411.075785L913.562620,411.746342L913.101177,412.033723L912.815081,412.168961L912.035241,412.659200L911.681470,412.940946L911.272324,413.205787L910.878558,413.431184L910.467875,413.735469L910.072571,413.966501L909.835699,414.174993L909.375798,414.625786L908.635954,415.206181L907.809969,415.679513L907.056278,416.158480L906.790182,416.406416L906.611760,416.620542L906.453335,416.845938L906.085723,417.212206L904.852137,418.147598L904.490673,418.389898L904.209196,418.643468L903.000217,419.488700L902.172702,420.187425L901.426703,420.688929L900.465368,421.438367L899.963940,421.939870L899.690150,422.114550L899.057975,422.570974L898.656519,422.824543L898.288905,423.106286L897.999740,423.455647L897.346033,423.957149L896.738466,424.340319L896.410840,424.526269L896.075527,424.808011L893.492036,437.317283L874.856935,440.467113L867.938169,441.689852L871.459827,451.883039L869.827966,454.142541L864.758728,462.318397L854.112974,479.481252L853.205594,480.946221L847.522997,490.119126L845.695974,493.060296L844.561157,495.849327L842.173158,501.709080L849.980215,494.254791L856.682989,487.854081L863.442457,490.293794L870.518873,492.908167L873.140233,493.871651L889.070073,499.894815L892.524976,499.646902L896.915454,508.250548L897.629103,507.732190L898.159731,507.377228L899.773176,506.419392L901.059016,505.681295L908.860173,501.173816L915.815390,497.212850L916.539494,478.776940L916.675805,475.215925L916.674213,474.883488L923.388311,472.922669L927.141868,464.746910L927.324858,464.346854L927.515538,463.935528L929.328535,459.946223L929.865221,458.841836L930.938573,456.430210L930.964714,456.368229L931.209219,455.827303L932.339520,453.612882L935.209130,447.983834L938.326376,441.819451L939.991876,438.269558L940.102602,438.032898L940.567038,437.041179L940.774652,436.601667L942.990743,431.879716L945.832813,425.980058L946.803246,423.928975L956.433636,421.748284L966.997718,420.035283L971.296803,418.553310L972.508864,418.288470L972.768792,417.995456L980.610288,416.519114L982.425301,416.124671L987.275072,415.059674L987.819575,414.941341L1000.000000,410.940546Z M829.876134,546.833515L826.198700,549.605474L829.716497,554.152144L833.435466,551.464710L829.876134,546.833515Z M828.491487,293.889737L830.809933,297.158416L833.932506,301.571114L834.314042,301.187892L836.250993,299.113982L837.683321,297.586725L837.971018,297.276765L839.492062,297.569818L841.106332,294.380040L842.822648,294.870342L845.367904,295.602977L845.628455,299.057626L844.180430,301.858531L843.043231,304.146587L835.299171,310.199202L834.290013,310.988180L840.611146,312.154740L841.269406,312.278722L837.759729,318.150946L835.397940,321.983087L832.773068,326.237871L830.555961,329.760029L829.837432,330.954742L829.246612,331.918400L828.886612,332.357964L828.572785,332.645370L828.386649,332.786256L827.748252,333.248360L827.337533,333.501954L827.646565,334.110579L827.706526,334.228923L828.129549,333.980964L828.591041,333.642840L829.261748,333.130016L829.723271,332.639735L830.207896,331.997296L830.492536,331.529556L830.657175,331.213972L831.000285,330.633522L831.349546,330.064343L832.349625,328.480783L836.136059,329.991082L841.320571,331.754973L844.510102,326.260413L847.579638,321.070137L850.210661,316.775879L854.012604,310.576784L846.384562,307.589932L845.975479,307.432136L845.421834,307.212348L846.988040,305.296249L848.274183,303.949341L848.378811,303.785909L850.068019,302.061413L850.297157,302.185396L850.929230,302.438999L857.506819,305.065189L861.656533,298.522241L865.324694,292.745697L865.500105,292.458277L865.366322,292.356835L865.104928,292.080687L864.994269,291.776361L864.765206,291.381863L864.434584,291.173343L864.163985,290.812660L863.731912,290.384348L863.619697,290.153284L863.401535,289.262845L863.261655,288.964154L863.135576,288.817626L862.963466,288.265327L862.597606,287.560865L862.493147,287.098737L862.541018,286.399909L862.518045,286.044859L862.425843,285.757438L862.276841,285.086788L862.238706,283.959644L862.120609,282.787412L862.146869,282.387275L862.097875,281.603908L861.994947,281.186863L861.913707,280.234422L861.815497,279.462324L861.720482,278.290087L861.586834,277.749054L861.608589,276.993861L861.565588,276.779702L861.431886,276.424648L861.407337,276.227396L861.459732,275.883614L861.432123,275.630004L861.272263,275.320036L861.163177,274.942439L861.180154,274.745187L861.157176,274.440854L861.035732,274.243602L860.832791,273.989992L860.791332,273.770196L860.829840,273.578579L861.191481,272.896648L861.263833,272.682488L861.288490,272.524686L861.033302,272.124544L860.951883,271.814575L860.805852,271.555329L860.559851,271.290446L859.930944,270.839581L859.417294,270.693051L858.963595,270.647964L858.445279,270.670507L857.573179,270.822674L856.681046,271.098829L853.958543,271.808940L851.849775,272.299254L849.350299,272.953006L846.829279,278.616961L843.169341,287.115644L841.190079,286.490081L840.105006,289.127589L839.533998,290.525240L835.289143,290.119470L832.604848,291.601655L828.491487,293.889737Z M797.262785,336.387283L796.872161,336.161867L796.542072,340.546199L796.219809,344.445870L796.123753,347.956686L795.881458,352.239525L795.890392,353.845584L795.738561,360.095101L794.499331,366.541806L809.084060,364.603291L820.108141,361.847662L825.433813,356.978801L829.801120,352.983384L830.366393,339.509290L829.915915,338.540004L821.093919,336.156232L805.979617,341.402776L797.262785,336.387283Z M721.640033,556.580405L721.440210,557.414238L721.306535,558.242436L721.165316,559.808687L720.823291,564.851092L720.649891,566.907483L720.580781,567.448342L720.534707,567.803280L720.225842,569.392049L719.964543,570.400521L719.223608,572.879443L718.313525,575.623150L718.161325,576.045692L726.682195,575.718926L725.617346,580.840114L737.791748,580.130248L737.853392,580.564055L737.853491,580.952791L737.929142,582.011955L738.020011,582.423225L738.082375,585.595073L738.495481,594.214780L738.446371,594.631679L738.589608,595.223224L738.474380,595.747164L738.567033,596.964054L745.902599,603.978045L745.948813,604.180858L767.136086,591.341554L768.032419,594.654214L772.207152,593.290842L772.372448,595.527447L775.102758,594.535905L776.933216,593.865486L777.157784,593.752811L776.929471,591.696482L777.677042,591.442962L777.379926,590.755640L775.595734,586.671133L774.267118,583.200695L772.109072,578.693613L771.665272,575.921746L778.320099,569.814593L778.077642,566.169437L776.841140,567.453976L775.180552,564.608832L781.020310,559.222752L782.626994,561.927064L783.395029,563.544013L783.890579,564.349670L784.695471,565.679283L788.957014,572.676622L789.946598,574.209043L796.422753,567.521583L795.396448,566.665224L800.694578,561.132673L801.745494,562.017207L804.101982,561.076333L804.060179,560.045314L792.841510,541.960030L797.985163,539.734556L806.963441,535.717421L813.953790,529.649429L814.346853,525.908324L816.113228,519.958583L812.793923,512.994631L811.013948,511.890310L807.937079,509.974647L807.529391,509.692932L804.944715,507.275810L803.927773,506.317974L798.665730,509.078792L792.500802,512.459373L791.327187,513.090414L787.512544,515.096218L777.975875,519.789556L773.934248,516.183632L772.798847,515.169463L772.114270,514.887749L771.526655,514.960995L771.079014,514.960995L761.520014,514.273613L761.444699,514.735624L760.505221,517.806300L758.046052,521.761539L756.980266,523.485612L751.713419,525.384343L748.667751,526.483013L748.543158,526.550623L748.315496,526.590063L746.874190,527.136580L751.261945,530.522726L734.293650,544.641858L732.085013,546.850417L741.603295,550.461850L740.000791,552.681662L729.790232,549.053337L726.157159,551.526684L728.375777,553.391550L725.717978,555.673329L724.243775,553.126751L723.397770,553.538035L722.800950,553.814102L722.485717,554.478917L722.090537,555.385994L721.640033,556.580405Z M687.363128,452.846568L685.903269,454.627121L690.073318,455.968169L691.394723,454.289042L691.693131,454.429908L692.288411,454.666564L693.052882,455.196222L693.291300,455.337088L693.795828,455.517397L693.981952,455.528666L694.221914,455.528666L695.000255,455.483589L695.197148,455.455416L695.378661,455.382165L695.601704,455.359627L695.969336,455.415973L696.207759,455.421608L696.819979,455.207491L698.430499,455.089163L698.930424,454.982105L699.774907,454.948297L700.390188,455.128606L702.340621,455.928727L702.497513,456.097766L703.003575,456.475287L703.149704,456.531634L703.757304,456.435845L703.994190,456.430210L704.106480,456.441480L704.261838,456.514730L704.332593,456.593615L704.569472,456.824635L705.576993,457.258503L706.166130,457.314849L706.432240,457.405004L706.526070,457.466985L706.590673,457.534600L706.827554,457.731813L707.007525,457.748717L707.241335,457.737447L707.484373,457.759986L707.742790,457.929025L708.101188,458.238930L708.591877,458.368527L709.313264,460.120896L717.008969,462.526877L726.384486,459.134837L730.968477,472.111295L727.941278,474.663741L729.330426,478.720594L729.656566,479.672825L729.782715,480.022164L732.278059,486.839880L747.382974,470.894231L747.962871,470.274430L747.881307,468.882693L746.988984,454.993374L746.755205,451.336475L737.566146,442.873147L737.737242,434.945043L734.085662,433.260241L731.732295,432.144551L729.265106,431.057034L726.762547,429.946976L723.380186,428.374862L725.291260,420.734008L715.815917,422.311771L715.214481,422.385024L714.606897,422.413198L714.036235,422.373754L713.330223,422.238517L712.413494,421.962409L711.930345,423.596518L710.294400,433.457459L709.905204,433.885703L709.952885,433.930781L709.509856,434.319582L709.434492,434.206886L704.790596,435.311303L696.749730,445.222827L692.698023,446.304692L687.363128,452.846568Z M176.380046,693.183182L176.523297,695.261803L176.805222,699.520425L177.450956,709.986632L177.646580,711.958186L177.937897,716.250523L177.976441,716.870150L178.790730,719.940114L180.502517,726.468679L185.897313,730.969361L195.714626,739.170793L196.111618,739.424270L197.140780,738.799026L197.853025,738.286439L198.282212,737.948469L199.109806,737.216200L201.254133,735.143314L203.726089,732.631058L212.921761,723.393106L217.961119,718.458647L214.846679,715.394311L209.621158,710.358411L205.580519,706.460357L206.663410,704.792976L205.875039,699.328900L205.873332,697.847397L205.874832,697.503779L205.866743,693.797192L201.119057,694.653426L190.500576,696.371525L185.483577,696.557418L183.475778,695.813848L176.380046,693.183182Z M0.000000,553.194359L16.489823,576.727391L23.325212,586.485217L37.470576,586.147188L39.178179,586.079582L40.782710,586.017610L59.900386,584.288026L68.427691,583.617599L70.669132,583.420415L71.616776,583.364077L71.887519,583.403514L72.172096,583.493655L72.392054,583.617599L72.572004,583.786614L72.754995,584.113377L72.816478,584.344364L72.864081,584.727464L72.828587,585.228875L72.531345,586.755640L70.172292,597.583767L69.902778,599.093609L69.819531,599.989373L69.833239,600.699222L69.894679,601.200624L70.105279,602.034414L70.352843,602.648489L70.552774,602.963977L70.757336,603.194959L71.171101,603.521714L71.531052,603.690726L71.994082,603.820301L72.395588,603.887905L72.969404,603.899173L73.730915,603.848469L75.555481,603.623121L84.027611,602.276664L86.492165,601.921740L87.459841,601.741461L89.779821,601.189356L90.282887,601.104851L90.950553,601.059781L91.347450,601.093583L91.972010,601.223159L92.365811,601.369636L92.962652,601.668223L94.059399,602.366804L94.962315,603.048483L95.426830,603.510447L95.655986,603.887905L95.880486,604.518880L95.957327,604.997745L95.964951,605.409004L95.929525,605.673788L95.778682,606.175187L95.543226,606.682219L95.273939,607.110379L94.929265,607.577974L94.639992,607.927263L92.890540,609.837078L91.995032,610.884939L91.647281,611.363800L91.518022,611.583513L91.259489,612.124343L91.044012,612.794748L90.948558,613.279241L90.786855,614.428504L90.523439,616.828430L90.524897,617.397426L90.614063,617.831214L90.694029,618.045291L90.917044,618.428377L91.198532,618.715691L91.498499,618.867799L91.784635,618.918501L92.069239,618.924135L92.652306,618.833997L93.330779,618.563584L96.881651,616.817163L98.544770,616.034089L99.137088,615.791843L99.892479,615.527062L100.434015,615.386222L100.684779,615.346786L101.270916,615.296084L101.487831,615.296084L101.921652,615.346786L102.321623,615.436924L103.133861,615.707339L104.896769,616.434076L110.557781,618.805829L111.390018,619.121311L112.488397,619.459327L113.140665,619.588900L115.202087,619.915649L115.972807,620.084657L116.655833,620.304368L116.937347,620.422673L117.489595,620.766323L118.006453,621.171941L118.381775,621.605728L118.569424,621.932476L118.717073,622.270491L118.915458,622.895819L119.521343,625.222486L119.725892,625.791476L119.799715,625.994284L120.115033,626.546373L120.298076,626.822417L121.030281,627.622382L121.631750,628.140669L122.310147,628.596986L122.700888,628.771626L123.060867,628.873030L123.505463,628.934999L123.730071,628.940632L124.436216,628.805427L125.714675,628.399812L126.946984,627.977296L134.596227,625.183051L135.288538,624.895739L135.702389,624.698564L136.407018,624.298580L136.743952,624.061970L137.590147,623.312704L138.236345,622.619774L139.176417,621.526858L140.179574,620.338169L135.345953,638.033123L136.753547,639.047150L142.807031,643.142679L143.714631,644.720044L135.971305,654.432042L144.095746,658.043029L149.157203,661.546969L150.571035,662.893334L158.354089,656.262888L173.107939,643.728558L202.323514,618.817096L203.066551,619.019906L219.601120,623.842261L220.907215,624.281679L221.587181,624.597160L222.187149,624.985876L222.827112,625.532332L223.933199,626.704113L225.836169,628.827961L226.628437,629.712427L229.225249,632.608061L231.403639,634.991037L234.562032,638.500703L234.708184,638.692241L236.075860,640.207646L236.549704,640.787893L237.455857,641.999087L238.249710,643.232814L238.349711,643.390551L239.431279,645.514359L239.852841,646.641045L244.264172,660.403402L245.319790,664.076331L246.296977,667.698545L247.766690,673.421951L248.927128,677.928543L249.319600,679.500211L251.532941,688.299248L251.930064,689.837099L252.097843,690.490544L252.491889,691.955160L252.742802,692.997289L252.956827,694.276008L253.027705,695.047745L253.063211,695.898344L253.014133,696.974267L252.941934,697.729102L252.843598,698.596599L252.643814,700.072467L251.565014,707.812285L251.311459,709.586688L251.168548,710.583732L250.934993,712.301799L250.872014,712.870732L250.822870,713.372068L250.795252,713.794543L250.786067,714.048027L250.761509,714.374740L250.767717,714.673289L250.767759,714.909874L250.773958,715.157725L250.818646,715.552034L250.855614,715.788619L250.958770,716.205459L251.008032,716.363183L251.084990,716.537805L251.308157,716.988443L251.628264,717.506676L251.851411,717.839021L253.345709,719.940114L254.699970,721.810251L258.305767,726.896780L259.873997,729.099243L274.222708,749.298552L277.124003,753.382292L277.962870,754.638390L278.119885,754.925659L278.261525,755.252356L278.329310,755.562156L279.446283,755.494563L281.629471,755.410072L282.492611,755.443869L283.263457,755.545258L283.863548,755.731137L284.262087,755.911384L284.840696,756.294409L285.246979,756.649269L285.584028,757.004130L286.797647,755.973344L287.894343,754.965088L289.178710,753.844175L290.081628,753.106288L290.513875,752.807753L291.261490,752.385298L292.110644,751.945944L292.661376,751.703736L293.262890,751.495324L293.927495,751.326342L294.773658,751.185524L295.710602,751.067236L295.297749,754.542633L303.282893,754.677819L304.086488,756.215551L307.032140,758.953045L310.500771,761.194854L311.087510,762.884656L311.301573,763.504250L314.614677,765.233476L317.620946,764.957476L317.915653,767.447106L319.611636,768.843999L320.256498,769.424160L313.376136,774.256939L305.385398,780.435872L299.933901,783.922415L298.838648,784.536361L295.072945,786.648555L282.430471,791.300998L281.535087,791.520664L276.838182,792.714749L271.256624,794.038379L269.355012,794.308737L266.404130,794.736804L265.708717,794.832556L259.259241,795.784441L254.752582,795.519716L250.635084,794.945205L247.032789,793.700431L243.482753,792.264151L237.592472,790.675792L232.944252,790.304048L228.747271,791.255938L213.129459,797.575559L202.150833,800.222801L196.089190,801.681597L190.723107,803.500865L184.689833,807.088696L181.531992,809.949939L175.683720,814.652944L174.656361,815.965276L175.275020,816.353905L175.616669,816.573566L176.071903,815.987805L176.679416,815.266868L177.077770,814.821914L178.383618,813.503949L179.297288,812.692892L180.366332,811.802982L186.385340,806.947887L187.432882,806.170618L188.580442,805.415879L189.143464,805.077935L190.571058,804.345724L191.398720,804.002148L192.475631,803.641675L193.364867,803.393849L194.515663,803.134758L202.225132,801.591479L202.732839,801.490095L207.154510,800.611438L209.136101,800.200271L211.073058,799.749677L212.489986,799.361040L213.243823,799.118846L214.054575,798.837224L214.797626,798.549970L215.566819,798.217656L216.371385,797.840283L221.855585,795.046589L222.881669,794.550933L224.206227,794.010217L225.192355,793.661004L225.730811,793.497662L226.324663,793.351218L228.289345,793.018903L233.283469,792.511980L234.432768,792.410596L235.411316,792.410596L236.911506,792.579570L237.863964,792.776706L247.361048,795.254990L256.137997,797.412218L256.927362,797.581191L258.087528,797.744532L259.124567,797.800856L259.423059,797.806489L260.341587,797.755797L261.093940,797.688207L264.187942,797.327731L265.948022,797.102433L269.017394,796.713795L272.412937,796.296994L275.273052,795.897090L278.283912,795.401434L279.527000,795.125444L282.991587,794.201720L284.045400,793.858140L286.048406,793.182244L288.645199,792.207827L290.831216,791.317895L292.298793,790.658894L294.032486,789.836551L296.676819,788.450957L297.810528,787.814485L300.245581,786.350032L301.082380,785.820576L303.192804,784.395548L305.224748,782.936722L307.938074,780.892109L313.035528,776.960580L321.366200,770.550684L322.769002,769.469221L326.743608,766.405067L330.212153,763.707026L331.873371,762.439676L334.658991,760.316156L337.001630,758.564389L337.423097,758.271488L338.810557,757.313929L343.895920,753.984994L344.617355,753.540008L345.667972,752.886611L349.887408,750.413837L351.354886,749.501331L353.389946,748.149468L354.988138,747.045445L358.438329,744.668412L360.105739,743.513689L362.740663,741.637966L364.703382,740.195966L373.740202,733.566114L379.923694,729.020383L394.984127,718.227695L397.623649,716.284321L400.053960,714.431070L401.598276,713.219977L403.294855,711.839892L406.112747,709.547257L409.730480,706.606816L414.803369,702.697479L433.612182,688.316148L435.027311,687.257113L435.727195,686.772661L435.925629,686.654365L436.308654,686.434671L436.942423,686.107947L437.705425,685.781223L439.503678,684.891181L443.700075,682.671705L444.738413,682.147818L445.824446,681.635197L448.198064,680.666286L449.204140,680.328293L449.359514,680.283228L449.933320,680.108598L451.179401,679.787505L451.499389,679.731173L451.891682,679.663574L452.862434,679.573443L453.656281,679.556543L453.902439,679.567810L454.345523,679.584709L455.133239,679.657941L456.027123,679.781872L457.251802,679.995934L461.641283,680.840915L465.763099,681.770394L466.670841,681.928123L469.860199,682.299914L473.606483,682.660439L475.465009,682.835068L479.691329,683.296990L481.286768,683.437819L482.037556,683.477252L482.748331,683.477252L483.359095,683.437819L484.566752,683.274457L487.811198,682.581574L493.649334,681.280305L495.870756,680.818382L499.824392,679.995934L501.213539,679.674841L502.525755,679.331215L503.730260,678.925623L504.528633,678.604530L505.534651,678.114439L506.831365,677.370853L508.458789,676.413204L508.806422,676.204774L509.650895,675.697783L512.333513,674.069775L515.011515,672.441764L517.611074,670.881349L520.670552,669.039268L522.467176,667.985843L524.080778,667.129583L533.539402,662.335635L535.789854,661.242769L536.862026,660.780835L537.794234,660.442835L538.624931,660.206235L539.466410,660.014701L540.427902,659.873868L541.603246,659.761201L543.007825,659.671067L544.324726,659.631634L553.600055,659.704867L558.143093,659.699234L558.710786,659.716134L559.124630,659.721767L561.709269,659.873868L563.958544,660.087935L565.927826,660.313268L569.224853,660.747035L569.578704,660.769569L572.135669,660.972369L575.865012,661.428669L576.995815,661.563869L580.745207,662.166635L582.700676,662.476468L585.337730,662.944034L586.042391,663.101767L586.928626,663.372166L588.061060,663.789032L592.063120,665.462126L598.791776,668.425240L603.230914,670.425054L603.569164,669.811027L603.996591,669.039268L608.855125,660.127368L611.738049,654.972846L619.585894,640.838594L621.241941,637.965522L622.919489,634.929068L623.436082,633.813633L624.186324,632.010908L624.990352,629.977204L627.154735,623.667620L628.544381,619.538198L629.039487,618.518515L631.505802,613.403181L628.842215,604.152689L627.114851,598.169676L622.298656,600.428804L617.694060,599.375296L617.552085,597.189404L618.005495,595.121816L621.554716,588.085220L630.563170,594.682383L643.684806,583.617599L646.907233,581.296456L650.548433,580.772508L653.991890,575.814702L652.842013,571.724492L631.167018,573.949884L616.056078,575.882309L613.180576,583.476753L603.282627,582.727453L600.474439,587.995079L599.098071,590.755640L593.941114,588.750009L577.714615,590.152824L576.463904,590.051416L577.333920,585.426059L579.134021,575.820336L582.971512,555.250778L583.937581,555.211340L607.267892,555.002881L609.210803,554.985979L609.046327,556.163488L608.560607,559.684739L614.203198,559.453745L614.827759,559.431209L635.636719,558.586110L636.007089,542.112150L636.118827,536.038567L630.602369,535.063861L629.894602,533.176419L626.748710,532.410173L625.644126,531.249535L624.145775,530.601605L620.796856,530.088895L619.944597,529.440964L614.920473,528.928253L615.295560,523.767323L593.233235,520.347346L593.626928,510.605689L599.372406,510.216922L602.721261,512.217099L602.930469,512.346687L603.150440,512.014264L605.442447,507.709653L607.279206,497.787557L607.700706,496.919861L608.272947,496.547992L609.732762,496.508551L611.271028,496.435304L611.837191,492.367263L607.777704,492.987048L607.023876,496.542357L606.259358,496.536723L600.610851,496.418401L599.438692,496.435304L598.992594,496.480379L598.203461,496.615604L597.515852,496.767733L597.600511,494.801328L597.316023,492.006660L597.274533,490.840334L597.242245,490.451558L595.684115,487.521649L596.736535,482.535147L598.576696,475.813185L600.693663,471.035095L601.504489,468.809444L603.967230,468.460100L604.514853,468.313601L604.809822,473.283280L609.661530,471.773222L609.764951,466.933130L617.583941,464.865237L614.560734,473.046629L613.717640,475.322981L616.894152,474.573589L623.253321,473.069167L622.536182,479.413638L632.396214,483.273263L639.138512,478.168413L639.135516,475.965317L643.138009,476.331561L650.894000,471.367534L650.479923,481.064546L650.395285,483.014077L650.342969,484.101531L650.053775,484.248027L649.699974,484.495944L649.341558,484.811474L648.990831,485.217156L648.761627,485.566493L648.512424,486.107401L648.170920,487.425863L648.094005,487.623069L647.941715,488.011846L647.612525,488.592194L647.372555,488.947164L646.329648,498.074911L636.686312,503.292334L639.962877,505.303794L640.022871,505.371406L649.784991,511.400126L651.980186,512.808699L653.763113,513.918653L656.398286,515.558228L657.585887,516.296317L661.124035,517.654175L673.419641,534.962446L674.931693,534.004640L675.259330,533.801811L675.740821,533.813079L677.296055,533.863786L682.607423,530.195944L691.636625,524.285671L693.350083,522.251717L693.652715,517.879545L692.295935,517.778128L692.314183,515.310320L698.419372,512.098779L697.716226,510.177482L695.985329,505.444653L693.019090,497.241022L694.597311,496.362057L688.828815,496.311347L687.811926,493.730791L688.202620,492.992683L688.044108,490.682570L687.298058,490.879775L686.053594,490.383945L684.439945,489.719082L683.870784,489.471166L685.781203,484.197317L685.044375,483.684580L684.301396,483.312705L683.692247,483.092960L680.408078,482.309767L677.973028,481.847740L676.005608,481.532208L675.368773,481.346270L674.625800,481.075815L674.168941,480.839166L673.338285,483.425394L673.133698,483.431029L672.841433,484.501579L672.338438,486.699019L668.766613,486.935666L667.417564,486.924397L664.299622,495.471822L660.856929,491.195303L660.081639,490.231815L657.743495,491.662960L655.394584,493.099737L653.117969,494.491436L653.085647,492.158789L653.065644,490.558612L652.976465,483.312705L652.805724,482.940829L652.679587,482.997174L652.505849,478.529021L651.911022,465.851290L656.453395,466.335864L667.342491,467.507857L669.650242,458.362892L663.741960,457.844505L656.881460,458.329084L645.998481,459.146106L638.961046,460.008204L639.345626,459.681396L639.639437,459.534895L640.356292,458.954528L640.785465,458.836201L641.303880,458.374161L641.768443,458.109333L642.560643,457.895217L642.877534,457.664197L643.788220,456.880982L644.674262,456.525999L645.117291,456.238632L645.391116,455.945630L645.348068,455.663898L645.323491,455.213126L645.766584,454.131271L646.308090,453.466381L646.537303,453.235360L647.043402,452.919818L647.458726,452.852202L647.704854,452.677527L647.877163,452.333812L647.734127,452.114060L647.600361,451.404091L647.660409,450.727929L648.449736,448.192318L649.257352,447.583771L649.975739,447.116090L650.540279,446.924510L650.527957,447.104821L650.472325,450.012324L651.232067,451.640747L654.093028,453.162109L656.020373,453.708672L658.681442,454.356658L663.756089,453.381861L668.822964,453.533997L669.961499,449.770033L670.156853,449.764398L670.787529,449.634800L671.184388,449.634800L671.599703,449.668608L672.145770,449.646069L672.613392,449.572819L673.430182,449.572819L673.687066,449.544645L673.954719,449.477029L674.242364,449.488298L674.540757,449.781302L674.709956,449.854553L674.997600,449.882726L676.078963,449.893996L676.398909,449.922169L676.668091,450.001055L677.040335,450.057402L677.381797,450.378579L677.606375,450.401118L678.513921,450.389848L679.136905,450.271520L679.544542,450.113749L679.818354,449.955977L679.578405,449.770033L679.366150,449.482663L679.286179,449.234737L679.176982,448.992445L678.963184,448.795231L678.901669,448.598017L678.724799,448.231761L678.732503,448.051451L678.684838,447.769716L678.532571,447.533058L678.266483,447.223150L678.141893,447.155533L678.021949,446.648409L677.865061,446.513176L677.751251,446.270884L677.740498,446.073669L677.495949,445.718682L677.432899,445.510198L677.443682,445.301713L677.348349,444.822762L677.326846,444.411427L677.279183,444.129691L677.163842,443.825416L677.099278,443.318290L677.156223,442.923859L677.162439,442.140631L677.108634,441.763104L676.991756,441.447558L676.247517,438.579470L676.118372,437.886394L676.121472,437.621560L676.055353,437.373631L675.953889,436.765076L675.872452,435.846607L675.887864,435.536695L675.995577,435.142260L676.097147,434.635129L676.132617,433.727929L676.101889,433.367302L676.137305,433.001040L676.208096,432.674222L676.257361,432.257247L676.232827,431.519088L676.406761,430.409031L676.425261,430.020229L676.674668,428.025503L676.791642,427.394402L676.833305,426.244896L676.873349,425.811013L676.811876,425.343321L676.885767,424.853090L677.010427,424.295240L676.935082,424.081116L676.699774,423.793738L676.342994,423.157000L676.127666,423.016128L675.647757,422.982319L675.098653,422.762560L674.824858,422.751290L674.607985,422.666767L674.560328,422.452642L674.675739,422.080741L674.835741,421.832807L675.228031,421.410192L675.641866,420.908689L675.892644,420.480439L676.131125,419.995839L676.509591,419.421082L676.906488,419.066084L677.074201,418.671642L677.163468,418.277200L674.620845,418.395533L673.991828,417.674267L674.301129,416.744509L677.449791,416.620542L678.843362,416.738875L682.328853,416.851573L682.041054,418.074344L694.243480,417.510855L696.055457,417.465776L698.038775,412.569041L702.790130,412.997295L709.058323,400.420063L705.794676,398.295666L687.760330,395.258389L681.467391,388.902050L686.245635,384.906775L686.278009,384.534858L686.570400,383.802295L685.543146,382.697814L684.531095,382.483680L684.386775,381.187603L683.825475,380.607186L681.396962,379.649214L681.297146,378.882836L681.494192,378.110822L680.317682,377.366983L679.825514,377.209199L678.564334,376.809104L678.299782,376.780928L677.937988,378.308052L670.605381,379.812633L664.334124,381.097441L664.132749,380.550834L660.879405,381.396103L659.151980,381.841277L660.369145,379.615403L663.034317,374.724097L663.872963,373.174426L664.789362,368.164746L666.626310,366.423467L668.613558,366.429102L671.100763,366.158612L672.629692,366.000826L681.678903,364.090486L682.103535,363.634032L684.259008,361.301044L687.742623,362.163236L689.834204,356.973166L694.433328,356.251850L698.661746,355.603793L702.025710,355.096618L701.834828,343.871064L733.491512,333.389246L734.352923,333.073662L738.615258,331.912765L739.371934,332.132546L741.632736,332.791891L742.346350,333.000402L744.018740,331.135075L746.794260,328.069395L750.169822,324.327447L750.400815,323.313061L750.557912,322.552271L752.472392,313.366382L752.047969,313.095876L753.033875,303.137814L748.468661,299.328136L747.098570,298.415164L743.872064,297.507826L742.849298,297.417656L741.960260,297.564182L740.830578,295.298652L739.102302,285.362938L742.999539,277.467265L743.468762,277.134755L742.245090,275.601825L742.765107,275.167870L742.695942,275.049519L742.697548,274.874810L742.776065,274.671922L742.917620,274.525391L743.286861,274.221059L743.485351,274.001263L743.680780,273.742017L743.825467,273.448956L743.916327,273.150259L743.961013,272.936099L743.982642,272.688124L743.950456,272.400698L743.740117,271.465156L743.741697,271.358075L743.784810,271.234088L743.897134,271.110100L744.007897,271.042470L744.424767,270.867761L744.281987,270.225278L743.851268,270.416896L743.742058,270.445075L743.640556,270.428168L743.531380,270.371809L743.482206,270.264729L743.405455,269.887130L742.670163,270.197099L743.219772,272.727575L743.224353,272.812111L743.231994,272.936099L743.204224,273.155895L743.134934,273.358783L743.031819,273.533493L742.891785,273.725110L742.777934,273.820918L742.527150,274.046349L742.437923,274.102707L742.282560,274.164701L742.144132,274.181608L742.008798,274.153429L741.871956,274.046349L741.362699,274.491576L741.328881,274.446490L741.050610,274.164701L740.718505,273.894183L740.398681,273.680023L740.084986,273.527857L739.591357,273.341876L736.987732,272.755754L731.285282,271.504606L729.895040,271.205909L742.731648,244.920143L755.936121,216.903331L755.072521,215.454842L754.188958,213.961262L753.586542,213.059477L752.088114,210.979731L751.356546,210.027217L748.776028,206.808953L746.679712,204.114846L745.858944,203.201779L745.460816,202.835425L744.769047,202.277438L744.174086,201.871630L742.973333,201.184010L741.000723,200.163851L738.983559,199.070420L738.011842,198.608247L737.446018,198.365889L734.403081,197.244274L733.308300,196.844100L730.954206,196.004297L729.733372,195.508305L729.209096,195.232128L728.881642,195.012313L728.615795,194.634683L728.462278,194.149964L728.391887,193.529973L728.430831,192.661985L728.442182,191.641817L728.290580,190.508922L728.181723,189.928383L728.060753,189.020938L727.834370,186.912956L727.581407,185.560238L726.749713,182.426434L724.494423,183.621339L723.246840,184.184973L715.707655,187.324408L714.247837,187.888039L713.491031,188.141673L712.749638,188.338944L711.769881,188.513670L711.253110,188.564397L710.370331,188.586942L709.735195,188.547488L709.003209,188.440398L707.224124,187.961311L704.590210,187.065137L703.043348,186.597322L701.188939,186.073144L694.061873,184.162428L692.230490,183.722793L690.789630,183.457885L689.822339,183.367704L688.578171,183.362068L687.486194,183.457885L686.646409,183.593158L685.634322,183.818611L684.588345,184.134246L682.468623,184.900788L670.391535,189.567659L669.317850,189.917110L667.938125,190.255288L666.927607,190.424377L666.118604,190.514558L661.636910,190.824554L659.340724,190.937280L656.051079,190.988007L654.777691,190.971098L652.886102,190.886554L650.416293,190.740010L645.727407,190.373651L645.478274,190.356742L639.674046,205.270270L635.974310,204.391021L632.494407,203.669585L626.108942,203.601951L625.759266,202.046353L625.661494,201.003650L625.047970,195.993024L625.038786,195.925389L623.485819,193.017071L623.034572,191.630545L621.045686,192.171628L616.241935,193.422884L611.156684,194.758681L607.515794,195.705574L605.922233,196.117022L605.443853,196.246656L603.564114,196.844100L601.545873,197.576813L592.553964,199.363504L591.806241,199.803131L587.800778,200.851472L587.566971,200.913470L579.860599,202.925604L579.617788,202.649429L579.476346,202.576158L579.030427,202.452161L578.054022,202.175986L576.699354,201.798359L575.333962,201.358733L575.283232,201.324915L575.204820,201.291098L574.113423,200.490753L573.265188,199.442412L573.042286,199.295870L572.673331,199.076056L572.350502,198.873151L572.130719,198.664610L571.362386,197.728992L570.856023,198.298254L570.497415,198.698427L570.291176,198.929514L569.399150,198.968967L569.129883,199.160600L567.720450,200.180760L567.469626,200.389300L566.637123,201.105102L566.490841,201.370005L566.446176,201.465821L565.716878,201.939265L565.515344,202.035080L565.353804,202.119624L564.444647,202.474706L564.312377,202.485979L564.217040,202.463434L564.037170,202.361982L563.941834,202.339437L563.837224,202.384527L563.524868,202.615612L563.380275,202.655065L563.175738,202.643793L563.015819,202.604339L562.889705,202.609976L562.302085,202.801607L562.029825,202.869242L561.057729,203.049601L560.425535,203.201779L559.790247,203.382138L559.319525,203.551225L557.867342,204.103574L556.529053,204.526290L555.941375,204.802464L555.793688,204.870099L555.064410,205.309723L554.469092,205.512627L553.878512,205.529535L553.704707,205.557716L553.358602,205.659168L552.895531,205.884616L552.626331,205.974796L552.174109,206.076247L551.758866,206.076247L551.214334,206.228425L550.852789,206.420056L548.673116,207.034401L548.228568,207.158398L547.177920,207.507842L545.964246,207.862922L545.510493,207.953101L544.918280,208.110915L544.492164,208.268728L543.746084,208.533629L542.793901,208.826711L541.424875,209.209971L540.666494,209.469236L539.452819,209.824315L538.803651,210.055398L537.669792,210.641561L535.684979,209.649593L532.783326,213.544187L529.562898,215.787375L528.661181,216.503165L527.770244,217.196410L526.831617,217.912199L518.099309,224.568446L516.248220,225.971831L515.957456,226.107097L510.835554,229.195664L510.495535,229.392926L508.659194,229.409834L510.493257,216.683521L511.344917,208.291273L509.647498,209.824315L509.028786,210.483748L508.799896,210.106124L508.718294,210.235756L508.498196,210.483748L507.959543,211.019185L505.438631,213.555459L502.292834,216.790608L500.716843,218.436359L500.310535,218.859068L499.827275,219.360683L498.869983,220.363913L498.335878,221.000793L498.057263,221.361505L497.637033,221.902571L498.106117,221.891299L497.459510,222.871981L477.724588,218.256003L480.171654,209.328331L477.579350,210.540110L477.619806,209.886313L477.352119,210.004673L477.238279,210.049762L471.481392,212.693126L467.830631,214.383974L466.832147,214.879955L466.589071,214.992678L462.543045,216.694794L460.107734,217.720570L458.832381,218.267275L457.873951,218.667440L455.694014,219.586128L453.675610,220.437182L450.332627,221.846210L449.434187,222.229465L446.268118,223.565221L444.282018,224.399363L444.220484,224.421907L433.233730,228.119176L429.652482,229.336566L429.366372,229.404198L427.109804,229.928352L424.831694,230.463777L415.183948,232.723832L414.188742,232.921094L413.922641,232.966182L413.578067,233.061995L413.510388,233.073267L412.904364,233.163443L412.542877,233.253620L411.638393,233.473425L410.984639,233.636870L408.174283,234.313194L401.118467,235.902553L400.844004,234.747168L400.633943,233.862312L400.129154,234.324466L399.558204,234.826073L398.388669,235.761653L396.894557,236.787408L396.782220,236.877585L395.911316,237.446822L394.086422,238.636020L392.924695,239.408152L388.760974,242.130335L388.514785,242.288143L388.357838,242.389591L385.785110,244.102927L384.912736,244.576349L384.340329,244.965230L382.067604,246.543299L381.092036,247.225250L378.077585,249.389452L377.675967,249.676885L372.600986,253.486770L367.642698,257.578434L365.892957,259.066307L362.881241,261.726438L359.871012,264.465463L359.010704,265.282660L358.270442,265.981504L356.960719,267.260838L355.767971,268.416182L353.762577,270.416896L350.886030,273.358783L349.474644,274.874810L338.384974,287.194544L325.565381,301.520394L322.599457,304.839766L320.854145,306.682604L320.324729,307.201077L319.429061,308.029507L318.496492,308.841030L311.384590,303.921163L310.776832,301.892344L309.728465,298.640589L309.249372,297.457105L309.040039,297.699438L308.860211,297.513462L308.585250,296.983711L308.491616,296.701929L308.244352,296.155271L307.949116,296.053829L307.743101,295.929845L306.885133,295.540985L306.292928,295.631155L305.871535,295.586070L305.511724,295.450815L305.216477,295.366280L304.959842,295.039412L304.833989,294.639280L304.766568,294.261691L304.660703,293.872830L304.628959,293.044387L304.707853,292.368107L304.779015,291.753818L304.736140,291.472034L304.599453,291.178979L304.102957,290.750667L303.946203,290.564689L303.826374,290.361805L303.557753,289.572808L303.364409,288.913432L303.169201,288.733090L302.783298,288.524569L302.457331,288.383677L302.052914,288.259692L301.279380,288.118799L300.916536,287.927185L300.259967,287.679215L299.910908,287.572136L299.740302,287.403065L299.061187,286.394274L298.747650,286.073038L298.549350,285.920874L298.226609,285.565824L298.128335,285.334759L298.063995,284.962802L297.948889,284.607752L297.716866,284.292151L297.567873,284.010365L297.237366,283.768029L296.943807,283.474971L296.842510,283.170642L296.818133,282.838134L296.921409,282.511261L297.037257,281.801158L297.052878,281.457378L296.888491,281.198134L296.644017,281.096691L296.593488,280.775453L296.870474,280.572567L297.316544,280.510573L297.581195,280.352772L297.462997,280.025899L297.884680,279.648304L298.221555,279.580675L298.772194,279.541225L299.366211,279.056550L299.669399,278.774762L300.309545,278.306994L300.641805,278.239365L301.052575,278.070292L301.331092,277.878676L301.655808,277.602524L302.146905,276.937503L302.487102,276.520456L302.821107,276.159767L303.355274,275.489110L303.969374,274.880445L304.280297,274.536663L304.318979,274.209787L303.552988,274.294324L303.362450,274.046349L303.282662,273.781467L303.018252,273.601122L302.821535,273.392598L302.850966,273.099537L302.984979,272.812111L303.168216,272.513414L303.639283,271.904748L303.802547,271.577872L303.871975,271.273538L303.896818,270.946662L304.115693,270.281637L304.000561,269.977303L303.676439,269.424993L303.569202,268.838868L303.560181,268.551441L303.449934,267.875143L303.487116,267.503178L303.612137,266.894509L303.397410,266.077313L303.240756,265.772978L303.022478,265.609539L302.816525,265.417920L302.519810,265.254481L302.037128,264.910694L301.749529,264.899423L301.566622,264.741619L301.543751,264.471099L301.367075,264.206214L300.765885,263.975144L300.433788,263.822976L300.193972,263.670808L300.058810,263.422831L299.817476,263.242483L299.280859,263.045229L298.921141,262.808523L298.377114,262.233665L298.200427,261.985687L298.128308,261.760253L298.156193,261.489732L298.254830,261.213574L298.513453,260.892330L299.030623,260.351286L300.135627,259.381916L300.912926,258.564714L301.028477,258.294191L301.084123,257.922223L301.064428,257.522075L300.907819,257.167014L300.571479,256.524522L299.987351,256.113102L299.646030,255.960933L299.330750,255.949661L298.944680,255.994748L298.541632,256.118738L297.832493,256.282179L297.047899,256.569609L296.638746,256.631604L295.789773,256.631604L295.392932,256.682327L294.983765,256.761230L294.673010,256.868312L294.329969,256.958486L293.917616,257.183922L293.591323,257.499531L293.414194,257.843321L293.264750,258.187109L293.118161,258.823964L293.094850,259.145209L293.142139,259.663710L293.220387,259.917324L293.361676,260.193482L293.544567,260.368194L293.893373,260.796520L294.047000,261.027591L294.045193,261.388286L293.992633,261.748981L293.821663,262.087133L293.536923,262.368926L293.182973,262.650719L292.896817,262.769072L292.256660,263.236848L291.721084,263.710259L291.428621,264.037138L291.342234,264.386561L290.700110,265.434828L290.329147,265.846244L290.253518,266.206937L290.290231,266.477457L290.390010,266.736706L290.388219,267.080491L290.340288,267.424277L290.141699,267.677889L289.926295,267.790605L289.186248,268.151298L288.740205,268.179477L288.449621,268.044217L288.180602,267.863871L288.030118,267.536993L287.950312,267.305924L287.644345,267.176300L287.419887,267.052312L286.832739,266.550723L286.512842,266.539451L286.282254,266.387284L285.916279,266.291475L285.587280,266.111128L285.009312,265.677169L284.751002,265.575724L284.474337,265.339018L284.385368,265.023411L284.333664,264.234393L284.329353,263.828612L284.235847,263.411559L283.822800,262.509822L283.375318,262.408377L283.155477,262.284388L282.909570,262.053318L282.663613,261.889878L282.449966,261.709530L282.208624,261.546090L281.588958,261.348835L280.761637,261.185395L280.518714,261.078313L280.286613,260.897966L279.874744,260.480911L279.562599,260.390737L279.151966,260.373830L277.841475,260.525998L277.427680,260.621808L276.132291,261.140308L275.283084,261.444645L274.469234,261.771525L274.140020,261.878606L273.575313,262.222394L272.550478,262.915604L272.282648,263.203032L271.660928,263.687716L270.789706,264.628902L270.509590,264.893787L270.321702,265.226301L270.201432,265.632082L270.211947,265.964596L270.492767,266.809971L270.632564,267.024133L270.709258,267.300288L270.682888,267.598987L270.584122,268.044217L270.256058,268.669794L270.108169,268.991035L270.106400,269.301005L270.227730,269.532074L270.430571,269.768778L270.891710,270.123834L271.094564,270.343630L271.178933,270.642328L271.189477,270.941026L271.119953,271.363711L271.028964,271.696224L270.540668,272.705031L270.371167,273.138987L270.352486,273.443320L270.403004,273.764560L270.407394,274.068893L270.470237,274.361953L270.593113,274.587385L270.891359,274.762094L271.141911,274.959346L271.360227,275.072062L271.733940,275.105877L271.939918,275.263678L272.178134,275.506017L272.368605,275.838528L272.608054,276.497913L272.932161,277.067126L273.125792,277.286921L273.391730,277.478537L273.662331,277.602524L273.932895,277.777232L274.131177,277.946305L274.353974,278.245001L275.060905,279.017099L275.217563,279.321430L275.460384,279.580675L275.754093,279.653940L276.061583,279.811741L276.424504,279.885005L277.139538,280.087892L277.780626,280.459852L278.021906,280.724732L278.341516,281.141777L278.573496,281.508100L278.894709,281.834973L279.494358,282.088581L280.160170,282.302739L280.959706,282.635247L282.686433,283.305899L283.038573,283.401707L283.480006,283.373528L283.746009,283.480607L284.018096,283.683493L284.419616,283.548236L284.707386,283.322806L284.991976,283.243906L286.019492,283.080470L286.279386,283.125556L286.829777,283.441157L287.344714,283.869472L287.422987,284.106172L287.377903,284.793731L287.133037,285.250224L286.795688,285.994138L286.632488,286.236474L286.510779,286.529531L285.848728,287.532686L285.591752,287.713029L285.282619,287.696122L284.971992,287.617222L284.930242,287.938457L285.170104,288.039899L285.257607,288.276599L284.909644,288.806354L284.415878,288.890890L283.764938,289.398102L283.466330,289.730608L283.270785,290.040571L283.046049,290.305448L282.807494,290.536511L282.547328,290.880288L282.160830,291.534027L281.881894,292.334293L281.597105,292.700611L281.278499,293.038751L281.119857,293.365620L281.039643,293.709396L281.020978,294.013722L280.554431,294.774536L280.452643,295.180303L280.406294,295.484628L279.508679,296.859727L279.236193,297.231679L278.873081,297.428927L278.520854,297.451470L278.179352,297.536004L277.484127,297.581089L275.441704,297.440198L275.107888,297.530368L274.072413,298.077026L273.704698,298.257366L273.360019,298.488427L273.112156,298.837836L272.922746,299.175974L272.787176,299.502841L272.477352,300.500347L272.501724,300.849755L272.668917,301.520394L272.840930,301.886709L273.063267,302.895483L273.345920,303.413959L273.519602,303.588663L273.794829,303.712646L274.100984,303.588663L274.470183,303.487222L274.893245,303.340696L275.176102,303.554849L275.308212,303.797180L275.548012,304.000062L276.003067,304.310020L276.149020,304.552350L276.413467,304.698876L276.605618,304.856672L276.776206,305.059554L277.215822,305.459681L277.432609,305.578028L277.729389,305.673833L277.950790,305.792181L278.395312,305.752732L278.696864,305.611842L279.304535,305.397689L279.898410,305.115910L280.398055,305.448410L280.860878,305.645656L281.039143,305.871079L281.285123,306.034511L281.786557,305.989427L282.458894,305.673833L282.748010,305.730189L283.067861,305.825994L283.284637,305.961249L283.661144,306.440273L283.737877,306.699510L284.008492,306.823493L284.343496,307.268704L284.663348,307.364509L285.443085,307.449043L285.784477,307.533577L286.030503,307.629381L286.333385,307.804084L286.973201,307.826627L287.689992,307.736457L288.071480,307.657559L288.479156,307.516670L288.872945,307.443407L289.185144,307.482856L289.786537,307.460314L290.077196,307.511034L290.489376,307.539212L290.786279,307.449043L291.136911,307.516670L291.398321,307.606839L291.890286,307.933703L292.543878,308.057685L292.871505,308.023872L293.269810,308.102770L293.538907,308.198575L293.989575,308.170397L294.323369,308.114041L294.667954,308.018236L294.995680,307.832262L295.207822,308.001329L295.012267,308.345100L294.453474,309.088995L294.116455,309.376409L293.757951,309.590561L293.485585,309.793441L292.773168,310.255557L292.413057,310.576784L292.151460,310.774029L291.753024,310.898011L291.433203,310.751487L291.005453,311.016358L290.677652,311.320678L290.448322,311.568642L290.119098,311.692624L289.406584,312.306900L288.721928,312.650668L288.427989,312.915539L288.124854,313.129689L287.795598,313.304391L287.487936,313.383289L287.200164,313.625617L286.973928,313.845403L286.681553,314.070825L286.329301,314.127180L285.683338,314.093367L285.066439,314.307517L284.761881,314.341331L284.435719,314.487855L284.181982,314.420228L283.908344,314.206078L283.679231,314.115909L283.306938,314.245527L283.129819,314.623107L283.012728,314.933062L282.707770,315.592419L282.495312,315.913644L282.129024,316.274318L281.930398,316.612449L281.642701,316.736431L281.376652,316.680075L281.209129,316.482832L280.958465,316.420841L280.809442,316.155972L280.503494,315.958728L280.231332,315.840382L279.971429,315.795298L279.519217,315.829111L279.422460,315.609326L279.439581,315.293736L279.547683,314.611836L279.452501,314.335695L279.226537,314.132816L278.928190,314.076460L278.531349,314.110274L278.182169,314.172265L277.788237,314.465312L277.397355,314.797809L276.792538,315.355727L276.398606,315.648774L275.944743,315.857289L275.500218,315.896738L275.149562,315.862924L274.774141,316.071439L274.340527,315.885466L274.507777,316.505374L275.198919,318.043871L275.240231,318.382002L275.247476,319.080805L275.488611,319.616178L275.548424,319.886682L275.568229,320.185364L275.649572,320.461503L275.762904,321.227931L276.007328,321.430808L276.150198,321.701312L275.997493,322.394477L275.994207,322.726971L276.029399,323.020016L276.141522,323.267977L276.213596,323.611742L276.357829,324.164018L276.503351,325.116413L276.363152,325.493990L276.315247,325.854660L276.530511,325.961734L276.777969,326.237871L276.836244,326.514009L276.845054,327.190264L276.766393,327.545298L276.577043,327.815800L276.249224,328.153927L275.965995,328.514595L275.799675,328.852722L275.590295,329.179578L275.323796,329.850196L274.991426,330.086884L273.940569,330.656064L273.557484,330.825127L273.192824,331.044909L272.854350,331.202701L272.423498,331.512649L271.980314,331.867681L271.200176,332.408682L270.693728,333.096204L270.425833,333.535767L270.011547,334.426162L269.540780,334.612131L269.439401,334.392350L269.291889,334.155662L269.081309,333.930246L269.019989,333.597756L269.197047,333.304714L269.610819,333.259631L269.875568,332.932777L270.042053,332.324151L270.077612,332.025473L270.422263,331.828233L270.750051,331.540827L270.871749,331.230878L270.895039,330.875846L270.881446,330.470094L271.021643,330.092520L271.108023,329.692404L271.282093,329.258474L271.468728,328.407522L271.469000,327.967957L271.415423,327.556569L271.454089,327.212806L271.432812,326.801417L271.368445,326.429477L271.394789,326.113891L270.946824,324.276728L270.914790,323.854067L270.953523,323.408864L271.015231,323.115819L270.972578,322.462103L271.117631,321.712583L271.059371,321.419537L270.924232,321.087043L270.738316,320.788362L270.424744,320.484045L270.275666,320.303709L269.900526,320.072654L269.542235,319.948673L269.225430,319.892318L269.124112,319.588000L269.175063,319.283683L269.384732,318.517254L269.554513,317.593030L269.625628,317.029478L269.442864,316.618085L269.299955,316.415206L269.077382,315.727672L268.997629,315.378269L269.088602,315.028866L269.091916,314.662556L268.856648,314.578023L268.398346,314.516032L268.056985,314.380779L267.746492,314.082096L267.386718,313.879217L267.043761,313.834132L266.688967,313.073334L266.601520,312.735201L266.264874,312.447788L265.322074,312.402704L265.056016,312.363255L264.713137,312.199824L264.602597,311.895504L264.527430,311.596820L264.415327,311.331949L264.195511,311.140340L263.915634,311.067078L263.637320,310.954367L263.369822,310.768393L263.140812,310.526064L263.002578,310.238650L262.739705,310.035770L262.467582,309.866703L262.309328,309.618738L262.098787,309.359502L261.456091,309.043910L261.062402,308.965012L260.660959,308.981919L259.805706,309.122808L259.382655,309.252427L258.658050,309.522934L258.325717,309.692001L257.930271,309.939966L257.684031,310.165388L256.956320,310.480980L256.613251,310.604962L256.271746,310.689495L256.045629,310.723309L255.668809,310.717673L255.416662,310.576784L255.163007,310.390811L255.033992,310.120304L255.109588,309.776534L255.268283,309.365138L255.745630,308.547980L255.985817,308.176032L256.235209,307.837898L256.753959,307.206713L256.881888,306.806587L257.011279,306.519172L257.632579,306.626248L257.914145,306.474087L258.155875,306.096503L258.276118,305.690740L258.436254,305.425867L258.719948,304.405825L258.730960,304.045146L258.635766,303.802815L258.107281,302.918025L257.956776,302.591160L257.595783,301.937429L257.540576,301.700733L257.202493,301.283698L256.830674,300.720136L256.763237,300.376363L256.758868,300.021318L256.468108,300.122760L256.091244,300.184752L255.697489,300.207294L255.331454,300.179116L253.374804,300.551067L253.034783,300.714500L252.899186,301.075180L252.895915,301.356961L252.836983,302.061413L252.739853,302.399549L252.693503,302.703872L252.693247,303.075822L252.521827,304.090231L252.372401,304.434003L252.238336,304.805952L252.073503,305.189173L251.848663,305.606206L251.626942,305.961249L251.331451,306.231757L250.992926,306.457180L250.575869,306.817858L250.344931,307.155993L250.272405,307.505399L250.258023,308.300015L250.346776,308.970648L250.387938,309.511663L250.603102,309.753992L250.859839,309.928695L251.141235,310.030135L251.407281,310.086490L252.094951,309.849797L252.340975,309.945601L252.784026,309.810348L253.141018,309.568018L253.482602,309.365138L253.702358,309.641281L253.729861,309.911788L253.613860,310.875469L253.947170,311.546100L253.968451,311.923682L253.866476,312.616855L253.508991,313.603075L253.259477,314.127180L253.069982,314.600565L252.702232,314.831622L252.366972,314.775267L252.042629,314.493490L251.613644,314.290611L251.173823,314.194807L250.735431,314.262433L250.413890,314.392050L250.122961,314.747089L249.921153,315.231745L249.662187,316.093981L249.480089,317.012571L249.392051,317.570488L249.448596,318.122768L249.568132,318.782123L249.781483,319.452748L249.935061,319.802150L250.039392,320.196635L249.960697,320.585484L249.823504,321.053230L249.463057,321.881648L249.312077,322.264861L248.920568,323.561022L248.474356,323.825890L248.088173,324.023132L247.777249,324.383802L247.458596,324.806462L247.152341,325.082601L246.692483,325.043152L246.529553,324.879724L246.394330,324.682482L246.549912,324.316176L246.262410,324.135841L245.814908,324.017496L245.490448,323.904787L245.355247,323.673732L245.354211,322.901671L245.222271,322.388842L245.108590,322.180329L244.667599,321.515341L244.412630,320.979969L244.239131,320.517858L243.716786,319.610542L243.643137,319.340038L243.611005,319.086440L243.642108,318.567974L243.600872,318.128404L243.350612,317.457777L243.166291,317.085833L242.971066,316.922403L242.574302,316.837870L242.325417,316.415206L242.007241,316.110888L241.762498,316.398299L241.623880,316.685711L241.383548,317.277441L241.227870,317.779002L241.122983,318.229843L241.147293,318.680684L241.394626,319.125889L241.644933,319.728888L241.821647,319.976850L241.945762,320.686923L241.970208,320.934885L242.066840,321.340641L242.297251,321.797115L242.369392,322.022535L242.522639,322.879129L242.462346,323.352510L242.428174,323.865338L242.290773,324.654305L242.138208,325.110778L242.036421,325.533438L242.022349,325.888472L242.364503,327.184629L242.438080,327.573475L242.502191,328.334261L242.611131,328.745649L242.683179,329.123224L242.719542,329.985446L242.794653,330.385563L242.789759,330.825127L242.732567,331.270326L242.766140,331.687348L242.738198,332.093098L242.744097,332.493214L242.693105,332.865152L242.712869,333.231454L243.238797,333.383610L243.523232,333.558308L243.758442,333.744277L243.985901,334.026048L244.168749,334.319089L244.416207,334.595225L244.626603,335.108047L244.803338,335.339098L244.878560,335.570150L244.849101,335.947722L244.927396,336.184409L245.097944,336.471814L245.505330,336.804303L246.188114,337.007177L246.787821,337.243864L247.070738,337.390384L247.473741,337.350936L248.087270,337.621435L248.433298,337.689060L248.686978,337.858122L248.517594,338.173704L247.954748,338.021548L247.585472,338.241328L247.231507,338.573816L246.925299,338.782325L246.543971,338.590722L246.378223,337.999006L246.203080,337.677789L245.535700,337.435467L245.206651,337.272041L244.866780,337.198781L244.551542,337.086073L244.224088,336.832480L243.979732,336.511262L243.695264,336.387283L243.413963,336.116784L243.455713,335.761754L243.157635,335.265838L243.210166,334.888266L243.076480,334.685391L242.455194,334.527600L241.695437,334.437433L241.288087,334.054225L240.620776,333.710465L240.382473,333.552673L240.165721,333.366704L239.915192,333.084933L239.755385,332.842610L239.627921,332.532662L239.202320,331.828233L238.896454,331.495743L238.538258,331.219607L238.173873,330.999825L237.812519,330.853304L237.478936,330.571532L237.337555,330.379927L237.068561,330.115062L236.563146,329.162672L236.355713,328.841451L236.160602,328.492054L235.863881,328.294813L235.631847,327.962321L235.545970,327.567840L235.566254,327.122639L235.429522,326.880314L235.334308,326.654895L235.277715,326.170246L235.120964,325.967369L234.887301,325.775763L234.632066,325.646147L233.726193,325.567251L232.924949,325.426364L232.652710,325.426364L232.211209,325.539074L231.960389,325.713773L231.097021,326.491467L230.629233,326.818324L230.175321,327.094461L229.743015,327.257889L228.883140,327.398776L227.961792,327.460766L227.589626,327.387505L227.334368,327.291702L227.129934,327.094461L226.884082,326.728156L226.333681,326.378758L226.115493,326.046265L226.029521,325.803940L225.926867,325.200945L225.864268,324.502147L225.830651,324.169654L225.386728,323.296155L225.270134,322.845316L225.285789,322.433926L225.082967,322.129609L224.907841,321.808386L224.635739,321.605509L224.269731,321.526612L223.885177,321.582967L223.526697,321.746396L223.122008,322.011264L222.206820,322.067619L221.773005,322.185964L220.925555,322.146516L220.494892,322.152151L220.128783,322.225413L219.731723,322.580448L219.568435,322.958026L219.326739,323.284884L218.920485,323.589200L218.477385,323.792077L217.988154,323.978048L216.240570,324.479605L215.912927,324.530324L214.504004,324.603585L214.054827,324.693753L213.767113,324.834640L213.439277,325.172768L213.357548,325.488354L212.867978,326.181517L212.533942,326.592905L212.098528,326.801417L211.640121,326.891585L210.664888,327.032471L210.097305,327.083190L209.752825,327.009929L209.417597,326.902856L209.219366,326.632354L208.911834,326.508373L208.109005,326.440748L207.659872,326.463290L207.238448,326.452019L206.846273,326.401300L206.515534,326.480196L206.161645,326.677437L205.798470,326.959210L205.561422,327.235348L205.335075,327.607288L205.113377,327.928509L204.754760,328.294813L204.511511,328.644211L204.349809,328.948525L204.125073,329.213391L203.912650,329.466986L203.618745,329.664226L203.349420,329.906550L202.929525,329.906550L202.432786,329.816383L202.092954,329.692404L201.481006,329.382454L201.168961,329.106317L200.921596,328.711836L200.917231,328.339897L201.288388,327.624194L201.531628,327.291702L201.705677,326.925397L201.802679,326.773240L201.922774,326.587270L202.056826,326.232236L202.138603,325.849024L202.502065,325.144591L202.674596,324.750108L202.888667,324.338718L203.042788,323.876609L203.099999,323.431406L203.041833,323.020016L202.811226,322.867858L201.722527,322.495916L200.975349,322.022535L200.415558,321.926732L199.926464,321.909825L199.677331,321.859106L199.288150,321.932367L198.675944,322.011264L198.316106,321.909825L198.071658,321.757667L197.725674,321.639322L197.408870,321.582967L196.804526,321.413902L196.332184,321.639322L195.142911,322.140880L194.836727,322.298674L194.308932,322.642439L194.048750,323.003110L193.709825,323.803348L193.649538,324.242915L193.555446,324.637398L193.446003,324.986798L193.293549,325.257300L192.959541,325.617970L192.556701,325.420729L192.467778,325.003704L192.372583,324.761379L191.991528,324.197831L191.862563,323.859703L191.701275,323.555387L191.529229,323.239800L191.290948,323.065100L190.880354,322.963661L189.726790,322.980568L189.008398,323.143997L187.932983,323.583564L187.288477,323.662461L187.050244,323.420135L187.021251,323.087642L186.913758,322.839681L186.746268,322.608626L186.795729,322.259226L187.164006,321.284286L187.422814,320.692559L187.504564,320.360064L187.691016,319.864140L187.897409,319.447113L188.188281,319.193515L188.494573,318.883562L188.859403,318.443992L189.085652,318.224207L189.428823,317.964974L189.674751,318.196030L190.068381,318.359460L190.346834,318.269291L190.866909,317.970609L191.087014,317.739553L192.313452,316.882954L193.984465,315.919280L194.283023,315.671316L194.752366,315.338820L195.720207,314.769631L197.394374,313.693244L197.726774,313.439644L198.909963,312.842277L199.183813,312.735201L199.728357,312.633761L200.217579,312.464695L200.765231,312.318171L201.352928,312.092749L201.739167,311.827878L202.068447,311.636269L202.720694,311.478473L203.162137,311.450296L204.040490,311.275593L205.163383,311.117798L205.631087,310.926189L205.889731,310.571149L205.926847,310.283735L205.760928,310.013228L205.407287,309.855432L204.972349,309.387680L204.806479,309.049546L204.708232,308.784674L204.587094,308.266202L204.608960,307.798449L204.676859,307.482856L204.895689,306.885485L205.057450,306.513536L205.945040,304.180401L206.301291,302.844763L206.332341,302.444634L206.269909,301.576750L206.147115,301.232977L205.978130,300.956832L205.712261,300.663780L205.389616,300.190387L205.217499,299.993140L204.702357,299.852250L203.816678,299.531019L203.392252,299.429578L202.932406,299.390128L202.289513,299.378857L201.989582,299.395764L201.598750,299.626825L201.330932,299.897335L201.143097,300.162209L200.672332,300.331278L200.247931,300.196023L200.032745,300.004412L199.963768,299.683181L199.668563,299.547926L199.300987,299.525383L198.870517,299.277416L198.437025,298.956185L198.020361,298.758937L197.805351,298.330629L197.708791,297.874143L197.775181,297.530368L198.021496,297.220408L197.918606,297.006254L197.627879,297.056975L197.394226,296.882270L196.223068,295.766411L195.374790,294.802714L195.149204,294.126435L195.151278,293.410706L195.233132,292.959852L195.348802,292.537177L195.621569,291.827082L195.837246,291.359321L196.171411,290.812660L196.719586,289.972942L197.233817,289.274117L197.735672,288.671098L198.205293,287.983542L198.331621,287.707393L198.578302,286.924030L198.650842,286.591523L198.620395,286.180117L198.897963,285.233317L199.246364,284.179437L199.409840,283.598957L199.772411,282.122395L200.039542,280.758546L199.915132,280.538752L199.438589,280.223150L199.127996,280.110435L198.829677,280.037171L198.403628,280.059714L197.900537,280.262601L197.175906,280.550024L196.003369,281.277035L195.283129,281.851880L194.922944,282.223839L194.062243,283.446793L193.663538,283.908922L192.573977,284.737373L192.186147,285.058609L191.919864,285.323488L190.999132,286.614066L190.769749,286.895852L190.463496,287.138187L190.230990,287.481965L190.120044,287.752479L189.850484,288.282234L189.576154,289.014875L189.463577,289.409373L189.449426,289.815143L189.559868,290.204006L189.705707,290.564689L189.865401,290.908466L190.006716,291.150800L190.257215,291.415677L190.747532,291.832718L190.985745,292.075052L190.939348,292.413192L191.006724,292.807689L191.160366,293.021844L191.736672,293.630496L191.947112,293.991179L192.148273,294.419489L192.257178,294.813985L192.262967,295.298652L192.221049,295.822768L192.130056,296.155271L191.977576,296.442689L191.697530,296.606123L191.363519,296.949897L191.098657,297.378206L190.944635,297.671260L190.622611,298.443342L190.536259,298.742031L190.423601,299.254873L190.278821,299.531019L190.037143,299.807165L189.513954,300.150938L188.693880,300.551067L187.493930,300.923018L187.060064,301.108994L185.754051,301.396410L185.306392,301.514758L184.997245,301.514758L184.565234,301.272427L184.282254,301.244248L183.791802,300.996281L183.318201,300.838484L182.989093,300.793399L182.573834,300.776492L182.313938,300.731407L182.013981,300.782128L181.633854,301.092087L181.458215,301.497851L181.357982,301.847259L181.076156,302.337558L180.772952,302.619338L180.454326,302.957475L180.321808,303.289975L180.238528,303.594298L179.847381,304.248028L179.921020,304.501630L180.220890,304.569257L180.513111,304.580528L180.678735,305.239893L180.823104,305.521673L180.480078,305.578028L180.269469,305.437139L179.940409,305.324427L179.702115,305.183537L179.379224,305.048283L178.708680,304.986291L178.041308,304.794681L177.226358,304.501630L176.918941,304.242392L176.857590,304.011333L176.933159,303.735188L177.321362,302.906754L178.203303,302.044506L178.754368,301.447131L179.538011,300.404541L179.793646,299.976233L179.915459,299.564833L180.414773,298.246095L180.470409,297.891049L180.413764,297.541640L180.180266,297.164052L179.932760,297.006254L179.699161,296.763921L179.494929,296.329976L179.447578,295.896031L179.438631,295.524078L179.645236,294.853435L179.783916,294.515296L179.853384,294.177156L179.822898,293.816473L179.772348,293.545962L179.684899,293.258543L179.497508,292.931674L179.326915,292.762604L178.899552,292.486456L178.593569,292.373742L178.253719,292.300479L177.721761,292.035602L177.378931,291.838353L176.578151,291.139529L175.888255,290.254727L175.362887,289.426281L175.075467,289.178310L174.795523,289.206489L174.261556,289.555901L173.866025,289.888407L173.034729,290.869016L172.831435,291.224064L172.575674,291.804539L172.458454,292.232850L172.316362,293.004937L172.186816,293.461427L172.032698,293.872830L171.524460,294.768900L171.319599,295.163396L171.199400,295.467722L170.783691,296.042558L170.497384,296.346883L169.943406,296.718836L169.623283,296.994982L168.810516,297.891049L168.256154,298.770209L168.079095,299.012541L167.986800,299.029448L165.233794,309.173529L164.940985,309.956872L162.340970,315.107763L159.161571,319.661262L155.860229,322.704429L155.696403,323.808983L163.475289,320.438961L165.646023,321.864741L165.088879,333.377975L159.729709,334.093673L159.848469,331.399941L157.690241,331.833869L157.661442,335.665952L157.693544,335.953358L159.708652,335.637775L164.870955,334.916443L168.951793,334.471245L168.050940,338.320224L166.365139,345.308078L167.752319,345.584210L176.764351,349.816342L163.864576,366.322033L162.550076,367.854810L161.283305,366.817932L147.923927,375.575006L145.931319,369.297421L136.445502,374.555042L135.593026,375.124193L134.815984,375.586276L133.058846,376.544252L118.264432,385.064558L116.742889,388.113139L107.125682,407.497595L124.412998,407.711724L121.389481,409.537447L120.900155,409.875543L120.026095,410.557371L119.595179,410.968721L118.174513,412.653565L116.128826,415.290705L113.923124,418.023630L113.418304,418.570214L112.722692,419.223861L112.084050,419.770444L111.331550,420.379011L110.337489,421.111544L108.544828,422.368119L105.868955,424.171273L103.197797,425.788474L102.322263,426.357593L101.768299,426.763301L101.645192,426.859093L101.508224,426.988694L100.921831,427.631065L86.696504,425.129197L92.151730,432.161456L93.133964,433.429285L94.015488,436.094538L92.276131,438.387888L89.647726,440.624885L88.796419,441.949050L78.924356,441.701121L74.755821,441.706756L63.376191,441.706756L63.186992,441.706756L61.008842,441.808181L59.529896,446.084938L59.382861,450.773007L59.247052,454.644025L57.530453,454.542602L55.673225,452.711335L53.781700,451.781614L52.861267,452.902914L52.742221,457.083829L53.954768,459.281337L55.327109,461.873263L56.338665,469.412342L55.922374,474.697548L57.328276,474.804604L58.882807,472.866324L60.504306,469.198229L65.552840,469.096806L64.616156,472.150736L64.591475,475.615976L65.373134,478.478311L65.873783,480.292620L67.083887,484.879088L65.233191,485.284769L63.219527,485.493245L54.669498,486.434199L50.700675,486.721557L48.124013,486.913128L48.172977,487.493477L48.275899,487.809006L48.320363,488.135804L48.320145,488.626000L48.536067,490.823430L48.522008,491.313626L48.631022,491.775648L48.844658,492.192596L48.830622,492.632080L48.736638,492.975780L48.684136,493.437802L48.750116,493.820941L48.708458,494.108296L48.577586,494.384382L48.460544,494.694275L48.543378,495.235177L48.707889,495.426747L48.682934,496.226831L48.562566,497.122700L48.596022,498.029836L48.626663,498.322824L48.601798,498.920068L48.452220,499.787761L48.404283,500.385005L47.949580,502.571137L47.647579,503.776888L47.539654,504.374128L47.442340,505.354503L47.437566,505.743273L47.277428,506.126407L47.174162,506.622228L47.035284,507.687116L46.585347,509.568977L46.291152,510.526809L46.117045,511.231097L45.673550,512.414299L45.474837,513.107317L45.403940,513.451008L45.294611,513.732722L44.929778,514.391933L44.481562,515.862479L44.339936,516.127289L44.138212,516.662545L44.101156,517.017503L44.005659,517.333022L43.919445,517.513318L43.864021,517.631638L43.612978,518.414799L43.495903,518.843002L43.403424,519.316279L43.278648,519.772653L43.198493,520.200856L42.987498,520.854427L42.827370,521.237555L42.521023,521.834784L42.399361,522.195375L42.494644,522.437647L40.255100,525.970300L37.904751,529.671965L37.746192,529.981845L37.433771,530.381872L37.227480,530.815704L37.084283,531.187559L36.737993,531.660829L36.316293,532.224246L36.082345,532.573564L35.691483,532.939785L35.302046,533.621518L34.784926,534.314519L34.575636,534.539885L34.144648,535.272324L33.829166,535.632909L33.585989,535.982226L33.235092,536.438591L32.490243,537.306248L32.156302,537.666833L31.900857,537.909100L31.566898,538.320392L30.289691,539.481021L30.228026,539.858507L30.337121,540.219090L30.507756,540.557137L31.027739,540.461357L31.567811,540.106408L32.064773,539.858507L33.007797,539.751458L33.400108,539.633142L33.813930,539.588069L33.644559,540.038798L33.256834,540.241626L32.935222,540.540234L32.884324,540.928988L32.890333,541.345912L33.017889,541.706495L33.157773,542.005102L32.722376,542.162857L32.548600,542.005102L32.322572,541.700861L32.262694,541.362814L32.053575,541.098011L31.781352,540.928988L31.446001,540.923354L30.641372,541.182523L30.229072,541.272669L29.944515,541.182523L29.975397,540.850111L29.944738,540.540234L29.715620,540.281065L29.280251,540.354309L28.411013,540.613478L27.307858,541.137450L26.909314,541.481131L25.979957,542.095248L25.224411,542.765706L24.976644,543.047411L25.035057,543.171361L25.158033,543.430529L24.804210,543.458700L24.419646,543.413627L23.684222,543.723502L22.254775,544.732004L21.608541,545.137658L21.140808,545.379923L20.176060,546.022208L19.672919,546.343351L19.212916,546.472934L18.868264,546.670127L18.408204,546.968733L17.934379,547.030708L17.534365,547.177193L16.928136,547.554676L15.672714,547.994133L15.217332,548.106814L14.665105,548.016669L14.300580,547.847647L13.885186,547.982865L13.446654,548.304007L12.986633,548.484297L12.428163,548.653318L12.114339,548.670221L11.794348,548.726561L11.269724,548.889949L10.685052,549.205456L10.060333,549.667449L9.674145,549.864640L9.203412,549.881543L8.118800,550.151977L7.724934,550.309730L6.901794,550.704114L6.607900,550.918208L6.290943,551.098497L5.572569,551.025254L5.131037,551.121033L4.226367,551.509782L3.358639,551.830923L2.338612,552.168965L1.141622,552.664760L0.000000,553.194359Z M156.690930,624.450687L156.600374,621.876140L160.811104,620.518444L161.347945,621.273346L160.641609,623.876062L156.690930,624.450687Z M143.193641,617.042508L144.290625,616.050990L146.795368,613.893308L148.547338,616.434076L145.657933,619.307220L143.193641,617.042508Z M157.418556,608.659641L158.287778,608.383590L159.104683,608.214580L160.130805,608.073738L162.189189,607.921629L163.664516,607.825856L161.887005,614.315831L156.682516,615.222846L157.418556,608.659641Z M168.324920,617.493197L170.976490,607.786421L173.348687,607.803322L176.296244,607.792054L178.665366,607.786421L176.295390,617.341089L173.853947,617.341089L168.324920,617.493197Z M201.867198,343.284987L202.018501,342.394600L211.321417,341.549295L211.179606,344.462776L231.240543,350.205179L227.697281,354.454196L223.362864,359.689362L219.067588,363.786183L215.749582,366.925001L213.253669,363.515692L210.621715,358.748274L206.909534,352.363501L200.588131,352.042289L200.640967,351.174452L200.706085,350.346062L201.073865,347.618566L201.126356,347.308623L201.314738,346.147744L201.867198,343.284987Z " data-aland="103281804" data-awater="423104" data-classfp="C1" data-funcstat="A" data-geoid="3733120" data-intptlat="+35.4057799" data-intptlon="-080.8740234" data-lsad="43" data-mtfcc="G4110" data-name="Huntersville" data-namelsad="Huntersville town" data-pcicbsa="N" data-pcinecta="N" data-placefp="33120" data-placens="02405873" data-statefp="37"/></g><g fill="#000" font-family="Arial" font-size="12px" id="mylayer-label" stroke="none"><text text-anchor="middle" y="455.552438262"><tspan dy="0" x="426.776720608"><![CDATA[Huntersville]]></tspan></text></g></svg>