<?xml version="1.0" encoding="utf-8"?><!DOCTYPE svg  PUBLIC '-//W3C//DTD SVG 1.1//EN'  'http://www.w3.org/Graphics/SVG/1.1/DTD/svg11.dtd'><svg enable_background="new 0 0 1000 1001" height="1001px" pretty_print="False" style="stroke-linejoin: round; stroke:#000; fill: none;" version="1.1" viewBox="0 0 1000 1001" width="1000px" xmlns="http://www.w3.org/2000/svg" xmlns:xlink="http://www.w3.org/1999/xlink"><defs><style type="text/css"><![CDATA[path { fill-rule: evenodd; }]]></style></defs><metadata><views><view h="1001" padding="0" w="1000"><proj flip="auto" id="robinson" lon0="-91.1956472807"/><bbox h="0.38" w="0.76" x="-1272.47" y="-591.49"/></view></views></metadata><g class="" id="mylayer"><path d="M1000.000000,628.074553L960.317060,624.241523L902.940974,618.670251L824.930666,611.115590L779.788312,606.725410L742.567165,603.271203L697.886758,599.103865L721.215533,514.886796L734.165017,468.086186L739.121190,465.099838L741.398209,458.035108L753.743135,419.524252L755.309063,414.598930L757.852918,406.664910L754.889116,406.553477L745.999945,406.152318L743.024701,406.018598L739.619798,405.795732L729.370761,405.060274L725.954417,404.815122L723.902405,404.770548L717.766883,404.569969L715.721709,404.503109L714.639663,408.804423L713.107593,413.261737L712.551646,415.312099L711.316812,417.072735L710.178267,419.234528L708.728691,423.959265L707.453400,426.566782L704.413577,431.469799L697.602555,438.178006L696.887949,438.958030L691.804619,443.014147L690.327264,444.373614L689.156072,445.688507L686.256347,448.585728L684.375160,450.725213L679.783754,455.561335L676.203764,459.305424L672.644146,462.804360L670.132357,465.032980L669.162116,466.169575L668.422398,466.971878L661.695127,466.971878L641.513314,466.971878L634.786043,466.971878L624.123831,466.927305L592.139430,466.726730L581.472614,466.637585L588.622513,443.214724L610.057751,372.878244L617.197266,349.432405L618.300563,345.777335L621.631011,334.745238L622.741173,331.067863L624.521575,325.206343L629.846838,307.554855L631.615865,301.671004L632.705568,298.060453L635.995232,287.161915L637.091800,283.529061L644.918790,258.143541L582.204254,257.118309L561.291788,256.761707L556.431570,256.694844L546.546615,256.561118L502.301905,255.870201L487.552138,255.625036L464.811692,255.268434L396.553814,254.198626L373.795101,253.842023L360.457608,253.819736L327.428053,253.752873L324.625091,262.289039L319.247264,278.558953L316.670264,286.537867L308.916564,310.429914L306.328245,318.386461L297.986526,344.016660L272.910633,420.839156L264.558717,446.446242L258.569166,464.832404L240.603707,519.923392L234.603352,538.286842L231.449597,546.777673L229.566665,546.777673L203.015692,546.443388L194.165368,546.331960L171.777975,546.131390L104.618040,545.462821L85.247000,545.262250L84.166621,548.961662L83.585336,550.855938L81.809531,556.583328L81.228252,558.477599L75.105971,557.875890L74.146155,557.786747L52.893039,555.736477L45.792670,555.045625L38.283283,554.377058L15.700295,552.371357L8.172636,551.702790L6.533532,556.984468L1.650493,572.718023L0.000000,577.977380L10.402158,578.333947L41.597197,579.381360L51.987917,579.715641L62.356026,580.361917L72.833824,581.008193L63.436524,606.569414L58.711751,619.405659L32.504320,705.536408L32.094100,706.873478L17.048755,745.247127L196.666239,743.932358L267.470238,743.397537L276.757269,743.397537L304.595470,743.352969L313.877890,743.308400L317.826706,743.308400L329.625146,743.286116L333.562516,743.263832L370.726534,743.152411L411.809638,743.018705L422.119963,710.060157L465.382922,709.971020L502.528430,709.859597L512.681467,709.837313L543.140576,709.770459L553.282166,709.725891L575.423217,709.659037L641.798359,709.436192L663.927961,709.347055L667.545599,697.491695L678.382859,661.858496L681.018752,653.145126L681.996155,649.958388L711.324210,650.359516L799.315235,651.540615L828.631861,651.919458L836.622988,651.852603L835.260736,656.354145L822.255665,698.940191L820.246525,705.491839L826.517055,705.491839L825.954294,707.207745L824.238510,712.266319L823.664307,713.959936L829.206159,714.249634L835.191205,714.405625L861.118929,714.450194L877.218062,714.472478L897.051405,714.717607L916.560121,714.829029L940.824593,715.230149L973.500940,715.742690L983.258807,715.876397L976.984671,705.514124L982.366148,687.129362L984.969311,678.282353L992.724183,651.741179L995.309217,642.894071L995.812699,641.311840L997.293424,636.542857L997.785463,634.938338L1000.000000,628.074553Z " data-aland="6175026" data-awater="0" data-classfp="C1" data-funcstat="A" data-geoid="0542500" data-intptlat="+35.2574305" data-intptlon="-091.1970576" data-lsad="25" data-mtfcc="G4110" data-name="McCrory" data-namelsad="McCrory city" data-pcicbsa="N" data-pcinecta="N" data-placefp="42500" data-placens="02405046" data-statefp="05"/></g><g fill="#000" font-family="Arial" font-size="12px" id="mylayer-label" stroke="none"><text text-anchor="middle" y="535.794934829"><tspan dy="0" x="447.566015922"><![CDATA[McCrory]]></tspan></text></g></svg>