<?xml version="1.0" encoding="utf-8"?><!DOCTYPE svg  PUBLIC '-//W3C//DTD SVG 1.1//EN'  'http://www.w3.org/Graphics/SVG/1.1/DTD/svg11.dtd'><svg enable_background="new 0 0 1000 1001" height="1001px" pretty_print="False" style="stroke-linejoin: round; stroke:#000; fill: none;" version="1.1" viewBox="0 0 1000 1001" width="1000px" xmlns="http://www.w3.org/2000/svg" xmlns:xlink="http://www.w3.org/1999/xlink"><defs><style type="text/css"><![CDATA[path { fill-rule: evenodd; }]]></style></defs><metadata><views><view h="1001" padding="0" w="1000"><proj flip="auto" id="robinson" lon0="-92.0948565797"/><bbox h="0.96" w="1.22" x="-1282.27" y="-602.07"/></view></views></metadata><g class="" id="mylayer"><path d="M705.788945,165.058919L705.133583,169.513529L704.127055,174.359133L703.372076,177.542984L702.030839,183.268323L700.948762,187.848588L703.896516,187.527411L705.383983,187.359840L708.053679,187.234162L710.324090,187.471554L712.266492,187.918409L714.882075,188.504906L716.385386,183.924642L717.473474,180.587190L720.726490,170.141922L722.154584,165.547670L720.257658,165.533705L714.571290,165.477848L712.678775,165.449920L710.412794,165.198562L705.788945,165.058919Z M705.788945,165.058919L705.767248,163.397167L705.907422,162.196236L705.904136,158.565512L705.894555,156.973578L705.904592,156.401040L705.934706,154.683426L705.949155,154.096924L705.970985,153.342849L705.870831,151.136481L705.831327,150.396370L705.741006,146.933206L705.601857,141.822241L705.575084,141.654668L705.945739,138.065816L706.252820,136.264406L706.391489,135.356719L707.020536,132.535904L705.045780,132.480047L699.103152,132.298509L697.121421,132.228687L697.966796,130.957923L698.040646,130.832243L698.335634,130.511061L700.976585,127.592491L701.982789,126.461370L694.150551,126.531192L690.958310,126.545157L674.639036,126.559121L676.331496,121.741380L679.676061,112.161735L679.209274,112.161735L677.833529,112.119842L677.359767,112.105877L651.295785,111.756764L583.625094,110.849071L573.042116,110.904929L546.816783,111.030609L540.697170,110.904929L522.317412,110.485993L516.195239,110.332383L504.321477,109.969306L468.697647,108.852144L456.816923,108.475101L452.082620,127.424918L448.748145,140.719053L468.450601,141.096092L474.873259,141.235736L478.130129,141.305558L484.124563,141.431237L499.506925,141.752419L502.591465,142.115493L505.140188,142.408745L502.187551,150.927015L500.811426,154.850998L497.979402,163.131845L489.456480,187.988230L486.617704,196.255033L484.521678,201.016814L480.332244,210.568286L478.245091,215.302119L476.137749,220.063874L476.005973,221.418390L475.601118,225.440042L475.462375,226.780591L475.224944,227.604470L474.505681,230.062143L474.261278,230.872057L472.476218,236.848660L467.095880,254.750479L465.303964,260.713077L462.515954,269.217092L454.152278,294.729012L452.602411,299.420838L449.480886,299.462730L441.659365,298.848324L418.169483,296.977180L410.340999,296.348810L388.073476,296.628085L321.245549,297.437984L298.971037,297.703295L310.543564,257.529303L312.678055,250.086520L231.829378,250.086520L226.942907,264.078380L212.880551,304.238332L211.123330,310.270663L229.616337,310.298590L244.037661,310.312554L220.948116,378.775968L211.256682,407.484673L188.686578,407.205406L156.630427,406.786507L143.857307,450.700869L141.498258,458.785519L125.396991,458.897223L120.984264,458.953076L107.740944,459.064781L103.325648,459.092707L96.403536,459.162522L90.738320,459.218375L90.254808,460.893947L89.623239,463.002374L75.920082,462.695186L65.586837,463.002374L56.355530,462.848780L57.016870,460.754316L59.309542,453.493497L59.997352,451.315248L62.210717,444.305745L63.179615,441.345552L66.072400,432.437032L67.034350,429.462865L73.739435,406.968030L73.829469,406.646874L31.524361,406.521204L27.014594,421.811008L21.561027,440.270387L18.270419,440.270387L14.630523,440.186608L3.719657,439.907344L0.072785,439.809602L0.000000,440.256424L0.591849,441.987858L2.023656,444.124224L2.947165,445.995288L3.151560,447.475382L3.604277,448.746029L4.548055,450.156307L5.297207,451.245432L5.643150,451.664326L6.059642,451.859810L6.509903,452.236815L8.385232,453.004787L9.190257,453.772759L9.505338,454.289395L9.955587,457.947732L10.253033,458.520219L10.265824,459.092707L10.711582,460.349386L12.739845,463.337489L13.739948,463.812234L16.268381,464.314905L18.656156,464.650019L20.473550,464.663982L22.956098,464.915317L24.847971,465.739139L25.723215,466.032364L26.077987,466.423330L26.351257,466.423330L27.324483,467.596228L27.844870,468.364197L27.949530,468.573643L28.853287,470.291100L28.765108,470.570361L28.808772,471.045105L29.483049,471.938740L29.171857,472.888228L28.681478,473.251267L28.924959,473.670159L28.941058,474.340385L28.170923,477.356401L27.106667,479.464818L26.272784,480.735453L26.057518,481.056602L25.370547,482.438940L24.196880,484.100538L22.486423,487.786769L22.254947,488.736252L21.597634,491.431107L21.548691,492.631923L21.624779,496.862699L21.147508,498.915252L20.815404,499.822843L17.437355,504.751757L16.971917,505.757087L16.531849,506.357492L15.495551,508.521743L14.041258,510.783732L13.302146,512.403427L13.235289,512.543056L11.441954,515.265818L10.653624,516.969288L8.557979,520.180746L16.089198,528.460708L18.526537,531.127606L24.659704,509.862181L31.776220,509.862181L35.006145,499.920584L39.718195,485.357208L41.370639,485.929691L43.220332,486.418396L46.058036,487.312027L48.118553,487.926399L58.803503,491.193737L63.578713,492.478330L67.392335,493.707071L68.682269,494.237663L71.008338,495.201108L76.489118,497.100069L79.532891,498.314846L76.413609,509.024407L88.054583,508.759112L91.162344,508.689298L98.338732,508.535706L95.710756,517.220620L91.178985,532.188779L90.954183,532.900882L90.284188,535.023227L90.052409,535.721367L83.495951,559.304436L112.875199,559.262548L114.630462,552.728002L120.186281,531.881598L133.610614,527.734642L289.264190,480.875083L291.777634,480.162969L313.609989,479.534633L334.654108,478.445517L337.121633,478.347776L331.583700,496.541551L320.628009,525.263221L314.681543,542.660866L307.321514,564.177412L331.351747,565.029135L335.815690,565.280463L344.338066,565.769156L366.518148,566.313700L414.953655,567.514489L433.035665,567.947331L455.208796,568.477912L462.919773,568.687352L475.423871,532.886919L481.195737,532.998622L526.469666,533.752613L538.745361,497.630661L562.771684,504.807609L559.096748,536.335730L558.920627,537.759934L566.526883,532.635589L568.214183,552.909517L562.421499,572.387453L552.447544,604.794578L531.324491,673.377685L532.013074,672.819197L554.622493,654.389018L554.673519,654.263358L555.791910,650.898443L556.603826,648.469000L565.490241,644.880682L567.829926,644.322188L573.751865,642.911992L579.356788,642.939917L580.484841,643.009728L583.112309,643.163314L583.812817,643.288975L584.887266,643.456523L586.433950,646.025593L587.716056,648.133904L589.933955,652.545995L590.603401,650.423724L591.823388,646.556161L591.973135,646.081442L592.422376,644.657284L592.560736,644.182565L594.109246,639.309705L597.974537,627.092620L599.931244,627.134507L603.867433,627.218281L623.309254,627.637153L645.329661,628.111875L648.992568,628.195650L658.146505,628.307349L681.082272,628.768108L681.635823,628.782071L701.079490,629.159056L702.372113,629.284717L692.364909,659.387516L684.918792,681.768966L667.931564,735.020295L651.979925,734.978409L626.116264,734.880676L616.230661,734.741056L614.690808,734.713132L624.073519,705.323081L619.804425,705.211385L609.947159,704.946105L588.751687,704.778560L567.458137,704.597053L566.176989,708.478510L551.907832,751.411591L550.198974,756.577486L542.105916,780.940851L543.467996,780.954813L561.829572,781.010660L566.767281,781.024621L575.656401,781.038583L600.606854,781.108392L594.017890,801.101574L586.586927,823.621682L585.797432,825.981189L585.585370,826.581536L584.743069,827.447153L589.080658,827.558846L590.980554,827.600730L602.497443,827.768269L637.041133,828.256924L648.551041,828.410501L663.549734,828.117308L708.540628,827.181883L723.536725,826.860767L725.501314,826.986422L731.408286,827.321499L733.377277,827.433192L736.812392,827.698461L745.661187,828.382578L746.187597,828.410501L747.115156,828.466347L750.543287,828.717655L755.022424,829.066694L768.473045,830.071926L772.956588,830.407004L775.096395,830.518696L781.506246,830.811889L783.639068,830.909620L785.333993,830.951504L788.190445,830.993389L801.844581,831.244697L806.395959,831.328466L822.884546,831.691466L872.352143,832.738582L878.227066,832.850275L879.630318,832.878198L881.022183,832.906121L888.838159,833.073659L895.929734,833.227236L896.972986,833.241198L896.521536,834.637351L895.252621,838.518656L890.346886,853.541215L907.957533,854.029866L915.343421,854.225326L927.723030,854.546440L925.338657,861.750540L918.171815,883.334823L915.780623,890.524899L930.940794,890.189828L969.389629,889.310266L972.132170,880.751976L978.032835,862.281074L983.579447,844.717564L984.683883,841.213228L984.807087,840.822305L985.783928,837.722849L1000.000000,792.654749L986.831275,792.417400L969.418686,792.096280L965.252716,792.054395L952.725046,791.914778L948.552090,791.858931L948.937558,790.672185L950.114160,787.084021L950.492646,785.883311L952.258727,780.605769L957.550119,764.759129L959.309305,759.467591L963.257753,747.809423L975.096773,712.820710L979.038677,701.148416L979.771700,699.040139L981.956822,692.687373L982.682875,690.565128L984.800951,684.533477L990.571956,668.072039L991.148370,666.424495L993.259579,660.378837L992.095529,660.350913L988.596395,660.253177L987.425361,660.211290L986.045091,659.569026L984.813613,658.996572L981.633745,658.102987L980.130506,657.670156L978.706619,655.324492L974.400842,648.287490L972.970001,645.927857L972.692154,645.508987L971.858616,644.252377L971.573787,643.819544L970.296912,641.585569L968.776362,638.932722L964.729309,637.033840L963.836578,636.614969L962.250464,636.517233L960.694108,636.433458L955.999686,636.154211L954.436346,636.056474L953.350800,635.707415L950.107370,634.618350L949.026228,634.255328L949.855506,631.770023L952.331982,624.314099L953.154297,621.814825L953.826910,619.790272L955.799221,613.716605L956.453477,611.678084L963.751750,589.980330L964.576714,587.508955L914.154756,585.456456L896.673058,584.744364L866.085820,583.236404L820.448545,580.960501L837.970427,530.792499L840.511427,523.531829L842.654530,517.388174L853.819503,485.427023L861.722615,461.424545L872.581853,428.415623L841.143479,427.228748L835.493728,427.019300L821.804229,426.488696L812.017998,426.181505L782.659314,425.259931L772.873090,424.952740L770.401559,424.882923L752.833865,481.349825L751.189084,481.293973L746.236376,481.112454L744.584615,481.042639L738.786745,480.833194L721.370366,480.204858L715.565518,479.981450L713.952323,479.897672L709.125957,479.604448L707.505783,479.506707L705.377630,479.395003L704.552666,479.339151L709.650629,464.482462L723.698484,423.430745L722.235913,423.374892L711.189509,422.983921L707.498926,422.844289L699.959095,422.634840L677.348421,421.978567L669.813000,421.755155L670.822935,419.060244L670.880225,418.878722L673.952676,410.947574L675.001198,408.238692L675.608647,406.674800L676.098204,405.376211L677.891176,400.489043L678.300676,399.371975L679.287160,397.040094L679.389261,396.788754L680.255284,394.694249L680.463521,393.926263L680.864939,392.474072L681.119085,391.524562L682.069203,388.117495L682.218314,387.572922L682.337310,387.195910L682.347953,386.693228L683.439490,383.090668L686.680007,372.282964L687.760201,368.680389L689.426979,362.606271L694.417953,344.341961L696.077878,338.253836L696.770270,336.312894L696.935930,335.824168L700.210641,335.838132L700.683746,334.483661L701.346392,332.528754L703.572140,332.403081L704.553158,332.361191L714.170883,331.830573L715.144923,331.774718L715.991230,329.093700L717.585850,322.419074L717.866086,322.433038L730.930345,322.670420L732.435657,317.685388L733.392560,314.473739L736.459361,314.641303L739.326733,314.683194L743.612917,314.739049L742.028999,320.045250L740.963762,323.564095L748.706907,321.036671L750.251108,316.721894L751.365559,313.552135L762.140530,313.286824L755.103543,336.661985L751.116193,349.871533L747.668505,360.036985L742.532939,375.117546L754.901413,375.648157L763.068833,375.997244L765.187359,376.067061L769.447184,376.206695L777.645455,376.458037L782.085249,363.653533L782.316992,362.955358L785.050571,355.052008L787.734249,347.162602L795.154938,325.239734L795.753267,323.452386L798.418785,315.548944L798.019188,315.227779L795.859951,314.529594L793.909694,313.998973L792.338843,313.384570L791.656070,313.203042L790.854299,312.965659L790.054390,311.820635L789.520030,310.591828L788.378167,310.061207L786.509081,309.670223L783.943615,309.754005L781.944492,309.991389L780.695004,309.837788L779.935491,309.069783L779.580366,307.994576L779.028742,307.072970L777.838397,306.695950L776.851173,305.927944L775.855561,303.707710L775.350254,301.990169L775.192055,299.714077L775.258611,298.024462L775.530508,295.720440L775.464474,294.198388L775.246728,293.192996L775.116484,290.539875L775.269831,287.132707L775.360236,286.197132L775.522686,284.312017L775.859277,281.658890L771.033604,281.616998L774.906644,269.817539L776.025269,266.382423L772.734833,266.382423L768.707356,265.363059L756.602173,262.304963L752.563324,261.285598L746.990723,260.363979L746.429533,260.266232L728.856679,261.760371L722.788853,262.263072L719.955984,262.905412L711.432035,264.804503L708.592187,265.432878L705.779947,265.432878L697.347636,265.418914L694.528419,265.404950L677.871933,263.059015L658.442849,264.301802L658.769111,263.268473L659.738930,261.495057L660.050801,261.048211L661.512823,258.869840L663.064763,257.236060L667.784332,253.647328L670.581037,251.496880L667.570731,249.527961L666.346340,248.718051L656.607143,247.182015L652.845961,246.581564L644.093787,246.679312L635.869755,246.763096L623.372136,246.679312L625.450062,239.990562L628.775189,229.280156L631.045969,222.954438L637.840141,203.963251L640.104074,197.623522L642.164823,197.623522L648.335685,197.623522L650.385049,197.623522L652.005634,192.708130L656.860532,177.947947L658.474221,173.018563L658.878827,171.845564L660.067318,168.298636L660.464954,167.111671L662.502914,167.111671L668.605407,167.111671L670.636392,167.097707L674.700612,166.846350L686.902088,166.064349L690.959330,165.799027L693.883898,165.659384L702.648059,165.198562L705.788945,165.058919Z M50.779209,479.283299L51.094069,478.250035L51.715321,476.462767L83.933393,482.285347L82.796343,486.139136L82.264375,487.968288L81.345196,491.095996L80.568934,493.734997L72.401846,489.741587L69.719159,488.429067L69.087420,488.121881L65.429951,486.362544L54.443628,481.056602L50.779209,479.283299Z "/></g><g fill="#000" font-family="Arial" font-size="12px" id="mylayer-label" stroke="none"><text text-anchor="middle" y="487.733188356"><tspan dy="0" x="590.324001015"><![CDATA[N]]></tspan></text></g></svg>