<?xml version="1.0" encoding="utf-8"?><!DOCTYPE svg  PUBLIC '-//W3C//DTD SVG 1.1//EN'  'http://www.w3.org/Graphics/SVG/1.1/DTD/svg11.dtd'><svg enable_background="new 0 0 1000 1001" height="1001px" pretty_print="False" style="stroke-linejoin: round; stroke:#000; fill: none;" version="1.1" viewBox="0 0 1000 1001" width="1000px" xmlns="http://www.w3.org/2000/svg" xmlns:xlink="http://www.w3.org/1999/xlink"><defs><style type="text/css"><![CDATA[path { fill-rule: evenodd; }]]></style></defs><metadata><views><view h="1001" padding="0" w="1000"><proj flip="auto" id="robinson" lon0="-92.3786389796"/><bbox h="1.03" w="1.8" x="-1283.74" y="-610.2"/></view></views></metadata><g class="" id="mylayer"><path d="M841.369631,297.597082L840.042152,301.242800L841.924518,301.242800L840.203194,306.663903L840.796913,306.568963L843.573104,306.236671L844.486177,306.132237L847.233113,305.818933L848.141527,305.705004L854.451479,305.515123L864.556101,305.040421L866.210102,300.283901L857.658729,300.606699L858.432130,298.347113L859.589663,296.068538L859.123579,296.030561L859.021685,296.011573L862.294113,285.938361L858.427514,285.919373L856.304192,282.473020L851.061711,285.938361L850.855554,286.602947L850.670632,287.153604L855.150122,286.802323L855.412875,286.944734L855.512783,287.305509L855.110486,290.305637L854.892726,291.198080L853.069168,297.464165L852.851861,297.540117L852.509517,297.597082L852.364544,297.616070L852.063828,297.663540L851.136932,297.786963L850.831556,297.824939L848.351807,297.739493L843.362901,297.540117L841.369631,297.597082Z M474.160334,212.463156L470.052466,225.337292L507.677453,227.606403L508.015668,226.675972L509.024063,223.856198L509.357625,222.916273L509.842893,221.625063L511.272509,217.760924L511.745415,216.460218L512.488721,214.248068L474.160334,212.463156Z M1000.000000,310.537472L992.694733,310.224169L982.644188,309.787443L982.420115,310.148217L981.792264,311.116609L981.721541,311.192561L981.421613,311.477382L979.044838,311.743215L978.002660,314.790800L976.465219,319.234005L974.045362,319.537813L977.622233,310.338098L977.267901,309.569080L975.291369,305.353725L967.502607,305.799945L957.728440,306.350600L956.314183,310.746341L951.965550,310.546966L953.516251,306.350600L951.556734,306.350600L943.896103,306.350600L943.572312,307.356968L942.604002,310.366580L942.275556,311.363454L940.833966,315.892108L939.074738,321.408136L932.534290,321.427124L928.854385,321.427124L929.548229,319.414391L931.547162,313.585058L931.622078,313.376189L932.295853,311.353960L933.973636,306.379082L935.214312,302.666908L939.187663,291.444926L940.351050,288.140988L940.899484,286.460536L941.342603,285.131364L942.659599,281.134353L943.090353,279.795686L940.622497,280.991942L938.635227,281.941351L935.747297,278.257643L934.428842,276.577188L933.139919,277.346210L934.079130,274.355568L935.236308,274.355568L938.105412,265.535539L940.983070,265.583010L940.708408,266.532421L938.962545,272.485229L947.813466,267.491327L947.961169,265.450092L948.153260,264.253833L949.064860,258.424440L949.436614,256.478142L949.846337,254.341962L950.475982,251.019012L929.292497,251.617143L919.679608,251.882979L912.650323,273.102346L895.820306,272.133947L892.872087,283.716745L896.575073,283.716745L895.707416,286.413065L892.266107,286.223184L892.169794,286.498512L890.079717,292.394333L884.578229,292.565227L883.182043,292.612697L879.380680,304.138486L877.175997,304.660659L873.596719,304.755600L871.483220,304.850540L865.250418,305.040421L863.231054,310.357086L862.726219,311.686251L861.906886,314.040772L864.842187,313.765445L867.729595,313.471130L866.935178,315.892108L861.261843,315.901602L861.222130,316.025024L861.090616,316.385797L861.046243,316.499725L860.982091,316.699100L860.777261,317.287730L860.708450,317.477610L860.329495,318.607399L859.167890,321.977777L858.776567,323.098071L859.395659,323.211999L859.821728,323.278457L858.410188,328.528645L862.627548,328.680549L857.625289,341.782262L864.747423,342.209491L863.417847,347.469155L856.255008,347.336239L854.241643,353.906064L852.498098,353.906064L848.500441,367.387471L849.560587,367.425447L852.741028,367.539374L853.804229,367.567856L846.677985,389.384876L834.029534,389.204492L833.583333,390.495662L830.815842,398.451539L830.435394,399.562323L841.510377,399.837645L838.946980,407.423248L834.032534,407.423248L827.677638,407.632113L829.223823,403.113032L829.559744,402.068706L823.722407,402.011743L824.356160,404.166852L821.287875,409.388477L817.118081,409.208094L811.034490,409.341008L791.007981,408.904290L792.302040,405.097251L796.190438,393.657128L796.835172,391.748856L797.768576,389.878558L801.725381,377.602937L808.921591,355.235218L798.852676,354.902930L797.304899,354.845966L789.950305,354.589629L787.464065,354.428232L778.521986,354.238353L771.198568,354.076955L767.220959,349.415419L768.675063,344.896287L759.366394,344.886793L754.578578,344.877299L750.901689,344.867805L750.361655,344.867805L750.712453,344.089299L751.109076,343.168383L751.743157,341.725298L752.081583,340.937297L753.393983,340.263224L753.675910,340.130309L758.459198,337.804282L760.052073,337.025774L761.686578,336.237773L766.580770,333.854780L768.213668,333.047791L770.033171,332.212319L774.561034,330.104650L775.501304,329.819830L777.309356,329.259684L778.298669,326.496928L778.688577,325.405116L775.106649,324.693065L773.007569,324.958898L770.670939,325.243718L770.108804,323.658218L768.416164,318.873232L767.849388,317.278236L768.260476,316.528207L769.479763,314.249640L769.878479,313.490118L769.831427,313.252767L769.693326,312.531220L769.641614,312.284375L766.158410,312.512232L757.342391,313.081874L756.659142,315.085115L755.205355,319.290969L754.210161,319.290969L753.153043,322.575900L748.808614,336.076375L748.474162,337.139702L750.510853,337.139702L751.259183,337.139702L751.150960,337.547944L750.806204,338.763175L750.693323,339.161922L750.149927,339.076476L749.856612,339.029006L748.493540,338.829632L747.942429,338.744187L746.860606,338.677729L743.601157,338.449873L742.514674,338.373921L742.696682,337.880234L743.211849,336.399171L743.381483,335.895989L743.515908,335.478254L743.839749,334.471890L743.934612,334.225046L744.076752,333.807310L744.433059,332.819935L745.489613,329.848312L745.833550,328.851442L743.033110,328.851442L735.603843,328.851442L735.317726,330.076168L734.489477,333.512996L734.229789,334.319986L733.452178,336.712473L733.187833,337.509968L730.500883,337.301100L730.395932,337.291606L729.121853,345.494408L729.185613,347.070408L729.297562,350.174936L728.154111,350.611659L727.454444,350.867996L721.913855,352.814258L720.062866,353.459848L718.796132,353.944040L714.994325,355.377628L713.722930,355.852326L713.578608,353.231993L713.399826,349.975563L717.844556,348.390070L720.367410,347.478649L720.750525,346.671661L721.578013,344.915275L721.927679,344.260191L722.346316,343.462697L719.545241,343.272817L718.912476,343.225347L720.920318,337.177678L718.071890,336.655509L715.384023,336.161821L715.589713,335.354832L715.646005,335.107988L713.874518,335.051024L713.220217,335.022542L714.530244,332.174343L718.441899,323.639230L719.747304,320.781530L720.816164,317.771925L721.577580,315.597793L716.060835,315.360442L713.641182,315.256008L713.106963,315.142079L711.481162,314.800294L710.939229,314.686366L709.324481,315.388924L707.929189,315.721215L707.320185,315.863625L703.972323,315.958566L700.748199,316.148446L699.601554,315.588299L699.218270,315.388924L698.055014,313.490118L690.171935,313.414165L682.501811,313.347707L677.359039,313.290743L656.883737,313.100862L654.296384,320.923941L653.762246,334.376950L652.002281,341.763274L651.222848,345.048191L654.640490,345.048191L663.634306,345.029203L662.948045,350.877490L661.308253,352.425006L652.380349,354.228859L644.806266,355.757386L642.816659,352.662355L640.748941,352.614885L640.005265,352.624379L642.773037,345.342504L644.366134,340.775900L645.210844,336.665003L611.295400,336.693485L608.047495,336.693485L601.644111,336.646015L588.920603,336.532087L582.446184,336.465629L580.994210,336.446641L578.133495,336.418159L576.817330,336.408665L576.038142,336.408665L571.040144,336.285243L565.194978,336.133339L556.023009,335.914977L551.012640,335.782061L550.948466,335.981435L550.914851,336.085869L550.743569,336.570063L550.674736,336.759943L550.245007,337.975173L548.948115,341.620864L548.513734,342.826600L547.812897,344.668432L545.705751,350.184430L545.000271,352.016765L542.929651,352.026259L536.697702,352.045247L534.622423,352.045247L535.160542,350.469249L536.774918,345.741251L537.313050,344.165251L538.591163,340.434116L540.688594,334.253528L542.408575,329.221708L543.674385,325.481068L544.906744,321.892331L548.605372,311.097621L549.833138,307.499379L550.684694,304.973963L551.039525,303.967593L551.539609,302.533992L556.720927,287.637802L558.442952,282.672396L564.672976,264.975386L569.306617,265.079821L600.705172,265.772892L610.287998,234.356764L610.973949,232.106644L611.704163,229.695123L596.400747,229.809053L594.855102,229.913489L590.207253,230.188820L588.660008,230.274268L587.383366,230.046408L585.186687,229.657146L583.420097,229.657146L582.046940,229.657146L580.975214,229.847030L578.477042,230.274268L577.747804,230.454657L576.665448,230.701506L576.306438,231.888278L575.397419,234.878943L575.152273,235.448594L574.637381,236.616377L572.095718,236.435987L568.637358,236.179645L564.476846,235.875831L561.938243,235.685948L559.330780,235.685948L561.627872,227.881734L564.934615,216.631114L562.327174,216.631114L563.580755,212.738489L553.313384,213.384095L551.447980,213.355612L545.837797,213.241682L542.546704,213.184716L539.106953,223.865692L537.361144,229.286873L515.770096,229.258390L507.097551,229.239402L506.790056,230.122361L505.836718,232.771237L505.516856,233.644701L504.866785,235.543535L502.885744,241.240035L502.227978,243.138867L501.659022,244.809839L499.952174,249.822750L499.383232,251.493720L499.147679,252.177298L498.441022,254.228032L498.205472,254.911610L496.822984,254.892622L492.675523,254.835657L491.293036,254.816669L489.676200,254.854645L484.825694,254.968575L483.208858,255.006551L481.823314,254.997057L477.675853,254.940092L476.296423,254.911610L475.515663,254.892622L473.173385,254.835657L472.392625,254.816669L472.064173,255.908494L471.064855,259.155488L470.724037,260.237818L468.722932,260.247313L462.699528,260.266301L460.693766,260.266301L457.820408,268.326809L452.996432,281.846410L452.870948,282.188197L449.023245,292.460792L446.009748,300.502264L443.403664,300.473782L435.583815,300.369347L432.973074,300.331371L432.798541,300.777592L432.182223,302.068783L431.351201,303.787207L430.851338,304.812564L430.441726,305.581582L430.123820,306.065778L429.556418,307.205064L429.127011,308.059528L428.614200,308.885509L424.443636,320.449240L419.327746,334.614300L408.414458,334.604806L406.138961,341.696816L405.105883,344.905781L411.934611,344.782360L410.629664,348.380576L406.707204,359.175210L405.397662,362.763922L405.703084,363.229125L406.611639,364.624735L406.863208,365.137408L407.086826,365.593117L407.757681,366.960244L407.981300,367.415953L407.196398,367.074171L405.617278,366.371620L404.767900,366.134271L403.918523,365.896923L399.346495,365.336781L398.500622,365.232347L389.268922,363.713316L385.711643,363.475968L381.043131,363.143680L378.900455,363.305077L377.094027,363.428498L372.236821,364.928541L369.987765,365.612105L369.183551,366.001356L366.750821,367.159617L365.941948,367.539374L363.803848,373.605996L357.397538,391.805819L355.254963,397.862919L354.755848,399.581311L353.261581,404.726990L352.757822,406.435886L349.389043,415.512013L347.029936,421.834913L342.244267,435.050317L340.234331,441.942821L339.601692,441.942821L332.230558,441.904845L330.286351,441.904845L324.438302,441.904845L322.486380,441.904845L324.216103,435.667415L325.783308,430.702149L332.458118,409.341008L316.686371,409.587848L325.875122,382.216979L321.497156,382.539772L319.764828,387.609517L319.172520,389.641211L317.165633,389.812101L302.048457,435.458551L295.245054,435.382601L293.743668,435.373107L289.224082,435.344625L287.714982,435.335131L286.719132,438.525051L285.805645,441.411168L284.107431,445.465019L282.913553,447.999861L281.429944,451.123317L280.982465,452.082189L279.633770,454.930322L279.181635,455.879700L276.415499,464.642446L268.111416,490.902113L265.341014,499.655305L265.421378,499.693279L265.665525,499.797710L265.748944,499.826191L269.139687,499.550874L272.815897,499.275557L293.992143,497.652135L301.051369,497.101501L301.204266,496.674284L301.670675,495.392635L301.818912,494.955925L300.055208,494.490733L298.815007,494.148960L299.526637,491.889458L302.285517,489.981223L304.314614,488.566660L307.658536,488.604634L314.909594,488.680584L313.424277,493.560350L312.846490,494.756557L310.697394,501.411637L310.549319,501.895815L308.045790,509.604684L305.399113,509.509748L301.635950,520.294550L301.335003,521.205940L302.319518,521.215434L315.703443,521.462269L317.967263,521.500243L323.183180,521.595180L324.031872,521.595180L326.587111,521.566699L327.434197,521.547712L326.820907,523.645808L324.987183,529.921105L324.369255,532.009704L319.425598,532.123628L312.194802,532.152109L257.628776,532.304007L252.902311,546.155195L245.410650,569.082197L237.862772,592.521743L231.546169,612.135308L209.330414,611.926451L207.859770,611.916958L206.389125,611.907464L169.749197,611.565699L165.021524,626.119181L152.105364,626.119181L160.096879,605.233544L154.102608,605.470882L136.110463,606.163906L130.111526,606.391750L129.417115,606.391750L127.310735,606.391750L126.611662,606.382257L107.432736,606.591113L115.032654,582.752906L117.772225,574.142262L62.096703,574.142262L44.391291,625.910325L55.123894,625.910325L55.949479,625.910325L45.460964,657.219626L40.426423,672.247640L27.339476,711.929724L20.327890,733.156656L27.435446,733.441453L17.735952,739.441176L0.000000,786.536844L0.000000,786.536844L26.488771,772.524959L54.479273,757.706111L55.808928,763.962120L57.972494,763.088747L59.091247,762.633074L61.836410,761.702743L64.429031,760.838863L64.717241,760.734438L66.122933,760.250285L66.576235,760.136367L67.023091,759.946503L67.203445,759.889544L69.074648,759.253501L69.692701,759.035157L70.069670,758.294689L71.194303,756.044802L71.349043,755.731527L71.569663,755.285347L73.050594,752.551305L73.403149,751.886781L77.265605,744.937752L77.621728,744.406132L78.728341,742.716339L79.371656,741.795496L79.512919,741.596139L79.922717,740.969586L80.059316,740.760735L81.252076,737.267227L82.247878,734.362297L84.825785,726.777194L86.013943,723.274182L87.125369,720.321778L87.926362,718.166806L90.356179,711.426580L91.419741,708.455181L92.135721,708.436194L94.288159,708.341262L95.002529,708.303288L103.311422,708.379235L105.998212,708.398221L138.962117,708.683020L149.953140,708.768460L152.484169,708.815926L160.080307,708.948832L162.606672,708.986805L167.562656,709.195658L166.775110,711.644925L168.889306,711.644925L167.450318,714.464429L165.869968,714.435949L164.889279,716.382071L163.102149,719.372451L155.367742,743.428330L153.376974,743.428330L152.812335,745.184576L150.903735,745.289001L150.160874,747.263589L148.827417,747.235110L148.578178,748.298349L146.927261,748.393281L144.582327,754.991058L141.042944,764.968396L144.666520,764.977890L147.212930,764.569683L151.722712,763.838708L160.405676,760.639506L166.130911,758.047866L166.628720,757.867495L173.133979,755.465717L181.085233,755.598622L204.939001,755.997336L212.885595,756.120748L215.972596,756.263146L216.413464,756.547941L217.340058,757.146013L221.594341,759.130089L224.172036,759.680694L226.058890,759.955997L229.588558,760.449642L230.466419,760.383190L233.587678,757.250438L233.918254,756.918176L238.461917,752.817115L251.377376,752.845595L317.567185,752.940527L338.160253,752.969006L339.286816,752.969006L339.626328,752.969006L342.708138,752.959513L351.944239,752.912047L355.024435,752.883567L355.357715,752.038673L356.363662,749.485000L356.455374,749.247670L356.707713,748.630612L356.797988,748.421761L357.070248,747.766730L357.158909,747.538893L357.561817,746.741463L358.770543,744.349172L359.173453,743.551742L359.887386,742.146745L362.024532,737.922260L362.733809,736.507768L365.068514,730.612467L371.300530,714.825174L372.902069,714.739734L377.803769,714.445443L377.946800,714.312537L378.377329,713.885339L378.515695,713.742940L380.222732,712.129083L380.622572,711.749351L384.805817,707.857104L385.144452,707.619772L393.520653,720.112926L398.031102,716.666869L399.247717,713.049931L407.287666,713.002464L407.682176,712.015163L410.906220,712.091109L412.093053,712.119589L411.814673,712.793612L411.186120,714.341017L410.687516,715.556156L428.213108,716.628896L438.266768,714.445443L443.133250,714.644802L454.099348,715.071999L459.624220,715.119465L461.374328,715.147945L461.652106,715.147945L462.854549,715.223891L469.958137,715.689062L471.152865,715.765008L471.537230,715.793488L477.857188,716.344098L481.537373,716.657376L490.359395,715.689062L491.498497,715.746022L494.892657,715.916901L496.024044,715.973860L498.811509,716.087779L502.227204,716.239672L520.813547,717.037107L527.012049,717.293425L532.213388,717.483291L547.797312,718.043394L552.993989,718.223766L571.918083,718.954747L577.522280,719.163599L572.436481,732.805406L572.138432,733.564865L571.843433,734.314831L564.752591,753.453159L588.251136,754.573357L607.105261,755.475211L621.909072,755.750513L666.305096,756.576421L681.104256,756.842230L682.763239,756.842230L682.956144,756.842230L687.705026,756.927669L688.404151,756.937162L689.421584,756.652367L688.848023,752.408907L687.840864,744.975725L687.659879,743.665661L687.149054,739.659521L687.042403,738.814623L686.607913,735.387567L686.251357,732.558581L685.183205,724.043136L685.064013,723.141277L684.748109,721.242624L684.712165,719.913567L683.911106,714.217604L683.538327,711.559486L683.301426,710.135493L682.343054,701.591528L682.142049,697.414473L682.468450,695.990476L683.037459,693.427281L683.396344,692.430482L684.595031,689.060352L685.662188,686.819926L686.753755,684.503553L684.051379,684.437099L679.716095,684.313686L675.911953,684.266219L673.188045,684.218753L663.928906,684.218753L662.967285,684.161792L658.083635,683.895979L653.695422,683.649152L643.279975,683.525739L638.324545,683.459285L634.192931,683.326379L626.564024,683.079552L621.756636,682.984619L617.597388,682.889685L616.671475,682.889685L613.899837,682.870698L612.969258,682.861205L602.736126,682.794752L594.772565,682.604885L571.221041,681.940351L567.887050,681.750484L565.651187,682.225151L563.786745,682.984619L555.752779,688.775552L553.555513,686.345260L553.360120,686.088940L552.375443,684.807339L551.231115,682.918165L550.277102,681.997311L549.173580,681.541631L546.782374,681.323284L544.075517,681.294804L539.289181,680.630270L540.320530,677.421518L541.136683,674.858313L537.132822,675.048180L536.315440,677.279118L535.137481,680.487870L533.684046,680.136616L532.910701,679.661949L532.768238,679.529042L527.142580,674.298205L525.265821,672.551427L526.483068,668.260426L530.119522,655.387402L530.139271,655.301961L530.361699,654.514009L530.584127,653.726057L531.370780,651.086892L531.644400,649.947684L532.465271,646.530057L532.738898,645.390848L533.204899,645.381354L534.602901,645.352874L535.064237,645.333887L535.516764,645.438315L536.891215,645.723117L537.339077,645.818051L543.425186,646.207281L561.686579,647.365477L564.296659,647.526865L567.777188,647.716733L578.402049,647.764200L585.386480,647.783187L581.714103,659.232225L595.999867,652.691277L596.921408,649.824270L598.663822,644.403533L604.956175,644.223158L605.922438,644.289612L605.923822,646.349682L610.180393,643.549125L624.101474,634.349996L626.758626,625.435652L629.264904,617.014953L629.627377,615.695361L627.187540,616.084593L616.487385,617.783924L612.920126,618.344038L613.025501,618.040247L613.349341,617.128874L613.450052,616.815590L613.966741,615.040311L615.525988,609.685990L615.599063,609.410679L616.087375,607.891721L617.553355,607.891721L618.093453,607.891721L621.905344,607.986656L623.354452,608.015137L623.722707,606.581620L623.838338,606.125932L625.267111,606.505672L625.593634,604.625961L625.835392,603.201937L629.133205,603.239911L639.018930,603.353833L642.309028,603.391807L645.783033,603.505729L649.375827,603.610157L646.550240,612.087840L645.103020,616.397877L645.305241,616.416864L645.891808,616.464332L646.089365,616.473825L646.669828,616.540279L648.404943,616.711162L648.983794,616.758629L655.388875,617.043433L670.203863,617.688989L672.177644,612.220749L675.055813,604.227234L675.757316,602.357016L677.854134,596.746356L678.550991,594.866641L679.264379,592.863510L679.549989,592.047067L681.399910,586.844617L682.108655,584.831989L680.664497,585.316159L676.328800,586.730695L674.883030,587.195878L668.761655,591.524924L663.552992,595.198914L656.497120,589.018635L657.889666,586.199058L660.627221,580.635847L661.430293,579.097894L661.865482,577.816265L663.143252,573.961885L663.566071,572.670762L664.728049,569.224601L665.595239,566.623364L671.756819,567.041081L674.499568,567.221459L674.215108,566.642351L673.361733,564.905029L673.072613,564.316427L672.940432,564.031620L672.539226,563.167705L672.402383,562.873405L667.185245,562.901885L663.887663,562.911379L661.857777,557.946238L659.668967,552.971598L661.141447,552.639323L666.652032,551.386168L665.995660,549.924155L665.891464,549.696308L667.052271,549.373526L667.957603,549.677321L677.394572,549.506436L680.165104,549.696308L685.723210,550.095039L686.786673,550.170988L694.266005,530.557179L696.244451,525.364158L696.968012,523.569859L704.359522,523.617327L707.683397,514.864177L709.693897,509.547722L743.711897,510.288229L745.737829,504.107844L751.577450,486.212218L753.887346,479.101419L754.513237,477.155204L763.290365,449.984063L766.218856,440.926984L767.935149,441.059897L773.090137,441.439649L774.809485,441.563068L775.837364,441.629525L778.905573,441.828895L779.928791,441.885858L780.510567,440.101023L782.263635,434.746515L782.840766,432.952184L785.681521,432.971172L794.196072,433.028135L797.032166,433.037628L801.318694,433.047122L808.004610,433.056616L808.842720,430.426828L815.032135,430.540754L819.708116,430.730630L815.013352,443.936518L815.862014,443.936518L827.081098,444.316270L830.482346,444.439689L837.682977,444.696022L840.695254,444.781466L841.201398,444.790960L844.163674,444.696022L844.381306,444.715009L845.018771,444.771972L845.231741,444.781466L857.356470,411.040409L861.748547,410.793568L864.464323,400.862984L865.028447,398.413564L870.311764,399.809164L873.939627,389.441839L869.829502,390.467180L870.328722,388.891193L873.287463,379.549190L876.532526,380.517569L877.839623,375.998465L886.624976,373.605996L887.506726,373.359154L889.026722,372.950915L888.483117,374.640834L889.779376,374.688303L890.942708,375.125024L892.534219,375.333890L893.682438,376.321258L893.307290,377.631419L894.599682,379.273866L897.046742,381.068216L899.616293,378.020669L901.188619,369.343222L912.807828,369.533100L922.559883,369.675509L947.651482,370.074255L954.268096,370.178688L956.368766,364.007629L958.458556,357.798587L961.403825,349.026166L953.398777,348.969202L952.185949,348.950214L953.665240,344.231709L955.510676,344.250697L956.475021,344.250697L961.006961,344.336143L961.690521,344.345637L962.844682,344.355131L966.827107,344.374119L978.766670,344.431082L982.744435,344.440576L984.783189,339.085970L989.910749,339.646115L990.124688,339.029006L1000.000000,310.537472Z M649.567709,578.917516L643.351662,578.813087L650.377569,576.686533L654.946364,575.290982L654.723721,576.031479L654.043417,578.243475L653.816113,578.974478L649.567709,578.917516Z M642.004562,532.228058L643.259304,528.326174L644.640361,528.326174L651.453065,528.326174L650.198338,532.228058L646.556660,532.228058L642.004562,532.228058Z M677.557048,364.263965L678.502069,362.118334L678.831334,361.358818L680.229193,359.915738L680.344667,359.365089L682.712559,358.719500L685.936023,357.836562L685.966503,361.985419L685.987082,364.510808L683.447141,364.444350L677.557048,364.263965Z M915.781197,273.681487L917.671255,273.681487L920.101328,273.681487L921.273309,278.741842L918.883422,279.719734L919.655460,282.283138L917.689567,283.166088L917.508067,285.719997L916.876551,286.052290L916.754877,286.118749L916.399018,286.289642L916.272684,286.346607L915.781197,273.681487Z M543.374230,368.526743L544.448326,365.213359L547.661380,355.254206L548.730873,351.931320L549.264797,351.950308L550.849536,351.988284L551.378801,351.997778L554.645516,352.083223L555.495746,352.102211L551.792579,363.200644L550.436922,367.245062L550.354576,367.548868L550.095164,368.450792L550.008159,368.745104L548.665775,368.745104L545.263526,368.745104L544.667726,368.678646L543.374230,368.526743Z M575.571971,625.748936L578.536280,614.632092L590.456840,613.720718L587.564898,624.780604L575.571971,625.748936Z M809.887375,427.730582L810.197571,427.293866L812.615875,419.727281L817.808089,419.727281L820.428803,411.771436L826.238359,411.818905L823.665392,419.290564L820.713694,427.891977L815.960895,427.797039L809.887375,427.730582Z M399.000132,709.091231L403.779485,694.367119L406.368344,692.506429L413.434678,687.446486L415.563408,685.937046L421.949599,681.408724L424.073667,679.889789L424.339269,672.295106L424.543483,666.475673L424.599028,664.766866L437.770037,664.766866L444.320820,664.766866L444.516769,664.757372L445.116823,664.690919L445.308108,664.671932L446.647792,664.728892L447.603121,664.757372L444.395304,667.007302L442.985302,667.985119L436.814220,672.684334L418.283980,686.762966L412.108267,691.452670L410.946666,694.946211L410.897839,695.098105L407.769509,703.869920L406.985655,705.996419L405.981748,708.711500L405.881223,709.072245L399.000132,709.091231Z "/></g><g fill="#000" font-family="Arial" font-size="12px" id="mylayer-label" stroke="none"><text text-anchor="middle" y="518.166069517"><tspan dy="0" x="475.414143411"><![CDATA[Y]]></tspan></text></g></svg>