<?xml version="1.0" encoding="utf-8"?><!DOCTYPE svg  PUBLIC '-//W3C//DTD SVG 1.1//EN'  'http://www.w3.org/Graphics/SVG/1.1/DTD/svg11.dtd'><svg enable_background="new 0 0 1000 1001" height="1001px" pretty_print="False" style="stroke-linejoin: round; stroke:#000; fill: none;" version="1.1" viewBox="0 0 1000 1001" width="1000px" xmlns="http://www.w3.org/2000/svg" xmlns:xlink="http://www.w3.org/1999/xlink"><defs><style type="text/css"><![CDATA[path { fill-rule: evenodd; }]]></style></defs><metadata><views><view h="1001" padding="0" w="1000"><proj flip="auto" id="robinson" lon0="-78.251886489"/><bbox h="0.29" w="0.23" x="-1088.49" y="-603.34"/></view></views></metadata><g class="" id="mylayer"><path d="M575.772621,999.000000L585.952650,983.590209L593.414423,986.375826L602.116514,989.398517L625.481782,996.984874L650.724415,956.267427L720.147416,986.020215L722.111344,934.160240L775.325732,913.356934L785.938828,908.911780L789.508771,924.736524L806.220334,919.165267L812.220682,801.812818L792.363439,787.647490L787.943592,784.506223L769.057795,772.296764L789.471320,719.724860L749.209489,691.097697L713.413567,664.722729L645.718166,611.854124L703.423665,519.570726L747.809578,448.624169L760.665523,428.116585L799.377108,366.060238L733.136040,259.135468L855.585134,230.329672L850.926754,252.319286L863.589960,249.948440L884.907366,245.028932L903.371794,178.170897L883.919576,176.155668L892.252416,155.588467L697.891968,190.499350L676.902953,148.950056L674.926650,144.267604L662.704961,124.707979L595.507660,0.000000L333.708788,27.442950L316.138777,37.282096L277.552606,62.769012L237.126304,92.582726L166.347146,144.386147L96.628206,195.300331L207.799171,401.978267L177.392391,403.341491L208.966419,447.557301L251.316950,512.043411L294.004888,575.818024L262.553573,595.969800L177.926672,651.683403L250.480569,656.128629L320.281112,660.396045L352.381127,665.848852L396.834077,679.065976L399.960340,680.192098L521.021470,714.390610L495.418028,806.198733L514.584852,791.855601L531.860759,774.845341L555.275479,747.937087L573.357744,719.665591L639.268321,720.080477L678.557028,786.995529L541.367028,992.776817L538.495504,996.451459L549.042399,997.103411L575.772621,999.000000Z " data-aland="1397533" data-awater="0" data-classfp="C1" data-funcstat="A" data-geoid="3708860" data-intptlat="+35.9590590" data-intptlon="-078.2518931" data-lsad="43" data-mtfcc="G4110" data-name="Bunn" data-namelsad="Bunn town" data-pcicbsa="N" data-pcinecta="N" data-placefp="08860" data-placens="02405343" data-statefp="37"/></g><g fill="#000" font-family="Arial" font-size="12px" id="mylayer-label" stroke="none"><text text-anchor="middle" y="400.829948452"><tspan dy="0" x="498.67393689"><![CDATA[Bunn]]></tspan></text></g></svg>