<?xml version="1.0" encoding="utf-8"?><!DOCTYPE svg  PUBLIC '-//W3C//DTD SVG 1.1//EN'  'http://www.w3.org/Graphics/SVG/1.1/DTD/svg11.dtd'><svg enable_background="new 0 0 1000 1001" height="1001px" pretty_print="False" style="stroke-linejoin: round; stroke:#000; fill: none;" version="1.1" viewBox="0 0 1000 1001" width="1000px" xmlns="http://www.w3.org/2000/svg" xmlns:xlink="http://www.w3.org/1999/xlink"><defs><style type="text/css"><![CDATA[path { fill-rule: evenodd; }]]></style></defs><metadata><views><view h="1001" padding="0" w="1000"><proj flip="auto" id="robinson" lon0="-66.9400430123"/><bbox h="0.47" w="0.36" x="-976.53" y="-309.98"/></view></views></metadata><g class="" id="mylayer"><path d="M242.681745,0.000000L227.179007,0.252136L219.241383,0.360194L225.865579,14.155633L230.166331,49.058454L230.826095,76.253121L230.964963,82.592541L233.895900,89.544290L251.598046,104.780509L256.085328,109.571094L269.710809,124.194983L275.837759,130.822559L280.290245,135.649163L284.091746,139.755379L287.116999,141.844506L289.230149,143.321303L286.681387,149.912859L284.104846,155.171697L279.356055,157.296844L271.334723,159.241893L258.951905,214.063479L234.413144,322.337937L272.939026,321.833665L273.453418,343.733493L279.646867,345.786602L270.406382,363.580213L267.795001,371.144299L263.937234,379.284696L261.440905,382.418389L257.994190,384.039265L254.812117,384.219362L250.066901,383.390915L243.678449,382.058195L236.318691,380.077124L230.522078,379.104599L228.245126,380.941591L226.434581,385.732179L226.364803,389.694320L226.510854,394.340830L225.090254,398.663165L225.576536,430.576408L215.820773,450.134977L210.246654,458.203338L205.866802,462.669752L192.932473,481.724050L156.688796,526.027998L152.165812,543.965696L141.337697,567.486414L135.077401,588.485769L128.486943,587.297127L116.696429,680.731666L121.163241,679.579043L141.255211,673.023496L145.419113,672.735340L151.619656,675.040587L155.459745,676.481367L167.255009,683.793323L174.050915,685.126044L186.883792,685.594297L192.412404,688.367798L204.318922,709.115024L208.287774,716.030766L210.686516,718.444072L220.553049,728.529530L223.651598,729.538076L238.778832,729.934290L250.438465,730.222446L263.657823,730.582641L284.797664,730.042349L286.799547,729.430017L299.061493,728.673608L344.171636,730.402543L348.492222,728.169335L352.412442,723.919035L360.353869,711.132115L365.774689,696.544222L369.270155,693.770721L375.000744,693.158390L413.005023,696.111988L423.042257,694.707228L421.917669,711.528330L421.621729,715.562513L420.155973,736.886052L417.896469,765.125336L418.056625,768.979422L419.149832,771.933021L421.513810,778.596628L426.617795,794.193071L433.034415,820.847501L435.589943,831.689371L443.542018,857.371278L446.372616,866.988486L446.908796,868.897520L447.107257,870.086163L448.200542,876.929870L451.142685,895.443897L456.971382,933.696617L465.728276,975.047020L469.819527,994.317463L470.763132,998.819902L495.966175,996.766790L527.202867,998.423688L548.987070,999.000000L585.058696,963.592814L610.261127,938.847408L707.613598,840.298033L712.752258,835.435400L734.365259,814.760205L737.004220,812.418938L744.075103,806.043486L741.223572,798.263274L738.511331,791.635686L736.164681,786.412859L733.567363,781.190032L731.377411,777.263907L728.919380,773.193703L725.120933,767.430584L717.301261,757.561242L713.412321,752.734630L687.554627,721.685826L678.467735,710.339687L665.509385,695.607715L658.107610,686.602843L656.478246,684.657790L631.822015,657.391039L599.019180,620.723204L589.775796,610.673769L575.675761,593.168302L569.280288,583.803237L563.118091,573.969920L559.901219,568.999232L557.234435,563.200096L553.498854,555.167753L549.094851,545.298417L537.641040,517.923617L540.628208,514.249631L542.093941,512.376619L542.090492,509.819236L542.219325,508.486516L542.476974,507.117776L541.979134,506.109231L537.223838,477.509772L536.865422,466.631893L536.225162,447.649634L535.403750,436.051367L534.638025,425.821839L542.579243,427.622812L580.523805,432.161265L623.077875,436.015347L634.444893,437.059912L637.863703,437.348068L656.406047,439.040982L662.867668,439.617294L665.363885,440.049527L715.117678,445.272350L716.722638,445.524486L768.662844,448.874296L795.536397,450.603230L818.016308,455.645956L830.069200,456.726540L836.778019,456.690520L851.762332,454.673430L858.137100,415.952507L861.072182,387.533152L863.683507,362.787785L865.267780,343.481357L867.290682,329.037556L870.995317,302.058986L872.823276,288.983926L873.234134,286.030331L873.704186,282.464406L875.023810,273.027310L876.388673,265.067013L881.158757,237.440098L883.303571,224.977370L881.441158,217.017074L878.297498,212.910857L875.477563,211.289982L873.138062,209.885224L862.293470,205.058619L851.567253,200.304053L819.712542,181.069672L818.501021,180.313264L804.805285,171.272385L793.198388,163.636264L770.193346,153.983055L767.032244,152.650336L764.703241,150.164995L759.753097,135.901299L755.634697,131.831103L735.749153,120.376923L730.600298,115.298183L727.460256,109.535074L721.214939,99.593711L709.590802,90.516815L701.949176,87.887397L693.538087,87.058950L684.566490,86.194484L656.126819,84.141376L649.996049,83.709143L638.859009,82.880696L613.629212,81.007686L610.687425,80.647492L591.055975,74.019917L578.432533,69.769624L566.540185,65.735448L553.189104,62.205545L542.950375,59.540107L511.168910,51.219620L501.727429,48.734279L489.521601,48.266027L486.151595,48.121949L444.983582,52.624377L438.904955,53.921077L423.607366,58.207388L417.507660,62.961953L410.561881,69.337391L400.211135,78.198170L395.956788,79.098656L381.404484,78.270209L374.667824,80.215258L369.536014,83.709143L366.047497,86.086425L363.384119,87.707300L360.396962,89.436232L359.077518,89.148077L357.806983,85.762250L355.565422,77.189626L349.654576,66.383798L342.887404,54.065154L324.396177,19.774662L314.966128,2.269224L308.783094,3.025631L256.433271,0.684369L249.230257,0.324175L242.681745,0.000000Z "/></g><g fill="#000" font-family="Arial" font-size="12px" id="mylayer-label" stroke="none"><text text-anchor="middle" y="439.725113568"><tspan dy="0" x="492.393471014"><![CDATA[N]]></tspan></text></g></svg>