<?xml version="1.0" encoding="utf-8"?><!DOCTYPE svg  PUBLIC '-//W3C//DTD SVG 1.1//EN'  'http://www.w3.org/Graphics/SVG/1.1/DTD/svg11.dtd'><svg enable_background="new 0 0 1000 1001" height="1001px" pretty_print="False" style="stroke-linejoin: round; stroke:#000; fill: none;" version="1.1" viewBox="0 0 1000 1001" width="1000px" xmlns="http://www.w3.org/2000/svg" xmlns:xlink="http://www.w3.org/1999/xlink"><defs><style type="text/css"><![CDATA[path { fill-rule: evenodd; }]]></style></defs><metadata><views><view h="1001" padding="0" w="1000"><proj flip="auto" id="robinson" lon0="-91.1770932525"/><bbox h="0.22" w="0.52" x="-1267.19" y="-607.48"/></view></views></metadata><g class="" id="mylayer"><path d="M1000.000000,437.681111L993.581353,439.237807L986.041687,440.761381L983.539376,441.092593L980.142032,441.357562L978.210565,443.377954L977.130283,444.239104L973.610911,446.425101L972.355409,446.988161L966.099953,448.710461L962.377985,449.406005L961.182157,449.439126L958.733723,449.770338L955.066975,450.035307L947.794709,450.200913L946.613799,450.101549L944.248866,449.571611L941.334452,448.478613L938.412472,447.153766L934.894486,444.901527L932.654708,442.781772L931.029887,440.165200L930.283839,438.177929L921.678656,435.826325L918.352802,435.097659L908.643297,433.342235L895.767103,432.315478L893.505488,431.884903L890.429456,430.791903L883.440496,427.844116L867.142052,419.828781L864.411596,418.238962L861.926505,416.384173L860.522121,414.860596L859.348180,413.204534L857.883511,410.422349L856.773524,407.540799L855.834094,404.460522L853.082725,402.936944L852.257856,402.307639L851.657422,401.479608L850.327472,398.697420L849.254521,394.590381L847.581149,389.655307L847.468546,388.562304L847.592395,387.403058L847.888349,386.210691L849.778615,381.507464L851.241520,378.924000L850.766499,377.102327L850.104261,374.850076L847.068084,367.066558L843.060819,355.109742L842.266637,351.996331L840.668183,346.994999L840.488344,346.200085L839.096323,340.801293L838.007374,337.853486L835.062988,331.229198L833.041456,327.652080L830.178623,323.412533L825.011859,317.086331L818.056300,309.600873L812.667031,304.831375L809.479942,302.214775L806.674808,300.691185L803.715586,299.399445L800.533466,298.472043L797.097047,298.008341L794.714357,297.875855L789.783040,298.306435L785.992274,299.134473L782.245083,300.591820L778.587801,302.446626L773.857727,305.394441L771.919950,306.752423L768.119210,309.402144L765.030911,312.184350L761.118285,316.125808L756.398682,319.040498L751.514354,321.623973L750.323172,322.153917L749.131823,322.087674L747.888137,322.187038L742.847673,323.048197L739.082462,324.306813L737.665296,324.869878L734.079738,326.327222L729.139984,328.745088L727.912938,329.473761L724.364954,331.494169L716.405880,337.157936L715.199768,337.820365L705.239269,342.059907L700.167562,343.616614L695.442984,344.842107L695.098773,344.908349L691.348315,345.438292L684.992085,345.603899L682.530440,346.829392L681.268904,347.326213L677.485669,348.386098L671.158257,349.909682L667.413802,350.505868L661.228297,351.068931L658.830660,351.068931L654.313540,350.274018L651.715147,349.545347L647.928989,350.870203L645.164998,352.029452L640.425648,353.983614L636.649956,355.275349L632.872720,356.401476L629.071463,357.262632L625.316536,357.891938L621.536212,358.686852L612.782664,360.044828L596.682103,361.634654L581.753500,363.522572L569.579802,363.853786L562.228325,364.185000L553.758764,364.218121L545.736387,363.091995L537.004328,360.972227L528.653736,358.156909L528.200224,358.057545L522.166779,356.434597L516.196303,355.209106L512.147636,354.381071L505.904529,352.228180L496.441896,349.181012L493.186497,348.485462L491.515925,347.293091L485.166156,343.517250L482.965724,342.126150L472.712041,335.700593L471.099825,334.408856L467.667421,332.057234L459.691658,325.499185L455.914768,322.021431L454.217280,320.829058L453.950813,320.564086L452.727772,319.404834L449.351919,315.595864L446.248259,310.925733L445.870963,310.329546L444.649063,313.939789L444.171973,315.364013L443.400227,317.550031L439.021176,330.467404L437.305750,335.468742L434.268253,344.312164L425.079571,370.743029L422.025711,379.553306L421.651792,380.480703L420.524032,383.196651L420.133642,384.090927L411.357799,413.734474L407.789714,413.601989L407.261382,413.568867L395.150247,413.105170L360.306415,413.138291L324.729201,413.105170L320.483155,413.072049L304.041741,399.459210L293.448702,388.992881L278.669871,354.778528L289.016128,347.955519L320.081850,327.486473L330.401176,320.663451L335.724079,317.715639L336.940695,317.020088L347.176405,311.058219L351.514545,308.242891L356.741559,304.831375L355.974983,303.506515L353.648319,299.531932L352.854807,298.207070L355.300175,297.544640L353.073231,290.953453L352.521035,291.251547L349.887220,292.510165L329.843202,301.717952L328.496354,302.314140L297.595633,324.902999L276.690070,336.495507L271.334350,339.973258L254.189742,351.002689L251.952758,353.221822L254.084621,355.937777L257.328836,360.077949L260.420356,364.019393L262.508827,366.702223L263.871179,368.358291L269.710056,376.307415L271.835956,378.957122L265.775222,381.938041L260.792081,384.918960L250.705740,389.555943L233.855145,396.842628L225.055761,400.817182L215.178778,404.791735L199.539720,409.097499L181.970202,414.396898L186.167984,388.330455L180.998460,388.065485L101.815238,383.825956L75.406382,382.401740L37.788900,380.215732L37.228017,381.904920L0.000000,489.714388L31.996971,487.694004L72.452994,485.077440L89.683939,483.918203L90.846831,483.818839L117.931717,481.997181L120.053339,490.542414L123.126453,502.896561L123.713803,505.215032L126.132208,514.952606L133.519688,514.422670L144.616178,514.687638L177.856232,515.383179L188.936251,515.615026L200.830487,515.913115L223.686517,516.476172L236.513200,516.807381L248.390966,517.072349L247.821227,513.760250L244.902396,512.766621L239.830066,512.534774L237.733183,512.435411L228.573481,512.435411L225.445314,512.104201L204.973777,512.435411L204.057807,512.435411L197.696806,512.104201L194.508579,511.110571L194.126779,510.613756L196.677859,507.997197L199.582071,499.915668L200.807940,495.013755L202.991146,488.190820L204.558671,484.679987L205.803421,482.957692L208.104677,480.705459L210.756366,473.849394L213.026224,471.696523L217.657396,467.953838L222.668487,463.350004L223.132310,462.820066L228.708985,457.620049L233.594471,453.413664L238.273204,448.412370L242.839880,444.106619L243.727039,442.748651L247.095126,439.337170L253.218008,433.772811L262.175126,426.486146L264.275974,424.697601L264.676993,424.366389L267.199797,422.180388L272.326538,419.000750L281.349556,411.846563L283.854506,410.058015L286.760321,407.342072L288.277578,405.950979L296.460102,412.707715L304.292441,419.464448L314.609136,425.691237L324.168297,430.990630L331.542808,432.547327L343.036726,436.157537L344.386813,436.488749L347.134697,436.488749L356.246770,437.747354L364.578961,438.575383L387.039579,438.939716L389.534536,438.972837L401.621694,439.171564L388.778357,473.418820L387.477569,477.790804L383.844282,489.714388L349.845252,593.813444L337.201421,632.465348L335.285016,638.957002L329.508951,658.431945L327.576130,664.890465L326.332643,669.593591L322.612697,683.669837L321.352767,688.339835L324.526243,689.465934L330.614024,691.088841L333.215500,691.552528L334.423390,691.651890L338.957272,692.479903L349.940735,693.870966L361.178462,694.798341L363.252914,694.798341L367.648972,695.295149L370.979184,695.328269L389.110433,695.328269L398.594967,694.897703L403.556549,694.798341L406.974921,694.467136L409.341034,693.970328L414.272070,692.347421L423.638502,688.538559L430.450472,685.822673L434.085454,684.464731L437.935962,683.106788L441.346516,681.947568L458.855231,674.793524L468.051102,671.183379L476.634670,667.208908L485.601184,662.704505L492.490603,659.061237L494.298289,658.200100L499.549476,656.245983L501.069951,655.782295L513.200175,654.225625L527.116064,652.900799L529.879176,653.364488L531.257844,653.861298L533.410696,655.318606L533.747575,655.616691L534.318021,656.113501L535.687790,656.809034L538.825188,657.537688L543.618004,658.398824L551.851427,658.431945L555.090819,659.690529L557.074217,660.319820L560.862650,660.949112L563.888921,660.750388L566.438673,659.160599L567.994743,657.902015L569.465299,656.146621L571.896103,652.801437L576.895548,646.442273L579.733120,642.235949L580.816049,640.513674L585.445407,640.613036L596.476198,640.745519L595.760700,644.289430L594.564123,649.953062L595.854320,661.048474L619.326459,655.484209L619.456958,656.179742L629.258439,708.046547L655.506550,701.455566L651.861142,674.959127L646.967119,639.453813L659.069525,639.520054L695.376746,639.718778L707.452213,639.785019L729.744235,639.917502L757.219344,640.016864L784.632530,663.168193L800.112798,676.250829L804.920324,679.794731L805.713377,679.331043L828.975038,665.221671L836.721427,660.485423L862.564698,645.879222L863.062971,645.581136L876.176852,638.095865L876.715667,638.095865L889.722027,638.029623L936.720008,637.731537L949.267671,598.350992L959.554281,565.958830L960.506425,562.944832L963.394266,553.803469L964.329946,550.756347L971.465997,528.167874L992.879695,460.302860L998.608209,442.086228L999.298871,439.900230L1000.000000,437.681111Z "/></g><g fill="#000" font-family="Arial" font-size="12px" id="mylayer-label" stroke="none"><text text-anchor="middle" y="494.3115452"><tspan dy="0" x="581.828143067"><![CDATA[N]]></tspan></text></g></svg>