<?xml version="1.0" encoding="utf-8"?><!DOCTYPE svg  PUBLIC '-//W3C//DTD SVG 1.1//EN'  'http://www.w3.org/Graphics/SVG/1.1/DTD/svg11.dtd'><svg enable_background="new 0 0 1000 1001" height="1001px" pretty_print="False" style="stroke-linejoin: round; stroke:#000; fill: none;" version="1.1" viewBox="0 0 1000 1001" width="1000px" xmlns="http://www.w3.org/2000/svg" xmlns:xlink="http://www.w3.org/1999/xlink"><defs><style type="text/css"><![CDATA[path { fill-rule: evenodd; }]]></style></defs><metadata><views><view h="1001" padding="0" w="1000"><proj flip="auto" id="robinson" lon0="-96.857323271"/><bbox h="0.19" w="0.38" x="-1355.11" y="-579.48"/></view></views></metadata><g class="" id="mylayer"><path d="M1000.000000,251.271566L926.399958,250.378219L885.439683,249.886879L868.326782,301.790103L804.363201,302.415441L799.915758,302.460108L712.740149,303.353447L516.305341,305.229458L500.395251,306.346131L459.566768,305.095457L419.046183,304.961456L375.293832,305.229458L304.682269,294.643386L293.364519,329.572886L256.560088,442.936034L242.536001,486.217149L76.832457,484.519856L50.311584,566.882672L29.755914,630.708618L29.484577,631.557243L8.984597,694.980531L0.000000,722.850836L16.639259,722.806172L93.392279,721.242937L137.807826,721.332265L161.807403,721.376929L197.333631,721.421593L227.705322,721.064282L240.283189,721.242937L238.983812,725.307347L237.251299,728.299823L235.409758,730.131039L236.005648,732.542883L236.002735,736.249975L234.194131,744.334108L232.723436,748.934467L307.220294,749.113121L392.110548,533.160505L397.967209,520.966880L405.753954,520.877550L410.883235,521.011546L415.669155,520.832884L417.553286,520.832884L530.178595,522.038848L543.321258,522.530167L568.424387,523.512804L570.731666,523.691465L586.104316,524.718767L645.091686,524.986759L690.932979,525.120755L895.627176,526.773371L916.760592,527.577347L930.163729,483.224553L986.496702,296.162064L1000.000000,251.271566Z "/></g><g fill="#000" font-family="Arial" font-size="12px" id="mylayer-label" stroke="none"><text text-anchor="middle" y="467.868523741"><tspan dy="0" x="486.695567692"><![CDATA[N]]></tspan></text></g></svg>