<?xml version="1.0" encoding="utf-8"?><!DOCTYPE svg  PUBLIC '-//W3C//DTD SVG 1.1//EN'  'http://www.w3.org/Graphics/SVG/1.1/DTD/svg11.dtd'><svg enable_background="new 0 0 1000 1001" height="1001px" pretty_print="False" style="stroke-linejoin: round; stroke:#000; fill: none;" version="1.1" viewBox="0 0 1000 1001" width="1000px" xmlns="http://www.w3.org/2000/svg" xmlns:xlink="http://www.w3.org/1999/xlink"><defs><style type="text/css"><![CDATA[path { fill-rule: evenodd; }]]></style></defs><metadata><views><view h="1001" padding="0" w="1000"><proj flip="auto" id="robinson" lon0="-90.8517220575"/><bbox h="0.29" w="0.54" x="-1285.91" y="-527.65"/></view></views></metadata><g class="" id="mylayer"><path d="M1000.000000,468.418193L998.223006,468.760105L991.915811,469.692590L990.335222,469.692590L987.866422,469.070933L985.314865,468.760105L980.557940,467.827619L975.356912,466.584305L964.112120,466.273476L949.013773,466.584305L925.237340,467.827619L915.490377,467.827619L912.246440,468.138447L877.736922,468.138447L852.808842,468.760105L882.472672,372.496367L883.248520,369.978649L884.032648,367.429847L886.360215,359.876691L883.581733,350.427472L881.685051,350.427472L863.005694,328.576144L869.036440,320.867564L885.182493,300.104123L887.092663,297.679649L893.105421,289.939979L893.610417,288.043915L895.133692,282.324640L895.646973,280.397493L896.806000,276.045869L898.627345,269.207603L907.524378,235.606829L909.327778,228.737472L906.077888,227.587398L895.804337,227.587398L864.957342,227.587398L854.657448,227.587398L841.073030,227.556315L800.318271,227.369817L792.432100,227.307650L790.986114,234.021593L786.459395,251.707851L785.169298,256.650056L772.861985,304.735491L768.317742,322.390631L766.045647,330.130293L759.820282,351.328878L734.487555,351.888371L711.621262,352.385698L584.448776,355.214248L570.676004,355.493994L534.423784,356.302151L491.561015,357.203557L406.650576,358.913119L394.824506,410.137789L383.203513,460.398815L379.720138,458.937921L369.278306,454.524153L365.776875,453.032176L329.266457,440.070616L266.269341,417.659851L240.614244,400.439920L227.718329,388.131083L213.680016,374.672173L207.306014,364.383718L203.321636,357.980631L200.315675,353.442519L199.634568,352.043786L190.164660,332.710180L189.555819,331.435778L187.048217,326.213838L184.897071,327.861236L178.433857,332.741263L178.043220,333.021010L177.769919,335.134652L174.284091,342.781063L169.625572,352.851943L165.033239,365.937866L162.278326,373.708602L162.963071,381.323921L163.196344,383.810556L159.692658,388.162166L133.679762,420.053235L127.450789,417.131442L126.336860,416.665199L114.648146,411.691934L109.734082,409.174218L109.156800,408.770141L102.814985,404.294201L98.951648,401.589988L92.024937,402.771139L85.027475,403.921206L76.861986,400.160174L75.404081,400.688583L51.435584,409.080970L46.395989,400.408837L42.594495,393.912507L39.458861,396.585638L34.515320,400.408837L30.786591,403.330631L8.617478,420.395147L10.802387,423.565602L15.630583,430.559253L17.169706,436.154173L17.449685,437.179908L19.314722,443.924893L15.375264,454.461988L12.917078,461.020472L0.000000,478.955280L1.423312,481.721654L24.279746,526.760668L33.390821,528.159394L52.836072,531.112261L56.709363,532.790732L62.085005,535.059777L58.475381,538.820795L56.805381,542.519648L54.421929,547.710474L53.460305,553.398623L50.575517,570.463067L49.622228,576.120131L43.544747,622.091509L40.079531,648.263153L38.709923,658.551525L49.439273,657.929871L127.001409,653.453963L162.373977,651.402505L162.552932,656.468985L162.527130,691.592412L162.459687,731.129540L162.553380,766.501556L190.204451,750.804839L200.209712,745.085638L222.152974,732.621506L231.138272,731.129540L233.170468,730.818713L266.156735,725.658996L277.157668,723.918369L293.549974,721.618253L302.538298,720.312783L310.615899,719.162725L318.719843,718.012667L342.672648,714.624659L359.028791,712.262378L360.676083,705.579608L361.111593,703.745732L361.841103,700.015813L363.082297,695.353414L365.371189,685.469127L366.921459,678.755270L383.954434,672.663065L435.033739,654.262113L452.056900,648.107739L456.048152,646.771183L468.055008,642.637183L472.054534,641.269544L477.922721,643.569664L495.527317,650.470024L501.395526,652.770144L530.604838,638.938341L532.419637,644.688642L538.149538,662.747688L538.372449,663.493673L532.199487,689.354460L529.510599,700.544218L545.370910,699.549573L549.046206,699.300912L554.526234,706.325592L561.399529,729.295664L555.599571,763.952782L598.413870,767.496199L649.721670,771.692350L657.106272,771.661267L679.250278,771.505854L686.616808,771.443689L704.078960,770.666624L756.447325,768.304346L773.891394,767.496199L775.663819,760.440448L780.954881,739.273188L782.709321,732.186349L783.920833,727.337458L787.580247,712.697535L788.808345,707.786477L792.936627,692.276231L797.620856,674.776687L800.227012,664.985642L807.615483,637.228792L824.034853,575.747137L832.831167,542.706144L837.836261,541.618247L838.544496,541.431750L852.758994,538.603215L857.721192,537.577483L872.701844,534.344872L916.736469,516.379009L1000.000000,468.418193Z " data-aland="3690929" data-awater="12188" data-classfp="C1" data-funcstat="A" data-geoid="2809460" data-intptlat="+31.4624467" data-intptlon="-090.8522796" data-lsad="43" data-mtfcc="G4110" data-name="Bude" data-namelsad="Bude town" data-pcicbsa="N" data-pcinecta="N" data-placefp="09460" data-placens="02405341" data-statefp="28"/></g><g fill="#000" font-family="Arial" font-size="12px" id="mylayer-label" stroke="none"><text text-anchor="middle" y="522.272685331"><tspan dy="0" x="492.913602469"><![CDATA[Bude]]></tspan></text></g></svg>