<?xml version="1.0" encoding="utf-8"?><!DOCTYPE svg  PUBLIC '-//W3C//DTD SVG 1.1//EN'  'http://www.w3.org/Graphics/SVG/1.1/DTD/svg11.dtd'><svg enable_background="new 0 0 1000 1001" height="1001px" pretty_print="False" style="stroke-linejoin: round; stroke:#000; fill: none;" version="1.1" viewBox="0 0 1000 1001" width="1000px" xmlns="http://www.w3.org/2000/svg" xmlns:xlink="http://www.w3.org/1999/xlink"><defs><style type="text/css"><![CDATA[path { fill-rule: evenodd; }]]></style></defs><metadata><views><view h="1001" padding="0" w="1000"><proj flip="auto" id="robinson" lon0="-83.393271797"/><bbox h="0.14" w="0.12" x="-1134.36" y="-683.5"/></view></views></metadata><g class="" id="mylayer"><path d="M827.568348,0.000000L822.103840,1.085418L748.553550,35.939475L472.349482,166.552889L392.557424,213.468032L92.767605,422.960888L60.813855,453.354024L46.864175,483.747259L45.199983,536.332613L50.938652,548.272907L57.436036,565.278806L185.705931,624.136341L247.367724,664.420195L268.688833,710.372948L245.914808,770.196292L166.546385,876.335428L92.639039,938.933961L176.214320,999.000000L192.538628,985.732368L217.609259,963.659894L236.867473,945.567741L250.810620,931.455887L263.945547,917.102826L280.629810,897.322172L296.194999,877.059108L310.896028,856.434248L324.633432,835.447595L340.782551,809.154039L352.561678,787.805656L367.703414,757.411432L372.414905,746.556376L378.387988,730.273816L387.238664,703.256890L391.477321,687.095016L396.281340,665.505690L399.761245,644.278246L401.525716,628.357694L402.693013,606.647895L600.906451,521.256507L656.116930,497.255395L635.708499,410.176504L629.919513,385.693250L744.804047,329.731767L751.724604,358.797926L765.053211,353.008808L789.404008,342.033616L795.253890,338.777242L802.639237,333.470562L815.838702,358.918533L954.800017,290.534807L935.686944,220.824927L933.479700,211.779565L901.743585,229.990902L883.806416,164.743826L877.141546,139.658195L865.714652,107.095217L854.188481,74.532353L827.568348,0.000000Z "/></g><g fill="#000" font-family="Arial" font-size="12px" id="mylayer-label" stroke="none"><text text-anchor="middle" y="408.105612024"><tspan dy="0" x="464.11456332"><![CDATA[N]]></tspan></text></g></svg>