<?xml version="1.0" encoding="utf-8"?><!DOCTYPE svg  PUBLIC '-//W3C//DTD SVG 1.1//EN'  'http://www.w3.org/Graphics/SVG/1.1/DTD/svg11.dtd'><svg enable_background="new 0 0 1000 1001" height="1001px" pretty_print="False" style="stroke-linejoin: round; stroke:#000; fill: none;" version="1.1" viewBox="0 0 1000 1001" width="1000px" xmlns="http://www.w3.org/2000/svg" xmlns:xlink="http://www.w3.org/1999/xlink"><defs><style type="text/css"><![CDATA[path { fill-rule: evenodd; }]]></style></defs><metadata><views><view h="1001" padding="0" w="1000"><proj flip="auto" id="robinson" lon0="-92.2859837042"/><bbox h="0.56" w="0.91" x="-1243.65" y="-712.57"/></view></views></metadata><g class="" id="mylayer"><path d="M1000.000000,763.361601L999.620516,761.566709L989.712329,742.125069L976.391124,715.557370L973.301191,710.012832L970.204031,704.965888L962.122854,692.295247L958.876934,686.839600L954.779807,679.589110L940.104237,653.501688L936.467544,646.553368L933.635594,640.546902L923.432632,617.782845L908.164518,589.510125L905.731562,584.978692L904.655347,582.952876L894.264328,563.547756L874.902423,528.025286L871.845411,522.338881L786.177218,524.435742L786.346808,524.933302L786.735499,525.573023L786.990939,526.248283L787.023590,527.030164L786.765772,528.007516L785.099325,531.988005L776.468361,552.654635L768.816204,570.975711L761.164268,589.296881L757.777729,597.417934L722.894193,597.293542L687.175000,595.338801L689.761456,588.977015L691.151868,585.707275L697.546536,570.655846L705.331836,552.334772L713.789446,532.450027L721.002915,515.426356L728.445709,497.869670L732.862494,487.456534L720.375968,487.172217L678.729130,475.373070L683.492864,464.462448L680.942003,450.602097L683.080849,445.626599L706.423223,446.248536L707.595864,446.230767L708.481206,446.195227L713.183865,446.301845L714.531877,446.390693L715.121752,446.390693L715.620494,446.568389L715.865888,446.923782L715.984608,447.368023L715.920849,447.687876L715.511018,448.469740L714.955840,449.109447L714.186567,449.766924L714.075917,450.264474L714.295216,450.886411L714.139795,451.419501L714.310396,451.845972L714.577647,452.219135L714.718225,452.681146L714.674202,453.160927L713.976451,454.955663L714.116500,455.453214L714.346620,455.844147L714.930137,456.270619L715.685629,456.537164L717.553187,456.892558L718.277286,457.781042L718.751747,458.598447L718.892859,459.024920L719.552983,459.753477L719.999320,459.984483L720.529150,460.055562L721.481651,459.966713L722.250389,459.344774L723.511382,457.852120L724.296986,457.088024L724.710209,456.572703L725.194297,455.755298L725.409232,455.186669L725.416650,454.689118L725.308743,454.013871L725.329849,453.587399L725.511581,453.267545L725.847361,453.001000L727.595974,452.432371L728.572448,452.219135L729.191818,452.219135L729.758248,452.307984L730.221670,452.876613L730.225510,454.102719L730.430068,454.724657L730.743682,454.955663L732.459225,456.110692L733.025657,456.199540L737.575429,455.186669L738.777345,454.689118L740.731353,454.191567L741.321759,454.156028L741.629854,454.262646L742.272891,454.653579L743.056511,455.506523L743.578926,456.075152L744.184832,456.483855L744.796034,456.537164L745.446487,456.430546L746.046120,456.270619L741.455790,467.429992L742.559313,465.617480L743.846381,463.858278L744.349139,463.271878L745.309355,462.170156L746.941126,460.535343L748.711139,459.024920L750.634672,457.603345L752.636931,456.341698L755.238292,454.955663L773.498543,446.301845L778.845017,443.778559L771.398780,442.232603L764.705702,440.615569L760.542197,439.460546L782.153370,385.654625L795.025151,388.746489L796.609082,388.835336L810.899924,388.248947L825.106172,390.363499L827.245403,388.817566L829.380506,386.560861L809.245484,377.587360L791.854800,370.497422L730.186015,340.929510L714.334909,333.484263L673.196247,314.133800L483.341886,224.881351L444.735125,206.615343L411.906494,191.441123L410.964134,193.768780L401.711950,215.002059L400.201233,218.342536L379.908328,262.124391L375.590843,273.567463L376.172676,274.580283L376.729336,275.308803L378.138925,278.134040L378.322530,278.667104L378.441128,279.111324L378.786941,279.644388L379.113873,281.421269L379.079526,281.741108L379.653462,284.246511L379.916735,284.388662L379.973654,285.010571L380.303739,286.094470L381.167407,289.914771L381.083971,290.554450L380.931658,290.874289L380.761459,291.887114L380.486864,292.491256L380.040994,294.179298L378.154016,299.492196L378.082000,299.865343L377.377273,301.606696L376.068354,305.267093L375.707543,306.208847L375.610986,306.741915L375.280207,307.648131L374.828970,309.691559L374.691406,310.011401L374.343190,311.095307L373.916501,312.978817L373.312321,314.897866L372.960236,315.750777L372.580378,316.976837L372.546041,317.296678L372.548838,317.598751L371.801721,320.193025L371.387962,321.223627L371.146747,322.058770L369.965429,324.599740L369.537895,325.079504L369.153524,325.630344L368.856016,326.287798L368.379938,327.051866L367.664691,328.029163L367.246524,328.864308L365.962848,330.374678L365.703014,330.978825L363.916573,333.555339L362.240463,336.149624L359.615325,339.579059L359.131610,340.360899L358.538105,341.089432L357.791107,341.729120L356.176029,343.701492L355.081262,344.909792L354.292292,345.887094L353.034240,347.166472L352.793459,347.486316L352.450529,347.735084L348.756794,352.106295L347.042799,353.794365L345.999918,354.984900L345.450656,355.713436L344.575897,356.513049L343.796722,357.330432L343.210864,358.041199L342.484645,358.769736L340.284259,361.417347L338.773375,362.838883L337.505540,364.278190L335.747312,365.966266L335.232380,366.374958L334.692375,366.979112L334.393148,367.263420L333.849260,367.636574L332.949846,368.116343L332.665365,368.400651L326.293413,373.376042L323.222332,375.579432L322.847225,376.005894L322.281487,376.361280L320.660813,377.729515L319.856446,378.262593L319.455604,378.440286L317.863350,379.879599L316.911517,380.412678L315.475982,381.727606L314.257637,382.331763L312.800250,383.628922L311.980063,384.233079L310.501236,384.997160L309.245345,386.134397L308.171781,386.916247L307.193265,387.751406L306.112596,388.515488L304.207318,389.688264L302.698589,390.967657L301.610278,391.749509L300.195933,392.637977L299.450551,393.171058L295.374148,396.031926L294.973306,396.209620L293.586306,397.240244L293.130363,397.648940L289.746923,400.030038L288.332577,400.918508L287.433161,401.398282L285.524126,402.819834L282.940226,404.987703L282.575445,405.218706L281.378544,406.355949L280.258059,407.315498L279.449936,408.097353L278.897871,408.523820L278.558829,409.003595L278.072320,409.483370L276.364246,410.780539L274.899760,412.059940L273.185116,413.303802L271.965160,414.014580L271.687787,414.316661L271.187604,414.725359L269.533557,415.862605L268.213188,416.875466L265.687608,418.599106L263.821610,419.611967L263.558984,419.914048L261.595390,421.531072L260.216034,422.543934L259.041926,423.148098L258.727954,423.432410L257.590981,424.018804L256.747870,424.676276L256.123145,425.031666L255.261534,425.937912L254.660805,426.168916L253.095239,427.306165L252.087369,428.621111L250.517242,429.083119L249.568087,429.438510L248.594935,429.918288L248.139529,430.291448L245.933817,431.339851L245.011475,431.872938L244.478583,432.494872L243.897562,432.885803L243.613085,433.170116L242.712595,433.720972L242.090549,433.898668L241.185634,434.254059L238.391793,435.675625L237.443709,435.959938L235.768345,437.043882L233.911056,437.967900L232.803038,438.589836L232.158068,438.820840L229.605396,439.407237L227.052050,439.549394L226.155311,439.851477L224.885750,440.917652L223.606802,441.628437L222.054770,442.356990L221.740799,442.641304L221.354701,442.819000L220.251505,443.121083L219.922787,443.405397L219.536153,443.618633L216.316256,444.933584L215.546878,445.591060L214.002486,446.301845L213.608210,446.532850L212.237962,446.941552L211.275267,447.705646L208.592150,448.629667L207.270032,449.269374L205.165535,450.939720L204.378591,451.295113L203.291609,451.010799L202.252757,450.957490L200.816414,451.348422L199.722068,452.041439L198.862600,452.805534L197.591291,453.498551L196.086175,454.049410L192.367833,456.146231L190.294832,457.194642L188.084146,458.083126L186.291731,458.616217L184.645178,459.255926L181.985117,460.606422L181.150575,460.695271L179.804458,461.459368L178.482336,462.099077L177.109940,462.649938L173.812403,463.733890L172.987250,464.178133L172.005774,464.231442L171.344445,464.569067L170.991730,464.977770L169.651645,465.830717L167.036893,467.110137L166.307327,467.572150L165.684204,467.820926L165.655923,468.229630L166.198346,468.442867L166.870673,468.354018L167.279838,468.602795L167.666221,469.384663L167.663291,470.557466L167.451762,471.872428L167.840969,472.956383L168.349081,473.489475L169.150382,473.649403L171.065493,474.271345L171.799240,474.999905L172.280973,476.794652L173.005863,477.132278L173.740391,476.830192L174.923753,476.101631L175.620464,475.373070L176.395729,474.324654L176.460997,473.418396L175.873114,472.796455L175.191396,472.529908L174.820291,471.712500L175.526108,470.379769L175.794088,469.722288L176.482768,469.526821L177.399615,468.869341L177.791749,468.780492L179.191640,468.851571L180.508012,469.082577L181.287604,469.704518L181.663137,470.717394L181.563946,471.428184L179.156295,471.197177L178.440119,470.770703L178.043021,470.699624L177.427005,470.966170L176.866908,471.925737L177.235482,473.400627L177.981299,474.306884L178.996164,474.484582L180.658438,475.248682L183.008858,475.852854L184.266100,475.604078L185.032797,475.124294L185.795894,475.373070L186.226381,475.675157L187.077813,475.444150L187.250735,474.733359L187.079124,474.377964L187.342135,473.560554L187.346271,472.796455L187.610354,471.907967L188.119636,470.895091L188.904974,470.646315L189.857883,470.042144L191.565028,469.295814L192.757246,468.958189L193.992488,468.211860L195.484463,467.554380L197.037178,467.270065L197.126876,467.678768L196.929422,468.549485L195.927212,470.468617L195.565402,471.481493L194.090610,472.956383L192.889828,473.862640L192.416614,474.928826L191.720442,475.621847L190.173225,476.030552L188.556555,476.154940L187.727364,475.888394L187.169802,476.190480L187.036156,476.741343L185.952190,479.193573L184.683859,480.668466L182.739840,481.965661L179.975724,482.392136L178.139065,482.925231L176.168463,483.049619L173.064777,483.991419L169.195166,484.382355L168.139801,483.955880L167.404441,483.333936L165.291721,483.102929L163.405853,483.476095L161.805292,484.488974L160.350982,485.093148L159.302336,485.199767L155.070081,485.679552L152.816459,485.501854L149.282132,485.661782L147.094069,485.537393L145.826458,484.026959L145.516336,482.587604L146.124816,480.863934L145.878258,480.099832L145.598457,479.584508L146.243684,478.358393L145.037642,478.145156L143.026834,478.980336L141.572127,480.099832L139.948776,481.645805L137.476420,484.240197L136.761064,484.737751L134.911649,484.648902L133.397524,484.329046L132.174590,484.257966L130.345029,484.808831L128.968055,484.684442L126.736146,484.044729L122.362703,483.618253L120.289010,484.222427L118.666300,484.257966L116.765398,483.671563L112.376815,483.760412L110.959352,483.387246L109.083799,483.564944L107.740885,484.115808L106.752695,483.636023L100.648079,482.125589L99.780012,481.503646L98.605074,481.183790L97.724677,481.379258L96.714374,481.876812L94.754901,482.729763L92.891950,483.049619L91.129547,483.547174L89.664366,484.382355L86.484912,485.946099L84.302223,487.420995L79.947167,490.175319L76.388314,492.449860L73.454873,494.813252L71.337206,496.377000L67.902364,498.740394L67.204963,499.024712L66.066896,499.682198L64.403571,500.943861L63.610722,501.690196L61.929831,502.649771L60.526992,503.751505L58.782967,505.475187L55.802074,508.051826L54.375918,509.722200L52.711667,511.534735L51.108156,513.720439L48.900692,516.350394L46.498695,518.678262L44.884435,519.620071L43.201013,521.237140L41.420008,523.458391L40.876408,524.791142L40.154088,525.750723L39.387527,526.710304L37.017856,529.340269L35.044075,531.632604L33.568341,533.658391L32.102391,535.524247L32.780382,536.039579L35.067748,533.978252L36.883052,531.437134L38.781640,529.731210L39.730518,528.416227L42.247273,526.301593L43.161602,526.301593L43.481224,526.621454L43.511016,527.581035L42.512247,528.291837L41.664162,528.789398L39.550166,531.579294L37.195251,534.209262L35.812973,536.394981L33.807031,538.865022L31.643533,540.535410L30.560867,541.921478L28.714858,544.053891L27.686526,546.239615L27.968950,548.052168L26.648884,550.024653L26.023237,550.930930L23.569923,553.241050L22.334289,554.502731L19.329705,559.638312L18.154292,561.308710L17.649995,562.481544L15.736468,565.182616L14.631058,567.101799L14.354387,567.848149L13.551941,569.234227L12.888261,570.709157L12.133798,571.846453L11.220811,574.209897L10.596039,576.040234L10.013044,577.053140L9.866969,577.941654L8.357152,580.767130L6.563738,584.800989L6.101566,586.115992L5.069555,588.550527L4.290047,589.883302L3.152313,592.975343L2.827849,594.450283L2.792659,595.321030L2.109457,597.115838L1.180337,600.065722L0.688678,602.855674L0.800970,603.726424L0.489311,605.823333L0.356582,607.298278L0.596276,608.524438L0.187080,611.225545L0.000000,614.850717L0.131675,616.396748L0.214148,619.257795L0.988726,623.664879L1.543120,625.050979L1.853380,626.490391L1.660623,628.036427L1.691401,629.920103L3.422654,633.474213L3.447551,634.273888L3.813051,634.487135L4.404789,636.335274L5.108808,637.579214L6.035641,638.716532L6.764904,640.244802L7.323968,642.306191L8.638310,642.679374L9.083792,643.461281L10.428023,644.794077L10.920270,646.393432L11.925838,647.690688L12.969409,648.419284L13.543907,649.449981L14.221442,650.000871L15.648658,651.209274L16.191139,651.422522L16.715152,651.884559L17.564150,652.311055L21.653036,656.007352L22.836660,657.233529L27.099159,660.663271L28.423162,661.871678L31.176533,664.146329L34.661261,666.332127L35.278759,666.954102L40.518603,670.614873L45.255237,673.902463L45.911999,674.364502L52.859908,679.198153L54.366974,680.495421L55.910958,681.295107L58.328163,682.876708L60.330531,685.080288L63.108808,686.679662L63.748184,687.319412L64.570280,688.563370L65.465141,688.883245L65.629182,689.256433L66.088183,689.629620L66.388663,689.754016L67.221661,689.771787L67.851283,690.571475L68.264374,692.046455L68.926672,692.632894L70.279480,693.397040L70.969157,694.125646L71.591374,695.422919L71.667687,696.240379L72.644690,696.986755L74.548703,697.875299L75.527824,698.479509L76.664712,698.888240L79.058521,700.558703L80.571453,701.465019L81.969047,702.193626L83.049294,702.940004L84.871411,703.881862L86.083631,704.183968L87.270291,704.717095L88.311292,705.623412L88.888523,706.476416L89.475509,707.169482L92.694235,707.915861L93.798756,708.022487L94.619362,708.377905L96.459647,709.586329L97.844620,710.172770L98.768174,711.043546L102.683481,712.056491L106.122624,713.353770L106.766786,713.673648L107.828121,713.709189L111.178540,714.526654L112.270142,715.006470L113.262978,715.681767L114.541310,716.001644L115.080653,716.428147L115.847555,716.428147L116.538076,716.605857L117.498005,717.014590L120.898730,717.920910L122.663999,718.720604L124.950734,719.164878L128.240590,720.088970L132.874114,720.906436L137.211094,721.830528L140.081428,722.701307L142.464548,723.607628L143.122688,723.483231L148.969517,724.531721L151.987087,724.922683L153.800837,725.438043L159.007194,725.917860L159.541292,725.704608L160.366917,726.219968L161.997109,726.682014L163.614134,727.037435L167.415472,727.286229L171.197845,727.819360L172.683194,728.103697L174.335517,728.068154L176.751055,728.281407L178.362555,728.512430L180.368307,728.512430L184.081159,728.761225L187.419251,728.921164L193.074127,728.494659L194.168127,728.316949L195.174426,728.583514L196.357441,728.370262L197.719542,728.014841L198.336597,727.677192L199.792190,727.481710L200.807972,727.108519L202.370490,726.664243L204.154496,725.704608L204.554804,725.562440L205.020427,724.993767L206.257170,724.140758L207.230287,723.660941L208.292160,722.665765L209.354033,721.670589L209.726952,721.386253L211.166221,720.302222L212.234678,719.360359L214.304435,717.529948L215.516953,716.321522L215.728170,716.001644L216.106887,715.326347L217.457410,713.762502L220.661732,711.008005L221.452343,710.403792L222.093365,709.941748L224.015118,708.146883L224.486801,707.667068L224.884215,707.222795L227.655591,703.828549L229.258419,702.158084L230.910492,700.647558L232.853308,699.421366L233.535156,698.692760L235.869332,696.933443L238.365210,695.209668L239.023618,694.569917L240.609843,693.521436L241.658810,692.899456L242.602178,691.939830L244.476002,690.393767L245.213427,689.398599L247.438314,687.550433L248.104361,686.892912L249.201266,686.022142L251.414572,683.960727L252.222822,683.658623L252.966304,682.752312L253.815939,681.152940L254.571530,680.424338L255.752173,679.873443L257.020000,678.913821L258.059497,677.936427L259.923856,676.034954L260.288612,675.803934L261.311531,674.453356L264.354142,672.658510L267.955870,670.454937L269.140736,669.619712L269.848144,668.660092L270.722776,667.860409L272.591081,666.189961L273.965313,665.017094L275.330567,664.448431L276.007669,664.039704L280.161446,660.414481L283.979395,658.050980L286.943796,656.060664L294.247074,651.386981L295.716904,650.231889L297.036086,649.290045L298.829840,648.170495L300.543273,646.997634L302.521110,645.895855L303.863688,645.860314L305.558434,644.456435L307.806485,643.034786L309.896251,641.844156L312.869057,640.280343L318.005604,638.005708L320.378986,637.081638L322.951197,636.175339L324.446004,635.819928L329.200929,633.918477L331.629599,633.243196L333.948453,632.514603L337.031835,631.448370L339.120249,630.844172L342.044814,630.044497L344.150856,629.742398L346.016467,629.244823L347.907106,628.551772L353.206578,627.716557L355.769797,627.414458L359.240023,626.614785L362.062647,626.223833L365.285571,625.690717L368.305967,625.388619L372.115386,624.588945L374.254330,624.553404L376.330871,624.251306L378.985214,623.771502L381.312993,623.433862L392.792587,621.052615L393.993487,620.626123L395.379525,620.146320L397.230379,619.648746L398.874480,619.666517L400.906246,619.399959L404.456250,618.689140L406.227026,618.618058L407.735758,618.813533L410.131217,618.387042L411.958626,617.978321L413.155828,617.800616L415.717169,618.120484L417.576149,618.564747L420.479081,618.227107L422.718896,617.853927L425.179644,617.996091L429.438057,617.249731L431.436101,617.267502L433.645363,616.965403L435.293934,617.178649L437.874247,617.214190L440.003188,616.858781L442.510290,616.858781L445.146706,616.592223L448.572356,617.303042L450.640195,617.089797L452.772023,617.036485L454.620757,616.681076L456.781276,617.178649L458.975261,616.912092L460.675186,617.143108L461.783623,617.480747L462.511786,617.605141L466.257925,619.080091L466.750126,619.204484L467.512258,619.524353L469.040469,620.395107L471.136459,621.763435L473.731752,624.269076L476.348376,627.823180L477.037035,628.622854L477.690929,629.777939L478.443584,630.737548L480.057396,633.296508L482.027533,635.197958L482.648518,636.086486L482.946634,636.868391L485.097971,639.480667L486.052369,640.760149L486.785286,641.559826L487.324110,642.021862L488.730688,643.141410L489.788854,644.385353L490.860191,645.735919L491.337665,646.855469L492.498801,647.619605L493.039734,647.939477L493.560658,648.614761L494.047352,649.609916L494.642543,650.249659L495.607481,650.818320L496.685396,651.227045L497.815991,652.062265L500.516213,654.461304L501.817476,655.723021L506.305662,659.383781L508.034902,661.125309L510.730150,663.364417L514.655298,666.207732L516.003456,667.291746L518.799819,668.677863L521.412911,670.490478L523.364452,672.160929L526.136107,674.222336L528.045278,676.265975L530.001323,678.131906L532.826454,680.068922L534.657415,681.917085L537.118348,684.049581L538.612740,685.720038L540.483996,687.337183L542.635468,688.954329L544.011591,690.144975L545.890197,691.264538L549.784268,695.725024L551.284532,697.999696L552.800377,700.718641L557.065482,707.027315L558.124816,708.200196L558.940855,709.870664L559.757207,712.020949L560.111566,713.495938L560.842790,714.917615L561.874521,716.463689L562.981878,718.382955L563.402564,719.360359L563.672841,720.035657L563.931299,721.013062L564.379706,722.612452L564.571123,724.638347L564.666736,727.161832L564.571562,728.619057L564.133933,729.294356L566.002361,730.609413L566.987265,732.333205L568.069141,734.483503L570.686124,738.553079L571.798359,741.147658L572.852063,745.217242L574.110235,747.918453L574.407749,749.251289L574.603264,749.997676L574.864829,752.272383L575.795621,754.671490L576.389105,757.443793L576.346000,759.878446L577.074841,762.473041L577.662798,765.120951L578.224950,766.009512L580.425855,769.297190L581.396614,770.985458L582.019826,773.242408L582.720613,774.735194L583.238711,775.108390L583.569228,776.707805L583.485231,778.413848L583.667228,780.084349L584.733436,782.305762L585.251882,783.158785L585.685652,784.758203L586.583570,785.380199L587.427353,786.677506L588.025619,789.129950L590.492786,791.866737L591.224144,793.288446L592.315022,794.834554L592.975597,796.558378L595.421470,800.752425L598.205186,804.537735L598.869583,805.497392L599.230499,806.030534L635.435726,805.692877L784.587699,805.692877L869.891300,805.319678L973.646335,807.416706L981.284020,807.558877L998.394591,767.271269L1000.000000,763.361601Z "/></g><g fill="#000" font-family="Arial" font-size="12px" id="mylayer-label" stroke="none"><text text-anchor="middle" y="541.667873917"><tspan dy="0" x="516.811032334"><![CDATA[N]]></tspan></text></g></svg>