<?xml version="1.0" encoding="utf-8"?><!DOCTYPE svg  PUBLIC '-//W3C//DTD SVG 1.1//EN'  'http://www.w3.org/Graphics/SVG/1.1/DTD/svg11.dtd'><svg enable_background="new 0 0 1000 1001" height="1001px" pretty_print="False" style="stroke-linejoin: round; stroke:#000; fill: none;" version="1.1" viewBox="0 0 1000 1001" width="1000px" xmlns="http://www.w3.org/2000/svg" xmlns:xlink="http://www.w3.org/1999/xlink"><defs><style type="text/css"><![CDATA[path { fill-rule: evenodd; }]]></style></defs><metadata><views><view h="1001" padding="0" w="1000"><proj flip="auto" id="robinson" lon0="-80.3567664666"/><bbox h="0.3" w="0.34" x="-1091.34" y="-688.9"/></view></views></metadata><g class="" id="mylayer"><path d="M1000.000000,420.843255L997.936644,420.891794L878.393313,423.221666L745.546972,425.842773L737.259235,426.134007L705.850050,426.570859L713.146293,413.756569L716.910961,406.281585L721.927375,394.923517L725.963753,383.614018L729.157614,372.304549L730.772952,364.781100L734.555347,344.880427L746.400389,283.431622L761.430874,205.481262L764.621066,189.075952L772.753644,146.995166L776.610677,125.639448L787.641594,65.941079L773.942930,65.310126L706.290564,60.116893L695.423553,59.874219L688.723759,60.213963L678.528502,61.475869L665.061609,64.048218L633.727262,70.746039L620.014617,74.240558L616.909265,75.648074L614.102440,77.686546L611.886334,80.210369L610.444128,82.928334L610.038180,84.190247L603.749482,104.477979L599.085174,120.397606L581.418972,175.485802L563.508754,232.516187L562.326503,237.564020L562.061228,242.514785L562.390550,245.669687L430.626777,279.403019L413.567350,283.625772L405.888753,285.712881L405.558116,315.369357L405.731266,323.620787L405.600705,325.125461L405.734987,328.037735L406.684185,332.163460L408.527112,335.803810L411.200677,338.910243L414.658944,341.385684L427.508799,347.598562L424.802625,353.326067L422.761370,359.102118L421.134426,366.771172L420.648932,375.411010L420.658554,379.925089L397.453542,389.390110L384.189625,395.020594L374.746832,398.466842L363.813719,401.816016L313.238161,415.843743L307.330695,418.027995L303.429020,419.872475L294.894081,405.990352L285.138434,392.156813L281.076004,386.963180L274.500784,379.002858L266.692885,370.557166L256.952528,360.995111L243.714151,349.297397L234.835867,342.404984L232.522990,345.657037L233.121538,348.617863L223.992145,349.928394L222.374090,354.733675L219.677866,365.654790L218.347236,378.274780L217.160646,384.924559L209.228907,399.534695L202.206364,411.572319L181.949489,443.802257L165.449796,479.138977L157.714828,488.992538L154.111260,497.487005L147.765692,503.408873L139.838809,510.058849L123.708821,522.096788L112.503264,528.601172L100.372560,545.444663L96.792052,553.987784L88.984287,565.637523L81.713168,574.860256L74.305501,578.792059L57.768894,584.714041L53.104573,586.218808L44.973481,588.791475L43.770415,589.471048L35.595202,593.985356L30.357829,595.635750L20.775287,596.752192L16.890440,598.208423L10.210173,601.557755L4.334181,606.945816L0.000000,612.285342L0.857872,616.556969L27.989389,638.788911L50.342028,662.283056L74.228312,688.932565L101.794926,721.747128L133.181512,744.659222L168.757084,766.163695L191.462248,779.124683L216.921235,794.512875L233.277866,809.658405L255.308746,835.774863L272.127324,853.930266L288.775658,873.590617L327.330234,935.970361L328.502859,939.125781L346.811205,933.980020L353.097578,932.426584L364.862007,929.222624L409.174817,917.134979L418.137097,914.707745L434.971268,914.076664L466.954400,912.814504L477.581033,912.377602L490.672366,911.892156L494.134329,911.746522L498.037654,911.600888L501.499617,911.455254L505.563437,911.309620L508.864904,911.163986L509.965393,911.115441L511.507245,911.066897L516.608451,910.824174L517.491176,910.824174L523.297466,910.629995L529.579408,910.338728L531.321879,910.290183L535.024583,910.144549L538.308905,910.047460L540.790749,909.950371L545.674190,909.756192L546.895050,909.707648L553.079599,909.464925L558.742537,909.222202L560.444883,909.173657L564.508702,909.028023L567.810167,908.882390L570.211763,908.785300L575.175450,908.591122L576.654198,908.494033L581.881607,908.348399L592.387859,907.911498L601.857449,908.251310L722.347885,901.552162L846.186316,895.484103L853.417832,872.279924L858.170596,857.231257L870.317221,820.337978L877.550656,798.493425L883.984256,779.027597L892.503101,752.862947L906.740435,708.009639L922.584926,659.176385L935.087805,621.168388L936.550769,616.799675L943.258000,594.859094L946.744026,584.422795L949.767103,575.297123L959.070712,547.143578L972.385891,506.272730L972.677412,505.447550L985.763975,464.771264L1000.000000,420.843255Z " data-aland="2253199" data-awater="6884" data-classfp="U2" data-funcstat="S" data-geoid="4253392" data-intptlat="+41.0221531" data-intptlon="-080.3556111" data-lsad="57" data-mtfcc="G4210" data-name="New Castle Northwest" data-namelsad="New Castle Northwest CDP" data-pcicbsa="N" data-pcinecta="N" data-placefp="53392" data-placens="02389539" data-statefp="42"/></g><g fill="#000" font-family="Arial" font-size="12px" id="mylayer-label" stroke="none"><text text-anchor="middle" y="569.512613421"><tspan dy="0" x="540.783627157"><![CDATA[New Castle Northwest]]></tspan></text></g></svg>