<?xml version="1.0" encoding="utf-8"?><!DOCTYPE svg  PUBLIC '-//W3C//DTD SVG 1.1//EN'  'http://www.w3.org/Graphics/SVG/1.1/DTD/svg11.dtd'><svg enable_background="new 0 0 1000 1001" height="1001px" pretty_print="False" style="stroke-linejoin: round; stroke:#000; fill: none;" version="1.1" viewBox="0 0 1000 1001" width="1000px" xmlns="http://www.w3.org/2000/svg" xmlns:xlink="http://www.w3.org/1999/xlink"><defs><style type="text/css"><![CDATA[path { fill-rule: evenodd; }]]></style></defs><metadata><views><view h="1001" padding="0" w="1000"><proj flip="auto" id="robinson" lon0="-75.4743998501"/><bbox h="0.24" w="0.34" x="-1026.95" y="-682.94"/></view></views></metadata><g class="" id="mylayer"><path d="M1000.000000,233.783697L998.856960,227.199734L997.161151,223.162858L997.042068,219.029870L996.321244,215.041061L996.940227,209.129941L996.784429,207.784322L997.024884,206.438703L997.858788,204.852796L998.399651,203.314947L998.348842,200.431482L997.709245,198.989751L996.896417,197.836366L995.918653,197.067443L995.066200,195.914059L993.977859,195.241251L991.017900,194.232041L986.152125,190.195200L985.457247,188.801530L986.040459,185.918077L988.122067,183.178798L990.449724,180.535636L990.912279,179.238085L990.632900,174.624572L990.216336,173.471195L988.310542,170.443582L985.128449,167.319856L982.865170,166.118424L980.377949,164.388362L976.986719,162.514130L976.221832,161.456871L975.109543,160.736012L973.610228,160.351555L970.312116,160.015154L968.812801,159.630697L967.203835,159.582639L965.278795,159.774868L960.767970,159.390411L956.318875,158.573438L951.484608,158.573438L945.860620,159.294296L942.362579,160.543783L936.050273,163.619446L932.059260,166.502882L930.580246,167.271799L926.557852,168.184888L921.729144,169.626607L918.616274,170.059123L915.676641,170.203295L914.225247,169.914951L913.428107,168.713518L912.971930,167.560143L911.883605,166.887340L908.033475,165.205336L902.260078,160.063211L902.540193,158.717610L902.368767,157.420066L901.406691,156.603095L898.035777,155.882237L890.345694,153.094924L887.545200,152.326010L884.199176,151.893496L881.041132,150.884297L865.051004,149.490642L863.489960,149.538699L853.943062,148.193102L846.716553,148.481444L844.519660,148.048930L838.359335,147.376132L834.289000,146.126649L831.179808,145.453851L827.270745,144.925224L825.781580,145.117452L822.909218,144.204369L820.698507,144.300483L813.083121,144.444654L703.031358,147.280018L664.860406,148.289216L635.406049,149.058129L565.891165,178.997798L559.000027,182.025418L558.042567,182.409878L553.821089,183.082683L551.765969,198.989751L549.592052,214.896887L519.941197,218.212885L519.256500,221.528886L470.051847,226.238573L463.721911,226.815270L426.519125,230.323511L422.708627,230.707976L422.428473,232.053603L421.844205,234.696802L405.104734,236.330780L398.996875,236.955537L398.599682,238.781749L396.226676,250.315742L365.853218,253.295363L365.186927,257.284214L363.993515,264.348816L363.617515,269.635261L320.093769,286.455821L294.184992,296.404016L289.713733,298.086081L283.770790,300.392914L271.876609,304.910465L267.603475,306.592534L252.448913,312.359632L238.023274,318.078680L193.359434,318.703450L153.633151,319.376280L141.856905,319.520458L135.786779,319.664636L125.762361,319.904932L66.772609,494.316217L59.336684,516.280418L40.320840,572.561277L33.285249,593.420499L31.389083,598.995795L22.379198,625.670820L17.247356,640.810785L14.209250,644.175230L10.121586,648.693204L4.975119,654.028266L0.000000,668.687709L0.611126,689.066836L2.373647,736.073837L9.732633,775.150668L17.384072,805.912549L27.751056,831.868087L29.287912,835.665301L37.004565,854.795631L46.801322,850.998397L55.561356,847.585696L65.651163,843.740403L67.755922,842.875213L71.135169,841.625494L84.999538,836.290160L111.343194,826.100174L142.482444,814.083717L177.982327,800.481136L195.027739,793.896158L213.189112,786.926670L214.645115,786.349885L232.323592,779.524607L247.668814,773.900972L270.561197,764.816656L282.582464,760.394669L294.586148,755.540103L303.219876,752.271686L310.349666,749.483920L315.374712,747.561325L316.047424,747.321000L339.225458,738.332880L350.272623,734.103184L368.449561,727.085744L384.330964,720.789286L398.116889,715.694450L406.148823,712.570261L419.688664,707.379308L429.390381,703.630290L437.413998,700.409983L447.970896,696.468716L454.704377,693.680993L469.756432,688.105554L479.054508,684.500748L488.028211,681.040138L491.802726,679.550154L498.789621,676.714380L517.172913,669.793178L530.743065,664.265838L547.449204,658.113678L566.717054,650.423493L587.815094,642.589134L600.761402,637.638597L676.040407,608.608394L692.745507,602.216013L726.258899,589.479347L730.863638,587.508772L731.075520,586.980082L731.047727,585.970763L730.773864,584.865320L730.311132,584.096316L729.666880,583.519563L727.164645,582.077682L726.781167,581.308678L727.434386,580.155174L736.333541,577.896228L737.836498,577.175288L739.132056,576.117910L741.609733,573.378341L742.380878,571.984526L742.921615,570.446524L743.176656,568.812397L742.334273,568.235647L742.226277,566.986021L743.621620,561.122399L744.751038,558.142529L745.672389,556.652595L747.889303,554.105290L749.184865,553.047918L762.945149,543.531589L764.318058,541.993599L771.419144,531.996677L775.670935,522.961021L778.498611,518.539326L784.051965,511.954854L788.865740,508.734715L790.358489,507.437048L793.663855,505.562641L799.148429,501.621582L800.340777,500.516164L801.142312,498.785946L802.448533,494.412340L802.896284,493.403048L804.047807,489.990679L803.600511,487.106990L802.654684,484.415548L801.535642,482.012477L798.632460,479.369101L797.544035,478.696242L796.676759,477.831138L796.931840,476.197052L798.509072,472.207964L799.455364,471.006432L801.209846,469.756840L806.080824,466.969289L812.492490,462.980211L816.895306,460.048481L818.039731,458.846954L818.889214,457.212876L819.946083,455.915228L826.743588,449.282807L828.698823,446.687515L829.996071,444.044164L830.641744,440.968267L831.277736,433.422719L831.865505,431.740592L832.777643,429.914284L833.021600,427.463188L832.565320,426.309732L832.950232,423.426092L832.794356,422.080395L831.249670,420.254092L829.860860,419.773486L828.835099,418.908395L828.345609,417.370457L827.805156,412.948888L827.997618,411.507073L828.483127,410.017199L831.147686,404.394129L833.006147,401.366325L837.049521,397.713740L839.164235,395.358786L841.308387,392.427111L842.385464,390.216341L843.937870,385.938985L845.009477,384.353001L845.685766,383.007317L845.910507,381.709694L845.644073,380.460132L845.686346,379.114450L846.910806,376.086668L847.847876,374.548747L852.156578,369.838870L855.351393,368.060653L857.110601,368.012593L858.662434,367.628114L860.338623,366.618856L868.732400,360.803613L870.345940,359.986596L871.921737,359.650177L876.939347,357.871965L878.354756,357.054949L879.562792,355.901514L880.930274,354.988379L882.680236,354.603901L883.933720,356.958829L885.322513,357.439427L886.836603,357.535547L892.570303,356.478232L894.429899,355.757335L900.220594,353.065990L908.839108,345.953158L911.650496,343.405999L915.273662,339.705412L920.882663,335.139758L923.283073,332.880963L931.666665,326.489061L932.786208,324.999220L933.573084,323.557440L934.686988,320.625822L937.179497,317.598087L937.880701,316.540784L942.264916,310.869798L944.143776,308.995490L945.534283,307.890130L948.729095,306.111943L950.207154,305.102702L955.857825,303.084220L957.288896,302.219157L963.753076,297.461314L967.647217,294.145245L973.434008,288.426234L976.785302,284.100938L977.993344,282.947526L979.736732,280.880998L982.569147,275.594536L982.959778,274.152775L983.257234,271.173138L983.782406,269.683320L987.855014,261.321127L991.200713,255.554109L995.411754,250.171567L996.198649,248.729816L998.176875,243.875925L999.102871,241.521069L999.493514,240.079322L1000.000000,233.783697Z " data-aland="1857088" data-awater="56749" data-classfp="C5" data-funcstat="A" data-geoid="4254872" data-intptlat="+40.6635708" data-intptlon="-075.4738789" data-lsad="21" data-mtfcc="G4110" data-name="North Catasauqua" data-namelsad="North Catasauqua borough" data-pcicbsa="N" data-pcinecta="N" data-placefp="54872" data-placens="01215499" data-statefp="42"/></g><g fill="#000" font-family="Arial" font-size="12px" id="mylayer-label" stroke="none"><text text-anchor="middle" y="454.554887251"><tspan dy="0" x="458.412735555"><![CDATA[North Catasauqua]]></tspan></text></g></svg>