<?xml version="1.0" encoding="utf-8"?><!DOCTYPE svg  PUBLIC '-//W3C//DTD SVG 1.1//EN'  'http://www.w3.org/Graphics/SVG/1.1/DTD/svg11.dtd'><svg enable_background="new 0 0 1000 1001" height="1001px" pretty_print="False" style="stroke-linejoin: round; stroke:#000; fill: none;" version="1.1" viewBox="0 0 1000 1001" width="1000px" xmlns="http://www.w3.org/2000/svg" xmlns:xlink="http://www.w3.org/1999/xlink"><defs><style type="text/css"><![CDATA[path { fill-rule: evenodd; }]]></style></defs><metadata><views><view h="1001" padding="0" w="1000"><proj flip="auto" id="robinson" lon0="-89.3748652808"/><bbox h="1.14" w="0.83" x="-1230.42" y="-644.78"/></view></views></metadata><g class="" id="mylayer"><path d="M814.783190,0.000000L806.028019,0.627179L798.958687,2.060733L795.274450,4.569455L789.710246,9.795970L783.528529,16.874187L781.144104,18.905072L778.185829,21.413817L777.216914,22.235133L772.241315,25.908659L771.512326,27.163035L770.484635,28.940070L769.072795,31.135232L768.802614,31.538426L768.936880,33.136267L769.090160,35.211970L769.213090,36.914347L769.947248,40.199639L775.029020,43.081741L778.020560,45.172388L778.362918,46.620909L779.679333,52.250738L776.446040,52.579270L766.732114,53.534999L763.491798,53.848597L761.853318,59.344048L765.894464,59.344048L774.816681,59.329115L777.033048,67.721655L773.484480,77.697178L769.756382,88.165561L761.991887,110.864679L744.812883,161.087447L759.250458,161.221854L762.161392,161.236788L758.924981,169.584978L767.983435,168.315573L762.886420,183.100463L747.589604,227.440889L742.486399,242.211305L740.723707,247.363803L735.397530,262.791510L733.615813,267.929128L716.374814,267.212251L696.493284,266.360958L705.724096,240.224984L694.625732,240.090571L687.650321,240.000963L692.297074,227.037654L696.525168,214.238714L695.237511,214.253648L684.035019,214.283517L660.248705,214.313386L655.009479,214.313386L648.718372,213.954958L647.400667,213.880285L643.411252,213.656267L642.086522,213.566660L640.755541,213.566660L636.750498,213.566660L635.407418,213.566660L632.183789,213.581594L631.123078,216.702914L629.753198,220.556033L618.083440,253.367600L614.187372,264.299937L599.477723,305.565594L593.342348,322.771084L617.239516,322.203539L644.217273,323.502918L679.140976,324.279559L712.318353,324.996458L709.077887,334.465528L699.357002,362.873022L696.116878,372.342281L693.864769,378.973777L688.342319,379.272494L657.168243,380.885564L656.434701,383.081134L653.132626,392.804404L650.140320,393.028443L639.542231,393.058315L623.927502,393.073251L617.099482,413.072577L612.625185,426.141704L605.187248,447.903866L583.936431,447.873993L565.359874,447.844121L550.531045,490.413236L574.426014,490.532729L586.784816,454.132341L596.965454,454.192087L613.523183,454.251832L615.464317,448.142848L611.802070,448.023357L617.576397,431.160273L621.786862,418.867790L628.976816,397.837821L641.843588,397.897565L651.787105,397.942373L650.922592,401.093867L650.550806,402.438107L657.146762,402.363427L659.703092,402.318619L664.219711,402.273811L676.571611,402.139387L676.084702,403.573244L675.202184,406.172114L677.585994,406.172114L675.618107,411.967306L675.384803,412.654366L678.107434,412.654366L677.528532,414.715548L680.992416,414.670740L678.618854,421.660850L678.334841,422.497276L678.987475,422.392722L677.499889,426.559918L675.866847,431.369380L670.972928,445.782903L669.345047,450.577478L664.980600,450.637223L651.843930,450.801523L647.472453,450.846333L621.601450,450.667096L617.587123,450.622287L608.779285,477.597592L599.903343,504.169983L632.870605,489.292984L658.802157,477.567719L657.539978,480.002386L657.436602,480.271245L657.121404,481.092759L657.010998,481.346682L654.757822,482.601359L646.707190,503.393270L646.376797,504.259604L645.058346,507.680136L598.431448,507.650262L594.118088,519.465332L585.247581,543.708112L582.139325,551.938478L573.199088,575.569235L573.545593,576.331040L574.618310,578.661270L570.402628,581.633812L566.926110,584.068611L560.207427,588.176407L558.775922,584.621295L557.425138,586.533287L553.185885,592.463462L547.610128,595.271712L530.466181,606.564504L525.624914,593.195399L521.655368,593.374649L521.655872,592.553087L521.706243,584.382297L513.089773,586.772286L513.043761,589.296716L513.141456,594.285836L513.300308,603.337985L501.528514,603.472423L500.551230,606.280689L498.633314,611.717982L497.877962,613.943692L495.617006,620.605898L494.866743,622.816680L485.623576,622.667303L479.907016,636.410058L477.095404,643.161969L452.607121,643.147031L466.447131,604.398553L468.445115,598.796968L452.512786,598.782030L449.380284,607.654949L439.971124,634.273949L436.831888,643.132093L426.473040,643.132093L421.233108,643.132093L395.401564,643.117155L385.035683,643.102217L383.312207,643.117155L378.151916,643.132093L376.421407,643.132093L375.717558,645.313025L375.415349,646.239175L373.593936,651.855836L372.878003,654.036778L370.865961,660.250982L364.808961,678.848899L362.790035,685.048245L358.737592,684.151953L346.556079,681.463079L342.496616,680.551850L341.436567,680.073829L340.650606,679.715313L338.266561,678.609889L337.199481,678.116930L336.357500,680.312840L333.790208,686.915522L332.941212,689.096503L331.683915,692.338103L329.595960,697.671070L326.070448,697.611317L323.452561,697.551564L318.692059,701.808985L314.223465,705.812463L304.369230,714.596242L299.601729,718.838762L305.020207,718.883577L309.627868,718.928393L321.244405,719.003085L326.655850,719.032962L326.263604,720.153348L325.072809,723.484631L324.673535,724.590080L314.142718,724.739465L307.558217,724.814158L305.871003,724.829097L304.043761,728.787806L301.127231,728.787806L297.237246,738.184173L287.955776,737.825646L277.612452,737.422304L275.956781,737.272918L274.261189,736.884514L275.197619,734.837926L277.910307,733.762348L282.916716,719.257039L285.918301,710.518054L272.788703,700.494412L263.927544,726.965305L257.889265,727.249137L257.710717,727.846678L256.924744,730.341416L245.367218,730.520678L241.107388,730.520678L241.412341,729.728935L242.323274,727.293953L242.621196,726.487272L248.933242,707.814205L253.910414,693.040202L243.559579,692.980449L233.709143,721.438057L227.245023,740.096317L228.428407,740.424967L232.059659,741.171899L232.696812,741.291408L233.283594,741.381039L233.974223,741.485610L236.019943,741.769444L236.703539,741.859076L236.242175,743.860855L233.596115,743.741346L233.085873,743.711469L232.092424,746.639448L236.016726,747.057731L234.445480,751.688729L236.742870,751.658851L241.093649,751.569219L236.723183,754.855740L223.621944,764.685459L219.244459,767.957063L213.732396,771.826228L211.371695,773.469504L210.285212,774.246327L215.759773,758.859328L218.056328,752.375910L218.499259,751.106119L219.043250,749.716819L222.159415,741.709690L223.187738,739.035674L222.929671,738.975920L222.129302,738.766779L221.864202,738.692086L219.435790,738.109480L213.342113,736.630558L212.133389,736.376601L209.672605,735.853750L208.770032,738.692086L206.067429,747.192179L205.169956,750.015593L202.629705,749.940899L197.602677,749.776574L193.615587,749.507677L176.342236,748.342458L167.953028,769.928991L162.320675,784.389862L161.985338,785.271261L161.809085,785.719431L160.052329,785.689553L159.343380,785.674614L155.582761,785.629797L146.102137,785.465468L145.227896,787.721255L143.416642,792.382228L135.507395,812.699419L137.310608,812.699419L164.761277,812.654601L193.710080,792.710887L213.002304,779.400252L214.403743,778.444160L218.611163,775.531072L220.005568,774.560044L224.694584,771.333245L238.730411,761.637942L242.069505,759.322430L242.504137,760.502593L228.446630,803.616413L225.444016,812.789054L304.424409,811.534162L303.096803,815.448231L289.465000,815.926286L288.483390,818.570529L285.248099,827.145668L313.302322,826.891700L312.205352,829.804865L308.900421,838.514508L307.796448,841.412752L306.863621,843.877756L304.046037,851.257847L303.106198,853.707924L302.591665,855.082359L301.011773,859.205669L300.490212,860.565168L299.137445,865.838839L301.604345,865.808960L321.948885,865.450409L328.735464,865.315953L334.082988,865.749201L348.293338,866.884611L350.182425,866.809913L355.752864,866.585819L352.566311,874.698040L343.010111,898.990085L341.593682,902.560712L345.106784,902.979029L345.630809,901.933238L345.931101,901.440222L347.322518,899.049844L348.021047,897.989115L348.723519,896.988146L349.248121,896.226215L349.766535,895.553922L354.821974,895.778020L356.241899,895.837779L369.967187,896.405493L375.020659,896.599710L376.670531,896.659470L381.613110,896.823808L383.255945,896.868627L384.473498,896.704289L384.406524,896.973206L383.146131,902.082636L382.718969,903.770843L385.794962,903.800723L395.033073,903.860482L398.114132,903.875422L397.701870,905.055674L396.440885,908.596432L396.021591,909.761747L395.227472,912.032618L392.831069,918.815367L392.029931,921.071309L388.829803,921.086249L379.215342,921.101189L376.008176,921.101189L373.860966,921.116129L367.436504,921.146009L365.282256,921.146009L358.669219,921.160949L346.646357,921.175889L349.166111,914.243732L346.953327,914.273612L340.313005,914.333372L338.371541,914.348311L337.843887,915.797489L333.621875,927.286366L332.852229,929.377977L334.261189,929.363037L345.484462,929.243516L360.293179,929.079175L356.802787,939.089055L367.500616,938.984474L373.172781,938.924713L370.984241,945.737436L370.001940,948.456555L367.035938,956.598997L366.046626,959.303191L368.641660,959.288251L376.448992,959.213549L379.036987,959.183669L378.149579,961.872926L375.490487,969.895900L374.960702,971.494523L374.596068,972.570232L372.851714,977.859145L367.582503,993.725970L365.831217,999.000000L383.083897,998.910356L389.513577,998.865534L393.822904,985.508672L428.216966,985.478791L429.698566,985.463851L436.471067,966.982526L436.857661,966.056223L449.924220,930.722585L451.551431,926.315262L472.513019,926.315262L481.694287,901.410342L494.005612,902.007937L495.811071,897.824777L501.118189,882.884993L488.040014,882.586198L473.306912,882.242585L477.944011,868.423391L480.542914,868.468210L496.185593,868.841700L496.435771,868.139538L503.858826,846.283005L519.525234,853.439013L521.457976,845.311941L522.322719,838.514508L522.706565,835.526633L537.145568,833.524760L537.982867,833.375366L540.451423,832.912246L541.281686,832.747914L541.690389,835.183028L542.595352,840.187720L543.083711,841.995389L543.677347,844.206423L552.346248,845.730246L553.207687,843.653664L565.094590,814.701271L555.734593,814.716210L544.770082,814.716210L544.562092,815.507988L543.901820,817.883324L543.674694,818.660164L543.495133,818.690043L542.976711,818.719921L542.795180,818.719921L531.678393,818.704982L513.678593,818.645225L520.138930,799.702368L524.824316,785.958454L526.720918,780.580428L530.260955,779.206046L535.534703,777.144474L539.744800,776.756062L542.791656,777.263986L541.884066,782.223712L546.301791,783.792303L545.880405,785.570041L545.099568,788.871558L548.708985,791.396252L549.357428,791.411191L551.312889,791.426130L551.966398,791.426130L552.511313,789.962106L554.149167,785.525224L554.687055,784.046266L556.029683,780.087443L560.057656,768.211023L561.393308,764.237294L564.227241,767.299754L564.682563,768.240901L565.879687,770.705812L566.604209,774.814005L567.782771,777.547825L574.271900,779.146290L578.817421,780.266710L578.935322,780.953901L580.133418,780.953901L583.727707,780.953901L584.913701,780.953901L589.150622,777.667336L591.210543,776.053934L592.734594,774.664616L596.775959,763.819007L598.050203,760.383083L599.197141,758.963899L602.363063,758.799572L603.104376,758.754756L614.840439,757.977940L618.743735,757.709042L612.233319,776.905452L608.798392,787.034062L627.208638,786.989245L633.109900,771.407939L640.559918,771.243612L645.543108,771.109162L650.053855,758.022756L652.158168,758.276715L658.451973,759.023654L660.549253,759.262675L665.204195,746.251042L668.190083,743.905671L668.612458,745.265090L672.041797,744.966317L676.505876,740.903003L689.763911,728.787806L690.498806,738.288743L704.723973,734.240382L715.964519,703.347634L723.800805,703.078744L725.968138,703.004052L722.366369,714.372166L733.857691,713.924013L732.674881,717.554054L732.416479,718.315916L725.983126,718.480239L725.196947,720.691133L723.915371,724.291310L721.771359,730.505740L715.325473,749.119271L713.174572,755.318841L709.346153,755.438351L697.848791,755.796881L696.446941,755.826759L695.414553,758.799572L694.449434,761.966595L691.533027,771.422878L690.560911,774.574982L688.335550,782.029506L681.657825,804.363369L679.425646,811.803068L681.759380,811.773189L688.751573,811.638737L691.078270,811.593919L691.307087,811.668615L700.779936,811.713433L701.202334,810.503359L714.706283,770.750629L719.204933,757.484961L721.213004,757.380389L727.714258,757.051737L753.235184,755.737126L761.737464,755.288964L765.329844,745.623618L776.098504,716.583055L779.684199,706.902964L776.203138,706.783457L765.747853,706.424936L762.259758,706.290491L766.824398,693.189584L759.602273,692.860943L748.609798,692.338103L743.027156,687.318854L770.386257,676.160033L776.996290,678.863838L778.388866,678.326064L790.373237,673.605613L793.498504,665.105843L794.048570,663.626976L795.684711,659.160507L796.227751,657.666707L796.929849,655.739707L805.082369,650.257476L816.520540,650.108097L854.425256,649.600207L856.143056,644.536254L836.034356,644.596006L817.467609,644.640820L818.356387,642.056566L818.478007,641.698057L818.853003,640.592655L818.979692,640.219208L822.483212,640.129581L830.195238,639.905513L831.379901,636.484747L832.846394,632.197594L838.130570,616.871475L833.299615,620.695524L825.137332,627.133687L782.334543,640.189332L785.970045,640.174395L801.142462,640.039954L800.311375,642.489764L799.424551,645.103895L776.812505,645.372777L744.307352,645.731286L741.625908,653.991964L705.205487,680.731108L679.474060,699.613051L674.255438,699.478606L658.604641,699.060333L653.378987,698.910950L663.426623,671.290206L671.853796,648.091476L651.544103,648.315545L622.194769,652.498168L619.388564,652.886555L598.870701,655.650079L592.994014,656.456730L575.360008,658.816933L569.481346,659.593709L569.524997,659.429391L569.631747,658.936437L569.668365,658.757181L570.767506,654.768738L571.631232,651.616829L564.384088,651.825960L561.103444,651.900650L556.730562,652.020153L556.549039,652.020153L561.178595,636.200928L561.276043,635.842420L559.800440,634.841586L560.667214,632.287221L558.903466,631.137011L556.993682,629.882237L555.756972,627.820824L554.204528,626.939497L552.367042,625.863978L549.971144,626.327049L542.752215,627.701322L540.349283,628.149455L539.744355,636.529560L517.815275,637.246576L517.858932,637.082260L520.115740,628.149455L520.237224,627.327878L520.347750,626.431613L520.112233,625.057340L519.985480,624.325391L529.034098,618.843249L556.160842,602.381980L565.202444,596.884964L567.745508,595.346399L568.158916,590.954776L568.195058,590.491714L574.888377,586.458600L586.606043,577.854652L587.078649,577.496155L593.348125,572.536953L591.739906,577.346781L586.930590,591.731525L585.315427,596.526463L586.906583,596.616088L591.643748,596.884964L593.222803,596.974589L593.689996,595.704900L595.423708,590.596276L601.903683,571.431591L604.061409,565.038425L604.678391,565.680728L606.544550,567.562827L607.166604,568.190193L604.993868,573.985875L598.451644,591.373025L596.272001,597.153839L598.027506,597.258402L599.393808,597.333090L608.774438,597.826028L611.889214,597.990341L613.991539,596.466713L620.294592,591.836087L622.389888,590.297527L626.016255,580.289446L626.594985,578.691145L627.070366,577.361718L627.327762,576.674599L636.429050,550.250578L639.879351,540.227768L643.202995,530.578435L653.169388,501.645665L656.486357,491.981590L656.975100,490.577539L658.439380,486.335522L658.921101,484.916539L659.078294,484.453503L660.841327,483.751480L666.128467,481.615541L667.884469,480.898583L669.586535,479.912766L671.293673,478.912013L672.396229,475.058372L672.939503,473.101682L673.856417,469.830577L673.957029,469.427291L665.634418,472.698394L662.737131,473.818637L663.190401,472.519156L664.541234,468.575909L664.987482,467.261495L667.733689,459.315284L675.931297,435.491786L678.670715,427.530771L680.500409,422.213488L686.011896,406.231858L687.834669,400.899699L690.594751,400.825019L697.778917,400.586043L698.363424,399.256739L699.831327,395.896145L701.131789,392.565429L743.669623,391.803697L746.908644,391.743953L736.476365,422.467403L756.028109,421.869957L755.311903,424.050638L731.556761,441.839711L799.683615,409.263877L836.382882,391.699145L841.171622,377.988013L842.559206,373.402721L808.479312,373.417657L811.241816,364.605565L824.223202,323.174339L787.866301,323.517853L770.295702,370.266209L742.718681,371.834465L696.948577,374.418355L697.112848,373.970281L697.579503,372.596189L697.736746,372.133180L700.813386,363.216544L710.024631,336.451948L713.094547,327.520543L720.512673,326.236097L723.994816,316.946291L744.172775,262.925924L750.897028,244.914498L762.764048,210.415477L773.311909,179.695448L776.252135,179.695448L778.348151,173.527607L784.518985,173.527607L787.182640,166.045580L781.396730,165.269004L783.633641,160.146598L786.984099,159.758311L790.607616,148.348688L804.129155,139.821384L802.829002,144.002894L798.685033,157.264317L816.566499,154.919667L817.517463,144.182102L817.917200,139.552573L807.184903,139.552573L810.347470,133.130987L804.944418,133.399797L805.812359,130.846102L809.578995,119.585992L811.125193,115.001324L814.183298,105.861890L810.508620,105.637884L806.863218,105.398945L803.710763,105.204808L797.623643,104.816532L799.210470,100.575374L800.698918,96.588097L806.393958,81.400679L809.701753,72.560076L823.459648,69.140326L829.319246,66.780852L834.240856,62.838446L837.594984,59.164848L840.539940,56.267788L841.312097,55.491257L845.516809,53.266200L849.359639,51.429409L853.778915,49.712086L856.549477,48.502495L862.107776,46.068380L862.751860,43.604403L862.909668,42.962276L863.170198,41.946820L863.697525,39.826310L863.974143,38.407661L864.362882,36.481286L864.492605,35.779429L857.526093,30.896303L851.622631,26.729976L847.624265,20.697032L845.317876,16.306734L844.912160,10.632213L842.220840,5.345965L838.014012,1.777009L833.750437,0.403187L825.880246,0.313590L814.783190,0.000000Z M653.378987,698.910950L651.605716,703.960106L646.256779,719.122593L644.476571,724.156864L643.339005,724.156864L639.914205,724.156864L638.769604,724.141925L640.914117,717.748254L646.892956,699.837126L647.972272,699.687742L653.378987,698.910950Z "/></g><g fill="#000" font-family="Arial" font-size="12px" id="mylayer-label" stroke="none"><text text-anchor="middle" y="627.462020639"><tspan dy="0" x="534.45907339"><![CDATA[N]]></tspan></text></g></svg>