<?xml version="1.0" encoding="utf-8"?><!DOCTYPE svg  PUBLIC '-//W3C//DTD SVG 1.1//EN'  'http://www.w3.org/Graphics/SVG/1.1/DTD/svg11.dtd'><svg enable_background="new 0 0 1000 1001" height="1001px" pretty_print="False" style="stroke-linejoin: round; stroke:#000; fill: none;" version="1.1" viewBox="0 0 1000 1001" width="1000px" xmlns="http://www.w3.org/2000/svg" xmlns:xlink="http://www.w3.org/1999/xlink"><defs><style type="text/css"><![CDATA[path { fill-rule: evenodd; }]]></style></defs><metadata><views><view h="1001" padding="0" w="1000"><proj flip="auto" id="robinson" lon0="-87.9889581696"/><bbox h="0.29" w="0.43" x="-1202.66" y="-668.56"/></view></views></metadata><g class="" id="mylayer"><path d="M1000.000000,213.207262L981.238188,213.560253L972.760551,213.677917L962.297472,213.521032L937.244428,213.089599L930.642477,213.874022L919.686715,215.168322L922.752112,207.755525L925.427180,201.244832L912.395255,201.362495L906.255218,201.401716L903.960178,201.362495L897.042987,201.244832L894.715875,201.205611L856.044452,201.715484L852.532679,212.579724L848.947963,212.736608L806.795395,213.560253L713.429150,215.874303L692.846591,216.384179L658.669498,318.792775L578.150932,320.165572L556.629948,298.789251L581.329995,226.228724L602.763469,163.239965L561.374077,164.259696L548.093181,200.891843L520.316317,277.256215L513.278800,295.298455L507.640693,310.712902L500.520268,330.049727L494.376173,347.307866L493.028848,351.034070L490.032681,359.231737L489.018982,362.212713L487.750009,365.899714L486.048816,370.959544L483.695267,377.823670L480.667117,386.021420L480.025228,387.708042L478.916002,391.042064L476.371388,398.612273L476.229572,399.004512L468.256586,421.323029L466.271224,426.814433L465.551700,428.893325L453.998711,461.292867L452.230529,466.627454L451.684246,467.961103L449.698989,473.452604L404.822897,472.668103L285.696985,472.236628L222.075963,648.323672L200.900134,648.519811L137.397281,648.951315L116.217732,649.068998L107.677479,673.939452L103.279844,686.727821L62.819684,686.767049L67.207613,674.449416L76.018763,649.539730L73.905570,649.618185L67.562276,649.775096L66.984937,649.775096L65.445367,649.775096L27.449430,757.653396L0.000000,835.563883L49.517288,835.760035L85.431980,737.175795L162.411150,708.421116L258.549307,672.448787L258.843322,671.546543L260.146983,667.584519L264.940069,652.991767L266.519888,648.088306L281.428509,604.977475L308.370154,527.073792L350.554050,526.877663L385.874135,526.681533L394.808566,526.720759L421.622323,526.720759L430.538859,526.720759L428.217825,533.585291L427.640185,535.272007L424.296222,543.901734L423.897537,545.980718L421.026605,554.100539L418.559457,560.925915L413.408821,575.086666L412.274525,578.224793L411.051444,581.519830L409.672404,585.246365L401.918901,607.762594L398.643753,616.824057L394.026156,630.043651L391.059979,638.516778L388.283259,647.264526L391.426547,647.264526L400.816898,647.107615L403.956466,647.029160L423.198926,593.523214L454.473506,506.558754L513.981216,508.480806L557.215710,509.814476L546.723295,538.841572L526.873723,593.758575L522.502566,605.408972L519.333089,617.373238L526.094016,617.569374L549.537972,618.197009L547.713532,623.688823L542.282815,640.046651L540.486778,645.460055L555.554286,645.303145L564.128595,645.185462L576.815865,645.224690L600.664303,644.910869L615.728087,644.675503L623.842899,644.675503L648.179892,644.518593L656.276806,644.479365L659.259721,644.479365L663.718057,644.479365L668.126420,644.440138L671.091437,644.400910L674.590552,644.126317L676.697005,644.244000L679.027979,644.361683L687.499331,644.440138L693.272715,644.440138L698.803680,644.400910L710.125928,644.400910L738.155192,644.322455L744.053150,644.244000L755.396304,644.008634L758.535868,643.930179L774.508896,643.930179L831.707920,643.812496L850.774261,643.773269L857.976815,643.812496L876.245022,643.851724L879.627004,643.812496L886.854184,643.694814L896.413312,630.200560L903.927192,616.863284L906.068278,612.979796L918.874445,583.755750L930.408624,552.727621L938.257190,531.898575L948.952540,503.459938L933.718421,502.126271L898.078194,498.949009L902.076564,486.200776L908.107835,466.941254L963.773473,466.980479L964.616712,464.470083L971.008265,445.367619L974.188066,431.246789L977.197067,426.382965L985.641422,412.693703L987.116406,410.654049L929.353585,411.360083L930.264761,408.928188L932.019941,404.338974L937.998215,388.688636L946.341903,365.076022L947.235232,362.604947L971.324381,294.200229L979.651096,270.549240L982.441120,262.744068L990.811342,239.328692L993.569393,231.523613L997.188870,221.247615L1000.000000,213.207262Z " data-aland="1620477" data-awater="0" data-classfp="C1" data-funcstat="A" data-geoid="1752623" data-intptlat="+39.7970820" data-intptlon="-087.9876369" data-lsad="25" data-mtfcc="G4110" data-name="Newman" data-namelsad="Newman city" data-pcicbsa="N" data-pcinecta="N" data-placefp="52623" data-placens="02395226" data-statefp="17"/></g><g fill="#000" font-family="Arial" font-size="12px" id="mylayer-label" stroke="none"><text text-anchor="middle" y="451.657026588"><tspan dy="0" x="653.569506261"><![CDATA[Newman]]></tspan></text></g></svg>