<?xml version="1.0" encoding="utf-8"?><!DOCTYPE svg  PUBLIC '-//W3C//DTD SVG 1.1//EN'  'http://www.w3.org/Graphics/SVG/1.1/DTD/svg11.dtd'><svg enable_background="new 0 0 1000 1001" height="1001px" pretty_print="False" style="stroke-linejoin: round; stroke:#000; fill: none;" version="1.1" viewBox="0 0 1000 1001" width="1000px" xmlns="http://www.w3.org/2000/svg" xmlns:xlink="http://www.w3.org/1999/xlink"><defs><style type="text/css"><![CDATA[path { fill-rule: evenodd; }]]></style></defs><metadata><views><view h="1001" padding="0" w="1000"><proj flip="auto" id="robinson" lon0="-90.4754065358"/><bbox h="0.14" w="0.21" x="-1228.19" y="-689.91"/></view></views></metadata><g class="" id="mylayer"><path d="M1000.000000,167.689931L398.880382,161.505520L288.654525,160.268639L242.016686,269.578893L154.451400,475.835196L123.623564,548.273747L30.920984,765.516645L0.000000,837.880922L24.167336,838.035547L96.733274,838.499423L120.867532,838.576736L138.289260,838.654049L178.277873,838.731361L190.549980,838.576736L208.062019,838.267485L249.838406,838.190173L317.854234,837.880922L375.597190,836.721232L417.618112,835.870793L430.530098,804.791180L469.392757,711.398558L482.272381,680.242194L487.250260,668.568258L502.276596,633.314636L505.304342,626.047465L506.518290,621.563469L512.375360,606.565298L529.785892,561.493671L535.610055,546.418321L542.080211,531.806859L561.424761,487.818042L567.861998,473.129395L569.645024,470.423595L570.356847,468.800116L576.298273,455.193827L578.246422,450.632634L584.048680,434.011363L601.327921,384.147789L607.097321,367.449370L616.345025,348.122547L644.053242,289.910482L653.268139,270.506569L714.478724,270.583875L764.660906,270.583875L898.262532,270.274650L959.532604,270.042731L1000.000000,167.689931Z "/></g><g fill="#000" font-family="Arial" font-size="12px" id="mylayer-label" stroke="none"><text text-anchor="middle" y="466.254469757"><tspan dy="0" x="398.322153477"><![CDATA[N]]></tspan></text></g></svg>