<?xml version="1.0" encoding="utf-8"?><!DOCTYPE svg  PUBLIC '-//W3C//DTD SVG 1.1//EN'  'http://www.w3.org/Graphics/SVG/1.1/DTD/svg11.dtd'><svg enable_background="new 0 0 1000 1001" height="1001px" pretty_print="False" style="stroke-linejoin: round; stroke:#000; fill: none;" version="1.1" viewBox="0 0 1000 1001" width="1000px" xmlns="http://www.w3.org/2000/svg" xmlns:xlink="http://www.w3.org/1999/xlink"><defs><style type="text/css"><![CDATA[path { fill-rule: evenodd; }]]></style></defs><metadata><views><view h="1001" padding="0" w="1000"><proj flip="auto" id="robinson" lon0="-92.6606627346"/><bbox h="0.59" w="0.44" x="-1302.66" y="-558.84"/></view></views></metadata><g class="" id="mylayer"><path d="M530.462172,0.000000L513.899993,57.040282L513.261628,57.040282L489.760337,57.040282L484.077677,57.068519L466.983680,57.068519L461.285681,57.068519L439.824736,57.124994L375.441898,57.294420L353.965613,57.322658L323.968811,56.899093L311.637936,56.701430L327.051579,1.722512L295.072216,1.609560L264.945310,1.468371L189.584919,1.101278L167.322821,0.988326L152.312121,49.529068L173.473651,84.091864L233.423419,182.046909L270.859731,243.207976L274.850259,249.900076L284.246619,265.627893L282.655314,271.924655L280.162356,281.609796L266.354832,335.569575L265.215770,340.087378L256.759121,372.954290L306.519502,371.542485L284.898039,455.149000L281.045562,469.944490L244.367987,470.283318L227.555521,470.368025L226.394815,474.236305L204.607844,545.784910L197.343653,569.615428L196.160716,573.398938L192.652182,584.692981L191.453922,588.448245L180.865338,620.212606L161.349694,678.573877L192.043946,679.449151L218.437285,680.155016L223.864053,679.872670L227.335327,679.646793L223.180229,694.752298L221.408036,701.105070L209.669710,737.753366L174.451058,847.640422L162.699635,884.259575L151.205892,920.003263L136.989370,964.132021L136.238359,966.447148L135.479057,968.790508L127.363686,994.002739L155.078174,993.918040L185.000043,993.805108L225.894737,997.955375L226.753494,995.273230L233.599113,973.336058L234.376199,970.851534L235.161581,968.338776L274.062051,843.885323L280.769120,843.913557L325.237047,844.026492L329.172864,831.434186L340.973660,793.600641L341.950000,790.438423L349.572612,791.454850L368.535047,791.539552L425.430648,791.765425L444.401379,791.821893L445.622650,791.850127L446.553118,791.821893L445.590937,795.097047L445.176205,796.508750L438.499009,817.627794L418.398843,880.899770L411.691691,901.962045L392.628696,964.527286L382.125331,999.000000L486.570318,999.000000L495.205319,970.484502L514.149052,907.919323L516.247166,900.776235L520.750307,885.445388L526.214058,884.796014L532.420354,884.033706L533.730398,883.920771L537.670057,883.469033L538.973042,883.299631L540.014689,883.214930L543.149158,882.847892L544.183746,882.706724L550.641850,881.972649L550.318552,880.899770L543.895446,859.216278L541.738709,851.988429L540.445598,847.696890L536.607801,834.681084L535.331321,830.333064L536.066125,827.509673L538.207913,819.011258L538.912027,816.131393L544.414517,799.332156L546.667714,792.386575L560.214575,748.849454L565.435035,731.965322L581.441781,678.771520L590.748078,647.741580L632.167105,647.685110L635.246142,637.125293L637.719610,628.626603L640.208458,620.156136L640.664750,618.603216L625.439902,618.433806L634.434501,590.961166L638.257087,590.424700L652.252769,588.420010L664.344057,551.375491L666.569736,544.203735L673.192562,522.631945L675.379336,515.431918L677.349080,510.660132L678.714800,507.300114L682.073935,499.168297L683.258369,496.344748L685.212803,491.544710L701.996672,491.798829L734.816087,492.278833L740.743555,471.384507L746.431817,451.224236L750.699440,438.151082L754.174247,427.534417L814.349138,420.051915L822.826766,390.884186L831.876702,390.743006L841.693441,355.250229L863.076319,356.266732L865.923162,356.153787L866.186526,352.200720L866.999246,334.553069L867.962994,321.620836L868.851913,321.733782L869.469227,317.300674L869.690505,315.662964L871.732726,303.888384L872.636314,299.285843L871.595981,299.285843L862.288577,299.257607L860.388764,299.285843L837.133472,299.652917L836.660594,299.652917L790.158304,300.358829L776.190139,347.880580L772.455499,360.586866L766.108021,382.102779L617.330426,379.476826L532.367565,377.980314L521.627323,377.839133L516.048555,377.754425L510.162413,377.669717L517.980798,350.026533L527.101695,319.079565L535.071139,295.106847L568.675746,187.157808L600.324955,85.390788L625.443884,2.626124L575.404410,1.778988L552.216330,0.875375L530.462172,0.000000L530.462172,0.000000Z " data-aland="5394069" data-awater="0" data-classfp="C1" data-funcstat="A" data-geoid="0550060" data-intptlat="+33.3200434" data-intptlon="-092.6621615" data-lsad="25" data-mtfcc="G4110" data-name="Norphlet" data-namelsad="Norphlet city" data-pcicbsa="N" data-pcinecta="N" data-placefp="50060" data-placens="02404387" data-statefp="05"/></g><g fill="#000" font-family="Arial" font-size="12px" id="mylayer-label" stroke="none"><text text-anchor="middle" y="470.086026687"><tspan dy="0" x="421.523719853"><![CDATA[Norphlet]]></tspan></text></g></svg>