<?xml version="1.0" encoding="utf-8"?><!DOCTYPE svg  PUBLIC '-//W3C//DTD SVG 1.1//EN'  'http://www.w3.org/Graphics/SVG/1.1/DTD/svg11.dtd'><svg enable_background="new 0 0 1000 1001" height="1001px" pretty_print="False" style="stroke-linejoin: round; stroke:#000; fill: none;" version="1.1" viewBox="0 0 1000 1001" width="1000px" xmlns="http://www.w3.org/2000/svg" xmlns:xlink="http://www.w3.org/1999/xlink"><defs><style type="text/css"><![CDATA[path { fill-rule: evenodd; }]]></style></defs><metadata><views><view h="1001" padding="0" w="1000"><proj flip="auto" id="robinson" lon0="-71.9963373566"/><bbox h="0.59" w="0.36" x="-976.16" y="-694.13"/></view></views></metadata><g class="" id="mylayer"><path d="M572.608895,0.000000L566.229608,1.020356L557.542910,2.399215L543.565198,4.467506L541.818453,4.715701L532.316908,5.432709L525.249571,5.680904L517.830555,5.460286L505.150590,5.267246L496.904688,5.487863L490.830821,5.984254L484.092321,6.701262L477.442748,7.638888L473.214766,8.218010L462.006237,9.982956L459.867530,10.313883L454.742802,11.196356L442.582703,12.795839L435.192180,13.623158L403.384701,17.097902L400.342791,17.539139L395.798862,18.035532L388.377695,18.531924L385.464998,18.642234L382.614356,18.559502L379.258649,18.200996L377.831311,17.952800L377.410067,17.842490L371.008933,16.160272L363.977286,14.450478L362.220047,14.091973L360.072194,13.954086L358.221199,13.816199L354.444527,13.843777L352.504880,13.981663L351.879465,14.009241L348.544454,14.367746L345.147387,14.919292L335.179699,17.015170L332.008564,17.787336L328.597794,18.807698L327.919186,19.000739L325.043835,20.131412L322.197767,21.455126L320.461488,22.310025L316.698792,24.709260L314.371756,26.336328L312.132300,28.046130L308.020098,31.603624L305.345973,34.168332L304.193474,35.409321L294.790805,45.337250L288.171340,52.645331L284.658249,56.754412L279.085190,63.648857L270.828661,74.486959L265.698087,80.857466L263.697488,83.174018L261.803269,85.159635L258.656355,88.413845L250.181383,96.521807L246.421957,100.189703L245.216283,101.596190L241.896128,105.815657L241.056888,106.863630L239.634707,109.014734L237.060619,113.399683L233.939633,119.770280L232.022977,124.596500L230.948740,127.299187L229.665808,131.077438L225.262061,143.570523L214.635988,173.576221L213.092912,175.037904L210.997571,177.933693L210.216644,178.871378L209.344374,179.809063L207.843216,181.353486L205.316095,183.532228L203.543309,184.856021L201.705771,186.097078L198.882531,187.420872L199.921136,190.868256L201.384069,199.390209L205.653314,222.060386L207.245286,229.755051L213.620002,260.726984L217.247050,277.936830L225.123708,316.604217L229.317810,331.056362L230.690758,335.027957L231.689452,337.179240L236.489702,347.328906L238.386224,350.666169L239.206662,351.879720L242.628179,357.009737L248.186545,364.373811L253.731634,370.855316L258.797481,375.985368L261.073735,377.998779L263.766530,380.563811L262.802987,381.501565L261.371830,383.184007L260.714028,384.094181L259.639400,385.804206L259.150318,386.686800L258.807118,387.541813L258.697402,388.451989L258.770381,389.362164L258.929593,390.217178L259.264009,391.237679L260.278136,393.554493L261.233622,395.485173L261.609606,396.091959L263.292132,398.105384L266.124088,401.801264L267.127269,403.014838L269.139755,405.138593L271.301872,407.152025L273.816779,409.275784L274.622928,409.965316L280.970184,414.874792L283.887312,417.026138L291.646755,422.018370L295.505709,424.721350L297.389702,426.321075L298.256887,427.176100L299.060678,428.086289L300.046169,429.355037L300.913732,430.706531L301.560413,431.892536L301.766323,432.389003L302.143700,433.133705L302.670085,434.623108L303.110240,436.167675L303.715135,439.118903L304.087922,442.152880L304.266408,444.938626L304.439703,450.868687L304.399910,451.916792L304.227603,453.875095L303.969067,455.888563L303.095243,461.239430L299.228605,479.746891L298.407606,484.435835L296.772528,494.503302L296.081300,498.006237L295.244195,501.536759L294.279913,504.681135L293.135694,508.101336L291.959783,511.549124L290.672447,515.272741L289.225255,518.996362L287.551074,522.857901L284.007428,530.691324L280.323615,537.752458L279.191230,540.069396L276.884934,545.117019L275.742720,547.820121L275.168686,550.247399L274.822218,551.681700L270.464135,557.998153L270.938285,560.646102L264.801699,574.989206L265.056913,576.754516L268.075345,579.871395L269.108431,581.774624L264.543351,589.304803L264.583489,593.304356L263.115678,604.061806L261.062656,608.392381L258.593144,610.819713L255.855791,611.592046L253.487999,612.778130L253.335061,613.467714L238.393480,645.630095L236.506464,649.657315L229.857667,663.890552L229.589612,753.208573L229.502894,784.351957L226.561826,785.758797L226.469022,800.489280L226.444791,804.406389L221.018831,837.315839L220.913215,846.253596L220.729510,860.984408L221.292773,867.411922L225.719989,902.501452L233.955271,927.080945L238.171663,939.632848L241.339998,942.143235L259.397821,956.543526L291.861785,982.420102L362.257387,986.392647L395.169862,988.240987L414.868882,989.344473L438.759871,998.310318L440.392292,998.917238L442.640643,997.675811L456.451378,989.868629L458.457541,989.951391L464.430352,990.199676L466.413676,990.282437L509.813289,992.048017L639.993191,997.262003L683.378941,999.000000L697.499270,981.399380L739.778153,928.570618L753.861923,910.942869L779.446081,878.970451L773.489573,847.853568L746.149389,705.183911L753.839659,653.408704L755.981454,638.982436L801.117469,593.000942L778.865094,589.470301L712.062515,578.878407L689.787451,575.347785L686.846552,574.051386L678.027108,570.934513L655.654003,551.350708L635.916633,536.290581L624.833048,527.850326L603.644294,456.936670L592.420818,419.425718L589.784751,405.662637L586.634819,404.449062L579.225004,400.642853L577.997517,399.842999L576.606037,398.629426L576.059918,397.912316L575.717954,397.057299L575.516753,396.119540L575.424617,395.126618L575.361816,394.326765L575.362407,393.471750L575.653189,390.575733L575.874276,389.389745L577.686495,381.970442L578.800223,376.867959L579.191622,374.440835L579.846267,369.559013L580.086677,367.104315L580.295225,362.829285L580.003487,351.438429L580.017310,349.618102L580.448040,335.551987L580.478463,332.187162L580.423794,330.366849L580.214387,328.601698L579.788222,327.084772L579.166762,325.678169L578.484657,324.602532L572.527560,317.128243L569.637318,313.542799L558.445045,301.821185L554.533967,297.077394L550.829442,291.975069L547.509773,287.451935L544.748786,283.535569L543.459643,281.577388L542.889381,280.722408L541.960869,279.205508L541.104614,277.605870L539.861803,274.792715L538.823157,271.841664L537.861886,268.863035L536.357253,263.595284L535.486989,260.120229L535.016239,258.244804L532.916450,249.143495L532.137913,246.164892L531.065908,242.607119L530.288081,240.621388L529.323818,238.718397L527.913061,236.925725L526.347567,235.188214L523.934061,232.678477L521.362072,230.306640L511.642009,221.894909L498.162256,210.614957L497.314258,209.842737L495.696998,208.408614L494.516349,207.250285L491.520087,203.995935L489.790708,201.844757L488.417847,199.721159L487.208592,197.514825L486.258038,195.143019L485.857577,193.901958L485.350107,191.998999L484.990209,190.702782L484.572725,188.661930L484.474948,186.621080L484.361839,184.414757L484.412665,182.622120L484.827882,179.340220L485.413833,177.161482L485.959225,175.037904L486.625268,173.107379L486.992381,171.893907L487.890538,169.880648L489.542663,166.516027L490.250958,165.164664L491.758893,162.461939L492.630793,161.027842L498.581761,150.823708L535.324807,87.724393L537.039372,84.663231L538.874272,81.298714L542.479024,73.990556L546.373280,65.000170L547.685693,61.911455L567.771074,11.996097L572.608895,0.000000Z " data-aland="3949195" data-awater="1798053" data-classfp="U1" data-funcstat="S" data-geoid="0953260" data-intptlat="+41.3375049" data-intptlon="-071.9975604" data-lsad="57" data-mtfcc="G4210" data-name="Noank" data-namelsad="Noank CDP" data-pcicbsa="N" data-pcinecta="N" data-placefp="53260" data-placens="02377840" data-statefp="09"/></g><g fill="#000" font-family="Arial" font-size="12px" id="mylayer-label" stroke="none"><text text-anchor="middle" y="563.283615603"><tspan dy="0" x="458.593833971"><![CDATA[Noank]]></tspan></text></g></svg>