<?xml version="1.0" encoding="utf-8"?><!DOCTYPE svg  PUBLIC '-//W3C//DTD SVG 1.1//EN'  'http://www.w3.org/Graphics/SVG/1.1/DTD/svg11.dtd'><svg enable_background="new 0 0 1000 1001" height="1001px" pretty_print="False" style="stroke-linejoin: round; stroke:#000; fill: none;" version="1.1" viewBox="0 0 1000 1001" width="1000px" xmlns="http://www.w3.org/2000/svg" xmlns:xlink="http://www.w3.org/1999/xlink"><defs><style type="text/css"><![CDATA[path { fill-rule: evenodd; }]]></style></defs><metadata><views><view h="1001" padding="0" w="1000"><proj flip="auto" id="robinson" lon0="-79.5360693525"/><bbox h="0.08" w="0.12" x="-1081.56" y="-684.46"/></view></views></metadata><g class="" id="mylayer"><path d="M1000.000000,445.334615L993.876756,439.684289L975.374775,422.457706L969.185414,416.669580L961.178941,409.227708L936.818458,386.902124L928.698320,379.460273L924.524545,375.739349L912.032230,364.163150L907.792324,360.304419L895.413757,348.728237L858.050798,313.999762L845.606200,302.285818L835.584401,292.776860L832.915639,290.296264L804.807854,264.663469L794.511137,255.292354L790.990717,251.984904L780.202048,242.062560L776.567926,238.755113L762.039595,226.490009L747.331447,214.087109L720.059482,187.352016L710.558884,177.980968L704.904722,175.913826L653.664619,192.588782L651.541265,193.140020L531.854867,245.370007L380.406130,310.554483L182.616910,405.231150L56.591553,484.060093L33.402860,498.530503L0.000000,519.202551L81.417051,601.891133L103.426803,624.768418L143.632484,667.077741L182.765301,711.178838L226.368202,736.399233L254.302911,793.179790L352.463049,823.086174L365.654333,815.506207L384.461317,803.516089L565.209103,695.605618L627.402597,658.395358L701.912601,615.810439L925.556214,488.056681L1000.000000,445.334615Z "/></g><g fill="#000" font-family="Arial" font-size="12px" id="mylayer-label" stroke="none"><text text-anchor="middle" y="487.730131652"><tspan dy="0" x="492.733316533"><![CDATA[N]]></tspan></text></g></svg>