<?xml version="1.0" encoding="utf-8"?><!DOCTYPE svg  PUBLIC '-//W3C//DTD SVG 1.1//EN'  'http://www.w3.org/Graphics/SVG/1.1/DTD/svg11.dtd'><svg enable_background="new 0 0 1000 1001" height="1001px" pretty_print="False" style="stroke-linejoin: round; stroke:#000; fill: none;" version="1.1" viewBox="0 0 1000 1001" width="1000px" xmlns="http://www.w3.org/2000/svg" xmlns:xlink="http://www.w3.org/1999/xlink"><defs><style type="text/css"><![CDATA[path { fill-rule: evenodd; }]]></style></defs><metadata><views><view h="1001" padding="0" w="1000"><proj flip="auto" id="robinson" lon0="-76.4392331074"/><bbox h="0.35" w="0.63" x="-1041.38" y="-679.34"/></view></views></metadata><g class="" id="mylayer"><path d="M1000.000000,237.548447L982.109383,235.543278L972.229934,234.408776L928.523309,229.132030L926.316187,228.841809L910.636868,227.047719L909.025056,226.863034L907.061303,226.625581L903.974046,226.836650L903.670034,226.836650L902.314698,226.731116L895.559336,226.071524L895.263932,226.045141L883.455207,224.567657L874.262084,223.459545L868.392550,222.747187L867.232651,222.641653L865.976892,222.430584L860.667845,221.797378L840.921796,219.422856L834.318070,218.631350L830.720804,218.209213L823.406156,217.866227L816.916681,217.523241L795.859344,216.705352L790.235145,216.705352L779.047394,216.652585L775.312405,216.652585L773.748921,216.652585L763.943492,217.021954L760.143747,217.153872L754.159777,217.391323L747.416558,217.892610L734.377135,218.789651L714.448529,220.768418L708.809049,221.480775L695.836697,223.037407L694.364957,223.222092L678.884194,225.411933L674.204281,226.045141L653.970608,229.158414L627.794953,233.511728L610.726376,236.308408L591.179306,239.580001L564.005061,244.065259L554.954467,245.648294L532.516271,249.394815L512.964630,252.613663L472.975852,259.236064L462.579259,260.951032L352.948412,279.156175L312.937614,285.778669L308.878759,286.438281L250.175615,296.174185L210.312133,302.743969L139.423444,314.485207L107.503817,319.735807L61.875388,327.334691L37.977986,331.292455L16.672560,334.959991L0.000000,338.205370L0.000000,338.205370L7.061998,360.817638L14.961373,385.989607L19.525062,400.554674L30.089990,433.933377L51.125340,500.191195L52.388116,504.175711L70.883860,562.519478L83.382540,601.970496L85.000831,607.063564L91.618419,627.726257L92.565688,630.681859L100.801722,656.306064L103.143845,663.642410L106.410838,673.670555L108.963680,681.693110L140.826197,780.605580L141.365997,782.347415L143.443839,781.502889L155.051209,776.541304L168.822861,770.603255L188.804616,761.603847L200.995809,755.850582L211.755751,750.757111L216.287538,748.513876L228.625387,742.443961L253.169509,729.908329L257.943851,727.453994L352.754472,678.842988L363.729851,673.221926L372.640937,668.603696L400.571457,654.274060L403.611338,652.743461L412.713355,648.072502L415.748725,646.489129L429.885240,639.232018L435.826091,636.197235L496.010162,605.269114L507.501350,599.331606L516.078869,595.003835L529.591720,588.327475L536.434802,584.923333L545.340915,580.120599L568.740784,568.430481L570.115463,567.744381L576.303357,564.551383L583.619682,561.094507L593.593572,556.080728L597.348837,554.154385L612.582135,546.264316L634.986262,534.231365L638.403076,532.410596L645.158442,528.742676L652.083853,525.285865L793.473830,463.961521L816.445713,455.781575L822.176694,453.723401L829.118033,451.216653L843.847218,446.071233L845.248514,445.569885L878.250639,433.801444L895.001410,427.917250L908.819288,423.035759L929.149053,415.832283L930.476590,415.357330L930.704807,413.325586L933.392402,387.836620L935.400062,368.495845L937.230370,353.561630L938.527849,346.120952L941.288630,335.725161L942.982708,330.131510L945.226684,323.983790L947.787805,317.862476L950.934055,311.345408L954.816241,304.036821L955.748889,302.242659L959.788816,295.382646L966.434006,285.462055L972.012569,277.546727L977.595259,269.552280L982.006027,263.220069L986.360271,256.861495L994.373788,245.542758L1000.000000,237.548447Z "/></g><g fill="#000" font-family="Arial" font-size="12px" id="mylayer-label" stroke="none"><text text-anchor="middle" y="434.584774433"><tspan dy="0" x="445.612359021"><![CDATA[N]]></tspan></text></g></svg>