<?xml version="1.0" encoding="utf-8"?><!DOCTYPE svg  PUBLIC '-//W3C//DTD SVG 1.1//EN'  'http://www.w3.org/Graphics/SVG/1.1/DTD/svg11.dtd'><svg enable_background="new 0 0 1000 1001" height="1001px" pretty_print="False" style="stroke-linejoin: round; stroke:#000; fill: none;" version="1.1" viewBox="0 0 1000 1001" width="1000px" xmlns="http://www.w3.org/2000/svg" xmlns:xlink="http://www.w3.org/1999/xlink"><defs><style type="text/css"><![CDATA[path { fill-rule: evenodd; }]]></style></defs><metadata><views><view h="1001" padding="0" w="1000"><proj flip="auto" id="robinson" lon0="-76.2298547814"/><bbox h="0.34" w="0.51" x="-1037.65" y="-682.06"/></view></views></metadata><g class="" id="mylayer"><path d="M1000.000000,195.248593L996.098586,195.409611L984.394341,195.892662L980.476956,196.021476L982.488929,192.318081L985.296708,188.292658L985.932356,187.326557L987.886759,184.202835L992.689895,175.958803L993.330270,174.574066L993.689258,173.157127L993.787331,171.160532L993.351195,170.548672L991.312211,170.130032L985.213474,170.516469L977.421467,170.967313L964.349010,172.384251L960.718646,172.770689L953.053946,173.157127L939.811211,174.284237L935.788564,175.057114L934.838907,175.443552L933.613932,176.345241L932.548431,177.407947L931.912771,178.374044L930.375561,183.784192L929.922090,185.974017L927.819421,200.787593L918.658002,201.367257L917.278504,201.850310L915.204420,202.913027L913.967977,203.202859L903.355752,202.623195L900.877017,202.816416L898.234307,203.428284L897.332785,204.072355L896.421365,205.231684L895.807303,206.455420L895.072906,208.935099L893.817795,211.060539L892.790314,212.735130L888.095577,218.789430L886.308957,220.431823L881.994765,217.726706L878.992154,215.311426L873.421739,210.126633L867.349988,203.235062L864.033185,200.079116L841.026285,180.499458L837.331901,176.796086L835.966156,175.701177L834.430811,174.799488L831.095366,173.479158L829.326985,172.963908L827.452657,172.609673L824.432082,172.513063L821.035408,172.996111L811.992952,175.153723L798.770118,179.211328L793.766509,180.789287L773.927058,186.972321L760.321600,190.740114L748.769322,193.670625L743.011958,195.280797L725.629831,201.174035L720.604617,202.494381L709.587449,204.684223L705.708486,205.746941L696.481944,209.192728L681.535571,214.538537L660.292147,222.814904L650.126265,226.453938L629.767503,233.409983L570.634056,254.342645L562.770567,256.951190L550.486667,260.654684L537.220482,264.197161L518.790475,268.673572L509.185099,270.766861L502.317851,272.119448L495.476924,273.311014L488.656920,274.277149L483.365125,274.792421L472.849929,275.372102L447.057916,276.563669L438.070927,276.692488L431.138692,277.111147L423.915148,278.012874L423.251814,278.173897L415.519663,279.816329L409.740838,281.329945L398.231525,284.775839L383.049686,288.898036L378.368999,289.896382L374.319491,290.508271L362.180664,291.667641L353.619853,292.923626L345.059256,294.340635L322.966045,298.656078L315.828144,300.105295L308.748287,301.296875L302.549064,302.069792L300.627667,302.263021L279.815412,327.415156L248.637023,365.063335L245.647983,368.670376L242.621830,372.309629L217.310520,402.840923L196.466942,427.929689L157.174673,474.533005L39.306160,614.251711L0.000000,660.826407L6.043566,662.308051L9.107629,662.920035L10.116532,663.081083L14.290031,663.628648L18.059729,663.950744L21.908819,664.111793L25.815921,664.015164L28.846839,663.757486L34.992988,662.823406L38.974076,662.501309L49.149713,661.663858L51.362695,661.148503L57.991070,659.634650L60.214621,659.087087L82.758309,653.804715L101.975123,649.681896L130.809626,644.399544L130.236045,651.324581L129.375596,661.631648L128.573693,672.003179L128.047886,678.863875L134.204109,677.575480L152.635410,673.581460L158.775651,672.260858L163.631706,671.294564L165.807567,670.811417L186.934274,665.883326L193.960530,664.208422L194.726092,668.427895L194.999141,669.941753L197.260995,680.603209L197.325143,680.893099L198.101314,685.080391L199.268292,691.393553L200.785067,700.766696L201.031600,702.280575L202.180485,710.590820L204.293563,727.855607L204.645641,732.365086L204.854802,740.546592L205.211314,744.476301L205.785345,748.309385L205.999209,749.275709L206.603440,752.045842L208.507474,757.650538L209.727393,760.324047L211.690048,762.675449L212.243585,763.577358L215.200218,766.701828L218.305303,769.697458L221.526631,772.338770L224.933521,774.819028L232.421493,779.747341L241.519660,785.674215L249.708662,790.731396L256.297819,794.596764L258.656653,795.659742L261.131976,796.529451L264.286630,797.270315L267.631992,797.753487L280.916805,799.009734L287.494914,799.267426L300.725096,799.557330L307.271509,799.911656L312.512093,800.362617L317.296012,800.749155L327.241145,801.747712L341.682330,802.391943L348.275125,801.876558L352.632517,801.135693L355.270457,800.781367L356.937080,800.555886L361.241903,800.137137L371.121044,799.718387L373.828831,799.879445L376.128147,800.233771L380.478097,801.457809L382.475643,802.327520L384.287640,803.358289L385.871565,804.517905L387.349575,805.838579L388.663168,807.255889L390.025484,809.253009L390.413869,809.768395L391.762305,813.021772L392.848619,815.051109L394.279490,816.758329L395.949000,818.304493L397.017243,819.013151L397.564636,819.367481L402.861492,821.751152L416.028722,825.713206L420.516587,826.840620L425.094124,827.613705L429.761598,828.193519L438.904529,828.805545L443.342875,828.869968L453.525135,828.741121L459.305892,828.354578L462.240972,827.903612L465.897372,827.033892L473.299575,824.779062L478.642665,822.975200L489.248414,818.884304L495.322855,816.307365L507.285128,810.670321L532.301276,798.172236L542.045164,792.986194L548.292725,789.153039L553.049182,785.738638L558.143982,781.454537L564.786284,775.527674L568.253694,772.725303L575.751096,767.023939L578.338974,765.284542L581.012161,763.770624L583.574284,762.514394L586.200322,761.387010L591.553948,759.550984L598.431158,757.682749L602.666350,756.909687L604.720555,756.716421L606.684825,756.716421L608.681317,756.941898L610.640962,757.360640L614.348426,758.520234L616.999276,759.583195L622.078587,762.063441L628.437707,764.769166L630.297652,765.896552L631.871291,767.249416L638.078582,774.464705L640.407627,776.751699L642.017857,777.750246L643.707188,778.426681L645.836944,778.974272L653.648774,780.488200L655.480862,780.810312L666.080117,782.485298L686.169201,785.899694L689.583657,786.415075L698.196723,787.671317L701.801603,787.767951L700.717692,784.031439L697.805670,772.757514L695.513641,763.963890L693.142820,755.653461L692.164364,751.433836L691.021635,744.154194L690.640785,738.517318L690.775644,733.331404L691.104629,729.981503L691.650861,726.373922L692.035307,724.473502L692.377493,722.701926L693.279375,719.062146L694.351092,715.390160L695.582078,711.718181L697.215598,707.466422L697.860869,705.984750L699.098586,703.182460L701.130280,698.930717L706.326802,688.591280L709.640335,682.535805L713.102577,676.512555L716.766617,670.521529L726.616644,655.382983L730.869839,649.295382L735.473781,643.433262L740.836933,637.603365L746.964446,631.709064L750.166463,628.906861L755.150268,624.880712L760.177106,621.208870L763.634763,618.922023L767.156328,616.764016L777.970993,610.579885L783.413240,607.745497L794.537132,602.398819L807.490483,595.763802L814.836662,591.737708L821.312061,587.614995L827.044244,583.492289L832.553006,579.079713L837.721608,574.409477L840.716192,571.349672L843.593784,568.161038L846.343818,564.875782L848.918617,561.558323L851.355293,558.176451L853.786058,554.408086L858.111072,546.645916L862.593606,537.756491L864.863127,532.699839L866.973397,527.643198L867.623904,526.065013L877.792749,500.492117L882.376892,488.543161L886.812400,476.562057L891.235190,466.642263L898.168795,449.636996L908.196325,424.902276L918.901214,398.589707L925.819287,381.552712L926.390493,380.135652L928.072171,375.820064L928.627407,374.370802L929.436542,372.309629L931.911639,366.061712L932.704807,363.968341L934.757390,359.169697L940.846134,344.741619L942.882779,339.910808L944.073631,337.495407L947.646197,330.249216L948.821084,327.801619L949.635658,325.804897L952.036876,319.782535L952.835485,317.753614L953.464977,316.239976L955.305543,311.602452L955.892524,310.056612L958.274985,305.708945L961.967902,297.206861L962.121285,296.820404L965.405994,288.672603L966.104093,286.869141L967.658614,282.618129L969.751996,276.563669L973.524701,264.422592L975.541590,256.822373L976.702971,252.313779L977.852408,246.871274L978.719669,244.552578L979.210634,242.652536L980.356072,238.111765L982.818171,229.964162L983.647648,227.194627L984.160456,225.713249L985.196644,222.718292L986.529740,219.465709L987.011067,218.241966L988.942920,214.216500L993.353450,206.197791L996.234290,201.302850L1000.000000,195.248593Z " data-aland="4088267" data-awater="0" data-classfp="U1" data-funcstat="S" data-geoid="4227936" data-intptlat="+40.6070122" data-intptlon="-076.2291070" data-lsad="57" data-mtfcc="G4210" data-name="Friedensburg" data-namelsad="Friedensburg CDP" data-pcicbsa="N" data-pcinecta="N" data-placefp="27936" data-placens="02389817" data-statefp="42"/></g><g fill="#000" font-family="Arial" font-size="12px" id="mylayer-label" stroke="none"><text text-anchor="middle" y="494.019502783"><tspan dy="0" x="528.250197056"><![CDATA[Friedensburg]]></tspan></text></g></svg>