<?xml version="1.0" encoding="utf-8"?><!DOCTYPE svg  PUBLIC '-//W3C//DTD SVG 1.1//EN'  'http://www.w3.org/Graphics/SVG/1.1/DTD/svg11.dtd'><svg enable_background="new 0 0 1000 1001" height="1001px" pretty_print="False" style="stroke-linejoin: round; stroke:#000; fill: none;" version="1.1" viewBox="0 0 1000 1001" width="1000px" xmlns="http://www.w3.org/2000/svg" xmlns:xlink="http://www.w3.org/1999/xlink"><defs><style type="text/css"><![CDATA[path { fill-rule: evenodd; }]]></style></defs><metadata><views><view h="1001" padding="0" w="1000"><proj flip="auto" id="robinson" lon0="-117.380861782"/><bbox h="0.18" w="0.29" x="-1535.28" y="-793.19"/></view></views></metadata><g class="" id="mylayer"><path d="M1000.000000,192.696941L990.253304,193.814012L976.089134,195.322058L961.544486,196.048154L952.140890,196.439128L940.276298,196.327421L924.749876,196.159861L903.884708,197.332785L891.543446,197.947174L884.898846,197.891321L864.931217,197.556199L858.275341,197.444492L853.467294,197.444492L839.142883,197.276932L834.368080,197.221078L832.587322,197.221078L827.278291,197.165225L825.530776,197.109371L824.640397,197.109371L821.969261,197.109371L821.034363,197.109371L809.581718,197.053517L775.234475,196.718396L763.803798,196.550836L744.896858,197.500346L688.164740,200.293023L669.246510,201.186680L659.564508,201.521801L630.429459,202.527165L620.736179,202.806433L600.290114,202.527165L538.896135,201.633508L525.985055,201.410094L517.508530,203.085700L501.592129,202.750579L480.255112,202.247897L455.821715,230.956617L444.359877,244.529026L436.653852,255.755586L257.359119,466.044015L82.629371,669.350543L66.957958,693.814336L47.854009,720.679821L37.478957,736.318772L22.421223,761.173530L12.398027,779.214172L0.000000,803.789657L57.048348,805.409405L89.106700,806.303059L111.346707,790.775821L154.982108,760.168169L161.058526,755.867458L226.495619,700.069917L326.810738,699.008702L380.334994,698.394315L394.426975,698.729435L436.769398,699.623090L450.894620,699.902357L451.947495,698.282608L455.094837,693.367508L456.136429,691.691906L457.028305,684.207550L459.476473,680.018544L481.907802,641.200421L489.351562,628.242427L494.370311,619.808560L509.293111,594.506956L510.179232,592.943060L515.699830,592.943060L522.489582,593.054767L542.847557,593.334034L549.626026,593.389887L553.476781,593.278180L565.006477,592.831353L568.845948,592.663793L570.804869,592.663793L576.592593,592.663793L578.540231,592.607939L594.912040,592.328672L644.115888,591.267457L645.840920,591.211603L670.772030,590.988190L677.672777,590.988190L702.090348,590.206241L720.208513,589.536000L725.428129,589.368440L754.574956,588.195518L761.743853,576.522149L771.450017,560.659772L931.324315,303.901323L936.345365,296.137684L951.330253,272.679205L956.328809,264.803857L965.082998,250.393647L991.256864,207.163009L1000.000000,192.696941Z "/></g><g fill="#000" font-family="Arial" font-size="12px" id="mylayer-label" stroke="none"><text text-anchor="middle" y="448.832175786"><tspan dy="0" x="522.676402841"><![CDATA[N]]></tspan></text></g></svg>