<?xml version="1.0" encoding="utf-8"?><!DOCTYPE svg  PUBLIC '-//W3C//DTD SVG 1.1//EN'  'http://www.w3.org/Graphics/SVG/1.1/DTD/svg11.dtd'><svg enable_background="new 0 0 1000 1001" height="1001px" pretty_print="False" style="stroke-linejoin: round; stroke:#000; fill: none;" version="1.1" viewBox="0 0 1000 1001" width="1000px" xmlns="http://www.w3.org/2000/svg" xmlns:xlink="http://www.w3.org/1999/xlink"><defs><style type="text/css"><![CDATA[path { fill-rule: evenodd; }]]></style></defs><metadata><views><view h="1001" padding="0" w="1000"><proj flip="auto" id="robinson" lon0="-122.716138268"/><bbox h="0.35" w="0.67" x="-1605.7" y="-792.45"/></view></views></metadata><g class="" id="mylayer"><path d="M1000.000000,240.855833L998.851114,240.659667L993.357110,240.880354L990.133274,241.002958L979.981050,241.861185L975.992439,242.081873L972.987971,242.228997L961.937568,242.204477L953.418396,241.787623L947.488240,241.640498L938.147365,241.665019L932.831903,241.566936L929.649759,241.370770L924.030986,240.659667L922.655830,240.733229L918.304380,241.002958L911.705194,240.831312L902.719083,241.983789L848.817721,243.871890L841.314007,244.337785L826.498066,245.024367L808.440434,246.176844L799.915768,246.618218L783.594712,247.084113L776.624059,246.912468L772.090917,246.593698L767.531011,246.789864L763.386577,246.569177L756.137606,246.593698L736.851466,246.986030L721.557464,246.176844L709.794304,246.323969L685.006116,246.446573L671.991410,246.814385L659.974088,246.961509L637.588926,246.740822L625.349927,246.961509L616.916680,247.255759L606.639053,247.623571L590.873698,248.359194L583.435837,248.310153L551.769363,247.451925L538.636586,246.814385L533.008941,246.274927L529.491079,245.392179L522.725193,244.828201L514.889706,244.852722L509.421526,245.220533L505.876243,245.294096L495.518095,245.759991L488.086547,245.858074L464.387200,245.612866L457.587577,245.858074L448.954821,245.907115L430.148077,245.245054L423.292433,245.171492L417.785782,245.097930L407.442151,244.533951L386.974972,244.435868L380.084859,244.166140L369.151758,244.141619L353.047007,243.724765L344.407953,243.626682L335.154538,243.258870L319.976641,243.332433L319.181691,243.258870L303.625999,241.738582L298.689294,241.125562L293.953414,241.321728L286.939385,241.125562L279.070772,241.517894L251.320844,240.806792L226.614524,241.395290L216.648358,241.199124L208.491451,241.174603L204.642303,241.076520L198.716485,240.953916L183.492864,241.101041L175.127529,241.002958L172.169095,240.855833L165.669682,240.806792L160.923529,240.610625L152.935615,240.880354L143.818744,240.733229L130.798047,240.733229L124.294595,243.332433L118.920740,247.353842L111.089082,254.857202L103.428431,262.777415L98.401209,267.436363L90.234940,272.144352L63.648855,288.965603L54.911985,294.654421L48.738588,298.798431L40.157479,304.928622L34.524236,309.587567L30.539225,313.167598L28.208087,316.257214L25.985318,319.518475L23.582980,323.760566L22.420615,326.825661L21.420644,330.258566L21.194107,333.642430L22.121094,337.026294L26.537978,344.137311L30.834267,350.561747L33.617820,356.054394L35.223834,358.629072L35.868901,361.743206L36.376911,366.524750L36.196654,371.061087L35.343367,375.327695L34.001625,379.373616L30.897785,385.185030L25.450702,393.571120L17.372069,404.115032L12.585362,411.029876L7.246319,418.361571L5.352166,421.377619L3.646914,424.467229L2.369192,427.875609L1.864009,431.897006L0.900104,442.538994L0.000000,455.878258L0.467161,463.872006L0.261117,468.481898L0.726283,469.904098L1.379765,471.841233L3.990682,475.347693L5.814733,475.936189L7.725615,476.573727L9.793500,476.769893L13.312822,476.769893L19.513335,476.451124L26.087341,476.254958L20.857938,484.763638L16.452075,491.506828L3.664232,512.177764L17.846023,512.104202L44.623028,512.496533L67.029588,512.496533L77.615268,512.986947L82.246226,513.526402L90.665115,514.703394L99.810010,515.561618L111.097903,517.376148L144.736497,522.206721L152.017101,523.359193L158.481114,524.315499L160.362149,524.560706L169.832320,525.933864L180.718876,527.356063L187.595522,528.434972L196.142998,529.342237L201.086292,530.323064L205.840405,531.451015L212.392505,533.241024L216.952862,534.712264L223.675827,537.139810L226.122815,538.267761L237.249930,543.833953L238.834880,544.618614L248.064008,549.620829L260.026891,555.824557L263.122937,557.418400L282.094163,567.447349L295.993687,574.877107L296.990087,575.539165L309.408827,582.331385L327.731492,591.894438L332.553862,594.297461L338.381801,596.970211L345.311539,599.348713L351.014793,600.868993L357.539504,602.168587L363.000491,602.757083L368.268484,603.026810L387.714517,602.977768L424.597727,602.242149L430.811080,602.217628L436.858410,603.026810L438.643071,604.056677L439.545836,604.963940L440.061388,606.337096L406.527668,627.424842L388.368705,638.557207L368.155077,651.234369L360.418187,655.819724L349.587348,662.710018L316.254101,683.380892L299.318639,694.243519L290.493340,707.190395L282.734001,718.862197L268.726873,743.014974L263.282476,751.621696L259.293407,758.389375L270.943736,753.043890L280.927281,748.115254L289.232914,743.873194L297.004461,739.263325L302.933034,735.290990L308.005374,731.563862L315.815322,725.507277L320.994523,721.387818L324.712728,718.298224L334.013945,711.383417L340.836740,706.160530L344.697519,703.880115L348.612411,701.795864L355.592102,698.240377L358.389300,697.136950L361.134205,696.180647L365.374223,694.832014L370.042130,693.581463L374.514053,692.772283L377.610228,692.478036L382.088065,692.257351L394.452079,692.183789L415.655147,693.115572L434.547333,693.360778L452.612152,693.238175L458.338877,693.336257L459.594582,693.360778L468.532743,693.042010L475.886458,693.385298L481.283055,693.385298L487.027503,693.140092L493.806423,692.551598L496.140246,692.036665L500.162646,691.006800L511.289180,685.685829L533.032317,676.588684L537.357081,675.166489L545.130388,673.008675L547.585840,672.518263L552.809365,671.758124L555.546974,671.537438L556.919989,671.561959L563.039348,672.224015L569.818526,673.523608L576.480174,675.043886L579.160522,675.607860L584.069454,676.613205L587.275678,677.054576L591.377446,677.030055L594.754143,676.441560L597.300980,675.804024L600.991172,674.553473L603.740560,673.401005L610.724165,670.090722L620.776589,665.554409L631.592440,660.135353L641.115322,655.035065L655.261861,647.212987L680.484524,632.230885L721.632784,607.538607L731.323233,602.168587L734.720565,600.476663L737.513367,599.348713L740.329816,598.465970L743.043957,597.779392L745.477546,597.387062L751.180705,597.019252L769.855295,597.141856L780.146450,597.068294L790.563360,580.173568L797.501250,568.501737L798.713504,566.392961L806.526835,552.808516L808.003087,549.645350L809.669436,545.452316L811.877129,540.891473L815.082535,533.780479L819.114814,527.478666L820.783892,524.854954L826.399782,516.665048L828.735077,512.717219L830.492220,509.039117L834.025013,500.677565L835.814108,495.626303L839.698991,483.267876L845.651366,469.658891L846.284609,468.702584L847.337322,467.574632L848.620339,466.422159L850.133412,465.465852L852.524774,463.945568L860.973247,458.183204L868.679801,453.426187L870.440946,452.102069L871.843561,450.851514L873.710065,448.571088L875.200773,446.266142L877.368662,442.588035L878.722769,440.062402L879.685346,437.978142L881.698357,432.975917L884.143300,428.316982L886.780220,422.971466L893.908989,410.711106L897.965370,404.654488L902.909224,397.641560L908.735523,388.421767L916.546125,374.812760L923.770481,362.871160L947.808458,324.594272L969.079362,290.142600L976.306110,278.544275L995.395876,248.359194L1000.000000,240.855833Z " data-aland="5379875" data-awater="79121" data-classfp="U2" data-funcstat="S" data-geoid="5367435" data-intptlat="+47.3828985" data-intptlon="-122.7120204" data-lsad="57" data-mtfcc="G4210" data-name="Stansberry Lake" data-namelsad="Stansberry Lake CDP" data-pcicbsa="N" data-pcinecta="N" data-placefp="67435" data-placens="02585042" data-statefp="53"/></g><g fill="#000" font-family="Arial" font-size="12px" id="mylayer-label" stroke="none"><text text-anchor="middle" y="421.514428513"><tspan dy="0" x="482.619513029"><![CDATA[Stansberry Lake]]></tspan></text></g></svg>