<?xml version="1.0" encoding="utf-8"?><!DOCTYPE svg  PUBLIC '-//W3C//DTD SVG 1.1//EN'  'http://www.w3.org/Graphics/SVG/1.1/DTD/svg11.dtd'><svg enable_background="new 0 0 1000 1001" height="1001px" pretty_print="False" style="stroke-linejoin: round; stroke:#000; fill: none;" version="1.1" viewBox="0 0 1000 1001" width="1000px" xmlns="http://www.w3.org/2000/svg" xmlns:xlink="http://www.w3.org/1999/xlink"><defs><style type="text/css"><![CDATA[path { fill-rule: evenodd; }]]></style></defs><metadata><views><view h="1001" padding="0" w="1000"><proj flip="auto" id="robinson" lon0="-121.749386618"/><bbox h="0.5" w="1.27" x="-1588.51" y="-800.54"/></view></views></metadata><g class="" id="mylayer"><path d="M1000.000000,671.238722L996.600167,667.463627L986.408980,656.125420L983.017379,652.337401L978.673401,653.862951L978.019730,653.345815L976.848984,652.389114L974.292516,650.721352L969.439766,646.442055L968.785340,645.860277L966.360406,644.360584L962.920383,641.852478L952.632718,634.276447L949.200849,631.755413L941.225694,623.455399L917.278676,598.542453L913.052051,594.133887L910.308430,591.729215L915.886138,582.679379L913.371413,579.628292L909.205972,575.336087L907.882617,573.965684L901.553059,567.411024L884.077468,547.876343L880.279148,542.239603L877.982677,538.658464L877.128577,537.326850L873.982102,534.004278L870.591710,529.673300L868.649246,526.299017L867.871658,525.536248L865.532287,523.209157L864.752500,522.433460L865.088563,521.631907L866.082068,519.201390L866.415929,518.386908L866.160413,518.154199L865.114808,516.964797L862.017768,513.991294L858.525863,511.353926L854.513553,509.039765L854.139868,508.897554L849.911126,507.242735L844.906517,506.040406L839.451968,505.212997L833.756689,504.721723L827.803786,504.527799L815.722574,504.437301L798.034257,504.372659L797.600398,504.359731L791.595393,504.282162L781.331840,504.243377L779.594943,504.243377L778.388068,504.217520L778.867400,503.894314L789.269367,501.308660L789.771502,501.360373L798.105891,502.019715L803.871512,501.657723L816.071957,498.710079L822.232860,495.361660L824.884257,493.913695L830.054775,489.880078L834.162304,485.639611L833.478764,484.825131L833.088903,484.346786L834.008423,481.541356L834.287833,478.839352L833.720935,477.081111L833.128393,475.775359L832.735499,474.133472L829.662970,470.216215L828.732749,468.677755L828.209932,466.816089L828.034439,466.208462L825.308388,460.765676L824.169636,457.701686L823.442533,450.177459L823.954072,446.906620L825.690087,443.765063L825.960207,442.937657L827.787272,440.028809L829.600417,438.063721L835.582362,432.155530L839.135281,428.458064L844.625451,422.317169L847.714477,418.128434L848.511694,417.197605L850.923157,415.245448L853.154766,413.745778L855.780572,412.388318L865.974707,408.884779L869.402124,407.165331L874.136215,404.308203L876.916931,402.110412L877.257546,401.877705L880.691593,399.473064L885.626902,394.599142L888.368075,390.539697L889.235851,388.212626L889.259401,387.023235L888.949721,385.265005L887.772509,381.489981L887.768165,380.559154L888.647769,377.637390L888.672751,377.301258L870.245865,374.521704L814.945051,366.183047L796.516230,363.390567L723.990756,352.324080L506.414002,319.085883L433.890506,308.006501L402.387916,303.197251L393.949333,301.917370L365.093322,346.558133L364.949093,347.463102L364.472325,348.406855L363.939073,349.260112L360.727104,354.366725L357.925022,358.801077L354.508162,364.334322L351.163345,369.686575L347.980149,374.780267L347.358057,375.775735L345.491787,378.762140L344.869700,379.757608L346.834656,380.132524L346.139860,381.244346L338.748435,392.957264L336.285895,396.848644L331.049493,405.096822L315.375343,429.802597L310.145183,438.024937L310.463774,438.024937L313.309110,437.895655L316.876045,437.779301L330.395748,437.326813L333.647008,437.288029L337.006198,437.158747L343.545468,436.874326L343.751011,436.874326L348.004312,436.745044L348.513771,436.719187L360.733382,436.357198L362.317542,436.305485L363.090528,436.318413L363.693240,436.176203L364.574954,435.801285L365.256323,435.154874L381.190446,434.456751L416.717355,432.879510L412.152914,440.119307L410.061028,442.743734L405.249274,450.099890L404.086077,452.504539L403.092914,456.693284L403.317396,457.649973L396.622392,463.118614L393.185625,466.415314L392.264318,466.557524L387.462512,467.268577L385.359287,467.591783L379.045210,468.535544L376.939784,468.845822L366.404567,470.410139L357.576878,471.741747L355.662315,472.026169L352.395730,487.010006L349.164748,488.677751L346.855147,489.660298L343.271848,490.888482L341.456353,491.392684L333.684172,493.370708L318.549433,497.197473L313.740903,498.412729L310.165709,499.265995L306.608142,500.041690L304.279513,500.429538L301.969986,500.688104L297.533020,500.946669L293.173893,500.998382L286.622714,501.153521L283.933690,501.114736L282.439803,500.972525L279.512244,500.558821L277.157299,500.067547L271.407292,498.348088L270.865563,498.063666L270.870818,497.249186L271.421504,496.499346L272.063212,495.801220L268.570380,495.568512L258.099968,494.857457L254.604940,494.611820L241.910934,493.939551L230.936194,493.344851L224.633168,493.448277L219.304235,493.900766L200.973903,496.706199L186.589461,498.904003L183.465634,500.054619L183.014147,500.119260L173.295820,501.412086L170.048791,501.838719L169.658213,502.019715L168.453447,502.549774L168.060669,502.717841L163.985951,505.044929L162.638055,505.458634L157.016686,507.152237L152.408258,509.543967L145.357435,520.713999L138.076143,532.763162L162.807125,532.478739L161.575893,533.396648L160.352739,534.301629L158.294078,535.853024L157.171523,536.564080L147.545027,542.562810L145.044432,544.114206L144.345486,544.657195L142.232497,546.312018L106.013042,546.790365L104.418179,549.557022L103.631766,550.914495L102.888094,550.953279L101.445535,550.992064L99.075346,554.637848L95.711000,559.809173L49.004310,560.145309L38.783018,560.416803L37.564096,562.433621L36.265159,564.463367L50.051372,564.424582L67.534708,563.946234L85.805024,563.442030L93.475956,563.222248L116.688374,563.131750L113.364176,563.829879L111.854779,564.140159L111.633798,564.230657L107.358810,565.924267L99.904093,570.009616L96.883076,570.798244L91.318237,572.220360L79.160609,576.874558L53.433834,592.802268L52.314244,593.228903L45.772169,595.672360L38.317607,597.223762L30.674362,598.813948L29.554074,598.632951L18.294682,596.732484L13.807038,594.702734L8.883970,593.797750L8.447164,593.707252L5.567120,593.875320L0.000000,595.465507L1.400658,596.448061L0.853577,598.245101L5.811712,601.709898L8.341450,603.468154L17.677335,607.230305L28.961006,610.177970L33.445889,610.501179L35.056601,610.604606L43.841425,609.622051L44.773768,610.268469L47.324222,609.311770L48.397536,609.518624L56.724390,604.398996L63.364771,603.015662L72.029297,598.671736L85.865114,594.095102L93.042208,590.914730L101.409274,588.988407L111.892138,586.570808L115.246404,586.713020L117.589701,588.341990L120.935894,588.497130L125.146076,591.431863L132.045473,592.957408L138.547032,592.026567L144.064164,588.755697L147.677610,588.005853L152.571356,588.678127L165.964223,589.285759L173.080971,588.225635L175.691556,588.949622L181.449403,588.600557L185.133301,589.531397L189.361940,588.652270L190.294293,589.298687L208.738033,586.312241L216.061781,582.666450L221.164761,580.765985L223.437643,580.714272L228.917979,585.071121L229.834240,589.544326L231.442048,591.742144L233.726743,593.810679L239.446611,598.969088L253.800431,596.409276L273.851792,591.819714L282.654643,587.023300L288.093085,585.885606L291.517756,583.907571L300.519596,580.339350L314.863021,577.779541L318.546941,578.710381L321.563472,578.076892L325.713587,579.330941L330.442408,584.282492L331.765037,591.199153L333.155568,592.181707L332.351893,594.883731L333.734685,599.680148L333.777052,605.174697L336.309413,608.031863L335.903578,609.389340L341.046681,612.970496L349.286847,613.797911L362.559137,611.044170L364.643216,609.764263L367.521695,608.923920L369.615400,608.303358L381.063112,609.738406L386.145863,611.638875L389.025895,611.470806L391.835753,613.422988L393.184278,612.711928L398.397670,614.172833L404.165812,613.823767L406.776550,614.547756L411.610018,613.539343L412.534413,614.198690L438.094340,608.885134L449.352812,606.558031L455.042106,604.541207L457.869731,602.679525L464.043602,600.972983L480.153037,592.556629L484.509954,591.225010L487.337582,589.363329L500.552183,585.187476L502.924999,585.782179L507.805387,584.747912L509.635788,586.079531L521.140079,583.687789L528.306812,584.308349L529.656309,585.290902L532.080350,584.799626L537.620232,585.342616L540.102542,586.519094L543.088172,585.885606L552.550069,591.948997L552.287419,592.879838L554.150170,594.159744L557.386372,594.754448L562.503307,598.361456L562.112289,599.744789L565.286546,602.446814L565.016195,605.019556L583.261216,617.741061L585.021846,621.192934L591.340658,626.661634L595.026089,629.286094L598.881997,629.777372L602.575531,632.388904L625.032816,633.229248L644.190946,629.673945L647.555612,629.816157L651.784064,628.937028L653.133738,629.919584L657.131935,629.919584L668.006980,627.695904L669.990188,628.536248L678.363324,628.937028L681.457921,631.651986L678.214717,636.978478L676.038210,644.218372L678.320545,645.847349L679.573667,645.601710L685.082121,647.825392L688.005488,647.670252L694.887327,649.208730L697.343627,648.665738L705.514404,649.506083L707.946488,649.001876L710.119695,647.282400L710.370501,648.510597L710.541291,649.751722L717.099098,654.328373L722.019704,654.974793L727.155864,658.568887L733.155761,661.141638L736.139140,660.495218L738.984843,662.473263L741.697707,662.770617L746.655053,665.136514L749.111341,664.593521L753.697615,666.170786L756.648707,665.576080L762.239615,667.799765L765.724574,667.502412L768.148577,667.011133L772.275128,666.558639L809.802738,658.323247L823.062499,651.768551L832.157197,649.893935L850.967407,643.882234L861.912516,641.167274L864.047623,639.887364L885.739245,635.401216L887.240832,634.263518L900.930998,631.794199L907.210948,631.794199L910.805775,631.057281L913.430675,631.742485L925.408976,631.406347L930.756993,632.388904L934.041894,634.651370L938.196814,635.388287L941.189367,637.262902L945.478091,639.926149L947.889556,639.421942L950.225691,641.063846L952.948453,645.149216L977.386843,661.671703L980.240298,665.317512L979.160834,668.924537L980.146641,671.264578L984.886259,676.203231L986.010609,678.090779L985.656274,681.128957L989.919356,685.744402L991.909525,690.411562L991.662457,697.082630L992.221151,694.639157L993.921501,687.269956L994.478026,684.813556L994.806058,684.567916L995.814357,683.792211L996.140178,683.533642L996.165399,682.719152L996.343709,681.297026L996.720690,678.090779L996.795976,677.509001L998.638161,673.914902L1000.000000,671.238722Z "/></g><g fill="#000" font-family="Arial" font-size="12px" id="mylayer-label" stroke="none"><text text-anchor="middle" y="488.797397765"><tspan dy="0" x="566.144914025"><![CDATA[N]]></tspan></text></g></svg>