<?xml version="1.0" encoding="utf-8"?><!DOCTYPE svg  PUBLIC '-//W3C//DTD SVG 1.1//EN'  'http://www.w3.org/Graphics/SVG/1.1/DTD/svg11.dtd'><svg enable_background="new 0 0 1000 1001" height="1001px" pretty_print="False" style="stroke-linejoin: round; stroke:#000; fill: none;" version="1.1" viewBox="0 0 1000 1001" width="1000px" xmlns="http://www.w3.org/2000/svg" xmlns:xlink="http://www.w3.org/1999/xlink"><defs><style type="text/css"><![CDATA[path { fill-rule: evenodd; }]]></style></defs><metadata><views><view h="1001" padding="0" w="1000"><proj flip="auto" id="robinson" lon0="-77.624054934"/><bbox h="1.01" w="1.17" x="-1072.17" y="-632.79"/></view></views></metadata><g class="" id="mylayer"><path d="M1000.000000,335.005829L997.821182,331.321027L997.114745,329.995664L994.527900,325.509824L992.751908,321.693953L989.326265,314.280689L987.823450,310.333751L986.720167,306.721798L985.252693,300.998025L984.264219,293.264394L983.996158,285.443397L983.607487,277.549597L983.024013,267.777041L983.075519,264.704007L983.139741,256.752001L983.648884,246.207613L984.235197,239.814003L984.406185,237.148788L984.378338,234.891368L984.136630,231.730982L983.919879,230.507607L983.450934,227.813273L982.434894,224.929609L981.051443,222.177023L980.513837,221.376006L972.356216,211.341470L969.435324,207.409221L965.950658,203.098318L964.947047,201.947773L963.367623,199.675814L962.228619,197.884462L961.316359,196.165931L960.143813,193.500752L959.638576,191.884170L958.678731,188.680134L958.002455,185.432411L957.313650,181.980798L956.993932,179.301068L956.711766,176.985433L956.598306,175.441677L956.738349,173.009535L957.489210,165.669430L957.890757,163.601387L961.696029,149.605725L962.297290,147.581384L962.998365,145.455098L963.700485,142.003528L963.863127,140.896697L964.032275,138.115055L964.159617,134.488731L964.084805,131.983802L963.767509,130.163361L963.222000,127.862325L962.168021,124.410774L961.307029,121.934981L960.592612,120.638830L959.715864,118.920340L959.098532,117.697009L958.304294,115.978520L958.064981,115.454235L956.120544,110.662861L952.415130,102.667545L951.902532,101.531600L950.240623,98.021824L949.035912,95.924698L947.314618,93.448926L946.640550,92.589688L944.553263,90.405186L943.456952,89.414879L941.179093,87.609025L939.110700,86.225509L937.888269,85.511906L935.939209,84.536164L933.664296,83.545858L906.417860,73.584568L901.963880,72.259311L898.143567,70.861238L894.288546,69.171901L888.616340,67.118484L887.154874,71.370952L886.375266,73.482625L880.855478,86.997365L879.000335,91.555690L876.118129,98.225711L873.102978,105.609353L871.418429,110.065761L870.838414,111.478414L870.324275,112.949322L863.635463,130.643958L861.103561,137.284933L860.245653,139.134505L857.891384,146.226969L854.264012,155.343794L853.120642,157.863304L852.257862,159.523560L848.045237,165.116010L846.186384,167.664655L844.721326,170.155048L843.680521,172.397859L843.350688,173.140609L837.474636,188.651007L834.079658,197.243654L833.426967,198.787420L832.206003,201.248709L830.774248,203.622617L829.725657,205.108130L827.957615,207.380094L825.714706,209.870517L822.742535,212.768731L819.305922,215.972790L817.505792,217.531129L813.773766,220.531298L798.874625,231.934878L790.241818,238.561497L787.094834,241.081072L785.858964,242.231631L783.725564,244.503620L777.162257,252.965339L775.061586,255.659694L759.464472,276.078614L747.616235,291.662326L744.589028,295.580112L742.331622,297.997782L741.090181,299.002718L739.918699,299.803753L738.640371,300.400889L737.467361,300.794125L735.637761,301.216490L733.272152,301.493211L716.169752,302.731177L702.776662,303.692421L699.387623,303.838064L697.455924,303.750678L694.558294,303.372006L678.178770,299.556161L670.854387,297.837575L654.586614,294.167379L652.508492,293.643065L649.434000,293.016802L647.487727,292.856595L646.363138,292.914852L644.670057,293.147880L641.279893,294.123686L613.238934,303.459392L608.765950,305.090595L608.849971,305.498395L609.333570,311.032839L609.580545,315.868203L609.546374,319.582118L608.937430,331.714266L608.498135,338.748894L608.746002,341.763739L607.817766,358.032300L606.286232,380.796769L605.696926,388.151926L605.085340,391.618322L604.066159,398.827856L603.327072,402.410781L602.694833,404.420717L593.147321,404.915919L589.444081,405.047001L589.120219,404.901354L588.191726,404.726577L586.218417,404.784836L579.852022,405.119825L577.939001,405.090696L576.943939,404.901354L575.877380,404.508105L575.145020,404.100292L574.011022,403.240972L556.123376,388.428655L532.399135,368.955730L527.381193,364.688306L525.226949,362.736653L524.271178,361.789956L523.458294,361.003469L520.348132,357.609928L511.915769,347.793438L507.472513,342.710431L499.549403,333.258096L483.908259,314.834134L469.047179,297.313261L443.439751,267.558578L436.585038,259.446360L432.002340,254.028517L429.177083,251.042881L428.445474,250.343806L426.591925,249.033040L424.601830,247.911607L421.826137,246.528022L412.703754,241.984042L395.246089,233.070869L380.587111,225.584987L377.592384,224.143155L365.406138,217.822408L361.475343,215.696076L354.733643,212.433762L349.359278,209.666623L340.103424,204.889672L336.754449,203.243956L329.545334,198.233994L314.229475,213.278468L323.497196,223.546034L330.837985,231.687290L319.530674,251.188522L318.093103,253.664415L257.240330,358.585753L256.247173,360.289806L250.505206,370.208285L250.388080,370.412190L247.371924,375.611758L248.954529,376.922574L222.250759,423.165610L222.028990,423.529731L204.959464,460.757674L204.431393,461.617009L204.062074,462.374390L203.219885,465.243698L186.051863,505.093847L158.620877,505.924064L151.656077,506.827107L150.772002,506.827107L150.811022,507.351454L151.630602,509.230367L151.698122,509.944063L151.927101,510.381020L152.190767,510.861672L152.307470,511.444281L152.273644,511.852108L152.248805,512.187108L152.007723,512.784282L151.646642,513.264935L151.205171,513.862110L150.967568,514.488415L150.980893,514.896242L151.027825,516.177984L150.898437,516.920812L150.634551,517.721901L150.295878,518.785165L149.888417,519.469732L149.532078,519.644515L148.958050,519.921255L148.627409,520.212561L148.206529,520.241691L147.912513,520.197995L147.649798,520.416474L147.426879,521.363217L147.035269,521.785610L146.579889,522.266264L146.345767,522.921701L145.950680,523.314964L144.099795,524.596709L143.335226,525.252147L143.132127,525.426930L142.251222,526.490197L141.551288,527.538898L139.873537,530.073261L138.783351,531.456966L137.376831,532.461973L136.686469,533.146543L136.047508,534.064159L135.653289,534.908948L135.609711,535.185689L135.548161,535.608084L135.508738,535.870260L135.510187,536.030479L136.528091,536.015914L137.263088,536.001348L151.271802,535.943087L137.514113,560.412943L137.024935,561.301435L136.762326,561.767530L134.734215,565.365198L122.313235,586.761937L121.555233,599.215514L117.953760,611.843926L117.192930,614.553141L116.645298,616.432115L116.524164,616.898217L115.906024,617.743027L112.908342,626.642679L97.261304,654.230294L86.138610,670.748015L84.856623,671.068465L81.168461,675.569340L80.208739,676.909407L73.462982,686.304461L73.018090,686.872535L70.516083,689.363321L64.720755,695.466484L59.801829,700.025656L59.139256,700.695695L58.600190,701.511394L58.549013,701.773583L58.670899,702.793207L58.698088,703.069963L53.017852,710.382137L52.609804,711.110442L51.672474,712.785544L48.962305,717.577797L48.154521,719.005279L40.055326,733.396653L38.405229,736.455556L36.072089,740.752591L32.355594,747.627859L15.863891,775.333002L14.903574,776.716808L15.431826,777.634490L16.545940,779.557255L17.119869,780.314707L17.671702,781.232391L14.972279,785.077924L13.058262,788.442770L13.181930,788.836063L10.772429,790.423806L9.594070,792.448542L7.265756,796.439753L6.083725,803.854096L5.555166,804.757219L4.778376,805.704042L4.199177,806.578033L3.604189,807.714221L2.649931,811.020823L2.282630,811.399553L1.747468,811.705450L0.988833,811.720017L0.564588,811.967648L0.177862,812.331811L0.000000,812.914473L0.088311,813.307770L0.242688,814.006964L1.442520,816.497845L2.245285,817.197039L2.766298,817.561203L4.399406,818.697396L4.736618,819.003294L5.501508,820.124920L6.150819,821.610710L7.006647,823.985064L7.288202,825.106692L7.682164,826.330286L7.851161,827.102316L7.924985,828.704642L8.335048,830.161304L8.830651,830.904201L9.832001,831.982132L10.333912,832.826996L10.698509,833.657294L10.839783,834.443892L11.046942,836.322989L11.047358,839.134352L11.327043,842.703185L11.887885,844.582286L13.287377,847.903490L14.642565,850.263295L15.354361,851.778233L15.775588,853.278604L16.295781,854.473075L16.832745,855.856914L16.906955,856.920285L16.746717,857.896257L16.546133,858.682860L15.687682,860.867872L14.315501,863.242253L13.073834,864.786330L12.559102,865.558369L12.414478,866.024505L12.452335,866.636310L12.920574,867.889052L13.200689,868.850460L13.312602,869.243763L13.569804,870.161471L13.252168,871.152013L14.034064,871.676417L14.107788,871.996887L14.392722,872.900028L14.662877,873.482700L14.839216,873.774036L15.359932,874.677178L15.775548,876.031892L15.983115,877.372039L16.221900,878.726754L16.256786,880.052335L16.440935,880.605875L16.991411,883.431842L17.105018,885.267265L16.838403,887.816465L16.294138,888.981814L15.665190,890.030629L14.245416,892.696368L13.001821,895.405810L11.827323,898.741631L10.289534,902.193991L9.457739,904.699503L8.902886,906.564072L8.692708,907.467222L8.545140,908.647145L8.393246,909.593998L8.697199,911.837310L8.647746,912.507390L8.624521,913.002667L8.679893,914.794405L8.698351,915.391652L8.678793,916.163702L8.709526,916.469609L8.831261,916.994020L8.701758,917.241659L9.010796,917.853473L11.123658,916.644412L12.315818,915.770393L14.504583,914.998343L16.317033,916.498743L18.697532,918.115679L20.321005,919.120801L20.851271,920.694038L23.697818,921.378687L25.662283,921.145615L28.810419,922.675151L29.820621,922.398378L31.315323,921.786563L32.492438,922.165305L34.374025,924.292090L35.062694,928.123218L36.326518,931.342535L37.599461,931.881516L43.032608,931.473639L45.173069,931.036627L48.455321,929.157478L49.524945,928.589364L52.766945,925.734225L54.345967,924.743668L57.649996,923.243265L58.732915,922.835388L59.615782,922.922790L59.814215,923.053893L61.314638,923.622007L63.227501,923.942481L63.977015,923.753110L64.783970,923.403502L65.885177,923.345234L66.402212,922.937357L66.813145,922.529481L67.272079,922.325543L68.284628,922.412945L69.272093,922.340110L71.461211,922.063336L71.962674,922.165305L72.975591,922.747986L73.605414,922.937357L74.154695,922.995625L74.780184,922.951924L75.296742,922.835388L75.992120,922.587749L76.456710,922.529481L76.841604,922.544048L77.291760,922.660584L78.265161,923.257832L78.908095,923.359801L80.603573,923.243265L83.935662,924.044450L85.077232,924.175554L86.104215,924.088152L86.983409,923.898780L87.677651,923.986182L88.522324,924.000749L89.374450,923.782244L90.508671,923.359801L92.173510,922.150738L93.615757,921.888532L94.661321,921.611759L95.668874,921.509790L97.354068,921.553491L98.727747,921.407821L99.654758,921.174749L102.286494,920.213326L104.220211,919.674347L105.831469,919.149935L106.304172,918.814894L106.837804,918.348751L108.261860,916.950319L110.200491,915.566456L111.201355,914.867240L153.063416,887.146389L154.076069,886.447180L154.390587,886.957020L155.874639,888.865279L157.103781,890.219999L159.195402,892.230228L162.015310,894.415261L162.984735,895.274708L164.864460,896.745965L168.546394,899.877850L170.323268,898.275490L177.318643,891.225113L181.774244,886.592849L185.713006,882.616098L189.224906,879.061791L200.706519,867.437482L205.192054,862.907218L209.558383,858.464359L211.161932,856.891152L213.680996,854.545909L218.033385,849.986528L240.715642,827.146015L242.081020,828.063712L243.123112,828.792042L251.688296,836.920221L253.732198,839.221752L264.162277,849.287326L265.717338,850.656596L266.849803,851.647132L268.536714,853.132937L270.639070,854.691576L273.296356,856.454150L275.859151,857.969090L286.717091,863.926891L298.659411,870.423673L315.760741,879.833832L318.395856,881.509018L320.553753,883.038537L322.333551,884.364120L323.447967,885.252698L329.244916,889.899527L333.078067,892.914871L334.730843,894.065656L337.301393,895.595180L339.767623,896.745965L341.290330,897.401476L343.546137,898.173522L352.287157,900.431393L357.849993,901.844385L362.801775,903.126274L367.501639,904.175093L371.289189,904.743204L375.688257,905.151078L379.635645,905.282181L393.758578,905.573519L395.176766,905.602653L413.445329,905.908559L415.276137,905.937693L418.183042,905.748323L420.336756,905.471551L423.130368,904.976275L428.449725,903.767219L429.120842,903.563282L430.186462,903.257377L433.564758,902.033755L437.369226,900.431393L450.840045,895.478645L454.524645,894.007388L460.560979,891.895190L464.177018,890.540470L466.004363,889.753859L468.255909,888.719611L470.469909,887.568828L479.151044,882.834601L484.434425,880.096035L501.284287,870.729576L505.895031,868.034720L508.406835,866.417808L509.340387,865.747737L510.286386,865.033965L513.499048,862.280847L515.081699,860.780472L518.334132,857.473821L519.507411,856.541550L523.514191,852.200667L524.580968,850.773130L525.354083,849.797161L532.519874,842.353584L536.671178,838.333186L538.741335,836.818254L539.503065,836.337555L540.362597,835.885989L541.324738,835.405290L543.714451,834.589558L544.897288,834.327359L546.645992,834.065160L548.027265,833.934060L550.432854,833.890360L558.638769,834.094293L566.586645,834.210826L568.962990,834.021460L572.064579,833.686427L577.101973,832.928962L578.566224,832.506530L584.940873,830.365237L588.641112,829.418407L591.108729,828.908575L592.322780,828.660943L597.878875,827.903479L602.030980,827.481047L607.076406,827.233415L612.413264,827.204282L617.687232,827.437348L621.694329,827.772380L630.091643,828.835742L637.039138,830.146737L641.093151,831.020734L644.316484,831.996698L646.097879,832.695896L648.951820,833.934060L650.429543,834.706092L651.700529,835.376157L652.374881,835.740323L664.542699,843.475218L665.985070,844.247252L669.765330,846.082654L671.301149,846.650755L695.202849,854.662443L701.644184,856.716351L705.491745,857.736022L707.655018,858.129324L711.008977,858.522626L714.322549,858.726561L718.079736,858.697427L720.660646,858.493493L723.198329,858.027357L725.384963,857.386421L727.270541,856.643517L729.393643,855.521879L732.150730,853.788439L733.755774,852.623102L734.435603,852.098700L743.312267,842.950818L748.165627,837.954453L748.931914,837.167854L752.987778,832.943529L753.611944,832.200631L754.783870,830.569169L755.412185,829.811705L758.342205,826.767284L767.229220,817.459238L771.028811,813.555401L781.537315,802.776174L787.835364,796.308655L793.463617,790.744268L794.705199,789.447854L795.990444,788.122308L801.416128,782.441403L803.505223,780.445805L807.304620,777.080968L808.808394,775.857391L811.779260,773.497638L815.243279,771.268984L816.550343,770.322170L819.965484,767.685660L824.483339,764.364535L831.986032,758.800200L828.033817,755.085793L825.488302,752.682356L819.587243,746.870414L813.777516,740.738025L811.449058,738.276333L806.415013,732.566379L801.420340,726.594244L799.851592,724.569547L796.922155,720.534723L792.179576,714.009097L789.521522,710.221910L787.252219,706.973671L783.860226,701.831847L782.888316,700.360675L778.357748,693.339844L771.372152,681.075273L764.645704,667.281326L763.998634,666.159751L763.322340,664.892517L763.127240,664.542936L758.733455,656.298646L753.061109,645.053818L750.610439,639.795563L749.990306,638.455511L746.095054,630.779350L744.607270,628.099253L741.588227,623.015813L738.779069,618.602403L733.413490,611.246733L728.169005,604.459139L725.478625,601.283832L721.973754,597.409378L717.243671,592.457075L713.639218,588.932206L712.623508,588.029141L709.801177,585.523864L705.870336,582.275747L704.929667,581.605732L698.523304,577.075853L691.045466,572.210974L684.347593,568.249161L680.559700,566.195430L674.986594,563.457122L666.635150,559.713802L662.964789,558.198996L660.598347,557.237678L658.311749,556.451145L661.877596,552.212608L664.155402,549.721924L669.138867,544.769693L673.779293,540.152472L677.344243,536.744181L682.321706,532.185232L691.500541,523.970402L699.708249,516.309071L701.107502,514.998199L705.913938,510.832542L709.499145,507.642759L721.649218,496.820824L724.415319,494.519528L743.954906,477.128780L755.146089,467.603233L763.805580,460.466374L772.051428,453.912128L784.224625,444.663382L789.649699,440.643463L796.750114,435.502052L807.935267,427.651584L812.866987,424.287103L813.951062,423.544296L816.555898,421.767386L828.772728,413.771303L831.605004,412.023528L834.017882,410.465096L847.518737,402.265134L856.399045,397.123783L864.809439,392.390251L877.613401,385.559413L882.494167,382.952338L893.271297,377.359513L900.701782,373.747486L909.793910,369.392668L919.903765,364.775693L926.985233,362.139505L929.473207,361.061727L935.084199,358.745963L937.970800,357.551670L949.074342,353.211438L957.333599,350.123759L964.930866,347.414761L973.585370,344.429040L975.086255,343.919283L990.038056,338.443041L1000.000000,335.005829Z " data-aland="23180833" data-awater="302075" data-classfp="U1" data-funcstat="S" data-geoid="5172272" data-intptlat="+37.6569558" data-intptlon="-077.6210139" data-lsad="57" data-mtfcc="G4210" data-name="Short Pump" data-namelsad="Short Pump CDP" data-pcicbsa="N" data-pcinecta="N" data-placefp="72272" data-placens="02390298" data-statefp="51"/></g><g fill="#000" font-family="Arial" font-size="12px" id="mylayer-label" stroke="none"><text text-anchor="middle" y="562.34974669"><tspan dy="0" x="480.001989686"><![CDATA[Short Pump]]></tspan></text></g></svg>