<?xml version="1.0" encoding="utf-8"?><!DOCTYPE svg  PUBLIC '-//W3C//DTD SVG 1.1//EN'  'http://www.w3.org/Graphics/SVG/1.1/DTD/svg11.dtd'><svg enable_background="new 0 0 1000 1001" height="1001px" pretty_print="False" style="stroke-linejoin: round; stroke:#000; fill: none;" version="1.1" viewBox="0 0 1000 1001" width="1000px" xmlns="http://www.w3.org/2000/svg" xmlns:xlink="http://www.w3.org/1999/xlink"><defs><style type="text/css"><![CDATA[path { fill-rule: evenodd; }]]></style></defs><metadata><views><view h="1001" padding="0" w="1000"><proj flip="auto" id="robinson" lon0="-73.265644606"/><bbox h="0.5" w="0.25" x="-996.55" y="-683.96"/></view></views></metadata><g class="" id="mylayer"><path d="M644.407246,999.000000L696.809111,942.024493L703.160243,938.355039L709.112306,934.751116L714.587917,929.410767L719.067711,938.977535L705.213428,952.082756L710.985282,958.340523L727.553247,941.958967L739.366258,912.701771L740.974035,908.737496L748.634920,889.768035L745.456701,880.954983L729.680951,856.645532L692.378593,804.095977L691.945409,799.837020L662.389677,759.508333L620.491853,628.075972L618.127966,621.556946L597.859088,602.655141L585.169373,594.105151L554.013608,597.774109L567.103027,559.315829L540.045107,546.147114L546.510521,534.026715L501.628007,512.144626L508.471868,497.469318L432.285816,415.511896L422.001887,416.330802L430.446512,412.793129L638.341590,324.876992L629.288572,277.284308L608.971894,233.262683L611.378178,70.841224L596.518893,68.286583L568.155199,64.356370L550.500693,61.670729L549.810495,40.185697L542.035025,43.657351L504.967349,31.146317L505.706463,24.563310L506.218708,19.716131L472.765348,17.521803L438.014714,17.456301L401.199032,23.384265L387.786220,21.975963L367.144798,13.296909L331.686123,10.611321L294.934685,0.000000L293.328639,15.098220L288.371281,63.046301L288.148266,65.961206L287.846153,69.465648L287.429662,73.330364L286.957008,77.457102L286.738370,79.422217L285.676490,88.723784L281.974950,120.296960L278.541300,155.538849L271.235531,222.814209L264.314206,289.993073L257.993479,357.075435L251.365080,424.454364L252.735791,446.532241L277.759510,454.950711L276.668139,461.371040L277.056630,467.300033L285.671438,476.340954L284.683973,487.543879L294.899267,499.205455L294.707973,511.391204L293.135570,583.294859L292.299294,617.789678L291.776733,640.819242L301.336791,659.066143L308.606351,674.397571L376.625078,624.701801L385.931554,641.703739L399.634873,666.568048L412.569502,690.875684L419.463045,702.964069L427.306545,714.954231L445.168422,742.472849L447.644152,744.209153L449.868354,745.716135L460.534969,758.689317L474.627867,776.707736L490.799988,797.543739L513.419390,826.340949L532.972844,851.600203L567.282321,895.435925L574.900409,905.330191L599.965028,936.651366L604.890786,943.105673L615.890137,957.423153L644.407246,999.000000Z "/></g><g fill="#000" font-family="Arial" font-size="12px" id="mylayer-label" stroke="none"><text text-anchor="middle" y="431.856459632"><tspan dy="0" x="466.732722415"><![CDATA[N]]></tspan></text></g></svg>