<?xml version="1.0" encoding="utf-8"?><!DOCTYPE svg  PUBLIC '-//W3C//DTD SVG 1.1//EN'  'http://www.w3.org/Graphics/SVG/1.1/DTD/svg11.dtd'><svg enable_background="new 0 0 1000 1001" height="1001px" pretty_print="False" style="stroke-linejoin: round; stroke:#000; fill: none;" version="1.1" viewBox="0 0 1000 1001" width="1000px" xmlns="http://www.w3.org/2000/svg" xmlns:xlink="http://www.w3.org/1999/xlink"><defs><style type="text/css"><![CDATA[path { fill-rule: evenodd; }]]></style></defs><metadata><views><view h="1001" padding="0" w="1000"><proj flip="auto" id="robinson" lon0="-122.298790743"/><bbox h="0.69" w="0.54" x="-1686.69" y="-637.03"/></view></views></metadata><g class="" id="mylayer"><path d="M389.892845,0.000000L385.168953,0.788017L380.052650,1.649910L378.867918,1.625284L377.184878,1.600659L375.171710,1.600659L371.936433,1.526782L368.408406,1.526782L366.280618,1.428280L363.997119,1.452906L357.700982,1.403655L353.657201,1.354404L346.275995,1.280527L344.678919,1.329778L341.742628,1.255902L329.440617,1.132774L328.216262,3.866208L326.722879,7.190657L323.693786,13.888815L323.068537,15.218597L320.591235,20.660859L319.066753,24.009947L318.761613,24.724091L315.999146,30.880511L315.517148,31.939416L313.156979,37.036939L312.430871,38.588360L309.638547,44.547794L306.965997,51.689274L305.112786,55.629406L299.913448,68.804249L290.112195,89.243806L281.943909,106.358931L272.967399,123.892770L268.928881,132.241069L268.362270,133.398504L267.004983,136.599922L264.479594,142.017712L261.286848,149.208607L258.431461,155.045061L257.445253,157.212186L253.657348,165.535923L251.797035,169.623919L247.359139,178.981995L243.743823,179.129754L235.812963,179.080501L233.655237,179.179007L230.839722,179.277514L216.580174,179.425273L211.226919,179.449899L204.788554,179.449899L201.738803,179.449899L200.542822,179.449899L188.467179,179.573032L189.214599,184.719983L189.710171,188.931130L190.416675,194.693758L192.206830,209.420510L193.622580,220.896576L194.324308,226.757754L194.703900,229.909987L195.350725,235.278641L196.433353,244.070440L197.106321,249.118961L197.872021,255.891375L197.901511,258.674225L197.928173,260.324234L197.967823,263.698136L197.975616,264.732471L198.072536,271.923571L198.192508,273.105670L196.262822,277.390784L195.657770,278.720648L193.616057,283.252039L191.215817,288.571504L188.347490,294.876064L184.849284,302.609013L183.975358,304.529939L183.092706,306.426238L177.982367,317.483896L177.657453,318.198089L177.357422,318.813772L170.977391,332.531223L167.618795,339.870199L163.736156,348.317426L162.909583,350.090607L156.763829,363.118584L150.087365,378.978782L149.813555,379.668357L143.206980,395.331593L141.739463,398.557833L137.277158,408.236566L136.562688,409.763493L135.601602,411.438188L134.050769,414.935346L129.409528,425.402210L127.869935,428.874752L126.444838,432.051760L122.149658,441.582800L121.970433,441.976849L120.368249,444.710562L118.954391,447.862954L114.726534,457.246260L113.303974,460.374033L108.600260,472.294070L111.130753,472.515724L143.313162,475.126315L146.301949,474.953918L151.425017,474.953918L157.325515,474.953918L158.800640,474.953918L160.953524,474.953918L162.847265,474.953918L169.396856,474.929289L173.432281,474.953918L177.698182,474.953918L184.276440,474.953918L189.328505,474.978546L194.477774,475.052431L196.141039,475.077059L199.646977,475.126315L203.013376,475.175572L206.470711,475.200200L211.639915,475.274085L215.105984,475.323341L217.606483,475.347969L220.255254,475.397226L222.695950,475.421854L223.121435,476.677894L223.601669,480.224361L225.109263,480.372131L231.814938,481.012465L231.509435,485.322413L231.388083,489.139799L231.024104,500.591976L230.914005,504.384746L231.902980,508.522318L234.810208,520.935057L235.779319,525.072644L237.388588,528.766922L242.216486,539.849775L243.805881,543.544065L245.395268,545.046411L249.491491,548.839220L250.529584,557.779426L250.740645,560.734870L251.108493,563.345514L254.006939,588.713174L254.979185,599.377487L255.552292,605.263804L257.387018,623.809451L258.494565,633.168505L259.869785,643.956072L262.080143,667.772552L262.197044,672.821564L263.457984,683.510711L263.803547,689.372512L265.670199,703.509829L266.235740,710.159803L266.805534,719.124968L268.416491,734.001272L270.178709,749.247072L270.808335,754.616365L270.871362,757.153235L271.261952,761.118637L271.739347,764.542185L272.959929,779.664942L272.958623,782.694426L272.747415,786.536700L271.861946,794.713861L271.619104,796.388702L270.214557,812.595294L268.769317,829.023617L268.668752,833.851141L268.130304,839.466840L265.015089,840.575203L260.684148,842.077650L238.325739,849.910088L230.882029,852.471644L221.980199,856.092306L195.265969,866.929680L186.355398,870.525724L177.532259,874.368076L151.045362,885.845889L142.213484,889.663623L134.932039,893.973972L130.178591,896.757228L131.001543,900.254773L131.265605,902.964142L131.431391,904.441979L131.566050,905.944449L131.849016,908.875496L131.871753,909.220325L131.539141,909.294217L132.099158,915.476518L131.511608,917.471605L131.018488,919.171124L131.397677,922.373119L131.583425,923.850963L131.702712,924.860824L139.421680,923.580025L143.261227,922.939626L145.617826,922.052919L147.770172,921.264736L149.618588,920.575075L150.533873,920.008569L154.374791,918.136634L156.888019,914.097199L158.992084,912.274529L161.789698,909.934615L162.216737,909.565155L164.142786,907.914900L165.984198,906.363170L166.213282,906.166124L168.522654,904.023259L170.654007,902.052808L173.683860,898.850829L182.098789,889.983820L183.739460,888.259681L185.549412,886.338499L186.911336,885.008451L187.385945,884.885298L187.727299,884.836037L189.281931,884.441949L192.525847,883.752294L190.998839,891.412392L190.629160,893.235054L188.309735,905.008484L189.178540,906.781891L189.856379,908.185838L184.695141,909.146433L182.059086,909.639047L180.861897,909.860723L177.219266,910.550381L174.618271,915.353365L172.053313,920.033199L168.119504,926.584976L166.413859,929.417515L166.477566,930.944623L166.523785,932.422470L166.585050,933.998841L166.661725,936.067829L166.697801,937.348631L166.251991,940.304330L164.981385,948.629561L164.716361,950.353723L164.570214,951.289697L163.697202,957.028699L163.626577,957.447425L163.807409,957.619842L166.681832,960.156828L167.146658,960.230721L168.592199,960.427769L168.958277,964.097781L169.548373,970.083111L170.203961,976.758117L170.571509,980.600560L171.024471,985.132678L171.224337,986.930747L178.207738,985.206571L180.993123,984.516901L182.243819,984.221328L184.157676,984.221328L189.899247,984.221328L191.793168,984.221328L192.690288,984.221328L195.222161,984.221328L196.199026,984.221328L200.410026,983.728706L213.043023,982.250842L214.516872,982.078424L217.254021,981.758220L218.589733,981.758220L222.556997,981.758220L223.872773,981.758220L224.949317,981.758220L228.159013,981.758220L229.215621,981.758220L232.405381,981.758220L241.974661,981.758220L245.164421,981.758220L246.858981,981.758220L251.922725,981.758220L253.597349,981.758220L255.371653,981.758220L256.228900,981.758220L256.986468,981.758220L257.744036,981.758220L258.381988,981.758220L259.139556,981.758220L270.451032,985.822348L274.427195,987.250951L277.375043,988.310089L279.685965,989.147546L287.871163,988.113040L291.583755,987.620418L295.325030,987.152427L298.747328,986.684436L306.954744,984.196697L310.892147,982.989774L314.676366,981.856745L314.940420,981.758220L326.177950,977.866514L329.991875,976.536438L333.885544,975.206362L336.239648,974.368907L345.023931,973.112725L348.679150,972.570842L352.875083,971.979698L353.307370,971.905805L364.770549,971.905805L366.106259,971.905805L368.717870,971.905805L373.243334,971.905805L375.199894,972.250639L388.074595,974.541324L393.459519,975.501934L399.546068,976.585700L400.909439,976.832010L403.165045,977.176845L414.111495,978.753231L415.793843,978.999542L416.318484,979.073435L417.752854,979.295115L418.200592,979.713842L419.597312,980.896133L420.027557,981.265599L422.416999,983.334609L423.469526,984.221328L429.838049,985.649931L431.966722,986.142552L432.962503,986.364232L435.288096,986.906116L438.540917,987.645049L445.174926,989.147546L446.273236,989.714062L447.829058,990.502257L450.600368,991.906231L451.232422,992.226436L453.448985,993.359468L459.771977,996.512253L462.403946,996.906352L465.797351,997.423606L466.361867,997.497499L469.033709,997.891598L476.575654,998.975369L478.896985,999.000000L482.365860,999.000000L482.904134,999.000000L485.695183,999.000000L490.519710,999.000000L495.934173,998.359590L499.413824,997.940860L500.716989,997.793073L503.383127,997.497499L511.574595,996.536885L515.595747,994.443237L519.914515,992.177173L525.827909,983.679444L532.753428,969.442705L535.605757,962.373614L537.386828,958.013937L537.489970,957.742996L540.129599,949.737950L541.697097,946.067950L542.406272,945.033453L545.247864,940.796947L545.127459,940.008760L545.088060,937.989033L545.155433,936.831384L545.346763,933.777164L547.721577,923.678548L548.761300,919.195755L549.739560,915.550410L551.187036,910.082399L552.896146,904.565133L554.036380,900.870539L555.852922,895.599590L556.625697,893.284316L557.738039,890.353278L560.270522,884.515840L562.603387,879.688260L565.171271,874.343445L567.945498,868.456767L569.350631,865.451855L571.046362,861.412468L571.531723,859.466668L571.699526,857.693280L571.641433,856.855847L571.399029,856.116936L570.565532,854.836158L569.708616,853.826313L569.401879,853.580009L568.684877,852.964251L567.491869,852.299231L566.087274,851.880515L565.651139,851.831255L562.874846,851.535691L561.678715,851.535691L560.772872,851.511060L549.036472,852.200710L544.750697,852.594795L541.839069,852.816469L540.497092,852.742578L539.682182,852.693317L538.434265,851.929776L536.021665,850.131761L532.001240,846.387952L531.677019,846.092389L530.578773,844.121964L530.209072,843.136752L527.333440,841.831347L530.034849,840.624463L533.899501,838.875714L562.529359,818.161705L570.770361,815.600170L598.193720,806.930369L601.937739,799.787648L604.571387,790.920839L605.644799,787.374120L610.053983,772.670045L621.707028,733.779605L622.686158,730.528488L623.880520,725.356261L624.900607,721.883484L671.627781,701.268544L672.980043,687.722340L673.753757,679.791673L674.339830,674.028402L675.106279,666.245535L677.630045,641.000572L679.961375,617.627560L685.194602,592.038073L704.732272,580.413254L706.449640,579.354215L711.224357,576.349500L712.830858,575.315091L726.851098,566.399477L774.755291,536.007716L775.563598,535.589030L777.730734,534.505373L780.184328,533.273945L785.510451,529.407264L788.134456,527.757153L789.207667,526.624241L790.287417,525.959271L791.591624,525.589843L794.884400,523.521049L802.138726,518.964779L804.502491,517.536327L806.018079,516.526560L833.691646,499.065017L851.970245,487.711357L856.671595,484.780591L864.552426,479.854937L865.404566,481.751313L870.681032,493.646781L880.367349,489.090542L889.057213,484.928360L891.332765,483.869344L891.399740,477.539882L891.267938,475.988303L890.891509,473.747135L890.333466,471.949275L889.682279,470.619352L889.381666,470.052904L885.576592,463.821974L883.389032,460.127751L882.178739,457.221631L881.611750,455.005101L880.448727,451.951216L873.478274,456.408903L870.948608,449.389895L870.419523,448.010722L871.047889,444.612050L870.001748,439.021485L868.772190,432.913740L866.690896,427.495586L864.926570,422.914788L862.575221,417.915321L858.168253,408.581356L854.013814,398.385439L850.167443,388.608216L846.373580,378.978782L844.377477,373.856227L843.464496,364.817888L842.587863,356.050471L841.791437,348.071151L827.668803,341.298592L820.527213,338.023140L820.001343,337.776866L818.562087,326.916175L816.295357,325.807943L814.961899,324.970612L813.343296,324.453437L810.932099,323.443715L802.186810,319.355574L798.737724,320.759333L794.881234,322.138465L794.253818,320.537687L789.589541,310.194212L783.998650,297.461921L777.442697,282.513225L773.776353,274.140008L788.490766,264.929487L786.238692,253.798082L786.381095,248.577168L785.275086,246.188355L788.885849,243.947306L804.953090,233.998044L808.841614,231.584612L816.763145,226.659247L819.160775,225.157011L816.541005,219.172701L813.953720,213.336160L809.497427,203.239208L805.058706,193.191534L803.485219,189.596048L785.478783,180.410335L772.206111,173.613412L760.574526,167.678426L754.296784,171.224641L752.090859,172.480592L749.813931,173.761171L748.969256,165.979200L748.189760,159.280805L748.047385,158.147990L740.805527,162.235978L740.271920,160.955403L734.701827,148.445189L721.811383,156.448767L711.478051,133.029110L708.920052,127.217312L702.425500,112.490841L691.108602,86.855081L676.651639,54.324237L657.102502,10.342730L661.720938,4.531098L650.176342,4.407970L592.433439,3.792331L591.636144,3.792331L589.634184,3.767706L577.803084,3.792331L574.979985,2.462553L565.371371,2.684182L536.534317,3.373697L526.916977,3.570702L506.130056,3.915459L489.405583,4.137089L486.206416,3.940085L476.620123,3.324446L473.412233,3.102816L456.183215,3.250570L431.984021,2.684182L428.367583,3.053565L427.527938,3.102816L426.588630,3.152067L424.296409,3.152067L416.383220,2.758059L414.797355,2.782684L412.505133,2.782684L410.399803,3.028940L406.303643,2.437927L398.458898,1.280527L393.997723,0.615638L389.892845,0.000000Z " data-aland="9471196" data-awater="0" data-classfp="C1" data-funcstat="A" data-geoid="0621796" data-intptlat="+37.9196297" data-intptlon="-122.3025159" data-lsad="25" data-mtfcc="G4110" data-name="El Cerrito" data-namelsad="El Cerrito city" data-pcicbsa="N" data-pcinecta="N" data-placefp="21796" data-placens="02410410" data-statefp="06"/></g><g fill="#000" font-family="Arial" font-size="12px" id="mylayer-label" stroke="none"><text text-anchor="middle" y="455.965129606"><tspan dy="0" x="474.743034504"><![CDATA[El Cerrito]]></tspan></text></g></svg>