<?xml version="1.0" encoding="utf-8"?><!DOCTYPE svg  PUBLIC '-//W3C//DTD SVG 1.1//EN'  'http://www.w3.org/Graphics/SVG/1.1/DTD/svg11.dtd'><svg enable_background="new 0 0 1000 1001" height="1001px" pretty_print="False" style="stroke-linejoin: round; stroke:#000; fill: none;" version="1.1" viewBox="0 0 1000 1001" width="1000px" xmlns="http://www.w3.org/2000/svg" xmlns:xlink="http://www.w3.org/1999/xlink"><defs><style type="text/css"><![CDATA[path { fill-rule: evenodd; }]]></style></defs><metadata><views><view h="1001" padding="0" w="1000"><proj flip="auto" id="robinson" lon0="-92.2420321522"/><bbox h="0.77" w="0.47" x="-1298.85" y="-551.89"/></view></views></metadata><g class="" id="mylayer"><path d="M438.410172,0.000000L438.215005,1.439925L437.568238,5.781516L437.361038,7.199623L423.367471,51.291651L413.696503,81.726071L435.094334,82.271489L412.440003,158.454970L400.008600,200.255081L398.140587,200.058735L348.227993,198.727943L329.572838,198.204352L305.803843,275.215239L286.819547,274.560760L268.048925,273.928097L275.083547,242.011243L275.704984,239.218783L279.124563,223.663878L267.222489,222.922128L242.606094,221.394996L241.610543,221.351363L239.687005,221.220466L239.321806,222.551253L238.976002,223.751142L238.576275,224.820134L237.389672,227.983477L236.977905,229.030652L224.522737,273.077274L223.591774,276.371485L216.956293,299.779959L195.397577,375.873178L231.151643,375.327789L271.055101,374.695138L275.124894,374.629691L272.575235,383.225019L260.631987,423.409094L256.626666,436.803721L253.021026,449.129368L242.223992,485.975251L238.619215,498.235343L224.921832,543.436017L205.792758,606.546191L201.420233,620.965663L191.559877,656.479728L210.307776,657.068718L218.280183,657.265048L219.477460,657.308677L220.681019,657.330492L222.049556,657.352306L223.430143,657.395935L247.969591,658.115812L252.218137,657.875853L265.844169,657.090533L299.038517,655.127230L303.976839,654.974529L319.292506,654.560054L332.481787,654.145579L337.028877,654.014692L341.979759,653.818362L356.869579,653.163928L361.814692,652.923968L372.057947,652.618566L402.738995,651.680543L407.274032,651.527842L412.970197,651.353326L437.191453,650.568004L444.415872,650.306230L434.125224,681.719008L419.153461,727.419922L409.790987,755.930995L399.016164,773.556742L404.128366,773.055020L433.946270,770.022871L468.325899,766.554441L489.723127,764.373037L516.083257,763.609545L517.935219,763.544103L519.279679,763.522289L519.780902,763.500475L524.126419,763.369590L528.453605,763.238706L566.774503,762.126189L551.673865,810.705877L540.834908,845.564325L540.408013,847.047658L539.072845,851.432215L538.615570,852.893733L540.177545,856.383924L542.593330,860.092250L541.155489,864.324101L535.643767,880.291674L530.169078,902.628750L529.415823,905.246371L528.597521,907.580414L523.670933,921.388335L523.489401,921.955485L544.914427,921.780977L609.195775,921.235641L630.608740,921.039320L670.695281,921.693723L685.847863,921.911858L663.430776,999.000000L704.370536,998.411045L744.803267,997.800278L747.498561,997.734838L755.578661,997.494894L758.261898,997.407641L766.230526,997.364015L767.160214,994.004790L777.753659,955.460817L781.284995,942.612767L782.985877,935.872437L788.107509,915.585959L789.821048,908.801969L797.749463,881.055150L808.440123,843.710157L750.549531,844.473638L725.732456,844.779030L733.336312,816.508362L734.896159,810.705877L736.449748,804.925200L742.507347,782.347781L749.100872,759.246734L668.124801,758.570497L718.106751,569.024846L753.356851,435.342094L754.615444,430.717242L758.355155,416.777215L759.601750,412.130532L775.503286,351.701478L787.015274,307.917271L789.113147,299.998118L794.179927,280.691043L720.599093,282.109079L723.309426,272.510059L727.164210,258.875058L737.358953,222.725782L744.208769,198.378882L742.479512,198.400699L737.884570,198.444331L737.279697,198.444331L735.557253,198.378882L727.432591,198.204352L719.497509,198.008006L703.121465,197.462599L700.440132,197.353518L694.896758,197.571681L670.593981,197.309885L597.686195,196.459051L573.371385,196.175439L500.962523,197.091723L496.679181,197.135355L546.958919,49.197233L504.952796,50.200809L516.967967,17.039092L519.274650,10.690345L507.770018,7.745048L482.225314,1.112670L438.410172,0.000000Z "/></g><g fill="#000" font-family="Arial" font-size="12px" id="mylayer-label" stroke="none"><text text-anchor="middle" y="485.993610863"><tspan dy="0" x="517.861867398"><![CDATA[N]]></tspan></text></g></svg>