<?xml version="1.0" encoding="utf-8"?><!DOCTYPE svg  PUBLIC '-//W3C//DTD SVG 1.1//EN'  'http://www.w3.org/Graphics/SVG/1.1/DTD/svg11.dtd'><svg enable_background="new 0 0 1000 1001" height="1001px" pretty_print="False" style="stroke-linejoin: round; stroke:#000; fill: none;" version="1.1" viewBox="0 0 1000 1001" width="1000px" xmlns="http://www.w3.org/2000/svg" xmlns:xlink="http://www.w3.org/1999/xlink"><defs><style type="text/css"><![CDATA[path { fill-rule: evenodd; }]]></style></defs><metadata><views><view h="1001" padding="0" w="1000"><proj flip="auto" id="robinson" lon0="-97.2774203148"/><bbox h="1.36" w="0.95" x="-1370.31" y="-550.86"/></view></views></metadata><g class="" id="mylayer"><path d="M460.037116,0.000000L455.538762,14.797605L455.032244,16.467704L449.622578,34.237010L445.009765,49.992298L443.836404,53.725418L441.447915,61.363564L438.498909,70.782282L437.902274,72.783909L434.426807,84.449811L432.794232,89.902071L432.398701,91.240575L418.677325,136.565177L418.002651,138.824636L417.436789,140.691145L414.000405,151.890175L411.184460,161.247230L407.506896,173.821497L403.976120,180.599792L398.496328,190.300589L395.636601,197.078849L390.998392,210.303784L382.669944,238.055096L376.718125,257.898367L375.530469,261.238311L374.598387,263.632754L373.506891,267.132322L372.472064,270.410861L365.423523,293.262308L357.990777,320.619982L346.099709,359.016112L340.701887,376.697580L336.028861,392.021441L324.480598,430.146599L318.796876,449.116923L318.189889,451.155151L313.195457,467.203089L311.495723,472.679261L307.781962,484.601568L304.898283,494.055889L297.872188,516.304132L293.601688,530.510023L287.561893,550.560238L286.569677,554.894407L284.624966,563.329447L276.353267,589.935899L271.236503,605.713043L264.025160,627.899139L259.841741,637.524936L258.553440,641.883547L257.938614,643.983045L250.707624,668.317476L249.370741,672.700601L247.050028,680.300460L242.125585,696.470053L240.541173,702.080895L237.867774,711.153988L237.071194,711.227653L237.367329,711.681920L235.522447,717.403234L231.627320,730.343680L231.119023,730.761113L231.938327,730.748836L224.280763,756.568186L209.054839,807.850244L207.251828,807.837967L206.532852,807.825690L190.580794,807.727473L178.352478,807.776582L176.445408,807.801136L170.847003,825.897608L169.660933,829.408852L169.105789,830.697945L166.982150,842.189259L164.058767,852.195019L159.719160,865.859278L156.762610,875.975459L151.798402,894.709955L152.614031,894.709955L157.469857,894.869554L180.906729,895.004599L177.980189,904.715557L177.070104,907.588325L174.753380,915.249029L174.258786,916.918668L170.413866,929.735569L170.264555,930.263467L166.112511,944.062448L165.949172,944.602621L165.827479,944.970920L162.341622,956.191755L159.646206,964.969516L157.287718,972.360004L154.379474,981.432358L157.505680,979.185756L161.006351,976.656792L168.803853,971.390157L171.258219,971.365604L190.677137,971.132349L182.223773,998.238860L197.018781,998.410730L207.082494,998.386178L215.684756,998.619430L216.428946,998.582601L227.886974,998.693089L239.261121,998.705365L250.976317,998.545771L262.774586,998.521219L268.517564,998.410730L269.807824,998.582601L271.508026,998.423007L274.665446,998.668536L276.197363,998.963171L281.069830,999.000000L290.207443,997.735526L319.959908,998.361625L329.212485,998.287966L332.485372,987.938903L363.614018,988.110774L376.703645,988.049391L382.959127,987.951179L395.753375,987.705650L429.556119,987.877521L462.902160,988.159880L479.309402,988.258092L494.980203,988.196709L503.047506,988.184433L506.037344,976.755004L509.714729,964.895856L512.901775,955.000925L515.246393,947.585845L544.710132,948.175123L547.719102,948.126017L554.032897,948.346996L568.798660,948.273336L576.966689,948.371549L579.047907,942.135014L584.991545,924.247878L592.856143,900.553721L601.412529,900.357292L604.463566,900.271355L633.723666,899.927604L642.377964,899.817113L643.577684,902.542564L656.700043,902.542564L666.053982,902.542564L667.351229,898.319341L675.548250,867.651711L679.454219,858.112522L683.943236,856.172761L687.667572,854.576754L695.338728,851.126921L699.296341,849.408142L713.049903,843.392408L725.708873,837.855467L740.000440,831.631002L752.118021,826.143150L764.267039,820.790337L768.568122,818.789168L767.245190,816.198697L767.270932,815.498901L766.798440,814.295743L766.401811,812.773379L763.961610,813.878320L761.884724,814.737719L758.783085,816.186420L758.053529,814.467623L756.234816,809.077959L729.620915,739.220257L709.875700,723.640192L706.826493,722.252838L696.949404,718.864255L688.421803,715.144176L686.654567,714.297029L685.283353,713.437604L682.968219,711.227653L678.027026,705.002949L677.113617,697.783752L673.615927,697.845140L676.660500,689.520944L678.675900,684.462572L679.833198,679.305972L680.386984,672.970710L680.456702,668.133311L679.869500,663.590570L679.205910,658.925045L682.749077,656.972890L686.539961,654.713790L688.141231,653.891183L692.575078,651.656636L693.003266,651.435637L693.735120,654.578735L694.687711,661.257808L695.069604,667.605371L694.556340,674.284418L692.333791,684.327519L693.124957,688.059910L692.485492,692.835891L692.653460,694.260090L693.604713,698.999230L717.736417,699.085173L718.635959,696.077170L728.949975,669.864462L731.245987,663.639681L733.894122,654.271792L736.401323,636.088435L734.257582,635.155323L720.063259,633.890710L711.209621,633.092653L709.523547,632.933042L704.695043,633.264542L702.251676,633.424154L691.721605,633.424154L685.452416,634.320433L676.624224,635.314934L674.590474,635.314934L672.370941,635.621879L669.061253,636.051602L663.795045,636.567269L659.562060,637.353047L657.798017,637.758214L654.220385,638.629937L647.948415,640.422492L649.772837,634.529156L649.966011,633.890710L650.196335,633.129487L620.142268,633.068098L614.412671,633.068098L609.209578,633.068098L623.553851,586.620848L621.128663,586.584014L613.673885,586.485790L603.515186,586.350732L591.159661,586.277064L583.148662,586.277064L579.039928,586.277064L569.387500,586.277064L561.476844,586.252508L559.230871,586.203396L565.669666,570.352491L568.154522,560.812443L560.318212,555.938045L553.104660,555.213638L555.966727,545.894553L559.125389,535.630022L561.950065,526.605558L564.585686,518.035363L567.645122,508.065424L570.295781,499.446068L633.534768,499.482903L663.124695,500.391497L664.807374,500.391497L666.189844,500.735289L662.036272,515.923507L668.728200,516.426915L680.757245,516.623366L709.687493,516.267298L721.524746,480.230470L724.262508,391.947769L723.959704,390.118241L723.450735,386.446904L724.751412,386.446904L738.977889,386.680199L751.745961,386.888938L759.932360,387.024004L777.209852,387.306414L780.985122,387.281857L784.899095,387.515153L786.393850,387.453759L788.860073,379.411185L793.472961,364.381956L795.657676,356.928710L790.189511,356.953268L764.840971,357.076056L754.523560,357.297075L733.037832,357.174287L716.093219,357.395306L715.098518,357.407585L713.381224,357.419864L712.735685,356.142864L712.168503,355.357018L711.335678,353.232778L710.823374,350.629660L710.953653,347.609058L710.667246,346.884605L709.894135,345.619880L708.414927,342.562437L707.963813,341.666078L706.888537,340.069821L704.583649,338.375332L699.236742,335.477508L697.878531,334.372406L693.781454,331.744715L691.588154,328.011917L690.305087,323.591493L689.842618,320.313007L689.095383,316.543359L688.922482,316.125874L688.263662,315.438250L687.420786,314.369977L686.888526,311.287947L692.383431,309.777628L700.645406,307.481451L711.019353,303.699509L717.595345,300.187702L723.543877,296.123333L724.074965,295.767240L728.190855,292.402773L732.206954,288.583976L736.225657,284.347684L740.134543,280.099108L753.682763,265.327282L757.539256,261.115519L748.683996,261.962784L738.436970,262.429393L740.351135,255.872296L741.069922,253.465567L772.020362,150.023673L773.275717,149.593886L774.482560,149.630725L783.917794,149.593886L795.259249,149.704403L807.565578,149.900877L810.887254,149.839479L814.708111,149.765801L824.808878,149.814920L831.992214,149.851758L832.350766,148.464160L832.808595,146.646775L848.201598,95.513959L846.911357,95.513959L845.445644,95.513959L836.871003,95.538519L826.765839,95.538519L815.962853,95.661317L791.138970,95.796396L786.049916,95.661317L768.299583,95.513959L762.943349,95.477120L729.575102,95.366601L697.023676,96.545465L699.465740,88.182891L702.819407,76.983639L707.992460,60.430286L709.538965,55.567416L711.811987,48.138016L715.688368,35.624658L719.559683,22.890208L723.490362,10.573233L725.378319,4.789274L723.224953,5.219080L718.738629,4.764713L703.411844,2.787604L701.494568,2.677082L694.157655,1.854309L688.934258,1.584145L684.237916,1.584145L678.197212,1.694667L674.405449,1.706947L660.923173,1.952551L658.166123,1.854309L652.519340,1.891150L650.940980,1.854309L642.012769,1.854309L639.543025,1.829749L634.776454,1.891150L620.848321,2.075353L613.111993,2.161314L607.822420,2.075353L598.467825,1.915710L585.072048,1.842029L579.869945,1.842029L577.946927,1.682387L571.495907,1.682387L567.797569,1.522744L563.350648,1.449063L559.610494,1.461343L555.829052,1.473623L548.645197,1.473623L545.314395,1.191179L543.920975,1.191179L539.409784,0.921015L536.250195,0.822773L530.175013,0.638570L525.872064,0.736812L519.703987,0.552609L516.370101,0.552609L506.681817,0.540329L498.631481,0.368406L497.185284,0.270164L487.529134,0.356126L475.189896,0.270164L470.844491,0.270164L460.037116,0.000000Z " data-aland="31972552" data-awater="80040" data-classfp="C1" data-funcstat="A" data-geoid="4831928" data-intptlat="+32.8176981" data-intptlon="-097.2711516" data-lsad="25" data-mtfcc="G4110" data-name="Haltom City" data-namelsad="Haltom City city" data-pcicbsa="N" data-pcinecta="N" data-placefp="31928" data-placens="02410691" data-statefp="48"/></g><g fill="#000" font-family="Arial" font-size="12px" id="mylayer-label" stroke="none"><text text-anchor="middle" y="525.865392829"><tspan dy="0" x="496.773085513"><![CDATA[Haltom City]]></tspan></text></g></svg>