<?xml version="1.0" encoding="utf-8"?><!DOCTYPE svg  PUBLIC '-//W3C//DTD SVG 1.1//EN'  'http://www.w3.org/Graphics/SVG/1.1/DTD/svg11.dtd'><svg enable_background="new 0 0 1000 1001" height="1001px" pretty_print="False" style="stroke-linejoin: round; stroke:#000; fill: none;" version="1.1" viewBox="0 0 1000 1001" width="1000px" xmlns="http://www.w3.org/2000/svg" xmlns:xlink="http://www.w3.org/1999/xlink"><defs><style type="text/css"><![CDATA[path { fill-rule: evenodd; }]]></style></defs><metadata><views><view h="1001" padding="0" w="1000"><proj flip="auto" id="robinson" lon0="-118.072941354"/><bbox h="0.28" w="0.34" x="-1656.58" y="-567.28"/></view></views></metadata><g class="" id="mylayer"><path d="M1000.000000,357.711247L986.958780,357.612242L981.036418,357.562739L976.702020,356.919206L974.702741,356.968709L965.730768,357.018211L956.117527,357.018211L953.210560,357.067714L947.516881,357.067714L920.540834,357.265724L918.395389,357.265724L914.333183,357.315227L906.947903,357.315227L901.212966,357.315227L893.932593,357.364729L886.734737,357.414232L879.495622,357.463734L873.760684,357.463734L865.902691,357.513237L859.117420,357.562739L852.290891,357.612242L845.464361,357.661744L838.679090,357.711247L831.871430,357.711247L827.561672,357.760749L825.044901,357.760749L816.999484,357.760749L810.401636,357.859754L804.625440,357.859754L797.840169,357.909257L791.013639,357.958759L785.154925,357.958759L777.420707,358.008262L770.594177,358.057764L763.808906,358.107267L758.569070,358.107267L751.742540,358.156769L750.215974,358.156769L744.916010,358.206272L743.389444,358.206272L736.480396,358.255774L732.452411,358.107267L729.678508,365.384131L724.703881,378.650780L724.213266,379.937842L717.238522,398.451709L714.474190,398.451709L690.176349,398.550713L677.746930,398.253700L682.523849,382.907983L688.964936,363.305028L701.471935,327.465162L716.855000,288.951987L739.299528,288.951987L760.071335,288.902484L760.675213,287.318391L767.801542,268.408255L771.874280,257.616588L776.267874,245.983353L788.807239,212.766665L794.257848,198.361176L799.082207,185.490271L806.253494,173.064879L810.545991,161.481031L823.773978,126.135343L733.130598,126.135343L642.033383,126.135343L655.921531,89.601409L608.047256,89.749922L566.421764,89.848930L565.720384,89.848930L553.076659,89.898434L546.970522,89.898434L539.709170,89.898434L511.657455,89.997442L497.858514,90.046946L476.261872,90.096450L469.990705,90.096450L385.520862,90.244962L380.900002,90.244962L375.330215,90.244962L347.952608,162.372096L339.912003,183.460627L304.796621,183.906158L296.950148,202.321450L251.502398,323.257433L245.478667,323.257433L241.971700,323.257433L204.079790,323.950471L188.789166,324.990028L178.503968,325.237541L174.243810,324.940525L167.936091,324.495001L161.848715,324.445498L140.587365,381.620922L137.423900,390.135324L116.168481,446.864784L115.115218,449.735899L112.054261,459.388776L107.799677,472.605774L105.554068,478.496490L97.525836,480.724070L86.075017,485.327735L83.308104,486.416773L74.285485,492.010469L70.319177,495.921103L59.754951,506.316452L53.861960,512.900166L48.405891,521.909451L46.784338,525.622066L44.031863,531.760252L41.258361,543.690100L26.408321,627.891579L24.711942,636.455233L20.803467,649.523451L15.972710,675.511326L3.134806,750.652957L0.000000,765.156502L13.101285,770.403512L28.866690,776.888020L57.883185,788.768021L86.082864,800.301507L116.943243,812.973473L129.358630,818.071954L245.719040,865.690627L250.789242,867.868606L258.735669,846.583790L349.372428,845.098801L366.208459,857.869699L373.098906,857.869699L373.680138,856.236213L385.908608,821.982437L386.603043,820.051946L391.179375,819.952946L472.888446,818.616452L515.583179,817.774955L512.726534,825.595920L490.484706,886.777397L487.820402,892.469825L486.826600,894.103304L485.226853,896.677270L482.401074,900.736215L479.117900,904.696159L474.640534,909.299592L479.223966,909.398591L486.234685,909.299592L492.874062,909.200594L501.058932,909.052096L509.408843,908.903598L517.428672,908.755100L525.718460,908.656102L534.274673,908.507604L544.954023,908.309607L561.304900,908.062110L567.633054,907.913613L569.882331,905.042654L575.961755,896.776269L576.906030,895.489286L577.850306,894.202303L578.753321,892.915320L579.697598,891.628336L580.641874,890.341352L581.488305,889.202867L591.064317,875.442027L632.504743,815.200965L635.704161,815.250465L650.806433,818.170953L655.468816,818.170953L660.705306,818.071954L670.930725,817.873955L690.860550,815.596963L710.861058,815.299965L744.346664,807.874989L747.266870,800.103507L757.706429,772.383515L760.517070,765.008001L769.724835,741.495416L772.192463,734.911880L781.383990,710.359702L782.346067,707.835179L784.619167,702.736632L791.929099,684.421435L793.853293,679.372374L794.415703,677.788355L795.739765,674.422312L796.456626,672.541287L798.285298,668.284230L814.541662,619.674423L826.756126,587.300730L830.657887,576.954982L837.027654,560.025550L849.638901,526.612096L867.375406,479.536028L879.949722,446.221259L880.232744,445.478729L881.882086,444.290681L888.817826,439.191974L893.863719,435.479321L932.224341,407.362112L948.831044,395.184559L953.054045,392.115417L971.971531,378.205258L1000.000000,357.711247Z "/></g><g fill="#000" font-family="Arial" font-size="12px" id="mylayer-label" stroke="none"><text text-anchor="middle" y="499.26288075"><tspan dy="0" x="464.431702755"><![CDATA[N]]></tspan></text></g></svg>