<?xml version="1.0" encoding="utf-8"?><!DOCTYPE svg  PUBLIC '-//W3C//DTD SVG 1.1//EN'  'http://www.w3.org/Graphics/SVG/1.1/DTD/svg11.dtd'><svg enable_background="new 0 0 1000 1001" height="1001px" pretty_print="False" style="stroke-linejoin: round; stroke:#000; fill: none;" version="1.1" viewBox="0 0 1000 1001" width="1000px" xmlns="http://www.w3.org/2000/svg" xmlns:xlink="http://www.w3.org/1999/xlink"><defs><style type="text/css"><![CDATA[path { fill-rule: evenodd; }]]></style></defs><metadata><views><view h="1001" padding="0" w="1000"><proj flip="auto" id="robinson" lon0="-121.94532715"/><bbox h="0.63" w="1.45" x="-1678.36" y="-645.52"/></view></views></metadata><g class="" id="mylayer"><path d="M1000.000000,497.788199L997.442276,492.174842L990.535703,479.275898L985.767764,470.668870L983.272710,463.126067L979.327247,449.525734L977.739963,443.538354L977.000470,441.947960L975.360477,439.644231L974.003444,438.240946L973.274894,437.504222L970.508767,434.218203L963.495040,426.266303L950.620109,412.105013L948.163750,409.111397L946.716127,406.842802L944.022229,399.955181L941.929549,393.874457L941.271473,389.723208L941.288113,387.770371L942.276979,383.092928L943.665326,379.187275L944.225965,378.205016L947.088026,372.065916L947.327368,371.387693L947.669684,370.651003L947.362424,370.639310L918.954431,370.007862L925.002318,356.993074L925.007144,355.718497L924.746689,355.239069L906.328017,355.051975L879.936565,354.771334L878.309155,354.970122L877.769315,354.011266L877.222097,353.414906L863.013195,352.467745L862.399112,353.789093L854.803095,370.358666L849.312329,382.052199L845.900215,389.232075L845.526685,390.015549L842.989331,395.394636L838.506741,405.041961L834.985980,412.619541L829.419597,424.722704L823.062938,438.568379L802.255217,438.708707L754.064458,438.416356L749.751086,437.890125L746.138411,437.691326L742.053081,437.632856L741.148966,437.539304L738.026124,437.469140L736.277016,437.562692L734.810662,437.761490L732.394076,437.925207L719.300918,438.124005L718.410938,438.509909L717.129769,439.737783L716.582567,439.936582L715.498153,440.006746L709.075077,439.901500L703.714423,439.936582L696.232709,439.866418L683.462235,439.737783L655.251504,439.679313L652.781494,439.386962L651.865386,439.176469L655.431656,432.031426L657.192028,428.324438L665.160176,411.543710L677.145119,385.957860L675.809060,385.957860L653.044628,385.946166L651.414825,385.946166L598.314958,385.922779L597.290909,385.536890L593.917028,385.864311L591.074490,385.782456L586.506141,385.642132L589.866239,378.473968L611.515749,332.063011L619.779836,314.429813L600.271689,314.324575L572.033663,314.429813L535.137981,314.488278L532.916716,314.476585L532.272394,314.476585L531.823015,314.464892L524.240113,314.429813L514.737601,314.488278L492.899612,314.523357L475.963321,314.429813L467.781151,314.195952L448.855333,314.651980L430.803912,314.429813L428.590723,314.441506L427.173462,314.453199L379.815455,314.616901L387.203309,298.995095L393.367346,286.331735L386.279251,283.969791L386.066261,284.203647L384.239818,287.091767L383.690332,287.723179L382.737284,288.448134L382.173547,288.763840L379.529793,288.845690L377.071098,288.448134L376.536703,287.641329L374.899261,284.764900L374.446683,284.332267L372.697903,283.630700L370.719318,283.443616L366.997363,283.887941L365.716142,284.238725L355.038246,283.911327L353.543464,284.110104L352.443171,284.683051L352.211729,284.671358L351.111435,285.244305L350.865079,285.244305L350.413805,285.501546L349.384543,285.758788L348.955022,285.969258L348.257392,286.226500L347.403788,286.635748L345.081993,288.144120L335.010140,292.645862L334.522533,292.797869L333.754207,293.207119L332.971300,293.464362L330.485225,294.551798L329.787263,294.972741L329.531431,294.972741L328.446053,295.533999L323.767050,298.667694L321.739000,300.176079L317.931325,302.842066L315.757774,305.356050L314.853178,307.566020L313.752739,309.565520L312.866602,310.676355L312.039629,311.985971L310.618933,313.716538L309.935565,314.289496L308.429502,315.388641L308.446726,315.575730L308.377109,315.868056L307.952703,316.230540L305.003981,319.902161L303.793223,320.896073L303.484999,321.375490L302.712910,322.322630L301.675938,323.737495L301.433130,323.994744L300.563167,325.152362L300.093865,325.631780L299.363236,326.836172L298.823246,327.467601L298.629055,327.783316L297.429351,330.729990L297.260257,332.051318L297.073340,332.799681L297.109269,334.495193L297.159882,334.916148L297.098030,335.395570L297.207056,335.711286L297.074518,336.342719L297.183545,336.658436L297.051008,337.289869L295.174650,341.569593L294.614804,341.978857L292.939906,343.604220L292.461460,343.919938L291.973856,344.071951L291.053626,344.644921L290.138387,344.738468L289.773964,344.890480L288.572904,345.089266L288.127241,345.252972L284.243866,345.147732L283.605895,345.358211L282.393801,345.662237L281.217733,346.235208L280.498044,346.702940L279.824175,347.275911L278.589639,349.380706L278.408179,350.117385L279.138347,351.929851L279.845397,353.099185L280.830215,353.426599L281.328987,353.800786L281.440821,354.069733L281.428233,354.280213L281.303180,354.549161L281.295714,354.911655L281.002113,355.543096L280.581765,355.917284L279.760790,356.969688L278.586740,357.905158L278.198701,358.372893L275.637949,360.313997L270.601745,363.482913L267.760323,364.254680L267.063017,364.348227L266.602286,364.605483L265.716399,364.921206L264.621581,365.482491L264.277353,365.692973L263.238914,367.213122L261.917448,370.218344L261.390078,370.639310L260.752264,371.481241L259.831738,372.217931L258.124276,373.200186L257.350854,373.457443L256.495259,373.504217L254.136001,373.422362L252.259221,373.036477L252.052623,372.767526L251.662883,372.709059L251.456286,372.440108L250.954393,372.276399L250.626167,371.902207L250.352930,371.796965L249.948901,371.422774L249.416098,371.142130L249.012069,370.767938L248.424897,370.604229L247.383062,369.645364L245.219539,369.142544L244.190588,369.236092L243.371340,369.388107L243.027112,369.598590L242.700905,369.586896L241.524844,370.159877L240.439188,370.884873L239.674615,371.469548L238.612411,372.673978L237.300579,374.884052L236.631540,377.199371L236.250507,379.690098L235.614117,382.648572L235.740567,383.069541L235.233418,384.975597L234.709323,385.817537L234.123722,386.975204L232.750302,390.296196L230.868799,393.874457L230.338035,394.669627L228.322722,395.967626L227.835121,396.119644L226.282209,396.259969L226.012547,396.411987L224.569760,396.295050L220.824546,396.096257L219.137424,396.341825L218.183966,396.599086L215.136288,398.364835L214.155826,399.312027L213.671807,399.721307L213.256607,400.247524L209.409759,403.018941L208.867035,403.697178L208.115847,404.375416L206.836243,406.047625L201.852060,414.853064L201.618457,415.274043L201.294933,416.010756L200.422119,418.805590L199.037535,422.395615L197.924857,424.605765L197.455912,424.921501L197.165758,425.178767L196.564064,426.289691L195.828464,427.342146L194.903943,428.067171L193.997782,429.119627L193.351146,429.634161L192.552013,430.639843L192.158875,430.955580L191.798058,431.364869L191.404921,431.680607L190.471586,432.791536L189.797774,433.364541L189.360856,433.937547L188.355098,434.674269L187.245915,435.715036L186.478595,436.346513L185.252548,438.392968L183.853748,441.667302L182.585027,442.602828L182.030806,442.918568L180.836415,443.164143L180.513945,443.327860L179.773955,443.819011L178.949933,444.368633L178.428033,444.777926L176.989588,447.526040L175.952623,448.309545L174.988676,449.139828L174.193229,449.607593L173.519429,450.180605L172.357740,451.069360L171.308170,452.858564L170.021901,456.074460L169.200775,457.290655L168.075747,458.120943L167.377853,458.541934L165.976243,458.845983L165.203405,458.775818L164.257448,457.080160L163.857008,456.168013L163.779133,455.805494L163.391251,454.682853L163.083456,454.203392L162.838913,453.934427L162.273442,453.723932L161.749479,453.770708L160.725652,454.016286L160.403183,454.180004L159.412350,454.905042L156.467367,458.366521L155.268023,459.886767L154.648725,460.260982L153.997246,460.459784L151.254243,460.693668L150.278758,461.161437L148.476081,461.675983L146.410148,462.553050L143.978266,463.687391L143.499855,464.003135L142.851166,464.155160L140.760129,465.453222L138.996893,465.862521L138.572837,466.061324L138.168736,465.687107L138.054493,465.219337L139.558647,462.798629L140.405125,461.792925L141.234676,459.641189L141.121832,459.150032L141.334394,458.366521L140.943146,457.618092L140.484988,457.197101L140.086042,456.974912L138.348207,456.799499L137.494653,457.208796L134.607863,459.138338L134.251096,459.559330L132.183566,461.336850L131.924349,461.711065L131.241074,462.284083L130.581609,463.172844L130.032537,463.640614L126.506257,465.885910L125.525910,466.037935L124.970440,466.295209L124.255419,466.447234L124.027034,466.225043L123.108448,465.897604L122.456149,465.792356L120.002371,464.751567L116.430629,465.137477L115.903586,465.394751L114.959603,465.652025L114.530109,465.862521L113.871942,466.014547L112.647001,466.692814L110.536712,468.154598L110.368503,468.353400L109.919725,469.522829L109.997602,469.885352L111.119678,472.282684L111.070473,472.551653L111.264567,473.031120L111.045582,474.399355L110.229615,475.767592L108.303714,477.077359L107.655024,477.229385L106.877283,477.638688L104.864594,478.258489L103.568750,478.457293L101.591493,478.164934L100.893667,476.995498L100.536692,475.989785L99.926228,475.182875L99.594857,475.019155L97.563252,474.843740L89.158813,474.434438L86.043402,475.510317L84.606668,475.767592L82.212763,475.311513L80.362741,475.030849L76.312907,474.773574L73.219566,474.843740L69.609572,476.188589L67.688843,476.855166L65.951234,477.311246L65.046691,477.463272L64.680737,477.720548L63.615102,477.872575L62.841683,478.129851L62.380970,478.387126L61.902843,478.539153L61.071030,478.901678L59.092150,480.305003L58.622925,480.784472L57.745762,482.304742L57.151813,482.889462L56.421408,484.093985L56.018804,484.409734L55.765026,484.772261L54.719843,485.614259L54.487807,485.930008L53.047246,487.602311L47.871870,493.905625L47.636482,494.595600L47.270533,494.852879L46.611089,495.741660L45.030653,496.899416L43.639052,497.671254L43.392675,497.671254L42.856159,497.928534L41.266833,497.963617L39.396581,497.624476L38.793187,497.413975L38.452616,497.086529L38.148131,497.028056L37.792933,496.548581L36.899448,495.004907L36.335781,494.525433L33.572344,492.478899L33.267860,492.420426L32.751576,491.940953L31.990422,492.151453L30.083780,492.502288L29.248893,493.075317L28.543881,493.695124L27.358609,495.694882L27.243076,495.963856L27.110384,496.759082L27.328307,497.554309L28.937063,500.372690L30.341704,502.243817L30.072037,503.191076L28.785364,504.348838L27.870356,505.073901L27.538694,505.073901L16.307262,510.359859L15.743852,510.511889L15.292621,510.769171L14.165522,511.236956L13.790380,511.330513L11.495489,512.312861L7.378962,513.014540L4.274567,513.189959L0.774964,513.318600L0.000000,515.271607L9.048001,513.868249L17.074812,511.950328L19.711115,511.599489L21.148831,511.564405L23.156922,512.055580L24.869304,512.897593L25.898156,513.681134L27.360561,517.446815L27.869789,519.715583L29.740810,527.679691L31.955691,530.825584L33.272228,532.030147L35.308515,532.685056L37.645935,532.977426L77.914230,533.784367L76.289652,536.322143L70.123568,545.350577L68.865754,547.139898L36.445263,593.160112L41.886351,592.972987L46.536604,592.937901L42.938466,599.031156L42.227260,600.235775L37.824450,609.428342L32.803082,625.053499L30.662297,642.129086L33.428999,657.719506L34.346512,658.947566L34.757951,660.000189L34.914208,660.561588L38.012381,665.929981L46.405400,663.427068L96.880734,663.462155L102.034649,663.485547L136.097800,663.497243L134.962722,665.941677L134.707467,666.491383L164.133798,666.549862L160.026688,674.456293L186.561867,675.169745L188.549205,675.216529L188.270865,675.836414L186.010199,680.889071L182.287868,688.783883L181.126217,690.959350L180.593404,691.555849L182.200199,691.707898L187.147070,691.707898L193.452438,692.292702L199.077694,692.199133L188.493387,715.100230L194.410991,715.111926L213.219781,715.158711L217.569458,715.322459L224.373939,715.240585L228.157967,715.193800L233.160266,715.299066L245.497748,715.322459L251.700746,715.556384L255.937096,715.392637L259.794176,715.392637L261.096650,715.322459L260.556958,714.913090L262.175991,711.649838L263.411724,709.661480L268.253722,702.374755L276.303222,690.526595L282.437802,681.497262L287.510940,673.672665L303.029263,650.842391L304.633802,649.590947L305.843739,647.801500L308.054927,644.386354L308.351903,644.012091L313.225494,636.924520L319.635006,627.345827L319.926560,626.983264L320.364750,626.304922L320.644057,625.989142L321.590932,624.562286L321.882488,624.199725L322.335588,623.509689L322.627144,623.147127L326.243998,617.521591L328.314133,614.410597L328.837624,613.732261L330.804583,610.843488L331.101577,610.469234L332.603184,608.317278L351.429780,570.331097L351.739287,569.746342L358.574966,556.437384L363.194426,547.022948L366.215463,544.660578L366.728653,543.678207L368.166248,540.134661L368.984293,538.088062L374.151712,537.959419L381.078381,523.130438L383.003297,523.188911L383.310576,523.200606L398.728228,523.200606L410.116888,523.387722L418.702007,523.551448L425.616923,523.516364L432.779484,523.539753L438.511150,523.563142L456.483067,523.715174L472.744097,523.715174L483.831163,523.715174L504.811059,523.878900L509.046887,523.878900L512.022390,523.878900L515.860221,523.878900L550.521472,523.680090L576.159224,524.077710L603.684595,524.124489L611.724395,524.136184L606.885319,534.146906L603.233934,542.029229L606.061081,543.572953L603.523947,549.525662L601.371442,554.425847L589.737486,579.090753L579.354254,601.533959L575.014147,610.901965L653.963380,611.287914L654.299102,611.299609L655.376855,609.019003L655.128419,608.492709L655.716883,607.755899L680.307595,556.121619L682.376462,554.870256L719.645761,555.443310L717.674567,559.606729L711.337487,573.091143L705.940424,584.306809L703.596487,590.049169L704.102293,591.511078L704.746514,592.715691L709.004810,601.873124L713.359857,610.679752L714.237501,611.463345L716.917556,611.814208L735.673937,612.013031L742.441214,612.235244L743.950564,608.983916L749.800770,596.423099L754.983577,585.137169L766.046292,561.045217L768.240147,556.320434L777.753252,535.772486L782.684274,525.317352L783.090213,524.463636L793.830823,524.393468L845.088580,524.370079L876.171772,524.264826L893.475180,524.264826L916.695628,524.358384L932.900975,524.498721L933.946258,522.288418L940.809845,522.159776L944.782100,518.768313L949.543520,516.452768L956.394544,515.575668L957.867218,518.791703L958.230079,518.744924L962.724645,517.575456L966.362423,516.312432L971.178977,514.265867L974.697936,512.768952L979.146200,510.780865L987.148807,506.138108L997.631568,499.378654L1000.000000,497.788199Z "/></g><g fill="#000" font-family="Arial" font-size="12px" id="mylayer-label" stroke="none"><text text-anchor="middle" y="480.347866288"><tspan dy="0" x="452.905471985"><![CDATA[N]]></tspan></text></g></svg>