<?xml version="1.0" encoding="utf-8"?><!DOCTYPE svg  PUBLIC '-//W3C//DTD SVG 1.1//EN'  'http://www.w3.org/Graphics/SVG/1.1/DTD/svg11.dtd'><svg enable_background="new 0 0 1000 1001" height="1001px" pretty_print="False" style="stroke-linejoin: round; stroke:#000; fill: none;" version="1.1" viewBox="0 0 1000 1001" width="1000px" xmlns="http://www.w3.org/2000/svg" xmlns:xlink="http://www.w3.org/1999/xlink"><defs><style type="text/css"><![CDATA[path { fill-rule: evenodd; }]]></style></defs><metadata><views><view h="1001" padding="0" w="1000"><proj flip="auto" id="robinson" lon0="-119.636548364"/><bbox h="0.25" w="0.3" x="-1661.7" y="-609.28"/></view></views></metadata><g class="" id="mylayer"><path d="M1000.000000,510.579291L999.701297,507.959744L997.771498,506.479131L994.614510,505.055464L992.813670,504.599890L986.776901,504.201263L934.875039,503.119276L903.936273,502.606756L866.055368,501.980342L797.368522,499.076061L729.387591,497.367660L660.896404,495.773152L591.897167,494.064751L620.789409,424.077162L672.284191,300.559177L713.709011,201.357160L728.095742,166.790130L739.041284,138.601170L747.109654,113.544293L754.688484,91.220876L759.375871,78.179891L752.202534,78.065996L751.728472,79.204947L722.223311,149.648968L658.370865,149.592020L597.551636,295.946462L568.050540,295.206149L505.676570,447.311466L404.641158,448.507349L386.793419,491.729936L295.848049,705.620968L280.699455,706.873786L189.309565,708.468282L168.174782,708.866906L86.827381,710.689186L59.048800,778.341268L8.274984,900.376550L0.000000,920.934004L114.805470,917.801983L132.816547,917.346416L190.951325,915.467203L290.615607,912.790748L401.948129,909.772618L418.593094,909.373997L430.672527,909.601781L487.205052,910.683752L556.510281,912.107398L624.308389,913.815774L679.960357,915.011636L688.485111,894.852800L708.589051,844.968157L713.828594,834.376201L717.670447,827.144056L721.685783,818.716043L734.120029,789.161030L738.321701,780.619113L742.295967,774.070308L748.156433,766.325632L755.697534,757.100354L762.941603,747.476450L766.673537,742.066561L769.663759,736.770564L773.225868,729.766179L777.897512,718.092200L782.267768,706.475162L790.887327,686.202281L897.582919,688.650973L901.950109,689.391275L903.547624,689.334329L904.963268,688.935704L905.989287,688.138456L907.257697,686.202281L912.912799,670.940665L922.807384,648.048224L940.510895,607.388469L950.813961,606.989844L953.200570,606.705111L957.308638,605.509235L959.915068,604.028627L961.248012,602.604964L962.754490,599.985426L997.972768,516.786478L999.141497,513.198838L1000.000000,510.579291Z "/></g><g fill="#000" font-family="Arial" font-size="12px" id="mylayer-label" stroke="none"><text text-anchor="middle" y="660.05807912"><tspan dy="0" x="516.260410048"><![CDATA[N]]></tspan></text></g></svg>