<?xml version="1.0" encoding="utf-8"?><!DOCTYPE svg  PUBLIC '-//W3C//DTD SVG 1.1//EN'  'http://www.w3.org/Graphics/SVG/1.1/DTD/svg11.dtd'><svg enable_background="new 0 0 1000 1001" height="1001px" pretty_print="False" style="stroke-linejoin: round; stroke:#000; fill: none;" version="1.1" viewBox="0 0 1000 1001" width="1000px" xmlns="http://www.w3.org/2000/svg" xmlns:xlink="http://www.w3.org/1999/xlink"><defs><style type="text/css"><![CDATA[path { fill-rule: evenodd; }]]></style></defs><metadata><views><view h="1001" padding="0" w="1000"><proj flip="auto" id="robinson" lon0="-81.6948576694"/><bbox h="1.34" w="1.44" x="-1175.75" y="-435.58"/></view></views></metadata><g class="" id="mylayer"><path d="M1000.000000,440.490714L998.689406,409.967526L976.101779,398.866067L940.283455,393.687714L920.895313,380.503277L908.909139,353.273279L893.770555,332.920599L861.865353,312.393366L814.085760,299.232196L793.565891,301.827193L790.002031,302.990868L781.372961,305.772053L760.356466,309.786733L741.721253,310.112562L719.337787,305.492770L694.375694,293.762921L672.708648,280.869396L636.782292,268.662438L589.389840,257.665703L560.813148,244.073969L547.250956,237.615569L513.372987,198.353141L491.163808,164.781084L490.688503,164.047968L488.250973,161.103867L443.640906,107.272195L441.153573,104.269910L438.092900,101.477086L400.703836,67.392996L366.676747,53.044862L335.312078,39.406569L298.414593,33.623095L279.648060,34.856592L257.614936,36.311188L228.047454,45.725334L219.977137,48.855625L188.643266,60.957864L168.051873,71.233130L167.959119,71.489138L167.582510,71.535686L146.432424,74.084138L127.893816,77.703172L118.188602,80.239987L111.307538,82.043686L100.310432,89.433033L83.216149,96.031080L55.780349,108.843159L52.478772,112.008359L30.867456,132.651980L12.014922,177.523338L8.831292,196.526170L8.273759,199.854283L5.113993,218.717472L0.000000,254.430684L1.516972,297.463410L4.802291,306.062971L10.619756,321.272209L44.221504,334.084275L58.714080,337.784762L59.099672,335.480685L66.843872,344.720267L90.694970,366.899915L102.155854,384.552866L122.173158,409.339141L139.546850,437.302245L156.275781,469.128744L164.710776,489.155580L170.091428,501.932723L176.870588,528.115391L182.425529,571.834618L184.922411,615.553833L188.415184,664.428108L186.002252,708.147297L178.815415,751.214816L174.895489,769.810299L170.007896,793.013920L167.802584,813.587640L178.329238,823.874498L179.547960,823.979229L186.404927,831.403454L193.194343,837.559277L201.744588,846.787193L210.215418,852.605550L216.676060,858.761372L226.386766,864.917194L236.007425,869.699883L246.456807,873.458541L256.089950,876.193169L267.289929,879.276898L279.724083,880.638393L282.128753,882.360627L290.095674,882.232623L296.601868,881.418053L296.609355,881.313322L297.407253,880.533663L298.339990,880.021647L298.893736,881.185319L298.902852,881.429690L300.171875,882.907552L302.006363,884.641422L302.620206,885.863277L326.787167,888.248803L345.937863,891.123071L345.873136,890.075767L346.043797,889.051736L346.021131,888.469900L347.059193,886.608026L347.513392,886.096011L348.455818,885.525812L349.263401,884.687969L349.664965,884.431961L350.031348,884.327231L350.196131,884.175954L350.495212,884.175954L352.315009,882.767912L353.942872,881.674061L355.402584,881.290049L355.819630,881.359869L358.327520,880.847854L358.854502,880.975858L359.783320,880.906038L364.198081,880.975858L364.585764,881.162045L366.290526,881.162045L368.936799,881.674061L369.202911,881.871885L371.614103,881.999889L372.528769,882.314080L375.933838,882.639908L377.107435,882.895915L378.253913,882.895915L378.580114,883.151923L379.776711,883.210107L381.069941,883.466114L382.197601,883.279927L382.724584,883.407931L383.486650,883.919946L383.785731,883.919946L384.859696,883.338110L385.456191,883.407931L385.733940,883.535935L386.443645,884.362141L387.399312,884.490145L388.277737,884.303958L388.949866,883.919946L389.358883,883.978130L390.006834,884.815973L391.227278,884.431961L391.596144,884.431961L392.832563,885.327988L393.838349,885.514176L395.401875,885.583996L396.181097,886.352019L397.294881,886.608026L398.424480,886.410202L399.119277,886.608026L400.340159,888.016069L401.747508,887.946248L402.515098,888.784092L403.327291,889.354290L404.004936,889.296107L404.768625,890.576145L405.428221,891.344168L406.360942,890.832153L406.916717,891.146344L409.225893,893.322409L411.013612,895.696298L412.362494,896.336317L413.232572,896.918153L413.546263,898.326195L413.730628,899.792420L414.326248,900.944455L415.221830,901.014275L416.034035,901.584474L416.283270,901.584474L416.565194,901.328466L416.638876,900.886271L417.044604,900.246252L418.075898,899.920424L419.131461,895.859212L441.440984,903.888542L457.313507,909.625441L517.768090,931.409360L518.493080,930.408603L518.704099,930.338782L519.172942,930.396966L520.004567,930.850798L520.792433,930.908981L522.062699,930.106048L522.928099,929.698763L525.419072,928.988924L526.527065,928.860920L527.770204,929.058745L528.744723,929.372936L529.763558,930.199142L539.064223,929.186748L542.737671,927.662340L543.514451,927.068867L544.978290,926.300845L545.905439,925.463002L547.438787,924.636795L548.898477,924.252784L552.784894,923.484761L553.562789,923.542945L554.551148,923.414941L555.983705,923.612765L556.852430,923.484761L557.869592,923.542945L559.398790,923.100750L561.153691,923.158933L562.369687,923.100750L565.756246,922.460731L566.962827,922.518914L567.751807,923.228754L568.060860,923.228754L569.091307,922.728375L569.282943,922.774922L571.045864,922.006899L571.603875,921.948716L572.485902,922.518914L573.294810,922.390911L574.130583,922.460731L575.102627,923.926956L575.598334,924.182964L576.596662,924.054960L577.687480,923.670949L578.056350,923.670949L579.551782,924.508792L580.133053,924.310968L580.548435,923.612765L581.797659,923.414941L582.653358,922.646918L584.400499,922.332727L585.199716,922.262907L585.616772,922.332727L586.978148,921.820712L589.105788,921.436700L590.013008,921.436700L591.616984,921.622888L592.539717,921.948716L593.964244,922.134903L595.969501,922.844742L596.289906,922.716738L597.143132,923.100750L599.677049,923.868773L599.955090,924.054960L601.744064,924.566975L602.292384,924.566975L603.215120,924.892803L604.515870,925.463002L605.767897,926.684856L606.659345,927.138688L608.718879,927.522699L609.471312,928.092898L610.169477,928.988924L610.273617,929.500939L610.964297,930.082775L611.361695,930.210779L613.317369,930.140958L614.572141,930.268962L615.077823,930.524970L616.393025,932.445027L616.848582,932.642851L618.087835,932.445027L618.379710,932.189019L619.446473,933.026862L620.615353,931.874828L621.163674,931.874828L624.486886,933.410873L625.638926,933.736701L626.845511,933.794885L628.130209,934.341810L628.335413,934.306900L629.359822,935.458934L630.093146,935.784762L631.152949,935.586938L631.813414,935.272746L634.078143,935.202926L634.296092,935.330930L635.263132,935.330930L637.774096,936.296777L638.959364,936.482964L639.335447,936.738972L640.318009,937.064799L641.199777,937.576815L641.460642,937.506994L642.292283,937.960826L644.907643,938.659028L646.032816,938.787032L647.460970,939.310684L648.304521,939.752879L648.543789,939.752879L651.969480,941.032917L653.486264,941.742756L655.692601,942.382775L656.020497,942.568962L656.557192,942.638782L658.770745,943.534809L659.716750,943.720996L661.065714,944.361015L661.917862,944.931213L662.115314,944.942850L663.101247,945.966880L663.527233,947.060731L663.378023,947.956757L662.931385,948.782963L702.339408,965.376905L702.540172,965.248902L703.627585,964.166688L704.571869,963.584853L705.857657,963.526669L706.679917,964.096868L708.145157,964.038684L709.132782,964.992894L709.441837,964.992894L710.162107,964.678703L711.086529,964.934711L711.916746,964.678703L712.420996,964.224872L712.506245,963.712857L711.906341,962.944834L711.737520,961.024778L712.197418,960.058931L712.591724,959.546916L713.001495,958.522886L713.303046,958.208695L713.694887,958.010871L714.243211,958.010871L714.748909,958.266878L715.464321,959.418912L715.860073,959.616736L716.120654,959.488733L716.680603,959.418912L716.972185,959.104721L717.269825,958.394882L718.104164,957.754863L718.563853,957.568676L719.187741,957.114845L719.521949,956.544646L719.884973,956.160635L720.607182,955.834807L722.072419,955.776623L723.053554,955.392612L724.117475,954.810777L725.084518,954.810777L725.795843,953.472556L726.300097,953.018724L728.298122,952.634713L729.304694,951.738687L730.660198,950.842660L732.338106,950.644836L733.519724,950.074638L736.145070,947.060731L738.712043,944.756663L740.078957,944.570475L740.490457,944.314468L742.278028,944.116644L742.370566,944.698479L742.806474,944.954487L744.150637,944.186464L744.886661,943.418441L745.728505,943.092614L746.099785,941.940580L748.102970,940.148527L748.529943,939.380504L748.605513,938.926673L748.486636,937.844459L748.571896,937.332444L747.165528,935.540391L747.100151,935.214563L747.274805,933.806521L747.223248,933.038499L746.507868,931.886465L746.436655,931.176625L746.780845,930.606427L747.377587,929.896587L748.341542,929.256569L749.526530,929.384572L750.204174,929.326389L750.733652,929.140201L750.883755,929.256569L752.032717,928.942377L754.391348,929.326389L754.651932,929.198385L755.879833,929.128565L756.946896,930.024591L757.603223,930.094412L758.130483,929.861677L758.292493,929.966408L759.404612,929.454393L761.267525,929.582396L761.429790,929.326389L761.561817,928.174355L762.014245,926.894317L762.638141,926.440485L763.825603,926.254298L765.699861,926.254298L766.731128,925.928470L767.847379,925.032443L768.867018,924.776436L769.779795,925.102264L770.387932,925.102264L771.081334,924.590249L771.535703,923.298574L771.941369,922.658555L773.285541,921.890532L774.214078,921.762528L774.673770,921.576341L775.387068,920.226483L776.188477,919.784288L776.698297,919.656284L777.750601,919.144269L778.864422,919.400276L780.206120,918.946445L782.898602,917.026388L784.513049,916.072178L784.730999,916.200181L785.223636,915.816170L786.797388,915.106331L788.457827,914.594316L790.464400,913.500465L792.771475,913.116453L793.923513,913.442281L794.655417,913.058270L795.289006,912.546255L796.032538,912.092423L796.820122,912.092423L797.339632,911.906236L798.318294,911.836415L799.241035,912.162243L799.767757,912.232064L800.511288,911.778232L801.295517,911.080029L802.398228,910.684381L803.365262,910.684381L803.641369,910.882205L804.111630,911.650228L804.134646,912.290247L804.032195,912.546255L804.149114,913.640105L804.388380,913.640105L806.043264,912.802262L806.732532,912.674258L808.176442,912.744079L808.458622,912.546255L809.088074,912.418251L809.641948,912.744079L810.977076,913.826293L811.276159,913.826293L812.616197,913.442281L813.982333,914.338308L815.486060,914.408128L816.149879,914.792140L816.400538,915.501979L816.913719,916.072178L818.534231,914.722319L819.750222,914.664136L820.157591,914.792140L821.773971,913.826293L822.677829,913.128090L824.479215,912.488071L825.874935,912.488071L827.168206,912.744079L828.167950,913.325914L829.007086,914.093937L829.298955,913.837929L829.708752,912.813899L830.743870,912.045876L831.483265,911.976056L833.150961,912.557891L833.783774,913.128090L834.290885,914.093937L834.376807,915.373975L834.248912,916.141998L834.484327,916.584193L835.491292,917.422036L836.190914,919.027902L837.210550,918.771894L837.753310,918.446066L839.653011,917.934051L840.505972,918.259879L841.594352,919.027902L842.470567,919.214089L843.018887,919.214089L843.632583,919.539917L844.124454,920.238119L845.156868,920.563947L845.533235,920.878138L845.675616,921.459974L846.816318,921.913806L847.471890,923.065840L849.395301,924.985897L850.161855,925.172084L850.835059,925.020807L874.885039,914.221941L874.787816,913.907750L873.183394,911.149850L873.184159,910.067636L874.081027,908.333766L875.915352,907.495923L879.145164,907.437739L880.943840,907.891571L883.451953,907.437739L883.722224,907.251552L884.743516,906.925724L885.066388,906.483529L887.595537,905.843510L888.833121,905.715506L890.406863,905.005667L891.893403,904.819479L893.509777,903.853632L894.789993,903.469621L895.131708,903.213613L895.948873,902.317587L896.690461,901.875392L897.957627,900.851361L898.174154,900.269526L897.873369,899.501503L896.366288,898.733480L896.165522,898.861484L893.919286,897.383621L893.196433,895.917396L893.365555,894.183526L894.655074,891.169617L895.477802,890.599419L896.673780,888.865549L897.436971,888.353533L898.456328,888.039342L900.732385,887.841518L901.927331,887.969522L902.282090,888.353533L903.089959,890.087403L903.581812,890.785606L904.484889,891.169617L904.766790,890.913610L905.303478,890.983430L906.648283,892.007461L907.898911,892.519476L908.915829,893.357319L909.485462,893.229315L910.574843,892.135465L911.036193,891.879457L912.810464,891.821273L913.912891,891.367442L915.386383,890.541235L916.525651,890.285227L918.022399,889.319380L921.648962,887.597147L922.661981,888.039342L923.092081,888.749181L923.615210,894.707178L923.516121,895.661388L923.701126,895.987216L923.470498,896.953063L944.928362,889.028463L948.305982,887.783334L963.528118,882.162802L963.425629,881.580967L963.596170,880.556936L964.330514,879.020890L964.715146,878.567058L964.757782,878.311051L965.460876,877.740852L966.132961,877.356840L967.082809,877.100833L967.675418,876.775005L969.755630,875.238959L970.839219,874.598939L971.879891,874.156744L972.101977,873.900737L972.671610,873.772733L973.283880,873.388721L974.875875,871.910859L976.161612,871.014832L977.845844,870.060621L978.405508,869.932617L980.097228,869.292598L982.133734,869.036590L982.680947,869.222778L984.221286,846.507911L986.004428,830.716888L986.272248,827.912439L988.616397,794.875796L988.581782,785.391869L988.720171,771.101975L989.336804,762.258066L994.292487,694.858154L994.357126,694.171587L994.982005,683.907993L995.641489,672.899647L995.814157,666.604177L996.764344,649.311995L997.229599,640.665903L998.806779,612.388642L998.806296,610.061295L998.802396,606.081532L993.835447,560.337521L991.845847,560.372431L991.058827,547.409105L990.297623,534.829790L990.078251,531.187490L990.558798,527.114631L993.408472,508.135106L992.474069,487.223880L1000.000000,440.490714Z "/></g><g fill="#000" font-family="Arial" font-size="12px" id="mylayer-label" stroke="none"><text text-anchor="middle" y="517.115833944"><tspan dy="0" x="514.462898889"><![CDATA[Y]]></tspan></text></g></svg>