<?xml version="1.0" encoding="utf-8"?><!DOCTYPE svg  PUBLIC '-//W3C//DTD SVG 1.1//EN'  'http://www.w3.org/Graphics/SVG/1.1/DTD/svg11.dtd'><svg enable_background="new 0 0 1000 1001" height="1001px" pretty_print="False" style="stroke-linejoin: round; stroke:#000; fill: none;" version="1.1" viewBox="0 0 1000 1001" width="1000px" xmlns="http://www.w3.org/2000/svg" xmlns:xlink="http://www.w3.org/1999/xlink"><defs><style type="text/css"><![CDATA[path { fill-rule: evenodd; }]]></style></defs><metadata><views><view h="1001" padding="0" w="1000"><proj flip="auto" id="robinson" lon0="-99.9860905795"/><bbox h="0.32" w="0.31" x="-1384.35" y="-621.85"/></view></views></metadata><g class="" id="mylayer"><path d="M480.462233,0.000000L441.125132,110.056618L300.825121,111.373087L287.506258,149.550704L223.554917,152.078326L191.048380,229.697503L184.023803,229.539526L128.944443,229.802821L124.795679,229.118255L123.648575,226.959239L86.136167,227.959759L84.741940,231.856519L23.479876,400.944752L150.848704,408.001083L133.007424,456.921506L245.941458,462.714026L195.648163,598.311906L273.122497,607.000719L256.448421,662.925132L237.743589,725.484747L217.155568,775.300812L212.524550,775.248153L209.879266,782.883813L171.609654,883.937984L131.068274,990.995674L135.453703,989.468533L162.812550,989.310553L184.484981,989.784494L236.470988,990.785034L276.649020,991.522275L289.349047,992.154195L311.574880,992.154195L331.778056,992.680795L338.971139,993.681336L342.800526,993.470696L573.802341,998.368079L628.735764,999.000000L667.716665,891.521008L706.308199,782.515195L709.218169,780.461466L711.615058,777.933799L714.265881,772.667826L721.869274,751.761923L748.597345,676.300664L763.582041,634.278341L780.784416,585.936933L799.915855,527.432329L811.292503,500.154788L813.842279,494.098966L828.477781,451.866217L828.627821,449.180595L828.694795,447.442840L830.416940,440.123205L849.817734,382.303407L859.882444,352.972270L897.310259,244.284030L918.671547,182.304499L932.947699,140.967318L976.520124,11.426915L931.466768,9.899816L901.335341,9.109937L873.004381,8.056765L833.617576,7.740813L780.132150,6.055738L722.010291,6.003079L669.005104,5.002566L632.494089,4.160029L591.185674,2.896222L545.639369,1.316465L480.462233,0.000000L480.462233,0.000000Z " data-aland="2607417" data-awater="0" data-classfp="C1" data-funcstat="A" data-geoid="2021350" data-intptlat="+37.0400593" data-intptlon="-099.9867177" data-lsad="25" data-mtfcc="G4110" data-name="Englewood" data-namelsad="Englewood city" data-pcicbsa="N" data-pcinecta="N" data-placefp="21350" data-placens="02394693" data-statefp="20"/></g><g fill="#000" font-family="Arial" font-size="12px" id="mylayer-label" stroke="none"><text text-anchor="middle" y="463.485904161"><tspan dy="0" x="506.015081997"><![CDATA[Englewood]]></tspan></text></g></svg>