<?xml version="1.0" encoding="utf-8"?><!DOCTYPE svg  PUBLIC '-//W3C//DTD SVG 1.1//EN'  'http://www.w3.org/Graphics/SVG/1.1/DTD/svg11.dtd'><svg enable_background="new 0 0 1000 1001" height="1001px" pretty_print="False" style="stroke-linejoin: round; stroke:#000; fill: none;" version="1.1" viewBox="0 0 1000 1001" width="1000px" xmlns="http://www.w3.org/2000/svg" xmlns:xlink="http://www.w3.org/1999/xlink"><defs><style type="text/css"><![CDATA[path { fill-rule: evenodd; }]]></style></defs><metadata><views><view h="1001" padding="0" w="1000"><proj flip="auto" id="robinson" lon0="-75.4682191027"/><bbox h="0.37" w="0.27" x="-1031.8" y="-667.47"/></view></views></metadata><g class="" id="mylayer"><path d="M559.789587,0.000000L559.153199,0.499193L554.358790,4.492741L550.466633,9.167014L544.314730,16.473415L523.378180,33.219208L518.068627,37.439707L514.756786,41.796356L512.393903,44.882320L505.347335,54.004084L502.961396,57.044678L496.017070,66.075714L492.635140,70.659315L461.957357,111.730495L451.691405,125.390754L449.453859,128.431417L442.695100,137.462660L440.397408,140.457952L435.638745,146.856995L421.325717,166.054204L416.544022,172.407916L409.771323,181.484670L406.185065,186.249976L400.260478,191.741434L390.713088,196.234451L385.391860,201.453622L381.118569,208.442785L380.193160,211.438146L379.527366,214.433509L380.354548,222.920388L375.218779,231.861135L371.457084,236.354211L362.481404,245.839614L356.970717,250.831943L352.977005,253.555035L346.250108,257.321983L343.568031,258.320452L332.106081,255.325046L325.389138,262.541256L325.210939,263.358186L331.783649,267.533612L338.043413,274.522923L339.075568,277.064495L339.232065,277.518347L339.815095,279.832995L340.760434,283.736131L340.873549,286.731564L337.494391,307.155047L328.762793,338.062839L321.878069,375.960476L320.219027,385.173984L316.022480,408.366726L314.537389,412.814668L311.329794,422.119059L310.125090,425.659274L308.010078,431.786578L307.058276,436.189166L306.275579,439.684009L305.454917,443.541957L304.270099,446.537543L299.927174,453.754195L298.973374,455.161217L272.787560,492.152510L268.650008,498.824606L259.239800,513.802832L241.396384,542.397827L233.205547,555.469911L184.534396,626.005646L167.437969,650.743459L166.414824,654.056979L166.260652,654.556277L165.826167,655.963390L165.686011,656.417297L165.139402,658.187537L167.128713,661.954973L176.359364,667.855786L179.248072,669.671423L183.010186,674.664430L185.361741,684.105774L184.823204,688.372545L180.230123,707.573085L172.321440,725.139640L170.238359,729.724209L163.332645,736.714555L156.372692,741.117574L152.486359,743.614133L151.854987,743.977269L147.633767,750.922255L147.430925,752.420196L148.596299,753.691176L149.582022,754.462842L152.266393,756.460098L154.816422,758.411964L154.277984,762.678836L153.493937,766.900321L150.543629,775.615664L146.809326,788.552546L144.295093,797.177164L141.935030,805.302483L139.167261,831.448906L136.314334,842.252526L135.093546,846.928054L139.212054,854.372598L175.927831,880.337855L208.145338,892.639651L209.495434,894.273842L216.972181,913.430251L223.933748,920.557191L242.650723,934.901910L272.762366,958.234915L289.816770,999.000000L322.163700,974.350225L436.133777,926.549281L449.919066,925.868361L484.309567,909.980272L540.495191,894.137659L568.941578,886.693020L655.929013,811.430531L662.734502,805.484055L667.724256,800.853982L673.860496,795.633809L680.999805,789.687363L686.912693,784.830350L691.487070,781.425906L695.138323,778.248429L706.823206,771.394167L729.489064,755.279902L740.243402,747.835593L753.157183,738.802584L757.706024,736.442204L766.184746,702.126111L775.807671,678.522668L782.023108,636.763166L786.710253,594.550324L819.811347,515.209881L846.452909,458.837633L864.906454,377.821330L862.896840,372.919571L842.757121,346.141578L822.882366,313.463661L756.779535,213.843513L744.780803,199.139032L730.711572,181.893124L707.050383,159.201286L685.720582,134.966585L672.459680,124.710008L599.091887,34.716804L559.789587,0.000000Z "/></g><g fill="#000" font-family="Arial" font-size="12px" id="mylayer-label" stroke="none"><text text-anchor="middle" y="525.187935238"><tspan dy="0" x="507.448472458"><![CDATA[N]]></tspan></text></g></svg>