<?xml version="1.0" encoding="utf-8"?><!DOCTYPE svg  PUBLIC '-//W3C//DTD SVG 1.1//EN'  'http://www.w3.org/Graphics/SVG/1.1/DTD/svg11.dtd'><svg enable_background="new 0 0 1000 1001" height="1001px" pretty_print="False" style="stroke-linejoin: round; stroke:#000; fill: none;" version="1.1" viewBox="0 0 1000 1001" width="1000px" xmlns="http://www.w3.org/2000/svg" xmlns:xlink="http://www.w3.org/1999/xlink"><defs><style type="text/css"><![CDATA[path { fill-rule: evenodd; }]]></style></defs><metadata><views><view h="1001" padding="0" w="1000"><proj flip="auto" id="robinson" lon0="-95.6061671706"/><bbox h="0.43" w="0.66" x="-1267.15" y="-758.73"/></view></views></metadata><g class="" id="mylayer"><path d="M1000.000000,369.829904L998.579909,369.780580L908.999640,367.561011L952.607573,273.425566L951.590840,273.499553L943.764576,275.447884L934.532973,278.086762L927.729645,280.676314L925.256686,282.106732L913.868978,282.156057L907.161578,278.284061L899.281447,274.905311L891.421100,273.326916L860.071335,273.030967L757.178979,274.165438L743.981325,274.313413L664.064788,271.107297L582.640087,271.896495L589.400834,255.002691L596.343983,239.218638L603.376471,223.286550L608.233769,211.275787L614.029314,197.045333L622.087695,179.263363L615.545784,179.066059L574.476542,178.597463L564.470837,178.178192L556.978962,176.969706L547.054075,177.191673L487.239939,178.918082L449.658494,259.244645L444.772471,272.044469L438.165404,271.600545L422.973047,270.614048L325.417571,270.194786L312.110559,269.676875L298.456112,268.616389L279.473796,268.147802L253.124648,268.345102L242.700241,267.235291L261.659187,308.963977L272.077939,303.488960L283.453706,327.583914L244.860512,348.423349L237.282933,341.271365L231.388479,334.292004L225.811056,325.906890L221.152063,317.743719L215.395885,300.702125L206.021473,267.876515L191.748769,268.394427L202.500787,306.843025L126.901921,308.544719L90.672241,309.210599L80.442309,330.987284L77.554289,337.202127L74.697862,343.392299L73.760097,345.439247L64.796106,364.724894L39.330101,418.635457L23.846232,452.027107L12.118894,477.304953L0.000000,503.248497L0.000000,503.248497L176.026251,447.563394L215.780589,446.478291L232.828806,443.370951L162.040176,598.192614L159.888245,602.878112L158.183231,606.651167L156.446638,610.448880L148.822088,627.217959L177.781835,627.143978L183.826958,627.119318L259.558163,630.374484L262.487210,630.497786L282.410383,631.015653L280.263560,635.947718L278.546598,639.918026L252.284533,690.274030L236.764021,721.567442L233.227485,721.542782L105.553451,721.764720L64.282864,812.043300L81.604748,813.152967L139.356946,815.939463L194.696862,818.183455L246.817377,820.624719L274.175905,820.205512L274.826694,820.871311L482.915466,817.591633L609.865072,818.282092L688.244687,818.454706L896.916241,822.030294L913.099838,786.348256L938.543553,728.891398L943.798386,716.882076L960.368172,679.818180L961.175371,678.091976L967.203844,665.071443L968.394607,662.482128L981.112180,667.907358L983.853314,661.273780L991.601838,643.074541L991.945307,642.211432L976.814189,642.162111L966.756987,642.236092L973.718611,627.563204L983.852940,627.538544L987.587301,619.252655L990.822792,612.076470L992.688478,607.958173L994.369658,604.234439L979.653045,604.456384L976.922815,604.850952L968.448716,605.097557L965.933101,610.991410L970.619239,610.572182L955.701084,642.088130L928.553829,642.186772L920.985251,642.211432L917.859525,640.879777L906.986646,636.268302L896.834338,632.002066L882.569753,625.984941L883.492343,624.012111L939.500436,504.506212L951.821702,480.560235L972.737044,482.212537L981.725460,482.237198L987.192176,470.547768L956.764817,470.547768L962.191567,458.858306L988.020519,404.701640L985.006522,404.331715L1000.000000,369.829904Z M320.301761,389.559351L315.029361,387.290470L331.768002,369.977875L340.521433,373.331887L363.896603,382.234805L346.612849,400.755772L344.196523,399.793966L328.939288,393.332598L324.604731,391.458306L320.301761,389.559351Z "/></g><g fill="#000" font-family="Arial" font-size="12px" id="mylayer-label" stroke="none"><text text-anchor="middle" y="527.119851942"><tspan dy="0" x="539.690472011"><![CDATA[N]]></tspan></text></g></svg>