<?xml version="1.0" encoding="utf-8"?><!DOCTYPE svg  PUBLIC '-//W3C//DTD SVG 1.1//EN'  'http://www.w3.org/Graphics/SVG/1.1/DTD/svg11.dtd'><svg enable_background="new 0 0 1000 1001" height="1001px" pretty_print="False" style="stroke-linejoin: round; stroke:#000; fill: none;" version="1.1" viewBox="0 0 1000 1001" width="1000px" xmlns="http://www.w3.org/2000/svg" xmlns:xlink="http://www.w3.org/1999/xlink"><defs><style type="text/css"><![CDATA[path { fill-rule: evenodd; }]]></style></defs><metadata><views><view h="1001" padding="0" w="1000"><proj flip="auto" id="robinson" lon0="-94.5480027774"/><bbox h="0.42" w="0.55" x="-1234.45" y="-798.21"/></view></views></metadata><g class="" id="mylayer"><path d="M1000.000000,478.811807L990.207233,478.901039L977.456438,478.990272L965.557554,479.079504L954.936538,479.168736L973.917454,437.527043L955.449372,437.646019L931.699139,437.824484L927.581600,437.824484L924.348924,437.854228L914.603568,437.943460L911.361598,437.943460L909.572427,437.973204L908.292658,440.769145L903.394235,451.447263L859.429921,547.401687L878.083526,547.193478L969.023104,546.122690L1000.000000,478.811807Z M0.000000,836.336653L10.835794,829.435988L17.451368,825.539492L42.213080,810.191464L73.285268,789.667944L91.989290,776.669718L107.649671,765.366915L114.460519,760.429376L143.318343,738.954058L161.724934,725.004028L192.199000,700.673280L189.582781,706.235443L184.377464,716.764886L180.790914,723.992725L108.725084,875.033932L315.640068,876.550890L362.841479,875.450352L389.363711,875.123165L401.164701,874.944700L468.974310,873.903650L488.169292,873.606208L495.506655,873.457486L513.361958,873.189788L520.424627,873.070811L595.121882,871.881040L611.651865,871.613342L615.523825,871.583598L751.042652,576.164248L800.926467,467.419827L814.603567,438.865526L907.091246,247.254626L916.826896,227.058481L918.321711,223.965110L822.032677,225.541540L734.196334,227.058481L747.027718,200.556629L694.353197,201.538179L688.830475,201.508435L676.961879,226.017443L675.342620,229.319021L657.526850,229.705692L658.383367,228.129263L660.637565,223.905623L661.278463,222.775353L663.139460,219.414287L663.771072,218.254273L665.641363,214.922951L666.541016,213.257291L671.536216,204.928988L673.524838,201.597667L678.053204,194.578098L654.503657,194.637586L667.585318,176.285583L690.647143,176.255839L694.618236,170.634238L700.068886,162.930564L700.765533,161.978759L702.836900,159.063855L703.500599,158.082306L705.194895,155.702793L707.170727,152.936609L710.282883,148.504767L711.967900,146.095510L712.693303,145.084218L714.068035,143.121120L714.827281,141.990852L715.496075,140.949815L716.718656,139.105693L720.400782,133.543583L721.614081,131.669718L723.758253,128.457377L724.250343,127.684036L726.453810,124.055280L727.419419,122.449110L723.845502,122.597829L672.331552,122.746549L667.123249,127.892243L612.074156,182.353344L563.809606,230.122108L553.643823,230.151852L466.548882,230.330315L427.807534,230.389803L420.173686,230.419547L419.287977,230.538523L363.968710,342.941021L354.794302,361.679749L295.789605,362.780278L285.312109,384.166231L283.793478,387.259610L259.793342,387.319098L248.423683,387.586794L240.427985,403.886525L259.786770,403.589085L250.588895,422.327833L246.022969,431.726953L244.145917,435.415215L240.433197,442.999950L239.263817,445.468707L243.220798,445.409219L245.734272,445.349730L249.582223,445.319986L261.098204,445.141522L264.927574,445.052290L270.744725,444.963058L288.181801,444.725105L293.989660,444.606129L299.011522,444.546641L314.082190,444.308688L308.571194,455.908873L291.991237,490.709439L286.471188,502.279888L267.840922,541.423121L211.864620,658.793482L210.982931,660.667365L112.598449,660.488900L61.469342,767.686964L40.681561,767.657220L32.720589,767.627476L0.000000,836.336653Z " data-aland="4158292" data-awater="102240" data-classfp="C5" data-funcstat="A" data-geoid="2706256" data-intptlat="+47.7209335" data-intptlon="-094.5454225" data-lsad="25" data-mtfcc="G4110" data-name="Blackduck" data-namelsad="Blackduck city" data-pcicbsa="N" data-pcinecta="N" data-placefp="06256" data-placens="02394181" data-statefp="27"/></g><g fill="#000" font-family="Arial" font-size="12px" id="mylayer-label" stroke="none"><text text-anchor="middle" y="538.821270133"><tspan dy="0" x="512.270725152"><![CDATA[Blackduck]]></tspan></text></g></svg>