<?xml version="1.0" encoding="utf-8"?><!DOCTYPE svg  PUBLIC '-//W3C//DTD SVG 1.1//EN'  'http://www.w3.org/Graphics/SVG/1.1/DTD/svg11.dtd'><svg enable_background="new 0 0 1000 1001" height="1001px" pretty_print="False" style="stroke-linejoin: round; stroke:#000; fill: none;" version="1.1" viewBox="0 0 1000 1001" width="1000px" xmlns="http://www.w3.org/2000/svg" xmlns:xlink="http://www.w3.org/1999/xlink"><defs><style type="text/css"><![CDATA[path { fill-rule: evenodd; }]]></style></defs><metadata><views><view h="1001" padding="0" w="1000"><proj flip="auto" id="robinson" lon0="-87.6201541015"/><bbox h="0.75" w="1.41" x="-1163.35" y="-755.21"/></view></views></metadata><g class="" id="mylayer"><path d="M192.038528,547.123091L189.868747,551.466831L193.492044,551.777920L195.786279,547.318963L192.803675,547.134613L192.038528,547.123091Z M150.187245,584.856815L133.771642,598.717276L152.009782,589.154376L160.491515,584.764642L161.925596,580.801198L161.416016,580.236637L161.280553,580.202072L155.417141,581.722930L154.704233,582.137709L151.896524,583.716174L151.046252,584.188560L150.187245,584.856815Z M1000.000000,434.643053L935.175478,422.221652L934.087581,422.613423L882.272236,441.176353L881.723820,441.360714L863.187735,447.986169L860.617726,447.145026L855.599326,445.485783L850.590328,443.826538L830.479324,437.189545L810.350187,430.529482L769.098938,417.117099L762.461611,414.962351L727.815798,403.693094L673.091633,385.890287L640.236430,368.663455L621.747836,359.030184L619.195193,358.500122L613.309380,357.267152L591.771172,352.784663L591.186891,352.657909L579.745042,350.825731L579.450911,350.745069L569.371555,348.186931L561.946603,340.086138L561.610981,325.405516L559.001397,322.178990L554.823244,317.154816L547.696988,315.069088L536.380372,315.599163L535.964827,315.714397L533.632617,316.336658L531.300407,316.958919L521.839138,319.494055L514.517947,320.934471L506.196003,319.229018L505.826761,319.148355L503.227748,318.595234L487.928373,312.153675L485.908371,311.300944L469.159528,312.061488L467.818342,312.211292L445.903680,314.619677L413.657800,316.221424L394.754797,313.766948L392.006217,313.409723L391.378531,312.660704L387.041098,307.417558L377.305370,295.571451L372.566831,288.173355L362.607961,287.309090L342.906172,290.777673L318.176394,298.290992L313.942837,299.581620L304.111159,299.823613L299.052001,299.950371L293.997778,300.065606L287.214832,300.226934L286.902764,299.881230L283.552144,296.193719L280.206004,292.517723L279.177835,291.388419L279.478863,290.685485L283.067975,282.238724L285.891722,275.601133L297.865559,250.053093L299.536091,241.986429L295.801800,233.297439L269.498216,291.319278L268.481485,293.474174L268.098208,293.842926L264.862008,299.996465L263.370164,302.646859L261.882777,305.308773L259.297448,309.065406L259.751123,309.825950L260.952801,312.545470L261.283868,314.008939L261.522276,315.864200L261.588789,317.857740L261.505064,319.851278L261.320025,321.072751L260.920255,322.686016L260.070699,326.511752L258.635936,332.515377L257.767002,336.145198L256.924188,339.648256L255.078428,347.357264L250.034922,367.292215L249.139757,372.189496L248.561242,375.404409L239.821190,375.289179L230.699632,375.231564L229.413150,375.231564L235.892980,355.319748L218.992725,354.985578L218.514057,356.103319L207.978924,389.278019L207.656744,390.096144L234.245723,390.326602L245.582544,390.430308L241.164348,399.256812L231.419682,419.732752L229.697041,422.878444L228.244666,425.217545L226.670692,427.533597L224.970662,429.815079L217.049398,440.024097L214.391048,443.688268L212.786522,446.119521L211.942798,447.410043L210.421359,449.910427L208.656724,453.044544L206.752194,456.812390L205.675470,459.151446L204.539226,461.870739L203.240493,465.408119L191.774636,499.202991L191.014703,501.438292L141.069971,505.459523L140.714723,506.289117L126.427049,547.791359L128.575563,547.664619L131.386872,547.503313L132.515247,547.434182L132.947719,547.411138L141.823982,546.881132L141.439156,547.779838L126.155083,548.908980L128.684157,558.771663L129.512200,561.421674L131.926767,570.696681L133.222772,570.696681L126.616079,588.209605L127.846355,588.209605L123.984190,599.247267L122.418785,603.429578L133.843096,595.479722L138.553024,591.147611L154.128695,577.713393L164.514054,577.102744L164.847435,576.192531L176.265876,544.853281L193.187644,545.821119L196.892894,546.028513L205.996372,546.546997L211.376950,547.030916L211.494102,547.042438L208.571735,553.955547L203.087226,556.916653L197.987317,558.760142L197.829454,559.128839L185.002564,564.060159L186.710002,571.434070L205.210340,561.894067L229.652483,549.070286L230.866035,549.197026L232.933714,549.346811L237.351468,549.842250L240.885605,549.922903L239.040992,551.708789L237.374865,551.213350L224.357942,558.080356L214.905923,562.850374L196.968163,572.436459L190.351921,575.627969L188.926270,587.161138L179.057456,589.592197L174.477739,590.571532L175.066421,584.107909L159.311096,592.368899L159.435376,592.034773L159.480249,591.908036L159.539922,591.746734L143.368894,601.263534L128.856934,608.199475L127.952207,608.579684L120.683432,612.439373L122.593411,616.598610L114.901711,620.700231L114.932870,618.960500L115.301610,615.423425L106.977627,619.444399L107.225099,620.423717L108.200766,620.930659L110.045392,621.426079L110.429361,623.073636L94.911433,628.914965L93.515008,629.456468L84.822181,635.194085L85.710298,635.620373L85.772056,635.585809L86.517108,636.346214L76.032141,642.913338L79.731423,647.521832L92.606589,641.864905L89.831568,649.376748L89.307043,650.448220L86.392031,658.374788L81.253770,672.107944L80.869185,673.225487L48.241662,673.467429L42.750652,688.133666L29.838865,688.260396L27.942174,688.237354L31.485205,678.778625L31.768775,678.006717L30.825792,678.191053L30.211879,679.953768L26.414883,690.115269L23.652766,697.684512L23.054524,699.827397L22.176898,701.855071L21.537490,704.401181L20.419945,706.221474L12.284129,727.788351L0.000000,760.645076L0.000000,760.645076L22.190945,760.103614L48.473861,759.481507L56.414991,738.433444L59.531766,738.502568L87.846874,737.696124L104.958013,737.304422L109.493375,725.680062L111.925813,719.735365L112.922172,717.408172L113.646031,716.002638L129.049867,716.417386L134.949695,716.567156L136.521415,716.866696L138.109823,717.039508L157.396049,717.972690L166.645256,696.083107L173.457327,678.548205L174.340030,676.267042L175.053612,674.446718L178.950881,664.400338L191.423777,632.371364L201.545039,632.970473L203.525254,633.039600L237.149935,635.885363L232.480435,651.531212L203.115405,720.322924L275.114529,724.251494L288.295818,724.965778L291.360217,725.069465L294.412175,725.092506L306.847544,724.850571L311.380872,724.769926L311.178221,725.265317L298.239115,756.635943L296.371892,761.151978L319.085909,760.748761L323.281197,760.668117L330.350003,749.550816L341.019726,724.205411L344.087417,724.147807L346.013734,724.101724L356.937434,723.836748L382.575471,723.491126L381.941742,724.401263L379.717471,727.316003L378.174592,729.055628L377.145457,730.011845L376.381412,730.633961L369.553361,734.781401L386.489252,734.228410L380.104979,749.101514L372.746420,765.702561L421.254248,764.942212L427.330710,750.633748L430.414074,743.802049L439.287564,743.675322L479.071149,743.064731L482.390043,735.265268L493.996604,735.138541L498.525954,735.023335L500.319552,730.875896L501.080782,730.852854L503.995853,723.974996L512.043933,724.021079L507.790272,733.917352L503.233418,745.334287L501.340080,749.539295L512.588418,749.481692L526.738223,749.228240L530.255371,749.239761L533.381640,747.684485L535.754079,742.776716L538.571923,739.988728L542.426806,736.313647L544.488303,733.076344L551.325449,724.758405L558.656375,718.951954L562.782174,714.885123L571.465329,706.774474L578.961660,696.981738L584.795774,689.032300L588.188043,681.543667L597.586464,671.278428L608.975381,659.653635L623.505912,645.713000L637.480924,636.691853L648.088188,630.251440L667.151711,621.541292L676.018934,616.379703L685.887529,611.621350L695.855355,605.906700L699.339054,604.547164L707.109573,596.505140L710.962085,590.398708L721.782876,585.916804L730.277755,583.819868L733.248742,584.119431L736.591256,582.080101L742.319681,576.549703L747.507653,575.662534L757.166318,573.830585L767.086271,571.848852L776.061490,570.604507L780.509079,568.484510L784.482479,564.048637L790.608820,562.965592L794.025729,564.659291L792.608804,573.853628L787.781991,591.654561L789.181924,595.560373L795.015084,605.699313L799.045838,615.112346L800.299363,618.833764L803.382258,628.684539L802.489900,631.011848L803.144353,638.350918L803.648783,643.823517L806.875400,644.491749L813.758762,642.671392L815.005187,642.106851L824.492934,637.820939L831.135243,632.129416L833.849539,629.802108L840.267618,617.785316L842.413294,614.086939L847.505469,606.332995L854.060986,599.592913L858.015125,600.272683L860.432983,608.648813L858.272108,617.278374L853.413047,627.209806L847.536252,633.131771L841.078237,635.516681L832.175584,638.039843L830.777697,638.431567L830.006452,638.719599L821.307597,641.381012L815.767740,644.802822L810.876168,652.856149L809.524111,663.524734L811.778251,669.561788L818.416799,673.121797L828.550993,678.916877L829.877266,684.400872L836.889669,687.592181L841.910663,692.430977L842.343867,696.797403L839.761872,704.677681L837.664901,714.124751L841.228239,718.133980L850.107936,720.956564L864.282771,720.380527L873.068002,719.032599L886.057421,714.355167L893.456804,708.364348L898.259412,700.034773L901.145794,686.589857L903.048974,674.170213L903.623433,658.950845L901.681882,639.272620L905.123823,621.368472L910.106702,605.065631L914.656087,590.237406L919.150123,576.526660L923.749418,565.972770L933.546382,550.337690L943.621487,531.637631L951.350026,516.359433L961.619755,495.250879L968.598995,478.497514L977.798341,461.559634L983.596419,451.189424L985.576747,448.470114L988.378223,444.621593L991.770027,442.685807L1000.000000,434.643053Z " data-aland="17685733" data-awater="3372528" data-classfp="C5" data-funcstat="A" data-geoid="5549300" data-intptlat="+45.0876121" data-intptlon="-087.6269555" data-lsad="25" data-mtfcc="G4110" data-name="Marinette" data-namelsad="Marinette city" data-pcicbsa="Y" data-pcinecta="N" data-placefp="49300" data-placens="01583654" data-statefp="55"/></g><g fill="#000" font-family="Arial" font-size="12px" id="mylayer-label" stroke="none"><text text-anchor="middle" y="528.102935739"><tspan dy="0" x="490.010004875"><![CDATA[Marinette]]></tspan></text></g></svg>