<?xml version="1.0" encoding="utf-8"?><!DOCTYPE svg  PUBLIC '-//W3C//DTD SVG 1.1//EN'  'http://www.w3.org/Graphics/SVG/1.1/DTD/svg11.dtd'><svg enable_background="new 0 0 1000 1001" height="1001px" pretty_print="False" style="stroke-linejoin: round; stroke:#000; fill: none;" version="1.1" viewBox="0 0 1000 1001" width="1000px" xmlns="http://www.w3.org/2000/svg" xmlns:xlink="http://www.w3.org/1999/xlink"><defs><style type="text/css"><![CDATA[path { fill-rule: evenodd; }]]></style></defs><metadata><views><view h="1001" padding="0" w="1000"><proj flip="auto" id="robinson" lon0="-90.6608004382"/><bbox h="0.36" w="0.5" x="-1194.15" y="-775.17"/></view></views></metadata><g class="" id="mylayer"><path d="M1000.000000,142.564079L987.952050,142.860438L963.606160,143.420228L960.693642,143.420228L951.906233,143.354371L940.038855,143.189727L938.582596,143.189727L934.243398,143.123869L932.775451,143.090940L928.598220,142.959225L916.796207,142.531150L916.028361,142.531150L914.325220,142.432364L911.839443,142.366506L909.671396,142.300648L907.476871,142.234791L905.505853,142.201862L886.455232,141.642072L880.109956,141.444499L875.182775,141.213997L860.392648,140.423705L855.468571,140.127346L852.501651,140.720065L843.580614,142.366506L840.616795,142.893367L837.424712,142.926296L827.798612,142.959225L824.594842,142.959225L818.131243,143.025083L804.515633,143.156798L744.242938,143.650730L724.140351,143.782446L696.777466,143.749517L634.799985,143.617801L615.188624,142.597008L588.461794,141.148139L576.127898,140.489563L535.611084,139.501698L527.453674,139.271196L524.173581,139.205338L520.934758,139.106552L519.440337,139.073623L517.734097,139.040694L467.026243,134.628229L375.322138,138.546761L320.669827,140.851780L318.047526,147.042398L309.732928,165.844733L276.491036,240.724448L275.677445,242.535517L268.958690,258.670474L266.646632,265.585448L260.460354,279.415383L241.848871,320.905077L235.636320,334.734938L231.324091,343.921907L218.308100,371.482765L213.957793,380.636773L209.171626,391.173751L194.798514,422.817549L190.000778,433.321556L171.472105,475.337478L115.880376,601.285440L97.341931,643.267752L97.205732,643.629952L96.717695,644.716550L96.569806,645.045823L89.724939,660.521610L69.235093,706.850050L64.023392,718.572067L63.180458,720.448906L62.378793,722.292817L61.577130,724.136728L59.370584,729.108701L50.243205,749.490470L47.196873,756.273409L32.193753,790.681936L3.913065,855.481605L0.000000,864.371771L60.174811,863.877873L138.869519,864.305918L175.007496,864.207138L243.442216,858.115729L265.885064,858.675480L275.878083,863.548608L429.053869,860.519367L543.308953,859.893762L595.662516,859.597423L645.523132,859.663276L677.417941,859.696203L690.840943,829.798858L703.096294,802.502637L707.921875,791.636812L722.443162,758.940485L727.283655,748.041687L729.778396,742.839235L736.884453,727.956257L739.278821,722.918430L740.680225,719.856220L742.362531,716.168396L751.590343,695.852415L754.662406,689.069437L755.839641,686.270634L759.347970,677.808366L760.513519,674.976632L762.369535,671.255865L767.902515,659.994775L769.746849,656.241075L778.168660,637.307921L781.935590,648.733672L796.624676,648.042200L801.323983,647.778783L853.148900,532.302367L824.667444,532.927992L825.510235,531.051119L849.050295,478.333905L886.066761,396.080028L1000.000000,142.564079Z "/></g><g fill="#000" font-family="Arial" font-size="12px" id="mylayer-label" stroke="none"><text text-anchor="middle" y="495.574423931"><tspan dy="0" x="500.94429695"><![CDATA[N]]></tspan></text></g></svg>