<?xml version="1.0" encoding="utf-8"?><!DOCTYPE svg  PUBLIC '-//W3C//DTD SVG 1.1//EN'  'http://www.w3.org/Graphics/SVG/1.1/DTD/svg11.dtd'><svg enable_background="new 0 0 1000 1001" height="1001px" pretty_print="False" style="stroke-linejoin: round; stroke:#000; fill: none;" version="1.1" viewBox="0 0 1000 1001" width="1000px" xmlns="http://www.w3.org/2000/svg" xmlns:xlink="http://www.w3.org/1999/xlink"><defs><style type="text/css"><![CDATA[path { fill-rule: evenodd; }]]></style></defs><metadata><views><view h="1001" padding="0" w="1000"><proj flip="auto" id="robinson" lon0="-82.4625596613"/><bbox h="0.96" w="1.11" x="-1150.76" y="-591.95"/></view></views></metadata><g class="" id="mylayer"><path d="M1000.000000,323.465457L998.438274,321.283889L996.607709,319.117683L996.231442,318.702878L992.422458,314.585543L990.331973,312.311788L984.268269,318.272709L983.639921,318.902599L982.687322,317.704271L982.227316,317.228012L959.405871,292.907957L961.098849,290.757086L963.290951,288.759847L965.003720,286.900877L952.694742,276.730286L949.992389,273.165959L946.405701,267.158827L945.735575,265.714654L943.976840,262.472945L941.996177,259.077594L940.247177,256.527237L922.212793,237.752833L920.983523,236.462278L915.924194,231.177144L917.016990,229.963405L928.045008,215.014389L931.240463,211.127321L932.522054,209.959663L934.030229,208.838096L935.785725,207.824076L937.684655,206.656416L943.999954,181.997141L944.578723,175.236918L944.166892,168.369125L943.605667,166.033764L942.553383,161.654954L939.470102,155.924078L936.450919,151.913993L933.617001,148.779668L929.809137,145.568517L928.491012,144.462282L927.582997,143.694063L926.306738,142.618556L924.774049,141.604506L913.344882,133.307716L911.377104,131.909550L901.270219,124.749699L893.976551,119.664039L891.494141,116.852325L889.095260,112.196856L887.833928,107.664295L886.411021,102.624691L885.906783,103.669488L885.300766,104.944754L879.640813,116.437482L879.679901,117.113523L879.612945,118.035396L879.067317,126.762449L878.671905,133.768650L878.285229,143.647970L877.808996,151.898628L876.444039,175.559566L875.769168,183.164814L875.637685,189.402634L875.111800,195.563617L875.187910,197.422663L873.873718,193.397288L873.216981,189.817464L869.884835,171.503423L869.502388,168.614953L871.825144,153.757711L866.783293,155.309506L856.859044,156.477193L847.679556,156.323550L842.618465,158.443822L845.156397,179.753978L815.718586,190.355206L809.374019,199.005156L807.957888,208.100627L807.224060,212.786623L806.874504,214.999025L800.463267,215.628944L795.678049,216.074497L794.770547,216.166680L795.114470,219.239455L795.750518,221.759127L796.190981,224.847258L783.292619,228.150478L783.241390,236.277913L783.201321,241.778127L783.167486,246.802054L783.153859,250.028423L772.338366,252.363696L764.093956,257.464417L759.752737,259.169776L757.459939,236.293277L749.630437,236.631280L734.947443,269.647717L733.547766,271.921516L729.754542,270.154713L725.742878,268.403272L723.450281,267.312462L720.396729,265.422747L718.610629,263.732756L714.208892,258.893231L707.315609,251.365060L706.521330,250.504696L708.701755,244.374592L711.835733,232.267972L704.766304,227.689563L694.514908,235.617272L693.792171,234.726175L692.321697,232.897887L690.684160,230.854505L689.055944,228.596028L687.852812,226.122455L687.223587,223.986884L686.325802,214.922205L685.261509,209.452653L684.636697,203.353164L684.665217,200.618376L684.682246,198.605692L685.245768,195.486797L686.550223,190.969768L688.786581,184.593676L689.828286,181.613038L689.892072,181.428668L690.910074,179.077956L691.117504,178.693853L692.201181,176.696513L691.034271,175.590294L689.748916,174.683808L684.307602,181.213571L677.562077,183.410639L676.207972,183.840834L669.167353,173.623680L667.065015,169.352435L666.738558,168.123298L665.418492,167.478001L662.731951,165.265552L660.737343,163.283565L650.755645,153.450425L647.946359,150.500474L645.627027,147.873171L644.488762,145.983355L643.660998,144.154994L640.237279,134.751974L637.432071,127.023645L635.573141,121.876533L631.973285,113.426024L630.708666,110.675761L623.898466,98.860345L619.797544,91.715752L615.121613,83.557060L613.000802,80.714572L611.078537,79.516116L608.672460,78.517402L607.380727,78.133281L605.754731,77.365039L602.579347,74.645461L600.964330,72.340732L599.404792,69.836256L597.561600,66.901560L596.156302,64.658282L595.801727,64.120510L594.258423,66.502073L585.516199,82.466160L583.460047,85.923238L579.681797,90.409749L570.389644,103.500476L559.678632,117.436179L557.159848,121.062213L556.129653,122.322104L551.777818,133.138707L550.576626,137.010546L550.159097,138.377980L548.049454,143.525055L545.383565,151.038226L541.760516,160.410449L540.080240,164.374426L537.780347,170.796670L535.864244,175.882213L533.005051,183.456732L530.348069,190.892948L527.493607,198.359868L523.895813,207.777984L519.042610,221.037026L511.302300,241.609127L508.676816,248.614967L507.443549,252.194696L506.183199,255.236694L504.595679,258.186506L501.120486,265.530292L493.200981,280.985962L490.322820,286.224888L484.340542,296.518342L481.344231,300.912249L478.870130,304.968157L476.495508,308.348073L471.207997,315.276887L468.854566,317.627455L467.627749,318.733604L465.235738,321.268526L463.115665,324.049256L458.392063,330.716848L451.880427,341.102274L450.262618,343.299184L448.689185,345.926256L447.720908,348.461148L446.423688,351.318658L443.715115,356.219433L442.578235,357.909353L439.148835,361.458181L436.035220,363.824063L431.721190,366.020951L428.748308,367.879855L414.299268,378.265106L409.161610,381.568098L404.184644,384.609918L400.358883,386.545619L398.162711,387.467382L396.282494,388.158703L393.740514,389.418443L388.141341,391.615306L381.085306,392.706055L377.434204,393.059396L370.255657,394.319134L366.579339,395.671047L362.245324,397.622101L358.463930,399.987945L355.053932,401.923633L351.434591,403.705694L347.975944,405.226589L344.417290,405.564566L340.794667,406.132981L335.415295,406.993284L333.079739,408.099388L330.887235,409.144042L329.001964,410.035069L323.852460,412.155099L316.344710,415.780652L312.335163,417.470527L311.195589,417.808501L310.099076,415.903552L287.060817,375.853151L279.698736,363.025194L271.526492,349.167844L270.259741,349.782363L194.992421,385.946474L191.402461,387.713185L186.891719,376.959271L180.128056,360.797577L179.342426,358.907942L176.670701,360.044796L173.947587,361.412093L168.280329,364.761198L166.877653,365.729057L163.700081,368.279289L159.069942,372.657691L153.434772,379.294411L150.816748,382.597401L147.125729,387.359843L142.995320,391.753570L140.002289,394.365222L138.363113,395.640322L136.640599,396.761794L132.246747,398.927924L131.981568,399.066188L127.158227,400.510274L124.442728,401.078690L121.001323,401.493480L116.229240,401.754644L110.758544,402.353786L105.921093,403.168003L103.007476,403.905407L97.408135,406.102255L88.528129,410.403770L80.642562,413.937151L74.593304,416.256890L68.014472,418.668801L67.442048,418.960688L55.756017,423.385077L52.305588,424.921321L49.097827,426.672639L47.371428,427.717283L45.640764,428.777290L41.252053,431.696146L36.206395,435.029782L34.399542,436.228046L32.933466,437.288049L26.888110,441.635590L22.146742,445.506891L19.574531,447.918770L18.111343,449.286012L8.672917,458.457267L1.829946,465.677491L0.000000,467.367327L0.909809,468.719195L3.855601,472.267845L5.580716,473.496813L7.792954,474.741143L8.824554,475.109833L10.575510,475.202005L12.352057,475.202005L14.015599,475.109833L15.478332,474.833315L20.584165,473.143485L23.045794,472.037413L25.263569,470.992790L27.999104,469.671647L30.203102,468.903541L31.308582,468.688471L32.694538,468.688471L33.453604,468.949627L34.445641,469.733096L36.851730,470.823806L38.471443,471.161773L39.143488,471.146411L40.353246,471.100324L42.307361,470.823806L61.466828,467.935726L63.659158,467.935726L65.754370,468.058623L67.386684,468.396590L69.127152,468.980351L72.679618,470.117149L73.390404,470.869893L73.588871,471.607274L73.192748,474.894764L72.567636,480.686264L72.582255,485.171977L72.046321,492.730077L71.848926,496.708822L72.221069,499.089921L73.873918,502.530988L74.652955,504.036454L78.002705,510.442350L86.114488,524.022176L87.779821,526.510777L91.024016,529.076184L93.427507,530.812057L96.567619,533.162395L98.653618,535.497370L100.642704,537.909150L101.747883,540.781776L103.772859,543.654399L113.683492,558.063541L118.420237,561.289455L121.182973,562.503012L123.343214,563.163555L124.745303,563.332531L125.059727,563.470785L131.267469,564.438557L145.405717,567.203619L151.632882,568.555425L154.367514,569.461750L155.253201,569.584641L155.878171,569.784340L161.746569,571.566264L163.848090,572.211443L165.612153,573.209935L169.717523,574.761436L176.420242,578.939730L182.874873,583.194823L191.890079,587.803218L196.570830,589.370070L200.278359,589.631211L202.504676,589.554405L204.408605,589.231818L208.419198,588.310140L213.419128,586.820094L218.927416,584.270116L224.294165,581.412908L229.689048,578.862923L232.654403,577.802989L236.205607,577.265341L240.417312,577.480400L263.188608,581.827664L266.810116,582.580370L271.336829,582.795428L275.760558,582.518924L277.260523,582.380672L280.323453,582.104168L282.413243,581.520437L285.583690,580.629479L291.264364,579.047260L293.747585,577.772266L296.709307,575.544867L301.033610,571.858131L303.629179,569.815062L306.859473,566.619884L309.740668,563.547592L311.618423,561.412347L314.237015,558.877700L317.476888,556.419859L319.560319,554.315330L320.866159,553.378276L323.147211,550.198435L325.312404,547.617691L326.598545,545.344175L329.314441,542.640533L332.241691,540.628160L339.882914,535.159413L352.900226,525.573712L356.494896,532.824438L358.857045,530.351206L359.342555,531.779844L359.496309,532.179248L359.700082,532.670822L363.408596,541.872452L368.812121,539.245613L370.176139,542.548363L370.128300,542.947765L370.604018,548.815894L372.310153,570.137652L373.616098,586.681842L377.798411,585.867693L386.137834,584.239393L386.646471,584.131864L388.857420,583.701747L389.967156,583.471327L394.924201,582.180975L398.611596,581.197849L406.806129,579.047260L413.153566,578.740032L414.150152,585.683357L415.889828,597.895568L416.641425,603.133740L416.751842,603.871078L425.533873,604.961722L429.244767,605.437918L431.398261,605.714419L426.729559,617.772907L425.138013,621.874314L423.478472,626.175407L417.260661,642.273707L428.751468,641.367412L433.931808,640.952667L436.365307,640.537922L434.334653,642.089376L430.300765,644.639286L432.342035,647.772908L426.414795,651.152298L408.614487,668.033812L398.381432,693.701450L393.577452,708.247847L378.685362,753.483909L376.027799,762.792129L372.058478,773.513430L361.516773,805.477336L354.125301,805.231580L341.945702,818.932449L311.110840,853.645025L297.627128,854.919856L289.318463,862.614909L300.404484,907.970624L298.696955,908.538908L306.047541,934.879490L308.038526,934.879490L310.940665,933.865806L314.461456,931.439106L316.553706,929.119915L317.750220,927.077182L318.312595,925.003729L318.375187,922.914916L318.285864,921.010407L317.550837,917.708232L317.063759,914.375333L317.032136,912.762638L317.479357,911.149942L318.161740,909.552604L319.783516,907.248749L321.815808,905.236713L324.989464,902.426004L327.326851,900.813300L329.968623,899.784241L332.288101,899.553855L335.839830,900.014628L338.605681,900.582914L341.620178,900.936173L345.488703,900.936173L347.702760,900.813300L350.742991,901.028328L351.928373,900.797941L353.131852,900.229655L354.093418,899.215955L355.349401,897.004243L356.457374,895.053635L357.483361,893.671312L359.162834,892.749764L361.588612,892.181475L364.264450,891.029539L365.735202,889.770087L367.228311,888.157374L368.623281,886.943999L370.213838,886.206758L378.119063,882.873810L383.942465,880.232024L386.267240,878.619303L388.384182,876.438289L390.759343,872.644548L393.262292,868.390021L393.831994,867.698852L394.266813,867.130557L395.143019,866.470105L397.833407,865.901810L402.443395,865.318155L410.267330,864.550188L413.909000,864.550188L415.294394,864.734500L416.522547,865.394952L417.900850,866.331871L419.438394,870.647840L421.381169,876.637960L421.880639,878.926488L421.505705,882.505189L421.412966,885.884215L421.013346,888.234170L419.054012,895.345458L418.968906,897.833635L419.296962,899.922473L420.374015,902.763904L421.512589,903.792962L423.061642,904.023348L424.662153,903.977270L426.382088,903.455062L428.574629,902.364568L430.296847,901.243355L432.966252,899.569214L435.040069,898.770541L436.022951,898.770541L437.085171,898.893413L438.145811,899.430982L440.681044,902.103463L443.148445,903.839039L444.709574,904.207656L449.858802,904.315170L451.307049,904.545556L452.698705,905.298150L454.293961,906.634387L455.561592,907.970624L456.212297,909.168628L457.196000,911.165301L457.713580,912.025406L458.613627,912.824074L459.710272,912.731920L460.345460,912.486176L461.039570,912.209714L462.613770,911.349610L463.640291,910.919557L466.157413,909.521886L467.663124,908.999679L471.487784,908.385318L473.142260,908.508190L474.523247,908.753935L475.718252,909.306860L476.510373,909.767631L477.651939,910.013375L478.773087,910.105529L479.943001,909.521886L487.820276,903.562576L493.231854,904.269093L497.291779,902.533518L499.521229,901.673409L500.206120,901.611973L501.257380,902.410645L502.429829,905.589972L507.569761,912.593689L509.615997,913.530588L512.913749,913.407716L514.671998,912.747279L515.875799,912.086842L518.087262,910.428068L519.192944,910.166965L523.060687,911.487841L525.172622,912.824074L526.877855,912.854792L527.882380,912.685843L528.391378,912.486176L531.023452,910.673813L535.883841,907.187313L537.207745,905.866435L541.072401,901.335509L545.317463,895.068994L547.530844,892.903355L548.977797,892.365785L549.724470,892.626891L550.294204,893.026228L550.924328,894.116727L551.484900,898.048663L552.272478,901.934514L552.898528,902.994290L555.455313,907.770956L559.113625,908.938243L562.508443,908.692499L566.342992,905.451740L567.905959,904.223015L570.554878,902.395286L573.639533,900.859378L576.875052,899.415623L578.725234,898.878054L580.195821,898.755182L582.254832,899.646009L583.961015,900.536837L585.620185,901.642691L586.424221,902.287772L588.470301,905.497817L588.938023,906.219693L589.191700,906.895491L592.119206,912.516894L592.660667,915.972668L592.529395,918.491539L593.065708,919.965999L594.042435,920.488203L595.088501,920.442126L596.385271,919.628102L598.112306,913.853127L598.375615,913.085177L610.756949,878.880411L611.355467,877.221611L638.472507,878.404274L647.216198,878.772896L650.291101,879.817324L657.808603,882.336238L667.238991,853.230320L669.785283,845.228044L673.636614,834.245986L683.955741,804.709348L688.311123,803.680243L689.017292,803.542005L704.469048,800.485407L730.657101,780.794053L749.738905,766.463182L752.982732,765.034698L755.449051,763.729093L755.683144,764.020934L757.593846,765.219018L758.486724,765.679820L759.245079,766.171341L760.516152,766.586062L763.065937,767.615185L765.034128,768.060626L781.300036,771.747030L809.740326,779.288779L812.619162,779.949256L817.855197,780.379335L821.699272,780.148936L830.526437,779.488458L832.743801,779.580618L834.094054,780.164296L835.478786,781.623490L835.868592,782.944444L836.434349,785.494190L836.479226,788.059293L835.725065,795.324508L833.937760,803.680243L833.343933,808.549287L833.220612,811.175802L833.307512,812.634975L834.253960,814.493500L834.604175,815.184686L838.145165,815.138607L836.021636,816.889612L837.177955,817.672956L842.539719,818.195185L850.680169,818.103026L861.190259,817.826552L865.957784,817.765114L872.034577,818.026228L873.162281,816.367382L879.643303,819.715792L887.994262,825.091668L889.418956,825.997885L889.775864,826.028605L890.106361,826.381876L892.505814,822.726284L907.981589,797.582403L915.901033,784.787634L919.607290,778.781900L923.295233,772.069590L925.870932,767.369424L933.585492,753.268867L923.060053,752.101496L917.606287,751.502450L869.462912,746.218554L863.125859,744.851497L866.270391,741.917698L868.425647,737.371069L873.265385,727.187202L879.554818,720.136804L890.573224,705.529045L902.403675,698.217448L917.736504,693.225273L925.430335,691.243760L932.202741,689.676981L936.277620,689.477293L940.057193,689.615539L944.367587,690.429649L948.295184,691.397366L951.797747,692.580129L955.178392,693.793613L958.541298,695.252865L960.499343,696.143777L961.647319,692.503326L963.554840,686.850632L968.311597,676.420757L969.221604,662.596105L967.918719,649.754460L964.390333,637.895841L961.494216,631.981868L955.313835,623.871251L956.193318,611.567018L956.950753,600.430169L958.178841,593.548336L958.399072,587.711050L957.120869,583.778554L956.267904,579.584907L955.782907,576.881307L955.854988,567.080727L947.107046,555.190937L943.850420,551.350552L942.275695,552.349052L938.652673,549.829757L936.922700,548.662278L930.269001,542.533001L926.791120,537.310046L927.786932,535.082605L947.035742,510.611331L954.342236,500.395684L956.233728,496.847079L952.874788,496.601288L932.179741,495.034370L930.046868,494.865389L919.608178,500.610750L916.190376,502.484903L852.278447,497.738071L854.818276,467.736019L876.238591,461.237824L881.760180,460.500439L897.714047,457.719881L900.851125,446.321093L904.257669,444.124284L909.329563,442.419068L909.962166,440.729213L910.420218,439.623125L902.584282,438.348051L898.387183,437.672108L897.312896,437.457035L896.813364,437.395585L896.272705,437.119063L896.025910,436.873265L895.821361,436.566018L895.715213,435.813263L895.417520,433.616444L894.941673,428.746565L894.859420,428.316417L894.727330,427.748008L894.238829,424.967409L893.939473,423.185365L893.861298,422.785942L893.792021,422.263618L893.534688,421.510858L891.294176,417.869951L892.827090,416.840665L893.829703,416.087902L894.992784,415.120065L896.586867,413.507001L898.138190,411.048997L898.683762,409.082592L898.718364,402.645675L898.163352,400.740713L896.176714,397.683552L895.098493,395.348431L894.443453,393.259111L895.826885,388.727122L900.079713,377.804223L902.421567,372.043179L907.201550,355.497376L907.794087,353.361929L908.186081,349.951355L908.655764,346.033797L907.542883,342.961198L906.307352,338.060394L905.887666,332.898406L906.008699,329.011544L906.566421,322.098137L911.296068,303.646915L911.441406,303.032384L915.597944,303.308923L914.644161,307.472368L914.037052,310.068756L921.155526,310.068756L926.774710,310.068756L928.362193,310.068756L925.583234,320.945900L924.833114,323.603725L917.621015,323.895625L917.509983,324.341156L921.125944,340.641383L922.634426,343.514266L922.759660,343.698622L923.222797,344.436046L927.183395,342.331315L927.920305,341.855061L928.525159,342.853657L929.519738,345.081292L930.428777,346.663680L938.622216,341.609253L942.539514,338.797819L948.354609,349.398289L937.852435,356.234796L945.973627,380.139363L946.386151,381.967529L953.247524,390.478468L956.437777,393.965793L956.820162,394.949003L960.697975,399.772868L980.686164,389.080464L984.219132,377.481605L990.740930,377.589145L994.574816,377.712047L995.340385,374.316873L981.159514,367.710864L974.846773,355.497376L976.611148,336.923528L978.303218,336.001745L981.081273,334.480802L986.846170,331.730812L987.170810,331.423550L1000.000000,323.465457Z "/></g><g fill="#000" font-family="Arial" font-size="12px" id="mylayer-label" stroke="none"><text text-anchor="middle" y="515.131996786"><tspan dy="0" x="594.996140072"><![CDATA[N]]></tspan></text></g></svg>