<?xml version="1.0" encoding="utf-8"?><!DOCTYPE svg  PUBLIC '-//W3C//DTD SVG 1.1//EN'  'http://www.w3.org/Graphics/SVG/1.1/DTD/svg11.dtd'><svg enable_background="new 0 0 1000 1001" height="1001px" pretty_print="False" style="stroke-linejoin: round; stroke:#000; fill: none;" version="1.1" viewBox="0 0 1000 1001" width="1000px" xmlns="http://www.w3.org/2000/svg" xmlns:xlink="http://www.w3.org/1999/xlink"><defs><style type="text/css"><![CDATA[path { fill-rule: evenodd; }]]></style></defs><metadata><views><view h="1001" padding="0" w="1000"><proj flip="auto" id="robinson" lon0="-106.808158677"/><bbox h="0.48" w="0.99" x="-1484.36" y="-608.09"/></view></views></metadata><g class="" id="mylayer"><path d="M1000.000000,296.706756L995.815140,298.012096L993.830286,298.355607L991.946025,298.389958L990.176325,298.115150L987.019679,296.947214L984.117265,295.470118L982.947602,294.405235L982.396717,292.876613L981.264008,291.674325L978.636169,289.870893L976.923757,289.441505L974.982218,289.630436L972.993117,290.437686L968.996703,292.515927L965.619061,295.487294L963.875701,296.912863L961.932036,298.012096L959.885654,298.973926L956.095914,301.361323L954.455273,302.924295L952.558283,304.349862L950.614619,305.449095L948.668833,306.101764L944.699114,306.788784L942.810607,307.286874L940.672114,307.630384L938.740293,308.283053L936.737224,309.090301L934.897514,310.361288L932.896568,311.615099L931.056859,312.886085L929.106830,314.002492L927.369840,315.410882L923.928571,318.553994L922.191584,319.962383L920.704585,321.525351L918.961235,322.950915L917.263325,324.668461L915.583620,325.922270L913.533004,327.347833L911.832969,328.618817L909.735674,329.718045L907.746573,330.525291L903.868961,331.830625L901.879859,332.637871L897.795567,333.634047L895.867978,333.822977L893.869143,334.166486L891.787919,334.355415L889.917609,334.389766L888.090610,334.269538L885.991184,334.922205L883.949036,335.420293L882.078725,335.454643L880.251726,335.334415L876.712288,334.784801L871.728607,333.496643L870.284364,332.758099L868.418293,332.328713L865.038859,331.761924L863.211863,331.641696L861.124274,331.847801L859.239998,331.882152L857.470283,331.607345L855.657254,331.487117L853.887539,331.212309L850.290829,330.817274L849.186393,330.593993L870.916511,260.311725L869.796070,262.166691L868.362002,264.038832L866.618577,265.464407L862.626351,267.078913L860.946581,268.332731L859.088579,270.067466L855.060977,275.357545L853.823876,277.075103L852.754377,278.792660L851.166693,280.664797L849.679621,282.227773L848.038917,283.790749L846.199159,285.061740L844.210031,285.868991L842.106328,286.985402L840.263231,287.775477L838.216816,288.737308L836.284975,289.389978L834.128247,290.197229L832.253693,290.695320L830.330376,290.420511L828.388829,290.609442L824.261199,291.760203L822.276332,292.103714L820.387810,292.601804L816.241948,294.216305L814.406450,295.023555L812.249720,295.830805L810.221530,296.328895L808.236660,296.672405L804.482104,296.741107L802.655129,296.620879L801.000018,296.036911L797.561256,295.178134L795.791571,294.903326L794.239173,294.456762L792.584066,293.872794L791.451412,292.670506L790.275439,291.622799L787.533107,290.128527L784.905357,288.325094L782.429151,286.075098L780.934052,285.473953L779.489878,284.735404L777.820815,284.151435L776.051140,283.876627L774.180850,283.910978L764.906356,283.309833L760.993904,283.842275L757.124775,284.220138L755.082612,284.718229L749.299867,285.285022L745.156156,285.989220L743.228574,286.178151L741.618898,285.886166L739.689225,285.628533L734.222294,285.267847L732.294712,285.456778L730.252545,285.954869L729.527707,285.800289L727.325542,286.315555L726.383413,286.332731L724.355212,286.830822L722.450525,288.239217L720.977378,289.802191L719.696915,291.674325L718.723721,293.546459L716.833004,294.954852L715.929924,295.281188L715.577242,294.989204L714.543043,294.388060L713.570411,293.168597L712.169565,292.275469L710.413855,292.000661L708.582611,292.344171L706.478874,293.460581L705.211235,293.941496L703.217807,295.212485L699.626958,297.891868L697.889872,299.300261L696.533593,300.811706L694.439843,303.370858L692.432452,304.641846L691.968892,304.762074L691.082437,304.968180L689.837309,304.521617L688.604055,303.628491L685.308859,300.159037L683.928344,299.248734L681.466506,299.145681L682.277523,298.201027L684.774807,294.628517L689.386488,289.458680L691.840464,286.040746L692.081985,285.765938L674.738912,278.672431L672.880579,279.428156L669.356781,281.059835L662.018696,286.538837L644.508259,299.076979L636.462844,304.693372L621.014415,314.758213L608.055782,322.401300L603.106437,324.977620L598.959187,327.914623L585.084861,337.086310L570.428228,346.446915L566.726206,348.559490L562.254400,351.015572L556.696764,356.288418L554.157519,358.692972L543.928442,368.053549L536.084854,373.841643L531.003605,377.603043L524.760777,382.463662L513.180012,391.326125L507.001758,395.070341L506.762902,395.224918L494.446528,403.245777L476.793140,414.323822L475.895883,415.199760L473.753460,412.915452L472.774364,411.713184L471.744350,410.648318L470.668904,409.291472L469.441939,408.381183L468.673773,407.024337L468.122897,405.495738L467.942948,403.795386L467.545714,402.266786L466.101470,401.528249L462.170706,402.524415L460.032153,402.867921L454.349869,403.125550L452.404018,403.778211L450.357562,404.740026L448.614127,406.165574L446.574036,407.110213L444.642151,407.762873L440.455027,408.621637L438.394603,409.583451L434.572011,411.644483L432.621906,412.760874L430.676053,413.413534L428.594781,413.602462L426.763499,413.945967L424.664007,414.598626L422.951549,414.169245L421.564586,413.276132L419.870832,414.529925L416.030017,417.054687L414.096016,417.260790L412.912372,416.195924L410.820903,413.774214L408.614869,411.661658L405.558778,410.184586L402.119906,409.325823L400.618378,408.741864L399.448717,407.676997L397.918802,404.946129L397.578881,403.262952L397.398966,401.562600L396.477198,400.205752L395.076291,399.312638L393.574774,398.728678L389.934701,398.488224L386.180049,398.556925L384.137838,399.055008L380.243950,401.270620L378.531507,400.841238L377.144571,399.948123L375.374840,399.673319L373.547819,399.553092L371.620187,399.742020L369.577974,400.240103L367.707631,400.274453L366.614004,399.381339L366.851697,397.835563L365.610802,396.925272L362.554760,395.448197L361.249803,392.562747L360.698991,391.034145L359.783617,389.660120L358.536368,388.767004L357.034867,388.183043L355.908570,386.963596L353.617024,382.858695L352.912595,381.330091L351.811018,378.272881L351.056905,376.916030L350.352487,375.387424L349.379847,374.167975L348.618140,372.793947L348.221002,371.265341L347.938456,369.427578L347.848595,367.898971L347.086899,366.524942L345.374489,366.095558L341.228479,367.710042L337.311651,368.706213L336.422514,369.032545L335.115798,369.204298L333.702093,369.702384L332.030809,370.028715L330.142228,370.526801L328.464579,370.870308L327.055155,370.904659L325.713678,370.303521L324.881836,370.475275L323.978732,370.801606L323.146891,370.973360L321.157684,371.780601L318.384248,372.141284L317.095782,371.849303L316.061577,371.248166L315.117347,370.818782L314.507088,370.355047L314.294075,370.063066L313.899035,368.981019L314.077417,367.143255L314.526109,365.442894L315.171771,363.587954L316.048701,361.561260L317.425581,359.843723L321.055615,357.473520L321.900022,353.763636L321.924792,351.925869L322.416837,350.070925L322.287979,348.233157L322.261826,346.532792L322.106120,346.086231L321.864740,345.004180L321.678592,343.320989L321.185177,341.637798L320.380197,340.418343L316.534458,335.420293L316.405629,333.582521L316.008566,332.053906L315.457872,330.525291L314.013734,329.786747L310.316443,329.700870L306.350913,329.924151L304.892810,329.185606L304.342125,327.656991L304.002379,325.973796L303.451700,324.445180L302.747389,322.916564L302.517950,321.387947L301.967278,319.859331L301.262975,318.330713L300.015825,317.437588L298.188854,317.317360L296.050303,317.660870L294.161717,318.158958L292.076158,318.811627L288.259958,319.498646L286.164744,319.687576L284.351739,319.567347L282.682713,318.983381L279.948110,317.506290L278.553698,316.595990L276.898644,316.012024L275.186284,315.582636L273.244705,315.771567L268.995941,317.248658L267.373333,318.347889L265.636116,319.756278L262.458271,323.053968L260.913715,324.771514L259.170135,326.197077L257.279287,327.605465L255.386385,328.567290L253.397152,329.374536L251.398263,329.718045L249.431619,329.597817L247.916223,329.013852L246.797647,327.811570L245.825108,326.592113L246.009964,324.737163L246.034821,322.899389L246.373317,321.044438L245.976302,319.515821L245.061081,318.141783L243.616970,317.403237L241.904613,316.973850L240.653158,316.544463L240.192257,316.544463L234.217158,317.592168L232.250522,317.471939L230.952448,316.716218L230.030870,315.359355L229.480236,313.830737L229.083238,312.302118L229.114494,310.447165L229.249677,308.763967L229.926738,305.054058L230.105272,303.216278L230.457777,301.361323L230.321452,299.506367L230.641567,295.968209L230.301908,294.285007L229.112112,293.237299L227.321877,294.336533L225.791235,296.054086L224.143937,297.634235L222.253051,299.042628L220.360126,300.004457L218.317896,300.502547L214.778598,299.952930L212.748296,300.004457L211.081339,299.867053L209.456664,300.519722L207.776719,301.773535L205.672849,302.889944L203.731270,303.078874L201.918276,302.958646L201.129775,302.975821L199.874006,303.010172L196.234053,302.769715L194.292474,302.958646L192.458892,304.212458L190.868900,305.638025L189.184624,307.355576L187.291696,308.317404L186.438285,308.471983L165.653345,369.925663L157.498360,371.918004L152.397283,377.276712L149.220235,384.679279L150.174103,390.433009L146.675988,395.310795L151.817671,403.331653L163.918896,400.188577L166.344394,427.256775L158.336932,448.107462L150.974958,455.836285L134.781193,451.405094L133.687410,453.225661L132.142972,454.943177L130.509789,456.523291L129.022645,458.086229L127.742167,459.958320L126.775335,461.813235L123.472463,467.257752L122.191996,469.129841L120.757892,471.001928L119.534718,472.719440L118.457585,474.419776L117.498375,476.291862L116.224284,478.146773L115.154760,479.864283L112.483540,483.453877L109.422662,486.888894L106.245104,490.186508L103.213591,493.466946L101.836801,495.184452L100.363659,496.747382L97.075797,499.890416L95.699014,501.607921L94.000982,503.325425L91.137100,506.605857L88.479904,510.195437L86.839166,511.758364L84.999351,513.029316L79.208340,516.670418L75.631435,519.349719L73.777655,520.620669L72.040566,522.029018L70.239828,523.609118L68.613065,525.172042L67.125978,526.734965L66.326835,528.589863L65.603721,530.616511L64.145124,534.326304L62.840180,538.036096L61.799218,541.900460L59.785179,547.636890L59.158493,551.174925L58.666672,553.029817L58.271217,555.039282L57.589164,562.269918L57.612023,563.678259L58.390373,565.120950L60.689446,567.096062L62.092965,568.057856L61.108363,568.641802L59.834812,575.735025L58.637693,579.719593L57.830123,581.145106L57.117274,581.711876L56.878584,581.677526L56.738243,582.433219L55.788266,585.524692L53.938668,590.780191L53.448975,591.724807L52.601084,592.806821L51.338958,594.215156L51.167133,594.678877L50.695623,595.159771L50.466524,595.778065L50.890514,595.915463L51.889988,595.743715L52.871282,596.035687L53.180724,596.482232L53.066175,596.791379L52.633761,597.581420L50.931625,599.762621L49.770086,600.861809L48.569451,601.651850L47.723622,601.823598L46.658455,603.077358L45.982392,603.695651L44.706308,605.103985L43.968765,606.340570L41.987876,609.311808L41.021244,611.166684L37.704973,616.611088L36.481969,618.328564L34.499064,622.210059L33.372440,624.082107L32.098536,625.936980L31.182834,627.654454L30.076549,629.509326L28.796288,631.381372L27.823322,633.253417L26.760347,634.953715L25.480093,636.825759L24.507134,638.697803L23.386895,640.552672L20.969644,646.134450L19.601404,650.015930L18.788473,651.870796L15.476734,661.299690L14.671425,663.171728L13.704867,665.026590L10.782117,672.463209L9.911954,674.472641L7.955795,680.054392L7.464172,681.909250L6.594024,683.918679L4.637908,689.500423L3.825035,691.355278L2.815222,693.364704L1.197096,697.091587L0.537883,698.946441L0.289894,699.427328L0.000000,699.908216L1.683331,700.492151L3.575018,699.307107L5.928532,696.988540L11.028598,689.895438L14.869340,685.636139L19.694213,681.359662L23.095497,678.852169L25.883628,677.735819L28.992573,677.186231L37.700037,676.756866L45.579363,676.602294L52.428043,677.495374L60.558052,678.285407L63.533526,677.907565L70.869582,675.863785L78.286807,673.940227L83.323766,672.823876L86.954635,672.222764L95.197117,672.068193L108.019992,671.690351L118.502904,670.917492L124.827898,670.848794L129.716241,671.415557L131.717901,672.497558L134.586966,673.424988L144.272916,675.331372L146.569591,675.880960L147.556053,676.121405L149.336492,675.915309L151.179597,675.125276L153.132393,673.699782L156.015694,670.969016L161.226008,667.310818L165.751685,665.576179L172.941940,663.171728L177.625137,661.351214L178.798733,660.973371L181.523720,661.007721L184.141791,661.368389L187.382638,660.990546L199.756074,658.809364L203.857583,657.126247L208.358089,655.082461L214.204776,652.798229L218.753333,652.660832L222.196893,652.866928L225.428158,653.382168L232.966364,654.223727L239.521558,655.305732L242.213055,655.958369L245.208786,657.297993L247.393811,659.393303L248.777410,661.729056L250.647298,662.450392L252.267577,662.450392L253.574625,661.900803L254.672724,660.595529L255.546379,658.878063L256.113170,656.593832L257.142151,654.343950L258.508421,652.729530L259.670961,651.853622L261.878461,651.097936L268.355063,648.659130L273.760248,647.491251L279.235221,648.058016L289.733613,650.222027L295.940041,650.737267L298.279323,650.342249L300.912072,649.758310L303.093833,649.449166L304.751994,649.723961L305.747838,650.994887L306.580339,653.347819L307.812637,657.675836L303.233214,660.045940L296.954528,664.477001L292.285903,667.276469L287.939648,670.299205L284.404919,673.167369L281.202521,676.533596L278.988404,681.153567L277.877912,685.584615L278.027615,691.063310L277.706305,696.456128L275.893601,700.973039L274.271126,702.261131L272.340375,703.137034L268.363525,704.596871L258.845814,712.342590L251.125361,717.649519L244.601323,722.630128L241.561259,726.425693L240.586779,729.019042L320.023772,728.830123L358.264822,728.727076L418.061218,728.692727L469.608797,728.641203L469.825038,728.057271L470.797645,726.185250L471.442628,724.330404L472.312472,722.320987L472.803812,720.466140L473.622781,718.594117L475.965371,715.021817L477.091645,713.149793L478.621627,711.432339L481.902344,708.306573L483.375087,706.743690L484.765394,705.026235L491.368881,698.585775L497.512690,692.179658L499.042691,690.462200L501.752124,687.181853L504.832466,683.729758L506.202466,682.029472L508.872759,678.439978L510.152724,676.567945L511.125396,674.695911L511.924094,672.841051L512.101844,671.003365L512.580445,667.448215L513.282754,665.438781L514.255442,663.566745L515.625466,661.866454L517.118580,660.286385L518.912629,658.723491L522.200389,656.559483L521.765355,657.658661L528.486148,658.105203L536.607473,658.654792L547.970970,631.329848L555.528358,630.196315L568.228519,628.942560L577.420894,630.333713L581.963033,633.871707L590.366031,631.020702L590.750695,632.961447L591.519250,634.318250L593.014659,634.919365L594.784572,635.194161L596.872270,634.988064L600.802998,633.991930L602.616192,634.112153L604.557850,633.923231L606.337926,632.360331L608.222335,632.325982L609.666857,633.064495L613.360330,633.614086L614.601567,634.524347L614.941984,636.207470L614.807498,637.890592L614.412482,639.900033L614.439255,641.600329L615.207831,642.957131L616.703252,643.558246L618.530419,643.678469L620.622243,643.008655L624.708501,641.102263L625.712079,640.466799L627.543370,640.123304L629.489153,639.470665L633.230041,639.401967L635.171699,639.213045L637.042143,639.178695L638.654292,639.917208L639.781052,641.136612L640.746560,642.338842L641.662431,643.712818L642.271013,645.086794L643.998760,647.662998L646.373156,649.775485L647.717184,650.823141L650.720772,651.991019L654.139783,652.866928L655.795227,653.450867L657.196505,654.343950L658.219280,655.391605L659.135179,656.765579L660.165565,657.830408L661.145071,659.032635L662.809269,661.780580L663.520651,663.291950L663.758373,664.837669L664.309753,666.366212L666.147951,669.096981L667.381636,669.990062L671.722970,672.222764L672.970627,673.115845L675.484787,675.228324L678.113432,677.031660L679.826142,677.461025L681.596092,677.735819L683.423281,677.856041L685.465458,677.357977L687.278679,677.478200L691.033566,677.409501L692.746278,677.838867L696.497066,678.233883L700.137477,678.474327L700.848901,679.985694L699.626268,681.703155L698.500047,683.575187L699.051471,685.103726L700.496067,685.842234L702.380499,685.807885L704.465943,685.155250L706.468944,684.348044L712.546421,682.080996L716.362645,681.394012L718.558466,680.895948L720.643908,680.243313L721.950655,680.071567L722.585574,680.054392L724.355528,680.329186L725.582880,681.239440L726.562439,682.441663L726.555499,683.403441L726.551382,685.979631L726.213749,687.834487L725.511586,689.843914L725.879054,693.227308L724.912872,695.082162L723.916373,698.791870L724.410597,700.474977L725.383824,701.694371L726.152530,703.051161L727.265441,704.270554L727.816910,705.799089L728.579264,707.173053L729.688574,710.212947L730.450935,711.586910L730.791536,713.270015L730.780591,716.807967L730.056361,719.744810L731.185550,721.410738L732.412952,722.320987L736.167878,722.252289L738.148743,722.372510L740.033190,722.338161L741.846438,722.458383L743.616424,722.733175L745.329180,723.162538L746.787794,723.901042L747.747094,725.120431L748.515843,726.477217L749.618873,729.534277L750.381271,730.908236L751.086442,732.436766L751.637967,733.965295L752.021876,735.493823L751.837991,737.348666L751.593441,738.688275L756.213470,738.018471L757.252641,737.211271L759.778181,732.917651L761.521712,730.547572L763.661568,727.937049L769.842146,713.922647L771.259496,709.113777L773.304552,705.816264L770.708030,703.171383L772.010661,701.350880L772.887784,699.736471L775.137809,693.433403L776.565126,689.088233L781.714794,673.407814L785.069154,663.858714L787.724248,655.820972L788.322662,653.261945L788.381327,650.840315L787.291897,648.727829L785.135036,645.876830L783.132356,644.193710L780.994472,641.480106L780.181808,639.487840L780.296139,637.444049L783.186269,629.526501L785.955730,621.746341L792.539432,603.025834L795.811297,594.266681L797.194795,591.398485L798.895426,588.994009L801.016206,586.812805L801.473662,586.331909L805.128002,584.648775L805.473455,584.545726L804.169024,579.582194L799.421246,574.223637L800.801101,572.987046L802.689619,572.488975L804.784893,572.300051L806.655306,572.265701L808.482439,572.385925L810.252322,572.660723L812.122736,572.626374L815.916677,572.866822L817.862442,572.214177L821.795024,570.307765L823.679405,570.273416L825.609292,570.531039L827.479705,570.496689L829.365993,569.552071L831.373138,568.281129L833.358047,567.937632L836.941092,568.332654L838.983249,567.834582L840.680880,566.117094L842.270376,564.691578L844.566705,563.884358L846.490228,564.159156L848.321492,563.815658L848.782422,563.815658L849.210567,563.489335L849.689599,563.025613L849.869616,561.634446L849.871527,560.724177L850.422443,559.161260L851.476905,558.388390L852.155088,558.216641L854.193105,558.182291L854.603147,558.319690L855.288936,558.165116L855.870724,557.838793L856.239397,557.220496L856.921716,556.585024L857.453862,556.430450L858.764722,555.794978L860.178336,555.296906L862.220490,554.798833L866.198573,553.184391L868.142109,552.085196L869.788859,550.505103L871.679285,549.096759L873.629183,547.980388L875.521831,547.018592L879.606134,546.022446L883.327819,544.270602L885.277717,543.154231L887.627153,542.656157L890.343344,542.450058L891.853349,542.106559L893.164207,541.471086L895.593139,539.890991L896.539463,539.410092L898.548532,537.228873L898.974458,536.455999L899.039993,535.373977L899.453176,532.900782L900.270039,530.582161L900.906864,529.654712L901.699547,529.173813L902.799515,528.692913L903.842231,528.366589L908.076023,527.834164L908.868707,527.353265L909.395173,526.271241L910.421008,524.708317L911.318374,523.454543L912.686487,522.664493L913.839560,522.492743L914.460488,522.475568L916.950829,520.277169L917.780437,519.658869L919.154911,518.851644L921.151558,518.061594L922.986958,517.254368L925.393638,516.601718L927.479068,515.949068L928.853543,515.141842L929.914373,514.351792L930.801233,513.578916L931.501677,512.479715L932.046269,510.933963L932.169074,509.697362L932.595013,508.924486L933.381337,508.460760L934.153965,509.353861L934.659693,510.590463L935.590115,511.019839L936.319185,510.710688L937.173272,509.611487L938.196906,507.602009L938.883386,506.502807L939.063448,505.111629L939.661148,503.875026L940.668881,502.775824L941.826103,502.140347L944.333321,501.178545L945.490543,500.543068L946.801405,499.907591L948.698213,498.482062L949.545945,497.400034L949.783269,495.854279L949.756602,494.153948L949.928365,493.690222L950.400821,490.152158L950.422642,484.776359L950.606889,482.921449L951.911200,479.211629L953.119139,475.347232L953.610682,473.492320L955.580542,467.910407L955.764816,466.055493L954.785500,464.853234L954.248310,463.324647L953.486258,461.950636L952.441218,458.738885L949.937831,454.788600L948.056825,452.212327L947.448431,450.838314L946.897300,449.309724L946.710711,447.626557L947.400590,443.916719L948.114807,438.369134L948.477110,434.676466L950.174625,425.419026L950.993861,423.546926L951.653098,421.692001L952.662911,419.682499L953.732165,417.964975L955.012324,416.092873L959.155898,410.940297L964.237447,406.234275L965.511256,404.379345L966.637793,402.507240L967.604333,400.652310L968.673608,398.934781L969.703782,396.908097L971.016706,395.362321L972.663597,393.782193L974.150490,392.219241L977.634853,388.921582L983.609664,386.517038L985.555432,385.864376L987.755406,384.902558L1000.000000,296.706756Z "/></g><g fill="#000" font-family="Arial" font-size="12px" id="mylayer-label" stroke="none"><text text-anchor="middle" y="498.466003791"><tspan dy="0" x="511.387558331"><![CDATA[N]]></tspan></text></g></svg>