<?xml version="1.0" encoding="utf-8"?><!DOCTYPE svg  PUBLIC '-//W3C//DTD SVG 1.1//EN'  'http://www.w3.org/Graphics/SVG/1.1/DTD/svg11.dtd'><svg enable_background="new 0 0 1000 1001" height="1001px" pretty_print="False" style="stroke-linejoin: round; stroke:#000; fill: none;" version="1.1" viewBox="0 0 1000 1001" width="1000px" xmlns="http://www.w3.org/2000/svg" xmlns:xlink="http://www.w3.org/1999/xlink"><defs><style type="text/css"><![CDATA[path { fill-rule: evenodd; }]]></style></defs><metadata><views><view h="1001" padding="0" w="1000"><proj flip="auto" id="robinson" lon0="-76.6988075108"/><bbox h="0.45" w="1.08" x="-1055.36" y="-646.65"/></view></views></metadata><g class="" id="mylayer"><path d="M1000.000000,574.803053L994.876440,548.238532L989.512927,532.736197L988.869334,530.853332L988.213027,528.970468L974.232929,488.850226L959.972790,449.562410L955.849677,438.077470L951.592662,431.864335L945.056161,425.792428L887.818613,378.912325L884.682548,372.824902L880.362796,364.399816L876.043135,355.974768L839.397978,366.455094L814.492627,375.539137L789.218521,386.270603L768.719191,398.021944L755.699301,408.031822L752.201419,410.636282L748.703539,413.240745L745.092551,415.970729L732.554979,424.552946L721.547917,428.349844L710.584710,428.961742L695.339305,428.695017L667.949146,417.069000L663.356779,415.123493L652.178596,414.950907L639.652449,414.778322L636.440828,414.715564L612.001257,409.506636L604.448844,404.689960L597.385766,400.893110L596.533511,400.720526L595.689371,400.563632L579.433208,397.457124L569.998353,397.237473L556.064012,396.923684L546.069043,395.448880L544.109121,395.150781L536.214966,387.164895L535.677736,382.363966L535.965994,381.814841L536.728182,380.387117L536.865407,380.136088L537.002633,379.885060L537.339338,379.257489L537.990827,378.033727L540.020273,374.236932L540.578384,373.201443L541.128382,372.150266L542.842366,370.989266L544.569068,369.828266L545.107292,369.467414L545.111879,366.894390L544.709157,364.886179L544.494847,363.709494L542.482683,362.375918L542.303326,362.250405L537.029213,358.641911L533.891087,355.598230L532.950961,352.821268L532.161717,350.483602L531.380594,348.161629L531.052554,347.502691L530.797533,346.984954L530.206421,346.702552L529.614559,344.992453L529.235598,343.423556L528.875227,341.054525L528.432026,335.500648L528.315653,332.300116L528.143411,329.680078L528.167803,326.259913L528.103994,326.087336L527.645485,324.659654L528.320730,323.875214L527.576580,323.247662L526.967253,322.290646L526.366041,321.349320L525.733247,320.125596L524.219906,317.395753L522.629213,315.622926L521.312164,314.477649L519.671737,313.567704L518.331028,312.893090L517.541947,312.375363L515.686020,311.983145L514.272550,312.249853L513.301959,312.610693L512.424563,313.520638L511.836779,314.006988L511.178396,314.430583L510.173839,315.340529L509.778988,315.732747L509.311350,316.156343L508.695074,316.956468L507.748175,317.756594L506.885012,318.054680L506.001470,318.682230L505.214830,319.152893L503.256552,320.062841L502.388560,320.204040L501.783232,320.533504L500.933460,321.349320L500.605026,321.255187L500.646234,320.941412L500.778196,320.188351L500.000313,320.282483L498.068307,320.062841L494.671964,320.109907L492.853142,321.584651L491.982539,322.384779L491.154465,322.996642L490.665996,323.404550L490.056064,323.749704L489.682912,323.937969L489.284103,323.953658L488.905673,323.639882L488.539315,323.718326L487.356475,323.545749L485.520894,321.914116L484.260860,321.051233L483.293974,320.706080L480.763209,320.533504L476.239295,321.129677L475.488811,320.957100L474.584837,320.094218L473.047060,320.784524L471.940519,320.611948L470.921473,321.051233L470.415011,320.957100L469.319667,321.396386L464.337964,321.992560L462.126445,322.855443L458.442067,325.444094L455.065744,328.456348L454.378216,329.585944L454.164952,331.829451L452.662408,330.276254L445.429537,324.330189L436.521276,320.800213L424.096542,313.740280L420.850605,311.151645L421.553515,307.543250L425.391861,304.170192L422.986969,302.962168L419.838196,300.389236L418.047187,300.122530L415.565550,300.389236L413.150338,301.079534L410.825248,300.812828L407.240143,301.503127L406.082967,301.503127L398.948522,300.985403L396.984540,300.138219L395.891845,299.008640L395.013996,298.663491L391.642223,298.930197L385.641939,298.490917L383.158794,297.549602L379.542035,293.235250L375.413758,290.317184L373.228346,289.877906L369.998226,289.705333L368.612376,289.877906L365.610441,291.007479L363.932970,291.870348L358.409807,296.780862L357.429105,297.392717L356.577333,297.565291L346.252205,297.910439L344.472363,298.255588L342.477197,299.291035L336.025528,304.028994L334.526081,304.891869L324.319003,308.170796L316.372633,309.206248L313.539533,309.457267L310.625104,309.378824L302.935036,310.147569L300.214397,310.665295L295.140544,312.485184L287.655988,316.799581L281.689275,321.098299L277.672791,324.471388L273.308338,328.770125L268.443136,332.911982L263.208518,336.536115L259.169496,338.512918L254.786229,341.619327L250.174716,345.243477L247.382979,348.083184L246.512533,349.965865L242.386013,353.150738L239.526772,354.703954L231.801286,357.716255L226.601546,360.571670L224.192417,362.454364L219.821425,367.035593L217.017861,370.565657L213.969840,373.672120L210.938706,378.237687L207.309467,382.458102L203.451132,388.325906L201.289168,394.523206L199.904835,395.903873L189.949306,397.111957L183.540615,399.277098L178.332105,401.599135L170.657237,404.438928L165.162800,405.568571L162.604792,405.835292L160.139960,405.741155L158.014315,406.007877L156.617679,405.913740L153.091218,404.627202L149.716258,402.477745L147.477036,401.614825L144.182338,400.751905L140.033878,400.328290L134.926632,402.305161L123.582108,403.089634L120.439352,403.528939L115.143761,404.674270L89.879328,410.165596L81.344920,412.597474L45.485904,535.419285L13.719076,654.483189L13.909276,661.120737L14.930535,663.709859L14.755689,664.306142L14.247756,664.823966L12.354376,665.859616L11.450540,666.816809L11.073243,668.103527L11.270303,670.771116L8.552601,673.360251L7.943446,674.223296L7.351508,676.545676L7.604984,677.502873L7.568385,678.538530L5.718492,680.813840L5.095279,681.551354L3.878796,684.485724L1.417518,693.791001L1.298341,696.019253L1.579890,698.702574L0.003438,704.383067L0.000000,708.949443L0.432932,709.294667L3.049833,708.870983L16.033201,704.885211L17.848880,704.461527L19.944877,704.383067L20.445470,704.367375L22.658888,704.712599L23.397311,705.230435L24.876011,707.474392L25.588206,707.474392L27.876079,706.611331L28.499250,706.611331L31.020018,708.337454L32.598083,709.027903L34.319849,709.184823L35.527771,709.012211L36.353364,708.321761L37.097519,707.301780L37.526740,705.230435L37.475652,703.582775L38.185993,702.374493L39.045405,701.872350L47.720859,700.130541L54.912163,697.117688L62.467866,696.505702L66.660957,695.564187L68.899589,694.261758L72.144899,690.480012L74.858979,688.596987L76.492027,687.451482L78.474930,686.761040L84.959100,685.552768L87.985908,685.552768L89.587807,685.207548L91.199198,684.266038L94.196077,681.331669L96.279663,679.950791L100.090417,678.491455L111.731868,673.313176L115.217351,672.355980L119.275331,673.046416L120.254589,673.046416L122.214481,672.434439L124.131355,671.665544L127.942948,669.249021L134.189676,663.992308L139.066328,660.979513L146.157744,657.699965L150.568640,656.319104L156.478368,653.729993L158.755929,652.945415L160.790738,652.945415L163.540098,654.498880L164.557767,654.671488L165.943718,654.498880L167.973464,652.694350L171.375197,648.379175L174.461098,645.444862L176.492233,643.028372L178.841570,640.784492L182.358488,638.462157L183.601588,637.865882L188.422382,636.908705L191.078509,635.700465L199.491655,633.378136L204.020464,632.766172L208.003917,634.664831L210.511432,634.570683L212.087614,634.052866L213.384535,633.880261L215.648510,634.052866L218.877633,634.837437L219.870452,633.880261L221.797666,631.557935L222.572645,631.040119L229.311593,630.177093L234.184291,629.910340L239.049234,627.588018L244.569468,626.630846L246.424903,625.767822L251.516131,621.719462L254.819780,619.820815L257.193936,618.706734L258.223786,618.534130L261.339555,618.534130L264.556015,617.843714L270.069346,613.873827L273.923056,612.571454L275.548452,612.492998L277.125935,612.838205L278.691749,613.873827L280.538662,615.772467L281.660752,616.196131L283.644932,616.368735L287.701525,616.196131L290.447171,615.333112L295.522271,614.375946L297.416112,613.685532L298.459466,614.030739L302.004928,613.779679L305.287397,613.167721L306.949363,612.053644L308.703574,611.535834L311.094973,611.881041L314.405513,612.995118L319.951941,612.555763L322.240758,613.858135L327.087680,614.893757L332.805584,616.949312L335.884264,617.639727L343.417678,625.909044L344.090072,626.348402L349.591028,627.886154L351.103046,628.498117L352.351238,629.706352L353.763415,630.051562L358.035947,629.706352L360.440907,629.094389L365.420489,626.944673L370.251508,625.909044L375.602595,624.010393L378.657476,625.736440L381.481830,626.426859L382.404246,627.792006L382.657781,628.749179L384.136523,630.993045L384.816774,632.012985L388.127124,635.904453L392.038524,644.079702L392.718025,647.531833L392.304927,651.674398L392.438350,652.694350L393.510474,655.110852L395.132175,657.778423L395.781599,658.296246L397.143808,660.634297L397.695313,662.093619L401.931379,662.784051L405.585985,664.243375L408.033257,666.220525L411.015299,670.017914L411.679612,670.441590L412.697301,670.614199L415.438314,669.766847L417.767799,669.672697L418.583122,670.535741L419.173085,672.167679L418.810706,676.137690L419.768931,677.424415L422.809938,679.762490L423.565160,679.919407L425.618295,678.381613L426.648144,678.209003L427.722992,679.401578L427.903007,680.609846L428.678596,681.912266L429.467091,681.912266L432.147985,680.358778L434.745111,680.609846L437.239182,681.472895L437.328867,683.293145L439.167172,686.133366L440.925326,688.032080L445.100020,688.628371L448.510520,688.534220L451.518029,687.341639L455.420264,684.658334L457.337059,683.889434L458.764163,684.140504L459.769710,684.658334L461.379405,687.671168L462.589292,688.706830L465.935184,689.397272L470.600992,689.836645L475.601775,690.087715L479.621425,690.605547L482.039217,691.468600L483.263989,692.410114L484.101642,691.374449L487.171739,688.188999L488.110565,686.808116L489.580236,684.830944L489.860757,683.873743L490.134686,681.723964L490.348777,675.525711L491.398957,672.246138L493.008259,670.096373L495.576548,668.276136L499.437719,666.644200L503.806179,664.149225L507.621358,662.674210L508.914982,661.905319L511.357789,661.120737L512.807131,662.250535L514.130326,662.595751L515.224887,663.113576L517.132810,663.286184L528.615667,662.595751L533.106001,661.811169L536.614355,660.775522L543.527333,657.495974L545.939815,656.554478L556.296523,653.023872L561.607647,650.089552L566.118978,648.018270L569.332660,647.076779L571.266291,647.421992L575.883324,647.767206L579.509697,647.500450L581.922170,646.558959L585.660557,646.213746L587.482741,646.982630L588.410100,647.767206L589.033259,647.767206L589.481667,648.363483L591.661368,649.995403L593.506551,650.685831L594.698542,651.391950L604.577702,652.050996L661.461505,632.876011L772.406820,619.993419L787.532572,618.675351L820.949024,615.741085L1000.000000,574.803053Z "/></g><g fill="#000" font-family="Arial" font-size="12px" id="mylayer-label" stroke="none"><text text-anchor="middle" y="500.636322418"><tspan dy="0" x="477.599935481"><![CDATA[N]]></tspan></text></g></svg>