<?xml version="1.0" encoding="utf-8"?><!DOCTYPE svg  PUBLIC '-//W3C//DTD SVG 1.1//EN'  'http://www.w3.org/Graphics/SVG/1.1/DTD/svg11.dtd'><svg enable_background="new 0 0 1000 1001" height="1001px" pretty_print="False" style="stroke-linejoin: round; stroke:#000; fill: none;" version="1.1" viewBox="0 0 1000 1001" width="1000px" xmlns="http://www.w3.org/2000/svg" xmlns:xlink="http://www.w3.org/1999/xlink"><defs><style type="text/css"><![CDATA[path { fill-rule: evenodd; }]]></style></defs><metadata><views><view h="1001" padding="0" w="1000"><proj flip="auto" id="robinson" lon0="-77.0802472197"/><bbox h="0.17" w="0.17" x="-1040.32" y="-707.33"/></view></views></metadata><g class="" id="mylayer"><path d="M639.810602,999.000000L695.216546,998.721148L727.606241,979.852164L738.206690,979.108559L772.663689,976.784795L773.476051,800.365669L774.959981,761.234004L785.273453,729.817209L786.737346,725.262709L815.431649,634.080058L836.565410,568.086856L843.984176,544.385145L862.509103,484.433931L864.677542,477.462876L879.648173,430.989259L884.821898,414.909422L894.916088,383.028642L916.095459,315.828276L918.409256,315.177651L918.569934,300.399190L919.141886,297.053125L922.122903,280.415759L929.948897,252.531949L957.534023,194.440848L959.680739,187.748768L964.766897,172.133927L985.545299,122.779985L943.993223,123.802382L892.722817,126.126010L813.559140,112.741916L704.312433,93.502302L631.308306,78.631121L464.804410,44.706294L459.283614,43.312125L311.003631,0.000000L213.139409,291.197514L209.175367,301.700437L196.415194,341.946223L179.448800,392.509216L159.156921,450.043424L153.420301,465.100879L140.438821,499.677317L133.908211,512.411133L133.534579,515.850195L121.622879,552.843398L73.387147,680.554325L63.412651,708.624853L59.482327,719.685772L56.906156,726.935791L55.948350,729.631311L53.328079,736.788386L50.443593,744.689056L47.768359,752.217935L44.564693,761.234004L39.379396,775.827035L17.702835,837.266647L14.454701,844.888523L54.624088,855.577746L73.314481,859.853438L218.526504,885.786463L338.761442,921.014554L400.768516,951.874061L517.718786,981.804127L639.810602,999.000000Z " data-aland="780849" data-awater="14892" data-classfp="C1" data-funcstat="A" data-geoid="3662061" data-intptlat="+42.1560324" data-intptlon="-077.0791670" data-lsad="47" data-mtfcc="G4110" data-name="Riverside" data-namelsad="Riverside village" data-pcicbsa="N" data-pcinecta="N" data-placefp="62061" data-placens="02391097" data-statefp="36"/></g><g fill="#000" font-family="Arial" font-size="12px" id="mylayer-label" stroke="none"><text text-anchor="middle" y="505.389316859"><tspan dy="0" x="503.00580541"><![CDATA[Riverside]]></tspan></text></g></svg>