<?xml version="1.0" encoding="utf-8"?><!DOCTYPE svg  PUBLIC '-//W3C//DTD SVG 1.1//EN'  'http://www.w3.org/Graphics/SVG/1.1/DTD/svg11.dtd'><svg enable_background="new 0 0 1000 1001" height="1001px" pretty_print="False" style="stroke-linejoin: round; stroke:#000; fill: none;" version="1.1" viewBox="0 0 1000 1001" width="1000px" xmlns="http://www.w3.org/2000/svg" xmlns:xlink="http://www.w3.org/1999/xlink"><defs><style type="text/css"><![CDATA[path { fill-rule: evenodd; }]]></style></defs><metadata><views><view h="1001" padding="0" w="1000"><proj flip="auto" id="robinson" lon0="-94.5770812949"/><bbox h="0.75" w="0.7" x="-1325.93" y="-571.06"/></view></views></metadata><g class="" id="mylayer"><path d="M867.831368,0.000000L861.032238,3.753715L854.438189,6.293652L847.219907,7.642290L840.310659,8.046881L836.615743,8.878541L832.031090,10.901497L827.638470,13.576292L820.734357,17.914401L812.906183,20.881395L800.665382,21.847915L796.368761,22.387368L792.752179,21.870392L788.893895,21.106167L780.126795,18.678627L775.357779,18.566241L771.101867,18.791013L761.363093,20.252032L753.013340,20.903872L745.402264,21.645620L736.944965,23.376365L731.757054,24.747473L725.558031,26.792897L719.002352,26.837852L713.807281,25.983719L708.929445,25.556652L704.146847,26.096105L695.123439,26.568125L692.823162,26.815374L687.357940,28.905751L686.306629,29.467680L681.488162,32.007598L677.134421,33.401181L671.690967,34.569992L666.285410,35.311737L658.130239,34.480083L652.367523,33.648430L644.692200,31.378238L638.406171,28.905751L634.047653,25.331880L630.609590,22.836912L626.829185,21.151121L623.104095,19.285512L616.084821,16.340994L605.890146,13.329042L600.808078,11.013883L593.039151,8.136791L589.349657,6.945494L584.484458,5.079877L581.161043,5.372082L574.057353,7.867063L555.864000,11.171224L532.507218,16.678153L523.015927,19.218080L517.390170,19.824965L507.809368,19.982306L502.828295,21.106167L499.351466,22.140118L496.458388,23.646091L494.132194,24.949768L490.754915,32.951638L485.626270,42.819088L480.498195,52.259448L478.375511,55.271366L476.140970,57.249341L474.239817,58.508052L471.017985,60.171348L463.356869,62.351613L458.717563,64.734169L452.742178,68.847446L449.926404,71.499720L448.160674,73.837317L446.562887,77.208847L444.582776,83.524838L441.491189,90.537598L432.930147,87.683047L422.180235,83.255116L415.127063,80.602851L401.137425,78.018014L394.484232,74.916207L392.329413,73.657502L391.660342,74.556577L380.037087,88.402304L374.249358,92.695367L370.620648,94.830659L363.684595,97.752634L354.976207,100.359934L353.351838,101.326432L351.481633,103.821345L349.421981,105.169946L345.141890,107.417614L341.046906,110.339579L327.193150,120.499008L313.921657,130.770791L312.205616,132.703771L310.442702,136.794493L309.980006,139.514146L309.950026,143.986959L310.360973,146.661653L311.877022,149.875779L317.180299,159.068613L317.755664,162.485014L317.444086,165.564268L316.399450,168.778377L314.603332,172.734199L312.691720,175.363920L309.442779,178.330781L304.369252,181.882021L301.497703,183.500307L297.766076,184.511735L291.495189,183.994783L287.296005,184.399354L277.454589,187.590970L273.344262,188.557444L270.086298,188.332683L265.236180,185.141068L262.058600,183.500307L254.823705,183.747545L252.683386,182.623736L249.240531,179.050020L247.100218,177.926209L244.862613,177.544114L240.468322,178.218400L236.147268,180.173830L230.022617,183.253069L226.753412,185.860305L221.765127,191.322010L219.480174,193.524670L214.234029,196.603897L211.258766,198.559317L209.347142,201.189018L207.406143,207.864404L204.812200,212.651795L201.068077,216.742424L199.330334,219.596871L198.611404,221.934370L198.070207,225.395662L196.855118,229.711036L195.735215,231.711389L193.318453,234.768107L190.691219,237.779871L187.654262,239.510510L184.546850,240.072405L176.389360,240.948962L172.167357,241.488382L166.763132,240.948962L162.127314,240.342115L158.270635,238.903662L155.672489,238.903662L150.811648,239.757744L147.685040,240.746680L144.868280,242.612172L140.448001,248.658159L138.502344,250.973163L132.839632,254.434427L129.476562,259.109376L127.588755,260.750102L124.098818,262.008741L119.426432,263.222427L115.880698,265.087908L110.626947,269.650465L103.740382,274.842333L98.945682,278.033867L94.007303,280.416278L90.365499,281.135496L88.337259,280.011718L87.666757,276.235820L86.453706,272.886955L85.085051,271.381089L81.490803,270.122453L77.533008,270.167405L73.967798,271.853077L72.022636,273.741028L70.524654,278.550806L69.857940,285.945263L68.817760,289.631249L66.597955,293.384657L60.402590,300.644231L56.586874,305.453972L52.653659,310.645788L45.046413,317.208591L40.205002,322.557717L32.673028,328.693469L48.039659,407.827983L51.863905,426.819105L58.179472,460.688227L65.230436,495.815582L66.898356,504.131028L69.011208,507.412253L154.873007,639.467800L168.605901,660.592638L160.722110,687.155820L159.350864,691.313322L158.389984,694.257280L151.297069,715.876196L142.634827,744.731176L131.339257,780.574849L120.007799,816.597940L114.989640,832.867764L154.606322,832.912708L225.837974,832.822819L238.027905,833.182373L240.692169,833.272261L278.955165,833.159901L278.649826,832.328434L278.755392,829.429533L279.287051,827.699181L283.179925,833.159901L298.303071,833.159901L321.593314,833.227317L337.111892,833.339677L342.612705,833.384621L358.231656,833.474510L368.286810,833.541926L421.881656,834.575641L425.839277,837.879034L430.087617,841.879057L432.261292,845.452107L433.272251,848.733017L432.723792,853.317299L431.390031,860.822923L413.826238,919.092098L413.175345,921.271837L401.844514,958.888973L390.658193,994.820385L392.572817,997.898919L417.013860,998.056216L439.228878,998.887645L442.559319,999.000000L475.524313,998.550579L475.867709,998.528108L522.142613,997.045019L544.692664,997.089961L553.415936,997.112432L567.492374,997.539382L572.049730,997.674209L594.260406,997.606795L608.780007,997.382085L621.248140,997.202317L639.837039,997.179845L653.745496,997.179845L654.941922,997.179845L670.907255,996.325945L689.152755,996.325945L708.655400,996.797838L717.067772,996.797838L719.104391,990.348640L734.019709,940.260226L739.242716,922.462828L742.584291,911.339409L743.723089,907.631595L749.321423,889.586846L753.122473,877.272319L765.560951,834.890250L775.266073,803.721356L779.187898,791.136866L790.069258,757.540555L791.302133,753.405602L799.107230,726.842913L810.814994,688.369362L820.709102,652.637129L823.835824,642.703954L827.710364,630.276209L831.156862,619.241775L838.721420,594.318658L841.016913,586.969789L845.971964,571.148319L847.932848,565.192776L594.233982,672.862965L585.442336,668.076194L581.524627,665.738989L576.310676,664.031031L569.092645,663.491675L562.754024,663.132105L553.150784,660.682531L546.907182,659.648765L542.134378,659.851023L538.677467,660.637584L532.249779,663.244470L527.910717,664.772644L524.376175,665.446838L517.587254,664.727698L516.083237,664.390601L513.390961,663.783826L510.327320,663.716407L508.534089,664.502967L504.908328,667.177269L500.610336,668.997592L496.315918,670.076301L489.979070,671.110064L478.072396,671.289848L451.685833,671.020171L452.150457,668.413291L453.462508,663.109632L455.866706,660.030809L458.731792,657.581233L464.144747,654.322619L469.050502,650.524646L471.366400,646.029997L472.472420,640.119526L473.125035,635.197871L473.994500,633.220218L475.841709,631.467297L478.407441,630.478470L481.532849,630.770623L484.601807,631.489771L487.328303,633.444951L489.545122,634.321411L493.379859,632.366231L496.359882,628.995228L503.403844,623.713983L505.305475,621.601483L506.371923,618.252944L505.884545,616.432595L503.427427,613.600940L503.202582,611.960377L503.938810,610.477128L505.696242,609.016351L510.906830,605.443064L514.925578,602.341718L518.375434,599.510052L525.323807,592.228614L527.007608,589.486835L528.226054,585.643845L529.886736,583.463901L536.055493,578.901747L540.731802,576.519536L546.183008,573.440639L548.926613,570.474107L550.982644,567.372731L556.689357,562.428501L559.032257,558.697851L553.229434,551.303961L552.295436,547.348560L552.177021,543.415629L552.896937,539.370324L555.665447,526.470265L557.028311,524.043071L561.496971,520.694440L564.099670,519.098782L567.554081,516.739005L572.175899,511.614913L573.652168,509.974303L577.187003,505.771641L583.485384,495.253727L588.597648,484.398668L592.086576,475.723587L593.771724,470.666858L594.180922,466.598996L592.967138,463.250311L591.537177,460.665753L590.808593,458.171090L591.270639,455.451682L589.863872,451.271430L589.965488,448.934083L591.044398,446.214667L593.748753,442.281624L596.231667,437.427119L596.841271,433.741287L596.152324,423.942350L597.143938,419.986808L600.095928,412.390356L600.641906,405.445657L601.747407,399.782009L603.329130,395.062296L605.035178,390.971872L606.852157,387.128668L611.786071,379.105122L617.532717,370.991659L620.574404,368.272184L627.623484,359.327118L639.931366,341.302068L646.010509,333.323369L648.852005,329.187924L651.405421,324.895147L655.703649,316.264627L664.596696,300.531854L667.603390,294.643284L669.024818,290.080759L669.865566,285.765459L671.390217,281.292825L672.689320,273.358943L674.092685,263.626990L674.326987,257.940640L674.612020,256.344864L705.890182,246.230775L727.997675,238.768807L757.715858,228.317530L765.640581,226.069940L779.009899,223.440257L791.179198,221.552279L808.309021,220.248674L860.119749,220.743145L891.366954,220.091342L923.911132,220.023914L955.729170,220.068866L958.742331,209.842294L967.326972,179.791735L929.807000,179.994021L906.357650,180.331164L869.864127,180.173830L837.641545,180.533450L850.731026,159.360805L853.050947,152.910091L853.815567,150.909693L857.110758,146.818988L862.838823,141.806744L868.844438,136.682110L871.792990,132.928536L875.364519,126.297962L879.610562,117.352286L883.538657,112.115233L885.713991,108.384110L886.487785,105.259853L885.831911,103.259428L882.902918,101.843396L877.744800,100.382410L863.740168,96.021926L853.985583,90.605028L846.467244,88.492211L838.175173,86.828928L835.369650,85.862426L834.889730,84.019328L834.795622,81.164771L834.597137,80.108360L834.281355,78.400120L834.786927,75.905189L840.727112,56.103015L847.353865,32.367233L849.079488,27.242441L852.140881,21.420848L855.198719,16.947880L857.551682,12.092792L860.568060,7.754677L865.379802,4.203262L867.390222,2.832145L868.041580,1.078913L867.831368,0.000000L867.831368,0.000000Z "/></g><g fill="#000" font-family="Arial" font-size="12px" id="mylayer-label" stroke="none"><text text-anchor="middle" y="484.096462526"><tspan dy="0" x="459.210307167"><![CDATA[N]]></tspan></text></g></svg>