<?xml version="1.0" encoding="utf-8"?><!DOCTYPE svg  PUBLIC '-//W3C//DTD SVG 1.1//EN'  'http://www.w3.org/Graphics/SVG/1.1/DTD/svg11.dtd'><svg enable_background="new 0 0 1000 1001" height="1001px" pretty_print="False" style="stroke-linejoin: round; stroke:#000; fill: none;" version="1.1" viewBox="0 0 1000 1001" width="1000px" xmlns="http://www.w3.org/2000/svg" xmlns:xlink="http://www.w3.org/1999/xlink"><defs><style type="text/css"><![CDATA[path { fill-rule: evenodd; }]]></style></defs><metadata><views><view h="1001" padding="0" w="1000"><proj flip="auto" id="robinson" lon0="-87.4371291228"/><bbox h="0.92" w="1.08" x="-1185.64" y="-694.82"/></view></views></metadata><g class="" id="mylayer"><path d="M1000.000000,324.918083L964.452456,324.583522L930.215388,324.279375L927.658135,324.248960L922.789564,324.203338L922.273218,324.203338L920.755310,324.188131L900.821710,324.020850L877.253735,323.807947L869.832432,323.655874L886.973000,279.752929L938.422721,148.005998L955.576022,104.092857L936.332316,103.195753L899.357486,101.462366L897.302748,101.371135L878.283396,101.188673L858.728501,100.991006L869.934685,72.329594L870.368679,71.219640L817.844665,71.219640L809.492228,88.522847L806.129965,88.522847L793.574999,88.522847L788.700579,92.841076L787.356294,100.337186L772.510088,100.367596L763.317346,100.367596L728.505859,99.059956L717.861773,98.649418L713.801651,98.695033L673.877934,98.223675L554.086925,96.763985L536.804732,96.551114L533.429167,96.520703L530.059549,96.475088L525.921771,96.429473L521.789940,96.368653L514.156618,96.277422L502.354381,96.703165L489.853592,97.144112L484.838514,97.280958L467.172237,97.341779L465.018871,97.341779L463.253784,97.250548L455.702321,96.885626L429.875621,95.562783L428.703096,95.501963L386.267453,97.235343L349.537360,98.740648L322.745774,99.820212L318.141364,99.744186L304.334082,99.500904L299.723028,99.409673L296.943180,99.272827L288.591044,98.862289L285.798604,98.725443L279.909407,98.360520L262.209996,97.250548L259.031738,97.037677L256.314161,96.870421L250.288167,96.855215L232.210184,96.809600L226.933112,96.779190L226.233169,96.733575L225.331044,96.657549L203.110229,94.969785L133.870700,89.541583L110.790925,87.732186L110.677199,87.990671L110.322736,88.735717L110.202367,88.978997L107.660954,94.315967L100.036160,110.296577L97.488196,115.618415L96.805185,117.138944L94.717690,121.670128L94.028042,123.175457L92.135727,127.980356L86.476749,142.349526L84.577870,147.139279L83.120567,150.864653L82.638071,152.065898L78.736140,162.040828L77.284834,165.751032L84.417403,165.963913L105.802526,166.602556L112.922507,166.815437L118.374253,167.043524L134.709560,167.682167L140.154664,167.895048L137.765098,175.163434L130.805900,196.208496L131.423667,196.238908L137.342128,196.497411L136.281452,198.565439L133.129882,204.723920L132.068521,206.761547L124.442496,223.427607L101.546571,273.411665L93.914825,290.063241L91.699442,295.568185L85.066047,312.083137L82.838176,317.588160L79.742938,324.796424L70.476027,346.406214L67.374317,353.599406L64.110103,361.659472L63.877545,362.222157L54.298555,385.824715L51.015324,393.869742L48.371026,400.409209L43.795859,411.663241L40.418406,419.982152L39.012050,423.419230L36.867061,426.232772L37.219700,426.232772L38.277618,426.232772L38.630257,426.232772L46.157795,426.339231L68.715224,426.658606L76.236115,426.749856L95.514223,427.403816L99.087043,426.962773L115.602644,426.886732L172.005954,426.612981L189.635789,426.521731L156.269571,538.961234L155.330906,538.946025L135.942850,538.474531L135.340338,540.177993L113.707510,595.556739L82.803630,595.739260L76.405028,612.120562L55.507402,613.900157L55.986974,611.253581L46.162811,611.253581L43.176553,618.189446L42.958396,620.166782L42.989054,621.474867L44.395677,623.452207L44.743850,626.752850L43.454665,630.053500L43.367234,631.696222L51.259646,631.224700L48.936553,637.430554L18.473050,637.613079L14.947108,637.643500L14.273621,637.658711L0.000000,674.559735L0.534946,674.544524L4.312126,674.483681L64.742474,673.586242L53.792590,702.045953L111.064265,702.045953L111.198005,701.574409L112.677616,701.559198L158.001874,540.330088L174.649056,540.466973L190.596875,540.588649L208.616890,540.725534L297.183281,541.531638L292.547277,553.303836L285.166624,572.361606L284.157453,574.977695L281.141858,582.795570L280.126057,585.396467L278.421902,589.792145L273.302170,602.933626L271.591428,607.314145L270.801404,609.337097L268.424698,615.390760L267.628033,617.398513L255.097635,649.325178L193.679615,649.173073L150.589753,755.985490L148.644316,760.807589L127.818618,813.836484L140.356119,813.760423L177.924892,813.547452L190.455731,813.456178L205.146232,774.269998L207.162040,769.234891L208.215028,766.892279L222.193635,766.511985L221.789143,767.515961L214.332328,787.458712L215.840778,787.595620L219.026641,787.823799L213.932543,801.681963L209.868242,812.482596L248.540385,812.056654L234.407448,849.174900L230.857747,859.078324L172.923918,860.766932L171.450886,860.797358L147.713029,925.118022L149.175806,924.920248L148.791432,925.969969L207.363973,926.715424L207.634825,925.924329L213.591603,909.752619L231.969769,909.752619L225.899600,926.182956L225.547238,926.989264L265.182083,927.780360L265.622733,926.715424L317.031475,794.836531L314.390189,791.018315L308.793552,781.024066L304.620058,771.547083L300.836066,761.492115L331.629625,761.629021L417.352382,761.994102L424.016257,762.024525L454.797233,762.161430L443.844166,790.744499L441.732316,796.220827L419.395359,854.499313L446.381222,853.647406L438.718961,873.287036L534.026554,873.469590L535.607747,873.484803L576.859061,765.979574L633.735936,766.801009L634.852612,766.618467L635.965666,766.283809L637.062501,765.797033L638.260242,765.051658L639.051880,764.443188L639.178144,765.249410L641.702849,767.333420L642.840403,768.291761L643.079585,768.550361L645.046564,768.900232L645.411704,769.158832L648.166734,770.071539L648.780755,770.467046L651.162220,770.238869L654.167268,770.543105L657.064482,771.607931L658.519252,772.398944L659.054801,772.672757L659.628138,772.946570L660.849796,773.205171L662.078115,773.478983L663.092036,774.269998L664.439977,775.334827L665.233838,776.141055L666.235434,776.414868L667.331270,776.414868L670.203117,776.414868L672.860834,776.414868L674.523350,776.673469L677.212853,778.270715L678.220850,779.076944L679.795530,780.141776L680.929358,781.206608L681.515501,782.545256L681.648197,783.883905L680.924118,785.739761L679.570929,789.208089L680.235873,799.126332L681.605012,803.978993L671.408528,830.341840L669.302549,835.772674L669.752984,835.909586L668.944501,839.499729L668.978810,840.671090L669.898439,840.412478L672.025225,839.803978L673.534302,838.647830L675.519121,837.369982L676.561458,837.765506L678.206567,837.293920L679.676900,836.624572L680.649415,839.104204L682.005540,838.663042L682.644870,837.217858L684.038170,836.487659L685.049268,837.157008L684.812174,838.830379L683.308025,842.298828L680.668446,846.482275L678.278551,848.992349L675.486819,852.080506L674.500131,853.221452L674.130218,855.396859L673.969457,857.100676L673.902996,860.112787L674.001366,860.538742L673.912250,861.025548L674.146886,861.618844L674.003744,861.953523L674.162911,862.288203L674.143439,862.790223L674.299266,864.037666L674.359227,864.174581L673.185983,868.571067L673.080110,873.880336L682.067901,873.895549L754.336982,874.078103L774.575419,874.184593L798.315277,819.617141L856.617838,819.434594L865.748713,797.027066L866.783506,794.212838L875.943354,766.146903L809.177415,765.006023L802.259434,764.884329L790.647715,764.686576L695.851339,763.074133L697.998494,757.506655L701.131694,749.444496L710.524981,725.243065L713.651752,717.165866L714.873116,713.971506L718.555069,704.342831L719.782406,701.133287L729.765305,693.755923L741.939295,684.766236L761.147265,669.920439L774.911742,658.953504L778.422361,656.154743L779.464309,653.355987L779.711000,653.401619L784.343566,651.439450L771.098130,645.005381L775.789029,637.537027L778.745999,633.962573L786.752431,624.227934L786.498869,623.360945L785.593324,620.227623L783.958291,620.060310L783.861304,619.953838L782.562142,618.280708L782.135785,615.436391L782.470258,614.934453L783.860864,612.759391L784.990001,609.382728L788.357503,599.207153L789.480025,595.815310L775.222836,596.362872L761.839917,596.864803L775.382783,561.851665L781.940128,544.862522L789.466965,522.778439L812.042792,456.482483L819.564766,434.384471L849.987348,434.430096L880.378086,434.460513L886.688542,434.490930L956.339984,434.703848L1000.000000,324.918083Z M639.051880,764.443188L639.504018,764.123742L661.662139,764.215012L665.485316,764.230224L666.868717,765.462375L666.335388,766.603256L665.348068,768.778538L664.467996,769.904210L663.229577,770.527893L662.169356,770.436622L661.481073,770.360563L660.056434,770.041116L659.902385,769.919421L658.740356,768.991503L658.194797,768.033161L648.396555,767.029185L644.685671,764.853905L642.535696,764.488824L639.051880,764.443188Z M695.851339,763.074133L691.020507,776.004148L690.697895,775.152285L690.427842,774.391693L690.032690,773.402924L686.487334,773.418136L683.329413,773.570254L682.430167,773.098688L681.113083,772.535851L679.629488,771.592719L679.252875,770.588740L678.886092,769.204468L677.955857,768.489514L676.745752,767.394267L674.930281,764.945176L673.046535,764.123742L695.851339,763.074133Z M220.658070,687.914902L223.657718,677.845278L234.295591,677.890910L243.881391,677.921332L243.162761,679.761848L242.158344,682.302067L241.012113,685.237775L240.286840,687.063088L237.377417,687.869269L230.450652,687.899691L220.658070,687.914902Z M208.953751,455.113705L212.052786,447.311693L212.254135,446.764185L220.162848,426.460898L226.195496,426.460898L244.298675,426.415273L250.324672,426.400064L255.960247,426.384856L272.860320,426.324022L278.489243,426.293606L277.251288,429.107154L275.381340,434.795098L274.369832,437.867206L293.043642,437.715121L300.107629,437.654287L304.521579,437.639079L317.730876,437.547828L322.138173,437.517411L324.921515,437.517411L333.295308,437.456577L336.071997,437.441369L336.305081,437.715121L337.004335,438.536379L337.224825,438.810131L333.578415,448.239416L322.601873,476.527619L318.949125,485.941928L259.767471,485.941928L271.682294,455.478713L208.953751,455.113705Z "/></g><g fill="#000" font-family="Arial" font-size="12px" id="mylayer-label" stroke="none"><text text-anchor="middle" y="433.802378536"><tspan dy="0" x="495.378185179"><![CDATA[N]]></tspan></text></g></svg>