<?xml version="1.0" encoding="utf-8"?><!DOCTYPE svg  PUBLIC '-//W3C//DTD SVG 1.1//EN'  'http://www.w3.org/Graphics/SVG/1.1/DTD/svg11.dtd'><svg enable_background="new 0 0 1000 1001" height="1001px" pretty_print="False" style="stroke-linejoin: round; stroke:#000; fill: none;" version="1.1" viewBox="0 0 1000 1001" width="1000px" xmlns="http://www.w3.org/2000/svg" xmlns:xlink="http://www.w3.org/1999/xlink"><defs><style type="text/css"><![CDATA[path { fill-rule: evenodd; }]]></style></defs><metadata><views><view h="1001" padding="0" w="1000"><proj flip="auto" id="robinson" lon0="-86.7242773577"/><bbox h="0.13" w="0.19" x="-1182.51" y="-676.0"/></view></views></metadata><g class="" id="mylayer"><path d="M1000.000000,163.629860L949.920146,162.752163L921.558757,163.015472L896.145807,163.103242L550.057874,165.034177L396.943132,169.861517L298.982038,172.933462L280.923522,223.840223L270.890589,251.839128L269.975281,253.945634L210.987939,415.885538L181.881174,496.198844L179.150531,503.659698L171.055038,525.778993L168.284454,533.152109L165.585985,540.525235L160.811959,539.384156L101.652750,539.471931L86.200824,581.692023L3.693874,807.543925L0.000000,817.638557L65.233573,817.111880L84.630456,817.111880L304.462866,815.795188L316.808718,836.247837L348.624692,815.707409L666.836999,812.547349L751.650371,813.688482L804.801987,813.074026L837.691433,812.459570L862.144980,749.960963L775.728570,750.048742L780.248684,738.286438L784.568243,726.875269L786.125656,723.013033L790.613707,711.338560L792.059035,707.388556L796.001102,697.206335L802.930237,678.860826L807.491131,666.396446L811.249071,656.126518L816.387517,642.872194L831.907265,603.021623L837.005847,589.679642L845.934012,566.857902L868.102746,509.628389L872.494871,498.217663L881.094993,475.308502L883.937461,467.935458L885.455065,463.985616L898.455449,429.841542L902.703523,418.430970L905.963664,409.916942L915.808411,384.199386L919.028621,375.597635L924.279807,362.431713L929.426794,349.353593L939.841499,322.670807L944.908616,309.417231L952.954818,288.615321L956.311529,279.838166L976.613420,225.946719L984.403636,205.057333L988.981279,192.945033L1000.000000,163.629860Z "/></g><g fill="#000" font-family="Arial" font-size="12px" id="mylayer-label" stroke="none"><text text-anchor="middle" y="494.167815496"><tspan dy="0" x="516.351477862"><![CDATA[N]]></tspan></text></g></svg>