<?xml version="1.0" encoding="utf-8"?><!DOCTYPE svg  PUBLIC '-//W3C//DTD SVG 1.1//EN'  'http://www.w3.org/Graphics/SVG/1.1/DTD/svg11.dtd'><svg enable_background="new 0 0 1000 1001" height="1001px" pretty_print="False" style="stroke-linejoin: round; stroke:#000; fill: none;" version="1.1" viewBox="0 0 1000 1001" width="1000px" xmlns="http://www.w3.org/2000/svg" xmlns:xlink="http://www.w3.org/1999/xlink"><defs><style type="text/css"><![CDATA[path { fill-rule: evenodd; }]]></style></defs><metadata><views><view h="1001" padding="0" w="1000"><proj flip="auto" id="robinson" lon0="-87.4048205981"/><bbox h="0.87" w="0.64" x="-1195.62" y="-666.63"/></view></views></metadata><g class="" id="mylayer"><path d="M826.774570,0.000000L814.303544,30.474548L813.698343,31.951305L811.225697,37.915889L760.841742,161.509578L756.808693,161.528759L749.550396,161.586301L746.457318,161.605481L744.076058,161.605481L724.063717,161.931550L710.860208,162.142536L696.400321,162.142536L678.330370,162.161717L668.785696,162.084995L665.151430,172.538433L655.777671,197.109129L647.510307,220.951382L643.463944,232.210903L640.121062,241.322170L637.746600,247.805592L632.966279,261.827540L631.334782,266.623041L626.323900,281.028830L625.765087,282.640139L618.534661,303.184505L607.217293,303.069410L596.334618,302.877584L594.154949,302.839219L585.228630,302.609028L574.613408,302.589846L570.258050,302.589846L557.287721,302.321290L553.245698,302.321290L545.506321,302.321290L533.818922,302.321290L529.938417,302.263742L521.644739,302.148647L507.681684,302.071917L502.938548,314.540629L498.927683,324.208756L496.218255,330.270553L491.403655,342.413414L490.461914,345.099053L489.568049,347.650416L487.595552,351.909091L485.743158,354.556383L484.143683,357.548980L503.002246,376.636534L504.681057,378.343877L508.707186,391.619015L512.496699,407.273104L517.838933,424.462116L520.127921,431.579506L525.942977,437.507495L533.977728,440.020664L537.946115,440.711306L527.236210,443.550618L523.462374,444.644138L520.578443,445.526629L515.667724,447.656120L505.424417,456.308410L487.180024,472.289394L475.189595,486.812493L474.234201,488.174641L462.344493,503.426957L456.456051,510.103496L455.955286,510.717433L450.798956,517.010296L449.020942,519.274199L443.967672,528.751936L441.105052,533.356529L433.505977,549.760518L433.425950,550.029123L429.996762,560.754180L427.609006,572.822369L426.703569,579.806236L426.825668,581.398716L422.578308,581.974311L414.710301,583.125503L404.432297,587.039564L378.889239,601.698204L362.020028,614.131311L352.492999,620.731648L326.602927,638.652495L314.148148,646.346636L306.011985,651.373755L296.809052,656.976519L281.971224,665.994716L269.625823,673.382007L255.396035,672.422616L239.664852,663.097374L221.437293,652.467443L198.789823,639.247303L198.180128,638.671683L179.297805,621.172951L165.106962,608.010677L162.794791,605.880934L162.516455,605.650691L193.026579,561.310581L171.117307,543.870408L135.407617,593.390342L140.716363,596.652083L143.462360,598.839373L147.433371,601.986006L154.479759,607.626939L158.135458,610.735219L160.257320,612.519605L163.042698,614.860416L170.670166,621.729377L175.017641,625.183057L183.966495,632.301504L195.018350,641.741659L197.082466,643.468524L203.896214,649.148005L213.935288,656.285766L216.173469,657.744023L238.251457,671.904545L243.154948,674.897846L249.314917,677.046886L253.773380,677.814401L256.427321,677.929528L261.571515,677.123637L268.725074,675.339166L271.537026,674.878658L282.756638,667.836738L298.059836,658.127775L305.549926,653.330882L314.640016,647.517071L327.165966,639.535113L340.805707,630.977585L351.455653,624.127765L353.811905,622.439299L357.627147,619.733921L359.057636,618.621072L363.600634,615.148221L378.073596,603.636072L379.111875,602.964533L391.302805,596.671270L404.813198,589.840810L411.592736,586.291286L412.194633,585.965115L413.923141,585.159278L414.946073,584.794733L422.389050,583.605167L426.740091,582.914451L427.675796,591.855408L429.575176,618.237331L429.851821,627.754136L427.791352,638.422247L424.189691,650.030630L402.686247,719.126545L401.594595,722.676416L470.804226,722.714793L468.331318,730.716429L467.326575,733.978501L461.443534,751.382744L454.183637,772.567483L447.168019,793.023351L439.907236,814.477396L436.170103,825.857005L432.894336,834.972275L426.165827,854.008994L377.147571,992.954402L519.799540,999.000000L523.804537,992.013978L525.889200,988.444211L537.798236,966.507623L545.606355,951.518783L556.128995,921.810278L559.520621,912.233838L562.140706,904.826056L565.737324,894.674006L573.165006,873.756033L579.782761,854.719038L586.766780,833.993580L597.822221,802.138400L601.242110,792.486044L608.528109,771.972617L615.899241,751.133288L620.758449,737.835431L622.574712,732.865558L623.579707,729.910507L626.236687,722.139138L632.912646,722.311834L635.929597,714.981842L643.695601,695.985449L648.830496,683.455650L650.846027,680.347204L664.221106,680.539083L670.159391,680.539083L682.168138,680.519895L687.264913,668.009427L699.263093,640.033984L707.148476,626.909901L707.263806,626.718029L716.754773,610.581724L730.130801,592.028088L736.280629,583.470861L746.733993,574.664265L736.393905,569.119400L729.326477,565.339696L716.687985,558.682070L781.950031,366.757013L774.178985,362.229722L767.750139,360.618317L756.727966,361.213002L742.964925,361.673404L746.526567,350.009951L750.123860,339.785329L753.669188,328.256346L753.879162,327.623309L756.505157,319.508963L761.418101,306.253718L766.841647,289.852691L770.019814,280.146447L773.733204,268.675521L781.159057,246.616323L786.262938,232.345174L794.220885,212.530779L815.163229,162.852217L815.735820,161.202690L818.341746,153.588040L825.513665,133.698087L834.654614,107.498271L839.494886,93.401218L841.633149,87.187053L847.772557,70.942137L848.771440,68.141970L856.050265,47.869707L862.251409,30.838942L864.592383,24.145604L854.301332,24.625068L843.787906,21.556499L826.774570,0.000000Z "/></g><g fill="#000" font-family="Arial" font-size="12px" id="mylayer-label" stroke="none"><text text-anchor="middle" y="539.576244549"><tspan dy="0" x="589.581506632"><![CDATA[N]]></tspan></text></g></svg>