<?xml version="1.0" encoding="utf-8"?><!DOCTYPE svg  PUBLIC '-//W3C//DTD SVG 1.1//EN'  'http://www.w3.org/Graphics/SVG/1.1/DTD/svg11.dtd'><svg enable_background="new 0 0 1000 1001" height="1001px" pretty_print="False" style="stroke-linejoin: round; stroke:#000; fill: none;" version="1.1" viewBox="0 0 1000 1001" width="1000px" xmlns="http://www.w3.org/2000/svg" xmlns:xlink="http://www.w3.org/1999/xlink"><defs><style type="text/css"><![CDATA[path { fill-rule: evenodd; }]]></style></defs><metadata><views><view h="1001" padding="0" w="1000"><proj flip="auto" id="robinson" lon0="-87.3903043077"/><bbox h="0.31" w="0.5" x="-1192.36" y="-674.31"/></view></views></metadata><g class="" id="mylayer"><path d="M1000.000000,429.532273L988.773497,429.664838L886.571005,429.432848L859.072567,429.068293L831.442138,431.587043L809.569247,433.608673L792.627425,434.271503L776.707464,434.669201L780.020712,427.112949L784.394168,413.027900L785.016007,411.702253L787.774073,402.025055L786.632098,400.169159L784.537947,400.169159L783.205305,400.169159L781.938671,400.434287L780.836524,401.660504L770.222444,431.288770L769.098138,434.801767L763.416888,434.868051L746.300788,434.967475L740.604486,435.000617L725.676285,435.066900L712.935982,435.100041L680.725061,435.497739L672.623284,435.564023L665.769661,435.564023L674.434512,412.961618L700.081681,345.884904L699.401767,345.884904L680.850826,345.818623L682.636604,340.947026L688.006155,326.299160L689.776931,321.394467L691.878630,315.661293L698.183821,298.461860L700.258386,292.728746L673.717678,292.795025L603.898376,292.960722L594.038262,292.927582L578.778230,292.861304L583.590630,279.141659L588.462741,265.852907L583.210978,265.786629L565.712234,265.521517L534.769314,265.355823L518.608978,265.223267L520.145202,263.036099L524.766033,256.441470L526.287218,254.221173L499.908089,253.624675L424.973986,251.868323L426.921062,246.632412L438.883862,214.156790L445.490986,196.361682L445.055852,196.361682L399.947092,196.262268L384.904861,196.195993L365.456893,196.129717L307.031401,195.930890L287.556238,195.864614L283.302203,207.761139L270.525463,243.417966L266.256657,255.281613L257.698543,255.480446L231.981960,256.043805L223.408800,256.209499L208.991357,256.441470L204.180527,256.507748L212.193289,211.074946L215.176446,194.042032L213.801608,194.008895L209.595507,193.909481L208.193473,193.876343L201.122622,228.803898L194.284477,262.505877L189.415558,309.530458L184.561061,332.264343L177.033359,367.260410L176.253616,373.689673L175.628164,375.247281L165.409871,400.003454L162.015987,408.222434L158.590365,417.269976L148.322984,444.313404L144.882470,453.327955L143.683179,456.377003L140.052337,465.391604L138.838016,468.407527L131.929872,484.879179L122.215955,485.707737L113.366544,486.403725L109.146507,498.732699L65.287670,484.978606L45.197687,478.648439L45.728653,482.393509L46.775562,489.850528L47.569826,493.396763L48.364099,496.943004L58.966062,499.627546L90.796323,507.614906L101.383289,510.266318L106.024949,511.923452L112.834961,514.342871L115.383528,515.403439L118.150217,516.165722L120.137976,516.530292L121.095683,516.662863L124.150480,516.861720L125.413702,516.828577L112.703137,558.854023L111.155938,563.891828L47.343099,571.481702L38.568016,604.923865L34.846372,617.750680L32.845897,624.545276L22.855652,653.513698L19.508594,659.678653L6.557245,683.443723L0.000000,693.619363L14.401763,694.249128L95.394691,697.596825L142.792469,698.955793L151.383626,699.187812L165.013760,698.657483L180.247040,706.148393L182.243630,706.711870L180.937494,708.866341L179.413270,711.319125L176.798602,715.263474L175.380771,717.351662L167.827763,728.687572L162.722835,736.311171L150.554451,758.983250L148.927307,761.568678L147.449295,763.524324L147.037414,764.054669L144.884772,766.441223L142.535921,768.695194L140.003002,770.783433L137.667288,772.407620L142.373844,778.937529L143.025121,779.832493L152.131736,779.103263L159.915408,776.120053L166.639576,765.115360L167.488116,763.690057L167.264346,760.143378L165.666114,756.265240L168.051898,753.613526L169.475019,751.956206L168.768026,748.243815L166.275021,748.144376L163.712566,748.011790L168.295271,741.813437L181.989075,723.218485L186.556783,716.987057L190.296301,712.644956L201.578525,699.519268L205.303015,695.144056L220.540729,694.680019L245.648911,693.851382L266.399588,692.890163L281.707247,692.160963L293.654496,691.398617L294.277139,691.332326L328.079525,688.746983L329.548216,688.746983L341.240436,688.680692L351.642207,688.647546L355.439689,689.343600L364.844278,691.067163L395.640901,696.834478L399.260153,697.497389L396.739998,710.092733L403.774461,714.202808L405.797286,715.362911L425.190268,725.903308L431.500665,729.317347L432.349143,729.748245L434.785787,731.040941L442.041336,734.919033L444.462932,736.178586L445.959359,732.167907L450.391377,720.069623L451.872780,716.025828L453.797154,710.921376L456.422914,703.828197L459.446505,695.574948L461.328677,690.437399L463.095555,691.034017L468.408334,692.790726L470.187357,693.354200L472.600670,694.116546L479.828473,696.436732L482.253934,697.165933L481.297562,699.850724L478.395444,707.772532L477.424031,710.424190L474.771121,717.517391L466.758139,738.797133L464.090269,745.857281L465.506519,746.520207L469.710104,748.409546L471.111300,749.039327L471.440108,749.403936L472.438675,750.464620L472.779625,750.796083L475.400356,742.973556L483.220475,719.472997L485.826270,711.617437L486.712680,709.197798L489.344729,701.938896L490.216094,699.486122L492.907221,700.381053L500.953409,703.065848L503.629485,703.927634L504.976753,704.259091L509.003503,705.220315L510.335716,705.518626L508.760100,709.893858L504.033308,723.019609L502.442674,727.361731L499.598010,735.349933L491.049148,759.281569L488.189551,767.236742L493.553550,772.937968L509.873010,789.643971L515.285687,795.212667L517.222678,797.201491L523.006474,803.167973L524.928422,805.123657L531.406755,786.693893L544.318749,749.735400L537.081523,743.802212L532.539422,743.802212L523.657750,743.769066L526.531975,736.145440L533.858998,716.589307L558.885607,723.185339L561.196477,723.781966L588.596204,729.913975L603.329844,730.974649L653.721199,729.582515L688.525083,728.124090L698.039080,727.693191L728.287760,726.864541L730.472683,721.196584L730.942795,720.135915L732.320104,716.821328L732.775161,715.727516L714.337291,716.092120L696.781899,716.423578L670.713020,717.053349L658.750723,717.782558L644.833075,718.578058L640.127803,718.578058L630.154843,718.776934L602.925658,719.307268L603.157315,716.224703L603.602189,710.258461L606.618268,704.623693L610.947672,694.215982L617.686180,677.974751L605.356778,677.775879L596.822944,677.610153L589.261837,648.508829L590.866507,648.508829L615.214867,648.343105L632.657398,648.541974L622.661993,675.157407L653.459759,674.759665L711.806586,673.997325L759.721311,539.133779L801.180324,538.437774L823.437495,538.040057L837.739395,480.305549L971.877932,438.513621L1000.000000,429.532273Z "/></g><g fill="#000" font-family="Arial" font-size="12px" id="mylayer-label" stroke="none"><text text-anchor="middle" y="485.658460562"><tspan dy="0" x="427.888432331"><![CDATA[N]]></tspan></text></g></svg>