<?xml version="1.0" encoding="utf-8"?><!DOCTYPE svg  PUBLIC '-//W3C//DTD SVG 1.1//EN'  'http://www.w3.org/Graphics/SVG/1.1/DTD/svg11.dtd'><svg enable_background="new 0 0 1000 1001" height="1001px" pretty_print="False" style="stroke-linejoin: round; stroke:#000; fill: none;" version="1.1" viewBox="0 0 1000 1001" width="1000px" xmlns="http://www.w3.org/2000/svg" xmlns:xlink="http://www.w3.org/1999/xlink"><defs><style type="text/css"><![CDATA[path { fill-rule: evenodd; }]]></style></defs><metadata><views><view h="1001" padding="0" w="1000"><proj flip="auto" id="robinson" lon0="-99.2458633957"/><bbox h="0.15" w="0.28" x="-1386.05" y="-586.8"/></view></views></metadata><g class="" id="mylayer"><path d="M1000.000000,267.932095L974.999171,273.544623L979.352885,260.707452L980.945862,256.050239L987.874137,234.853916L934.362669,234.435959L492.964899,231.808805L346.034568,232.644718L331.708390,232.585010L146.822478,232.465593L137.568713,259.931250L115.797484,323.818350L94.119311,386.092802L69.145789,458.457070L62.881353,477.204790L53.658193,504.729221L52.670300,511.117740L52.300947,513.565675L44.102299,540.074974L39.766915,553.448998L32.809371,574.584681L12.006173,637.931655L3.573439,663.962862L0.000000,675.187298L26.299777,673.217052L199.322586,672.679713L252.448829,670.410944L404.516974,672.022964L371.166288,766.415048L488.530644,767.191195L503.035764,723.428293L461.995791,721.398357L476.372481,673.873801L650.657010,675.903751L669.808072,676.082864L677.649328,676.142568L681.646924,702.770679L682.890414,717.696707L691.184854,721.577469L698.485081,726.234381L701.786538,730.652474L713.327593,724.144741L728.930781,711.606891L740.035016,698.412273L764.285967,676.978430L786.945159,677.097839L823.036370,677.456065L841.794383,677.635178L845.524124,666.530155L853.943759,641.275118L865.687371,606.288090L874.027454,581.570190L926.832591,582.047831L948.315630,520.790066L950.235235,514.998613L930.747959,515.834493L928.773168,515.715082L902.063633,516.550962L894.350755,516.252433L906.121087,482.817155L910.740429,469.622119L917.725138,449.142898L937.684796,388.779607L957.559231,327.341080L958.598669,324.057179L963.580627,323.997472L982.516305,323.639228L986.545757,310.742438L1000.000000,267.932095Z " data-aland="1341107" data-awater="0" data-classfp="C1" data-funcstat="A" data-geoid="4043850" data-intptlat="+34.9904191" data-intptlon="-099.2456623" data-lsad="43" data-mtfcc="G4110" data-name="Lone Wolf" data-namelsad="Lone Wolf town" data-pcicbsa="N" data-pcinecta="N" data-placefp="43850" data-placens="02412911" data-statefp="40"/></g><g fill="#000" font-family="Arial" font-size="12px" id="mylayer-label" stroke="none"><text text-anchor="middle" y="455.735201969"><tspan dy="0" x="500.297137223"><![CDATA[Lone Wolf]]></tspan></text></g></svg>