<?xml version="1.0" encoding="utf-8"?><!DOCTYPE svg  PUBLIC '-//W3C//DTD SVG 1.1//EN'  'http://www.w3.org/Graphics/SVG/1.1/DTD/svg11.dtd'><svg enable_background="new 0 0 1000 1001" height="1001px" pretty_print="False" style="stroke-linejoin: round; stroke:#000; fill: none;" version="1.1" viewBox="0 0 1000 1001" width="1000px" xmlns="http://www.w3.org/2000/svg" xmlns:xlink="http://www.w3.org/1999/xlink"><defs><style type="text/css"><![CDATA[path { fill-rule: evenodd; }]]></style></defs><metadata><views><view h="1001" padding="0" w="1000"><proj flip="auto" id="robinson" lon0="-98.6994431216"/><bbox h="0.05" w="0.09" x="-1418.19" y="-441.4"/></view></views></metadata><g class="" id="mylayer"><path d="M1000.000000,518.707919L939.134063,498.147299L937.702937,497.606230L863.284473,469.470646L795.843050,446.385038L753.143177,430.513683L712.456831,409.411996L696.825068,396.245986L667.216685,394.622780L627.326092,383.801402L596.705877,374.422874L554.178070,361.437221L444.646180,321.037412L309.826483,272.341216L214.376857,237.712810L175.156492,312.019598L56.955543,534.579275L25.058408,594.457575L12.491025,602.934322L0.000000,642.973428L54.221323,694.014272L48.785152,720.165942L204.906419,667.141177L377.146385,662.812625L454.714544,675.798281L548.598373,712.771332L628.318815,736.939082L746.272342,753.171154L864.018676,760.746120L873.167855,761.287190L999.994579,568.486264L1000.000000,518.707919Z "/></g><g fill="#000" font-family="Arial" font-size="12px" id="mylayer-label" stroke="none"><text text-anchor="middle" y="527.417219352"><tspan dy="0" x="487.490693968"><![CDATA[N]]></tspan></text></g></svg>