<?xml version="1.0" encoding="utf-8"?><!DOCTYPE svg  PUBLIC '-//W3C//DTD SVG 1.1//EN'  'http://www.w3.org/Graphics/SVG/1.1/DTD/svg11.dtd'><svg enable_background="new 0 0 1000 1001" height="1001px" pretty_print="False" style="stroke-linejoin: round; stroke:#000; fill: none;" version="1.1" viewBox="0 0 1000 1001" width="1000px" xmlns="http://www.w3.org/2000/svg" xmlns:xlink="http://www.w3.org/1999/xlink"><defs><style type="text/css"><![CDATA[path { fill-rule: evenodd; }]]></style></defs><metadata><views><view h="1001" padding="0" w="1000"><proj flip="auto" id="robinson" lon0="-80.1190380688"/><bbox h="0.17" w="0.37" x="-1096.51" y="-664.08"/></view></views></metadata><g class="" id="mylayer"><path d="M1000.000000,367.056101L908.209642,348.871418L793.265487,326.117857L737.440729,314.604065L720.273131,310.537696L676.884297,300.211881L664.804108,297.927413L644.565676,293.906753L510.696667,266.995869L430.995139,300.851532L338.433470,333.793740L282.179193,380.626142L280.750513,381.814095L276.485497,384.738287L259.271136,401.049843L254.822655,405.344775L246.409252,413.477748L122.433844,526.427574L0.000000,641.300329L43.232119,691.564100L157.137556,713.863176L174.491631,717.473081L186.147316,719.575053L196.071692,720.808820L222.769163,725.835282L255.469916,732.004131L280.328511,721.311466L376.740184,680.277533L385.033816,678.952392L442.165071,669.767809L494.924812,659.121035L551.104678,657.932985L557.422906,656.607853L571.743199,653.592036L618.720123,647.103471L731.147989,605.293651L823.681561,567.368251L836.478715,566.637163L840.369173,566.363005L962.456423,547.766012L973.277686,550.142035L973.792329,546.943543L978.601451,517.380482L980.957849,504.358196L981.580435,492.661028L982.019590,489.005671L982.671687,483.888178L996.479157,393.328116L1000.000000,367.056101Z " data-aland="1357932" data-awater="182939" data-classfp="C1" data-funcstat="A" data-geoid="5468908" data-intptlat="+39.5321646" data-intptlon="-080.1206181" data-lsad="43" data-mtfcc="G4110" data-name="Rivesville" data-namelsad="Rivesville town" data-pcicbsa="N" data-pcinecta="N" data-placefp="68908" data-placens="02391393" data-statefp="54"/></g><g fill="#000" font-family="Arial" font-size="12px" id="mylayer-label" stroke="none"><text text-anchor="middle" y="492.455189478"><tspan dy="0" x="511.424113503"><![CDATA[Rivesville]]></tspan></text></g></svg>