<?xml version="1.0" encoding="utf-8"?><!DOCTYPE svg  PUBLIC '-//W3C//DTD SVG 1.1//EN'  'http://www.w3.org/Graphics/SVG/1.1/DTD/svg11.dtd'><svg enable_background="new 0 0 1000 1001" height="1001px" pretty_print="False" style="stroke-linejoin: round; stroke:#000; fill: none;" version="1.1" viewBox="0 0 1000 1001" width="1000px" xmlns="http://www.w3.org/2000/svg" xmlns:xlink="http://www.w3.org/1999/xlink"><defs><style type="text/css"><![CDATA[path { fill-rule: evenodd; }]]></style></defs><metadata><views><view h="1001" padding="0" w="1000"><proj flip="auto" id="robinson" lon0="-71.0435075212"/><bbox h="0.81" w="0.74" x="-960.31" y="-704.05"/></view></views></metadata><g class="" id="mylayer"><path d="M680.668737,0.000000L680.426322,0.282363L678.786171,2.238734L678.112066,3.025317L647.511536,39.188198L641.288844,46.489405L632.631864,56.594147L630.075905,59.720372L626.456227,64.419801L624.822430,66.819942L623.468808,69.078900L622.219207,71.378198L619.928727,76.158324L613.310386,92.293831L610.098722,100.422129L608.516311,104.980440L606.822456,111.374190L604.622653,123.133082L600.297768,142.818749L598.597485,149.232756L597.265719,153.226392L591.377428,168.353850L584.640199,185.115170L581.086774,193.626975L577.608735,202.885105L573.342093,213.797233L571.979610,216.701762L570.229997,219.767658L567.729905,223.700884L562.034829,231.748887L552.759034,244.274774L550.248473,247.159165L548.021205,249.377929L545.636085,251.516013L543.156428,253.533075L540.298437,255.529967L534.242081,259.180855L526.343890,263.658746L516.560900,269.044328L505.841969,275.095556L496.865835,280.521502L492.443925,283.365589L488.839248,285.806262L474.619102,295.730344L455.340932,308.962508L442.669494,317.777263L439.802684,319.955742L437.449646,321.892169L432.965432,325.906226L430.532169,328.346937L425.874398,333.409907L422.054400,337.645864L418.333262,342.144055L414.727721,346.904480L412.540143,350.031035L408.295943,356.344669L400.578043,367.116207L392.358494,378.916536L383.841380,390.757259L378.293528,398.765409L370.906105,403.061983L360.888725,408.447838L349.615890,414.761608L345.747224,416.778789L337.925517,420.712298L319.865894,430.092226L316.885028,431.746325L308.219516,437.091893L300.252712,441.832311L291.764566,447.662028L264.134540,465.635386L246.063155,477.214245L238.552636,481.631976L220.478190,491.314699L215.458205,493.836247L208.578051,497.447108L197.260858,503.176082L170.452535,517.538914L163.501086,521.008598L156.371400,524.357251L159.386879,533.051664L160.618301,536.884476L161.404570,540.233149L161.947762,543.763380L162.210781,547.434825L162.191952,549.552969L161.799924,553.849780L156.247852,587.316725L155.535713,591.774981L154.473355,599.783721L151.954928,616.446817L151.456579,618.907961L150.283288,622.982975L148.709745,627.259729L147.754505,629.478802L145.718217,633.634525L143.516095,637.528000L138.977389,644.750108L129.050972,661.756432L123.625367,671.863444L120.030739,678.137477L118.124292,681.224064L116.292155,683.927352L108.538668,694.760706L106.646856,697.544704L105.054888,700.126965L96.827718,714.531185L94.260332,718.828257L91.068376,724.275260L88.238786,729.843318L87.267606,732.163346L86.438997,734.765814L85.578951,738.134905L82.942357,750.683291L82.537496,752.135841L81.962348,753.648915L81.263492,755.182164L79.084750,759.519649L77.423684,762.263364L75.547966,764.946559L68.932568,773.359300L65.628862,777.656465L64.605469,779.209902L63.719602,780.803689L62.944340,782.417652L61.230636,786.714832L60.522880,789.357702L60.106206,791.980399L59.874351,794.703973L59.851317,797.609121L60.030554,800.716019L61.422172,808.180659L61.653139,811.025297L61.689821,813.849764L61.438350,816.633884L61.150695,818.086469L60.384732,821.011817L59.187891,824.542414L55.173856,835.356156L53.830103,838.463098L53.275387,840.016570L52.884409,841.529693L52.427012,844.535766L52.418785,846.210292L52.653393,849.559346L58.290781,881.214167L58.604043,884.785193L58.550005,886.600971L58.344663,887.851841L58.025796,889.143062L57.150109,891.685156L55.996444,894.207076L47.476557,908.228996L46.650469,909.742158L45.385450,912.607078L44.920316,914.039540L44.562158,915.451827L44.337899,916.864115L44.143362,919.628165L44.189822,920.979928L44.493174,922.210639L44.947203,922.977311L46.135443,924.369427L52.319906,919.910623L55.440479,918.135174L56.203885,917.691312L58.168064,916.642184L61.534584,915.088667L65.547307,913.555328L67.905152,912.788658L70.250614,912.163217L73.579942,911.497426L77.676990,910.993038L82.505367,910.710581L109.903646,910.609704L114.584299,910.266720L118.948417,909.661456L120.970750,909.257946L123.573092,908.511453L124.794949,908.047417L127.247775,912.143042L132.290403,918.417632L132.695707,918.922021L136.181885,923.804510L138.912763,927.920334L146.238749,941.236280L147.317886,942.809987L149.392515,945.029319L153.889658,948.963593L156.451881,951.021524L157.884726,951.969787L162.285158,954.552291L164.968934,956.287413L167.604678,958.325173L168.760996,959.455021L170.718586,958.426052L171.677726,958.204118L174.502007,958.062887L175.301771,958.022535L184.002370,958.547107L186.635979,958.890097L189.650906,959.656780L191.216225,959.939242L193.536921,960.060297L194.718011,959.979593L196.405599,959.576076L199.780783,958.304997L201.923203,957.376908L209.132770,953.987368L219.321622,949.669746L225.461419,946.946016L228.487290,945.513537L232.392253,943.435435L234.384029,942.507351L236.230257,941.821376L239.968551,940.772238L242.883789,940.247669L248.634933,939.803804L253.210082,939.682749L257.833984,939.823979L267.986335,940.671360L270.693434,940.994171L275.121578,941.841552L277.247960,942.406472L280.735896,943.778422L285.384543,945.957404L286.970965,946.845137L288.404567,947.894277L293.350147,952.252248L294.558892,953.220687L307.404662,960.826980L309.323675,961.876125L311.142994,963.026151L312.930298,964.377936L318.777639,969.361387L321.270125,971.015814L322.516728,971.661445L323.872486,972.125492L325.276266,972.286899L329.952607,972.266723L333.249185,972.165844L336.339092,972.186020L337.839659,972.307075L339.720834,972.750946L343.341289,973.921152L352.679481,975.575583L354.282670,975.999278L357.254008,977.209838L358.571945,977.996701L360.458270,979.610782L361.268264,980.518703L362.576077,982.677538L363.343142,983.666164L364.242645,984.453029L365.298603,985.118839L366.457164,985.623240L368.102561,985.865353L371.810310,985.683769L374.152118,985.482008L378.900485,984.775846L386.392338,983.403875L390.947131,982.778418L396.791454,982.253841L398.581650,982.152961L397.080617,999.000000L398.238338,997.547317L428.867640,961.089266L444.172216,943.072271L466.356386,916.339550L481.474842,898.484258L508.881932,864.428390L512.243163,860.312663L535.977100,831.179948L576.928159,780.359850L593.654696,759.822264L596.833368,755.908440L611.534776,737.691072L649.273241,691.048714L669.272848,666.154289L715.408789,609.426517L761.636458,552.316645L776.613810,533.717362L828.766529,469.447932L843.702789,450.667665L847.255127,446.068436L853.020746,438.261867L859.499704,429.083630L863.279278,423.475844L864.643947,421.438485L867.868262,416.355181L869.533551,413.753017L871.760050,410.041408L875.209719,406.067571L883.615883,394.872275L892.866987,382.930676L899.918701,373.792968L901.253558,371.795989L912.131160,355.517643L923.240420,338.372029L926.119878,333.732646L930.750003,325.765028L935.152418,317.777263L937.269962,313.783389L939.293657,309.769349L943.002749,301.700947L945.156949,296.718720L947.924965,290.001804L949.387683,286.169338L951.899808,278.746470L954.116594,271.202598L955.856638,264.405062L939.958605,250.346118L926.674994,236.327586L892.725482,200.525186L888.282179,196.329781L887.002070,195.119569L868.269040,177.430364L789.132964,102.580266L775.646131,89.812991L753.839993,69.179746L732.960835,49.454266L722.681083,39.692424L686.427918,5.445573L680.668737,0.000000Z "/></g><g fill="#000" font-family="Arial" font-size="12px" id="mylayer-label" stroke="none"><text text-anchor="middle" y="534.728935002"><tspan dy="0" x="497.250330142"><![CDATA[N]]></tspan></text></g></svg>