<?xml version="1.0" encoding="utf-8"?><!DOCTYPE svg  PUBLIC '-//W3C//DTD SVG 1.1//EN'  'http://www.w3.org/Graphics/SVG/1.1/DTD/svg11.dtd'><svg enable_background="new 0 0 1000 1001" height="1001px" pretty_print="False" style="stroke-linejoin: round; stroke:#000; fill: none;" version="1.1" viewBox="0 0 1000 1001" width="1000px" xmlns="http://www.w3.org/2000/svg" xmlns:xlink="http://www.w3.org/1999/xlink"><defs><style type="text/css"><![CDATA[path { fill-rule: evenodd; }]]></style></defs><metadata><views><view h="1001" padding="0" w="1000"><proj flip="auto" id="robinson" lon0="-97.96581604"/><bbox h="0.44" w="0.82" x="-1388.74" y="-521.21"/></view></views></metadata><g class="" id="mylayer"><path d="M1000.000000,655.022738L999.917215,653.958426L998.242972,631.812539L995.079881,590.509027L993.615762,572.436181L991.697757,548.939434L983.525029,551.682085L959.475629,559.725832L916.962258,573.930312L914.762856,574.708079L901.152264,419.072814L899.092769,395.535125L888.842781,378.506118L885.436094,373.020813L883.776277,370.339563L867.558612,380.675679L858.644257,383.275059L856.832421,383.786748L849.023640,386.038179L846.270687,388.596624L839.251928,388.412415L830.912773,388.166805L822.126782,391.482549L820.315194,392.178446L814.081628,394.511747L805.056506,396.578970L798.103810,398.134505L777.431552,403.189991L749.762812,394.655020L748.071162,394.122864L720.055117,385.587893L715.461112,384.196099L704.013701,380.675679L689.878276,376.336557L685.713008,375.088036L678.257193,372.816137L678.673076,372.017903L717.938135,294.220710L729.698837,270.969560L730.293799,269.782441L729.423426,268.370179L716.083827,246.776900L707.328253,232.531475L704.961105,228.785910L462.198495,357.137988L445.755398,363.892282L440.912169,366.778208L432.462251,370.441901L426.626903,371.854162L419.362189,374.023723L414.679583,375.722530L406.703540,378.628923L395.969058,379.979782L389.368683,380.900822L382.635090,381.801395L313.973574,377.626013L335.415796,349.053303L329.217231,347.129352L309.596227,341.050487L285.273253,376.889181L274.258927,376.766376L266.672828,376.684506L262.526409,376.541233L254.801099,376.275154L249.844940,376.909649L245.502507,377.462273L223.089358,380.000250L168.443077,386.140517L145.032119,387.286700L126.610513,381.883265L126.215416,371.444811L126.308803,348.357406L130.398580,349.564992L137.969884,351.795956L152.019544,352.737463L152.795389,352.635125L159.210535,351.755020L160.889595,351.529877L163.900343,351.140994L171.438854,350.219954L180.265614,346.760936L183.524290,345.491948L188.868981,321.401630L167.686725,316.919235L156.941725,319.170666L137.298658,323.407451L126.059537,319.211602L125.894845,307.279014L125.882588,306.705922L140.171986,290.024860L155.328934,272.299951L188.315163,233.779996L150.095788,233.104566L132.039999,232.756618L89.314406,277.232634L78.111013,288.755871L75.514139,291.498524L62.610705,305.048050L60.002248,307.770235L54.444169,313.623958L51.980324,316.202870L40.374218,329.772862L32.619472,338.799056L47.747129,350.219954L53.885663,355.254973L73.703005,370.503303L58.650236,387.429973L0.000000,456.385165L13.695719,456.548906L31.653603,456.753581L48.395318,456.896854L64.036865,457.121997L132.058029,457.961167L167.678800,458.616128L178.681351,458.472856L185.622710,434.750961L194.000223,406.178254L260.390704,404.786460L347.604406,402.862510L343.799430,420.382737L332.506576,419.891516L327.487648,421.242375L306.751926,426.768614L288.679091,431.598957L273.037538,435.753871L271.711932,436.142754L257.801537,453.274097L255.777428,468.420086L254.010870,481.171372L254.174123,503.419601L254.277634,519.834577L259.173846,517.685484L264.248979,581.360032L265.416434,595.912460L266.071183,604.201817L276.756650,600.865606L297.323004,594.459264L297.228253,593.006068L294.433087,549.553460L290.151402,510.460438L288.371944,492.285252L288.154294,489.788211L309.128368,480.700618L317.294458,477.057394L325.509828,542.901506L348.849068,543.986287L377.400390,545.193872L375.603633,527.632714L369.452499,467.846995L390.988452,471.756297L423.882672,477.282537L456.858890,474.990171L456.744475,476.013548L456.071150,479.083681L452.025112,501.352378L520.516166,531.009860L548.507093,545.255275L585.276457,550.842916L597.799408,552.766866L602.983492,553.544632L606.447111,553.953983L613.797693,555.182036L630.397490,541.202700L644.569005,553.749308L644.585482,557.085519L659.354211,562.141003L693.447859,567.360228L714.925898,570.675971L751.967710,576.161275L756.248264,576.816236L805.626339,560.073781L807.425848,562.939238L808.482332,564.617577L808.243679,575.342573L802.223357,592.166898L801.519812,594.111315L799.094413,598.593708L790.686582,614.210448L789.271900,616.891697L788.954180,617.403385L789.384953,622.602143L803.811018,619.184062L821.416833,623.543650L838.340162,624.710300L841.387495,665.993344L858.264327,659.668871L859.174241,674.651116L860.209817,692.028063L860.561155,698.004587L860.358630,698.106925L853.946549,700.890511L849.183950,703.060071L846.788206,704.165318L844.061868,715.647612L851.468029,715.197326L850.902827,720.170940L850.252891,726.434009L851.581958,728.194218L851.773470,728.439828L852.498913,729.381336L854.738384,770.214090L868.433221,765.936373L909.870727,752.959949L910.225625,764.298969L910.348199,768.310608L919.481972,765.486087L935.845102,760.369200L932.139451,701.402200L930.686478,676.800208L933.418469,675.920104L935.832080,675.121870L937.053379,674.732986L938.980833,674.118960L940.659400,673.586804L941.869084,673.177453L942.899376,672.849972L945.967119,671.887997L946.985795,671.540049L948.149216,671.171633L951.622106,670.066385L952.773912,669.677502L956.350942,668.510852L965.321666,665.092771L1000.000000,655.022738Z " data-aland="5218422" data-awater="0" data-classfp="C1" data-funcstat="A" data-geoid="4838800" data-intptlat="+31.0754186" data-intptlon="-097.9722411" data-lsad="25" data-mtfcc="G4110" data-name="Kempner" data-namelsad="Kempner city" data-pcicbsa="N" data-pcinecta="N" data-placefp="38800" data-placens="02410177" data-statefp="48"/></g><g fill="#000" font-family="Arial" font-size="12px" id="mylayer-label" stroke="none"><text text-anchor="middle" y="455.035819801"><tspan dy="0" x="578.843023104"><![CDATA[Kempner]]></tspan></text></g></svg>