<?xml version="1.0" encoding="utf-8"?><!DOCTYPE svg  PUBLIC '-//W3C//DTD SVG 1.1//EN'  'http://www.w3.org/Graphics/SVG/1.1/DTD/svg11.dtd'><svg enable_background="new 0 0 1000 1001" height="1001px" pretty_print="False" style="stroke-linejoin: round; stroke:#000; fill: none;" version="1.1" viewBox="0 0 1000 1001" width="1000px" xmlns="http://www.w3.org/2000/svg" xmlns:xlink="http://www.w3.org/1999/xlink"><defs><style type="text/css"><![CDATA[path { fill-rule: evenodd; }]]></style></defs><metadata><views><view h="1001" padding="0" w="1000"><proj flip="auto" id="robinson" lon0="-107.298554897"/><bbox h="0.27" w="0.32" x="-1509.49" y="-555.22"/></view></views></metadata><g class="" id="mylayer"><path d="M1000.000000,259.156736L967.387578,259.677883L929.931317,260.303260L881.012676,261.084981L876.125124,261.189210L867.459908,261.606128L874.407095,239.874271L885.032221,204.019226L820.460813,233.151458L782.871516,250.088770L778.110399,252.277590L701.484510,253.424115L689.303914,254.153721L571.482838,254.570639L559.514674,254.153721L558.210745,247.013998L576.011800,193.283537L547.595511,194.065262L545.200546,182.391494L541.179790,174.365771L542.010169,166.861194L540.163592,156.281818L538.083887,144.451666L537.338869,141.481097L532.818261,89.000930L532.297948,83.424573L523.553272,84.206306L448.911216,78.577831L242.595740,79.307448L185.791585,237.476989L111.876230,461.203821L217.198534,463.757400L239.816080,460.213658L231.180473,478.661946L192.536339,494.191839L158.168879,524.886768L111.071076,579.553772L101.569082,630.468383L75.393983,774.768693L71.550645,797.541823L0.000000,906.508300L16.930282,913.334957L23.962671,916.201109L34.078632,920.422169L207.963648,659.234781L235.312762,618.899268L259.616010,612.176669L272.322604,606.913237L283.873934,590.184886L294.665699,572.987491L311.391498,556.988681L330.899752,544.012431L356.594125,528.899512L394.188357,509.617484L435.433201,488.198762L460.137748,466.050408L475.487526,451.666984L499.600259,451.979668L502.759260,482.362023L580.215978,453.907881L588.289762,452.136009L656.011631,437.231429L694.913950,431.290438L740.454650,428.215713L756.320448,429.518563L814.638932,432.489059L834.457795,437.231429L902.473115,447.862670L933.867556,452.761376L941.228209,453.230401L952.201171,417.115428L954.420562,409.767347L976.016259,338.318745L1000.000000,259.156736Z "/></g><g fill="#000" font-family="Arial" font-size="12px" id="mylayer-label" stroke="none"><text text-anchor="middle" y="356.912308279"><tspan dy="0" x="448.37312741"><![CDATA[N]]></tspan></text></g></svg>