<?xml version="1.0" encoding="utf-8"?><!DOCTYPE svg  PUBLIC '-//W3C//DTD SVG 1.1//EN'  'http://www.w3.org/Graphics/SVG/1.1/DTD/svg11.dtd'><svg enable_background="new 0 0 1000 1001" height="1001px" pretty_print="False" style="stroke-linejoin: round; stroke:#000; fill: none;" version="1.1" viewBox="0 0 1000 1001" width="1000px" xmlns="http://www.w3.org/2000/svg" xmlns:xlink="http://www.w3.org/1999/xlink"><defs><style type="text/css"><![CDATA[path { fill-rule: evenodd; }]]></style></defs><metadata><views><view h="1001" padding="0" w="1000"><proj flip="auto" id="robinson" lon0="-112.765563594"/><bbox h="1.13" w="1.93" x="-1582.06" y="-569.99"/></view></views></metadata><g class="" id="mylayer"><path d="M1000.000000,337.633964L936.765140,338.418158L944.352798,316.817830L957.121440,280.360532L956.940082,280.142691L949.107100,277.511176L943.940535,275.777162L937.992229,273.781736L946.166728,249.235148L968.030234,248.694892L969.065082,244.974089L963.109631,231.859703L974.532695,222.457354L972.102754,217.960935L959.503018,217.716943L944.660618,218.152643L936.048142,218.544773L937.060177,222.457354L938.242344,225.786089L940.090903,227.511451L943.369763,229.707364L948.957424,232.251829L942.581652,236.756917L935.070685,241.253275L927.404449,244.390261L921.131385,245.958752L923.051823,254.960110L923.759404,261.033597L922.096413,268.414113L915.712482,266.261829L914.956554,266.009132L902.580068,261.843974L902.476803,261.809120L898.973041,260.624051L884.265961,255.674639L880.449252,254.393714L872.885179,251.840575L874.784748,245.915183L875.074862,245.122224L866.414606,245.069941L852.487539,244.965375L849.544560,243.971997L847.394617,243.248748L849.891228,236.068519L851.648163,230.692038L869.104512,209.142334L827.718246,207.652229L825.998714,211.320847L808.068363,230.003637L807.190652,229.707364L797.543985,226.465777L785.127065,222.274360L768.606590,216.714831L758.815670,213.412217L758.712412,213.377361L754.823746,212.174824L754.694674,212.131253L750.335249,210.649866L749.401002,210.310018L747.215488,209.525753L746.481143,213.612640L745.033633,228.069144L744.289337,235.571827L740.540404,273.084643L735.993822,287.235558L733.147014,295.016758L727.796807,293.883999L719.405058,300.985510L716.550129,298.066489L714.728207,296.585192L714.474667,296.445776L712.964364,295.321732L712.076413,294.894769L710.531611,293.805578L706.528692,291.705615L707.501531,290.790692L707.239867,290.633848L706.504257,290.424723L713.140579,280.273396L706.919168,280.273396L706.817145,280.552231L702.596633,281.266748L700.442957,278.591667L700.059105,278.094990L699.194770,276.909935L699.119699,273.607463L691.251755,273.668458L689.782019,275.663885L688.885822,275.794589L688.244126,275.289198L688.068096,275.393762L684.074767,272.831947L682.788711,272.779665L675.974687,273.685886L674.443535,273.590035L672.632781,273.485472L672.447443,273.476758L667.516882,268.997930L663.026024,264.248962L663.173053,264.144398L664.064789,263.490869L664.525007,263.124892L662.122594,260.258074L664.874214,257.434819L667.043271,255.212809L671.106252,251.282892L674.429201,248.067497L676.572809,246.133028L667.245400,240.652019L665.532268,243.074471L664.866470,243.823862L663.992142,244.608107L663.365447,245.052513L662.644187,245.418494L661.054369,246.394443L660.018736,246.925987L657.376392,248.023928L657.047518,248.189491L656.536535,248.555471L656.187390,248.895309L654.521001,249.862542L655.126786,250.882057L655.785036,251.718582L656.213797,252.171699L656.678509,252.546392L659.775591,257.338968L659.021531,257.556812L658.253580,257.931504L658.112054,258.001214L656.217558,255.212809L655.450520,255.822773L654.785843,254.785834L652.712293,251.317747L648.990274,244.904378L647.656347,242.882766L645.053245,239.118378L644.044293,237.793869L641.254223,234.421593L638.970992,231.903273L638.138764,231.066736L636.989486,229.907784L632.889639,226.152075L632.163598,225.481101L630.750690,224.269860L629.127211,222.980192L626.424730,220.993405L623.039786,218.771337L620.196696,217.089534L619.386002,216.610263L616.606459,215.111452L614.141346,213.882775L613.164760,213.420931L611.177079,212.532099L607.353141,210.954857L606.551174,210.649866L605.701581,213.089798L605.399440,213.935059L601.331864,212.270678L600.198658,211.721693L598.080751,210.693436L595.692265,209.909171L595.175993,209.734890L595.396083,209.133620L595.455816,208.950625L591.853025,208.968053L590.392418,208.976767L585.858331,209.002909L572.259257,209.072622L568.478385,209.081336L567.734739,209.072622L566.252380,209.081336L565.048742,209.081336L559.171508,209.072622L558.268344,209.063908L557.115462,209.063908L552.206649,209.063908L543.449965,209.037765L543.232440,209.037765L538.336347,222.492210L537.985477,223.450747L534.866284,232.051409L531.594987,241.087712L531.464218,241.444980L537.323548,241.383983L539.533040,241.270703L544.954423,241.296845L547.269788,241.270703L549.067148,241.253275L552.517148,241.296845L557.456480,241.253275L567.213077,241.479836L566.757068,245.479491L564.660299,251.248037L554.324481,251.256751L555.017512,254.236866L557.319324,264.074688L557.696204,266.531954L559.227724,272.134854L559.088286,272.535682L558.534295,274.069287L565.748209,274.051859L561.709798,285.126872L562.028334,286.852161L563.856626,296.776889L557.398569,308.104412L549.484471,321.984860L552.313313,322.002287L556.933201,322.019714L555.779044,324.956112L554.531571,328.127764L554.261150,328.807403L552.959937,331.630515L551.388818,334.854431L554.601326,336.518667L553.959978,337.320287L552.544202,339.089078L550.354005,341.825037L553.138572,344.857239L553.867725,345.658855L555.496324,349.135422L554.341817,352.350585L554.047457,352.481283L554.215186,352.716538L548.774404,367.886081L546.895429,367.868655L538.859743,367.772811L528.705230,367.720533L528.483626,367.711820L517.185154,367.694394L514.864306,373.959080L512.832699,379.413430L512.671973,379.317587L511.691925,381.818217L487.405702,367.947073L492.166097,365.420279L492.713725,364.557683L496.125340,359.216546L496.855487,357.656896L500.637891,351.540260L503.327513,342.722500L504.252376,336.231129L502.675668,336.239842L493.535913,336.248555L474.288799,336.274695L458.500528,336.300835L449.314077,336.318261L404.379560,336.274695L396.544154,336.265982L391.029146,336.257268L386.707405,336.257268L373.487514,336.239842L356.403584,336.239842L338.527522,336.204989L289.977828,336.152709L260.177534,336.126569L253.415313,336.117856L253.081756,336.117856L244.042645,336.109143L242.862103,339.394042L236.707472,356.646171L232.689359,367.764098L198.714476,462.419757L76.683448,461.766321L71.392930,461.757608L56.419539,502.365956L52.125103,503.995144L44.037928,510.520592L40.143024,513.099398L38.303964,513.805084L36.227581,514.406224L28.176949,514.528195L25.646386,514.606604L25.263918,515.652064L46.774587,515.686912L51.652756,515.713049L50.212190,519.650940L53.957181,518.631620L53.152383,521.010033L52.830493,521.889957L67.934330,518.544498L87.534312,514.624028L112.656551,511.783859L130.715384,510.668699L131.007700,509.849753L136.616534,509.841040L140.506136,509.893314L147.455222,510.145967L147.111272,510.947489L159.150231,511.757722L167.193777,512.646365L172.789627,513.386900L177.720176,514.380088L179.156140,514.597892L175.060420,525.557756L169.873082,539.383792L163.064005,557.565650L159.871528,566.077154L154.049366,581.601588L151.285847,588.980425L133.405445,588.971714L96.295758,588.954290L24.948202,588.919443L1.703185,652.644177L0.000000,657.322148L0.000000,657.322148L34.402924,657.069520L65.460235,656.843027L108.240380,656.964985L111.953490,659.682906L115.918848,662.583758L131.214879,673.829949L135.276597,676.626238L137.184988,677.575756L145.512016,671.024943L156.226977,662.365976L163.932666,656.146123L179.017876,651.720776L189.030801,648.811191L192.990297,634.568073L195.384184,626.492554L197.391723,619.593045L199.447705,612.144674L200.462426,608.694889L202.894258,600.000696L202.995845,599.643519L204.299818,595.244131L204.696079,593.902533L206.062443,589.015272L218.064267,588.936867L226.143065,588.936867L266.499716,589.058831L280.526970,589.093678L279.533765,591.750747L274.810452,604.670129L262.000449,639.394197L259.373014,646.502683L258.967726,647.591602L206.158539,791.347771L209.049108,786.731213L210.970494,783.874166L212.416757,781.940430L213.893661,780.180901L215.441169,778.525898L216.943088,777.114788L217.818750,776.365679L221.423160,773.587007L240.426423,759.092527L243.266800,756.975833L251.579975,750.956739L254.345022,748.927140L255.926965,747.733769L257.996709,746.078728L260.151869,744.249469L261.828048,742.698953L263.837798,740.791294L265.968863,738.631018L267.752018,736.688510L268.931696,735.286069L270.252151,733.657146L272.352201,730.887101L275.861534,726.522963L276.662207,725.582189L276.830585,725.399261L278.702733,723.352204L280.115037,721.888774L281.800440,720.233703L282.839565,719.275503L287.016618,715.704024L287.787442,715.102969L290.609849,712.916522L307.756430,699.475462L321.344715,688.865383L321.703601,688.577917L327.464357,683.987160L349.797392,666.634487L361.408409,657.426683L364.695757,654.682624L366.873881,652.731290L370.197318,649.412273L372.881156,646.493972L382.741203,635.291122L384.666780,633.078418L386.751565,630.430138L389.045272,627.111069L389.156535,626.945551L390.299773,625.107428L391.098084,623.617763L391.230753,623.373841L391.359354,623.121207L393.264035,622.711767L393.888425,622.868574L393.129539,625.063871L392.318652,627.520508L392.259039,627.703449L392.077547,628.200003L391.851479,628.818517L386.127279,644.420667L380.440259,659.961666L377.476364,668.071840L379.400357,668.185086L381.098643,668.280910L382.106716,668.280910L383.386308,668.272199L385.477971,668.045707L387.027311,667.993439L390.737673,668.080552L392.190962,667.993439L392.903102,667.949883L394.469076,668.010862L398.109213,668.071840L400.236840,662.487934L401.056247,660.344963L403.526096,660.353674L405.638567,654.612934L406.001499,653.619844L409.308812,644.629740L410.548416,644.690719L413.151798,644.830101L414.015476,642.486741L414.439801,641.345550L410.323187,641.397818L411.081995,639.559714L411.507213,638.435943L412.424162,636.284224L413.437519,633.531412L413.704613,632.721249L415.157372,628.766248L416.378925,628.757537L423.277528,628.792383L423.663138,627.816698L423.794742,627.337567L423.928646,626.832302L424.022399,626.178941L424.735259,624.149164L425.111855,623.138630L425.338804,622.537537L425.614226,621.605405L425.589292,621.256945L425.478036,621.065292L425.170973,620.873638L433.899934,620.464197L431.846799,626.022134L439.928031,625.996000L441.812748,620.978176L457.211751,621.030446L451.331079,636.902735L448.948466,643.323034L447.252149,647.905211L445.500861,652.618043L443.142106,658.933736L442.768170,658.925024L441.427590,662.156906L434.170862,662.069793L431.753802,668.307043L426.473920,668.089263L424.271680,667.923750L417.973621,684.265916L419.696503,684.274627L421.373935,684.387872L422.123063,684.501117L422.833796,684.501117L424.581780,684.361739L426.508253,684.309472L433.779361,684.178805L433.243726,685.624851L428.033608,699.606127L428.162062,699.850036L428.183661,699.989412L425.367074,707.559277L425.046873,708.534907L424.246402,710.547142L424.150401,710.869447L424.140332,710.956557L424.098125,711.409527L423.728628,712.698749L422.570311,715.730157L431.263732,715.756290L437.632292,715.773712L464.652195,715.860821L476.537594,715.904376L484.841677,715.904376L521.445952,715.782422L522.181634,715.773712L522.363168,715.991485L522.632620,716.226680L523.118536,716.226680L523.838084,716.043750L524.212327,715.773712L564.964123,715.634337L570.496872,715.616915L591.895367,715.547227L614.249783,715.521094L640.404494,715.494962L682.864543,715.503673L702.711380,715.512384L714.435448,715.521094L717.214035,715.538516L732.350836,715.555938L741.363225,690.503069L741.871275,689.231250L743.386322,685.023784L744.160396,682.924402L763.045766,631.344840L770.399598,611.256094L785.036717,571.792117L785.347806,570.920935L786.351171,573.255701L787.438308,570.459209L787.949099,569.736127L789.200612,571.887947L789.813152,575.451075L795.525697,588.893308L795.765797,589.764479L798.844217,589.834173L802.941634,589.834173L804.080209,589.834173L811.154156,589.825461L820.354722,565.955188L824.217828,555.919100L828.171029,555.936524L831.594838,555.953947L832.531225,555.971371L831.660018,558.236467L831.387657,558.942130L831.799606,558.985690L831.982318,558.942130L831.072198,564.509020L830.775850,566.312374L830.442954,569.108875L831.007893,568.952062L832.578013,568.525182L832.121632,570.746699L833.619208,569.962634L842.348232,565.920341L843.296871,569.317959L846.413003,567.775964L848.519362,566.556306L849.491441,565.920341L850.343252,565.415053L850.209152,564.988172L848.467467,559.255759L845.640948,550.082106L845.607516,549.994986L845.900064,549.829459L845.234786,548.296155L851.105268,546.797697L853.071395,545.743548L864.104422,539.801968L867.917737,529.208122L868.359392,527.979718L870.524516,527.988430L873.153760,527.997142L881.952042,528.031991L869.941448,559.630370L875.060810,559.691353L886.021550,559.822032L886.293534,559.037961L908.609094,500.292440L920.166718,469.860204L922.779922,462.968644L934.027767,433.328456L934.078892,432.117395L938.713175,432.056406L965.751969,431.725324L976.049436,403.417547L976.413990,400.516163L976.685959,399.871411L978.352369,399.914975L982.633097,388.483636L984.547367,383.386554L985.214904,381.600392L986.434433,378.324305L993.200477,360.096572L977.626614,359.992014L979.706605,354.581155L980.065195,353.640134L980.799188,351.731950L986.805897,351.784229L995.203226,351.862648L998.694123,341.502647L1000.000000,337.633964Z M315.649824,620.751677L327.220166,589.180795L340.095764,589.172083L343.011094,589.172083L333.604101,614.845257L331.431421,620.769100L315.649824,620.751677Z "/></g><g fill="#000" font-family="Arial" font-size="12px" id="mylayer-label" stroke="none"><text text-anchor="middle" y="476.041549826"><tspan dy="0" x="547.999886655"><![CDATA[N]]></tspan></text></g></svg>