<?xml version="1.0" encoding="utf-8"?><!DOCTYPE svg  PUBLIC '-//W3C//DTD SVG 1.1//EN'  'http://www.w3.org/Graphics/SVG/1.1/DTD/svg11.dtd'><svg enable_background="new 0 0 1000 1001" height="1001px" pretty_print="False" style="stroke-linejoin: round; stroke:#000; fill: none;" version="1.1" viewBox="0 0 1000 1001" width="1000px" xmlns="http://www.w3.org/2000/svg" xmlns:xlink="http://www.w3.org/1999/xlink"><defs><style type="text/css"><![CDATA[path { fill-rule: evenodd; }]]></style></defs><metadata><views><view h="1001" padding="0" w="1000"><proj flip="auto" id="robinson" lon0="-94.5270884657"/><bbox h="0.14" w="0.16" x="-1269.52" y="-721.45"/></view></views></metadata><g class="" id="mylayer"><path d="M1000.000000,811.198569L901.332023,693.298530L913.850640,654.639533L698.308695,419.245461L850.433473,77.491214L818.613677,76.985214L807.174439,80.426018L803.751760,82.450021L772.104650,77.997215L637.032409,378.461496L614.876498,353.363691L568.278099,300.030905L348.768199,81.235620L335.506944,106.738065L290.506244,216.641635L223.272044,365.912592L197.184171,421.573083L188.599785,443.938501L180.928080,464.077507L97.042723,650.186667L60.455047,729.123915L26.666374,804.620447L6.812806,845.607226L1.891410,859.977909L0.000000,871.514940L2.501510,884.671207L14.445126,902.786381L36.041885,922.014786L58.422969,904.810423L86.329250,886.695248L115.814619,870.300515L160.858473,848.946892L202.642837,833.564193L252.175830,819.800731L299.313510,812.514194L349.852823,810.186550L462.484221,810.085348L845.330886,811.502175L940.680069,811.400973L1000.000000,811.198569Z " data-aland="441302" data-awater="0" data-classfp="C1" data-funcstat="A" data-geoid="1968340" data-intptlat="+43.0265898" data-intptlon="-094.5271834" data-lsad="25" data-mtfcc="G4110" data-name="Rodman" data-namelsad="Rodman city" data-pcicbsa="N" data-pcinecta="N" data-placefp="68340" data-placens="02396413" data-statefp="19"/></g><g fill="#000" font-family="Arial" font-size="12px" id="mylayer-label" stroke="none"><text text-anchor="middle" y="547.053761064"><tspan dy="0" x="475.636175835"><![CDATA[Rodman]]></tspan></text></g></svg>