<?xml version="1.0" encoding="utf-8"?><!DOCTYPE svg  PUBLIC '-//W3C//DTD SVG 1.1//EN'  'http://www.w3.org/Graphics/SVG/1.1/DTD/svg11.dtd'><svg enable_background="new 0 0 1000 1001" height="1001px" pretty_print="False" style="stroke-linejoin: round; stroke:#000; fill: none;" version="1.1" viewBox="0 0 1000 1001" width="1000px" xmlns="http://www.w3.org/2000/svg" xmlns:xlink="http://www.w3.org/1999/xlink"><defs><style type="text/css"><![CDATA[path { fill-rule: evenodd; }]]></style></defs><metadata><views><view h="1001" padding="0" w="1000"><proj flip="auto" id="robinson" lon0="-96.0715270722"/><bbox h="1.31" w="2.1" x="-1266.73" y="-774.9"/></view></views></metadata><g class="" id="mylayer"><path d="M550.781970,304.997877L554.559921,296.913842L556.419851,292.926331L559.563016,286.189604L562.650121,279.491798L564.011993,275.761268L564.865081,272.941949L516.704085,273.463757L509.178826,273.494910L508.002884,276.952858L506.491538,279.141331L499.062503,279.141331L500.309341,276.547873L503.867756,269.071222L504.752890,267.093020L506.391790,263.728517L507.493852,261.399842L497.632882,261.337536L495.623078,261.283019L492.060939,255.698861L488.055020,245.480677L479.939469,245.449524L451.759499,302.918460L433.447203,340.277596L450.504740,340.277596L445.301345,351.211867L459.402281,351.211867L455.574037,359.256779L448.607209,359.311294L438.396074,359.272355L420.284559,359.077657L411.857353,359.015354L404.978487,359.108809L398.666331,359.077657L391.667918,359.093233L389.709738,359.101021L389.039454,359.101021L384.553040,359.116597L383.121064,359.124385L381.833169,359.132173L380.674266,359.132173L379.634386,359.132173L370.285697,359.163324L367.376747,359.194476L360.088137,359.280143L384.973681,304.296950L357.596267,304.725294L355.601993,304.756447L352.729724,304.631838L326.644724,358.999778L325.188883,362.005906L319.418514,373.695499L313.378951,373.407349L309.907036,380.688979L295.592628,380.478708L292.541216,380.572162L293.344521,378.726446L298.396582,378.601840L301.960216,370.969750L279.991609,370.876295L275.541590,379.567532L289.000833,379.863469L273.887436,412.829131L273.281726,413.864898L253.806103,414.020652L259.754253,402.891975L244.030720,395.836258L261.308101,359.630598L193.515798,359.116597L181.830848,384.925554L181.172618,386.374087L180.621643,387.557834L176.682140,395.649351L171.940379,394.964026L169.591306,394.792695L153.415763,392.806810L152.990670,392.752295L146.194042,391.475097L114.543569,385.782214L99.018615,383.811897L90.391604,382.721602L86.551222,383.064266L69.340110,387.082778L47.611230,392.682205L35.385302,395.361203L28.524150,396.864244L18.769113,398.998094L19.995177,402.962065L20.261952,403.717477L25.903506,421.512427L26.373408,427.446643L26.263319,432.625442L23.119128,439.400695L8.681894,471.174039L16.080990,471.212976L16.623737,471.244126L19.743279,471.376514L25.331450,471.547840L23.895593,474.195599L0.000000,524.658202L14.735684,525.592685L16.946694,525.133231L18.932750,525.133231L25.307598,525.047570L33.275637,525.234466L34.891837,522.049437L47.297444,521.955988L45.616140,525.514811L130.249277,527.469436L158.717316,525.693920L160.271449,521.177252L142.771082,500.314803L151.367086,481.897446L145.346534,474.670638L146.698230,471.843766L141.533398,471.835979L149.637214,455.007067L135.097373,434.868286L152.120432,397.580720L162.113486,400.026079L169.565990,400.057230L172.346296,400.072806L179.460352,401.591420L180.295977,401.770538L181.176230,402.066473L192.663418,405.913623L192.481017,407.876134L185.421626,414.020652L195.188041,414.191982L194.596246,415.632710L192.362335,415.640498L188.480581,418.241593L184.961637,425.266093L184.721369,426.060436L162.013605,471.874916L164.879221,471.882704L199.319913,471.890491L202.075765,471.602353L203.617632,471.890491L206.971027,471.952792L209.170270,471.991729L210.113975,472.022879L210.092890,471.501115L212.280143,469.959183L216.332483,467.591771L219.319612,465.567009L221.623458,461.634293L218.519985,457.584756L217.442465,453.885655L218.140594,451.510439L219.609708,447.896991L219.378142,444.961061L218.707046,442.803890L218.555247,440.358574L219.051810,437.998920L220.026848,437.477148L221.548127,437.321395L223.420820,437.625113L227.753552,435.958557L231.243197,435.615901L233.852863,433.910405L238.808869,432.329511L241.591413,431.550745L243.206360,431.908977L243.995290,433.147215L243.532082,435.989708L242.766052,439.073614L242.211152,445.584070L243.205031,445.996814L244.583807,446.074690L246.898344,445.568495L251.014604,443.948670L252.421553,443.006368L253.207129,442.632562L254.038436,441.425480L255.448396,437.593963L257.105095,435.600325L259.376240,434.237487L265.282871,432.422963L269.244383,432.010217L272.697700,432.968099L278.176602,432.197120L281.596073,432.041367L283.444752,433.053763L283.851749,434.502267L284.273830,436.511480L283.321385,438.512904L283.910426,440.381937L284.907655,442.025127L289.270037,443.442475L293.557866,443.660528L299.302393,444.727432L300.725211,445.568495L299.618127,446.565310L297.088579,447.141593L293.664042,447.110443L289.207138,446.721062L286.676173,447.273982L284.374448,448.372035L282.907355,450.046370L282.503163,451.962119L283.637827,453.909017L285.009394,454.765652L286.612389,454.648838L288.445408,454.088132L290.482774,453.176984L292.535518,453.418399L293.032660,454.111495L293.109559,455.832551L290.667241,458.542628L288.901409,460.318194L287.529998,462.054821L287.255368,463.487732L287.392972,464.554627L288.350663,465.714972L290.329505,466.322401L293.121318,465.800636L295.252678,465.442408L297.529249,464.515689L298.617415,463.137292L299.900463,460.941200L300.043317,458.745105L300.935626,455.474322L302.154801,452.912206L304.296152,450.716104L306.049649,449.703716L308.052702,449.641415L308.826112,450.241060L309.117600,451.642828L308.361048,453.877867L307.186478,454.898041L306.575172,457.117502L306.364798,458.784043L307.674359,461.377303L308.915469,462.389686L311.163968,463.036054L311.463692,462.708976L311.898920,461.860132L316.006905,455.201757L316.096876,456.447770L317.193707,472.404468L313.758251,472.435618L306.229524,472.497919L304.462822,472.497919L304.519856,472.957383L305.259619,475.036651L307.818289,477.598744L308.622068,479.872696L309.419451,482.489295L310.868818,484.802180L312.439468,486.531002L314.335171,487.971685L316.285053,488.547959L316.536190,488.625833L318.316789,488.820520L318.844731,488.882820L319.639307,488.727070L322.645019,488.150797L322.819024,488.127435L324.382508,487.909386L326.722708,488.758220L326.426634,490.697301L325.252458,493.033540L325.002811,494.980404L325.821930,496.919479L327.551756,497.378938L329.287102,497.550262L330.770086,497.106378L333.742524,496.428870L336.200778,496.950629L338.304299,497.994146L340.360807,499.123325L342.130545,500.275866L343.005199,501.545218L343.632962,502.806782L345.008740,503.523225L346.938587,503.733485L348.741416,503.157216L349.290361,502.635458L350.232648,501.919015L352.500867,500.338166L354.548121,498.695016L356.663085,497.238764L358.411873,496.460020L359.478613,496.522319L360.523605,496.880542L361.433146,497.760523L362.520585,499.715171L363.910503,501.560793L365.368182,501.802203L368.221182,501.428407L369.822976,500.774262L372.238971,499.185625L374.006837,497.550262L374.390265,497.192040L375.876358,495.938260L376.945894,495.323052L378.645694,494.528732L381.912286,493.812286L386.752110,492.659742L389.717220,491.655159L390.195978,491.491622L390.182459,491.888783L390.158970,492.293731L390.804789,493.267164L385.705051,503.671186L381.845506,503.632249L373.454325,520.850182L366.942558,520.881332L364.886449,520.896907L355.467658,520.928056L352.901512,520.935843L346.372093,520.951418L342.458942,520.959205L339.438873,520.920269L333.162833,531.900431L332.872241,532.274223L330.736349,536.105587L328.252100,541.182912L332.989592,549.873523L334.911427,552.669152L339.800422,557.933336L344.115079,562.060572L345.863692,563.205295L355.407852,568.087881L359.849836,570.182640L362.089412,578.686252L364.630857,578.888718L366.170667,579.207993L412.583702,581.832269L407.447744,591.854329L393.903068,596.752430L388.102304,605.801041L387.080272,607.265013L400.395854,620.978022L408.207602,630.626138L410.106541,633.102403L422.048505,654.516539L425.633465,661.657136L430.335057,669.638693L432.337866,669.841152L434.172635,670.028037L434.912582,670.105906L444.475167,649.914463L447.804543,642.688174L450.456125,637.019258L449.363899,636.918027L456.554718,621.320651L459.211278,615.970953L460.653508,615.955379L462.249117,612.560222L464.035544,609.383098L465.183691,607.179355L467.354690,602.771863L468.487783,600.217694L471.910105,593.481839L473.700329,589.954268L475.076689,587.244343L476.471572,584.495478L477.335225,582.797877L503.668557,583.444212L499.843520,591.488334L506.053759,591.472760L503.218332,597.040554L501.513652,600.941895L498.893312,606.439582L497.055993,609.157273L495.766062,612.015127L494.400947,615.215609L493.136104,617.730826L499.237958,618.127965L501.719774,613.237696L528.903912,612.583583L528.688606,613.128677L528.460769,613.845087L528.305556,614.382394L528.196766,614.927488L515.445971,640.679136L517.063668,640.663563L553.148865,640.609054L565.804297,613.580327L568.019605,608.775706L569.832253,604.765359L571.711556,600.272204L572.147292,600.054165L574.852843,598.699208L581.006967,595.638872L600.607870,585.881591L603.982375,584.160630L604.907665,583.716762L611.605398,580.290410L611.485503,580.687555L611.079398,581.871205L610.533181,583.428637L610.019141,584.417606L609.192407,585.998399L603.338695,596.690133L598.765765,605.676448L582.485271,605.326029L576.976220,615.332415L571.031212,629.247838L586.825581,629.567105L581.687284,640.679136L593.925432,641.006189L615.938379,641.029550L615.709756,641.629146L615.123808,643.046374L621.102174,642.991865L622.267602,642.991865L622.339639,644.923031L621.108187,645.312378L614.612017,647.352559L615.247121,655.046050L616.230244,666.858778L618.394701,666.220254L618.518574,667.699761L618.558827,668.221482L622.195855,668.096892L622.816554,675.992772L622.905035,685.087795L622.906832,685.492710L622.978394,689.666441L622.986755,690.110289L623.128012,698.527807L623.083989,702.483485L622.859095,704.064197L622.983970,705.660482L619.572639,706.641612L611.927688,723.453138L605.663329,734.564719L610.942486,731.341042L614.755863,736.410155L614.910303,736.612607L614.981256,736.713834L615.052210,736.815060L615.229445,737.048660L615.518392,737.469138L615.420995,737.515858L615.245001,737.609298L614.233736,738.115430L612.708154,738.886307L602.488655,743.908683L586.581507,778.675684L590.554414,778.675684L594.934170,769.643322L625.413792,769.643322L626.443937,774.517688L626.694833,781.533329L626.739417,782.600079L627.716981,782.600079L629.135992,782.475495L629.449739,790.308691L629.480869,795.136293L629.770100,798.009491L631.403923,797.947199L631.834047,797.978345L651.319417,797.853762L660.949304,797.791470L655.248600,810.094010L666.696880,810.319815L670.660873,801.778123L671.455901,800.065109L676.237863,800.142973L677.433637,800.158546L682.732629,800.322061L683.680310,800.345421L689.219023,789.623482L676.416628,789.623482L678.580744,785.068395L675.823508,785.068395L677.014712,782.561146L679.739176,782.537787L680.386421,781.478824L681.159893,778.597819L682.305135,775.171755L683.103461,774.361957L692.821652,773.427575L693.988708,771.683393L697.541745,771.683393L695.835639,774.377530L695.048228,778.527741L692.569765,783.915995L693.366958,783.768052L708.080780,783.635681L733.588631,783.113987L747.550114,754.794354L748.415743,740.521500L742.275968,737.749458L737.466102,735.000771L734.943661,732.119708L732.899846,727.268613L736.141832,723.834686L751.973337,722.627749L751.552457,716.959029L751.747342,711.827580L752.134669,706.291209L752.945310,705.613761L754.218848,703.526911L754.495737,702.047427L753.684071,700.630236L752.379067,700.739250L750.461006,700.490074L741.632653,700.225324L740.189300,703.051919L737.640267,705.831790L736.381983,706.805134L735.126087,708.089947L733.478894,710.316954L733.219186,711.259149L731.916458,713.789835L730.382490,716.398386L727.514033,719.520856L725.913510,720.805662L723.542677,722.472015L722.881223,722.993723L719.864632,725.267436L718.416890,726.863706L716.536186,728.382108L716.120181,728.716935L715.338001,729.347655L713.512324,731.014002L712.108788,732.002908L710.551099,732.828294L708.232634,733.645893L706.124287,734.245466L705.172554,734.665945L703.505170,735.405677L701.293824,736.301142L710.699039,716.678708L725.306521,685.687380L735.399192,663.525991L737.191503,660.255494L736.371638,659.554672L733.464063,656.377613L731.448069,654.765721L728.793187,652.850137L725.530326,646.254600L723.234044,617.481640L724.679231,614.678302L723.029468,599.641448L721.599271,585.422149L717.662849,585.359852L714.443253,585.305342L701.586231,585.095089L678.666881,584.713518L688.022981,565.743930L690.907989,560.347381L721.684973,553.424517L721.735055,552.396598L735.124132,549.351776L738.389164,548.611985L748.559583,546.314738L757.007336,544.399065L758.775536,543.908466L760.115025,541.182912L782.942897,494.520944L794.900337,470.068209L796.274031,470.473161L797.228847,470.652274L798.457612,470.769087L809.060652,470.815812L810.949230,470.862537L813.295718,470.815812L822.341364,470.870325L832.230781,470.823600L843.410196,470.698999L847.776541,470.660061L854.812012,470.660061L858.389264,470.660061L861.223842,470.706787L873.866533,443.216634L874.614099,441.947251L875.254066,440.008131L886.206575,418.973637L887.901184,415.593771L918.172415,415.157659L919.234825,415.321201L907.039598,441.316453L906.840818,441.892737L912.209702,442.064065L915.946906,442.188667L928.212999,442.321057L939.486139,419.160542L941.076669,415.788464L942.321762,413.156215L942.487986,414.480128L942.270905,416.333604L942.622748,418.716643L942.182196,419.472050L941.863809,420.141792L917.876665,470.457586L920.157085,470.457586L926.025861,470.434223L948.496236,423.506076L948.822876,422.766245L949.356552,421.551365L950.111784,419.962675L980.048637,357.216349L983.164059,350.690076L983.045645,350.425286L983.885035,348.673002L992.944953,328.946087L993.492716,327.754523L982.182164,327.762311L977.153789,327.481943L972.969316,327.481943L968.641562,327.770099L965.608451,328.299683L963.153199,329.576915L961.602620,330.519262L967.168245,317.536644L967.636629,316.274983L974.334619,299.686404L983.625667,279.094602L1000.000000,242.661323L992.151508,242.661323L967.912979,242.801512L947.299880,242.575652L939.560162,242.544499L941.001163,239.514858L941.301219,238.884007L938.413634,238.884007L941.828864,231.664253L936.199459,232.450872L927.025716,233.735943L922.738414,234.584868L921.049356,234.896400L917.481283,242.489981L915.632328,242.505558L905.856890,242.474405L888.240101,242.388734L877.272869,242.295274L877.999001,240.768772L882.870353,231.555217L895.556649,231.524064L892.247086,240.667524L892.588230,240.542911L894.169476,240.036673L895.884819,239.538223L898.024682,239.016408L898.562560,238.899583L899.629281,237.170583L906.270117,220.207621L913.896150,220.121949L928.007268,190.681815L833.608014,188.711338L832.226077,188.680185L829.140484,195.534010L828.680920,196.118142L826.287373,201.188401L806.639802,241.866919L801.192627,241.835766L795.135752,242.046049L787.807155,242.046049L787.004091,245.722114L785.612918,252.069542L782.795661,264.943477L781.062041,274.670924L777.565360,274.647560L767.846742,274.351609L762.390071,274.234786L739.810951,322.700105L737.871757,322.365220L735.356864,323.385451L733.758222,323.743699L732.746863,323.696971L732.273820,323.229690L732.468013,322.505405L730.697341,322.988262L728.820310,323.852732L726.042589,324.187616L725.214295,325.612822L724.327941,326.975723L724.469322,327.310607L725.815918,327.824615L725.198592,328.595627L722.811802,329.662582L720.849897,330.573778L718.582258,331.298061L717.772897,330.932025L717.447834,329.942950L718.547308,328.237379L720.236420,327.372911L721.172547,326.866691L722.090695,325.753006L722.843077,324.763929L723.081930,324.156464L722.247589,323.619091L718.911455,326.181346L718.247383,326.352683L717.952967,326.352683L718.291387,324.561441L718.372901,323.665819L717.736317,323.463331L716.232171,323.899460L712.441719,325.441486L710.865298,325.753006L708.202462,327.123695L706.488694,327.684431L705.251950,328.019315L703.734603,327.995951L701.936853,327.824615L699.508926,327.108119L698.249307,326.305954L697.350794,325.363606L697.119360,325.231209L695.448945,324.265496L693.798057,323.587939L690.464987,323.510059L689.502745,323.136234L687.406886,322.972686L686.300927,323.743699L685.128104,325.721854L684.160395,327.466367L684.238759,328.657931L685.294556,329.335487L687.472184,330.090922L692.343673,331.609580L692.662200,331.835432L667.748008,331.259121L669.546671,327.372911L671.319877,323.790427L674.335784,317.450976L677.055861,311.812433L703.277398,311.812433L704.720239,309.016520L705.925701,306.680101L706.064200,306.415306L705.518958,306.376366L709.982332,297.178638L710.329732,296.501073L710.955711,294.974604L711.479708,293.557169L711.866618,292.427892L711.853003,291.719173L711.609729,290.769023L711.271800,290.083668L710.511279,289.522923L709.988625,289.304856L709.221328,289.219187L703.623445,289.530712L694.764494,290.021363L687.406602,290.543167L687.868621,289.585228L688.439243,288.385857L695.603121,288.074332L704.387508,287.490222L706.502701,283.518272L701.078195,283.346933L698.261268,283.619518L699.694268,280.278402L702.992366,280.021393L709.008312,280.029181L711.173730,275.332919L712.330692,273.401452L720.159796,256.867096L703.358432,256.976131L701.343723,261.197348L700.418473,263.128825L690.637672,283.751916L682.625179,283.806433L680.635371,287.988662L661.960832,289.966846L655.365179,303.829666L653.451199,303.876394L647.678470,304.094460L639.833124,303.876394L639.229128,304.039944L567.181927,304.904420L552.993712,305.075758L552.041573,305.075758L550.781970,304.997877Z M550.781970,304.997877L549.417286,307.918403L544.630116,307.895039L545.994187,305.067970L548.884056,304.826539L550.781970,304.997877Z M551.847124,292.926331L555.180634,285.987112L555.398724,286.002689L558.005321,286.119511L554.903437,292.848450L551.847124,292.926331Z M358.815938,560.448615L360.560044,556.531631L365.700163,556.539419L368.284901,556.492695L366.362514,560.534274L363.548827,560.456402L358.815938,560.448615Z M960.531711,303.315652L960.064271,301.874857L968.464947,300.714432L966.423691,306.508763L961.640094,306.991623L960.531711,303.315652Z M628.310095,619.023475L632.271511,610.769197L635.429365,610.769197L636.377013,608.775706L639.843013,608.760132L639.276316,609.398672L635.827733,613.292206L633.357047,618.937818L628.310095,619.023475Z M198.301003,415.048631L200.367747,409.324653L203.689091,410.243605L204.115862,410.360421L216.492527,413.787021L202.019215,414.791637L198.301003,415.048631Z M517.170658,337.403837L525.303980,320.706372L540.394692,320.021026L542.340546,320.052178L534.116368,337.730931L532.292065,337.707567L517.170658,337.403837Z M345.713356,542.078452L347.469277,538.215949L354.517654,538.215949L352.521021,542.413305L351.420844,544.726131L364.371954,544.842941L365.222506,543.028502L375.654532,520.834608L376.093092,520.834608L377.266363,520.896907L378.283279,520.998142L379.344002,521.270700L380.063249,521.628919L380.355374,521.831390L390.685226,521.636706L392.487670,521.364149L393.918136,521.294062L395.769426,515.492467L402.995436,515.289995L406.844120,507.712856L419.465809,508.257975L426.163846,503.897021L420.407868,516.419166L417.950806,521.769092L425.059139,521.932626L426.392196,521.909264L431.739200,521.955988L432.413274,521.948201L427.346854,530.927015L422.931356,530.779056L410.699699,530.849142L405.730175,540.598865L401.563793,540.598865L401.070145,539.898007L384.974762,539.898007L391.846882,526.636190L396.750542,526.534954L398.843349,522.477742L393.376485,522.314207L388.588255,523.147455L382.840565,525.102081L381.804108,525.608259L380.016282,526.534954L376.656834,529.198226L374.642031,531.168422L372.578751,533.372237L371.209175,535.685071L367.677340,543.044076L367.535711,543.394504L365.290255,548.721007L365.123843,549.110371L363.833746,549.188243L362.399547,549.266116L363.983013,545.660606L354.090165,545.660606L350.899230,547.521766L346.563663,547.521766L345.293097,550.192802L344.209203,550.192802L346.865180,544.609322L344.565831,544.609322L345.713356,542.078452Z " data-aland="36548378" data-awater="3258699" data-classfp="C5" data-funcstat="A" data-geoid="2720906" data-intptlat="+46.2850024" data-intptlon="-096.0761448" data-lsad="25" data-mtfcc="G4110" data-name="Fergus Falls" data-namelsad="Fergus Falls city" data-pcicbsa="Y" data-pcinecta="N" data-placefp="20906" data-placens="02394758" data-statefp="27"/></g><g fill="#000" font-family="Arial" font-size="12px" id="mylayer-label" stroke="none"><text text-anchor="middle" y="443.96369512"><tspan dy="0" x="577.840965264"><![CDATA[Fergus Falls]]></tspan></text></g></svg>