<?xml version="1.0" encoding="utf-8"?><!DOCTYPE svg  PUBLIC '-//W3C//DTD SVG 1.1//EN'  'http://www.w3.org/Graphics/SVG/1.1/DTD/svg11.dtd'><svg enable_background="new 0 0 1000 1001" height="1001px" pretty_print="False" style="stroke-linejoin: round; stroke:#000; fill: none;" version="1.1" viewBox="0 0 1000 1001" width="1000px" xmlns="http://www.w3.org/2000/svg" xmlns:xlink="http://www.w3.org/1999/xlink"><defs><style type="text/css"><![CDATA[path { fill-rule: evenodd; }]]></style></defs><metadata><views><view h="1001" padding="0" w="1000"><proj flip="auto" id="robinson" lon0="-95.1679539169"/><bbox h="0.11" w="0.24" x="-1258.06" y="-765.07"/></view></views></metadata><g class="" id="mylayer"><path d="M1000.000000,419.614357L977.454443,420.093545L909.660198,421.394201L887.091242,421.804934L812.118528,421.873389L772.404933,421.873389L841.240116,276.267732L773.705117,276.541557L698.613980,276.746925L638.281842,276.541557L457.285440,275.925450L425.722986,275.788538L409.105882,311.454190L372.173669,392.711303L357.137361,425.706899L185.802074,427.760564L146.284171,428.171297L140.511645,439.808727L129.967279,460.824534L105.452172,510.659938L31.853052,660.165108L7.315614,709.931363L0.000000,723.211462L99.033636,722.390013L428.650815,719.446487L538.526038,718.419675L603.287972,717.803588L797.448154,715.749965L862.186662,715.065423L863.306447,712.669529L876.202415,684.603305L908.154772,615.053594L918.757405,593.079649L933.414851,562.548815L937.725581,553.444316L950.745208,526.062329L955.032580,516.889352L960.808955,504.293612L978.059406,466.437871L983.812460,453.773632L984.923712,451.514604L988.065494,445.148251L989.912654,441.314747L997.047758,426.049176L1000.000000,419.614357Z " data-aland="715053" data-awater="0" data-classfp="C5" data-funcstat="A" data-geoid="2769628" data-intptlat="+45.7141779" data-intptlon="-095.1680040" data-lsad="25" data-mtfcc="G4110" data-name="Westport" data-namelsad="Westport city" data-pcicbsa="N" data-pcinecta="N" data-placefp="69628" data-placens="02397286" data-statefp="27"/></g><g fill="#000" font-family="Arial" font-size="12px" id="mylayer-label" stroke="none"><text text-anchor="middle" y="522.537140171"><tspan dy="0" x="520.709151932"><![CDATA[Westport]]></tspan></text></g></svg>