<?xml version="1.0" encoding="utf-8"?><!DOCTYPE svg  PUBLIC '-//W3C//DTD SVG 1.1//EN'  'http://www.w3.org/Graphics/SVG/1.1/DTD/svg11.dtd'><svg enable_background="new 0 0 1000 1001" height="1001px" pretty_print="False" style="stroke-linejoin: round; stroke:#000; fill: none;" version="1.1" viewBox="0 0 1000 1001" width="1000px" xmlns="http://www.w3.org/2000/svg" xmlns:xlink="http://www.w3.org/1999/xlink"><defs><style type="text/css"><![CDATA[path { fill-rule: evenodd; }]]></style></defs><metadata><views><view h="1001" padding="0" w="1000"><proj flip="auto" id="robinson" lon0="-76.4558994113"/><bbox h="1.34" w="1.98" x="-1048.77" y="-659.45"/></view></views></metadata><g class="" id="mylayer"><path d="M1000.000000,284.191014L893.662670,325.953016L885.013107,325.953016L828.461472,325.953016L785.938694,322.884703L745.646272,319.986864L710.951236,306.350135L698.880665,286.747800L679.408779,232.213571L626.744792,286.747800L582.948402,282.946715L572.445166,287.693813L575.270364,282.239340L577.009552,278.165558L578.523543,274.330429L579.126182,271.347566L576.351585,274.219637L577.969828,267.512474L578.457861,264.291014L578.821236,259.177614L578.477562,255.589734L578.074930,251.967784L577.485900,248.320286L577.007677,245.516498L576.352308,242.337749L575.765098,238.707345L574.838379,233.253252L573.900103,226.197083L573.410425,222.975812L572.660826,217.624103L572.261273,211.897479L572.037938,205.182391L572.230423,199.106484L572.542307,195.075793L560.326065,200.435851L558.659823,200.555153L555.147055,200.861930L553.735596,200.827844L552.706265,200.495502L550.995339,199.941599L550.153276,199.609257L547.738960,198.654841L546.796307,198.288414L535.352556,193.618614L524.477640,188.948845L517.406631,186.273116L511.990113,184.040509L508.470144,182.549267L506.603063,181.756780L503.600822,180.478578L496.588685,177.496113L494.486618,176.609898L483.870640,172.298135L479.499203,170.483112L479.054346,170.304166L466.607086,165.310749L460.329759,162.831096L456.796143,161.476238L457.078761,162.984476L457.797006,168.207949L450.055348,190.457143L444.740204,197.819728L427.274079,221.987277L378.397002,259.475895L348.765623,263.532524L334.879293,267.998251L329.701497,272.907176L329.221498,273.367389L328.954773,273.810558L317.647813,292.722193L310.876728,302.523376L284.124322,341.303305L264.449958,363.191469L263.366657,364.836519L262.959673,365.467264L239.832603,400.483031L221.396388,428.408241L196.955730,446.727299L84.831112,510.690010L65.527075,521.747456L0.000000,556.967036L13.017633,585.478181L47.908759,661.851708L56.607036,665.373426L83.746006,676.339468L98.261822,682.453577L141.789490,700.796220L156.301647,706.902010L170.209158,712.760548L211.918766,730.336449L225.822561,736.186649L239.114725,741.789583L278.990323,758.581590L292.278715,764.176170L314.638999,773.600065L381.720543,801.855432L404.078112,811.271290L416.541602,816.525120L453.928481,832.278309L466.388127,837.523762L469.887758,757.353517L679.591863,665.219937L679.697577,665.168774L681.199480,664.060241L818.708667,535.149618L926.659042,434.204820L929.068971,429.286249L930.855443,425.620785L969.757903,346.042274L1000.000000,284.191014Z " data-aland="28068380" data-awater="25208039" data-classfp="U1" data-funcstat="S" data-geoid="2424950" data-intptlat="+39.2206713" data-intptlon="-076.4563750" data-lsad="57" data-mtfcc="G4210" data-name="Edgemere" data-namelsad="Edgemere CDP" data-pcicbsa="N" data-pcinecta="N" data-placefp="24950" data-placens="02389026" data-statefp="24"/></g><g fill="#000" font-family="Arial" font-size="12px" id="mylayer-label" stroke="none"><text text-anchor="middle" y="494.840531152"><tspan dy="0" x="477.820911824"><![CDATA[Edgemere]]></tspan></text></g></svg>