<?xml version="1.0" encoding="utf-8"?><!DOCTYPE svg  PUBLIC '-//W3C//DTD SVG 1.1//EN'  'http://www.w3.org/Graphics/SVG/1.1/DTD/svg11.dtd'><svg enable_background="new 0 0 1000 1001" height="1001px" pretty_print="False" style="stroke-linejoin: round; stroke:#000; fill: none;" version="1.1" viewBox="0 0 1000 1001" width="1000px" xmlns="http://www.w3.org/2000/svg" xmlns:xlink="http://www.w3.org/1999/xlink"><defs><style type="text/css"><![CDATA[path { fill-rule: evenodd; }]]></style></defs><metadata><views><view h="1001" padding="0" w="1000"><proj flip="auto" id="robinson" lon0="-119.6543504"/><bbox h="1.22" w="1.06" x="-1642.39" y="-654.76"/></view></views></metadata><g class="" id="mylayer"><path d="M513.106311,999.000000L522.125999,990.449788L549.193695,964.757979L558.208924,956.194154L558.904160,955.668428L560.546921,954.533968L561.740945,953.662371L568.747465,948.529647L569.900299,947.505871L571.815453,945.596670L572.026546,945.361479L572.584242,944.697410L573.448708,943.521455L574.182100,942.193319L574.355750,941.653764L575.077213,940.975862L576.926284,940.962027L613.940715,940.879018L626.274092,940.837514L622.979769,938.319596L613.085666,930.765869L609.780176,928.247970L609.854794,926.670827L600.881204,918.951153L598.426583,916.848311L614.205209,899.084960L614.592010,898.642263L627.386241,886.924674L624.871509,881.515527L621.285204,875.082683L619.388173,872.412716L618.477957,871.139987L615.532578,866.796119L612.688780,861.898909L611.501984,859.464144L608.441386,854.622297L602.002350,844.993990L595.563069,835.919099L594.466290,833.484383L592.104953,825.419417L595.071195,818.502677L603.970348,797.752674L606.925640,790.836079L608.064269,790.227421L609.053426,789.674095L611.477106,788.359947L612.610973,787.737456L615.517143,786.160482L620.586519,783.393864L624.210139,781.388070L626.223873,780.253760L627.102396,779.672772L629.123946,778.593796L630.211167,777.998976L635.192757,775.107878L637.221151,773.918242L638.916527,772.936101L643.724982,769.574695L646.069943,767.444426L647.188333,766.254796L649.302650,763.585050L651.885250,759.338367L655.269337,752.850790L656.155396,751.149363L664.205078,734.716177L666.431936,729.957785L669.873743,721.907288L676.916249,704.243400L685.524050,686.164788L689.285495,678.584847L701.135365,654.614267L701.409807,653.812028L701.796919,653.729037L702.571919,653.369413L703.408851,652.373531L706.366485,645.623683L708.181417,642.082794L711.507773,635.457483L713.709267,630.395160L720.804588,615.720065L728.454256,600.173774L727.740433,598.915141L726.624310,596.356386L723.205868,595.595676L719.533266,595.761649L717.744429,594.447696L717.177483,591.819794L717.530569,588.306712L716.885693,585.125584L714.403661,584.572345L711.353296,584.848964L709.795490,584.337218L708.794670,582.636010L703.126035,581.930632L700.385514,581.017790L697.860562,579.980470L689.262454,580.589031L684.981053,582.055110L680.765569,584.268063L679.319372,585.485189L675.137147,588.970601L672.853163,590.201562L671.858613,590.478183L670.474312,590.699480L664.132775,590.879283L654.920280,592.967772L647.257717,593.977440L639.959680,594.544514L634.135134,595.443534L630.139378,595.747818L626.325653,595.111588L625.754036,595.180743L627.572794,591.584666L633.019663,580.768833L633.335315,580.118779L635.343619,577.269612L640.407560,563.673914L642.430316,559.690664L658.811385,527.258058L667.312827,510.523427L667.986996,508.988277L669.001494,506.678641L676.741995,489.003837L678.805882,485.629332L680.989437,482.047388L684.189241,475.409061L685.841001,471.979273L689.899202,463.556967L702.085655,438.290378L706.139515,429.854462L706.127388,429.328948L706.110451,427.710919L706.104807,427.171576L706.971484,426.784356L708.091348,426.480111L709.731828,426.023745L711.266811,424.018500L711.706622,423.631281L713.511720,423.327037L714.317923,423.188744L715.382492,423.050452L717.341290,420.284604L718.345749,418.860195L717.770598,416.467744L715.697125,414.683781L714.187933,413.397669L719.497683,407.700072L720.353093,405.155522L717.359374,401.020639L709.100765,400.785545L678.561423,399.914318L675.424320,399.872831L671.778268,399.527106L666.950129,399.402645L660.982676,399.623909L655.744521,399.679225L652.371954,399.540935L648.005241,399.582422L644.389861,399.554764L639.299902,399.485619L628.179839,399.651567L622.678141,399.430303L625.337609,392.916860L633.316396,373.376727L635.982601,366.849586L640.897525,357.058937L648.582924,346.438655L687.697056,292.356779L692.812918,287.171344L710.231014,269.499536L721.622452,257.925878L751.204951,241.167073L760.617540,234.460847L764.080890,231.985774L776.062645,221.214424L782.740284,214.328550L789.511772,207.290617L792.626298,206.972598L799.734445,210.761185L805.470896,210.456991L810.136515,208.244677L824.437325,198.109560L841.322243,190.200629L858.113640,180.383668L885.096752,160.763796L903.305451,141.628142L905.412601,139.913690L909.668831,136.443314L914.480803,127.262763L931.536472,90.859206L934.573260,85.799014L934.307653,85.646932L933.512572,85.163035L933.242219,84.997127L930.629816,83.407181L924.579267,79.784877L923.984149,79.425412L920.399698,74.544997L919.188336,72.913587L912.656586,50.018771L910.220617,41.447146L910.905657,38.599167L910.304147,36.649825L908.499662,30.801820L907.893439,28.838666L905.431867,28.244190L903.585046,27.608239L900.578689,27.815615L896.492180,29.032216L893.882148,28.921616L886.991965,25.175041L885.338384,25.036791L884.704170,25.119741L882.356781,25.741865L881.052148,25.769515L879.263951,24.649691L876.868478,23.363970L874.647214,21.898525L873.551909,20.834004L873.240640,20.516031L872.837904,18.622017L871.316968,16.382384L867.631010,13.299438L866.026967,10.686544L863.479242,8.433100L859.040412,7.313291L856.119409,7.147394L855.067847,6.635877L853.453685,5.695792L851.419680,4.022996L850.031172,3.511481L846.961921,3.470006L845.832736,2.764945L843.527201,1.479245L840.538379,3.276460L839.059028,2.958491L838.399850,2.903192L836.236838,1.672791L834.008699,0.940080L829.032306,0.774184L826.045940,1.465420L823.263764,3.013790L820.104232,5.557545L814.895833,9.331712L811.078599,10.907741L809.417080,11.695756L805.193734,12.677320L800.965880,13.285613L798.618233,14.267178L797.376512,14.543675L793.893184,14.833997L789.783356,14.640449L786.953193,14.281003L785.422162,13.714184L783.942568,13.755658L782.759247,13.907732L781.459123,14.308653L780.438780,14.281003L779.986256,13.976856L779.297333,12.525247L778.643328,9.898529L777.224610,8.709596L776.738650,8.668121L774.333824,9.221113L772.095003,10.880091L769.663226,11.681931L769.010039,11.709581L768.796636,11.709581L768.364576,11.170413L767.700144,10.575945L766.596681,10.175025L765.678178,10.313274L764.641875,10.893916L762.107022,12.082852L759.302823,11.668107L755.783765,9.857055L755.118097,9.815580L754.098753,9.594383L751.065444,10.050602L747.450338,11.004515L745.454329,10.686544L743.046487,9.953828L740.803876,8.916968L740.508604,8.612822L740.374313,7.271817L741.981690,2.364027L740.809112,0.124422L740.665347,0.000000L739.671217,0.179721L733.629043,3.815625L723.948801,6.013762L719.858957,6.926197L694.869618,17.571324L683.719987,19.382387L681.628382,19.244138L674.957460,18.787916L673.403234,18.677317L662.364429,14.557500L661.527543,14.115104L660.853391,13.852432L658.810222,13.036766L657.051845,12.069027L656.372207,11.626632L655.287982,10.921566L655.003448,10.714193L653.138261,9.304062L652.665038,8.972267L651.497956,8.156604L649.978194,7.589787L646.172666,6.580578L644.989356,6.110535L644.300745,5.543720L643.639339,4.990729L642.671182,4.493038L641.632883,4.216543L639.302173,4.396265L639.082281,4.410089L635.302417,4.949255L633.447175,5.336348L632.600295,5.585194L631.960328,5.847865L630.383124,6.456155L629.366261,6.995321L626.880514,8.294852L626.518346,8.516048L621.694856,11.350135L617.890984,13.423862L615.152899,14.806348L612.205651,16.299434L592.379902,25.921590L585.677479,29.073691L574.989000,34.161309L572.205999,35.543818L562.463002,40.244358L551.431098,45.345845L544.622114,48.318266L541.780960,49.465761L537.024908,51.677802L535.030635,52.576444L532.002287,53.931322L526.877089,56.475178L524.150754,57.760933L521.167080,58.853135L517.841948,59.572053L514.580457,60.083591L509.959164,61.051367L505.467157,61.839413L503.322866,62.268000L496.662354,63.512284L487.162669,65.516968L481.734924,66.982463L473.648469,69.374265L465.819849,71.862850L457.263887,74.130231L450.136867,75.913723L445.465643,77.227149L431.264771,81.374818L423.887401,83.476309L414.489533,86.269085L405.883380,88.619446L400.589640,89.919060L398.524712,90.513564L396.442063,91.121894L392.845351,92.227950L386.358530,94.011467L381.998037,95.117525L367.320131,99.348207L357.576543,102.279276L349.597119,104.754099L343.406072,106.745021L328.990493,111.445823L314.643783,115.856296L306.418225,118.137581L302.624062,119.257486L299.586933,120.128524L292.633831,122.091819L284.548286,124.290159L276.609514,126.654415L264.280504,129.972678L257.132950,131.991291L234.943707,138.130109L227.493630,140.314650L225.155619,140.964483L230.645369,146.882123L239.901651,156.837092L240.379082,163.335517L242.666920,164.994694L245.638465,164.718165L250.457833,164.261891L253.064876,167.538771L254.021523,168.755505L253.746627,172.046223L253.629237,173.373573L259.698091,182.941601L261.164403,185.250659L260.874400,187.089612L271.630566,191.527999L278.091533,198.800902L279.781683,202.907484L275.649006,223.495896L275.326866,225.044534L276.447818,231.059351L273.030596,244.665386L275.483704,250.666468L276.362770,264.908777L279.777885,280.091529L277.957419,289.577383L299.706332,302.865992L327.632971,327.535323L329.121106,330.135034L335.041829,340.506270L350.737369,348.429951L354.463518,360.128878L351.129893,362.327624L333.446272,362.908426L326.454978,362.797797L264.003861,361.732995L252.492757,364.554032L244.687739,369.269603L242.622570,371.302420L214.176955,399.222868L213.391790,400.011121L211.009080,402.362054L210.219167,403.136480L207.568355,401.698261L183.284354,453.599632L183.007799,454.069838L176.343558,468.839917L164.777193,493.927311L163.498676,496.679485L161.031978,501.727459L158.185971,508.352089L155.228123,514.879942L151.998142,521.629113L147.916288,530.867788L142.931186,541.531071L141.884398,543.453514L140.449635,545.652571L139.632664,546.772847L135.785899,552.249764L135.546138,552.761498L135.233400,553.812626L135.147463,554.379683L135.134619,555.845733L135.004263,557.394768L134.893257,557.823520L133.881550,560.174739L132.295687,563.176007L128.793997,570.146721L127.500259,573.148012L126.899805,574.309804L125.862995,575.803538L123.906350,577.726032L122.015766,579.219770L121.537503,579.593204L121.186685,579.814499L67.025676,691.780611L71.158030,692.624370L77.724011,693.717108L80.515013,694.090575L84.119538,694.118240L82.130405,696.206893L78.239391,700.245889L76.116777,702.403713L74.086163,704.437051L72.389031,706.166082L70.567923,707.991942L67.228928,711.284028L66.505406,711.989476L65.426740,712.805584L73.036875,711.740495L95.878494,708.545233L103.477380,707.480148L112.931392,706.843863L141.295126,704.907347L149.700883,704.326393L150.799362,703.371969L162.006995,702.085572L166.869281,700.674687L203.800831,689.940942L217.354766,685.155049L223.643957,682.928093L234.506400,678.156056L234.500165,678.889151L234.654893,680.286181L234.972861,681.406572L235.962652,682.291820L238.092795,683.356885L238.502912,683.536701L243.485648,685.611506L248.173137,687.285184L253.904641,689.152514L258.937776,690.687875L259.125324,690.743204L260.336128,690.964517L262.701563,691.407145L266.652239,691.559298L262.891297,699.568111L264.847806,699.540447L290.392113,699.042488L298.906880,698.876502L298.977469,699.277635L298.949489,700.633190L299.410860,703.607117L299.867098,706.664044L300.268748,709.333674L301.551826,713.912171L302.241870,715.917862L302.364975,716.830798L302.472479,717.633076L303.215747,718.781164L304.930725,719.749432L300.173066,729.888622L292.550575,746.100425L295.872590,746.155755L303.980165,746.307915L312.132679,746.460074L326.425207,746.335580L343.426991,746.183421L346.112063,746.183421L356.982409,746.169588L369.194433,746.169588L383.423927,746.155755L417.504608,745.422623L447.238812,744.758655L422.999380,795.401028L454.018603,794.584869L488.167928,793.658045L521.366531,796.659849L514.982405,810.880471L497.861551,848.964275L555.396062,848.964275L526.330669,910.816492L511.190400,943.023403L531.287436,942.981899L529.520259,947.962419L527.806585,952.348060L525.122920,959.168659L519.380940,972.602436L516.059470,980.571457L512.132793,989.979390L512.570030,991.639620L513.013741,993.286017L513.336979,995.887052L513.280180,996.993877L513.200241,998.294398L513.106311,999.000000Z "/></g><g fill="#000" font-family="Arial" font-size="12px" id="mylayer-label" stroke="none"><text text-anchor="middle" y="406.615846052"><tspan dy="0" x="494.529891471"><![CDATA[N]]></tspan></text></g></svg>