<?xml version="1.0" encoding="utf-8"?><!DOCTYPE svg  PUBLIC '-//W3C//DTD SVG 1.1//EN'  'http://www.w3.org/Graphics/SVG/1.1/DTD/svg11.dtd'><svg enable_background="new 0 0 1000 1001" height="1001px" pretty_print="False" style="stroke-linejoin: round; stroke:#000; fill: none;" version="1.1" viewBox="0 0 1000 1001" width="1000px" xmlns="http://www.w3.org/2000/svg" xmlns:xlink="http://www.w3.org/1999/xlink"><defs><style type="text/css"><![CDATA[path { fill-rule: evenodd; }]]></style></defs><metadata><views><view h="1001" padding="0" w="1000"><proj flip="auto" id="robinson" lon0="-88.4768756143"/><bbox h="0.47" w="0.75" x="-1198.75" y="-696.47"/></view></views></metadata><g class="" id="mylayer"><path d="M1000.000000,647.096291L876.423403,650.848672L842.308779,651.954866L838.744385,652.106697L820.480277,652.757400L822.038428,648.289244L836.474200,606.948372L864.448127,605.104752L877.021282,604.258856L915.154199,500.389533L915.963026,498.307423L881.490165,503.078927L867.779134,504.618824L865.796142,504.770645L861.918517,504.987532L851.667035,505.508061L832.724843,505.876769L840.932070,483.580886L950.732221,186.099001L791.304310,186.099001L728.438298,348.205275L684.226383,462.174439L492.576441,462.608205L490.776585,467.184441L489.362948,470.697955L436.524684,452.718362L382.488541,447.751769L386.698705,436.430578L389.088158,430.054299L392.560370,420.771858L346.208925,421.248991L360.078789,386.657037L364.543277,375.466272L335.352359,375.943396L325.606955,376.095209L326.526102,373.601150L329.273482,366.053926L330.183294,363.538190L330.861164,361.651391L332.920639,355.925938L333.443396,354.429515L333.615753,353.995770L334.045181,352.824657L335.342088,349.289636L335.762168,348.096839L328.325413,348.226962L305.988558,348.639019L298.542451,348.747455L295.395559,357.118739L291.585133,367.159983L304.774822,365.077994L312.086205,363.906876L309.701279,370.044409L305.569014,380.172459L304.748875,382.146025L302.608790,387.351040L300.814153,391.731937L285.577073,428.904836L279.149428,444.585300L278.934009,445.127503L278.458200,445.149191L275.353782,444.867245L266.039793,443.978032L262.926024,443.674398L254.414639,444.021408L235.100260,444.151537L220.368353,445.366072L146.058091,387.958293L147.607128,386.049785L160.018005,352.694534L160.914364,350.439059L108.010732,350.178813L105.739543,350.287249L101.275467,350.352310L95.803695,350.330623L93.638127,350.308936L60.051235,319.621696L58.695128,323.395228L47.306541,352.455974L46.357812,355.340381L91.500283,354.603014L92.577220,355.600629L95.815784,357.986232L142.740172,392.057252L156.762825,403.117971L202.755175,439.315090L215.967575,449.703704L216.496024,450.137467L216.796553,450.376037L216.933158,450.484478L217.415582,450.853177L228.402844,459.289898L229.322412,460.005611L227.188401,465.557816L217.345067,491.193561L214.058056,499.738873L206.354954,499.543675L189.312822,499.109902L186.340183,506.592496L182.600738,516.005418L187.614156,516.005418L202.618471,516.005418L207.613919,516.005418L203.787729,524.008600L202.564035,526.546200L220.389567,526.546200L227.020234,526.546200L213.410154,561.487289L200.746982,593.956301L223.282535,593.001961L206.754817,638.507050L194.071701,673.384775L182.446632,673.471537L156.390210,673.471537L155.312013,673.471537L129.162033,673.254634L106.340203,673.254634L63.837577,673.037731L43.567481,673.037731L24.878739,673.037731L12.263838,673.037731L5.928322,672.972660L4.748112,675.944231L1.189544,684.858969L0.000000,687.808866L41.737944,687.960699L64.084765,688.025770L166.915111,688.372817L208.643711,688.502960L217.129710,688.220984L238.259160,687.505200L240.166839,682.429646L243.174071,674.404219L213.480445,675.553806L213.626875,675.185071L214.339571,673.254634L215.078110,671.259128L244.924824,670.131234L256.742560,644.037997L295.238254,559.101474L304.918653,537.716012L324.529877,550.230604L332.997900,550.490874L338.328414,550.642698L342.533944,540.145183L352.442042,515.246310L370.948877,515.159555L375.072447,515.137866L390.098908,514.855911L411.663949,514.443824L419.801054,514.270314L452.317965,513.836538L458.513650,513.619651L476.324590,513.294319L481.866246,513.185875L497.855156,512.968987L528.844665,512.535212L534.235432,512.535212L545.452474,483.298936L677.689430,482.388019L669.162073,508.609548L607.364032,509.021634L606.543022,511.450774L548.489332,664.296561L547.600070,666.400512L725.017502,660.695989L666.056949,812.900999L785.277558,810.536614L808.313867,809.907558L847.299723,808.801287L851.520540,808.671138L885.030640,807.868549L942.826328,806.458598L972.221131,722.969323L962.535211,722.969323L970.346303,701.387115L981.148492,700.476112L999.117704,649.590648L1000.000000,647.096291Z " data-aland="4469936" data-awater="0" data-classfp="C1" data-funcstat="A" data-geoid="1743900" data-intptlat="+41.4789984" data-intptlon="-088.4599383" data-lsad="47" data-mtfcc="G4110" data-name="Lisbon" data-namelsad="Lisbon village" data-pcicbsa="N" data-pcinecta="N" data-placefp="43900" data-placens="02398449" data-statefp="17"/></g><g fill="#000" font-family="Arial" font-size="12px" id="mylayer-label" stroke="none"><text text-anchor="middle" y="524.810745299"><tspan dy="0" x="668.612180788"><![CDATA[Lisbon]]></tspan></text></g></svg>