<?xml version="1.0" encoding="utf-8"?><!DOCTYPE svg  PUBLIC '-//W3C//DTD SVG 1.1//EN'  'http://www.w3.org/Graphics/SVG/1.1/DTD/svg11.dtd'><svg enable_background="new 0 0 1000 1001" height="1001px" pretty_print="False" style="stroke-linejoin: round; stroke:#000; fill: none;" version="1.1" viewBox="0 0 1000 1001" width="1000px" xmlns="http://www.w3.org/2000/svg" xmlns:xlink="http://www.w3.org/1999/xlink"><defs><style type="text/css"><![CDATA[path { fill-rule: evenodd; }]]></style></defs><metadata><views><view h="1001" padding="0" w="1000"><proj flip="auto" id="robinson" lon0="-88.0768764264"/><bbox h="0.35" w="0.47" x="-1199.39" y="-680.56"/></view></views></metadata><g class="" id="mylayer"><path d="M1000.000000,304.728722L854.186614,305.866282L882.041222,228.335609L785.674001,203.416796L780.658121,202.279281L761.796132,197.338206L650.076723,163.070865L642.744482,163.106412L641.162432,161.791181L637.165184,160.049389L589.825270,143.769024L522.230263,119.881862L518.668556,118.460014L515.439744,118.637745L512.085223,119.846316L509.729620,122.441190L508.697515,124.787243L507.875208,127.275484L491.579918,171.602111L462.418391,251.335067L460.182442,257.413783L419.062288,257.769264L380.770904,257.378235L329.864123,257.911457L319.049201,257.555976L310.754427,257.271591L169.903113,254.107813L98.340505,449.984925L83.603342,490.122005L81.113992,495.632459L72.452444,520.447421L0.000000,716.202430L133.930058,713.215864L144.651726,712.966984L220.015619,710.940388L294.665851,709.020456L284.889674,736.646279L283.656291,741.623936L284.121553,743.650556L285.374860,745.606068L251.977233,839.436840L246.221213,855.010447L272.886319,854.797109L281.800141,841.641318L301.242470,812.912147L310.542659,815.578826L320.611470,818.458843L336.284957,822.547761L537.751027,880.539986L672.686829,683.279285L619.360396,683.777040L649.640940,601.790968L715.223608,620.491813L769.773444,573.206669L898.406761,572.068992L909.774035,541.778524L904.527423,542.027388L901.754616,541.849628L893.302089,541.671868L852.120432,541.565212L835.863244,541.742972L827.659661,541.991836L811.393969,542.347356L803.472023,541.849628L796.031749,540.463101L783.792015,536.587939L819.574302,483.722783L793.417265,479.101133L806.190901,435.622471L829.041109,443.265846L838.694237,446.003246L851.250517,448.029635L860.168891,448.136287L944.769645,449.167258L962.026887,404.124893L971.523501,379.808740L1000.000000,304.728722Z " data-aland="3747198" data-awater="21923" data-classfp="C1" data-funcstat="A" data-geoid="1744264" data-intptlat="+40.5167601" data-intptlon="-088.0754961" data-lsad="47" data-mtfcc="G4110" data-name="Loda" data-namelsad="Loda village" data-pcicbsa="N" data-pcinecta="N" data-placefp="44264" data-placens="02398464" data-statefp="17"/></g><g fill="#000" font-family="Arial" font-size="12px" id="mylayer-label" stroke="none"><text text-anchor="middle" y="480.651547508"><tspan dy="0" x="477.181669836"><![CDATA[Loda]]></tspan></text></g></svg>