<?xml version="1.0" encoding="utf-8"?><!DOCTYPE svg  PUBLIC '-//W3C//DTD SVG 1.1//EN'  'http://www.w3.org/Graphics/SVG/1.1/DTD/svg11.dtd'><svg enable_background="new 0 0 1000 1001" height="1001px" pretty_print="False" style="stroke-linejoin: round; stroke:#000; fill: none;" version="1.1" viewBox="0 0 1000 1001" width="1000px" xmlns="http://www.w3.org/2000/svg" xmlns:xlink="http://www.w3.org/1999/xlink"><defs><style type="text/css"><![CDATA[path { fill-rule: evenodd; }]]></style></defs><metadata><views><view h="1001" padding="0" w="1000"><proj flip="auto" id="robinson" lon0="-89.8315507762"/><bbox h="0.22" w="0.29" x="-1224.11" y="-678.09"/></view></views></metadata><g class="" id="mylayer"><path d="M1000.000000,188.800670L990.280124,188.688160L969.964562,188.575650L697.337169,187.506802L686.816075,214.453096L279.719403,155.497771L275.200049,152.066239L269.188425,150.603619L93.782102,122.982713L75.735879,166.354935L60.165928,202.639458L43.844444,239.318106L12.387408,312.845201L0.000000,343.224050L39.422062,346.374463L35.566789,354.531793L199.442454,368.258649L190.450077,389.749151L189.063743,393.743472L185.136067,404.151229L169.490093,403.926196L166.998327,410.452155L145.840282,465.866980L157.555051,466.935903L118.944442,570.735350L30.957110,795.784235L64.183693,795.896763L51.271414,831.061819L39.543841,863.245155L34.900801,876.017287L138.902988,824.535161L237.956104,775.473043L236.126528,784.025111L522.980466,638.867537L513.662044,662.553735L493.251811,715.665351L482.648838,742.840323L519.273054,743.628006L530.987971,715.721614L552.810958,662.666259L577.343907,602.635244L566.399124,602.578983L595.839140,578.668104L630.679047,549.581419L649.040910,566.572067L699.526916,524.376884L679.104776,508.905430L728.811293,466.935903L767.348062,435.318406L778.894845,425.191859L811.760576,395.825021L825.127690,355.600686L915.196164,265.364655L1000.000000,188.800670Z "/></g><g fill="#000" font-family="Arial" font-size="12px" id="mylayer-label" stroke="none"><text text-anchor="middle" y="421.148319224"><tspan dy="0" x="406.216799519"><![CDATA[N]]></tspan></text></g></svg>