<?xml version="1.0" encoding="utf-8"?><!DOCTYPE svg  PUBLIC '-//W3C//DTD SVG 1.1//EN'  'http://www.w3.org/Graphics/SVG/1.1/DTD/svg11.dtd'><svg enable_background="new 0 0 1000 1001" height="1001px" pretty_print="False" style="stroke-linejoin: round; stroke:#000; fill: none;" version="1.1" viewBox="0 0 1000 1001" width="1000px" xmlns="http://www.w3.org/2000/svg" xmlns:xlink="http://www.w3.org/1999/xlink"><defs><style type="text/css"><![CDATA[path { fill-rule: evenodd; }]]></style></defs><metadata><views><view h="1001" padding="0" w="1000"><proj flip="auto" id="robinson" lon0="-135.312680523"/><bbox h="29.05" w="23.97" x="-1651.91" y="-962.49"/></view></views></metadata><g class="" id="mylayer"><path d="M580.618876,0.000000L578.577201,0.053520L577.848566,0.057267L577.789676,0.059943L577.697264,0.064759L577.467468,0.233884L576.779608,0.739652L576.549907,0.908243L575.652902,1.481987L572.342602,3.599309L572.049541,3.786638L566.015839,7.645166L562.766843,9.723029L559.873073,11.573451L559.850236,11.587903L550.964777,17.525366L532.192015,30.071282L514.955851,41.593069L510.326482,44.687544L503.696448,49.119813L502.596210,49.855066L497.276744,53.411999L489.448746,58.645913L467.128806,73.367683L458.001660,79.388653L453.248085,82.524650L451.546724,83.671615L447.783883,86.208278L447.719085,86.249529L445.409672,87.712631L445.349072,87.751205L443.960294,88.630899L443.605234,88.637328L439.367878,88.730549L438.504868,88.749300L426.654996,89.009674L423.206977,89.085215L422.410575,89.109860L422.144769,89.118432L417.278250,89.195044L392.537794,89.584001L366.145175,89.998676L361.395906,90.073146L360.394817,90.088683L357.848668,90.121900L351.806868,90.200657L338.604232,90.371564L338.324498,90.374243L335.366488,90.413353L334.438658,90.425140L328.474354,90.501753L326.933374,90.522112L320.978502,90.599262L320.191204,90.609441L319.713800,90.615335L308.072310,90.765884L306.506098,90.785707L305.932139,90.793207L299.624067,90.875179L299.085150,90.881608L297.767548,90.898753L297.604093,90.900896L289.883178,91.001083L289.078347,91.011799L288.668161,91.017692L288.381688,91.020907L284.158572,91.075554L283.790578,91.079841L278.792685,91.144132L278.615855,91.146811L273.681321,91.278073L263.838295,91.413086L263.869648,91.357366L257.222841,101.752366L257.022388,102.971921L255.380704,106.985964L243.282112,132.150917L242.421985,134.647707L239.773826,142.343820L236.596900,151.311761L235.019956,156.587982L229.312584,171.549799L228.193066,175.847438L224.523908,185.957419L207.187912,233.915425L205.603844,237.611803L204.678336,242.629097L203.462275,245.533663L202.921742,247.981580L150.411785,388.409505L110.897558,482.941108L101.122738,506.490023L88.394420,537.251168L88.311659,537.719583L88.064108,539.123228L87.981475,539.591114L88.960097,545.100930L91.907218,561.632312L92.893204,567.143417L98.164983,612.138802L98.402288,614.140050L103.525467,656.853037L112.679426,730.973457L115.751924,755.266924L121.809502,802.354885L125.880685,844.655482L125.994118,845.818379L130.294072,889.300422L135.825295,943.625426L135.981080,949.565847L140.098639,959.355573L145.979246,966.444458L149.772537,971.014183L159.345860,981.932606L163.401244,988.139779L166.071191,993.597602L168.079077,996.022614L168.474040,996.494316L169.657777,997.909436L170.052882,998.380606L170.115312,998.504484L170.302608,998.876121L170.364621,999.000000L171.612464,997.612454L175.357369,993.448306L176.605501,992.060295L177.560563,990.998473L177.665256,990.882177L178.961336,989.441733L181.192057,986.962788L181.257578,986.890309L181.375255,986.754545L181.888998,986.147125L182.104324,985.917788L182.300555,985.703056L182.416987,985.570539L183.045882,984.854408L184.775919,982.938082L194.452564,972.220192L203.797209,961.874398L203.828107,961.839790L203.920936,961.734883L203.951902,961.699733L206.845754,958.534184L206.897493,958.477947L206.942939,958.428199L206.948812,958.421710L207.056765,958.303828L207.160871,958.189732L207.877184,957.406204L207.881588,957.401337L207.911374,957.368893L212.095216,952.793297L219.793447,944.376948L223.755518,940.046311L226.000506,937.592907L232.737045,930.231973L234.982778,927.778268L235.769388,926.914431L236.940803,925.627879L238.130813,924.321343L238.262954,924.176474L238.917997,923.456996L239.306306,922.980770L241.854145,923.007797L251.043915,923.106177L258.182532,923.185098L272.821700,923.427806L291.783461,923.732137L295.649423,923.781328L296.200442,923.788355L299.514199,923.829978L306.688480,923.924034L309.448147,923.959711L313.864252,924.016469L334.074442,924.361345L334.319350,924.364047L353.846215,902.942412L354.898108,901.931790L361.417364,894.317868L372.012338,881.170371L375.569459,876.757641L395.236654,850.843354L416.355946,822.492832L418.543956,819.696189L434.666806,799.098298L436.397904,796.888070L439.366589,793.098299L441.523263,790.270641L443.201234,788.070329L444.256384,786.687331L462.253605,763.109206L481.539014,736.794833L497.684223,715.247777L512.259696,697.825253L513.333038,696.542771L524.030798,680.972592L526.325481,676.848181L527.911673,673.998024L528.446668,673.444286L528.981745,672.890012L529.023296,672.846878L536.885899,662.157245L538.065799,660.436405L550.218142,642.723570L560.686622,625.812138L561.412153,623.633347L562.063315,621.679322L564.534188,614.265601L565.250643,610.838067L575.069966,575.301066L583.565177,544.743937L587.441646,534.555403L641.679641,457.718113L646.019416,451.585701L647.052089,450.126354L652.440762,442.515316L672.491123,414.225496L679.900861,407.060441L681.467188,405.607174L687.686479,400.884080L699.767591,392.540093L700.423574,392.086923L716.776050,379.941415L734.194153,366.480301L769.175045,331.709115L800.499243,292.021647L816.231927,268.758012L826.819433,253.121294L858.201491,204.086506L887.947622,148.835943L910.736314,118.141153L912.018525,113.150724L903.165827,113.614813L891.616630,114.219312L877.456897,115.525858L876.103658,115.570875L867.412481,115.856517L864.121532,116.011933L854.249597,116.477109L850.958673,116.631990L850.876563,116.631454L850.629402,116.629846L850.546876,116.629310L844.088510,118.960592L827.570289,123.620662L817.114302,125.338438L816.443560,125.448313L805.481467,127.006402L798.614172,122.512835L792.322184,122.189654L791.364225,122.523018L780.851677,126.177776L755.971744,128.754260L739.387290,128.088022L738.303036,127.867730L737.497217,127.681207L732.504181,126.522410L722.691303,120.306869L721.591630,119.066707L721.030579,118.433235L720.171334,117.923030L717.594875,116.390826L716.735839,115.880098L714.160966,114.435282L714.156430,114.432603L712.223778,112.737547L709.552879,108.752179L709.315863,107.782792L708.853913,105.889599L709.095162,104.588019L707.776027,103.022826L704.935930,93.652079L704.918437,93.593144L695.804427,82.586257L686.055594,75.373199L680.030120,70.291471L679.131423,69.532478L671.866945,63.496120L671.074152,63.036582L670.825348,62.892508L670.078536,62.460287L669.829833,62.315679L667.400379,60.909774L660.808916,57.092790L659.998605,56.791273L657.170137,55.735704L649.348400,52.818631L639.095842,46.116213L631.137994,42.607771L619.797865,37.623799L609.157779,30.564912L602.084571,22.565999L600.650920,17.887237L600.057449,15.949426L599.411809,13.839295L597.254591,10.886697L596.126567,9.341388L595.187130,9.094633L595.031910,8.956002L592.763288,6.920441L592.697335,6.861564L592.034243,6.219808L591.885385,6.075828L591.438499,5.643356L591.289741,5.498842L590.715660,4.943268L589.715677,3.975573L588.999699,3.416798L588.857913,3.306007L588.363209,2.920112L588.134624,2.741884L587.342112,2.123708L587.157760,2.040750L585.666511,1.371734L585.280907,1.198326L584.619672,0.956947L583.836868,0.671681L582.743845,0.272418L582.424579,0.231208L581.311382,0.088844L581.120136,0.064224L580.618876,0.000000L580.618876,0.000000Z "/></g><g fill="#000" font-family="Arial" font-size="12px" id="mylayer-label" stroke="none"><text text-anchor="middle" y="436.258758169"><tspan dy="0" x="413.347777474"><![CDATA[N]]></tspan></text></g></svg>