<?xml version="1.0" encoding="utf-8"?><!DOCTYPE svg  PUBLIC '-//W3C//DTD SVG 1.1//EN'  'http://www.w3.org/Graphics/SVG/1.1/DTD/svg11.dtd'><svg enable_background="new 0 0 1000 1001" height="1001px" pretty_print="False" style="stroke-linejoin: round; stroke:#000; fill: none;" version="1.1" viewBox="0 0 1000 1001" width="1000px" xmlns="http://www.w3.org/2000/svg" xmlns:xlink="http://www.w3.org/1999/xlink"><defs><style type="text/css"><![CDATA[path { fill-rule: evenodd; }]]></style></defs><metadata><views><view h="1001" padding="0" w="1000"><proj flip="auto" id="robinson" lon0="-90.0278123639"/><bbox h="0.1" w="0.08" x="-1244.83" y="-626.48"/></view></views></metadata><g class="" id="mylayer"><path d="M780.155323,317.954057L722.351882,345.844844L764.160665,502.709625L780.476714,555.955845L794.695122,548.856346L823.931304,531.783746L817.089257,476.340086L845.831514,459.943648L836.922227,398.245749L803.000015,404.500054L780.155323,317.954057Z M557.933882,0.000000L205.518979,144.186296L172.455741,158.723268L219.769773,420.051301L205.092747,478.537547L191.522528,531.107603L198.369768,528.572069L212.294413,531.614710L234.070871,536.178672L169.015247,757.277685L97.929423,999.000000L176.373561,996.802520L244.577698,996.633483L308.608698,890.816468L354.243404,899.437336L376.084612,871.039187L556.635026,635.233635L573.133044,610.216326L604.959319,570.492916L738.278944,622.894015L902.070577,684.254069L794.428217,587.058420L670.114159,478.875618L630.269816,435.264481L557.933882,0.000000L557.933882,0.000000Z " data-aland="148827" data-awater="1306" data-classfp="C1" data-funcstat="A" data-geoid="2927280" data-intptlat="+37.3170241" data-intptlon="-090.0277078" data-lsad="43" data-mtfcc="G4110" data-name="Glen Allen" data-namelsad="Glen Allen town" data-pcicbsa="N" data-pcinecta="N" data-placefp="27280" data-placens="02396961" data-statefp="29"/></g><g fill="#000" font-family="Arial" font-size="12px" id="mylayer-label" stroke="none"><text text-anchor="middle" y="475.77438725"><tspan dy="0" x="413.922724621"><![CDATA[Glen Allen]]></tspan></text></g></svg>