<?xml version="1.0" encoding="utf-8"?><!DOCTYPE svg  PUBLIC '-//W3C//DTD SVG 1.1//EN'  'http://www.w3.org/Graphics/SVG/1.1/DTD/svg11.dtd'><svg enable_background="new 0 0 1000 1001" height="1001px" pretty_print="False" style="stroke-linejoin: round; stroke:#000; fill: none;" version="1.1" viewBox="0 0 1000 1001" width="1000px" xmlns="http://www.w3.org/2000/svg" xmlns:xlink="http://www.w3.org/1999/xlink"><defs><style type="text/css"><![CDATA[path { fill-rule: evenodd; }]]></style></defs><metadata><views><view h="1001" padding="0" w="1000"><proj flip="auto" id="robinson" lon0="-106.587915797"/><bbox h="2.35" w="3.05" x="-1411.66" y="-764.4"/></view></views></metadata><g class="" id="mylayer"><path d="M1000.000000,575.974985L999.693497,575.482675L998.913324,575.092037L994.997928,573.133496L993.691357,572.480649L986.265094,568.793656L985.509261,565.384916L983.786560,562.216972L971.288346,551.150497L967.608785,547.886185L960.518003,540.586934L952.206203,531.318310L947.412251,523.275090L945.497764,521.819491L942.047296,513.893931L939.338870,512.074416L935.485336,508.413969L935.155660,506.348272L926.706476,498.556386L922.757948,493.584747L919.159611,489.046568L918.411972,485.632217L918.847314,481.853942L922.180163,475.517539L925.903945,472.199476L926.969660,471.246869L936.316358,465.456282L936.400682,465.402765L936.377390,463.572462L932.878591,462.726882L931.493825,461.875950L930.019943,459.312446L929.472817,455.780260L927.793145,453.345185L924.627393,450.792364L922.405344,447.495630L921.677616,447.030019L919.149181,445.306722L915.882281,443.080345L913.721976,438.006759L912.459396,435.031101L913.153613,434.233665L913.897021,433.939310L918.598272,432.060785L920.163816,431.429258L925.774035,429.138629L938.381800,423.984697L942.589166,420.960831L948.193715,416.930780L949.702502,413.944358L952.363996,410.684974L954.876899,406.938543L955.886792,405.429263L957.689954,398.744517L958.015424,390.159722L954.184155,382.586420L953.065026,380.365265L953.074406,378.647211L954.973141,374.044313L957.468406,371.774969L964.952397,364.945501L967.448928,362.665434L960.703853,360.128452L952.556966,357.404134L947.311124,355.921545L943.867567,354.888548L940.121849,354.433602L935.671517,354.091053L929.650700,354.091053L922.282384,354.546000L915.587882,354.524591L912.097944,354.492477L911.925819,354.481772L908.169752,354.096405L905.498335,353.684277L902.407385,352.988475L900.530201,352.549584L899.346946,352.217740L892.079320,349.520163L883.780236,346.067897L878.331013,344.253445L877.997141,344.162455L876.254204,343.798494L875.474858,343.680742L874.946205,343.605808L873.106862,343.434533L869.049092,343.145504L866.306347,342.952819L863.235164,342.733372L860.359586,342.546038L859.587209,342.497867L856.476303,342.321238L855.297022,342.305181L851.738457,341.973334L850.647300,341.871639L848.880938,341.743181L847.372400,341.652191L845.241661,341.507677L843.477110,341.400629L842.856446,341.352458L841.367499,341.224000L837.246372,341.031315L833.292554,340.651295L824.014285,339.752094L820.008364,339.281083L815.007724,338.515691L811.598203,338.280185L808.630364,338.103556L805.056579,337.809174L799.828379,337.851993L791.986088,338.044680L788.370616,338.103556L781.814519,338.397938L767.235790,337.364925L769.526096,334.303346L774.279541,327.120377L776.073763,324.112293L778.173678,321.580572L780.680134,318.909680L782.833799,317.336046L790.662226,313.680280L796.431854,305.233968L803.499380,300.753863L805.551624,300.020559L806.585464,299.983090L809.666844,299.876039L812.220243,300.587933L819.142781,299.592351L833.349527,300.539760L834.223086,300.593285L839.077846,300.095495L844.059663,296.942815L845.290040,295.369148L846.466672,292.837360L847.058720,290.080754L846.196726,289.599016L837.248406,282.608444L836.024944,279.792933L835.709824,276.608077L835.150930,275.505419L832.945222,274.070892L830.206344,272.288435L829.870362,272.068973L825.507283,271.212536L823.554305,269.253434L820.986664,262.519663L820.801489,260.437431L816.248421,258.842300L813.943872,256.760061L808.208566,254.185358L799.332597,252.220873L797.413878,250.743491L795.724084,245.845637L795.969364,244.009605L795.442953,240.947760L796.094233,229.926118L796.006993,227.897352L795.870648,224.653461L794.865605,218.165650L795.309830,213.513886L796.630185,206.897535L798.569439,200.746861L798.826692,200.056313L798.675549,199.740481L798.271127,198.873281L797.053205,197.995374L796.817783,197.824075L796.954695,197.106759L786.018884,193.439880L779.110010,193.134752L764.343637,192.465612L758.149518,191.614465L754.344986,190.511720L745.632368,183.665043L736.661290,174.612801L733.715746,171.181388L731.834982,168.986562L727.802988,166.422358L725.928454,164.339941L725.727135,162.016623L723.781072,160.062677L723.610877,158.226500L722.181415,158.001661L720.763422,157.771470L720.100511,154.955634L719.766898,153.547713L716.434492,152.321803L715.594514,151.219019L714.105974,151.090539L708.261568,153.049855L706.868025,152.193324L708.462170,148.617300L709.429105,146.438489L709.327382,144.720062L705.328403,143.981299L704.508062,143.371015L705.574821,139.693248L708.097852,137.000493L709.443532,133.328058L708.556940,131.486482L705.773121,131.117096L705.818819,129.398645L703.445447,123.889949L701.614758,122.792489L698.459683,123.397431L697.684798,124.869632L698.612730,126.325770L698.224525,127.059193L696.065997,127.921097L695.955866,127.899683L695.419744,127.797968L695.420683,127.589183L695.433594,126.695158L694.546214,125.956382L690.240362,126.325770L688.991468,126.807581L688.439738,126.545262L687.320214,126.009917L686.948995,125.833253L683.408508,125.833253L682.531505,125.554874L681.108414,125.094477L678.496965,125.463865L676.384816,126.336477L675.249857,126.807581L671.826125,130.351556L671.258431,130.351556L670.552063,130.351556L670.145584,129.248749L670.665116,127.171615L671.312096,124.312872L668.398090,121.791391L666.656146,122.155427L656.297493,133.906226L652.169307,137.214629L647.933068,139.918090L642.769037,142.241455L642.593706,142.385996L637.836585,146.283241L634.719845,147.386031L631.753494,149.832507L630.718144,151.545572L627.873557,153.751139L623.493165,157.541278L619.935049,159.752187L619.042867,159.875312L619.517166,158.927781L622.118458,153.751139L623.177153,152.407457L624.555608,149.227580L626.666594,146.411722L629.002334,141.154720L627.387110,140.961999L624.626245,141.384915L620.898788,144.200786L619.512711,144.687942L619.819182,141.138660L619.348276,140.158992L617.081808,140.158992L614.827000,141.502690L609.621918,141.743591L604.450651,144.072306L603.312802,145.169744L602.161045,147.369971L601.960917,148.836786L600.687238,151.534865L599.196121,152.760776L596.764640,153.365700L595.674341,154.099104L593.765873,156.668691L591.434243,159.243625L591.155582,160.587299L591.850898,161.684720L593.964872,162.787494L594.344681,163.403120L593.839018,164.377414L593.020479,165.121517L588.068978,166.218934L581.505641,166.090456L578.942428,166.946976L574.284512,171.358044L573.908881,171.711357L572.238276,172.203854L572.406231,170.003677L571.185028,169.703896L569.907228,169.388055L563.879714,172.814121L562.419371,173.178140L560.084230,171.711357L556.853632,171.946899L555.575602,171.706004L554.737072,169.259577L551.772797,169.259577L542.755522,172.187794L542.216008,172.680290L537.426978,174.270195L529.576991,178.809710L527.694968,179.896407L521.584220,181.850318L518.569356,180.870686L516.948880,179.644807L511.362081,179.521684L509.464260,178.295804L509.022483,176.705904L502.072388,171.513288L500.496099,170.335577L500.326436,169.848433L501.776807,166.540129L499.859177,162.380646L499.666422,162.252167L498.692188,161.588361L497.882919,161.031621L494.962436,160.699718L493.617933,160.544472L486.118107,161.641894L483.730008,162.792848L476.473933,166.288527L472.065982,167.150400L461.887542,165.806734L455.746765,166.261760L455.270572,166.293880L452.855657,167.396649L450.892066,168.986562L448.185711,169.843080L446.207996,169.837727L445.894397,169.650363L443.791695,166.904150L440.235902,166.411651L437.159334,163.108690L436.684226,162.129042L435.206967,162.252167L431.358238,164.206110L430.899622,164.163284L430.319403,164.104398L430.152934,164.082985L429.906320,162.129042L429.928957,155.887109L430.418169,154.414950L430.119617,154.174051L432.047015,150.501673L433.970100,146.829283L434.952765,142.792852L434.294090,141.079773L432.891478,140.630089L431.275238,140.100105L425.049623,139.848496L419.579663,137.889156L411.871364,136.422326L399.739521,138.006931L396.269333,137.889156L396.201270,137.878450L386.122503,135.683557L382.485773,133.724210L380.184819,131.647085L380.017326,131.288405L378.608313,128.253010L374.375621,119.141420L373.475284,117.203457L373.740406,115.613469L370.571114,115.335087L361.068858,114.489233L357.898045,114.205497L352.103691,114.264386L344.706209,114.339335L334.704820,114.446405L328.906130,114.505294L327.850288,114.601657L324.693976,114.869332L323.636604,114.960342L322.571244,116.282656L320.872973,117.133862L320.035070,117.310527L316.760789,116.694875L315.619028,116.930429L315.248345,117.513960L315.617623,118.761323L315.740972,119.162834L315.356772,119.896261L314.557585,120.511911L314.106895,120.602920L313.243508,120.629687L310.994481,119.810605L310.768405,119.398387L311.691058,117.637090L311.343654,117.133862L310.155542,116.812652L306.156480,117.133862L302.094886,118.343751L301.343879,118.809504L300.939759,119.837372L300.800202,121.336346L300.786542,123.306422L301.681000,127.621304L301.534632,128.413613L301.091813,129.002491L299.490638,130.057117L298.978249,130.265901L297.163982,130.999320L293.416486,130.972553L291.608607,131.379413L289.448390,132.525045L288.109261,133.526134L286.524658,134.350559L284.933727,134.409447L284.638074,133.617142L285.799875,131.266992L284.940941,129.473593L285.518625,128.825828L288.444623,127.508882L289.556873,126.684451L290.541978,125.126597L290.608307,124.478829L290.133963,123.895302L289.196380,124.071967L286.607069,126.036684L285.426806,126.213348L285.145934,125.715477L285.785399,124.039846L287.849121,121.721796L287.598589,121.223923L286.573096,121.047258L277.459891,124.719735L276.226814,125.394270L275.531092,126.068805L274.938557,127.332218L271.201252,130.330142L269.345017,132.707062L268.236573,133.590375L267.339019,133.558254L266.390724,130.769123L265.300715,130.715589L263.740554,131.625671L261.722244,133.253110L260.277281,134.414800L256.795352,137.760675L255.380247,138.526210L255.275428,139.115082L256.144871,140.110812L255.666851,140.758570L254.767966,141.374209L254.311041,142.899919L255.538759,142.434176L257.132574,141.459863L258.222871,141.256434L258.634277,141.695411L258.347386,143.285361L254.679225,149.832507L254.224890,151.154779L254.544279,151.711525L255.698292,151.973838L255.900670,152.621589L253.211169,154.645142L252.414999,155.908522L251.831929,157.675111L251.411296,158.023075L250.657475,158.494164L247.536680,159.463109L246.682671,159.993084L245.702204,161.020914L244.779367,161.492003L241.529336,161.872085L240.751042,162.257521L240.109113,163.226462L239.417955,165.191109L239.162200,168.012272L236.597328,172.064670L235.967645,173.531452L236.245767,174.034654L236.752816,174.034654L239.317385,173.151374L240.205294,173.210259L240.386036,173.766993L239.661787,175.736975L239.669702,178.054910L238.197762,179.698339L232.175115,183.691808L230.622116,185.688537L228.379339,190.094176L228.661819,190.597371L229.400362,190.800790L230.185831,191.502049L230.606053,193.943073L230.587738,194.879868L229.979287,196.496506L230.136598,196.849811L230.791008,196.758808L232.558674,195.907664L233.480039,196.614274L233.150759,198.343325L231.537883,199.933192L230.943684,200.811098L231.263151,201.367819L232.548299,201.694356L234.408551,201.576589L235.054646,202.866680L235.747558,202.834561L236.746600,202.160074L238.128897,202.690028L239.525922,202.422375L239.740595,202.657910L239.196409,203.953353L235.419765,206.827945L235.417830,208.064499L235.930314,208.765748L237.665201,209.210051L242.014346,208.353564L243.447363,208.530214L243.878023,209.263581L243.366299,211.142496L242.112678,212.700227L241.182990,213.374708L239.735766,213.936775L238.638961,213.374708L235.815763,213.262294L229.355742,214.466723L227.655708,216.024449L224.013835,217.930118L221.380775,220.044550L215.979814,222.073330L213.527169,223.454397L212.024078,223.866575L209.276507,225.686583L208.346301,226.419938L208.117920,226.864233L209.406824,228.416588L209.332951,228.946529L208.502934,229.621000L206.591390,229.786941L204.454860,228.802000L202.233728,228.127529L202.080726,227.774234L202.618556,226.805350L205.287110,225.012110L206.742955,223.722045L206.963389,222.779922L206.698426,221.928799L206.144395,221.430972L205.460634,221.313207L204.249936,221.489855L201.589745,222.812040L200.686255,223.047571L198.940671,223.020806L198.136862,223.256337L196.759224,224.016458L193.943592,226.280761L190.324552,227.629705L189.692379,228.571823L191.338465,230.418588L191.481983,232.800641L191.801487,233.357345L192.377915,233.357345L193.056032,233.030817L197.326580,230.504235L198.534483,230.332941L199.489569,230.975293L199.537857,231.917408L196.538750,238.876192L195.013004,241.665046L194.414507,242.542918L194.122114,242.778444L192.959194,243.865077L191.669581,245.069472L190.311947,246.627154L189.509069,248.093835L189.769573,249.474869L190.178350,250.101151L191.114230,251.525005L191.543667,252.178050L191.452926,253.907012L190.608762,255.320155L188.442151,256.610182L185.904997,257.316752L185.418540,257.252519L185.017493,257.198990L183.999989,255.641324L183.179031,255.528915L181.596376,256.026726L178.482415,257.702154L177.467362,258.729891L177.182284,260.052030L177.776520,261.251054L177.679821,262.337669L176.376718,263.600923L174.045427,265.072934L170.659568,266.100664L166.321178,267.010633L164.480290,267.802840L163.337726,268.627163L163.285473,268.702102L161.885074,270.564855L159.744275,275.173551L158.409507,277.523390L157.488339,278.818743L156.882215,279.669821L156.562501,280.991935L156.044062,281.725252L153.081581,282.399690L150.847277,283.165122L149.804902,283.930554L148.515118,285.482827L147.626935,285.953861L146.714905,285.750460L146.023829,283.743211L145.651130,282.667323L144.882464,282.843962L144.445027,283.224002L140.918331,289.245742L139.774088,290.594607L139.112780,290.889002L137.477760,291.097755L133.228285,292.152223L131.919682,292.714249L130.528043,293.683074L128.982066,295.476201L126.867516,299.645877L125.374517,301.139249L124.169438,301.760149L122.571381,302.022425L121.759520,301.760149L120.950578,299.613762L120.814678,297.092688L120.360236,296.594896L119.134609,296.477139L116.912276,297.360318L116.231781,297.360318L114.707886,296.123866L113.676825,296.155982L112.816146,296.541370L112.484722,296.685890L111.700552,298.505775L110.666158,299.768987L110.132543,301.176717L109.249839,302.348932L108.588521,302.643324L107.622469,302.675440L106.028206,300.207899L105.361399,299.801102L104.854277,299.801102L104.347981,300.122258L102.651763,301.738738L101.421641,302.150887L100.605692,301.813675L98.800663,301.064313L95.994496,300.860915L95.348558,300.223957L94.165064,299.041034L94.102852,299.035682L91.654522,303.751307L84.294947,317.876648L81.846497,322.576133L81.343407,323.544931L79.834143,326.451320L79.329527,327.414762L75.673153,334.437156L64.702440,355.466598L61.041778,362.472752L60.478870,363.580673L58.782760,366.893724L58.215265,367.985583L55.520773,373.171900L47.432952,388.714644L46.470286,390.561133L44.724091,393.895508L38.428961,405.916300L19.544905,441.977859L13.249131,453.992755L13.176269,454.131902L12.960487,454.543992L12.890428,454.677787L12.795147,454.859748L12.509306,455.405633L12.416828,455.582243L12.324350,455.758852L12.055324,456.272626L11.965649,456.443884L11.671402,457.005823L10.791466,458.686287L10.500024,459.242873L10.371117,459.489055L9.992803,460.211547L9.866698,460.452377L9.101666,461.913413L6.806591,466.296508L6.044374,467.752184L5.811787,468.196379L5.114026,469.528962L4.884242,469.967805L4.032626,471.610786L1.467600,476.534363L0.614467,478.171983L0.492441,478.396754L0.126362,479.071067L0.000000,479.295838L6.263227,479.397520L19.940063,479.606236L21.454446,480.216328L23.511387,481.918162L25.012890,483.149046L26.148319,485.840932L26.063799,486.499185L25.818666,488.896722L28.321606,491.262144L29.309626,492.198678L35.364890,491.952504L43.735325,492.674972L46.287592,493.124508L52.094783,494.130612L53.560039,494.387489L61.282292,490.957101L64.712674,488.843206L65.246207,488.511404L71.742492,480.681924L74.615002,480.312658L76.841035,482.271372L80.443339,483.737729L94.678017,483.245376L95.684660,483.384519L97.314112,483.609289L101.257842,486.054998L104.606131,486.665086L107.765463,487.644438L109.435973,489.645951L111.242028,491.802658L110.674009,494.494522L111.092530,495.591601L112.635444,496.694031L115.600817,496.694031L122.359791,499.310960L127.927516,501.462296L130.640748,502.200813L136.675368,501.927883L138.578523,501.836906L142.350990,501.098388L151.815355,501.114443L156.707179,501.119795L158.489304,501.483702L159.157707,503.693900L161.538418,504.421713L161.643003,504.453822L162.462343,504.710697L163.168160,504.919408L164.184084,505.438509L168.604715,507.686159L168.965970,507.857409L173.396932,508.387211L174.660949,508.531703L177.845780,508.344399L179.566588,508.237368L190.264949,505.390345L194.815559,504.175541L196.168002,503.645736L198.383681,502.800189L207.483799,501.515811L211.344605,500.964599L217.261768,499.375179L223.059370,499.621352L230.683248,502.259680L231.905687,502.682454L238.223016,501.173311L245.084542,500.231433L247.781487,500.338464L249.889819,500.418738L252.606577,500.156510L254.395732,500.076237L258.992498,499.808658L260.243903,499.546430L267.256376,500.279597L269.605805,499.915689L272.058100,499.653462L273.544352,499.091545L274.336558,498.936349L275.100779,498.577793L277.626019,496.121410L278.049209,496.795712L278.300976,498.791856L278.526906,499.594594L278.454662,500.884325L278.512102,500.948544L278.741051,502.789485L278.702188,505.117415L277.830781,507.006513L274.729755,510.281655L274.339619,514.316701L273.150984,518.560440L272.986819,523.564069L272.862500,531.350418L272.826507,533.581959L273.463049,534.818135L274.961249,534.962623L275.726730,534.593376L276.507173,533.143144L279.496774,532.773896L279.785005,533.068224L278.833054,534.887703L279.325703,535.561980L280.527638,535.535223L281.071920,535.331870L284.334407,532.982601L284.964856,532.747139L286.978447,533.116387L287.037880,533.127089L288.784092,532.896979L289.365699,533.276929L289.035794,534.363265L288.520161,534.893054L287.334423,535.535223L285.335588,536.123877L284.033331,536.798153L283.825071,537.386806L283.987831,539.147413L282.972768,540.822394L283.413311,541.405694L284.447269,541.700020L286.393377,541.411045L286.625161,541.614398L285.067451,544.782404L284.997941,545.371053L285.550520,546.254026L286.196074,546.312890L286.861655,546.018566L288.061025,544.049268L289.369946,543.171645L290.906317,542.497373L294.012958,541.614398L294.758228,541.673263L295.102485,542.117426L295.103007,543.086023L295.746754,544.316836L296.795829,544.905485L298.208432,545.114188L299.152282,544.611161L299.749710,543.792403L298.534988,542.128129L298.308703,541.823101L298.598759,540.945476L299.921828,539.709308L301.139458,539.329360L302.492150,539.329360L303.825127,540.212338L306.994498,544.306134L307.848529,545.408513L305.476940,547.024619L304.971906,547.666780L304.282181,549.432721L304.588353,550.016016L305.747840,549.871530L309.190417,548.346400L310.005063,548.405265L311.028877,549.887584L311.162218,550.080232L309.957379,550.957849L308.065159,551.781952L307.188925,553.456914L305.223694,555.597436L304.204266,556.244943L303.275450,556.271699L302.951824,555.597436L303.175722,554.655607L303.021188,553.981342L301.742525,553.831506L300.654168,554.420149L299.323346,555.538572L298.248346,557.593469L298.018234,558.679780L298.066394,559.557390L298.816040,561.232339L300.412243,561.612279L302.063891,561.173475L304.203112,560.001546L305.386167,559.032964L307.417308,556.774721L308.449194,556.095107L310.341510,556.041594L311.379398,556.394779L312.786396,557.716548L313.079241,558.449674L312.376564,559.535985L311.581608,560.210246L311.063788,560.354730L310.118716,559.766090L309.433342,559.915925L308.796241,560.354730L307.907336,561.622981L307.454349,562.265133L307.460943,562.907285L307.881510,563.586895L309.103726,563.645759L310.952936,563.351440L311.192086,563.731379L311.007331,564.084562L310.376352,564.967519L309.563952,565.550805L307.576440,565.786260L306.178383,566.519381L303.831035,569.896010L303.666970,570.275947L303.431871,570.982308L304.034805,572.100712L305.374687,572.448541L308.439364,572.748209L308.810620,573.331491L308.647214,573.834505L307.698310,574.803072L306.961495,575.241871L304.851940,576.033848L301.360603,578.174324L298.984463,579.351583L298.120142,580.025832L297.313876,581.053256L296.587345,582.433857L297.057560,583.225829L297.948965,583.461280L300.183980,583.075996L301.289777,582.578339L302.542178,581.609778L304.126398,578.912787L304.703125,578.324157L306.504143,577.152247L307.597082,577.002414L308.401585,577.735526L308.433459,578.163621L308.609574,580.437872L308.008904,581.909443L306.922855,583.140210L306.231471,584.461946L307.274671,586.222473L307.229387,586.955579L307.149857,587.629822L305.185626,590.920765L305.697423,592.536802L307.426973,592.595664L308.959867,591.803700L310.275472,590.391005L311.178408,588.341523L312.006927,587.603067L312.865248,587.255243L314.846592,587.164274L317.932693,588.459248L319.401490,589.074628L320.461523,589.957564L320.614984,590.310738L320.047953,591.718082L321.283273,593.890632L321.096908,594.570222L319.767809,595.362184L318.867007,595.592281L316.983509,595.827729L312.621992,595.677899L312.060482,595.972209L311.468142,596.914001L310.961782,598.909954L311.318997,599.851744L314.367325,601.467766L315.276258,602.639649L315.687729,602.698510L316.862889,602.200862L319.318230,599.321987L320.199974,598.738720L321.741818,598.385549L322.621527,599.033029L322.396187,600.558085L321.825022,600.879149L320.512682,600.793532L319.775881,601.232319L319.392439,601.965415L317.789105,607.161283L317.421105,609.804691L317.714075,610.537781L318.325437,610.537781L320.889648,608.868262L324.175977,607.252251L324.866819,606.578020L326.359646,604.378741L326.996717,603.939955L328.577435,604.673049L329.290214,604.603485L329.398336,604.587432L331.392983,603.501169L332.849834,603.501169L333.380550,603.265722L335.359591,601.944011L336.180924,601.799532L336.803112,602.093841L336.987379,602.388149L336.816716,603.560030L335.821487,604.940601L332.629889,607.022156L332.100785,607.519802L331.485071,608.697029L331.301401,611.046127L332.479222,612.806610L333.181324,612.956438L334.163290,612.571165L334.761764,612.073522L336.934848,609.344503L338.645050,608.022799L339.799937,607.439537L340.892897,607.289708L341.167907,607.733844L339.500946,610.141805L338.147676,612.720994L338.404641,613.207935L338.489783,613.368465L339.111989,613.662770L340.126593,613.662770L345.641226,612.196595L347.052128,611.961150L348.664772,612.110979L349.064118,612.640729L347.883136,614.898851L348.044011,615.428599L350.101326,616.809155L350.704057,617.986371L350.858344,619.308062L352.876306,619.661226L353.966475,619.516750L354.706050,619.072619L355.447571,617.986371L355.908906,617.750928L356.769601,618.045231L358.440738,619.575610L358.564662,620.308693L357.873459,621.630381L357.783112,623.096543L356.836251,625.097798L355.676307,625.889737L354.575617,626.178688L352.533065,626.328514L351.757696,626.708430L351.710401,626.815449L351.055985,628.174585L351.020940,629.410649L351.459688,630.379165L351.895781,630.523640L354.929858,629.704949L355.794480,630.058110L356.063354,630.646711L355.958282,633.434533L355.120896,635.077258L355.725872,634.873924L358.571410,634.938135L361.283792,634.991644L364.455460,634.440502L369.748480,632.444616L370.615730,632.112860L373.762344,630.614605L374.103374,630.443376L375.133598,629.924337L375.473090,629.747757L377.592777,631.133644L378.429129,631.690138L378.553463,631.775753L380.611907,633.129532L384.320856,635.564189L395.990310,643.306897L397.769817,644.489434L401.127870,646.683277L402.351568,647.485901L405.459716,649.519214L406.008141,649.888420L407.217587,650.701744L409.305840,652.098304L409.644885,652.312336L411.281930,653.361093L412.296976,653.965733L413.367556,654.522215L414.511995,655.003787L415.728753,655.405096L416.008920,655.474656L417.004822,655.726143L418.327472,655.982980L418.669326,656.025787L419.700760,656.159556L421.121887,656.261221L422.570712,656.293326L425.679992,656.309378L426.956351,656.314729L437.074347,656.502006L444.358198,656.619723L445.804506,656.673231L446.940432,656.748142L447.239905,656.764195L448.648588,656.897964L450.030556,657.074540L451.400076,657.283220L452.748476,657.524005L453.562413,657.700581L454.065826,657.807596L455.354923,658.128642L456.264118,658.380129L456.621362,658.476443L457.846820,658.877750L459.025423,659.327215L460.155632,659.819485L461.263184,660.338509L462.323881,660.905690L463.484039,661.622691L464.325553,662.136363L465.654553,663.003185L466.610776,663.629222L469.476382,665.496630L470.431075,666.117315L474.269038,668.621454L478.757645,671.548293L484.510741,675.283077L485.787214,676.117783L489.613861,678.627249L496.294885,683.009436L499.087691,684.834004L502.999941,687.354150L508.825734,691.174486L509.406162,691.549028L512.745216,693.689266L513.688831,694.331336L514.608253,694.994809L515.487676,695.685033L516.161190,696.337804L516.274375,696.444815L516.969605,697.263453L517.582041,698.140946L518.108602,699.066593L518.542156,700.045746L518.878367,701.078402L519.621458,703.871386L520.573316,707.434837L521.167049,709.542938L521.478936,710.506029L521.506373,710.586286L521.933117,711.586830L522.454132,712.523166L523.071239,713.416698L523.784156,714.251373L524.585466,715.016492L525.476707,715.717404L526.447668,716.348760L527.486877,716.915910L528.604265,717.408153L529.782485,717.825489L531.030208,718.167919L532.338763,718.435442L537.985308,719.280814L539.098278,719.441328L544.949505,720.334853L548.114967,720.816394L551.257210,721.292583L556.619703,722.175407L557.567611,722.319868L560.737141,722.785357L564.255987,723.304349L568.821233,723.978504L571.193954,724.342333L574.784308,724.898777L578.286113,725.433820L579.022512,725.551529L581.231428,725.888606L581.966288,726.000965L582.383730,726.065170L583.528615,726.231033L586.456020,726.653716L587.788517,726.883784L589.101444,727.151305L590.376201,727.466979L591.598523,727.841508L592.779879,728.269541L593.892996,728.761778L594.949343,729.312870L595.927237,729.922816L596.868218,730.570214L597.759276,731.255065L598.587401,731.977368L599.338331,732.747823L600.013605,733.571783L600.637416,734.427843L601.773443,736.204167L604.624641,740.698466L606.336353,743.464591L608.607657,747.209815L609.708871,749.135925L611.473109,751.843173L612.732774,753.897681L612.819869,754.079591L613.367916,754.898183L613.463685,755.080092L612.857498,755.294102L613.335932,755.615119L614.102489,756.123394L614.309547,756.465811L615.418069,758.311650L621.526428,768.284472L622.615473,770.167741L622.870051,770.659959L623.040606,770.980970L623.537433,771.922602L624.133128,773.056840L624.621866,774.030572L625.076490,775.036404L625.399776,775.812177L625.964543,777.155067L630.409623,785.190968L632.612832,792.986052L633.755650,795.837636L638.162817,803.183238L638.572713,803.627289L639.037924,803.932240L640.192737,805.200193L640.598394,805.569343L641.310833,806.355794L641.584264,806.687494L642.036482,807.233194L642.853592,808.051743L643.992334,809.308991L644.638389,810.181038L645.471256,811.550632L645.721286,812.026780L645.938454,812.524327L646.116882,813.037924L646.210296,813.407072L646.250979,813.578271L646.411336,814.691063L646.461059,815.841303L646.391477,817.028992L646.196417,818.232729L645.891686,819.447165L645.762293,819.885859L645.710361,820.051707L645.271190,821.266140L644.248775,823.721752L642.250635,828.734606L640.988638,831.848234L640.554120,833.078703L640.223403,834.293121L639.996194,835.475439L639.931198,838.904686L640.021963,839.445019L640.141254,839.963952L640.455163,840.691528L640.769073,841.419104L640.994668,841.900587L641.585981,842.777957L642.268753,843.596477L643.395984,844.768084L643.488812,844.864381L643.757078,845.147920L643.848363,845.238867L644.486399,845.902241L645.404090,846.918702L645.889543,847.459030L646.484632,848.304296L646.725754,848.764377L646.929385,849.229808L647.107287,849.711288L647.125720,849.850382L647.185354,850.267664L647.302831,850.765193L647.328189,851.920742L647.262468,852.519915L647.257381,852.637610L647.232696,853.108389L647.060022,854.900556L647.056276,855.489028L647.283740,856.548276L647.443346,857.056501L647.872906,858.019453L648.419360,858.891459L648.761877,859.281989L649.140050,859.645770L649.553879,859.982803L650.008952,860.282387L650.528498,860.549873L651.644197,861.004599L652.784750,861.395128L653.397374,861.534220L654.038231,861.635865L657.232431,862.304579L659.144707,862.679058L660.907448,863.256826L661.478540,863.417317L661.985375,863.700852L662.455012,864.005784L663.314596,864.685196L664.965256,866.092165L665.352706,866.488042L665.747658,866.819722L666.219137,867.146053L668.696479,869.328721L669.061955,869.708548L669.480729,870.077675L670.360772,870.767782L671.309100,871.634427L671.545870,871.853763L671.730965,872.014252L672.799783,872.907645L673.018913,873.110932L673.439237,873.485407L673.997319,873.961526L674.765489,874.699777L675.126052,875.047503L675.778295,875.849949L676.566010,877.182008L676.976183,878.107494L677.179272,879.172068L677.258360,879.701680L677.338993,880.236642L677.393603,880.771603L677.411016,881.327963L677.390939,881.889671L676.758848,884.794503L679.333929,883.542698L687.104528,878.080745L688.763122,876.914526L689.588516,876.828932L690.519350,875.079601L693.419148,872.217539L698.610160,866.338251L700.364127,864.300018L702.906396,857.853612L704.928860,854.130192L705.549646,852.974645L707.934599,848.357794L710.349518,846.490718L712.336745,844.794833L715.542832,842.077131L719.365598,837.422782L725.237857,833.693937L736.973148,823.272360L743.187161,817.751234L743.726388,817.275089L745.318737,816.916643L748.108913,812.395928L745.606898,811.780681L747.858140,806.398594L748.069281,804.574242L748.096514,804.322791L743.753458,796.977198L740.813788,793.430108L739.516210,790.990473L738.534535,789.150043L741.633063,775.935231L742.924650,773.736313L744.207168,772.634176L745.180205,771.045172L745.893982,770.467352L747.137671,769.456166L758.792374,756.615618L759.774372,752.078586L761.786779,742.795799L762.189748,738.686735L762.470657,735.824291L763.018799,734.235230L762.185140,733.133051L762.953681,731.661694L761.920642,726.707220L759.815392,716.616283L757.867330,703.502199L756.703136,695.636878L755.263029,685.909481L758.969146,673.362180L760.933307,666.705895L764.332810,657.775491L766.832780,649.214217L760.792135,626.210793L758.277536,618.874633L753.609374,614.797182L748.201252,610.061540L746.871290,605.047622L747.346028,598.198261L748.176184,598.476517L750.662040,599.295232L751.490661,599.568137L757.340539,601.499873L758.333259,603.865040L759.040656,605.539918L761.673174,605.903789L764.915822,604.560677L771.379890,603.292478L776.315054,601.382149L781.634458,601.424958L786.573286,599.723318L789.392926,598.899252L791.319581,598.332038L795.750772,599.311285L799.327393,598.631698L801.548758,598.139399L807.370187,596.250466L811.028166,596.004315L814.992576,596.250466L817.549068,596.892596L831.462499,600.386851L831.593143,600.418957L836.816416,603.110542L842.310878,606.909784L852.585497,606.422840L862.728724,609.034144L864.033945,609.365907L866.149861,609.365907L876.366525,605.213505L880.140150,604.480411L880.682878,604.603485L881.784136,604.844282L883.302148,609.499683L884.173418,610.703662L886.578329,614.026638L889.324568,615.252017L896.114154,616.846611L901.603620,616.937578L902.570819,616.953631L904.233308,616.975035L909.078841,616.455989L909.919832,616.365023L922.133743,613.834002L926.133320,612.967140L936.640323,610.682258L943.777760,608.124469L952.093582,602.762723L955.317127,600.932660L959.011089,599.546733L972.201901,594.596977L979.960237,591.124108L982.543870,589.962915L994.498623,583.867968L995.067292,582.530178L995.000614,581.304761L995.795964,580.197069L996.486825,579.389042L996.642447,579.282018L999.118248,577.505425L999.405739,577.013116L1000.000000,575.974985Z "/></g><g fill="#000" font-family="Arial" font-size="12px" id="mylayer-label" stroke="none"><text text-anchor="middle" y="423.805549525"><tspan dy="0" x="529.210819546"><![CDATA[N]]></tspan></text></g></svg>