<?xml version="1.0" encoding="utf-8"?><!DOCTYPE svg  PUBLIC '-//W3C//DTD SVG 1.1//EN'  'http://www.w3.org/Graphics/SVG/1.1/DTD/svg11.dtd'><svg enable_background="new 0 0 1000 1001" height="1001px" pretty_print="False" style="stroke-linejoin: round; stroke:#000; fill: none;" version="1.1" viewBox="0 0 1000 1001" width="1000px" xmlns="http://www.w3.org/2000/svg" xmlns:xlink="http://www.w3.org/1999/xlink"><defs><style type="text/css"><![CDATA[path { fill-rule: evenodd; }]]></style></defs><metadata><views><view h="1001" padding="0" w="1000"><proj flip="auto" id="robinson" lon0="-87.8431105159"/><bbox h="0.68" w="0.59" x="-1243.68" y="-526.83"/></view></views></metadata><g class="" id="mylayer"><path d="M819.490315,0.000000L807.302419,2.242459L785.115608,13.406002L780.150598,13.430376L767.318085,11.748533L755.006784,14.551605L737.241492,25.715143L718.495924,34.099982L702.035665,33.027503L699.790826,36.537434L697.489521,41.875455L694.084139,51.430266L692.127032,60.253838L690.880257,63.739393L689.239682,66.908078L685.565457,71.076117L681.521842,75.073535L678.204539,78.656585L673.338168,70.978619L671.086137,69.369902L668.121516,69.248030L665.005274,71.002994L654.080845,84.652710L646.935220,81.020911L641.123841,77.584108L634.262571,72.684834L631.358840,69.833018L573.145925,21.059607L567.324180,16.940310L560.857471,13.722871L553.866020,11.261042L546.640951,9.627947L539.393267,8.726089L531.930749,8.579842L524.215811,9.335453L516.436928,10.822300L492.832142,16.647816L477.134032,20.328371L469.403376,21.547098L461.912612,21.912716L454.566569,21.473974L447.498007,20.035877L440.764520,17.695921L408.658993,3.778056L405.127312,2.486204L401.237503,67.712436L409.072279,71.636731L420.995733,81.118409L425.617689,88.942619L435.849385,100.666744L437.027807,109.027188L441.524180,115.169553L446.176638,118.533229L457.599213,136.399704L458.738944,147.002587L459.566629,148.123811L458.990523,150.366260L460.988226,157.629841L458.120306,168.793329L455.177437,173.814459L449.906469,192.241514L450.839361,195.044571L444.509861,221.856402L444.173701,229.680578L446.283237,238.601598L443.679432,250.910652L438.772138,261.489122L433.312577,269.873898L421.727808,282.719175L418.641225,288.300898L413.055825,295.003838L408.460945,312.894589L409.238297,318.476306L407.274695,336.903278L408.887235,356.451456L410.924476,361.472557L410.838236,370.417915L409.654211,377.120838L410.902260,378.778288L407.729830,393.305346L407.179596,406.150574L409.055157,413.974705L417.366578,424.577496L418.252532,434.083444L412.376195,456.970830L409.560149,463.673735L394.423110,488.267293L388.788356,499.430667L382.484022,508.936593L380.099888,513.957670L378.015105,515.639488L373.507785,524.584803L369.863974,530.166484L366.047042,540.769238L359.167252,552.517573L353.042822,574.283667L353.677144,580.425944L352.939975,585.471385L354.167593,587.128824L353.735907,588.810638L354.945858,592.710495L355.148577,600.534581L350.419024,618.961395L346.913093,624.006830L334.936972,636.291365L318.868178,658.081778L288.862223,693.277898L277.079762,700.541358L246.584775,713.971444L217.576457,732.398195L200.027870,749.167505L171.289892,768.715440L134.259583,788.287738L125.254188,791.090743L69.572567,911.790384L76.630749,913.033452L97.640308,917.566992L104.585959,919.248789L111.367675,921.247447L118.460957,922.514888L122.876291,922.783000L127.358495,922.709879L132.003263,922.003036L141.410974,918.517573L146.096226,917.250132L149.203156,916.738281L164.451568,915.617082L187.735460,912.009749L195.126414,912.277862L209.505740,914.544632L216.366317,916.397046L222.979779,918.810060L248.518889,930.095160L254.021007,934.263090L258.364374,939.162235L258.683880,939.527843L261.553148,945.743176L262.331176,953.908415L262.635357,962.390512L263.765282,970.312009L265.281251,974.553056L266.871543,976.892944L271.316836,982.523298L275.263784,988.324268L280.339289,993.028415L286.175722,996.538245L291.785011,999.000000L298.770197,987.958660L320.255523,955.590210L325.145657,947.400598L329.573570,938.918497L341.938218,913.350312L350.436802,896.410466L355.240682,888.074596L360.610148,880.031210L366.453849,872.475301L372.538755,865.187504L378.856703,858.119070L398.041230,837.303742L410.652269,823.264356L416.541267,815.854678L421.947400,808.152511L426.467461,800.279725L427.966082,797.257355L429.999218,791.748840L441.934007,800.401595L473.412969,817.365863L481.337031,818.535812L500.196996,815.659687L718.394082,510.009056L868.216481,383.482521L869.127715,380.898849L873.491170,372.514102L890.313246,345.702397L895.927460,334.538971L907.774804,322.839307L922.036885,303.827343L925.266967,297.685014L928.615389,280.379239L929.414956,268.655181L928.499671,263.609691L929.386756,255.809898L928.039642,252.446237L927.618316,239.040337L930.427433,219.492087L926.988393,204.964951L915.410316,172.571364L910.376073,166.429009L896.960460,154.144297L856.803984,110.587154L851.134641,96.059968L850.915579,90.478212L849.550674,89.356986L853.708387,73.172324L856.657498,68.126803L859.429855,50.820903L858.797106,44.678525L855.434661,36.293689L839.716516,20.109000L828.243388,6.703002L819.490315,0.000000Z " data-aland="7268656" data-awater="0" data-classfp="U1" data-funcstat="S" data-geoid="0165784" data-intptlat="+31.4057760" data-intptlon="-087.8442122" data-lsad="57" data-mtfcc="G4210" data-name="Rockville" data-namelsad="Rockville CDP" data-pcicbsa="N" data-pcinecta="N" data-placefp="65784" data-placens="02632283" data-statefp="01"/></g><g fill="#000" font-family="Arial" font-size="12px" id="mylayer-label" stroke="none"><text text-anchor="middle" y="431.40646092"><tspan dy="0" x="549.871641865"><![CDATA[Rockville]]></tspan></text></g></svg>