<?xml version="1.0" encoding="utf-8"?><!DOCTYPE svg  PUBLIC '-//W3C//DTD SVG 1.1//EN'  'http://www.w3.org/Graphics/SVG/1.1/DTD/svg11.dtd'><svg enable_background="new 0 0 1000 1001" height="1001px" pretty_print="False" style="stroke-linejoin: round; stroke:#000; fill: none;" version="1.1" viewBox="0 0 1000 1001" width="1000px" xmlns="http://www.w3.org/2000/svg" xmlns:xlink="http://www.w3.org/1999/xlink"><defs><style type="text/css"><![CDATA[path { fill-rule: evenodd; }]]></style></defs><metadata><views><view h="1001" padding="0" w="1000"><proj flip="auto" id="robinson" lon0="-87.2922471757"/><bbox h="0.5" w="0.79" x="-1219.99" y="-584.19"/></view></views></metadata><g class="" id="mylayer"><path d="M1000.000000,516.206014L918.653221,515.839257L909.237277,549.515898L897.662524,549.925797L829.354479,551.090772L835.235116,529.905400L806.924420,530.121138L796.956616,530.142712L791.157966,549.451177L754.364020,549.537471L742.698688,590.289747L678.565875,590.980093L664.314100,635.312861L656.481062,659.733328L660.103716,660.919829L664.192174,662.278911L673.045080,664.997074L622.978688,670.972709L625.328936,665.018647L629.932682,651.298368L632.970925,642.237768L636.151200,632.810398L637.796883,627.568162L638.384642,625.971758L640.371669,619.737148L648.929493,592.943263L649.892895,590.052441L580.388585,590.311321L575.482326,607.095299L573.092376,607.116873L549.622480,606.771702L546.038509,619.305687L545.349865,621.678724L548.075750,622.951534L551.750019,624.634231L560.464645,628.625239L556.656899,639.907895L541.826843,635.658028L538.658128,641.612154L527.249109,637.772176L533.017520,628.560520L530.478144,626.338500L534.826317,619.262541L514.230860,606.253946L486.471062,589.491535L482.582251,596.761731L477.541412,593.719901L469.927305,589.124789L471.852915,584.206069L472.618352,582.242893L473.038140,581.164225L457.964894,571.930804L432.244065,559.116145L422.522973,556.203714L421.987185,554.801431L422.669989,552.816661L424.495977,547.444829L426.043189,542.849639L473.018279,387.946206L482.433804,354.655917L486.141682,341.516605L486.678880,338.992296L488.453836,331.591959L489.675058,327.017979L492.321471,317.718969L494.678061,308.376775L502.104843,280.285275L507.599594,260.931745L510.595664,249.755397L512.061615,244.706606L512.504177,242.937370L513.085573,240.628730L513.353284,238.665306L513.096319,237.651229L516.917824,222.591067L517.215083,221.016002L517.414906,219.225174L515.789025,215.880853L479.271881,211.285102L421.648699,208.868554L408.994162,208.221264L299.259292,196.354252L289.570038,195.663806L212.391902,188.004160L149.407671,185.307096L66.674989,181.768545L66.458858,182.696336L63.568657,192.707833L59.768397,205.178999L57.089349,214.586276L47.474711,247.015242L40.447747,270.964529L39.012553,275.538603L37.748980,280.134245L33.768518,293.165976L31.639856,300.005453L24.615502,323.824819L23.780127,326.823801L21.599427,333.965247L18.397237,344.256664L14.218042,356.748708L13.666311,359.812379L13.589751,361.301062L13.632451,362.746595L14.045311,365.551358L14.722762,368.118792L39.994305,384.062719L44.865958,387.255809L62.326744,398.000095L69.335707,402.164034L75.210830,405.270803L73.777997,409.715202L69.955345,422.573714L68.642037,427.341704L60.761995,453.684158L58.147819,462.810109L57.022764,467.297563L54.927314,474.330769L45.145709,504.038312L36.835507,505.764230L0.000000,633.932192L5.029515,634.622526L41.041170,635.701174L87.558058,637.297571L160.454390,639.756884L194.800511,641.180696L211.455845,640.857102L272.859936,641.051259L318.512362,641.029686L326.137514,641.051259L374.091558,641.741591L369.928139,656.087530L391.776178,656.260112L433.521744,656.583704L425.767823,683.916277L442.012450,684.088858L445.534669,684.088858L453.104952,657.511333L456.797790,657.597624L459.824194,657.834925L465.891508,658.136943L467.450362,657.791779L468.952257,656.907295L470.123107,655.569783L510.892830,657.662342L488.683288,734.201457L524.758697,734.266173L515.221534,764.316033L510.039525,780.214496L499.087606,815.203733L638.199253,815.699878L720.591723,817.015740L734.244796,817.231455L738.451264,804.202233L746.206304,779.308480L754.391406,751.890575L780.525024,751.027694L783.358927,741.320262L791.067221,747.187869L817.297380,767.271385L827.722502,775.425552L818.847034,813.995727L891.902888,813.952584L896.197941,800.923346L902.944519,779.135906L904.929035,772.232918L931.461080,688.985825L933.642205,681.651157L934.369482,679.450753L935.154759,677.724945L939.933291,675.049940L941.473983,674.338043L943.001172,673.734009L946.128037,672.827958L952.506632,671.382590L954.921297,670.907991L977.982863,589.944575L980.120161,582.393907L1000.000000,516.206014Z "/></g><g fill="#000" font-family="Arial" font-size="12px" id="mylayer-label" stroke="none"><text text-anchor="middle" y="501.01402611"><tspan dy="0" x="420.636991741"><![CDATA[N]]></tspan></text></g></svg>