<?xml version="1.0" encoding="utf-8"?><!DOCTYPE svg  PUBLIC '-//W3C//DTD SVG 1.1//EN'  'http://www.w3.org/Graphics/SVG/1.1/DTD/svg11.dtd'><svg enable_background="new 0 0 1000 1001" height="1001px" pretty_print="False" style="stroke-linejoin: round; stroke:#000; fill: none;" version="1.1" viewBox="0 0 1000 1001" width="1000px" xmlns="http://www.w3.org/2000/svg" xmlns:xlink="http://www.w3.org/1999/xlink"><defs><style type="text/css"><![CDATA[path { fill-rule: evenodd; }]]></style></defs><metadata><views><view h="1001" padding="0" w="1000"><proj flip="auto" id="robinson" lon0="-123.823578837"/><bbox h="0.25" w="0.36" x="-1641.22" y="-758.04"/></view></views></metadata><g class="" id="mylayer"><path d="M1000.000000,142.759384L994.976235,144.360422L992.664555,145.229557L981.950587,149.163535L976.923001,149.849694L972.428998,149.163535L969.535089,148.660352L967.919403,146.967827L952.275776,152.777305L927.805304,169.107860L921.942859,174.734346L898.992546,196.599838L885.612029,203.278407L842.859256,210.368662L805.893146,200.350816L791.808340,196.462607L777.339793,187.496848L781.807940,181.961859L795.267815,165.265380L799.726489,159.684631L795.120154,158.815497L787.876860,158.861241L784.885420,159.501655L777.607592,162.429262L770.395045,167.644058L762.711504,173.636496L755.924026,178.210872L745.214517,187.725566L732.082518,202.775227L722.517718,214.760042L720.408728,219.654599L715.174483,235.481835L713.289871,242.892264L712.054166,245.362406L708.535216,248.838900L702.773268,254.053638L698.673611,256.523776L690.339153,260.274724L666.125676,275.873162L641.991476,290.419476L634.701943,297.235193L632.256732,301.763753L630.725612,311.415524L630.506729,314.663273L629.605797,317.133392L627.611072,320.426882L625.180270,323.949085L624.477103,327.013857L613.163179,347.598120L611.302874,351.897937L608.816403,357.661518L603.778091,366.901534L590.659212,393.843897L586.922021,402.900901L582.575866,408.664443L573.721730,423.713672L566.321029,435.012010L558.456568,446.584784L554.959765,450.884546L548.217265,457.288442L542.608286,461.268003L531.423658,468.312278L518.068679,478.878679L504.107113,493.333127L490.786036,505.317490L475.872931,514.648813L462.852721,525.215150L456.730747,531.024342L447.004484,539.898218L438.876862,548.589118L431.799630,554.992932L426.363073,560.161721L419.884261,565.147541L417.484567,567.205906L411.404640,571.963014L406.355926,576.491412L401.480593,580.242205L393.353342,584.633374L390.394934,586.508769L373.341802,586.783217L355.058879,586.508769L367.419859,567.388872L373.883412,556.593885L377.119271,549.961364L377.432158,546.988163L376.213628,544.701085L374.321502,543.649029L371.017489,542.962905L367.537764,542.505489L358.235764,541.773624L339.160809,541.087500L332.894505,541.361949L327.864375,541.499174L321.420812,541.636399L312.940209,541.636399L307.983699,541.590657L301.702899,551.653801L297.869528,557.737422L287.755404,573.884153L283.145586,581.065549L282.692839,581.751670L275.639715,591.677537L271.479970,593.141258L258.944548,597.440938L254.775307,598.858916L250.699442,600.368378L238.006303,606.955113L233.765762,609.104950L230.202692,610.934597L223.924888,615.097043L210.534303,623.879340L194.947982,636.778319L192.844273,638.470737L185.711539,644.965959L180.810764,649.311350L169.054293,659.694539L165.996080,662.164546L160.907775,666.144001L154.185939,670.855307L145.948548,675.612351L137.541054,679.729021L128.472740,683.708467L94.486808,697.384938L55.654831,712.982488L47.115171,716.641733L38.622973,720.529679L32.600845,723.594293L30.132324,724.783546L13.759539,734.251824L5.951797,739.466233L0.000000,743.765830L0.702682,745.000821L1.827129,747.013397L2.773534,748.705791L3.466725,749.895040L9.509067,762.519366L9.808198,762.885288L16.382855,769.471885L32.703509,769.609105L35.008149,769.243184L51.092230,768.419859L59.292160,767.962457L69.359080,767.001912L82.404988,764.623418L93.720071,761.970483L102.635573,759.226066L104.975842,758.494221L116.459599,753.965930L121.498705,751.541692L129.925175,747.516541L132.087392,746.464513L142.441058,740.792705L155.390679,733.291275L163.887629,728.351305L170.668722,724.463363L175.677773,721.535970L190.895583,713.851559L196.546464,710.969903L197.586405,710.603978L205.395458,707.905283L217.911942,703.514184L228.289098,701.181412L230.490840,700.678265L235.527443,699.854933L242.868662,698.665676L247.321175,698.254010L250.880975,697.842344L258.468258,697.659382L265.685919,698.025307L276.384176,699.031602L279.147765,699.443267L289.048257,700.906968L293.617046,701.593078L343.039612,709.780648L362.023124,712.891007L396.443902,718.334133L413.529658,721.261527L429.809747,724.966508L444.599581,730.272404L457.638798,737.179212L469.418099,745.183782L479.742016,754.240372L485.070569,760.735495L488.286073,764.577678L494.177344,776.470137L501.583494,796.733015L504.617875,805.972504L505.671285,808.716905L507.664938,813.839783L513.231961,823.811089L518.230701,829.254137L520.772023,831.998529L532.764685,839.774301L546.378991,846.223612L560.641494,852.032561L577.144485,855.554521L595.699563,856.240616L599.723961,855.737480L616.210918,853.450493L637.582413,847.458586L658.931606,838.493586L679.281878,826.509744L681.868185,824.634408L698.136274,812.696283L714.333012,797.190416L726.899491,780.861194L737.521484,764.303237L739.810966,760.461053L776.731111,698.940120L777.275595,697.979566L802.781869,654.754521L806.659005,648.167826L809.604652,643.365024L826.844126,615.142784L830.212428,609.150691L836.588954,597.761126L808.054187,596.480371L801.349430,596.434630L789.157886,596.297406L768.985856,595.702769L759.384537,596.754819L751.567833,597.623903L731.065617,602.426733L709.531324,609.425138L688.146577,616.606501L682.572676,617.887253L667.123556,621.409320L651.236072,622.461365L647.452358,622.690071L644.075445,622.369883L640.968400,622.095437L639.424373,622.003954L637.861355,621.820990L630.158641,621.089132L625.877178,620.174310L621.586220,619.213746L611.760293,615.600196L608.324849,614.639632L596.221274,611.163303L573.975278,603.981935L567.477160,602.243768L558.995824,599.910965L553.448164,598.630210L549.882946,597.761126L539.414376,596.068700L532.826020,594.970909L519.868456,594.010342L501.249187,593.369964L493.810011,593.369964L482.242093,593.369964L478.094362,593.278482L476.532135,593.278482L471.900859,593.186999L470.366334,593.141258L597.118086,518.353894L631.901414,497.770088L839.448195,374.449065L908.179253,333.738056L940.579765,266.358576L1000.000000,142.759384Z "/></g><g fill="#000" font-family="Arial" font-size="12px" id="mylayer-label" stroke="none"><text text-anchor="middle" y="542.706069509"><tspan dy="0" x="585.52321343"><![CDATA[N]]></tspan></text></g></svg>