<?xml version="1.0" encoding="utf-8"?><!DOCTYPE svg  PUBLIC '-//W3C//DTD SVG 1.1//EN'  'http://www.w3.org/Graphics/SVG/1.1/DTD/svg11.dtd'><svg enable_background="new 0 0 1000 1001" height="1001px" pretty_print="False" style="stroke-linejoin: round; stroke:#000; fill: none;" version="1.1" viewBox="0 0 1000 1001" width="1000px" xmlns="http://www.w3.org/2000/svg" xmlns:xlink="http://www.w3.org/1999/xlink"><defs><style type="text/css"><![CDATA[path { fill-rule: evenodd; }]]></style></defs><metadata><views><view h="1001" padding="0" w="1000"><proj flip="auto" id="robinson" lon0="-95.4822535255"/><bbox h="0.44" w="0.5" x="-1355.66" y="-512.25"/></view></views></metadata><g class="" id="mylayer"><path d="M1000.000000,237.634476L958.897522,227.409026L951.956477,225.815450L942.547268,222.893894L929.412130,218.810355L918.546437,215.424007L917.442454,215.224810L864.675576,201.646220L817.797357,189.163218L763.089021,173.659072L737.421382,166.620789L693.584939,153.739409L674.791391,148.228304L649.096269,140.658837L521.424705,107.525841L478.875198,96.171657L475.893151,95.607267L357.765514,62.673516L264.101374,246.498749L154.010000,441.712604L143.392603,460.370866L139.288662,469.733200L138.577436,472.189984L138.506265,483.046313L129.832924,512.096142L125.533439,519.333703L124.109539,521.923290L107.621985,551.703554L96.884842,573.250274L72.341101,621.722151L39.432805,687.292110L36.019664,694.064914L32.882019,700.439320L0.000000,761.892641L97.864649,789.382336L107.333486,791.872346L108.202944,792.104747L110.262853,792.635949L113.057877,793.797954L114.211260,794.129956L125.962044,797.483170L219.184001,824.076494L219.997022,824.308895L225.016268,825.703302L247.996154,832.144136L275.499934,839.614178L279.520853,840.942185L304.936268,845.656612L309.396533,846.818619L313.546344,847.980626L329.175118,853.093457L553.900506,916.539113L562.472014,918.796732L575.290360,922.382362L624.807221,936.326484L661.161531,868.265954L744.769622,711.694132L748.692311,704.489724L756.594570,689.549712L764.714232,674.111707L766.245605,671.223307L870.663836,472.289583L1000.000000,237.634476Z " data-aland="5717926" data-awater="37587" data-classfp="C1" data-funcstat="A" data-geoid="4851396" data-intptlat="+30.5397615" data-intptlon="-095.4821065" data-lsad="25" data-mtfcc="G4110" data-name="New Waverly" data-namelsad="New Waverly city" data-pcicbsa="N" data-pcinecta="N" data-placefp="51396" data-placens="02411237" data-statefp="48"/></g><g fill="#000" font-family="Arial" font-size="12px" id="mylayer-label" stroke="none"><text text-anchor="middle" y="492.076033095"><tspan dy="0" x="495.207755643"><![CDATA[New Waverly]]></tspan></text></g></svg>