<?xml version="1.0" encoding="utf-8"?><!DOCTYPE svg  PUBLIC '-//W3C//DTD SVG 1.1//EN'  'http://www.w3.org/Graphics/SVG/1.1/DTD/svg11.dtd'><svg enable_background="new 0 0 1000 1001" height="1001px" pretty_print="False" style="stroke-linejoin: round; stroke:#000; fill: none;" version="1.1" viewBox="0 0 1000 1001" width="1000px" xmlns="http://www.w3.org/2000/svg" xmlns:xlink="http://www.w3.org/1999/xlink"><defs><style type="text/css"><![CDATA[path { fill-rule: evenodd; }]]></style></defs><metadata><views><view h="1001" padding="0" w="1000"><proj flip="auto" id="robinson" lon0="-90.5992896166"/><bbox h="0.37" w="0.34" x="-1203.24" y="-752.78"/></view></views></metadata><g class="" id="mylayer"><path d="M805.545884,0.000000L757.543869,1.013483L741.944405,0.660967L643.615758,218.864644L582.645887,218.776518L565.598066,218.688392L531.961065,218.776518L473.489264,346.117498L439.164082,425.120579L331.491801,433.183865L278.817233,536.595757L364.884436,537.124488L391.181245,537.124488L350.125245,624.761194L185.901472,618.989279L175.985192,639.785775L144.853262,705.303135L73.536657,704.686297L35.093678,791.615899L76.788692,791.615899L57.610591,836.203791L48.892312,855.105092L53.192857,855.061033L74.182948,855.105092L82.881679,836.247850L99.294633,801.573299L137.572074,801.573299L123.694056,836.291909L115.623502,855.193210L248.092081,855.501623L175.557841,998.383188L180.702409,998.383188L296.777478,998.427246L352.036612,998.427246L353.079916,998.427246L366.125694,998.295072L387.113212,998.427246L457.882562,998.823768L471.730338,998.911884L553.572759,999.000000L553.942870,998.162898L617.917127,848.099721L622.707734,836.776559L651.259901,769.189666L684.609458,690.102458L685.799131,685.784579L722.671918,605.727073L753.134324,539.680024L828.016444,376.916913L846.011716,345.412503L898.065090,219.393401L964.906322,67.418292L809.144018,63.364401L836.350579,2.247287L805.545884,0.000000Z " data-aland="2149174" data-awater="0" data-classfp="C5" data-funcstat="A" data-geoid="5588275" data-intptlat="+44.9508333" data-intptlon="-090.5987732" data-lsad="47" data-mtfcc="G4110" data-name="Withee" data-namelsad="Withee village" data-pcicbsa="N" data-pcinecta="N" data-placefp="88275" data-placens="01584464" data-statefp="55"/></g><g fill="#000" font-family="Arial" font-size="12px" id="mylayer-label" stroke="none"><text text-anchor="middle" y="558.664278605"><tspan dy="0" x="525.055336239"><![CDATA[Withee]]></tspan></text></g></svg>