<?xml version="1.0" encoding="utf-8"?><!DOCTYPE svg  PUBLIC '-//W3C//DTD SVG 1.1//EN'  'http://www.w3.org/Graphics/SVG/1.1/DTD/svg11.dtd'><svg enable_background="new 0 0 1000 1001" height="1001px" pretty_print="False" style="stroke-linejoin: round; stroke:#000; fill: none;" version="1.1" viewBox="0 0 1000 1001" width="1000px" xmlns="http://www.w3.org/2000/svg" xmlns:xlink="http://www.w3.org/1999/xlink"><defs><style type="text/css"><![CDATA[path { fill-rule: evenodd; }]]></style></defs><metadata><views><view h="1001" padding="0" w="1000"><proj flip="auto" id="robinson" lon0="-88.4926854085"/><bbox h="0.19" w="0.37" x="-1184.59" y="-731.0"/></view></views></metadata><g class="" id="mylayer"><path d="M1000.000000,356.300809L995.857428,356.433217L863.484685,358.419341L776.892149,359.566879L751.591868,360.979234L611.923662,364.421848L612.439990,360.714417L608.609035,360.714417L600.253905,360.714417L621.627131,321.124346L629.582456,306.515298L632.189502,301.836871L634.256999,298.085302L639.407862,289.478762L644.829867,281.092901L645.498623,280.033635L650.562504,272.662904L651.897010,270.809187L616.557920,271.118140L616.191376,269.661648L615.943002,269.043743L617.516486,265.424582L618.303731,263.570865L620.034880,260.525473L622.002680,257.524217L624.315582,254.655369L625.257480,253.640238L632.571756,245.695737L616.182702,238.325004L568.418208,238.854638L553.427437,275.355207L544.632575,275.531751L540.279913,286.124418L513.060150,286.300962L479.799068,367.025877L473.326541,382.782456L467.888215,382.959001L454.133222,382.959001L440.266770,383.135545L426.419060,383.267953L423.077029,378.766074L419.661035,374.352466L424.577956,362.259180L430.092710,348.930083L429.180579,348.930083L430.943528,344.693019L432.181644,341.691765L438.916838,325.317275L421.575368,326.288269L357.937285,326.994447L299.481434,325.979316L317.137832,282.946618L155.790267,280.739812L89.559476,441.659966L90.070275,441.659966L107.088331,441.880646L154.678373,442.366143L202.565322,442.410279L311.796716,441.395150L306.044403,454.768374L298.984806,472.422792L281.414796,517.662230L279.179370,523.355778L229.057792,520.840024L95.081006,520.840024L61.637515,603.197828L72.847595,604.036412L61.511432,627.207811L49.576587,651.703286L44.347312,664.017226L42.991833,667.724648L14.963008,668.342552L0.000000,705.725724L0.000000,705.725724L29.287257,705.151956L194.935336,702.150710L202.962459,702.150710L185.087868,737.371211L195.159301,737.282939L185.445445,760.674996L541.403960,756.746896L572.248167,679.288275L578.323718,679.244139L656.633342,678.449691L702.357260,677.920060L706.203420,673.329918L706.494601,668.519096L707.601193,665.826801L709.325086,663.399322L711.852584,662.516602L717.794069,661.413203L720.250574,660.353939L722.290952,658.985724L723.786011,657.440964L724.891613,654.836941L725.194508,652.232918L724.310202,648.128271L720.527900,640.536881L719.324938,638.815577L725.745909,619.395740L732.774326,601.123436L734.438177,597.548420L740.897760,590.928019L753.473786,577.378265L764.675132,564.402277L777.332102,550.146344L785.190239,540.833644L792.396603,531.079582L801.668913,520.928296L805.800230,515.323020L813.387849,499.257505L838.311390,434.200973L851.357495,433.980292L868.653677,433.803748L966.091207,431.950034L1000.000000,356.300809Z " data-aland="1567923" data-awater="0" data-classfp="C5" data-funcstat="A" data-geoid="5510450" data-intptlat="+43.6145162" data-intptlon="-088.4952234" data-lsad="47" data-mtfcc="G4110" data-name="Brownsville" data-namelsad="Brownsville village" data-pcicbsa="N" data-pcinecta="N" data-placefp="10450" data-placens="01582876" data-statefp="55"/></g><g fill="#000" font-family="Arial" font-size="12px" id="mylayer-label" stroke="none"><text text-anchor="middle" y="511.085257896"><tspan dy="0" x="450.758144677"><![CDATA[Brownsville]]></tspan></text></g></svg>