<?xml version="1.0" encoding="utf-8"?><!DOCTYPE svg  PUBLIC '-//W3C//DTD SVG 1.1//EN'  'http://www.w3.org/Graphics/SVG/1.1/DTD/svg11.dtd'><svg enable_background="new 0 0 1000 1001" height="1001px" pretty_print="False" style="stroke-linejoin: round; stroke:#000; fill: none;" version="1.1" viewBox="0 0 1000 1001" width="1000px" xmlns="http://www.w3.org/2000/svg" xmlns:xlink="http://www.w3.org/1999/xlink"><defs><style type="text/css"><![CDATA[path { fill-rule: evenodd; }]]></style></defs><metadata><views><view h="1001" padding="0" w="1000"><proj flip="auto" id="robinson" lon0="-91.8683432733"/><bbox h="0.75" w="0.7" x="-1225.46" y="-741.16"/></view></views></metadata><g class="" id="mylayer"><path d="M326.746250,0.000000L320.997455,0.386132L289.775178,0.471939L269.521716,31.276627L137.324704,192.376806L92.586814,247.956538L72.757034,272.582223L38.792864,359.329129L44.076639,462.698927L82.343663,573.467395L109.786524,646.289609L119.244127,671.428645L134.595785,749.376236L121.581479,821.145589L107.026030,852.053801L102.938534,860.719229L85.496415,897.675873L61.493489,968.006640L58.181594,999.000000L64.168707,997.605838L205.685569,995.160692L416.681490,994.624475L669.950757,993.187415L798.569637,994.495783L839.789318,907.735425L847.332340,892.292184L849.057080,888.495715L865.123116,852.868866L786.931569,851.067142L799.368918,824.191373L826.682763,765.634869L726.526903,763.532832L734.088375,747.059700L762.489761,683.290292L797.229755,611.905608L825.043253,552.832506L915.205960,554.055157L919.289052,553.883557L939.085286,553.068457L947.788081,537.838926L937.730993,537.989076L944.223545,523.403015L884.979609,523.660417L879.674894,523.681867L822.710764,523.853468L817.924602,534.406914L817.765462,535.200567L817.143937,536.358871L809.853234,552.618006L808.574321,555.213458L806.265057,560.361459L805.772307,561.627009L803.006753,567.482855L799.464339,575.440790L796.905107,580.674576L796.518538,581.146475L795.820911,581.682723L794.109654,581.918672L776.341044,581.747073L771.186126,581.511123L721.958238,582.025922L724.605828,576.792137L749.031527,525.333525L818.144808,372.628506L814.244197,372.628506L738.302203,372.735759L737.278513,372.735759L727.179911,372.821562L715.392732,372.735759L701.218471,372.778660L683.923709,372.456902L673.842756,372.542704L639.442415,372.306747L646.596109,355.725422L654.058872,339.401464L661.722514,323.141819L668.956212,307.332601L676.274308,290.858370L683.642729,274.984724L691.128768,258.767825L698.527282,242.272024L706.137861,226.291008L710.998534,215.415315L809.918137,218.118152L887.476060,219.448119L920.698413,158.312273L924.527636,148.959512L926.675266,140.014313L933.391591,122.552906L936.100808,116.825384L951.989796,83.639976L961.207136,63.218105L951.690320,63.346814L948.062861,63.368266L943.352215,63.325362L889.763486,62.274235L800.982889,62.295687L781.552090,62.295687L777.291552,62.510202L772.123511,62.424396L761.191765,62.124074L753.991910,61.845203L741.874812,61.630688L741.021856,61.802300L740.257941,62.209880L690.437270,61.416172L561.629413,60.686818L541.017082,61.437623L537.325661,61.523430L523.919574,61.587784L539.741773,28.166132L545.590375,15.273652L552.123696,2.745828L547.335040,1.887757L543.475290,1.995016L510.620517,1.823401L507.607870,1.930660L502.935533,1.801950L472.839711,1.458721L461.764844,1.480173L444.717545,1.201300L389.852701,0.600650L326.746250,0.000000L326.746250,0.000000Z " data-aland="5468199" data-awater="10179362" data-classfp="C5" data-funcstat="A" data-geoid="5511062" data-intptlat="+44.2231608" data-intptlon="-091.8658884" data-lsad="25" data-mtfcc="G4110" data-name="Buffalo City" data-namelsad="Buffalo City city" data-pcicbsa="N" data-pcinecta="N" data-placefp="11062" data-placens="01582884" data-statefp="55"/></g><g fill="#000" font-family="Arial" font-size="12px" id="mylayer-label" stroke="none"><text text-anchor="middle" y="511.681474262"><tspan dy="0" x="450.52437758"><![CDATA[Buffalo City]]></tspan></text></g></svg>