<?xml version="1.0" encoding="utf-8"?><!DOCTYPE svg  PUBLIC '-//W3C//DTD SVG 1.1//EN'  'http://www.w3.org/Graphics/SVG/1.1/DTD/svg11.dtd'><svg enable_background="new 0 0 1000 1001" height="1001px" pretty_print="False" style="stroke-linejoin: round; stroke:#000; fill: none;" version="1.1" viewBox="0 0 1000 1001" width="1000px" xmlns="http://www.w3.org/2000/svg" xmlns:xlink="http://www.w3.org/1999/xlink"><defs><style type="text/css"><![CDATA[path { fill-rule: evenodd; }]]></style></defs><metadata><views><view h="1001" padding="0" w="1000"><proj flip="auto" id="robinson" lon0="-73.9473834255"/><bbox h="0.32" w="0.34" x="-1002.12" y="-695.56"/></view></views></metadata><g class="" id="mylayer"><path d="M1000.000000,270.754120L702.781590,114.392328L526.312649,27.338695L399.378086,168.704888L0.000000,657.399328L80.516909,696.142885L121.176458,715.635699L140.873290,725.116103L194.747801,754.428078L320.143511,813.004175L366.302988,840.333473L395.384953,855.231631L460.505410,888.462424L482.735842,899.007321L502.706424,908.391331L504.773880,908.681559L617.517762,939.784360L733.441069,958.262321L812.502798,971.661305L819.824545,961.890201L842.652001,882.416047L863.441395,821.807578L876.607349,783.256525L876.982804,777.161907L877.463040,774.259710L881.977604,748.285125L893.757404,706.300421L912.888887,634.133991L922.883144,593.311083L927.055643,576.962666L928.377255,573.093226L938.709976,542.863330L941.864704,523.661395L949.271458,478.196150L956.382459,434.472517L976.817368,368.307392L1000.000000,270.754120Z "/></g><g fill="#000" font-family="Arial" font-size="12px" id="mylayer-label" stroke="none"><text text-anchor="middle" y="514.493525599"><tspan dy="0" x="562.695502745"><![CDATA[N]]></tspan></text></g></svg>