<?xml version="1.0" encoding="utf-8"?><!DOCTYPE svg  PUBLIC '-//W3C//DTD SVG 1.1//EN'  'http://www.w3.org/Graphics/SVG/1.1/DTD/svg11.dtd'><svg enable_background="new 0 0 1000 1001" height="1001px" pretty_print="False" style="stroke-linejoin: round; stroke:#000; fill: none;" version="1.1" viewBox="0 0 1000 1001" width="1000px" xmlns="http://www.w3.org/2000/svg" xmlns:xlink="http://www.w3.org/1999/xlink"><defs><style type="text/css"><![CDATA[path { fill-rule: evenodd; }]]></style></defs><metadata><views><view h="1001" padding="0" w="1000"><proj flip="auto" id="robinson" lon0="-76.54289388"/><bbox h="0.42" w="0.8" x="-1031.58" y="-712.53"/></view></views></metadata><g class="" id="mylayer"><path d="M1000.000000,527.007390L991.136258,447.075734L977.565852,324.475164L977.171738,320.880606L971.942843,321.021965L965.685629,264.175850L962.781099,237.641201L878.854890,239.801931L780.587727,242.326150L764.465617,242.750219L728.457483,244.002232L484.922925,252.645171L357.936590,256.562771L284.924127,258.804286L281.449100,259.854366L278.992304,260.258243L256.379136,261.166966L244.700587,261.348711L230.376195,261.853557L229.076066,261.974720L195.119491,263.065188L188.288858,263.327708L150.889203,264.721085L143.448048,265.003799L86.957279,266.922216L80.330422,266.942410L55.108530,347.718706L45.681090,378.272755L39.248263,399.073063L31.597356,423.851822L13.506462,482.921596L0.000000,525.997632L2.513823,526.138998L18.518113,527.411293L32.909801,527.613245L65.357993,526.482316L76.556343,526.098608L166.761105,522.705823L203.265085,521.574896L211.923120,521.170993L243.054382,520.019871L266.207549,519.292847L277.736344,518.828359L294.544467,518.363871L302.062544,518.242700L377.895917,515.576946L416.041819,514.870117L409.307343,534.600777L404.154642,550.272281L391.004490,590.299513L387.492201,600.760782L385.838449,605.304778L384.401241,608.677437L378.092920,621.340076L373.458215,631.377316L364.138529,651.593242L359.308927,662.882698L358.308062,665.689921L361.439910,665.649529L398.848235,664.054057L412.127719,663.569357L412.438368,664.296407L412.342286,664.659932L412.514371,665.023458L412.418289,665.386983L412.561694,665.689921L412.352890,666.275600L412.563217,666.719909L412.361613,667.285393L412.390055,667.628723L412.017531,669.284784L412.169662,670.597515L411.773657,671.708289L411.878345,672.495928L411.484464,673.929836L411.651831,674.212579L411.602128,676.373540L411.672942,677.585294L411.444072,679.261555L411.661604,679.685669L411.648145,681.462911L412.006371,682.573687L411.847972,683.017998L412.228390,683.361329L412.244325,684.350930L412.626867,685.017396L412.642803,686.006997L413.001034,687.117775L414.181720,689.682662L414.372817,690.227954L419.443658,696.549298L419.809914,696.650278L421.331722,697.882235L423.260045,699.760464L423.626301,699.861444L425.628756,701.860851L426.495239,702.204183L427.634153,703.193789L428.724803,704.647904L428.729295,705.011433L429.719153,706.748294L429.606321,707.111823L429.984387,707.414763L429.631608,708.404370L429.676822,708.747704L429.561170,709.636331L429.828537,710.625938L429.708278,711.292409L430.090839,711.958879L430.140663,712.524370L431.148855,715.291234L431.069546,715.654764L431.280008,715.957706L431.267742,716.321235L431.547380,716.947315L431.733426,717.835943L432.118125,718.825553L432.131955,719.492025L432.550518,720.057516L432.356134,720.602812L432.657373,721.168303L432.498986,721.612618L432.869857,721.935756L432.874354,722.299287L433.173231,722.824386L433.033741,723.591839L433.373114,724.379489L433.386946,725.045962L433.769515,725.712435L433.690210,726.075965L434.072893,726.601065L433.859501,726.964596L434.168055,727.368519L434.047803,728.034993L434.473570,728.580289L434.331946,729.024605L434.750514,729.590097L434.304722,730.135394L436.042780,730.478729L437.165751,730.478729L439.487962,730.923045L439.741511,731.246184L441.271354,731.468342L448.577149,733.871688L448.768494,734.134238L453.588066,734.578555L459.222165,734.477574L459.636571,734.255416L460.156155,734.255416L462.775896,733.912080L465.941989,733.023448L469.610903,732.134816L470.042069,731.912658L478.892091,731.488538L490.787625,731.266380L491.235550,731.044222L493.658774,730.923045L498.314423,729.711275L498.762348,729.489117L499.749091,729.165978L500.369239,729.165978L501.480505,728.822643L504.172229,728.277347L509.732515,727.631069L510.187638,727.388716L511.193283,727.388716L512.924697,727.045381L515.137336,726.762635L517.225450,726.500085L528.973029,725.611454L529.404192,725.389296L534.128577,725.066158L535.871694,725.066158L537.289268,724.944981L537.631573,725.066158L538.352284,725.066158L542.920442,725.510473L543.193232,725.732631L543.712815,725.732631L548.100899,726.823223L548.332969,727.065577L548.744789,727.085773L553.070453,728.398524L556.124774,729.610294L559.916680,730.680691L560.108032,730.943241L562.777614,731.165399L563.192014,730.943241L564.717244,730.943241L567.681751,730.620102L569.365242,730.317160L569.760516,730.054609L570.615315,730.054609L575.074430,729.064997L580.060646,727.631069L580.508566,727.408912L581.282031,727.307931L581.720389,727.065577L584.062274,726.843419L587.021408,727.287735L588.630440,727.287735L589.114352,726.964596L590.065094,726.742438L591.873532,725.853808L592.977591,725.530669L595.116623,724.419881L595.550039,724.379489L596.558474,723.854389L599.121144,722.965759L603.254488,722.137718L603.697572,721.976148L604.123789,721.955952L606.741253,721.430853L610.060303,720.865361L614.068587,720.764381L617.538057,720.764381L621.021498,721.289480L621.253572,721.531834L623.944533,721.976148L624.375690,721.753991L625.884155,721.753991L626.925790,721.653010L627.299255,721.733795L629.152815,721.329872L632.002138,721.329872L636.687627,721.774187L639.777956,722.884975L640.203752,723.430270L640.608374,723.470663L640.826053,723.753408L641.848143,724.177527L642.080218,724.419881L642.484841,724.460273L642.829408,724.763216L644.708766,725.086354L645.790702,725.530669L646.063498,725.752827L647.502453,725.853808L647.940701,725.752827L648.481669,725.974985L652.954634,725.651846L653.653960,725.429689L654.092313,725.187335L658.115205,724.763216L666.057640,724.440077L666.330437,724.662235L667.218757,724.662235L669.356726,724.965177L669.622325,725.207531L670.125147,725.207531L670.335528,725.651846L670.677837,725.773023L671.448105,726.762635L673.311312,729.529509L674.429244,729.872844L675.259775,730.317160L675.936991,730.862456L678.677839,731.872265L680.382811,731.650107L680.813964,731.427949L681.953696,731.427949L685.212792,730.983633L685.660706,730.761476L687.476010,730.276767L691.032376,729.327547L692.591537,728.762055L703.030706,725.995181L703.478619,725.773023L704.582668,725.449885L705.013819,725.227727L705.533402,725.227727L706.249589,724.864196L702.331945,735.386403L706.415631,737.002099L705.427431,742.737826L708.276067,743.727442L712.772984,756.976198L727.944369,749.584356L727.761969,750.190244L727.030399,752.007909L723.934949,758.107191L726.610779,759.722896L727.822198,759.945056L729.330385,760.369179L730.350042,760.894283L731.005789,761.358799L758.018640,759.258381L769.830826,758.470725L819.632010,755.259512L823.381808,755.037353L823.189111,753.179294L821.376696,738.839954L818.143614,715.553784L816.900894,708.788096L816.654714,708.162018L815.431519,704.304571L813.927836,700.952030L817.988586,697.740863L819.754189,696.407926L818.758317,696.145378L816.978135,691.076185L807.230788,658.136680L805.406580,657.752959L804.832417,657.106693L804.586685,655.915141L803.883864,651.209522L803.659626,650.098754L803.418312,649.412098L803.435390,648.987987L803.244039,648.725442L803.383380,648.099373L803.082011,647.675262L803.077602,647.170368L803.022911,646.665474L802.812543,646.221168L802.798677,645.554708L802.588310,645.110401L802.574445,644.443942L802.364078,643.999635L802.510725,643.212002L802.470433,642.666717L802.207314,642.323389L802.246203,641.555951L801.983085,641.212624L802.005213,640.445186L801.751658,640.122055L801.816977,639.233443L801.606611,638.789137L801.726832,638.122679L801.399252,637.537003L801.502606,637.011915L801.409564,636.567609L801.446843,634.770192L801.040959,626.974661L800.648382,626.853487L800.083583,626.510160L799.501700,626.590943L798.200642,624.692552L797.742110,623.157683L797.457620,622.592205L797.561088,621.925749L797.233407,621.481446L797.430022,621.117924L797.047334,620.592838L797.241694,620.047556L796.823124,619.482079L796.845265,618.714645L796.598915,618.371320L796.621056,617.603886L796.367508,617.280757L796.480322,616.917236L796.143300,616.169998L796.289963,615.382370L795.986572,614.493764L796.025476,613.726331L795.762367,613.383006L795.920737,612.938703L795.880456,612.393422L795.610149,612.070293L795.739725,611.706773L795.692246,611.181687L795.465132,610.737385L795.664551,609.848780L795.284122,609.505455L795.519535,608.515872L795.139106,608.172547L795.374520,607.182965L795.120975,606.859836L795.150321,606.072209L794.896776,605.749081L794.926123,604.961454L794.672579,604.638325L794.874143,604.072850L794.448382,603.527570L794.561199,603.164051L794.128240,602.638967L794.174349,601.851341L793.729688,600.982933L793.584681,599.650029L793.374331,599.205727L793.487149,598.842208L793.070952,598.317124L793.183771,597.953605L793.018977,597.428522L792.876113,596.418747L792.622571,596.095618L792.721661,594.924279L792.513564,594.661738L792.671938,594.217437L788.427082,569.922331L788.600205,569.013539L788.227218,568.367287L788.306523,568.003771L787.916662,567.498887L788.029488,567.135370L787.883828,566.650682L787.692498,566.388142L787.805323,566.024626L787.389143,565.499547L787.547526,565.055249L787.420989,564.610951L787.164980,564.388802L787.440683,563.944505L787.022142,563.379035L787.118209,563.015519L786.852870,562.490440L786.820154,561.500869L786.566622,561.177744L786.679449,560.814228L786.263271,560.289149L786.421656,559.844852L786.295121,559.400555L786.039113,559.178407L786.197498,558.734110L785.778960,558.168641L785.891787,557.805125L785.727010,557.280047L785.675062,556.391454L785.323449,555.967352L785.443708,555.300907L785.071654,553.523721L785.019708,552.635128L784.656059,552.291809L784.797686,551.847512L784.663954,551.423411L784.407949,551.201263L784.583095,550.756967L784.147801,550.191499L784.476265,549.646227L784.175051,549.080759L784.123108,548.192168L783.869581,547.869044L784.027968,547.424748L783.552423,546.314009L783.665253,545.950494L783.395200,545.344636L783.407471,544.981122L783.153945,544.657998L783.266776,544.294483L783.085245,543.769407L783.076502,542.759645L782.705657,542.436521L782.818488,542.073007L782.636958,541.547931L782.549725,539.912118L782.317682,539.669775L782.519269,539.104309L782.093542,538.559038L782.295129,537.993572L917.611631,532.359111L924.691710,532.056183L999.718382,528.925931L1000.000000,527.007390Z " data-aland="7530548" data-awater="1715131" data-classfp="U2" data-funcstat="S" data-geoid="3653853" data-intptlat="+42.4711832" data-intptlon="-076.5426852" data-lsad="57" data-mtfcc="G4210" data-name="Northwest Ithaca" data-namelsad="Northwest Ithaca CDP" data-pcicbsa="N" data-pcinecta="N" data-placefp="53853" data-placens="02389595" data-statefp="36"/></g><g fill="#000" font-family="Arial" font-size="12px" id="mylayer-label" stroke="none"><text text-anchor="middle" y="444.908126001"><tspan dy="0" x="543.957469383"><![CDATA[Northwest Ithaca]]></tspan></text></g></svg>