<?xml version="1.0" encoding="utf-8"?><!DOCTYPE svg  PUBLIC '-//W3C//DTD SVG 1.1//EN'  'http://www.w3.org/Graphics/SVG/1.1/DTD/svg11.dtd'><svg enable_background="new 0 0 1000 1001" height="1001px" pretty_print="False" style="stroke-linejoin: round; stroke:#000; fill: none;" version="1.1" viewBox="0 0 1000 1001" width="1000px" xmlns="http://www.w3.org/2000/svg" xmlns:xlink="http://www.w3.org/1999/xlink"><defs><style type="text/css"><![CDATA[path { fill-rule: evenodd; }]]></style></defs><metadata><views><view h="1001" padding="0" w="1000"><proj flip="auto" id="robinson" lon0="-72.4672534041"/><bbox h="0.54" w="0.29" x="-980.95" y="-699.0"/></view></views></metadata><g class="" id="mylayer"><path d="M237.251338,999.000000L268.127288,973.930620L308.463237,941.475806L352.545537,905.178420L385.914146,879.869553L442.344131,834.055880L485.257972,800.341493L518.513381,774.162787L535.167895,761.523827L539.476170,757.561028L550.080512,747.744112L564.907109,730.121770L588.606700,691.094758L595.555787,679.596886L602.765009,667.228460L609.959694,656.120931L611.290661,654.259673L629.352556,628.352267L636.165964,618.865943L638.244940,616.164147L644.372505,608.088790L647.654082,603.765931L658.679706,589.926813L687.528088,553.573128L691.462142,548.169640L701.843616,533.790401L702.754102,532.529594L705.450846,528.777194L706.346276,527.486370L711.114939,520.521929L725.440649,499.568655L730.194299,492.574253L731.495845,490.803140L735.385430,485.459789L736.671922,483.658662L738.096643,481.587366L742.400298,475.283431L743.819795,473.152103L747.629520,467.748742L756.807349,454.690656L759.018792,451.508693L762.748662,446.045329L760.605800,440.581974L757.474778,432.056757L752.797870,416.777459L743.774345,384.147830L741.171061,374.392021L737.354874,360.133582L734.208529,346.565606L733.993787,346.385500L731.556616,338.250744L722.050767,300.488919L705.219163,246.578479L692.352652,219.083279L678.759617,193.959582L678.624160,193.689436L661.247298,166.824995L624.291164,124.532685L622.600589,122.401574L618.186584,118.709653L597.181497,100.190078L586.583989,92.055904L575.502156,83.501535L532.931743,56.758013L510.007041,45.922593L481.377313,33.286315L461.386330,25.572506L439.327306,18.398979L414.594386,12.095892L409.075045,10.715217L395.879101,7.323562L392.447609,6.633226L386.774943,5.492670L380.420034,4.232057L368.895332,1.890918L361.158013,0.900437L356.751486,0.300146L354.635311,0.000000L352.015249,7.083445L352.658781,10.054895L355.794158,17.798684L356.803990,20.259892L358.380481,27.673542L360.888037,33.916627L361.200056,37.368338L359.943888,40.669978L360.107157,42.981127L361.117560,44.301785L364.503310,43.461367L366.633970,43.641456L368.526758,42.801038L373.021273,42.981127L374.778160,44.301785L375.885867,47.603431L377.262552,48.413836L379.452231,48.413836L383.325741,46.312787L386.970681,44.301785L390.081018,44.301785L395.476699,48.413836L398.534405,48.954106L402.692749,49.704481L408.174314,57.958615L408.790724,60.329807L408.901851,60.750018L409.052685,67.503421L407.963791,70.294831L408.469009,70.955165L406.905151,75.727583L402.468336,82.661107L402.780463,86.112867L403.773595,88.093878L404.340451,93.046411L402.993010,97.158520L401.356721,99.949955L391.799565,110.815560L389.960387,116.428469L390.238823,117.629092L388.901839,121.861293L384.806977,127.144047L385.091063,133.567407L384.252727,135.518430L382.795160,136.929170L379.984182,139.660605L378.388927,141.491569L372.760692,147.884939L372.948378,150.046082L371.702202,153.317813L371.781238,156.949739L371.891687,162.232547L370.141039,172.588075L369.765880,182.163214L369.242937,194.619940L373.090755,201.103458L369.590096,209.357956L360.452532,218.032703L345.236585,232.500669L343.947420,233.701333L341.206095,237.663527L339.659784,241.775808L338.048908,252.161592L337.515237,255.613522L338.043957,258.405085L342.311293,258.975404L339.343830,263.628015L336.158834,268.640834L337.038065,278.186224L335.690889,282.298554L331.488091,287.911742L326.268850,299.438318L321.994237,311.955503L320.437015,319.519867L320.100517,324.953011L326.696832,330.416182L327.490365,334.678662L327.618467,339.301357L328.363620,341.432602L332.707355,344.884621L330.320834,351.638582L324.850109,366.137128L324.750069,375.862895L324.317449,377.183681L324.920379,379.825253L324.438600,381.296129L325.546871,384.598099L327.061353,393.573468L328.203920,400.417578L328.710490,409.963334L326.254327,431.366335L326.641038,434.668353L326.252247,443.073503L325.554216,445.204812L326.212807,450.488064L323.973311,471.230907L324.598184,487.711200L329.016710,502.030208L329.618611,506.803224L326.531237,518.510650L326.626211,534.330747L324.348065,541.895602L324.926335,544.537301L326.857337,548.139621L328.743269,554.083458L327.060664,563.629641L326.641542,569.393388L324.935244,576.808221L324.757799,579.630065L323.194874,584.403189L323.235557,587.014901L319.217499,601.034126L306.588820,649.636553L305.653144,659.183003L303.657892,665.277135L301.100552,679.777009L300.265482,699.050228L301.398173,704.483975L307.649007,720.965392L307.369239,730.181811L307.002727,732.973761L312.375727,744.231645L315.134042,758.611770L314.913742,770.079887L307.575429,791.965486L298.890510,810.819036L296.230478,814.992049L291.490981,820.576090L272.583310,838.349009L268.069724,844.383417L266.455704,847.565746L265.527519,849.337043L264.468558,855.461537L265.898139,862.726881L267.022807,874.345460L268.359637,879.689420L273.280583,887.465196L275.545514,892.178706L276.288247,899.414106L273.482350,911.333036L264.157649,940.965418L250.303034,973.870574L244.809075,984.498767L239.814329,992.004574L237.837594,996.448019L237.251338,999.000000Z " data-aland="2977004" data-awater="328952" data-classfp="U1" data-funcstat="S" data-geoid="0975200" data-intptlat="+41.6335581" data-intptlon="-072.4718428" data-lsad="57" data-mtfcc="G4210" data-name="Terramuggus" data-namelsad="Terramuggus CDP" data-pcicbsa="N" data-pcinecta="N" data-placefp="75200" data-placens="02377871" data-statefp="09"/></g><g fill="#000" font-family="Arial" font-size="12px" id="mylayer-label" stroke="none"><text text-anchor="middle" y="445.015757956"><tspan dy="0" x="492.802849923"><![CDATA[Terramuggus]]></tspan></text></g></svg>