<?xml version="1.0" encoding="utf-8"?><!DOCTYPE svg  PUBLIC '-//W3C//DTD SVG 1.1//EN'  'http://www.w3.org/Graphics/SVG/1.1/DTD/svg11.dtd'><svg enable_background="new 0 0 1000 1001" height="1001px" pretty_print="False" style="stroke-linejoin: round; stroke:#000; fill: none;" version="1.1" viewBox="0 0 1000 1001" width="1000px" xmlns="http://www.w3.org/2000/svg" xmlns:xlink="http://www.w3.org/1999/xlink"><defs><style type="text/css"><![CDATA[path { fill-rule: evenodd; }]]></style></defs><metadata><views><view h="1001" padding="0" w="1000"><proj flip="auto" id="robinson" lon0="-92.4378349999"/><bbox h="0.51" w="0.54" x="-1227.62" y="-753.1"/></view></views></metadata><g class="" id="mylayer"><path d="M1000.000000,310.546056L989.395241,310.637198L967.127915,310.910624L900.378134,311.670139L878.099709,311.913184L884.276875,298.606460L902.800086,258.594916L908.966287,245.257658L913.097999,236.264861L925.534343,209.195219L929.655023,200.171970L970.444577,112.733644L982.386014,87.091234L859.172556,86.544357L859.885449,81.227488L829.375087,81.197106L828.129127,75.880230L813.292802,74.634562L801.518555,71.383668L797.328245,70.229145L780.237054,70.958318L763.385390,90.554791L731.310785,90.858611L731.530137,90.372498L734.315786,84.144171L743.283869,63.940026L746.253020,57.195163L719.260626,56.952105L671.871591,56.465989L657.415391,88.336900L649.731195,88.276135L622.727551,88.002697L594.522608,87.698876L509.899337,86.696267L481.683322,86.362064L511.518276,19.976714L500.966325,20.007097L383.742584,20.037479L341.958083,114.435031L306.816076,193.731122L318.933790,193.913410L355.286936,194.460275L360.838774,194.521038L367.393567,194.612182L378.307414,170.428543L381.584331,163.167350L428.488333,163.136968L424.937271,171.005792L416.272176,190.206880L413.974056,195.189428L417.418175,195.250191L427.753157,195.371716L431.186190,195.402097L421.831925,215.636046L393.719967,276.337360L384.354904,296.540573L383.281587,295.841816L380.025755,293.715166L378.941353,292.986029L366.757476,286.575691L330.172858,267.253480L317.978077,260.812726L292.911463,310.697959L280.719749,334.911243L258.389654,363.347259L246.218931,394.547687L298.170087,394.547687L338.937486,394.547687L329.230114,415.509881L290.793539,415.509881L247.262330,415.479501L178.848558,566.313363L147.967523,634.361678L145.115654,634.361678L136.601174,634.270543L133.738215,634.240164L132.979007,636.032495L130.692914,641.318347L129.922618,643.080297L87.581409,739.713089L51.600136,739.652333L46.870817,750.132663L43.665733,757.180292L56.090261,757.180292L0.000000,877.413636L89.432453,873.008982L256.029880,872.644459L379.596638,872.340690L370.578046,893.209601L350.685746,939.169480L343.539080,955.724646L334.534523,976.562809L336.350919,979.023286L456.649852,978.932157L461.368517,968.087824L483.386199,917.359098L504.133127,869.667518L623.633205,868.482817L711.944765,674.430734L682.769984,674.400356L690.067544,660.973159L692.210090,656.993598L579.515056,658.056840L590.559168,637.095742L569.422050,637.004606L531.066036,636.822335L505.936302,636.731200L484.788093,636.609686L517.800321,562.728648L533.195231,528.278781L659.473536,529.311674L649.022951,550.880839L617.608364,615.618112L607.147001,637.156499L611.497897,637.186877L632.089442,637.278013L640.482554,637.308391L707.040117,637.369148L732.037381,637.369148L742.082506,615.982656L772.273182,551.701073L782.307534,530.283807L792.053560,508.076580L821.319603,441.393503L831.054906,419.155470L835.316819,410.588331L848.077834,384.886817L852.328704,376.289234L852.970290,374.922126L854.820657,370.820799L855.451153,369.423308L876.388235,368.086578L917.554330,365.443497L906.168500,391.175499L895.103254,416.087099L907.316199,415.509881L943.894332,413.747845L956.096175,413.140246L965.991637,390.051435L995.656452,320.723550L1000.000000,310.546056Z " data-aland="5563314" data-awater="0" data-classfp="C5" data-funcstat="A" data-geoid="5532325" data-intptlat="+44.9687302" data-intptlon="-092.4379314" data-lsad="47" data-mtfcc="G4110" data-name="Hammond" data-namelsad="Hammond village" data-pcicbsa="N" data-pcinecta="N" data-placefp="32325" data-placens="01583342" data-statefp="55"/></g><g fill="#000" font-family="Arial" font-size="12px" id="mylayer-label" stroke="none"><text text-anchor="middle" y="474.178154193"><tspan dy="0" x="508.691843612"><![CDATA[Hammond]]></tspan></text></g></svg>