<?xml version="1.0" encoding="utf-8"?><!DOCTYPE svg  PUBLIC '-//W3C//DTD SVG 1.1//EN'  'http://www.w3.org/Graphics/SVG/1.1/DTD/svg11.dtd'><svg enable_background="new 0 0 1000 1001" height="1001px" pretty_print="False" style="stroke-linejoin: round; stroke:#000; fill: none;" version="1.1" viewBox="0 0 1000 1001" width="1000px" xmlns="http://www.w3.org/2000/svg" xmlns:xlink="http://www.w3.org/1999/xlink"><defs><style type="text/css"><![CDATA[path { fill-rule: evenodd; }]]></style></defs><metadata><views><view h="1001" padding="0" w="1000"><proj flip="auto" id="robinson" lon0="-89.5221638611"/><bbox h="0.3" w="0.52" x="-1194.71" y="-739.42"/></view></views></metadata><g class="" id="mylayer"><path d="M1000.000000,547.768579L974.244144,548.911491L880.835039,552.958016L849.682123,554.286265L847.250725,554.378933L839.959183,554.533380L837.515729,554.595159L830.842676,554.378933L810.889109,553.637585L804.204002,553.390469L797.982156,566.518499L795.104779,572.572832L780.055906,605.840718L774.101988,618.937798L770.020287,627.772140L757.700295,654.213349L753.606607,663.016775L759.191347,663.572781L775.932192,665.271687L781.530319,665.796803L782.376500,660.144079L787.260864,648.869512L789.833655,646.336594L792.965974,643.216779L807.277968,627.679473L818.782697,625.609889L841.414932,623.046077L843.085833,622.829852L849.932311,625.640779L854.028999,629.749055L856.494518,632.220199L863.841547,639.571846L864.015651,639.757182L867.396568,640.467635L872.326831,631.200852L887.042732,603.338680L891.935568,594.040977L892.781815,594.318982L895.257622,595.122106L896.066373,595.369221L891.049001,604.543365L875.971544,632.065752L870.942179,641.208977L873.613447,641.795873L877.349193,642.568105L881.391682,643.865453L883.931786,644.637685L888.819217,635.587130L903.456169,608.435424L908.331608,599.353951L911.375165,600.373300L920.545990,603.338680L923.602934,604.327139L931.358455,606.860067L932.760397,607.323407L940.920308,609.979891L954.507293,614.613292L961.869210,617.115328L962.210653,617.207996L963.587163,617.671336L967.743456,618.999576L969.107909,619.432027L974.881941,606.396726L992.193545,567.198067L997.955680,554.131817L1000.000000,547.768579Z M0.000000,659.062957L3.489348,660.638306L9.174429,661.256091L61.659871,661.657650L73.724848,661.935653L54.976414,678.430477L81.795847,674.600221L83.232121,671.109744L87.656164,661.194312L178.109180,661.626761L182.101901,662.275434L185.338245,663.789005L187.782053,666.074806L294.275182,665.302576L352.922238,664.870127L332.805354,707.775144L292.235297,786.202258L365.681656,785.553592L408.157383,707.775144L420.761177,681.210502L429.636246,662.429881L494.229215,661.132534L508.445337,628.791487L509.040861,627.123465L510.827438,622.119398L511.422965,620.451374L522.696351,595.431000L556.494601,520.245989L567.756514,495.194505L591.635871,489.634365L599.690253,487.719205L647.528787,483.518208L653.880682,485.649597L657.329932,487.904543L665.860679,493.402904L673.830210,497.202332L677.604515,488.491447L688.928869,462.296973L692.691192,453.555171L696.826838,452.875596L706.094212,451.331108L709.129356,450.960430L713.172638,450.435304L714.026818,450.342635L716.551863,450.033737L717.393988,449.910178L728.022478,425.321887L675.465796,436.009768L625.911927,446.048955L638.793160,412.564373L601.129142,417.414083L652.439124,298.889037L688.680179,215.083633L645.722108,214.836510L625.413853,214.682058L600.813401,214.218701L519.510794,214.465825L516.687266,214.465825L473.757323,214.095139L466.025757,214.033359L442.831060,213.848016L435.099494,213.786235L386.695209,213.662674L348.935717,213.570002L299.934332,213.415550L241.564044,213.044865L202.854020,212.797742L197.399726,213.291988L192.550524,214.620277L114.783250,370.739396L85.947471,436.565785L61.364657,493.402904L0.000000,659.062957Z "/></g><g fill="#000" font-family="Arial" font-size="12px" id="mylayer-label" stroke="none"><text text-anchor="middle" y="452.131285927"><tspan dy="0" x="379.32210999"><![CDATA[N]]></tspan></text></g></svg>