<?xml version="1.0" encoding="utf-8"?><!DOCTYPE svg  PUBLIC '-//W3C//DTD SVG 1.1//EN'  'http://www.w3.org/Graphics/SVG/1.1/DTD/svg11.dtd'><svg enable_background="new 0 0 1000 1001" height="1001px" pretty_print="False" style="stroke-linejoin: round; stroke:#000; fill: none;" version="1.1" viewBox="0 0 1000 1001" width="1000px" xmlns="http://www.w3.org/2000/svg" xmlns:xlink="http://www.w3.org/1999/xlink"><defs><style type="text/css"><![CDATA[path { fill-rule: evenodd; }]]></style></defs><metadata><views><view h="1001" padding="0" w="1000"><proj flip="auto" id="robinson" lon0="-90.3341416167"/><bbox h="0.41" w="0.7" x="-1241.68" y="-649.26"/></view></views></metadata><g class="" id="mylayer"><path d="M1000.000000,489.797990L989.056630,488.105142L983.542943,487.210351L963.967342,484.791999L943.730555,482.301099L940.323668,481.889980L924.421167,479.906935L909.367602,478.020626L894.874414,476.158501L868.843847,472.845373L860.704832,471.998954L859.116256,471.829671L858.247724,471.732937L856.614450,471.297636L841.490913,469.387149L838.339017,468.976032L830.317779,467.960331L810.739497,465.662914L771.829548,461.092268L767.405682,460.560235L765.333015,464.598847L759.087034,476.738903L757.003207,480.753356L755.337246,484.018127L750.317005,493.764096L749.655125,495.045827L748.639872,497.004699L747.028897,496.787046L742.204392,496.109905L740.582222,495.868069L736.580629,496.883781L724.522644,499.858368L720.509851,500.849897L710.914461,498.721737L682.128360,492.337265L672.521820,490.184927L667.063985,489.749623L650.707322,488.395344L645.238296,487.935857L624.828084,485.154752L563.597616,476.811454L543.167904,474.030360L531.664285,472.482622L497.198354,467.766864L503.384976,452.869962L504.549060,450.596740L507.988134,443.704539L509.121422,441.407143L509.890388,439.254847L521.210007,415.362062L525.770127,408.179759L539.400222,386.608785L543.949252,379.402378L549.947409,371.301239L551.038258,369.801927L532.305285,365.473271L525.646370,363.925597L525.971797,363.272673L527.147303,360.854435L531.756727,351.447509L533.282945,348.303814L533.608378,347.650894L534.593099,345.667950L534.907342,344.990848L535.541368,343.733372L537.418298,339.864221L538.041137,338.582566L537.021283,338.582566L536.727095,338.582566L535.880984,338.534202L535.575604,338.510020L488.507246,335.801618L463.881122,333.359223L460.208151,333.093220L433.934144,331.327926L436.706444,325.282409L438.030880,322.380565L449.111907,298.222842L471.538716,249.376072L471.957975,246.933758L472.449780,244.902528L473.933633,238.784665L474.433871,236.729260L474.515338,236.439085L474.756972,235.520199L474.827250,235.205843L474.984526,234.698038L473.225341,234.286957L465.204219,233.948420L462.354797,234.020964L457.704456,233.295528L443.714221,231.119221L439.044275,230.393786L434.284565,229.813438L419.983067,228.024032L415.212174,227.419504L409.788424,226.887519L405.695405,226.476440L372.951285,223.187808L372.333837,224.566131L370.419898,228.652742L369.771654,230.006887L369.361911,230.901591L368.315116,233.174622L368.141111,233.561521L367.739794,234.432044L365.208442,239.897003L339.386935,237.116160L301.339980,232.666817L287.528688,231.046678L285.169835,230.780685L278.073667,229.982706L275.695203,229.716713L249.924634,226.452258L216.081519,224.179233L217.908584,220.286077L218.955466,218.013057L220.389617,214.966246L221.060426,213.491203L223.375882,208.534100L225.191795,204.616786L219.801104,204.834415L203.673917,205.414757L198.272038,205.608205L192.730530,205.245491L197.771642,207.663586L188.499825,208.775910L156.862482,212.499782L122.064140,227.153511L99.407091,236.680897L101.868281,242.000773L109.252011,257.960464L111.713307,263.280382L132.211428,255.614867L152.448911,248.021917L190.670898,247.296478L199.995259,247.103027L195.906592,258.951902L190.294043,270.559015L173.434470,305.332299L167.791420,316.915435L162.839149,326.515693L147.979872,355.268313L143.016613,364.844529L141.737573,366.827487L137.838862,372.728005L136.529028,374.686787L130.844901,385.544751L125.963252,394.830884L113.734069,418.118910L108.039008,428.952870L105.626549,433.233264L104.838130,434.877711L104.417271,435.748301L100.683644,442.301918L87.306202,465.735464L80.744545,482.663851L75.401094,496.375925L27.056641,605.712309L21.654140,616.498670L20.086156,619.594315L5.413439,648.785460L0.000000,659.547811L1.308307,659.958957L2.115162,660.176623L5.177166,661.240769L6.236137,661.579360L6.457443,661.676101L7.673236,662.183989L11.320620,663.707652L12.536416,664.215540L16.082959,665.690835L26.663768,670.116724L28.974910,671.084132L30.171098,671.592021L36.191272,674.131470L37.112954,674.470064L39.426965,675.316547L42.724365,676.380699L50.075778,678.363891L56.533714,679.645711L59.520413,680.081046L63.790350,680.661493L67.418753,681.000088L73.832328,681.338682L86.247179,682.862357L104.854066,685.135778L123.018272,687.385015L127.977492,688.013835L136.730377,689.126362L139.128754,689.392401L142.516165,689.803553L143.583654,689.948665L146.802958,690.335631L147.859251,690.456558L154.070832,691.375603L157.847667,691.907682L165.950529,692.971840L170.612852,693.382992L172.865518,693.673217L179.107999,694.447150L186.101371,695.317826L190.253735,695.728978L194.473436,695.946647L199.306884,695.922462L221.213033,695.535495L221.526856,695.535495L229.871199,695.511309L246.033239,695.172713L294.558797,693.649031L298.655255,693.769959L302.653644,693.890886L308.803930,694.084369L311.421000,694.060184L317.871205,694.011813L318.636075,694.181111L330.837638,696.768952L338.475017,698.776345L345.005749,700.469328L346.818435,700.953038L352.234103,702.355796L354.035594,702.815321L364.152496,705.475728L394.500515,713.408592L404.606282,716.044824L407.105410,716.697836L414.602797,718.656872L417.082314,719.309885L447.909668,727.387905L469.754795,733.095743L473.041232,733.966431L490.675409,738.585920L494.001085,739.456610L537.566564,748.187712L540.701807,748.816546L550.107542,750.703048L553.231589,751.307697L555.445030,751.767230L560.009212,752.686296L562.149884,752.903969L564.447469,753.121643L567.703306,753.460247L577.496062,754.403499L580.768729,754.693731L585.946701,755.201637L596.568833,756.241634L601.348841,756.991400L606.395035,757.765352L609.987051,758.321630L611.430193,766.690002L618.188469,767.391399L652.425173,771.648154L653.596400,771.720712L660.570396,772.591413L688.662551,776.074219L697.216853,777.138411L722.820943,780.330989L731.364061,781.370996L732.386744,781.588672L739.764260,782.483562L765.074248,785.506843L773.496913,786.498479L776.035478,786.812901L783.659586,787.731979L786.186950,788.022214L790.810165,788.602685L804.629387,790.319912L809.241405,790.876197L814.808858,791.674345L831.427195,793.972046L834.579392,794.383214L845.333616,773.050950L846.219549,771.236990L857.837743,747.534692L868.856170,725.332119L873.499110,716.044824L874.043040,714.932285L879.196369,704.459936L883.934753,694.955044L894.496797,673.671951L907.366760,647.672949L920.155734,621.964421L932.687120,596.715647L940.869578,580.246032L952.293626,564.719704L961.971145,551.732799L979.778877,527.838995L982.683310,523.945389L984.886869,520.994959L986.176879,518.358922L1000.000000,489.797990Z "/></g><g fill="#000" font-family="Arial" font-size="12px" id="mylayer-label" stroke="none"><text text-anchor="middle" y="529.621126416"><tspan dy="0" x="459.837625655"><![CDATA[N]]></tspan></text></g></svg>