<?xml version="1.0" encoding="utf-8"?><!DOCTYPE svg  PUBLIC '-//W3C//DTD SVG 1.1//EN'  'http://www.w3.org/Graphics/SVG/1.1/DTD/svg11.dtd'><svg enable_background="new 0 0 1000 1001" height="1001px" pretty_print="False" style="stroke-linejoin: round; stroke:#000; fill: none;" version="1.1" viewBox="0 0 1000 1001" width="1000px" xmlns="http://www.w3.org/2000/svg" xmlns:xlink="http://www.w3.org/1999/xlink"><defs><style type="text/css"><![CDATA[path { fill-rule: evenodd; }]]></style></defs><metadata><views><view h="1001" padding="0" w="1000"><proj flip="auto" id="robinson" lon0="-119.396975999"/><bbox h="1.8" w="1.94" x="-1573.52" y="-775.68"/></view></views></metadata><g class="" id="mylayer"><path d="M1000.000000,515.005238L999.380977,512.516437L997.528952,510.322916L996.145708,509.150225L994.507356,508.340309L992.433725,508.002843L990.583292,507.884731L989.121211,507.201363L987.824652,506.180530L984.436902,503.657974L983.195817,503.151776L982.669087,502.940859L980.507985,502.384041L979.917001,502.189998L977.420549,501.396952L974.464817,500.359244L972.399191,499.422775L970.301664,497.954796L967.622097,496.748352L966.004591,496.672422L964.751530,496.714606L962.940717,497.482342L960.024913,498.891265L958.740225,499.262478L957.430195,499.642128L956.120324,499.895228L954.270660,500.258004L951.256617,500.283314L949.202961,499.912101L948.907826,499.355282L948.607704,498.806899L948.366174,497.355792L948.058917,495.660022L947.749546,494.208914L946.808907,492.597509L944.965097,489.804966L944.236782,487.375198L943.967916,484.363295L944.449464,480.001513L945.828471,476.348410L946.293732,475.125084L946.794384,474.163295L948.515368,470.872964L949.470079,469.303728L950.916535,467.017366L912.058717,467.051113L910.734499,469.210924L907.533496,474.407961L875.721436,527.010506L874.723695,527.963838L869.617307,536.442574L861.190307,550.413447L859.766363,553.695242L858.215310,556.985469L856.525376,560.292564L855.723847,561.752072L854.706533,563.599656L852.758779,566.906743L850.683913,570.222262L850.210242,571.023723L848.789235,573.428104L848.729403,573.529341L845.133851,573.596832L842.389686,573.647451L841.380428,573.655887L836.913129,573.740251L833.254705,573.799306L826.272151,573.925853L813.994447,574.136763L811.499935,573.099083L810.962787,572.871300L810.743327,572.542280L808.720218,571.487726L806.926165,569.184581L806.038673,566.518666L804.706589,564.536102L803.320329,563.953987L802.312519,563.523727L797.442602,562.165458L797.696320,560.014161L798.291395,559.845432L800.450197,558.672763L802.082483,558.563089L811.436563,558.579962L811.867606,557.896608L811.951044,557.365110L812.576815,556.513026L814.625884,553.712115L818.390110,548.548981L826.893991,536.400392L827.335847,535.767651L827.399284,535.683286L826.957075,535.168657L819.644244,534.063469L819.063067,533.979104L818.821818,534.088779L809.646747,538.188938L803.635444,540.196832L796.456548,542.584368L797.160093,541.428565L798.190969,539.707513L798.257596,539.606275L793.241757,539.631585L794.182881,538.062390L797.343174,532.738931L791.338731,532.932971L790.321327,532.966718L789.572724,532.924535L790.756833,531.667488L790.414374,531.684362L790.037988,531.701235L782.755607,531.566250L783.191714,529.473983L783.358343,528.664073L783.593735,527.508263L783.670840,527.010506L783.705509,526.791155L783.770676,526.428382L783.824477,526.107792L783.857348,525.880005L783.914339,525.542542L789.515876,525.559415L790.454057,525.567852L793.261815,525.593161L794.193211,525.601598L796.083552,525.652217L796.998189,525.677527L797.602102,524.977291L798.221144,524.125197L798.743393,523.264666L799.152091,522.412571L799.460807,521.568912L799.652783,520.750563L799.723031,519.965960L799.685123,519.215103L799.453390,518.287077L799.010330,517.418107L798.547803,516.903475L798.124836,516.574447L797.447215,516.228546L796.662252,515.983885L796.225378,515.907955L794.907870,516.093561L793.643016,516.144180L792.960479,516.093561L792.469730,516.051378L791.667024,515.882646L790.699435,515.545181L790.069315,515.199280L789.519806,514.785886L787.438962,506.104601L786.671109,504.602879L773.186099,485.164782L772.255723,483.823345L772.161900,483.637738L771.908337,482.861560L771.821798,482.009452L771.917653,481.089850L772.180937,480.128064L772.382027,479.638734L774.886474,476.297790L777.461169,472.872474L777.774162,471.952868L777.924717,471.067010L777.927431,470.442690L777.794225,469.658072L777.662668,469.295292L777.387380,468.544420L776.559728,466.283368L776.282649,465.524059L773.691580,462.183096L771.143459,458.884314L770.474983,457.306634L770.203906,456.479828L769.976732,455.636148L769.664071,453.881293L769.540594,452.058942L769.871636,449.089183L770.044140,447.477750L769.588518,443.968028L768.761269,438.872173L768.247083,436.138631L768.371350,434.746549L768.841067,433.734124L769.927588,431.953944L771.848248,429.853161L772.961926,428.359833L773.740950,426.824319L773.834494,424.841649L773.003876,420.589448L772.348711,415.535733L772.145803,409.992666L772.031929,405.951366L771.907310,402.146294L771.729361,400.577017L771.246297,399.168042L768.707529,401.074799L768.507051,399.176479L756.839208,393.000602L743.515055,382.833998L746.091065,369.621573L745.724485,366.558913L735.540669,360.593888L720.199918,353.827323L712.157919,350.275291L709.076351,347.237920L708.482627,346.647320L707.153374,346.107343L705.590421,345.744545L704.347291,345.609551L702.974638,345.567365L691.688544,345.997660L686.007991,344.808021L686.142343,344.546470L686.233965,344.403038L686.292057,344.293355L685.841312,344.183672L685.727474,342.850601L686.134936,341.129420L686.834270,338.834510L687.767550,336.235860L689.181256,332.354755L690.621968,328.313336L691.901757,324.727522L692.778328,321.032018L692.965104,317.378696L693.043559,316.534972L692.934238,315.733434L691.507732,315.724997L686.160266,315.750308L683.031280,315.775620L676.472613,315.784057L667.123486,315.463442L623.056960,316.155296L649.944062,270.340671L649.053165,270.298484L617.318592,269.091937L614.938008,268.999126L662.935767,191.905568L720.706996,97.908698L620.336299,96.634571L606.555621,96.744264L587.431958,85.758058L586.889495,85.310846L586.424175,84.939576L585.568775,83.943896L580.431819,78.011997L580.757947,74.333032L586.745115,62.764512L587.886419,50.765601L581.941490,43.770431L555.057696,36.614919L554.229409,36.387090L553.912106,36.682424L552.874826,37.357473L552.403338,37.821569L552.145988,38.015646L552.113532,38.150655L551.930907,38.825704L552.231182,38.994466L552.373700,39.315114L552.692940,39.669515L552.394968,40.184239L551.271549,40.420506L551.149128,40.547078L550.891048,40.673649L550.315917,40.648335L549.937819,40.496449L549.676530,40.639897L549.290668,40.867725L549.137214,41.103992L548.926364,41.677783L548.763975,41.871859L548.199719,42.538469L547.738226,42.985688L547.923519,43.027879L548.555797,43.162888L552.732975,44.310469L566.076783,47.905093L572.269056,49.567394L574.469042,50.090555L578.708428,55.085890L577.824427,64.393052L574.466294,70.730004L571.822234,75.986879L571.266035,82.357557L577.447371,89.504511L578.615299,90.854583L581.663049,92.592800L581.794458,92.668742L586.440605,95.419509L589.119135,96.887709L587.492941,96.896147L582.738925,96.837082L578.965275,96.794892L577.652529,96.778016L497.889042,96.077668L490.630224,96.010165L489.101091,96.988964L486.594218,98.347471L483.793715,100.305068L480.357108,102.557992L477.927110,104.279325L475.969315,105.604076L471.412831,108.110132L469.491791,109.384253L467.284747,110.557120L463.852712,112.607526L461.929461,113.679136L459.491781,114.852001L457.586668,115.721102L454.391201,117.383362L452.117847,118.851550L449.026764,120.910387L446.352508,122.471390L443.325940,124.226462L440.471851,126.091225L439.011655,127.171268L436.905985,128.310376L433.596414,130.394519L430.560705,132.554602L430.104427,132.546164L427.700260,134.613428L426.530646,135.592214L425.014650,136.376931L423.796445,137.254462L422.626405,138.039178L419.913603,139.642360L418.863390,140.064250L417.222083,140.865840L415.750731,141.701181L413.514323,142.671527L412.103964,143.346550L410.892793,143.937195L409.931931,144.620655L408.718292,145.295678L407.942195,145.506622L406.023619,146.696348L405.043765,147.194177L394.670722,152.054330L389.497644,153.699692L380.981998,155.193174L372.172311,156.163515L365.001553,155.648813L353.018994,156.787908L348.901773,157.910128L348.179707,157.479803L335.210713,160.846460L332.931400,161.774610L331.132727,162.922140L324.131209,164.550621L316.153266,166.373167L303.876555,171.022344L294.204646,174.422734L289.439798,176.810599L279.715267,181.915391L267.803802,188.800517L265.355334,191.011178L261.633663,195.120304L258.850017,199.398176L257.981138,200.739756L255.381057,205.051369L254.425417,206.367633L253.337310,207.667022L251.961705,209.658291L249.605045,211.885811L243.671450,216.568659L238.459018,220.205243L225.532050,228.507775L220.561947,231.047467L207.014149,241.189337L203.655138,243.104644L201.154645,244.589639L200.157682,245.230886L189.389318,252.419599L178.656293,259.582979L167.582649,266.003850L149.099997,275.428411L142.466095,278.280241L132.785566,280.777699L124.651208,282.760477L115.757979,285.291681L106.463129,288.776300L96.553733,292.978087L85.631080,297.424550L73.682570,302.664109L64.352990,307.616792L56.756667,311.945108L50.979641,315.606875L44.761122,319.682062L38.348930,324.187540L35.762965,326.229346L32.982043,328.279588L31.108458,328.946127L29.433490,329.781410L23.736334,333.915635L20.663349,336.699905L71.482112,338.058291L67.290283,344.841770L39.342952,390.165769L14.461549,430.519675L5.744718,444.617664L1.949078,450.801857L0.000000,454.083776L3.019831,454.724973L12.544936,457.914083L24.969959,467.886353L27.177726,470.198024L33.105571,476.382157L42.721708,482.009452L50.097480,489.290327L53.200700,483.873966L53.910480,482.456598L54.676336,481.047666L55.494684,479.630297L56.374102,478.212928L57.301017,476.795557L57.556398,476.432777L58.284010,475.386622L59.316293,473.986124L62.398272,469.075936L71.367632,454.767157L89.543366,425.887824L105.352546,400.779505L123.012142,400.678261L140.671735,400.577017L139.450775,402.399404L117.704665,437.117307L105.864728,456.277345L107.121843,455.551780L108.724860,454.665916L109.836040,454.083776L112.420049,452.801382L114.272702,451.940827L116.181814,451.122456L120.928924,449.131367L126.320082,446.946230L131.150144,445.090127L137.133375,442.913423L143.233099,440.837959L147.025583,439.623053L150.822035,438.458767L154.725634,437.319792L157.877394,436.442358L160.331209,435.792720L164.889353,434.636869L168.753137,433.725688L175.184797,432.350477L180.446900,431.346489L183.561789,430.806529L186.101502,430.401559L189.738826,429.861598L193.680061,429.346948L197.410328,428.925104L200.975327,428.587629L202.142965,428.494823L207.275384,427.870493L216.640090,428.005484L225.677189,427.971736L226.758167,428.013920L228.144853,428.089852L228.929089,428.140474L228.142778,429.389133L241.891485,431.380237L254.132242,433.810056L267.397419,437.994740L279.206498,442.989355L284.323702,446.634067L294.742979,455.813321L299.134780,462.714614L301.443889,462.756797L317.539907,487.712666L325.503469,500.013341L325.398177,503.919510L325.685096,504.375089L336.433069,521.307378L345.664499,535.860453L368.417008,572.322933L377.798916,587.348160L381.127497,587.365033L382.123196,587.356597L387.018467,587.305978L390.532245,587.204742L391.500212,587.289106L413.052329,587.069760L414.002325,587.069760L416.872268,587.036014L417.825455,587.019142L421.469772,587.052887L432.410904,587.128815L436.053425,587.154124L439.602743,587.187869L450.252093,587.263797L453.799615,587.289106L460.633207,587.322851L467.432871,587.356597L481.127201,587.424088L487.954009,587.457833L489.564015,587.466270L456.408816,643.913440L453.197002,649.346342L453.143941,649.447576L451.375985,649.430704L416.467931,649.076384L412.696717,649.084820L414.963004,652.712373L418.134077,657.782502L421.312017,662.852620L424.483252,667.922729L427.413931,672.596332L429.936499,676.628783L433.682300,682.609960L438.241438,689.890274L442.785370,697.162131L449.000781,707.082868L451.930236,711.747963L454.596911,716.008124L459.127452,723.246163L459.439474,723.786063L464.280980,731.462748L469.709508,739.949253L469.924747,740.480714L449.712287,773.371978L420.724217,820.552783L412.047133,834.673956L482.563775,836.074259L532.676322,833.619510L549.214401,832.818131L552.324283,832.666291L549.099941,837.871032L544.241069,845.716084L530.482653,867.901422L518.857442,886.855814L518.233679,887.842754L515.382168,892.313505L515.204148,892.591872L514.126065,894.278946L521.747153,894.337993L539.763926,894.481395L546.894534,894.532007L554.127810,894.650102L557.007821,894.692279L561.320364,894.768197L565.486767,894.827245L574.266156,894.970646L575.586484,894.987516L571.795205,901.187500L570.987575,902.520284L568.776306,902.494978L566.470015,902.469672L561.719884,902.410625L560.197481,904.907483L559.270694,906.476454L558.559997,906.231830L556.506609,905.548568L546.077761,902.073211L544.571757,901.600832L534.055399,918.657033L529.981478,925.438991L539.370204,925.447427L565.370127,925.784837L548.177197,954.422380L546.970374,956.109412L546.761563,956.497429L560.895846,956.573346L563.380511,956.607086L559.816278,962.469513L573.523880,962.612910L576.984740,957.028844L584.302926,957.256593L597.124986,957.290334L603.939096,957.509648L604.878949,957.492777L607.698074,957.408426L608.629334,957.383120L616.781521,957.543388L618.868902,957.560259L620.879814,957.568694L627.697600,957.678351L633.605424,957.754267L636.242972,957.931405L637.213151,957.897665L640.208254,957.906100L641.702878,957.880794L646.151444,957.830184L647.639281,957.804878L648.886379,957.796443L652.617273,957.754267L653.862564,957.737397L656.834187,957.636175L665.728691,957.332510L668.698506,957.222853L671.205401,957.138501L673.435813,957.062585L681.553794,946.729499L683.569819,947.395879L686.328743,948.298444L687.455292,948.678027L690.844909,949.799906L691.976443,950.171054L693.678946,950.736211L693.270487,951.427895L690.623670,955.898533L690.047717,956.758919L695.202617,956.742049L698.694575,956.725178L704.802358,956.910752L709.733656,957.054149L723.115314,957.450602L725.137066,957.509648L729.221296,957.627740L733.534647,957.357815L746.494614,956.514300L748.708761,956.362467L750.811133,956.227504L761.824727,955.772006L767.618153,946.282434L769.736332,942.798698L790.859177,908.188824L796.741060,898.538802L802.240491,889.352688L823.146955,855.273518L824.529606,853.012804L834.827301,835.703094L835.061459,835.306623L840.122373,826.795127L848.265012,812.606426L841.661021,812.572684L831.760018,812.513634L830.552316,812.673911L812.388332,812.344921L790.954579,812.530505L785.017158,812.344921L776.035556,812.269001L763.118128,812.100288L748.947377,811.973753L749.510453,811.020526L749.820774,810.472209L752.395280,805.976007L753.216108,804.609430L755.467512,800.855557L757.745320,796.907658L762.067216,789.442063L770.103264,773.793767L779.503034,758.491243L784.238766,750.578436L788.517455,743.416396L792.886244,735.722876L796.560219,729.573104L797.398573,728.510179L802.173653,720.462304L803.856036,717.568775L806.784035,712.532508L816.468208,712.405968L822.142095,712.313173L824.203330,712.304737L823.789657,713.004922L824.017210,713.021794L819.376075,721.061256L815.318138,728.113691L823.261071,728.476436L848.080700,729.024770L848.307831,729.007898L868.458749,729.176616L876.593200,729.387514L877.253283,729.395950L883.619745,718.285831L884.925970,715.982816L883.494672,714.143777L882.750190,713.899134L879.958144,711.376780L878.708301,710.069205L877.748151,709.132811L874.622921,704.256811L874.584961,704.206195L873.864001,700.831796L872.437559,699.237390L872.275038,698.317865L868.702140,694.395116L868.516377,694.192651L868.109652,693.686489L867.798780,693.247816L867.403939,692.606677L867.128914,692.049899L866.868420,691.434069L866.649602,690.759186L866.514331,690.253023L866.429632,689.856529L866.342823,689.291315L866.305628,688.894821L865.934475,686.077180L865.738863,685.765046L865.360561,685.360116L864.888519,685.056418L864.467048,684.862388L863.587836,684.558690L862.008500,684.027218L861.290778,683.748828L860.848106,683.487311L859.869254,682.812425L859.345687,682.458111L858.931121,682.137540L858.677083,681.901330L858.364731,681.614504L858.120779,681.234881L857.759473,680.559995L857.560919,680.011651L857.412326,679.252404L857.382164,678.602826L857.431364,676.291340L857.413161,675.920152L857.333884,675.548964L857.165546,675.110287L856.902623,674.705355L856.410354,674.275114L857.998040,671.668361L858.706250,670.504178L859.362763,670.909111L859.905174,671.415278L860.081914,671.575564L860.610938,672.368557L860.875423,673.035009L860.989893,673.507430L860.780681,674.688483L860.737101,675.818919L860.796745,676.384137L860.845580,676.898738L861.127857,677.902631L861.178425,678.012301L861.300341,678.265383L866.569007,674.941566L866.544681,670.951292L866.321992,670.099245L866.249083,669.694312L875.123334,655.099806L876.484965,652.864224L876.963906,652.088097L877.140343,652.088097L885.689630,652.273692L889.307413,652.341182L894.741492,643.626610L897.903876,643.500067L898.169862,643.061385L895.858193,642.977023L894.620927,642.934842L895.399370,641.686285L896.578745,641.711593L898.930708,641.762211L899.864217,640.159333L901.027025,638.168388L901.771543,636.919828L901.868053,636.767976L904.370797,632.566738L905.210035,631.157888L905.750063,630.381754L907.356581,628.053352L907.894811,627.268781L908.365056,626.610754L909.777176,624.611363L909.865520,624.484819L910.858314,624.240168L915.081656,623.075964L918.998375,621.810525L917.801452,620.367923L922.312105,618.705978L924.237288,617.997331L923.259387,617.389919L920.318906,615.567682L919.339210,614.951834L913.395339,609.645405L919.857966,599.007205L922.853923,594.063506L943.249448,585.213757L961.387580,572.145768L972.602701,558.242503L981.000813,547.831879L992.837826,533.152322L995.924885,529.111211L994.166640,529.043718L996.249721,525.576288L997.295915,523.737114L998.287269,521.990741L998.903221,520.202184L999.575787,518.742654L999.967683,517.080643L1000.000000,515.005238Z M584.058216,895.088741L584.636214,894.110239L586.535077,890.930104L588.628283,887.420985L589.066772,886.678671L591.836368,886.712412L596.041665,886.763025L600.749644,886.847379L595.893228,895.206836L591.131353,895.156224L586.902489,895.122482L584.058216,895.088741Z M625.074952,896.143161L625.400695,895.476767L631.047148,895.569556L637.080472,895.662345L639.162774,895.687651L640.966801,895.712958L632.465207,910.095205L627.998877,917.737587L622.513985,927.185090L621.108339,926.738021L619.390979,926.198165L617.528848,925.616132L609.272793,923.034941L610.246987,921.465980L613.249018,916.337329L617.006589,909.918064L625.074952,896.143161Z " data-aland="56911940" data-awater="251646" data-classfp="C1" data-funcstat="A" data-geoid="5377665" data-intptlat="+46.3138081" data-intptlon="-119.3877682" data-lsad="25" data-mtfcc="G4110" data-name="West Richland" data-namelsad="West Richland city" data-pcicbsa="N" data-pcinecta="N" data-placefp="77665" data-placens="02412227" data-statefp="53"/></g><g fill="#000" font-family="Arial" font-size="12px" id="mylayer-label" stroke="none"><text text-anchor="middle" y="490.527724955"><tspan dy="0" x="538.249636146"><![CDATA[West Richland]]></tspan></text></g></svg>