<?xml version="1.0" encoding="utf-8"?><!DOCTYPE svg  PUBLIC '-//W3C//DTD SVG 1.1//EN'  'http://www.w3.org/Graphics/SVG/1.1/DTD/svg11.dtd'><svg enable_background="new 0 0 1000 1001" height="1001px" pretty_print="False" style="stroke-linejoin: round; stroke:#000; fill: none;" version="1.1" viewBox="0 0 1000 1001" width="1000px" xmlns="http://www.w3.org/2000/svg" xmlns:xlink="http://www.w3.org/1999/xlink"><defs><style type="text/css"><![CDATA[path { fill-rule: evenodd; }]]></style></defs><metadata><views><view h="1001" padding="0" w="1000"><proj flip="auto" id="robinson" lon0="-89.1302822263"/><bbox h="0.37" w="0.48" x="-1191.52" y="-734.93"/></view></views></metadata><g class="" id="mylayer"><path d="M1000.000000,195.708117L930.539649,196.012116L920.489467,196.045894L914.871707,196.079672L889.500694,195.437895L784.352230,193.613897L734.050169,193.512563L740.506707,178.549017L726.402203,178.481461L569.165370,177.535684L441.809036,176.792573L469.691762,112.614718L331.570335,113.053830L324.396606,129.942757L251.505423,301.330879L222.094774,371.013941L213.243211,391.550645L202.293938,417.424164L200.857217,420.768129L180.007485,469.880442L174.457075,483.188712L173.916324,485.485570L173.172425,490.721055L163.468298,511.426541L157.803853,525.714329L132.569509,582.764065L123.524969,603.233031L114.322051,624.005974L109.713374,634.409327L94.127176,669.976601L75.157335,712.772102L51.216291,765.193955L0.000000,766.105932L0.000000,766.105932L15.826294,785.662767L20.195000,793.600337L76.685902,794.039437L105.326094,791.100847L152.613252,791.742608L197.573031,792.350592L229.586658,792.722138L256.177112,793.127461L336.401891,792.249262L453.413151,792.249262L464.145716,792.316816L462.328721,797.586010L455.870033,811.974959L528.895938,813.123373L538.538529,815.014877L591.232783,814.102902L606.344790,814.035348L596.708656,835.888969L622.171105,825.418148L628.347533,832.849054L646.461878,822.479562L650.681667,827.714974L641.106443,852.608495L634.136475,877.603322L631.675553,886.385282L641.740302,886.385282L643.676771,878.954393L653.085830,843.150987L658.755660,837.544033L722.664588,831.227765L733.236138,808.428388L788.549175,681.123029L952.231782,316.969897L1000.000000,195.708117Z "/></g><g fill="#000" font-family="Arial" font-size="12px" id="mylayer-label" stroke="none"><text text-anchor="middle" y="481.740331875"><tspan dy="0" x="519.199562223"><![CDATA[N]]></tspan></text></g></svg>