<?xml version="1.0" encoding="utf-8"?><!DOCTYPE svg  PUBLIC '-//W3C//DTD SVG 1.1//EN'  'http://www.w3.org/Graphics/SVG/1.1/DTD/svg11.dtd'><svg enable_background="new 0 0 1000 1001" height="1001px" pretty_print="False" style="stroke-linejoin: round; stroke:#000; fill: none;" version="1.1" viewBox="0 0 1000 1001" width="1000px" xmlns="http://www.w3.org/2000/svg" xmlns:xlink="http://www.w3.org/1999/xlink"><defs><style type="text/css"><![CDATA[path { fill-rule: evenodd; }]]></style></defs><metadata><views><view h="1001" padding="0" w="1000"><proj flip="auto" id="robinson" lon0="-88.2405929059"/><bbox h="0.51" w="0.65" x="-1173.97" y="-748.24"/></view></views></metadata><g class="" id="mylayer"><path d="M1000.000000,207.458920L947.787892,207.760044L926.399383,207.885513L898.692871,227.734601L893.593988,231.373173L757.842176,233.656689L711.035972,234.434590L730.153140,192.201915L738.346421,173.808126L748.920289,150.019055L550.691968,148.613790L541.763104,148.538507L543.895346,157.396691L546.936713,170.069134L547.909075,174.310004L550.785114,187.032590L551.747748,191.248350L532.508596,193.833011L535.821318,202.766392L540.926220,216.567931L528.261129,216.768680L490.218033,217.195272L477.523637,217.320741L477.225100,217.345834L471.277734,231.373173L470.749205,232.602759L467.481170,232.602759L438.489701,232.627853L447.866724,210.143947L464.943088,209.817729L480.689584,209.190386L481.003411,208.412481L481.953639,206.154046L485.233755,198.475360L485.558370,197.672360L495.279720,175.439229L496.767260,172.026459L488.395762,171.323830L491.852626,163.042833L463.932894,143.745546L439.773575,127.032878L412.248765,108.061671L361.604225,230.319242L319.660183,229.014375L303.613902,228.713252L269.744988,228.035724L269.385935,229.014375L268.247115,231.950326L267.878296,232.903882L266.314682,237.019228L263.393893,244.195982L260.269178,251.799314L253.922264,267.758745L249.941899,278.021935L247.513314,284.245082L245.447858,289.288835L244.625992,291.296298L242.483431,296.089112L239.260710,303.968388L237.877924,307.280691L232.641546,319.174851L222.357692,344.293012L220.926694,347.956589L215.213523,362.585777L202.468832,362.635962L187.556171,362.661055L174.213989,391.116328L166.910627,406.623628L165.873133,406.598535L162.698988,406.523257L161.640939,406.498165L152.438627,406.197053L146.780442,405.971218L124.767995,405.394087L115.534346,405.118067L94.657418,451.865515L84.950905,451.589498L68.753170,451.112742L63.618290,461.049341L99.687455,461.777020L90.280408,482.704029L52.936656,481.976353L49.463354,490.056063L71.227558,490.733553L118.731843,492.163811L119.541625,491.762335L121.941665,490.482631L122.741679,490.056063L120.977832,493.920267L115.708902,505.412492L113.935299,509.251592L111.332191,514.972598L103.481801,532.135575L100.848399,537.831461L98.037174,545.710342L90.180004,545.961262L85.849973,545.609974L32.751223,547.868250L0.000000,629.366204L53.897319,627.308699L53.938430,627.308699L53.949215,627.283607L61.313195,627.032692L104.900831,627.057783L61.886191,719.719944L78.949379,720.146492L101.457900,720.673404L108.485032,720.823951L168.113033,724.135969L190.278529,725.365429L199.728826,706.772941L200.282826,706.823123L246.653409,709.558055L262.113879,710.461335L260.588692,713.723178L256.035722,723.408329L254.500771,726.645072L251.579822,732.867641L248.068832,740.319660L242.919809,751.535303L240.050790,757.732750L239.942958,757.983659L237.733742,762.550193L235.579456,766.941088L231.622374,775.622503L231.009757,776.952314L228.765181,781.744647L226.777384,786.035162L225.166997,789.447498L250.494855,790.350763L240.850998,812.982519L242.959553,812.907247L268.456989,812.029077L475.225028,804.828073L478.094047,796.046348L499.064232,731.889093L503.150390,719.318487L595.460465,714.551183L605.099520,714.124635L603.652506,718.114116L599.250248,731.086181L578.117053,791.655479L573.593660,800.939026L579.179258,800.713210L596.278473,800.387031L599.949305,800.311759L615.269150,799.533949L620.084380,799.283043L622.377929,799.207771L584.712476,890.938329L590.831659,890.762698L641.078185,889.458008L645.548805,889.483099L648.696011,889.382738L670.586339,833.456389L677.201808,833.130213L687.259158,886.371914L690.277251,886.045742L692.845856,886.095922L753.394050,885.167584L783.334591,791.504935L783.808401,789.397317L849.949019,634.735787L869.978416,585.104554L887.810720,520.543044L840.028952,527.267719L840.877676,525.435999L812.520399,525.511275L776.686864,527.342995L764.742009,527.970296L681.791399,531.056617L686.910058,517.757822L672.518482,517.908374L674.963456,511.836082L696.627985,455.729750L721.898549,455.805027L749.934235,455.855212L752.456392,448.503127L755.543335,435.053549L756.919513,430.511799L763.831059,414.954390L760.603992,414.954390L757.849680,414.954390L755.218696,414.954390L712.476998,414.879112L709.907678,414.879112L695.989202,415.029668L694.714819,415.029668L689.247304,415.029668L711.250879,365.120160L717.141212,365.044881L760.060002,364.467744L759.085440,366.926848L802.065556,366.876662L799.326627,373.250250L838.180762,373.952850L834.657117,381.530885L876.004485,381.932369L943.704046,233.907625L988.324421,233.481034L1000.000000,207.458920Z "/></g><g fill="#000" font-family="Arial" font-size="12px" id="mylayer-label" stroke="none"><text text-anchor="middle" y="496.304832799"><tspan dy="0" x="492.970189466"><![CDATA[N]]></tspan></text></g></svg>