<?xml version="1.0" encoding="utf-8"?><!DOCTYPE svg  PUBLIC '-//W3C//DTD SVG 1.1//EN'  'http://www.w3.org/Graphics/SVG/1.1/DTD/svg11.dtd'><svg enable_background="new 0 0 1000 1001" height="1001px" pretty_print="False" style="stroke-linejoin: round; stroke:#000; fill: none;" version="1.1" viewBox="0 0 1000 1001" width="1000px" xmlns="http://www.w3.org/2000/svg" xmlns:xlink="http://www.w3.org/1999/xlink"><defs><style type="text/css"><![CDATA[path { fill-rule: evenodd; }]]></style></defs><metadata><views><view h="1001" padding="0" w="1000"><proj flip="auto" id="robinson" lon0="-114.231372938"/><bbox h="0.68" w="0.84" x="-1488.15" y="-804.12"/></view></views></metadata><g class="" id="mylayer"><path d="M1000.000000,201.127838L983.322810,200.836345L958.118380,200.117328L937.140303,199.845267L910.211658,199.825834L889.007400,199.806402L864.976849,200.000731L860.289780,199.942432L832.084441,199.942432L831.343819,199.942432L812.809743,200.078462L788.847119,200.000731L748.980953,200.020163L727.985208,200.039596L718.796658,200.000731L717.732014,200.000731L713.423187,199.981298L693.179956,200.059029L677.037038,200.117328L671.937336,200.078462L666.266740,200.039596L656.144486,199.961865L644.880017,199.806402L641.219659,199.864700L630.306957,199.845267L618.375900,199.825834L617.747249,199.845267L609.222904,198.523831L608.792721,198.154606L602.219502,189.604137L594.386342,179.868268L590.183419,174.465933L580.800419,161.970613L579.282665,160.202225L578.623774,159.619240L575.682339,157.073539L569.559107,152.467959L564.595418,149.008917L560.983072,146.502083L545.739012,136.435889L541.367796,133.384940L523.696449,123.066129L521.337084,121.861297L518.866584,120.792494L505.737227,115.876002L500.475803,113.680099L495.369921,111.717390L493.084190,110.570857L491.010100,109.327160L489.351367,107.850271L487.423245,106.489978L483.366845,103.847123L473.537638,97.103960L470.034444,103.536199L432.012237,173.086201L409.106161,222.387442L391.669790,259.912474L346.426072,335.992807L248.812244,500.183979L245.481968,505.411544L215.784552,545.113899L186.499317,585.166170L179.720747,594.435926L156.794167,632.370087L77.466133,763.605203L31.616715,844.410731L23.344440,858.966658L0.000000,900.321896L5.328920,900.419065L12.868770,900.535669L23.202991,900.807743L51.726000,901.196421L57.572176,901.332458L60.917689,901.390759L78.061476,901.604532L79.532091,901.701702L83.170357,901.682268L86.507435,901.623966L98.672326,901.565664L100.497906,901.662834L111.857250,901.740569L113.463267,901.896040L116.483724,901.798871L119.299090,901.604532L125.481438,901.196421L131.124929,901.623966L133.103401,901.487929L134.114518,901.526797L144.731625,901.371326L145.525715,901.254722L148.244982,901.118685L148.778150,901.235288L149.985440,901.176987L151.745791,901.332458L161.537939,901.293590L161.932467,900.205293L162.911927,896.998703L162.963083,895.288522L164.025011,892.937023L164.947566,890.507789L166.823622,887.534408L168.365435,885.416117L170.287663,883.045186L171.395775,881.296139L176.663739,875.893529L182.700354,870.626957L187.288368,866.953962L191.958639,862.853423L196.722472,858.908356L199.902291,856.498562L202.268307,855.390834L206.300443,852.922739L213.388624,849.249749L219.244078,845.887700L226.332259,842.214711L230.523182,839.843787L233.538972,838.366819L239.117113,835.082508L241.255924,834.674398L246.334300,834.829868L250.504682,834.771567L253.597971,830.204627L256.035927,826.356738L256.278567,825.657122L254.082034,824.199588L253.319161,823.111297L254.226708,821.362257L256.974307,817.669841L259.773196,812.267255L262.098262,808.244467L266.057206,802.628113L267.623837,799.499280L269.299452,796.525917L271.202305,792.852941L274.526971,787.605834L275.269931,785.429257L274.877613,782.455898L274.141416,780.667996L272.248651,777.752938L272.068714,775.440327L273.404210,772.991680L274.502569,769.610215L275.069694,766.423088L277.096201,758.299805L278.756220,753.363650L279.745684,749.826721L281.530144,745.046038L282.200470,741.684014L282.448526,738.671796L284.567409,733.036037L284.825081,730.976070L285.377142,728.469129L286.573165,725.262578L286.806073,722.930542L288.724206,716.614611L289.771319,713.660700L289.828199,710.920559L290.323028,708.510791L291.111875,703.011078L291.545462,700.679045L291.340555,696.734024L291.458960,694.596328L291.923173,692.866738L292.047217,690.379238L292.532370,686.337051L292.707899,683.422014L293.223759,678.699654L293.028571,674.424268L293.318729,671.314897L292.607662,668.516464L292.257823,666.126136L292.056956,663.483173L290.629198,661.481517L290.850828,659.168924L289.908500,657.050668L288.589708,655.204481L286.816035,652.114548L285.187700,650.112894L285.502877,647.955772L285.441745,646.750893L285.065089,644.380002L283.555344,642.203447L283.360373,639.890858L282.576707,637.189599L281.510230,635.596050L278.320438,632.447821L275.331308,627.336809L273.708717,624.985355L272.651908,623.061439L272.271501,621.351291L272.122575,619.641144L271.302598,617.969863L270.427344,615.424076L270.587979,613.869397L270.366339,612.256418L270.026131,610.818341L270.393179,609.594031L270.177217,607.631250L269.934490,606.368074L269.992001,604.988298L270.951467,602.811749L272.539665,600.615767L273.720856,598.089417L275.148619,596.165504L277.061802,594.124991L280.475262,591.346007L282.847085,589.888498L286.877814,587.109515L288.575073,585.749173L290.467159,584.058464L294.406210,581.434949L299.988953,578.850302L303.587711,576.751491L305.907915,575.041349L309.671092,572.689904L313.862383,570.319026L316.538067,569.366789L319.058984,568.336817L322.050889,568.025883L324.152189,567.812115L326.997969,566.257441L329.673651,565.305204L335.091967,562.973194L337.494304,562.118124L346.350671,559.241979L348.850470,558.561810L351.335190,557.279205L355.820672,555.743966L357.263641,555.102664L359.790232,553.722892L361.594354,553.489692L366.542421,552.556889L369.068853,553.139890L370.274767,553.528558L371.826658,553.042723L374.269148,552.459722L376.552901,551.779553L380.841482,551.546352L383.857298,552.032187L387.022099,552.265388L391.480879,552.109920L394.326498,552.518022L396.553049,552.615189L398.831119,552.284821L401.160813,552.207087L406.150980,549.894513L408.018077,549.214344L411.765891,547.543073L414.745408,547.096105L417.291137,547.018371L419.930361,547.096105L423.322553,546.629703L425.518584,546.124435L429.579655,545.910668L430.193155,547.251572L432.130930,547.445906L432.885365,547.815140L433.713439,548.242675L434.536968,550.535815L435.299460,551.624085L436.052310,553.042723L442.579011,550.924483L447.593996,549.564145L449.774592,549.058877L450.986185,549.097744L451.743009,550.535815L451.423724,552.673489L451.047026,554.228161L448.860664,557.046004L445.756818,559.980449L439.440336,566.374042L436.315538,570.338460L434.356578,572.456703L433.433360,574.885882L433.628252,577.198460L434.545696,579.044636L436.076437,580.871379L439.699940,581.687584L442.148219,581.434949L445.091400,580.055175L447.092340,578.519934L450.184632,577.567695L454.803915,575.177383L458.794476,572.806505L465.682245,568.453418L468.640722,566.393475L470.058787,564.799935L471.069840,562.876027L471.668217,560.971553L471.534415,559.863848L470.452718,558.950478L468.988752,557.978808L466.798600,556.851670L463.643425,556.288102L461.541108,555.666233L460.241682,555.122097L458.448905,554.655696L456.943082,553.781193L456.155723,551.740686L456.377539,549.428112L456.182713,547.115538L456.750385,545.891234L457.518666,544.666931L459.405044,543.326027L465.776735,542.412658L484.173324,540.838554L488.632084,540.683087L491.915450,540.741387L495.095559,540.294419L496.574817,540.585920L498.879545,541.518723L501.713610,543.909029L504.878410,544.142229L510.667334,543.850729L513.069626,542.995660L516.368303,542.373791L518.610157,541.790790L520.146593,541.304955L522.749615,541.130055L525.306591,542.315491L526.913785,545.347100L527.603639,549.175478L528.129162,551.293718L528.679621,552.401421L529.766989,552.964990L535.397231,550.613549L538.504797,548.981144L544.459875,546.105002L547.573237,544.802965L546.774264,546.707437L545.098171,547.717973L544.752240,548.592476L546.680710,548.514742L546.741795,549.719613L544.880346,552.012753L543.880819,551.954453L543.576938,551.449185L538.504699,552.906690L536.931881,554.422495L533.709587,555.569066L531.055058,556.171501L529.885465,556.715636L529.378930,559.144812L532.734905,558.425776L535.714408,557.978808L537.549066,558.348043L540.440695,559.358580L544.027804,561.204754L546.439678,563.944865L546.042272,565.246904L542.604091,569.036420L541.690576,571.135230L541.587451,573.272907L541.921909,574.380612L541.792061,577.217893L540.173305,580.094042L539.338189,581.745884L538.673118,582.795290L537.321868,583.281126L536.234467,582.717556L534.487643,582.853590L532.150547,588.858525L531.248579,592.900683L529.994867,595.524200L529.633721,597.078877L528.576882,597.117744L527.376724,597.059443L525.922348,597.720181L524.592172,597.856215L522.808951,597.059443L521.648984,597.273211L520.494545,598.419785L522.803366,599.372025L525.674009,600.732368L526.746173,601.976110L526.323950,604.288693L525.513633,606.212606L525.735398,607.825585L526.631823,608.058787L527.828196,608.777825L528.688305,610.041001L528.639608,610.934941L528.594885,611.848315L528.822298,613.111491L529.682417,614.374668L531.144215,618.203065L531.955195,620.282449L533.331403,620.748853L540.119930,621.798261L541.341293,623.469542L541.882270,624.907621L541.221161,627.259075L536.344583,635.634917L535.096834,638.588812L533.652241,640.881968L534.219924,641.620441L536.523000,642.242314L539.832946,640.920835L542.332699,640.240661L545.457462,638.919182L547.307426,638.608246L548.844062,638.802581L551.817940,639.988026L554.992655,641.853644L557.085527,642.805886L559.673401,643.311158L567.987203,644.574337L573.167401,645.682048L579.116388,647.605968L580.744690,647.644835L585.255025,647.061829L587.317297,646.129020L590.369090,644.224534L593.359862,641.795343L596.612513,639.288419L598.999115,636.470559L600.556599,634.352305L602.226576,631.048609L603.608048,627.239641L605.495954,624.246882L606.495336,622.342399L608.031791,620.573951L611.909228,618.028164L614.661287,616.318017L616.386855,615.851613L618.378273,615.326909L620.625941,615.074273L622.512171,613.733363L625.059434,611.323611L628.126683,609.419130L630.811855,608.136520L637.410905,605.240933L644.499124,601.568007L647.447823,599.838428L650.891525,597.661880L656.953509,594.630261L661.041368,592.434280L665.907101,590.646402L669.654735,588.975126L673.423430,586.954047L678.604349,584.971836L684.903361,582.873024L689.769086,581.085147L700.811484,578.034098L707.016968,575.779819L713.054093,573.758743L721.229713,570.649395L725.080649,569.483389L730.189020,568.278517L733.363476,568.181350L735.471499,568.453418L738.848419,568.667185L742.538938,567.773248L748.126872,566.121407L754.420216,564.372400L764.245120,560.952119L770.230752,559.358580L774.070212,558.212009L778.704624,557.104305L782.910926,556.016034L789.957148,553.722892L794.081389,552.459722L797.607313,551.138250L800.592405,550.341481L803.210652,549.486412L806.715510,548.514742L807.751342,547.543073L807.984471,547.173838L807.195154,546.785170L805.014619,547.290438L800.489165,548.553609L791.204928,550.769016L786.901141,551.682386L783.375212,553.003857L781.628412,553.139890L779.937049,552.867823L778.004880,552.323688L775.978925,552.226521L772.695731,552.848390L769.272918,553.994960L762.324168,556.463002L756.885192,557.862207L751.797707,558.037108L750.473187,557.823341L748.741814,557.959374L746.756244,558.814444L744.545025,559.999882L743.214870,560.135916L741.802658,560.097049L741.674392,558.639544L742.994836,556.871104L745.561347,553.800626L746.644784,551.099384L746.474673,549.739046L746.197649,549.214344L745.830626,548.475875L745.062386,547.737407L742.862539,546.940637L740.444986,546.513103L738.640718,546.066135L738.306231,544.958432L739.414635,543.209427L741.327605,541.168922L744.307011,538.759182L747.620898,537.457146L750.420655,535.980209L753.843481,534.833640L757.235614,534.367239L761.013991,533.978572L763.075975,533.648205L764.734960,534.969674L766.265777,536.796411L767.208154,540.877421L768.273079,548.048341L768.722163,548.961710L769.928124,549.350378L774.371537,547.912307L779.428230,546.454803L787.191140,543.364894L790.346257,541.965690L793.021799,541.013455L795.660934,539.128417L796.754068,538.059581L797.522220,536.835278L797.012062,536.679811L794.661319,537.107345L792.058498,537.962414L790.388120,538.623149L788.635688,539.108983L787.037849,538.992383L787.831047,537.437713L789.424832,535.572109L790.384090,533.395571L790.317115,531.860335L789.770564,530.772066L789.095845,530.189065L789.560279,529.139663L790.859674,527.721027L794.194621,526.069192L796.910242,526.671626L799.714019,527.176893L802.003494,526.827093L802.699111,526.380125L803.564758,525.330724L804.462939,523.912089L805.544626,522.862687L806.771471,522.221387L808.648272,521.891020L809.210074,522.299120L811.081060,521.638386L811.612233,519.481284L811.401960,517.848882L809.825295,514.137113L810.052592,511.474745L811.011894,509.298211L811.934988,506.869044L813.687399,504.420444L817.683436,499.737012L821.209373,496.452781L824.695286,493.576650L828.087392,491.147486L871.170408,413.978023L872.255340,413.472759L874.389015,412.209601L876.247555,410.732678L877.796580,409.100290L879.044031,407.351302L881.170772,403.561830L887.684705,392.620950L898.791369,373.343258L912.742081,349.479379L924.685320,329.307826L931.428759,317.900613L961.629068,266.228195L964.139400,261.972371L977.909917,238.575079L984.309930,227.673199L996.084242,207.948786L1000.000000,201.127838Z " data-aland="7639873" data-awater="144425" data-classfp="U1" data-funcstat="S" data-geoid="3069475" data-intptlat="+48.0824460" data-intptlon="-114.2319484" data-lsad="57" data-mtfcc="G4210" data-name="Somers" data-namelsad="Somers CDP" data-pcicbsa="N" data-pcinecta="N" data-placefp="69475" data-placens="02408755" data-statefp="30"/></g><g fill="#000" font-family="Arial" font-size="12px" id="mylayer-label" stroke="none"><text text-anchor="middle" y="444.636172022"><tspan dy="0" x="516.452931233"><![CDATA[Somers]]></tspan></text></g></svg>