<?xml version="1.0" encoding="utf-8"?><!DOCTYPE svg  PUBLIC '-//W3C//DTD SVG 1.1//EN'  'http://www.w3.org/Graphics/SVG/1.1/DTD/svg11.dtd'><svg enable_background="new 0 0 1000 1001" height="1001px" pretty_print="False" style="stroke-linejoin: round; stroke:#000; fill: none;" version="1.1" viewBox="0 0 1000 1001" width="1000px" xmlns="http://www.w3.org/2000/svg" xmlns:xlink="http://www.w3.org/1999/xlink"><defs><style type="text/css"><![CDATA[path { fill-rule: evenodd; }]]></style></defs><metadata><views><view h="1001" padding="0" w="1000"><proj flip="auto" id="robinson" lon0="-113.013496425"/><bbox h="0.51" w="0.77" x="-1467.69" y="-811.69"/></view></views></metadata><g class="" id="mylayer"><path d="M1000.000000,322.075253L999.782326,320.566504L997.142585,320.332754L996.926809,317.655258L996.221531,316.486510L994.824021,316.486510L992.263500,317.995257L989.791511,323.817751L988.137660,326.155250L986.607304,327.090250L984.115349,327.090250L983.598378,323.244002L980.539591,321.841503L978.560865,317.421508L979.594836,314.510263L984.505249,309.261525L981.631044,307.519029L979.672902,304.969037L977.302578,304.735287L963.260078,306.839031L961.268180,306.392782L959.234106,305.904034L955.137599,307.646529L952.414851,308.007778L952.051371,305.096536L950.589606,304.522788L942.697725,309.176525L942.424475,311.514019L941.311280,312.682767L940.281109,313.256516L936.934207,313.022766L934.769116,310.111523L935.072360,303.715290L929.946794,293.579079L929.726306,279.596654L931.098327,277.280419L933.671508,275.750429L939.298267,275.176683L940.967133,274.007941L945.571879,265.040508L951.038221,259.791802L953.805508,256.285584L953.994077,253.608109L953.091766,252.800616L951.976747,253.034364L945.059253,258.856811L938.524200,262.129282L937.058721,261.789285L936.508860,260.386797L940.592587,256.306834L940.917626,254.564350L937.075112,248.146913L938.015508,242.324474L933.536151,237.437029L929.919957,237.203282L925.742330,238.372018L922.543287,238.372018L920.430144,236.055795L916.893259,235.460802L916.122216,232.783334L917.925741,222.434716L913.928252,216.251051L911.492130,214.508576L907.510426,214.636075L906.072341,215.443563L904.687562,217.781030L902.682513,219.289759L898.156530,218.716017L897.086279,215.804808L902.743786,206.709943L902.055564,205.541211L897.877921,206.709943L894.396931,206.731192L894.182855,204.733723L898.335267,201.248779L900.060004,198.337576L898.664649,197.168845L896.846269,197.168845L895.591510,194.597639L891.275380,196.000115L885.460342,199.506307L883.848862,199.867551L875.705110,198.125080L869.195501,201.610023L867.800151,200.441292L867.341426,195.787618L863.426932,193.471408L864.923454,187.649009L863.528132,186.480280L861.920143,186.437781L856.844555,184.461567L855.801761,182.697849L859.734159,173.730519L858.987004,172.519293L858.678801,171.988054L854.434903,171.393065L849.795646,173.369276L847.502137,176.046724L847.011120,176.875458L847.933438,179.552908L846.901050,181.295375L845.097369,182.464103L838.831943,183.632832L837.791311,180.700386L834.378801,178.957919L832.577269,178.957919L829.457113,180.700386L827.785967,183.037843L827.582375,184.546565L830.526888,190.602707L829.902842,192.366427L824.221969,195.617621L818.593138,197.360092L816.706807,197.020098L816.140285,195.617621L819.737684,190.028967L816.125861,187.457763L814.923268,183.377836L813.394920,183.144091L812.364675,183.717830L809.180553,189.773972L806.186298,191.303945L805.293400,188.605242L806.234447,182.782847L804.569767,181.614119L802.768233,181.614119L787.829757,186.395282L785.027547,187.032770L780.113138,188.137751L776.992965,189.880220L773.462752,193.025165L772.124965,191.048949L768.925970,191.048949L760.691356,197.445091L759.293897,197.445091L758.588906,196.276360L760.469115,193.131413L762.542207,191.962684L763.574620,190.220214L762.747981,189.285230L761.828964,188.477745L747.772363,184.865309L742.765379,183.569083L739.226441,184.142822L737.574255,185.311551L735.003688,188.456495L731.883491,190.198964L730.418688,190.198964L729.105416,190.198964L726.098642,189.391478L725.601292,189.008985L723.961516,187.627760L721.726026,187.394014L718.807272,188.796489L712.713488,196.722603L710.300437,198.465074L709.042363,198.741319L702.680400,200.101297L702.407653,200.590039L701.538902,202.056266L701.261910,202.523758L697.761897,208.516165L694.811644,213.552340L693.321738,216.038554L687.677069,225.537175L687.085333,226.535912L685.486391,229.234628L677.495870,242.664470L675.267477,246.425680L671.994154,251.950625L668.565536,257.709321L666.332945,261.449288L663.878004,265.593004L660.029760,272.031705L658.510707,274.624187L656.601552,277.960415L654.239198,282.061639L653.542706,283.294132L651.457329,286.927862L650.978948,287.735358L650.769183,288.117856L649.393207,290.667843L646.809018,295.427821L645.277902,298.296560L644.845791,299.082807L643.607216,300.804050L627.354297,325.369000L626.129304,327.579000L625.818846,328.131500L624.702903,330.128999L620.431271,337.311503L613.289641,349.339025L606.450241,360.856562L599.636130,372.331615L595.188539,379.811659L592.482279,384.380439L567.607731,383.934186L560.973627,383.934186L541.054475,383.934186L534.416120,383.912936L526.178171,383.891686L501.472664,383.785435L493.230466,383.742935L485.266173,383.742935L461.364795,383.700435L453.396253,383.679185L445.394035,383.657934L421.391471,383.530434L413.385005,383.487933L414.648098,381.384169L414.866351,381.044167L419.314511,373.649123L420.774791,371.184109L421.886843,369.335350L425.193588,363.810324L426.301402,361.940316L427.333687,360.197809L430.443144,354.949041L431.471190,353.185285L431.949571,352.377783L433.397308,349.934026L433.888281,349.105274L436.418688,344.834015L439.175718,340.180257L443.993168,332.020250L444.719104,330.766500L446.586741,327.727750L448.979052,323.860251L449.256022,323.392752L453.582594,316.061510L456.952390,310.345272L458.949920,306.945281L459.583813,305.989033L457.235069,306.031533L450.188837,306.159033L447.835846,306.180283L444.245380,306.244033L440.381268,306.286533L433.574702,306.265283L431.230053,306.244033L429.971646,306.350282L428.831100,306.456532L426.318989,306.945281L424.161224,307.859028L423.803695,308.007778L421.520486,309.389024L419.502734,310.919021L415.345886,314.382763L407.411281,321.437753L405.801732,322.904002L399.813145,328.322749L396.934443,330.936500L388.323539,338.735255L385.440604,341.327758L319.038286,401.486826L308.330705,411.176919L285.222692,432.363414L265.778481,449.809908L248.885498,465.110152L242.741869,470.677749L235.144299,477.562873L174.104101,532.856587L166.145159,539.954270L156.092979,548.624503L149.772029,553.809646L141.596973,560.163576L130.478752,568.302565L123.449929,573.147710L117.854256,576.824073L114.369016,579.097893L102.886653,586.174367L95.477855,590.467005L83.367174,597.012221L68.189808,604.641229L47.431020,614.671579L47.572172,625.976988L42.127298,645.463981L38.429188,658.618259L10.769929,731.062798L6.363930,737.650629L4.863142,746.299822L0.000000,774.478829L0.447227,776.795207L2.680456,785.168176L14.591658,802.424169L15.512436,803.741747L32.320889,817.533819L60.237054,826.416861L87.386141,827.606935L104.488306,826.225600L120.992733,824.886767L144.371654,817.937594L150.643992,815.876219L169.397887,809.713350L175.665954,807.630726L198.605765,807.396963L202.383872,806.334400L292.998872,780.705425L323.210698,772.141200L324.191767,770.398605L327.101311,765.170821L328.078132,763.406975L345.617227,758.157944L398.246952,742.389621L415.781695,737.119353L420.159274,733.166653L429.638703,723.497425L439.417668,715.910807L456.059028,706.602865L460.655798,704.584021L468.696901,701.013855L473.701904,700.780095L473.901667,701.608883L478.343620,701.842644L478.497320,702.777687L484.758567,705.115296L496.224905,704.520268L507.122904,702.097655L512.261986,699.760048L515.801167,699.186271L520.726374,697.209931L531.907885,693.597266L545.373574,691.047151L552.786705,687.200729L556.121810,683.928084L557.579621,680.782947L559.231996,679.869157L564.413791,672.282580L572.298633,662.974688L577.225391,659.829558L579.425533,659.128280L582.567900,658.086987L588.086736,656.131907L597.035951,652.051742L611.992762,642.488864L616.648535,640.512538L624.889965,634.328551L625.200818,634.031039L632.636524,627.103280L642.099428,617.434177L649.955675,604.619978L650.998367,604.024957L655.268860,597.267229L656.548699,589.701980L661.718382,582.136738L662.113162,577.886606L662.442100,574.316496L665.751313,568.727577L668.642009,566.177502L672.440324,560.928598L676.183516,557.422248L682.597438,548.922011L683.208273,547.179463L692.963395,536.107920L695.441736,531.666557L696.585957,527.373950L702.662037,518.278730L711.099556,511.053563L724.865979,497.644520L731.238383,493.224429L744.486796,485.638027L750.790608,480.622931L751.482729,479.454159L759.795284,474.800323L760.348984,473.865306L765.761308,471.294010L775.181276,464.770147L786.646131,451.722437L794.960504,445.899850L795.514222,444.964836L800.165825,442.967307L807.363239,436.443467L814.147310,431.555903L814.416018,431.215899L815.423496,429.855882L815.800162,428.793369L816.206076,427.624604L816.272203,427.029597L815.434204,426.880845L815.003871,426.413339L814.720653,425.839582L814.731839,425.138324L812.075568,423.055799L804.990486,422.822047L797.467466,410.135658L797.740545,407.798135L800.494900,404.313102L807.081477,399.531808L808.235089,397.555541L811.650091,396.025528L836.679906,389.926729L841.732940,388.672970L860.899951,385.166695L875.269318,380.151661L881.097011,376.879141L883.928779,374.201626L889.625539,372.799118L898.506976,368.379095L907.895648,369.186599L914.782940,367.422840L918.052550,368.952848L918.953284,368.910348L920.215943,368.825347L927.834004,364.150325L929.369975,363.916574L929.707930,364.511577L928.537487,366.487836L928.772054,367.996593L933.405442,365.319081L938.134955,364.384076L941.797379,362.407818L942.952527,361.196563L944.359728,359.730307L945.936137,356.585296L944.754422,355.055291L943.078646,354.842790L936.830005,356.011544L936.194582,354.014038L936.479629,353.419036L937.158572,351.931532L939.842557,349.020274L946.717248,345.174015L948.182802,345.514016L949.587302,348.999024L954.523791,348.425272L956.349254,351.910281L960.657815,350.975279L965.793280,348.871523L968.996173,348.637773L973.535569,351.549030L975.337199,351.549030L977.005981,350.380277L979.677328,345.386516L981.207674,344.451514L983.361694,343.856513L988.187320,346.767769L991.105825,345.365266L992.405356,342.687761L994.902922,341.285258L995.512120,338.607755L994.528562,337.226503L993.398571,336.291502L990.068472,336.057752L989.228465,334.889001L990.122051,333.380250L996.022011,330.469000L997.049792,328.705249L994.061402,326.729000L995.076605,324.986501L1000.000000,322.075253Z " data-aland="5986860" data-awater="152544" data-classfp="U1" data-funcstat="S" data-geoid="3069680" data-intptlat="+48.5457456" data-intptlon="-113.0115638" data-lsad="57" data-mtfcc="G4210" data-name="South Browning" data-namelsad="South Browning CDP" data-pcicbsa="N" data-pcinecta="N" data-placefp="69680" data-placens="02408761" data-statefp="30"/></g><g fill="#000" font-family="Arial" font-size="12px" id="mylayer-label" stroke="none"><text text-anchor="middle" y="514.176156546"><tspan dy="0" x="465.969022002"><![CDATA[South Browning]]></tspan></text></g></svg>