<?xml version="1.0" encoding="utf-8"?><!DOCTYPE svg  PUBLIC '-//W3C//DTD SVG 1.1//EN'  'http://www.w3.org/Graphics/SVG/1.1/DTD/svg11.dtd'><svg enable_background="new 0 0 1000 1001" height="1001px" pretty_print="False" style="stroke-linejoin: round; stroke:#000; fill: none;" version="1.1" viewBox="0 0 1000 1001" width="1000px" xmlns="http://www.w3.org/2000/svg" xmlns:xlink="http://www.w3.org/1999/xlink"><defs><style type="text/css"><![CDATA[path { fill-rule: evenodd; }]]></style></defs><metadata><views><view h="1001" padding="0" w="1000"><proj flip="auto" id="robinson" lon0="-98.8488400772"/><bbox h="0.29" w="0.36" x="-1344.36" y="-684.32"/></view></views></metadata><g class="" id="mylayer"><path d="M1000.000000,130.037614L880.188722,129.355901L869.052049,129.355901L821.142155,127.492553L754.804895,126.629050L740.533513,126.856288L708.155417,126.810840L718.771159,111.585960L726.410641,93.770660L656.082684,93.907001L534.241396,94.725049L530.044096,99.178867L504.206735,119.993722L459.892897,143.671902L431.703878,211.071494L411.935516,255.338673L392.016173,304.333169L362.510215,373.417456L345.562377,377.962521L303.021449,388.325293L213.758666,412.505209L156.455561,429.049456L81.798151,450.911614L74.510718,467.910557L69.915227,478.455397L0.000000,638.586241L47.795210,638.449879L65.175460,638.495333L44.456503,687.449621L186.500245,679.585981L184.998797,683.176890L153.847524,745.541096L197.620620,746.041105L170.003533,811.451973L144.952888,879.455092L135.447179,905.229340L219.612990,904.320192L311.156243,904.047448L488.254229,902.774642L525.026830,820.270487L603.386222,640.813487L618.160998,640.813487L626.860867,640.813487L633.288397,624.677345L643.057221,600.132366L620.908300,599.314203L626.659202,585.632727L633.169896,570.178630L639.719638,554.633695L645.800473,540.270598L654.551729,519.589658L682.676715,453.184195L683.400483,451.320679L701.171893,451.502485L861.654239,452.229711L862.160749,451.047969L877.790738,414.232352L889.644589,386.052753L896.157566,370.508617L916.094144,327.149016L928.517241,298.606505L936.052702,280.153983L959.880723,224.660642L967.114099,207.526508L973.918902,191.392319L989.342474,154.806609L1000.000000,130.037614Z " data-aland="2249566" data-awater="0" data-classfp="C1" data-funcstat="A" data-geoid="3118615" data-intptlat="+40.7460674" data-intptlon="-098.8458141" data-lsad="25" data-mtfcc="G4110" data-name="Gibbon" data-namelsad="Gibbon city" data-pcicbsa="N" data-pcinecta="N" data-placefp="18615" data-placens="02394889" data-statefp="31"/></g><g fill="#000" font-family="Arial" font-size="12px" id="mylayer-label" stroke="none"><text text-anchor="middle" y="477.270684498"><tspan dy="0" x="482.333133452"><![CDATA[Gibbon]]></tspan></text></g></svg>