<?xml version="1.0" encoding="utf-8"?><!DOCTYPE svg  PUBLIC '-//W3C//DTD SVG 1.1//EN'  'http://www.w3.org/Graphics/SVG/1.1/DTD/svg11.dtd'><svg enable_background="new 0 0 1000 1001" height="1001px" pretty_print="False" style="stroke-linejoin: round; stroke:#000; fill: none;" version="1.1" viewBox="0 0 1000 1001" width="1000px" xmlns="http://www.w3.org/2000/svg" xmlns:xlink="http://www.w3.org/1999/xlink"><defs><style type="text/css"><![CDATA[path { fill-rule: evenodd; }]]></style></defs><metadata><views><view h="1001" padding="0" w="1000"><proj flip="auto" id="robinson" lon0="-86.5316184641"/><bbox h="0.64" w="0.58" x="-1201.32" y="-611.93"/></view></views></metadata><g class="" id="mylayer"><path d="M315.476134,0.000000L314.813270,2.544475L311.280134,5.327495L306.615725,16.751125L303.799802,18.871519L289.345888,19.905211L277.608300,25.047167L143.634499,82.589276L132.541051,108.564013L127.530341,121.842922L127.049904,122.505542L126.203562,123.168162L124.383545,123.989811L87.591904,133.611050L70.625751,138.249387L67.541664,139.336083L52.242299,143.232285L53.542586,146.757420L54.238031,150.574106L54.437370,155.318458L53.672873,159.691743L53.189257,163.137360L53.173639,164.966188L53.407912,166.609482L54.266009,168.040738L56.033590,169.525003L59.456717,171.512859L60.759853,172.042953L64.713061,174.057313L67.094646,175.859635L68.772167,178.139042L70.304951,182.247274L70.376500,183.148435L70.719462,183.864062L70.953757,185.507355L71.288696,186.249487L71.902863,189.695100L72.365527,191.152859L72.919854,194.227406L73.233272,194.969537L73.318327,195.897202L73.639771,196.612829L73.754376,197.513989L74.075820,198.229616L74.160877,199.157281L75.253320,202.231826L75.338380,203.159490L76.560354,206.446072L76.631916,207.347232L77.150766,208.619457L77.346756,209.891682L78.123245,212.303608L79.173155,217.153965L80.158241,223.356058L80.110477,223.727124L79.727609,226.271572L78.881784,228.710001L76.976943,231.731532L72.168369,237.377024L70.373704,240.319040L68.852363,244.135709L68.610633,245.858511L68.578037,248.668002L68.856837,249.595665L69.717560,250.947401L73.606996,256.301336L76.896705,261.787793L78.806182,265.789991L79.983843,269.792187L79.670314,271.965565L79.194388,273.608851L78.193471,275.066604L77.318381,276.179797L76.743860,276.868917L75.959574,277.611045L75.562725,278.353174L74.730299,279.254330L73.750908,280.712083L72.386400,283.442056L72.287963,284.051662L72.082678,285.085341L71.851940,286.914158L71.690092,288.159873L72.797579,290.545286L77.207240,297.807540L78.345668,299.450823L79.755503,300.908575L81.771349,302.710885L85.415032,304.539700L89.200588,305.970947L91.928513,307.269670L93.463791,308.170825L94.139463,308.356357L95.756142,309.628576L98.128526,312.173013L100.241252,315.433073L100.781714,316.705292L101.467178,319.276233L101.630578,321.794164L101.336488,324.259087L101.277786,324.524132L99.633759,331.733365L99.798750,335.099440L100.339227,336.371657L100.432381,337.272811L103.064560,344.932616L103.179243,345.833769L103.479231,346.549391L103.727186,348.219175L103.857351,350.207013L103.671879,351.744274L102.576795,357.495750L101.638201,360.596776L99.031330,366.507276L98.135556,368.044536L97.171716,370.588966L96.676737,373.504458L96.709469,375.174240L97.511611,376.791013L98.242503,377.718669L102.658511,380.978719L104.424591,382.966553L104.856539,385.166423L104.067580,390.546828L104.172787,393.541830L104.613708,394.787539L105.575368,396.801877L106.989051,398.816215L109.661607,402.076260L111.536949,404.912235L113.000661,409.179448L113.760354,413.923740L114.366731,420.099268L114.595432,425.744707L114.576114,429.720367L113.563911,436.478988L113.339319,437.221111L112.037059,440.030576L110.473151,442.495484L107.705067,445.596496L103.804591,448.883039L101.765919,450.711840L100.420716,452.169581L99.052671,454.342939L97.587877,457.974037L96.912716,462.267743L96.879144,465.792822L97.393878,482.941129L98.178371,485.114484L98.843040,486.545717L101.557118,490.309331L101.868136,491.130965L101.857100,492.376667L101.716092,493.198301L97.913309,502.421800L97.221024,504.780683L96.654474,508.146729L95.557196,516.681109L94.820121,520.895290L94.031155,524.711905L92.125178,536.559311L91.398664,542.019187L90.608812,549.466879L90.274489,551.852260L89.746858,554.449675L90.553013,553.919591L97.883532,549.042811L122.237004,532.795706L127.479545,529.270639L130.354692,527.309324L128.859378,544.060014L126.248193,573.320679L125.049167,594.073461L124.698068,600.142917L128.671532,607.855628L137.109241,614.402154L138.642645,615.594841L139.300242,616.124924L158.823751,625.374869L161.498158,630.622687L161.853210,633.220092L162.350547,636.983677L159.152915,647.055240L160.941387,650.606789L246.650420,822.352590L255.422898,818.827576L259.344608,816.892794L265.050274,813.685826L267.377881,812.466647L268.309004,812.519655L270.556558,817.899941L271.937625,820.735855L273.485203,822.167063L275.708813,822.644133L284.540988,823.121202L295.311200,825.162000L297.230926,825.718581L300.154829,826.513696L301.900739,827.573851L305.567514,830.966344L312.484082,835.286471L315.301279,836.505648L321.486660,837.406778L323.743719,838.413924L324.717673,839.606597L328.884488,853.945168L331.193616,860.332587L337.298925,875.095202L339.951573,878.567198L344.062532,881.986186L346.433229,883.258367L349.176963,884.079984L358.706382,885.882241L361.331957,886.809873L363.058919,887.790512L364.523462,889.354235L366.200103,891.925100L367.951023,896.457243L372.802993,912.518514L374.782284,916.865126L382.795273,930.090482L392.202148,946.893826L402.465608,965.207864L404.177163,970.084537L410.512522,983.733913L412.891110,987.258896L417.203060,991.366958L419.595778,993.990817L420.620461,994.944947L423.629933,997.807337L424.298706,998.443424L424.732234,998.575942L425.852592,999.000000L428.155969,999.000000L428.884892,998.867482L431.966817,998.072374L439.281745,995.024458L447.828244,991.605491L449.540940,990.995908L464.191238,985.615671L479.351228,979.546339L487.887187,976.233384L499.971228,971.224194L511.741332,966.612558L525.278656,961.709381L530.077799,959.933635L550.444221,953.731776L550.383982,960.410701L550.286696,967.354661L550.735514,975.411771L551.259766,979.943893L551.979124,986.251758L576.026516,981.189564L577.667090,980.818513L589.947118,978.009128L596.142489,976.100865L600.989682,974.166099L607.657767,970.694121L610.043859,969.209917L615.040867,965.711434L619.401631,961.682877L622.243457,958.263904L628.826531,948.166003L631.547330,943.580865L634.549161,937.140467L637.353798,930.355519L641.978166,919.117942L643.280048,916.520577L645.214694,914.108738L646.111398,913.207611L649.309535,911.458364L650.960625,910.981297L654.604117,911.034304L655.077702,911.034304L663.456801,913.366633L664.673771,913.684678L681.094036,918.826401L685.238036,920.072077L689.543728,921.423766L694.091717,922.828464L698.190161,924.153650L699.113776,924.445191L700.115485,924.763235L702.031836,924.975265L702.561989,925.001769L703.078147,924.789739L704.754337,923.517560L705.366162,922.775456L710.834382,907.535811L713.047533,903.348219L714.557615,901.201415L715.791321,899.399160L719.024722,895.397093L730.409643,882.304231L732.837362,880.183929L741.392015,874.459111L744.517201,871.384672L748.061571,866.852523L748.672931,865.898386L754.615429,855.641412L758.266309,848.193838L761.993552,838.784978L762.175343,838.254901L764.703918,830.674801L766.055807,825.135496L766.737881,819.675700L767.141702,813.712329L767.188370,812.917213L767.062234,805.787669L767.024377,804.488979L767.391370,784.266502L767.711169,781.642614L768.043550,778.621167L769.893660,773.214366L772.691582,766.879926L773.522342,765.342697L775.644579,761.314098L778.579972,756.304851L786.664450,743.450429L787.074571,742.734822L791.293018,735.048668L796.596929,726.620399L801.094795,718.722207L815.391169,696.644357L817.641057,693.119319L831.938071,671.253472L839.070497,659.697694L843.679356,653.283703L854.865867,636.294570L863.181878,624.526737L864.038117,623.546084L869.328622,622.565431L872.720998,621.028191L877.061919,617.635660L881.869552,613.554022L887.997357,609.021811L890.427292,606.609933L893.089682,603.429433L898.132384,596.008266L900.195762,592.032639L902.611392,586.678794L904.352627,581.775519L908.033173,572.737586L909.537092,570.113670L910.800982,568.496913L915.054943,564.680306L918.738261,560.757681L920.568040,558.266284L923.291900,549.758426L939.785750,526.752734L945.193066,521.186837L945.431924,520.895290L945.799933,520.603743L947.757701,518.827956L947.207699,518.297870L946.704159,518.112340L944.359857,516.469075L942.309645,513.924664L940.716075,511.009192L940.480495,510.293576L940.305639,509.021370L939.991976,508.279250L939.735628,506.635984L939.413949,505.920368L939.444690,505.178247L939.123012,504.462631L938.781327,501.891714L938.438125,501.176098L938.482376,500.460482L937.740177,498.075094L937.206419,495.000594L936.871237,494.258474L936.636429,492.615206L936.293231,491.899590L936.196032,490.441852L935.848991,489.169645L935.849757,488.241994L933.791597,475.334385L932.885487,470.431082L932.571842,469.688961L932.464993,468.761309L931.945768,467.489100L931.784452,466.243395L931.467845,465.368752L931.162219,464.600126L931.214502,463.858004L930.753929,462.320751L929.520455,459.140228L929.297533,458.027045L927.660933,453.759843L926.648737,452.196085L924.998377,450.393788L920.155884,446.762689L919.468310,446.047070L917.311394,442.574997L916.457037,440.560664L914.451967,435.021247L913.024829,431.840719L912.730134,429.826385L912.715696,428.024086L913.437299,425.638690L913.762206,423.995417L913.302967,423.094267L912.262558,422.193117L910.369172,421.265462L906.250710,420.364313L903.189064,419.171614L901.647668,418.005420L901.072361,416.918739L900.569543,413.102102L899.654142,402.182278L898.432084,395.264619L897.831455,393.621344L897.716632,392.720192L897.395007,392.004572L897.100361,389.990234L896.778738,389.274614L895.822224,383.258102L895.639847,380.872701L895.568881,377.692165L896.654701,370.403435L900.163937,360.013677L900.505775,357.389732L899.241279,353.387553L896.779425,346.655409L896.419836,345.780760L895.614139,343.819426L894.671699,342.096633L893.786660,340.824416L891.181771,337.908919L889.969224,337.007765L888.356571,336.504179L884.677569,334.648863L884.286332,334.092268L883.492045,332.448987L883.465489,328.552821L883.934860,323.728996L883.882114,322.907355L884.419444,318.428087L884.380206,317.632951L885.039511,313.604259L885.391110,311.801950L887.926219,298.443650L887.997180,296.217266L887.396650,294.573982L886.627709,293.487294L884.190459,290.942854L879.984520,285.138350L877.356932,282.938469L876.199271,282.567405L872.359547,281.030138L871.737875,280.950625L869.758926,280.235001L869.228836,280.208496L868.407547,279.863936L867.387468,279.678404L864.231458,278.300165L863.243873,278.220651L861.332862,277.849587L859.081237,278.035119L858.833199,275.013594L857.627422,274.801558L853.967044,274.165447L852.718218,273.953410L850.730312,275.543687L850.421364,275.782228L848.618332,276.974935L844.359342,279.810927L839.884282,282.222845L836.107318,283.892634L832.343030,285.164855L829.147279,285.482910L826.478255,285.482910L818.921130,284.422726L813.685280,283.017983L813.173767,282.858955L802.416845,278.644725L800.709290,277.743568L798.627391,276.656880L794.042362,275.093108L787.372012,273.449823L777.707657,272.098088L770.197379,271.594500L758.983607,271.806537L751.244501,272.628180L730.033110,275.861742L725.423867,277.080953L719.125898,280.181991L712.358155,283.839625L711.387839,284.343213L706.554835,286.728626L692.470677,294.149909L681.761754,299.450823L675.772729,302.313317L674.304813,302.896417L672.887966,303.453013L670.766705,304.274655L668.610416,305.069792L667.188085,305.573378L659.651422,308.144321L651.687214,310.847786L638.658367,314.425900L637.138969,314.823469L634.116212,315.565596L629.622999,316.970337L628.093043,317.473924L623.891024,319.196719L618.242609,321.502614L606.768429,327.625163L601.054132,330.646679L599.280204,331.600842L597.156810,332.714032L593.909066,333.986250L592.115739,334.648863L590.024015,335.443999L582.841864,337.696883L578.356660,339.075118L555.030360,346.522886L552.392497,347.344526L545.740838,349.835950L544.904736,350.180508L542.406987,351.108166L541.565402,351.399715L541.453639,342.308669L544.815480,331.839383L544.965335,331.415311L549.499477,317.712464L557.835422,270.110242L561.372490,249.675179L490.664350,226.139049L454.572901,214.105927L402.231824,196.665838L394.607038,195.261089L392.927772,195.049051L364.597675,191.152859L355.162342,189.827624L356.903474,188.555397L359.605009,185.745897L362.259410,182.167760L364.845155,177.820985L367.106124,172.414020L367.510611,171.433345L373.591577,153.834192L373.964611,151.819830L373.817126,150.600611L372.625795,147.923630L365.938251,141.005884L362.868771,136.712110L362.403691,132.418335L362.648637,129.476304L363.339733,126.269224L364.609428,123.141658L365.865628,119.987586L371.220119,111.187990L375.674410,104.508776L374.923250,104.217223L373.264790,103.581107L372.618701,103.369068L371.837993,103.104020L372.976114,101.619750L376.073476,97.431987L378.622928,93.774320L385.237498,83.941024L387.833688,80.839956L390.524373,77.924422L388.785611,75.989567L386.275230,72.835489L383.666010,70.078983L382.714926,69.310342L381.582508,67.932089L378.275401,64.565970L376.561479,62.975678L375.880376,62.737134L372.529546,60.510724L371.228245,59.477034L369.096614,57.489168L361.243899,48.663040L349.246648,37.530982L345.131209,33.422721L337.103580,26.027849L333.943607,22.105120L329.579057,17.042679L325.832873,13.278978L320.063869,6.599733L319.409049,5.990119L317.265475,3.260109L315.476134,0.000000Z " data-aland="9060579" data-awater="0" data-classfp="U1" data-funcstat="S" data-geoid="4717420" data-intptlat="+36.4488813" data-intptlon="-086.5335383" data-lsad="57" data-mtfcc="G4210" data-name="Cottontown" data-namelsad="Cottontown CDP" data-pcicbsa="N" data-pcinecta="N" data-placefp="17420" data-placens="02584576" data-statefp="47"/></g><g fill="#000" font-family="Arial" font-size="12px" id="mylayer-label" stroke="none"><text text-anchor="middle" y="512.019894292"><tspan dy="0" x="471.654380038"><![CDATA[Cottontown]]></tspan></text></g></svg>