<?xml version="1.0" encoding="utf-8"?><!DOCTYPE svg  PUBLIC '-//W3C//DTD SVG 1.1//EN'  'http://www.w3.org/Graphics/SVG/1.1/DTD/svg11.dtd'><svg enable_background="new 0 0 1000 1001" height="1001px" pretty_print="False" style="stroke-linejoin: round; stroke:#000; fill: none;" version="1.1" viewBox="0 0 1000 1001" width="1000px" xmlns="http://www.w3.org/2000/svg" xmlns:xlink="http://www.w3.org/1999/xlink"><defs><style type="text/css"><![CDATA[path { fill-rule: evenodd; }]]></style></defs><metadata><views><view h="1001" padding="0" w="1000"><proj flip="auto" id="robinson" lon0="-101.630014703"/><bbox h="0.25" w="0.42" x="-1409.93" y="-614.22"/></view></views></metadata><g class="" id="mylayer"><path d="M1000.000000,360.805515L788.962964,356.592190L783.614751,356.470652L746.463821,356.106037L705.824131,355.660397L666.260271,354.688092L641.590396,354.080401L411.525873,352.054764L421.509676,323.655328L423.000801,319.482514L428.808826,302.953307L460.463094,212.812333L463.177214,205.033871L421.801678,204.993358L382.881230,205.074383L330.626695,204.750281L307.902024,204.588229L274.112854,204.385665L240.485331,204.466691L200.165725,204.507204L166.668520,204.223614L164.155683,211.070282L160.142444,221.563103L128.385868,306.923558L68.896050,468.245189L61.825085,488.217929L106.983875,488.623056L149.724299,488.987670L152.704267,488.744594L157.832971,488.744594L189.310072,488.704081L208.688691,488.663568L215.903078,488.623056L213.411868,496.239433L209.054628,509.446554L202.369931,527.879801L194.937619,549.878152L179.877456,587.797944L176.114858,595.292771L170.289069,595.495334L131.052714,595.535847L71.115833,595.819435L61.531294,622.922345L51.237994,650.997543L43.167218,673.036363L0.000000,793.966137L0.000000,793.966137L36.191392,794.168699L80.366786,793.925625L105.016951,793.763575L106.496433,793.763575L166.973675,794.087674L198.055996,793.682550L223.449141,793.925625L248.250494,794.168699L253.679198,794.249724L261.836725,794.330749L312.604616,794.776386L326.190951,793.925625L368.430509,793.763575L392.690077,793.682550L403.586959,793.642038L428.536951,793.561013L441.626085,793.642038L483.260661,793.885112L492.488674,794.006650L510.268744,794.209212L557.262338,794.452286L602.421391,794.492799L642.070222,794.128187L664.137533,793.925625L688.003862,794.209212L726.358590,794.614336L761.493984,794.735874L764.387193,794.735874L807.405277,794.695361L846.379443,794.654849L859.363950,758.112612L867.621552,734.898961L873.155229,719.220627L886.693164,680.855280L896.158961,654.076497L906.604928,625.474636L913.107316,607.730132L923.365737,578.642099L934.290123,547.690471L950.731266,501.019925L963.457652,464.842126L985.578762,402.736179L987.594481,397.185938L1000.000000,360.805515Z "/></g><g fill="#000" font-family="Arial" font-size="12px" id="mylayer-label" stroke="none"><text text-anchor="middle" y="535.257780919"><tspan dy="0" x="481.371988477"><![CDATA[N]]></tspan></text></g></svg>