<?xml version="1.0" encoding="utf-8"?><!DOCTYPE svg  PUBLIC '-//W3C//DTD SVG 1.1//EN'  'http://www.w3.org/Graphics/SVG/1.1/DTD/svg11.dtd'><svg enable_background="new 0 0 1000 1001" height="1001px" pretty_print="False" style="stroke-linejoin: round; stroke:#000; fill: none;" version="1.1" viewBox="0 0 1000 1001" width="1000px" xmlns="http://www.w3.org/2000/svg" xmlns:xlink="http://www.w3.org/1999/xlink"><defs><style type="text/css"><![CDATA[path { fill-rule: evenodd; }]]></style></defs><metadata><views><view h="1001" padding="0" w="1000"><proj flip="auto" id="robinson" lon0="-150.398403156"/><bbox h="6.55" w="11.15" x="-1744.74" y="-1032.19"/></view></views></metadata><g class="" id="mylayer"><path d="M1000.000000,205.801364L999.496493,205.808119L998.991432,205.816224L998.308357,205.827032L993.238609,205.898632L991.549038,205.921598L970.091762,206.182331L945.978171,206.474137L942.861891,206.511964L939.745610,206.549790L937.802462,206.572756L935.857759,206.597074L924.806893,206.730818L897.867835,214.654352L867.580771,223.561849L866.449684,223.453762L863.054367,223.129501L861.922254,223.021415L860.236309,221.175842L855.179813,215.637896L853.494934,213.791053L846.454039,212.183358L825.335370,207.356311L818.295941,205.747326L818.289665,205.768941L817.610997,206.529526L817.156225,207.348205L816.635539,209.265227L816.584781,209.453013L816.196016,210.017722L815.888899,210.622962L815.625953,210.993133L814.826714,211.774006L814.344938,212.475174L812.534309,213.685675L811.321602,214.290928L810.206185,214.896184L809.368553,215.540622L809.037146,215.970248L808.704851,216.710614L808.517860,217.860348L808.621298,218.249449L808.480032,218.795273L808.140756,219.457289L807.286167,220.258468L807.113281,220.457074L806.776854,220.843479L806.558062,221.174491L806.321244,221.662228L804.918784,222.968722L804.063883,223.515912L803.651544,223.846930L802.194168,224.608947L801.575379,224.922402L801.002595,225.449332L800.499997,225.858718L799.739663,226.268104L799.123462,226.776122L798.284874,227.224693L796.047908,228.046176L794.270314,228.946028L793.250164,229.355422L792.142278,229.474322L791.593666,229.670237L790.865413,230.079632L790.019928,230.393098L789.780194,230.432281L789.175111,230.452548L788.602753,230.624143L788.386761,230.687647L787.807977,231.136229L787.452930,231.332146L786.729791,231.567246L786.276770,231.821263L785.752385,232.249580L784.648478,232.817068L783.671886,233.188639L783.099774,233.461575L782.764809,233.696678L781.836173,234.534407L781.083539,234.964082L780.359069,235.511311L780.026046,235.999090L780.003609,236.272030L780.152297,236.621989L780.067384,236.836829L779.709852,237.401630L780.006337,237.848878L780.029041,238.082637L779.787998,238.433951L779.725401,238.628525L779.782301,239.058211L780.409469,239.329805L779.966768,239.602751L780.276050,239.700039L780.665803,239.698688L780.060990,240.225664L780.359869,240.556714L780.208482,241.083693L780.701240,241.725529L780.469588,241.843086L780.152625,241.921458L780.037203,242.134954L780.081719,242.349801L780.570910,242.544380L780.632661,242.913269L780.356238,243.576732L779.900958,244.142907L779.083462,244.883396L779.147053,245.137433L779.394831,245.429306L778.935160,246.111697L779.247131,246.403572L778.964268,246.734634L778.963687,246.988674L779.506664,247.221094L780.388005,247.298117L780.835358,247.472432L781.092902,248.037269L780.951923,248.583189L781.207440,249.137220L781.536642,249.849354L781.561105,250.025023L781.317253,250.999315L780.913772,251.350656L779.942618,251.858750L779.298721,252.560085L777.263313,254.277625L777.057829,254.512758L777.004977,254.784377L776.985375,254.999240L777.188763,255.272212L776.990251,255.642480L776.477481,256.033020L775.873327,256.305993L775.287725,256.872211L774.650958,257.399241L774.477464,257.691136L767.741675,262.264213L763.008436,265.476523L761.995029,266.164400L760.130987,267.429346L747.538007,275.978785L740.803127,280.551008L739.775869,280.572633L739.227667,280.514516L739.039698,280.529383L738.730041,280.553711L736.551110,281.297064L736.045935,281.511961L735.735436,281.726859L735.103696,282.079615L734.457107,282.333709L733.703374,282.567529L732.936110,282.841897L731.344590,283.721768L730.500582,284.375931L730.186413,284.619215L728.710824,285.849157L727.801836,286.669575L727.770197,286.703364L679.568220,277.820904L676.087343,278.096616L669.530504,278.615603L664.190925,280.011742L663.784249,280.118514L654.024995,282.670248L642.382811,288.514514L631.353528,295.378136L619.902841,298.455909L611.989541,298.676234L600.952129,303.468054L594.627940,308.591193L593.670929,309.365760L592.863064,309.882141L592.053644,310.399874L590.634562,310.983847L589.795878,311.373164L589.518509,311.528620L588.908452,312.055821L588.711160,312.309960L588.549472,312.896643L588.125492,313.346795L587.698673,313.659064L587.670961,313.795597L588.021074,314.051090L587.879244,314.284954L586.545198,315.632722L585.935168,316.159936L585.576311,316.414081L584.875873,316.823688L584.394839,317.053500L583.938169,317.271147L582.150790,317.894347L580.483225,318.695994L580.328235,318.770346L579.635781,319.062347L578.566884,319.315144L577.676999,319.665276L575.826935,320.287133L574.551989,320.773806L573.117167,321.455150L572.685319,321.689024L571.884288,322.158126L571.476568,322.509616L571.022934,322.762418L569.721156,323.189615L568.584610,323.892599L567.784970,324.164330L566.842147,324.280593L566.319873,324.396856L564.966008,324.980878L563.715418,325.447285L562.433669,326.247616L561.853242,326.442292L561.231934,326.616689L559.564159,327.219645L558.418832,327.902367L557.837535,328.293075L557.318808,328.741916L556.450689,329.659882L556.239377,329.953253L556.203896,330.403451L556.336772,330.539998L556.557679,330.991549L557.269288,331.325481L557.491765,331.775683L557.371758,331.990644L557.251944,332.401641L557.511726,332.539541L557.633259,332.651754L558.042854,333.030305L557.624919,333.949646L556.411796,335.277291L556.168612,335.766711L555.603778,336.254780L554.300087,336.894274L553.367156,337.601371L551.945577,338.439617L551.119084,338.985830L550.211107,339.638855L549.247649,340.331091L548.719959,340.585273L547.457406,341.424885L546.962089,341.853480L546.580733,341.931899L545.748958,342.203659L544.804341,342.768813L542.287991,344.134385L541.614578,344.856386L540.563050,345.206570L539.885458,345.597318L539.036437,345.967785L538.491539,346.299043L538.058713,346.503206L537.469686,346.903421L536.063795,347.644363L535.408748,348.210887L534.583063,348.561079L533.580352,348.813920L532.985019,348.909919L531.700721,349.377745L530.947198,349.610306L530.540581,349.961853L529.679580,350.371541L529.198915,350.702807L528.605456,350.936722L527.865181,351.326131L527.428331,351.815597L526.751257,352.205008L526.366427,352.537630L525.457635,353.044678L524.932634,353.219102L523.878670,353.432739L523.285207,353.666658L522.460291,353.820801L521.660077,354.093933L520.428797,354.795693L519.886564,355.068826L519.274763,355.067474L518.756649,355.124264L516.661687,355.903102L515.649122,356.135672L514.630698,356.485880L514.069605,356.525093L513.988310,356.496697L513.679186,356.387173L512.455573,356.384468L512.088748,356.422329L510.714937,356.772537L509.075127,357.297176L508.249668,357.452674L507.604701,357.451322L507.141516,357.489183L505.882315,357.740686L505.062960,357.974610L504.305171,358.266679L503.535146,358.792674L503.125074,359.007670L502.644654,359.144240L501.938881,359.279458L501.706900,359.201031L501.630442,359.044179L501.630193,358.848113L501.305295,358.906257L500.258159,359.393041L499.968032,359.783821L499.147881,360.213816L498.165767,360.504536L497.017020,360.660038L496.286265,360.873684L495.649199,361.145474L494.055326,361.378052L493.443497,361.376700L492.622237,361.472705L491.610660,361.705283L489.902319,362.289434L489.238463,362.444937L488.822269,362.581510L488.578047,362.737013L488.445074,362.991228L490.038502,363.875575L490.400012,363.954003L491.360358,363.682208L491.866020,363.663277L492.281434,363.722775L492.832480,363.860701L493.059479,364.194698L492.493037,364.740995L491.461566,365.130435L489.669105,365.871456L489.014548,366.045894L488.289898,366.337977L487.899709,366.396123L487.093326,366.590845L486.391246,367.058720L485.581429,367.507664L485.260736,367.506312L484.953906,367.603674L484.582339,368.093187L484.115421,368.189197L483.686988,368.168913L482.533899,368.440715L482.481892,368.597577L481.274263,369.809200L480.911900,369.983642L479.682424,370.432594L478.722333,370.900479L477.813207,371.211502L476.844291,371.268298L475.239920,371.538753L473.928585,371.556332L473.744361,371.380536L473.480722,370.909945L473.280835,370.831514L472.097995,370.849093L471.241884,370.612446L471.194864,370.513730L471.352024,370.377151L471.626741,370.279788L471.742989,369.732121L471.355194,369.536043L471.208367,369.300750L470.533890,369.241250L469.438908,369.043821L468.994801,369.120899L468.560248,369.412987L467.553950,369.920085L466.860607,370.408253L466.237110,371.367014L465.673299,371.855186L465.106560,372.205426L464.037057,372.712533L462.763963,373.199357L461.774104,373.413019L460.547167,373.860628L459.879048,374.075643L459.129118,374.250089L458.141916,374.405604L457.678676,374.443468L456.969383,374.442116L456.458339,374.186531L456.408727,374.089166L456.793600,373.756501L456.722204,373.678068L454.950276,373.675363L454.136948,373.987743L453.586898,374.240623L453.032365,374.356921L452.456304,374.297420L449.916155,374.958695L448.702188,375.367091L448.382329,375.503674L447.659505,375.933709L446.580917,376.224456L445.423845,376.309652L445.275649,376.320471L442.939837,376.805952L442.131492,376.862750L441.876137,376.804600L441.177423,377.018266L440.953322,377.221115L440.275834,377.446953L438.778823,377.947313L438.277735,378.382763L437.780021,378.618069L436.896305,379.242848L436.152726,380.082652L435.978077,380.512699L436.104176,380.766940L435.991366,381.060401L435.768145,381.393080L435.437104,381.763626L435.511202,382.174743L435.379278,382.428987L435.500412,382.938829L435.701118,383.212008L436.366956,383.194427L436.596661,383.917946L436.942642,384.036955L437.059985,384.270917L437.085586,384.975507L436.991934,385.308194L437.197979,385.465071L437.293613,385.661168L437.581495,385.847797L437.544340,386.171019L437.132398,386.638948L435.959713,387.654602L435.558397,387.889920L434.891805,388.103601L433.776788,388.510676L432.255081,389.326183L431.500708,389.730557L429.092826,390.638035L428.190787,391.027535L427.577369,391.418388L427.068230,391.691580L425.963082,392.062149L424.546487,392.450300L423.496076,392.996688L423.269424,393.192793L422.396565,394.423527L421.670406,395.107873L420.618067,395.516318L419.518726,395.769230L418.939190,395.963986L418.562247,396.179029L418.243226,396.510385L418.069723,396.940473L415.945952,397.661346L415.333574,398.052215L414.154322,398.402510L413.269084,399.085520L412.031006,399.710374L411.167556,400.374454L410.936324,400.490770L410.622787,400.511058L409.918595,400.450195L409.644887,400.547575L408.345341,401.505154L407.452072,401.914967L405.889711,402.401875L405.523113,402.635862L405.213929,402.987519L405.272201,403.299953L404.605218,403.905888L404.076242,404.335994L404.240743,404.668719L404.062733,404.962221L402.711210,406.133528L402.499707,406.819274L401.821318,407.463093L400.574455,408.067691L399.507749,408.907638L398.808308,409.317469L397.857301,410.001875L396.444507,410.722804L396.381173,410.860768L396.456153,411.075830L395.779166,411.270604L395.145696,411.484314L394.995359,411.541123L394.574933,411.699377L394.427112,411.854926L394.011217,412.187665L393.432548,412.577215L392.910427,412.889667L392.358810,413.143957L389.584537,414.568261L389.207602,414.783328L388.386456,415.075495L387.700662,415.249983L387.407798,415.308146L386.879513,415.542151L386.448663,415.776156L385.926540,416.088614L385.452168,416.303682L384.941056,416.438946L384.595353,416.459235L384.052107,416.594499L383.688154,416.770342L383.375481,416.985412L383.137427,417.219418L383.095841,417.395262L383.172436,417.552169L383.515931,417.729365L383.651665,417.807819L383.484700,417.924146L383.146716,418.021537L382.057107,418.294772L381.356072,418.762790L381.059922,419.075253L380.576752,419.270036L380.108545,419.563563L379.885462,419.896318L379.783802,420.012647L379.422479,420.130329L379.206859,420.149266L378.985072,420.089749L378.662698,420.089749L378.382163,420.304823L378.102537,420.714681L378.017827,421.067728L377.811916,421.301741L377.454133,421.556044L376.878101,421.887450L376.381307,422.317603L376.275465,422.493451L376.507893,422.962834L376.134508,423.314533L375.888741,423.471445L375.847172,423.647295L376.159200,423.628357L376.481582,423.628357L376.645284,423.766332L376.076066,423.980058L375.276687,424.253303L374.351280,424.663171L373.988886,424.837669L373.156738,425.307058L372.548578,425.638471L372.004060,426.166029L371.716733,426.498796L371.579075,427.065585L371.476182,427.574209L371.220999,427.906980L370.869930,428.238398L369.910806,428.706443L368.725693,429.174490L366.651904,430.189046L362.535841,432.414327L359.288682,434.250037L356.855101,435.380963L356.425838,435.556825L356.078432,435.830089L355.443727,436.436140L354.699794,436.689113L354.348220,437.021902L353.918116,438.037858L352.932449,438.780551L352.503186,438.956417L351.353390,439.170162L350.559186,439.383907L350.150122,439.599005L349.654935,440.027850L349.187136,440.712381L349.189163,440.850369L349.235246,441.005945L349.411977,441.104702L349.689290,441.143934L349.875346,441.261630L350.084217,441.360387L350.184219,441.497024L350.177445,441.614720L350.007366,441.790589L349.191802,442.357429L348.236267,442.962151L347.630729,443.235427L347.108638,443.547935L346.616079,443.918617L346.525860,443.997083L345.741440,444.425938L342.855837,445.556933L341.352321,446.357832L341.116930,446.533706L340.741002,446.943628L340.724864,447.237203L339.889577,447.960997L339.779588,448.391215L339.938166,448.645559L341.372557,448.687499L341.401542,448.941843L341.546676,449.039251L342.482910,448.982430L342.789784,449.079838L342.885656,449.276008L342.753944,449.530353L341.935818,450.155394L340.950780,450.701969L339.440600,451.228251L338.636009,451.423071L337.783219,451.519128L336.064697,451.555657L334.529145,451.769418L333.746842,451.943944L332.719824,452.275410L332.262051,452.393114L330.969059,452.899108L330.221982,453.211634L329.610226,453.406456L329.194957,453.543102L328.548458,453.796101L327.710125,454.187099L327.056869,454.557804L326.600102,454.870334L326.325821,455.163922L326.085239,455.456159L325.888209,455.710513L325.549647,456.004103L324.934750,456.453284L323.617879,457.175764L323.064689,457.488298L321.962983,457.995660L321.658138,458.093074L320.929729,458.248665L320.211703,458.228371L319.687570,458.208076L319.424733,458.128251L319.053546,458.030837L318.623784,457.872540L318.255197,457.716949L317.853426,457.618182L317.072674,457.596535L316.286212,457.635771L315.414206,457.692595L314.830964,457.750773L314.194840,457.827892L313.633374,457.867128L313.151753,457.865775L312.600653,457.923953L311.978509,458.099838L311.166602,458.386668L309.429241,458.996859L308.151210,459.601640L304.777959,461.828660L304.856228,461.984255L303.191833,464.154480L302.689422,464.702453L301.839126,465.327550L301.507306,465.503443L301.027727,465.640099L299.014013,465.989181L298.488287,466.165075L297.033973,466.867300L296.523276,467.198795L294.877647,467.842844L293.857290,468.449010L292.744644,469.190483L290.812828,470.949466L289.689824,471.672008L288.721317,472.121230L287.995971,472.414848L287.189748,472.862719L285.518182,473.585269L285.132438,473.780114L284.588044,474.112976L283.187694,475.383538L282.863657,475.636569L282.214009,475.949137L281.305111,476.261706L281.028766,476.417314L280.584461,476.886845L280.504127,477.180472L280.758226,477.434859L281.843482,477.612118L281.920244,477.769081L281.549555,478.062709L280.973544,478.394226L278.958732,479.135743L278.458910,479.279175L277.804059,479.467262L275.262916,480.050465L274.183382,480.147892L274.003452,480.108651L273.820390,479.931389L273.797550,479.755480L274.326375,479.325182L274.181179,479.227756L273.761184,479.227756L269.726213,480.045053L269.147573,480.239906L267.849818,481.001728L267.470298,481.275065L267.237015,481.645829L266.014484,482.622811L265.415125,482.974634L265.018514,483.346755L264.746856,483.639040L264.370514,484.245262L264.128416,484.538902L263.050044,485.418471L262.520162,485.710759L262.023454,485.946214L260.273523,486.570036L259.395197,486.940812L258.235781,487.135673L257.516530,486.977348L257.212593,486.625517L256.748988,486.468546L255.880434,486.467193L255.327692,486.583568L254.843931,486.779782L254.584189,487.032830L254.445811,487.404960L254.046620,487.835279L253.882813,488.089681L254.034266,488.265599L255.765630,487.993604L255.820636,488.169521L256.167571,488.287250L256.541452,488.326493L256.531690,488.698626L256.621429,488.816355L257.360360,488.817709L257.407589,488.973328L257.058181,489.330577L256.509190,489.892164L254.372753,491.690605L252.084280,493.116922L250.842632,494.054725L248.794703,495.245594L247.105586,496.320090L246.361676,496.965602L244.752389,497.942672L242.662374,498.918394L242.117997,499.251305L241.004299,499.798038L240.138913,500.129597L238.704807,500.871209L238.054714,501.380054L237.764995,501.771162L237.441262,502.611574L236.720706,503.236810L235.697826,503.901296L234.578167,504.956899L233.422679,506.854295L232.733900,507.675785L231.605464,508.711112L231.074803,509.395919L230.086669,510.002233L229.713870,510.157872L229.289703,510.274263L228.761243,510.313512L225.811238,511.113364L225.156865,511.346147L223.673088,511.404343L223.197546,511.481487L222.758876,511.638480L221.557576,512.262397L220.816285,512.849774L220.247323,513.650991L219.999414,514.453566L220.081168,514.942150L219.823665,515.333290L219.191806,515.881428L218.149749,516.506713L216.802792,517.229448L214.330157,519.124275L213.309877,519.730624L212.052892,520.766024L210.965752,521.430578L210.518243,521.567279L210.126679,522.271087L209.971970,522.740745L210.149077,523.034451L210.405983,523.230707L211.094920,523.387711L212.471951,523.310562L213.364182,523.429669L214.051920,523.391772L214.552011,523.489223L215.017004,523.784284L215.542964,523.803233L215.840878,524.019792L216.416716,525.840251L216.934683,526.173214L217.146532,526.408725L217.386640,526.898698L217.207249,528.032949L217.045093,528.229210L215.874376,529.245712L215.250183,530.067310L215.474567,530.851013L217.506681,532.105757L218.542859,532.380529L219.207830,532.361580L220.110033,532.500996L220.390340,532.676960L220.585760,533.009936L220.602118,533.694842L220.913270,534.067074L221.281539,535.340792L222.050328,535.791536L222.627673,535.792890L223.255212,535.695432L223.994400,535.696785L225.943853,535.346206L228.158149,534.821017L229.360528,534.391932L229.914894,534.274171L230.263305,534.138814L230.907312,533.943899L231.295760,533.885695L231.910370,533.827492L232.357853,533.690781L232.679460,533.690781L232.675632,533.945253L232.933954,533.945253L233.044568,534.044064L233.149876,534.455550L233.095687,534.670769L232.705935,534.925242L232.545383,535.120158L232.946479,535.610156L232.730194,536.021646L232.354659,536.431784L231.585567,536.959686L230.407740,537.506540L229.925579,537.701459L228.845496,538.030385L227.745706,538.364726L225.311335,539.947101L224.972999,540.240837L224.255591,541.002929L224.062644,541.394128L222.708368,542.625938L222.556442,543.037445L222.790475,543.448954L222.601609,543.780598L221.451940,544.778242L220.818098,545.188401L218.866943,546.184700L217.773961,546.574557L217.177297,546.868305L216.585730,547.102491L214.750760,547.745489L212.340826,547.937712L208.566164,548.951625L205.676370,549.868077L204.647398,550.063010L203.946411,550.336458L203.142945,551.117546L202.148707,551.645494L202.119122,551.978508L202.472717,552.174797L203.135272,552.214055L203.600778,552.312876L204.018708,552.509166L204.308071,553.096681L204.450990,553.586731L204.416115,553.841232L204.190022,554.232461L203.812995,554.643997L202.801190,555.522575L202.502645,555.698562L201.395295,556.520287L197.044554,559.040993L195.757449,560.018420L195.288321,560.565348L194.411250,561.327531L193.963555,561.660564L193.374805,562.031504L192.703494,562.363184L189.680914,563.339276L188.520722,563.592438L188.106410,563.729173L187.402924,564.060857L186.384460,564.666012L184.474662,565.290123L182.525974,566.228324L181.625770,566.814534L180.395025,567.380438L179.193611,567.809605L178.379328,567.985605L177.815828,567.969359L177.694929,567.965297L177.046403,567.690467L176.713383,567.140808L176.243423,566.906595L175.990123,566.847026L175.466573,566.826718L175.053706,566.905241L173.948780,567.334407L173.210610,567.724313L171.942402,568.546097L171.541318,568.838528L169.567113,570.637805L168.686160,571.263292L167.241916,572.573843L166.884357,572.828373L165.914473,573.336080L164.648688,573.765262L162.894332,574.310881L160.569762,574.876809L159.271792,575.305996L157.641897,576.107508L156.853573,576.596269L156.988830,577.066077L156.586562,577.554842L156.326555,577.809379L155.329827,578.395628L155.104844,578.786913L154.353999,579.607397L154.348777,579.863291L153.850013,580.352063L153.321297,580.644515L152.886647,580.741999L151.878069,581.367523L150.595839,581.894210L148.772920,582.695753L146.829486,583.965773L145.151010,584.864812L144.298227,585.549927L143.565278,586.214734L142.927149,586.546461L142.280043,586.801012L141.207377,587.033899L139.018805,587.678402L137.334709,588.107621L136.866429,588.263331L136.126701,588.654639L135.373154,589.142083L134.754575,589.651192L134.481691,589.945014L134.075560,590.297059L133.934248,590.727638L133.684679,591.001151L132.302155,591.978762L132.111873,592.311854L131.871689,592.604327L129.354998,594.931937L129.276617,595.167543L129.459663,595.343571L129.755635,595.422106L129.196501,596.047684L128.148153,596.987409L126.634512,598.023279L126.418574,598.238578L126.167903,598.708446L125.503313,599.510068L125.187615,600.371275L124.609153,601.153947L123.653964,601.955580L123.274617,602.425459L122.901750,602.777529L122.599717,603.011792L120.152676,603.909578L119.359045,604.319880L118.355450,604.829034L117.186111,605.258296L116.222887,605.495271L115.753979,605.609019L115.101489,605.785057L114.661425,605.804015L113.594640,605.920472L112.775889,606.017970L111.485341,606.329424L110.266976,606.661191L109.529477,606.659837L109.242339,606.601608L108.651363,606.444527L107.879224,606.501401L107.023235,606.658483L106.112401,606.891397L105.408429,607.028166L104.502520,607.144624L104.026256,607.223165L103.609420,607.418163L102.600932,607.847432L101.575099,608.180555L100.875138,608.257743L99.702409,608.355243L98.912317,608.510972L97.997451,608.803472L97.347841,609.116285L96.610694,609.506286L96.266040,609.721600L95.989615,610.270042L95.934572,610.485357L95.507754,610.856403L94.862991,611.696000L94.421266,612.351429L94.437001,612.645290L95.467001,612.979778L95.516018,613.077280L95.370864,613.371142L94.281528,614.290650L93.906260,614.504615L93.828966,614.740249L93.876948,614.837752L94.178360,614.994841L94.195202,615.092345L94.101537,615.425483L93.760860,615.777581L93.650826,616.208224L93.711608,616.659183L93.425348,617.187333L92.852959,617.657254L92.304359,618.301872L92.380527,618.458965L92.920103,618.576784L93.607222,618.538865L93.619031,618.695958L93.395288,618.890969L91.900554,619.771233L91.476236,620.084066L91.435643,620.455133L90.201307,621.472186L90.024016,621.766063L89.942213,622.256310L89.634253,622.803438L89.136691,623.292333L88.252949,623.781230L87.040944,624.387952L84.304646,625.677243L83.321911,626.224382L82.079267,627.026133L81.719329,627.338980L81.364788,627.926754L81.358866,628.043225L81.513344,628.161051L81.776206,628.239602L82.408395,628.220641L82.713355,628.123130L83.546634,627.594946L84.056010,627.459514L84.355048,627.478474L84.720895,627.635575L84.389155,628.008013L83.573786,628.437333L83.185155,628.691946L82.757385,629.063032L82.233589,629.435473L81.813291,629.688733L81.575145,629.924388L81.399444,630.216924L82.663838,630.179003L82.900967,630.336106L82.736588,630.590722L82.586119,630.806063L81.832066,631.824531L81.361873,632.429927L80.750937,632.821337L79.976648,633.270985L79.426069,633.525605L79.121108,633.623119L78.851804,633.662396L77.696303,633.856070L76.953653,634.110691L76.404650,634.560342L76.100594,634.797358L75.801714,635.028956L75.078380,635.322856L74.004999,635.557164L73.613916,635.673641L72.740089,635.986503L71.577170,636.690784L70.523644,637.159404L69.943465,637.412675L70.006829,637.609063L70.643077,637.726895L71.156035,638.119671L71.413070,638.511094L71.604146,638.707482L71.344831,639.157145L70.785412,639.587848L69.927439,639.998236L69.270029,640.290790L68.701166,640.506142L68.065504,640.779735L67.654104,641.053329L66.851665,641.639796L66.334309,641.894428L65.842681,642.070505L65.518392,642.128745L65.099971,642.128745L63.999824,641.912036L63.445375,642.086758L62.960199,642.341391L62.657658,642.380670L62.555681,642.302113L61.984771,641.987884L61.404029,642.046125L60.962864,642.261480L60.689085,642.555392L60.573811,642.907546L61.299205,643.143218L61.356132,643.261055L61.858817,643.495373L61.786999,643.613210L61.507809,643.828567L61.262195,643.985683L60.451288,644.160406L60.172045,644.179369L59.359583,644.355447L58.618466,644.608730L57.968945,645.118005L58.864123,645.177601L60.065255,644.943280L61.605966,644.553197L62.560093,644.534235L62.799708,644.633110L63.255746,644.711668L63.776159,644.790226L63.884605,644.947343L63.948003,645.143739L63.753036,645.397023L64.134266,645.456619L64.621916,645.340136L65.020378,644.909418L64.937656,644.673743L65.836059,643.892226L66.479159,643.500791L67.118796,643.167598L67.600040,643.168953L67.950629,643.227194L69.127460,643.209586L69.301255,643.170307L69.953809,642.994230L70.456739,642.780229L70.762682,642.486316L70.820021,642.212720L70.862017,641.840251L70.937241,641.467783L71.267365,641.096671L72.237176,640.588762L72.889726,640.412687L73.785859,640.275891L74.228449,640.198689L74.899280,640.061893L76.343439,639.868212L77.582188,639.908844L77.693622,640.202753L77.337784,640.652420L77.109655,641.102088L76.993373,641.454239L77.099459,641.865985L77.046002,642.219492L76.715903,642.590607L75.969872,643.099876L74.450117,644.057468L74.138762,644.272826L73.328951,644.977141L72.856293,645.583938L72.563825,646.033620L71.953541,646.620103L71.181808,647.207944L70.032453,648.068036L68.647346,648.909170L67.786994,649.377823L65.962735,650.237927L63.219769,650.332742L61.620463,650.409948L60.404997,650.545398L58.870664,650.817653L58.282471,650.993738L56.765129,651.559921L56.132488,651.970338L55.684954,652.303548L55.100815,652.616440L53.906731,653.124385L53.101238,653.377680L52.082767,653.928972L51.205826,654.747107L50.545061,655.294340L49.997609,655.882210L50.539402,656.136864L51.283648,656.216782L51.778309,656.177500L52.638355,656.100291L53.405797,655.963482L54.224762,655.865955L54.634153,655.788746L55.494817,655.906592L56.052301,655.868664L56.636532,655.752174L57.025730,655.692574L57.808539,655.654647L58.514114,655.656001L58.969171,655.734565L59.325364,656.067782L59.446419,656.577091L59.009074,657.320739L58.735096,658.006145L58.551609,658.417931L58.416999,658.534423L58.416086,658.730835L58.350792,658.927247L58.223711,659.122305L57.199119,659.845645L56.552774,660.491778L56.510783,660.667873L54.564287,661.606600L53.778143,661.899191L53.075071,662.036004L52.614140,662.073933L52.215000,662.113216L51.207860,662.151145L50.460652,662.130826L50.133290,662.052260L49.873624,661.719031L49.918935,661.288272L49.871762,660.994327L49.576596,660.915762L49.147858,660.953690L48.834844,660.974009L47.975691,660.854805L47.491464,660.913052L46.836472,661.147395L45.899924,661.655365L45.108887,662.203974L44.840895,662.496566L44.732767,662.614416L43.697826,663.515224L42.873755,664.120732L41.678382,665.020194L40.980881,665.431997L40.192313,665.782843L39.492274,666.056477L38.869467,666.290827L36.993787,667.308153L35.530217,667.659003L34.801419,667.874390L34.121617,667.990889L33.418516,668.127707L32.789209,668.283491L32.720246,668.311938L32.068454,668.576094L31.517881,668.830767L29.986748,669.632718L27.881791,670.570139L26.986179,670.902031L26.262827,671.195992L25.691544,671.469635L25.435696,671.664706L25.563980,671.827267L25.684959,671.978990L25.987170,672.134777L26.736983,672.293273L27.224971,672.566917L27.975495,672.931325L28.359858,673.116916L28.703170,673.293024L29.215471,673.685882L29.637538,673.960883L30.353300,674.176278L30.554488,674.393028L31.223015,674.314456L32.288119,674.197953L33.109367,674.433668L33.133319,674.747956L32.931077,675.119142L32.751618,675.471363L32.510163,675.765333L32.279162,676.078269L32.097978,676.235414L31.558916,676.509064L30.987659,676.782715L30.660078,677.095653L30.235057,677.605025L29.843090,677.917964L29.425441,678.309477L29.072184,678.700992L28.690673,679.032899L28.466199,679.424415L28.528560,680.012369L28.558370,680.070622L28.917287,679.954115L29.343494,679.778000L29.779641,679.622206L30.216494,679.661493L30.547016,679.876895L30.680432,680.151906L30.591075,680.425563L30.342287,680.837403L29.851367,681.208602L29.247926,681.482260L28.653387,681.776240L28.505963,681.932036L28.663723,682.186729L29.242716,682.324914L29.849462,682.384523L30.358583,682.444132L30.878160,682.522708L30.986754,682.679859L30.684880,682.914232L30.167476,683.560452L29.990456,683.854435L29.862401,684.049521L29.700597,684.245962L29.340860,684.558914L28.844473,684.851544L28.318268,685.085920L27.899933,685.282362L27.158809,685.535705L26.681050,685.672538L24.929516,685.826982L23.434729,686.177871L22.892573,686.314704L22.250409,686.509792L21.684959,686.666948L21.239906,686.802426L20.478895,687.017838L19.498207,687.368728L18.701493,688.033932L18.454178,688.414630L18.407706,688.485080L18.500066,688.739783L18.636122,689.013453L19.157294,689.230222L19.302034,689.327768L19.855407,689.544537L19.967888,690.033624L20.583291,690.308651L20.986147,690.544389L21.563114,690.545744L21.790582,690.682580L22.216221,690.899351L22.726138,691.154057L23.767757,691.252959L24.287382,691.331539L24.588161,691.488699L25.048351,692.038758L25.256713,692.332756L25.496237,692.626755L26.598350,692.785270L26.771901,692.941076L26.542585,693.392237L26.227139,693.862367L25.321112,694.566887L24.827121,694.801276L24.273689,694.976052L23.766094,695.054633L23.073403,695.210441L22.716852,695.268700L22.294577,695.385217L21.944571,695.522058L21.655045,695.718512L21.500335,695.992193L21.449029,696.149357L21.416572,696.344457L21.718418,696.501621L22.073161,696.639818L22.261147,696.894532L22.324778,697.090988L22.020584,697.383640L21.506456,697.775198L20.690748,698.206049L19.728420,698.596254L18.929448,698.928200L18.171587,699.280470L17.424189,699.651709L16.419470,700.219408L15.712940,700.806078L15.191507,701.315520L15.070058,701.589211L14.316775,702.803209L13.850905,703.683905L13.659377,704.213680L13.570143,704.487375L13.611031,704.702809L13.404118,705.525253L13.505509,705.800305L13.055815,706.191882L12.228859,706.660692L11.537764,706.954715L11.131471,707.168797L10.754789,707.384234L10.093543,707.736521L9.818409,707.892341L9.442765,708.107779L8.979945,708.342186L8.598776,708.479037L8.187755,708.557625L7.911795,708.518331L7.284206,708.477682L6.556109,708.496651L6.138523,708.496651L5.729053,708.573884L5.293944,708.729705L4.727436,708.886880L3.849100,709.121289L3.500642,709.256785L3.358284,709.492549L3.581930,709.689019L3.521526,710.020987L3.186785,710.451868L2.466762,711.274340L1.589841,711.842077L1.230419,712.085975L0.579415,712.526346L0.273706,712.820380L0.000000,713.309533L0.184309,714.015488L0.910821,714.584590L1.819763,714.938247L3.538148,714.978897L4.168115,714.961282L4.612387,714.882692L5.192312,714.824426L5.721683,714.726866L6.267852,714.669955L7.334023,714.748546L7.628353,714.827136L7.822180,714.965347L7.901904,715.259385L7.572154,715.630658L7.461001,715.866431L7.544623,716.100849L7.943802,716.396244L8.709684,716.455865L9.423971,716.476190L10.024331,716.457220L10.995209,716.477545L11.370142,716.458575L11.786200,716.459930L12.145629,716.342043L12.421782,716.186216L12.749007,716.068329L13.296216,716.011418L14.183648,716.188926L13.979982,716.756680L13.986405,717.030395L14.033955,717.324436L13.932623,717.775661L13.916653,718.264828L13.955250,718.873241L13.834538,719.285174L13.356185,720.205251L13.162151,720.596861L12.406782,721.477649L12.131024,721.829966L10.285602,723.435724L10.179414,723.611884L10.520735,724.181018L10.743453,724.377506L10.853024,725.259668L10.719727,726.297671L11.283207,727.259795L11.954134,727.652776L13.423244,728.105384L13.795885,728.144682L14.339766,728.146037L16.659968,728.639299L16.899819,728.933360L16.703045,729.384616L16.769679,729.521484L19.173157,730.250543L19.630908,730.270870L20.626969,730.213954L21.156349,730.116385L21.810251,729.881947L22.263020,729.627183L22.808631,729.236908L23.258135,728.845278L23.545334,728.511918L24.291280,726.689295L24.452137,725.572694L24.357793,725.179717L24.337524,724.415448L24.846639,723.553616L25.292305,723.221622L26.044492,722.790709L26.926153,722.498014L28.202163,722.225645L29.047627,722.187703L29.300356,722.247326L29.655156,722.580673L29.807289,722.895049L29.845993,723.168774L30.911265,723.582073L31.536576,724.210830L32.626856,724.742024L33.005033,725.389757L33.113733,726.271924L32.710868,726.957606L32.421369,727.349232L32.500210,727.643290L32.982354,727.978003L35.303658,728.471265L36.423629,728.473975L37.952899,728.259867L38.936732,728.045759L41.293830,727.167647L43.651505,726.093051L43.959808,725.937215L44.859707,725.349104L45.583041,724.664784L45.847530,724.155272L46.715314,723.372036L47.540773,722.961448L49.240630,722.376057L50.284983,722.221580L50.774912,722.241906L50.959890,722.359797L51.347030,722.498014L51.998580,722.321855L52.895655,722.323210L54.288912,722.031870L54.843251,722.052196L55.467659,721.955987L55.848180,722.015609L56.605270,721.859777L58.240605,721.469519L59.048346,721.157855L59.938188,720.747273L61.013678,720.062971L61.613086,719.848873L62.142423,719.751309L63.871082,719.224197L64.422220,718.912537L64.980489,718.678115L65.567612,718.501960L65.924169,718.443693L66.907350,718.426078L67.589543,718.781098L67.650014,719.035846L67.183390,719.525017L66.556784,720.014189L66.403351,720.287909L65.547388,721.031835L65.256896,721.423447L64.581447,722.011544L63.830928,722.441101L63.612055,722.714825L63.188201,723.027847L62.199457,723.496703L61.871242,723.614595L60.592992,723.945234L58.245503,724.647168L57.538423,725.038788L57.012302,725.468352L55.998029,725.820677L54.961976,726.387108L54.057619,726.698781L53.289413,727.227272L51.094123,728.243605L49.804744,728.946912L48.283859,730.297972L47.362811,730.903717L47.134505,731.158483L46.765251,731.785913L47.335718,731.903810L47.219123,732.061007L45.937073,733.176295L45.516569,733.431065L45.103761,733.566580L44.443265,733.722423L43.789407,733.956866L42.793469,734.543651L42.231317,735.032867L42.097029,735.484138L42.240374,735.778211L42.188203,735.935411L41.789397,736.366358L41.617288,736.934179L41.466201,737.149653L41.228978,737.384101L40.184752,737.873324L39.441619,738.519752L39.130516,738.930377L38.760617,739.224455L38.240078,739.521245L38.109036,739.595781L37.446237,739.809903L37.005273,740.025381L36.768055,740.259833L36.247602,740.572886L35.435491,741.140721L35.442865,741.552708L36.339028,741.554063L36.570108,741.632666L36.554735,741.868475L37.440935,742.242517L37.268885,742.615204L36.918946,742.947235L36.139577,743.318569L35.945809,743.515078L35.871941,743.691259L36.014306,743.985346L36.433782,744.123580L38.213114,743.635694L38.689314,743.695325L38.414790,744.715822L37.786008,745.263342L36.437915,746.045323L36.067007,746.339413L35.924918,746.770386L35.506748,747.162057L35.575266,747.437176L36.867727,747.792256L36.922440,748.106679L36.539842,748.635236L36.850773,749.341337L37.405997,749.499905L37.578314,749.657118L37.368865,750.676295L36.835689,751.028671L35.074332,751.947564L34.849934,752.142727L34.670826,752.633348L34.669325,752.829868L34.888503,753.281187L35.159746,753.380125L35.991563,753.381480L36.235455,753.420784L36.537418,753.716243L36.662307,754.304451L36.560823,755.285707L36.688191,755.482229L37.148378,755.639448L37.877485,755.758717L38.504734,756.329313L39.464382,756.330668L41.088889,756.117881L42.405066,755.865788L43.877093,755.338564L44.270518,755.358894L44.660641,755.437504L45.276968,755.459189L46.161930,755.303326L47.217698,755.306037L47.928829,755.189478L49.267582,755.251823L49.756181,755.468676L49.945582,756.056891L49.822049,756.527192L49.359015,756.958191L48.675338,757.329555L48.293209,757.466445L47.073679,757.718539L46.767312,757.839165L46.723762,757.855430L46.129615,758.344711L45.124838,758.716079L44.460611,759.126752L43.897641,759.616037L43.262233,759.889821L42.281753,760.240861L41.264311,760.846712L40.410198,761.394283L39.900246,761.531176L38.966183,761.646384L38.003201,761.703310L37.123972,762.132965L36.449238,762.524672L35.599862,762.817435L34.863184,763.012611L34.122170,763.266070L33.660586,763.500553L33.066440,763.989850L32.885611,764.342254L31.550471,766.144946L31.381525,767.184553L31.619306,767.675217L31.628196,767.684705L31.880231,767.950369L32.342371,768.245852L33.208361,768.385462L33.703236,768.679591L33.871472,769.351888L33.943886,769.641952L33.734774,770.466063L33.479059,770.799504L33.559245,771.427079L34.063591,772.076344L34.516576,773.076678L35.017522,773.589046L35.705604,773.687996L36.245000,773.944181L36.374720,774.082439L36.609343,774.631409L36.958722,774.829309L37.508291,775.634468L38.824897,776.775794L39.113497,777.305795L38.883004,777.757178L38.125182,778.639615L37.773067,779.168267L37.783287,779.717252L37.983166,779.934136L38.835497,780.113065L38.866561,780.504812L39.487872,780.800318L40.430135,780.900627L41.292788,780.903338L42.107216,781.003647L42.937860,781.201555L43.179452,781.437418L42.769457,782.574716L42.754344,782.810581L43.095870,782.988158L43.360512,783.008491L46.359417,782.268364L47.200376,782.290052L48.542777,782.627583L49.282925,782.569294L49.841982,782.473051L52.226100,781.654304L53.230372,781.617705L53.680257,781.755969L53.855214,782.050122L53.615622,782.285986L52.394955,782.929870L51.926291,783.420578L51.908080,783.576467L52.102163,783.853000L52.456443,783.991266L53.173342,783.953311L53.519969,783.874689L54.030713,783.542578L55.526528,782.938003L56.775146,781.880679L57.340324,781.528239L57.775307,781.372353L58.119887,781.379130L58.774784,781.318131L59.023291,781.494351L59.413922,781.629904L59.703251,782.643849L60.501290,783.013914L60.774346,783.365001L60.638536,784.048200L60.532512,784.282711L60.181068,784.732757L60.046212,784.850691L59.750124,785.026914L59.370107,785.163826L58.262820,785.264138L57.944652,785.402406L57.511494,785.754854L57.661533,786.046301L58.013998,786.299794L58.724783,786.435351L59.030344,786.589887L59.293956,786.922003L59.671892,787.096873L59.819358,787.389679L59.802211,787.545571L59.711142,787.682485L59.154713,788.171852L59.230983,788.386035L59.396642,788.522949L59.932448,788.756111L60.312751,789.126189L60.447659,789.711807L60.250527,790.533304L59.674789,791.236865L59.478907,791.550012L58.989157,791.981099L58.317612,792.273913L57.908772,792.451499L57.606746,792.745669L57.423595,793.019506L57.523791,793.156424L57.830555,793.252674L59.116292,793.249963L60.816971,793.050685L61.643156,793.028995L61.797276,793.146935L61.779848,793.182181L145.040925,765.379139L145.615433,766.201874L145.607423,766.631541L145.705390,766.826721L145.950902,766.864673L146.414927,767.020547L146.259389,767.607445L147.480454,767.604734L147.836156,767.799916L149.333403,767.836513L150.023246,768.187569L151.279770,768.126574L152.161913,768.027628L152.547975,768.026273L152.593739,768.183502L154.278704,767.633198L154.867365,767.397354L155.386510,767.025968L155.815997,766.536662L156.341094,766.047357L156.626802,765.655642L157.047161,764.892548L158.077888,763.874642L160.140181,762.035378L160.458126,761.643673L160.831242,760.724728L162.242994,759.569955L163.273918,758.805532L163.073365,758.728277L163.071023,758.533106L163.478869,758.062798L163.833598,757.807992L164.068442,757.573517L164.311594,757.416297L164.602686,757.358017L165.234868,757.337687L165.687537,757.278052L165.715331,757.394612L198.430519,744.333643L219.457282,735.942187L253.816219,725.710914L261.470237,720.960016L261.554951,721.129399L261.340101,722.049486L261.429011,722.224290L261.437885,722.231065L261.615210,722.342181L261.863889,722.321855L262.244794,722.184993L263.319089,721.636191L263.949854,721.420737L264.593351,721.165985L265.601540,720.676810L266.148492,720.675455L266.392432,720.968147L266.374965,721.320462L266.080245,721.691749L266.145917,721.886878L266.037781,722.033225L265.665465,722.533245L264.949354,722.964158L264.203344,723.590203L263.893687,724.059061L265.468635,723.099666L267.164197,722.316434L267.654528,722.393673L267.899667,722.628100L267.701298,723.195876L266.141232,724.760995L265.313511,725.992774L265.534258,726.305802L265.689822,726.422340L265.942669,726.481965L266.797939,726.519908L267.037396,726.675744L266.440915,727.282831L266.388882,727.740858L266.387915,727.751699L266.088445,728.182625L266.040845,728.289679L265.801828,728.827661L265.351466,729.532325L265.675232,730.176010L266.060676,730.176010L266.823768,730.097413L267.402965,730.096058L267.522583,730.272225L267.283141,730.819699L266.809577,731.544698L266.154761,732.737226L264.525916,734.615475L263.931717,735.164318L263.693705,735.457035L263.857114,735.652180L264.697362,735.534280L265.133480,735.573580L265.453656,735.826997L265.672343,735.748397L267.607138,734.867536L269.222437,733.985324L270.392740,733.437840L271.977684,732.752133L272.648786,732.360495L272.964443,732.027129L272.742302,731.518950L272.763181,731.303483L272.912891,731.088016L273.512310,730.619139L274.012018,730.461943L275.159744,730.186851L275.312698,729.913115L275.113584,729.581109L275.104469,729.307374L275.797509,728.700280L276.629108,728.227344L293.183128,728.131131L339.285343,727.862818L339.494675,727.861463L343.038228,727.834361L348.131611,723.643051L353.846041,723.285311L352.554221,724.452035L352.059728,724.744734L351.500675,725.233921L351.597145,725.430409L351.853753,725.430409L354.128504,724.647168L355.077961,724.489978L356.938617,724.489978L357.531121,724.392411L358.108888,724.195924L358.956737,723.706740L359.401060,723.373391L359.880263,722.905890L361.184512,722.824586L366.540973,723.040042L374.211205,723.348999L382.290352,715.361010L383.741858,711.671349L385.576938,707.010268L388.022611,705.427697L393.214911,702.067493L395.286990,701.060799L397.650485,699.911848L400.865884,698.561027L402.201963,698.000107L410.217834,694.630565L410.526889,694.485596L413.881409,692.905851L416.103311,691.868050L422.765870,688.754685L424.987222,687.715555L426.577817,688.555530L427.174545,688.868489L428.035707,689.425314L428.392084,691.118832L431.446184,690.813998L434.130762,690.544389L434.382585,690.537615L435.925640,690.486132L440.553761,690.331683L442.097321,690.278845L444.915472,690.178589L449.818678,690.005173L451.677881,689.938787L453.369900,689.877820L456.188545,689.776210L456.174179,689.875111L456.193539,689.969948L456.224649,690.110848L456.390056,690.444132L456.568048,690.572840L456.742377,690.697483L456.838796,690.893932L456.614506,691.931727L456.791598,692.225725L457.244898,692.362562L458.047773,692.362562L458.342758,692.437078L459.443103,692.714819L459.527482,692.603723L459.847690,692.061790L460.985374,690.133880L461.365649,689.490345L461.905053,689.467313L463.523244,689.395508L464.063157,689.371122L463.996265,689.532344L463.872839,689.923884L463.874108,689.956399L463.885661,690.268006L464.009600,690.902061L464.154184,691.224508L464.276403,691.614697L464.306141,691.706826L464.566106,692.186435L464.592949,692.236563L465.385130,693.932819L465.658846,694.514048L466.178953,695.627736L467.020344,697.422931L467.382057,698.168112L467.762764,698.951233L468.300084,700.052756L468.846953,701.175966L469.163920,701.827674L470.448017,704.571381L470.979027,705.704104L471.132342,705.992706L471.300917,706.307052L471.593853,706.857159L471.747688,707.144408L472.262598,707.786654L472.460491,707.992607L472.582996,708.119973L473.286895,708.682281L474.009766,709.210716L474.184092,709.321823L474.767615,709.693084L475.266473,710.062991L475.318174,710.099575L476.286714,710.690344L479.724858,708.569819L481.415238,707.526504L515.096732,696.439298L532.189702,690.813998L546.092387,686.604627L549.650525,685.084565L560.927838,680.265704L561.704835,679.872831L575.672521,672.799921L585.394409,662.594097L587.034261,653.453533L582.874719,648.970122L585.988963,639.270916L592.020028,627.890187L596.100413,616.263748L603.806620,604.265714L604.466791,603.913640L606.510839,602.271089L607.686761,601.273108L608.085716,600.980621L608.689258,600.707092L609.164184,600.628554L609.955430,600.864168L610.457507,600.903437L611.204336,600.728758L611.628692,600.610951L612.439251,600.239927L612.776018,600.142432L613.114954,600.239927L613.949990,600.241281L615.933891,599.772763L616.577499,599.519547L618.269964,598.912914L618.599940,598.808649L620.292792,598.269722L621.142613,597.780899L621.790440,597.271765L624.744221,595.003702L627.188417,593.909626L631.294690,592.347059L632.543958,592.015320L634.297022,591.215088L635.760842,590.471728L640.363996,588.420396L641.197248,588.030442L642.855324,587.228874L643.570809,586.661551L643.889291,586.271601L643.918606,586.133495L643.865316,585.702927L643.210586,584.900016L643.085845,584.587247L643.614406,583.902137L643.880140,583.726121L644.544063,583.119544L645.995290,582.162294L647.224524,581.594987L648.856602,580.873332L650.212820,580.560571L651.152037,580.189590L652.470135,579.741437L652.843905,579.584380L653.461975,579.409722L655.459951,578.705678L656.436910,578.218264L657.486422,577.808025L658.119259,577.396433L658.744453,577.103987L660.836966,575.951808L660.963848,575.813710L661.039395,575.775800L664.765487,572.667261L665.254621,572.353161L665.544324,572.099986L666.216517,571.672161L666.863367,571.259231L667.607942,570.497004L669.173866,569.637302L669.838393,569.422039L672.032159,568.856128L674.563864,567.939574L675.656686,567.098839L676.539222,566.806411L677.185368,566.551890L677.737447,565.593379L677.543903,565.397075L677.086903,565.318553L675.902776,564.808163L675.751059,564.767548L675.624475,564.575306L675.498930,564.383064L675.369193,564.182700L674.040833,563.666898L673.800913,563.527455L673.224799,563.193065L672.906710,562.494503L673.215324,561.686286L674.896973,560.323021L676.402721,559.252182L679.847248,557.474686L680.640422,556.856018L684.188589,554.145822L685.032608,553.219870L685.041644,553.058777L685.088768,552.327767L684.933247,551.839075L684.862067,551.613005L687.259254,549.943884L687.583200,549.885675L688.261424,550.023752L690.842571,549.654193L692.765668,548.931319L693.869585,548.305915L693.962221,548.261243L694.956880,547.779331L695.960966,547.212139L697.241241,546.685559L697.754882,546.490630L698.886644,545.728514L701.544760,544.477730L702.925828,544.087877L702.992457,544.029670L703.605005,543.383979L704.698449,542.739644L704.521117,541.603941L705.334999,540.332883L705.172473,540.194814L705.271738,539.490932L705.450102,538.942717L705.826066,538.278095L707.075806,536.263939L707.859471,535.048418L707.891360,534.991568L707.934648,534.932010L708.279117,534.397347L709.054573,533.192668L712.042529,530.925458L714.104196,530.222968L715.674546,529.500177L717.748982,528.758440L718.838767,528.315836L720.584489,527.606589L721.714423,527.099018L726.776993,525.577670L726.897487,525.500521L727.466120,525.089055L727.992061,524.976715L728.365136,524.895505L728.685413,524.504343L728.674160,524.092881L727.430709,524.502990L727.744651,523.191456L728.680247,521.254626L728.940515,520.550822L729.340256,520.062222L729.240195,519.729270L729.447884,519.435570L729.497842,519.243379L729.581468,518.926670L730.342247,517.870980L730.646667,515.894962L730.700870,514.902901L730.769657,513.683473L731.075330,513.136696L730.969957,513.116395L730.882055,512.940452L731.251711,512.197434L730.865844,512.197434L730.031616,512.137884L730.022711,512.117583L728.838151,511.999837L727.841321,511.156672L727.896869,510.687046L727.899360,510.179527L728.069114,509.611106L729.431635,508.536527L729.457232,508.458031L729.807928,507.872023L729.627157,507.558043L729.571772,507.460600L729.203927,507.303611L729.064857,507.284663L726.852748,507.360452L724.610097,507.574283L723.721975,507.763754L725.328144,506.648585L726.936906,505.532071L731.245585,502.541201L733.227736,501.164877L737.117085,498.465041L741.006471,495.765249L741.881990,495.157632L750.498970,489.252091L734.968338,488.962503L731.022621,478.150663L728.366358,470.884519L727.815539,469.378558L726.404964,468.462540L724.554484,463.414382L727.139818,461.291521L726.716977,460.140127L727.273826,459.452812L727.013567,458.743853L727.672839,457.972659L727.852525,457.363825L726.915715,454.445510L727.226566,454.189805L725.893085,450.559913L729.273084,447.668773L731.475923,445.974969L731.270821,445.048255L735.255560,441.603898L734.505579,439.567891L735.855438,438.113615L736.210473,437.246467L736.053572,436.452374L738.638683,434.329851L738.318045,433.094768L738.983057,431.971974L739.096327,431.187375L738.642054,429.946905L739.953332,428.755142L741.950140,427.230617L742.392160,426.712526L743.266388,425.688521L743.729538,424.385867L743.519717,422.713939L744.313699,421.946968L744.216225,421.680490L745.571475,419.876028L746.067094,418.662694L746.187146,417.526468L747.323440,416.593146L747.274462,416.460588L748.706634,415.226989L751.726991,411.363933L754.485820,408.638476L756.468799,407.009985L762.514625,402.033989L771.831781,394.284224L779.414931,388.176631L781.032609,387.079830L782.850558,386.164257L784.640945,384.810517L787.249526,383.477072L790.280535,381.105028L789.921729,380.131337L790.374309,379.529544L790.944100,377.793148L790.558421,376.379972L795.077525,372.557020L795.969642,372.055323L806.203734,363.659221L807.761338,362.381384L808.481728,362.136635L809.886663,361.011607L811.969754,359.343010L811.805505,358.750757L811.382453,357.220102L809.876410,357.121395L810.574878,356.681943L811.273347,356.242492L811.593334,356.047782L814.159847,354.348135L815.522448,353.274540L816.386105,352.747210L817.452693,352.044106L819.567152,350.540554L820.296071,349.934811L821.922624,348.490770L822.818789,347.767402L824.088812,346.830409L826.409684,344.838809L827.833757,343.374531L829.589263,341.734501L830.750950,340.582569L831.412102,340.034998L832.417973,339.019631L833.689354,337.575683L835.667623,335.797807L836.467506,335.017710L837.577580,334.079435L840.054657,332.205606L842.005596,330.507551L842.393955,330.253385L845.391863,327.617111L845.872892,327.226405L846.294840,326.719435L848.174371,324.943025L851.344370,322.325760L851.819748,322.052680L851.931593,321.955344L853.673072,320.861677L856.390206,319.397608L860.363967,316.136955L861.350369,314.829738L861.071176,314.341731L861.117239,314.048386L861.022402,313.287316L861.343960,312.642504L862.819307,311.021697L863.500809,310.456649L863.876774,310.045706L865.363559,308.835864L866.384283,307.723357L867.146097,306.610858L868.311322,305.653817L868.572859,305.341564L868.978903,304.735982L869.760987,303.408577L870.160402,302.217707L870.322817,300.305032L870.769402,299.269629L870.613104,298.899264L870.119798,298.176109L869.309805,296.771710L869.259540,295.268651L869.509985,294.291400L870.812756,291.696237L871.302314,291.129902L872.254368,290.329738L873.613481,289.372789L873.867777,289.236276L875.910545,287.908993L877.991049,286.718232L878.389336,286.484406L880.663487,285.293655L886.117864,282.912178L886.702586,282.599967L887.723314,282.190443L890.769494,280.863216L892.824421,280.003632L897.289573,278.033094L899.919885,276.842403L907.660507,273.462291L908.103460,272.993325L908.657880,273.091983L909.377670,272.848716L909.513871,272.785196L911.335759,271.936465L913.014569,271.368845L917.055544,270.249829L918.973570,269.601127L921.608029,269.057841L926.133318,267.426643L927.986713,266.600914L929.601392,265.854923L930.565279,265.180561L931.939171,264.517013L932.658929,264.273758L933.553845,263.771032L934.512829,263.446693L936.094944,262.612875L937.877789,261.960148L941.999944,259.968199L945.679553,257.877624L949.337018,254.997889L949.718878,254.569514L951.992104,253.054670L954.435566,251.630378L958.002197,250.325012L960.302993,249.248026L961.747409,248.411576L963.198356,247.223796L964.065725,246.283308L963.981567,244.968526L963.188275,243.195680L964.142931,241.030995L965.385750,240.013522L966.215943,239.568971L968.651623,238.262348L970.849377,237.270564L971.711821,236.680091L972.741340,236.182852L973.913591,235.338359L974.123490,235.546442L974.216293,235.409972L974.485184,235.176217L975.684254,234.415503L976.710191,233.439956L976.842540,233.127836L977.378428,232.522515L979.118003,230.786281L979.296792,230.180968L980.168771,229.029798L980.742761,227.800271L981.030510,227.409797L981.572555,226.882861L983.046621,224.111744L983.235407,223.076809L983.009048,222.120243L983.084790,221.632505L982.769342,220.754309L982.766523,220.559755L982.873111,219.876117L983.227764,219.427566L986.116074,217.340197L986.870228,216.910567L989.121820,215.292033L992.028768,213.554627L992.644877,213.047999L993.549649,211.642960L994.084685,211.037715L995.160431,210.159575L994.962301,209.808320L995.965194,208.872094L997.068036,208.200663L1000.000000,205.801364Z "/></g><g fill="#000" font-family="Arial" font-size="12px" id="mylayer-label" stroke="none"><text text-anchor="middle" y="512.049419214"><tspan dy="0" x="469.626984991"><![CDATA[N]]></tspan></text></g></svg>