<?xml version="1.0" encoding="utf-8"?><!DOCTYPE svg  PUBLIC '-//W3C//DTD SVG 1.1//EN'  'http://www.w3.org/Graphics/SVG/1.1/DTD/svg11.dtd'><svg enable_background="new 0 0 1000 1001" height="1001px" pretty_print="False" style="stroke-linejoin: round; stroke:#000; fill: none;" version="1.1" viewBox="0 0 1000 1001" width="1000px" xmlns="http://www.w3.org/2000/svg" xmlns:xlink="http://www.w3.org/1999/xlink"><defs><style type="text/css"><![CDATA[path { fill-rule: evenodd; }]]></style></defs><metadata><views><view h="1001" padding="0" w="1000"><proj flip="auto" id="robinson" lon0="-112.291057896"/><bbox h="1.21" w="1.33" x="-1479.74" y="-774.89"/></view></views></metadata><g class="" id="mylayer"><path d="M1000.000000,348.953252L999.575907,347.966142L999.191881,347.299843L997.999571,346.177005L995.438651,343.302045L993.083292,340.575149L992.024182,339.069803L990.750517,336.861139L987.916296,331.888555L986.724263,328.211553L986.604527,324.855360L986.873883,321.227707L986.689716,318.969676L985.841322,315.995984L985.258487,315.008865L981.962052,311.689678L981.323260,311.196118L979.314836,310.023913L978.102046,308.938081L977.023604,306.396246L975.113256,304.101190L972.345740,301.991217L970.122014,301.509995L961.925516,301.596369L954.398010,301.139825L952.965062,300.485856L952.510570,299.535751L952.644950,298.079745L951.143208,295.871056L948.466799,294.686508L946.479117,294.316337L945.473088,292.305071L945.151004,290.170414L945.152167,287.579210L946.534823,282.359779L946.867168,279.583483L949.448211,273.315217L950.235030,271.489027L951.721362,269.082897L953.932377,266.837175L957.267655,264.282972L959.527890,262.395083L961.069015,260.568887L962.411420,257.743219L963.099425,255.559186L963.111407,253.770005L962.520045,250.191641L961.191620,248.599885L960.278328,247.600410L960.110021,247.242573L959.569821,246.786022L958.254603,246.206080L957.613701,245.823564L956.877500,245.576780L956.103426,244.059057L950.518215,243.429757L948.560805,242.701744L946.665898,242.664726L943.835264,242.097122L941.196115,241.381447L937.915347,240.320274L936.773780,238.481729L933.056788,237.901785L930.534839,236.778915L930.022772,234.557852L930.453691,231.658129L931.035416,230.004669L929.954166,228.129101L930.048549,225.352766L929.471435,223.748660L928.468735,222.588768L930.064539,219.503946L932.575318,216.826319L933.533041,214.728637L933.899523,212.248435L935.024224,209.903965L936.040497,206.683400L938.897788,203.882371L942.250869,201.439180L944.130760,197.539943L946.455506,194.232993L946.426339,193.196485L945.379919,191.740438L944.651560,189.087470L943.696384,187.199543L943.552861,184.583590L944.068127,182.782037L943.797622,180.733694L941.996184,177.476087L942.222789,175.551136L942.519008,173.786596L942.142839,172.231826L941.385066,169.899671L941.488258,167.357743L942.926997,165.198337L943.130124,163.458471L943.025061,161.076952L943.195959,159.127314L942.547802,157.276390L942.090282,156.992582L941.495885,156.437305L941.466777,155.400787L941.727475,154.931886L943.799342,151.205355L944.256269,149.848009L944.435919,148.293229L943.675431,146.269547L945.151533,143.061268L947.338575,141.037584L948.715494,138.828804L948.811714,136.977871L950.184111,134.830787L952.901073,132.942833L954.191662,131.585480L956.376257,129.352017L956.850126,128.142737L956.733715,127.673833L957.413410,126.094365L961.989632,119.862866L964.415967,110.447729L963.793640,105.302095L963.661431,102.130801L968.569208,96.034999L970.032972,92.456487L968.995535,88.396723L971.548690,82.769809L971.930234,77.389682L971.015319,75.822534L969.326727,73.737115L968.593948,70.664513L969.476137,69.220760L968.053978,66.049436L964.555477,63.988691L961.177949,61.335635L958.702487,59.398286L957.647579,56.226954L958.938669,54.351301L954.238504,48.687318L947.388981,44.479430L921.276327,51.266344L897.095453,58.880014L889.262579,61.347975L881.426633,63.803594L869.479231,67.567229L864.599208,69.097362L847.764873,74.403462L847.045916,74.625578L790.477987,93.579400L789.755223,93.826194L754.106029,108.177234L716.910771,122.577580L702.058847,128.315491L629.942328,157.004922L549.528750,188.976416L548.108395,189.531688L546.595029,190.272052L545.811949,190.555858L544.449555,191.024754L542.743083,191.826814L540.144689,193.393915L539.223512,193.801115L537.741394,194.467441L534.702078,195.417572L532.216431,196.639170L530.991392,197.021690L507.402765,216.665908L446.923398,236.667862L444.471069,237.543948L437.111751,240.122847L434.646430,240.986592L399.391146,255.053280L395.966499,256.410589L362.666484,267.639219L357.464006,269.391376L352.261523,271.143532L345.247022,273.512643L338.239375,275.869413L332.507165,277.806653L326.791736,279.731553L323.384458,280.879088L319.967254,282.026624L318.658231,282.470831L305.453028,287.369446L295.177214,291.194556L289.687812,293.230500L260.360344,303.471900L258.980358,303.990139L248.769400,307.876927L238.555362,311.751373L227.307841,316.020662L217.620876,320.339302L184.898618,334.899252L180.098606,337.033884L170.497719,341.179755L168.275142,342.142189L166.069353,343.092284L127.989248,359.539988L89.898981,375.987621L88.143493,376.752626L73.933897,382.884995L57.978698,389.782355L51.487914,392.583248L45.007049,395.384138L39.348911,397.740833L38.581814,398.049300L32.146646,400.714461L26.718258,402.997120L22.362330,404.921956L21.224302,405.415503L18.944444,406.427276L16.671448,407.426709L13.502319,408.734609L3.978867,412.633628L0.806668,413.929187L1.267369,415.385149L1.711286,416.853448L1.772549,417.100221L2.210916,420.345284L2.550557,422.233095L2.828458,423.232524L3.425815,424.639128L3.573589,425.194366L3.628234,425.774281L3.540856,426.341857L3.139403,427.563380L1.414994,431.092222L0.903750,432.511161L0.542987,434.016470L0.241537,437.199825L0.273525,439.087628L0.342887,439.926651L0.562731,440.852044L1.420526,442.307995L1.757888,443.147017L1.831540,443.603544L1.812062,444.084748L1.709379,444.590629L1.425094,445.244572L0.583385,446.811568L0.192371,447.675267L0.029401,448.218163L0.000000,448.699366L0.080517,449.143554L0.273157,449.439679L0.562726,449.686450L1.689379,450.266361L2.525855,450.796918L3.115047,451.450861L3.460754,452.203511L3.489442,452.758745L3.373550,453.930905L3.421484,454.683556L3.559486,455.399190L3.876154,456.114824L5.123078,458.138341L5.814382,459.483239L6.256808,460.865151L6.426321,461.827555L6.583751,463.900422L6.434135,466.775290L6.202089,467.799384L6.152851,468.280585L6.238778,468.786463L6.837971,470.439819L7.794897,472.574374L8.065153,473.462743L8.392562,475.140774L8.698456,477.571449L9.032872,479.397539L8.935011,480.162523L8.560224,481.211290L8.032153,482.482149L7.388036,483.765346L6.341155,485.505064L5.897027,486.714229L5.897566,487.355827L6.122009,488.219516L6.328528,488.651360L6.857480,489.342311L7.444524,490.107293L8.157543,490.859936L8.817272,491.797654L9.520454,493.549707L10.262799,494.660163L11.264550,495.536188L11.902423,495.906340L13.268970,496.572613L14.619601,497.374608L15.427227,498.028542L17.653926,500.039698L18.449297,500.644278L19.190337,501.989161L19.426926,502.741801L19.563524,503.531457L19.626843,504.345789L19.555135,505.295842L19.307513,506.776445L19.104098,509.034363L19.189329,509.577250L19.715528,510.576656L20.457039,511.563723L22.101078,513.426812L23.326035,515.400944L24.472035,517.017264L26.070262,518.855673L26.976596,519.707017L28.244944,520.657067L29.404251,521.767514L29.683348,522.211693L29.832675,522.692887L29.930616,523.766319L29.849597,524.518955L29.668587,525.308606L29.050385,527.295070L28.830986,527.850293L27.596054,530.910186L26.003219,535.845492L25.436998,537.042303L24.761589,538.239113L24.016698,539.435923L22.066813,542.175013L21.878512,542.495807L21.180190,543.680277L20.485963,545.160865L20.027632,546.592099L19.832641,547.924627L19.964409,551.650766L20.259363,554.315818L20.246004,556.339281L20.136268,557.375689L19.285837,561.583008L19.160510,563.075927L19.263994,565.889028L19.601466,568.245615L19.944878,569.627488L21.559231,574.525728L22.029261,576.536843L22.040698,577.301806L21.908702,578.967452L21.492443,581.965613L21.520831,582.878632L21.882964,586.172904L22.388676,590.244472L23.620579,596.598576L24.065660,598.029790L24.525437,600.398696L24.626728,601.644838L24.756382,606.000163L25.104353,609.516499L26.086110,615.981612L26.817479,621.718774L27.170212,623.137640L27.400036,624.581182L27.440026,625.580557L27.340320,626.616946L26.615256,629.849489L26.051544,633.291774L25.743514,635.167140L25.221284,639.534764L24.874830,644.729022L24.399079,648.245320L24.328257,649.836907L24.199245,653.390215L23.504065,662.890360L23.282927,664.555968L23.051157,665.580008L22.710193,666.604047L21.830274,668.454720L21.020747,670.428770L20.700364,671.415795L22.030196,672.452171L24.120792,673.673613L26.097142,675.154149L27.335475,676.301564L27.399729,676.400266L27.958704,677.091182L28.198213,677.535343L31.156084,679.928872L35.859322,683.432800L36.770985,684.025013L38.274661,684.802292L39.378547,685.209438L40.233172,685.332816L41.145732,685.369829L42.645428,685.332816L46.834601,684.654239L49.513075,684.407483L50.783727,684.407483L51.952947,684.518523L52.183615,684.567874L53.074158,684.715928L55.113714,685.332816L55.572887,685.542558L56.123934,685.962041L56.513267,686.529578L56.830948,687.208155L57.065609,688.071798L57.215624,689.034142L57.272530,690.699738L72.798033,686.467890L72.769344,686.751658L72.168703,687.689327L71.659010,688.034784L71.326933,688.775049L71.413393,688.923102L71.855623,689.663367L72.597079,689.651030L74.408303,689.589341L76.286481,689.317910L78.451128,689.799082L79.220953,690.539347L79.811590,692.155591L81.699947,693.401703L82.281508,693.784172L82.460228,694.462748L82.042795,695.338726L82.221516,696.017301L82.703998,696.560161L88.018866,695.338726L91.288763,694.117291L93.725320,692.698452L96.011000,691.551042L99.300782,691.008181L103.776349,689.725056L107.804595,687.282181L110.132515,686.344512L113.263457,685.801651L117.030220,684.382808L118.973865,683.297085L120.914783,681.841228L121.129918,681.668499L124.100016,680.718490L129.425269,678.621068L133.829351,677.609369L137.659109,676.523644L140.641628,675.104798L141.491332,674.290503L142.917329,673.278804L145.673533,672.267104L149.267042,671.588524L150.866680,670.835918L152.293142,668.269653L153.101698,667.529384L153.746570,667.208600L154.725700,666.715087L158.406570,666.307939L160.659441,666.505345L160.736884,666.776777L160.848429,666.826128L162.958570,667.726789L165.510312,667.529384L166.863286,668.059910L167.504593,668.602774L168.691880,669.145638L174.808371,670.428770L178.724610,670.169676L179.040302,670.441108L179.301324,670.971634L179.107338,671.588524L180.091103,673.069061L178.627525,675.845065L184.584312,677.004818L186.132441,677.880801L188.708992,678.621068L192.788967,678.621068L195.207799,679.645103L203.106765,681.668499L205.310551,681.668499L207.256172,680.989921L209.797996,680.792517L210.956968,681.261352L212.827874,682.556818L214.761151,683.025654L218.841135,683.025654L224.028576,684.444497L227.741785,684.247093L230.428456,683.235396L232.744832,682.889938L239.684302,682.692534L241.008499,682.149672L241.687368,680.928232L242.494051,679.941210L272.661456,683.728906L282.381764,686.369187L288.619979,689.577003L296.111596,694.191317L293.813779,698.879652L293.666925,699.286797L294.789714,700.088748L295.560763,701.112778L295.507360,702.334211L294.533719,704.086165L292.964963,705.640714L290.173745,707.269290L283.214269,713.290076L281.566100,714.844622L280.129352,715.732934L274.741758,718.496568L272.773060,720.199164L270.509279,723.986819L269.708795,724.998504L268.321178,726.084216L267.310667,726.491357L266.316142,727.441354L264.336011,729.736151L261.810917,734.547817L260.710691,735.830926L259.103675,737.311437L255.507986,739.815966L251.211460,742.456207L249.693002,744.491906L248.617135,745.713324L247.354080,746.860717L245.255704,748.082135L242.507554,749.365240L238.119610,751.598336L235.860324,752.412613L233.032970,752.141187L232.018455,752.412613L231.224911,752.893777L229.885792,753.695717L227.163918,754.645707L225.116600,755.793097L223.432236,757.680737L222.078904,758.704751L221.734946,759.037864L220.107005,759.716428L218.974787,759.913828L217.118660,761.270954L215.433369,763.035217L213.923849,765.465704L212.418536,766.477378L209.492677,767.365677L206.783724,768.846175L204.935598,770.474723L203.547986,771.560420L202.386628,772.238981L201.040153,773.250654L199.475425,774.940886L198.482985,776.298007L196.362324,777.988238L191.988099,781.911545L191.452171,782.590104L189.369795,784.354357L183.504533,788.549081L182.740275,789.227639L181.369610,790.979551L179.672158,793.891178L178.973391,794.434023L176.459311,797.135912L172.751077,799.985847L171.229591,802.009176L170.683419,803.563685L170.876387,805.056506L169.981503,807.363591L168.514339,810.003784L168.642767,811.755686L168.316000,812.915396L166.429487,816.024402L165.085121,817.443194L163.814075,818.319144L161.928734,821.711904L160.790269,822.920960L159.051874,824.352086L158.271480,826.042295L158.175912,827.053953L157.010442,829.151291L156.387096,829.558421L155.249800,831.051231L153.245722,832.531704L153.094898,832.803124L152.247224,833.345963L151.069734,835.036168L148.353744,839.637963L146.910801,841.537898L145.906389,842.487865L144.205044,845.263742L144.254200,845.461137L145.793611,847.496779L147.647648,849.520082L148.561625,851.555721L149.030010,854.393277L149.133725,855.886077L148.948630,856.219181L149.249271,857.107458L149.064177,857.440562L149.173845,857.761329L149.070305,857.983398L150.470994,860.697577L152.976739,864.460413L152.883129,864.682482L154.011308,867.458342L155.290336,868.408302L156.761309,869.012822L157.510605,871.184159L159.952857,872.738638L160.993627,873.688597L163.048940,874.367139L163.723565,874.564533L164.364624,875.822920L164.584457,876.267056L164.647814,878.833176L165.503516,880.116236L168.893225,882.484960L169.509719,883.644647L171.124498,887.456807L171.531831,889.689818L171.340632,891.034559L170.370591,893.477298L168.278273,897.671897L167.184418,901.052247L166.925197,903.359272L166.719680,911.341320L166.418167,913.438610L166.513696,913.981438L166.379003,914.795679L166.305846,916.892967L166.558108,917.546827L166.454585,917.768893L169.021516,925.282106L168.980506,926.910583L168.862820,927.354713L168.365367,929.143570L166.541738,933.140737L165.967739,935.299699L165.954826,936.323663L166.568350,937.470996L167.930980,938.556644L168.640060,940.246801L168.582957,941.332448L167.032739,943.836838L165.973844,945.045853L166.527963,945.317265L167.037084,947.081439L166.188092,952.559010L166.770452,953.780359L169.133703,954.458886L173.974235,954.520570L182.550568,953.916064L191.293821,953.582969L198.839459,952.707052L204.293361,952.361620L204.977005,952.435641L263.298963,912.969804L324.675407,871.418565L328.373128,868.926462L438.281386,794.717783L459.643677,780.283003L496.499033,754.633369L504.169814,749.439265L511.840594,744.245155L534.179284,729.106932L555.246084,714.721246L565.559135,709.095267L644.503857,676.943129L645.684889,677.819112L648.212456,678.361974L650.762260,678.436001L653.129886,677.140533L657.184840,676.202861L660.111596,677.152871L662.388879,677.288587L663.220149,677.078844L665.199889,676.338577L670.000830,673.772316L670.272178,673.426857L671.487755,673.365168L673.630337,672.760616L676.963188,672.550873L680.539522,671.206052L682.965488,670.663189L684.696783,670.798905L687.260734,671.687227L688.232832,672.760616L689.093593,674.463232L690.083911,674.932069L692.204258,674.796353L695.172188,674.117774L696.986919,674.389205L697.624361,674.796353L698.473089,676.091821L697.919049,677.374951L698.057776,678.250934L699.531910,679.546401L702.126861,679.682117L703.998809,678.867823L705.310831,677.917814L706.339692,677.584694L707.991352,677.041831L709.421078,676.165848L711.631753,673.044385L712.635324,672.649576L713.857754,672.575549L714.633926,673.858680L716.685011,674.401543L718.331937,674.278165L721.454671,673.463871L722.377646,672.785291L722.974698,671.156701L723.034032,670.478122L723.675513,669.466421L725.033853,668.861868L727.488167,668.393031L728.021872,667.307303L725.323429,666.357291L724.638727,665.481305L724.864927,665.074157L726.222091,664.185833L728.175566,663.778684L732.992503,661.755279L735.870849,660.398117L736.210736,659.929279L738.094976,658.646142L739.604113,657.770155L741.912354,657.153262L745.014020,657.091573L747.122304,656.548707L749.715359,655.401286L752.096157,654.796731L756.652571,654.796731L759.302811,654.118149L764.445382,653.920743L765.877216,653.451904L766.610156,652.847348L768.467199,651.773954L772.128298,652.045387L773.065910,651.983697L775.030476,651.860319L776.789182,651.428493L780.709825,649.553136L786.789789,647.060883L794.418800,644.371223L796.546686,643.667962L799.518346,642.964702L802.648827,642.779633L805.740075,642.397158L809.279204,642.298455L812.409683,642.113387L816.149710,642.064035L818.911718,641.595195L824.210251,640.509459L826.706597,640.089970L829.459854,639.904901L831.770189,639.695156L832.496260,639.621129L836.128272,638.819165L840.188313,637.782779L844.755798,636.511974L849.547577,635.105450L853.303899,634.204781L855.889574,633.785291L861.416394,632.699553L867.371239,631.379394L871.306941,630.441710L874.874171,629.738447L877.231525,629.318957L878.549413,629.269605L878.465265,627.098126L878.273820,626.209793L877.980274,625.987710L877.106490,625.309122L876.422260,624.235719L875.343101,622.014885L874.935641,621.175903L874.243617,620.509652L872.915813,620.040809L872.689875,619.053771L872.451650,618.017380L872.439368,617.449833L872.430159,616.894623L872.415524,615.759528L872.457126,615.488092L872.510784,615.105614L872.547894,614.895868L872.563732,614.760151L872.792785,613.168549L872.914045,612.539311L873.044289,611.786692L873.279958,610.540554L874.310156,603.754642L874.366892,603.384501L873.813459,600.842865L871.928666,599.053849L870.234113,597.869396L868.713797,595.710236L867.387299,593.452371L866.697758,591.280870L866.829631,587.345023L866.885050,585.494309L866.511641,581.681836L866.260031,580.312306L870.298111,578.350546L869.930383,578.029755L869.009883,577.203101L867.761589,576.216052L866.466249,575.438750L864.480515,575.117958L862.540225,573.982851L860.685093,572.033425L860.474553,568.874861L860.778283,565.987733L860.681017,562.446680L860.584755,558.510802L860.513408,556.030827L860.502939,554.513229L859.636657,555.339888L858.997036,556.080179L858.311349,556.635398L857.330943,557.202954L856.117733,557.832202L854.886097,558.387420L852.369188,559.362137L851.544313,559.756958L851.377266,559.325122L850.480062,557.634791L848.841301,555.278197L848.641808,553.439806L850.217612,550.478637L852.260522,546.801849L853.245481,543.939380L853.804118,540.879498L854.899927,538.103393L856.072871,534.759725L858.251157,531.786203L860.736234,528.689296L863.673713,525.296267L864.013638,524.827412L866.287129,522.236370L868.816348,519.595972L871.743331,516.918558L876.311155,513.056662L878.196867,511.699445L880.650007,510.428596L883.325516,509.293468L885.875561,507.973265L888.452780,505.246489L889.734816,502.939215L890.486780,500.496218L890.535459,499.176012L890.486102,497.621376L891.358740,495.782956L892.971935,493.290601L895.009504,491.267103L897.131191,489.342311L899.410882,487.972748L901.574944,486.936320L907.577269,483.493900L910.042178,482.469810L912.694246,481.519751L914.924921,480.631383L916.133732,479.545600L916.706771,478.657232L917.171036,478.089664L918.580720,477.053234L919.931666,475.461574L920.338014,474.980374L921.969854,472.722435L924.449087,469.761202L926.457298,468.058492L930.259140,464.628393L933.268445,461.802878L936.104307,458.878652L939.779588,454.979680L942.738043,452.388589L945.198863,450.550147L947.848878,449.192908L950.296074,448.057762L952.664982,447.206402L957.384780,445.750453L958.083887,445.528359L959.864702,440.876721L963.255876,439.346738L966.706719,437.298534L968.133191,436.249754L970.843190,434.016470L973.921278,431.227947L974.781467,430.376583L975.552326,429.525219L976.214002,428.673855L977.309781,426.934111L979.681892,422.504545L980.576817,420.715443L981.375556,418.938679L982.666264,415.508535L983.445619,412.855724L984.736241,406.192841L985.096320,404.687521L985.973914,402.429540L989.434861,395.433493L991.024333,392.126715L991.929428,390.498002L994.559039,386.105410L995.613173,383.958467L996.123610,382.379105L996.275862,381.354988L995.705912,377.147467L995.066074,375.173262L994.324327,374.186159L993.305232,373.680268L992.182533,372.717843L990.259292,371.409930L989.859553,371.039766L989.320622,369.151930L989.388076,368.066115L989.927769,366.005533L990.327460,365.018428L991.116035,363.599463L993.842353,360.193947L996.191530,357.467063L997.609015,355.863013L998.385878,354.875905L999.067462,354.024524L999.566233,352.877011L999.834194,351.519736L999.979081,350.026733L1000.000000,348.953252Z " data-aland="32999560" data-awater="0" data-classfp="U1" data-funcstat="S" data-geoid="3004150" data-intptlat="+46.2834147" data-intptlon="-112.2871542" data-lsad="57" data-mtfcc="G4210" data-name="Basin" data-namelsad="Basin CDP" data-pcicbsa="N" data-pcinecta="N" data-placefp="04150" data-placens="02407801" data-statefp="30"/></g><g fill="#000" font-family="Arial" font-size="12px" id="mylayer-label" stroke="none"><text text-anchor="middle" y="464.485739129"><tspan dy="0" x="508.806585006"><![CDATA[Basin]]></tspan></text></g></svg>