<?xml version="1.0" encoding="utf-8"?><!DOCTYPE svg  PUBLIC '-//W3C//DTD SVG 1.1//EN'  'http://www.w3.org/Graphics/SVG/1.1/DTD/svg11.dtd'><svg enable_background="new 0 0 1000 1001" height="1001px" pretty_print="False" style="stroke-linejoin: round; stroke:#000; fill: none;" version="1.1" viewBox="0 0 1000 1001" width="1000px" xmlns="http://www.w3.org/2000/svg" xmlns:xlink="http://www.w3.org/1999/xlink"><defs><style type="text/css"><![CDATA[path { fill-rule: evenodd; }]]></style></defs><metadata><views><view h="1001" padding="0" w="1000"><proj flip="auto" id="robinson" lon0="-98.2373208262"/><bbox h="4.16" w="2.22" x="-1413.37" y="-441.87"/></view></views></metadata><g class="" id="mylayer"><path d="M683.001244,0.000000L682.780335,0.649197L682.104651,2.592756L681.881134,3.237921L681.775336,3.548406L680.354808,7.536332L678.473545,12.814588L675.808132,20.427537L674.299334,24.725951L673.117835,28.028391L671.957081,31.330832L670.439047,35.641345L669.072909,39.435725L666.419109,46.996263L664.945933,51.141454L662.591358,57.742311L661.994540,59.423775L660.961728,62.327023L660.228305,64.468169L659.648784,66.149634L658.842635,68.375459L657.330266,72.544847L656.795893,74.008569L656.539031,74.798898L656.447622,75.056965L655.641547,77.282790L655.420100,77.952151L655.201049,78.593285L654.841498,79.629584L654.714246,79.944103L654.447832,80.597334L654.120685,81.577181L653.497628,83.436068L653.124514,84.504626L652.781796,85.476409L652.383586,86.532870L651.683695,88.379660L651.216589,89.702252L650.842553,90.758713L650.378910,92.081306L650.228297,92.508729L649.295802,95.145850L648.942046,96.137794L648.360493,97.746680L647.730696,99.488632L647.548873,100.016862L646.993058,101.601555L646.808623,102.125753L646.510045,102.984632L646.137843,104.049158L645.693367,105.512882L645.685968,105.565302L645.516872,106.432245L645.139882,107.303221L644.862233,107.944357L642.897415,112.468594L642.240191,113.976673L642.791190,113.932318L642.999316,113.960544L645.196236,114.250869L645.925092,114.347644L646.725926,114.496839L649.128427,114.944425L649.926645,115.089587L650.035524,115.113781L650.351807,115.186362L650.457235,115.210556L650.266153,115.767013L649.887754,116.678313L648.069530,121.045292L647.462005,122.496919L647.355436,122.678373L647.025378,123.222733L646.916193,123.400154L646.827522,124.162259L646.554011,125.384046L646.399206,126.065504L646.111632,127.005030L644.627647,131.275235L643.946960,133.230901L643.211984,135.315601L643.024280,135.855929L641.929777,138.944672L640.240807,143.722949L639.701218,145.247159L637.797337,144.924575L633.085179,144.130212L626.489027,143.017296L602.574060,138.839832L598.379705,138.178534L596.855211,137.940629L591.838817,137.549495L589.281567,137.432559L586.629852,137.622077L583.290833,137.980952L576.404171,138.722895L570.138102,139.501129L569.248393,139.597904L565.633129,140.057587L549.130922,142.170513L540.392915,143.186653L534.940270,143.819724L523.159448,145.481033L520.384881,145.747165L510.848955,147.033469L503.748242,147.892350L500.303956,148.009287L496.295768,147.932673L493.427938,147.698799L491.798957,147.448796L482.849877,146.065717L479.973676,145.622163L472.318269,144.408440L456.210989,141.710830L453.336141,141.210825L438.703605,138.658378L430.077404,137.283363L429.335460,137.166427L429.207625,137.517237L429.080016,137.900306L428.964206,138.243051L426.725046,144.876188L425.014853,149.654466L424.264487,151.779490L424.652191,151.823845L424.998481,151.868200L438.001660,154.206936L451.216136,156.158571L474.448608,160.065874L477.712160,160.739269L478.777216,160.912658L482.905351,161.594118L494.042418,163.428816L498.463664,164.194954L503.639030,165.086094L504.455379,165.227224L504.896297,165.231257L528.663670,168.957107L531.129853,169.481307L531.280253,169.037753L532.230893,166.243365L532.329735,165.949007L535.069668,158.291660L535.218648,157.888430L536.229857,155.102108L539.614346,155.674695L542.619586,156.178733L548.339975,157.037614L549.787855,157.295681L553.159618,157.896494L554.011425,158.049722L555.088507,158.215046L560.891027,159.094089L562.216826,159.291672L562.286799,159.303769L562.825758,159.384415L568.150244,160.255392L570.167205,160.582009L571.231552,160.775560L573.353346,161.162661L575.185729,161.497342L576.147146,161.654602L576.566984,161.727184L580.958641,148.920587L593.866336,151.154483L599.019893,152.017396L602.867307,152.654500L613.367005,154.400487L617.621302,155.106140L621.962833,155.823890L622.605385,153.985160L635.776415,156.465027L634.404116,160.364265L633.241547,163.666722L633.173084,163.864305L632.696350,165.235289L631.262622,169.332111L630.783298,170.699063L635.563109,171.400684L636.119336,171.481330L636.437196,171.529718L636.657590,171.582138L637.125986,171.686978L642.953461,173.013607L644.145793,173.005542L643.339942,175.384603L641.831415,179.610461L641.135271,181.525807L640.523775,183.215343L639.240812,186.884744L639.021911,187.509752L652.301531,189.767844L647.459178,204.050285L647.980082,204.134964L649.545292,204.376902L650.067029,204.457548L659.488455,195.723565L660.348226,190.727534L664.995002,191.271895L665.850786,191.372703L668.783377,191.711417L668.736126,191.856580L668.588303,192.288037L668.538434,192.429168L668.319676,193.070305L666.857325,197.308262L666.782109,197.521975L666.168007,199.308288L664.536051,203.933348L663.573433,206.655158L663.350186,207.268069L662.680454,209.106803L662.457213,209.719714L663.670123,211.784258L676.375875,214.316550L682.785473,215.433500L690.136474,216.788357L690.582293,216.869003L689.626397,219.542427L688.817462,221.788425L686.700907,227.542536L685.807088,229.965957L685.720004,230.203864L685.627092,230.469996L685.411645,231.078876L684.878689,232.607123L684.569506,233.486168L684.000975,234.986189L682.462682,239.010439L682.128386,239.760450L681.688806,240.736270L681.015778,241.990320L680.977469,242.058870L680.747734,242.486295L680.252554,243.296791L679.905619,243.857283L678.992796,245.119398L677.721229,246.748453L676.840999,247.869437L676.309509,248.554931L675.019993,250.204149L674.734093,250.619477L674.239033,251.329165L674.113756,251.534813L673.734477,252.151758L673.606582,252.353374L673.205177,253.010641L673.044924,253.268710L672.360886,254.542922L672.137853,255.055026L671.830842,255.756650L671.444628,256.708277L671.108033,257.603451L670.491463,259.236540L670.129573,260.321233L669.112497,263.176115L668.539750,264.780978L668.453651,265.030981L668.184415,265.817284L667.369819,268.176190L667.235560,268.559261L667.097974,268.958460L666.879408,269.599599L666.284237,271.313335L666.214198,271.518983L665.986116,272.156090L663.346358,271.668179L655.421859,270.196382L653.155357,269.772989L652.786271,269.688310L657.803588,255.643745L660.304216,249.063003L660.210075,249.050906L658.478987,248.792838L659.795875,245.054880L661.017575,245.272626L661.313925,245.325046L661.757140,245.401660L664.287200,238.228170L666.435563,232.135342L655.283349,229.933699L656.665721,226.030419L657.524987,223.590869L657.139744,223.534417L652.142420,222.748116L639.987374,220.840831L638.399429,225.655413L636.260609,232.135342L636.080951,232.570832L634.341926,232.284538L630.433886,231.671626L630.172805,231.949856L629.781660,232.373249L629.502370,232.639381L629.065406,233.050678L628.979727,233.131324L628.187799,233.957948L627.314479,234.861187L626.215885,235.869266L626.069897,236.191851L626.458276,236.550727L626.568613,236.651535L627.154702,237.256382L624.361274,240.070938L616.772308,247.708145L617.211721,248.538802L617.651137,249.369459L615.675051,251.401747L615.795732,252.071111L615.837313,252.321115L615.919421,252.909833L615.922471,253.313065L615.900796,253.869525L615.894038,254.002591L615.880621,254.167916L615.856384,254.385662L615.751512,254.893734L615.616855,255.228416L615.235722,256.171978L615.216335,256.232463L615.102387,256.567145L617.904536,257.087314L626.308381,258.643789L629.107922,259.159926L627.997996,262.297069L627.572329,263.506765L622.955618,276.547286L622.462348,277.934404L619.963078,277.652142L617.607747,277.123908L610.541769,275.539206L608.183829,275.006940L605.304819,274.373866L596.669479,272.466578L594.154331,271.910118L593.787866,271.829472L594.114940,270.478645L594.698418,268.805232L594.819966,268.450388L595.981634,265.764863L596.750595,264.764848L600.155184,261.329313L600.271675,261.216408L602.510212,258.982504L602.181131,258.938148L601.408952,258.833308L598.867000,258.490561L598.037813,258.377656L597.486767,258.305074L596.936554,258.228460L596.389793,258.151846L596.147952,258.119588L595.906111,258.087329L594.989685,257.962327L594.774623,257.934101L594.559561,257.905875L592.833825,257.672000L593.809843,255.067123L593.998509,254.571148L594.184556,254.071141L594.874750,252.232404L594.983002,251.942077L595.017739,251.857399L595.091255,251.651750L596.635738,247.530723L597.646245,244.909717L598.647377,242.300809L594.065758,242.191936L591.782267,242.135484L591.895527,241.820963L592.145603,241.111276L592.901548,238.937857L593.220041,238.030586L593.318788,237.736227L593.571252,236.998314L588.462742,236.466048L587.257261,236.337014L586.751218,236.280562L586.240891,236.228142L585.507773,236.151528L584.308751,239.768514L581.361603,239.232216L579.467973,238.925760L579.227803,238.885437L578.990252,238.849146L578.766506,238.812856L578.542760,238.776565L577.651228,238.631401L576.559739,241.627412L574.364131,247.647660L571.850674,254.522760L570.077036,259.369606L564.309564,275.140006L561.794185,282.011081L559.174545,281.559461L551.315639,280.204601L548.693389,279.748949L547.790370,282.285278L547.760756,282.361892L545.804173,288.047466L545.133226,289.894269L545.090056,290.003142L544.264817,292.430600L543.857321,293.636264L543.841267,293.680620L543.644344,294.216919L530.546546,292.257210L533.282175,283.515136L533.418389,282.369957L535.149914,277.474720L534.458769,277.361815L532.696670,282.321569L532.621626,283.454652L532.237961,284.059500L530.593445,283.732882L529.508453,287.970852L530.976033,288.402310L529.979621,292.478988L530.034844,292.478988L527.308989,299.652490L514.268010,297.684716L512.968572,301.390421L515.572961,301.983173L515.432084,303.184805L525.682198,304.761444L527.116617,301.338001L540.282419,303.704975L538.577236,308.592152L538.194636,309.660718L537.201998,312.398666L537.182621,312.459151L537.101664,312.701090L536.857003,313.418844L536.773426,313.656751L536.409892,314.733382L535.927236,316.136631L535.381677,317.660850L535.281223,317.947145L534.895208,319.015712L534.209884,320.983487L533.472977,323.084328L532.137572,326.882780L531.442783,328.846523L531.034239,330.007833L528.305312,337.753934L525.801796,345.278259L524.962812,347.322649L524.928230,347.423458L523.586647,351.270300L522.306352,354.786491L522.166117,355.165530L519.476007,362.927766L515.951940,372.879560L515.302153,374.710239L514.440098,377.186091L512.567553,382.557158L511.825053,384.653971L511.064870,386.803205L508.778352,393.246875L508.015616,395.392076L506.478526,399.839742L502.862283,410.279458L502.478557,411.372222L501.839953,413.166611L500.260775,417.602182L500.100577,418.061868L499.619157,419.444960L499.456340,419.900614L499.340094,420.247395L499.175619,420.711114L498.980041,421.275641L498.858554,421.614357L498.789445,421.815974L498.577837,422.424857L498.506107,422.622441L498.313023,423.174872L497.966524,424.170859L497.732949,424.836195L497.540700,425.384593L496.819940,427.461247L496.547540,428.231423L494.639536,433.679112L493.912767,435.751735L493.477735,436.993695L493.027509,438.275979L492.842753,438.788086L490.593547,445.106762L490.328663,445.840648L489.427070,448.360860L489.077346,449.372978L488.022122,452.405298L487.666339,453.413383L486.790772,455.941661L484.162421,463.518430L483.649184,464.990235L483.284327,466.042676L482.397000,468.595149L482.261340,468.986286L482.101229,469.445973L481.798558,470.296797L481.055217,472.417809L480.066563,475.228352L479.151015,477.800987L478.105652,480.736533L478.058548,480.881697L477.905919,481.305093L477.857022,481.442193L477.735746,481.797039L477.414740,482.720446L477.361563,482.861578L477.237666,483.212392L476.497049,485.337437L474.537026,490.926266L474.254451,491.696444L474.102667,492.115808L473.478417,493.809393L473.182051,494.478762L472.465389,496.873975L472.252157,497.474794L471.606393,499.273220L471.390543,499.870007L471.248991,500.273242L470.813016,501.470848L470.668843,501.870051L470.593856,502.083765L470.366274,502.720876L470.260907,503.015237L470.235635,503.087819L469.713637,504.620110L468.320993,508.692780L467.985028,509.672640L467.407419,511.358161L466.012530,515.055823L465.856226,515.547769L465.111447,517.862336L464.981244,518.277668L464.869405,518.620417L462.186761,526.302039L461.513439,528.185146L460.445567,531.148922L460.005727,532.382820L459.880237,532.741699L459.815352,532.923155L459.238160,534.540127L459.045166,535.076429L457.868188,538.487796L457.804275,538.681349L456.586069,542.209654L456.353613,542.870960L454.303681,548.701737L453.703120,550.399357L453.114723,552.105041L452.260091,554.552677L449.707918,561.839135L449.690253,561.891556L448.823558,564.331128L448.778155,564.468228L448.732612,564.589199L448.651740,564.815010L448.634075,564.867431L448.586049,565.000499L448.511940,565.210181L448.213850,566.056975L447.814604,567.177968L447.084440,569.238500L446.715568,570.278847L446.672651,570.403850L446.542105,570.770794L446.496564,570.891764L446.312202,571.420002L445.758152,572.992620L445.571997,573.512793L445.542606,573.605537L445.450014,573.871672L445.418827,573.956352L445.238750,574.480557L445.094826,574.895890L444.697557,576.041078L444.514859,576.561251L444.436622,576.791095L444.200940,577.468530L444.120079,577.694342L444.030115,577.964510L443.748900,578.762916L443.656312,579.029051L443.557933,579.323413L443.250643,580.198433L443.146188,580.488763L443.022560,580.855707L442.644631,581.940410L442.514928,582.303321L442.392129,582.666233L442.009928,583.754968L441.884507,584.113848L441.778544,584.428371L441.449331,585.359845L441.340744,585.670336L440.760844,587.335698L440.137617,589.077674L439.818491,589.976889L438.866778,592.630178L438.545039,593.525360L437.615330,596.223005L437.028193,597.940788L436.555284,599.303724L436.027756,600.831986L435.375667,602.715096L434.777532,604.453040L434.047256,606.565994L432.956403,609.662843L432.341879,611.396756L432.198012,611.812088L431.863105,612.771789L431.759512,613.058086L431.609571,613.469386L431.417705,614.017787L430.840316,615.654923L430.645829,616.199291L430.576039,616.404941L430.355486,617.025924L430.283072,617.227542L430.065146,617.852557L429.405300,619.723570L429.181303,620.344553L428.972789,620.671173L428.623793,621.211509L428.615277,621.320383L428.584085,621.691360L428.548470,622.050239L428.486271,622.235728L428.297875,622.784128L428.233051,622.965584L427.932662,623.824476L427.033992,626.389055L426.730988,627.243914L426.541776,627.796347L425.962962,629.457678L425.771129,630.006078L427.293086,630.243987L431.053444,630.828679L431.400440,629.877043L432.059818,628.058450L433.628594,628.320553L438.326225,629.098798L439.297735,629.260092L439.891552,629.360901L438.829140,632.421460L438.040899,634.683612L436.759264,638.308702L435.553861,641.578943L434.759568,643.736255L434.429302,644.623373L433.647841,644.579018L432.747835,644.405626L431.739693,644.204008L423.758686,642.635421L421.751112,642.240250L421.676037,642.050729L421.695090,641.486199L419.627035,647.937972L418.665988,650.925949L426.926422,655.494611L428.694222,657.700312L429.780901,657.805153L429.747557,657.934188L429.416683,659.127767L428.950495,660.813293L428.870295,661.103622L428.789268,661.397985L427.952972,664.418222L427.659156,665.414214L427.365344,666.410207L427.138511,667.180388L425.620871,672.313582L424.694327,675.454790L423.877355,678.212925L423.397943,679.761351L423.770422,680.471046L426.752972,686.152643L427.746589,688.043820L429.090412,688.326085L433.117457,689.160784L434.458656,689.439017L434.430133,689.527729L434.336685,689.781767L434.306361,689.862415L433.249560,690.471301L432.776993,691.818110L431.493531,695.439170L430.002225,699.536050L429.065518,702.104664L423.515931,701.084477L413.159410,699.177170L409.071961,694.253656L405.469045,689.914835L403.873308,694.773831L403.210089,696.781947L401.705002,700.794147L398.536654,709.237913L396.730222,714.048522L396.194631,715.383234L394.587074,719.391403L394.048882,720.722082L392.475582,725.153650L390.245456,731.411878L387.776009,738.452386L386.220262,742.883954L385.979071,743.573489L384.867060,746.730830L381.206751,757.114171L380.825043,758.271460L380.345830,759.702949L379.495403,762.122369L379.316363,762.626415L378.308006,765.497459L377.854240,766.787816L373.652880,778.723621L372.919899,780.772063L371.253087,785.429447L368.432962,785.038307L360.570652,783.945536L359.973423,783.860856L357.873175,783.562461L357.154954,783.461652L355.641580,783.247936L352.388307,782.780182L351.096202,782.598725L350.623418,782.530175L349.580202,782.380978L348.563781,782.235812L345.504162,781.800317L344.484290,781.655151L343.444449,784.647168L340.407304,793.373211L340.324147,793.611120L340.178594,794.002260L339.242853,796.587008L336.710283,796.123285L334.092071,795.639401L329.083115,794.808734L326.532777,794.381303L326.476462,794.538565L326.302261,795.002287L326.243318,795.155517L325.355793,797.639456L322.699279,805.079175L321.809217,807.559081L321.577239,808.204260L320.882137,810.135765L320.647536,810.776911L317.920913,810.333351L309.735799,808.994604L307.006556,808.547011L306.620754,809.708333L306.329328,810.543034L305.936317,811.672097L303.225077,819.398115L302.645309,820.934448L302.617649,821.019128L302.316881,821.865925L301.518128,824.136149L296.658799,823.265157L288.656436,821.825602L282.078230,820.648150L277.216305,819.773126L276.846256,819.708608L275.738580,819.502957L275.369354,819.434407L274.321279,822.434489L273.341230,825.236986L271.933414,829.136287L271.375177,830.753267L271.740924,831.261346L278.302889,840.394663L282.254794,845.894816L282.898308,842.862474L283.483265,840.809997L289.862729,841.947126L294.867344,842.834247L298.545631,843.402811L309.579531,845.096407L313.256027,845.656906L314.955761,845.939172L320.057436,846.773873L321.754544,847.052106L326.734407,847.874710L330.485709,848.491663L329.438311,851.778045L323.825331,856.423336L322.786624,859.532294L322.168718,861.375087L321.684934,862.814643L319.558906,864.637275L319.220039,865.282455L318.205916,867.205896L317.864425,867.847043L316.612887,869.851131L315.742790,871.238267L314.361953,876.379541L313.762652,878.605410L313.180353,879.851413L311.425599,883.577324L310.837240,884.819295L308.526084,887.279042L302.032449,888.662146L298.095227,889.496847L287.983479,889.186354L276.114675,884.847522L272.857248,883.653939L270.722095,878.484439L270.619744,878.173946L270.351954,877.371504L270.229763,877.496508L269.957097,877.766677L265.919474,880.919991L253.796401,890.379936L249.756250,893.529219L249.456314,893.746967L248.547794,894.392147L248.245229,894.605862L247.465668,896.666405L247.304956,897.081739L245.616036,900.993140L245.373554,901.775421L245.053427,902.819805L244.410554,904.904542L242.171187,911.920871L235.440381,932.969861L233.199121,939.982159L233.173305,940.074903L233.092242,940.337008L233.063796,940.425720L234.176085,940.897508L235.453946,941.437846L236.781136,941.820921L237.629867,942.010443L238.825524,942.276580L243.374026,942.135447L247.740679,942.361260L249.376984,943.091119L250.707964,943.760493L252.522022,945.159727L255.637493,947.373501L257.840953,949.538886L258.976058,952.236544L259.427464,953.664005L259.774312,955.164048L259.846233,956.285049L259.855044,959.918218L259.856080,960.523074L259.857938,961.123898L259.959102,961.644075L260.198933,966.160334L261.028431,972.934725L260.915847,976.741287L261.129911,982.741461L261.596229,986.418988L262.741387,990.290068L263.473017,991.580429L264.120441,992.741753L264.762496,993.386933L266.893831,995.128919L269.098632,995.967653L271.679720,997.128978L273.705655,998.032230L273.968751,998.096748L279.043710,998.677410L281.464128,999.000000L283.742386,998.935482L284.957817,998.935482L286.551885,998.161266L287.922272,997.128978L289.513649,996.096689L291.262688,994.290185L292.209316,992.354645L292.653361,989.902960L292.608270,988.225492L292.116134,987.386758L290.019170,986.289952L288.472271,986.289952L287.709278,985.967362L286.172837,985.644772L284.199521,984.483447L282.426020,982.612425L281.070660,979.773633L279.946793,976.612251L279.030811,973.515387L279.314294,968.870090L279.682375,967.063586L280.374117,965.837744L283.977657,960.353715L286.750071,955.966491L287.904489,954.063210L287.534870,954.047081L287.166073,954.026919L286.533874,953.994660L285.898221,953.962401L272.532069,952.845433L273.643095,946.361375L274.850375,944.385511L276.548920,937.340954L270.926283,937.195788L269.297056,937.074817L265.225717,936.772389L264.457719,936.542544L262.938989,936.082853L258.122522,935.167504L258.151792,934.990080L259.042338,929.014102L257.259574,928.562476L257.996725,927.368893L251.061360,925.534163L246.219678,924.251869L245.840538,924.147027L244.702135,923.820405L244.320366,923.711530L243.289157,923.485718L244.685870,919.904970L244.779094,919.904970L245.866389,919.872711L246.744563,919.646898L246.785011,919.634801L246.608424,921.465498L247.574725,921.247750L248.448786,921.042099L257.813584,922.155034L259.388196,922.340523L266.659149,923.562333L284.434738,929.586699L293.132077,932.534364L293.123688,932.812598L293.116945,932.913407L293.187972,933.106961L293.266068,933.316645L293.424567,933.453745L293.465507,933.490037L293.614634,933.469875L293.649820,933.449713L294.083388,933.897307L294.619883,934.449742L295.440166,935.151375L295.908595,935.546547L296.244010,935.764296L296.341346,935.828814L296.770644,936.111080L297.172979,936.373184L297.242528,936.421573L297.575313,936.635288L298.836073,934.651360L300.285757,933.332774L304.539304,929.913321L307.993781,927.534221L311.373936,925.739814L311.548222,925.647070L315.291729,924.356710L321.807941,924.098638L325.948644,923.840566L328.629307,923.969602L329.305394,923.905084L331.160016,924.292192L332.351706,924.679300L333.978272,925.643037L336.548433,927.126951L337.116496,927.304375L340.081442,928.223757L345.298111,930.546404L350.567425,932.610979L353.517781,933.788432L357.515181,935.385252L362.726680,937.191756L367.043416,938.695832L367.062480,938.534537L367.109313,938.050652L367.125746,937.885324L367.502809,935.510256L367.660774,934.498130L367.675540,933.663429L367.730362,930.413336L367.828004,929.324595L367.905760,928.485861L367.930584,928.211659L368.499615,926.114825L368.396522,924.554297L368.611434,921.925189L369.824292,916.755686L371.663508,908.904656L371.957892,907.715106L371.900546,905.033578L372.330345,901.097982L372.861472,898.815659L372.739103,893.525186L372.098106,890.642040L371.474170,889.367811L371.415162,889.250872L370.293659,888.367782L369.066920,887.577437L368.141082,886.666121L365.831907,885.528992L366.146594,884.545094L366.231132,884.367669L366.478666,883.831364L366.560575,883.649907L366.969344,882.492616L368.188614,879.004615L368.594773,877.843292L370.434010,872.468140L372.129728,867.492194L372.755523,865.931666L373.768820,863.149330L376.065637,856.362850L376.605684,854.766031L377.917122,851.048186L377.939006,850.991732L378.188781,850.326391L378.926775,848.318271L379.173928,847.648897L379.560170,846.467413L380.656905,843.547977L381.179577,842.019708L381.939577,839.785775L384.351334,833.656573L384.657974,832.273471L385.042859,830.946821L385.768202,828.866118L387.071129,825.124080L387.205441,824.736972L393.985753,825.652320L393.250479,827.866091L403.305913,823.886142L403.836821,821.337685L404.234339,821.386073L405.244573,821.511077L417.235217,822.999021L416.151584,826.039427L416.220952,826.071686L421.968158,828.749180L423.178334,828.841924L423.318212,828.934669L423.580101,828.970960L424.714955,829.128222L424.862244,829.184676L425.260717,829.329841L425.813084,828.095936L426.564150,825.737000L423.022705,825.124080L421.278781,824.821652L419.310899,823.333708L430.347436,825.047465L431.472466,825.083756L431.895997,823.297416L433.776185,823.676459L433.086620,825.531349L436.720696,826.874128L442.866534,827.515275L456.017557,827.007196L458.665917,826.329758L465.997042,824.446642L470.785960,821.571562L475.030825,820.599761L474.756464,821.402203L472.082607,829.220967L471.191647,831.825878L466.862616,843.830243L462.576071,855.713638L454.235979,879.919963L451.475018,887.920189L450.191873,891.976756L446.533898,891.053342L445.638182,890.908177L440.205030,890.021055L437.538080,889.875890L433.792975,889.041189L431.602509,888.811343L426.860367,888.311329L426.458544,888.266973L425.523867,888.109711L424.338485,887.742765L423.628245,887.500822L423.263590,887.375819L422.366428,887.000808L421.543138,886.246755L420.406954,885.621737L419.189206,885.125755L417.612206,884.698324L416.145485,884.593482L414.895124,884.545094L414.287787,884.492673L413.653651,884.436220L411.524524,884.210407L410.926410,884.045080L410.723861,883.988626L410.358548,883.883785L410.318551,884.198310L410.283988,884.452349L406.893783,895.198621L396.714420,927.425347L393.319862,938.167591L393.655092,937.861130L394.077457,937.465957L394.640555,936.905457L394.831927,936.711904L394.966084,936.578835L398.167682,926.292250L407.766968,895.420402L410.696617,886.000780L410.967525,885.129788L411.617778,885.158014L412.370790,885.190273L414.153642,885.573349L415.538311,885.758838L416.875768,886.141913L418.518362,886.654024L418.784371,886.754834L419.888195,887.166135L420.725665,887.613729L422.473593,888.641984L423.860017,889.343616L425.896432,889.533138L427.836343,889.654109L429.856145,889.908149L433.102761,890.613814L435.421624,890.992857L437.472000,891.367867L438.980637,891.690457L439.305843,891.754975L441.954688,892.158212L442.645384,892.259022L445.503528,892.702583L447.736232,893.267115L449.251780,893.589704L449.844164,893.613899L450.010220,893.646158L450.504936,893.742935L450.668362,893.771161L450.897886,893.763096L451.580374,893.734870L451.807267,893.722773L451.872889,893.468733L451.945090,893.182435L452.097376,892.706615L452.174179,892.448543L452.895011,890.150091L453.333967,888.742793L453.726537,887.613729L454.650009,884.948331L455.268562,883.286994L455.727265,882.036958L456.103573,881.004671L456.163276,880.847409L456.337123,880.367556L456.394196,880.206261L457.414764,877.403763L457.768393,876.431962L458.104425,875.512581L459.396133,871.855220L459.834333,870.621314L460.288333,869.326923L461.448845,866.092961L463.415329,860.500063L465.524027,854.701513L466.304197,852.435321L468.202851,847.023880L470.137714,841.858414L471.031473,839.459154L473.589036,832.394442L473.629352,832.281535L473.687276,832.116208L474.577379,829.600010L477.425896,821.551401L477.650875,820.906221L478.086838,819.684414L478.109548,819.623928L478.378306,818.865843L478.432723,818.869875L481.520228,819.490860L488.973429,820.982836L490.944213,821.357847L494.091916,821.954637L495.180523,820.833639L495.266262,820.599761L497.077282,815.434297L497.677524,813.712475L498.461784,811.478543L500.059660,806.917935L500.879447,804.780779L501.052758,804.321089L501.250360,803.962209L501.869628,803.296868L502.058592,802.760563L510.532546,803.970273L517.651234,804.986430L523.256611,806.329209L525.496661,806.704219L521.064508,818.922296L520.551895,820.333625L526.840018,821.224779L527.688814,821.345750L527.926284,820.656215L528.780274,818.063401L531.525949,810.079311L532.522260,807.466337L534.974784,800.276624L535.377626,799.369341L536.281200,797.413643L537.686398,794.675665L538.682638,792.925618L539.076561,792.163500L538.792198,792.034465L538.586105,791.877202L538.517407,791.824782L532.248956,790.804593L513.443675,787.744026L507.175271,786.723837L507.870490,784.808462L509.863362,780.614801L511.738716,775.239656L520.166793,751.069655L523.938005,740.343565L528.025602,728.714227L531.689725,728.927942L534.548165,729.097301L534.603861,729.145690L547.587075,740.545183L548.942269,741.734731L553.722482,745.928390L556.316283,749.553486L556.705580,750.097855L560.418127,752.743087L565.243720,754.807658L567.690472,755.420577L570.659785,756.162532L572.002060,756.267374L572.097903,756.271406L573.989783,756.356086L575.393736,756.412539L577.051800,755.698810L577.772736,755.634293L578.539377,755.565742L579.638365,756.489154L579.688813,756.529478L581.107759,757.694831L581.105908,757.771446L581.095097,757.993226L581.090618,758.065809L581.124344,758.610178L581.182937,759.674723L581.309183,759.698917L581.664581,759.767467L581.718172,759.775532L582.127985,759.848115L584.719081,760.211027L592.493204,761.295734L595.081678,761.654614L596.592106,761.832039L601.119937,762.364311L602.627738,762.537703L604.316001,762.807871L609.374716,763.614344L611.060354,763.880480L615.393840,764.485335L628.388246,766.295868L632.719123,766.896690L633.954191,767.070082L637.645588,767.590257L638.877205,767.763649L639.016646,767.368477L639.082169,767.182988L639.276933,766.618457L639.428068,766.182961L639.564882,765.783757L639.789115,765.142611L640.453114,763.211108L640.674724,762.565929L640.899789,761.920751L641.064273,761.436867L641.570559,759.973118L641.793002,759.323907L641.900515,759.017447L642.216976,758.094036L642.321863,757.783543L642.728537,756.638352L643.937254,753.190679L644.338691,752.037423L644.478155,751.642251L644.785575,750.763195L644.899848,750.440606L645.040138,750.041402L645.508929,748.710722L646.359095,746.291303L646.575800,745.670318L646.904982,744.718680L647.294605,743.589618L647.364266,743.383968L647.732976,742.323456L647.898319,741.835540L648.047845,741.408109L648.367665,740.468568L648.829597,739.137888L649.244441,737.936243L649.396447,737.496716L649.997727,735.754734L650.195854,735.174074L650.271447,734.956326L650.638541,733.903879L651.957930,730.085230L652.394560,728.811004L652.653305,728.069049L652.689378,727.960175L653.431200,725.835119L653.687325,725.089132L656.281506,717.722004L656.333560,717.568774L656.890643,715.975991L657.300641,714.798541L658.331202,711.802496L659.811880,707.483835L660.182533,706.431389L661.454983,702.810328L662.502939,699.814283L662.808878,698.943293L663.712902,696.330322L663.787701,696.116607L664.016225,695.455300L664.388424,694.378659L665.007765,692.600388L665.023746,692.556032L666.065215,689.592247L668.066386,683.862262L669.074032,680.962994L669.162350,680.717020L669.307695,680.293623L669.422052,679.971034L669.507744,679.721027L669.788535,678.922620L669.990238,678.341960L670.627470,676.527398L670.905644,675.724958L671.233572,674.797516L672.209498,672.003090L672.531360,671.071615L672.615711,670.861932L672.797025,670.684508L672.959875,670.378049L673.602264,668.555423L676.335482,660.752807L677.245130,658.147903L677.456108,657.539017L677.566214,657.220461L677.668740,656.922066L677.923404,656.184145L678.409541,654.905887L678.465083,654.752657L678.933596,653.341332L681.791414,645.151612L681.877138,644.901606L682.356803,643.570928L682.953355,641.905564L683.957321,639.026461L685.630519,634.211827L686.982388,630.393185L687.996834,627.514082L688.668487,625.651133L688.729002,625.473710L690.416161,620.743756L690.661009,620.054223L691.320557,618.183210L691.462843,617.792071L691.886104,616.602526L692.025767,616.207356L692.080504,616.058158L692.138547,615.892832L692.180597,615.771861L692.355699,615.287979L692.497016,614.884743L692.595457,614.606510L692.843773,613.916978L693.338612,612.529847L693.665931,611.606438L693.760243,611.348367L694.036278,610.574155L694.127966,610.312052L694.202007,610.102370L694.228891,610.021723L694.323205,609.763652L694.406483,609.525743L694.429235,609.465257L694.504103,609.251543L694.612613,608.941051L694.782623,608.465233L695.337190,606.904712L695.611146,606.090176L695.874068,605.295803L696.054828,604.767564L696.592691,603.170752L696.768204,602.634448L696.386916,602.557834L694.653372,602.207019L688.308885,600.924730L686.191435,600.493268L685.296709,600.327942L683.266001,599.944868L682.598045,599.852124L681.688977,599.723089L681.447039,599.690830L681.369294,599.682765L681.138538,599.646474L680.826586,599.602118L680.474861,599.549697L680.414376,599.541633L680.094547,599.485180L680.500449,598.178697L681.715565,594.255217L682.118867,592.944702L682.457607,592.993090L682.729786,593.029381L683.092009,593.097931L683.367785,593.150352L683.422192,593.154384L683.462790,593.158416L683.578508,593.166481L683.727093,593.182610L683.804837,593.190675L684.203428,591.835804L684.997033,589.109933L685.390539,587.763127L685.783080,586.404224L685.933463,586.428418L688.929103,586.920365L698.356832,588.468789L701.092316,588.916380L701.509480,588.952672L702.423722,586.109862L702.876161,584.694507L703.610180,582.343645L703.942232,581.262974L704.383514,579.851651L704.884460,578.452424L705.195070,577.577404L706.193252,574.746693L706.534076,573.774896L706.793247,573.032943L707.534347,570.883699L707.717800,570.359494L707.881801,569.879644L708.024840,569.468344L708.453132,568.238477L708.593548,567.823145L709.085028,566.419886L710.561164,562.202047L711.050048,560.794756L711.444721,559.661666L712.633046,556.258362L713.025112,555.121239L713.665114,553.330875L713.963109,552.484082L715.497776,547.931559L715.869451,546.826695L716.129124,546.133131L716.167895,546.028289L716.212601,545.911351L717.007494,543.770174L717.273793,543.044351L718.132875,540.741879L718.257987,540.249933L719.496279,536.907115L719.791702,536.056290L720.677704,533.471554L721.113750,532.221526L721.499156,531.100534L722.115436,529.342430L722.422752,528.467410L722.856197,527.213350L723.537222,525.257661L724.465701,522.584215L725.580382,519.390596L726.262291,517.430875L726.298590,517.338131L726.399615,517.047802L726.429838,516.951026L726.521617,516.688923L726.642932,516.350206L726.802062,515.894551L726.891218,515.628416L727.455428,514.023542L728.220741,511.825913L729.170624,509.216985L729.333219,508.761330L729.725345,507.608079L729.817133,507.345976L730.085594,506.559669L730.174759,506.293534L730.958630,504.039453L731.673364,501.970859L731.759221,501.720854L731.892287,501.341813L733.063818,498.007064L733.316433,497.281242L734.103832,495.027161L734.245328,494.623926L734.603282,493.603743L736.100851,489.337523L736.597707,487.910073L737.390019,485.716478L737.803784,484.559195L739.705618,479.115531L740.472043,476.913872L740.498967,476.833225L740.829926,475.877559L741.895867,472.772655L742.251142,471.732311L742.501342,471.018586L743.255405,468.877413L743.502990,468.159656L743.830803,467.236249L744.810809,464.466030L745.136011,463.538592L745.437604,462.675671L746.341568,460.090940L746.640547,459.223986L746.706282,459.038499L746.781269,458.824785L747.694386,456.195698L749.087725,452.187551L750.851687,447.098738L751.833842,444.251906L751.900416,444.062386L752.091712,443.518020L752.324999,442.836555L752.485911,442.372836L752.662153,441.884923L752.853453,441.340557L753.657749,439.090511L756.062051,432.332311L756.860347,430.078234L758.860413,424.279732L761.917949,415.404558L764.905403,406.888264L766.936204,401.093798L763.663062,400.561530L758.235767,399.678448L754.603690,399.045372L753.857063,398.916337L752.788898,398.722785L750.586423,398.371972L749.108903,398.138096L748.741664,398.077611L748.000149,397.940512L745.638103,397.492923L744.661742,397.339694L742.531891,397.005010L740.250467,396.601777L739.861556,396.529195L737.658260,396.182414L737.475056,396.150155L737.301377,396.121929L735.312220,395.791278L734.218240,395.605790L729.244524,394.783194L728.270657,394.617868L725.922002,394.222699L725.755227,394.194473L725.244548,394.109794L725.074321,394.081568L724.967187,394.065438L724.650066,394.013018L724.540310,393.992856L725.007837,392.710574L726.681301,388.218554L727.800072,385.214466L729.840898,379.726460L733.130830,370.887588L734.949806,365.992338L735.280045,365.109257L735.467541,364.500375L737.330996,359.222054L738.307772,356.439746L740.180520,351.117071L740.485038,350.141247L741.118789,348.471863L742.452267,344.963737L741.884055,342.326594L741.973372,341.842715L742.027804,341.528193L742.868839,339.120893L743.766453,336.556333L743.934966,335.939386L744.105142,335.314376L744.439378,334.378876L744.590393,333.947417L745.005670,332.786106L746.044200,329.705409L746.569358,328.144898L746.853446,327.302142L748.063013,323.910955L750.515895,317.015678L752.585794,311.209130L754.094352,306.971157L754.741033,305.156611L756.681152,299.712975L757.327882,297.898429L757.659755,296.975027L758.007551,295.991141L758.650981,294.192725L758.688064,294.079820L758.863377,293.547553L758.989769,293.269323L758.529263,293.192709L757.137393,292.962866L756.674268,292.882220L754.434827,292.511246L747.708653,291.386228L747.538449,291.358002L746.586100,291.390261L745.399602,292.156402L745.476266,291.918495L745.552098,291.684620L746.274307,289.470875L748.899414,281.410265L749.771607,278.720707L749.918681,278.325539L750.355498,277.127940L750.499954,276.728740L751.261915,274.506932L753.540880,267.825378L754.300295,265.599538L754.608498,264.724525L755.528717,262.087389L755.834313,261.208343L755.740169,261.196246L755.453332,261.147859L755.356569,261.131729L749.598295,260.168005L749.494630,260.151876L738.411480,258.365559L731.876644,257.284898L728.606611,256.740535L726.016288,256.280851L726.277205,255.534872L727.026193,253.393712L727.062465,253.284839L727.178058,252.942092L727.320771,252.534828L727.371433,252.389665L727.529370,251.942077L727.577414,251.792882L727.916959,250.833190L728.938109,247.942019L729.109490,247.446044L729.275048,246.978295L729.314773,246.869423L729.436445,246.530708L729.473551,246.417803L729.524217,246.272640L729.630666,245.974249L730.095944,244.639552L730.250442,244.191965L731.599471,240.381426L735.277636,229.986119L735.642474,228.937717L736.969224,225.119116L737.351095,224.038456L738.496733,220.796476L738.878622,219.715816L739.088126,219.119034L739.548300,217.776274L739.792308,217.062554L740.399303,215.276240L741.586693,211.949583L742.273683,210.010041L742.380171,209.711650L742.703923,208.812444L742.807794,208.510021L742.983652,208.026144L743.500046,206.578544L743.673289,206.090634L744.387691,204.118834L744.947300,202.562362L746.473026,198.183274L747.161542,196.203410L748.792333,191.550125L750.765360,185.908925L753.719701,177.590275L755.062885,173.795874L755.364618,172.936993L755.805022,171.691010L756.852255,168.711136L757.134003,167.949030L757.313268,167.449025L757.588235,166.703048L756.479943,166.521594L753.146381,165.969168L752.035472,165.783682L750.884699,165.574003L747.427981,164.932866L746.274592,164.719154L744.552956,164.432860L739.385434,163.569947L738.058539,163.344138L737.662017,163.275589L736.707485,163.118329L734.014901,162.670743L733.842107,162.638485L732.895078,162.444934L732.631604,162.400579L731.836778,162.255416L731.570686,162.207028L731.497261,162.194931L731.273534,162.158640L731.197490,162.142511L729.895707,161.928799L728.394356,161.678796L725.982509,161.275566L725.642158,161.219113L725.244805,161.154596L724.673825,161.061853L723.379664,160.827980L719.984383,160.207005L719.490281,160.126359L718.185885,159.908614L716.924688,159.698934L713.903792,159.186832L713.137532,159.053766L711.875386,158.831989L711.065095,158.694891L705.950231,157.827945L704.357260,157.553749L697.581367,156.424704L697.796870,155.799696L697.856044,155.630340L702.503316,142.101964L695.876474,140.803563L691.077808,154.412584L691.003393,154.622264L690.795387,155.210980L689.537536,154.985171L688.189006,154.747265L682.275569,153.686769L682.412615,153.307733L682.475127,153.122247L682.549545,152.912567L683.489473,150.319796L683.828707,149.380269L686.574871,141.658411L687.101094,140.198717L688.309932,136.823681L688.480823,136.347870L689.143313,134.513173L690.701645,130.166353L691.612400,127.565520L692.040217,126.331636L692.263499,125.819534L692.450076,125.484853L692.605182,125.335658L693.259802,122.621921L690.041779,122.029173L673.739076,119.008981L669.581964,118.234780L668.621313,118.057359L668.305976,117.996874L673.184665,113.416184L676.943095,109.879859L677.793352,108.956463L678.491809,107.916130L679.038149,106.343535L681.553423,95.875695L681.641406,95.500692L684.431670,89.674026L685.700584,87.028842L685.932740,86.540934L686.236299,80.024749L686.518796,78.827158L686.843994,77.440050L687.699369,76.242459L687.354661,76.173910L687.234600,76.153748L685.834225,75.883585L685.366840,75.790842L686.356806,73.210176L689.324233,65.464145L690.181185,63.226224L690.315132,62.879447L691.526403,63.129449L694.345415,63.698002L695.181321,63.810906L695.507714,63.851229L696.101263,64.101231L696.139334,64.117360L696.358416,64.109296L696.490232,63.956069L698.360406,61.391532L704.323107,53.197921L705.116281,52.101139L706.365789,51.250326L706.718691,51.129358L706.825481,50.847097L708.185045,47.266426L712.586942,35.665538L712.611500,35.596990L713.972256,31.778416L714.836017,29.359045L714.994377,29.044527L715.073099,28.947752L715.180481,28.879203L715.364834,28.838880L715.858528,28.871138L716.012147,28.879203L720.663033,29.899371L723.260737,30.419536L725.172814,30.717925L726.182396,30.875184L728.249610,31.407445L729.554264,27.709841L731.320283,22.685615L733.486618,16.612997L734.806113,12.911362L735.053419,12.217810L735.398040,11.237966L735.815219,10.141185L736.072885,9.447633L734.049059,9.072631L731.221896,8.544402L727.955428,7.987947L725.918854,7.641171L721.600896,6.846812L720.644780,6.681488L704.787806,3.887118L699.501017,2.955661L698.214039,2.721789L694.353107,2.020172L693.063517,1.782268L691.052795,1.427427L685.014574,0.358873L684.698452,0.302421L683.001244,0.000000Z M388.308877,821.684469L389.008089,819.748932L389.101415,819.494892L391.013866,819.732802L390.406824,821.825602L388.308877,821.684469Z M621.275573,151.537552L623.721626,144.166502L625.663809,144.537474L623.068888,151.960943L621.275573,151.537552Z M538.256827,298.616183L538.938681,296.063722L542.742752,296.696797L542.545834,297.233096L542.508614,297.329872L542.122766,298.430696L541.142654,301.241225L538.315958,300.354114L538.985087,298.616183L538.256827,298.616183Z M393.594262,807.474401L393.763832,806.982452L393.940975,806.470342L393.982956,806.349371L394.093754,806.026781L394.108899,805.986457L394.150880,805.865486L394.181993,805.780807L396.604212,806.075170L406.372232,807.490531L406.302084,807.732473L406.113060,808.353458L405.944124,808.909925L405.860481,809.184126L393.594262,807.474401Z M435.063612,811.559191L435.043563,811.539029L436.069585,808.595400L439.148668,799.760481L439.753196,798.018498L440.763563,798.159631L440.873376,798.179793L441.202815,798.240278L441.310000,798.256408L438.982871,805.252566L436.697742,812.111625L435.063612,811.559191Z M479.452731,160.783624L483.880539,147.972996L485.835824,148.247192L481.356849,161.138467L479.452731,160.783624Z M566.160558,153.473057L567.290863,150.327861L569.900333,150.626251L571.788367,151.025449L572.942113,147.533475L577.115081,148.214934L576.503038,149.989147L573.824201,149.642369L573.211445,151.436744L572.997474,151.436744L571.955629,154.521456L566.160558,153.473057Z M571.298242,160.569912L573.186227,154.678716L574.392668,154.835976L575.397835,151.811748L579.153956,152.473046L577.114231,158.263434L574.456937,157.795687L573.420034,160.957013L571.298242,160.569912Z M599.142436,151.658521L602.857606,140.622109L606.938317,141.315665L602.964598,152.384335L599.142436,151.658521Z M613.461676,154.126290L617.310122,142.811649L621.697022,143.610045L617.725376,154.819847L613.461676,154.126290Z M443.027276,813.188268L445.248879,806.724381L447.642519,799.740319L449.481373,800.135491L452.566627,800.800832L448.150885,813.897964L443.027276,813.188268Z M486.617693,161.799765L491.056205,149.420592L495.546541,150.085922L493.699571,155.610178L503.189506,157.081969L503.885889,157.219067L503.497660,158.194885L504.469993,158.432791L503.795154,160.477169L505.617543,160.743301L504.329123,164.703025L486.617693,161.799765Z M545.912314,156.344057L550.287075,143.638271L558.673211,142.521323L557.703089,145.275385L557.582195,145.626196L562.226891,146.279429L566.440084,146.916533L562.143139,158.880377L553.318717,157.461006L545.912314,156.344057Z M300.598385,835.229198L305.471697,821.515109L320.830479,824.091793L315.899429,838.140569L300.598385,835.229198Z M505.074809,164.735283L507.412499,158.122303L509.483170,158.239240L510.594978,155.033559L521.592935,156.606157L522.870676,152.831921L525.472490,153.267410L528.594722,168.606296L505.074809,164.735283Z M671.812001,182.900823L672.187309,181.836294L673.319210,178.630610L673.691917,177.562049L674.734817,174.687014L675.575493,172.356341L676.214883,170.582126L676.344286,170.223251L678.995584,170.686966L679.398941,169.320014L696.175151,172.041821L694.096609,178.424962L703.946363,180.429019L702.675652,183.872610L701.131718,188.054113L695.262395,187.046036L692.706121,186.606514L690.640515,186.247639L686.789212,185.578276L679.511476,184.287937L678.866103,184.171000L677.675445,183.937127L675.772773,183.558090L671.812001,182.900823Z M453.775871,799.647575L453.027225,799.526604L457.934626,785.074599L458.403139,785.147181L458.467912,785.151214L460.164085,785.433479L464.902460,786.219791L473.117908,787.494019L473.834005,785.324605L476.758959,777.449393L478.383379,773.066210L479.445817,773.239602L479.706042,773.283958L483.668778,773.929137L484.988815,774.142852L482.911903,779.929298L479.709683,788.840830L476.678458,797.288640L474.598589,803.075088L472.394068,802.712175L466.873238,801.800859L465.770980,801.619403L463.563836,801.252457L462.320693,801.050839L458.585185,800.441951L457.339415,800.236301L454.039556,799.691931L453.775871,799.647575Z "/></g><g fill="#000" font-family="Arial" font-size="12px" id="mylayer-label" stroke="none"><text text-anchor="middle" y="516.532911909"><tspan dy="0" x="568.283520317"><![CDATA[Y]]></tspan></text></g></svg>