<?xml version="1.0" encoding="utf-8"?><!DOCTYPE svg  PUBLIC '-//W3C//DTD SVG 1.1//EN'  'http://www.w3.org/Graphics/SVG/1.1/DTD/svg11.dtd'><svg enable_background="new 0 0 1000 1001" height="1001px" pretty_print="False" style="stroke-linejoin: round; stroke:#000; fill: none;" version="1.1" viewBox="0 0 1000 1001" width="1000px" xmlns="http://www.w3.org/2000/svg" xmlns:xlink="http://www.w3.org/1999/xlink"><defs><style type="text/css"><![CDATA[path { fill-rule: evenodd; }]]></style></defs><metadata><views><view h="1001" padding="0" w="1000"><proj flip="auto" id="robinson" lon0="-103.599723904"/><bbox h="0.19" w="0.11" x="-1464.86" y="-531.68"/></view></views></metadata><g class="" id="mylayer"><path d="M446.727651,0.000000L338.070756,92.301008L331.562417,188.809324L326.003201,278.129785L324.549288,309.422595L324.812180,321.606627L323.835871,325.025167L317.089396,361.226626L313.730634,374.813124L298.305572,428.633160L296.805450,436.171467L294.795753,449.232021L289.606774,470.707423L292.801422,477.456833L297.034404,483.242041L301.496606,488.764285L209.222969,554.329937L260.224296,603.767094L271.331044,608.675746L273.232591,618.668357L275.765039,623.226390L282.516912,633.131345L294.701892,647.331365L308.163346,663.898052L320.234719,679.675845L351.235091,716.928952L394.932907,766.716599L438.114409,820.360992L511.346751,909.768213L529.867087,933.785425L535.456790,939.745900L544.503944,950.877962L581.073110,999.000000L692.418526,981.732169L748.062951,966.305067L752.820708,959.029785L755.562416,953.244620L758.315303,944.040948L762.168818,936.327393L766.086804,914.150917L774.232710,889.081848L773.934597,887.153457L778.306345,877.511505L785.029981,853.932542L788.852717,819.747413L790.777031,812.033843L787.796853,793.714110L780.755426,785.474611L777.918078,779.251159L769.243528,770.047462L766.339581,754.620308L751.043298,739.193151L738.165892,719.032656L737.509978,716.578335L726.505233,702.641293L715.896685,685.723998L711.215702,676.082015L695.246516,651.977051L682.602374,626.469605L681.103912,625.067134L677.250148,611.042417L667.147073,592.722626L659.854192,580.713956L651.388973,571.071957L648.343081,565.286757L644.369180,553.102773L640.462928,541.181750L631.981326,503.577921L626.999992,487.186501L626.057766,479.385236L624.227216,463.607393L622.903040,460.188860L621.777754,438.976419L617.079176,421.182506L614.253355,410.576280L615.511558,404.791065L613.123944,381.650200L609.687602,364.820474L605.910446,353.688309L595.587966,339.225258L595.350552,336.858576L584.298231,319.941184L576.268810,316.610298L561.938895,301.183033L537.580306,290.138512L536.183105,288.648378L507.533394,276.113721L485.164189,263.666716L479.090062,258.319762L470.756231,240.525798L470.297814,215.456462L477.629968,188.458703L489.489201,162.425139L499.719493,143.141011L505.351148,127.713704L512.310259,95.894872L514.229437,75.646515L510.963504,73.718100L505.242151,58.290776L494.922109,46.720280L492.457781,42.425172L478.647389,25.069423L474.253786,20.774313L448.360596,0.964209L446.727651,0.000000Z " data-aland="440383" data-awater="0" data-classfp="U1" data-funcstat="S" data-geoid="4847676" data-intptlat="+31.7074383" data-intptlon="-103.5988747" data-lsad="57" data-mtfcc="G4210" data-name="Mentone" data-namelsad="Mentone CDP" data-pcicbsa="N" data-pcinecta="N" data-placefp="47676" data-placens="02630599" data-statefp="48"/></g><g fill="#000" font-family="Arial" font-size="12px" id="mylayer-label" stroke="none"><text text-anchor="middle" y="556.4549875"><tspan dy="0" x="503.046509702"><![CDATA[Mentone]]></tspan></text></g></svg>