<?xml version="1.0" encoding="utf-8"?><!DOCTYPE svg  PUBLIC '-//W3C//DTD SVG 1.1//EN'  'http://www.w3.org/Graphics/SVG/1.1/DTD/svg11.dtd'><svg enable_background="new 0 0 1000 1001" height="1001px" pretty_print="False" style="stroke-linejoin: round; stroke:#000; fill: none;" version="1.1" viewBox="0 0 1000 1001" width="1000px" xmlns="http://www.w3.org/2000/svg" xmlns:xlink="http://www.w3.org/1999/xlink"><defs><style type="text/css"><![CDATA[path { fill-rule: evenodd; }]]></style></defs><metadata><views><view h="1001" padding="0" w="1000"><proj flip="auto" id="robinson" lon0="-97.8913380772"/><bbox h="0.23" w="0.37" x="-1392.04" y="-503.86"/></view></views></metadata><g class="" id="mylayer"><path d="M1000.000000,218.151606L943.856407,218.787309L941.940309,215.381755L922.241437,231.819233L901.392454,251.571467L892.546135,262.196814L881.398562,277.272103L874.736560,286.217384L862.141544,308.784939L851.646961,325.767381L809.911242,399.191624L797.678465,420.397066L766.189002,475.158969L751.492317,474.931929L628.496032,473.024796L668.092708,330.943849L726.770727,196.900961L686.957631,184.913427L614.956545,254.749989L596.685972,296.661119L518.618237,444.099961L492.918545,418.081267L477.407961,402.143130L473.371648,398.283469L52.318561,767.134055L0.000000,812.905948L62.192778,814.086573L103.877902,812.769722L584.169306,800.009888L609.565260,800.827244L634.730191,806.594143L667.521571,742.386397L689.632223,697.477420L870.578492,400.145187L941.155357,284.128638L1000.000000,218.151606Z "/></g><g fill="#000" font-family="Arial" font-size="12px" id="mylayer-label" stroke="none"><text text-anchor="middle" y="581.905659362"><tspan dy="0" x="501.007005337"><![CDATA[N]]></tspan></text></g></svg>