<?xml version="1.0" encoding="utf-8"?><!DOCTYPE svg  PUBLIC '-//W3C//DTD SVG 1.1//EN'  'http://www.w3.org/Graphics/SVG/1.1/DTD/svg11.dtd'><svg enable_background="new 0 0 1000 1001" height="1001px" pretty_print="False" style="stroke-linejoin: round; stroke:#000; fill: none;" version="1.1" viewBox="0 0 1000 1001" width="1000px" xmlns="http://www.w3.org/2000/svg" xmlns:xlink="http://www.w3.org/1999/xlink"><defs><style type="text/css"><![CDATA[path { fill-rule: evenodd; }]]></style></defs><metadata><views><view h="1001" padding="0" w="1000"><proj flip="auto" id="robinson" lon0="-88.9077617969"/><bbox h="0.39" w="0.36" x="-1224.54" y="-641.72"/></view></views></metadata><g class="" id="mylayer"><path d="M850.658498,0.000000L848.653506,0.043887L842.496368,0.175549L840.470549,0.175549L839.282993,0.219437L838.181231,0.219437L835.663956,0.307211L834.455573,0.307211L830.744628,0.351099L794.364332,1.053297L785.435019,1.184959L783.856515,1.228846L762.719544,1.623832L749.801071,1.887156L725.273018,2.326030L716.471151,2.501580L704.029419,2.721016L691.587687,2.940453L678.704752,3.203777L674.019492,3.291552L666.689507,3.423214L637.227400,3.949863L635.257947,3.993750L633.892686,4.037638L630.761483,3.730426L623.079941,2.896566L612.097867,2.896566L600.384152,2.852679L594.653497,2.984341L566.888738,3.642651L524.043621,4.652061L507.775707,5.047047L500.516800,5.178710L500.060636,6.539219L476.421735,77.681098L467.643721,103.970007L440.967662,184.285723L404.350467,290.979953L379.950820,362.081194L281.949148,361.905635L222.261807,361.730075L136.328527,605.104325L98.773094,605.806591L56.703698,606.508857L30.409613,675.858002L45.933429,675.989678L87.338848,676.209139L92.477911,676.253031L105.507571,676.296923L107.980891,676.340815L103.730780,689.025647L90.959918,727.036407L90.600851,728.002041L86.653631,739.677449L88.401394,739.765234L93.588301,739.984697L95.315225,740.028590L98.143998,740.072482L100.987476,740.072482L109.524042,740.160267L133.620078,740.379730L152.043865,740.555300L166.217140,740.686978L252.393101,743.496102L241.553517,776.064481L218.554502,844.932673L298.914337,845.371606L274.292026,921.746396L355.110882,921.878078L330.297364,997.770958L329.915156,998.912211L426.832578,998.736634L436.820568,998.736634L447.320880,998.692739L452.317948,998.736634L481.526930,998.868317L491.251409,998.912211L492.282198,998.912211L495.247087,998.868317L496.257031,998.824423L499.796776,998.868317L510.344924,999.000000L513.863824,999.000000L531.644602,998.868317L549.440079,998.692739L553.080312,998.648845L562.828956,971.873343L571.704380,947.599911L608.210026,847.302911L715.047472,846.688405L737.599513,780.629335L771.469363,681.212841L783.468865,648.469387L798.614222,607.079448L819.469382,550.240052L831.434681,517.497282L841.800981,487.300349L872.874656,396.578755L883.221281,366.338517L883.777715,364.890149L885.319561,360.501158L885.819622,359.008902L887.564930,354.224906L898.761299,323.677645L912.268420,286.766572L919.571265,266.884716L937.348469,217.553411L939.205545,212.330636L941.362947,206.317866L950.057631,182.179068L951.334946,178.580201L952.412444,175.683553L953.286469,173.181904L957.065737,162.648655L959.435300,156.109272L961.769335,149.569895L963.353141,145.268833L966.537950,136.403387L968.027389,132.277887L969.590387,127.932948L916.202608,128.371830L807.466154,129.161819L828.674835,65.787489L837.746456,38.620990L850.658498,0.000000Z " data-aland="3191866" data-awater="1376" data-classfp="C1" data-funcstat="A" data-geoid="1707263" data-intptlat="+38.2007530" data-intptlon="-088.9069295" data-lsad="47" data-mtfcc="G4110" data-name="Bonnie" data-namelsad="Bonnie village" data-pcicbsa="N" data-pcinecta="N" data-placefp="07263" data-placens="02398152" data-statefp="17"/></g><g fill="#000" font-family="Arial" font-size="12px" id="mylayer-label" stroke="none"><text text-anchor="middle" y="487.781386178"><tspan dy="0" x="536.522749495"><![CDATA[Bonnie]]></tspan></text></g></svg>