<?xml version="1.0" encoding="utf-8"?><!DOCTYPE svg  PUBLIC '-//W3C//DTD SVG 1.1//EN'  'http://www.w3.org/Graphics/SVG/1.1/DTD/svg11.dtd'><svg enable_background="new 0 0 1000 1001" height="1001px" pretty_print="False" style="stroke-linejoin: round; stroke:#000; fill: none;" version="1.1" viewBox="0 0 1000 1001" width="1000px" xmlns="http://www.w3.org/2000/svg" xmlns:xlink="http://www.w3.org/1999/xlink"><defs><style type="text/css"><![CDATA[path { fill-rule: evenodd; }]]></style></defs><metadata><views><view h="1001" padding="0" w="1000"><proj flip="auto" id="robinson" lon0="-87.6042757009"/><bbox h="0.18" w="0.48" x="-1159.97" y="-760.98"/></view></views></metadata><g class="" id="mylayer"><path d="M1000.000000,320.592866L960.102914,320.694004L924.897699,320.761429L911.332065,320.694004L870.580460,320.491729L856.987475,320.424304L833.233548,320.323166L761.945999,319.952328L738.179190,319.817478L732.900013,319.817478L703.728566,319.783766L600.376695,319.682628L589.641337,319.648915L565.940540,319.615203L564.341167,319.581490L559.559101,319.379215L557.946844,319.311790L503.544408,319.176940L460.588515,319.075802L373.296189,318.839815L285.497040,318.637539L157.860116,317.761013L104.316831,441.990497L67.314818,526.539284L66.432163,528.595679L65.507685,530.685785L64.612148,532.708468L63.716611,534.731150L0.000000,677.699377L27.425306,676.452085L31.053799,676.283533L34.682291,676.114980L37.417790,676.114980L38.949670,676.114980L48.675161,676.081269L51.684210,676.081269L52.286020,676.081269L55.911348,676.047558L59.617158,676.081269L63.322969,676.114980L71.117560,676.182401L116.740946,676.384664L124.796201,676.418375L128.365237,676.452085L131.948742,676.452085L134.219206,676.452085L136.489671,676.452085L173.348155,676.553217L255.875017,676.688060L297.374381,677.193718L338.601781,677.631956L347.147851,677.733088L372.703998,678.036483L381.237181,678.103904L383.110210,678.137615L388.729296,678.238746L390.589436,678.238746L394.868127,678.339878L407.023482,678.508431L407.665536,678.542141L409.498322,678.542141L411.931339,678.609563L415.759463,678.676984L419.177261,678.744405L419.587586,678.744405L440.832962,679.148932L444.633731,679.216353L448.051530,679.283774L450.404061,679.283774L452.771057,679.250064L456.299854,679.250064L474.423335,679.216353L480.948293,679.182642L482.768189,679.148932L485.968725,679.148932L489.183727,679.115221L493.066562,679.182642L504.620111,679.351195L550.890604,679.957985L566.314103,680.160249L568.774479,680.227670L576.076692,680.295091L578.688308,680.328802L581.464054,680.362512L581.819669,680.362512L584.951030,680.396223L589.709227,680.463644L592.430264,680.497355L596.844160,680.665907L610.087427,681.104145L614.488434,681.238987L615.232742,679.823143L618.055742,677.834219L622.233601,675.811584L624.699987,675.036241L625.444872,674.766556L637.461006,673.283290L645.101211,673.519264L650.086699,674.395739L652.433804,676.384664L653.105081,676.924034L656.310925,677.867930L659.697635,676.924034L661.740508,675.541900L670.762931,675.744163L697.844669,676.317243L706.881559,676.485796L773.431543,676.688060L851.430383,676.856612L915.948671,526.741552L951.239847,444.620022L968.267005,401.367562L1000.000000,320.592866Z " data-aland="2861356" data-awater="0" data-classfp="C1" data-funcstat="A" data-geoid="2619560" data-intptlat="+45.4618899" data-intptlon="-087.6043137" data-lsad="47" data-mtfcc="G4110" data-name="Daggett" data-namelsad="Daggett village" data-pcicbsa="N" data-pcinecta="N" data-placefp="19560" data-placens="02398668" data-statefp="26"/></g><g fill="#000" font-family="Arial" font-size="12px" id="mylayer-label" stroke="none"><text text-anchor="middle" y="492.670602421"><tspan dy="0" x="502.781284552"><![CDATA[Daggett]]></tspan></text></g></svg>