<?xml version="1.0" encoding="utf-8"?><!DOCTYPE svg  PUBLIC '-//W3C//DTD SVG 1.1//EN'  'http://www.w3.org/Graphics/SVG/1.1/DTD/svg11.dtd'><svg enable_background="new 0 0 1000 1001" height="1001px" pretty_print="False" style="stroke-linejoin: round; stroke:#000; fill: none;" version="1.1" viewBox="0 0 1000 1001" width="1000px" xmlns="http://www.w3.org/2000/svg" xmlns:xlink="http://www.w3.org/1999/xlink"><defs><style type="text/css"><![CDATA[path { fill-rule: evenodd; }]]></style></defs><metadata><views><view h="1001" padding="0" w="1000"><proj flip="auto" id="robinson" lon0="-104.802537822"/><bbox h="0.54" w="0.47" x="-1434.29" y="-664.37"/></view></views></metadata><g class="" id="mylayer"><path d="M556.895976,0.000000L554.645739,1.610438L550.922827,3.654457L547.640772,5.017137L544.671978,6.534669L542.444154,7.556680L541.640867,10.282046L541.407861,12.140252L541.456679,14.524953L541.098146,17.095476L540.020028,19.635033L538.805518,22.019741L538.316772,24.063778L538.799482,25.426471L540.238441,26.262669L542.418366,26.603342L543.988802,27.129838L545.792370,28.833206L547.038825,31.372775L547.348307,37.845593L547.829793,40.044498L549.207744,42.274374L551.477444,43.296402L554.187985,43.637078L556.150584,44.132607L558.538403,45.650164L559.144393,47.198693L558.775041,48.902077L556.766011,51.968170L554.868120,55.189120L553.219824,58.595900L551.707937,62.157539L551.028013,65.068796L551.220319,67.949086L551.889626,71.015205L557.643271,79.841934L559.394433,85.478670L559.074084,89.566861L558.549080,91.518045L558.052420,93.283404L556.302786,98.238805L555.321605,101.800506L555.571525,105.021528L556.129781,107.932840L556.300842,111.339699L555.173898,116.078338L553.470943,120.507272L550.868127,126.639656L547.106111,132.586226L543.064283,137.882403L540.787555,141.103475L540.005849,143.302479L539.446745,144.262609L537.004869,144.479412L534.443663,145.036907L533.757199,146.058981L532.722825,148.257990L532.389083,149.342009L531.032073,152.717958L529.292844,157.054047L528.650640,159.222094L528.505899,160.337091L527.716040,163.031668L526.512707,166.283749L524.022364,171.734866L521.803243,175.296682L519.592301,178.362946L517.760377,181.429214L516.392197,185.486605L514.297766,192.981958L513.426162,195.273930L510.681967,202.335697L504.801746,214.941624L503.806546,219.370751L501.427531,224.976860L498.582503,231.264391L496.138937,236.189120L489.171340,249.631516L483.426146,260.193454L480.806898,264.281959L477.776338,268.029762L474.983465,270.383757L471.614522,272.428018L469.018794,274.317413L467.089015,277.197967L465.900149,279.582946L463.995479,284.012198L462.216388,286.180367L461.456235,287.078608L458.216533,290.485736L455.264875,294.047738L452.266678,298.136305L449.646417,303.061178L448.102744,306.282485L446.851255,308.636520L446.369060,309.534770L443.869211,313.282648L441.553427,315.822535L438.378400,319.911141L436.481005,323.132471L434.237989,325.858216L430.789158,328.924683L426.840942,333.168184L423.908534,337.101948L421.834290,340.323303L420.933552,342.863220L420.307722,345.588989L420.036718,347.478444L420.046711,349.182052L416.424477,362.067567L413.647471,371.948577L413.177396,373.652203L412.694182,375.386806L410.828168,379.785270L409.336156,383.719114L407.116408,388.117594L405.003851,391.369996L400.896007,397.657987L396.226252,402.768928L385.156359,414.508649L380.053014,420.641826L375.316586,426.744043L371.531295,431.855049L366.279410,439.351213L366.033797,439.691949L365.857923,440.404395L365.401056,442.077097L365.129151,444.802984L365.090730,448.705965L366.016568,451.586740L365.980184,453.817020L365.465725,456.697802L363.634274,459.764445L362.092906,462.087662L361.600680,462.831092L361.273243,467.415583L360.648626,469.305139L359.903727,470.822980L359.394325,471.845200L358.905169,474.726005L358.852697,479.496378L360.039399,483.430394L361.467809,491.917980L361.191942,494.117323L360.859487,496.688389L359.424400,501.799552L358.987801,503.007647L357.544606,507.065611L355.331294,512.641452L354.620812,514.376161L350.701452,521.531848L344.417047,530.391302L340.800884,535.998176L338.022592,540.582814L336.049797,543.804456L332.022325,549.845048L331.142043,551.146100L323.506502,561.523571L312.711569,574.286375L306.176790,583.796569L304.219357,588.412280L301.632291,593.678539L299.175682,599.471438L296.667472,604.551853L295.175987,608.486085L294.051418,612.389345L292.991623,616.974136L290.658433,622.952964L289.166082,627.723647L287.478520,631.286176L287.283482,631.626940L280.719826,642.159669L279.162752,646.248860L278.392945,649.315757L277.456598,654.086495L275.740137,660.220315L267.806253,678.931666L265.425118,687.110186L264.091456,690.672808L261.577519,696.125179L259.225350,701.732460L257.169302,706.998980L254.412857,712.606289L251.925122,717.222260L248.841063,721.993139L244.958523,726.918928L241.777261,730.667491L238.204825,734.385080L234.154269,737.978756L226.727162,744.112801L222.658187,746.498267L217.750318,749.193538L213.407220,750.556664L210.058629,751.362148L205.179719,752.260573L202.220160,752.446454L199.050453,753.128018L194.666951,754.646048L189.302073,756.690743L184.893300,758.208775L180.937232,759.076223L176.174681,760.594256L170.560943,761.616606L163.901004,762.484055L157.908216,763.506406L148.031018,764.869540L143.564556,766.046794L135.676833,768.618166L128.220847,771.840130L122.801580,774.907196L117.991787,777.788382L113.312496,781.196243L109.012256,784.604108L105.926973,787.888055L105.130632,788.693553L96.578547,799.567794L92.668197,806.228680L89.839152,811.650345L87.061837,817.784588L84.973632,822.710583L82.889156,830.548822L82.562742,835.134050L82.977142,839.223585L84.091960,842.972332L85.401373,848.765862L85.977977,854.559407L86.881925,859.640389L88.069633,863.575060L65.867711,991.563969L108.200988,993.639858L130.358774,994.724279L162.743321,996.304436L223.329766,997.110006L257.817447,997.543775L367.305135,999.000000L369.408932,994.631329L375.891373,994.600345L385.104041,994.507395L390.626193,994.476411L395.151629,994.352478L399.687236,994.383461L409.582213,994.290511L419.275024,994.197560L420.930751,994.166577L429.752213,994.042643L432.658349,994.042643L438.647517,994.042643L472.806352,993.701825L492.798468,993.515925L512.069874,993.361007L521.004559,993.268057L546.142714,992.865273L573.960548,992.400521L601.421637,992.121670L602.065856,990.541516L603.578448,986.792528L605.025410,983.198463L607.484182,977.156727L615.577418,956.862808L622.318021,940.596820L637.675052,906.144289L667.121314,839.223585L675.609415,818.837944L678.539506,811.805250L687.136961,790.924162L693.191174,775.805630L699.853989,760.563276L703.269207,752.446454L706.503600,744.577502L712.586493,729.273396L716.371757,720.939827L730.399917,690.053221L733.503455,683.268756L737.931474,673.479336L739.155340,668.088977L740.678468,662.946463L739.452739,664.526391L738.547198,665.053034L737.617384,665.517719L736.194318,666.013383L734.724703,666.261215L732.890176,666.416110L731.346747,666.540026L730.308706,666.663942L728.813821,666.911774L727.495821,667.159606L726.025208,667.469397L724.528328,667.841145L721.964148,668.584642L720.401601,669.111286L718.532829,669.823804L716.485176,670.660239L716.077873,670.846113L713.913018,671.899402L712.663845,672.580942L710.558674,673.851086L708.783002,675.059272L706.683814,675.957667L705.621842,677.568583L704.224217,678.838729L703.030742,679.984959L701.604858,681.440982L699.969841,683.330715L698.988668,684.631844L692.949208,693.275074L690.788885,696.403994L689.910790,697.581212L688.120186,699.718794L687.361285,700.555240L685.870747,702.104214L684.895562,703.033600L683.485814,704.272780L682.615692,704.954330L681.592957,705.697839L679.931511,706.875062L678.155853,708.083265L676.509532,709.105592L675.438250,709.725184L673.412885,710.747511L671.529989,711.552981L669.564125,712.017676L668.334068,712.296492L666.775506,712.575309L665.078459,712.823146L663.508755,713.009024L662.357494,713.101963L660.006424,713.163922L658.932963,713.132943L657.721018,713.070983L656.270505,712.916085L654.735034,712.544329L653.944519,712.203553L653.229813,711.862777L651.851937,711.119266L624.786001,697.116520L624.425900,695.939302L624.519655,694.824044L625.964662,692.965280L628.068503,690.208118L629.945919,687.389000L631.495833,684.507927L632.446598,682.742109L633.546822,680.325730L634.947126,677.320749L635.921173,675.678854L637.009271,673.231503L638.890546,669.390097L638.649671,667.872124L639.632241,663.349189L640.134324,661.986115L642.260420,653.931601L644.135451,648.913033L703.095014,639.123760L708.637278,612.761085L722.262994,598.325248L732.064774,588.319346L741.685707,578.561310L758.856540,578.530333L775.993973,578.220554L780.505665,569.546781L782.917414,563.382227L785.026072,557.992128L790.039593,544.857686L790.607431,543.339796L792.388765,538.662221L792.978870,537.330198L799.881228,520.695468L822.183918,466.734104L829.614496,448.736941L838.263054,428.106977L864.198144,366.187231L872.835603,345.527039L878.969708,331.185817L880.165414,328.367143L884.684474,317.773914L887.155787,311.888808L890.485274,303.742608L892.470449,299.003577L896.272041,289.804310L906.744123,264.405853L909.807984,257.065133L911.540569,253.100534L915.135102,245.759850L917.347801,241.795271L921.555857,234.795328L925.078667,227.981245L927.308670,222.963615L929.478058,217.791131L934.132289,206.702853L931.101125,196.636725L923.539249,194.747396L920.280834,193.911135L911.187822,191.402357L906.725729,190.008592L902.353601,188.521910L893.214236,184.991046L867.627638,174.429457L858.280099,171.270281L848.090602,168.606666L828.178478,164.084723L806.705940,159.191122L790.751586,156.000996L775.354278,151.974629L760.513007,147.173971L754.234968,144.820103L748.047925,142.311379L736.072150,136.891304L725.838836,131.533186L707.000675,120.135613L687.525016,108.335468L681.053319,104.711814L639.207002,81.266602L619.408367,82.908069L612.610247,92.911750L602.987579,92.663980L612.484413,77.612020L611.593824,65.781125L606.414857,62.684043L601.941520,58.936579L599.955059,56.830568L596.133126,51.131962L591.624703,42.646021L583.620134,27.873125L578.070810,19.696973L571.613777,12.171223L568.071392,8.671602L564.311679,5.326837L560.629605,2.632447L556.895976,0.000000Z "/></g><g fill="#000" font-family="Arial" font-size="12px" id="mylayer-label" stroke="none"><text text-anchor="middle" y="576.998435403"><tspan dy="0" x="519.637873607"><![CDATA[N]]></tspan></text></g></svg>