<?xml version="1.0" encoding="utf-8"?><!DOCTYPE svg  PUBLIC '-//W3C//DTD SVG 1.1//EN'  'http://www.w3.org/Graphics/SVG/1.1/DTD/svg11.dtd'><svg enable_background="new 0 0 1000 1001" height="1001px" pretty_print="False" style="stroke-linejoin: round; stroke:#000; fill: none;" version="1.1" viewBox="0 0 1000 1001" width="1000px" xmlns="http://www.w3.org/2000/svg" xmlns:xlink="http://www.w3.org/1999/xlink"><defs><style type="text/css"><![CDATA[path { fill-rule: evenodd; }]]></style></defs><metadata><views><view h="1001" padding="0" w="1000"><proj flip="auto" id="robinson" lon0="-118.309085914"/><bbox h="0.86" w="0.71" x="-1659.64" y="-568.58"/></view></views></metadata><g class="" id="mylayer"><path d="M364.867772,0.000000L354.617187,0.313921L353.563959,0.333542L352.356162,0.372782L351.270256,0.392402L344.180330,0.431642L341.191556,0.470882L340.834389,1.275306L337.290558,11.379633L334.250963,18.717514L330.216113,29.037606L324.824039,43.242394L318.769146,58.879361L314.255312,70.749279L313.924660,71.612544L310.411697,80.912249L304.103066,97.255337L302.268245,102.003253L298.228189,112.636991L294.016706,123.761177L292.479915,127.645805L286.537046,142.693788L282.574848,153.935587L280.046361,160.409903L279.282834,161.763623L277.095478,167.688589L269.350278,187.699987L267.425623,192.683198L265.021844,199.216294L262.687596,205.141193L261.329466,208.986486L259.300278,213.773476L253.795235,228.448305L252.394350,232.234714L249.781356,239.101248L249.167977,240.788451L243.467152,255.463158L239.880354,264.958521L236.088948,275.415160L234.282563,280.260908L232.594677,284.498480L232.284065,285.224359L231.375158,287.598181L231.037135,288.481007L229.874157,291.561086L228.739915,294.523453L223.965286,307.079149L222.632360,309.963028L220.716991,314.965670L218.534400,320.282195L216.190020,326.618854L212.340448,336.545607L210.670399,340.822341L204.749718,356.457877L202.239468,362.715994L199.192863,370.759323L195.351540,380.921356L192.554201,388.356491L191.383120,390.946032L190.408543,393.790602L184.989002,408.033032L182.752403,413.918316L179.698181,421.726109L177.544247,427.395575L170.939915,444.776645L150.083730,499.136031L145.712071,510.258898L142.418588,518.949224L136.431548,534.976243L132.351667,545.294699L123.621617,568.874013L123.109783,570.168713L122.688040,571.228012L109.444917,605.576585L105.316149,616.365611L96.739494,637.198139L93.112715,648.085141L89.494786,658.265928L88.847069,660.129459L108.985129,653.538437L153.633032,638.924369L171.597729,633.059106L180.365212,630.175512L214.305848,619.072670L250.807966,607.126283L323.105180,580.212425L333.306195,576.956069L333.032438,577.799583L332.409802,578.956963L331.962935,579.996642L329.764877,585.783533L315.000357,624.369083L308.419189,641.611793L307.571061,643.828426L300.569850,662.169535L295.422635,675.665387L294.726844,677.313132L294.053571,678.902029L288.890184,692.397812L283.734439,705.873924L281.022624,712.876772L281.521707,712.896388L273.979318,732.355205L272.552186,736.042952L271.449416,738.455677L267.822780,748.106562L267.258647,749.538500L265.248925,754.834702L261.151838,765.544775L260.544036,767.133629L259.223386,770.585951L258.655777,772.155187L257.840550,774.371732L257.011655,776.666737L253.843513,785.375972L249.004675,797.812091L245.858672,806.207426L243.258595,812.876602L242.987150,813.543519L235.290526,833.707882L232.213610,841.965820L227.721454,854.009426L230.989856,854.009426L247.993048,853.989811L259.695263,854.029041L261.599776,854.048656L263.397397,854.048656L283.786874,853.891736L291.016206,853.832891L298.551210,853.872121L297.496896,856.500525L293.158852,867.543719L288.123233,880.411053L287.438956,882.627525L286.270835,885.510897L285.525491,887.374300L284.982694,888.708103L284.780150,889.237702L281.054015,898.809685L279.355200,903.379904L277.741059,907.557825L270.591044,926.211293L270.092753,927.172405L263.270367,944.884271L257.332243,960.968052L256.945690,961.850697L250.224505,979.640832L246.116512,990.212874L243.720740,996.136341L243.065551,997.764312L246.874837,996.136341L248.558111,996.136341L252.823495,996.136341L261.590558,996.116727L270.480861,996.116727L279.231581,996.097113L287.893089,996.097113L296.521912,996.097113L305.158235,996.077499L314.718579,996.077499L326.786820,996.057885L334.712917,996.057885L338.569740,996.057885L351.373392,996.038270L381.581772,996.018656L393.748067,995.999042L397.163643,995.999042L402.818137,995.999042L403.537206,995.999042L404.370672,995.999042L405.382317,993.566892L423.369257,949.944786L432.907313,926.838958L443.495079,901.202676L445.070373,901.869575L445.289237,901.339979L446.464532,901.300749L463.348124,901.124217L472.966953,900.928071L478.740555,900.829997L495.200588,900.692694L510.833875,900.751538L520.945946,901.359593L521.641158,901.379208L513.222689,921.386116L504.072530,944.119308L501.403600,950.415531L499.232925,955.750639L493.799390,969.362971L491.689567,974.325377L490.210274,977.895167L488.930786,980.856913L480.759576,980.856913L455.479198,980.896142L435.443392,980.896142L434.670486,980.994213L432.782825,981.229583L430.326425,981.798395L429.260146,984.544381L423.727694,998.843087L424.152599,998.843087L424.446763,998.843087L473.681836,998.941158L474.400905,998.941158L474.671227,998.960772L513.983729,998.980386L523.324127,999.000000L526.023532,998.607718L527.116565,998.313507L529.337435,997.548557L531.243764,996.665922L533.566362,995.292934L551.230283,983.544058L553.395616,982.112222L558.441313,967.205400L569.998269,932.448707L580.142379,901.987263L583.328632,892.415289L583.447298,892.062224L584.084290,890.139980L584.692623,888.335423L586.004122,884.392855L586.092788,884.118249L594.406737,859.128926L594.540413,858.736627L595.729846,855.284398L596.332067,853.538667L604.891734,828.549112L606.273606,824.508397L608.800016,817.133098L610.889225,811.072003L614.911525,799.400930L616.769595,793.987107L618.599017,788.690967L620.368444,783.551742L621.929170,779.000971L624.577210,771.350954L626.229343,766.604011L628.253939,760.797824L629.936120,755.972404L630.464785,754.462007L638.191069,732.296358L642.538039,719.820759L648.707399,702.068448L650.419811,697.164478L651.767243,693.300145L654.923357,684.237578L659.054512,672.369893L659.195749,671.957956L660.037001,669.545182L662.479552,666.406611L661.117046,666.465459L662.813249,661.561435L666.477532,650.615629L672.323467,634.138002L674.330136,628.508127L679.683223,613.148523L704.453133,541.999074L729.385015,470.691139L738.496960,444.658940L740.705811,438.459833L741.591686,436.870820L745.829424,429.298473L759.882748,392.790099L763.136326,384.374085L768.529779,370.366966L773.825770,356.614820L778.971731,343.254977L784.455722,329.012264L801.180267,285.616727L811.451216,258.955258L821.443501,232.980224L822.886786,229.252672L855.966885,143.400080L860.604186,131.373474L864.128523,122.211249L871.931229,102.003253L879.717901,81.795131L887.512392,61.567264L895.307190,41.339270L903.087268,21.150390L911.152931,0.941764L909.558840,0.667083L907.940301,0.882904L890.914804,0.882904L874.296476,0.843664L871.943624,0.843664L867.163738,0.824044L854.033184,0.765183L843.980967,0.902524L833.522536,0.863284L822.953311,0.686703L796.902346,0.745563L786.759606,0.863284L777.943926,0.843664L768.116523,0.863284L762.833703,0.706323L757.527029,0.568983L749.495633,0.549363L736.461807,0.451262L713.677381,0.470882L700.206327,0.490502L694.790521,0.510122L688.278676,0.490502L685.972222,0.412022L680.322773,0.529742L666.460540,0.333542L664.110309,0.412022L651.927435,0.353162L646.675022,0.372782L641.848739,0.431642L637.082574,0.333542L630.571073,0.568983L627.171200,0.529742L625.945756,0.529742L624.711488,0.510122L611.255120,0.235441L608.730051,0.215821L570.413550,0.431642L550.141440,0.333542L546.915094,0.353162L541.442755,0.392402L535.388409,0.372782L529.357918,0.333542L524.282618,0.274681L519.183464,0.235441L494.680801,0.176581L489.330352,0.196201L483.778934,0.313921L472.845361,0.235441L461.669316,0.235441L452.050398,0.137341L443.797770,0.098100L440.668151,0.078480L430.547950,0.137341L427.171933,0.078480L416.497506,0.176581L399.370052,0.058860L386.317610,0.137341L375.808859,0.058860L364.867772,0.000000L364.867772,0.000000Z " data-aland="15097442" data-awater="93629" data-classfp="C1" data-funcstat="A" data-geoid="0628168" data-intptlat="+33.8944169" data-intptlon="-118.3075220" data-lsad="25" data-mtfcc="G4110" data-name="Gardena" data-namelsad="Gardena city" data-pcicbsa="Y" data-pcinecta="N" data-placefp="28168" data-placens="02410570" data-statefp="06"/></g><g fill="#000" font-family="Arial" font-size="12px" id="mylayer-label" stroke="none"><text text-anchor="middle" y="428.182763474"><tspan dy="0" x="489.873861079"><![CDATA[Gardena]]></tspan></text></g></svg>