<?xml version="1.0" encoding="utf-8"?><!DOCTYPE svg  PUBLIC '-//W3C//DTD SVG 1.1//EN'  'http://www.w3.org/Graphics/SVG/1.1/DTD/svg11.dtd'><svg enable_background="new 0 0 1000 1001" height="1001px" pretty_print="False" style="stroke-linejoin: round; stroke:#000; fill: none;" version="1.1" viewBox="0 0 1000 1001" width="1000px" xmlns="http://www.w3.org/2000/svg" xmlns:xlink="http://www.w3.org/1999/xlink"><defs><style type="text/css"><![CDATA[path { fill-rule: evenodd; }]]></style></defs><metadata><views><view h="1001" padding="0" w="1000"><proj flip="auto" id="robinson" lon0="-121.228335599"/><bbox h="0.56" w="0.57" x="-1671.53" y="-637.77"/></view></views></metadata><g class="" id="mylayer"><path d="M1000.000000,664.413957L944.776113,620.706466L943.669548,619.841270L792.230272,488.303401L766.512357,461.304101L730.159031,430.426625L699.167706,399.549337L645.204761,358.320247L634.168127,349.877573L633.417863,349.400249L612.709945,335.319214L476.687820,242.808986L475.450228,241.914023L418.090192,200.686220L375.842280,170.317475L347.187467,150.479445L344.128546,148.271910L336.885508,143.140886L296.835496,114.592201L244.848455,77.571629L150.665783,10.511692L145.027476,6.693360L139.418809,20.326013L135.832556,28.738303L131.754484,38.612322L128.938636,45.801574L127.405423,49.619936L122.846763,63.014058L120.134394,71.844055L118.505141,77.690954L116.583169,85.894522L115.052354,93.232998L112.617011,109.729693L111.334175,122.288695L107.495810,155.938625L104.266603,184.129563L101.013902,214.617719L99.857346,224.014791L98.111597,240.004769L96.487151,257.009092L95.544405,265.720101L93.097234,291.972547L91.700712,298.535680L91.045559,304.740831L90.497335,313.541420L86.418508,350.086402L86.275285,355.426466L84.760877,364.495639L84.114930,371.536192L83.053691,375.861960L78.971483,412.258227L77.500852,428.606799L77.405664,434.215445L77.178687,436.214273L76.636940,444.895757L76.569877,451.190588L77.194742,486.901224L77.354762,496.328635L77.414320,505.069890L76.955064,516.884032L76.540125,521.597764L76.216155,525.147982L68.485954,598.658939L66.420351,618.468891L64.246160,633.654585L60.464279,658.655884L56.820036,680.733505L53.180110,699.380220L50.065699,715.580540L46.028822,738.583294L44.898001,746.221066L44.610460,749.264244L44.220225,752.695281L44.113952,754.962749L42.873658,762.361865L42.075965,767.016153L33.837757,834.891665L31.814760,847.929833L30.188476,861.266392L27.622660,882.300633L25.577191,884.210129L24.246998,885.284220L21.665131,887.044538L19.387020,888.506496L16.089022,890.087799L12.192852,891.549759L6.448284,892.773032L5.555860,896.621868L5.082469,898.740220L2.115950,910.018225L0.000000,928.934300L13.157883,925.145112L16.188775,924.369373L16.825049,924.190356L22.814382,922.638879L20.824200,937.318260L19.660936,948.775367L19.217358,950.774397L14.630285,988.487569L21.692923,990.068903L27.800229,991.680074L28.465761,991.650237L30.823692,992.097785L34.714249,992.306640L38.149194,992.187294L39.437529,992.008275L40.696603,991.680074L47.170306,989.322991L52.538197,987.115091L67.778951,979.834997L72.762288,976.552991L81.354257,972.017859L88.877111,968.139130L91.132853,967.154530L96.307080,965.215167L103.649272,961.843661L105.536720,961.246935L109.603741,960.262336L110.975670,959.844628L118.287208,957.129524L122.449439,955.399019L124.377292,954.712785L126.143522,954.384585L130.067495,953.877369L132.711498,953.370152L136.026603,952.713754L140.000738,951.132432L141.128376,950.774397L154.854152,947.492409L163.058779,945.045838L167.351508,943.882225L170.237011,943.375009L184.886978,942.539595L193.567168,941.286474L201.798250,940.600242L210.182594,939.734992L213.688107,939.138268L223.203334,937.586786L224.838124,937.228752L226.137598,936.811045L230.799075,934.991039L233.382232,933.976609L240.656589,931.022830L256.855428,923.653307L264.728435,920.550353L272.054348,917.268384L286.124233,912.047075L289.262844,911.032650L293.040042,910.048061L296.803303,909.361833L300.721678,908.973964L308.603007,908.794948L316.327818,909.123145L320.416630,909.481177L326.550306,911.301174L331.090080,911.569699L332.973797,911.569699L334.991267,911.808387L339.986645,912.405108L342.406309,912.822812L344.303495,912.792976L350.442297,911.659207L353.697932,911.241502L359.214865,909.719865L364.729476,907.989376L372.327041,905.871019L377.374436,904.319548L382.493815,903.036600L384.287433,902.380209L386.814383,901.276277L400.313884,896.890391L409.676280,892.146478L410.406825,891.758611L411.361695,890.445830L414.816113,888.357317L421.996645,883.792427L427.445801,879.585570L433.077014,875.617404L438.768153,871.142032L441.653662,869.083363L444.329245,867.382723L446.537144,866.129621L448.333552,865.413562L456.096466,862.340479L464.642862,859.297234L465.950222,858.969041L469.393935,858.402162L479.574127,857.089390L491.011057,855.239576L500.883774,854.821876L504.684158,854.374341L509.417558,854.374341L514.225726,854.583191L519.842935,854.016312L526.012336,853.777627L532.209143,853.210749L538.258732,852.435021L543.220631,852.196335L546.433049,851.927814L549.525186,851.390772L551.055937,850.674715L554.386814,848.645889L556.032739,848.049176L559.434189,847.094435L561.104264,846.497722L566.928634,844.081034L573.429203,841.664348L580.440179,838.919471L593.752514,832.594325L604.063746,826.925569L606.873071,825.463628L611.579601,822.420405L616.312600,819.586031L623.083975,815.767089L637.227274,806.905960L643.922058,802.400813L650.097595,798.671390L661.974053,791.033539L668.405523,786.737253L674.360938,783.067511L680.231396,778.890573L683.957550,776.414247L685.875184,775.429684L688.560507,774.295945L689.860449,773.609735L692.673060,771.819621L696.905013,768.597418L701.086841,764.897855L704.864096,762.361865L715.431937,754.306377L724.099656,749.443255L731.230069,745.952551L741.609998,742.432014L764.197328,735.301442L778.273453,726.589627L795.043175,718.116507L809.768317,712.567217L869.770458,695.471863L885.651821,691.533674L892.657097,690.459623L896.610686,689.833093L908.830410,688.281687L929.633707,688.311522L947.228414,688.013175L961.581283,684.999868L967.334902,684.612016L974.789532,685.805405L983.889234,685.387719L993.718154,677.899211L997.342672,669.336667L1000.000000,664.413957Z " data-aland="6704437" data-awater="0" data-classfp="U1" data-funcstat="S" data-geoid="0628182" data-intptlat="+37.9636782" data-intptlon="-121.2296237" data-lsad="57" data-mtfcc="G4210" data-name="Garden Acres" data-namelsad="Garden Acres CDP" data-pcicbsa="N" data-pcinecta="N" data-placefp="28182" data-placens="02408275" data-statefp="06"/></g><g fill="#000" font-family="Arial" font-size="12px" id="mylayer-label" stroke="none"><text text-anchor="middle" y="545.946456584"><tspan dy="0" x="387.694495587"><![CDATA[Garden Acres]]></tspan></text></g></svg>