<?xml version="1.0" encoding="utf-8"?><!DOCTYPE svg  PUBLIC '-//W3C//DTD SVG 1.1//EN'  'http://www.w3.org/Graphics/SVG/1.1/DTD/svg11.dtd'><svg enable_background="new 0 0 1000 1001" height="1001px" pretty_print="False" style="stroke-linejoin: round; stroke:#000; fill: none;" version="1.1" viewBox="0 0 1000 1001" width="1000px" xmlns="http://www.w3.org/2000/svg" xmlns:xlink="http://www.w3.org/1999/xlink"><defs><style type="text/css"><![CDATA[path { fill-rule: evenodd; }]]></style></defs><metadata><views><view h="1001" padding="0" w="1000"><proj flip="auto" id="robinson" lon0="-121.590292977"/><bbox h="1.33" w="1.54" x="-1684.29" y="-621.84"/></view></views></metadata><g class="" id="mylayer"><path d="M1000.000000,829.803145L999.575986,828.462699L999.527441,828.119279L998.031547,822.979058L996.629759,818.160104L996.335610,816.830738L995.748568,814.914236L995.426868,813.607026L995.121974,812.654314L994.982418,812.355207L994.803303,811.712680L994.663747,811.413573L994.392372,810.073130L994.128193,809.109340L993.706511,807.846443L993.541182,807.192839L993.316563,806.572469L992.891870,804.943997L992.188081,802.717312L992.127412,802.484673L990.288180,795.549827L989.947949,794.264776L989.559834,792.614151L988.887835,790.376390L988.736310,789.711709L988.287119,788.470971L988.252383,788.116475L988.291986,787.673354L988.090149,787.041907L987.658349,785.036786L986.987386,782.920886L986.546822,781.536135L985.991655,779.608562L984.725659,773.980936L984.308876,772.706966L983.920835,771.056344L982.375234,767.046111L980.695482,763.490076L979.697773,761.817300L978.093377,759.391222L976.060712,756.876520L972.433322,751.913586L971.975137,751.459390L970.950627,750.096799L970.414485,749.387809L969.947327,748.933612L968.136928,746.651551L965.165870,743.217381L964.564015,742.453002L963.662083,741.511375L963.384409,741.179036L964.224143,740.691606L965.063877,740.204176L970.472470,737.046958L985.373937,728.372923L984.661613,725.049540L983.410932,719.222545L983.034589,717.483310L981.911041,712.232372L980.787549,706.981437L980.431458,705.319749L979.137068,699.304442L977.842753,693.289139L977.055931,689.600199L976.980854,689.090616L976.176213,683.684604L975.366825,678.289673L975.073622,676.317810L974.287406,671.055818L973.510220,665.793829L973.243048,664.010292L973.054461,662.769571L967.449915,664.309395L949.456373,669.227969L944.435511,670.601625L943.354347,670.900727L942.264207,671.199830L942.319697,671.609711L942.322616,671.975281L942.266876,672.351929L942.517048,677.215118L942.538895,677.702545L942.483159,678.079193L942.299247,678.854645L942.288387,679.231293L942.455216,680.604951L942.329966,681.369325L942.358573,682.089387L942.314741,682.831606L942.382816,683.895083L942.257571,684.659458L942.348407,685.711858L942.307508,686.819647L942.440935,687.484321L942.437818,688.215462L942.303603,688.979837L942.306533,689.345407L942.486533,690.730144L942.296595,691.871168L942.299527,692.236739L942.361756,692.569076L942.426742,694.363696L942.336518,695.626577L942.177814,697.709223L941.872709,700.356844L941.775187,702.029608L941.813824,703.181711L941.883358,705.131424L941.834553,706.671255L941.800759,707.845514L940.849129,708.321865L939.883716,708.809293L933.390579,712.066203L929.377678,714.281788L928.863239,714.536580L924.964073,716.386595L913.454080,721.814782L907.136530,724.584267L890.065827,732.837336L883.744808,735.883773L878.049176,738.874821L877.587666,739.317939L877.305666,739.761058L869.850561,742.918276L849.099691,753.054618L847.391643,753.929778L847.141316,754.051636L845.974500,754.051636L845.144106,753.276177L844.775221,752.057600L844.011991,750.506684L843.479829,750.285124L842.444464,750.395904L840.588571,750.949803L839.815118,751.160284L833.895772,752.722279L831.046843,753.475581L828.690580,754.107025L826.795888,754.605534L824.988054,755.048653L816.487823,757.718446L815.432945,758.039708L807.788153,760.144524L797.694501,763.135580L790.988949,765.351178L782.619735,767.677556L782.269941,765.794298L781.452072,761.928080L780.293509,756.488791L778.746907,747.847971L777.981858,744.646439L777.024375,740.647294L776.668308,738.985601L775.765955,734.631964L775.446151,733.114285L775.221550,731.563372L774.836591,729.347782L774.130922,725.802840L773.316188,721.371665L772.501494,716.940491L772.199662,715.112633L771.661129,711.844644L771.157662,709.695527L770.737261,707.934138L771.389876,707.712579L772.219747,707.413476L771.213870,707.435631L770.625666,707.446709L782.822981,702.007453L819.388016,685.689702L831.581175,680.239380L831.346097,678.278595L831.113275,676.395355L830.581000,673.071991L830.449229,672.507019L830.022501,670.657014L838.841725,666.115087L839.648088,670.668092L840.591422,670.169588L885.571871,646.208180L900.567220,638.209980L900.729416,638.498004L901.153833,640.270458L901.324365,640.580637L901.555487,641.433630L902.121583,642.652193L902.224489,643.283630L902.547620,644.524348L902.662390,645.211174L902.795744,645.565665L903.111819,646.429737L903.358350,647.681533L903.851055,648.800396L903.802662,649.077342L905.111863,652.223451L905.156110,652.555786L905.349421,653.165068L905.837332,654.295009L906.006934,655.103693L906.471437,655.956687L908.437530,660.133040L909.442856,661.994121L909.714359,662.071666L910.645605,663.234842L910.874152,663.245920L911.116501,663.556100L911.910894,664.951911L912.156133,665.317480L913.111446,666.735448L914.697963,668.829165L914.899916,668.984255L916.286100,671.022584L915.196627,650.162971L913.163693,611.235497L935.602139,611.047174L947.919034,610.936396L953.972214,603.669363L954.781276,602.694518L954.390555,602.395417L954.004643,602.085239L953.542146,601.165783L954.021404,599.648126L954.044502,599.160704L954.860047,596.723592L954.987308,596.513114L955.982644,594.840369L957.757550,592.591580L960.084724,590.641892L962.802979,588.204782L965.531169,585.889528L970.089081,581.757522L971.662364,580.118014L973.262286,578.024317L974.407734,575.509667L975.711885,572.629451L976.616855,571.289043L983.195220,573.770459L984.466583,572.020175L985.331793,570.812700L989.205814,569.682770L990.876138,569.184271L989.178124,567.389677L986.742339,564.731019L984.367528,561.518475L983.603139,560.798422L980.479896,557.862823L978.800424,556.976604L976.486283,556.311940L971.893227,555.314945L968.867545,554.428726L965.764995,553.099399L963.261910,551.216186L961.095492,548.557533L957.778700,543.794115L956.283274,542.752810L956.195460,542.686344L953.859035,541.246242L952.676445,540.249248L951.799161,532.306534L947.333749,535.253203L946.189989,536.006486L945.037255,536.759770L945.090756,536.925936L945.256713,537.391199L945.306049,537.546287L945.178816,537.446588L944.802573,537.114257L944.671175,537.003480L943.751487,537.612754L943.033111,538.089095L942.822825,538.222027L938.100976,541.345941L936.458750,542.420479L932.362150,530.689191L930.762930,526.125181L928.923498,520.874357L923.184799,517.927694L916.620685,515.435217L910.664661,514.249905L904.643954,512.820885L901.618060,512.100837L892.597975,510.428108L882.266638,506.174284L853.760310,494.443046L850.763169,494.276881L849.441685,494.199338L848.394983,493.778387L847.795541,494.022095L846.072423,494.022095L838.030381,494.664599L835.682815,492.692778L835.673562,492.548768L835.150204,480.673540L834.979019,476.707749L832.388504,477.981676L830.982174,478.657412L824.609929,481.736993L822.015900,482.977688L821.589048,480.695695L820.308555,473.849722L819.881746,471.567733L819.406069,453.489079L821.622563,452.270544L821.517965,451.705586L849.324873,436.407446L849.940713,436.064041L831.949165,335.657553L864.753957,322.575114L873.689672,319.008186L884.798108,314.798771L912.051779,304.474636L912.065828,302.480706L912.069717,301.893604L911.102659,267.697784L910.973449,263.122844L866.971369,278.697589L868.454559,311.830027L843.094424,321.389830L821.795606,329.409882L821.921693,314.665842L822.011416,304.197701L822.050322,298.636853L822.140057,283.937180L810.717100,288.002573L808.436229,288.811221L799.979210,291.813188L799.639190,284.812292L799.348069,279.040987L798.679670,263.754252L798.372424,256.720148L808.820419,252.854163L831.173447,244.557256L831.271834,235.806189L831.372463,225.626163L830.897912,215.180295L829.476186,183.820623L828.998322,173.363736L829.240250,167.359894L829.439546,162.485929L816.200664,166.950037L810.159390,168.977164L808.705604,169.431329L808.657906,170.428277L808.290735,177.772464L808.159394,180.220528L806.531811,180.785466L803.829972,181.715952L795.154501,184.662492L790.867109,186.102531L786.543822,187.542570L786.632452,179.456200L786.673036,175.689949L787.029352,157.744894L787.104003,156.747948L787.245365,155.019908L787.749449,148.661611L787.880838,146.667721L789.322515,143.167338L790.949281,139.179561L793.083952,133.962223L793.490299,132.677274L794.576615,129.210129L794.908401,126.219302L795.900363,117.213597L796.228059,114.211697L794.561725,114.721245L789.562723,116.249887L787.896388,116.759435L787.815519,117.811761L787.554975,120.968742L787.469959,122.009992L787.424466,122.630311L787.279020,124.491269L787.224557,125.111589L784.330670,137.706300L782.931482,139.334641L782.304248,140.054656L780.086924,142.635634L778.037089,145.017224L775.083967,147.598203L774.959078,149.824714L774.021510,166.938960L773.839353,170.184579L773.326242,178.957726L772.544098,192.394396L772.210676,198.010554L771.197630,214.847977L770.860284,220.453075L757.116267,225.460003L757.156999,223.488248L757.293689,217.539753L757.330293,215.556922L700.910961,235.828344L700.997000,232.183915L701.005114,232.062065L700.983087,222.103589L701.010410,220.885088L701.086722,217.118817L701.494911,201.920821L701.888983,187.210253L702.170855,170.262119L702.476479,156.437787L702.529745,153.757110L702.631828,141.350684L702.719981,137.207828L702.966687,124.779275L703.045996,120.636428L703.258532,109.958085L703.902246,77.912072L704.111487,67.222714L703.438819,67.510717L701.839572,68.175340L701.412508,68.352573L700.735687,68.629499L691.918994,70.889218L665.451598,77.646223L656.621754,79.894867L643.645071,83.528146L627.234764,88.102978L627.515179,102.060109L635.672366,100.099463L644.770078,97.895121L648.541835,96.898183L658.921391,94.139988L689.951664,85.887562L690.060007,85.865408L700.435376,83.096140L700.424724,83.450606L700.392772,84.514005L700.377968,84.857394L700.156813,93.863061L699.573290,117.645604L699.599778,120.802585L699.598295,121.301056L699.525459,129.719677L699.465577,132.167726L699.300454,139.478644L699.245435,141.915619L694.684766,143.488575L686.756173,146.058477L670.673315,151.242591L669.448560,172.688026L668.728726,185.216353L674.679774,183.809546L690.662823,180.010061L692.556989,179.533741L698.529281,178.016163L698.491434,180.785466L698.430090,182.989832L698.220232,189.868788L698.234411,195.407404L698.138276,197.877628L697.944058,202.884541L689.113675,205.155377L662.605202,211.945735L653.770638,214.205496L653.074387,214.382732L646.456373,216.188326L632.718667,219.921366L632.777894,228.018855L632.823592,235.219093L632.844566,236.924996L632.889576,242.042708L632.906416,243.737536L631.571454,244.269246L630.990754,249.608510L628.787425,269.680628L628.371690,273.402616L631.293304,272.173030L630.762388,276.903058L630.318677,280.813364L629.846547,284.623976L629.022354,291.226088L629.009201,291.669182L628.777115,293.441562L628.317401,295.324716L628.028460,295.989359L627.754181,296.764776L627.636633,297.097097L626.707002,299.091026L626.342987,299.866443L622.974496,299.977217L622.305613,299.988294L621.067218,299.988294L610.296590,300.054758L606.289424,300.065836L602.142745,309.769631L598.401359,318.520780L588.939975,318.465393L581.981666,318.432161L574.139751,318.387851L574.375710,317.845058L575.088405,316.205602L575.329181,315.651731L582.901653,315.552035L587.740575,315.485570L589.374488,315.463415L594.635938,303.422284L588.256158,303.400129L580.737352,303.355820L581.030455,302.702254L581.895977,300.752634L582.184925,300.087990L581.224720,300.087990L578.317183,300.087990L577.348004,300.087990L579.355347,295.346871L573.883265,295.280407L546.031269,294.881621L544.775587,294.859467L546.476363,290.472826L549.333804,284.911988L549.935381,283.693478L549.760062,283.704555L546.230715,283.793174L545.054486,283.815329L542.380946,283.793174L534.342378,283.726710L531.664681,283.693478L535.328085,276.382423L541.661577,264.086572L546.990356,253.895431L552.505364,243.482758L553.247729,241.156524L556.332602,235.507102L562.929437,223.432862L567.864277,212.931611L568.314479,211.978966L569.669909,209.109957L570.115960,208.146235L572.340573,203.216859L572.807227,202.164520L574.767426,196.625900L576.500688,191.175901L577.351890,188.517366L577.441925,188.207204L578.699422,183.665542L575.368473,182.225504L569.795748,179.832826L550.128025,171.369839L545.196349,169.298403L543.047833,168.378996L534.111975,164.579518L530.009435,174.072677L521.303691,194.211062L517.717104,202.518992L513.610966,212.001121L455.295387,209.929674L411.474893,208.367781L402.350210,227.819464L401.707916,229.193047L374.844738,286.484974L306.090779,283.959335L299.601001,283.715633L273.114216,348.673549L267.853923,360.504276L259.986722,360.249495L232.243705,359.330065L218.756638,378.028851L213.944775,388.519243L203.982286,410.197953L205.914616,411.615878L201.014674,422.826354L199.056239,427.290609L204.131561,443.053991L202.206784,459.747922L200.632994,473.384462L196.585969,473.672480L195.683050,473.705713L188.766800,473.905110L184.499988,474.038042L182.489282,474.204206L177.386896,473.761101L173.357005,472.708727L170.218210,471.567733L169.601034,472.409632L169.280099,472.032993L168.299347,470.903076L167.974253,470.515359L167.735213,470.404583L167.018094,470.072254L166.774894,469.950400L161.889035,481.172033L153.447175,500.535755L141.853544,500.635454L141.288144,500.635454L136.777825,511.159235L136.519268,512.167303L136.196176,513.385847L134.791074,513.252915L133.999103,513.175371L131.378011,516.542984L123.663973,527.066785L123.378830,527.454504L117.535017,535.120270L114.468489,539.141477L113.015480,541.246242L112.258393,542.575567L111.315297,544.126447L106.100467,550.551523L104.496582,553.210177L103.194516,554.761058L101.905480,555.868831L97.022554,558.638264L94.746292,559.746037L92.566290,560.632256L91.075678,560.964588L90.267945,560.964588L89.335358,560.632256L88.845396,560.355312L88.188170,559.967592L87.034470,559.524482L85.156273,559.302928L82.906059,559.524482L79.675128,559.524482L78.771134,559.746037L77.908757,560.078369L77.033354,560.853811L76.714279,561.175065L76.399334,562.271761L75.936093,563.833722L74.455586,565.196284L73.514759,566.060348L72.225727,567.168122L71.577956,567.832787L70.766267,569.494448L70.249866,570.269891L69.829724,570.823778L68.547207,571.709998L66.269370,573.482438L65.975666,573.703993L65.327900,574.368658L64.513244,575.520744L28.057345,575.520744L8.788312,575.520744L0.000000,581.081779L2.631231,589.733515L13.992057,627.109998L30.380495,627.109998L72.069595,627.109998L177.413902,627.121076L175.460104,636.393216L173.745876,644.535426L163.550185,692.857101L181.211193,714.691671L221.981844,768.851823L233.952781,784.759836L259.928514,819.256832L281.605860,848.048737L304.582034,878.568917L339.061691,924.354906L344.315373,931.323081L344.656942,931.777286L348.695832,927.866688L367.226295,918.007114L373.830815,909.133505L422.010901,874.148747L424.008499,867.247082L444.659855,849.023609L465.962886,830.622922L468.600798,827.377049L474.341436,835.164930L478.551051,837.978761L483.619972,838.687758L485.655432,838.133854L486.075034,838.056308L487.415256,837.801512L487.601134,837.579950L487.966528,837.358389L488.511438,837.136827L488.918530,837.026047L489.674768,835.696678L491.389374,833.813405L492.663031,832.594818L494.961640,830.379204L501.744319,834.234372L496.338630,842.598320L495.009732,844.647765L494.479390,845.456465L487.379949,851.228149L492.160174,853.554548L491.027984,855.005778L490.524860,855.648308L493.092279,856.889055L494.097381,857.365413L499.463983,859.747204L514.275378,866.283286L515.429005,867.058754L520.188778,870.260328L524.230653,868.598611L536.282836,864.610492L536.689925,864.499711L538.497797,864.056587L540.071752,863.945806L540.748117,863.835025L542.594613,863.923649L543.213315,863.945806L543.910260,862.959854L546.001738,859.979845L546.694518,858.982816L545.178795,844.536984L544.070881,834.034967L543.287066,826.945004L542.892015,823.510805L542.410086,818.414900L541.806616,814.426802L540.844150,810.438705L538.688829,804.235003L538.029850,802.961029L536.691059,800.357691L534.699700,796.258821L531.721058,792.159952L533.445092,788.393425L533.497966,788.271567L534.598713,785.734701L537.200781,779.531016L538.417228,776.562110L540.001573,772.662654L540.655327,771.156046L542.616609,766.636225L543.270377,765.129618L543.673841,764.055053L543.805550,763.689480L545.141003,760.798125L545.639037,759.712483L546.380324,758.128332L547.237629,756.256153L548.305183,753.940856L548.555803,753.342645L549.212159,751.747417L549.973641,749.930629L552.236001,744.469191L552.939483,742.641327L553.574076,741.179036L555.477876,736.792165L556.112483,735.329875L556.642604,734.066989L558.228174,730.289408L558.754137,729.015444L559.177859,728.018429L560.422110,725.027384L560.836863,724.030370L562.798474,719.510572L565.740949,712.730878L568.620668,705.951190L569.690002,703.425425L570.734985,701.431401L570.831149,701.209843L571.119642,700.545168L571.215807,700.323610L571.237289,699.116118L571.248511,698.573300L571.310756,693.322373L571.322313,692.303206L571.330341,691.560987L572.317627,691.250806L572.753573,691.073559L573.173492,690.829846L574.468187,690.287028L574.608266,690.253795L575.331420,690.076548L575.746207,690.010081L576.158428,690.032237L577.279702,689.744211L577.614036,689.511576L578.585614,689.278940L580.854750,689.489420L581.312489,689.489420L581.902285,689.888224L582.564208,690.120860L582.855254,690.608288L583.603068,691.904402L583.587356,692.292128L583.728709,692.834945L583.842500,693.089737L585.627629,692.347518L587.687142,691.738233L590.063998,691.018170L591.147445,690.796612L592.003303,690.685833L593.673349,690.353496L595.247229,690.242717L598.608471,690.087626L602.122933,689.910380L603.750661,690.109782L604.484063,690.818768L605.684819,692.125960L607.031107,694.297229L608.047242,696.402030L608.481594,698.296353L608.855697,700.722415L609.228843,702.716439L609.354503,703.026621L609.716090,703.558360L610.180579,704.411360L610.581639,706.837424L610.621083,707.491021L610.592243,707.867670L610.648358,708.565579L610.636199,709.296722L610.325364,712.287761L610.428271,712.609021L610.252011,713.738970L610.245935,714.104541L610.025793,715.976711L609.749631,719.322247L647.522732,717.760258L675.714449,708.742826L675.531830,710.404514L675.005192,715.899166L674.506790,721.039327L674.047453,725.138164L673.904592,726.356737L673.494734,731.231033L673.837929,733.335844L674.703723,736.304735L674.735792,736.437671L675.995715,737.877805L676.784345,738.542482L677.020935,738.741885L677.178661,738.874821L677.694163,739.362251L677.907995,739.572732L679.283634,740.891010L681.240505,742.752107L683.067898,744.746140L683.285902,744.967700L684.638803,746.297056L685.067113,746.695862L686.325119,747.892283L686.735479,748.291090L686.131694,749.310263L684.315541,752.378861L683.716569,753.386957L679.768645,760.044823L679.707434,760.144524L676.717549,765.794298L673.468271,772.662654L671.196537,778.312435L670.524060,780.317554L669.331939,783.851439L668.528275,786.986517L668.083051,788.736844L667.157065,792.381512L666.924661,793.910279L666.660879,795.594139L666.308889,798.474426L666.301538,798.574128L665.342204,807.447634L665.269274,808.112316L665.078761,810.372237L664.524516,816.863972L664.488771,817.484343L663.413493,833.702625L663.175122,838.576977L662.826846,845.567246L662.231585,857.742068L661.721779,862.228699L661.471192,864.400008L661.363167,865.352725L662.444182,865.529975L669.658334,866.715333L670.415476,866.604551L672.396509,866.382989L681.955299,864.832054L684.643045,864.222758L685.840268,863.945806L690.096939,862.616433L691.981876,862.616433L693.004603,862.948776L693.710008,863.391900L694.498839,864.056587L695.865328,866.493770L698.479533,870.814234L700.349229,872.919076L703.065913,876.796417L706.769989,880.673760L710.361596,883.775636L710.678785,884.141214L713.013913,886.766731L714.094821,888.206888L714.906454,889.647046L715.429854,891.751892L715.792467,894.931318L724.730226,889.347936L751.535273,872.575654L760.468936,866.981207L761.727221,866.294364L764.084499,864.998226L765.375387,864.898523L766.522661,864.798820L777.976342,857.553741L812.333409,835.807458L822.261023,829.515115L822.753478,830.656156L835.867245,822.646717L841.586198,819.146051L853.509717,811.956397L858.109731,808.821311L859.174527,810.505173L873.740899,802.706234L883.052578,797.710042L883.780292,800.978061L889.826262,828.097123L877.067465,835.785302L869.761532,840.172220L883.527756,868.742627L894.265671,862.505652L905.268328,856.113588L916.279981,849.721528L918.488787,848.436470L933.521003,839.706941L934.407969,844.326500L936.620261,855.825558L951.212949,849.599669L955.437877,847.805019L989.875086,833.115487L993.934155,831.786119L996.194783,831.043888L998.632018,830.246267L999.320497,830.024706L1000.000000,829.803145Z " data-aland="41808111" data-awater="26658" data-classfp="C1" data-funcstat="A" data-geoid="0629504" data-intptlat="+37.0064066" data-intptlon="-121.5853213" data-lsad="25" data-mtfcc="G4110" data-name="Gilroy" data-namelsad="Gilroy city" data-pcicbsa="N" data-pcinecta="N" data-placefp="29504" data-placens="02410591" data-statefp="06"/></g><g fill="#000" font-family="Arial" font-size="12px" id="mylayer-label" stroke="none"><text text-anchor="middle" y="543.764460884"><tspan dy="0" x="539.70301291"><![CDATA[Gilroy]]></tspan></text></g></svg>