<?xml version="1.0" encoding="utf-8"?><!DOCTYPE svg  PUBLIC '-//W3C//DTD SVG 1.1//EN'  'http://www.w3.org/Graphics/SVG/1.1/DTD/svg11.dtd'><svg enable_background="new 0 0 1000 1001" height="1001px" pretty_print="False" style="stroke-linejoin: round; stroke:#000; fill: none;" version="1.1" viewBox="0 0 1000 1001" width="1000px" xmlns="http://www.w3.org/2000/svg" xmlns:xlink="http://www.w3.org/1999/xlink"><defs><style type="text/css"><![CDATA[path { fill-rule: evenodd; }]]></style></defs><metadata><views><view h="1001" padding="0" w="1000"><proj flip="auto" id="robinson" lon0="-121.065400914"/><bbox h="0.85" w="0.96" x="-1659.43" y="-659.16"/></view></views></metadata><g class="" id="mylayer"><path d="M381.739765,686.151955L384.308612,687.191845L386.696254,688.161235L388.450973,688.866247L392.108389,690.117642L393.045721,690.434898L394.898232,690.787404L399.944417,681.992401L402.623019,677.286479L392.026365,673.109325L389.830057,678.273488L389.303348,678.802243L381.739765,686.151955Z M326.592645,305.795237L325.406703,306.411962L328.086664,308.737896L330.803875,307.680653L331.382977,311.451491L332.569098,319.292752L323.241315,325.354339L323.849794,337.195652L323.579608,341.301367L311.359854,348.843227L311.424663,349.512833L311.584558,351.504033L311.643513,352.156019L339.961201,342.658194L339.499900,343.556873L330.046680,361.407206L341.295210,361.125264L365.908271,317.354459L370.297341,315.028510L371.366411,310.306142L371.916382,301.777724L372.856258,286.870734L361.261305,285.936849L360.422959,286.218776L357.873388,287.046938L357.029187,287.311245L356.517121,294.271348L356.482349,294.641380L334.947906,304.315100L333.472558,304.967065L330.654954,301.795345L329.880538,303.046411L328.594347,304.526548L327.735570,305.178513L326.592645,305.795237Z M1000.000000,75.986592L999.289252,74.753338L999.196202,74.559541L997.946790,70.366486L997.512574,68.886588L993.591567,70.031747L987.011876,72.410159L984.912087,73.167728L983.530077,73.625793L980.914705,74.471452L980.305192,74.665249L979.405702,74.806192L978.079291,74.999989L975.445788,74.841428L972.755815,74.383362L967.408648,73.220581L967.063953,73.132492L952.357967,69.520830L948.108689,68.728027L947.006719,68.604702L944.533271,68.798498L942.030842,69.379887L940.351529,69.978894L938.919178,70.630754L937.467803,71.441176L936.234132,72.216362L934.373672,73.608175L933.661437,74.312891L932.094174,75.810413L921.995657,86.804036L921.809579,84.689871L921.816636,82.293822L921.838440,75.193786L921.847083,69.996512L921.444762,69.432741L920.901390,69.221326L920.596494,69.080384L917.854147,68.939441L916.644490,69.009912L914.116630,68.780881L909.718953,69.397505L908.557579,69.397505L908.087061,69.362269L904.486491,69.098002L902.407488,69.098002L893.177539,71.828769L897.740654,62.385621L900.969972,55.919919L896.348794,55.690889L887.587388,56.853656L883.873237,57.628835L877.318071,59.390606L864.663533,84.619399L861.405718,91.085229L859.219825,95.295961L858.303335,97.198723L832.385656,98.467233L829.890249,98.379142L822.426852,98.097251L821.376956,98.044396L819.883163,98.079632L811.791809,98.238196L787.500187,98.661033L779.402978,98.801978L778.442328,98.801978L775.542821,98.749124L774.576319,98.731505L770.759176,98.678651L759.281706,98.484851L755.458712,98.414378L762.673511,83.615172L772.686696,63.037478L771.388048,63.530776L750.461596,71.582119L736.660159,76.867489L723.573886,81.888608L723.509461,78.629283L714.136525,82.311440L711.685241,83.262812L712.037916,86.310730L699.563805,91.102847L704.491592,103.911264L717.165205,115.433651L712.667195,134.655450L706.407199,161.347919L689.399911,161.471251L638.383306,161.770774L621.378647,161.858868L617.906141,161.894106L607.508227,161.929344L604.029868,161.946963L600.980180,160.449352L599.377502,159.638881L592.018428,155.657008L589.042504,154.036072L594.389252,149.067560L596.101960,147.446631L586.063520,142.002437L582.316315,139.958667L582.538709,139.764861L584.920954,137.914900L586.321742,136.822543L592.884980,132.365030L593.104741,132.206462L595.575935,130.796975L596.367477,130.374129L598.744739,129.070355L599.530429,128.629891L603.610753,126.409954L607.116661,124.489535L615.828020,120.067297L619.897810,117.988321L622.472596,116.631702L629.790802,112.720420L630.185257,112.526618L632.760046,111.170005L631.445512,107.945851L627.504651,98.238196L626.184336,94.996453L625.420767,93.128930L624.103116,89.851962L627.446667,88.090154L630.067139,86.698327L632.753451,85.288884L636.308283,83.386138L634.791671,80.373461L633.873636,78.558811L630.088336,71.088819L611.581348,70.278397L586.488316,69.150855L527.689557,67.124805L510.936200,66.543417L506.916763,73.308671L500.879557,73.608175L488.315014,74.242419L450.601174,76.127536L438.030766,76.744163L438.667979,75.510908L440.550950,71.811151L441.182321,70.560283L440.638977,70.348869L437.779091,69.767480L433.062329,70.718844L429.390023,72.656809L427.072123,75.176168L424.230576,78.752608L422.925465,79.140203L421.032634,78.664519L419.486978,75.563762L417.584326,70.912640L414.073635,67.248130L408.564151,63.566011L407.542745,63.037478L403.491086,60.852877L397.681021,60.800024L394.529320,60.764788L388.599303,62.121355L381.261437,67.054334L375.563494,74.594777L377.200328,79.827304L378.820869,82.980924L381.091700,85.588391L382.315217,86.768800L384.685997,88.424897L388.200483,90.891429L391.458043,93.534147L392.019516,93.886510L393.163447,95.172634L393.865888,96.035924L395.273639,98.202960L395.831212,99.277670L395.986976,100.739981L395.959447,100.916163L395.873647,101.391855L395.840268,101.550419L401.825670,101.656129L419.764330,101.920402L425.743883,102.008494L438.003517,102.096585L474.793546,102.308004L487.047331,102.378477L493.894508,102.272767L490.453491,109.742919L468.589952,157.154614L461.293148,172.958855L461.055535,173.452189L460.359671,174.896956L460.130545,175.372673L457.787815,177.557445L452.101896,182.843199L450.614215,184.235118L448.411081,186.278950L448.543931,186.419904L450.085162,185.750372L452.715817,184.605122L452.610775,186.490381L452.517146,187.935161L452.455994,188.657551L452.379919,189.291845L450.798894,190.014236L450.049788,190.349003L446.306602,192.375224L444.409259,193.397146L440.715108,203.211151L439.224314,207.140295L432.509527,207.774598L412.336477,209.677506L405.615830,210.294190L401.894818,218.645878L400.021322,222.804120L401.404073,240.001043L401.952088,246.872821L401.790498,249.709641L401.408635,256.458124L401.322766,258.184895L401.155368,261.004117L401.000700,262.308009L400.562164,266.166832L400.401651,267.453108L405.962452,267.488349L422.670308,267.541209L428.239593,267.558829L427.276473,269.320854L426.208321,271.241463L424.154486,274.554079L423.252203,275.981326L423.107976,276.280871L422.720940,277.144268L422.390067,277.831462L421.830485,279.470156L421.794518,279.663980L421.605003,280.474518L419.895220,280.809306L417.546644,281.249815L415.581988,281.637464L414.731936,281.884150L413.558543,282.236558L413.070426,282.148456L411.739904,282.588966L405.015595,284.791520L398.196769,287.011697L396.857886,290.447693L392.590644,301.425311L393.561212,304.561789L393.734248,305.125651L391.573005,312.861153L387.877573,320.596696L376.748686,343.803569L373.039200,351.539275L371.546297,354.640617L370.651417,354.622996L364.643340,354.622996L363.276869,357.759588L362.839019,358.728761L360.854166,362.852158L358.651225,367.786153L356.547473,372.543950L353.956854,378.641001L350.241791,378.464785L346.094342,378.799595L343.275795,379.292999L341.537006,382.905427L339.410506,387.680894L338.472876,389.777876L337.046548,392.949786L334.726192,397.055658L332.203457,400.509533L329.986926,404.280610L329.811010,404.139635L329.308705,403.663845L329.126931,403.505248L326.219590,401.531600L325.666399,401.161541L319.709805,402.395070L320.619416,405.778471L318.004418,405.848958L313.769080,405.919446L313.704101,406.888651L313.474634,409.778647L313.403802,410.730232L313.250348,411.347001L312.789990,413.197308L312.636538,413.814078L311.980942,416.457379L309.985529,424.387312L309.324111,427.013010L306.300583,425.250796L298.819349,420.862892L299.255215,418.378181L300.105373,413.602614L301.127385,407.963588L301.160090,407.716881L290.877656,408.791818L292.585129,406.465725L289.782316,406.747675L284.646651,407.258711L286.608528,403.152810L288.520707,398.077722L289.963982,393.619412L290.702289,391.310965L292.624610,384.368022L294.287675,377.248897L294.642710,371.328067L294.492488,365.742067L295.714847,359.151673L296.416702,356.949007L294.931293,356.966629L283.692672,357.019493L277.810206,366.975567L265.928877,387.011271L257.551882,395.328723L249.038021,403.751954L246.352396,405.637496L243.483034,408.738952L227.838014,425.603239L222.608728,431.224710L221.180553,432.881198L222.439270,434.079510L228.931641,440.194439L231.096656,442.221006L232.367452,442.679187L236.159642,444.036108L237.424582,444.476666L229.166358,459.878691L216.056181,484.321366L198.383315,484.215629L185.864227,484.127515L174.465631,483.916041L140.252275,483.228750L128.847826,482.999654L126.533292,482.982031L119.615132,482.876294L117.294739,482.841048L116.099291,484.550463L115.362412,485.396360L113.595232,487.370120L108.501409,492.234042L106.165128,494.436911L105.076859,495.476666L103.376923,497.221341L101.760407,499.001265L100.967416,500.023400L99.644793,501.997180L96.343495,506.861150L86.791009,521.647014L83.353518,526.704906L79.781137,531.745192L77.536570,534.741174L72.171460,542.583627L71.441735,543.623416L70.630460,544.892312L56.975955,566.357971L51.935698,574.271088L51.156731,574.429704L49.715508,574.623567L48.348602,574.782182L43.285855,575.081789L42.789818,575.099413L41.093718,575.346148L36.822401,575.222780L33.489043,575.117036L24.262821,574.323960L20.110212,573.953858L19.154671,573.883362L16.305006,573.636627L15.343604,573.548508L14.069341,573.425141L10.226353,573.037415L8.946229,572.896423L9.198635,574.517823L9.955877,579.382033L10.202437,580.985816L11.861684,593.305041L12.700186,599.491129L3.745290,600.160849L0.000000,617.485565L8.166846,616.903959L14.972009,616.410475L15.891000,622.191297L16.370539,625.874819L17.766259,636.925443L18.217200,640.609003L19.058131,646.671916L20.992711,660.807058L21.455447,664.913678L21.505145,667.821806L21.464416,669.725310L20.371620,671.699318L20.031853,672.703948L20.248110,673.655703L21.403671,678.766993L21.780177,680.459009L23.175781,680.300383L27.373679,679.771627L28.771895,679.577750L30.594458,679.366248L38.425751,678.379239L57.887944,675.929344L67.361226,674.748460L76.994861,673.532328L81.132555,679.330998L85.252718,685.076815L82.720780,686.733589L66.023269,698.225303L64.270994,699.423830L67.356274,704.429456L68.298245,703.812564L71.126771,701.926641L72.062878,701.292125L76.146943,698.524935L87.813776,690.575900L88.378961,690.205769L92.472163,687.509100L93.709471,686.486835L99.479367,682.450657L104.551029,679.419124L109.108314,677.039727L111.975258,675.700217L117.040271,673.726204L120.712195,672.651073L124.598584,671.487817L127.505833,670.959065L129.462036,670.588939L131.504920,670.306937L135.564568,670.095437L137.531166,669.972061L151.413255,670.060187L151.636836,670.042562L152.301715,669.972061L153.866783,669.848686L158.243839,669.901561L158.919708,670.553688L157.999811,671.840319L155.668965,676.299471L154.984386,677.603732L152.925481,681.199267L151.217392,683.737297L149.302037,686.169580L147.362508,689.218752L144.934659,693.343076L143.376517,695.986879L141.775971,699.106573L142.718474,699.741088L145.528394,701.591758L146.473511,702.191023L146.334650,702.420153L144.148784,705.504610L143.878219,706.156753L141.151751,712.572446L139.140443,718.336018L138.721888,719.534562L137.899102,722.319417L136.822245,722.530926L133.577335,723.165451L132.494612,723.359333L132.137935,725.562547L131.413589,728.470794L130.853585,729.933733L129.849008,731.784440L129.055008,733.018247L127.980047,734.657448L123.233065,741.249524L122.356940,742.624346L119.298320,748.299905L118.515416,749.868619L116.407889,755.773345L115.711683,758.593521L115.019401,760.779161L114.445765,762.330263L114.198060,762.964805L113.362384,764.762675L112.397645,766.560548L110.517716,769.486502L109.848273,770.878976L109.304639,772.218572L109.031527,773.681554L106.104921,785.138691L105.909395,786.231531L105.835096,786.654565L105.705421,788.117561L105.741316,789.474800L106.210785,793.211620L106.882326,796.349145L108.237107,801.108326L110.405528,807.277657L111.016487,809.974544L111.730449,812.636182L112.572832,815.209691L113.535163,817.712698L113.972636,818.682173L115.243987,821.467215L116.215410,823.265156L117.277434,824.904458L119.149815,827.513242L122.230341,825.609534L131.505822,819.827918L134.588960,817.888966L135.744517,823.212276L136.046661,826.790538L136.651890,829.857627L136.815587,830.650840L136.793757,833.858953L136.422507,836.749786L135.662076,839.376218L133.556790,851.962006L130.934653,859.118677L128.591798,863.366866L126.892027,865.411641L125.823759,866.381148L123.322163,868.214399L119.275113,870.876142L115.787312,873.150085L104.798379,879.125812L102.781668,880.218721L97.512497,883.603217L95.396798,885.260213L93.942731,886.793817L92.555905,888.873880L92.178565,889.420337L91.619462,890.583764L90.990058,892.311279L90.975257,893.386569L90.962149,896.577190L92.332804,898.798289L94.067794,900.649207L96.069633,903.645938L97.053728,908.969555L96.789095,912.265977L95.693857,914.963055L92.153151,922.331567L92.094529,922.543104L90.950022,926.297887L89.109590,933.948506L89.132193,935.781840L88.830147,937.544664L88.298929,940.470955L88.603855,942.462952L88.652848,942.868403L89.488020,943.309111L89.905075,942.709748L91.138626,940.858777L91.549810,940.241788L93.343257,940.717751L94.137232,940.647238L94.888183,940.576725L101.746457,939.853966L102.982417,939.818709L105.844153,939.712939L107.115530,937.932485L113.746068,919.775500L113.936946,919.229031L157.938650,918.805959L160.765054,912.565652L169.855706,892.364162L180.121821,870.135789L181.921000,870.241553L220.391483,872.374476L213.936684,879.390226L217.822490,882.704209L222.835324,885.612765L223.791574,885.383606L245.852407,879.883797L247.842402,879.055302L247.860729,882.598444L247.890228,886.476519L248.697872,892.346534L248.419579,898.357594L248.295665,900.913625L251.397449,898.815917L254.267266,897.141278L262.668150,892.223140L265.486479,890.566137L269.920579,887.904358L264.655685,863.525512L262.342920,852.790486L261.134968,840.204691L259.816202,839.905031L267.619132,836.291483L286.684088,816.496447L291.746986,797.847404L288.606746,795.221045L277.817780,786.161025L277.163254,785.314956L280.622999,781.190376L282.335894,778.581673L284.928768,775.514690L287.069295,772.941250L292.352093,764.427777L293.226751,761.713347L293.121694,759.157557L293.253335,758.346756L293.528995,756.460763L295.802507,752.477271L296.267859,750.256391L297.635275,743.593772L297.784534,742.835857L297.121591,742.007438L287.317793,739.998085L281.598484,738.799524L289.526851,731.555305L286.289923,718.900039L284.148056,715.092904L282.863340,712.783953L281.232040,705.469359L284.078853,700.234600L292.653384,684.459932L295.494459,679.207622L297.648770,679.260497L302.175109,679.330998L304.136485,679.278122L306.329917,679.189997L309.962606,679.031370L310.257889,679.013745L310.849798,688.548992L312.025087,688.073109L316.093950,686.381083L318.922334,685.270693L320.219810,691.280913L320.709881,693.572205L327.391336,691.069409L327.205654,678.273488L333.364185,678.379239L342.187416,678.520240L343.590163,678.555491L347.795148,678.608366L349.192030,678.625991L352.052946,678.432114L360.601146,677.832859L363.456196,677.621357L366.539420,676.845851L368.014232,671.064815L370.437136,661.582556L374.320355,658.427692L373.176518,656.929574L375.038245,655.801581L371.789217,651.941735L372.259375,649.950129L374.384612,640.908623L375.710120,637.824302L379.697802,628.518502L380.512825,626.615050L381.488746,625.539953L388.504537,624.041869L402.246695,621.080954L401.508400,614.595161L408.858117,611.687138L408.898416,612.497859L409.021929,614.894776L409.056368,615.687874L410.015237,615.423508L412.164388,614.771405L412.352037,615.335386L412.583986,616.075611L413.503317,619.054141L412.826668,619.477128L408.960396,621.821182L414.619651,626.244935L417.244317,628.271758L419.932858,630.404332L424.011642,633.612010L428.273580,630.862571L430.019062,631.884798L433.017284,633.612010L435.351968,635.198227L435.512964,635.251101L444.865163,637.542307L447.971052,638.300168L449.519759,638.687911L449.903621,639.410523L450.226189,640.379882L450.331757,640.697127L450.953473,642.177603L450.291049,644.151574L449.718570,646.266546L448.685950,647.817527L446.410216,650.373124L444.899154,651.994609L444.176864,652.840602L443.542582,653.563221L439.877200,655.519583L433.912076,658.709691L426.432699,662.692929L429.299031,670.271687L430.928411,674.607459L433.875450,672.474822L437.448877,670.888565L439.828782,669.637185L441.355409,668.967433L444.537079,667.539805L444.275109,666.235553L446.849269,664.878428L447.234414,666.552804L452.641423,665.477678L455.095599,664.966553L457.000920,664.702178L460.997337,664.085303L466.692138,656.894325L474.898721,646.478043L473.627100,645.156185L473.171496,644.821315L471.305420,643.393710L468.767323,641.842733L466.903157,641.067246L464.587293,640.097887L466.393683,638.071047L468.651775,636.238082L469.816656,635.515471L474.305422,632.413536L474.607889,632.202041L469.337319,631.144564L476.539685,627.707772L476.143056,624.447233L466.695586,629.928468L467.018638,632.536908L467.281122,634.704737L461.275942,633.594385L459.225332,633.206644L453.081980,632.025794L451.025507,631.620429L448.657528,630.580577L443.598944,628.307007L441.519061,627.443404L439.105461,626.438805L437.448177,623.742252L435.257161,620.217355L434.568238,614.612785L434.643933,613.978307L435.041444,609.871830L437.136500,604.531664L441.244566,593.992383L436.363604,594.838342L435.028643,595.049832L434.167875,597.376224L432.864207,597.552466L432.053325,597.658211L429.603091,597.922574L428.786346,598.010695L427.101359,598.204561L421.989039,598.786160L420.298188,598.962402L420.571594,597.111861L421.836251,592.335713L422.592073,590.167947L423.769692,587.630078L425.199575,585.074589L426.432522,583.047825L426.848521,582.272368L435.049294,580.844824L453.435679,577.619636L453.694936,571.416017L454.025698,563.185686L454.155069,561.634794L454.543201,556.982128L454.666723,555.413618L460.007818,554.743918L461.257369,554.620552L472.706065,553.386895L481.407606,551.007702L481.905620,550.866713L483.719653,550.672853L486.931945,549.897413L488.141090,549.738801L487.162166,552.399970L484.225448,560.383507L483.246560,563.044696L487.102166,562.392616L498.671594,560.401131L502.521334,559.731429L503.126597,557.757571L504.959371,551.800766L505.558792,549.809295L506.087785,547.994063L504.061270,548.152675L499.664083,548.469900L503.578534,540.838898L505.753268,536.556390L504.281498,536.485896L499.891621,536.221544L498.428329,536.133427L500.220340,532.467751L500.796818,531.269360L507.722935,531.269360L508.046527,530.000475L508.918828,526.458179L509.987870,520.748226L512.708344,506.120980L510.689796,505.786141L506.135846,505.028348L506.282593,504.693510L506.739789,503.653748L506.880674,503.301287L509.302007,498.983642L521.605435,498.983642L522.888260,498.701673L526.593338,497.855769L530.203073,495.300436L533.460509,491.599617L534.404269,487.193892L533.615696,482.365232L565.821058,482.576706L582.748268,482.682443L583.442430,482.700066L585.521671,482.700066L586.209971,482.700066L589.942241,475.598087L627.751417,428.845715L633.003847,429.850179L639.266475,427.294965L639.954144,427.206854L642.025629,426.924899L642.526886,426.836789L642.698958,426.836789L643.353599,426.131903L645.348823,423.982003L645.997606,423.259497L649.959968,424.739754L654.853687,424.493045L663.686247,424.017247L685.761352,419.294528L691.511207,418.043362L696.132603,417.408969L696.045812,417.708543L695.779579,418.589646L695.686929,418.871599L694.975028,421.215334L692.836125,428.193695L692.118392,430.519823L691.756909,431.718132L691.717007,432.158687L691.592190,433.163154L691.686953,434.396710L692.293201,436.176558L692.914039,437.181027L694.198739,439.189968L696.600074,442.961144L698.269342,445.005337L698.413986,445.181561L699.192067,445.710232L699.875750,445.868834L700.486485,445.851211L701.943365,445.445897L702.357334,445.181561L704.489770,443.789395L708.048029,441.251778L709.942560,439.877237L710.290693,439.630525L710.516257,439.489547L712.237347,438.326475L712.811044,437.938785L708.308709,454.539069L708.723927,454.450957L727.235425,450.309680L729.238956,446.115547L754.257128,440.282550L770.024409,436.599492L770.621314,437.057671L772.692334,438.326475L773.296468,438.590810L775.819867,439.753881L776.950578,440.264928L780.542326,441.234156L784.379948,441.692336L784.600900,441.709958L787.532632,441.815692L783.408772,448.688417L774.831931,462.909772L770.617787,469.165802L766.074412,475.897673L759.127094,486.136520L738.228462,516.853487L734.615821,522.158089L738.745669,522.158089L741.201722,521.911363L748.584219,521.171185L751.034407,520.906836L758.734989,520.131412L781.802176,517.787519L789.496884,516.994473L804.350497,515.478876L816.044830,521.664637L840.095973,534.388705L901.395069,499.900039L897.951201,498.384459L892.709155,496.075847L886.824171,491.705354L882.629138,485.043903L882.541565,479.651321L882.283374,476.849301L882.051178,474.470232L883.812564,467.350670L884.617618,464.037618L888.488451,456.318941L889.602250,454.063262L896.515791,433.462732L899.059837,425.849949L900.267716,423.100898L903.865345,414.818532L905.067399,412.051879L907.932350,404.368720L893.534132,407.382064L872.392089,411.805172L842.843785,396.297921L836.591679,393.020273L825.406452,392.932164L824.537619,392.949786L821.902439,393.002651L821.027746,393.002651L817.917374,393.178869L810.784777,393.548925L809.260637,396.209812L807.135858,399.910391L806.983232,400.227584L806.505158,401.161541L806.346673,401.461112L802.352105,402.729886L802.002102,402.712264L790.787809,401.760684L787.048632,401.425869L786.660850,401.337759L785.508603,401.020566L785.123441,400.897213L786.860187,397.883882L790.879155,393.971847L794.120302,390.782313L805.829179,379.292999L811.169127,376.033010L812.228514,375.381014L816.809671,369.019654L818.046670,367.521831L821.774638,362.993129L823.005787,361.477691L823.759739,360.208953L826.052907,356.367504L826.801007,355.081150L830.514430,346.411502L831.998653,342.940133L834.192718,340.913703L836.036792,338.869655L838.148231,336.508430L840.174139,332.984222L840.217374,330.957805L839.426500,328.578973L838.250937,326.552563L838.564181,324.173737L839.641230,316.156242L839.851772,314.676094L840.469075,310.235659L840.665289,308.755517L858.268150,300.544280L870.211695,293.813214L884.303412,285.866367L886.152382,282.025113L887.357183,279.998768L943.072158,282.095595L950.487172,267.435488L951.592628,265.973009L951.845060,265.567744L952.848933,263.929066L954.706617,259.682606L954.819505,259.418304L955.470171,257.709152L956.214141,255.806181L956.481721,255.101377L958.251194,250.114902L958.909150,248.211940L960.900615,242.555931L961.592518,240.582500L962.176385,238.327153L963.042422,233.728371L963.301774,231.402556L963.289972,226.750937L963.286352,226.222345L963.784917,221.553122L963.943505,220.002591L963.940926,218.786835L964.170393,217.535841L964.545656,216.637240L964.940512,215.668161L966.019405,214.082397L968.658854,210.893255L969.359478,209.765604L969.718607,208.602715L969.991775,206.188842L969.969024,204.955478L969.499457,202.118745L969.479342,200.850146L969.680161,199.599167L970.315792,198.189614L970.924548,197.044354L971.465441,196.040049L973.067931,193.009520L973.602972,191.987599L974.528844,190.243287L974.799111,189.503277L975.052046,188.322785L975.084650,187.212771L974.894893,186.296569L974.527820,185.450845L974.351336,185.221795L974.000996,184.728456L972.459608,183.671303L968.495508,181.838905L961.874633,179.389838L960.813235,178.914120L959.428150,178.068401L956.496440,176.236010L955.715716,176.130295L955.097134,176.253629L954.032626,176.588392L954.040424,173.505047L953.818928,171.285042L953.217494,168.007898L953.164804,167.849327L950.913415,160.167449L950.640554,158.828411L950.540517,156.326526L950.934438,153.930358L951.353051,152.644182L952.089739,151.322769L955.396153,146.213317L957.922024,142.724805L959.651743,139.817717L960.357735,138.619647L963.039458,133.140248L964.147995,130.391747L964.827364,129.070355L965.885006,126.427573L966.580390,123.643847L967.367939,120.490140L967.811428,118.199742L967.980342,113.442773L968.358327,111.645700L968.939682,109.813393L969.753671,108.033943L970.823118,106.289731L971.969243,104.862650L973.304985,103.488426L973.932334,102.959879L972.192137,102.167058L967.057584,99.788598L965.213807,98.942924L967.734339,96.775887L968.424311,96.176869L971.656771,93.692710L975.552880,90.961902L978.187254,89.094384L978.361358,88.971058L985.126825,84.777961L990.961210,81.148652L995.499916,78.453103L999.111336,76.462276L1000.000000,75.986592Z " data-aland="12284652" data-awater="0" data-classfp="C1" data-funcstat="A" data-geoid="0630798" data-intptlat="+39.2236859" data-intptlon="-121.0550036" data-lsad="25" data-mtfcc="G4110" data-name="Grass Valley" data-namelsad="Grass Valley city" data-pcicbsa="Y" data-pcinecta="N" data-placefp="30798" data-placens="02410651" data-statefp="06"/></g><g fill="#000" font-family="Arial" font-size="12px" id="mylayer-label" stroke="none"><text text-anchor="middle" y="409.718366925"><tspan dy="0" x="494.64838498"><![CDATA[Grass Valley]]></tspan></text></g></svg>