<?xml version="1.0" encoding="utf-8"?><!DOCTYPE svg  PUBLIC '-//W3C//DTD SVG 1.1//EN'  'http://www.w3.org/Graphics/SVG/1.1/DTD/svg11.dtd'><svg enable_background="new 0 0 1000 1001" height="1001px" pretty_print="False" style="stroke-linejoin: round; stroke:#000; fill: none;" version="1.1" viewBox="0 0 1000 1001" width="1000px" xmlns="http://www.w3.org/2000/svg" xmlns:xlink="http://www.w3.org/1999/xlink"><defs><style type="text/css"><![CDATA[path { fill-rule: evenodd; }]]></style></defs><metadata><views><view h="1001" padding="0" w="1000"><proj flip="auto" id="robinson" lon0="-151.916966847"/><bbox h="0.93" w="1.43" x="-1808.97" y="-983.56"/></view></views></metadata><g class="" id="mylayer"><path d="M1000.000000,620.922372L991.024265,595.613030L965.015259,589.277649L951.519300,587.688402L929.372304,585.061284L888.468389,555.492986L900.915315,540.736073L919.852515,513.319931L905.216074,513.319931L822.757778,521.752290L795.416207,507.417307L778.544181,498.552602L787.069138,460.586281L774.646001,455.364903L764.389166,451.062413L761.987336,450.046249L749.660770,447.938251L737.095609,435.657867L730.135540,428.847485L740.546521,399.790183L744.807516,387.888519L788.845372,265.007202L803.538683,224.041689L816.411235,217.102517L855.064325,196.252762L867.940360,189.302905L866.256838,189.248862L851.918534,189.475840L847.295419,189.540691L838.400343,189.043502L837.071699,188.740865L836.082889,186.417048L836.244267,185.628032L842.954530,180.148163L843.635322,178.883581L842.952082,177.348790L837.283258,174.981756L830.240202,174.949331L825.881758,176.008551L823.804647,176.505736L815.550977,177.154239L810.517790,175.716725L807.881804,173.382119L805.699021,172.571493L799.344517,172.549876L790.920265,173.782028L787.152707,175.468133L786.297641,175.846426L782.277821,178.656605L777.956447,180.223822L770.530652,181.618106L761.546253,182.698948L755.139452,184.893058L747.234181,185.001142L745.277987,183.120476L742.899830,182.061251L739.178967,181.574873L731.294665,181.877508L727.246611,182.774607L707.554320,188.254484L701.702152,189.681201L698.263236,190.264858L697.011136,190.113540L693.556347,190.902558L692.384223,190.891750L682.768364,189.756860L678.222098,191.972597L677.313051,192.804851L674.329656,195.528592L673.125469,196.631060L672.124654,199.906043L669.651594,201.948857L669.210581,202.283922L667.110364,203.840355L655.593666,210.682190L650.196329,215.394751L649.196709,216.951196L648.124878,222.085315L647.922591,223.079715L646.116806,224.290289L640.632391,229.586563L637.866589,232.256324L632.779813,236.677112L626.596587,241.033060L603.586042,254.933262L595.542481,258.824476L584.031310,265.234190L561.136021,273.913829L543.305420,280.658687L533.422423,285.371458L530.486036,287.403574L524.375399,290.181525L520.287397,292.840580L512.553795,296.883216L510.149105,299.077486L509.863650,300.201645L510.555843,301.293377L512.177986,301.747365L513.893719,301.909503L516.371028,301.152857L520.930008,300.223263L523.550426,301.282567L527.963855,301.768983L535.320820,302.385110L540.500189,301.314995L547.456698,297.121019L552.244670,294.905133L556.036142,291.662380L557.655486,289.316793L563.350135,284.117600L567.060337,281.804451L590.629901,269.773971L595.185251,267.763495L598.889821,266.325898L623.318469,253.722664L628.573801,252.155373L632.923237,251.852724L634.903339,252.620156L636.562157,254.987306L636.557811,256.716734L632.865695,264.823449L632.281227,268.466080L631.732768,271.892539L630.107186,278.756289L629.288765,284.247310L622.871252,289.673495L611.980635,296.385993L604.120136,300.331355L598.298953,304.990139L595.013523,307.357368L593.453071,310.924432L592.737242,315.680531L589.594174,314.664454L585.656809,314.383412L582.865494,314.350984L573.671590,316.707418L572.499335,316.696608L571.042377,316.091285L569.471497,313.864564L567.937988,313.107912L562.746293,313.540285L558.421348,315.118446L558.051207,315.388679L552.944173,319.042236L549.000953,320.912256L546.987161,321.679721L543.753893,322.479615L540.265593,322.436377L537.462241,321.323012L535.671932,315.853480L533.030416,314.599598L531.328745,311.194665L533.266384,309.000378L533.798313,306.795286L533.475976,306.006209L532.630787,305.703550L529.083518,305.714359L527.439102,306.135920L524.261732,306.449389L519.800297,307.724883L512.526658,310.697437L508.812855,311.929697L506.260249,311.464897L504.854795,309.086853L505.926680,305.952163L504.063034,303.130947L502.283852,301.736555L501.724138,300.309737L501.721409,297.510150L502.027867,296.580558L502.416061,292.354167L498.610842,291.089494L493.351825,291.575907L485.170232,294.051208L478.269576,295.002416L473.086631,294.991607L469.751886,294.807851L466.439038,293.100000L457.535256,293.251328L452.103776,291.467815L447.452820,289.954533L439.160316,290.851693L438.010041,289.316793L437.631847,289.014137L435.900055,287.576521L432.879218,288.181832L429.959755,289.770777L426.873203,293.024336L419.443310,293.337802L418.646809,290.830075L416.105117,292.073128L413.245082,294.256582L411.473403,294.580858L409.154373,294.116063L407.660941,291.597525L402.807541,294.094444L394.612899,294.894324L391.426754,295.650968L386.348620,297.704716L384.645122,298.180321L382.682072,298.061420L379.139535,297.823617L367.675919,295.791487L361.949503,295.629349L354.284609,298.104656L349.046041,299.228815L345.097527,302.179734L338.141760,305.303607L332.669304,305.779215L325.084751,309.043615L323.912506,309.032806L324.223982,307.022280L325.070174,305.606266L321.050653,306.049446L323.028421,304.017306L312.615166,305.130659L308.425860,306.362915L306.657559,307.768120L304.432385,313.248433L302.357959,315.140064L297.080225,318.231535L290.226386,319.971841L285.658841,321.993193L282.572561,324.803633L279.100748,326.684468L271.398316,333.721408L266.291167,336.229203L261.026650,338.239767L251.823342,341.039426L248.298352,342.358186L242.236944,344.617376L238.843033,344.487662L235.990826,346.022616L234.666863,344.638995L225.440033,344.444424L225.359619,343.655328L229.449039,339.277478L225.272883,339.428810L220.632619,341.936615L219.313167,339.915238L217.677397,339.893619L217.392824,339.299096L215.678095,337.418246L211.259081,339.288287L208.102108,340.239523L205.154213,339.915238L203.988840,340.974569L204.242230,343.979614L202.002084,345.374043L198.059789,346.173949L193.573173,346.617140L184.813298,346.422569L183.109722,346.898189L178.940838,348.768241L174.639833,351.621967L175.000943,352.367828L177.505925,353.319072L183.865297,353.978457L179.425300,355.653945L176.200111,356.453856L173.179511,356.616000L171.165499,357.383483L170.625874,357.869916L171.016308,358.810353L175.263785,359.242738L176.584701,360.193986L172.806695,362.561298L170.260985,363.166639L165.009958,363.653073L159.978808,365.663671L154.117626,370.365887L157.672495,372.073821L155.131114,373.965523L150.031767,375.824798L146.873841,378.494807L141.222236,380.645951L137.291678,381.435065L133.353221,382.872767L131.177386,383.780790L127.773720,385.813033L126.073652,387.369647L125.332069,390.201823L126.351376,391.001752L132.749431,390.969322L133.219579,394.417667L137.738755,394.601435L138.736270,396.925560L138.527345,398.201127L138.203836,399.573985L133.349201,406.157232L128.027915,410.373119L118.696024,415.237618L110.518956,419.907551L103.937708,422.253333L99.527050,424.123475L92.414763,424.588308L86.055526,426.501693L84.681266,426.912477L80.463951,433.355306L84.724439,433.982294L85.653955,436.155135L84.441030,440.068417L86.071643,442.889877L86.164579,444.316825L84.234631,445.862686L88.559962,446.651833L91.198132,446.824797L92.578376,447.722046L95.695922,448.532814L96.018369,449.321962L95.163814,451.181326L91.385184,455.710832L86.817109,459.451197L74.870883,466.488730L73.010350,467.115731L70.996650,467.440042L68.986122,468.196769L68.463259,468.683236L69.091555,470.261552L67.383377,471.818249L58.422215,475.266772L56.985752,475.299203L43.951226,475.558653L41.997059,474.110056L35.980351,474.434369L32.045649,476.953199L28.468493,476.769422L26.160831,478.661249L23.156635,478.823406L21.355935,477.234270L18.118233,477.396427L16.962248,478.661249L18.576662,480.207144L16.118792,485.039427L14.988135,485.861025L9.345147,487.569085L6.469084,488.033937L4.539179,489.579841L4.764666,490.671704L0.000000,495.233755L0.683913,496.768856L7.059896,498.498549L14.397731,498.033694L17.809704,498.368822L20.141730,499.471502L21.233067,500.412024L22.248186,502.293069L18.613703,508.195674L17.590612,509.514574L15.693656,511.946975L13.821583,513.546956L12.161983,514.952346L14.082863,515.568556L19.512118,515.568556L22.673967,515.903688L31.812615,517.471241L36.838682,518.703663L41.031231,519.049606L46.585374,519.492846L56.288806,521.406346L61.225815,521.849587L74.711468,524.400925L79.270424,527.352266L81.767752,530.022532L106.282479,547.276666L107.390134,547.698292L114.342631,550.260482L121.689716,554.325401L130.905780,555.601096L131.287707,555.892992L109.465188,582.217946L77.292028,621.030486L46.451497,660.406189L26.243125,686.213917L42.493151,697.058262L51.257119,716.238771L56.904892,746.999432L68.951137,766.310297L95.126990,779.469067L120.347482,790.216739L259.558289,826.450124L263.703853,818.794657L267.220898,804.381288L274.578466,797.666627L275.596258,796.098796L277.731965,788.757041L283.740250,783.264263L289.908351,779.360942L296.408622,773.424885L297.566662,771.078581L304.654419,764.818183L309.215932,762.158333L315.078697,759.812045L322.326342,756.211528L325.504180,754.384242L337.849675,745.269467L361.951565,731.235194L371.059278,726.564339L376.373369,723.428819L378.765643,721.893498L381.099990,719.547270L382.621768,718.595806L402.162301,709.362305L426.264774,700.496465L442.949508,695.371599L460.880130,690.419741L475.543052,687.576213L492.396853,686.830194L493.000796,687.132926L506.836931,685.911185L514.862170,686.116610L521.133303,685.781442L528.859036,684.992176L535.333923,684.019109L549.581158,643.680585L555.421077,638.534281L560.475772,635.323256L560.698641,633.712340L567.118148,631.085144L586.376629,623.203584L592.799566,620.565595L674.238251,620.641275L918.557822,620.857504L1000.000000,620.922372Z " data-aland="21716631" data-awater="35731" data-classfp="U1" data-funcstat="S" data-geoid="0252210" data-intptlat="+59.3265225" data-intptlon="-151.9239022" data-lsad="57" data-mtfcc="G4210" data-name="Nanwalek" data-namelsad="Nanwalek CDP" data-pcicbsa="N" data-pcinecta="N" data-placefp="52210" data-placens="02418726" data-statefp="02"/></g><g fill="#000" font-family="Arial" font-size="12px" id="mylayer-label" stroke="none"><text text-anchor="middle" y="502.335187375"><tspan dy="0" x="441.289588494"><![CDATA[Nanwalek]]></tspan></text></g></svg>