<?xml version="1.0" encoding="utf-8"?><!DOCTYPE svg  PUBLIC '-//W3C//DTD SVG 1.1//EN'  'http://www.w3.org/Graphics/SVG/1.1/DTD/svg11.dtd'><svg enable_background="new 0 0 1000 1001" height="1001px" pretty_print="False" style="stroke-linejoin: round; stroke:#000; fill: none;" version="1.1" viewBox="0 0 1000 1001" width="1000px" xmlns="http://www.w3.org/2000/svg" xmlns:xlink="http://www.w3.org/1999/xlink"><defs><style type="text/css"><![CDATA[path { fill-rule: evenodd; }]]></style></defs><metadata><views><view h="1001" padding="0" w="1000"><proj flip="auto" id="robinson" lon0="-66.0124197819"/><bbox h="0.66" w="0.87" x="-963.45" y="-308.22"/></view></views></metadata><g class="" id="mylayer"><path d="M1000.000000,709.369942L999.664545,707.793054L999.297392,707.254604L998.670426,706.985379L996.862814,706.639233L995.774666,706.293087L993.793083,705.312339L992.454023,703.908523L991.333357,703.023927L990.939459,702.062410L990.471981,700.466291L990.279809,698.966324L990.580456,697.562509L991.317072,695.620244L992.095633,694.293350L992.623576,692.081860L992.387865,691.216495L991.561066,690.408820L989.577662,689.447303L988.147871,689.351151L987.544291,689.716528L986.984840,689.793449L986.281164,690.331899L984.942858,691.562641L982.792886,693.235681L980.818776,694.466423L978.943882,695.004873L976.835691,695.004873L972.812129,695.793317L971.948735,696.427918L970.869362,696.870216L969.833465,697.735582L969.046129,698.274032L967.708475,698.793251L965.942809,699.062476L963.222917,697.927886L961.567721,697.562509L959.400269,696.600992L957.878046,695.716396L956.748613,694.043355L955.712333,691.389568L954.648949,689.197308L954.399284,687.774263L953.637588,686.985818L952.725894,686.543521L951.243789,686.293526L950.172962,686.293526L948.826175,686.908897L947.765066,687.158892L946.551254,687.255043L944.961453,687.081970L943.187896,687.081970L941.823862,686.293526L940.092316,685.851228L938.469637,686.024301L936.645593,685.851228L934.611929,685.947380L933.231385,686.389678L930.689121,685.851228L928.454748,684.889711L925.744948,683.120519L924.164354,681.793625L921.796861,679.062916L919.972966,676.774505L918.024645,674.563015L916.124619,673.428425L911.364724,671.928458L909.173171,672.101531L907.339996,672.024610L906.019440,671.659233L904.696473,670.966941L903.584954,669.986193L903.275757,667.428558L904.622487,663.467107L905.317481,661.082544L906.948864,658.351836L909.276039,654.813452L911.450724,652.351969L913.676927,648.467439L914.320776,646.621327L914.321518,644.852135L914.137259,643.621393L912.741098,641.409904L911.562078,640.083010L908.641890,637.006156L905.538321,633.217779L902.602447,628.544806L896.613389,617.968119L894.371704,613.737444L892.481879,610.910585L891.050650,609.949068L887.513072,608.968320L886.626589,609.141393L885.481536,609.218315L885.714128,607.122208L884.058998,599.007005L890.808924,579.911281L890.893634,578.315163L878.137965,573.449888L872.620221,570.065349L873.428525,569.834585L874.523092,569.584591L875.838822,569.296136L876.876175,569.296136L877.621495,569.199984L878.707793,569.565361L878.892705,570.084580L878.591250,569.911507L878.842993,571.488394L878.775395,572.199917L878.958481,572.738366L879.336286,572.988360L879.886887,573.180664L880.857315,573.180664L881.778797,572.815287L883.058659,572.199917L884.690844,571.046096L887.107582,569.911507L888.521585,569.469209L890.069729,569.199984L893.567478,569.719203L897.808144,569.815355L899.155220,569.373057L900.610283,569.026911L901.966494,568.488462L904.878249,566.546198L907.564609,564.334710L910.994462,562.046300L915.278963,558.334845L917.822336,556.219509L918.909015,555.700290L920.382634,555.334913L922.331176,554.373397L925.042346,553.661874L925.627659,553.488801L926.414327,553.661874L927.735535,553.315728L929.861682,552.950352L931.191736,552.334981L932.362361,551.988835L934.237535,551.623459L936.252619,551.546538L937.106502,551.892684L938.211068,552.065757L939.750364,552.065757L941.145805,551.642689L940.383940,549.623504L939.590439,547.585089L939.452356,547.277404L932.534570,548.238921L926.921549,549.027364L922.637716,548.681218L920.079340,548.488915L915.339143,548.719679L900.997775,549.450431L887.690207,545.815899L877.308062,540.623709L868.431678,533.143110L858.530651,526.585567L848.516995,514.874296L845.896252,511.816674L845.524220,511.682061L842.086507,510.355169L841.538992,509.778259L840.450591,509.259040L836.844883,508.643669L834.402780,507.932147L830.628790,507.855226L828.604576,508.028299L827.885126,508.028299L827.190970,507.586001L826.102856,507.239855L822.990528,507.066782L821.627975,507.143704L820.137625,507.509080L817.152412,507.759074L815.160405,508.297523L813.135794,509.355191L811.120032,510.143635L809.529865,510.855157L806.300591,511.912825L804.367342,512.008977L801.105972,511.643601L798.144512,511.643601L800.494728,509.624416L800.963892,508.912894L801.063708,508.566748L801.382575,508.028299L801.700584,506.970631L801.884742,505.912963L802.261112,505.297592L802.997692,504.412997L803.792061,503.624553L804.921856,501.066920L805.407751,500.355398L806.092595,499.663106L807.548626,498.778511L808.679164,497.797764L809.715767,496.220877L809.934645,494.797833L809.698977,493.932468L807.809358,490.047942L807.115150,487.317235L806.864981,485.548045L806.171400,485.451894L804.463257,485.644197L800.046629,487.048011L799.234386,487.144163L798.315702,486.951859L797.227307,486.432640L795.704466,486.259567L794.005746,486.528792L792.584434,487.048011L788.668942,490.221015L786.174476,492.701727L784.844131,493.144025L784.326313,493.663243L783.521664,493.855547L782.501620,494.201693L779.213870,495.874731L777.314657,496.317029L776.762521,496.317029L775.130724,496.586253L773.241049,496.047804L771.240592,495.970883L769.642375,495.182439L767.869652,493.413249L766.916769,491.644059L766.639881,489.451802L766.490509,486.798017L766.875478,480.105863L767.295381,476.567483L767.923940,473.298328L769.020532,468.625358L770.023641,464.760063L771.037594,461.837054L770.971198,459.894791L770.770261,458.664050L770.787683,457.952528L770.803563,457.433309L771.290081,451.433448L771.658544,448.260445L771.700667,444.472071L771.484104,441.645214L771.141001,438.741435L770.816430,433.530018L770.397835,431.068537L770.130518,427.895534L769.779829,424.895604L769.404688,422.857189L769.068930,422.164898L768.517622,420.395708L767.773416,418.895743L766.527968,416.684257L764.971220,412.818962L764.345397,410.953621L763.993607,409.549808L763.382407,407.530624L763.065757,404.876840L763.425669,402.146135L763.458700,400.742322L763.794438,399.146205L764.053965,396.415500L763.887485,394.646311L763.750947,391.857915L765.193341,390.588714L770.437356,384.704236L778.113040,382.281216L785.100068,379.358208L791.845532,374.223714L796.561465,370.550723L809.578282,359.108686L814.462223,354.724174L816.475438,352.378075L823.593045,344.032119L829.761171,324.551813L830.635686,320.455756L831.442013,316.725076L831.496564,315.975094L825.962649,305.898411L819.757959,298.302439L813.289098,291.725673L810.646865,289.071891L806.684327,280.418252L807.506782,268.245468L807.746523,265.899371L807.772114,265.630146L807.878414,264.687861L807.792372,264.360946L808.568952,258.303400L810.269233,242.880696L810.553566,239.361550L810.772092,236.534695L810.808653,236.150089L810.937885,234.438592L811.725649,224.919593L812.610036,214.208314L812.748693,212.573739L813.616644,202.035534L814.155340,198.304856L814.703457,194.651099L815.170303,191.324257L815.013962,191.208876L814.855794,191.112724L814.636185,190.958882L814.029660,190.651197L813.164579,190.247361L812.557058,190.478124L812.261663,190.593506L811.374923,190.593506L810.671945,190.420433L809.860159,189.631991L809.066655,188.651246L807.316941,188.401252L804.296343,189.728143L802.933824,189.805064L799.989340,188.747397L799.211572,188.305100L799.078166,187.420507L798.041453,185.478247L797.676474,185.093641L797.104685,184.420580L796.047976,183.920592L795.087996,183.459065L793.440220,183.016768L791.808455,183.285993L790.729088,183.728289L788.677055,185.074410L788.179337,185.382095L787.965769,185.516707L787.768931,185.651319L787.306503,185.939774L785.977557,187.247434L785.308154,188.305100L784.637919,188.843549L783.842978,189.285846L783.006985,189.631991L779.827550,189.285846L778.923248,188.766628L778.638545,188.593555L778.463645,188.497403L776.851990,188.555094L776.281309,188.574325L773.257218,188.882009L772.799998,188.939700L771.771543,188.670476L770.525309,188.228179L769.715908,187.766652L769.354863,187.516658L768.509619,186.728216L766.903892,185.843622L764.934849,185.612859L764.583222,185.439786L764.000742,185.055180L763.054391,184.978259L761.774973,184.709035L755.835934,183.824441L754.824211,183.555217L753.735871,183.035999L752.724148,182.766775L749.461062,182.420629L747.035798,181.709108L745.119776,180.920666L743.879030,180.420678L742.945201,180.036072L740.855557,178.786103L740.267594,178.459188L736.261102,175.901558L733.500567,173.613153L731.946040,172.190111L731.691144,172.055499L731.294811,171.824735L730.423975,171.305517L728.215666,170.247851L726.532881,169.997857L725.589637,169.536330L725.366374,169.420948L724.471495,168.978651L722.710816,168.844039L722.350049,168.767118L720.693137,168.420973L719.480646,168.151748L718.061899,167.940215L716.955554,167.786373L716.291251,167.382537L714.376513,166.228719L713.380698,165.440277L713.241090,165.324895L713.015724,165.055671L712.471919,164.440301L711.928115,163.824932L710.933578,162.671114L709.955222,161.171151L709.311387,158.440449L708.548333,155.555904L707.396166,151.132936L706.242175,146.729199L705.006457,143.536970L704.303296,140.902420L702.823296,139.575529L701.785794,137.114052L700.272334,135.787161L699.410099,134.825647L697.712051,133.152611L696.185519,131.787260L695.915722,131.633418L695.472674,132.421860L689.223924,131.979563L685.949154,132.460321L684.980866,132.614163L684.133626,132.902617L681.694118,133.748750L681.019398,133.806441L680.632760,133.825672L669.052437,134.556423L667.554247,134.652574L663.106390,137.440967L657.643345,138.940930L655.039724,140.633196L654.594024,140.921650L650.972744,143.286976L644.305257,143.729273L642.890720,143.825424L641.476183,143.921576L639.927799,144.017727L636.039467,144.440794L631.848151,144.883091L631.819616,147.998398L631.267859,149.402210L629.601351,150.036810L619.500731,151.921379L607.510985,152.382906L604.702023,152.363675L602.210948,152.344445L591.339523,152.305984L585.246723,154.094402L576.705179,155.594365L567.719675,156.132813L566.087635,156.228965L562.453645,156.440498L561.150108,155.017456L559.948404,155.690516L551.655636,155.805898L548.945967,155.094377L548.603762,154.998226L548.309921,154.921305L547.378203,154.690541L546.055917,154.344396L543.541534,153.690566L530.547582,144.479254L520.572561,139.940905L516.189145,141.171644L512.974864,143.479279L510.304028,144.998472L508.243164,147.844556L504.851885,149.902198L498.925616,147.652253L494.595482,143.748503L491.156363,141.383177L487.285500,141.094723L482.762133,140.806268L481.472228,139.767832L478.588890,137.364046L477.236262,136.633294L473.942037,130.633443L471.068396,123.729768L470.170892,122.787483L467.797891,120.999066L464.547907,120.691381L463.237143,120.576000L461.257481,121.864429L459.816323,122.768253L457.312377,126.402778L456.787487,127.171990L453.068758,131.441115L445.327509,134.729495L445.645733,155.132838L428.995101,155.344371L418.364481,151.190627L414.087130,151.306009L411.718994,152.632899L410.683303,153.671335L409.922350,154.459778L408.609278,155.248220L407.423279,156.459728L405.737993,158.171225L402.347780,160.921157L401.801688,161.209611L396.405322,163.767241L394.266677,164.440301L392.022159,165.171052L391.702443,165.190283L390.007134,165.247974L386.748534,165.382586L383.238970,165.517198L375.027144,163.901853L371.642761,163.248023L367.318537,161.921132L363.074310,160.632702L359.903233,159.671188L356.926960,159.651957L352.945214,158.594291L348.341576,158.094303L339.519114,157.094328L324.672394,154.171323L324.067983,154.017481L310.395286,150.536797L304.873768,149.132986L289.074433,145.671533L288.338006,145.498460L285.548361,144.748479L267.184437,139.402457L267.018957,139.383226L258.110499,138.056336L257.632620,137.979415L255.396660,137.037131L253.227226,139.440917L252.497895,140.248590L252.252955,140.537044L252.123035,140.671656L251.055963,141.863934L242.398349,151.267549L220.689007,172.824711L216.033811,177.439982L209.325759,184.112895L204.756583,189.055082L202.496176,191.535791L199.454416,194.843402L188.948370,206.266200L182.921821,212.458357L167.570507,228.207974L163.048617,232.477101L157.526308,237.765435L154.231483,240.919205L152.538584,242.534550L145.800451,248.995932L140.610394,253.957351L137.538288,256.880357L136.931291,257.457266L136.103402,258.245709L135.459284,258.861079L134.631395,259.649521L130.711010,263.399431L130.287785,263.803267L127.507154,266.476280L125.702894,268.207007L124.871077,268.860838L124.310345,269.303135L123.623350,269.841583L123.207442,270.168499L122.249362,270.918481L121.363693,271.610772L120.244058,272.476135L119.412241,273.129966L116.049679,275.764518L113.909083,279.975955L112.344872,283.052804L112.211562,283.398950L111.759881,284.629690L108.503219,293.187177L107.690352,296.456329L107.490928,297.321693L106.338014,301.879276L101.116238,310.340613L98.760724,313.821299L95.006697,319.340398L92.111319,322.340327L91.071952,323.417224L90.554098,323.936443L87.627086,326.917141L80.522774,329.840148L79.612246,330.090142L73.261661,328.782481L72.785603,328.686330L71.602908,328.455566L68.345738,331.917022L68.106285,332.147786L66.658323,333.474677L65.586160,337.359201L66.618738,341.455257L67.267725,343.955198L67.607154,345.839769L68.216448,349.108922L67.881957,351.570402L64.716238,354.070343L62.639808,355.320314L62.383895,355.724150L61.786584,356.551054L61.987086,361.127869L62.686013,372.954513L62.584882,373.666034L62.203862,376.089054L63.538572,378.415923L69.190810,377.742862L70.659771,377.954395L70.233433,378.742838L69.275153,380.550488L69.262351,380.685100L68.928016,385.608061L71.236751,391.415617L71.099788,391.800224L70.011393,394.800153L69.234046,396.992409L70.312237,398.146229L73.893225,402.011523L74.070226,402.261517L73.160548,407.780618L67.463279,411.742064L67.587947,415.357364L70.874829,418.972665L70.647986,420.126484L70.579777,420.491860L70.541101,420.722624L70.500596,420.972618L70.358693,421.761061L67.874620,429.760875L63.743761,436.779942L63.886812,441.433680L63.902534,441.972129L64.172924,450.741157L69.040414,461.663981L69.797890,463.375480L72.002022,471.163761L72.190820,471.817592L72.278682,472.125278L72.338567,472.375272L72.489971,472.894491L72.725581,473.759855L73.963517,474.817523L74.676474,475.413663L76.409586,476.894398L76.416717,477.875145L76.419643,482.067356L74.785093,487.644151L70.635807,492.394042L68.869232,494.432457L64.108019,500.163094L62.861765,503.239947L63.028899,504.297615L63.064740,504.624530L63.100581,504.951446L63.088056,505.259131L62.935106,508.451366L62.732238,511.816674L60.684627,517.162705L58.777634,522.085670L58.644923,529.816263L58.456844,541.296771L58.399539,543.835174L58.407230,545.162067L58.376974,546.008202L58.213492,563.565496L58.209665,564.661625L58.113231,574.122950L58.985530,579.026686L62.527729,582.949674L72.638440,584.834247L82.822008,585.776534L88.003143,592.699455L89.252704,597.507039L89.617534,598.949314L89.997268,600.410820L90.118879,600.891578L90.203092,601.237724L90.248080,601.468489L90.021151,601.391567L86.405472,600.353129L86.267963,600.391590L84.877972,600.756966L83.296459,602.256932L82.243042,603.833820L82.009634,604.353039L81.731793,604.987640L81.062647,606.218382L80.471674,607.506815L79.730673,609.141393L79.517652,609.622152L79.304632,610.102910L78.350610,612.218248L76.575866,616.102776L74.190799,618.487338L70.904056,620.852670L68.920707,622.179563L63.774813,623.333384L60.720920,624.833350L59.342569,626.660233L56.263039,630.717834L55.383696,631.871655L53.065116,635.140813L50.880508,639.640713L48.537290,644.929057L46.940519,650.813541L45.657875,655.505745L45.531142,658.774903L46.785144,660.544095L49.119112,662.217135L50.348080,664.601697L50.112939,668.659300L49.234686,672.793824L48.206003,675.870679L47.708393,677.409106L47.478923,678.062938L46.398498,681.332097L45.626987,683.639738L44.599018,686.005071L43.374764,688.851162L40.907162,691.928017L37.918770,694.851030L35.249829,697.581739L33.660017,699.697077L32.087474,704.446973L31.190096,710.542993L30.228052,715.735187L28.360391,720.773539L25.264844,726.408031L22.376699,730.388714L18.418990,734.004019L14.963234,737.619325L12.696698,740.869254L11.014506,744.484560L10.503529,750.388278L9.590153,755.772777L8.757918,757.311205L7.456770,759.734230L5.647899,764.330284L4.500422,773.233938L4.507309,776.330025L2.660906,784.137548L1.606662,785.195218L0.784134,786.983641L0.122880,790.772021L0.094198,791.425853L0.052019,792.925821L0.022635,794.291176L0.010685,794.945008L0.000000,795.233464L0.236923,798.021865L1.192616,801.521790L11.656800,810.252372L13.954707,813.713836L18.540096,816.521469L18.746660,818.925263L21.292993,818.540656L29.534468,816.329165L40.989022,814.463820L46.699086,814.944579L50.244563,816.194553L52.157630,817.367604L54.163778,818.617578L55.493058,819.771399L62.092929,825.502046L69.755647,832.021138L85.601969,847.501578L85.786304,847.674651L86.825387,848.713090L92.551316,854.309126L97.410281,859.520554L98.350805,860.539763L102.261543,865.693500L104.208549,868.270368L106.183707,872.135671L109.401028,878.424000L112.882929,877.174027L120.664708,878.039393L125.752760,877.847089L132.156808,875.250990L131.453894,874.020247L126.066611,873.135650L125.351192,872.212593L125.836533,871.154923L129.313920,869.424190L133.544362,861.001291L135.712379,856.674460L136.160279,847.559269L133.315641,844.040113L139.360503,837.828706L145.812459,833.848022L148.305912,832.963425L149.396570,832.578818L156.861217,831.674991L164.662111,827.232778L169.549192,825.809732L175.235317,817.386835L177.387224,815.694563L176.488406,811.771570L176.066979,809.867765L176.635853,794.021951L175.641944,786.522113L175.515808,785.560595L172.276954,781.964518L167.251992,776.387716L166.646686,775.714653L160.342114,770.926295L161.368364,769.810935L163.086794,767.926360L172.607533,762.464940L174.861534,761.811108L178.288020,760.791899L191.559531,759.349623L194.033975,757.080441L194.406184,748.234479L194.695184,753.292062L195.511033,758.791942L197.396120,770.118620L203.244434,782.349125L209.235599,785.329831L214.708479,779.503033L220.769051,763.618761L220.835534,762.214945L221.594762,760.388062L241.629599,769.118642L258.451522,776.445407L261.947092,777.868453L281.899326,786.060584L288.192658,788.502839L300.093613,793.560423L301.834866,794.252715L329.890793,800.098744L333.540626,801.483329L356.367777,810.060069L371.391211,815.713794L404.107833,828.155836L410.235544,829.348118L436.724997,834.424933L448.136154,837.771015L456.258824,840.155580L482.304575,847.790033L511.753008,855.712942L529.462645,860.039773L536.334777,861.674354L538.693025,862.212804L543.272012,863.328165L545.887011,863.981998L547.813884,864.481987L553.400734,865.731961L570.405257,869.731876L578.489993,871.635682L614.210423,878.000932L650.890051,865.635809L693.623347,851.366880L699.733133,852.924540L702.998725,855.712942L701.339927,864.193532L700.729370,869.212656L702.025266,870.366478L710.198465,868.520363L713.152184,867.193468L713.679603,863.578160L718.957671,854.866806L721.657701,853.039922L729.448072,848.001567L737.294115,842.905522L752.014683,850.693818L755.171828,850.924582L759.147901,846.232374L754.719718,831.021159L756.154124,830.540400L774.439501,843.251668L788.613126,834.424933L790.660459,819.386792L805.313927,813.963831L816.319426,810.483136L835.730260,803.944815L845.494232,800.675654L926.703433,773.618545L946.970576,772.157038L982.504462,769.560940L982.324118,768.464810L982.123444,766.349471L982.140874,764.580278L982.650187,763.445688L984.190559,760.791899L985.295851,759.195780L987.161082,757.349666L988.253886,756.061232L989.177840,754.965102L991.051262,753.561286L992.858403,751.445948L994.113690,749.503682L994.682625,748.446013L994.582881,747.734490L993.160738,746.676821L990.216709,743.849959L988.843231,742.984593L987.278989,742.542295L985.389890,741.292322L984.895891,740.503878L984.576808,739.811585L984.560724,739.100062L985.264457,737.503943L985.750031,736.619347L986.603113,735.388605L987.539265,733.811716L988.419448,732.119445L988.686036,730.369483L988.837624,728.773364L988.812468,727.100324L989.148165,724.446536L990.419956,721.273528L990.970631,720.408162L991.892762,719.331263L992.995878,718.638970L994.268431,718.100520L995.765508,717.312076L997.213039,715.812109L998.300072,714.408293L999.254784,712.812175L999.908325,711.216056L1000.000000,709.369942Z " data-aland="18782617" data-awater="308839" data-classfp="U1" data-funcstat="S" data-geoid="7283606" data-intptlat="+18.3595572" data-intptlon="-066.0127019" data-lsad="62" data-mtfcc="G4210" data-name="Trujillo Alto" data-namelsad="Trujillo Alto zona urbana" data-pcicbsa="N" data-pcinecta="N" data-placefp="83606" data-placens="02415071" data-statefp="72"/></g><g fill="#000" font-family="Arial" font-size="12px" id="mylayer-label" stroke="none"><text text-anchor="middle" y="511.552943509"><tspan dy="0" x="470.183664228"><![CDATA[Trujillo Alto]]></tspan></text></g></svg>