<?xml version="1.0" encoding="utf-8"?><!DOCTYPE svg  PUBLIC '-//W3C//DTD SVG 1.1//EN'  'http://www.w3.org/Graphics/SVG/1.1/DTD/svg11.dtd'><svg enable_background="new 0 0 1000 1001" height="1001px" pretty_print="False" style="stroke-linejoin: round; stroke:#000; fill: none;" version="1.1" viewBox="0 0 1000 1001" width="1000px" xmlns="http://www.w3.org/2000/svg" xmlns:xlink="http://www.w3.org/1999/xlink"><defs><style type="text/css"><![CDATA[path { fill-rule: evenodd; }]]></style></defs><metadata><views><view h="1001" padding="0" w="1000"><proj flip="auto" id="robinson" lon0="-117.649808006"/><bbox h="0.89" w="1.21" x="-1537.43" y="-796.61"/></view></views></metadata><g class="" id="mylayer"><path d="M1000.000000,132.088681L997.591546,132.115756L990.374301,132.183442L987.963189,132.196980L987.017580,132.210517L984.199647,132.237592L983.251381,132.237592L981.898950,132.264666L977.863356,132.291741L976.516387,132.291741L975.150523,132.305278L971.012486,132.359427L969.633190,132.359427L957.914334,132.440651L922.768687,132.630173L911.047172,132.697860L887.299761,132.819695L816.071096,133.144591L814.950416,133.144591L794.239104,133.252889L793.969710,133.252889L793.247734,133.252889L792.321018,133.252889L786.763533,133.212277L770.072337,133.049829L764.512197,132.995680L759.620002,132.995680L744.921867,132.995680L740.027016,132.982143L736.741904,134.362948L726.870474,138.478287L723.571927,139.845554L720.966752,140.847314L713.178239,143.825521L710.570405,144.813744L703.811661,147.548279L691.170420,152.760141L682.998656,155.982020L651.805743,168.246820L600.416749,188.850608L572.872021,199.883520L573.578731,204.418522L573.883030,206.408507L558.583307,212.351391L539.656212,219.688619L515.062622,229.286581L486.635957,240.603786L464.663267,249.335363L462.564516,250.337125L442.927584,260.043392L437.092347,262.926843L429.732903,266.554849L429.568181,263.739083L429.493945,262.317663L393.215969,277.723151L390.578084,278.833212L375.537747,303.281648L359.672819,329.070293L362.261899,329.083830L363.835306,329.083830L376.301214,329.124442L380.452924,329.137979L379.941322,330.044982L370.074953,347.521702L367.579340,351.934880L366.163724,354.439290L363.876556,358.486960L361.211822,360.612325L356.114559,364.673532L346.148904,370.778880L344.810033,375.923077L350.605823,376.789468L352.889176,379.415716L353.916796,381.080811L354.504214,381.053736L356.819896,387.903641L360.453648,393.508110L363.064966,397.528707L367.504072,401.143183L370.847496,403.349774L360.173980,421.097264L350.618242,436.963063L342.607144,450.432751L342.079589,451.312681L341.334233,453.113152L341.039930,454.466889L340.788772,458.013682L339.812598,460.558709L332.345135,473.337996L321.961443,491.071967L318.649544,491.275028L315.006202,491.491626L294.172927,492.696454L287.223131,493.089038L281.728437,493.427472L265.260580,494.415702L259.763219,494.740599L259.116563,494.740599L258.502239,494.740599L257.571313,496.419235L257.105916,497.231478L253.376087,503.147316L242.189633,520.854221L239.855558,524.549928L237.948469,526.580537L220.499654,526.418088L168.142447,525.930742L150.682865,525.768294L148.994356,528.746520L146.772872,532.631751L144.117570,537.654124L142.553114,540.605276L140.847962,542.676498L135.716428,548.863088L133.997853,550.920772L132.105807,553.411653L88.327828,567.341636L11.489989,591.776647L8.868736,592.697190L9.078419,595.188073L7.012623,601.672490L7.103550,610.025070L5.990491,611.270511L5.882532,621.789078L4.733984,626.743770L4.213642,640.971590L2.791074,645.628460L2.706895,645.912746L2.621280,653.967508L1.054997,663.863359L0.000000,677.779825L0.849653,685.929352L0.992122,687.310169L17.511806,680.500846L18.552474,680.257173L28.577756,677.251866L96.737610,656.756215L102.959513,655.510773L112.549046,655.767984L115.146527,655.822134L121.044989,655.835671L122.274480,653.046964L122.933992,652.126419L133.920698,635.935673L134.355943,635.299414L134.488430,635.096353L135.922067,635.042203L136.444876,635.015128L145.871418,634.609006L174.183478,633.336489L183.607342,632.916830L189.279515,632.876217L197.358035,632.794993L205.404165,621.762003L210.504361,614.763163L211.483714,613.003300L214.389460,607.723711L215.358049,605.963848L216.062265,605.544188L217.352017,604.759018L217.990593,604.772556L218.540279,604.772556L230.070492,604.650719L264.636901,604.271672L275.377638,604.136298L276.140103,604.176910L278.247294,604.149835L281.998213,604.095686L283.918354,600.927932L285.492404,598.301676L286.924779,596.379364L294.455109,585.901413L298.649599,583.884340L322.732662,587.742500L331.801896,589.191002L346.388777,589.759573L361.980054,589.407601L366.461787,589.069166L369.108819,588.608894L372.320761,587.349915L375.390518,585.806651L375.696322,586.429372L376.629730,588.378758L377.203157,588.608894L375.601824,591.424674L360.419536,618.052753L341.849240,650.623766L392.779532,649.486623L418.522229,648.904515L416.021130,653.060501L413.090020,657.988120L396.893757,685.198331L391.491603,694.268404L380.142672,712.706375L375.176652,720.761143L348.636849,767.939088L338.275849,786.350000L339.593668,786.309387L344.361099,786.106326L362.614172,785.361767L368.696748,785.104555L380.630495,784.400609L416.437135,782.261694L428.368184,781.544210L431.970962,781.611897L442.779297,781.814958L446.390185,781.869108L448.882918,781.828496L456.344997,781.679584L458.835059,781.625434L455.953233,786.688435L449.124569,798.682605L419.984410,849.854136L410.264535,866.911319L436.091586,860.900692L513.561457,842.868814L539.385500,836.844652L545.031862,826.894631L561.987876,797.017500L567.632043,787.053946L574.483026,775.885562L612.621573,713.653995L626.990577,690.207177L628.639806,690.153027L658.744009,688.948197L688.010860,688.799285L736.345349,608.549492L713.537891,607.615411L710.601109,607.480037L715.423846,599.682491L761.797991,524.536391L762.915273,523.697073L763.409650,523.087890L764.098719,522.153810L764.642232,521.246805L765.510231,519.798304L766.975754,517.388649L782.669298,491.775912L800.376597,462.372718L851.137203,377.249738L878.719084,330.248042L880.888377,326.701256L887.385567,316.060901L889.552257,312.500580L909.726497,279.442392L928.827978,248.157615L951.455919,211.065345L952.935750,208.669240L970.410563,180.227340L990.738130,147.155697L992.594232,144.150416L997.359039,136.420617L998.157288,135.107499L1000.000000,132.088681Z "/></g><g fill="#000" font-family="Arial" font-size="12px" id="mylayer-label" stroke="none"><text text-anchor="middle" y="453.515336989"><tspan dy="0" x="558.471693977"><![CDATA[N]]></tspan></text></g></svg>