<?xml version="1.0" encoding="utf-8"?><!DOCTYPE svg  PUBLIC '-//W3C//DTD SVG 1.1//EN'  'http://www.w3.org/Graphics/SVG/1.1/DTD/svg11.dtd'><svg enable_background="new 0 0 1000 1001" height="1001px" pretty_print="False" style="stroke-linejoin: round; stroke:#000; fill: none;" version="1.1" viewBox="0 0 1000 1001" width="1000px" xmlns="http://www.w3.org/2000/svg" xmlns:xlink="http://www.w3.org/1999/xlink"><defs><style type="text/css"><![CDATA[path { fill-rule: evenodd; }]]></style></defs><metadata><views><view h="1001" padding="0" w="1000"><proj flip="auto" id="robinson" lon0="-99.6221136046"/><bbox h="0.22" w="0.32" x="-1383.32" y="-610.45"/></view></views></metadata><g class="" id="mylayer"><path d="M1000.000000,143.829430L948.178545,167.716189L792.626008,239.376359L740.779258,263.208882L722.636076,271.604426L672.995124,294.407795L668.174947,296.628550L650.025379,304.915756L626.697498,315.694536L556.644627,347.976692L533.291535,358.701293L492.543038,377.442255L370.247067,433.556746L329.492129,452.189335L279.562053,475.317563L129.853322,544.593818L79.897959,567.667814L78.374486,572.813422L73.741283,588.304403L72.192645,593.395843L23.929275,735.630839L0.000000,806.043966L206.596612,812.706123L195.171867,845.854395L247.608292,848.833405L360.799299,855.170570L363.997118,845.962723L371.703203,823.647223L373.584312,818.230837L736.193208,818.176674L741.035379,826.030433L768.120459,826.734563L770.528056,819.801589L783.399883,782.482668L839.825349,618.744700L898.142228,446.285406L908.813882,412.649235L1000.000000,143.829430Z "/></g><g fill="#000" font-family="Arial" font-size="12px" id="mylayer-label" stroke="none"><text text-anchor="middle" y="567.574783287"><tspan dy="0" x="525.558412925"><![CDATA[N]]></tspan></text></g></svg>