<?xml version="1.0" encoding="utf-8"?><!DOCTYPE svg  PUBLIC '-//W3C//DTD SVG 1.1//EN'  'http://www.w3.org/Graphics/SVG/1.1/DTD/svg11.dtd'><svg enable_background="new 0 0 1000 1001" height="1001px" pretty_print="False" style="stroke-linejoin: round; stroke:#000; fill: none;" version="1.1" viewBox="0 0 1000 1001" width="1000px" xmlns="http://www.w3.org/2000/svg" xmlns:xlink="http://www.w3.org/1999/xlink"><defs><style type="text/css"><![CDATA[path { fill-rule: evenodd; }]]></style></defs><metadata><views><view h="1001" padding="0" w="1000"><proj flip="auto" id="robinson" lon0="-106.672348545"/><bbox h="0.41" w="0.51" x="-1491.35" y="-582.54"/></view></views></metadata><g class="" id="mylayer"><path d="M1000.000000,148.925688L999.222540,147.507625L871.291455,143.978955L833.077441,96.753848L475.865793,146.881039L436.086562,151.761813L402.432172,153.641569L381.396095,153.245831L353.649204,150.508642L347.783348,160.006351L346.803213,161.160585L334.607417,186.850455L316.494883,225.797190L287.833476,286.706397L276.677393,310.153077L276.218391,311.142386L208.181217,455.480037L198.302207,476.320711L193.557201,486.576131L187.170967,500.162052L177.331151,521.200359L170.859537,534.720219L163.127878,551.339695L153.432349,571.817176L142.527494,594.635766L136.989557,606.671534L127.317748,627.313621L105.349645,674.170129L88.845879,709.353389L84.583902,717.860639L54.552551,782.126093L48.401020,795.051608L36.354784,820.869550L32.466445,829.244685L28.049346,839.268447L25.875804,844.181401L21.995369,853.611619L19.751839,858.260774L17.329462,863.338570L13.208024,873.296307L0.000000,902.246152L1.271608,902.114263L27.025867,890.639860L39.745506,885.001564L76.266740,860.404000L80.652967,856.546193L116.524472,824.859282L142.927576,801.547325L204.222692,742.162261L211.226006,735.369691L236.513461,710.903161L242.781875,704.802993L314.301468,635.524264L318.975631,631.006764L329.171699,621.114411L339.562220,611.057161L342.498169,608.221343L367.700723,584.149782L370.523913,581.478819L516.491957,442.190757L562.823024,401.564215L580.520729,388.934293L602.394696,376.271358L627.562149,364.300893L663.834889,354.407921L694.612227,354.276014L733.943842,358.431065L737.377940,352.033604L1000.000000,148.925688Z " data-aland="2642436" data-awater="4485" data-classfp="U1" data-funcstat="S" data-geoid="3539430" data-intptlat="+34.7342698" data-intptlon="-106.6685353" data-lsad="57" data-mtfcc="G4210" data-name="Las Maravillas" data-namelsad="Las Maravillas CDP" data-pcicbsa="N" data-pcinecta="N" data-placefp="39430" data-placens="02584133" data-statefp="35"/></g><g fill="#000" font-family="Arial" font-size="12px" id="mylayer-label" stroke="none"><text text-anchor="middle" y="374.816511839"><tspan dy="0" x="457.205103148"><![CDATA[Las Maravillas]]></tspan></text></g></svg>