<?xml version="1.0" encoding="utf-8"?><!DOCTYPE svg  PUBLIC '-//W3C//DTD SVG 1.1//EN'  'http://www.w3.org/Graphics/SVG/1.1/DTD/svg11.dtd'><svg enable_background="new 0 0 1000 1001" height="1001px" pretty_print="False" style="stroke-linejoin: round; stroke:#000; fill: none;" version="1.1" viewBox="0 0 1000 1001" width="1000px" xmlns="http://www.w3.org/2000/svg" xmlns:xlink="http://www.w3.org/1999/xlink"><defs><style type="text/css"><![CDATA[path { fill-rule: evenodd; }]]></style></defs><metadata><views><view h="1001" padding="0" w="1000"><proj flip="auto" id="robinson" lon0="-94.0379794328"/><bbox h="0.55" w="0.51" x="-1336.73" y="-506.33"/></view></views></metadata><g class="" id="mylayer"><path d="M526.579270,0.000000L516.775916,0.725512L501.595971,2.660210L500.314538,6.741215L500.171064,19.891127L499.192190,24.395352L494.549834,31.045888L491.460444,32.859671L484.869464,33.192198L474.872758,35.368738L471.645913,36.517467L467.935755,38.845156L465.211588,41.837900L463.246758,45.677076L462.493623,48.004767L462.546491,50.997512L464.100108,55.652894L468.406029,62.303443L469.800145,65.779867L471.293972,70.767781L471.429776,75.937076L471.962343,78.264771L473.115671,80.078559L477.463215,84.068894L479.693374,87.394173L481.731510,91.565889L482.711151,96.553811L485.250921,101.874263L488.994467,107.013337L492.209667,109.008508L503.479168,110.580461L509.345340,111.366437L512.439861,112.031494L515.229972,113.180229L519.525671,116.172986L521.546054,119.014594L524.682005,125.816318L525.223576,128.809077L524.981202,131.650688L524.382465,133.978390L522.550020,137.303680L520.305630,139.631383L517.366441,140.961500L509.176400,141.112649L495.933442,140.115062L493.791367,141.445178L490.810747,145.435528L489.483649,148.095762L488.379584,151.088525L487.563145,154.262669L488.505177,161.396937L489.680699,163.724643L490.620095,164.571082L494.572682,166.898790L496.556785,167.382469L499.179563,167.382469L505.237919,164.722232L506.035038,164.722232L506.618060,165.054762L506.987535,166.717410L506.358960,168.561438L504.868677,170.556616L503.176299,172.037885L497.080237,175.544562L495.233580,177.025831L494.356263,178.537330L494.060806,179.686070L494.314887,181.197570L496.313272,183.525279L498.391852,184.341489L499.043635,185.006549L502.010198,186.669199L502.507700,187.334259L502.538751,188.513229L501.961014,190.659560L500.059896,193.652331L498.290999,194.831302L496.632169,194.982452L492.800280,193.984861L491.249081,194.317391L489.240378,195.828892L487.796766,197.642693L486.180771,204.625830L486.324774,208.465045L486.120206,210.460228L485.521555,212.787942L484.660990,214.934276L483.115144,216.445778L480.950992,217.261990L477.616597,216.929459L472.329112,218.592113L472.025902,219.771085L472.527590,220.919827L474.371747,223.247543L474.904510,225.575258L474.391394,227.570443L474.375797,230.230690L476.559609,233.737380L478.848129,233.737380L484.298849,232.739787L486.836129,233.072318L488.097268,235.067504L487.444212,238.906726L482.925717,244.378375L481.852884,248.550131L481.960513,250.031407L483.206114,254.686846L483.267104,256.349503L484.189807,257.861009L485.291312,258.677223L488.188004,264.511640L487.370553,266.990513L487.208502,268.320639L487.967960,269.167084L495.039858,270.164679L507.826775,267.836957L513.466465,267.504425L518.489629,268.169488L519.925423,268.985703L521.589665,271.313425L521.736187,272.643552L520.733429,279.143038L515.696252,297.432303L511.489813,314.391458L499.720777,359.464808L497.426960,371.587172L497.317074,373.914909L498.021028,375.577578L499.075969,376.575180L503.890627,378.751765L508.315449,381.744571L509.734612,383.225859L511.305848,387.216268L511.041700,389.544007L509.993562,391.720595L507.873877,394.864555L505.218998,398.189898L503.078405,401.515242L501.042032,406.835793L500.576992,409.344918L500.638128,411.007590L501.325432,413.335333L508.150089,415.995610L512.745961,418.323354L514.512586,419.653493L515.147788,420.983632L514.863340,423.190454L517.779770,435.252405L516.305978,438.184760L512.629669,440.482276L508.343290,441.751956L482.535201,442.417027L469.477722,442.296105L467.219669,442.477488L463.671099,442.477488L461.212701,442.537948L454.927110,443.082097L452.124823,442.779792L424.975925,442.658870L403.069767,442.749562L361.714705,443.475093L349.469340,443.596015L322.318722,444.382008L286.716448,444.835465L178.944636,449.249116L137.572456,613.401516L80.853456,839.045785L41.861918,991.351425L141.898684,991.442119L195.647548,992.832769L356.885948,994.132725L455.013531,996.551246L748.110525,999.000000L784.860254,997.790739L798.588249,919.884285L822.575196,780.518241L834.368687,702.068693L834.003234,693.180791L832.064889,679.304792L833.048982,669.268128L837.750218,646.564736L839.497951,638.160559L843.017220,625.463609L848.339048,602.548663L853.505783,580.238364L857.700432,558.109480L867.515277,522.316377L871.312624,505.538388L876.057610,486.674507L878.510818,476.728655L879.013415,474.672979L881.522878,460.706476L883.797512,451.455942L888.925184,437.308077L896.234285,417.174597L911.090985,376.182185L926.962518,333.345830L944.851007,285.068153L950.656694,270.587901L958.138082,256.591344L941.484914,251.754524L910.526531,245.950341L898.325567,243.199401L888.552460,240.206621L881.746058,238.876496L881.078679,238.271894L873.627561,233.948991L861.694419,225.756639L845.253616,213.694843L800.465244,182.678839L767.961926,160.187739L744.136167,144.649550L742.024713,143.561273L736.994579,140.024372L690.835272,107.648164L688.542092,106.166901L683.770972,103.022997L681.506514,101.330126L668.190647,92.019336L639.353297,71.976973L620.250170,58.675871L572.931406,24.818568L570.623411,23.095475L557.198971,11.910490L549.989016,8.252699L545.590680,5.259961L534.199854,0.362756L526.579270,0.000000Z " data-aland="7294026" data-awater="50073" data-classfp="C1" data-funcstat="A" data-geoid="4857524" data-intptlat="+30.1750554" data-intptlon="-094.0352530" data-lsad="25" data-mtfcc="G4110" data-name="Pine Forest" data-namelsad="Pine Forest city" data-pcicbsa="N" data-pcinecta="N" data-placefp="57524" data-placens="02411423" data-statefp="48"/></g><g fill="#000" font-family="Arial" font-size="12px" id="mylayer-label" stroke="none"><text text-anchor="middle" y="599.541909325"><tspan dy="0" x="524.983871738"><![CDATA[Pine Forest]]></tspan></text></g></svg>