<?xml version="1.0" encoding="utf-8"?><!DOCTYPE svg  PUBLIC '-//W3C//DTD SVG 1.1//EN'  'http://www.w3.org/Graphics/SVG/1.1/DTD/svg11.dtd'><svg enable_background="new 0 0 1000 1001" height="1001px" pretty_print="False" style="stroke-linejoin: round; stroke:#000; fill: none;" version="1.1" viewBox="0 0 1000 1001" width="1000px" xmlns="http://www.w3.org/2000/svg" xmlns:xlink="http://www.w3.org/1999/xlink"><defs><style type="text/css"><![CDATA[path { fill-rule: evenodd; }]]></style></defs><metadata><views><view h="1001" padding="0" w="1000"><proj flip="auto" id="robinson" lon0="-95.6940078717"/><bbox h="1.48" w="0.69" x="-1360.46" y="-506.87"/></view></views></metadata><g class="" id="mylayer"><path d="M578.653493,0.000000L495.841770,25.415224L479.425487,30.570478L462.992134,37.034291L373.867186,76.200855L323.645296,98.265996L316.630553,100.939539L311.841170,102.225547L311.119399,104.684756L300.186202,104.775002L292.333216,105.778991L287.449904,106.106134L278.580814,106.704016L277.687759,106.670173L275.886855,106.658892L273.184020,106.647612L272.965066,107.482390L269.442334,121.572103L266.684101,132.345285L265.913390,135.357266L282.331958,135.571602L291.501112,135.695691L292.236976,135.706972L336.162296,136.259733L434.081124,137.500625L415.936612,200.966935L384.069380,200.605945L357.472891,291.734131L327.429554,301.402055L327.014518,302.180453L326.542679,302.846040L325.923223,303.489065L325.215220,304.030560L323.704106,304.707428L322.382756,305.136111L319.780626,306.095008L318.499845,306.625222L317.192504,307.110311L312.069343,309.377822L310.813626,310.032128L309.537259,310.618748L305.802581,312.604231L304.552007,313.348787L303.435773,314.093343L299.231377,317.139256L298.121017,318.007906L294.846019,320.692824L292.730090,322.542936L289.989537,325.092481L286.825908,328.194806L284.246233,330.936134L285.843241,332.165783L289.588428,335.561422L286.807968,338.483253L292.422594,343.131109L299.128065,348.523530L330.634867,374.007859L333.592909,376.489738L384.344612,417.170138L410.014506,437.510439L409.245285,439.055989L408.420714,440.409755L417.831095,448.340577L444.272997,469.549654L456.305120,479.161451L486.646284,504.984771L511.724321,524.851541L515.959553,528.066783L533.863494,542.383090L546.893844,552.953939L561.826382,573.351104L601.562650,597.065152L576.937155,623.678699L570.861893,629.003679L563.747332,634.486608L558.880221,638.751112L557.706188,640.195177L557.448182,641.402326L557.484718,642.620757L561.183316,648.295489L563.904206,652.717947L561.068882,655.267632L537.225050,674.931827L509.343284,697.856547L501.495695,704.456446L499.407239,706.205139L495.004690,710.345593L509.564164,730.134072L517.070803,740.005772L519.648727,743.582152L514.385820,748.151348L499.112012,760.843576L494.581067,764.521506L491.275852,767.217905L487.161906,770.658917L492.842100,779.075304L500.550354,790.492727L508.239056,802.169659L510.521723,805.114281L511.552999,806.456848L515.252986,803.681457L530.184326,791.011701L527.697435,801.267093L499.078286,819.826128L484.685707,831.683633L480.457604,835.158529L479.016529,836.377000L468.683217,844.928867L465.586332,847.489916L460.371722,851.765856L448.734683,861.378270L426.399375,879.802109L375.433838,928.891261L429.307743,928.947672L428.981132,930.640020L428.649954,932.129286L413.404450,999.000000L529.911535,998.875893L532.410440,989.703266L537.242816,957.503286L540.415338,941.155152L550.245884,920.846974L560.661821,883.299598L562.772655,874.589725L566.912626,871.047111L595.723997,847.997613L598.435771,851.946371L603.308029,848.245821L607.793650,844.849892L611.773764,841.736018L616.741172,837.854960L640.438536,818.404583L699.026844,770.895840L725.542926,749.843643L734.086610,743.221130L732.889805,724.696182L733.093655,720.205979L731.241683,712.601973L731.178075,712.331207L730.643565,710.593795L729.857844,708.348698L729.678258,707.897422L729.095155,706.419495L728.587518,705.313870L728.143424,704.332346L725.915394,700.665734L724.760966,699.244218L723.760841,697.856547L722.616456,695.735556L721.183304,693.287391L720.026009,692.023822L715.302011,687.883381L711.315150,684.668053L689.970103,667.564797L677.584717,657.636808L657.810494,641.797188L658.462479,640.037232L658.646821,639.405454L658.800923,638.852648L659.061943,637.927543L659.531510,635.874263L664.970303,602.920348L668.312008,582.726152L668.880258,579.048334L669.288649,576.679188L670.280391,571.895773L671.939012,565.002698L673.565428,559.113695L674.835754,555.210259L678.299517,545.305020L680.245684,539.258093L681.220966,536.042846L683.323572,529.251346L684.618496,525.878162L685.343105,524.208493L686.856624,521.320418L688.107498,519.289741L689.494209,517.326755L690.984274,515.408894L691.788732,514.461246L693.223498,512.938240L696.020684,509.801977L696.878287,508.797922L698.743320,506.620590L701.342681,503.360234L705.117729,498.430217L706.629956,496.354422L708.745131,493.184324L710.643318,490.183449L711.582786,488.389693L713.498585,484.294518L714.147264,482.805364L717.317682,475.968798L716.206739,475.777014L711.789207,471.388529L713.826518,462.611570L710.857364,458.482568L703.942921,455.899123L698.626753,455.899123L695.975055,451.510653L691.426570,451.510653L691.535643,448.160075L690.744259,446.343769L691.543582,444.279273L693.917371,441.955306L693.949031,439.890811L692.282948,437.566846L689.013658,436.528959L688.251043,432.659446L684.187483,429.816540L682.008384,423.623071L683.486853,417.937269L686.459357,414.315958L687.348844,409.927518L684.888669,405.798551L686.807940,400.372236L688.799485,398.555945L693.933990,398.296474L701.709759,390.805688L702.648062,387.184393L698.344886,383.314911L699.597638,380.472028L703.633169,377.629147L704.389971,373.748390L700.641176,370.657324L694.567073,370.657324L692.075274,368.592853L691.673155,366.280196L684.988314,360.842635L681.289408,362.399446L680.567370,364.204446L678.258330,366.280196L676.301560,366.020727L672.148211,364.475196L667.444706,366.020727L663.142867,366.032009L661.517313,368.355947L657.794928,368.096478L652.325155,361.903072L653.001521,359.319667L658.793070,357.503388L661.993116,354.919985L665.166779,350.531588L667.053485,343.289046L666.245782,338.641190L662.529224,333.485682L662.382644,331.150476L658.925239,325.994975L658.098326,322.373718L652.606738,317.218225L653.283268,314.634839L654.504246,313.856439L658.871016,313.596972L660.872525,310.754122L660.327097,306.095008L662.097738,298.344868L657.400238,294.994374L657.315126,288.541576L654.991738,283.893760L658.395234,276.651297L659.227252,272.522420L658.944960,270.706166L660.930300,265.031787L669.177015,259.594315L672.283237,255.465449L674.034960,248.741947L676.940270,245.380198L677.646598,242.684032L679.501874,235.565709L678.277182,233.501283L680.421179,226.270160L679.675991,225.232308L674.664786,226.010697L672.977114,224.724664L673.993874,220.844003L675.982854,219.039045L677.498598,215.158388L680.381586,212.834507L681.984854,207.667824L679.843536,203.279531L679.827067,192.686722L677.449441,191.141234L673.218763,190.881773L671.158615,189.076824L667.954860,183.910160L654.421190,175.652532L652.497103,173.328666L651.405678,166.875993L649.799107,164.292670L642.646944,160.682788L637.904883,156.553988L631.669291,155.267968L627.821321,150.620252L628.372627,143.648684L626.267227,141.065371L624.262288,140.038814L618.697126,140.038814L616.300050,139.519895L613.310674,136.428946L611.908317,133.067258L607.843476,130.235770L607.118131,128.171380L609.853266,115.762490L608.163288,110.607167L610.784887,101.559981L610.263728,98.717227L608.521416,96.652847L609.334850,93.550638L612.794771,90.967345L614.797132,88.124595L614.276028,85.281847L610.937174,80.634183L612.539127,71.598320L611.451120,69.015036L608.056832,67.469578L602.151570,68.766860L591.227875,74.711799L580.738812,78.084737L575.559300,77.565823L571.407000,76.020364L565.500043,69.567791L565.620725,66.217419L569.819686,60.780120L570.121824,57.689209L567.767383,55.105930L568.253923,52.263197L573.616330,45.280457L577.739550,33.401920L582.738414,29.780832L584.607863,27.445739L586.313685,19.955398L590.869174,16.086144L592.360663,10.400714L591.276537,6.779639L589.544159,4.715289L580.255061,3.440581L578.653493,0.000000L578.653493,0.000000Z "/></g><g fill="#000" font-family="Arial" font-size="12px" id="mylayer-label" stroke="none"><text text-anchor="middle" y="436.998625357"><tspan dy="0" x="534.24906508"><![CDATA[N]]></tspan></text></g></svg>