<?xml version="1.0" encoding="utf-8"?><!DOCTYPE svg  PUBLIC '-//W3C//DTD SVG 1.1//EN'  'http://www.w3.org/Graphics/SVG/1.1/DTD/svg11.dtd'><svg enable_background="new 0 0 1000 1001" height="1001px" pretty_print="False" style="stroke-linejoin: round; stroke:#000; fill: none;" version="1.1" viewBox="0 0 1000 1001" width="1000px" xmlns="http://www.w3.org/2000/svg" xmlns:xlink="http://www.w3.org/1999/xlink"><defs><style type="text/css"><![CDATA[path { fill-rule: evenodd; }]]></style></defs><metadata><views><view h="1001" padding="0" w="1000"><proj flip="auto" id="robinson" lon0="-94.2833787585"/><bbox h="0.92" w="1.4" x="-1315.41" y="-592.93"/></view></views></metadata><g class="" id="mylayer"><path d="M1000.000000,178.353176L999.818089,178.109774L999.135575,177.464760L998.579176,177.270038L998.384024,177.099657L997.935690,176.941446L997.442826,176.515493L997.115627,176.101709L996.321183,175.432354L995.235638,175.176782L989.363258,174.921210L989.018519,174.750828L988.446310,174.166663L986.684027,172.840121L986.070030,172.669739L985.613192,172.255955L984.814019,171.915191L982.040979,171.038942L978.966863,170.576477L978.737328,170.357415L973.124515,169.724568L970.252854,169.566356L959.114711,169.688057L951.757636,169.554186L946.742476,169.456825L943.351209,169.395974L938.677951,169.383804L933.376584,169.590696L928.727465,170.004481L924.352346,170.089672L915.859389,169.043040L909.221700,169.249932L906.913733,169.420314L904.399175,169.675887L901.872571,170.126182L901.098741,170.333075L899.450159,170.625158L898.047621,170.990262L897.277062,171.124133L893.144756,172.170764L892.388039,172.292465L886.473196,173.801560L883.170085,174.592617L881.611254,174.884699L877.286192,176.004349L873.332028,176.710214L871.350477,177.014466L865.705280,177.549950L864.457830,177.866372L863.069727,178.280155L862.413930,178.523557L861.771377,178.693938L861.297160,178.742618L860.013808,178.450536L859.559377,178.280155L859.282060,177.866372L858.897997,176.941446L858.393386,176.332941L858.211048,176.247750L856.176483,176.028689L854.952898,174.105812L854.289485,173.777219L853.283734,173.521647L852.286477,173.521647L851.404582,173.692029L851.012820,173.606838L850.648145,173.436456L849.960603,172.681909L849.486670,172.353316L848.415579,172.146424L847.187318,172.182934L846.046136,172.353316L843.651996,172.888801L842.964046,173.107863L841.235677,173.399946L840.081250,173.643348L838.651020,174.032792L837.458338,174.239684L835.323483,174.775168L833.012550,175.456694L831.134307,176.126050L829.459826,176.625023L828.713078,176.746724L825.079376,177.793352L824.271156,177.951563L823.574428,178.292325L823.243853,178.547897L821.748877,179.046870L820.187364,179.472823L817.761098,180.799361L817.394943,180.884551L815.982735,181.687775L814.578423,182.685720L814.226268,182.977801L813.870998,183.561963L812.952264,185.667380L812.335350,186.823533L811.676595,187.578075L811.260137,187.821475L810.623684,188.004025L809.486366,188.162236L807.478000,188.174406L805.239825,188.344786L804.155201,188.588186L803.271824,189.014137L802.838252,189.342727L802.677212,189.598297L802.512462,190.085097L803.043280,190.924827L804.088208,191.715877L805.009597,192.519097L805.402279,193.103256L805.448750,193.772605L805.266889,194.344594L804.550096,195.281682L802.305177,197.606145L801.736180,198.360682L801.233122,199.127388L800.597631,200.624291L800.396909,201.914304L800.501665,206.478021L800.386948,207.183874L800.407543,208.060106L800.348084,209.313604L800.577346,209.909928L800.749279,210.153326L801.090748,210.396723L801.482407,211.078236L801.536957,212.161353L800.565091,215.751458L800.129785,216.712875L798.533584,221.106178L798.401767,221.897215L798.289628,223.065515L798.352964,224.026928L798.176688,225.365603L798.264976,225.621168L798.446886,225.864564L799.025306,225.864564L799.508300,225.694187L800.835208,224.939661L802.855672,223.321080L805.452856,220.923631L805.750071,220.522028L806.846241,219.426745L807.283675,219.085990L807.556207,219.012971L808.003345,219.049481L808.343618,219.171179L808.978501,219.840519L809.029731,220.181273L808.792252,221.179197L808.151728,222.566554L805.186030,227.032861L803.802097,229.284266L802.876409,230.878502L802.348790,231.377461L801.968360,231.633025L801.419426,231.791232L799.596212,231.973778L799.125594,232.387548L798.291129,233.726218L797.697476,234.809322L797.510566,235.271771L796.945784,237.863917L796.997168,241.247087L796.892449,241.952928L796.892189,242.330187L796.744484,243.328099L796.842749,243.583662L797.014693,243.827055L797.349900,243.839225L798.480784,243.230742L799.098065,243.328099L799.595243,243.583662L800.052100,243.997430L800.023556,244.338180L798.770248,245.676841L796.273691,247.757848L794.198315,249.266881L793.595217,249.595460L792.779252,249.778004L792.529931,249.778004L792.142022,249.680647L791.813606,249.145184L791.699091,248.658400L791.930530,247.052009L791.999653,246.175796L792.158274,245.676841L792.201521,245.007511L792.282766,244.751948L792.326013,244.082618L793.070055,239.044376L794.287124,230.196996L794.598642,228.213328L794.697535,227.118050L796.349741,215.459382L796.675239,212.867205L796.680799,211.406822L796.608703,210.567101L797.301408,207.792369L797.302719,207.317743L797.463754,207.062175L797.987094,204.506496L800.059620,192.969386L800.586831,189.586127L800.620145,188.916776L800.342830,188.502996L799.910736,188.576016L799.319395,189.087157L798.586381,193.650905L797.882589,198.750120L797.329432,200.709481L796.402340,201.962983L795.877541,202.547140L794.427565,203.971020L793.740809,204.311778L792.959670,204.384797L792.779241,203.885831L792.973467,203.557243L793.818865,202.717519L794.006988,202.376761L793.924812,202.133362L793.694083,201.792604L793.298447,201.719585L792.780467,201.780435L790.098623,202.875728L788.981567,203.472054L788.625384,203.557243L787.539282,204.056210L785.188010,204.895933L784.821854,204.981123L784.325615,205.224521L783.959458,205.309710L783.469323,205.565278L783.103166,205.650467L781.739027,206.271132L779.863332,207.402932L778.956738,207.901898L777.094126,208.741620L775.465191,209.410963L774.663069,209.581342L774.154462,209.581342L773.969288,209.410963L773.675889,208.985018L773.375307,207.828879L773.406533,204.311778L773.361058,202.729689L773.139827,201.731755L772.687309,201.147598L772.427581,201.305807L772.180657,201.549206L772.029310,202.182042L772.015226,203.386864L771.821796,204.810744L771.681982,206.818778L771.631926,208.826809L771.010232,209.496152L770.476935,209.824739L770.092468,209.873419L768.845604,210.250685L767.643537,210.518422L766.842013,210.749649L765.422942,211.260784L765.070627,211.333803L764.463651,211.674559L763.564195,212.088334L763.208011,212.173523L761.394821,213.171451L758.426040,215.106457L757.875629,215.520232L757.350231,216.043534L756.881285,217.236178L756.441595,219.779670L756.618158,220.290801L756.932543,220.619386L757.466764,220.789763L758.138806,220.777594L759.293246,220.534198L761.011936,219.864858L761.432263,219.609292L762.298528,219.268537L765.288496,218.270613L766.311055,218.002877L767.817809,217.686461L768.261077,217.735140L768.733826,217.942027L769.389355,218.075895L771.532401,217.357876L772.575342,216.931932L775.894953,215.179476L777.284541,214.510135L780.317777,212.842865L780.991290,212.575129L781.407747,212.331731L783.128069,211.625880L783.786105,211.406822L785.030295,211.163425L785.699939,210.907858L786.606530,210.408893L788.261186,209.313604L789.217641,208.814639L789.653606,208.729450L790.068590,208.741620L790.330276,208.985018L790.328803,209.240585L790.115994,209.909928L789.272996,210.993047L788.454687,211.747578L787.854416,212.161353L783.497100,214.668343L778.422566,218.270613L774.309828,221.106178L772.615284,222.201460L767.767834,224.964001L765.864898,225.961922L763.924904,227.045031L762.871991,227.470973L762.265017,227.811726L761.898860,227.896914L761.206000,228.225498L760.809489,228.468893L760.326493,228.639269L759.906168,228.894834L758.880338,229.235587L756.636692,230.270015L755.928356,230.647277L755.365577,230.817653L754.955224,231.073218L753.906180,231.486988L753.602693,231.657365L753.236535,231.742553L748.645643,233.823575L748.279485,233.908763L746.806245,234.590267L746.443956,234.663286L744.371480,235.661202L743.040692,236.427893L740.779663,237.924765L739.693292,238.800983L738.391287,240.261344L738.042137,240.857658L737.393369,241.612177L736.675827,242.269339L733.162062,245.165716L730.924919,247.465777L730.466671,248.122937L729.904728,249.388577L729.709043,249.972718L729.236137,253.185492L729.176448,254.816216L728.875948,256.702500L728.809483,257.444843L727.403947,263.967716L727.333619,264.722226L727.298624,266.024363L727.366456,268.446093L727.459566,269.188431L727.440996,269.529177L727.619995,270.283684L727.660404,270.940836L728.551703,273.532931L729.409559,275.163638L729.809171,276.039837L730.159174,276.538784L730.629281,276.879528L731.966857,277.001223L732.277650,276.964714L732.773886,276.721326L733.104450,276.465768L733.543337,275.869465L734.287945,275.127129L734.918125,274.713368L735.774416,274.372624L736.666301,274.202251L737.140530,274.153574L739.222711,273.532931L740.085106,273.204356L740.445161,273.107001L741.717904,272.522867L743.211937,271.524971L744.750159,270.356701L745.736178,269.419651L746.335490,268.506940L746.449918,268.178364L746.357753,267.934974L745.994514,267.509042L738.935089,267.849788L736.762460,267.594228L736.134598,267.436025L735.664496,267.095279L735.275037,266.438126L735.405801,265.744465L735.741526,265.002125L736.182826,264.649209L737.104801,264.697887L737.821988,265.014294L738.341524,265.513244L739.077197,266.085211L739.601461,266.255584L740.106209,266.267753L741.807530,266.060872L743.149225,265.793143L745.362430,265.513244L745.954698,265.501074L746.675583,265.586261L748.099296,265.342871L748.652102,265.172498L749.782387,264.503175L750.925739,263.541783L752.391145,262.069270L752.692221,261.655506L753.100764,261.217403L754.745769,259.148581L755.536033,257.980304L757.222997,255.716765L759.017691,253.051627L759.464152,252.211925L759.481783,251.372223L759.369676,251.128831L759.407253,250.289128L759.505609,249.948379L759.716934,249.534612L760.214634,249.035658L761.252331,248.281142L762.012161,247.867374L763.401743,247.198045L764.008713,246.857295L765.455727,245.944573L765.796267,245.689011L766.624535,244.934493L767.404404,243.924412L768.167090,242.184152L768.328384,241.551329L768.760434,239.251261L769.248695,237.997783L769.940714,236.573929L770.518200,236.074972L771.483758,235.892426L772.192160,236.330535L772.882154,237.328450L773.490901,238.581928L775.868495,242.427545L776.262675,242.756125L777.017679,243.267251L777.805099,243.425457L778.316117,243.668850L779.003717,244.423368L779.000790,244.934493L778.746478,245.640332L778.352977,246.187966L776.642114,247.648321L775.524379,248.780096L773.694528,251.116661L773.196830,251.615615L772.389458,252.869083L772.252847,253.173323L771.082929,254.877064L770.104303,256.763348L769.670486,257.469182L769.316452,258.175017L769.072978,258.564442L768.514933,259.817906L768.081720,260.584587L766.884128,262.312661L766.386434,262.811611L764.532349,263.906868L762.822181,264.831751L762.156407,265.075142L761.736087,265.330701L760.883667,265.659278L760.463347,265.914838L760.107161,266.000024L759.610927,266.243414L757.495137,267.095279L755.369975,268.007991L752.900408,269.188431L749.660612,270.940836L747.322674,272.522867L745.378404,273.776321L744.928165,274.031879L742.839977,275.455704L740.748952,276.794342L740.278767,277.049900L735.876885,279.885375L733.826179,281.065808L732.963784,281.394382L732.573207,281.430890L731.771077,281.601262L730.693749,281.978513L730.327589,282.063699L729.251466,282.562644L728.885306,282.647830L728.282207,282.976403L727.916047,283.061589L727.652455,283.231961L726.919708,283.560534L726.116120,283.986463L725.304017,284.156834L725.054693,284.156834L724.899422,283.986463L723.961767,282.355764L723.678985,281.394382L723.524142,281.065808L723.154253,278.558909L723.045568,277.049900L722.670527,273.618118L722.368664,268.105347L722.405296,265.355040L722.376938,263.091510L722.411678,262.166627L722.502557,261.472963L722.566106,259.830075L722.564770,256.665991L722.838190,254.864895L722.838454,254.487638L722.947050,253.769632L722.932228,251.055813L722.717825,246.711260L722.517039,244.958832L722.298609,244.046109L722.328630,243.449796L722.394840,243.084706L722.396578,242.451884L722.589704,241.405293L723.050627,240.614265L724.246973,239.360788L725.890732,237.766559L726.693565,237.060717L728.085335,235.600353L728.522774,235.259601L728.822393,235.101395L729.628389,234.918850L729.937981,234.760643L730.402504,234.334703L730.569643,234.091309L730.677980,233.750557L730.783920,233.166411L731.075037,232.752640L732.589154,231.158406L735.155427,228.858325L737.007858,226.984182L737.706936,226.071450L738.078436,225.718527L739.603405,223.807872L741.767781,221.203537L743.649494,218.453160L744.007153,218.112405L745.178341,216.530328L745.060581,216.116553L744.838349,216.031365L744.155619,216.579007L741.723767,219.365896L741.299132,219.791839L741.104905,220.120424L739.931325,221.459102L739.743203,221.799857L738.178777,223.552306L736.534571,225.304754L736.346449,225.645508L735.982687,225.974092L735.557616,226.558241L734.675160,227.483142L733.862350,228.188988L731.401470,230.659447L729.136288,232.545755L727.506803,233.969612L724.942932,236.513081L722.941079,238.606268L720.662826,240.784640L720.093836,241.539159L719.651224,242.366696L719.890467,242.963010L720.052431,243.206403L720.261426,243.364608L720.569444,244.058278L720.573708,245.299582L720.082298,248.256802L720.103344,248.974810L720.038671,249.899700L719.687022,250.848930L718.894069,252.151077L718.822792,252.406638L718.769562,253.075966L718.605262,253.404545L718.204449,253.818311L717.667285,254.159059L717.342050,254.146889L716.039813,254.572825L713.876113,255.826291L709.696840,258.588782L709.357330,258.746986L707.072491,260.256009L706.318760,260.681943L704.901654,261.594659L703.521003,262.361339L702.631088,262.933307L699.520905,264.685717L697.599822,265.866160L694.433068,267.545550L691.375847,269.005889L690.858027,269.285787L689.314973,269.967278L688.871434,270.295854L688.683321,270.636599L688.910201,270.989514L689.603233,270.879989L690.611959,270.624430L692.277955,269.869922L692.694411,269.626533L694.116757,269.042398L694.533214,268.799008L695.016213,268.628635L696.559266,267.947144L697.314800,267.703754L698.943740,267.034432L700.082545,266.620669L701.657319,266.121719L702.825610,265.866160L703.231230,265.939177L703.444869,266.365109L703.355283,266.584160L703.056437,267.022262L701.111883,268.652974L700.598704,269.200601L700.105643,269.967278L699.501075,270.551413L699.031919,270.709616L697.865090,270.709616L695.834659,270.916497L694.680810,271.220734L692.636877,271.877885L691.173607,272.559375L690.811315,272.632392L688.944829,273.484254L688.592510,273.557270L687.713000,273.971032L687.346839,274.056218L686.936487,274.311776L686.453488,274.482149L684.957803,275.516551L684.588546,275.893804L684.377221,276.307565L684.317725,276.745664L684.409888,276.989053L684.789803,277.488000L685.034826,277.658372L685.242365,278.072132L685.270392,278.485893L684.976361,279.410768L684.451578,279.994900L683.934361,280.335644L683.019259,280.579032L682.322530,280.919775L682.087220,281.126655L681.677040,281.601262L681.258264,282.416611L681.238233,283.012912L681.563559,283.840430L682.028936,284.509746L683.029933,285.690176L684.457533,286.846266L687.267508,288.014525L687.579508,288.099710L687.985307,288.391775L688.741111,289.182783L688.738796,289.754742L687.292132,291.105539L686.972919,291.701836L686.918330,292.030408L687.357589,293.283849L687.634947,293.697606L687.982544,293.953162L688.760008,294.111363L690.133440,294.026178L691.467407,293.782791L693.827811,293.259510L696.084014,292.687552L698.207728,292.030408L699.467236,291.519296L699.823424,291.434111L700.319661,291.190724L700.675849,291.105539L701.952464,290.509241L702.314756,290.436225L704.284228,289.511355L704.650389,289.426170L706.695775,288.513468L707.905845,287.844154L709.550504,286.748911L711.726996,285.580651L714.593079,284.156834L716.005873,283.414501L716.755301,283.158944L717.658794,282.952065L717.976295,282.988573L718.273598,283.402332L718.361897,283.657889L718.231317,284.570593L718.319616,284.826150L718.487699,285.081707L719.239538,285.069538L719.863538,285.239909L720.147001,285.665837L720.149412,285.909224L719.986931,286.420338L719.609944,286.821927L719.092733,287.162669L717.043481,288.087541L716.681190,288.160557L715.686482,288.622992L714.935421,288.915057L714.515101,289.170613L712.679576,289.925113L712.279201,290.180669L710.863996,290.679612L710.443676,290.935168L709.001391,291.519296L708.161779,291.933054L707.835510,292.018239L707.307722,292.298134L703.437387,294.026178L700.356195,295.279617L699.935874,295.535172L699.589659,295.620358L695.208640,297.543107L693.573601,298.200249L693.213544,298.297603L691.164288,299.222469L690.685159,299.380670L689.529249,299.879610L689.163087,299.964795L688.293555,300.378551L686.944290,300.889660L686.537810,301.133046L685.395138,301.558970L684.175522,302.070079L680.967515,303.408698L677.417159,304.820331L677.050997,304.905516L676.564733,305.148901L675.503299,305.319270L675.000780,305.331439L674.663153,305.075885L674.375817,304.662131L674.287516,304.406577L674.134138,300.402889L674.165162,299.709240L674.044545,294.379088L673.601801,283.098097L673.901078,281.090147L674.286070,280.286966L675.748576,277.913930L676.396394,276.660478L676.973881,276.161532L677.590829,275.820787L678.445662,275.735601L679.052637,275.394857L679.653337,274.822893L680.276480,273.898015L680.533370,273.654626L685.216114,269.967278L686.440469,269.127584L688.447441,267.959313L690.877575,266.620669L691.626668,265.927007L692.496132,264.697887L693.100703,264.113750L693.524298,263.785173L695.271544,262.775103L698.791148,260.268179L705.208776,255.327339L707.295532,254.159059L708.411822,253.282849L710.993551,250.934117L712.241390,249.644139L713.199750,248.731417L713.806726,248.390668L714.369507,248.220293L715.430929,248.049919L715.917196,247.806526L717.299752,246.626072L718.008793,245.713350L717.867808,245.372600L715.744634,245.275243L713.309324,247.100688L709.629877,249.984888L703.770817,254.329433L693.456074,261.521641L690.736195,263.614800L684.968369,267.703754L683.060091,268.969381L676.855773,273.898015L674.224454,275.869465L669.417226,279.070025L669.153028,279.179549L667.740221,279.921884L664.872650,281.601262L662.811514,282.939895L653.461432,288.038863L650.167430,289.961621L645.110535,292.724060L642.733100,294.147871L641.880669,294.476442L641.070967,294.890199L640.714778,294.975384L637.418367,296.654748L635.787959,297.579615L635.183391,298.163741L634.643908,299.076438L634.263044,299.490193L633.838850,299.757917L633.155959,300.086488L631.950604,300.427228L631.511190,300.366381L631.124306,300.171673L630.580089,300.001303L630.109725,300.037811L626.974597,301.084369L625.372730,301.668493L625.006566,301.753678L623.926561,302.264787L623.564267,302.337803L622.680884,302.763727L620.685771,303.518221L617.798761,304.443084L617.156191,304.613454L614.664834,305.611332L612.695340,306.536194L608.600653,308.373748L606.695294,309.128239L606.072240,309.456808L605.529399,309.627177L604.416462,309.834054L603.356228,310.126115L602.935901,310.381668L601.711800,310.844098L601.244272,310.965790L599.981484,311.549912L598.786098,311.890650L598.196229,312.146203L597.643414,312.316572L596.585844,312.474771L594.671367,312.912862L592.520804,313.277938L588.890882,314.312319L586.447404,314.908609L582.555516,316.076850L581.282752,316.660970L580.533313,316.916522L579.262009,317.245090L575.981996,317.963070L575.287924,318.169946L574.527308,318.303807L573.833236,318.510683L572.472173,318.839250L571.721530,318.973110L571.313838,319.094802L567.463982,319.472046L565.995879,319.666752L563.625301,319.970981L560.307282,320.275209L557.136795,320.774144L553.664278,321.187895L549.297194,321.905874L547.008633,322.234440L545.081165,322.368301L542.746006,322.623853L542.016338,322.660360L539.903422,323.001096L538.646385,323.159294L537.122311,323.341831L532.445884,323.840765L531.214897,324.011133L528.605991,324.218008L522.384426,324.181500L517.882530,323.974625L511.348022,323.354000L505.723734,322.599514L502.564601,322.027565L498.119544,321.516462L492.590861,321.151387L490.261899,320.822821L485.813243,319.946642L481.675124,319.411200L481.165464,319.508553L480.680219,319.654583L480.019062,320.165687L479.272016,320.664622L478.304195,320.822821L477.791699,320.834990L477.097888,320.664622L476.850029,320.409070L476.695197,320.080503L477.378638,318.997449L477.290348,318.741896L477.026413,318.474175L474.044138,318.036085L471.991593,317.622334L471.127041,317.330274L469.664106,317.038214L468.407772,316.660970L467.738378,316.539278L467.491721,316.405417L465.101565,315.736113L461.058227,314.494857L458.071601,313.411799L456.439402,312.742494L456.127404,312.657309L455.785924,312.413925L450.819526,310.406007L448.233307,309.067393L447.632530,308.824009L445.616137,307.826133L437.169941,303.055789L436.918223,302.812404L436.397233,302.569019L435.589542,301.972725L435.015856,301.644155L434.768008,301.388600L434.403316,301.218231L430.767097,298.979083L429.985019,298.553158L429.621366,298.285434L426.763966,296.545225L426.395406,296.387024L424.565698,295.303956L419.135544,292.371150L418.781868,292.103424L417.465414,291.288079L417.159525,291.215063L414.837419,289.547863L407.673301,283.694397L404.501723,281.029300L402.158808,278.863145L399.038161,276.100684L397.608905,274.762046L392.091220,270.003786L389.234078,267.667245L387.483332,266.085211L387.207816,265.853990L402.246534,218.976462L390.107637,214.656173L380.092328,211.090406L369.462821,206.916137L349.391417,198.847480L344.888869,197.107176L340.376357,195.366872L331.766927,191.959277L323.167503,188.551676L320.975612,187.322504L315.300273,204.348287L313.134355,210.749649L303.395399,239.579842L303.290885,239.908423L296.720317,259.343294L295.320644,263.493105L293.062175,270.186329L291.520973,274.749876L290.896638,276.587462L286.203503,290.497072L286.453870,290.399717L286.434069,290.618765L285.886572,292.152102L285.489728,292.772737L285.380911,293.271680L285.077391,294.257395L285.029455,294.658982L284.771336,295.596019L284.647936,295.827236L284.448915,296.484378L284.424203,296.812949L283.766108,299.478024L283.480749,301.096538L283.070209,302.763727L282.521242,303.737268L281.252429,306.974286L279.357566,312.681648L273.759638,329.876639L269.651223,342.325566L267.920108,347.424369L267.809523,347.740762L266.814001,347.923296L241.537090,347.217497L203.662758,346.170965L150.295991,344.698519L140.892805,344.442970L137.853529,344.090070L138.517880,341.656271L138.315326,338.687032L137.114256,337.226749L109.614988,335.450069L98.658691,335.875986L74.268433,402.123044L61.663035,432.227912L61.614966,432.410438L50.409888,465.264816L36.230458,506.441465L34.013014,512.537574L29.065220,525.496300L28.061716,528.088034L26.816326,531.628848L25.320531,535.863215L23.561708,540.924973L17.394724,558.409832L18.292979,558.470669L19.523633,558.458502L26.735984,557.983967L32.353729,557.631108L36.261660,557.448595L42.905496,556.974060L46.829865,557.837956L51.773589,559.103382L52.678559,559.237225L54.200061,559.784765L56.472839,560.855508L58.522936,561.999256L68.822298,568.411533L74.569211,572.390296L77.462633,574.081572L90.621624,582.574431L92.392507,583.718165L89.558482,588.147087L89.318904,588.524275L87.888770,590.921242L85.670716,595.702998L85.481010,596.080184L85.948181,597.905278L83.909057,601.433788L80.753915,607.249731L73.501841,617.859519L67.598446,624.916454L51.503737,635.951984L32.956722,648.897658L2.306391,669.484008L0.000000,671.029192L51.347614,673.413881L66.946391,674.107388L90.155308,674.581892L100.006851,674.873894L109.133523,675.092896L122.632176,667.768488L150.381561,652.730241L159.482542,649.043662L162.075320,648.009471L176.073659,640.587617L206.606266,624.417603L210.301802,635.951984L234.038371,623.371231L239.877811,620.280781L241.869884,619.222240L244.113943,618.029859L265.912145,606.495363L289.060476,597.491590L298.239410,597.576761L302.756006,597.613263L305.720524,597.637598L314.993091,597.710602L326.597669,597.004899L325.054557,599.255847L309.215991,622.483031L308.987274,623.140056L306.808606,629.588616L306.600229,630.087466L302.856902,635.088125L310.905257,638.543560L311.287987,638.908570L313.112495,640.794456L323.502609,645.795085L324.116198,644.931231L324.660999,645.539579L325.562243,646.281764L326.901969,647.182119L328.107309,647.814800L329.798759,648.581318L333.771763,650.077852L334.991331,650.540195L339.834197,652.438235L322.557377,678.280586L349.851977,689.096789L355.556904,691.201621L387.623183,704.110398L388.119911,704.305063L385.735634,707.760365L374.012133,725.450433L372.246274,727.932381L364.339025,739.794589L363.269362,741.497874L359.651131,747.739183L356.180035,753.737145L355.117755,755.574245L346.708920,772.156725L347.766495,772.375715L351.722989,773.203010L352.134823,773.288173L352.698522,773.397668L356.026621,774.224962L358.894904,775.149585L359.691166,775.563232L361.592545,776.548684L365.774446,779.492872L372.159900,784.858095L380.001826,791.196580L382.555222,793.301293L389.384480,798.934124L392.276694,801.196985L395.136395,803.593667L400.566702,807.632739L403.611242,809.384622L405.842144,810.589041L408.231379,811.671801L413.921421,813.825153L419.364768,815.467538L420.967755,815.759518L424.878073,816.355642L428.615654,816.647621L435.537426,816.963932L448.339104,817.547891L462.906316,818.131849L493.724877,819.336262L507.318446,819.908054L521.566491,820.492011L541.822568,821.002974L546.733031,821.088134L554.889786,821.221957L567.970844,821.428776L609.004347,821.939738L613.400963,821.915406L615.486961,822.037064L618.804657,822.426368L621.867173,823.022491L624.295169,823.606447L627.089949,824.543210L629.816488,825.820613L632.119590,827.049353L636.632778,829.956960L655.376489,778.081609L670.471428,734.404898L692.092252,669.617843L689.436498,669.751678L648.974389,671.625364L647.911637,671.674032L646.149070,671.759199L647.129563,668.766167L653.345653,649.822346L655.669655,642.850678L658.733440,633.518577L644.590866,636.499501L640.270226,637.290357L645.829622,614.355376L623.418571,618.309704L609.709229,620.743132L587.941313,624.587942L629.262495,592.125808L630.406279,591.225425L636.100325,589.753177L653.994575,585.166083L654.734646,584.971405L705.073815,571.781923L710.781658,570.297492L755.456618,551.766335L782.968192,540.231415L827.801487,520.823869L830.770586,519.546249L831.684025,516.796321L833.358796,512.026524L833.984978,510.055329L838.178888,497.826570L842.279070,485.390872L846.079333,474.244910L847.824488,469.316815L848.739907,466.749333L850.511538,461.675200L852.959731,454.471610L856.994510,442.619696L861.002130,430.633851L864.760018,419.779598L869.082515,407.148669L874.769464,390.161271L877.367698,382.361131L877.636743,381.545826L881.296603,370.812968L882.403758,367.454374L886.402225,356.064313L890.096117,345.319137L891.226755,342.106524L893.370009,335.644774L897.764493,323.134956L902.014606,310.734575L905.913287,299.879610L908.641423,291.640990L910.585249,286.152612L914.203151,274.518657L914.811818,272.948798L915.152804,271.938732L919.866874,257.797760L928.625718,231.560007L927.551182,232.618773L926.394628,233.653199L925.502264,234.578098L925.184095,235.077056L924.816489,235.417808L924.358277,236.074972L923.920861,236.415723L923.673956,236.659117L923.485859,236.999869L921.722533,238.594098L913.645060,245.275243L911.449644,246.942483L909.288438,248.439347L907.857971,249.206033L907.619227,249.266881L906.492236,249.863192L905.693987,250.021397L902.336708,250.982795L900.134102,251.323544L896.214537,251.700802L894.868204,251.700802L893.915105,251.530427L892.666637,249.936209L891.488880,249.437255L890.069919,247.344081L889.738468,246.504376L889.763132,246.175796L890.323489,245.762028L890.572809,245.762028L890.870539,246.017591L891.187791,246.431358L891.644662,246.845126L892.022176,247.100688L892.349401,247.514455L892.741181,247.599643L893.055593,247.928223L893.749398,248.098597L896.153271,247.940392L896.822903,247.684830L900.126990,247.392759L903.395169,247.903883L904.560781,247.782187L904.981091,247.526625L905.347245,247.441438L906.125189,246.845126L906.307000,246.273153L905.966960,245.774198L905.566660,245.433448L902.947859,245.640332L901.139695,245.932403L900.273938,245.518636L899.166844,244.703270L894.758081,244.423368L894.167271,244.179975L893.766973,243.839225L892.572116,243.425457L892.342563,243.206403L889.999202,242.829143L889.634503,242.658768L888.839056,241.490481L888.592043,240.918506L888.467190,239.993611L888.530115,239.701539L888.758106,239.360788L890.531598,237.985614L891.671834,237.316281L891.998523,237.072887L892.302002,236.902511L892.474275,236.172329L892.311093,235.807238L891.923008,235.490826L887.793424,235.807238L887.345076,235.649032L886.693053,235.064886L886.313485,235.004038L885.554272,235.478656L885.432715,235.892426L886.388597,238.155989L886.309771,238.654946L886.321656,239.652860L885.664409,240.151817L884.263923,240.322192L883.606676,240.821149L883.132204,241.247087L882.797882,242.330187L881.720322,243.084706L880.908231,243.255081L880.319836,243.255081L879.483576,242.999519L878.562781,241.660856L878.365207,241.247087L878.720433,240.662943L879.529733,238.399383L879.883502,238.070801L880.098684,237.644862L880.789117,237.072887L881.004298,236.646947L881.607948,233.555842L881.467883,232.302360L882.801967,229.454642L884.660386,223.357590L884.951485,222.943817L885.719470,222.347497L886.039027,222.189290L886.344915,222.262309L886.709608,222.432686L887.167065,222.907308L888.545891,224.781454L889.013670,225.694187L888.905348,226.034941L889.214422,226.631259L890.359842,228.298516L891.345781,229.369454L892.798809,230.476900L893.077191,230.793314L894.289067,231.718213L894.601062,231.803401L894.852792,232.046796L895.466807,232.217172L896.052286,232.728301L896.596493,232.898677L897.996474,233.482823L898.861016,233.774897L900.902345,234.066970L903.245946,234.066970L905.449752,233.847915L910.007983,233.312447L911.958850,232.728301L912.482154,232.399718L912.928090,232.314530L913.924409,231.815571L914.487179,231.645195L917.256736,230.148317L919.644490,228.566251L920.238207,228.298516L921.124752,228.395874L921.782954,228.395874L923.771826,228.225498L925.398311,227.312766L927.051448,226.473052L927.421896,226.217487L928.683684,225.134378L929.566332,223.832211L929.699067,223.540137L931.460950,222.201460L931.587757,222.116271L937.815995,217.613442L941.388170,215.191646L942.618157,214.522305L943.866203,214.266738L947.079806,213.098432L947.716076,212.696827L948.706290,212.185693L949.635638,211.771918L951.420306,210.518422L951.746567,210.433233L955.241798,208.096616L962.772501,202.790538L964.458648,201.658735L966.244696,200.745990L966.690628,200.660801L967.324663,200.234853L967.807648,200.064474L968.305506,199.784565L971.665682,198.312002L971.925400,198.153793L972.291551,198.068603L973.198114,197.569635L973.733800,197.484445L974.363967,197.070667L976.176664,196.230939L976.663947,195.890180L978.155541,194.648843L978.366857,194.235064L978.529342,193.723925L978.516962,193.480525L978.176946,192.981556L977.696884,192.640796L976.475584,190.961337L976.830817,190.377177L978.705675,188.965457L979.756156,188.296106L982.606526,186.701833L983.075670,186.543623L984.271700,185.667380L985.564450,184.486887L988.238842,182.442319L988.752175,182.113727L989.788894,182.271938L990.516803,182.868271L991.248842,183.075161L993.342828,183.452433L993.905593,183.282052L995.599049,182.284108L997.475109,180.994082L999.503254,179.351122L1000.000000,178.353176Z "/></g><g fill="#000" font-family="Arial" font-size="12px" id="mylayer-label" stroke="none"><text text-anchor="middle" y="481.786993996"><tspan dy="0" x="481.4997698"><![CDATA[N]]></tspan></text></g></svg>