<?xml version="1.0" encoding="utf-8"?><!DOCTYPE svg  PUBLIC '-//W3C//DTD SVG 1.1//EN'  'http://www.w3.org/Graphics/SVG/1.1/DTD/svg11.dtd'><svg enable_background="new 0 0 1000 1001" height="1001px" pretty_print="False" style="stroke-linejoin: round; stroke:#000; fill: none;" version="1.1" viewBox="0 0 1000 1001" width="1000px" xmlns="http://www.w3.org/2000/svg" xmlns:xlink="http://www.w3.org/1999/xlink"><defs><style type="text/css"><![CDATA[path { fill-rule: evenodd; }]]></style></defs><metadata><views><view h="1001" padding="0" w="1000"><proj flip="auto" id="robinson" lon0="-83.9605317646"/><bbox h="0.34" w="0.7" x="-1147.42" y="-669.57"/></view></views></metadata><g class="" id="mylayer"><path d="M1000.000000,418.859951L998.167038,407.412843L989.182212,394.868817L981.000560,386.712868L875.223653,322.468372L825.116662,288.153255L812.355605,284.886324L796.908387,284.361708L785.539482,287.104021L760.072720,288.749412L746.397454,293.137128L743.105660,295.712532L727.566478,254.888103L703.516535,272.104818L685.626975,284.886324L674.008595,259.728794L631.384833,286.913251L627.127815,289.965571L621.441086,293.709439L607.063368,302.604144L600.991672,306.276503L552.269351,337.324976L510.579516,363.843052L489.882472,377.126106L481.540476,382.396433L474.767044,386.855955L445.905933,405.290368L440.847447,408.629095L428.402411,416.451282L418.716247,422.842611L412.403669,426.872977L409.043605,429.138572L405.488420,431.404170L396.525013,437.342438L393.264040,439.321865L385.251536,444.711644L383.797792,445.641741L371.815096,453.368718L360.601694,460.451814L340.896261,472.900968L336.332397,475.882102L309.819857,492.719654L299.847072,499.206690L292.366745,503.905039L283.429656,510.105927L276.960995,514.756608L274.783007,516.426087L272.233508,518.548713L268.275301,521.696882L261.552195,527.420842L254.236929,534.122672L238.879178,548.838178L232.666456,554.609937L230.185270,557.042669L223.203295,563.458420L213.397193,571.662987L209.188369,574.858964L201.144480,580.678520L197.531564,583.111292L195.750622,584.423082L190.199913,588.000698L180.213746,593.963408L172.722246,598.018064L167.710402,600.546266L160.842568,603.813855L142.291678,611.970930L133.266146,615.834823L132.117128,616.335698L121.553063,620.867438L112.505760,624.850609L107.892422,626.734867L105.085543,628.022842L47.444647,652.995459L34.031637,658.767601L19.280471,665.136062L16.387277,666.447921L10.826038,668.928529L0.000000,673.484272L0.000000,673.484272L2.246332,698.004413L2.500007,698.004413L20.946201,698.099823L21.473064,698.099823L27.095935,698.147528L39.027682,698.910807L42.379501,699.149331L79.964038,701.963927L643.938575,744.111897L648.124172,736.693582L667.330882,703.395079L693.658653,658.314415L701.975047,643.526330L735.066788,582.681979L737.946702,577.911843L739.799410,575.264424L742.128684,572.593159L746.104410,568.490867L759.152823,555.707051L781.526942,534.074972L796.657274,519.955848L799.994493,517.022330L801.740774,515.472099L804.607490,513.277928L807.409700,511.608453L810.539137,510.177475L812.726757,509.438137L814.990946,508.984995L818.075426,508.698800L821.081135,508.865747L825.739450,509.557385L830.619897,510.058227L836.433905,509.891280L840.124801,509.938979L842.791305,510.296723L848.253457,511.823100L850.625031,512.300093L852.707638,512.371642L855.702807,512.061596L858.195133,511.513054L860.460797,510.773716L863.208982,509.485837L865.663714,508.031011L868.208473,506.146895L876.499282,498.371960L881.004916,494.317561L883.615712,492.242667L888.976179,488.593721L892.653398,486.256493L932.307362,460.928791L945.775034,452.629407L948.557725,450.959996L978.210560,434.289831L986.184170,429.687085L994.777659,424.702778L999.642118,421.697893L1000.000000,418.859951Z "/></g><g fill="#000" font-family="Arial" font-size="12px" id="mylayer-label" stroke="none"><text text-anchor="middle" y="519.48171175"><tspan dy="0" x="547.338172067"><![CDATA[N]]></tspan></text></g></svg>