<?xml version="1.0" encoding="utf-8"?><!DOCTYPE svg  PUBLIC '-//W3C//DTD SVG 1.1//EN'  'http://www.w3.org/Graphics/SVG/1.1/DTD/svg11.dtd'><svg enable_background="new 0 0 1000 1001" height="1001px" pretty_print="False" style="stroke-linejoin: round; stroke:#000; fill: none;" version="1.1" viewBox="0 0 1000 1001" width="1000px" xmlns="http://www.w3.org/2000/svg" xmlns:xlink="http://www.w3.org/1999/xlink"><defs><style type="text/css"><![CDATA[path { fill-rule: evenodd; }]]></style></defs><metadata><views><view h="1001" padding="0" w="1000"><proj flip="auto" id="robinson" lon0="-94.7444238845"/><bbox h="0.48" w="0.44" x="-1344.5" y="-514.78"/></view></views></metadata><g class="" id="mylayer"><path d="M488.605705,999.000000L601.169715,907.490011L602.989159,907.139801L605.226261,905.668919L611.932775,900.380747L612.813240,899.645306L627.392515,887.037748L632.252871,882.870250L646.843294,870.332739L648.475861,868.896879L651.774285,866.235285L661.262249,858.215483L672.725307,848.479655L676.457809,845.082622L689.514385,833.945959L698.961556,825.856121L700.266253,824.980598L701.236013,824.245158L707.866205,819.132101L710.088713,817.381054L711.136662,816.575573L736.325321,796.543604L752.721356,782.815406L790.710750,751.156519L795.390921,746.883971L797.522953,744.467531L799.266342,741.946028L800.487973,738.478962L877.943798,689.274666L965.412454,606.415458L551.551488,0.000000L509.077428,32.148641L502.894590,36.806344L457.173933,69.970601L450.181755,74.873450L442.585794,79.250994L434.831698,83.663559L419.262999,91.823303L403.473929,99.247621L402.331311,99.737906L402.016760,99.913008L401.080727,100.298232L400.755107,100.403293L398.095803,101.558965L390.056649,104.920921L387.376931,106.041573L371.454034,111.960017L366.517114,113.956178L351.980518,117.913482L346.699834,137.034615L34.587546,394.260172L53.405490,414.081835L54.301917,417.303731L54.905545,419.615092L77.572554,445.425295L85.580289,454.565682L92.148492,458.838201L104.983866,467.173116L107.338996,466.822909L108.012387,466.752868L158.904951,547.755716L408.062420,879.753383L407.882499,883.220460L408.987898,884.656321L413.913368,892.641107L415.646762,894.847430L419.449230,900.345726L421.747576,903.112386L423.734945,906.264276L425.990168,909.416167L428.598998,912.357931L430.588150,915.614886L435.480234,921.603479L444.231917,931.759576L455.856371,945.207652L458.797437,949.024946L461.322358,952.281903L465.132085,958.200459L470.265740,966.745596L470.948761,968.426607L472.516064,971.368375L473.130729,972.524070L475.625442,976.341366L488.605705,999.000000Z " data-aland="4738011" data-awater="76775" data-classfp="U1" data-funcstat="S" data-geoid="4835954" data-intptlat="+30.6876087" data-intptlon="-094.7462287" data-lsad="57" data-mtfcc="G4210" data-name="Indian Springs" data-namelsad="Indian Springs CDP" data-pcicbsa="N" data-pcinecta="N" data-placefp="35954" data-placens="02586941" data-statefp="48"/></g><g fill="#000" font-family="Arial" font-size="12px" id="mylayer-label" stroke="none"><text text-anchor="middle" y="487.757842053"><tspan dy="0" x="508.121757776"><![CDATA[Indian Springs]]></tspan></text></g></svg>