<?xml version="1.0" encoding="utf-8"?><!DOCTYPE svg  PUBLIC '-//W3C//DTD SVG 1.1//EN'  'http://www.w3.org/Graphics/SVG/1.1/DTD/svg11.dtd'><svg enable_background="new 0 0 1000 1001" height="1001px" pretty_print="False" style="stroke-linejoin: round; stroke:#000; fill: none;" version="1.1" viewBox="0 0 1000 1001" width="1000px" xmlns="http://www.w3.org/2000/svg" xmlns:xlink="http://www.w3.org/1999/xlink"><defs><style type="text/css"><![CDATA[path { fill-rule: evenodd; }]]></style></defs><metadata><views><view h="1001" padding="0" w="1000"><proj flip="auto" id="robinson" lon0="-99.2375561591"/><bbox h="0.37" w="0.5" x="-1411.1" y="-504.56"/></view></views></metadata><g class="" id="mylayer"><path d="M1000.000000,693.462760L942.071673,689.666643L917.097308,679.743463L911.045608,677.812107L792.271017,679.576967L774.631794,680.908937L777.990901,668.654816L781.256441,657.799272L782.150521,654.902241L785.173818,644.945784L802.581073,644.579493L803.868641,640.117404L805.060067,638.219352L806.837653,634.356649L810.139351,630.094358L813.513154,626.930939L821.481689,620.803899L835.036453,611.713239L813.817662,572.620134L784.532739,593.931526L776.034858,600.025257L772.986359,602.822380L757.945477,578.014578L747.747387,578.014578L754.764426,559.233931L762.316241,539.520937L784.067485,520.307450L795.526217,487.574648L792.615052,480.615190L794.686204,474.088620L798.347179,462.400738L824.822043,437.226868L831.876190,430.500523L837.373887,425.239325L834.907055,423.041609L819.311907,406.392261L807.053803,407.624312L760.788489,412.585816L788.672604,321.680644L710.914810,322.413211L706.844585,321.014674L681.095514,316.286287L675.776126,314.687960L671.479069,307.828472L673.268729,294.575685L686.421324,257.048378L701.354357,214.393224L712.686915,185.823324L704.857636,185.024166L624.349992,156.787300L611.141657,150.727036L558.365317,126.486001L518.408640,147.963289L511.902054,154.756112L506.195664,159.317960L492.853400,179.163681L492.075996,182.360309L483.526959,216.990490L481.803720,222.118427L478.402190,232.207814L445.273999,232.574095L417.959385,301.701554L415.139203,309.426799L396.152391,361.339211L354.576797,364.036396L352.180717,364.202889L349.765289,364.336084L361.304023,389.509839L359.688997,395.603492L355.936780,409.622233L348.429777,427.270547L348.653074,429.068678L347.593598,434.363176L347.511602,437.293465L347.771574,439.690975L350.745708,453.243572L338.198123,522.471880L333.038829,532.361662L328.461910,541.352379L324.249774,544.682276L320.256440,551.508566L314.452739,557.169394L307.459687,560.832283L296.352515,561.997749L295.475743,562.097646L290.638824,563.962390L280.620642,570.755389L277.272331,575.084263L273.379217,576.915709L271.127537,577.281999L267.413774,577.082205L263.871976,576.349626L262.597215,576.349626L260.659935,576.915709L258.793872,577.848082L254.631634,582.043762L250.476585,588.104189L245.371379,597.794218L240.542934,609.715293L237.536531,621.603078L236.637695,626.198358L236.288065,630.227554L236.473890,642.148653L236.124292,646.177854L236.535945,649.274678L237.800249,652.571298L239.405652,654.602549L241.575320,659.164539L242.570113,662.094870L243.378073,667.189651L243.511567,667.955533L245.842789,675.281364L249.847084,684.072366L223.914064,683.173286L207.862551,684.605154L203.168458,685.204541L191.922379,686.569811L183.451905,688.567767L172.680358,692.796775L165.270910,697.059083L161.823627,674.115891L159.106409,652.038511L159.395066,642.981133L159.021254,634.489846L156.060485,629.395076L154.999546,627.130734L155.233487,620.903796L157.421459,601.124127L155.949124,581.577575L154.128682,572.253845L150.670339,559.233931L146.475566,546.214028L142.375602,539.987122L134.906806,534.592692L126.517902,530.929808L116.431496,528.099398L106.399246,527.799708L89.341190,529.497954L84.220173,530.630117L71.360485,535.458464L68.348887,536.857020L62.888315,548.178668L41.334060,609.315704L32.741030,638.352548L25.624755,662.228067L22.675076,674.115891L0.260247,759.795064L0.000000,764.123989L12.991864,764.690080L22.205359,763.824294L30.588350,762.991809L47.953141,760.261256L54.835270,758.796082L60.758993,756.997913L82.337665,750.404631L95.896011,744.244243L117.237922,732.223169L134.604348,724.231325L159.604039,708.414144L164.511309,706.183090L168.366630,738.649947L169.598954,749.738643L170.755879,760.161358L171.402533,765.855560L206.150306,761.693131L228.810536,759.495369L239.032052,758.463087L248.196437,757.464105L286.726781,755.033248L295.862292,754.666954L322.054498,757.863698L331.110983,759.262273L333.096256,760.094759L333.733450,771.816159L335.217951,775.978590L336.392618,776.244986L339.515289,772.015956L345.371480,760.061460L353.655730,759.595268L372.548912,760.128058L371.382651,765.822260L370.274122,770.251085L368.147356,778.143055L372.399984,777.710162L377.145107,776.711178L380.860019,775.645596L383.881322,774.946307L387.939872,774.813109L390.935134,774.946307L393.366640,775.279302L398.644199,775.878692L402.987799,777.210670L418.531765,781.972493L423.268635,783.737365L426.166080,784.969445L429.278886,785.402338L440.875141,786.101627L442.303361,786.268124L468.717700,782.438685L494.416248,778.742445L495.704233,779.008841L499.074814,779.641530L505.117255,780.240921L508.867382,781.672798L523.677175,787.267109L529.271491,788.898783L545.134740,793.527412L560.116613,796.590965L562.498529,797.423452L605.438554,807.013711L619.545440,813.640316L590.486473,811.409248L596.221420,839.014580L633.379912,850.403043L636.601834,850.536241L654.618361,855.164888L674.622240,856.097277L739.162243,860.592727L747.775574,866.686560L755.321892,868.118445L756.084880,868.651240L759.358272,869.750128L767.619427,870.316222L782.250792,871.947905L785.129474,872.513999L799.529956,861.858113L805.725478,857.262764L808.725506,855.064989L811.706178,852.833915L849.168888,825.028760L853.313998,817.003569L862.308505,810.010668L875.104335,800.054113L929.563616,750.804224L983.984797,710.844994L998.618676,697.958164L1000.000000,693.462760Z " data-aland="3647481" data-awater="84795" data-classfp="C1" data-funcstat="A" data-geoid="4836032" data-intptlat="+30.0770519" data-intptlon="-099.2375094" data-lsad="25" data-mtfcc="G4110" data-name="Ingram" data-namelsad="Ingram city" data-pcicbsa="N" data-pcinecta="N" data-placefp="36032" data-placens="02410107" data-statefp="48"/></g><g fill="#000" font-family="Arial" font-size="12px" id="mylayer-label" stroke="none"><text text-anchor="middle" y="552.652525518"><tspan dy="0" x="533.746128428"><![CDATA[Ingram]]></tspan></text></g></svg>