<?xml version="1.0" encoding="utf-8"?><!DOCTYPE svg  PUBLIC '-//W3C//DTD SVG 1.1//EN'  'http://www.w3.org/Graphics/SVG/1.1/DTD/svg11.dtd'><svg enable_background="new 0 0 1000 1001" height="1001px" pretty_print="False" style="stroke-linejoin: round; stroke:#000; fill: none;" version="1.1" viewBox="0 0 1000 1001" width="1000px" xmlns="http://www.w3.org/2000/svg" xmlns:xlink="http://www.w3.org/1999/xlink"><defs><style type="text/css"><![CDATA[path { fill-rule: evenodd; }]]></style></defs><metadata><views><view h="1001" padding="0" w="1000"><proj flip="auto" id="robinson" lon0="-121.592152622"/><bbox h="0.3" w="0.29" x="-1609.32" y="-761.89"/></view></views></metadata><g class="" id="mylayer"><path d="M428.816909,999.000000L434.950908,998.892314L443.410888,998.838471L468.875493,998.461569L477.355971,998.300040L486.764359,983.170123L488.242860,980.908710L521.646164,928.734542L532.783665,911.289248L533.661514,909.889316L549.232002,885.444314L587.311519,825.569961L598.085724,807.855269L607.457165,792.348157L613.649566,781.956225L620.483687,770.487396L641.082438,735.919299L647.905066,724.396573L661.188522,702.104908L701.016227,635.121927L714.288435,612.776219L717.497092,607.391704L723.345788,597.430343L741.735168,565.984686L750.506507,551.338730L759.727103,535.938916L798.266870,471.485590L801.507742,466.047154L834.069251,410.747243L881.590016,330.785300L904.326057,293.146429L919.968911,266.384515L926.013351,256.315124L967.960340,186.367585L954.118891,186.367585L912.507216,186.367585L898.622103,186.367585L893.819077,186.367585L879.322670,186.367585L874.475980,186.367585L871.550500,186.367585L862.730397,186.367585L859.761253,186.367585L881.936278,149.158959L895.467310,126.381397L938.310005,54.494430L948.593735,37.532262L971.063758,0.269242L969.317239,0.269242L964.173962,0.107697L962.447966,0.000000L959.912638,4.254022L957.853046,5.438686L953.250274,10.231190L952.158698,10.231190L948.611271,13.839028L942.096467,24.770232L939.864841,26.170286L925.475184,42.109358L923.492875,44.263284L921.310589,47.924959L915.497928,51.963568L905.594464,58.909973L890.137695,69.679584L875.878822,79.318376L865.917497,85.995523L860.293871,85.833979L856.079044,85.726283L854.626581,85.672435L826.464790,84.864716L816.614768,84.541628L801.638229,84.541628L756.816463,84.433932L741.828355,84.380085L737.145902,83.518517L728.480031,83.626213L686.644183,84.003149L672.727137,84.056997L664.302721,84.272389L638.962670,84.810868L630.558777,84.918564L633.710302,79.264528L635.878495,75.333625L644.146028,62.194706L647.722638,56.486809L646.482886,54.171341L642.708408,47.171085L641.457095,44.801766L623.218639,62.948579L586.223070,99.672890L585.608058,100.265217L569.085232,117.658062L551.419738,136.235526L550.906241,137.097088L549.246332,139.735624L548.721265,140.543339L543.682451,142.697244L528.467103,149.105111L523.416714,151.205168L518.603793,158.474590L504.206122,180.067436L499.381662,187.282991L490.552606,187.444533L469.608131,187.713770L464.182239,187.659923L455.469985,187.552228L444.294649,187.767617L436.327299,187.875312L411.183238,187.498380L401.062171,187.336838L400.145230,187.336838L399.463819,189.652276L401.276075,190.567682L407.131580,193.636982L405.892326,199.452496L404.805695,204.352603L405.080255,214.368197L401.359798,225.299185L403.541242,228.745405L402.803097,229.983890L400.573815,236.068619L401.845094,240.968708L402.378243,247.107277L382.815603,284.692472L383.474731,285.930950L378.866970,296.592626L356.254854,340.100764L333.310961,399.331839L277.716530,493.346998L268.184987,503.039233L263.507927,524.954418L246.018428,561.407827L247.371765,568.515419L240.386296,583.753648L237.919640,589.138176L233.587532,596.407284L216.612595,610.676259L200.069044,624.514453L191.612249,629.252818L190.214936,629.252818L186.714339,630.437409L169.024701,638.944922L164.739332,643.790971L160.576429,646.160150L159.132403,648.583173L149.071127,656.013772L141.282122,664.467419L129.933004,672.813370L121.363687,679.059366L111.381051,691.120591L105.937471,700.328034L126.085548,700.004966L155.587165,699.520364L186.591303,698.712694L206.812483,698.120402L205.978181,699.520364L203.559965,703.504869L202.714087,704.850985L196.605706,715.027618L186.162781,732.257873L178.280669,745.557456L172.248112,755.680204L154.803879,785.025346L102.568302,872.898728L85.113063,902.189685L73.958499,920.981082L70.621502,926.580803L40.189488,977.355060L28.936242,996.092474L76.205354,995.984787L86.543051,995.930944L184.255585,997.277021L212.715440,997.223178L217.082225,997.223178L264.532264,996.738591L268.756462,996.684747L275.393975,996.684747L307.882854,996.684747L317.652868,996.630904L318.744564,996.630904L341.960695,997.169335L411.585934,998.676942L428.816909,999.000000Z " data-aland="1621480" data-awater="0" data-classfp="U1" data-funcstat="S" data-geoid="4156500" data-intptlat="+45.5130424" data-intptlon="-121.5920764" data-lsad="57" data-mtfcc="G4210" data-name="Parkdale" data-namelsad="Parkdale CDP" data-pcicbsa="N" data-pcinecta="N" data-placefp="56500" data-placens="02409028" data-statefp="41"/></g><g fill="#000" font-family="Arial" font-size="12px" id="mylayer-label" stroke="none"><text text-anchor="middle" y="534.201393669"><tspan dy="0" x="505.920317149"><![CDATA[Parkdale]]></tspan></text></g></svg>