<?xml version="1.0" encoding="utf-8"?><!DOCTYPE svg  PUBLIC '-//W3C//DTD SVG 1.1//EN'  'http://www.w3.org/Graphics/SVG/1.1/DTD/svg11.dtd'><svg enable_background="new 0 0 1000 1001" height="1001px" pretty_print="False" style="stroke-linejoin: round; stroke:#000; fill: none;" version="1.1" viewBox="0 0 1000 1001" width="1000px" xmlns="http://www.w3.org/2000/svg" xmlns:xlink="http://www.w3.org/1999/xlink"><defs><style type="text/css"><![CDATA[path { fill-rule: evenodd; }]]></style></defs><metadata><views><view h="1001" padding="0" w="1000"><proj flip="auto" id="robinson" lon0="-124.399965376"/><bbox h="0.27" w="0.22" x="-1677.75" y="-709.46"/></view></views></metadata><g class="" id="mylayer"><path d="M755.283881,0.000000L715.938529,1.371613L679.630187,3.399215L639.683177,9.422388L623.904897,12.583064L616.519658,14.491397L598.862165,19.023690L582.409717,17.771346L561.651380,16.519002L538.340868,22.959630L519.350320,32.382039L488.320074,49.557084L476.806359,52.359959L468.696182,85.159613L462.698276,109.312152L456.991547,130.125126L446.222182,164.535206L437.857047,186.183201L428.407284,207.652332L417.834430,229.181144L406.138479,250.769638L393.566897,272.417814L381.874869,291.680554L375.874276,301.580305L275.143462,467.491999L252.403206,504.646566L235.747127,531.841647L223.829928,552.357283L210.577081,575.019951L187.155035,618.258075L176.100763,640.026302L165.754712,661.854216L156.109878,683.324340L147.039927,704.913788L136.168282,732.467237L130.526808,747.675342L115.430448,790.556355L100.815571,832.602585L93.751896,852.343498L98.063259,851.389254L105.127244,850.554290L111.440663,850.077168L117.722710,850.256089L122.987506,850.912132L126.060368,850.733211L129.255483,850.256089L132.175799,850.256089L138.901413,849.063284L151.536357,847.751198L155.104187,847.572277L161.890387,846.618033L165.093610,845.783070L172.329336,844.649905L182.593553,842.383577L196.131596,840.534730L209.572788,837.135238L225.280572,835.644234L228.727220,834.988192L232.349670,833.855028L235.394379,832.006183L238.161309,830.038058L252.253716,818.288955L255.353058,815.485872L257.652341,813.040629L260.918300,810.893588L264.126650,809.104387L267.091573,807.136266L270.128174,805.645266L276.697422,801.887946L283.702948,799.263787L285.846450,799.323427L286.638396,799.323427L290.273574,802.722906L291.610807,804.869946L293.162253,806.301306L295.255183,807.136266L302.517124,806.301306L305.334379,806.480226L309.005244,806.122386L311.719450,806.480226L314.010369,807.315186L315.355722,809.104387L320.242416,813.338830L322.259383,816.797953L320.352037,819.422117L312.732755,817.096154L306.725522,816.440113L297.420138,816.440113L291.157073,819.064276L288.602208,821.867361L289.128309,824.133685L290.663549,826.280729L292.283707,827.592812L293.534134,829.203096L294.335036,830.992300L294.628809,833.318267L295.524655,835.286393L296.645583,839.699767L296.695934,841.846815L297.325101,843.934222L297.352202,846.379472L297.843978,848.705442L299.841790,852.283858L301.603027,859.023212L301.782685,861.289544L301.413644,866.657176L301.765755,873.694741L300.817923,879.122019L300.203060,891.706159L300.280603,896.298480L299.660096,901.845051L298.994291,904.290315L298.640620,906.795219L296.836251,912.162875L294.160933,922.480709L287.707349,942.281437L285.057539,947.828033L283.934156,950.810076L282.045073,954.090323L279.440734,959.815849L277.979844,967.509529L273.846044,978.125624L271.497323,983.493316L267.993992,989.576705L265.470538,994.646198L263.761314,997.270407L263.203688,998.582512L275.091190,998.224665L292.797227,994.467275L325.583032,977.588854L356.480759,966.137787L366.560061,965.481736L374.110899,967.927015L391.708562,982.837265L398.543233,985.580753L451.895477,999.000000L461.808113,994.765480L480.640409,979.855213L490.489410,974.785727L506.774079,971.863319L532.714152,928.623702L546.013759,928.564061L561.539720,929.279750L577.294995,929.339390L592.398721,929.756875L641.802563,890.811552L651.004357,874.231505L674.612753,861.170264L681.112364,849.540406L710.074647,833.198986L715.697377,825.326487L727.664841,816.320833L751.300344,808.627266L760.361619,800.456586L762.615350,797.832428L764.324619,795.208270L767.355287,789.602116L769.772663,787.037600L775.692294,782.087490L781.653326,777.495221L792.321630,771.948717L799.931200,767.416092L853.569331,544.007891L729.217831,602.215218L733.398723,593.925425L742.873126,574.125371L747.167105,566.670541L751.119811,558.261499L750.993581,550.747042L747.188027,546.870539L740.380224,544.425361L736.868291,542.874760L730.387755,540.548860L731.106215,538.700067L730.435862,536.254891L727.707729,535.062122L724.521249,532.259116L723.636652,530.529602L723.814053,526.354915L724.868364,521.345292L723.680928,518.423013L846.964078,433.975474L871.462059,422.465376L906.248104,259.238065L887.107034,48.662550L884.428398,45.322956L873.521305,31.010422L858.735901,16.041918L839.227294,4.890099L820.598432,2.862497L799.855234,1.669790L755.283881,0.000000Z " data-aland="1525997" data-awater="167" data-classfp="U1" data-funcstat="S" data-geoid="4158050" data-intptlat="+42.2878532" data-intptlon="-124.3987751" data-lsad="57" data-mtfcc="G4210" data-name="Pistol River" data-namelsad="Pistol River CDP" data-pcicbsa="N" data-pcinecta="N" data-placefp="58050" data-placens="02611773" data-statefp="41"/></g><g fill="#000" font-family="Arial" font-size="12px" id="mylayer-label" stroke="none"><text text-anchor="middle" y="493.96261039"><tspan dy="0" x="550.907111828"><![CDATA[Pistol River]]></tspan></text></g></svg>