<?xml version="1.0" encoding="utf-8"?><!DOCTYPE svg  PUBLIC '-//W3C//DTD SVG 1.1//EN'  'http://www.w3.org/Graphics/SVG/1.1/DTD/svg11.dtd'><svg enable_background="new 0 0 1000 1001" height="1001px" pretty_print="False" style="stroke-linejoin: round; stroke:#000; fill: none;" version="1.1" viewBox="0 0 1000 1001" width="1000px" xmlns="http://www.w3.org/2000/svg" xmlns:xlink="http://www.w3.org/1999/xlink"><defs><style type="text/css"><![CDATA[path { fill-rule: evenodd; }]]></style></defs><metadata><views><view h="1001" padding="0" w="1000"><proj flip="auto" id="robinson" lon0="-83.4532450842"/><bbox h="0.16" w="0.29" x="-1156.48" y="-618.16"/></view></views></metadata><g class="" id="mylayer"><path d="M1000.000000,287.760046L997.461552,285.627247L994.988670,283.435205L997.391215,275.318722L998.017582,266.550552L996.636816,256.775228L997.034208,253.161320L995.067181,244.393151L995.502635,241.786398L994.879897,240.483022L994.927602,233.669919L994.265206,232.662764L994.595442,230.411478L993.814315,226.560594L985.618498,227.153037L972.536112,228.515658L961.256611,230.115256L946.033532,232.544276L932.517283,235.210272L918.847777,238.231736L905.151557,241.667910L877.587506,249.606657L835.783526,262.818155L700.846390,308.021633L616.673873,335.214821L581.534064,347.004462L506.441670,371.590902L493.756862,376.152724L402.349925,406.367394L374.461509,415.076329L367.931966,416.853663L354.920906,420.408331L344.692452,422.837354L336.744211,424.377710L334.460217,424.792421L324.494827,426.332777L314.940365,427.458422L305.556694,428.169356L286.864897,428.524823L277.268608,428.169356L267.428406,427.339933L255.654974,425.740333L247.304433,424.259221L237.103769,421.889443L226.855896,418.867975L216.578355,415.135574L206.397693,410.751484L196.445045,405.597216L194.363969,404.353082L186.781392,399.791259L179.483218,394.755481L177.502793,393.333614L159.921610,378.581746L116.673771,338.591753L107.864329,330.712244L98.727077,323.128959L93.636637,319.396560L90.846900,322.655003L83.594840,329.468112L80.784641,331.660155L73.827007,336.992153L54.762000,349.314994L33.413873,368.213969L17.304875,383.854502L4.540721,402.634993L4.561200,403.701393L3.023502,404.353082L2.924143,406.959838L0.000000,412.943529L1.733215,416.498196L40.628725,421.711709L46.725549,434.212292L60.716586,436.108115L67.697650,450.326789L80.173963,451.985634L94.166809,480.482231L101.919741,481.548632L129.039554,536.764510L152.952088,598.438066L161.687748,621.010240L158.469495,632.207461L161.472019,644.293352L154.571260,671.664343L155.363054,685.053618L150.690907,711.061993L155.571188,741.632207L158.952968,747.082711L169.146396,763.434224L211.339848,772.439406L219.587776,768.588506L228.006486,768.055304L234.739606,763.967426L247.168324,765.626275L260.091783,762.367821L263.138927,762.782533L274.083336,764.263649L285.290697,757.391273L293.910687,760.235015L314.806140,761.360663L332.681016,750.459654L337.801771,751.170589L340.434191,751.526057L389.602085,721.548286L407.275676,707.270339L412.227139,699.627787L438.269097,679.306894L439.527742,678.299736L462.695686,651.461944L471.683917,634.399510L480.365817,610.583198L496.596449,557.855559L497.337038,544.644031L512.332679,510.045235L517.452244,479.119608L547.396539,409.922061L587.603592,385.394858L597.632900,385.098635L637.362415,365.429480L664.553180,355.831882L690.618338,352.632682L750.561660,362.348770L764.846621,355.950371L793.895608,351.270061L798.494047,350.499883L802.950793,347.774639L817.607406,348.070861L842.587215,339.776641L852.568460,339.480419L876.033505,330.949222L884.434436,330.475267L901.661342,321.114648L906.319159,321.766337L925.774425,311.043098L932.660604,310.332165L957.439269,298.661016L965.192119,299.727416L981.705373,291.966398L987.943481,292.795820L1000.000000,287.760046Z "/></g><g fill="#000" font-family="Arial" font-size="12px" id="mylayer-label" stroke="none"><text text-anchor="middle" y="498.791793195"><tspan dy="0" x="380.573886802"><![CDATA[N]]></tspan></text></g></svg>