<?xml version="1.0" encoding="utf-8"?><!DOCTYPE svg  PUBLIC '-//W3C//DTD SVG 1.1//EN'  'http://www.w3.org/Graphics/SVG/1.1/DTD/svg11.dtd'><svg enable_background="new 0 0 1000 1001" height="1001px" pretty_print="False" style="stroke-linejoin: round; stroke:#000; fill: none;" version="1.1" viewBox="0 0 1000 1001" width="1000px" xmlns="http://www.w3.org/2000/svg" xmlns:xlink="http://www.w3.org/1999/xlink"><defs><style type="text/css"><![CDATA[path { fill-rule: evenodd; }]]></style></defs><metadata><views><view h="1001" padding="0" w="1000"><proj flip="auto" id="robinson" lon0="-84.1056111145"/><bbox h="1.11" w="1.67" x="-1165.67" y="-620.43"/></view></views></metadata><g class="" id="mylayer"><path d="M1000.000000,167.834982L985.160764,169.557542L976.623310,170.572622L964.442915,172.377209L945.879436,173.802422L945.372985,173.884449L934.813934,176.017143L924.130252,178.149838L923.745344,178.242118L909.299055,181.369388L898.310687,183.409804L897.133780,183.594364L890.917004,184.794006L874.012992,187.777731L867.780910,189.305481L860.554346,191.961100L852.545245,194.483426L832.245464,201.117352L821.639566,204.541977L820.885633,202.234969L819.409276,197.959316L815.959457,194.114305L814.808914,192.853142L808.372467,195.478002L809.601189,196.810939L812.978404,200.676457L810.216812,200.881525L809.935898,202.040155L806.307369,201.783821L804.047585,201.783821L803.549103,201.783821L803.279004,202.019648L802.560175,203.003972L802.407303,203.209039L798.123046,206.192770L797.737297,206.592652L796.707084,207.617989L797.052113,207.935844L797.808967,208.653580L798.315587,209.125235L798.946246,209.709678L799.394370,211.124644L799.638871,211.750100L801.652173,210.632481L803.816929,209.730184L808.274457,209.022701L813.549659,208.663833L810.519123,209.904492L802.188611,213.083039L805.841086,215.143969L811.172898,218.753160L813.454410,221.285747L819.350630,227.806904L820.185879,229.150099L823.273105,234.676682L823.825466,235.661009L824.913578,237.629663L823.420071,238.870325L821.842664,240.418590L820.741949,241.208102L818.947676,240.264788L811.518188,242.571806L811.512282,242.397498L811.109153,234.984284L808.437922,232.144092L807.895553,231.569901L807.411276,231.744209L797.704162,233.251459L793.719438,234.543388L793.108132,234.892003L793.132168,235.948104L793.158359,239.823892L793.186770,244.745529L793.195828,246.960267L793.062120,248.293211L792.604592,248.405999L792.044628,248.611067L791.973291,245.135159L791.863959,240.234028L791.751922,235.425180L791.734459,234.707442L791.562984,230.595828L791.361784,225.807492L790.939629,215.687398L783.928131,213.247093L776.670898,211.155404L773.774225,210.314627L767.173735,209.607144L764.976342,209.371316L759.270385,208.756114L759.706322,220.547503L759.933337,226.607257L760.089282,231.518634L760.493233,233.302726L760.330895,233.733369L764.414259,232.943857L763.510516,240.808219L762.905468,246.263035L762.598972,249.031457L764.556299,248.959684L764.164538,250.682258L763.536201,253.471189L761.297062,253.707018L760.182128,260.669095L759.712688,263.704111L754.601000,264.708948L754.259072,267.180026L753.546276,275.434047L753.062132,280.181394L752.912286,281.873214L751.999724,282.201325L747.672279,283.749596L742.146140,285.749020L738.327895,287.122984L732.732209,289.132662L732.758001,287.328053L732.773769,285.861808L726.034733,287.389574L725.170430,287.584389L725.454738,285.000518L722.198613,286.189919L721.686333,286.374481L721.769689,285.431163L721.832206,284.723675L722.966810,270.932785L724.066481,270.645689L736.794573,266.544313L735.009764,256.229360L734.387352,254.619572L734.122801,253.922339L731.738561,247.852314L729.576208,240.654418L729.291570,240.633911L729.201259,240.131494L727.820691,240.551884L722.559628,242.110402L722.425703,242.889662L718.544540,243.863736L710.572428,246.068220L710.626349,246.304048L709.872547,246.601398L709.093822,246.898747L709.696839,248.600814L710.231073,250.754032L710.409876,251.820388L710.532685,252.907251L710.599831,254.096648L710.453565,256.690764L710.567358,259.387416L710.280449,261.868746L710.257106,262.002041L709.615021,264.227036L710.824952,264.237290L709.726957,267.733712L710.604560,267.743965L709.527183,271.199375L708.535598,273.537160L708.043962,274.706052L707.138783,276.838770L706.731386,277.782087L706.105574,278.899713L705.975042,278.725404L704.858754,277.238654L704.211669,276.459392L699.632936,271.168614L696.325633,267.456869L690.688168,260.238451L689.640416,260.269211L683.308229,261.991788L681.454417,262.494206L675.892977,264.001461L669.798312,265.652264L662.872568,267.497883L653.948684,269.856174L652.700788,270.471380L649.722685,270.317579L649.547782,268.933364L647.982993,267.723458L646.201285,267.569657L641.799651,268.256637L636.496915,271.589005L624.828659,279.443146L624.325259,279.514920L623.118147,279.689229L621.541482,279.904551L619.426604,280.058353L610.615977,280.653053L606.171448,281.011924L598.466315,280.191648L589.520593,278.715151L584.062196,280.294182L571.772017,286.425749L565.621024,289.317224L562.897715,289.255703L561.494937,287.533122L561.481750,283.503513L562.709611,278.438308L565.624185,272.624603L568.604269,266.564820L569.151500,262.412178L569.347104,257.326477L570.685805,251.892162L575.001401,242.930675L578.998945,234.143505L580.074319,231.139258L581.572845,226.945619L580.056369,227.929945L579.082934,228.627176L563.853934,238.767791L548.722485,248.887910L544.842560,251.492278L534.901580,257.685347L525.565463,263.468282L524.976302,263.909180L522.456896,265.744545L521.279818,266.677607L518.295442,265.990627L501.232819,261.161260L484.219946,256.803552L478.422009,255.275792L469.044901,252.855983L462.380725,251.030874L458.943710,250.108066L455.774721,249.205766L455.607316,249.154498L451.541476,247.308883L447.436859,245.370988L447.985043,244.540461L452.697030,237.998785L455.840343,233.169432L459.616332,228.391348L465.567832,219.850272L472.208125,211.893647L487.847625,193.129983L488.687824,192.073887L486.593109,190.720444L485.954878,190.300056L483.516727,186.075675L483.438211,185.645034L483.230664,184.342859L482.374973,179.246946L481.545855,180.487600L480.508151,182.035856L467.782692,201.137859L462.931122,207.894830L456.811544,216.774256L454.254128,220.342435L449.589068,226.699537L439.870540,240.182761L438.857490,239.793132L431.162269,236.142919L435.131313,230.001131L436.145466,227.755637L438.605938,224.095175L439.052248,222.967302L439.280113,222.013737L440.238646,220.147620L440.538934,219.922046L441.482454,218.466065L442.591138,216.487162L443.381642,214.405725L443.731779,214.180151L446.369077,211.647566L447.876994,210.581215L450.179052,209.166249L450.664556,208.766367L450.936846,208.551046L454.120157,207.023293L455.710555,206.069730L457.281938,205.567314L459.384564,203.875508L460.252763,202.809158L453.841783,200.861018L446.507356,198.584771L442.136252,197.231327L433.891024,194.667986L433.408936,195.416482L429.766923,200.522657L428.865191,201.783821L426.624264,205.044392L424.288563,208.233191L420.634863,212.990759L417.033504,217.850862L414.704905,220.988398L410.917163,226.248388L406.989443,231.559648L406.467674,232.246626L404.680249,234.604908L401.797056,238.788298L401.548177,239.147167L399.898757,238.552469L396.861903,247.513952L392.972569,248.293211L387.309499,246.703932L382.807733,241.187595L379.844495,243.228024L377.307686,244.899331L376.105288,245.750364L373.595883,247.524205L372.392246,248.323972L384.049901,257.377744L380.367878,262.812062L372.436946,274.490730L375.829315,273.567920L378.244434,272.911700L380.142660,272.593843L380.409767,272.645110L382.314735,272.193958L382.951398,272.204212L385.196413,271.865848L388.977487,271.281402L397.535974,269.948455L398.607093,269.784400L401.064777,269.651105L404.246196,269.487050L406.788620,255.829477L409.499279,268.482213L412.029218,278.192225L412.126617,278.920220L412.369839,279.494413L412.909722,281.545103L411.840083,284.169988L410.932825,286.364228L404.303423,296.945803L395.927360,309.362762L380.843559,333.427715L369.516516,351.033003L368.884574,352.447990L368.728042,352.776103L363.806447,360.240674L358.112915,369.920015L357.336342,371.263230L352.647116,379.394295L350.570435,379.004660L347.631144,378.471475L346.285510,379.578859L346.024625,379.783930L345.136454,380.501679L347.195644,381.947431L348.656322,384.336510L349.895323,384.582595L345.707652,393.175082L343.193493,400.065482L334.378009,413.702746L330.797356,422.100439L329.798612,426.458219L324.116251,437.932005L321.444539,443.325407L320.074719,446.093884L307.505444,469.708000L305.045541,476.280588L304.552519,477.593055L304.382827,477.992947L302.663583,478.905522L298.851753,480.617883L295.085448,482.289228L289.879574,482.719882L289.657393,482.740389L289.313650,482.750643L279.647862,482.924955L274.058390,483.027492L269.458382,483.294087L267.642933,483.806770L263.905022,484.329706L259.431049,485.672935L250.061646,489.405268L245.213315,491.138137L244.312078,491.456001L240.367613,493.250392L229.079537,501.361046L224.362828,504.262836L220.890470,505.452263L220.387032,505.524038L217.737805,505.852156L214.540429,506.733972L212.690383,507.667057L210.108259,509.379422L208.423177,511.009758L207.040515,512.435020L205.124943,514.085863L203.133207,515.408589L202.893842,515.541887L196.934994,518.956365L187.108179,524.575389L184.071217,526.308264L178.335674,529.476657L171.026150,534.265137L162.189302,540.407108L155.703230,545.636502L155.661067,545.000772L154.100372,546.077412L153.221116,546.682381L142.631914,554.013791L139.074054,555.377537L137.073603,555.869715L133.616997,556.618237L124.629934,558.935580L122.030225,559.930192L121.319470,559.612326L119.949419,559.109893L114.991859,557.879446L113.097418,557.407774L103.978332,555.285253L102.861683,555.018656L95.344281,553.152479L85.957743,550.896660L73.554025,547.923081L71.921866,547.574455L71.082286,547.492425L70.332289,547.471917L69.785131,547.523186L69.172754,547.625723L68.405354,547.912827L67.437057,548.343483L64.724314,549.881541L63.664051,550.424988L62.666844,550.896660L70.398223,561.642565L80.490322,562.237281L75.665224,573.403600L72.911824,579.791683L56.925336,580.704267L55.639471,581.196447L46.634973,585.790127L43.282790,586.190024L34.152400,583.882929L29.074815,594.034148L32.561699,595.264599L33.864255,595.520943L36.141738,595.685004L41.105964,596.505305L41.297786,597.889563L41.329907,598.115145L42.742040,600.196660L42.498136,600.483765L42.909913,601.078484L43.917380,600.822140L44.897909,602.042338L45.690874,602.390966L46.238454,601.950054L47.408623,602.093607L47.025211,602.790863L47.769783,602.995938L48.592151,603.662433L49.611349,603.477866L50.886182,603.077969L51.965072,602.278175L53.198006,601.796248L53.535127,601.447619L54.092975,601.222037L55.161328,600.873408L56.308939,600.842647L58.219701,601.232290L60.742376,602.380712L60.911577,602.842132L61.990225,603.929031L62.248110,604.482735L63.221020,604.646795L63.972237,605.190245L64.659407,605.087707L65.210552,604.995424L66.112305,605.036439L70.213759,604.964662L78.657844,604.626288L85.081062,604.626288L78.873801,611.865452L73.177928,617.730614L61.181852,629.009780L56.668711,634.782667L49.362305,645.303068L43.049613,654.531497L41.442827,656.705306L39.790519,658.920131L25.692972,672.721780L21.034300,676.761790L18.873167,678.289611L12.712642,681.406778L9.914901,683.201200L7.108646,685.662121L6.458286,686.584967L3.375589,690.912090L0.885788,695.423783L0.000000,698.797301L1.137428,707.789934L1.316624,714.988147L1.068307,722.975912L1.045594,725.826490L2.399629,728.769353L4.886434,734.173148L8.776722,742.632606L9.245970,744.673130L9.503455,745.811312L10.392963,745.421664L11.054474,748.179962L11.735124,750.569120L17.316537,747.359650L15.377362,742.735144L21.993901,739.177045L26.285567,737.915817L28.783573,737.177537L38.892570,732.501765L43.380015,730.420227L50.919686,727.497872L58.335240,724.462724L66.603349,723.242513L71.449583,721.960779L77.122636,720.443206L77.607640,723.457844L81.431213,734.860159L75.205196,736.531542L78.816328,747.533966L80.385521,752.312283L79.171816,753.368434L62.967593,767.744411L56.965055,773.137969L55.605005,775.598910L57.243947,777.618932L71.840207,781.658977L72.642041,780.951456L73.448960,780.449014L76.035502,782.745893L85.363945,785.340136L86.399858,785.627246L88.878355,786.314259L98.912409,805.345563L100.874738,805.591658L105.295691,806.258164L105.815266,806.299180L108.025608,805.355817L116.372558,801.818207L124.800431,798.260090L133.745011,793.891914L136.831017,788.857234L139.067277,764.176050L139.258196,761.151147L146.271133,741.002237L146.427543,740.674113L146.545104,740.253703L147.190760,738.541304L147.915871,736.480272L148.472338,735.260060L149.598131,724.811356L141.799327,720.412444L137.078916,719.858735L133.078763,719.397311L130.953405,719.140964L125.087674,718.443701L118.546373,721.612147L118.155274,721.724940L117.093492,725.631666L116.952256,726.103344L114.734104,734.121879L111.583434,737.095506L99.884797,734.009086L94.676208,733.004206L89.620642,732.071102L90.821154,717.572122L93.204089,717.356790L93.679018,717.408060L97.369136,717.295267L99.501337,717.223490L103.708057,716.023787L104.258482,715.767441L106.421705,714.731800L108.284871,713.726921L109.644400,712.988643L124.602954,703.606359L124.828758,703.462805L131.394974,699.351009L133.751469,697.864200L135.606498,696.664499L135.631410,696.192822L135.730780,696.582469L141.915111,692.552706L142.174154,692.409152L144.414140,691.117167L153.421755,685.457045L154.065028,685.057145L154.350132,686.574713L154.874640,689.374013L161.411607,686.164560L161.726890,681.837439L161.853481,680.166063L163.399971,679.191949L168.862999,675.767168L170.540152,677.325751L164.890558,692.306613L166.324218,693.290983L171.538446,693.721644L192.415242,698.264100L193.236842,698.489685L190.944013,703.288490L189.955109,705.370023L186.005197,712.178587L166.853886,750.886991L165.823781,752.107205L157.856738,759.705346L144.310483,786.662893L138.121550,798.926596L134.443708,806.494005L130.168955,814.584369L125.787493,813.702529L121.640218,814.953511L116.801627,818.347569L110.137764,819.454996L107.566753,817.188873L106.708358,815.753319L106.092361,815.978906L105.238813,816.276271L105.284044,816.624905L105.465918,817.322174L105.598075,817.824618L105.825988,818.368077L106.173692,818.983315L106.423611,819.342203L106.906074,819.895917L107.538122,820.449630L108.130933,820.829026L108.884709,821.198169L109.515248,821.423756L110.164202,821.587819L110.718296,821.680105L111.514285,821.741628L112.340068,821.731375L113.003612,821.680105L113.729531,821.864676L114.488690,822.049247L115.218102,821.639089L116.091857,821.218677L117.033368,820.849534L117.802018,820.613693L118.064120,820.459884L120.006495,819.301187L124.863492,817.650301L128.066849,818.275792L131.701216,820.459884L132.392857,820.870042L133.231393,821.372486L136.558440,823.361754L139.398297,824.674260L137.903345,827.114703L135.677333,827.360798L135.265992,828.263146L134.911169,829.032193L137.588318,829.749971L152.300150,824.715276L152.476491,823.987245L153.106415,823.853944L153.793234,823.669372L153.944645,822.941341L152.783141,822.684993L146.198573,821.167407L139.279393,820.295821L152.065689,807.673208L165.731160,789.226375L173.477432,772.010039L178.000250,754.680934L190.104991,734.316703L193.706797,724.062823L194.680048,721.284023L197.157913,714.229361L198.581446,710.168830L201.636555,705.349515L204.763935,700.427664L207.763277,701.012133L220.892840,704.037021L233.975867,707.328510L234.594602,707.482318L233.174881,711.224978L232.937940,713.737175L232.276304,716.280134L231.659454,718.618016L230.336697,719.899750L232.407284,721.366054L232.263901,723.427083L232.097662,726.175122L232.046617,729.815248L227.471138,737.187791L226.900111,738.623335L226.663475,741.412393L227.801566,741.330361L231.511533,742.150673L232.740727,742.458289L236.193701,742.499305L237.885270,742.150673L244.394341,738.561811L246.468777,737.433884L248.833162,736.336718L251.357978,735.342091L255.881913,733.332330L259.062619,731.978817L261.028036,731.548154L263.152678,731.640439L266.218579,732.224911L268.626506,732.481258L270.162790,732.706843L271.714864,733.434869L274.873885,735.762500L277.382500,737.597946L279.908374,727.938789L289.470684,727.641426L291.497029,727.590157L295.544478,727.477364L296.244307,727.415841L297.993355,727.374825L306.326161,717.110698L307.799909,714.547230L309.765371,711.840210L309.953211,711.573609L311.019695,709.676645L312.215735,706.569724L313.008259,703.811436L313.335455,702.663004L314.722217,694.172814L315.687423,694.224083L317.001639,694.275352L323.997633,694.777791L339.453838,694.777791L343.641856,693.834437L354.994840,698.130800L360.296930,693.188444L360.310210,688.092282L359.146454,681.570839L359.055111,669.830200L346.725311,675.541583L343.555026,688.184567L342.926453,690.450667L339.872426,690.409651L337.887291,690.378890L326.325487,690.194321L317.773092,690.061021L316.336402,690.030259L316.429561,689.497059L317.314354,685.764660L317.557738,684.452168L317.777833,683.272976L317.948397,681.704139L318.033534,680.309617L318.081300,679.150933L318.050516,678.310119L317.940442,677.623112L317.634169,676.731028L317.369486,676.310621L320.031014,674.998130L324.165616,672.567972L327.480336,670.988882L330.055085,668.856086L331.716506,666.887351L332.909792,666.149076L333.027194,665.923492L334.499939,665.195470L335.534073,664.405926L336.353956,663.554858L337.455967,662.150085L337.926278,660.940134L338.534651,660.406935L345.497550,654.469975L347.392757,652.747334L347.830800,652.449973L347.881758,652.696065L350.193767,654.521244L354.733604,652.819110L360.023829,658.407440L362.054290,658.592009L366.402983,658.971400L370.179511,656.377184L380.087521,656.561753L383.596282,657.720434L384.604288,657.822973L386.329627,657.833226L403.805203,657.915257L413.677726,662.437192L414.227275,662.683283L421.878473,662.467953L429.134671,659.658406L442.522242,662.570491L444.826265,664.672525L449.441291,666.743798L454.898772,668.138318L456.136235,668.445933L457.296059,669.040655L463.054502,670.373653L477.955593,670.312130L482.739450,669.071416L484.979683,670.609491L486.711544,670.681267L499.957805,672.178327L495.073583,679.417533L510.267083,687.846190L524.405616,688.861321L528.105050,693.270475L540.909752,697.853946L544.235965,702.621989L544.658456,703.237220L556.428956,704.057529L557.823214,704.119052L558.367376,702.745035L556.961741,702.693766L556.038076,702.642497L551.181833,702.375896L559.751266,678.269103L558.381579,678.125550L558.630027,677.489812L557.968838,677.366766L558.741375,675.951737L561.929705,676.515698L562.742640,676.659251L565.589806,676.669505L567.405384,677.100166L568.131256,677.284735L571.874784,678.187073L572.424878,678.320373L577.161471,679.458549L582.938484,680.063525L583.935134,680.176317L590.217252,680.842817L596.118920,681.447793L596.924826,681.642616L599.078425,682.165562L600.192309,682.247592L600.301473,682.493685L601.010485,684.872576L601.637064,686.943852L601.896943,687.436036L602.352261,688.635736L602.388812,688.902336L602.506288,689.148428L602.464086,689.456044L602.572463,690.204575L602.757040,693.947229L602.877832,694.459921L603.220816,694.952106L605.399980,700.304617L594.059008,704.518953L580.872323,709.430552L581.717604,710.271369L581.536608,714.680531L580.441091,715.869979L579.448874,716.936382L580.790094,716.536481L582.747651,715.993026L584.212722,717.428568L584.111587,718.238623L584.094454,718.351416L581.998274,722.801596L581.409924,724.267901L583.322856,725.734205L584.713806,725.529127L585.751140,724.339678L585.898419,723.847492L586.362884,722.545250L588.275315,721.458339L590.147466,721.755701L595.162567,717.992530L595.619351,718.382177L595.884617,720.022797L594.439581,723.324544L591.651425,727.949042L589.256902,729.897280L588.290023,731.712216L589.405612,733.260553L589.277149,735.106252L588.912666,735.352345L590.135775,736.346972L590.119290,736.818651L589.249825,737.474899L585.660201,738.418257L584.999254,739.238568L586.141483,742.253212L586.067109,743.668249L586.718756,744.406529L585.590416,749.871855L583.377011,756.741968L582.550266,757.644311L581.707260,757.962182L579.631544,757.900659L578.602864,757.172632L577.345515,754.209254L575.441366,753.963160L573.259820,754.588648L570.933042,755.255152L572.360114,756.762476L573.902998,757.716089L574.614737,758.198022L574.619913,759.736108L573.556764,760.289819L568.352784,760.546166L566.782482,761.489526L565.088105,760.792260L564.266040,760.484643L563.893902,761.089623L563.129045,762.340600L563.169075,762.678979L563.357460,764.299097L562.155303,766.872828L563.592553,766.790797L564.418403,765.919214L565.410753,765.990992L568.974881,768.882595L570.054212,769.774685L570.332902,771.815214L570.624102,773.425079L569.784708,774.286408L564.904291,776.849888L563.528472,778.059850L561.794153,779.023719L561.372282,779.433876L560.382227,781.382121L559.819748,782.151165L559.614718,782.725385L559.691935,784.550584L556.783261,786.273244L555.016741,789.205867L554.059228,790.128721L551.905622,790.077451L547.111592,793.768867L546.524353,795.009593L546.616260,801.008146L547.401884,802.382174L548.934975,803.007664L551.556909,801.715668L554.251960,800.290370L561.972578,795.594067L569.620079,791.031067L573.376425,789.974912L574.075390,796.055494L574.511964,799.818689L581.897197,796.465652L582.290019,801.069670L582.801398,800.915860L582.451974,796.916825L584.755388,796.578445L584.727608,796.199049L584.591169,794.599435L587.326426,793.984199L591.222472,792.599918L590.901462,794.117500L601.834932,794.209786L605.433224,794.209786L605.367027,794.486642L604.648033,795.973463L604.236555,796.598953L603.523236,797.316728L603.055478,797.685870L601.580193,798.506185L599.988673,799.131675L598.549517,799.470055L595.511243,799.931482L594.592952,800.362148L595.186826,800.515957L596.897294,801.520843L597.513211,802.156587L602.755742,799.521325L605.947590,798.157551L611.594247,795.532543L615.605836,793.984199L620.555898,791.882143L622.983599,790.600402L624.118558,789.862119L626.664708,787.934380L628.066982,787.052542L628.652757,786.816702L630.370099,786.437306L630.682424,786.365529L631.738024,785.975880L631.977342,785.842579L633.759313,784.858202L639.552795,781.658977L640.653873,771.199979L641.830888,770.348905L643.947776,768.800564L651.573898,763.253198L653.087276,762.361108L656.607679,759.315698L656.862499,759.602807L657.601650,758.854272L657.714420,758.977319L662.473871,763.540307L662.044433,766.503687L660.897108,774.450471L660.375085,778.029089L660.044852,780.438760L661.419084,780.428506L668.417321,779.146766L668.566216,784.427537L668.614620,790.405577L670.856489,803.192235L671.737162,807.888541L681.236133,811.415899L683.169450,812.092659L688.689535,814.030656L697.408651,815.025289L697.883811,821.967216L702.950484,824.643498L705.838549,828.324670L709.531454,830.037082L711.969784,831.165018L713.372709,830.642066L716.081013,829.616669L725.815579,825.381783L730.378800,823.433531L731.455506,819.916424L733.235894,815.630272L733.602400,814.738178L735.532793,810.534059L743.495535,807.222035L743.246390,802.330904L743.029440,797.860187L742.803812,793.307440L743.364821,790.959289L744.642873,786.519338L756.930936,781.248820L759.972430,779.526161L760.314924,779.464638L772.565274,776.931919L771.919365,788.149712L771.820262,789.564755L778.857728,788.457330L782.419987,787.883110L785.447748,788.262506L788.268647,788.611139L791.055604,788.600885L794.033954,787.144827L794.917624,784.078903L796.425220,778.787879L798.069272,773.568634L799.914379,768.677517L802.062435,763.273706L805.947887,752.589138L809.069551,744.847446L811.140773,742.673621L811.015835,742.396766L809.039170,736.336718L808.344104,731.742978L808.024736,726.421215L808.191180,722.114587L808.197420,720.371428L808.416629,711.860718L807.018531,706.395409L807.578732,704.272860L808.324393,701.391526L810.318517,697.392523L809.527547,694.870075L808.762001,694.429160L810.065166,690.378890L810.848221,690.789044L828.166835,691.229959L830.766009,691.291482L829.832223,688.440913L829.262271,687.846190L828.714182,687.261721L826.245321,687.958982L825.513944,688.153805L820.367705,683.662622L821.835530,682.145054L828.825931,674.834069L834.888008,668.681771L836.983513,665.677400L839.212104,662.478207L839.755798,661.688663L846.110921,662.416684L849.059329,662.755060L855.793250,663.411305L860.433259,663.872727L866.803735,664.549479L876.530701,665.533846L886.931469,638.381750L889.295854,632.229471L892.094557,625.431207L889.156740,621.780859L882.543565,625.831105L878.149951,628.517598L867.653646,633.131805L862.546199,633.316374L855.963472,634.321246L856.457610,631.809066L860.196016,620.899033L860.417213,619.771117L860.867540,617.433254L861.335904,614.951839L862.060759,611.557839L863.788102,603.703448L864.130036,601.950054L865.065032,597.715249L868.414009,582.888316L874.494651,553.439583L875.642926,550.824884L876.248394,549.440631L876.569180,548.035872L880.959629,531.342831L881.515001,529.210061L881.868668,522.893783L887.471025,516.198123L887.994835,514.198654L886.214480,512.096648L887.381428,510.835445L890.688836,507.226149L892.224123,504.262836L892.777350,499.556399L896.532559,493.424705L898.385907,484.237423L898.051112,479.971902L897.871758,477.018850L898.365843,471.123003L895.829334,464.304331L897.139635,459.290303L898.583636,454.440335L902.341877,449.631384L903.872151,449.016167L904.828924,448.124102L917.356801,438.752294L921.309441,434.209945L924.035457,431.072341L933.192339,425.771228L940.507019,419.352475L947.891377,406.320165L949.509127,403.387641L950.092944,401.993154L951.133055,399.491282L950.017174,398.917082L948.571298,398.168571L948.880733,397.440567L950.819725,392.908489L950.914738,392.785446L952.052185,391.401215L954.054369,388.017538L954.215137,387.730438L957.126859,382.613912L963.265810,366.085190L963.552153,365.295668L967.896587,366.269754L969.171595,363.788397L969.367025,363.829411L970.893143,360.814872L967.229835,360.035603L966.443087,361.829972L965.017826,361.512112L965.522045,360.189406L966.455516,357.738811L967.211402,355.770133L967.109533,355.749626L966.578335,355.636837L966.217641,355.565063L967.004090,353.217004L965.545447,352.622300L958.261821,349.700045L951.749964,347.280214L945.370460,345.444833L940.578712,342.830186L919.633888,329.931270L919.492785,330.208114L916.034072,327.942090L907.948004,321.625935L900.950868,314.920151L893.939210,309.178200L894.801337,306.994208L885.846496,297.755827L878.896640,292.085659L871.826999,285.318375L868.635084,282.467914L865.456280,280.017339L858.211368,269.261474L863.394306,264.914016L860.236332,261.202273L859.591578,261.745705L854.364006,266.103415L849.272333,259.889834L846.832751,257.357237L845.516796,256.065305L838.130880,248.775122L836.345308,246.416836L849.834160,234.399840L844.012886,227.960705L840.205146,223.756814L839.372112,224.484804L839.236686,224.382270L834.836926,219.132535L834.267095,220.229648L835.232437,221.388280L838.492637,225.284569L832.559305,230.554815L830.149609,227.673610L829.501605,228.698950L831.700435,231.313566L828.873430,233.815396L827.733090,234.820230L827.536824,234.061478L827.291865,233.077151L825.945120,227.786397L826.758195,226.238135L828.817022,222.280325L835.814087,208.889407L832.886245,208.817634L832.011739,208.797127L820.429811,208.161418L819.931910,208.048631L832.301029,203.813988L853.401870,196.503338L862.402032,193.806704L870.173346,191.550966L873.771044,190.607657L873.935044,190.587150L890.525439,187.347090L897.979192,186.178208L909.081052,183.953231L923.607684,180.918241L934.262128,178.744532L944.697230,176.775891L962.287871,175.658277L935.167163,207.402668L940.681501,208.130658L958.377873,210.458174L967.901602,197.200567L968.316762,197.395381L968.731923,197.590194L969.585007,197.959316L970.016784,198.154129L970.459030,198.369450L970.892968,198.584771L971.329980,198.789838L971.766992,198.994905L972.214473,199.220479L972.665028,199.435800L973.134360,199.671627L973.606765,199.897201L974.054247,200.122776L974.513111,200.338096L975.389298,200.768738L975.812768,200.963552L976.236239,201.158366L976.643094,201.353179L977.437114,201.753061L977.847043,201.937621L978.660753,202.327249L979.078990,202.511810L979.500301,202.686117L979.921611,202.860425L980.342922,203.034732L980.767306,203.198786L981.175074,203.362840L981.574534,203.526894L981.973994,203.690948L982.387910,203.834495L982.796590,203.967789L983.187743,204.131842L983.905407,204.398430L984.461809,204.593244L986.002847,205.577568L987.353276,206.172263L989.956206,201.230139L992.850656,195.703576L995.642776,184.199312L998.465790,172.592529L999.619524,169.270449L1000.000000,167.834982Z M605.399980,700.304617L612.949991,696.623484L610.364026,704.765045L605.399980,700.304617Z M579.115543,788.652155L579.217831,787.226859L580.869593,786.816702L580.771265,788.200982L579.115543,788.652155Z M581.554593,789.749325L581.537582,786.611623L584.117120,786.016895L584.170050,789.062312L581.901945,789.616024L581.554593,789.749325Z M975.073006,184.640206L975.885604,184.506912L976.706511,184.373619L977.513875,184.230072L978.064939,184.137792L977.141627,189.961695L974.209335,190.320563L975.073006,184.640206Z M609.065901,783.566207L607.964891,777.690709L617.083681,773.876252L617.275309,775.291292L616.203866,775.845004L616.624165,778.162390L617.367555,777.649694L617.998451,777.290806L618.591263,780.059365L616.607665,781.023234L614.736950,781.915325L609.423576,784.509568L609.276561,784.612107L609.065901,783.566207Z M365.231716,409.201422L367.365743,404.105392L368.301375,402.813441L370.715813,399.470775L372.915570,399.727114L378.609764,400.383343L378.875724,401.408701L379.246158,402.833948L379.088970,402.998005L376.601558,403.756770L375.989211,403.859306L375.098457,404.197674L374.113064,406.514983L365.231716,409.201422Z M317.468696,472.117606L319.671123,468.539085L319.806327,468.087924L321.449879,463.740381L324.252979,455.773307L325.734880,453.240661L327.612306,450.164573L328.557790,448.257399L329.515144,448.944391L332.384069,457.947077L338.267278,449.128957L341.013637,447.949790L343.960926,453.835371L347.051848,453.835371L348.462203,453.814864L347.875042,455.219611L347.521933,457.700990L348.364652,457.301098L348.342576,457.485663L348.314479,457.967584L348.291397,458.654578L348.122630,462.489437L347.743301,463.422518L346.519849,466.396073L339.725555,467.718793L339.318760,467.800822L321.530603,470.846154L321.188116,470.907676L319.020629,471.430612L317.468696,472.117606Z M361.098790,383.629014L367.371473,372.626952L371.408922,365.367442L374.389527,360.497012L376.339497,357.318416L376.878380,356.518641L379.808448,359.133292L382.351592,361.348055L381.347190,362.342648L378.280146,365.367442L375.998166,367.602714L375.619470,367.951335L376.650441,369.140746L377.919385,370.617256L378.186603,370.945370L380.320694,369.120239L382.015435,367.541193L383.926061,369.233028L387.290764,365.603274L391.177239,368.935675L392.770805,370.299396L403.974774,378.850857L399.572114,380.593961L395.761092,381.998698L394.035010,382.767715L393.537738,382.818983L391.079005,383.731550L392.452592,387.658664L392.653758,389.094162L393.109804,392.395811L392.191493,393.103307L391.899541,393.328885L391.565134,393.585225L388.496399,395.923039L387.463356,396.763831L385.756786,396.220392L384.317760,396.835606L384.722310,398.978603L384.259626,399.357985L383.659445,399.891171L383.184542,398.066035L382.910569,395.348839L381.998330,395.010471L374.932743,392.221500L371.943030,391.052593L366.873113,389.145430L366.912579,387.627903L367.136514,384.746652L364.760327,385.023498L361.098790,383.629014Z M256.755953,599.683972L258.520422,593.183086L259.903542,590.701676L261.731814,587.399967L265.960577,579.330265L266.779438,576.541246L271.300637,563.529251L277.539563,558.874057L280.702599,554.362418L281.827177,555.018656L282.932972,555.654387L283.230847,555.603119L284.184911,556.218342L284.381416,556.505446L286.164200,557.571834L287.368237,560.514654L288.862965,561.017087L290.411684,561.755356L291.191656,561.980938L291.725264,561.919415L293.244371,562.534639L296.469689,564.277774L297.705574,564.728938L300.504216,566.759177L302.164041,567.487193L302.830049,567.538461L305.932790,568.553581L301.946212,569.712254L300.183465,570.881180L299.684160,571.188792L299.189188,571.537419L298.246028,572.244927L297.289321,572.942182L296.797420,573.280555L296.348877,573.557406L295.872690,573.926541L295.410050,574.305930L295.005575,574.685318L293.739612,575.444095L290.228290,579.371280L289.152866,580.714521L288.438887,582.293598L287.987053,583.247197L287.781022,585.072365L286.806247,585.913172L286.260873,586.374591L283.477097,588.732955L281.352768,588.917522L280.520018,588.979045L279.140963,590.004421L278.385138,590.558124L275.475080,593.254862L272.574238,595.920840L271.415543,597.458905L270.827887,598.227937L269.532919,597.335859L268.946399,596.935963L264.823416,594.444298L261.211763,596.792410L256.755953,599.683972Z M302.065100,587.984431L303.032653,586.918040L305.911648,583.770138L309.685945,579.658385L311.634609,577.535859L315.602764,570.224941L315.944932,569.609716L317.154638,570.009612L318.232494,570.183926L318.331301,570.214687L320.159491,570.963210L320.741145,570.963210L324.893187,572.747361L325.867165,573.157510L326.723028,573.157510L327.477535,573.495884L328.266924,573.495884L328.392278,573.659944L328.937981,573.752227L331.970872,574.223900L332.461672,574.111108L336.064268,575.177498L337.432957,575.351811L337.666334,575.515871L337.997993,575.351811L338.871906,575.679931L339.495108,575.679931L340.090479,575.967036L342.972357,576.582261L343.094642,576.756574L344.460449,576.746321L346.317206,577.371799L346.832387,577.371799L349.311595,578.776562L349.594114,578.776562L351.475600,580.068534L352.113410,580.796551L353.279405,581.647612L354.380535,583.103644L354.751559,583.390749L355.439727,585.892665L355.472419,586.005456L351.779776,596.392513L351.230616,597.643472L350.103214,600.852901L349.378473,603.272790L347.949793,602.216652L345.628207,601.478381L342.544870,600.176152L339.377723,598.709864L335.535352,597.223068L333.862277,596.566827L331.270132,594.762165L326.105492,593.500952L323.213652,592.752428L321.890473,592.537099L319.742293,592.967757L313.242999,594.803180L311.563777,594.639120L308.017540,592.219232L304.613672,589.573763L303.597777,589.081583L302.065100,587.984431Z M491.783454,660.150589L491.327694,660.201859L494.228716,657.894749L506.125754,657.597389L506.598247,659.627645L507.061164,661.606632L507.454567,661.319525L515.374438,655.321041L536.803070,655.577387L551.671737,618.151019L555.307065,619.053352L565.927535,622.242279L564.748278,637.756268L563.710853,647.856266L562.735311,652.142359L562.573684,654.736574L562.424117,657.012921L543.753530,663.421559L540.037705,666.979636L539.455367,668.425425L531.173140,667.389789L508.988530,664.467448L507.951244,664.323895L504.552958,664.405926L498.957101,664.334149L494.203456,663.308766L494.488767,662.549984L494.621502,662.273130L493.390026,662.139831L493.267771,662.437192L492.896666,663.288259L492.444741,662.355161L492.061642,660.109574L491.783454,660.150589Z M395.322600,328.393244L404.739765,311.505740L413.177953,298.022417L414.848823,295.387275L416.021072,293.500637L416.326920,294.669533L419.677858,307.517136L435.256830,325.194152L430.231687,330.177354L437.650653,337.467598L437.821565,337.867485L438.088772,338.195597L439.440091,339.508047L439.860330,339.159428L444.124274,334.719657L444.786534,333.868616L448.823445,337.447091L443.751059,343.558186L440.196363,347.710862L436.677986,351.853285L433.227113,354.467935L431.452860,355.647091L428.104149,357.338924L426.597502,358.179713L425.883931,357.400445L425.246386,356.672444L423.448589,354.631991L418.160034,348.992552L413.198742,343.619707L408.577670,339.661850L395.322600,328.393244Z M312.938677,479.387444L316.256460,474.055546L320.397350,472.548260L340.159381,468.877455L346.560991,467.534228L347.211473,467.359916L347.934918,467.247126L349.677167,466.867741L350.064271,466.795965L351.481906,466.529371L351.888701,466.447342L353.180010,466.519117L353.113284,465.965420L352.974160,465.237412L352.857582,464.683716L353.754798,458.223925L353.892730,457.680482L358.062484,455.383669L360.077672,441.561785L381.406341,441.008090L371.069362,468.764665L370.825936,469.410644L370.608346,470.025863L370.104315,471.430612L370.908829,473.542863L372.534712,477.572548L374.354166,482.176438L371.419533,482.791658L359.384376,485.355072L354.381655,497.669724L346.266534,501.514851L337.140839,506.098244L327.933671,499.833248L323.186563,497.013489L320.855519,499.135999L316.681537,496.511059L307.697870,497.126279L314.387684,490.246068L318.561796,486.770077L314.356996,481.253609L312.938677,479.387444Z M360.383946,643.939311L366.560273,639.796775L367.402220,639.232816L368.484950,638.392004L368.807926,638.145913L369.207297,637.561446L376.240902,628.363791L376.868243,627.656279L376.291455,623.144612L373.002550,618.838022L371.454937,616.735997L372.504619,615.700365L372.632872,615.577320L374.011490,613.998238L375.703340,612.316618L376.114292,611.998751L378.813583,610.532461L382.345981,608.615005L383.903624,607.353791L385.783873,604.821109L387.277033,603.775225L390.672692,602.175637L392.858061,600.760617L395.132661,598.853417L400.043691,595.356883L403.803509,592.485830L404.645104,591.368170L406.813512,593.172832L393.923550,605.415828L399.936707,612.029512L408.760680,621.216900L444.942600,605.169738L445.030918,593.470191L444.971189,587.481997L447.201485,583.308719L436.811877,571.804017L436.355944,572.050106L435.233816,572.439749L433.785634,573.085734L431.535415,574.162377L430.258115,574.931408L429.336854,575.649170L427.036771,577.669158L424.511613,579.996758L422.006691,581.729642L417.825077,584.816021L416.207455,586.138755L415.743032,586.579666L413.958317,585.103126L412.847027,584.180288L413.474029,582.919077L413.094515,581.411776L413.079532,580.130057L413.995922,579.012398L415.329036,578.889353L417.393728,579.791683L419.804712,579.842952L421.406800,579.237981L424.251515,576.592514L426.663954,575.085214L430.158787,572.655077L432.079717,570.624837L433.229329,568.451044L434.117004,567.179581L435.389788,566.564357L436.678638,566.533595L439.737552,566.779685L439.943118,566.759177L441.571930,566.564357L443.079181,565.887610L446.999061,563.037072L448.105833,562.698699L449.136548,562.780729L450.284313,563.026818L452.433371,562.093729L454.463747,561.334953L457.529883,561.334953L459.118057,560.637699L460.391931,559.325222L462.195795,558.074267L463.589942,558.607461L465.465493,558.781774L467.604430,557.910207L470.155241,555.746671L473.920316,552.414210L476.063411,551.306808L476.652107,551.255540L477.044995,551.081227L477.622669,551.122242L477.769165,551.132495L478.622299,551.696450L479.490421,552.598777L481.242378,554.905865L482.245262,555.746671L482.843708,556.023521L483.837930,556.310626L484.869003,556.474685L485.980642,556.536208L487.944528,556.249103L489.865969,555.521089L490.608932,555.121194L497.999378,550.004586L499.156541,549.553422L499.948272,549.379109L500.362472,549.327840L501.078333,549.379109L502.815148,549.655959L505.073462,549.717482L507.098752,550.168645L508.480077,550.383974L509.916495,550.609555L510.910716,550.896660L511.805947,551.347823L513.472494,552.414210L513.779395,552.527001L514.883987,552.639792L515.599127,552.527001L516.397181,552.137360L519.877689,550.947928L521.091927,550.722346L522.587417,550.445496L523.354761,550.158392L525.607116,550.045601L525.895592,550.219914L527.025653,550.219914L527.734470,550.322451L529.035594,550.722346L529.615618,551.060719L531.375927,553.367807L532.200723,554.803328L533.618925,557.253969L533.731644,557.377013L534.886293,558.709998L535.996498,559.386744L537.657464,559.889177L538.187640,560.227550L538.540975,560.740236L538.737160,561.416982L538.635829,561.755356L538.715684,562.432102L538.549145,562.821744L538.752023,563.836863L538.901778,564.113714L539.313282,564.626401L541.690889,566.759177L542.243844,567.548715L544.805695,569.066268L545.673871,569.968597L546.358167,571.096509L546.852617,572.275689L547.689615,574.808363L548.057284,576.438708L548.075577,577.515351L547.915746,578.243367L547.305599,579.309757L545.150710,581.955224L544.238553,583.308719L543.299327,585.113380L543.019759,586.241292L543.019420,586.630935L543.212732,587.123115L544.225295,588.486865L544.505139,589.050821L545.127560,590.968274L545.301355,591.275887L545.753730,592.096187L546.198027,593.665013L546.114695,595.469675L545.407495,598.053623L545.304379,598.453520L539.614480,599.612195L537.800518,599.981331L516.952758,604.308421L508.950329,613.495803L508.626829,613.854685L507.519242,615.167169L504.673692,618.509901L502.621811,620.950302L487.826130,638.145913L480.565561,638.361242L476.717692,638.474034L472.829007,648.881647L484.558497,649.671190L484.483585,653.085710L484.480359,653.290786L484.449996,654.613528L483.665819,654.623782L483.801353,653.588147L483.865602,653.095963L481.493913,653.024187L479.985528,652.983171L479.070586,654.623782L466.126329,654.644289L466.959708,658.161349L452.994179,654.459721L445.145502,650.727333L443.716985,650.891394L441.423269,650.142865L431.266183,648.153626L428.859288,646.256672L426.492028,645.087738L418.538053,644.482763L411.805585,645.959311L406.127329,647.189768L395.767165,646.461748L393.340923,646.266925L381.429974,646.000326L368.995982,647.230783L364.888038,645.631189L360.383946,643.939311Z M1.623141,697.761662L1.858012,696.367138L4.829613,691.106913L7.612251,686.810552L7.719561,686.646490L9.271553,685.016129L12.253199,682.996123L20.101350,679.099664L23.084446,676.936105L25.502841,674.854577L36.584511,664.047042L40.953296,659.504599L42.486908,657.464089L50.600243,645.497890L57.713157,635.151803L62.012567,629.676276L74.595936,618.017720L79.681937,612.357633L85.742342,605.026185L86.094817,604.626288L88.961057,601.355336L100.775143,587.799863L106.821708,580.847819L109.259125,577.843471L113.936230,571.496404L117.537611,566.687401L121.029521,562.021953L122.346176,560.955565L122.544903,560.791505L124.175631,560.063490L132.855599,557.828177L136.168224,557.171939L138.529395,556.751536L142.785447,555.192970L153.188205,547.984603L154.573843,547.020754L155.645681,546.272232L155.603653,545.913352L155.832118,546.149188L161.634639,542.119478L171.935885,534.972642L175.640260,532.398962L182.709077,528.164184L183.856392,527.579723L187.214339,525.857101L198.239228,519.622855L199.930145,518.638501L203.239013,516.608270L205.310767,515.295798L207.689357,513.347598L209.411655,511.676247L211.278627,510.076672L213.059345,508.959021L214.782026,508.118219L217.536074,507.523506L219.645554,507.277417L220.034828,507.226149L222.571928,506.662197L225.219864,505.534292L229.386477,502.970873L235.870321,498.192661L238.271459,496.418776L241.578727,494.255252L245.357133,492.737709L247.071031,491.538030L247.969100,491.702089L259.367262,487.549355L259.610953,487.457072L263.878109,486.083082L267.740753,485.088477L269.630543,484.965433L273.626157,484.719345L279.021452,484.627062L288.404740,484.452750L289.308262,484.432243L289.452588,484.421989L294.701829,483.929813L299.215382,482.371258L302.679141,480.628136L303.440936,480.248751L298.204059,490.820274L294.969394,497.372367L293.087815,501.155972L291.451004,503.873196L289.291286,506.477630L282.081001,518.700023L278.765313,527.159321L277.353872,533.506363L272.863031,539.648333L266.445899,544.426564L262.337265,552.732076L262.451424,554.403433L262.970150,561.991191L259.250176,568.861194L257.550999,572.009091L252.594622,581.175939L246.167394,590.065943L243.225667,596.002870L242.974082,598.340728L242.905222,598.986715L236.744967,611.424540L229.748807,619.135382L229.035765,620.683704L157.685741,633.265105L155.173159,633.747033L152.682711,636.207944L150.792025,638.053628L142.648330,646.072103L141.156530,647.446113L140.412311,646.379717L135.827149,648.204895L134.894764,650.901648L131.114347,653.618908L143.525906,670.414668L144.070555,671.204213L144.134323,671.296497L147.071658,675.500568L152.492092,683.344753L144.024950,688.615228L141.124532,690.419905L135.394146,693.988244L133.210522,695.341753L130.566979,696.982369L124.207772,700.930103L123.486103,701.453049L108.466290,710.845585L104.263953,713.029658L102.865943,713.757683L99.159253,714.813831L97.246182,714.875354L93.874913,714.977893L93.580997,714.988147L88.078258,715.326524L82.432119,716.587750L76.615634,718.084815L71.826306,719.315280L71.474586,719.407565L71.045005,719.510103L66.806833,720.648283L56.602042,723.396321L50.186514,725.201003L42.439457,728.205389L38.548864,729.958803L28.814558,735.270314L25.952891,735.752247L15.185414,740.684366L13.069633,736.511034L8.639972,738.510542L5.965413,732.706843L4.215691,728.143866L2.894887,724.729325L2.742376,722.186364L2.330618,706.774802L1.623141,697.761662Z M589.000039,425.268801L589.084736,424.181920L590.613072,423.823044L594.941691,423.269349L601.707585,422.151707L608.823491,421.280151L622.648719,419.424251L619.344953,417.722154L614.040039,414.851148L611.915870,412.595359L611.034432,408.022260L611.678471,404.125899L614.019362,398.947843L615.986177,395.933292L615.543691,394.692610L612.877285,394.856667L609.774153,396.866367L604.411020,402.064930L602.604355,403.408148L601.244577,403.592713L599.755660,402.710905L599.510931,400.588415L600.732830,397.758428L608.410114,389.883687L625.275916,388.694273L625.807889,388.499456L627.241658,388.622499L629.719901,388.171342L632.141929,387.935510L633.202932,387.832974L634.226719,387.771453L646.815253,386.992182L657.789729,386.192404L662.797490,386.366715L664.817277,386.059108L666.332990,384.439045L670.526415,379.927480L671.347109,379.240492L689.335873,359.912560L698.332590,351.156046L704.168202,345.434580L705.597572,344.019594L705.954597,343.465904L707.069944,341.712553L708.226493,339.877174L708.391634,339.631089L708.530269,340.000216L712.025689,341.394694L712.514518,341.066581L713.327481,340.266807L714.081598,339.302977L714.904913,338.246865L715.185686,337.836724L710.719881,336.103881L718.856705,323.092185L727.447575,309.342255L728.420249,307.732459L727.900243,307.055729L727.492001,306.532801L725.679219,304.153994L724.208665,302.656987L720.635608,298.278754L718.639301,295.459050L724.820880,294.238887L726.578703,298.658132L728.065118,298.217233L728.860289,299.888549L730.977461,299.283594L734.756433,298.206980L734.063697,296.443383L732.609847,292.700867L735.245547,292.167687L737.097189,291.644760L738.513150,291.244875L740.069102,290.793723L753.367830,286.312960L754.648306,287.307546L756.614904,286.456509L757.258865,286.220679L758.307726,287.461348L760.062100,289.286464L762.783185,287.553629L763.959053,289.368492L767.756002,287.871486L779.187913,283.770103L783.927001,282.068030L784.718346,281.811693L788.008798,281.145219L787.295264,282.888306L787.078659,283.749596L786.796592,285.605472L786.649978,286.815380L788.760526,286.620564L792.972973,286.148905L798.886354,285.379896L800.360572,285.256854L799.554036,290.609161L794.970303,298.945229L784.121479,312.356780L782.861697,313.843535L783.435098,314.120379L784.095909,314.438237L785.419308,312.766919L787.120217,310.224055L787.498528,309.793409L790.565195,306.020127L795.509782,299.806521L796.195282,300.319195L798.217523,300.862629L799.394571,298.709400L801.441735,299.252834L802.088075,298.094191L806.552172,289.963192L806.652101,289.768377L811.561306,291.019299L812.358679,291.214115L810.764388,294.177366L805.753714,303.467012L808.577894,304.051460L809.641014,303.220928L809.967440,303.795123L810.183459,303.795123L811.026589,303.754109L812.134206,302.636480L811.681452,302.400650L812.550848,300.442236L812.809418,299.191313L813.641377,297.468730L814.912332,297.663546L816.975197,297.489237L819.637735,296.422876L820.567807,295.315501L820.913564,294.300408L819.877177,293.572412L820.067128,293.049485L820.331855,292.526558L819.754363,291.265382L819.937146,290.516879L821.493196,290.342570L821.848975,289.737616L820.591114,289.194183L821.742678,286.405242L822.766656,285.400403L822.483159,283.657315L823.388548,282.355126L823.612080,281.914228L824.478211,280.160887L825.482495,279.914805L827.862434,279.320104L828.066737,278.499828L828.808501,275.054670L829.099086,273.752482L829.837226,270.430366L832.668559,268.994885L833.245212,265.795812L835.325243,265.508716L835.976022,265.416435L837.660138,263.816899L839.262214,265.734291L839.808504,265.990627L843.701386,268.359171L845.459761,269.394769L859.454761,285.543951L861.788063,287.461348L862.447730,288.004781L868.788020,293.213540L871.984220,296.576678L869.724638,298.627372L866.033783,301.877723L866.653677,306.296971L867.083124,309.383269L868.013194,309.024397L869.341376,308.501470L871.143484,308.060570L876.689665,306.409760L880.257788,305.343398L881.369806,306.512294L888.221811,311.844105L894.729930,318.601154L896.779986,320.549318L896.372047,324.517421L900.342628,328.957187L902.353768,330.536227L907.909245,335.703994L918.320910,342.522581L928.439745,347.628833L928.524089,347.680101L929.636827,348.264552L936.146756,351.689229L938.094488,352.509511L951.120822,356.980050L950.001585,362.352902L955.840805,363.634594L957.472877,363.983215L957.502098,364.495892L957.162918,366.515839L956.878315,368.187166L952.166745,376.677104L951.915289,377.128260L950.333210,380.163312L945.813906,388.899345L945.467800,389.555573L945.221144,391.821611L943.760122,394.979710L942.540627,397.553357L941.738058,399.040125L939.712152,405.305060L936.950845,408.698996L935.326997,409.765369L933.698795,411.734057L929.931013,417.711900L924.741568,421.833846L923.623117,423.043770L921.496042,424.930432L920.810012,426.222386L919.375109,426.796588L917.750001,428.283360L915.225910,430.580168L911.051430,434.281720L908.526082,436.527260L902.679729,441.705336L901.233105,444.566095L890.250357,456.214213L887.287402,459.782477L888.130894,464.263316L888.245914,468.180207L886.546094,474.578482L887.057178,479.725815L889.472734,485.478116L890.043637,489.815415L886.141213,498.797627L882.546430,507.113359L881.314434,508.231010L872.407423,526.298010L870.201428,536.192834L870.118923,536.551713L867.650674,537.607845L863.759280,539.309961L860.122929,540.909540L857.355174,541.883643L851.715297,544.180474L846.919830,546.015890L842.844507,547.471917L842.237814,552.024569L842.028041,552.947404L840.737097,564.616147L864.363344,562.052714L859.721285,580.837566L846.853746,585.267186L839.287420,577.648650L830.591248,595.459421L830.149755,596.351498L829.567044,598.381743L816.820519,624.313544L813.450527,612.972860L810.133612,622.334563L773.337124,609.958250L765.303581,615.310722L764.064514,616.007979L759.175285,619.822386L753.856469,622.601162L747.157940,624.631411L746.775889,629.184094L745.892602,633.829063L744.273892,638.238197L744.299957,638.484288L745.040236,644.257179L746.199224,647.353829L747.968686,649.937789L748.948657,651.383577L746.861248,660.858103L746.553129,661.832216L745.845606,664.252118L745.764096,669.050909L746.046846,672.660257L754.856813,670.127561L757.465048,668.353648L760.012919,669.891723L764.084067,664.867348L773.673974,662.088562L788.529317,653.793223L797.790172,648.615048L798.729354,670.886344L796.549755,686.502937L796.619566,686.769537L796.641814,686.861821L796.501828,686.913090L796.155596,689.486805L797.896325,690.112290L785.430526,696.920846L771.525036,699.986748L765.887195,704.026767L747.833099,706.016016L743.098792,705.841700L738.437100,705.646877L736.378513,704.139560L731.356538,703.093666L725.543242,702.970620L724.666716,701.678634L723.960736,700.427664L717.203310,699.433040L714.746166,699.535578L711.234062,699.720148L709.123863,698.274354L706.984009,696.705515L691.720447,694.367637L686.823045,693.516567L679.048938,691.670875L674.198730,690.245590L665.179611,687.589844L647.831102,684.277853L642.630253,683.385769L641.445949,682.678254L636.003209,679.345756L619.582461,676.044021L608.500543,675.172445L605.365748,674.957115L601.082093,675.859452L592.747112,675.110922L592.713637,674.834069L589.939230,674.608485L587.756986,674.403408L586.160765,674.239347L577.792180,673.408786L575.774338,673.265233L574.417306,673.162694L572.375433,672.988379L570.794937,672.855079L569.072278,672.752541L563.678668,672.393657L558.699476,671.122182L553.220750,670.547968L547.064179,671.655381L547.664235,669.317508L556.180866,665.738923L566.775336,660.437696L568.344281,659.637898L567.404662,655.864493L566.813097,651.650176L566.625197,650.306926L567.838269,647.087230L568.647561,623.093343L570.436337,623.585525L571.856953,623.975169L573.506738,623.821362L573.542504,622.314056L574.956386,593.306131L575.442143,586.272054L577.960734,555.910730L580.463028,525.580252L583.215923,493.363183L586.143025,461.484581L587.440974,444.227726L589.000039,425.268801Z M659.792684,636.259213L656.327906,641.088754L662.593114,643.754743L666.427309,639.079008L665.738398,633.357389L665.409495,630.486326L664.479200,630.568357L662.277047,633.039521L659.792684,636.259213Z M780.993731,204.080576L786.847742,208.192178L788.929580,207.843563L791.863411,207.341148L792.685246,207.177094L794.624600,206.777212L797.201550,204.306150L798.635377,202.932198L799.000522,202.573330L796.803412,201.117352L793.891996,199.189719L790.207294,202.778398L786.814364,203.260306L783.810665,203.690948L780.993731,204.080576Z M780.993731,204.080576L780.681024,203.793481L780.033761,203.209039L774.635611,198.297677L774.481419,198.174636L773.124612,198.820598L771.479698,201.424953L771.389884,201.558247L770.953439,202.265729L767.858604,208.181925L774.901982,209.268782L780.109903,204.839325L780.993731,204.080576Z M652.386433,261.848240L652.171998,263.006877L653.513950,264.073235L654.514098,264.339824L655.942041,264.842242L656.885116,265.631757L657.470938,266.421272L657.652064,267.036478L657.870239,267.056985L659.192747,266.913437L660.516749,266.626340L660.844426,266.503299L661.773704,266.452032L661.304282,265.939360L660.858872,265.457448L657.356010,261.899507L654.603159,258.638916L653.288543,260.474280L652.718181,260.935684L652.828764,261.315061L652.386433,261.848240Z M390.480720,274.552251L390.284522,279.555934L390.396521,279.514920L390.550062,279.473906L396.420073,278.212732L397.021938,278.089690L397.245540,273.188543L390.480720,274.552251Z M375.214035,257.890415L376.015765,258.679929L376.123127,258.515875L375.214035,257.890415Z " data-aland="20425586" data-awater="114949" data-classfp="C1" data-funcstat="A" data-geoid="2117362" data-intptlat="+36.9325509" data-intptlon="-084.0994757" data-lsad="25" data-mtfcc="G4110" data-name="Corbin" data-namelsad="Corbin city" data-pcicbsa="N" data-pcinecta="N" data-placefp="17362" data-placens="02404128" data-statefp="21"/></g><g fill="#000" font-family="Arial" font-size="12px" id="mylayer-label" stroke="none"><text text-anchor="middle" y="510.207946582"><tspan dy="0" x="506.235258657"><![CDATA[Corbin]]></tspan></text></g></svg>