<?xml version="1.0" encoding="utf-8"?><!DOCTYPE svg  PUBLIC '-//W3C//DTD SVG 1.1//EN'  'http://www.w3.org/Graphics/SVG/1.1/DTD/svg11.dtd'><svg enable_background="new 0 0 1000 1001" height="1001px" pretty_print="False" style="stroke-linejoin: round; stroke:#000; fill: none;" version="1.1" viewBox="0 0 1000 1001" width="1000px" xmlns="http://www.w3.org/2000/svg" xmlns:xlink="http://www.w3.org/1999/xlink"><defs><style type="text/css"><![CDATA[path { fill-rule: evenodd; }]]></style></defs><metadata><views><view h="1001" padding="0" w="1000"><proj flip="auto" id="robinson" lon0="-111.677207961"/><bbox h="0.78" w="0.48" x="-1524.72" y="-672.33"/></view></views></metadata><g class="" id="mylayer"><path d="M643.407043,0.000000L634.024095,4.350706L588.848429,17.020890L566.469089,23.281746L541.251005,78.229964L534.907024,78.442206L515.497098,78.208740L498.615307,113.823347L425.684601,114.544987L421.317492,124.605548L404.273145,162.704766L373.526686,231.392220L373.329254,231.816752L314.356851,232.708269L340.056110,173.190201L269.559327,189.321798L247.845026,233.875732L235.732120,233.960639L217.537358,233.918186L213.754716,233.896959L206.015463,233.854506L205.984515,235.043197L211.568907,235.043197L214.309903,238.800317L217.362374,255.017612L217.790820,256.078960L204.314125,283.674307L192.697068,309.741818L211.112651,309.571996L221.756880,309.465857L231.556174,309.380945L260.201784,309.359717L275.198226,307.152026L289.892013,305.857132L290.687099,305.793449L343.096742,298.215161L395.439516,290.743053L405.459308,288.238208L407.419850,287.389109L408.676773,287.941023L421.303346,283.122394L428.295827,282.039797L427.079193,288.323117L425.576531,296.007488L422.257944,303.182437L420.195186,307.619038L418.155030,312.119336L398.400704,355.658384L385.273218,384.571981L378.717829,399.198847L363.958069,432.189494L363.103791,433.802957L362.609150,435.204124L354.397425,453.546808L350.826807,461.529350L350.339668,461.529350L346.307756,446.583352L336.112680,446.583352L324.414542,452.400382L320.366875,461.147206L324.963096,478.173954L335.064660,480.509311L338.751188,484.182198L340.095597,485.519726L327.538064,513.629351L316.428560,538.512382L288.838008,538.618540L281.406678,538.661002L271.783184,538.703465L237.422426,538.852086L234.203773,538.852086L227.021838,554.945628L225.939574,557.387278L217.044391,577.281579L213.830247,584.649128L202.472390,610.595113L196.478082,624.247744L216.848697,624.778565L242.928899,625.415550L262.822232,625.925138L275.280654,626.222398L267.390304,643.845779L248.972001,685.553717L248.241107,686.827740L245.865010,692.093715L252.210345,692.030014L255.578167,692.008780L257.284938,692.454690L262.275494,692.348521L264.794297,691.945078L276.856850,692.008780L278.619338,692.072481L277.303060,695.618532L275.819272,698.251535L275.207813,700.205056L273.502442,703.390151L270.998278,708.932234L270.495415,709.378150L270.613695,709.760364L261.886208,729.041060L249.696411,755.966550L246.539453,762.952827L245.614953,764.269394L245.460078,765.352377L243.946875,768.686273L244.921223,768.686273L302.185072,768.304042L338.597860,768.049222L344.133085,768.006752L395.757297,767.666991L458.765132,767.242291L461.228260,767.221056L450.271458,792.321070L497.500865,791.216830L510.270676,790.919534L528.781620,790.473591L659.695542,787.394465L584.980757,959.263011L584.741960,959.815200L567.711029,999.000000L630.830812,998.978761L632.352091,995.474383L738.774472,750.700323L753.297067,717.319722L767.803368,683.939956L707.691338,685.362613L705.282195,685.192744L702.944383,685.468782L692.352032,685.723587L673.661112,688.993582L659.676551,691.308064L655.895794,691.881377L652.418355,692.475924L647.444060,691.647805L634.858996,689.524426L621.814043,687.379817L567.189490,688.675076L536.232450,689.397024L537.161632,687.358583L541.243237,678.419210L527.545813,678.504144L523.109209,688.207933L522.409129,689.715530L494.822216,690.373777L496.554757,686.530468L509.757236,657.164551L519.564232,635.118991L521.532590,635.076525L587.744524,633.929944L589.689076,634.163507L591.306007,633.866245L604.627493,633.653916L647.730646,632.889529L675.263252,632.422404L675.608381,631.679251L679.941973,622.273094L678.590823,614.693011L664.136174,614.947803L649.437945,615.202595L604.446064,615.988204L587.083541,616.285462L585.951442,616.625185L583.487275,616.349160L572.037334,616.540254L527.567380,617.325864L563.493136,537.514504L574.028313,537.344653L623.644997,536.601553L633.091624,536.452933L646.228978,536.261850L683.689125,453.313276L684.008930,452.400382L684.512578,451.466259L708.283096,398.816721L751.402248,303.989091L784.112112,232.135151L786.448354,226.998325L787.484636,226.977099L789.420931,222.625671L792.092496,215.196437L807.302932,172.871816L787.671875,175.058060L779.021886,177.647596L775.688289,199.106980L774.008012,210.951179L773.503930,213.307296L771.407407,221.033689L769.732385,224.748317L767.589161,228.908713L766.055243,228.017198L762.899389,228.144557L757.307978,228.271916L756.492670,228.229463L746.460230,227.656347L741.462156,227.592668L704.222222,228.102104L644.404029,228.717674L655.825234,204.455961L657.059086,201.802694L676.538926,160.327513L715.476359,77.402222L689.530157,77.869153L687.012879,77.932826L668.146457,78.251188L649.502895,78.314861L628.928354,78.378533L613.818572,78.399757L606.567172,78.505878L609.011222,73.327193L643.407043,0.000000L643.407043,0.000000Z "/></g><g fill="#000" font-family="Arial" font-size="12px" id="mylayer-label" stroke="none"><text text-anchor="middle" y="452.763148199"><tspan dy="0" x="506.636234324"><![CDATA[N]]></tspan></text></g></svg>