<?xml version="1.0" encoding="utf-8"?><!DOCTYPE svg  PUBLIC '-//W3C//DTD SVG 1.1//EN'  'http://www.w3.org/Graphics/SVG/1.1/DTD/svg11.dtd'><svg enable_background="new 0 0 1000 1001" height="1001px" pretty_print="False" style="stroke-linejoin: round; stroke:#000; fill: none;" version="1.1" viewBox="0 0 1000 1001" width="1000px" xmlns="http://www.w3.org/2000/svg" xmlns:xlink="http://www.w3.org/1999/xlink"><defs><style type="text/css"><![CDATA[path { fill-rule: evenodd; }]]></style></defs><metadata><views><view h="1001" padding="0" w="1000"><proj flip="auto" id="robinson" lon0="-71.9461661294"/><bbox h="0.73" w="0.67" x="-966.46" y="-721.95"/></view></views></metadata><g class="" id="mylayer"><path d="M750.536928,0.000000L740.743936,3.541271L735.190175,8.100660L721.154851,25.807044L715.929851,29.348325L713.799720,35.434904L715.451150,42.052679L714.410416,46.612086L715.751112,47.630206L711.416996,58.298341L702.229653,59.847656L688.312021,54.823449L670.735189,58.918067L661.159989,56.439163L630.175344,62.570025L607.923124,56.594095L587.392017,59.183664L578.086626,62.747090L573.194084,66.819578L572.220149,74.411231L577.506215,90.170017L575.196365,106.415758L570.127401,117.570887L566.564249,121.134334L557.203197,123.192723L543.458912,117.659420L516.317324,110.687463L511.579562,104.136041L504.286192,100.129937L451.050571,96.190234L448.063475,139.549185L447.136087,150.394486L446.207663,164.094996L446.670248,177.374991L446.955173,180.252326L447.807778,185.984864L449.711012,195.900615L450.150286,198.755822L450.284187,201.699563L450.076022,204.731838L448.985782,212.235065L448.888746,215.156677L448.364027,222.615644L448.322548,229.410614L440.504463,231.247691L434.626657,232.774900L432.767457,233.438904L427.260138,235.762918L423.541734,237.090927L419.815630,238.064800L415.996606,238.773071L412.353347,239.127207L399.881123,239.547743L394.777686,239.879745L391.287707,240.322415L383.985207,241.561890L378.278551,242.048827L374.526392,242.668565L370.323263,243.642438L367.190594,244.328576L363.582985,244.793380L354.659167,245.191783L340.856202,245.479518L335.713695,245.280317L330.545151,244.726979L322.062394,244.262176L318.656303,243.974440L316.993133,243.686705L313.808094,242.912033L310.849581,241.849625L308.124103,240.588017L305.731977,238.994406L303.529687,237.113060L302.293680,236.271988L300.972450,235.519450L299.517466,234.943980L297.962165,234.501311L296.324895,234.191442L294.616455,234.036508L292.847645,234.058641L291.041105,234.191442L289.189287,234.457044L287.318084,234.833313L283.628640,235.807185L271.304429,239.614144L269.619942,240.034680L267.937532,240.233881L266.353223,240.145347L264.885363,239.769078L263.453020,239.127207L262.047609,238.352535L260.633614,237.710664L259.022238,237.378662L257.354783,237.157327L253.925025,237.046660L248.333770,237.356529L247.197924,241.871759L246.259606,246.453392L246.010366,249.552082L245.272838,254.244386L244.054577,260.508173L239.335757,282.044121L237.803003,289.768743L236.458034,297.426971L234.824130,305.771347L233.524340,312.920513L231.878353,320.600892L228.845535,336.116606L227.217972,343.797004L223.052237,364.735526L222.605319,367.015304L221.505381,371.641264L218.352453,383.150839L216.730574,388.662159L212.484640,410.375465L211.447372,414.979312L209.261421,421.176802L206.473278,427.418563L204.114682,433.638195L202.453303,439.857831L202.138492,442.934449L202.242419,445.966801L202.913265,451.965105L199.459718,459.136514L198.694112,460.575223L192.059474,471.265947L191.198875,472.660390L190.428988,474.165503L189.813426,475.648483L189.015105,478.636576L187.962080,486.140016L187.823565,487.622998L187.813485,489.105980L190.077462,506.149219L191.502528,517.902431L191.661615,520.934806L191.537192,522.484196L191.148356,524.055719L190.557695,525.627243L188.958657,528.703890L186.358790,533.263525L183.989907,537.845298L181.908076,542.338535L178.794996,550.019099L177.702179,553.117888L176.137128,559.271199L175.331907,565.402380L173.921243,581.870265L172.658183,589.506593L168.377836,607.988745L164.547148,623.482792L162.980037,629.481209L161.701610,634.417178L159.968010,643.757898L157.770057,654.515232L155.686363,666.821992L155.141312,670.629122L155.084292,672.842571L154.109455,681.895581L153.796871,686.366753L153.255663,698.562882L152.959568,701.639584L152.237179,704.782692L151.709216,706.332112L150.993487,707.947935L150.142790,709.475221L149.171195,710.980372L145.904520,715.451558L143.642876,718.373324L140.538081,722.800244L135.670334,730.193206L131.547470,735.992480L128.111397,740.530081L124.968682,744.691396L122.956394,747.635307L120.828723,750.756295L116.166118,758.193548L114.361193,761.336675L111.309364,767.600797L109.992329,770.766061L103.714709,784.666677L101.875052,789.204302L99.068038,796.796530L88.502536,826.567862L86.937416,831.592475L86.420519,835.156189L86.561422,839.428221L85.839601,846.555657L85.470935,855.608837L85.818968,862.935500L86.350799,902.955562L82.687535,914.355114L80.149871,922.235201L70.183535,948.421045L53.356283,986.183687L51.296687,989.105539L49.142072,991.983122L46.892437,994.816435L44.390173,997.583343L43.191956,999.000000L45.826562,998.645836L96.531892,993.731807L170.728653,984.767031L309.338178,966.306262L414.508219,955.349349L418.483305,954.884510L424.051260,953.999104L438.403353,951.674912L570.355574,935.029290L575.431305,934.188155L643.209565,925.798951L641.496681,920.752151L644.428743,912.141608L659.522854,908.068758L664.884083,904.018044L666.678481,895.407517L645.808542,892.839855L647.881403,886.752728L654.523317,880.665605L674.662316,868.513507L691.331932,861.430324L704.929429,863.422468L719.502677,881.086170L726.328712,881.086170L732.698442,877.522438L744.727941,847.153299L746.697047,832.964837L744.601741,807.111345L742.896638,802.042475L739.804552,801.046409L739.670853,797.128552L738.463879,795.446308L709.016266,764.081378L707.766798,758.968262L714.905234,752.770550L740.908679,752.438530L746.702626,746.794189L747.602545,742.212315L745.980863,740.131658L731.592491,736.368768L720.002864,731.122860L710.929436,730.503091L709.879352,724.858763L717.561409,706.398515L724.509672,696.880656L750.712253,662.240157L770.073024,644.023511L801.657383,621.756311L816.893349,605.576102L827.602264,601.016432L861.838986,599.511298L871.543755,577.753291L871.594146,574.211810L858.969598,572.706681L856.010185,569.652154L857.266961,562.569198L871.865397,549.930562L873.757885,544.374880L869.314123,542.338535L844.725920,547.407264L838.432564,547.407264L835.473228,544.352746L834.745774,534.746514L822.554464,535.255600L820.230812,533.728343L823.156434,525.140292L832.086615,514.006826L835.706006,503.382457L832.310416,488.198483L837.309881,473.523616L842.355707,465.444702L860.630090,443.687004L862.869743,437.113222L858.821554,435.585981L833.646606,440.654653L827.131543,439.636491L821.996521,434.567820L824.631587,428.503125L836.595458,421.929354L836.469649,415.621195L825.984808,403.314762L816.147071,397.294355L797.624835,391.561691L792.953307,388.794962L786.941569,384.523135L782.315425,372.415947L782.697128,360.419442L784.788617,346.851457L790.011807,332.708016L794.185936,332.088273L797.751353,331.424262L803.167358,330.229042L812.269659,328.391946L815.822022,327.550866L821.229458,326.488450L824.989141,325.846573L836.251872,323.699606L850.684711,320.379556L854.124946,319.759813L855.818157,319.582744L859.139962,319.472075L860.698432,319.582744L864.452642,320.733694L865.525960,321.729710L867.520582,325.890840L878.843674,317.966986L885.039308,313.783725L891.362350,309.711134L911.121376,297.382704L914.100035,295.479213L917.746506,293.177318L924.265830,288.905533L930.647951,284.390281L936.782791,279.631561L942.696239,274.607242L948.387281,269.427990L953.855917,264.093805L956.808044,261.083645L954.744244,260.463906L947.086284,252.894242L925.381459,251.389163L916.690284,246.851795L901.578165,232.730633L889.103813,205.971309L888.300553,181.735260L879.179992,170.115258L871.157373,163.563796L868.658399,150.925685L852.981186,130.231089L855.783349,105.486165L854.053757,98.934746L838.909435,78.240260L824.457975,72.197920L814.460077,63.101219L811.007489,38.356463L812.698052,31.782956L811.497450,30.300044L812.933868,27.754748L791.616909,15.161077L792.240043,5.046312L784.890848,1.527173L750.536928,0.000000L750.536928,0.000000Z "/></g><g fill="#000" font-family="Arial" font-size="12px" id="mylayer-label" stroke="none"><text text-anchor="middle" y="526.87573926"><tspan dy="0" x="501.026339988"><![CDATA[N]]></tspan></text></g></svg>