<?xml version="1.0" encoding="utf-8"?><!DOCTYPE svg  PUBLIC '-//W3C//DTD SVG 1.1//EN'  'http://www.w3.org/Graphics/SVG/1.1/DTD/svg11.dtd'><svg enable_background="new 0 0 1000 1001" height="1001px" pretty_print="False" style="stroke-linejoin: round; stroke:#000; fill: none;" version="1.1" viewBox="0 0 1000 1001" width="1000px" xmlns="http://www.w3.org/2000/svg" xmlns:xlink="http://www.w3.org/1999/xlink"><defs><style type="text/css"><![CDATA[path { fill-rule: evenodd; }]]></style></defs><metadata><views><view h="1001" padding="0" w="1000"><proj flip="auto" id="robinson" lon0="-118.293147401"/><bbox h="0.82" w="0.51" x="-1659.8" y="-567.4"/></view></views></metadata><g class="" id="mylayer"><path d="M583.856752,0.000000L569.685961,0.534653L567.803756,0.616907L567.067999,2.632136L564.473567,9.870499L562.444218,15.360951L559.531365,22.804922L556.512823,30.660145L547.036048,55.418375L544.043420,63.026765L537.478302,80.299807L534.173680,89.039111L533.553777,90.437397L530.466337,98.518660L526.280546,109.519841L509.166206,154.408409L507.895096,157.780683L504.006837,167.959173L500.864864,176.184194L497.056715,186.198131L487.860471,210.317824L483.557753,221.627086L479.984124,230.982902L474.472079,245.458665L468.960184,259.934367L463.393467,274.553943L459.757368,284.074113L456.498286,292.607288L452.039179,304.327519L442.397389,329.618409L439.931688,336.074754L439.138586,338.151473L431.232734,358.898041L428.767169,365.354331L425.109572,374.977061L422.958155,380.610868L417.840252,394.057949L411.043713,411.946188L406.200905,424.673512L403.241028,432.425026L399.904348,441.163449L398.703157,444.309276L396.875342,449.141096L389.898950,467.501953L387.535947,473.690753L385.276463,479.653374L383.394049,485.615985L382.116363,490.982326L381.679204,493.429046L381.476657,494.498200L381.267159,496.348659L379.035275,500.892559L371.846192,519.767157L365.646405,536.051043L365.144036,537.366909L362.363887,544.604164L361.208449,547.091968L358.004634,555.932907L355.575058,562.656118L354.949863,563.889733L338.297264,604.413754L328.412006,628.468888L310.365030,672.425622L321.289803,678.243989L320.298146,680.752257L319.480579,682.849332L320.046554,683.836191L321.460814,684.576334L319.666291,688.379848L298.278238,738.400813L291.560767,750.612975L283.475568,768.519957L277.539458,783.445800L266.791060,810.398504L260.235829,824.522379L248.542565,852.605491L236.007488,878.673655L234.123107,883.073153L232.482643,882.970361L223.980513,882.703102L218.865461,895.120348L227.197667,895.428722L225.308087,900.650531L224.887407,901.842911L222.558585,908.215972L218.939622,917.611076L217.479214,921.393780L208.501722,944.788894L201.595222,962.756565L197.921727,972.295429L195.355606,978.976730L187.939774,998.280480L188.716894,998.444942L189.226161,998.547730L191.453227,999.000000L213.724514,998.938327L216.859366,998.403826L243.181518,998.506615L260.255897,998.588846L262.364121,998.588846L280.929683,998.671077L297.549125,998.732750L314.168567,998.794423L329.751766,998.876654L330.505927,998.876654L332.237070,998.876654L346.833990,998.938327L362.425031,999.000000L362.827094,998.979442L373.293162,997.828210L395.917997,997.828210L400.802905,997.828210L400.353120,996.985343L398.169192,991.702004L394.391551,982.553791L391.385373,970.260200L390.435588,963.763903L390.195238,962.057596L389.887731,948.037061L390.230836,941.746304L391.661465,930.583268L393.765638,921.743269L396.696641,912.533200L400.443434,902.397985L404.823308,892.715024L412.795937,877.748527L420.040956,865.228427L423.739474,858.814172L434.879352,839.365750L443.072092,825.036347L465.924189,784.597102L467.563118,781.739405L471.954060,774.050339L474.973670,768.787225L476.564108,766.011752L485.126273,750.715770L491.102204,738.873675L494.469123,730.814448L500.011045,715.888383L507.813743,697.014837L526.811264,648.720305L532.496765,633.464934L537.204383,620.861727L541.582515,609.121994L543.477328,604.023114L546.542930,595.901898L558.859312,563.231805L562.834136,552.684378L575.585820,517.978392L578.324352,510.535476L580.577713,504.408423L583.331367,497.150524L586.796480,487.939344L590.176747,478.995430L593.674818,469.743081L596.081823,463.348665L598.093608,458.393500L600.814785,451.670089L601.365724,450.271947L601.744622,449.099974L601.859497,448.709317L608.624246,431.170803L610.927272,425.228661L611.949262,422.596844L620.843892,398.807594L627.449286,381.104340L628.275083,378.986523L629.918836,374.771447L633.168559,366.485209L643.175693,340.906723L648.142972,327.808986L657.376189,303.361115L663.783681,286.582663L671.614150,266.123534L678.634626,247.741059L685.672483,229.358487L687.745763,223.930058L688.387610,222.429014L692.417925,212.908677L702.372973,189.447000L707.622401,179.741510L725.857381,149.185490L744.107966,117.827251L759.157195,91.979625L761.818594,87.928706L762.284910,86.797739L764.983471,82.335553L775.315811,65.247590L793.470887,35.040144L794.265002,33.724088L795.026268,32.449159L797.837818,27.781270L807.578818,10.672475L812.060226,2.261992L807.628962,1.974102L800.897042,2.056356L793.319723,1.974102L762.259278,1.727339L718.981031,1.254377L712.022002,1.706776L697.669088,2.673263L696.886053,0.596343L696.144222,0.205636L692.406975,0.164509L673.243692,0.534653L651.362900,0.123381L622.965043,0.308454L608.418062,0.123381L597.031365,0.143945L583.856752,0.000000Z "/></g><g fill="#000" font-family="Arial" font-size="12px" id="mylayer-label" stroke="none"><text text-anchor="middle" y="475.420228563"><tspan dy="0" x="488.384180563"><![CDATA[N]]></tspan></text></g></svg>