<?xml version="1.0" encoding="utf-8"?><!DOCTYPE svg  PUBLIC '-//W3C//DTD SVG 1.1//EN'  'http://www.w3.org/Graphics/SVG/1.1/DTD/svg11.dtd'><svg enable_background="new 0 0 1000 1001" height="1001px" pretty_print="False" style="stroke-linejoin: round; stroke:#000; fill: none;" version="1.1" viewBox="0 0 1000 1001" width="1000px" xmlns="http://www.w3.org/2000/svg" xmlns:xlink="http://www.w3.org/1999/xlink"><defs><style type="text/css"><![CDATA[path { fill-rule: evenodd; }]]></style></defs><metadata><views><view h="1001" padding="0" w="1000"><proj flip="auto" id="robinson" lon0="-80.977694809"/><bbox h="2.22" w="2.05" x="-1129.18" y="-598.44"/></view></views></metadata><g class="" id="mylayer"><path d="M580.309398,999.000000L580.492509,998.219389L581.178183,997.545921L588.998524,989.923460L604.227745,976.951402L617.772758,966.305804L629.774720,960.298007L635.731258,948.159879L637.869915,914.767993L642.154337,847.997086L647.332543,831.227313L655.499488,816.654055L671.953385,787.300413L712.682794,741.190599L749.067482,714.414978L766.415605,706.829224L800.465116,696.809230L806.410611,693.073721L811.635359,689.797488L811.779508,689.705631L811.944534,689.606119L812.172249,689.460678L812.627677,689.169797L828.640382,679.111403L834.006183,672.727271L837.158734,668.976388L844.095633,660.724411L846.967089,645.774278L847.769675,630.839297L843.881025,616.968224L837.266781,612.895676L817.140340,591.882061L816.718070,591.438054L816.451819,591.154808L809.935734,571.893958L811.007023,560.242395L811.037168,559.882588L811.327138,556.690257L820.481853,536.808838L833.252340,519.729124L859.454366,498.951465L877.002139,491.617201L896.591055,485.301129L915.023726,478.479741L930.297220,469.108892L944.032838,461.552452L957.740820,445.750408L958.428584,443.637331L959.654940,439.816941L957.902590,433.133148L952.493448,427.505875L952.246552,427.038849L948.445382,423.708411L945.189350,420.852650L938.698168,415.156424L929.514955,407.102045L918.262129,386.858712L915.058603,383.972253L896.740707,367.464967L884.750988,339.564472L876.085604,320.568249L875.839026,320.032278L872.702174,313.133546L871.877533,311.334204L871.486588,310.959022L823.245152,265.339222L827.066803,215.583089L811.285323,187.373423L811.394185,184.004155L811.870306,168.972531L811.872640,168.895956L812.400354,152.225455L812.416706,151.689423L812.789300,139.827750L812.798649,139.521443L812.868626,137.270088L807.921908,129.842124L807.886636,129.788520L798.213495,115.269424L790.113559,110.544561L791.544897,102.833125L795.408104,82.057230L797.268734,72.063564L798.212271,56.525386L786.091876,44.831444L766.490529,25.923365L763.036701,22.592027L747.027520,0.030633L744.740263,0.000000L741.305434,0.183801L739.122149,0.819445L735.912488,2.182634L734.316549,3.002078L732.759602,3.997664L730.299600,5.636551L728.685873,6.180293L726.896190,6.364093L725.594751,6.455993L723.813497,7.788543L723.186339,7.658352L722.571528,7.574110L721.165870,7.068660L719.728772,6.609160L717.526901,6.019468L716.916398,5.896934L716.330916,5.774401L714.959619,5.575284L712.843444,5.514017L707.342881,5.521675L706.548616,5.475725L705.546057,5.368509L704.079064,5.108125L702.670647,4.794133L694.827003,2.887203L692.987054,2.550235L692.040714,2.465993L691.079587,2.435360L689.607305,2.488969L687.560988,2.718719L683.447225,3.254804L678.828562,3.875131L658.913038,6.364093L651.676439,7.290752L641.525545,8.600326L633.796787,9.542300L631.633718,9.764392L625.276532,10.246866L614.711098,10.859531L611.926548,11.112256L609.127209,11.418588L607.063723,11.778529L604.985199,12.261003L602.914627,12.850692L600.762321,13.555256L598.204697,14.481911L595.772180,15.408565L593.598577,16.235660L592.241198,16.802373L590.841480,17.545227L589.481076,18.372321L588.592768,18.962009L587.923399,19.551696L587.291479,20.164357L586.688641,20.807652L586.116998,21.473921L585.582804,22.163164L584.540018,23.380827L583.790781,24.146652L583.012627,24.835895L582.475285,25.241782L581.618503,25.762542L580.716317,26.153112L579.804146,26.421151L580.696889,26.336910L581.557941,26.367543L582.108087,26.459442L583.918393,26.926594L587.374915,27.684760L589.262484,28.121279L590.114262,28.412291L591.480438,28.879443L592.544324,29.331278L593.355963,29.767797L594.138274,30.242607L594.882888,30.763366L595.585663,31.322415L596.766102,32.417539L597.877488,33.581587L599.783684,35.810122L605.363416,42.863299L605.934681,43.468293L606.558267,44.019680L607.234173,44.517460L607.958257,44.953974L611.335780,46.837876L618.251152,50.682255L619.626141,51.616545L620.482819,52.298117L620.958725,52.749945L621.401160,53.232406L621.793390,53.760815L622.305451,54.603206L622.708814,55.522177L622.992432,56.693864L623.093827,57.505621L623.128443,58.332694L623.014757,62.192360L623.042500,64.382562L623.196720,65.592533L623.492951,66.741239L623.929160,67.813363L624.293788,68.487270L627.913983,73.755982L628.693302,75.103790L629.805827,77.171446L631.348184,80.357163L633.342552,84.285694L635.696830,89.064245L637.518464,92.916174L638.825278,95.504543L639.621396,96.837015L640.642483,98.238407L641.012093,98.690221L641.828652,99.540245L643.125632,100.757845L644.495889,101.891208L647.206164,103.859276L653.113984,108.002165L665.589841,116.571247L666.005532,116.969452L666.223386,117.291079L666.391116,117.635679L666.530930,118.217669L666.618976,119.305073L666.607090,120.346529L666.484635,121.403300L666.245356,122.475385L666.139869,122.835300L665.858051,123.539812L665.540810,124.236667L664.982647,125.262804L654.211286,142.798920L653.688876,143.740810L653.004221,145.180447L652.610997,146.152966L652.267820,147.125485L651.985091,148.105660L651.752411,149.085836L651.441493,151.007896L649.903090,163.282988L649.501598,166.736535L649.167935,169.240544L648.974700,170.281965L648.581704,171.821124L648.160843,172.962090L647.841378,173.712525L647.305878,174.838175L646.266774,176.905694L644.778415,179.876791L644.419005,180.726768L644.138811,181.584403L643.933690,182.442037L643.809898,183.299671L643.761253,184.134331L643.812782,184.946019L643.949937,185.719420L644.178973,186.454533L644.489490,187.143701L645.645291,188.874277L649.118244,193.660151L649.491256,194.372288L649.749324,195.160998L649.875866,195.995653L649.881284,196.883908L649.831834,197.335693L649.689825,198.032513L649.573293,198.591500L649.458797,199.165802L648.556033,203.553463L648.408979,204.518287L648.243011,206.164612L648.218294,207.343839L648.341088,208.691526L648.509255,209.556802L649.059808,211.463470L653.723174,224.756475L654.113434,225.951002L654.644732,227.382902L655.582710,229.450348L656.377370,230.698471L656.973322,231.487162L657.627839,232.222252L658.326299,232.911399L666.156876,239.389363L670.266653,242.796792L670.971242,243.531876L671.386602,244.067875L671.762242,244.634503L672.052259,245.239415L672.374491,246.204212L672.505776,246.885696L672.574426,247.590150L672.547986,248.685116L672.445611,249.397226L672.293188,250.109336L672.084460,250.821446L671.825683,251.533556L671.518967,252.238008L671.158056,252.934802L670.596141,253.884280L669.509278,255.308495L667.804712,257.521387L662.264517,264.504606L654.197193,274.665439L619.165712,316.548461L616.537939,319.251291L615.443494,320.453398L614.305398,321.609564L613.127797,322.727445L611.904435,323.807042L610.643678,324.840698L610.091827,325.254160L608.380250,326.402666L606.596133,327.405693L605.380598,327.979945L601.331329,329.756296L595.222582,332.558639L593.683105,333.354932L592.178773,334.250761L590.722097,335.246126L589.037082,336.570727L587.650625,337.788133L586.910224,338.477230L585.410226,339.993243L584.489216,341.088141L583.599418,342.206007L582.753346,343.346843L581.940595,344.502990L580.894863,346.141503L579.561244,348.484419L576.288158,354.869996L576.072124,355.268137L575.199624,356.868354L573.926285,358.606388L573.262939,359.333758L572.166833,360.405671L570.914384,361.454614L568.282811,363.376398L564.834435,365.742257L560.313929,368.843133L558.688404,370.496931L554.126514,369.409712L549.615523,368.728286L546.848498,368.575156L546.247866,368.575156L544.047587,368.590469L541.194019,368.774225L514.575348,371.147731L509.034523,371.683683L500.583737,372.426360L499.313293,372.541207L498.086787,372.610115L494.682060,372.977625L486.220861,373.712644L478.779767,374.355786L476.224180,374.616105L460.942123,375.718633L460.257875,377.793527L459.672057,379.738259L458.675859,382.877387L456.281902,390.885963L453.896956,398.703086L449.318441,413.893145L447.195295,420.737807L446.957619,421.396241L446.275166,422.919824L445.819985,423.777317L445.396507,424.496998L444.005019,426.686665L442.453526,428.684925L441.461468,429.833349L438.998894,432.413471L427.779066,443.889982L417.351993,454.623767L412.916956,459.117846L409.894209,462.118995L403.113392,468.519384L397.909930,473.327313L396.259481,474.958024L395.003702,476.427959L394.564002,477.002152L394.136610,477.645248L393.773965,478.257720L393.316438,479.214707L393.038804,479.995608L392.889102,480.539176L392.236201,480.569799L391.608191,480.646358L381.842528,482.254093L380.926559,482.376587L379.727192,482.414867L378.378001,482.338308L378.027748,482.292373L376.914487,482.131599L370.682449,480.768852L369.113051,480.401370L368.112899,480.079823L367.746580,480.523864L367.327685,481.113367L366.790916,482.062696L365.663913,484.405393L363.895275,487.896464L363.063201,489.259204L361.580251,491.372214L358.367819,495.743686L357.035458,497.718882L356.053500,498.989744L355.112825,500.406064L353.159117,503.024338L349.317078,508.727873L347.872043,510.726019L346.417420,512.440900L345.476829,513.834240L333.501666,512.127016L316.612634,509.723118L316.044462,510.014036L316.096617,510.710707L315.615967,511.728919L315.647040,512.502146L316.174737,513.198816L316.197583,513.933764L316.161190,514.951973L315.598389,515.541462L315.498477,516.176885L315.608313,517.118535L314.871130,518.136742L314.665665,519.200882L314.795298,520.502347L314.520948,522.998094L315.118626,528.257523L307.130554,542.382094L302.270851,550.213706L299.435692,555.442413L295.892710,558.787856L292.588127,559.767756L290.485859,557.562981L288.126338,552.747679L283.952964,545.566802L281.894100,543.522771L280.380335,543.362005L279.647679,542.137116L276.170295,540.177292L275.025405,536.586826L274.106893,529.811615L273.247467,524.934975L270.170331,531.495852L270.211614,531.641308L270.200595,531.840354L269.921128,533.241331L269.340845,535.507388L269.046488,536.303569L268.553400,537.298796L268.044330,538.056698L267.778402,538.408855L267.422630,538.814600L267.073319,539.151445L266.563159,539.572502L263.893985,545.038569L235.708450,606.243312L231.670057,615.092710L228.914577,629.805861L227.242542,638.379530L219.315629,679.746753L215.097969,701.800099L214.069903,707.058864L213.844422,707.900877L213.643960,709.516009L210.123322,727.902362L203.271618,770.062992L202.517051,770.644721L197.243934,774.525454L191.009258,779.171603L190.566147,779.508391L173.341843,792.367501L171.381359,793.829452L165.610745,798.108137L163.497844,799.623661L161.349679,801.062641L159.797342,801.996447L157.821264,803.037410L155.816299,803.955907L154.012069,804.690703L152.713351,805.157605L152.274869,805.318342L149.276915,806.252144L148.581852,806.412881L147.550601,806.703738L146.521277,807.055827L145.612902,807.423224L144.977776,807.798276L144.599351,808.127403L144.275024,808.510108L144.013218,808.915776L142.699140,808.869851L139.870369,808.915776L138.662381,808.984663L136.415252,809.168361L134.971324,809.321443L133.518912,809.528104L131.989177,809.788343L127.785747,810.622640L123.861463,811.602364L121.671625,812.214691L119.746791,812.796402L117.830201,813.416382L116.009528,814.051671L115.943244,815.475329L115.623418,818.138942L115.538190,819.631482L115.569193,822.157315L115.800821,826.160368L116.001084,827.775363L116.152200,828.226949L116.597898,829.313816L117.658212,831.510511L118.247777,833.439312L118.317129,834.051630L118.331220,834.250633L118.443716,835.934504L118.553487,840.312560L118.664356,842.639353L118.910696,844.200752L119.329813,845.907573L120.411547,848.731859L120.709604,849.650325L120.843603,850.277943L120.914962,850.928522L120.938303,851.594409L120.907368,852.275603L120.822332,852.903220L120.531307,854.143145L120.079676,855.375415L119.477907,856.584723L118.749160,857.686875L117.978769,858.758412L116.474074,860.656560L115.710060,861.682172L115.039805,862.753705L114.455004,863.855853L114.201177,864.414580L113.648847,865.876455L113.137818,867.506711L111.791980,872.604119L111.614557,873.476647L111.495564,874.341520L111.437108,875.191085L111.443342,876.032996L111.465694,876.270262L111.516312,876.882560L112.032416,880.717073L112.589575,883.992855L112.634802,884.260735L112.809565,885.286328L112.958554,886.610415L113.176445,887.911538L113.615306,890.957695L113.777224,892.121049L114.217130,894.753900L114.500811,896.453004L115.211813,901.672763L116.045193,907.198644L116.219794,909.157953L116.201548,909.793198L116.118782,910.367213L115.863078,911.706583L115.448643,913.122486L115.188258,913.818956L114.911372,914.438892L114.508924,915.219550L114.071031,915.992555L113.593539,916.750252L113.195807,917.308958L111.827096,919.099877L109.142300,922.490370L104.716510,928.069741L103.383538,929.753497L101.642986,931.758695L100.283436,933.220498L97.106634,936.488501L93.682819,940.108553L89.495526,944.570463L87.289092,946.858813L76.505256,958.285197L75.407583,959.295429L74.820226,959.769931L73.601920,960.627097L72.323408,961.361809L71.001361,961.981723L68.435186,962.915420L56.773871,967.040513L53.086518,968.341561L50.543375,969.236987L49.079533,969.826284L47.625994,970.469153L43.306695,972.566130L40.345060,973.981970L43.772307,974.150340L52.429072,974.578918L58.628571,974.885045L73.391023,975.596791L81.461648,975.994756L100.955118,976.936096L101.647670,976.966708L112.770102,977.510083L117.204952,977.701412L120.271369,977.839169L125.738630,978.145296L127.050683,978.221827L129.122083,978.313665L136.034936,978.688670L137.305282,978.757548L144.243387,979.040715L144.612595,979.063675L146.861183,979.216738L154.208048,979.561130L161.369261,979.897869L178.968811,980.716755L191.057073,981.321354L193.514361,981.443804L195.790148,981.566255L199.286270,981.734624L203.800346,981.956565L244.577555,983.839236L244.756953,983.846889L244.867506,983.854542L248.152998,983.992298L267.634080,984.956592L269.957740,985.132614L273.504049,985.255064L273.627119,985.262717L273.731413,985.270370L276.065642,985.385167L277.640571,985.461698L296.306057,986.387725L301.867308,986.670891L334.350477,988.285697L336.081423,988.568861L336.886032,988.874985L337.419668,989.073966L344.355051,991.576527L344.538505,991.637752L347.102318,991.714283L357.755974,992.051019L392.397647,993.122450L398.624661,993.306124L400.698296,993.344389L408.830110,993.497450L411.383514,993.566328L413.407030,993.627553L414.754656,993.665818L415.649601,993.688777L419.825965,993.818880L426.612062,994.017859L434.870962,994.255105L445.228486,994.553574L446.484335,994.584187L457.065173,994.844391L463.840766,995.081636L464.443656,995.096942L471.219348,995.288269L472.191990,995.073983L496.228489,989.686214L524.994734,992.051019L525.574546,992.127549L542.124209,994.331635L558.771999,995.517861L569.769472,996.084187L580.309398,999.000000Z " data-aland="61740616" data-awater="22093104" data-classfp="U2" data-funcstat="S" data-geoid="3736511" data-intptlat="+35.5983590" data-intptlon="-080.9875431" data-lsad="57" data-mtfcc="G4210" data-name="Lake Norman of Catawba" data-namelsad="Lake Norman of Catawba CDP" data-pcicbsa="N" data-pcinecta="N" data-placefp="36511" data-placens="02403201" data-statefp="37"/></g><g fill="#000" font-family="Arial" font-size="12px" id="mylayer-label" stroke="none"><text text-anchor="middle" y="593.589716679"><tspan dy="0" x="543.289558226"><![CDATA[Lake Norman of Catawba]]></tspan></text></g></svg>