<?xml version="1.0" encoding="utf-8"?><!DOCTYPE svg  PUBLIC '-//W3C//DTD SVG 1.1//EN'  'http://www.w3.org/Graphics/SVG/1.1/DTD/svg11.dtd'><svg enable_background="new 0 0 1000 1001" height="1001px" pretty_print="False" style="stroke-linejoin: round; stroke:#000; fill: none;" version="1.1" viewBox="0 0 1000 1001" width="1000px" xmlns="http://www.w3.org/2000/svg" xmlns:xlink="http://www.w3.org/1999/xlink"><defs><style type="text/css"><![CDATA[path { fill-rule: evenodd; }]]></style></defs><metadata><views><view h="1001" padding="0" w="1000"><proj flip="auto" id="robinson" lon0="-83.3564595388"/><bbox h="0.74" w="0.73" x="-1176.01" y="-543.27"/></view></views></metadata><g class="" id="mylayer"><path d="M339.541889,0.000000L305.314821,27.577045L285.267208,43.588754L274.343158,52.414268L292.995286,78.688640L296.579831,84.010874L300.758249,90.568221L309.693423,100.673710L321.722463,115.427700L313.609544,118.504251L308.640589,120.390604L302.951123,122.726087L294.041946,126.251766L288.785778,128.744443L282.053418,131.753620L276.182875,134.650513L270.166101,137.749514L268.579324,138.625318L260.443342,142.757316L251.599587,147.585464L243.418590,152.413608L235.766049,157.174380L230.215534,160.969522L226.398498,163.462188L221.549088,167.032762L218.417725,169.435601L213.755925,172.938803L209.666653,176.127614L206.227873,178.844839L201.314999,182.886991L197.689900,185.963516L194.343584,188.837932L190.959399,191.712348L186.833084,195.417647L184.448190,197.640826L181.433497,200.402957L178.697587,202.962979L175.641052,205.814933L173.993852,207.521614L169.478195,211.788314L162.083459,219.176436L154.877171,227.013676L147.443203,235.075472L146.816917,235.749159L141.956371,241.071286L124.408733,262.876250L115.527796,275.721165L114.101682,277.674848L106.111741,290.070617L101.848327,296.987088L96.293150,305.924597L90.583391,315.468408L83.190417,326.786230L69.158471,351.218299L61.724598,365.073584L57.973095,372.731033L48.169451,392.761625L40.742355,410.973252L36.997153,420.314835L33.763734,428.466255L43.812991,441.265989L43.630232,442.725606L43.356759,445.060993L36.602459,439.020423L20.217274,452.112063L26.012010,458.871203L26.248523,460.914662L22.335108,481.910620L22.730174,483.257952L22.621531,488.512546L21.548449,494.059057L20.626753,495.743220L19.081175,523.498170L19.886433,536.163018L20.110366,539.890611L21.451717,552.532977L23.032852,566.612462L23.318749,567.645406L24.726155,577.503275L25.123071,578.917957L27.667543,587.361132L30.178146,595.714478L33.625436,607.525913L34.565105,610.377721L35.224573,612.174135L42.672812,629.464598L51.964752,646.283467L13.014658,675.991475L15.893704,679.853733L52.860841,729.793452L71.828514,753.460818L73.762319,755.459293L75.550345,757.435312L71.881119,761.207711L67.976750,765.159746L96.680169,808.968824L129.043141,782.809153L96.965188,742.435517L92.859527,737.068817L97.604684,733.161677L103.539194,728.154249L109.754452,721.821980L121.723976,709.628981L125.895984,717.039093L130.154872,722.473171L146.280090,742.951977L146.440660,744.254356L146.377730,744.501359L146.390552,744.748361L142.486403,747.510301L141.534383,748.273764L140.956188,748.610586L139.551042,749.665961L138.728036,750.294694L137.502997,751.237795L137.829870,751.664436L140.012253,754.471283L142.531183,757.592495L144.657144,755.863478L146.956109,753.752730L147.097945,753.865004L153.886152,747.959397L130.603797,716.028624L129.220999,714.097504L123.985516,707.293671L126.954676,704.262259L132.063706,710.819090L132.335528,711.313098L138.320431,719.486674L145.627451,729.681178L152.895462,724.494108L154.985342,722.832449L161.679905,717.443281L168.139328,712.233748L168.330878,712.076564L170.575548,713.895410L172.343629,715.354977L172.065716,726.851868L172.643078,731.275471L173.197965,735.564344L192.507357,743.917534L162.109211,767.270492L162.789797,767.944134L163.292055,768.797413L164.502722,770.661156L166.404249,773.827271L172.344019,783.145973L174.920067,787.232725L176.501244,789.500648L178.926685,789.792558L180.499757,791.274567L193.494814,810.069101L200.502504,819.657215L204.177417,814.672295L218.843978,830.772228L224.825620,820.151216L217.067064,814.402840L229.245154,791.723660L230.761266,788.894371L234.823266,794.508038L235.754631,795.832863L236.402699,796.708594L236.828372,795.855317L237.217948,795.069404L238.097896,793.250577L240.834603,787.636910L244.416962,780.339136L248.250255,772.502443L252.376306,764.037009L255.309742,757.502676L257.235590,753.213816L261.361112,744.007353L269.452588,750.900974L271.905270,752.944358L278.813165,758.760143L287.897620,766.439666L298.420252,774.792824L301.429277,771.604254L302.172415,772.255441L303.354293,773.265903L303.741940,773.602724L304.568329,774.298820L305.759485,775.421556L306.994239,776.521837L308.228993,777.622117L309.469469,778.699943L310.702447,779.732859L311.891832,780.788230L313.066220,781.753782L315.373183,783.774704L316.485041,784.762710L317.632997,785.683352L318.762016,786.603994L319.866378,787.547091L320.987900,788.422823L322.096205,789.276101L323.189514,790.039560L324.269604,790.780564L325.343976,791.544023L326.405130,792.285026L327.453066,793.003576L328.487785,793.699670L329.509285,794.373310L331.495475,795.720589L332.460163,796.394229L333.417353,797.022959L334.348107,797.606780L335.229546,798.235510L336.129923,798.864240L337.066398,799.425606L337.976436,799.942063L339.584636,800.840249L340.852335,801.513888L341.864563,802.075254L346.736693,791.274567L347.705955,792.599392L348.585232,793.385305L350.386633,788.692279L352.666695,785.391442L354.200281,785.615988L356.389314,787.951275L363.362779,794.328401L366.986792,796.978050L371.158993,799.111241L371.678196,798.931604L374.485470,800.772885L376.777720,800.323792L378.703147,798.415147L383.635738,789.904832L385.618878,789.702740L388.226333,788.759643L391.355275,786.289629L394.497310,781.686418L398.747792,776.746384L401.767437,773.962000L403.625258,772.839264L404.922309,772.951537L405.522601,772.973992L406.361072,774.366184L406.564042,780.855594L406.284175,785.077076L406.219876,788.377914L406.183539,790.825473L404.532172,796.416684L402.428204,800.885158L399.401625,805.555722L398.604988,807.419456L398.069544,809.373008L400.440475,816.199208L402.045889,816.513572L403.590276,815.952207L406.609496,813.392383L413.154893,805.241357L416.292443,802.142618L418.187480,800.278883L423.220607,797.247506L428.837782,796.012500L435.219483,796.237046L438.980898,797.157687L441.025709,798.572330L442.816723,801.132159L443.325512,801.513888L443.255444,806.027269L446.868930,807.082636L451.227805,799.560334L454.462783,793.699670L455.166833,796.214592L451.516311,810.473284L449.653165,815.929753L449.175403,816.244117L444.993578,817.568938L439.157397,818.399758L433.966607,818.332394L430.631085,817.524029L429.087356,818.826395L428.777784,820.488035L429.339178,824.529859L430.701127,826.618134L432.284904,829.694409L432.190416,831.850047L431.530233,834.814047L428.994947,841.348317L428.060441,843.009952L429.396054,843.863224L437.630922,849.229852L435.957468,851.116030L426.854340,845.143131L425.859085,846.894583L422.500062,849.970851L418.984633,851.430393L417.123651,852.193846L414.997535,852.957299L413.896898,854.304568L413.846843,854.798567L412.502907,855.539565L412.503877,857.246106L414.942886,858.526011L424.884761,863.510904L423.953163,864.566264L420.513367,868.405976L421.249065,869.012246L427.320107,873.952223L430.088222,875.501579L422.339257,884.438438L415.129187,892.746564L413.740203,894.408188L408.287605,899.235878L405.483243,901.324133L402.904033,902.379488L397.449818,902.379488L390.104017,899.842145L347.181921,937.430661L368.257508,969.944360L386.900088,999.000000L393.944399,993.498747L435.533243,961.142322L452.329774,947.984155L474.600611,930.582109L494.533137,915.223369L494.424345,902.783666L494.435491,899.393058L494.433904,890.995122L495.273297,877.881749L497.116368,852.126483L497.443049,843.481497L498.778545,822.621220L499.365908,813.325019L500.681587,803.400077L502.242942,796.079864L505.396821,785.481260L506.044103,783.460339L487.128829,782.404968L483.025407,782.157967L489.490984,771.941075L492.466478,767.248037L493.573631,765.429203L511.596344,765.676205L510.640204,768.909687L516.291444,769.920150L519.541141,771.065341L521.459740,773.198539L524.471937,777.060750L528.301558,782.472332L515.803929,787.300089L515.258262,796.506502L530.634931,785.728262L533.612480,789.949741L533.867579,790.286561L519.999308,799.380697L518.368773,800.503429L526.826381,807.374546L533.224557,812.516653L532.480922,813.280110L531.645340,815.817480L531.102819,817.501574L530.893830,822.486493L530.726139,824.260404L521.155243,825.181042L520.153493,834.320047L519.641906,839.080410L529.500516,837.104410L528.774789,844.267405L542.908729,842.830316L553.417369,839.417228L563.868380,830.727319L557.776508,822.374220L547.217877,807.913457L544.054822,803.602169L534.489247,791.117384L541.031456,785.952809L542.675587,784.627982L544.338657,783.303156L545.036548,782.719334L547.378572,780.810685L558.481613,793.430214L562.249168,798.639694L565.910990,803.669533L569.438954,801.491433L575.990685,797.404688L579.245645,795.406224L585.823817,791.364385L588.053229,789.972196L588.269793,789.568012L588.469574,789.006645L591.669130,787.300089L595.111315,785.458806L600.850790,782.404968L606.350781,795.832863L608.211083,794.328401L620.669673,784.448345L625.338298,780.765775L620.210316,772.569807L618.555783,769.920150L619.349109,768.887232L619.272327,768.370773L619.195545,767.854315L617.599665,756.200300L609.108747,760.242157L595.136719,766.843852L591.084575,768.774959L587.038150,770.683610L585.250117,770.863248L583.436398,770.548882L580.060905,765.361839L577.069424,761.566987L575.684267,759.793062L572.056306,757.233219L579.576495,741.537325L570.720355,738.685564L564.565079,736.754449L562.790656,733.386226L559.511784,728.266523L558.845788,727.907245L557.216515,727.166236L556.622330,726.896777L555.872703,726.717139L554.761098,726.694684L552.298047,727.368329L565.081218,701.792218L567.540795,703.139513L568.926413,703.498792L570.023320,701.051206L572.071989,702.376046L582.707864,707.608040L589.780215,710.325082L598.691309,713.109489L615.425455,715.961259L656.111489,722.473171L666.633114,724.808476L675.898007,727.839881L683.276641,730.916194L689.942023,734.711061L697.759339,739.336753L703.964157,743.378619L708.018712,746.791748L720.725095,758.692778L732.559800,769.852786L736.392536,773.467996L732.210197,778.587670L733.725097,780.967868L734.862479,787.210271L734.274241,789.074009L735.904005,788.400369L736.646886,788.086003L744.655775,797.314870L753.039548,789.231192L762.113707,780.518774L760.213093,774.298820L759.437640,769.089325L760.064526,739.336753L768.401261,718.723209L780.259119,702.353591L781.020296,701.298210L802.746220,673.992981L808.641519,667.278934L825.249704,648.394243L844.842680,626.118784L866.294110,599.150125L879.903157,582.376067L889.659206,569.576561L894.496415,562.705239L897.009109,557.450695L901.732529,549.613782L902.407755,547.929631L904.083499,543.730479L908.179676,535.085159L923.145522,536.252839L918.416322,519.433737L916.530293,520.444232L915.322298,518.198688L920.067178,509.014410L921.334629,506.566764L916.893119,505.938011L912.971779,505.646089L911.096297,511.372233L909.658774,515.751046L890.801004,527.629966L878.170144,509.418608L873.974773,503.512819L874.670426,499.964853L875.959420,497.135461L866.595512,495.833042L851.139281,475.780255L831.784174,452.673453L827.735269,446.565521L827.022340,447.059546L826.812137,446.026586L833.101666,441.557912L835.037556,444.364868L848.484329,433.137037L846.162227,430.285166L878.953720,405.269492L905.661762,383.914038L942.677293,355.327730L959.803508,342.146106L965.905936,337.520182L970.623520,344.346788L969.894856,346.165718L966.729345,354.945980L958.991411,376.615894L974.747330,378.322537L985.618748,345.694143L986.985342,341.966459L983.194081,342.056282L978.896708,331.277425L978.198162,330.154627L976.878584,327.976397L976.687873,327.684470L976.754783,327.347630L975.763195,323.956776L973.902383,321.598897L973.441262,321.104865L979.470983,309.854403L971.827827,299.053046L970.074275,306.081789L969.341687,308.956162L967.406793,316.770857L963.463134,316.344193L950.893214,315.288760L946.458592,327.190438L942.920291,334.758099L937.422968,339.833144L930.904845,344.975554L906.446389,365.230775L899.768471,370.777374L892.830752,376.526070L870.268489,394.468265L861.165257,402.844270L847.987550,414.947917L845.713181,417.036300L815.807024,441.355811L815.467809,440.457585L810.735861,444.387324L805.241257,449.080553L801.405355,451.797684L798.966988,452.448897L785.755689,456.064251L779.752412,457.254399L766.955817,459.836793L764.407366,460.622740L758.596171,462.396732L755.507812,463.294955L754.338624,463.721612L752.715899,464.664746L749.754091,466.775572L748.453293,467.718706L743.875531,461.902709L738.071559,454.582181L748.640934,446.992179L746.607797,444.566969L764.495291,430.330077L779.272615,418.563289L787.273820,412.208318L785.016509,409.176793L780.875853,403.652677L775.546494,396.848579L778.068848,394.827558L784.676378,389.483079L785.643408,388.809405L784.856731,387.215043L780.088057,380.366018L790.020391,373.269973L828.092708,345.963614L825.508234,341.764355L805.477158,315.895072L805.595068,313.649471L794.851715,298.222171L787.643640,287.869920L783.303954,281.716948L779.642503,276.394849L778.001595,273.992043L782.149461,270.646079L799.755566,256.476241L804.348268,256.139399L866.234104,252.119741L873.682647,251.648161L877.345139,245.674811L882.732716,245.562530L891.205137,245.382880L919.707189,242.845328L942.984996,239.184963L955.621122,237.231270L952.253443,232.762478L943.528460,220.636094L931.406546,208.464779L902.899415,185.694039L898.148277,181.898910L887.735375,173.275649L875.174903,162.900777L860.224584,143.183990L847.919671,127.352137L834.479016,108.623352L821.954513,91.129637L816.818678,83.943504L795.086071,53.626933L727.494024,106.534887L709.400306,120.682539L709.348626,117.246683L709.135934,111.991842L698.783050,115.090851L698.921377,109.499159L693.436002,111.183404L695.888203,99.191572L682.261245,80.305522L630.168626,121.737998L640.944457,136.806340L641.574989,137.749514L650.719997,151.268328L657.946013,145.654205L663.876377,153.289411L665.791380,155.804536L664.956831,156.478230L647.463926,170.423684L638.974456,177.205522L632.394981,182.437863L623.602736,171.321941L615.658676,161.261456L608.762669,152.660629L603.889196,145.856313L600.641406,141.365013L597.444713,136.896166L589.826734,127.711442L589.265771,127.015289L586.270871,122.052390L575.431042,106.939106L571.748806,101.998650L567.177190,95.867990L537.801221,118.167403L508.613403,140.174817L501.862147,131.304489L494.487939,121.535889L483.811161,107.343325L481.320420,104.042203L477.018773,98.338220L476.277115,98.944549L475.899681,99.236485L475.125879,99.820358L465.014908,107.612804L456.942655,96.721342L450.146616,102.133390L443.347078,107.410695L438.360722,111.295687L436.410243,108.623352L434.308755,105.726449L432.325152,107.118759L429.892998,103.885007L424.026218,108.623352L422.272589,105.995928L428.411957,101.302495L423.654770,94.340938L417.115983,98.967006L415.654698,96.900995L414.395510,95.082007L417.159510,87.289548L412.430167,86.009518L407.223785,85.560385L403.359141,85.493015L409.831054,72.221111L415.243442,59.465690L416.247830,57.309842L408.465752,57.085274L405.123847,56.972990L379.062337,56.254374L373.814062,48.843642L364.271240,35.257280L363.865331,34.695860L339.541889,0.000000L339.541889,0.000000Z M818.372083,471.940354L818.522214,471.648431L820.918882,468.931307L826.697556,476.723388L823.602557,480.248910L822.025997,477.666522L821.129136,476.206911L819.325749,473.399966L818.372083,471.940354Z M760.113253,407.919271L755.056411,400.194489L769.469299,388.966595L775.036461,396.174905L775.363269,396.601565L774.062450,397.544708L768.081516,401.990951L760.113253,407.919271Z M726.718508,230.404572L738.723157,231.819316L743.889650,232.425634L756.618726,234.267047L743.757034,243.047433L738.863993,245.899373L738.556170,245.472705L726.718508,230.404572Z M712.425966,490.421265L712.818739,489.994610L722.427420,487.883791L721.611630,489.747599L728.624181,493.812047L726.999155,497.068094L726.153809,498.527702L725.352060,499.964853L722.838223,502.547234L720.609113,503.714919L718.070330,504.388583L714.397504,504.905059L709.302222,505.578723L709.465976,505.084703L709.692670,504.343672L710.176440,502.816699L710.725051,498.954356L712.425966,490.421265Z M659.752454,506.140110L659.507908,505.241891L662.281979,505.354168L662.552410,505.556268L663.562340,506.274843L663.627598,506.836229L663.680050,507.150606L665.690101,507.734448L667.100845,508.812310L668.396196,509.822806L668.651642,509.935083L671.594251,512.135718L673.093962,513.236035L674.142303,511.574332L675.500864,511.147678L676.073741,510.608747L685.371527,502.434956L686.902568,504.006840L692.365181,509.620707L683.918347,515.346848L681.739916,516.761540L681.169219,517.143283L679.536827,518.198688L675.303261,520.915796L664.967744,524.912861L663.964859,521.342449L661.789904,513.527956L660.674240,509.508430L659.887738,506.723952L659.752454,506.140110Z M718.490623,429.095014L734.343385,416.452451L737.886041,413.623029L745.724759,424.401774L748.960347,428.870457L747.111306,430.330077L738.404660,437.223970L729.870638,443.960667L718.490623,429.095014Z M689.118148,436.011364L681.075508,424.918255L698.398276,411.040619L702.441641,407.806992L699.770803,404.169160L694.325220,396.781211L702.681485,389.999562L705.160273,388.000996L706.325936,387.439601L714.773825,397.387517L716.265447,397.701898L716.872264,397.252783L718.388885,396.354551L724.639342,396.646476L726.261333,397.118048L727.597085,397.746810L714.932394,407.762081L707.065849,413.959865L710.636096,418.675568L694.037786,432.014253L689.118148,436.011364Z M510.919218,686.702499L510.409464,685.804300L511.800575,685.175561L534.234225,669.816350L534.750956,660.205601L536.840236,664.269961L545.808987,679.539363L554.299180,689.105179L561.834382,695.729388L565.212851,697.929971L563.480948,700.714382L562.174332,702.870054L547.350461,729.097352L539.621220,727.323419L534.736930,728.580891L532.012934,730.130275L527.380031,732.779945L525.625529,736.619720L522.216701,743.311254L516.620442,763.498095L512.244025,763.430731L515.764122,751.394979L515.833136,750.900974L518.415341,735.856257L518.347364,733.520955L518.152971,727.592878L517.897369,719.823497L514.562602,697.750332L510.919218,686.702499Z M641.409731,556.574937L643.386623,548.221551L663.922599,538.453467L661.611155,528.573093L672.678942,523.857457L677.364412,521.522092L678.858116,520.713697L680.283565,519.950212L683.050263,517.861857L686.248970,515.638768L689.039922,513.752511L691.602815,512.315362L693.779067,511.057856L696.294821,509.508430L705.363198,507.734448L708.852377,507.195517L710.977682,506.881140L717.678256,506.521853L720.720439,506.027832L723.798985,504.276305L724.546649,503.422997L725.643488,502.165490L726.305733,501.424459L727.194672,499.942397L728.015358,498.505246L729.729752,495.047099L732.854339,488.804467L735.881669,482.943574L737.179607,480.451009L738.447166,478.003355L739.119911,476.700933L740.701219,475.623066L741.836485,475.106588L749.719731,470.031630L757.001900,465.383325L768.576867,462.913210L785.871052,459.252948L801.404095,455.592684L802.498354,454.716915L803.727352,453.683956L815.430840,444.095401L816.375788,443.062441L822.692317,449.709310L821.196023,450.899459L793.129973,471.491242L761.669792,494.553078L763.366920,496.439340L763.554111,496.596529L759.091694,500.211863L758.624586,504.051751L753.359836,505.241891L751.692320,515.279481L751.005648,520.129856L747.199295,520.129856L745.676903,528.483272L742.320139,546.043381L741.903465,548.199095L718.653087,551.006014L700.382031,552.330879L699.883943,552.353334L692.436882,552.892262L657.118311,578.760770L656.145593,579.456883L656.080533,577.705373L654.781006,575.819130L649.722582,568.543618L646.953525,564.546575L643.266467,559.247121L641.409731,556.574937Z "/></g><g fill="#000" font-family="Arial" font-size="12px" id="mylayer-label" stroke="none"><text text-anchor="middle" y="449.1985916"><tspan dy="0" x="453.201019771"><![CDATA[N]]></tspan></text></g></svg>