<?xml version="1.0" encoding="utf-8"?><!DOCTYPE svg  PUBLIC '-//W3C//DTD SVG 1.1//EN'  'http://www.w3.org/Graphics/SVG/1.1/DTD/svg11.dtd'><svg enable_background="new 0 0 1000 1001" height="1001px" pretty_print="False" style="stroke-linejoin: round; stroke:#000; fill: none;" version="1.1" viewBox="0 0 1000 1001" width="1000px" xmlns="http://www.w3.org/2000/svg" xmlns:xlink="http://www.w3.org/1999/xlink"><defs><style type="text/css"><![CDATA[path { fill-rule: evenodd; }]]></style></defs><metadata><views><view h="1001" padding="0" w="1000"><proj flip="auto" id="robinson" lon0="-84.0938694684"/><bbox h="0.24" w="0.26" x="-1184.21" y="-551.02"/></view></views></metadata><g class="" id="mylayer"><path d="M1000.000000,323.252386L994.526362,275.107769L992.131690,254.719307L974.660126,212.227385L949.253507,189.615794L912.251914,156.460540L894.314556,138.549054L880.857950,128.386500L813.294918,76.811440L775.756901,59.344480L748.229968,46.450676L735.041923,48.292649L733.657393,48.483198L729.443603,48.673747L728.055664,48.673747L724.081898,48.356165L717.272051,47.657486L712.050426,47.212872L708.073250,46.704741L606.040042,47.593970L592.247733,48.483198L510.754961,53.691533L412.132916,94.087832L318.819026,125.845860L239.166399,189.171184L236.111125,191.457751L216.182369,216.355902L157.779730,270.915751L141.895459,297.084089L133.956979,310.866910L124.584842,327.063299L112.914634,353.041003L106.444518,367.331898L94.279083,397.438010L82.351254,428.877879L67.754082,467.240790L49.210988,537.551389L43.614162,607.353576L40.136753,612.879305L29.994500,628.757827L18.755674,646.986351L0.000000,665.786481L0.718943,669.152718L4.962137,688.397419L5.152653,689.096071L19.758432,727.458378L32.036507,747.211120L38.684704,757.690861L42.018652,765.947622L104.194022,842.989355L113.857434,850.928508L157.424855,886.749917L212.494733,917.998316L219.146520,921.745580L276.872341,952.231760L371.707807,952.549324L423.671032,951.660144L478.106613,950.707452L536.441614,942.006193L544.139983,937.687318L546.724859,935.972471L554.352627,930.700901L556.900765,928.922540L596.855803,910.503787L600.938901,908.979475L666.788516,883.828315L729.773893,838.035322L758.436626,817.075935L769.199884,804.119210L777.825998,794.020579L803.560899,763.661135L812.096937,753.498965L819.655963,744.416521L856.547090,717.931323L870.539621,697.543408L949.481465,582.328986L965.860608,523.514699L975.323111,476.831503L978.378603,461.715012L988.000893,399.152914L996.919543,342.942096L997.654750,338.305489L1000.000000,323.252386Z "/></g><g fill="#000" font-family="Arial" font-size="12px" id="mylayer-label" stroke="none"><text text-anchor="middle" y="492.31646899"><tspan dy="0" x="509.988414533"><![CDATA[N]]></tspan></text></g></svg>