<?xml version="1.0" encoding="utf-8"?><!DOCTYPE svg  PUBLIC '-//W3C//DTD SVG 1.1//EN'  'http://www.w3.org/Graphics/SVG/1.1/DTD/svg11.dtd'><svg enable_background="new 0 0 1000 1001" height="1001px" pretty_print="False" style="stroke-linejoin: round; stroke:#000; fill: none;" version="1.1" viewBox="0 0 1000 1001" width="1000px" xmlns="http://www.w3.org/2000/svg" xmlns:xlink="http://www.w3.org/1999/xlink"><defs><style type="text/css"><![CDATA[path { fill-rule: evenodd; }]]></style></defs><metadata><views><view h="1001" padding="0" w="1000"><proj flip="auto" id="robinson" lon0="-82.8965449559"/><bbox h="0.49" w="0.5" x="-1164.43" y="-562.74"/></view></views></metadata><g class="" id="mylayer"><path d="M1000.000000,381.105039L998.436900,355.428716L997.815273,345.144802L993.188154,312.189419L987.876842,282.973509L979.327332,247.346609L972.346570,228.848589L966.707776,214.023422L940.278982,176.593058L878.913716,103.100676L874.313024,97.724780L858.695035,85.603953L832.233055,65.769823L798.407975,47.505004L796.121045,46.870576L774.670682,40.225774L753.855422,33.080100L735.306321,27.804317L700.387944,21.025930L683.271995,17.920559L666.679067,15.683355L644.419782,15.349444L620.491811,15.416226L596.145771,16.217613L579.153804,16.852044L551.923834,19.690287L509.396136,27.503797L497.378205,32.946536L485.368701,37.621277L474.189605,39.691518L460.825919,40.426120L454.169748,41.327676L446.220416,42.897052L435.960208,46.236148L419.574677,56.153252L416.932555,57.488888L347.700597,91.714456L327.892181,101.598097L299.074980,118.727479L271.453927,138.394490L246.504694,157.560584L226.811847,176.158985L200.670515,199.398561L177.616001,220.467700L142.466200,255.159836L140.095605,258.732548L112.905013,298.866981L89.107267,331.154645L72.485903,360.370332L71.713160,361.705903L57.129646,390.287054L45.797432,417.866406L30.289784,453.826226L19.827933,486.647314L9.734418,523.341287L1.509400,559.934882L0.000000,590.985849L0.577569,613.956790L1.063503,644.640226L1.905339,652.619898L4.211126,672.652503L7.880089,688.912255L13.123012,711.548964L14.587960,718.126282L18.081928,732.416065L22.437144,749.877603L23.949914,755.853911L34.082528,784.466662L34.998948,786.903915L46.083169,810.875749L72.714080,843.461272L91.013600,866.531453L140.260862,915.275699L152.564182,924.757413L153.855852,925.358366L161.162146,929.164402L165.535993,931.401281L184.496654,940.716040L188.036854,942.518895L192.846265,945.323335L204.076642,951.800251L220.604467,960.714346L238.252701,963.084759L252.241524,967.892354L277.837966,976.806427L282.146582,978.342183L287.574729,979.443921L293.870593,980.745975L313.574218,981.046449L317.769881,981.113221L331.828246,981.447081L355.352545,983.650556L388.620458,982.148187L425.389181,982.281731L465.125763,974.269089L486.935664,968.727005L539.022936,956.541082L585.091887,938.846412L630.280803,920.049944L655.422543,906.461699L676.751127,894.943385L717.838930,868.668195L755.264735,839.154383L800.399340,801.293704L842.333639,758.558273L867.056827,727.808615L893.666965,690.781957L912.558247,662.035231L935.537676,614.390833L937.201791,611.586246L940.681821,605.509637L945.068468,597.696845L949.629646,586.278132L951.554598,581.436859L972.826300,533.291026L986.894512,486.113096L999.132643,420.370578L999.741617,393.024961L1000.000000,381.105039Z " data-aland="8068159" data-awater="54841" data-classfp="C1" data-funcstat="A" data-geoid="1320316" data-intptlat="+33.5546410" data-intptlon="-082.8966948" data-lsad="25" data-mtfcc="G4110" data-name="Crawfordville" data-namelsad="Crawfordville city" data-pcicbsa="N" data-pcinecta="N" data-placefp="20316" data-placens="02404146" data-statefp="13"/></g><g fill="#000" font-family="Arial" font-size="12px" id="mylayer-label" stroke="none"><text text-anchor="middle" y="493.492998375"><tspan dy="0" x="499.437293511"><![CDATA[Crawfordville]]></tspan></text></g></svg>