<?xml version="1.0" encoding="utf-8"?><!DOCTYPE svg  PUBLIC '-//W3C//DTD SVG 1.1//EN'  'http://www.w3.org/Graphics/SVG/1.1/DTD/svg11.dtd'><svg enable_background="new 0 0 1000 1001" height="1001px" pretty_print="False" style="stroke-linejoin: round; stroke:#000; fill: none;" version="1.1" viewBox="0 0 1000 1001" width="1000px" xmlns="http://www.w3.org/2000/svg" xmlns:xlink="http://www.w3.org/1999/xlink"><defs><style type="text/css"><![CDATA[path { fill-rule: evenodd; }]]></style></defs><metadata><views><view h="1001" padding="0" w="1000"><proj flip="auto" id="robinson" lon0="-81.0509034814"/><bbox h="1.95" w="1.63" x="-1145.93" y="-536.35"/></view></views></metadata><g class="" id="mylayer"><path d="M362.291099,999.000000L364.946145,989.865758L369.451544,976.562435L373.836801,968.327027L394.790501,940.427551L399.825770,927.808956L407.927784,915.712539L415.970863,909.206315L424.331617,906.646627L435.776713,905.670692L447.658201,903.461996L457.733522,897.323872L484.700719,862.575263L490.052560,857.344544L498.288541,852.969912L505.867217,850.470120L509.020044,846.514968L513.859806,840.171308L515.753641,838.989897L520.606864,838.921409L525.708335,836.336001L530.473926,834.658053L528.915286,833.262616L524.384175,831.584667L521.477476,831.807253L517.835221,834.675175L518.574942,833.236934L521.659363,825.831695L523.297073,820.541009L528.728570,815.490025L530.314863,812.322456L531.181005,802.331758L531.618737,797.392048L530.734614,794.798056L528.689333,794.096051L526.934408,794.883666L524.893071,793.239948L524.631569,793.034483L520.920657,791.587668L521.501226,790.089486L522.043013,786.870534L524.568935,785.620621L527.859654,785.038470L531.648416,783.865606L535.310808,781.751026L536.288945,778.703289L535.465878,777.290714L533.771876,777.051004L532.776905,775.869577L534.242615,771.289404L534.962115,768.352955L533.668460,766.940377L532.065221,765.878802L531.042832,765.288088L531.699052,762.582784L531.782344,762.000630L534.192557,759.526474L535.496195,758.002599L536.701432,758.824464L536.622793,761.058910L538.139252,762.000630L540.869600,758.952880L541.355545,756.949583L544.010842,757.822816L545.126616,759.192591L543.527742,766.769155L545.628653,767.659508L552.487434,766.306857L553.347111,766.135635L558.208721,765.793192L561.264466,764.269318L563.403871,759.329569L563.635160,758.644681L565.043619,754.509669L569.348819,746.402296L574.039553,738.645916L577.293077,735.829302L580.463070,733.834556L583.486824,735.486856L592.921945,733.123981L596.316144,731.368947L601.515726,729.065998L603.822409,728.869091L605.166739,730.221753L605.683089,733.226715L603.445630,742.241590L603.747973,744.099355L604.967073,745.580429L607.435131,746.479346L622.264583,740.323898L624.475017,736.882322L624.513369,733.500672L618.135289,725.410385L618.749840,719.862752L622.437911,714.777415L626.112632,712.791222L628.274852,712.234745L635.625381,713.510361L641.485327,718.184762L644.583875,739.228073L646.991285,741.959073L651.979917,741.779289L667.958778,736.317287L677.219409,735.777935L681.756788,735.906352L679.212126,731.711393L679.119181,731.557292L677.144672,727.131177L680.663134,721.848942L694.793037,708.339406L699.760124,698.220070L700.054517,694.350403L697.089699,691.739232L683.960368,691.841967L674.361611,693.477159L666.730227,693.896659L663.830899,693.074782L661.193999,691.499518L659.474687,689.753029L657.612419,684.119741L657.375319,677.219382L657.063247,672.895951L656.151482,671.431977L651.465062,669.531378L639.551317,672.442205L636.770604,671.997020L637.213917,670.378942L638.322282,666.766090L638.572009,663.350144L638.880490,661.124213L640.313457,654.771743L640.581460,654.651885L640.559599,650.893478L642.027996,646.304623L642.016544,643.487954L641.536174,642.006847L641.511887,641.510291L640.741345,638.659374L639.857280,636.544728L638.021067,635.012252L640.974629,631.493546L644.663184,628.317292L647.392332,624.798582L649.179080,624.267779L649.778104,624.096552L651.682458,620.098403L653.950848,618.925498L654.179158,617.298841L654.403382,615.629376L655.758690,612.461672L658.557397,611.519922L661.538584,607.410464L663.187947,603.061284L663.844656,600.355887L666.108458,597.770347L670.883063,597.308032L677.439213,589.089088L679.006667,584.988172L674.543078,586.614840L662.843236,591.537650L658.017104,593.643755L655.379738,597.290909L653.524685,600.578483L650.349916,601.160657L647.055701,601.280517L645.996759,598.455259L639.982050,602.564724L636.606232,603.497915L637.003732,601.383253L639.848266,599.268591L642.471426,598.095680L644.407530,595.398841L647.917599,591.049650L651.548087,588.113087L657.460324,585.887120L662.021694,582.008798L663.727680,579.782828L667.828761,576.846259L670.828526,575.553482L672.710071,573.558668L682.577789,576.152783L688.996135,578.044859L696.883251,575.348008L698.595349,574.080916L699.582855,573.353194L701.567454,573.438808L702.587170,573.473054L710.565579,572.308698L712.665631,571.829258L715.633645,571.144342L716.316148,570.331005L719.404481,566.675268L721.054851,562.471594L721.570407,561.153130L723.595361,558.567568L725.916862,556.221726L727.126457,552.223519L726.212592,549.278370L722.208666,547.043823L717.312281,545.622616L713.430226,545.271595L709.353700,546.675679L701.411950,550.074588L696.565953,548.893103L695.692409,547.720180L698.514484,547.129438L699.473911,546.547256L702.207175,545.845214L704.193821,546.786978L705.976623,546.093498L710.307113,544.209970L716.274811,543.156906L723.540171,544.929135L727.901842,548.105447L729.902101,553.285142L733.567660,558.344970L734.964904,558.344970L736.442003,555.511124L736.746207,555.391264L737.107182,555.365579L738.161151,555.288526L737.906450,557.291910L737.970717,558.935711L743.053039,555.297088L752.122105,549.192755L759.988831,547.086630L767.804996,547.514704L768.733669,547.566073L772.733368,548.148254L774.475746,548.396537L784.616915,547.001015L792.600362,546.769855L797.086538,547.018138L806.810770,550.203010L822.531143,540.228875L822.425088,538.936088L821.679695,538.696366L820.955880,538.576505L815.180521,538.807666L814.368174,538.336783L808.215264,537.737478L799.813417,535.845385L788.580790,534.073153L782.191713,532.061198L773.130294,525.699989L767.913831,517.934678L764.622199,511.813173L761.468569,510.400517L753.131086,510.152231L743.642713,512.258373L733.190034,516.367916L725.231921,514.587115L714.625928,509.758400L710.958778,510.460447L710.705096,510.700171L708.754533,508.268689L706.442519,507.891980L697.320809,507.891980L696.377661,507.035824L697.033569,505.229335L696.303832,504.090647L697.419814,499.972531L702.404821,493.397238L708.574312,483.405856L713.077796,479.767172L719.393723,477.309989L723.634875,474.989790L726.257398,473.551438L732.598076,469.561719L735.742204,468.628501L736.464843,468.037749L737.540130,467.455558L753.113690,459.013778L754.241969,458.243229L764.599424,451.128490L775.844926,444.262029L778.906527,442.387021L779.748000,441.873320L779.935620,441.547976L781.364033,439.065087L781.366112,439.056525L785.655550,431.590727L787.938161,427.618095L793.453413,424.553001L795.076211,423.654021L782.467189,416.376555L779.706851,412.720694L780.221963,407.412413L780.752999,406.299386L782.960358,403.739422L784.887717,403.225716L787.995222,404.081892L792.262759,408.148724L795.493600,409.569973L802.892020,409.569973L805.108499,407.121314L807.219138,404.184633L807.758972,399.698271L807.534750,392.874541L806.842667,389.347088L806.276257,385.451475L806.907758,380.588375L809.070563,369.423775L808.837174,364.158252L808.299660,362.557189L810.559227,361.153048L812.252896,361.332847L813.909766,361.932175L815.199567,361.778062L816.198159,361.332847L820.778855,353.147723L822.029342,352.291538L821.587901,351.486724L820.902730,349.748667L821.899331,349.252079L823.345732,346.666397L823.567027,343.849543L823.675966,341.495028L826.626382,336.563385L828.921325,334.328733L830.871545,333.035888L833.992718,333.626658L834.217125,333.626658L836.437395,333.635220L837.685436,332.342375L837.562758,329.987854L837.555661,328.498084L837.531558,322.461941L835.869175,316.614152L835.794070,316.357294L836.154103,312.821219L837.456557,311.125956L839.404543,308.591624L839.641617,308.420385L842.104557,306.596692L846.071446,306.596692L847.974986,308.831358L850.015981,309.071092L852.313685,307.778240L854.236143,307.076160L856.339483,308.488880L858.943415,312.607170L861.314074,314.379490L880.629871,285.363027L879.236692,281.475885L900.597456,192.824155L915.406851,169.791879L918.784769,164.534681L894.398774,151.203289L888.870173,130.876476L886.273307,133.428036L871.205556,142.581102L868.602671,147.983884L866.054816,152.684557L862.980409,155.741276L858.990431,157.265353L856.014619,156.554688L854.372511,154.200073L855.731648,151.023482L857.906649,147.855451L863.310803,142.452668L867.308270,136.108028L869.995053,128.932838L871.838480,123.290287L873.579489,120.002363L877.734311,118.247090L885.419180,115.430090L891.300062,112.381905L894.457567,108.032245L894.467618,101.327937L891.040045,97.209449L879.959200,93.904380L862.895473,91.181550L860.682667,91.172988L862.919847,89.177957L867.024482,87.182926L875.532110,86.249627L879.254094,84.845398L879.833508,82.970238L879.242426,81.086515L877.578312,80.726894L873.477326,81.309136L869.713254,81.429010L865.946491,79.656597L867.043949,76.128893L869.897813,74.484913L872.945693,72.489875L873.025198,69.784156L873.110644,69.433098L870.888662,66.607503L867.513639,63.850406L866.711449,63.191100L866.608415,60.254190L867.276619,58.490331L869.372136,57.077530L872.078506,57.437152L874.704305,57.205967L875.749119,55.322232L875.733915,52.976125L873.716539,50.261831L871.843255,47.907159L872.041011,46.143295L874.548654,44.970239L877.638850,45.209987L879.206713,44.507866L880.602489,44.036931L881.446774,43.214936L882.291059,42.392940L883.937376,38.514144L885.701848,35.577218L889.717828,33.470849L892.332879,31.826853L893.408086,30.294169L892.845420,28.770047L888.952869,23.709615L884.769017,17.467552L883.670497,15.558112L882.699790,15.977675L881.965169,15.695112L881.323446,14.436423L880.699715,14.025422L880.463909,12.467044L880.567560,12.338606L881.511329,12.475607L882.001074,12.663982L882.973328,13.040733L883.815556,12.227294L884.559548,10.360664L885.994893,9.221849L885.492832,8.459784L883.980276,10.480539L882.708968,11.807730L881.634870,11.165541L881.722620,10.180851L882.378866,9.298911L885.144726,6.173589L887.256269,3.476391L881.591490,7.449406L877.036380,7.637781L872.222701,0.000000L870.242137,0.762066L867.999786,1.618320L862.856655,4.786459L820.631138,21.697428L798.391929,30.602419L792.396301,32.426227L744.584469,52.154131L738.107372,54.825611L728.518492,86.155441L686.395181,121.706261L667.750806,136.450519L647.864770,141.039895L638.924611,142.024555L639.101944,147.333153L638.548043,151.066293L637.314950,156.400568L638.116213,158.729494L642.934472,160.108013L648.508048,160.108013L655.624104,163.704146L659.070356,168.995594L659.570851,174.732270L657.681179,180.742928L655.051303,185.512063L649.988783,190.580868L640.372872,194.699268L625.425152,201.215066L621.388835,203.732336L617.399912,208.107587L612.122768,214.118200L602.019289,226.815806L598.834090,230.506067L597.614571,232.483909L596.924985,234.187764L595.935720,237.569784L593.923882,240.275399L582.798052,248.101124L580.745034,248.298051L577.536823,249.762162L572.095947,254.274360L557.738538,256.072389L549.320177,255.327492L544.117370,254.873703L540.423801,257.142644L540.070919,256.688856L534.503534,257.168330L532.868618,277.785666L520.265372,294.721263L501.221204,313.317811L489.698920,324.054456L482.389696,332.291003L467.065975,346.931815L460.047524,362.933910L454.548383,381.025027L442.778703,395.639994L440.086307,397.960233L428.640026,405.468896L411.639121,414.415918L381.786027,422.361202L374.658729,424.253341L359.255664,425.674586L350.751385,426.530757L332.381223,441.496606L332.741719,458.268914L340.122744,478.594231L344.248262,489.946917L344.037141,514.081983L343.134317,520.717178L342.185129,528.020162L352.952666,557.600123L350.412501,586.923051L348.399356,593.780737L346.428861,600.492869L340.106427,610.398383L337.884631,613.882858L316.185291,625.218088L284.651122,617.547120L281.753470,614.841731L265.425644,602.838688L247.075321,595.467332L228.598040,588.053158L219.316032,588.592526L210.039180,589.140456L187.996687,590.441790L150.373106,592.642071L110.570464,615.312606L99.279658,629.156303L81.215231,636.998478L111.253193,655.508013L129.592838,654.728936L138.497641,652.494440L143.991059,649.729142L149.679350,648.248038L164.788724,647.623063L176.658362,644.866324L176.665602,644.866324L177.426015,644.686536L192.640775,638.411095L194.807632,637.537841L199.664693,635.782771L203.799696,634.138996L209.075606,634.027699L211.118404,634.738289L215.721163,634.507133L220.039916,636.399186L221.971915,638.042959L223.996560,641.690079L225.899470,643.453708L229.494736,644.986182L230.877762,649.814755L232.895057,651.107511L236.015298,651.227369L237.795866,651.586943L239.001024,654.763182L238.604835,657.348689L238.676496,661.346806L239.684877,663.932311L238.792025,667.579410L236.561592,671.457661L236.598214,673.692148L238.004269,674.163017L240.911719,673.221279L246.170585,668.409852L250.558225,664.771315L253.993898,664.069291L255.898411,666.303782L256.649355,672.305225L257.170758,678.298099L256.930224,684.059812L256.015645,687.826753L258.580121,688.297621L263.015560,689.710223L265.939369,691.593691L266.684473,695.711636L267.982362,698.536835L272.506122,700.540157L274.200016,700.779870L275.851447,699.255976L279.396842,696.670491L280.063910,694.906882L279.728531,692.441252L281.329569,690.677641L283.018291,690.908794L286.083453,692.210099L287.083252,694.324719L286.012004,696.798910L283.080623,698.793671L277.262139,701.139441L275.143177,703.605066L275.219799,709.015740L273.748573,712.183378L271.977702,713.244964L268.772161,713.476116L264.864007,712.157694L262.047267,715.231158L259.143921,718.989512L258.134538,721.686280L259.101704,723.458441L260.739512,723.929304L263.795492,722.405418L269.989035,719.468938L275.084905,717.713898L280.071776,717.243034L284.115091,717.020443L289.781209,718.672749L292.872937,719.417571L293.194519,719.494621L296.182340,723.501246L299.998560,726.660314L300.795811,727.790386L305.233796,734.682109L306.502532,736.942250L304.552546,740.144114L304.991471,750.537315L305.587432,750.348971L308.371006,759.047052L319.914053,759.963090L337.649583,753.799097L365.042534,758.678925L369.280752,764.217952L386.308310,779.353930L385.388883,785.680548L383.934921,795.106253L377.988666,813.769265L360.985093,840.051455L353.456054,858.945436L352.948115,871.161848L341.886613,896.176718L338.170096,900.037660L321.342510,909.505944L311.462686,917.912668L302.782954,928.776326L299.856185,936.130041L299.813674,941.711666L308.495802,966.503592L310.659165,974.696200L311.409943,976.468267L321.689718,988.847036L347.563360,995.353154L352.605311,996.628694L356.867517,997.596050L359.597976,998.220979L362.291099,999.000000Z "/></g><g fill="#000" font-family="Arial" font-size="12px" id="mylayer-label" stroke="none"><text text-anchor="middle" y="476.738763982"><tspan dy="0" x="569.26390559"><![CDATA[N]]></tspan></text></g></svg>