<?xml version="1.0" encoding="utf-8"?><!DOCTYPE svg  PUBLIC '-//W3C//DTD SVG 1.1//EN'  'http://www.w3.org/Graphics/SVG/1.1/DTD/svg11.dtd'><svg enable_background="new 0 0 1000 1001" height="1001px" pretty_print="False" style="stroke-linejoin: round; stroke:#000; fill: none;" version="1.1" viewBox="0 0 1000 1001" width="1000px" xmlns="http://www.w3.org/2000/svg" xmlns:xlink="http://www.w3.org/1999/xlink"><defs><style type="text/css"><![CDATA[path { fill-rule: evenodd; }]]></style></defs><metadata><views><view h="1001" padding="0" w="1000"><proj flip="auto" id="robinson" lon0="-82.4676503992"/><bbox h="0.53" w="0.36" x="-1159.82" y="-557.13"/></view></views></metadata><g class="" id="mylayer"><path d="M645.935629,0.000000L637.137670,28.032067L636.454321,30.346927L596.491811,166.795452L576.797777,233.671044L559.033677,295.187136L545.006926,343.797144L524.495838,342.148278L508.755950,342.687330L461.199322,348.553486L449.225476,351.058492L447.981794,351.343872L433.192878,355.370904L385.331264,378.106153L362.059087,392.248264L349.624911,399.985191L325.952746,419.739684L290.910338,450.592092L273.031546,475.546612L271.159715,478.241821L262.662685,490.449522L251.986160,505.003609L246.916340,512.423328L243.625646,517.401511L241.609780,520.445494L231.809698,534.492189L223.502744,549.743760L212.662952,570.227106L199.278870,593.437263L187.592916,625.937693L176.364918,654.030625L174.164683,659.516027L167.361746,688.781995L163.898194,724.611235L164.729614,749.976957L168.014028,778.576697L180.942374,806.986078L191.848773,837.139210L197.618437,848.553611L199.667601,852.929126L210.337781,868.179995L222.028418,882.574755L242.473986,898.966990L257.186687,910.127638L281.420395,923.507710L311.635663,932.290349L337.208780,942.468051L379.095865,946.336208L387.380677,948.301992L389.115247,962.252700L391.682474,977.598447L395.835570,989.202853L400.459456,999.000000L420.165637,990.788153L437.950770,983.115298L448.832541,977.661859L452.801367,970.179227L456.752380,958.479671L461.047220,941.072978L481.497652,935.207325L533.288819,917.071328L579.567657,896.018293L619.818722,868.211702L648.254863,851.787688L672.304646,828.736931L691.795599,804.925133L706.057386,788.944866L714.521393,779.305957L729.562576,762.374420L731.402403,758.474453L740.965051,742.272129L751.742013,723.755141L761.813395,703.050299L769.511677,686.150283L779.215515,666.142893L783.776254,649.147664L788.092139,632.786545L791.384505,618.518096L791.564463,617.725404L795.337458,602.632522L797.198269,599.366621L808.178011,487.468942L809.685677,471.995275L811.048412,466.256058L810.912029,458.519205L816.141073,403.885360L820.795810,352.580520L834.941950,197.173350L836.101806,183.855290L811.893335,185.789581L806.605061,185.789581L645.935629,0.000000Z " data-aland="4516556" data-awater="0" data-classfp="C1" data-funcstat="A" data-geoid="1373004" data-intptlat="+33.2168890" data-intptlon="-082.4672406" data-lsad="25" data-mtfcc="G4110" data-name="Stapleton" data-namelsad="Stapleton city" data-pcicbsa="N" data-pcinecta="N" data-placefp="73004" data-placens="02405521" data-statefp="13"/></g><g fill="#000" font-family="Arial" font-size="12px" id="mylayer-label" stroke="none"><text text-anchor="middle" y="559.963000956"><tspan dy="0" x="525.365661535"><![CDATA[Stapleton]]></tspan></text></g></svg>