<?xml version="1.0" encoding="utf-8"?><!DOCTYPE svg  PUBLIC '-//W3C//DTD SVG 1.1//EN'  'http://www.w3.org/Graphics/SVG/1.1/DTD/svg11.dtd'><svg enable_background="new 0 0 1000 1001" height="1001px" pretty_print="False" style="stroke-linejoin: round; stroke:#000; fill: none;" version="1.1" viewBox="0 0 1000 1001" width="1000px" xmlns="http://www.w3.org/2000/svg" xmlns:xlink="http://www.w3.org/1999/xlink"><defs><style type="text/css"><![CDATA[path { fill-rule: evenodd; }]]></style></defs><metadata><views><view h="1001" padding="0" w="1000"><proj flip="auto" id="robinson" lon0="-82.3378170485"/><bbox h="0.34" w="0.48" x="-1166.35" y="-523.93"/></view></views></metadata><g class="" id="mylayer"><path d="M1000.000000,548.613693L992.788764,543.166271L989.562451,540.752856L988.339561,539.994355L987.833222,539.787490L983.338329,537.787804L982.279955,537.443030L975.511116,535.167525L963.072947,532.995451L953.248738,529.306374L932.435919,526.686094L926.657846,524.548498L904.482561,507.413247L895.568897,496.966604L887.874373,491.829475L882.130173,489.795310L870.682852,487.761145L867.990333,487.278461L861.704154,485.554593L852.645043,483.072221L850.620637,482.486106L841.907025,479.658961L836.930631,476.245700L831.124309,474.349444L828.780091,472.039460L826.908437,468.729631L821.190869,445.871122L818.585388,441.837267L816.076660,440.216830L810.082057,439.354895L803.169755,440.009965L781.628219,448.043198L770.663291,450.973776L765.593523,451.628847L758.564288,451.180641L751.133891,449.594681L737.222892,443.423227L733.614695,441.630403L728.043380,438.872211L717.152322,430.218384L715.404188,426.391393L715.487921,418.565023L717.510014,412.910728L720.338956,409.635375L726.796350,405.739428L730.691771,403.877647L741.668783,398.568126L749.481714,392.913830L755.852539,385.949393L761.161474,377.674812L765.746637,339.715164L765.597210,326.372396L763.378345,316.063641L760.569541,310.064565L757.331810,306.720253L750.994996,302.514004L743.861069,299.686853L723.348829,296.790747L696.733115,295.204784L685.128076,293.343002L680.367545,291.722561L668.099109,288.964365L659.809197,285.344232L648.458006,278.621127L644.800199,273.483986L641.296458,264.761188L643.063139,251.970047L639.286388,254.314515L635.878255,254.624812L627.069412,256.486595L602.941481,249.625579L587.011491,255.590181L585.595567,251.108110L572.577879,242.178445L555.205206,233.972805L531.275552,222.974489L516.394829,217.561524L490.295978,209.769612L467.966400,196.357869L433.738633,181.946275L396.799826,152.433531L392.786248,150.502790L374.946297,150.502790L355.702216,156.260534L319.165012,186.428350L225.674496,184.187313L221.229978,184.428655L176.094802,186.669692L94.457248,187.945360L59.986246,188.393567L31.347291,314.822453L12.968945,394.741133L6.554285,423.081562L0.000000,452.008098L100.306168,451.559892L104.847635,451.525414L111.486635,451.525414L78.350119,597.468089L71.205572,628.876934L73.704377,628.945889L77.540326,629.049321L89.350676,629.807822L96.317536,603.432667L79.853265,602.812075L81.033524,597.743907L115.326182,451.490937L119.194975,451.456460L122.558345,451.456460L164.769555,451.421982L173.017122,451.421982L235.738494,451.353027L222.759162,509.654276L216.315292,537.511985L232.335286,537.787804L239.483434,537.615417L234.312465,560.508379L231.358517,560.508379L227.489684,560.542857L210.961458,560.680766L198.012955,614.327503L197.815498,615.154959L197.543996,616.292711L194.207399,630.152595L150.547683,630.738710L146.465865,630.807664L101.978994,631.428256L138.278209,636.806718L157.727485,640.116541L158.911072,640.426837L160.090315,635.117330L175.796032,636.220604L173.769453,643.978000L183.011508,646.184548L190.385404,648.253187L212.147019,654.252240L230.018783,660.251292L232.539815,649.563325L246.110547,649.563325L251.183723,629.773345L262.606589,629.704390L258.019689,648.804824L274.602889,648.804824L268.358083,674.731761L281.664645,680.006788L287.595433,682.730495L294.580472,654.803877L297.611172,657.424152L304.015166,629.359617L304.577309,627.739183L320.167934,561.301358L320.528088,560.404947L320.901934,559.818832L324.426101,545.786550L335.861666,545.786550L344.530660,545.614163L341.658181,559.611968L340.853683,563.473431L356.837207,562.921793L355.316989,568.679510L356.385381,569.472489L355.700652,572.954701L339.000588,572.954701L326.668960,629.290662L322.806087,646.460367L328.204945,646.632753L332.079694,629.290662L337.285697,629.290662L344.860725,629.290662L348.378616,629.256185L343.607256,648.149755L349.791223,648.218710L379.052193,648.529006L389.819755,648.632438L385.871222,662.974999L377.128056,698.762439L400.207002,698.383189L405.642449,698.279757L411.332898,698.210802L406.840925,717.897336L399.554635,716.931972L396.667574,729.033499L411.490942,744.134548L439.229598,772.405912L446.575098,766.992981L433.883811,751.167913L450.879847,736.687456L460.735803,750.788663L459.507645,757.408299L465.433337,765.303594L472.160623,773.026503L480.492250,766.544776L481.528764,767.717003L488.185104,762.373026L492.944481,767.923867L507.939791,756.925617L513.312488,763.338390L549.501523,735.342842L534.956673,716.621676L553.744133,702.968669L556.002542,701.348236L557.810445,703.210010L566.855587,716.173471L570.497982,721.379542L576.434149,716.725108L573.100686,711.450083L564.722763,698.141848L563.210990,696.142164L571.740123,689.936251L577.242213,686.488521L578.137027,687.764181L585.682735,682.247813L585.262291,681.558267L577.684290,669.801506L582.683702,666.009002L594.545207,657.113857L596.167546,659.630700L603.312293,671.732235L615.829567,686.936726L619.537517,684.144064L622.595641,681.868563L623.758204,681.041107L646.078566,711.794856L624.266111,728.688726L618.496699,720.138359L598.289154,736.066865L589.911086,723.861906L560.394022,748.409731L552.335009,738.790570L516.073790,766.475822L494.626939,782.818046L545.763118,841.015649L552.431322,848.497210L573.802757,831.120680L579.740592,837.740311L612.874468,811.882375L634.473675,796.126269L632.177387,791.161543L633.668943,790.058271L634.248389,789.713499L641.196236,785.231454L648.125706,779.232411L654.992181,774.233207L659.037868,779.956433L668.200601,792.919884L669.553447,794.850610L625.784035,827.776387L629.673519,833.051406L736.246975,751.650594L816.734472,689.246705L822.712612,684.661224L875.262071,644.357251L879.919578,640.771610L884.248064,637.461787L895.921090,628.497684L908.810604,618.602692L1000.000000,548.613693Z "/></g><g fill="#000" font-family="Arial" font-size="12px" id="mylayer-label" stroke="none"><text text-anchor="middle" y="462.084975418"><tspan dy="0" x="471.990488792"><![CDATA[N]]></tspan></text></g></svg>