<?xml version="1.0" encoding="utf-8"?><!DOCTYPE svg  PUBLIC '-//W3C//DTD SVG 1.1//EN'  'http://www.w3.org/Graphics/SVG/1.1/DTD/svg11.dtd'><svg enable_background="new 0 0 1000 1001" height="1001px" pretty_print="False" style="stroke-linejoin: round; stroke:#000; fill: none;" version="1.1" viewBox="0 0 1000 1001" width="1000px" xmlns="http://www.w3.org/2000/svg" xmlns:xlink="http://www.w3.org/1999/xlink"><defs><style type="text/css"><![CDATA[path { fill-rule: evenodd; }]]></style></defs><metadata><views><view h="1001" padding="0" w="1000"><proj flip="auto" id="robinson" lon0="-89.0911010008"/><bbox h="1.06" w="0.9" x="-1203.07" y="-707.17"/></view></views></metadata><g class="" id="mylayer"><path d="M925.462279,0.000000L922.571205,0.092095L905.917299,0.260937L847.370571,0.828857L827.844353,1.013048L809.426319,1.197239L806.343909,1.227937L754.134254,1.811207L735.697169,2.010747L734.652802,2.041446L732.824996,2.056795L731.544915,2.072144L730.576843,2.072144L718.084396,32.494496L692.836984,96.901521L682.391778,96.932221L651.043150,96.962921L640.597809,96.962921L639.935555,96.993620L637.929486,97.039670L637.260796,97.055020L632.265006,109.657266L630.349832,114.477143L630.104185,115.106491L627.514850,121.599529L626.973147,122.981028L625.959068,125.575180L606.767365,174.496186L596.342542,200.730049L586.025100,226.641838L597.527016,226.365526L606.086538,226.150617L631.988647,225.644045L643.458914,225.413785L644.369670,225.398434L647.089200,225.352382L647.974616,225.367733L648.764147,225.306330L655.903630,225.168174L664.062079,224.999317L679.646423,224.646252L687.562693,224.446694L679.964916,242.990358L669.236448,269.163576L644.885195,269.025418L629.534266,268.933312L628.859098,268.933312L626.801678,268.917961L626.120071,268.902610L614.769611,268.902610L580.692751,268.902610L569.335851,268.887259L559.790066,293.295386L552.316086,312.376884L546.471863,327.021999L543.035297,336.048594L539.237908,345.551118L531.058941,366.291008L530.996092,366.475227L522.816618,387.031081L521.318361,390.869012L527.733092,390.945771L533.835633,391.007178L530.900465,398.161099L527.373135,406.727411L527.329331,406.896281L525.564031,412.192673L526.082332,414.065603L523.248395,414.203770L514.746442,414.587567L511.906063,414.710382L509.167390,421.634097L505.118999,431.812454L500.849536,442.374658L498.053613,449.283102L497.839624,449.835778L497.178474,451.478456L496.958043,452.015781L496.643286,452.814092L495.189026,456.483257L492.827878,462.363144L489.894667,469.855033L488.144751,474.307191L482.882503,487.694421L481.478580,491.210116L479.136631,497.074739L461.995874,540.261532L461.360176,541.873567L454.688467,558.761629L450.540875,569.278347L425.751609,632.149351L409.864507,672.820656L398.734830,672.713181L338.820504,672.636413L310.585838,672.452170L298.532825,672.421463L291.368578,689.986034L269.889881,742.649837L262.720157,760.199587L261.309950,763.608215L257.085677,773.818775L255.669059,777.212069L255.222135,778.302223L253.881369,781.572689L253.440744,782.647491L253.088244,783.507333L252.037043,786.071507L251.690840,786.915996L181.702342,786.915996L118.594199,786.915996L74.537721,894.383573L132.188953,894.491059L202.136116,894.598544L181.552430,944.979062L159.580033,998.723596L240.303915,998.907865L282.061149,999.000000L286.877855,986.746134L292.593916,972.204350L301.296757,949.969573L306.094750,937.700614L308.553725,931.450994L313.616022,918.506504L315.112666,914.667701L315.879713,912.671526L318.268654,906.406619L319.173994,904.041928L320.091766,901.615819L321.960040,896.932515L322.035395,896.717544L322.884432,894.552479L327.452165,894.506414L341.136017,894.322153L345.690852,894.245378L347.162462,894.230023L351.545359,894.168602L353.010519,894.137892L377.950178,893.631175L452.781684,892.080315L477.714856,891.558244L497.001626,890.698361L554.855260,888.072651L574.141825,887.182060L573.563339,888.656142L572.940814,890.237710L571.114029,895.473783L565.526440,910.137922L563.784296,914.483438L598.867988,914.222400L665.473888,913.684968L683.777481,867.297402L697.944852,831.382613L700.129861,825.179345L706.235604,810.838192L709.489873,803.176306L683.060572,797.525874L682.787024,797.602646L669.827080,800.965266L670.462581,799.414468L669.044352,797.403039L668.540043,797.203431L666.500469,797.019178L665.898949,796.497128L663.155141,795.637281L662.638720,795.560509L658.200775,794.792789L647.712555,793.149869L646.468933,792.888845L643.548795,792.428213L640.934296,791.936873L640.595787,791.767975L636.529237,791.368761L632.372717,790.816003L630.524272,790.631751L625.762928,790.155765L623.091334,789.710489L619.961988,789.449464L619.567317,789.510882L618.147041,789.587654L613.898797,789.787261L612.472072,789.848678L612.623093,789.480173L613.095035,788.328596L613.252349,787.944737L613.680245,786.900642L614.328382,785.319144L614.938297,783.737648L615.334264,782.678200L617.490778,777.043172L621.099396,767.554246L624.081436,760.122816L626.346275,754.472489L631.608411,754.472489L637.622280,754.472489L640.923352,754.687446L645.023940,755.531924L646.631827,756.023256L649.815517,756.959859L651.187459,757.405129L656.181204,744.661219L663.879586,725.008098L648.342803,725.207699L637.691850,725.330530L640.459083,718.206314L641.150898,716.425263L646.606458,702.929243L649.015539,696.772381L651.801969,689.632899L653.525548,685.241744L658.696224,672.037623L660.413418,667.631149L648.105910,667.661856L611.164199,667.738624L598.850244,667.753977L578.882988,668.567716L536.292503,670.302669L544.281767,649.759678L553.479146,626.084797L564.786575,597.389690L598.693601,511.291135L608.499116,486.358765L605.390261,486.297355L607.106846,481.584185L612.269307,467.414026L613.979523,462.685541L638.632620,406.251504L673.202653,327.114107L748.071408,327.114107L794.913745,327.114107L796.242087,323.752170L800.793302,312.131264L807.258088,295.567350L818.522071,267.152603L820.845380,261.273203L824.408639,252.154789L811.918464,252.231543L796.288211,252.323649L806.158908,242.146066L819.131789,236.205325L833.038924,229.819429L833.687474,228.176906L835.645879,223.249343L836.281699,221.606824L843.548287,203.216832L850.243661,186.622979L850.722310,185.425648L856.622448,170.397651L861.319564,158.332341L876.594348,120.279430L883.341755,103.686157L889.968433,87.108349L894.164694,76.824026L898.404874,66.370901L904.923697,49.778003L907.536671,42.916774L908.278236,40.645051L908.925685,38.695669L909.219033,37.329568L910.297853,36.439300L913.078376,30.007892L913.570851,29.025530L916.729519,21.673181L920.856848,11.527284L925.462279,0.000000Z "/></g><g fill="#000" font-family="Arial" font-size="12px" id="mylayer-label" stroke="none"><text text-anchor="middle" y="553.962555656"><tspan dy="0" x="532.247387872"><![CDATA[N]]></tspan></text></g></svg>