<?xml version="1.0" encoding="utf-8"?><!DOCTYPE svg  PUBLIC '-//W3C//DTD SVG 1.1//EN'  'http://www.w3.org/Graphics/SVG/1.1/DTD/svg11.dtd'><svg enable_background="new 0 0 1000 1001" height="1001px" pretty_print="False" style="stroke-linejoin: round; stroke:#000; fill: none;" version="1.1" viewBox="0 0 1000 1001" width="1000px" xmlns="http://www.w3.org/2000/svg" xmlns:xlink="http://www.w3.org/1999/xlink"><defs><style type="text/css"><![CDATA[path { fill-rule: evenodd; }]]></style></defs><metadata><views><view h="1001" padding="0" w="1000"><proj flip="auto" id="robinson" lon0="-89.657332845"/><bbox h="0.79" w="0.34" x="-1226.7" y="-665.15"/></view></views></metadata><g class="" id="mylayer"><path d="M686.841749,0.000000L686.197699,0.021073L684.221624,0.063219L683.550848,0.063219L675.548473,25.772563L663.157388,65.475390L646.912160,102.776761L635.718470,128.424620L632.596076,137.191777L623.194847,163.493551L620.055488,172.260910L617.571889,179.321199L610.121321,200.502265L607.645545,207.541610L607.433104,207.794521L606.726981,208.553255L606.487810,208.785090L605.917201,209.691357L604.151915,212.368006L603.554577,213.253198L601.336736,215.613713L594.652777,222.589899L592.433085,224.908277L586.126163,225.034734L567.214924,225.435181L560.898470,225.540562L555.090183,241.832537L542.515588,277.051618L486.942131,432.796728L468.404566,484.715293L464.588787,495.444928L453.147773,527.571043L449.322809,538.279898L453.284960,538.216657L463.262039,538.026932L465.144674,538.005852L469.097287,537.921530L464.024665,552.488219L448.798237,596.168035L443.716728,610.714196L438.271873,627.916791L437.154592,631.416362L434.860947,631.479607L427.032030,631.627179L425.346389,638.204709L401.506345,638.246873L387.427476,638.267954L386.947789,640.439389L386.746345,641.324829L385.472473,646.911546L384.966061,649.061911L383.450478,653.468059L378.911483,666.665498L377.403623,671.050615L375.888114,675.456826L371.341680,688.675537L369.833894,693.060716L368.341447,697.403743L363.864195,710.432897L362.379469,714.754889L361.496302,717.327008L358.846832,725.043390L357.954145,727.594442L357.337290,729.386507L355.494402,734.741629L354.885219,736.512619L346.585579,737.102949L345.830822,739.274523L341.743113,750.807108L336.899548,750.975776L331.746572,766.008326L334.915730,765.902908L344.902992,765.544487L344.349360,767.210093L342.652189,772.164757L342.071821,773.809287L332.877878,774.020125L319.721575,774.294213L313.416342,791.835983L309.390481,803.010532L307.732132,807.290617L304.235518,816.251424L307.521500,815.871906L311.140111,815.429136L314.485091,815.408052L324.468425,815.344799L327.803863,815.302630L327.240752,816.947206L325.551432,821.880946L324.978787,823.504445L323.509757,827.784586L319.102752,840.625083L317.616576,844.905272L316.299749,844.694425L312.305322,844.040799L310.978953,843.808868L301.742935,843.851037L287.179482,887.349369L309.549851,886.147508L310.656616,886.084252L311.746178,886.020996L312.246949,886.063167L303.142067,905.208709L301.953396,907.865489L321.396502,908.139601L324.148991,908.139601L332.372052,908.139601L335.114997,908.118515L334.255212,910.627700L331.639597,918.113108L330.753084,920.601224L335.979057,920.516881L349.196929,920.263852L351.567071,920.369280L356.659077,920.559052L351.418883,934.939594L350.970821,936.268009L334.738709,983.332578L329.324571,999.000000L329.737453,999.000000L330.914943,998.978913L331.318279,998.957826L338.897592,977.280736L361.653004,912.209121L369.241415,890.512165L370.901764,885.514950L375.882930,870.523402L377.551017,865.505167L378.937732,861.119496L383.113286,847.920388L384.507721,843.513682L385.415576,843.619106L387.873693,843.576936L395.248041,843.450428L397.696614,843.387174L402.320398,843.302835L416.191751,843.049819L420.805991,842.944396L422.644806,842.902226L425.429775,842.860057L439.283921,842.607041L443.898161,842.501617L445.736975,842.459448L448.521943,842.417279L462.376087,842.164263L466.990326,842.058839L471.486029,841.995585L484.978912,841.742569L489.472730,841.637146L491.682345,841.616061L498.334171,841.489554L500.541902,841.426300L504.233900,830.884007L515.268339,799.278646L518.951135,788.715558L520.521573,784.203602L525.232982,770.667814L526.786280,766.155912L534.330509,766.176995L556.911588,766.240246L564.438615,766.261330L566.569840,766.219163L572.969295,766.029410L575.098638,765.945075L578.023059,765.945075L581.996832,765.945075L584.485545,765.818574L585.249411,764.047551L586.009383,762.381947L588.032364,758.565825L590.410829,754.812962L590.613627,754.538877L593.102709,751.144443L596.052500,747.665682L598.747622,744.840513L602.167399,741.678016L605.835538,738.684192L609.669791,735.943372L613.033397,733.835052L614.266727,733.139307L622.965228,727.995021L642.656653,727.299279L688.847971,725.633715L693.744454,710.074488L701.206466,686.272126L697.624517,686.377539L686.909313,686.609447L683.325483,686.672695L649.952727,687.431666L654.718609,673.559413L655.634652,670.375981L656.093474,667.740694L656.271285,665.168658L656.120677,662.174983L655.564743,659.349971L654.811492,657.115263L653.790529,655.049216L652.226915,652.772351L651.629193,652.097724L643.587534,643.222202L641.777343,641.008600L640.234879,638.626346L638.687244,635.548395L637.543078,632.259633L636.794721,628.781142L636.445468,625.766456L636.416014,622.013918L636.778462,618.177063L637.381284,614.909419L638.257467,611.599619L638.680942,610.292566L645.660817,587.587973L648.361100,576.752287L650.803829,550.063941L638.372304,586.154454L631.812123,600.510787L623.668769,620.453877L623.389166,621.128489L621.842123,624.438309L619.669574,628.380589L617.156904,632.217469L614.818750,635.337577L612.253221,638.373364L608.934261,641.872959L605.365092,645.161742L601.562911,648.239712L597.586987,651.085786L583.101007,660.699230L581.490779,661.816586L578.365726,664.262122L575.944230,666.475758L573.700392,668.815890L571.268768,671.767414L569.152423,674.845437L563.782502,683.468152L554.124437,683.489235L564.271897,658.928328L538.688395,659.223478L542.284999,650.368996L533.135406,650.411160L533.700548,648.808926L535.401769,643.938988L535.957378,642.315679L537.978577,636.518160L544.057653,619.083571L546.086618,613.265059L529.696995,613.349385L480.535788,613.581282L464.136624,613.644526L465.397176,610.271485L469.152142,600.131323L470.403190,596.737230L474.392930,584.910666L486.368588,549.368279L490.349224,537.521000L492.643011,531.070385L499.524561,511.718703L501.818475,505.268196L520.231146,452.695475L575.504892,294.924928L593.933722,242.338370L599.821304,241.284550L611.279187,239.197988L612.426397,232.263878L613.493004,225.645943L613.514377,225.350876L613.586165,224.444601L613.615208,224.128458L613.873212,224.128458L614.647225,224.128458L614.895699,224.107382L626.565384,223.896621L641.969167,223.917697L650.145781,223.285412L661.589774,223.222184L673.249925,222.990346L675.793704,222.948194L683.442243,222.821737L685.976491,222.758509L687.274181,222.737432L691.184451,222.674204L692.472610,222.632052L698.155230,208.953698L698.270272,208.637559L701.923794,199.448474L704.742058,191.987652L707.381150,184.168581L709.685358,176.749986L711.763905,167.919375L712.820518,163.409249L705.082394,169.689708L704.531530,170.069065L704.020877,170.385196L704.555695,169.057446L704.810670,168.404108L707.448525,161.723225L704.356940,164.357639L693.016117,173.968021L678.903216,173.377908L670.553972,173.019626L665.128066,177.909139L652.950492,188.826298L651.831508,184.906228L650.347148,179.721635L649.347905,174.811040L648.823538,172.281985L636.785814,171.944778L631.937487,171.797250L626.486444,187.814666L619.915564,207.099016L612.748656,207.225471L619.897627,187.203472L625.606705,171.186062L637.857636,136.959952L674.596756,34.244098L686.841749,0.000000Z " data-aland="2042173" data-awater="3529" data-classfp="C1" data-funcstat="A" data-geoid="1720045" data-intptlat="+39.5704311" data-intptlon="-089.6536384" data-lsad="47" data-mtfcc="G4110" data-name="Divernon" data-namelsad="Divernon village" data-pcicbsa="N" data-pcinecta="N" data-placefp="20045" data-placens="02398728" data-statefp="17"/></g><g fill="#000" font-family="Arial" font-size="12px" id="mylayer-label" stroke="none"><text text-anchor="middle" y="637.609192651"><tspan dy="0" x="489.827548153"><![CDATA[Divernon]]></tspan></text></g></svg>