<?xml version="1.0" encoding="utf-8"?><!DOCTYPE svg  PUBLIC '-//W3C//DTD SVG 1.1//EN'  'http://www.w3.org/Graphics/SVG/1.1/DTD/svg11.dtd'><svg enable_background="new 0 0 1000 1001" height="1001px" pretty_print="False" style="stroke-linejoin: round; stroke:#000; fill: none;" version="1.1" viewBox="0 0 1000 1001" width="1000px" xmlns="http://www.w3.org/2000/svg" xmlns:xlink="http://www.w3.org/1999/xlink"><defs><style type="text/css"><![CDATA[path { fill-rule: evenodd; }]]></style></defs><metadata><views><view h="1001" padding="0" w="1000"><proj flip="auto" id="robinson" lon0="-94.128991549"/><bbox h="0.53" w="0.47" x="-1310.3" y="-600.81"/></view></views></metadata><g class="" id="mylayer"><path d="M703.970094,0.000000L695.009436,27.580579L690.856592,40.559639L689.409168,44.972514L658.909963,45.069857L634.138893,45.134752L630.644751,45.134752L620.003500,45.134752L614.857722,45.167200L610.384161,45.167200L588.710171,45.232095L545.780148,45.296990L416.597197,45.232095L416.471805,45.621466L409.157392,68.334752L365.917698,202.698640L313.561988,365.807473L272.325109,366.034597L292.474171,303.121155L253.291961,303.380727L246.684913,323.984208L227.746846,381.738539L226.746779,384.269336L209.473772,383.652860L169.494958,498.219207L101.055721,498.738337L75.952684,573.103294L62.836993,610.642386L90.199329,610.674831L111.282048,610.642386L106.072662,628.389840L98.775252,635.105959L84.983419,650.484875L79.914611,657.103638L74.827127,664.273959L70.437843,668.946019L64.994502,673.520742L64.313992,674.072304L53.874880,681.502166L124.248953,681.145274L147.926158,615.476706L148.369107,611.550849L149.269144,608.014331L154.678050,605.191605L162.486958,599.189252L164.635850,597.859000L166.226878,597.274987L167.835394,597.047871L170.323824,597.047871L173.612750,597.274987L175.652605,597.599439L172.312132,614.146457L198.192741,614.341128L224.954928,612.783763L243.558385,610.090819L241.042178,616.839400L234.896878,634.781509L201.279286,728.709193L195.727820,750.155032L188.884231,769.199923L191.681789,770.789699L204.723798,769.913700L165.675921,878.179862L148.490699,928.792196L126.922503,995.333898L189.138733,995.820549L236.941904,996.177426L488.834395,999.000000L535.812647,863.093425L650.594877,526.868626L736.438484,528.945136L890.948598,532.676365L946.125120,374.470603L917.998595,356.170947L721.838357,349.357233L749.161602,266.943250L622.821567,262.887420L627.852234,247.507692L648.874150,183.198019L652.416252,172.360714L681.258136,83.357930L721.028587,83.487720L735.096100,37.249981L736.698832,32.025909L736.001514,31.149822L721.539786,13.173795L724.779492,0.811195L711.607571,0.778747L703.970094,0.000000Z "/></g><g fill="#000" font-family="Arial" font-size="12px" id="mylayer-label" stroke="none"><text text-anchor="middle" y="517.823133024"><tspan dy="0" x="459.675593732"><![CDATA[N]]></tspan></text></g></svg>