<?xml version="1.0" encoding="utf-8"?><!DOCTYPE svg  PUBLIC '-//W3C//DTD SVG 1.1//EN'  'http://www.w3.org/Graphics/SVG/1.1/DTD/svg11.dtd'><svg enable_background="new 0 0 1000 1001" height="1001px" pretty_print="False" style="stroke-linejoin: round; stroke:#000; fill: none;" version="1.1" viewBox="0 0 1000 1001" width="1000px" xmlns="http://www.w3.org/2000/svg" xmlns:xlink="http://www.w3.org/1999/xlink"><defs><style type="text/css"><![CDATA[path { fill-rule: evenodd; }]]></style></defs><metadata><views><view h="1001" padding="0" w="1000"><proj flip="auto" id="robinson" lon0="-89.9357231035"/><bbox h="0.37" w="0.61" x="-1225.67" y="-678.59"/></view></views></metadata><g class="" id="mylayer"><path d="M1000.000000,396.261665L832.488420,394.405205L909.564513,194.218349L764.639951,192.689660L761.401623,197.685202L766.636842,203.308614L783.809681,205.792748L785.783361,207.676324L785.986666,208.904745L791.811001,218.268063L792.282418,225.775129L798.394909,232.627058L796.915133,238.250573L793.461629,241.990492L782.415802,244.501974L769.838486,256.349665L763.293682,257.605415L758.443962,254.493340L761.078373,247.614033L764.050999,245.129845L770.946035,237.622704L772.099694,227.631426L768.575136,224.519399L759.427791,223.891535L728.081557,232.026490L693.601761,232.627058L683.385358,238.250573L676.863917,248.241906L681.062259,251.353971L705.901872,251.353971L730.151946,266.968970L748.647555,271.336824L747.408307,276.332570L730.525579,288.808342L720.586827,291.947772L717.565435,287.579871L724.279463,278.844098L720.572340,274.448927L709.525314,268.224727L702.617176,266.968970L694.940155,269.480485L681.905872,271.964704L671.750666,265.112634L665.516315,263.856879L659.342576,269.480485L642.242752,291.319886L630.509632,304.423645L610.039934,317.527494L608.079419,324.407050L616.336585,334.398830L614.339124,343.134856L608.368957,349.987203L590.235260,358.750600L569.958722,373.110645L560.101863,383.075378L556.986982,391.211006L562.029993,395.579143L566.602670,401.175833L564.343603,408.601710L563.921284,409.939463L561.189169,411.795938L501.834974,412.423864L497.249480,417.419976L499.116581,423.044031L501.053579,426.784309L523.632246,427.412240L524.221690,431.152527L520.310062,436.148688L501.708079,454.877583L458.435750,485.483066L453.441882,487.967564L444.526033,495.475684L410.253929,514.833117L347.650832,539.787839L324.005792,554.149238L305.461243,562.285591L273.668837,580.387736L255.305349,589.752865L232.007265,599.746026L226.267500,605.998605L222.332856,609.002034L251.549267,608.838210L189.196590,648.456608L103.629529,705.305389L69.940307,737.170933L7.118273,788.997947L0.000000,806.310340L0.558402,806.201113L25.847266,805.327297L66.793225,804.508096L86.368530,804.125802L185.100113,803.443134L226.347436,802.951614L239.253810,803.033534L445.676935,803.552361L524.460529,599.991761L534.377597,600.019064L538.788731,599.937153L573.091593,599.746026L601.150448,599.554900L621.615040,599.664115L672.776307,599.145343L718.630084,599.172647L738.118430,599.309166L744.707164,599.582204L830.653893,599.254558L863.578823,598.790394L896.601420,598.599268L921.101052,599.609507L923.438563,593.793809L926.864185,584.019107L950.155753,522.505158L958.586674,498.478940L961.087600,491.298436L964.188926,481.551558L968.926605,467.764043L991.179242,410.621990L995.408696,401.039328L998.261556,397.517507L1000.000000,396.261665Z " data-aland="3493183" data-awater="0" data-classfp="U1" data-funcstat="S" data-geoid="1730510" data-intptlat="+40.3948960" data-intptlon="-089.9407320" data-lsad="57" data-mtfcc="G4210" data-name="Goofy Ridge" data-namelsad="Goofy Ridge CDP" data-pcicbsa="N" data-pcinecta="N" data-placefp="30510" data-placens="02628551" data-statefp="17"/></g><g fill="#000" font-family="Arial" font-size="12px" id="mylayer-label" stroke="none"><text text-anchor="middle" y="530.47590541"><tspan dy="0" x="566.324192166"><![CDATA[Goofy Ridge]]></tspan></text></g></svg>