<?xml version="1.0" encoding="utf-8"?><!DOCTYPE svg  PUBLIC '-//W3C//DTD SVG 1.1//EN'  'http://www.w3.org/Graphics/SVG/1.1/DTD/svg11.dtd'><svg enable_background="new 0 0 1000 1001" height="1001px" pretty_print="False" style="stroke-linejoin: round; stroke:#000; fill: none;" version="1.1" viewBox="0 0 1000 1001" width="1000px" xmlns="http://www.w3.org/2000/svg" xmlns:xlink="http://www.w3.org/1999/xlink"><defs><style type="text/css"><![CDATA[path { fill-rule: evenodd; }]]></style></defs><metadata><views><view h="1001" padding="0" w="1000"><proj flip="auto" id="robinson" lon0="-121.434284282"/><bbox h="1.98" w="2.12" x="-1677.13" y="-634.27"/></view></views></metadata><g class="" id="mylayer"><path d="M361.861227,802.504063L353.671779,802.118422L367.141386,820.412341L381.956157,812.892288L376.587184,804.472438L369.131881,802.704918L361.861227,802.504063Z M1000.000000,232.869678L972.648838,243.318710L990.772138,210.325375L991.401639,208.919880L951.264776,209.747114L954.299604,200.446778L964.062702,177.549543L974.910872,153.640705L995.270589,129.178076L995.091045,127.925239L997.043140,125.556096L999.216604,122.954058L942.392010,122.777376L929.401459,122.729190L863.613474,122.713128L857.515286,123.122708L869.707441,95.183179L870.391764,93.352149L837.621174,93.135316L857.123384,49.464254L854.631033,46.268073L856.307195,43.907080L857.705735,41.875343L857.403414,39.650875L851.587552,39.257377L846.257265,34.157978L829.564916,42.148382L824.163128,54.194292L820.922215,61.421881L806.615317,93.287902L806.091068,94.428280L797.768848,94.420249L763.712478,93.954461L763.376927,94.717390L705.109751,93.440488L722.512429,54.298691L603.367812,55.166000L598.547672,65.927095L582.137319,102.852648L579.855686,107.984387L579.224794,109.405857L583.806958,109.405857L587.230542,109.815434L590.100440,110.401690L592.055135,110.811267L595.675808,110.578371L602.980922,110.289258L612.178689,115.099782L621.654987,116.216083L636.242082,114.457307L645.503961,113.341008L651.564398,112.754750L657.652818,113.164327L672.729921,113.429348L675.483488,112.810967L679.088748,110.698834L680.896430,109.638754L683.380914,108.112881L688.100040,105.647396L694.259190,103.768169L697.214115,102.483228L700.040208,101.543616L699.741352,102.210178L695.810820,110.875514L690.376928,122.865717L678.378108,122.954058L677.169102,125.636406L670.466328,140.052095L669.888126,141.312972L668.904531,143.449237L668.260839,144.870738L664.395842,144.967111L662.740728,145.063484L659.576918,151.962201L657.373826,153.745110L656.700059,154.291227L647.349905,154.299258L647.037919,154.821281L645.998873,157.037875L643.261064,162.739997L641.069170,167.325802L585.030332,169.743193L581.912654,169.767287L580.058762,173.903363L575.426005,184.239583L562.506005,184.352021L556.860853,183.532831L553.896334,183.099142L549.075178,182.761829L546.742745,182.440578L548.884959,181.533045L550.003583,178.906824L553.544548,170.586470L554.511339,168.313639L554.844638,167.526582L556.079249,164.627323L554.748206,164.595199L542.318526,164.571105L553.750703,139.345362L506.276750,141.144320L508.440831,136.317657L509.293282,134.807821L511.300170,131.868465L512.506755,129.394913L515.606188,122.207177L467.642262,121.620916L426.985292,213.730694L408.494550,213.770851L402.480429,213.586128L396.686810,213.562034L395.704929,213.794945L394.661242,213.730694L380.665537,213.762819L330.902426,213.907385L329.992538,213.979668L340.242373,225.552986L344.606501,230.492352L348.459395,234.933778L353.414815,240.106087L357.307694,243.631941L360.384850,246.410864L364.834405,249.768068L364.506880,250.498943L363.697178,252.378338L361.716542,256.522653L360.408368,259.253408L359.658491,261.028402L358.481128,261.421953L355.390803,268.594233L348.881901,282.946917L340.074056,302.359783L330.081169,324.391289L328.198711,328.535782L327.289969,328.881157L298.863100,329.202436L254.785127,325.732626L254.270120,326.592046L253.474226,327.933384L252.644103,329.539780L252.179019,330.447393L237.916650,329.186373L233.860664,328.881157L196.750130,326.110128L184.421455,325.829009L173.163477,325.740658L167.571356,325.033845L151.230563,322.463621L97.759261,317.443663L97.140487,318.519940L98.025667,318.793026L122.644880,330.640161L127.643121,333.049758L134.948135,360.157964L162.991682,360.519409L200.865562,360.993305L193.747079,376.639966L176.962934,413.524252L177.761900,416.327555L204.052230,416.062486L225.497486,415.845611L230.402020,415.925935L236.828591,402.110279L283.741411,401.403434L296.465165,401.355240L297.082030,401.371305L297.892744,399.604195L326.208928,337.491458L326.919861,335.933247L327.914318,333.756574L328.069016,333.411198L328.826733,331.748575L330.714041,331.772671L340.948364,331.708415L353.143705,331.692351L352.437195,333.298750L345.513532,349.105795L331.447141,381.242426L343.349873,381.387006L359.127749,381.587812L362.642457,381.636005L341.614757,427.878175L324.010864,427.878175L284.912193,427.580975L276.494269,446.617979L268.202711,465.229468L263.422757,476.330591L259.530864,485.375409L257.577867,490.291440L257.010734,491.616843L256.689425,492.363889L285.113258,514.341639L286.118899,515.072629L287.863700,516.229361L294.242172,513.699011L366.834659,484.925577L369.305539,493.874047L381.756859,488.813416L386.380648,484.218698L396.134072,480.146117L410.213898,474.250129L413.575760,474.001116L414.571568,471.848363L417.796683,471.832298L416.608778,474.675861L417.945051,474.667828L417.789805,475.029298L456.333011,474.812416L479.493399,474.788318L471.928912,491.375861L466.710934,502.734203L448.636203,502.477153L406.491195,500.557315L404.968435,500.517151L403.620894,503.601746L395.485467,522.077296L380.854441,555.309688L381.622747,557.342050L389.390638,555.992498L390.642970,555.896101L391.855096,555.904134L393.084158,556.048729L394.120580,556.289720L395.374277,556.771704L401.111563,558.755869L401.886745,559.101291L402.853883,559.366382L403.861910,559.510977L404.969335,559.535076L411.189766,559.028993L413.350892,558.659472L421.449630,556.715472L422.246194,556.635142L422.905037,556.659241L423.305373,556.723505L440.182964,558.161422L438.381076,562.844702L431.304622,582.100106L414.988340,619.639521L353.885222,619.631488L352.662275,619.647555L348.806585,628.387856L348.428791,629.247429L334.339886,661.156343L333.915473,662.120368L327.137294,677.488599L325.543735,681.039459L326.655514,681.039459L326.252690,681.955293L355.637944,681.698216L344.869371,706.827593L315.180651,706.948099L312.553601,712.885048L261.445671,719.296011L209.300318,687.120925L212.574339,678.283927L203.465567,678.283927L213.546399,673.985948L214.677577,669.463040L195.278875,653.476299L185.109118,653.508433L180.623114,652.664916L173.247993,645.908758L87.088543,645.868591L90.422703,653.387931L90.080105,654.488521L85.735679,668.217836L83.912029,667.221674L77.456149,662.931756L72.776193,659.308631L68.996415,655.693547L67.526589,654.022578L65.449179,651.733031L59.773811,645.073278L51.162945,634.830643L49.177233,632.452754L45.358824,628.227188L42.564770,625.825208L41.401538,625.126305L39.408181,624.379201L37.118154,623.728499L35.415474,623.407164L33.905436,623.294697L31.552438,623.206330L28.903275,623.431264L26.386016,623.840966L24.184071,624.403302L20.883884,625.487806L2.854558,632.219785L4.480238,633.890734L11.709368,641.916130L20.558572,652.134705L30.213401,663.140628L38.352559,672.186424L48.817291,684.044038L52.713323,688.374176L55.704352,691.892923L63.068747,700.143529L60.232398,701.485160L42.660869,709.784014L41.093420,711.254193L41.778421,712.427123L41.317851,714.781019L29.136439,728.607212L15.589420,746.828067L13.976158,749.768487L14.452934,752.716946L15.753716,754.476383L14.103526,756.830336L13.221356,759.473515L13.745298,763.000438L27.844694,768.929541L28.683147,770.399769L27.794590,773.042968L25.277763,775.983432L22.103986,780.394137L20.993366,784.218363L21.174942,787.158845L20.887587,789.810104L18.796470,797.153307L17.278471,806.561329L15.735558,818.034201L12.592689,827.747636L3.355080,847.729037L0.000000,856.550812L0.068783,862.423984L3.444856,866.264455L9.800235,874.805114L14.084639,885.989179L19.024171,903.046620L21.811910,900.138086L30.318489,911.916875L39.670369,915.773520L51.351580,916.408261L53.017135,916.697510L52.992611,918.762427L52.037073,920.232778L57.693992,929.657514L61.365368,924.113545L67.936097,919.445376L73.166840,917.123348L77.814547,910.703640L81.655415,905.465046L84.616596,902.837720L88.685257,901.094206L94.293225,899.937221L98.735485,899.366763L102.120525,898.499025L106.706413,895.582464L120.568373,885.973110L123.495293,882.767326L124.709201,880.718519L125.929847,876.645016L129.495842,874.017733L134.933830,872.571523L138.567754,871.117280L152.845130,858.583522L151.953772,861.234886L146.894615,866.521558L128.586024,885.346415L126.535610,888.584343L124.983557,894.754900L123.454017,896.811757L121.264090,897.711633L115.207039,899.190002L109.350039,901.560214L102.578335,905.979263L96.264917,912.736411L90.882612,920.088153L83.502018,926.556103L78.583290,929.504854L66.124800,936.583481L61.158086,940.994580L58.258021,944.811114L52.134543,957.160669L52.542060,958.928341L59.145296,964.239404L61.874075,964.842022L68.689124,961.636098L71.309968,958.430179L73.862675,954.051176L76.018015,950.547982L80.552017,944.425443L88.315397,939.765256L94.248454,936.816489L98.441774,935.667516L101.675663,936.318333L105.724189,939.966126L108.759274,944.995915L109.405848,946.956411L149.079701,918.850808L190.286463,889.018209L193.192133,888.961967L202.276015,889.427972L211.734624,890.496570L217.854913,892.561457L226.229137,887.756782L228.980416,886.182009L236.720381,881.851389L249.996392,852.276503L294.839122,852.123850L291.484898,834.938343L284.064336,818.066338L271.351785,806.697910L301.347801,739.011072L322.254413,738.858429L327.558359,738.818259L361.366242,738.472802L344.546222,778.032119L344.338939,778.787321L344.394651,779.550558L344.458217,780.281659L347.483908,786.652696L355.223394,786.138513L356.406615,791.175905L360.549569,795.176906L361.327051,795.940150L352.902389,796.124935L353.182210,798.366465L356.450051,798.430738L378.186395,799.129711L388.409910,811.020314L391.589309,804.118934L398.176997,789.207545L408.298041,766.037293L420.796570,736.922262L442.470009,687.177161L444.233761,683.361179L445.598061,680.075424L447.032009,680.067390L463.319067,679.979020L472.823090,680.011155L505.734129,679.938852L533.024171,679.874583L533.949433,677.745675L538.674584,666.996734L543.028772,657.340418L574.114606,657.525189L576.532903,652.142739L579.492699,645.563319L580.834750,642.574873L582.823752,638.124346L586.968703,628.660991L587.877776,626.612479L593.604629,613.726990L598.435366,603.050743L600.411272,598.688684L606.339061,585.530274L609.946433,577.272177L611.809212,573.207409L614.212264,567.672591L615.814988,564.146062L616.423523,562.828636L617.739675,562.836669L643.176810,562.884868L642.824657,563.599812L647.404728,563.447184L648.223879,563.447184L652.757126,563.631945L674.501593,563.680143L676.165900,563.680143L698.222426,563.728342L708.316560,563.704242L715.403549,563.688176L724.646026,563.664077L727.889443,563.680143L732.837909,563.808673L735.049184,563.864904L735.525750,562.667975L736.025600,561.535311L749.142112,531.877451L753.509365,521.964836L763.357287,499.593381L754.891665,499.625512L678.270110,499.729938L672.163309,499.938791L680.926326,480.346934L682.083982,477.744343L682.815607,476.137807L655.895361,475.455030L654.363106,478.836788L653.758079,480.218411L653.687587,480.346934L652.608935,483.078053L651.776819,483.078053L643.839264,501.143709L641.009895,507.586021L638.716257,512.976054L637.790060,515.032465L637.481102,515.723291L637.088833,516.614939L634.888363,521.651553L609.979786,521.876474L580.245373,522.149592L578.430897,522.165658L587.722213,501.159775L595.745376,483.005758L622.759203,482.869202L651.178736,483.078053L652.389796,480.443326L652.488349,480.266607L652.816700,479.503501L653.062409,478.925148L654.533770,475.446997L661.558936,459.437956L661.914778,458.032252L661.488995,457.879633L661.716078,457.357515L663.677641,453.365323L665.176172,450.320983L666.796226,447.019606L667.098952,446.401101L667.334083,445.919149L667.898313,444.658042L675.624558,427.331969L675.894120,426.729536L679.261539,419.363802L683.864275,408.961866L684.220819,408.150598L684.443678,407.652592L685.964171,404.254911L687.937719,398.857190L688.785164,396.527822L692.026283,389.314833L692.374985,388.535703L692.590677,388.053767L693.068797,386.985477L696.946938,378.262473L697.299254,377.475316L697.521459,376.993383L697.962965,376.021487L700.448882,370.583695L705.569020,359.362783L706.453081,359.362783L709.956138,364.447124L716.676315,374.166049L719.524642,371.868844L721.320381,370.166022L720.777745,365.772429L720.971600,362.318607L721.174730,360.238285L722.194856,358.206158L724.034851,355.852750L725.144962,354.752352L726.352150,353.435088L732.717861,349.234308L756.147978,333.676254L766.402501,329.515684L767.666181,329.001637L781.601107,323.604157L851.874664,296.368034L852.814298,295.982507L851.506456,299.484383L852.163258,299.251460L852.834448,298.608914L852.353973,299.653052L846.975704,311.492020L846.009840,313.620472L843.724251,318.624355L842.611004,321.082127L852.917867,321.218670L849.884004,327.981576L849.443844,328.921317L848.879230,330.110050L853.856965,330.069890L886.996273,330.359042L893.097224,330.728513L893.698157,329.298820L893.940413,328.728550L924.553852,269.116292L924.574285,267.285068L925.320837,267.156562L996.673606,240.138213L998.176656,237.013944L1000.000000,232.869678Z " data-aland="58434971" data-awater="352292" data-classfp="C1" data-funcstat="A" data-geoid="0680238" data-intptlat="+37.7245975" data-intptlon="-121.4455377" data-lsad="25" data-mtfcc="G4110" data-name="Tracy" data-namelsad="Tracy city" data-pcicbsa="N" data-pcinecta="N" data-placefp="80238" data-placens="02412090" data-statefp="06"/></g><g fill="#000" font-family="Arial" font-size="12px" id="mylayer-label" stroke="none"><text text-anchor="middle" y="438.011455023"><tspan dy="0" x="485.377255157"><![CDATA[Tracy]]></tspan></text></g></svg>