<?xml version="1.0" encoding="utf-8"?><!DOCTYPE svg  PUBLIC '-//W3C//DTD SVG 1.1//EN'  'http://www.w3.org/Graphics/SVG/1.1/DTD/svg11.dtd'><svg enable_background="new 0 0 1000 1001" height="1001px" pretty_print="False" style="stroke-linejoin: round; stroke:#000; fill: none;" version="1.1" viewBox="0 0 1000 1001" width="1000px" xmlns="http://www.w3.org/2000/svg" xmlns:xlink="http://www.w3.org/1999/xlink"><defs><style type="text/css"><![CDATA[path { fill-rule: evenodd; }]]></style></defs><metadata><views><view h="1001" padding="0" w="1000"><proj flip="auto" id="robinson" lon0="-120.253278563"/><bbox h="0.19" w="0.27" x="-1667.74" y="-615.1"/></view></views></metadata><g class="" id="mylayer"><path d="M1000.000000,823.862272L985.735312,804.217570L982.059129,799.290397L934.436541,736.068991L927.474968,726.150651L923.424410,720.391615L911.735199,704.842215L909.510271,701.514771L904.604605,694.219990L896.639148,682.381968L890.245212,668.304318L885.907392,655.378475L883.268160,647.635767L879.473091,630.486627L866.864529,544.420949L863.328854,504.107641L859.847287,482.543217L857.023905,464.818154L853.231773,449.012772L845.942513,428.472171L841.105993,418.809769L831.281908,399.229005L825.065885,391.230327L818.619720,383.039680L813.646943,376.640736L797.149706,354.308422L788.003244,341.830480L758.777644,301.261164L741.700846,279.440755L732.983379,267.666692L711.596060,238.743445L734.595479,221.338304L803.648196,168.994889L826.622972,151.525750L825.468154,149.350106L823.661518,145.894672L821.204263,143.974986L819.103485,142.439238L817.925618,141.543385L816.607594,141.223437L812.240522,140.135615L803.819607,139.303751L792.507130,139.047793L788.015482,139.111783L779.761275,139.111783L719.510186,139.431730L703.026576,139.495720L538.567127,140.839500L478.261803,141.287426L476.860145,141.287426L425.152234,141.415405L265.852945,141.607374L212.718572,141.671364L211.265001,141.671364L206.854685,141.543385L205.376313,141.479395L163.829153,237.335677L136.830458,299.469459L90.253779,408.187525L41.095398,524.968180L27.350583,557.538769L0.000000,620.760247L0.000000,620.760247L41.683113,621.016205L124.403847,621.336152L167.008082,620.888226L188.816943,620.632269L205.099901,621.656098L208.341147,621.848066L210.207794,621.976045L211.478564,622.040034L215.755818,622.359981L217.597653,622.423970L210.774590,629.462797L200.207902,641.172845L176.748735,668.368308L55.987170,808.120915L15.699552,854.705089L85.778988,855.089025L132.318050,855.280993L295.669598,856.816734L365.615840,857.392637L375.039694,857.328648L403.390270,857.072691L412.789306,856.944713L444.791961,857.136680L540.799932,857.712584L572.750675,857.904551L602.520956,858.096519L691.831803,858.672422L709.248409,858.736411L721.629184,858.800401L745.248587,858.928379L767.856772,858.992368L815.978149,859.248325L839.572734,859.312315L868.176055,859.440293L891.095735,859.504282L926.831787,859.952207L940.456698,857.200670L953.117967,853.169348L956.420525,851.377649L970.235756,843.762929L988.414853,831.604972L990.778378,830.069230L994.929804,827.253703L997.713209,825.462004L1000.000000,823.862272Z "/></g><g fill="#000" font-family="Arial" font-size="12px" id="mylayer-label" stroke="none"><text text-anchor="middle" y="520.115755452"><tspan dy="0" x="482.375877086"><![CDATA[N]]></tspan></text></g></svg>