<?xml version="1.0" encoding="utf-8"?><!DOCTYPE svg  PUBLIC '-//W3C//DTD SVG 1.1//EN'  'http://www.w3.org/Graphics/SVG/1.1/DTD/svg11.dtd'><svg enable_background="new 0 0 1000 1001" height="1001px" pretty_print="False" style="stroke-linejoin: round; stroke:#000; fill: none;" version="1.1" viewBox="0 0 1000 1001" width="1000px" xmlns="http://www.w3.org/2000/svg" xmlns:xlink="http://www.w3.org/1999/xlink"><defs><style type="text/css"><![CDATA[path { fill-rule: evenodd; }]]></style></defs><metadata><views><view h="1001" padding="0" w="1000"><proj flip="auto" id="robinson" lon0="-85.6385316033"/><bbox h="0.73" w="0.69" x="-1190.38" y="-606.86"/></view></views></metadata><g class="" id="mylayer"><path d="M664.424172,0.000000L662.437237,8.105054L660.057792,17.789307L647.798167,19.438184L603.932308,24.454482L485.171627,39.921384L390.587753,52.671107L356.976890,55.852729L344.688952,58.616327L335.951154,61.705053L330.480725,64.097072L323.765865,67.882501L315.246640,73.038112L302.467487,81.282439L264.472044,105.690246L255.978906,110.311697L248.716418,113.586191L239.509897,116.280100L240.090225,111.008398L219.687131,112.401800L202.489306,113.562968L174.454014,104.947097L145.504348,86.670277L138.028778,81.932695L123.666957,72.318185L113.044565,65.258247L104.113359,59.313032L83.146364,41.198680L74.371042,33.581351L73.100923,34.742530L71.468116,36.298509L66.540561,40.873550L64.895748,42.406305L62.524985,40.525197L60.525043,38.922771L56.267714,35.439237L55.440265,34.788977L53.606846,33.325892L53.057510,32.884644L49.674451,34.417400L39.482364,38.969219L36.087296,40.478750L45.233946,47.608378L53.127453,53.739389L31.571909,73.038112L34.623809,76.126833L42.866435,84.394380L46.349749,81.886249L48.154008,80.771523L64.338776,68.625652L66.919963,66.674880L69.691855,64.654436L72.157297,66.280080L101.232378,94.264335L111.039258,103.693035L144.867460,121.575023L157.924850,127.496972L179.406795,137.250761L187.803098,159.661211L190.977165,177.635976L191.230548,179.075813L191.466797,180.445981L192.216707,184.672598L192.345159,185.322847L195.473239,203.134996L196.237814,227.519234L196.597670,232.233512L197.299993,277.866660L197.627618,298.883372L186.244976,304.456855L187.915924,325.914734L186.446751,326.982982L158.747072,347.511895L140.233013,399.275188L139.799590,400.482762L121.680317,447.856690L129.258974,448.042470L133.484643,448.065692L149.135095,448.112137L156.679131,448.924923L167.170516,450.504049L168.209759,450.504049L170.042605,450.504049L173.981675,449.900265L177.074165,448.646253L179.232264,447.229684L179.773563,446.742013L180.466025,446.254341L191.790578,460.071689L188.063225,463.787275L124.492684,526.626866L124.944039,527.718311L133.743023,549.105955L134.415819,550.661840L136.384409,555.306271L137.045196,556.838933L139.023710,562.598024L144.916464,579.828827L146.883056,585.564679L147.852501,583.823024L148.493482,583.126362L150.198032,581.709815L153.053661,579.852049L160.616703,576.136515L161.331436,575.764961L168.339440,572.583534L183.262346,566.476119L191.845566,563.271465L204.132609,559.300480L204.702965,559.161148L213.682713,556.722822L215.330303,556.072602L216.993393,555.306271L218.917718,554.168386L219.271689,553.866498L221.616046,555.074050L228.613078,558.627038L230.926530,559.811367L251.387004,570.284545L278.944389,584.357132L319.354623,587.445666L338.239663,588.885434L340.651608,593.947841L347.794820,609.065378L355.559667,625.529760L371.192895,652.560072L379.362578,666.702185L381.522625,670.510566L394.819182,688.971899L407.781155,706.968757L429.708298,727.427074L372.134551,769.086644L364.251489,776.819417L352.701446,799.297827L345.927508,810.815667L340.303298,819.918464L327.302939,847.296459L345.036763,846.437269L353.479710,872.236130L361.274720,904.118857L362.820750,904.769050L364.507660,905.326358L367.933115,905.628233L370.374297,905.233473L372.277827,904.420732L404.156619,906.719628L406.954452,897.268609L438.224999,900.217700L453.926468,901.309095L450.714651,911.456743L543.158943,925.435862L526.318310,978.821015L529.802185,980.330377L533.468256,979.819516L547.847750,969.671953L660.790040,999.000000L659.202747,993.891401L659.115137,993.612750L657.046915,985.021008L654.776060,975.198545L654.262478,972.528133L653.262783,968.116147L653.097886,967.396297L649.784571,952.604514L649.629985,951.977546L648.286796,946.938580L645.598749,936.930303L645.396073,936.210449L642.790741,923.113751L641.681567,913.709194L641.065454,904.745829L640.977934,903.445443L640.784228,897.779475L640.454716,893.529997L640.036299,884.218291L639.693120,879.504381L639.463021,878.366540L638.958226,875.347778L638.621691,873.420414L638.130536,871.632377L636.488619,867.475770L632.843857,861.275688L629.401711,856.306330L620.915164,842.141321L620.109624,840.840926L682.772993,837.961478L696.648291,838.007921L705.812649,810.560231L714.063937,766.601937L714.261645,765.487302L716.813009,750.997035L718.599593,739.409446L733.370222,735.601097L745.093467,699.514580L701.583175,695.404329L630.076714,695.032781L624.229234,712.867074L614.855035,731.444422L541.756417,718.324174L517.326187,713.912051L515.582642,713.610169L510.309072,712.658079L508.553509,712.332975L508.395198,713.633390L508.300348,715.421462L507.886740,721.923536L507.302122,724.663695L506.612637,727.821842L505.931663,731.397978L503.734245,741.754831L501.293402,740.616971L499.400504,739.734549L493.690900,737.064061L498.522079,725.406788L505.878191,707.200975L511.792023,694.312907L513.834319,687.416040L514.366856,679.683183L518.016987,673.227519L522.568590,668.513488L536.306304,659.898183L541.452484,654.324935L542.134684,646.150831L541.404739,638.534045L540.459464,633.494887L538.094311,625.529760L536.929009,621.233697L533.545037,620.792480L525.851031,627.248185L528.158230,619.840379L537.247993,590.743198L547.988849,556.072602L580.202795,452.036730L590.933899,417.342338L597.876135,419.803926L607.650190,424.378762L611.134988,425.818558L614.612349,414.462743L615.209114,412.512050L616.774140,407.356643L623.144346,386.618872L611.824631,386.177642L601.102681,385.759635L619.490285,326.820422L624.839532,309.658770L690.508928,310.773466L701.718019,283.463381L717.776505,244.379152L722.484629,232.953426L726.114663,224.082222L720.931270,226.590312L719.799826,229.260963L718.278596,231.652936L716.026185,232.814088L713.124707,233.487556L709.893735,233.487556L706.614595,233.650117L701.730129,236.042090L685.590588,243.961138L685.121120,241.336938L685.026992,240.570579L684.765255,238.201831L684.659115,237.412248L681.733616,222.990738L654.332380,235.693744L657.676305,225.429159L663.576525,207.175817L665.508307,201.230700L668.061102,193.381281L662.248746,192.847149L672.298077,162.889240L702.032332,74.036721L712.931503,72.643313L714.315446,67.209020L723.903859,29.122424L730.967646,24.477706L733.678235,12.145967L737.313022,11.611824L744.659929,10.473866L748.174322,10.218406L751.733386,9.939722L753.784315,9.777156L759.899313,9.289460L761.938232,9.103671L766.301378,8.406962L774.168808,7.106438L779.144612,7.338674L783.265069,7.524463L787.608883,7.594134L800.635199,7.756700L804.967003,7.803147L805.830991,7.756700L811.644287,9.243013L831.363188,14.236094L837.940755,15.884971L844.592146,17.603518L864.546357,22.759160L871.185761,24.454482L874.871263,25.406650L885.941544,28.216704L889.633936,29.145648L893.326329,30.074591L904.346838,32.861420L908.020345,33.790363L914.770723,33.581351L934.978939,32.907868L941.717304,32.675632L943.053640,32.629185L947.102192,32.420173L948.426517,32.350502L947.870775,34.161941L947.581838,34.881871L944.534307,42.359857L943.514465,44.844777L949.941904,44.705436L963.294905,44.403530L965.761688,37.227451L968.428091,29.377884L966.466504,29.494001L964.516928,29.633343L952.754285,30.306827L948.819098,30.515839L949.426665,28.147034L950.003330,25.755004L946.093922,25.940792L944.127207,26.010463L937.368201,26.312370L917.062029,27.125196L910.297893,27.380655L906.943834,26.521382L896.843879,23.943563L893.470933,23.084290L889.690962,22.132122L878.315028,19.205948L874.529937,18.207332L867.909439,16.512008L848.010192,11.426034L841.377707,9.707486L834.769248,8.035384L814.964557,2.949405L809.245740,1.463091L808.289042,1.439867L803.515803,1.416643L789.158298,1.346972L784.373049,1.300525L780.542887,1.091512L774.876662,0.766381L768.661636,1.974011L764.573257,2.763615L762.295605,2.926181L755.469533,3.390654L753.179871,3.529996L748.849534,3.924798L746.199131,4.133811L735.751743,5.596901L734.911775,5.689795L734.170798,9.846827L731.370853,10.241629L722.953881,11.356364L720.141925,11.727942L707.176520,13.144583L694.099207,15.002473L688.490666,15.884971L682.588465,16.674574L682.095468,16.744245L684.123833,5.248546L684.168656,4.969862L664.424172,0.000000Z M587.390166,771.617792L594.923041,760.471443L595.916196,759.031705L597.006999,759.240700L650.416248,762.723936L645.460127,763.443804L594.127749,770.688930L587.390166,771.617792Z " data-aland="7837153" data-awater="0" data-classfp="C1" data-funcstat="A" data-geoid="4703680" data-intptlat="+36.1534026" data-intptlon="-085.6353086" data-lsad="43" data-mtfcc="G4110" data-name="Baxter" data-namelsad="Baxter town" data-pcicbsa="N" data-pcinecta="N" data-placefp="03680" data-placens="02405216" data-statefp="47"/></g><g fill="#000" font-family="Arial" font-size="12px" id="mylayer-label" stroke="none"><text text-anchor="middle" y="420.683239444"><tspan dy="0" x="442.749306481"><![CDATA[Baxter]]></tspan></text></g></svg>