<?xml version="1.0" encoding="utf-8"?><!DOCTYPE svg  PUBLIC '-//W3C//DTD SVG 1.1//EN'  'http://www.w3.org/Graphics/SVG/1.1/DTD/svg11.dtd'><svg enable_background="new 0 0 1000 1001" height="1001px" pretty_print="False" style="stroke-linejoin: round; stroke:#000; fill: none;" version="1.1" viewBox="0 0 1000 1001" width="1000px" xmlns="http://www.w3.org/2000/svg" xmlns:xlink="http://www.w3.org/1999/xlink"><defs><style type="text/css"><![CDATA[path { fill-rule: evenodd; }]]></style></defs><metadata><views><view h="1001" padding="0" w="1000"><proj flip="auto" id="robinson" lon0="-73.1998724231"/><bbox h="0.34" w="0.68" x="-983.85" y="-720.18"/></view></views></metadata><g class="" id="mylayer"><path d="M1000.000000,373.764522L998.164150,372.245975L994.948000,370.110519L991.610468,368.212337L989.464627,367.192064L986.923710,366.005700L977.274623,362.161883L970.982738,360.216248L960.666044,357.677432L955.334698,356.538524L947.601694,354.664071L945.078724,353.881073L940.244344,352.101530L931.028355,347.688265L921.955138,342.919095L912.339028,338.980379L908.586587,337.770292L903.507877,336.299206L869.055241,326.808335L863.778058,325.740613L858.254817,325.099980L852.478897,325.076252L848.014415,325.527068L844.997596,326.001612L841.979098,326.594791L835.910864,328.042148L828.583310,330.058957L821.352536,331.909677L812.165551,334.638303L805.895245,337.295748L799.804795,341.424281L794.377943,346.762904L793.180627,348.233992L790.441840,350.749078L789.015148,351.745621L786.048756,353.382801L783.026789,354.497981L777.119357,355.423343L765.619739,355.850434L742.272796,357.084250L730.358048,358.484158L724.347288,359.480703L718.306966,360.619611L712.212466,361.972065L706.096608,363.443155L699.962656,365.080337L687.694645,368.639428L681.508089,370.656247L664.489505,376.801616L658.320830,379.221801L652.106179,381.831805L645.909616,384.275719L641.252676,386.363724L636.580904,388.665275L633.506199,390.444825L627.456643,394.454747L611.086941,406.176066L608.100714,408.097984L603.559926,410.874089L600.511508,412.463825L595.944710,414.575564L594.077039,415.311113L592.917740,415.761934L590.594296,416.450029L588.416778,417.114397L586.972249,417.422853L582.669998,417.802492L578.481045,417.683855L575.818582,417.304216L571.954501,416.473756L568.236447,415.334841L563.318459,413.626468L562.024997,413.270557L556.649365,412.202823L552.207814,412.416370L544.782092,413.294284L538.966500,413.840014L530.437633,413.982379L527.338978,413.840014L519.218532,413.484103L509.425873,412.843463L502.310399,412.653644L500.095512,412.345188L496.218302,411.609638L492.111421,411.253728L485.053395,410.897817L480.731571,410.992726L477.793472,411.182545L471.822056,411.894367L462.896019,413.128192L445.029095,415.809389L442.015448,416.331392L435.856739,418.039766L423.533936,422.666613L420.536589,423.425891L417.664025,423.710620L414.867004,423.663165L413.543984,423.449618L410.943923,422.832705L408.480008,422.049700L407.350580,421.503969L396.129417,417.826219L385.965415,415.073839L370.327363,411.538456L359.756535,409.450446L353.062784,408.382713L347.452466,408.050530L331.934515,407.694619L328.463633,407.718346L328.346111,402.427140L328.424407,399.413765L328.271565,396.329208L328.481308,392.651468L328.894674,388.214456L329.410891,384.845175L331.477618,374.832250L332.698144,369.256337L333.951514,363.585519L337.892399,345.766361L339.725077,338.932925L340.907021,335.516209L341.709584,333.594307L343.707006,328.730236L344.598042,326.950698L345.392275,325.337251L348.361937,320.449458L352.715929,314.232947L356.628382,309.179070L352.909110,307.589353L348.288493,305.192915L343.639873,303.104930L333.349587,297.932424L326.166730,295.037720L319.845741,293.234463L314.539183,292.309107L310.493174,291.834565L296.415255,291.241389L288.050932,290.624485L283.954115,290.126217L277.298429,288.892409L269.416603,287.278969L265.428067,286.638339L263.405068,286.401068L261.362396,286.163798L245.922066,285.641803L237.336119,285.665530L235.303216,285.570622L231.293175,285.333351L198.914076,284.241907L176.287905,283.791093L165.088905,283.292825L155.818661,281.370934L151.104136,277.028887L144.320726,269.341333L137.350397,261.796148L129.073610,253.989973L128.447462,253.752704L121.881122,251.237646L119.204123,250.786834L116.436813,250.597018L113.562772,250.715653L110.641020,251.142738L107.592861,251.878274L104.557561,253.088349L96.846928,256.552486L92.250134,259.091272L89.281597,261.131793L85.257819,265.141654L83.498519,268.463434L81.072655,273.541015L77.619753,279.994766L81.215081,280.065947L83.942610,281.109937L86.604806,284.787629L85.683195,291.431205L84.793552,299.688229L83.007855,325.716886L79.128948,371.557884L78.759994,375.069523L77.547873,386.363724L76.443454,405.820155L74.782602,427.056189L74.264164,431.398311L72.060472,449.882017L71.028645,458.495105L69.933753,465.186271L68.844281,474.534929L43.440007,495.818588L41.379334,499.045547L92.149890,472.114717L215.859724,407.172616L215.542996,407.860710L214.232127,413.697650L212.968319,428.384925L211.485500,433.865967L208.861695,439.062282L206.189128,443.262046L202.467656,446.512712L198.094141,448.577004L190.213021,452.136130L182.523691,455.766440L175.329121,460.298398L170.231990,463.715163L164.496234,469.148772L158.714492,474.772205L150.043018,482.436214L145.361954,486.754638L140.371277,490.432417L136.850263,492.591631L134.803395,494.300020L133.626930,496.506689L133.272204,497.930348L132.971671,499.140457L133.300383,501.204762L137.920813,517.197211L137.782412,518.905605L136.015725,521.112281L132.932398,523.485051L130.525097,524.529070L126.544033,525.003625L121.531331,526.356104L118.779662,527.542490L116.150311,530.366089L113.469583,534.589626L113.540420,537.911510L112.386471,541.304579L110.147033,544.934927L106.387238,549.775393L103.199817,554.212489L100.092237,559.954617L96.105594,566.361128L92.370438,571.130423L88.761759,575.306524L84.208676,579.482627L79.615815,584.797670L73.629371,594.312555L72.749242,597.824286L71.061804,603.044429L68.643026,608.501855L60.903134,620.128556L55.081926,626.321561L48.679838,633.795883L38.925807,642.883718L33.747170,649.551301L29.923283,655.032485L26.691149,660.964506L21.791161,672.686192L20.585931,677.764012L18.108846,686.234963L15.729058,693.116133L13.405240,699.380376L9.864055,707.969989L6.361868,712.691907L4.859147,715.159644L2.684003,718.149404L1.064816,720.783240L0.000000,722.895056L102.467076,726.549210L136.925676,727.498341L153.820493,727.972907L232.201747,730.155909L235.907408,729.966082L238.729253,729.942354L255.456811,730.559290L270.843080,731.413508L306.205180,732.481281L327.433519,733.454141L333.251027,733.359228L549.922975,741.664136L570.433479,741.355668L587.493966,742.091246L597.312175,742.375986L617.394647,742.565812L621.583948,742.684454L624.476347,742.399714L625.952084,742.114974L630.754933,740.287894L634.639650,737.986247L674.916177,748.402982L679.781474,745.484397L687.352477,740.715004L694.907113,735.708330L703.855626,729.515245L711.266020,724.128926L715.708336,720.783240L720.076878,717.366371L724.206038,713.902047L732.757834,707.092045L735.612823,704.695494L744.361505,697.031284L755.388129,686.306147L763.403975,678.143663L771.270669,669.672720L780.124702,659.540820L787.415988,650.571607L792.160458,644.473497L795.592975,639.893986L802.103914,630.450233L805.590587,625.657177L815.314443,611.301753L818.365007,606.461252L828.138078,592.248228L831.378872,587.312826L834.814759,582.496066L881.222620,513.590602L891.040223,499.306551L901.221813,485.164888L911.734570,471.260525L923.764235,456.098625L931.188583,447.200809L938.721114,438.445368L946.337217,429.903482L958.084339,417.209306L970.051157,404.562604L1000.000000,373.764522Z "/></g><g fill="#000" font-family="Arial" font-size="12px" id="mylayer-label" stroke="none"><text text-anchor="middle" y="524.932789199"><tspan dy="0" x="459.945563191"><![CDATA[N]]></tspan></text></g></svg>