<?xml version="1.0" encoding="utf-8"?><!DOCTYPE svg  PUBLIC '-//W3C//DTD SVG 1.1//EN'  'http://www.w3.org/Graphics/SVG/1.1/DTD/svg11.dtd'><svg enable_background="new 0 0 1000 1001" height="1001px" pretty_print="False" style="stroke-linejoin: round; stroke:#000; fill: none;" version="1.1" viewBox="0 0 1000 1001" width="1000px" xmlns="http://www.w3.org/2000/svg" xmlns:xlink="http://www.w3.org/1999/xlink"><defs><style type="text/css"><![CDATA[path { fill-rule: evenodd; }]]></style></defs><metadata><views><view h="1001" padding="0" w="1000"><proj flip="auto" id="robinson" lon0="-124.344576667"/><bbox h="0.47" w="0.68" x="-1625.35" y="-795.03"/></view></views></metadata><g class="" id="mylayer"><path d="M1000.000000,197.844674L999.275618,191.088214L997.591626,186.826075L992.814452,178.059629L989.978667,174.887241L987.518047,170.358718L982.659921,165.442727L979.270620,162.657806L962.531005,157.741816L957.186136,156.555198L952.310568,155.877130L936.349078,156.167730L927.632823,157.354349L914.776191,159.872886L893.707830,166.532479L881.365863,171.714853L873.873365,175.420008L869.527414,178.083845L866.541179,180.335999L862.698761,184.186454L859.438145,187.116675L850.738540,193.219284L839.690938,199.588277L828.742917,205.037035L820.667432,209.420258L790.525825,226.953151L784.257684,230.948907L762.233890,243.299425L753.065018,248.893484L746.035462,252.598639L740.392613,255.117176L729.249627,259.379316L719.668152,262.697004L710.479119,267.346611L703.357698,271.197067L690.900827,277.323893L662.644411,294.590403L658.593029,297.520624L651.084861,303.477933L646.478695,306.553454L643.261663,308.926691L641.507870,309.992226L639.079860,312.002213L634.615754,315.707368L618.301007,327.936804L615.869641,330.043657L608.445742,335.104948L602.381582,339.754555L583.397364,352.758925L574.879214,358.086600L546.842589,373.754807L530.551520,382.254870L520.611186,387.848928L517.584307,388.914463L511.408120,392.764919L488.857885,404.727971L478.092372,409.643961L459.569433,415.480187L432.217400,422.406164L414.837596,425.457469L408.467767,426.135537L383.860075,426.523004L361.585189,426.668304L342.779382,427.733839L314.030514,426.280837L296.360020,426.038670L289.544056,424.706751L287.483132,423.786516L280.414265,424.319284L276.721686,424.973135L274.048084,427.249505L272.561867,429.356358L271.908474,431.366344L271.906951,433.352114L273.790610,435.071500L275.735228,438.921956L275.136675,441.852177L273.453926,444.758181L271.715129,446.501784L260.309206,452.216926L252.127460,459.239770L249.226690,460.838072L247.254865,461.516140L244.025224,462.169991L237.369635,462.048907L232.708894,463.501910L230.535303,464.712745L227.652343,468.296817L227.351098,469.749819L226.526897,471.541855L225.485246,471.541855L224.906551,471.541855L224.443596,471.541855L223.305496,471.541855L221.839469,471.541855L221.395804,471.541855L219.520709,471.517638L162.047135,471.227038L158.177686,479.606017L147.069775,499.923830L136.620241,521.428262L130.850032,535.255999L119.013186,557.704881L105.276126,582.672300L97.731195,598.606889L90.362196,618.658317L81.401827,638.298060L78.889167,644.013201L72.062821,657.041785L65.669263,671.644455L60.946534,684.794122L50.728728,710.149004L38.023003,738.434105L30.886934,755.434225L26.503737,764.079585L16.484817,786.649544L8.693183,800.719443L6.741666,809.485885L0.000000,823.604217L0.000000,823.604217L56.999393,823.676867L64.259535,833.436194L75.395260,836.390630L141.884008,843.122870L188.548731,841.355052L341.102869,842.614320L357.057089,834.186911L351.003543,827.188287L343.205918,816.629810L342.025308,810.285036L341.329699,803.722313L342.346027,791.274932L350.089466,756.427109L361.286941,717.244496L366.611288,696.393920L367.506492,692.809848L374.827088,662.756926L379.925558,645.684154L385.283466,633.115687L393.317131,619.457468L401.072424,607.857669L409.801096,598.655323L422.457745,586.595406L456.792914,555.404295L493.085170,522.857048L512.453018,504.452354L548.242132,472.946424L549.341652,472.946424L650.369410,472.050406L667.552031,471.905105L672.196895,471.880889L672.949198,471.880889L704.504745,466.940681L715.575988,463.768293L726.476105,458.852303L733.414712,455.534614L743.691252,449.407788L750.980632,445.290949L754.098005,443.837947L759.406423,440.108574L765.601539,436.258118L782.726135,424.973135L795.793435,415.407537L798.947726,412.889000L801.934906,410.879013L816.465338,400.005713L824.906544,392.571185L831.194861,386.589660L842.160366,377.145145L846.345231,373.972757L872.374644,352.323024L877.030323,347.673417L880.521432,344.622112L887.378722,338.228903L910.975985,318.443856L925.621543,306.626104L930.759539,301.976497L949.689890,285.363839L960.177539,275.943541L964.314135,272.359469L967.078190,269.695632L973.303137,263.326639L978.815035,257.078729L981.270491,254.414892L985.245455,249.377818L986.952334,245.914829L987.590387,243.929060L988.965699,241.265222L990.601579,235.961764L991.276704,232.910460L991.266944,229.447471L992.765800,219.906090L994.562505,215.111183L998.030025,208.863274L999.081487,206.223653L999.953281,202.373198L1000.000000,197.844674Z "/></g><g fill="#000" font-family="Arial" font-size="12px" id="mylayer-label" stroke="none"><text text-anchor="middle" y="517.072665191"><tspan dy="0" x="438.809870796"><![CDATA[N]]></tspan></text></g></svg>