<?xml version="1.0" encoding="utf-8"?><!DOCTYPE svg  PUBLIC '-//W3C//DTD SVG 1.1//EN'  'http://www.w3.org/Graphics/SVG/1.1/DTD/svg11.dtd'><svg enable_background="new 0 0 1000 1001" height="1001px" pretty_print="False" style="stroke-linejoin: round; stroke:#000; fill: none;" version="1.1" viewBox="0 0 1000 1001" width="1000px" xmlns="http://www.w3.org/2000/svg" xmlns:xlink="http://www.w3.org/1999/xlink"><defs><style type="text/css"><![CDATA[path { fill-rule: evenodd; }]]></style></defs><metadata><views><view h="1001" padding="0" w="1000"><proj flip="auto" id="robinson" lon0="-94.272298828"/><bbox h="2.07" w="1.63" x="-1294.03" y="-656.16"/></view></views></metadata><g class="" id="mylayer"><path d="M378.004895,236.241226L376.833612,236.184166L375.328643,236.151560L374.526472,236.135257L374.254978,236.795529L371.739399,243.414580L366.827558,243.333065L369.310034,236.714013L369.494258,236.021136L366.915504,235.972227L364.224704,235.939621L357.109870,235.849955L363.319793,220.614969L360.273162,220.541607L355.953441,220.435640L349.889507,235.116320L349.607202,235.752137L340.659764,235.638016L338.618191,235.605410L338.792819,236.705862L338.672084,237.602528L338.243567,238.882317L336.637302,242.925486L334.963536,246.650764L333.363390,250.302696L332.748105,252.014546L332.232343,253.636731L331.401172,256.269732L331.302515,256.571345L317.716024,255.193705L314.206614,254.492659L295.073825,251.386867L279.827540,248.965826L278.249412,248.737580L256.793404,245.216081L231.356335,241.515265L173.893318,229.752662L173.069208,230.902014L172.212170,232.621970L172.638580,233.632751L172.991865,234.447899L173.630648,234.904382L174.439638,235.491289L174.123271,239.020893L174.435452,243.373822L175.330593,246.031242L177.294245,246.202425L178.863915,247.131709L179.632980,248.183269L179.091087,250.196725L177.780193,251.818906L176.158441,252.797107L173.860341,254.133984L172.294390,254.533417L169.929105,253.962798L167.185239,251.859664L163.591383,249.886962L160.088681,249.185920L157.049357,249.039191L156.598140,249.112556L152.615105,259.041322L147.541859,270.926671L146.314617,271.538063L144.337310,272.296189L142.584554,272.752696L141.585463,273.070620L140.653500,273.225506L140.099307,273.290721L139.686688,273.331481L135.025362,273.217354L130.099041,273.103227L115.406859,273.437456L114.334365,276.184655L113.610386,277.635702L113.274865,278.736217L111.267837,285.323037L111.719127,286.284979L110.248559,290.140910L108.591370,293.964253L107.707272,295.757725L107.381181,296.279464L112.588700,296.475115L114.245473,297.616419L117.343373,297.730550L117.968527,298.831095L119.625313,299.972403L122.793068,300.094686L125.484514,301.268604L125.667080,303.437098L128.996976,305.711577L130.729980,307.040398L136.421597,312.217115L137.272930,313.904651L139.341696,315.453601L144.256654,316.741677L148.211413,317.760726L151.418546,318.527052L154.440440,318.364004L156.390801,318.249871L156.912887,318.306937L160.150832,318.633034L162.716761,318.877606L169.163227,318.323242L174.041309,318.567814L178.359879,319.195550L183.053655,320.222755L186.657924,321.633127L189.450713,324.356048L190.813978,321.037999L211.907975,321.217352L217.245679,325.366955L225.376014,331.668852L227.579496,333.462417L229.813269,335.549478L230.272627,336.079397L233.154539,339.348598L235.901460,343.106974L244.692265,354.471897L247.608606,358.238503L250.394464,361.034935L253.047117,363.065004L255.373006,364.475457L257.227979,365.404890L259.839850,366.472924L261.897568,367.141465L264.748458,367.850772L266.975209,368.242113L270.035008,368.584538L272.400686,368.690526L274.802057,368.682373L278.074610,368.486702L281.405877,368.079054L283.930723,367.630642L289.024262,366.383242L296.322014,363.961823L295.181538,366.823500L295.121382,367.646948L295.411664,368.543773L295.917470,369.073715L296.418180,369.367222L302.041547,372.677335L302.048415,372.497969L302.465322,372.856701L303.346215,373.500789L304.593797,374.674824L304.801840,374.935721L305.464442,375.775484L306.069741,376.680472L306.666895,377.821900L306.764172,378.042032L307.297280,379.338371L308.591434,382.191954L308.927673,382.982806L307.017702,383.488300L301.804878,386.129917L301.388406,386.341899L299.887119,386.602800L296.815849,387.149061L294.014476,387.646405L291.550057,388.396497L290.269833,389.097670L288.804561,389.904836L287.972776,390.361415L286.942455,391.103357L286.854572,391.519171L286.203712,394.544019L286.038996,395.220739L285.423962,398.041770L281.513358,397.903164L279.890836,397.829784L279.519814,397.829784L272.924532,397.837938L272.700305,398.424974L269.752290,406.056492L275.043443,406.170639L283.537933,406.562001L282.229860,409.733672L280.106697,414.943721L284.160085,415.090483L295.700482,415.522617L297.991540,409.913047L308.200301,410.255490L307.536303,411.886176L307.286186,412.489530L305.434394,417.039166L304.334821,419.737977L303.889579,420.814243L303.771151,421.115923L302.259377,421.083309L291.475873,420.789782L274.786972,420.251649L273.513135,420.202728L270.534439,427.614321L264.821284,427.744779L235.559408,426.342360L222.868078,425.779762L221.743666,428.527526L210.703951,455.492034L210.511848,455.956807L219.027921,456.666198L226.482217,456.772199L224.791990,461.387337L223.939975,463.686763L223.128731,465.643727L217.402152,465.309412L215.619375,465.203410L203.009070,464.600012L200.907788,464.388008L199.448719,464.070001L198.782657,463.972153L197.362868,463.548145L195.777439,463.124137L193.027129,462.178274L190.946488,461.338414L189.464380,460.653480L187.957845,459.748389L186.053631,458.468219L185.877288,458.354063L183.208410,456.348195L181.529234,454.782644L173.510498,454.733720L168.294507,454.595104L172.341463,444.533253L170.813736,444.239716L169.219172,443.929872L171.336184,438.360856L165.037699,427.182180L163.400779,424.287656L147.943983,423.928899L135.916182,454.252640L144.735337,454.358640L161.673776,454.546180L163.554641,449.882162L168.393069,449.931085L166.564169,454.472795L167.366562,454.399410L156.287521,482.563523L155.496155,484.520536L208.108255,485.923065L215.115056,486.110613L216.069162,486.110613L213.889359,491.386431L210.617660,499.287997L208.959200,503.299970L207.148183,506.936858L205.044096,510.899944L202.554864,515.115843L202.246574,515.572499L219.678519,516.200401L225.261010,503.365205L232.480601,486.559097L240.707027,486.852650L242.759737,486.909730L246.485638,487.064661L246.637846,486.689565L247.692977,484.145441L248.994563,480.989762L249.485598,479.807404L251.652580,474.172887L253.821167,468.766725L256.017180,468.848266L258.707681,468.954269L268.914402,469.321202L264.299479,480.883757L261.633333,487.562071L264.635279,487.668076L267.351396,480.997916L272.085660,469.345664L274.607018,469.353818L286.564369,470.038760L290.412615,470.095838L283.122462,486.966810L280.794679,492.821591L279.625356,495.781616L275.409708,495.642992L273.602138,495.585911L270.345702,503.626147L270.620000,503.976788L270.664925,504.213267L267.588856,511.552306L264.708580,517.790546L266.662531,517.863937L279.519937,518.230894L287.670449,497.852825L288.461605,495.895777L291.734641,495.985475L302.126783,470.650316L308.054507,471.049866L297.738571,496.197488L303.781672,496.393193L312.333812,475.648784L314.242603,470.764473L328.928602,470.862322L329.372522,470.862322L328.969021,471.897891L324.768767,481.984574L322.534305,487.390831L322.057953,488.426423L321.555292,489.282623L320.830961,490.146977L317.585788,493.327159L316.904237,494.183364L316.499893,494.917255L305.407070,504.759615L301.014575,509.016252L295.184909,519.193138L291.651160,527.983860L291.470147,528.293739L291.064849,528.815641L290.549345,529.313079L282.511898,548.835737L283.441968,548.811272L312.523153,549.724625L312.442135,550.050823L312.173331,550.866319L310.871587,554.185393L309.520807,557.798064L307.231579,563.408747L306.827017,564.501530L296.944223,564.224257L294.687145,569.622954L292.401821,569.549557L288.780722,578.740479L297.993707,579.091155L299.768325,579.058534L300.122016,578.944360L301.457392,579.042224L298.876617,584.922191L298.031075,586.830540L303.211380,586.977337L303.993852,586.993647L308.156753,587.132288L313.700320,587.246463L312.780292,589.660452L320.029803,591.234441L320.586326,591.324151L323.947549,591.373083L327.863530,591.462792L327.023349,593.517956L326.165066,595.622057L325.042419,598.386758L324.975425,598.549867L324.528453,598.558023L322.855638,598.566178L322.371625,598.191026L321.788882,597.742475L321.512320,595.589435L321.260526,595.589435L319.446135,595.622057L317.635352,595.662834L315.327279,599.088129L316.871350,600.376696L317.834520,601.175935L320.340422,598.916864L321.864171,600.009699L322.179209,600.017854L322.563527,600.017854L324.386317,600.034165L323.753777,601.600021L322.875577,603.793856L321.320839,607.618811L321.121633,608.157079L319.578975,608.099990L319.342047,606.036631L317.492605,606.199742L317.197919,607.121321L315.691297,607.969500L314.951088,610.130732L317.828637,610.179665L318.113565,610.179665L318.487790,609.992086L319.096432,609.690329L320.674931,609.364105L320.057163,611.337761L319.675068,613.140154L319.553859,614.094364L319.513690,614.632637L317.599337,615.382957L317.057977,616.720486L308.674721,618.889898L307.781810,619.118258L308.619636,623.228741L309.327875,626.686784L309.962602,629.394509L287.882548,628.627863L284.503575,636.971294L269.402842,636.074147L268.961483,638.251771L269.498740,638.357797L270.618916,638.732969L271.610633,639.312039L272.383683,639.891110L273.075250,640.690391L273.512656,641.424425L275.460211,641.408113L280.461790,641.554920L279.542719,643.805963L274.611531,643.773340L273.982027,643.773340L273.980717,643.920147L273.961631,644.491065L273.830231,645.437158L273.565059,646.440345L272.407599,649.335729L270.444550,654.229361L245.693503,652.908077L241.589393,663.086915L245.701706,679.644133L259.377317,680.060107L253.396784,694.113645L258.143008,694.431749L257.324856,696.536133L288.568352,697.792241L296.160409,698.102190L304.053799,684.913157L304.812619,684.276957L312.312323,683.779416L315.344410,683.518412L315.667169,683.738634L316.148965,683.958857L316.485624,684.105672L318.684872,684.358521L319.477629,684.382990L319.158968,685.369916L314.556729,696.397472L313.499201,699.023881L311.932365,698.942315L310.228794,698.836280L309.561341,698.795497L308.913768,698.754714L303.219327,698.420295L302.911488,698.428452L301.041069,698.289790L298.851337,698.208225L291.132928,717.017476L284.574480,716.797243L287.021807,710.753111L281.950960,711.258826L278.039525,711.120162L275.291159,717.906563L271.185685,728.004709L289.073937,728.355455L300.417453,728.681730L301.913256,728.722515L295.666378,744.237069L290.033427,757.949197L288.417718,757.892097L279.481268,782.298830L266.680849,817.254359L266.226210,818.502509L295.199336,819.489610L317.527439,820.256449L324.295398,820.484869L326.305785,820.550132L304.555583,874.793762L302.998811,878.685355L294.976774,898.412852L289.011576,898.217043L289.320733,897.433808L297.068040,878.432441L295.229285,878.350856L285.489063,877.951090L274.364916,877.763445L271.736260,878.008200L270.766894,877.869506L270.349375,877.869506L247.780869,936.751577L247.427178,937.404306L233.791420,936.694463L216.488232,936.457848L201.572617,973.803018L206.007724,974.015165L204.492535,978.119411L220.730311,978.119411L229.816259,978.551868L228.579492,982.027849L224.031430,994.797726L242.118530,995.066997L248.015434,995.377067L249.387375,995.377067L249.671688,994.642691L251.272176,990.522037L250.771482,990.513877L257.368394,974.276270L259.512142,974.357865L263.443045,964.697058L266.989424,964.803131L257.426741,988.751387L258.716736,988.775866L259.794644,988.800345L265.505328,988.914580L266.933296,988.906420L267.189307,988.302605L275.773419,988.604513L274.911452,990.832105L272.426740,996.756064L284.827282,997.115094L287.938714,997.196691L311.452221,997.865792L336.584142,998.657289L345.794346,998.951041L346.869857,999.000000L354.228655,980.640718L355.439112,980.665197L373.646581,980.967102L386.013317,950.263192L367.837508,949.643088L366.679491,949.602292L345.527320,948.876119L348.546139,941.255422L352.218994,941.377809L355.185115,941.475719L358.321737,941.434923L358.701873,940.333437L359.794810,940.317119L367.475493,940.211050L370.765466,932.035622L373.609730,924.978063L375.461201,925.043335L376.357113,925.075971L377.730804,925.124925L383.663002,910.063574L392.806089,887.977938L395.643042,881.606102L402.666735,881.932443L416.212813,848.989009L436.237588,849.641663L436.179732,849.780352L429.076961,867.736732L430.727743,867.753049L459.159755,867.965167L461.370839,867.989642L444.313936,910.430722L443.986195,911.246606L442.925867,913.849281L450.999875,914.257225L487.557993,916.084815L499.230464,886.713357L504.574139,873.480252L511.533650,856.249822L524.635586,856.429303L525.575311,858.550453L525.947036,858.566770L551.968370,859.725246L556.042887,859.872096L556.811716,857.987532L568.582407,829.058841L578.184412,805.450060L573.541922,805.352167L547.513547,805.237959L539.270488,826.978563L539.012553,827.623041L536.764174,827.574093L534.965235,827.492514L535.481743,825.950663L529.033042,825.665136L509.103172,824.792238L525.185494,784.884750L531.618190,768.928868L531.700775,768.741249L531.758647,768.602575L531.767690,768.578103L538.276446,768.610732L547.253976,768.741249L548.816668,768.888081L550.255618,767.648170L550.650308,767.297406L557.323832,751.031923L538.373300,750.273311L537.715346,750.583282L536.982081,750.917724L525.018479,750.493553L525.319927,749.767570L526.842882,746.023465L539.390200,746.463947L540.275768,746.488418L548.511815,726.267296L561.355299,694.554097L560.475792,694.513314L532.231367,693.730289L532.580638,692.678101L533.969516,689.333945L536.591868,682.743554L538.874133,677.001479L536.322981,676.911759L531.194171,676.732320L517.772157,676.275566L510.115691,676.014564L508.742227,675.965626L507.858084,677.980239L496.797063,705.027136L495.650662,705.027136L494.713297,705.035292L494.742859,704.937413L472.064954,704.709027L470.473977,704.692714L467.142627,704.651931L488.982386,650.110552L490.085762,647.378285L492.095923,647.443533L498.278813,647.639277L506.219471,647.883958L513.367391,648.104170L513.362933,648.528283L519.322414,648.593531L520.273595,648.601687L526.216807,648.675091L527.807830,648.511971L529.189575,648.789275L530.451502,648.960552L550.497273,649.352041L551.190561,647.280413L556.912839,633.170658L563.839683,616.092500L575.756372,586.675589L576.334414,585.256560L583.429983,567.763579L585.376702,562.968372L568.753425,562.642168L557.033351,562.405671L552.312074,562.307810L552.580877,561.312891L553.236147,558.271056L555.342769,552.578861L557.322574,548.142568L557.910324,546.805161L560.012857,543.380106L563.187800,543.502429L568.157565,531.131584L568.555339,530.128551L573.404840,530.201944L582.730292,530.462895L578.292197,541.683894L580.226835,541.863301L592.824123,542.450451L593.332552,542.401521L593.716857,542.401521L594.632394,540.142627L594.960714,539.327144L598.352129,530.772775L598.649691,530.022540L610.031747,502.460063L613.047584,494.958026L616.793417,495.112959L627.173178,495.585911L628.271802,495.642992L641.581107,496.417656L638.824854,504.131723L632.911262,520.644660L632.085142,528.587309L632.761362,528.872724L641.028433,532.297713L642.637143,532.534201L643.903592,531.368071L646.030648,531.188667L649.335464,523.082897L651.135158,521.729226L652.383799,520.253238L653.623085,518.426605L656.699275,516.184092L658.700713,515.645890L660.960344,515.376789L663.992928,515.686663L664.459166,515.662199L665.284969,515.686663L666.040459,515.507262L666.136971,515.336017L673.165777,498.333933L682.367555,476.072799L682.900564,474.776292L691.200982,475.192152L695.568332,475.404160L695.247083,476.325577L692.387924,483.118009L689.549173,483.036467L683.640035,498.211618L679.632050,508.502519L682.144343,508.624836L689.249367,508.959171L696.645647,489.747417L699.031963,483.533874L699.303618,483.533874L702.749131,474.996453L703.050854,474.360431L703.134792,474.115808L702.611363,474.115808L697.372366,473.985342L691.644912,473.814106L680.120116,472.819304L678.463188,472.713301L660.468405,472.085435L654.475429,471.808196L651.573382,471.808196L641.176095,471.579881L640.555714,471.555419L625.280000,470.813397L602.181993,469.223353L599.827618,469.068426L596.596810,468.954269L598.786490,463.703071L600.250527,460.196857L600.705849,460.237627L603.051736,460.433322L618.536157,461.362876L625.522096,461.248720L627.741468,455.810036L637.830215,431.055153L643.897119,430.720853L651.974662,430.288710L661.165965,429.783185L662.733282,429.701648L668.277933,429.399964L667.216511,431.943901L662.591741,443.090033L673.591505,443.587413L674.663128,442.250194L675.727650,442.649729L676.416449,442.918803L677.301230,441.084206L677.621713,440.415598L678.171634,440.415598L678.281423,440.244369L678.763242,440.285138L679.485297,441.663123L681.436453,442.674190L682.111915,443.032956L683.146318,440.937438L684.337679,440.350368L686.080353,440.815132L686.995818,442.136041L688.047234,443.644490L691.308602,443.872796L691.735743,443.774950L692.503221,443.652644L693.467706,443.481414L694.547257,443.285723L694.025661,444.533253L696.391491,444.639252L713.531408,438.735928L715.024430,438.246704L716.512586,437.806403L718.006108,437.423178L719.491745,437.097029L720.965892,436.819803L722.441798,436.591499L723.893549,436.428425L725.340434,436.314273L726.766184,436.257197L728.170798,436.257197L728.511901,435.425520L731.788389,427.418635L732.024996,426.904958L732.471036,425.950987L733.876185,422.926011L743.633030,422.396030L757.717157,421.613289L763.723348,407.613787L763.372787,407.630094L762.469881,407.670861L749.501533,408.249752L755.334328,396.973690L775.578723,389.701006L778.030597,389.806998L778.307755,389.130283L784.955911,389.211815L802.369409,389.546096L808.679089,389.611321L814.350458,375.498281L820.486650,360.203342L813.328078,359.926144L808.667125,359.738628L804.570586,359.494042L796.357051,358.988565L790.925041,358.915190L790.739255,358.075446L791.370334,356.550866L793.073987,352.417393L795.402940,352.515227L798.889453,352.653824L798.995755,352.384782L802.372759,352.425546L814.409003,352.931019L814.584673,352.564143L816.391288,348.438846L815.910996,347.052882L819.491354,340.286152L820.045431,340.310610L820.372500,340.286152L821.081462,338.623014L831.233676,340.172015L854.161358,343.074363L854.809770,341.663951L855.985884,339.079561L840.783461,337.016947L806.669445,331.709615L783.344833,328.073585L780.596524,327.641502L773.366996,326.394169L774.141937,324.535402L784.944839,298.496855L796.248855,299.010443L826.327947,300.168056L841.316549,300.803928L841.961129,299.189792L851.795936,274.603180L843.563497,274.203736L844.382732,272.190214L840.032847,271.986417L842.125092,266.842589L836.749647,266.581731L838.890894,261.323816L830.868090,260.948834L839.620933,240.431109L844.514533,240.651200L845.838205,240.708261L869.008469,241.735357L874.899355,224.185258L890.030393,224.470556L890.878274,222.326750L892.618819,217.900583L891.425426,218.153273L889.203716,218.177727L888.487211,216.751251L887.552852,213.482594L886.248669,212.854948L882.679607,211.689322L881.565227,210.996468L881.097294,210.132439L880.878507,208.542955L880.279772,208.192454L878.002053,208.225059L874.343061,208.070186L871.215382,207.393638L869.906204,206.904568L868.182544,211.624112L856.775523,211.175795L850.392762,210.898653L851.345977,208.453292L858.893246,189.281942L866.316114,170.412672L857.206247,170.005134L857.587784,168.994440L844.044416,168.537998L836.353800,168.269023L841.756090,154.421040L854.810873,120.914733L852.274343,120.931033L851.809344,120.988085L848.847413,121.151089L848.385439,121.199990L845.278055,121.558600L838.493165,122.169867L836.390959,122.104665L834.239079,121.852008L830.279356,121.240741L825.583338,120.507222L825.023446,120.409419L824.436838,121.900909L823.141507,125.177308L822.484201,126.823663L814.321326,126.399849L810.487439,126.163491L808.052287,126.049387L810.627722,120.001909L811.058793,118.983134L811.498939,117.939910L811.212370,117.891009L810.455051,117.736155L809.996180,118.811980L809.503466,119.961158L808.958187,121.216291L807.949568,121.167389L803.964488,120.963634L804.481400,119.749253L806.199088,115.674162L805.659647,115.592661L805.259891,115.527459L803.772029,115.413357L802.479720,115.397057L800.478888,115.576360L799.827108,115.690463L797.727184,116.065370L796.019816,116.489178L795.786611,117.296045L794.954542,119.341742L787.449870,137.851078L784.216728,145.903723L784.128448,146.123787L772.378793,145.618456L757.827320,144.933815L754.167924,144.762655L753.525743,146.368302L740.028699,145.716262L736.664377,145.553252L738.208024,141.804036L742.031700,132.268072L748.702812,115.649712L741.862426,115.250354L741.251844,115.217754L736.472605,114.940648L736.055303,115.975718L718.499335,115.177003L717.166875,118.534873L716.408045,120.311617L709.406209,119.936707L711.504304,114.712444L708.263050,114.467940L705.863080,114.223436L704.714286,116.872236L701.915568,123.645060L698.802649,131.086273L697.080426,134.566473L696.217491,136.677421L694.446671,141.502469L693.601488,143.458579L686.157006,143.026604L698.349696,113.335071L690.409705,112.935714L680.046542,112.479307L675.813952,112.300005L688.013057,82.259279L690.655990,75.747631L693.190409,75.861727L720.673315,77.165682L723.827574,69.276788L693.781702,68.078792L699.650309,53.148830L684.950722,52.651713L696.622018,23.134991L690.692042,22.711237L682.173045,22.124501L652.596526,20.396891L651.992612,20.364295L656.892109,7.977781L630.726655,6.519120L632.284732,2.860257L633.165958,0.684505L629.814487,0.594867L611.740509,0.000000L608.490154,11.921885L607.947113,13.633176L633.219735,78.811929L623.753367,104.557431L617.189487,104.484081L615.264596,109.276316L594.119324,108.314607L588.273957,107.858203L586.939049,107.760402L585.716753,107.662601L584.593657,107.654451L579.394854,107.312148L574.013027,106.945395L566.614243,106.676443L564.764935,106.643843L561.115715,106.570493L558.991216,106.529742L553.743838,106.407491L544.641892,106.211890L542.646280,106.162990L538.080630,106.024439L529.976326,105.942938L528.485301,105.926638L525.890984,105.616937L524.496799,105.339835L523.008328,104.924183L521.453211,104.402581L519.228411,103.579428L517.176584,102.682926L514.458975,101.973875L512.892567,101.696775L511.997324,101.574525L510.272169,101.493025L508.274680,101.484875L500.997474,102.226525L498.778930,102.242825L471.349158,100.384626L468.383394,100.343876L465.749067,100.498726L462.871984,101.004025L462.622548,101.069225L452.760148,103.652778L442.907386,106.228190L440.239070,106.831294L437.528497,107.173597L434.647749,107.385499L431.770144,107.214347L411.262447,105.160534L409.408008,104.981233L393.704348,103.440878L374.942000,101.664175L372.594107,107.450699L336.544768,104.508531L338.631730,99.496278L332.307282,99.259929L327.853143,99.088779L324.413258,98.844280L323.682974,102.968177L323.364219,104.272180L322.714504,106.057039L322.150090,107.344748L318.115025,114.802096L316.472836,117.850258L316.077084,119.129837L316.017815,120.181213L316.095070,120.401269L316.214176,120.776179L316.505734,121.346694L316.900605,121.746055L327.497452,129.635516L328.154508,130.238640L328.423530,130.638005L328.797627,131.200378L329.232367,132.170268L329.387175,133.091257L329.432226,134.093751L329.295567,135.014743L328.998097,136.261751L328.690180,137.305002L322.541820,152.114427L320.484669,156.923275L319.551187,159.205452L322.451552,159.172849L334.235210,159.515176L337.753771,159.637436L341.789612,159.775997L346.802274,159.906408L349.777225,159.922709L350.121697,159.922709L357.121452,144.281776L359.350106,144.363281L368.559793,144.697451L364.463228,154.249878L362.001469,159.417369L361.632618,160.232434L367.326130,160.509556L382.461289,160.460652L382.178977,161.381677L373.317089,161.805512L372.655216,161.821813L347.772448,161.218663L345.750272,161.169759L341.425736,160.827432L339.263304,166.312847L332.203415,165.986818L334.573114,160.460652L325.099740,160.354693L319.151314,160.175379L313.673012,173.485518L313.236852,175.213490L313.211007,176.175287L313.271284,177.137086L315.706636,182.818246L316.546848,184.766315L317.204109,186.314992L317.571755,187.162691L322.850966,184.790767L323.665434,189.021111L318.528301,189.404207L321.537813,196.430384L327.906296,210.988317L334.512981,226.084529L335.411036,228.163135L344.181167,228.040864L356.434456,197.416663L358.347638,192.672757L363.042939,181.611912L368.918011,181.774930L372.253020,181.856439L362.253868,205.404753L366.316334,205.543323L376.875381,205.901974L377.595015,205.926427L380.867295,198.394792L396.221933,198.737137L399.217688,191.629428L406.767517,191.849505L404.813722,196.471140L394.508111,220.688331L394.223352,221.348589L389.832906,221.397497L388.035889,221.348589L384.937686,229.108699L381.628341,236.420559L381.356150,236.404256L378.701645,236.273832L378.004895,236.241226Z M296.322014,363.961823L296.604081,362.950863L300.161024,354.447439L302.020525,350.004174L304.749159,343.449387L306.769558,338.590403L331.203464,339.625788L330.163359,342.144958L328.579974,345.968570L328.437067,346.514802L328.245195,353.232672L314.534419,357.708568L305.030521,360.969712L299.777824,362.771500L296.322014,363.961823Z M378.004895,236.241226L377.177567,239.452924L374.685086,238.939377L378.004895,236.241226Z M347.647989,749.359715L348.188943,748.021950L355.681314,748.225878L355.160248,749.563642L347.647989,749.359715Z M301.583333,428.127999L301.724072,427.801855L302.525156,425.836837L304.031473,425.902066L307.498245,426.040677L306.836632,427.736626L306.608851,428.315532L301.583333,428.127999Z M740.366243,330.812835L738.764382,328.627956L741.148993,328.986667L744.216467,329.451361L742.352107,333.731452L740.366243,330.812835Z M376.108473,704.341979L377.011446,702.115225L383.026415,702.425176L382.110198,704.651931L376.108473,704.341979Z M241.730168,288.901793L242.577846,285.331189L247.333543,284.458921L246.373244,288.029520L241.730168,288.901793Z M264.421206,668.217167L264.652249,667.735950L264.843294,667.613606L265.008604,667.238420L265.487735,666.014988L267.128505,661.830865L267.590949,661.243622L267.864529,661.113123L267.784277,662.189736L267.829704,662.711731L267.879863,663.364225L268.179689,664.506091L268.643526,665.419585L269.356804,666.267830L270.182854,666.936640L271.179479,667.466794L267.765377,667.882762L264.421206,668.217167Z M306.064725,399.232150L313.739001,394.364647L313.852445,394.666318L314.008084,395.408263L313.989604,396.190976L313.515021,397.095989L312.701625,399.183230L306.064725,399.232150Z M662.107790,297.110985L663.127069,294.665337L674.105575,295.341965L673.111192,297.649028L662.678701,297.143593L662.107790,297.110985Z M227.192773,455.426802L229.533994,449.466315L234.087997,449.621238L233.427088,451.243856L231.935502,454.929414L231.679954,455.565419L227.192773,455.426802Z M307.630164,413.402717L308.249411,411.910636L308.920033,410.279951L309.446887,408.983558L309.767093,408.208985L310.083696,407.426259L310.219808,407.434413L314.676747,407.564867L314.381299,408.290519L314.131762,408.910177L312.900472,411.910636L312.220794,413.565786L307.786153,413.410870L307.630164,413.402717Z M224.509782,465.725267L226.543974,460.539324L231.112320,460.816559L230.614132,465.969888L224.509782,465.725267Z M793.300714,183.502922L795.092000,178.995481L798.393764,179.166649L800.391211,179.264459L801.632307,179.329666L801.222391,180.381129L800.065801,183.356205L799.889859,183.812657L798.702333,183.763751L793.300714,183.502922Z M719.724249,370.125449L722.442597,363.521566L727.272204,363.700930L724.534586,370.321120L719.724249,370.125449Z M527.042401,836.311306L527.726986,834.655225L528.979867,831.604130L535.012900,831.848870L536.234086,831.897818L534.341221,836.645786L527.042401,836.311306Z M336.683781,949.349355L336.997048,948.590545L340.170751,940.855623L340.603321,939.917320L344.332205,940.031548L345.002187,940.047866L344.644328,940.945374L341.248362,949.479903L336.683781,949.349355Z M642.663753,488.499812L648.432876,474.384894L648.874167,473.300396L649.484905,473.333013L650.440179,473.365629L652.052570,473.430862L651.599793,474.564285L652.140668,474.588747L648.984898,482.808149L648.236191,482.808149L645.888569,488.630280L644.265929,488.556892L642.663753,488.499812Z M659.059435,304.619174L661.084920,299.548488L661.213011,299.238705L661.797753,299.287618L672.066024,300.110990L670.673918,303.526772L670.456094,305.687120L666.134604,305.352877L659.059435,304.619174Z M326.016802,373.468177L326.917687,371.788658L328.179316,368.796515L330.827713,362.510607L331.471284,360.953406L336.533182,361.238757L336.133743,362.208950L335.379628,364.010741L331.995317,372.049554L335.320750,371.943565L335.045251,372.579499L330.815294,372.587652L329.230109,372.538734L328.231312,372.677335L327.338979,372.921925L326.016802,373.468177Z M255.248026,464.665244L256.629963,459.862545L257.558718,459.895161L261.103326,459.984854L271.363678,460.278397L272.355085,460.302859L270.379119,465.260488L260.162779,464.901711L255.248026,464.665244Z M365.846043,528.114336L368.627694,521.174711L372.231496,521.248103L372.824805,521.256257L379.710675,521.484587L379.130928,523.050279L377.733250,526.467086L376.942913,528.440524L372.117581,528.301894L365.846043,528.114336Z M405.474738,846.859727L415.415049,822.499867L419.105681,822.663024L415.172203,831.857028L408.703346,846.982100L405.474738,846.859727Z M282.393949,435.588594L285.391649,428.250303L299.498079,428.641677L300.346726,428.657984L298.277053,433.688785L297.579310,435.392905L297.283316,436.102277L296.580427,436.085970L284.264680,435.653824L282.393949,435.588594Z M258.070680,306.787677L260.174540,301.651759L266.112641,297.591963L265.177296,296.059355L268.238367,293.540342L268.895083,293.002301L269.191787,293.524037L270.103509,295.138162L271.115804,297.534898L271.699757,299.246857L271.862379,299.630010L272.874128,302.010457L273.549260,303.583838L275.358628,307.814865L272.590656,307.757799L267.700942,307.651819L266.940217,307.684428L266.142629,307.798560L265.811817,307.904540L265.597454,307.089311L258.070680,306.787677Z M705.687130,303.526772L707.345442,299.589249L714.684319,299.915337L715.127613,299.899033L722.403034,300.396317L719.797333,306.746915L718.297288,310.382841L715.955636,316.146553L714.927095,315.543277L712.078594,313.880194L709.788845,309.494239L705.687130,303.526772Z M223.672114,289.040378L227.303718,277.537878L232.151712,277.684613L240.731547,278.075908L237.404506,289.382766L231.492749,290.817534L226.907694,290.426233L223.672114,289.040378Z M430.137853,754.612910L432.650502,748.389019L435.050466,742.434362L450.415883,742.923784L448.182974,748.552161L445.600974,755.143126L430.137853,754.612910Z M511.723650,783.187994L517.859519,767.264777L530.100386,767.656327L523.562200,783.628497L517.340801,783.391931L511.723650,783.187994Z M258.510036,457.130972L258.717814,456.641737L262.350402,456.690660L273.025335,456.812969L273.808908,456.861893L278.089365,446.400474L279.780223,442.266502L293.721036,442.747574L294.911782,442.788343L294.237657,444.410946L293.124974,447.109857L292.441798,448.756931L288.994890,457.326667L288.252237,457.310359L283.724709,457.155434L283.904706,456.723276L284.939485,454.162947L283.647492,454.162947L281.475564,454.105870L279.970646,457.970828L279.735145,457.962674L275.781023,457.815903L275.346170,457.791441L273.952456,457.726210L271.934767,457.628362L266.581475,457.448976L262.155771,457.269589L258.510036,457.130972Z M436.383622,813.942284L439.999649,805.572426L456.038614,806.249516L448.624145,823.968289L442.115824,823.682762L439.145121,823.544078L442.203229,814.513330L436.383622,813.942284Z M618.064414,479.546471L621.127554,472.060973L624.737796,472.224055L637.509768,472.802996L640.273770,472.925308L638.403005,474.148424L636.974288,474.123962L631.392663,487.929013L630.045874,487.880087L619.814874,487.488682L616.059415,487.341906L619.250334,479.636167L618.064414,479.546471Z M561.092107,467.266380L562.148219,464.575550L565.009882,457.277743L565.343141,456.503120L566.830120,456.674352L569.949843,457.016817L576.701812,457.766979L592.434153,459.511925L588.764026,468.367176L588.285779,469.622902L574.500125,469.043963L566.588253,468.652568L560.900087,468.375330L561.092107,467.266380Z M387.749251,670.949509L390.265495,664.881276L393.262166,657.442863L395.534940,651.782541L396.322838,649.939275L396.494168,649.547786L397.188104,649.588566L398.322990,649.637502L402.303610,649.678282L407.016740,649.727218L411.977415,649.841403L402.937378,671.504135L399.110997,671.332854L388.557679,670.949509L387.749251,670.949509Z M750.399246,382.412088L759.713545,359.469584L760.795211,359.518501L762.886266,359.078247L768.175440,359.233151L780.121799,359.909838L789.658242,360.170730L789.119244,361.768694L787.376791,366.203877L786.438439,366.179418L778.448665,365.910371L760.582092,378.156175L754.173736,382.542538L750.399246,382.412088Z M313.933997,774.035366L314.142618,773.578553L319.967985,759.164621L320.135630,758.764918L320.925411,758.797547L325.402636,759.001477L339.818661,759.711154L342.879091,759.588796L351.471677,759.523538L352.263282,759.515381L352.071523,759.980343L351.599961,761.130512L346.312888,773.945635L346.005370,774.687956L345.787084,775.242658L313.933997,774.035366Z M338.279876,373.272505L338.580832,372.514275L340.536693,372.367521L340.774622,372.351215L343.369100,366.228336L351.166936,365.853301L350.718576,366.937641L349.305275,370.321120L350.602549,370.378191L352.106399,366.839806L354.260445,361.744235L356.298522,356.925896L361.134114,357.088952L360.692365,358.173280L360.357566,359.004871L359.817941,360.317482L357.669701,365.576101L359.465727,365.592407L358.953901,366.847959L357.867029,369.350916L357.787287,369.530282L358.211885,369.546588L360.830611,369.595505L360.570111,370.280355L364.455428,370.361885L368.119669,370.467874L374.163263,355.058900L375.935308,350.118312L378.445642,343.115127L379.979164,343.481997L389.363976,343.954853L386.412254,350.933588L381.483566,365.372278L384.738430,365.331514L383.000637,370.019460L384.133560,370.019460L386.571662,370.019460L386.166807,371.022277L384.456042,375.816249L380.041848,375.767331L382.027984,370.891829L379.736335,370.818452L377.753795,375.702106L356.866094,375.196618L353.855305,375.115088L354.623306,373.239893L346.127019,372.978996L343.079505,372.889313L340.969863,373.182822L339.131516,373.280658L338.279876,373.272505Z M645.711272,412.138932L646.652706,409.847819L654.347946,405.224848L660.931696,401.384624L661.778506,403.104977L670.631625,397.699332L676.534524,394.087437L678.236563,394.160816L714.034274,395.661014L707.821278,410.288104L707.302037,411.511118L707.041154,412.179700L706.447298,412.155239L700.829784,411.902483L697.760539,411.763874L696.735304,414.209909L678.758361,413.321182L666.286715,412.880896L660.730588,412.677060L645.711272,412.138932Z M352.593159,910.137004L352.985413,909.272168L361.779478,887.414995L363.363753,883.555992L364.581662,880.545494L372.584362,881.002371L374.135137,881.092115L388.338020,844.004378L386.790284,843.996220L385.484737,843.996220L394.249017,821.708551L401.726687,821.953288L403.571403,822.018551L380.102682,881.353187L380.503933,881.361346L382.484882,881.434773L380.578844,886.093305L370.427464,910.944729L368.559749,910.708122L352.593159,910.137004Z M515.275159,586.275977L521.506476,570.976712L533.199724,542.246579L557.398104,543.265938L555.718730,546.299557L554.755162,548.330131L553.554485,550.858164L552.795888,552.693031L551.484122,556.362779L550.933970,558.189505L550.486959,559.844980L550.028859,561.834815L549.683545,563.645245L549.403908,565.439368L548.810468,570.462936L548.409819,573.031819L548.160853,574.116461L547.410361,577.362241L546.897093,579.107466L543.751730,587.303551L540.364657,587.181221L540.257797,587.523745L532.266934,587.164910L526.492747,586.903939L521.438511,586.488016L515.275159,586.275977Z M841.316549,300.803928L829.563441,330.160632L838.341902,330.535648L859.069733,331.399818L863.677011,319.912963L863.893237,319.383056L869.844966,304.912655L870.404861,304.081125L871.153756,303.347423L871.869683,302.988724L872.325541,302.026761L860.502872,301.553932L849.197543,301.097408L841.316549,300.803928Z M266.226210,818.502509L260.976970,818.575930L252.901084,818.371983L233.665358,817.898828L212.927154,874.524533L227.340736,875.046674L230.246279,867.181962L237.662111,867.361447L238.818212,864.734455L247.449791,865.085264L265.389540,819.995397L266.226210,818.502509Z " data-aland="57782327" data-awater="199618" data-classfp="C1" data-funcstat="A" data-geoid="2906652" data-intptlat="+39.0120010" data-intptlon="-094.2676122" data-lsad="25" data-mtfcc="G4110" data-name="Blue Springs" data-namelsad="Blue Springs city" data-pcicbsa="N" data-pcinecta="N" data-placefp="06652" data-placens="02394206" data-statefp="29"/></g><g fill="#000" font-family="Arial" font-size="12px" id="mylayer-label" stroke="none"><text text-anchor="middle" y="433.229947392"><tspan dy="0" x="483.643658511"><![CDATA[Blue Springs]]></tspan></text></g></svg>