<?xml version="1.0" encoding="utf-8"?><!DOCTYPE svg  PUBLIC '-//W3C//DTD SVG 1.1//EN'  'http://www.w3.org/Graphics/SVG/1.1/DTD/svg11.dtd'><svg enable_background="new 0 0 1000 1001" height="1001px" pretty_print="False" style="stroke-linejoin: round; stroke:#000; fill: none;" version="1.1" viewBox="0 0 1000 1001" width="1000px" xmlns="http://www.w3.org/2000/svg" xmlns:xlink="http://www.w3.org/1999/xlink"><defs><style type="text/css"><![CDATA[path { fill-rule: evenodd; }]]></style></defs><metadata><views><view h="1001" padding="0" w="1000"><proj flip="auto" id="robinson" lon0="-77.7545541961"/><bbox h="0.12" w="0.12" x="-1055.38" y="-690.2"/></view></views></metadata><g class="" id="mylayer"><path d="M485.505830,999.000000L534.191129,998.729843L564.876514,994.272251L605.440154,984.141367L668.213919,966.581188L713.150832,955.099546L774.441042,941.861902L820.145324,933.351996L864.456604,927.273495L914.302370,918.088210L928.463456,858.924337L925.217287,854.061566L930.460990,822.183447L936.859364,783.686678L950.941774,734.519052L962.074504,699.804667L961.262588,691.430005L959.489886,688.458352L964.750253,682.244899L969.569998,673.735174L983.496702,619.165018L982.694787,597.418069L971.311109,591.204662L946.727544,591.880032L902.692629,595.527031L837.530761,602.145663L798.813480,607.548630L770.541724,613.762045L734.969254,624.973216L701.445150,629.565747L670.007388,628.079928L642.652038,623.487398L602.924558,611.330709L567.152980,591.880032L539.426424,574.050272L504.930008,547.305681L475.074728,517.454465L470.734777,494.627114L470.171698,462.749938L475.115942,421.012575L485.649864,353.881907L487.547004,309.308429L480.158612,239.071764L460.222060,102.246502L446.410406,59.835035L424.059844,0.000000L214.160148,125.613392L205.426002,130.881079L130.268926,175.724043L181.725826,255.550329L245.889728,443.164426L283.863593,552.843698L93.350091,623.622472L63.297254,634.698577L125.634723,842.309877L93.459221,846.227106L95.520617,897.826577L95.169030,906.336459L34.957272,911.874639L16.503298,929.839972L35.904498,930.920595L59.457834,932.271373L81.107781,930.380284L154.136637,930.785517L152.996575,934.432618L161.616982,934.702774L162.837362,935.378163L179.511248,936.593864L212.199376,939.970811L248.032502,949.156112L296.737564,963.474390L305.379177,965.635641L327.468020,971.579083L354.086077,974.415726L399.357474,982.790583L446.753566,992.786388L485.505830,999.000000Z "/></g><g fill="#000" font-family="Arial" font-size="12px" id="mylayer-label" stroke="none"><text text-anchor="middle" y="626.399391625"><tspan dy="0" x="460.849454506"><![CDATA[N]]></tspan></text></g></svg>