<?xml version="1.0" encoding="utf-8"?><!DOCTYPE svg  PUBLIC '-//W3C//DTD SVG 1.1//EN'  'http://www.w3.org/Graphics/SVG/1.1/DTD/svg11.dtd'><svg enable_background="new 0 0 1000 1001" height="1001px" pretty_print="False" style="stroke-linejoin: round; stroke:#000; fill: none;" version="1.1" viewBox="0 0 1000 1001" width="1000px" xmlns="http://www.w3.org/2000/svg" xmlns:xlink="http://www.w3.org/1999/xlink"><defs><style type="text/css"><![CDATA[path { fill-rule: evenodd; }]]></style></defs><metadata><views><view h="1001" padding="0" w="1000"><proj flip="auto" id="robinson" lon0="-90.2069567664"/><bbox h="0.14" w="0.21" x="-1250.33" y="-617.36"/></view></views></metadata><g class="" id="mylayer"><path d="M1000.000000,437.269453L994.501836,408.811935L988.180496,396.218666L982.005870,383.788947L973.390093,371.113905L936.068263,316.079695L935.240462,314.934852L926.265283,304.631272L905.540309,280.671359L870.231043,219.340534L865.588179,191.946102L865.357141,190.801260L862.653065,174.773474L864.829165,166.923130L865.415889,164.878770L859.408439,164.796996L853.308566,164.796996L772.131602,165.696514L501.109054,167.904423L218.656205,170.194107L13.234792,794.215241L5.397974,818.338738L0.000000,834.203004L299.580320,786.201334L585.404396,740.162259L767.264691,710.723423L780.475281,708.597284L782.032122,704.345008L788.894798,692.405925L796.046786,679.976195L806.604043,661.658700L809.627580,656.343355L837.659965,618.808847L846.256852,608.914130L895.996054,552.407941L931.041371,522.396698L960.923254,496.719505L967.129482,491.404163L969.136611,489.686899L971.021149,487.315439L989.798233,463.191964L1000.000000,437.269453Z "/></g><g fill="#000" font-family="Arial" font-size="12px" id="mylayer-label" stroke="none"><text text-anchor="middle" y="468.269191613"><tspan dy="0" x="495.092108057"><![CDATA[N]]></tspan></text></g></svg>