<?xml version="1.0" encoding="utf-8"?><!DOCTYPE svg  PUBLIC '-//W3C//DTD SVG 1.1//EN'  'http://www.w3.org/Graphics/SVG/1.1/DTD/svg11.dtd'><svg enable_background="new 0 0 1000 1001" height="1001px" pretty_print="False" style="stroke-linejoin: round; stroke:#000; fill: none;" version="1.1" viewBox="0 0 1000 1001" width="1000px" xmlns="http://www.w3.org/2000/svg" xmlns:xlink="http://www.w3.org/1999/xlink"><defs><style type="text/css"><![CDATA[path { fill-rule: evenodd; }]]></style></defs><metadata><views><view h="1001" padding="0" w="1000"><proj flip="auto" id="robinson" lon0="-94.5081408932"/><bbox h="0.3" w="0.77" x="-1299.15" y="-648.8"/></view></views></metadata><g class="" id="mylayer"><path d="M408.410489,626.182116L406.254117,633.920944L407.695056,636.069405L409.526546,637.779406L409.947021,643.369802L414.028369,649.990601L415.525173,657.510272L418.018661,666.542677L451.414643,669.743489L456.393545,670.620425L473.574128,632.561715L408.410489,626.182116Z M1000.000000,538.535580L958.841493,539.280935L957.022905,544.038059L914.124470,546.537196L910.825881,546.515274L895.268934,547.107176L869.967671,547.216787L870.255712,547.940222L871.125157,552.149304L871.360261,555.218431L868.831531,562.759732L863.979052,568.722637L858.377683,572.296002L855.397758,573.304438L847.949644,573.742888L842.054920,573.918268L836.347091,574.948627L831.387690,576.658585L825.550906,580.341575L816.765976,586.216832L781.945224,617.544473L778.497605,617.785625L762.650569,616.974477L757.131582,616.996400L642.461667,613.686043L594.231550,612.414517L484.032544,609.520700L436.202326,607.394186L441.452106,595.402432L449.527896,595.731273L460.959567,564.053155L444.510748,563.724318L455.768894,536.387206L445.433433,528.341779L412.427307,528.911754L415.144893,525.448063L425.414993,523.409310L422.423745,522.444740L419.304682,520.121003L418.488906,519.529108L415.926572,516.701168L413.083765,512.689445L408.741048,508.305056L404.905204,501.794253L404.557671,494.099690L406.247888,469.613166L407.827925,446.310644L407.932968,439.230054L408.635352,427.282974L408.695829,419.983229L409.244431,410.316032L409.602685,403.761650L410.223586,390.915991L410.301417,385.523465L409.716992,380.876257L406.781112,379.955585L404.920485,378.815705L405.468558,375.111101L416.019558,358.670618L419.838143,349.398235L422.695248,341.156147L424.405157,332.256477L425.035886,327.543611L422.524555,322.721152L418.315076,320.024964L411.389221,318.052145L405.062234,317.657582L401.503582,316.934215L398.627342,309.744404L398.383329,308.363436L397.599785,308.757998L396.594255,309.371762L395.793368,310.204726L395.264590,311.169212L394.088163,316.013567L392.990909,319.126235L392.250388,320.770252L391.537697,321.800502L390.643600,322.743073L389.609806,323.532201L388.471867,324.167889L387.273313,324.628214L385.897687,324.891257L383.356799,325.132380L382.236889,325.132380L380.128790,325.307742L377.930425,325.877669L374.047134,327.609371L373.111582,327.982016L370.337525,328.814988L368.266106,329.231473L365.557251,329.494517L360.462282,329.231473L356.197776,329.275314L351.971773,329.604118L350.707137,329.757561L345.873969,330.875496L336.226096,332.914087L329.239467,334.185466L321.850135,335.391086L308.120528,337.166635L299.900033,338.262654L294.133372,339.161390L287.099557,340.367012L278.517805,341.967202L273.052209,342.624815L266.860987,342.931701L264.374226,350.253134L262.707108,355.908628L261.225756,361.542214L259.525348,369.389800L193.192557,367.899195L147.213029,489.715335L67.368623,489.737256L86.891044,433.837420L23.145377,433.881262L0.000000,498.856725L188.610023,498.330601L208.735432,498.374444L213.051558,487.830064L231.255366,487.194334L226.689550,498.571741L220.940267,498.396366L202.199440,549.913229L195.501046,568.328032L194.464353,574.159416L194.002329,578.850840L193.821792,580.275807L194.269805,589.307925L194.408749,599.238910L203.087624,609.542623L210.424561,614.102578L223.881068,619.824457L232.290243,620.898681L207.002842,688.773061L261.774044,690.636564L263.540813,690.373481L265.328464,689.759621L266.608531,689.123838L270.206974,689.299226L282.602436,688.553825L296.868559,684.717207L303.757281,683.226408L312.347726,682.042539L313.148357,681.845227L316.491269,681.012135L321.525465,680.661359L326.167218,681.340987L329.496331,683.577184L331.411835,685.594147L332.978498,687.983813L343.081131,688.312666L361.642304,688.553825L364.528720,685.309142L367.545960,679.455568L369.250014,674.720103L371.564860,668.011543L373.511979,660.798765L373.791345,656.852574L373.075178,652.906389L371.455322,649.880985L369.175156,647.644819L362.542922,642.514799L361.718872,638.963253L362.882892,635.126713L365.154717,630.785949L367.924056,628.352493L373.715022,625.480580L377.238171,624.494046L382.842480,623.748665L387.983843,623.836357L391.051378,623.858280L391.858697,624.033664L394.924739,617.215629L395.857506,614.650650L432.194296,617.193706L479.791535,620.547914L478.712378,622.586748L504.217435,623.726742L518.400352,622.367519L520.130907,622.301750L574.842251,620.416376L588.939860,619.780611L595.189750,617.895240L632.962644,617.369090L640.738741,617.544473L756.691827,620.504068L778.064627,621.030219L774.629719,624.121356L781.109913,624.340586L786.093747,624.274817L791.410466,623.880203L796.809347,623.112899L803.454521,621.753676L807.910602,620.547914L896.535642,592.859398L897.588876,591.478269L904.097676,574.554021L912.865562,574.641711L907.631985,589.329848L920.308081,585.318005L955.078115,574.225183L967.358158,570.520280L982.616844,566.201554L989.634684,564.403914L996.340170,548.992492L1000.000000,538.535580Z "/></g><g fill="#000" font-family="Arial" font-size="12px" id="mylayer-label" stroke="none"><text text-anchor="middle" y="509.138697729"><tspan dy="0" x="348.312532867"><![CDATA[N]]></tspan></text></g></svg>