<?xml version="1.0" encoding="utf-8"?><!DOCTYPE svg  PUBLIC '-//W3C//DTD SVG 1.1//EN'  'http://www.w3.org/Graphics/SVG/1.1/DTD/svg11.dtd'><svg enable_background="new 0 0 1000 1001" height="1001px" pretty_print="False" style="stroke-linejoin: round; stroke:#000; fill: none;" version="1.1" viewBox="0 0 1000 1001" width="1000px" xmlns="http://www.w3.org/2000/svg" xmlns:xlink="http://www.w3.org/1999/xlink"><defs><style type="text/css"><![CDATA[path { fill-rule: evenodd; }]]></style></defs><metadata><views><view h="1001" padding="0" w="1000"><proj flip="auto" id="robinson" lon0="-93.2543043676"/><bbox h="0.28" w="0.22" x="-1290.93" y="-622.23"/></view></views></metadata><g class="" id="mylayer"><path d="M424.065768,0.000000L392.267070,1.106843L362.757449,6.395093L330.879593,13.405099L314.654900,17.094577L290.577425,22.075372L280.152072,23.612655L263.606466,24.535024L252.139272,23.674146L246.658330,21.890898L233.573742,15.434312L225.021727,8.977726L212.586132,40.092328L207.886570,51.775684L204.600689,60.568948L198.052597,77.786534L186.410767,104.289334L160.643559,174.574110L160.003301,177.833163L160.848087,182.014589L145.470544,222.537548L255.128018,225.735113L245.300224,260.231933L236.566464,285.935466L218.161726,337.465566L212.292008,353.699407L206.771448,368.887892L202.310029,380.755823L191.558822,412.055200L190.927079,416.482619L109.741854,659.315012L207.889560,658.208150L176.729753,780.332068L174.665998,783.529678L172.672263,787.711169L162.001033,816.243705L138.488222,882.348258L138.088534,886.529759L133.289236,906.576372L102.252289,998.508057L331.421528,999.000000L360.249088,912.787135L363.773683,902.825318L434.865991,699.715482L538.053258,699.776974L544.191499,681.390758L581.412553,569.905291L583.239799,564.432488L516.792955,564.432488L533.957314,513.025072L509.151912,513.025072L514.018014,498.451451L517.570091,487.813325L508.654109,487.813325L512.910025,475.514918L516.467863,465.307244L517.749633,461.617723L633.387595,461.679215L739.084118,461.679215L746.070278,442.247747L748.671763,435.053187L766.282871,381.862676L772.160578,365.751808L791.348890,312.315425L803.473472,274.067564L803.954499,272.776239L807.318645,264.044417L809.342385,258.879116L810.160707,256.726907L816.502057,247.134206L820.225007,242.399348L837.662785,223.890364L842.816218,217.556727L845.965072,212.452923L847.583843,208.947901L852.583916,198.002398L866.690817,157.848413L871.592726,143.766857L873.294138,138.970520L874.986817,134.051201L880.777978,116.710607L884.782541,104.719774L891.333663,85.104011L897.747711,64.258430L891.261748,62.352198L798.464269,20.907037L785.803601,15.864751L780.211175,14.265977L776.804165,13.282116L760.142504,11.867817L749.032683,11.129921L718.635265,10.576500L702.998552,10.269043L672.287904,9.162200L575.017012,5.718688L439.828265,0.676404L424.065768,0.000000Z " data-aland="1424811" data-awater="0" data-classfp="C1" data-funcstat="A" data-geoid="2925957" data-intptlat="+37.0646360" data-intptlon="-093.2529615" data-lsad="25" data-mtfcc="G4110" data-name="Fremont Hills" data-namelsad="Fremont Hills city" data-pcicbsa="N" data-pcinecta="N" data-placefp="25957" data-placens="02394825" data-statefp="29"/></g><g fill="#000" font-family="Arial" font-size="12px" id="mylayer-label" stroke="none"><text text-anchor="middle" y="392.463809575"><tspan dy="0" x="439.054178814"><![CDATA[Fremont Hills]]></tspan></text></g></svg>