<?xml version="1.0" encoding="utf-8"?><!DOCTYPE svg  PUBLIC '-//W3C//DTD SVG 1.1//EN'  'http://www.w3.org/Graphics/SVG/1.1/DTD/svg11.dtd'><svg enable_background="new 0 0 1000 1001" height="1001px" pretty_print="False" style="stroke-linejoin: round; stroke:#000; fill: none;" version="1.1" viewBox="0 0 1000 1001" width="1000px" xmlns="http://www.w3.org/2000/svg" xmlns:xlink="http://www.w3.org/1999/xlink"><defs><style type="text/css"><![CDATA[path { fill-rule: evenodd; }]]></style></defs><metadata><views><view h="1001" padding="0" w="1000"><proj flip="auto" id="robinson" lon0="-113.541703337"/><bbox h="1.38" w="1.78" x="-1599.86" y="-550.85"/></view></views></metadata><g class="" id="mylayer"><path d="M1000.000000,115.299117L997.547811,112.490543L997.468087,111.350148L993.876402,113.150276L989.209656,117.250037L983.228553,118.974763L978.566768,122.433634L974.518547,124.158356L965.891148,125.458965L962.325489,124.610742L958.805590,127.193109L956.256440,126.740724L952.973455,125.854802L949.767248,125.647459L947.380856,126.929217L939.481113,134.054276L931.399797,130.161885L925.999829,131.453066L915.691771,137.503702L909.138718,135.986332L899.272982,132.301287L892.967900,128.851854L885.687587,130.576571L878.294220,131.434217L864.726969,132.725398L850.406458,129.473884L844.898382,129.257116L837.469216,131.424792L830.384896,134.431263L799.252949,152.564252L793.549462,154.713059L785.941144,158.595986L780.754999,159.887152L767.430585,159.887152L759.838456,163.119777L756.096946,163.977411L747.547106,162.035953L740.052506,159.463047L737.689823,160.744788L735.458400,160.961553L721.010091,156.861864L716.024912,158.793902L710.117030,160.311258L701.806463,163.760647L695.160467,163.110352L692.285126,160.311258L683.683197,157.285970L678.522680,154.251254L675.571877,148.643617L675.708520,142.168901L675.435841,141.641121L659.925970,143.026542L651.864579,141.518601L645.270796,141.952134L641.684345,141.744792L636.988895,137.418880L633.110593,137.767592L628.677313,150.764154L619.300044,177.642974L617.837687,182.044212L616.143176,187.124003L601.164458,228.742083L593.863801,249.692224L591.403044,256.760382L589.119408,263.036890L587.806345,266.636922L578.911985,292.006632L577.084575,297.218134L574.693150,304.248461L571.760510,312.428494L568.514752,321.673408L564.491605,322.050366L558.701680,320.702740L554.607032,317.630529L544.636693,313.408589L540.049762,313.587644L525.121587,313.012781L513.629116,313.766700L509.555051,312.428494L507.940174,310.901808L504.079778,310.213856L480.541696,304.012860L459.230107,304.059980L448.354158,304.078828L438.774901,303.880924L410.561806,303.909196L407.879077,303.833804L377.964463,304.305005L370.479615,304.210765L336.503300,304.182492L317.427885,304.380397L306.537771,304.484061L287.227959,304.314429L275.559386,304.446365L269.857468,304.418093L263.291231,304.615997L261.271034,307.056816L259.818193,308.677745L242.652706,327.280652L236.045637,330.079558L223.895861,339.051113L212.726117,342.632187L199.228300,345.515890L187.322048,344.460417L182.577067,344.884491L171.628965,343.583998L156.824189,343.555726L152.762310,344.601775L132.365244,344.884491L125.091471,345.939963L121.909592,345.864573L116.483357,344.385026L115.790954,347.730496L114.713154,352.546080L113.987066,356.098863L113.677264,358.228646L112.763115,361.574097L109.525549,375.832265L108.855019,379.205964L108.610502,380.233151L108.278450,381.373422L106.468381,389.760523L103.853587,400.871033L100.353191,416.994849L97.031934,433.778207L96.429908,436.511029L94.754625,442.928436L94.041101,446.245503L92.550153,452.455569L91.072875,459.344106L90.357067,462.981548L89.390043,467.127848L88.692214,469.728706L88.313533,471.651077L85.664913,482.883727L84.559452,488.631959L82.456168,498.950474L78.580714,515.940595L77.878423,518.352938L76.125440,526.852658L75.687348,528.831525L75.056877,532.139055L74.607908,534.014263L73.459689,537.576211L72.457056,540.412574L71.431764,543.738936L70.847622,546.198367L70.796882,547.216063L70.410217,550.080684L70.153113,552.690878L69.212591,564.205857L68.489374,572.573501L68.339301,574.769060L68.609082,576.135395L69.012510,577.840956L69.524584,579.216711L70.023256,579.800936L69.583413,581.336881L68.543775,584.682035L68.311792,585.831636L68.321987,586.811623L68.259238,589.186206L68.395813,593.530180L68.256492,598.072027L67.949095,599.928340L67.706923,600.748133L67.434207,601.407736L64.864138,604.554982L58.963188,611.141571L57.709061,612.762303L57.367917,613.346520L56.377000,615.702233L56.144735,616.964894L56.170629,618.887153L56.124321,621.327665L54.536532,625.888308L50.928268,635.113220L49.825287,638.100237L48.876749,642.444127L48.388078,646.024768L48.314550,646.995309L46.922972,651.584174L45.560799,654.721935L45.087723,656.173031L44.516773,658.349672L44.268024,660.309590L43.554036,669.619181L43.320981,671.871192L42.871387,673.435349L40.540503,679.136034L36.861863,686.947365L35.750498,689.039177L34.290319,693.486628L34.459930,694.890588L35.252537,697.783310L35.759534,701.731351L35.877329,703.483940L35.595750,705.896104L34.455505,713.745043L33.827686,716.958107L32.815908,720.293659L31.678783,724.298200L31.082724,727.040129L29.491926,733.428530L27.584432,741.880416L25.606539,750.285163L23.814651,758.567391L22.428491,765.342027L21.861501,768.630404L21.116352,775.744214L20.416913,778.712222L19.034320,785.477382L18.976576,786.560936L18.668165,788.040223L17.988705,790.480573L16.791515,794.409627L16.104157,796.849971L15.664020,799.196091L15.236641,803.436062L14.353525,806.498259L12.413004,811.388344L10.486012,816.419751L8.287143,822.647753L7.547573,824.899629L7.095812,827.189191L6.707639,829.657770L6.590375,831.561024L7.379070,837.496907L7.649144,838.505063L7.305549,840.106806L6.415586,842.829767L4.735768,849.406318L3.217348,856.670654L0.890789,870.624530L0.518808,874.327335L0.261745,874.920914L0.000000,875.797149L0.007180,876.607431L0.164054,877.756900L0.504785,879.575322L0.963441,882.025007L1.627455,886.048138L1.870373,887.649852L8.834526,884.936360L204.982383,808.589973L229.490855,798.847471L591.848034,658.293136L608.655760,651.621865L734.812184,602.698673L734.690346,603.537310L733.266852,608.286442L732.185947,611.885977L726.298599,630.062609L724.501902,635.914156L723.105586,640.474772L720.678825,648.380450L710.032532,683.272556L695.152918,728.547718L693.751750,737.367094L844.146114,688.586894L844.583447,680.568270L842.432287,676.224446L839.578441,671.447173L839.786547,664.078659L846.888276,647.372218L851.618141,643.018914L855.539110,636.715091L856.609762,632.380614L860.168240,625.869463L861.663805,618.491394L859.311699,609.803525L850.473159,606.741091L845.582079,591.758669L843.973751,589.581970L840.218093,586.755086L836.022270,584.568959L832.839815,581.958798L830.831557,577.840956L826.330440,567.051613L825.195099,564.366049L824.979473,561.925481L824.392709,555.084340L820.038582,531.677320L819.787952,529.067104L819.743434,527.107084L820.676785,526.730157L837.128280,520.708739L850.748117,516.468295L862.555718,513.320939L872.427836,510.965131L879.033903,509.466835L887.691189,508.015656L905.871864,505.150986L914.259100,503.925963L922.832308,495.265968L938.769712,476.277955L953.440809,459.664503L962.680427,449.298709L966.486266,445.208920L977.045346,437.208369L947.539665,244.998955L951.810055,239.598858L957.230849,237.016609L960.463596,233.341140L966.098664,227.733682L967.155776,225.349331L970.773359,219.958616L973.059812,213.493511L975.659166,209.167725L977.859631,203.550788L980.241824,199.234409L981.627925,194.710684L983.553500,191.685439L984.625651,185.003498L986.519022,183.278819L987.285736,181.111188L984.373755,176.578005L984.867614,173.345398L983.751419,168.595438L986.749587,158.888148L983.907838,154.157008L985.438165,149.831118L986.294525,146.805817L986.788558,143.573171L990.800652,140.114329L996.865097,131.481341L998.384319,127.164835L1000.000000,115.299117Z "/></g><g fill="#000" font-family="Arial" font-size="12px" id="mylayer-label" stroke="none"><text text-anchor="middle" y="479.122981337"><tspan dy="0" x="504.068700065"><![CDATA[N]]></tspan></text></g></svg>