<?xml version="1.0" encoding="utf-8"?><!DOCTYPE svg  PUBLIC '-//W3C//DTD SVG 1.1//EN'  'http://www.w3.org/Graphics/SVG/1.1/DTD/svg11.dtd'><svg enable_background="new 0 0 1000 1001" height="1001px" pretty_print="False" style="stroke-linejoin: round; stroke:#000; fill: none;" version="1.1" viewBox="0 0 1000 1001" width="1000px" xmlns="http://www.w3.org/2000/svg" xmlns:xlink="http://www.w3.org/1999/xlink"><defs><style type="text/css"><![CDATA[path { fill-rule: evenodd; }]]></style></defs><metadata><views><view h="1001" padding="0" w="1000"><proj flip="auto" id="robinson" lon0="-76.3823027935"/><bbox h="0.32" w="0.47" x="-1041.09" y="-677.7"/></view></views></metadata><g class="" id="mylayer"><path d="M1000.000000,522.581543L999.600001,521.140724L998.623814,520.051325L997.210650,519.418771L996.349063,519.313345L946.786606,522.546401L859.812468,528.520536L811.115896,531.577893L805.679194,531.859030L803.419253,531.788746L801.376528,531.226473L799.839971,530.172211L798.897121,528.801672L797.782066,525.287473L791.242684,491.164861L791.106202,490.426890L780.739935,437.890967L775.579272,413.784562L769.462523,386.656357L765.051944,367.013195L764.495917,363.112694L776.757120,361.566551L811.663406,357.103825L813.523200,356.892988L825.732711,355.417128L823.875753,346.526847L823.645688,345.542944L817.452203,320.348144L816.291398,315.639522L815.318698,311.598547L814.445748,307.873828L811.798051,296.699706L810.896237,292.975010L808.261686,282.117203L800.392598,249.438656L797.740807,238.545905L796.421045,233.169823L794.317682,224.596227L792.490749,217.041648L791.182444,211.630477L789.856654,206.184179L787.970363,198.278286L785.913561,189.739949L784.570336,184.258564L783.192126,178.706917L781.213989,170.906523L778.821165,162.157462L777.304663,156.676138L769.557266,160.787130L746.273960,172.979598L738.509057,177.055480L736.480034,178.144725L730.288783,181.377328L728.242259,182.431438L696.894514,198.910756L658.076056,219.360726L656.364039,220.274302L653.429098,211.771026L652.792970,210.435804L650.011776,208.854620L646.874107,207.659949L643.977802,207.413987L643.481322,207.519399L644.001312,205.024647L646.769545,197.645815L647.001880,196.661973L647.325364,195.397033L647.040441,193.780722L645.681986,192.445509L643.571106,192.094138L641.931091,192.340098L635.581852,193.921271L624.331704,196.626835L621.336961,197.575541L617.313067,199.648639L616.501214,200.281110L614.911690,201.440640L612.823677,203.513741L612.118466,204.708411L612.147812,206.043630L612.305315,206.359866L612.789215,207.273438L612.929218,207.554537L616.420626,211.489927L619.470068,214.827986L619.970654,215.601011L621.513985,219.395863L623.889960,223.296135L625.500023,226.528797L628.866759,234.680747L595.513049,251.019866L594.999889,251.265832L589.526850,253.620080L554.369796,268.659210L518.675101,283.663295L506.771025,288.652964L483.147613,298.597195L460.758873,308.119800L439.245858,317.080219L415.092546,327.411095L384.575361,341.150526L381.027477,335.071433L377.045233,326.321783L373.557532,318.274944L371.390679,314.620492L369.484705,311.141741L368.123266,307.944106L366.975955,306.046610L365.995550,305.238417L364.522188,301.583986L355.881617,280.290003L354.804711,277.373515L353.022512,273.156912L349.597598,274.808414L317.148263,270.802646L244.975759,261.877535L238.812747,251.300970L226.480327,246.205964L218.472633,247.822309L217.933820,248.771035L212.433785,257.801511L205.367379,261.772121L200.284971,278.603359L197.063605,289.250320L193.778391,299.827049L190.988454,308.787438L182.107956,331.452096L178.749994,340.026069L177.978870,341.958731L178.084330,343.504861L177.797943,346.526847L177.402450,348.459514L177.069213,350.111067L176.360813,353.097921L174.258420,361.988226L173.561427,364.939955L172.495390,369.297276L169.291217,382.299005L169.052785,383.212643L168.092131,386.621217L166.804381,391.751657L163.331359,405.315751L162.963983,407.072763L162.143377,410.762493L162.195554,412.027545L162.297760,412.870913L162.377181,413.784562L162.557984,415.365879L162.642689,416.174108L163.015692,419.301605L163.712652,422.499386L163.930441,423.342758L169.291416,443.794613L171.068829,450.611936L172.198133,454.793705L174.769036,464.422345L175.649174,467.233633L176.910768,471.274867L170.948938,474.156446L163.636821,477.459724L154.968303,481.114419L124.356750,493.273350L113.038487,497.525476L83.517405,508.103111L64.277683,515.131465L58.947359,517.134550L31.341349,526.974288L21.059104,530.347922L2.929024,536.181507L0.889637,550.941245L0.522335,552.698363L0.000000,554.666336L7.211585,554.525767L11.102719,554.912333L14.511250,555.896320L18.564928,557.653441L22.188521,560.113413L26.019397,563.627663L40.234167,579.055280L63.360888,604.252759L70.959594,612.546548L72.854004,614.725429L85.905743,629.731648L91.725527,637.006359L94.481147,641.610173L97.261040,647.654889L97.877135,649.587795L98.944814,652.891311L99.523807,656.721990L99.383152,659.920084L98.562086,663.434478L97.167535,666.667726L94.736127,670.603858L92.920578,672.817936L90.141774,675.418601L86.052965,678.405854L84.629916,679.319603L80.993937,681.533689L77.951686,683.431478L73.219360,685.997010L70.629090,686.945906L68.504730,687.437926L58.464613,688.281390L53.850788,689.054565L49.297293,690.354906L44.093969,692.322991L39.135740,694.783099L33.886667,698.051533L31.715711,699.668179L28.617358,701.917427L19.873017,709.016631L24.525366,713.831450L35.039654,727.397341L38.453112,731.755311L42.626550,736.710755L49.989633,743.950642L60.330446,753.861589L73.307567,766.338194L82.859673,775.651758L85.063476,777.233310L85.724531,777.690203L87.171051,778.041660L89.221825,777.865931L95.777974,776.003214L112.154814,770.942253L114.295831,770.309634L120.661087,768.411777L122.784594,767.744013L133.853078,764.440340L135.047496,764.053741L160.110918,756.708358L166.163571,754.705076L166.999847,754.353623L169.865962,753.088393L174.851304,750.276774L177.974063,748.308642L182.007544,745.848479L185.766871,744.056077L190.999041,742.087950L199.867835,739.241198L203.192725,738.432862L206.061400,737.694816L211.004466,736.886480L220.449188,736.007855L235.839508,734.883214L244.431432,733.336835L251.399912,731.895891L260.117092,729.962919L264.161807,728.627412L268.545442,726.870167L277.399397,723.355681L282.175330,721.457861L300.990093,713.866595L302.766832,713.198845L314.126887,709.262644L330.723347,704.236967L333.303902,703.674654L337.200569,702.796040L342.853762,701.847138L348.417566,701.530837L354.654662,701.811994L369.415908,703.252919L379.209640,705.221015L404.001080,708.524607L416.279024,710.316983L438.266746,713.444858L443.413654,714.147752L458.350907,716.115856L503.087430,721.985033L516.792724,723.742275L518.029988,723.847709L532.701106,725.745531L534.060078,725.921256L561.461917,729.998064L576.285398,732.317631L590.773525,734.602054L595.159519,735.691549L599.443910,737.273076L604.966369,740.295551L614.200516,745.953915L629.774090,756.216324L650.462285,768.798377L669.805673,780.537000L696.280345,796.844642L715.373619,808.196794L734.756861,818.564905L744.431010,823.133917L749.722554,824.996671L759.964145,827.456913L769.300319,829.143938L779.352780,830.760672L799.189781,834.732217L827.178249,839.230967L837.245621,840.355655L846.200029,840.812560L855.934643,841.269465L890.251405,842.288715L921.939439,842.323862L938.330122,775.476030L944.235422,750.909388L949.823987,726.518718L958.694974,691.549815L958.990096,690.460339L966.049631,661.888144L969.750731,647.162876L975.025877,624.635849L996.007365,538.114325L1000.000000,522.581543Z " data-aland="3594485" data-awater="0" data-classfp="U1" data-funcstat="S" data-geoid="4203648" data-intptlat="+40.3429288" data-intptlon="-076.3792501" data-lsad="57" data-mtfcc="G4210" data-name="Avon" data-namelsad="Avon CDP" data-pcicbsa="N" data-pcinecta="N" data-placefp="03648" data-placens="02389162" data-statefp="42"/></g><g fill="#000" font-family="Arial" font-size="12px" id="mylayer-label" stroke="none"><text text-anchor="middle" y="527.257493376"><tspan dy="0" x="524.221615695"><![CDATA[Avon]]></tspan></text></g></svg>