<?xml version="1.0" encoding="utf-8"?><!DOCTYPE svg  PUBLIC '-//W3C//DTD SVG 1.1//EN'  'http://www.w3.org/Graphics/SVG/1.1/DTD/svg11.dtd'><svg enable_background="new 0 0 1000 1001" height="1001px" pretty_print="False" style="stroke-linejoin: round; stroke:#000; fill: none;" version="1.1" viewBox="0 0 1000 1001" width="1000px" xmlns="http://www.w3.org/2000/svg" xmlns:xlink="http://www.w3.org/1999/xlink"><defs><style type="text/css"><![CDATA[path { fill-rule: evenodd; }]]></style></defs><metadata><views><view h="1001" padding="0" w="1000"><proj flip="auto" id="robinson" lon0="-84.2288611795"/><bbox h="0.3" w="0.48" x="-1115.95" y="-759.36"/></view></views></metadata><g class="" id="mylayer"><path d="M1000.000000,193.752292L666.850012,186.956007L611.651433,185.651669L293.963811,180.983508L209.461966,385.795635L58.735207,407.007552L48.317474,432.544129L6.308446,535.444448L21.670744,535.719029L0.000000,591.390175L29.785152,592.866037L4.586761,660.206134L7.097191,660.068846L25.835100,660.137490L41.103272,659.897236L86.255616,658.661645L95.887275,638.342995L99.796070,637.519264L106.794198,637.656553L100.502885,658.936220L49.681644,781.533085L87.749740,783.008900L104.019201,783.249149L139.967521,782.494081L190.706564,782.116547L261.812515,782.253832L413.630611,782.562723L474.893165,782.700008L468.513033,798.178882L467.438301,800.718649L462.013935,817.261428L603.136371,818.016492L615.242243,789.118083L671.142248,666.143833L804.546612,667.619676L807.808686,667.688320L832.531603,606.011488L840.960202,585.967238L860.222892,539.975041L876.241225,500.366553L880.986712,490.138321L895.516266,454.751252L915.288280,405.360027L1000.000000,193.752292Z " data-aland="4057465" data-awater="3377" data-classfp="C5" data-funcstat="A" data-geoid="2660680" data-intptlat="+45.3585412" data-intptlon="-084.2272098" data-lsad="25" data-mtfcc="G4110" data-name="Onaway" data-namelsad="Onaway city" data-pcicbsa="N" data-pcinecta="N" data-placefp="60680" data-placens="01626846" data-statefp="26"/></g><g fill="#000" font-family="Arial" font-size="12px" id="mylayer-label" stroke="none"><text text-anchor="middle" y="475.774608371"><tspan dy="0" x="486.128677907"><![CDATA[Onaway]]></tspan></text></g></svg>