<?xml version="1.0" encoding="utf-8"?><!DOCTYPE svg  PUBLIC '-//W3C//DTD SVG 1.1//EN'  'http://www.w3.org/Graphics/SVG/1.1/DTD/svg11.dtd'><svg enable_background="new 0 0 1000 1001" height="1001px" pretty_print="False" style="stroke-linejoin: round; stroke:#000; fill: none;" version="1.1" viewBox="0 0 1000 1001" width="1000px" xmlns="http://www.w3.org/2000/svg" xmlns:xlink="http://www.w3.org/1999/xlink"><defs><style type="text/css"><![CDATA[path { fill-rule: evenodd; }]]></style></defs><metadata><views><view h="1001" padding="0" w="1000"><proj flip="auto" id="robinson" lon0="-81.2512813139"/><bbox h="0.65" w="0.66" x="-1121.68" y="-633.66"/></view></views></metadata><g class="" id="mylayer"><path d="M1000.000000,14.633501L999.964736,12.312788L999.787185,9.631077L999.269119,8.573864L998.374075,8.496507L995.080781,8.831721L983.344164,12.622217L974.694456,16.000143L941.776445,28.428869L920.996151,36.912393L890.182733,53.183263L875.555179,63.420270L860.308780,74.817665L837.919727,95.988004L815.046192,123.862841L798.215063,152.537199L789.702478,169.324146L768.514345,207.462428L755.834286,226.389842L739.954649,248.824329L727.686163,263.032886L716.489772,274.636997L704.985796,286.292708L690.967708,298.747842L682.637739,294.157748L667.582801,290.908583L648.732390,294.131961L636.890232,302.177522L633.197799,304.472572L623.534913,315.973624L617.823381,329.821335L615.425788,341.941335L615.943871,344.881083L617.068351,351.302119L556.931265,386.888718L517.728624,410.200645L485.920206,429.309279L471.353505,439.624359L454.889752,453.627110L443.527338,464.741659L435.057083,474.979442L426.714900,486.532429L417.587364,499.942177L407.643570,519.076913L401.262485,537.953833L399.424726,544.581401L395.113534,568.048730L394.263917,573.257975L393.987563,579.550336L391.781059,594.662349L389.348534,617.433601L387.453802,629.064253L386.067562,636.903998L385.983532,637.393982L384.839085,643.170644L384.526995,645.259527L379.624393,669.243061L377.142627,679.558592L375.858711,684.406898L369.125182,709.628474L368.452390,712.155796L366.185686,720.846696L358.454724,750.658911L351.370006,756.409902L336.451352,761.696693L328.206975,759.814079L308.475471,766.467703L298.081245,768.840315L274.550760,774.797639L212.542669,789.652293L196.620000,796.899109L192.577622,797.853317L188.161319,799.220155L181.037009,801.824886L169.760519,805.332249L172.920566,796.305953L174.964333,791.638074L176.661013,786.944410L178.039194,782.199172L180.054920,773.998171L185.589531,761.361432L139.677270,758.137779L37.248965,730.285495L31.990374,732.374411L26.697928,738.202750L10.925644,766.983488L2.894164,780.290762L0.000000,789.961765L6.598219,811.573296L13.931300,833.520175L16.683115,843.784433L23.481542,871.147283L25.040764,881.282661L37.761912,878.806842L54.085768,875.660490L59.100043,875.015746L64.068905,874.732058L67.948768,874.809427L80.865962,876.073126L86.114758,875.969967L91.896730,875.479961L116.488530,871.766237L123.197071,870.760437L134.384925,869.084104L146.119991,867.253033L135.202061,894.048622L96.704677,990.503493L178.654900,979.387886L191.486798,975.983575L215.737958,973.688245L218.142789,973.533504L291.405327,962.572672L323.049681,957.749913L433.860510,915.247918L401.838118,877.027347L398.991606,872.797827L428.631815,861.347189L431.336710,857.607684L432.863438,843.294430L451.952840,821.553828L501.652438,764.610877L493.114295,764.198249L532.566381,695.470336L532.238917,694.541935L532.433749,693.123544L533.025131,691.705154L533.411324,691.112009L534.541315,689.358364L535.203029,687.914186L535.738119,686.753686L536.538376,684.149009L537.479492,683.375343L538.106663,682.395366L523.733540,680.976979L496.377792,682.421155L481.998549,685.696342L476.370745,688.043130L470.755570,690.905698L457.818535,698.358696L432.972224,712.619998L427.685381,716.617295L410.035020,727.964477L401.978377,737.661179L401.296827,738.125383L389.007537,746.971059L376.846274,755.249388L375.107417,753.108884L373.583596,751.226273L367.176937,748.363675L366.235969,747.951048L365.237825,747.589999L365.967747,745.011083L374.586396,711.046869L375.410373,707.874823L379.532954,692.633555L383.108579,679.429648L392.313139,643.093278L395.374162,629.657392L400.581998,597.473291L403.823753,570.395468L404.422383,567.558752L404.437229,566.114606L407.031599,546.360788L408.285827,539.939524L410.340590,532.796198L411.633149,529.314797L414.146224,523.847713L422.258175,507.137036L429.629093,494.784578L441.148199,479.311810L457.249217,460.873484L462.871499,455.896436L478.444336,442.847825L495.633520,432.068561L566.898049,389.776916L568.097404,388.977504L573.669302,385.702494L610.861126,363.808977L619.300882,358.832018L619.565551,359.760362L624.442566,367.728658L632.280481,372.499326L633.483458,373.221373L639.037628,374.536531L645.020058,375.954840L656.268925,375.954840L667.448406,374.304445L680.997926,366.619800L691.822769,356.743243L698.772613,348.517091L704.639789,336.448651L706.331167,323.271389L706.215929,316.128347L703.373523,310.635689L701.125799,308.314849L696.939661,304.034192L709.442175,292.249508L715.086308,299.676177L715.839682,298.902565L722.238358,292.378443L723.407446,291.192240L726.413228,288.123585L724.475443,285.673820L720.311468,280.413276L733.272957,267.932396L748.119600,250.062097L752.623218,243.873262L760.987881,243.538034L768.656131,243.228592L784.821979,242.558135L804.939023,241.655598L806.703512,238.690118L809.443227,234.976824L813.840178,228.865367L819.086104,223.682238L821.886775,219.556367L823.008930,216.436180L824.480646,213.960661L829.372243,207.591361L830.728971,205.708937L817.743268,193.460309L801.506044,175.693401L798.414187,172.289588L797.369075,171.877004L809.625957,150.113281L821.908175,130.077325L840.104987,106.947104L855.822947,89.515699L876.448268,72.213281L903.445495,54.678845L909.406288,51.429823L921.004146,45.524860L926.089417,43.178348L937.975789,38.330613L961.830648,29.615014L1000.000000,14.633501Z "/></g><g fill="#000" font-family="Arial" font-size="12px" id="mylayer-label" stroke="none"><text text-anchor="middle" y="749.782995729"><tspan dy="0" x="323.240730678"><![CDATA[N]]></tspan></text></g></svg>