<?xml version="1.0" encoding="utf-8"?><!DOCTYPE svg  PUBLIC '-//W3C//DTD SVG 1.1//EN'  'http://www.w3.org/Graphics/SVG/1.1/DTD/svg11.dtd'><svg enable_background="new 0 0 1000 1001" height="1001px" pretty_print="False" style="stroke-linejoin: round; stroke:#000; fill: none;" version="1.1" viewBox="0 0 1000 1001" width="1000px" xmlns="http://www.w3.org/2000/svg" xmlns:xlink="http://www.w3.org/1999/xlink"><defs><style type="text/css"><![CDATA[path { fill-rule: evenodd; }]]></style></defs><metadata><views><view h="1001" padding="0" w="1000"><proj flip="auto" id="robinson" lon0="-80.7098732737"/><bbox h="0.24" w="0.38" x="-1109.28" y="-649.51"/></view></views></metadata><g class="" id="mylayer"><path d="M1000.000000,268.015045L999.447502,260.397827L937.507888,246.695879L938.465026,243.270398L932.241975,243.766191L927.175990,235.968723L914.171814,234.526419L897.892155,223.528858L880.541354,218.435734L854.623826,222.537276L825.753029,231.191090L816.922494,241.467515L782.482147,241.828091L771.237635,255.394809L652.558491,249.445280L634.354889,248.498765L616.100695,247.597322L613.313797,247.507178L609.984086,247.281817L591.299680,246.470518L499.892163,244.397201L481.045987,246.335302L466.523098,244.487345L450.321742,243.450687L472.514561,193.916699L454.459177,190.851828L415.056134,180.034653L347.489267,181.116369L343.128272,182.558658L330.767705,186.209454L318.398398,189.184179L306.093466,191.482831L293.889469,193.105409L278.378821,195.719565L274.293069,196.395640L241.646250,201.443669L224.965471,203.471896L208.183745,206.176201L191.301069,209.556584L175.672742,213.252472L161.998933,217.128650L152.140937,220.373825L0.000000,327.826396L10.107479,341.032770L17.083406,350.678403L21.118720,356.267471L24.822381,362.217130L37.017038,381.869087L37.605180,382.680408L55.134356,407.155323L57.318820,405.893262L64.032776,402.647963L66.760063,401.521124L75.959143,396.517960L79.920367,394.129064L87.960686,388.855467L94.552986,384.122757L99.753424,379.750639L105.274696,375.874330L109.888133,373.034711L123.962690,366.228647L139.361262,358.340836L165.652282,346.351388L172.537902,343.376567L176.755318,341.573646L188.099374,335.083136L200.126358,327.691178L204.540041,324.671295L210.632771,322.011997L213.202697,321.155614L216.835456,319.938648L220.130990,319.217483L224.039818,318.992119L227.766134,319.352701L231.135628,320.389376L236.378929,323.274037L242.157140,327.375667L244.059030,329.133510L246.160675,331.071645L252.491638,338.328390L257.162882,344.458320L261.502485,350.948842L265.433534,355.816739L271.128473,361.946691L274.167813,366.273720L276.540921,371.096560L278.253355,376.279990L288.405804,399.087152L293.323556,408.417385L301.108652,426.266577L306.488372,436.813857L317.852499,457.728190L322.986291,465.661237L327.495996,473.954890L330.621398,480.941402L334.964024,492.119843L338.362370,499.286679L342.713888,506.092930L347.695091,512.403370L349.839364,514.792324L360.104814,531.019214L364.453162,537.014162L349.447063,546.930633L329.982422,559.777002L347.715911,592.411437L377.753257,619.817319L400.024992,640.461984L406.781048,646.592294L400.622344,651.460487L387.445586,663.135155L399.903530,671.384069L405.502326,675.125384L411.410597,679.047006L408.820020,682.788327L406.463577,687.656556L405.223137,691.758494L404.968331,693.516468L404.618251,695.815359L404.645966,699.601769L405.593594,703.838946L407.147967,706.949216L409.253324,709.698877L412.157089,711.997775L415.541299,713.575451L420.123492,715.062974L424.879616,715.874351L428.172966,716.099733L440.638075,717.632334L451.250087,719.480470L455.919444,720.922919L457.460879,721.373684L463.306456,723.852894L472.185469,729.036700L482.645846,735.482659L505.181643,749.411366L509.221410,751.349669L514.641967,753.197818L520.455799,754.369816L524.576018,754.640277L531.966686,754.505046L562.551463,751.620130L568.220842,751.259515L577.484567,751.214438L586.551855,751.800437L589.325281,752.521666L593.671186,753.828894L599.859920,756.263043L606.412089,759.643808L640.060223,778.395828L666.070196,792.910662L673.475224,797.192997L677.073797,799.491936L679.383855,801.114717L681.629293,802.827654L683.773553,804.630745L685.816635,806.523992L690.573189,811.798041L700.626269,798.410082L704.557043,793.181125L705.790359,791.332960L707.047846,791.873886L716.628679,794.803904L731.033013,818.063799L742.853887,818.965347L765.072157,800.438558L774.334572,806.388760L822.407439,777.268902L825.353276,767.216731L843.559465,762.168114L912.526233,722.771057L913.196007,715.333433L914.567854,702.351426L914.885969,698.745319L916.322606,694.012307L918.360401,688.287623L922.374891,665.524183L930.574845,626.849117L934.269755,609.224567L935.253776,604.536718L927.220879,598.631838L927.741387,590.383047L927.913782,587.363002L928.136771,584.297883L928.949795,576.049117L930.198917,563.698531L941.135095,522.815613L962.026830,449.254269L979.984869,381.598647L991.035164,329.674385L998.625577,289.920247L999.340548,275.767492L1000.000000,268.015045Z " data-aland="2011262" data-awater="117338" data-classfp="C1" data-funcstat="A" data-geoid="5478580" data-intptlat="+38.6677665" data-intptlon="-080.7134142" data-lsad="43" data-mtfcc="G4110" data-name="Sutton" data-namelsad="Sutton town" data-pcicbsa="N" data-pcinecta="N" data-placefp="78580" data-placens="02391435" data-statefp="54"/></g><g fill="#000" font-family="Arial" font-size="12px" id="mylayer-label" stroke="none"><text text-anchor="middle" y="455.298340855"><tspan dy="0" x="595.881056471"><![CDATA[Sutton]]></tspan></text></g></svg>