<?xml version="1.0" encoding="utf-8"?><!DOCTYPE svg  PUBLIC '-//W3C//DTD SVG 1.1//EN'  'http://www.w3.org/Graphics/SVG/1.1/DTD/svg11.dtd'><svg enable_background="new 0 0 1000 1001" height="1001px" pretty_print="False" style="stroke-linejoin: round; stroke:#000; fill: none;" version="1.1" viewBox="0 0 1000 1001" width="1000px" xmlns="http://www.w3.org/2000/svg" xmlns:xlink="http://www.w3.org/1999/xlink"><defs><style type="text/css"><![CDATA[path { fill-rule: evenodd; }]]></style></defs><metadata><views><view h="1001" padding="0" w="1000"><proj flip="auto" id="robinson" lon0="-88.5951834547"/><bbox h="0.21" w="0.27" x="-1212.98" y="-662.55"/></view></views></metadata><g class="" id="mylayer"><path d="M1000.000000,298.168662L992.501996,297.917063L978.967223,298.923458L961.228561,301.942644L969.250974,282.317971L973.986285,270.618685L934.183112,274.266846L931.222385,274.518444L936.473451,258.353335L949.788853,217.846453L907.153076,216.211090L681.410513,207.468193L606.126752,204.511965L608.209516,199.102702L609.606575,195.328801L613.124888,182.874949L614.643736,177.465710L607.219535,175.138481L590.852347,169.855047L589.628240,178.031793L588.090123,188.095499L579.851954,199.983279L574.404716,207.782685L548.725874,211.933987L537.712871,213.632248L522.636893,212.059784L496.064091,209.229350L486.239868,209.606741L496.024337,119.348227L476.651559,120.480379L399.330245,124.820298L400.894398,113.247190L399.786422,98.529257L356.478034,101.799905L332.523196,103.561024L322.124537,221.557473L236.708641,231.055182L234.712258,237.659559L228.412385,255.900269L219.449790,281.751876L202.258862,330.247601L193.472969,355.030301L183.975921,381.951755L155.434594,462.717021L145.909427,489.576175L140.757649,504.169503L125.318645,547.761042L120.138235,562.291642L114.675934,577.325514L106.839768,598.586885L98.151564,622.238698L92.631796,637.146948L87.249889,652.243957L76.172307,683.318784L71.069238,697.346555L65.527323,712.317943L63.980100,716.658397L59.184649,729.679780L57.608598,733.957343L55.958858,738.297816L53.213543,745.280323L51.589635,751.130540L50.394921,755.345217L49.866723,759.559898L49.581777,761.509975L49.813452,769.058669L50.252720,771.134562L50.945324,774.657291L51.746897,778.305835L55.205763,788.307892L56.324547,791.641915L40.718020,806.802316L38.888563,808.626599L34.758649,812.589701L28.011518,822.025670L22.802664,832.468164L18.125823,843.288122L15.393392,849.515899L10.620944,863.481247L7.590956,872.414059L0.000000,894.431622L7.187460,894.117085L56.747105,894.746160L60.951303,894.746160L92.534056,894.746160L165.944320,896.067217L224.130142,895.941402L226.927611,896.004309L283.287170,897.262459L288.779568,897.388274L328.008096,897.514089L403.379360,898.080257L417.666920,893.236380L476.357296,900.470743L523.023205,900.156205L636.799162,899.275500L662.889523,899.149685L709.526568,898.772239L726.465215,899.149685L777.172184,900.156205L794.081981,900.470743L811.028207,847.880320L861.813402,689.986688L878.733592,637.335660L882.397618,625.761318L893.236094,591.038458L896.871409,579.401324L898.831677,573.614219L904.712532,556.252946L906.643987,550.402966L911.349906,540.653015L925.365256,511.403281L930.042416,501.590506L933.540753,494.797059L953.907423,434.788691L965.997182,399.438200L973.063809,375.158477L973.252796,374.340768L978.436468,363.396064L984.436774,345.846849L1000.000000,298.168662Z "/></g><g fill="#000" font-family="Arial" font-size="12px" id="mylayer-label" stroke="none"><text text-anchor="middle" y="540.45206261"><tspan dy="0" x="509.584319636"><![CDATA[N]]></tspan></text></g></svg>