<?xml version="1.0" encoding="utf-8"?><!DOCTYPE svg  PUBLIC '-//W3C//DTD SVG 1.1//EN'  'http://www.w3.org/Graphics/SVG/1.1/DTD/svg11.dtd'><svg enable_background="new 0 0 1000 1001" height="1001px" pretty_print="False" style="stroke-linejoin: round; stroke:#000; fill: none;" version="1.1" viewBox="0 0 1000 1001" width="1000px" xmlns="http://www.w3.org/2000/svg" xmlns:xlink="http://www.w3.org/1999/xlink"><defs><style type="text/css"><![CDATA[path { fill-rule: evenodd; }]]></style></defs><metadata><views><view h="1001" padding="0" w="1000"><proj flip="auto" id="robinson" lon0="-92.9468189859"/><bbox h="0.09" w="0.16" x="-1274.8" y="-656.27"/></view></views></metadata><g class="" id="mylayer"><path d="M1000.000000,360.097159L993.976805,337.405729L957.710318,310.072945L992.421061,275.520297L979.184628,244.371454L981.198751,227.662516L786.023640,272.941746L781.667327,274.076308L712.861909,281.089969L711.163780,281.605679L709.671129,282.018248L706.082418,282.430816L627.265040,298.005289L540.716284,315.230068L465.222926,331.114025L385.999148,345.966580L340.705924,354.940011L55.227588,411.668800L44.123804,484.075873L16.974169,661.382785L0.000000,771.337484L145.448346,749.882805L156.365790,748.232448L222.580121,736.164215L342.409629,714.606471L436.978387,697.690383L437.589762,736.989393L474.105606,733.894976L483.253177,695.421154L516.815318,681.393205L535.734953,628.376003L542.419826,601.661226L577.542019,594.131593L657.261857,577.009435L827.010508,541.630621L825.149373,533.894746L842.967897,538.123690L986.483891,506.148798L1000.000000,360.097159Z " data-aland="345226" data-awater="0" data-classfp="C1" data-funcstat="A" data-geoid="2902044" data-intptlat="+39.0700000" data-intptlon="-092.9472467" data-lsad="43" data-mtfcc="G4110" data-name="Arrow Rock" data-namelsad="Arrow Rock town" data-pcicbsa="N" data-pcinecta="N" data-placefp="02044" data-placens="02397439" data-statefp="29"/></g><g fill="#000" font-family="Arial" font-size="12px" id="mylayer-label" stroke="none"><text text-anchor="middle" y="488.808056796"><tspan dy="0" x="479.221908938"><![CDATA[Arrow Rock]]></tspan></text></g></svg>