<?xml version="1.0" encoding="utf-8"?><!DOCTYPE svg  PUBLIC '-//W3C//DTD SVG 1.1//EN'  'http://www.w3.org/Graphics/SVG/1.1/DTD/svg11.dtd'><svg enable_background="new 0 0 1000 1001" height="1001px" pretty_print="False" style="stroke-linejoin: round; stroke:#000; fill: none;" version="1.1" viewBox="0 0 1000 1001" width="1000px" xmlns="http://www.w3.org/2000/svg" xmlns:xlink="http://www.w3.org/1999/xlink"><defs><style type="text/css"><![CDATA[path { fill-rule: evenodd; }]]></style></defs><metadata><views><view h="1001" padding="0" w="1000"><proj flip="auto" id="robinson" lon0="-94.0210332179"/><bbox h="0.78" w="0.63" x="-1297.04" y="-636.33"/></view></views></metadata><g class="" id="mylayer"><path d="M641.200748,999.000000L656.039349,970.640549L664.922689,953.550859L667.019871,951.785219L669.090852,950.651723L680.830932,945.616385L701.776809,939.578347L712.578081,930.554005L756.565933,936.461241L783.520101,936.875402L824.998504,937.529340L831.999783,937.638330L834.287362,931.731092L875.407334,825.271485L894.590569,775.595649L899.774511,762.190471L890.307545,762.778990L882.809096,763.236727L873.031918,763.956029L870.256779,764.173999L862.198946,764.566345L852.210322,765.133067L845.652022,765.525414L833.156875,765.438226L812.615230,765.002285L792.416897,764.239390L784.809036,784.597851L779.481767,784.292691L776.884697,790.984413L757.160123,790.177918L767.312023,763.280321L759.006323,762.713599L743.225482,762.234065L731.196022,794.973294L714.935515,794.907903L721.513425,777.099648L727.182728,761.645546L720.204782,761.318591L710.447329,760.817260L691.940444,759.858192L687.537196,771.781163L673.617953,771.781163L678.415298,759.335065L670.446722,759.117095L662.546038,780.870545L654.444150,780.478197L650.106401,792.466620L602.503329,791.420356L596.289081,808.640148L574.709099,808.095217L594.161746,756.392473L572.922638,755.629579L559.651831,755.237233L562.730856,748.480180L569.918976,729.734865L571.650835,725.222925L577.717191,709.594647L579.692027,704.537812L587.374403,684.528499L598.360495,655.146812L609.685615,625.351210L611.354531,620.970163L619.177685,601.724130L619.522027,599.522721L619.417325,598.912429L629.475909,573.105906L637.066689,550.481742L638.328536,549.544521L646.218848,529.906506L648.494373,523.433174L649.310262,521.144626L655.065122,506.062031L656.518472,502.552938L656.867243,500.743904L663.322657,490.935902L662.062573,490.957697L668.629351,480.931764L671.166352,474.872626L678.546982,458.569665L687.401951,439.760316L701.800908,408.549633L705.518625,399.461093L705.302077,399.373913L708.077211,384.139213L712.862952,374.113548L713.180219,373.002008L719.841385,356.590489L726.492688,340.157244L745.079580,294.323231L751.405127,278.522279L669.725266,278.544074L659.311800,277.803065L658.827596,277.977420L653.023455,278.282541L617.080685,277.301795L598.857332,276.800524L598.217446,276.713347L595.436192,276.342843L600.266735,262.350888L591.034202,262.067562L585.898900,275.972339L572.271279,275.797984L552.539178,274.969798L530.005115,274.032641L499.344636,272.877541L530.754755,192.849525L531.238917,191.563685L465.675966,186.856207L499.902802,97.415182L523.458616,3.595820L448.250441,0.000000L426.698306,49.840531L420.981059,63.635595L415.253903,77.408914L408.337757,97.567735L462.701185,97.720289L453.675332,120.538020L432.988110,173.169681L420.308804,205.293863L407.620127,237.396511L403.243072,237.352923L384.147285,237.178569L372.962753,266.186683L348.386181,327.298385L383.501403,326.557367L401.200131,326.186859L398.183432,332.202182L382.060160,364.349446L379.212686,378.625094L374.058834,392.028993L371.531965,398.916217L363.657367,420.471562L354.344008,444.533480L346.451029,463.059511L341.865503,474.938012L337.756402,485.552409L333.597807,495.752718L325.121428,517.722702L316.814466,539.562033L315.267584,543.136545L288.619057,542.308304L285.879870,542.221121L299.394897,503.381171L301.506464,497.278407L259.950104,496.101447L257.955906,501.463159L243.366831,540.346681L237.414575,542.744220L213.302678,542.482671L206.339743,542.417283L174.690374,542.068550L148.510542,542.526262L137.168271,572.255863L131.333719,587.665647L121.395590,613.777411L104.461694,658.176516L102.691159,662.797364L100.225489,669.815832L117.802399,671.821111L143.676762,673.303274L139.873779,679.907626L176.334662,683.155315L179.612400,681.041047L185.048027,670.665896L219.509329,653.294116L233.392068,653.751841L240.801274,636.707079L279.096844,637.121209L269.424380,662.274249L256.172773,698.652710L239.536380,741.047434L220.341101,740.393528L212.687834,760.621087L132.178028,758.528576L127.979332,758.528576L115.894231,791.769110L119.295401,795.169469L136.353485,805.697520L155.254778,808.814526L174.356748,808.269595L199.242077,801.054712L213.344231,793.294912L221.131927,789.022669L214.844901,805.283373L205.262825,829.325793L203.681865,834.012228L197.188225,850.512884L193.417954,860.517938L182.754210,888.222693L177.221255,901.868063L187.682763,902.020647L199.404459,902.151434L218.144486,902.696377L265.230868,904.418401L287.514014,905.224918L312.319475,906.336604L315.343618,906.467391L337.763541,906.881549L331.660384,922.772160L410.456387,925.235319L418.226297,925.366107L415.053733,934.216054L406.468307,956.471796L403.991817,965.147426L433.524111,965.757773L437.247318,954.466377L444.854156,934.107065L453.894067,911.459085L457.787580,911.677063L476.812400,912.265604L498.689854,913.072122L501.233777,912.505379L511.150611,912.854144L520.767530,913.202909L537.989917,914.053024L562.352236,914.968533L589.749484,917.148315L597.024909,917.584272L614.292906,918.303601L636.302737,918.325398L639.593980,918.499781L656.115870,919.284503L622.223546,959.741504L598.542378,958.237438L592.333820,973.169131L592.169413,973.539700L584.540397,991.130832L584.370199,993.594033L585.093844,995.010918L585.932133,995.643068L586.942181,996.035436L587.581976,996.275217L589.975731,996.645787L604.134319,997.125349L625.403854,998.564035L627.351883,998.694824L631.276342,998.520438L641.200748,999.000000Z M215.400143,607.064187L224.316900,583.676970L271.389049,585.682206L272.427044,583.262846L276.146546,583.371826L277.857417,583.524398L270.971164,600.939469L267.463487,609.832300L258.676710,609.330988L215.400143,607.064187Z " data-aland="7982599" data-awater="36476" data-classfp="C1" data-funcstat="A" data-geoid="2921502" data-intptlat="+37.8696980" data-intptlon="-094.0199545" data-lsad="25" data-mtfcc="G4110" data-name="El Dorado Springs" data-namelsad="El Dorado Springs city" data-pcicbsa="N" data-pcinecta="N" data-placefp="21502" data-placens="02394631" data-statefp="29"/></g><g fill="#000" font-family="Arial" font-size="12px" id="mylayer-label" stroke="none"><text text-anchor="middle" y="605.662099807"><tspan dy="0" x="481.550377281"><![CDATA[El Dorado Springs]]></tspan></text></g></svg>