<?xml version="1.0" encoding="utf-8"?><!DOCTYPE svg  PUBLIC '-//W3C//DTD SVG 1.1//EN'  'http://www.w3.org/Graphics/SVG/1.1/DTD/svg11.dtd'><svg enable_background="new 0 0 1000 1001" height="1001px" pretty_print="False" style="stroke-linejoin: round; stroke:#000; fill: none;" version="1.1" viewBox="0 0 1000 1001" width="1000px" xmlns="http://www.w3.org/2000/svg" xmlns:xlink="http://www.w3.org/1999/xlink"><defs><style type="text/css"><![CDATA[path { fill-rule: evenodd; }]]></style></defs><metadata><views><view h="1001" padding="0" w="1000"><proj flip="auto" id="robinson" lon0="-86.1043884145"/><bbox h="0.27" w="0.43" x="-1159.42" y="-714.51"/></view></views></metadata><g class="" id="mylayer"><path d="M1000.000000,188.333278L679.782890,191.881870L665.932469,226.956976L373.127388,234.240962L289.149873,241.114062L209.181369,458.553399L284.842794,463.558939L268.321749,505.807310L236.751883,505.844665L198.104206,506.292925L187.193835,535.766052L198.650402,536.027538L195.368978,545.328965L222.802283,545.403675L221.422630,549.213901L188.574865,639.315035L158.144213,722.805123L6.853416,726.167158L0.000000,745.031930L0.000000,745.031930L150.885035,742.678500L136.602705,782.686888L339.788401,782.089189L344.050192,782.051833L374.396484,781.977120L395.133343,781.902408L424.425696,781.827695L438.234922,781.790339L440.774152,775.253009L452.004232,748.132480L466.527525,719.069531L488.206199,675.624717L490.463942,671.403522L572.331974,672.935106L584.144823,673.159240L587.834459,673.233952L580.605319,722.058005L568.301395,810.666722L578.420045,810.479941L586.417607,810.479941L733.844930,809.172470L853.463908,503.155107L875.145758,503.117752L881.782668,485.635648L888.990379,466.659387L915.576427,465.912291L941.250346,465.351969L952.923423,436.364696L900.637227,438.045656L903.395573,431.658008L914.339300,405.098894L916.141782,400.392224L935.445176,351.383243L964.445778,277.683528L985.261748,225.462826L1000.000000,188.333278Z " data-aland="2843504" data-awater="25215" data-classfp="C5" data-funcstat="A" data-geoid="2627740" data-intptlat="+42.5947199" data-intptlon="-086.1050663" data-lsad="25" data-mtfcc="G4110" data-name="Fennville" data-namelsad="Fennville city" data-pcicbsa="N" data-pcinecta="N" data-placefp="27740" data-placens="01626274" data-statefp="26"/></g><g fill="#000" font-family="Arial" font-size="12px" id="mylayer-label" stroke="none"><text text-anchor="middle" y="479.974883914"><tspan dy="0" x="554.158044549"><![CDATA[Fennville]]></tspan></text></g></svg>