<?xml version="1.0" encoding="utf-8"?><!DOCTYPE svg  PUBLIC '-//W3C//DTD SVG 1.1//EN'  'http://www.w3.org/Graphics/SVG/1.1/DTD/svg11.dtd'><svg enable_background="new 0 0 1000 1001" height="1001px" pretty_print="False" style="stroke-linejoin: round; stroke:#000; fill: none;" version="1.1" viewBox="0 0 1000 1001" width="1000px" xmlns="http://www.w3.org/2000/svg" xmlns:xlink="http://www.w3.org/1999/xlink"><defs><style type="text/css"><![CDATA[path { fill-rule: evenodd; }]]></style></defs><metadata><views><view h="1001" padding="0" w="1000"><proj flip="auto" id="robinson" lon0="-93.7948073542"/><bbox h="0.52" w="0.35" x="-1227.58" y="-791.92"/></view></views></metadata><g class="" id="mylayer"><path d="M608.584728,0.000000L592.185608,0.124935L519.599981,0.655906L417.342016,216.073975L449.275792,216.073975L464.059532,216.729879L514.594037,216.323843L580.621538,215.761640L594.378482,186.776910L619.327409,186.745677L616.738506,192.305249L609.001518,208.921495L606.402578,214.449831L596.498087,237.312777L566.760960,305.901564L556.832395,328.764477L536.818484,366.213409L498.819206,437.207028L477.611910,478.591304L467.210941,498.830547L458.888759,515.634111L458.681274,516.071378L457.983770,516.071378L455.871077,516.008911L455.163482,515.977678L454.437598,516.352479L452.594194,516.352479L452.293373,515.883978L276.662802,521.099953L315.214724,439.861869L349.611612,368.118651L372.100823,321.205974L273.913876,321.924344L251.115200,367.650149L215.311787,439.362135L205.099798,459.882491L174.394773,521.381054L164.173323,541.870149L166.570758,542.120016L181.428945,544.931020L186.915613,546.492688L191.084859,547.523389L205.018523,550.865360L222.676836,556.175032L230.512706,559.610702L241.640627,563.983373L251.273911,568.356043L258.813428,572.416379L264.327913,575.914515L268.203955,578.350717L274.397058,582.098719L283.289430,588.033055L285.687224,589.594723L289.760032,586.471388L293.807929,583.348053L305.484934,574.384081L309.135516,571.573079L342.145490,587.002355L334.229506,593.342724L314.573254,608.990628L325.089500,616.018129L350.034009,632.696726L356.628497,637.069392L367.149703,644.034422L380.450889,632.696726L378.143836,631.416160L360.820501,621.671362L374.471182,610.489828L380.989330,615.705795L390.951398,623.639061L395.044528,625.513061L396.942904,626.762394L401.394256,628.511461L386.453443,656.746381L379.583181,670.176704L375.025725,680.202594L374.067893,682.326458L371.209226,688.666817L370.241308,690.759448L368.374843,694.851009L362.639334,707.937757L356.183182,722.648632L339.216032,759.410187L331.280568,776.557243L332.152494,776.557243L334.693536,776.557243L335.540550,776.557243L362.750021,776.650943L444.348153,776.838342L447.337614,776.838342L454.198559,776.869575L443.936170,798.607911L440.849674,805.166891L431.570093,824.781357L428.473566,831.309100L425.179731,838.305340L415.263329,859.262823L411.959472,866.227827L409.095376,872.318300L400.453350,890.589717L397.579214,896.648955L421.026126,897.585950L450.572630,898.741578L454.409865,898.897744L482.974689,900.022138L491.306995,900.365703L508.420042,901.052833L514.689305,901.333932L511.040954,909.235926L500.100760,932.879434L496.442405,940.750191L489.965432,954.773877L478.274886,979.947790L473.890825,989.348963L476.764602,989.067865L479.958885,989.161565L490.986704,989.442663L489.065040,993.284338L488.156055,995.095859L486.890885,997.500810L487.105690,998.781368L489.692635,999.000000L491.535545,998.843834L492.088350,998.781368L494.604593,998.781368L495.463746,996.969847L497.966471,991.535283L498.815528,989.692528L505.134069,989.817460L516.604942,990.004859L524.178572,990.004859L530.556366,990.004859L536.215712,989.786227L553.223373,989.067865L558.872616,988.818000L571.484110,988.911700L609.263377,989.099098L621.864772,989.161565L634.474906,963.675324L644.814529,963.831490L736.465250,965.049582L766.990587,965.455613L768.798982,961.957501L774.203991,951.400697L776.002303,947.871350L755.899077,934.472326L695.545562,894.212766L675.433088,880.782496L730.759986,768.967563L732.182879,766.125337L736.401752,757.598658L737.814560,754.725199L753.119266,723.773030L775.799884,677.797630L738.495699,677.454063L713.876936,677.204197L663.045070,676.704464L642.696304,676.485831L700.934467,554.988164L718.831771,517.633047L722.482554,510.043334L753.150742,445.983620L763.868859,423.027051L767.098965,416.061995L799.243186,354.250992L811.157778,331.294389L816.092543,320.737472L830.901828,289.004243L835.826677,278.416085L810.098495,278.041283L732.883707,276.823176L707.145454,276.417140L711.320036,267.515590L716.759309,255.896723L723.784060,240.779698L727.948679,231.846910L714.657134,231.878143L674.802059,231.878143L661.500427,231.878143L663.077055,228.661089L667.796874,218.978694L669.363432,215.730406L682.590291,215.730406L686.401420,215.730406L722.152285,215.980275L735.324589,216.042742L735.932338,214.762167L737.725330,210.826741L738.322995,209.514932L740.768219,204.205230L748.103956,188.276121L750.539138,182.935183L759.676332,162.633370L767.324845,146.360682L784.183478,110.473298L818.770985,36.605818L819.561468,34.887969L832.109725,7.402373L835.424148,0.000000L809.569386,0.000000L731.930375,0.000000L706.050705,0.000000L608.584728,0.000000Z " data-aland="3343657" data-awater="0" data-classfp="C5" data-funcstat="A" data-geoid="2715310" data-intptlat="+47.3409989" data-intptlon="-093.7962511" data-lsad="25" data-mtfcc="G4110" data-name="Deer River" data-namelsad="Deer River city" data-pcicbsa="N" data-pcinecta="N" data-placefp="15310" data-placens="02394489" data-statefp="27"/></g><g fill="#000" font-family="Arial" font-size="12px" id="mylayer-label" stroke="none"><text text-anchor="middle" y="488.032080276"><tspan dy="0" x="563.763859161"><![CDATA[Deer River]]></tspan></text></g></svg>