<?xml version="1.0" encoding="utf-8"?><!DOCTYPE svg  PUBLIC '-//W3C//DTD SVG 1.1//EN'  'http://www.w3.org/Graphics/SVG/1.1/DTD/svg11.dtd'><svg enable_background="new 0 0 1000 1001" height="1001px" pretty_print="False" style="stroke-linejoin: round; stroke:#000; fill: none;" version="1.1" viewBox="0 0 1000 1001" width="1000px" xmlns="http://www.w3.org/2000/svg" xmlns:xlink="http://www.w3.org/1999/xlink"><defs><style type="text/css"><![CDATA[path { fill-rule: evenodd; }]]></style></defs><metadata><views><view h="1001" padding="0" w="1000"><proj flip="auto" id="robinson" lon0="-88.5340283742"/><bbox h="0.25" w="0.32" x="-1237.62" y="-583.01"/></view></views></metadata><g class="" id="mylayer"><path d="M1000.000000,112.116105L950.350459,110.742137L944.292985,110.583602L921.589112,109.949463L919.798485,110.107997L914.457673,110.477912L912.638980,110.583602L909.048200,110.636447L898.260322,110.847827L894.641476,110.847827L838.399761,110.689292L669.546829,110.055152L613.277056,109.843773L601.069396,110.583602L585.909425,111.429121L564.493019,112.644555L552.257290,113.331539L544.359571,113.648608L520.566680,114.494127L512.656431,114.705507L504.487588,114.758352L480.027667,114.758352L471.830760,114.758352L458.320602,114.441282L403.582368,113.173004L239.545148,109.209633L236.182998,120.941204L222.831598,158.936558L193.596183,242.060559L192.325213,246.235227L183.764294,274.612337L154.213726,372.161044L144.354590,404.659353L138.749611,423.576996L126.735090,464.001391L121.922557,480.223924L116.289788,499.088514L103.889439,539.195408L66.649641,659.356145L54.178857,699.409251L43.374367,735.129235L10.875177,842.288058L0.000000,877.954450L142.502736,879.856652L569.880387,885.563256L712.355215,887.412617L713.392758,887.888167L716.505389,889.314817L717.542932,889.790367L723.771587,889.367656L742.357792,887.993845L748.573895,887.465456L749.285147,885.193384L765.316683,828.708360L767.698325,820.306899L813.446110,659.144783L829.452082,602.605034L833.526230,591.561233L845.618003,558.429724L849.664168,547.333010L856.275787,531.216322L876.110920,482.866026L882.722723,466.749185L884.540426,461.306439L889.819163,444.978177L891.608818,439.482571L898.761511,417.817161L920.176521,352.820513L922.643699,345.316795L927.519507,331.101982L929.603292,323.122650L935.826657,299.131754L937.882425,291.099541L940.565247,284.494095L948.454886,264.624876L951.109670,257.966561L957.952442,237.357448L978.337902,175.424045L985.152929,154.761836L994.803389,127.124051L1000.000000,112.116105Z "/></g><g fill="#000" font-family="Arial" font-size="12px" id="mylayer-label" stroke="none"><text text-anchor="middle" y="489.716433163"><tspan dy="0" x="495.211670414"><![CDATA[N]]></tspan></text></g></svg>