<?xml version="1.0" encoding="utf-8"?><!DOCTYPE svg  PUBLIC '-//W3C//DTD SVG 1.1//EN'  'http://www.w3.org/Graphics/SVG/1.1/DTD/svg11.dtd'><svg enable_background="new 0 0 1000 1001" height="1001px" pretty_print="False" style="stroke-linejoin: round; stroke:#000; fill: none;" version="1.1" viewBox="0 0 1000 1001" width="1000px" xmlns="http://www.w3.org/2000/svg" xmlns:xlink="http://www.w3.org/1999/xlink"><defs><style type="text/css"><![CDATA[path { fill-rule: evenodd; }]]></style></defs><metadata><views><view h="1001" padding="0" w="1000"><proj flip="auto" id="robinson" lon0="-115.958539102"/><bbox h="2.04" w="1.44" x="-1630.78" y="-559.18"/></view></views></metadata><g class="" id="mylayer"><path d="M531.819348,0.000000L531.129247,0.041136L530.868631,0.131635L529.875682,2.714972L527.697582,5.561574L526.054244,7.330414L525.841561,7.552547L524.092969,10.448504L523.102843,11.304126L520.625601,13.747585L516.900655,18.362997L515.043841,19.720468L512.152007,20.353955L509.313893,21.439931L507.144948,22.616404L505.709913,23.389750L504.325846,24.697855L503.377620,27.141294L502.428299,29.288555L502.717293,29.420188L503.577387,29.815087L503.859494,29.946719L504.417097,30.284028L506.092939,31.287728L506.646686,31.616809L505.887168,32.332561L503.604759,34.471589L502.841385,35.179113L495.666496,37.474451L474.140978,44.343991L466.962217,46.631089L463.539849,49.452936L459.854087,51.624850L454.372180,55.606686L449.926621,58.008945L443.365767,59.777730L442.028256,60.230210L440.721614,60.954177L439.366493,61.809774L438.417159,62.311614L437.494000,62.854589L436.970847,63.134303L436.547696,63.348202L433.506313,65.116981L432.396926,65.791585L430.826108,66.877532L428.480333,68.234964L427.069275,68.868432L426.186335,69.320910L424.813305,70.094234L424.232304,70.456215L423.677479,70.859331L422.040006,72.126265L419.665136,74.890482L418.992148,75.614442L418.124937,76.379537L416.142023,77.967313L414.239243,79.094386L412.839779,79.958200L411.632866,80.542303L410.847728,80.953643L409.060082,81.768096L406.009578,82.944527L404.940679,83.397001L404.180607,83.758979L401.228784,85.527737L400.592424,86.021344L400.384726,86.342188L400.107665,87.337627L399.944059,87.781873L399.569727,88.555188L398.967847,89.460132L396.477643,92.668564L393.536735,95.885218L390.278753,99.233492L388.907235,100.994007L386.494427,103.618323L385.690601,104.342271L383.565270,105.699674L380.945201,107.558902L378.328423,109.278275L376.973337,110.133848L376.817150,110.314834L376.471712,110.635674L375.413760,112.536030L374.169849,114.436384L373.563285,115.110968L370.632899,118.056100L368.745305,119.142013L367.792134,119.635610L367.144760,120.046940L366.865715,120.318418L364.953086,123.436300L364.515436,124.250732L363.795460,125.476493L363.359980,126.060581L362.687038,126.784520L361.909411,127.549591L359.607080,129.630913L355.571731,132.789910L355.429037,132.896855L353.679823,134.336500L353.085392,134.978170L352.232297,135.817276L351.749693,136.286188L350.141156,137.100615L348.070280,137.692924L345.626100,138.326367L343.275932,139.321775L341.411255,140.588658L340.250166,141.534706L339.200651,142.439622L337.714975,143.163554L336.456593,143.887485L335.007499,145.746672L334.221537,147.507138L333.215424,149.135980L332.582371,150.855311L331.981192,153.479549L332.235548,155.108385L332.134151,156.375256L332.132710,157.370654L331.855761,158.366051L331.243560,159.542429L330.686372,160.307486L330.281208,160.809297L329.797788,161.261750L328.551674,162.569748L327.868604,163.433520L327.456308,164.066953L326.453270,165.687552L325.607143,166.732303L324.899556,167.587846L324.740110,167.908675L324.146343,168.904066L324.064568,169.126178L323.544566,169.808967L322.209170,170.985337L320.467397,172.161707L318.918384,172.926758L316.977355,173.839882L315.018750,176.110353L313.028881,177.829656L310.491367,179.820427L306.613462,183.843092L303.525689,186.598900L301.333841,188.137215L295.512227,193.155238L294.214568,194.191745L293.916251,194.422080L288.767547,198.716177L284.643195,202.903321L283.755197,203.799978L282.929724,204.639050L285.406147,214.864185L290.916685,235.635085L291.978130,241.228790L293.844667,248.097504L296.014591,256.126051L300.314567,273.153683L300.433302,273.729494L300.523558,274.083206L300.912353,275.366440L301.077640,275.909347L301.295623,276.608544L301.442131,277.052740L301.865566,278.747264L302.052975,279.454686L304.866863,290.320984L312.077622,318.181492L313.219333,322.960589L315.850368,333.933542L320.561048,353.148380L327.087508,378.309950L332.438313,400.041221L334.024786,405.823568L336.662932,415.340135L339.902571,427.998649L345.362641,449.120641L343.037854,450.403744L342.263652,450.823220L330.530156,456.712321L327.568769,458.209269L318.679904,462.675428L315.714655,464.164145L312.777802,465.669310L303.969431,470.160125L301.028717,471.657060L299.104806,472.561801L296.748271,473.762638L286.289530,479.051244L283.917879,480.293201L279.643329,482.513916L278.210863,483.262379L273.901871,485.483090L272.465541,486.223326L270.974102,486.963562L266.478275,489.167819L264.982970,489.899829L263.510016,490.664738L259.066621,492.951238L257.589802,493.707921L256.129784,494.456379L251.745025,496.677076L250.281143,497.417307L248.814238,498.165763L244.415704,500.386455L242.944934,501.126686L243.468352,503.075956L245.024882,508.923756L245.249962,509.754454L245.623769,510.798996L247.108307,510.058770L251.577880,507.813416L253.064600,507.048514L253.219797,507.994360L253.710410,509.302094L254.432484,510.017646L254.820829,510.404208L256.460762,510.815445L257.663783,510.766097L258.609541,510.535804L260.501207,509.943623L265.271155,507.443302L266.304244,506.900469L269.138062,505.469362L269.395299,506.793547L270.156280,510.757872L270.185370,510.922366L270.463093,512.040929L270.686851,512.912750L271.045609,514.335626L271.815723,514.845558L271.983583,514.894906L272.793643,515.108749L274.176012,520.981182L274.328170,521.598033L278.044891,538.738179L279.326787,544.659879L280.213537,548.920201L282.868490,561.659981L283.754567,565.903812L285.916527,575.674453L288.395055,586.908978L292.732516,604.747543L293.547960,608.078375L297.771758,611.976674L298.172908,612.609941L298.553749,612.848444L301.589845,614.616656L301.664297,614.657777L302.601597,615.200577L304.137510,614.657777L308.744401,613.012929L310.279467,612.453680L309.707937,614.065632L307.996400,618.893254L307.421022,620.496976L306.088402,620.973980L302.114713,622.339198L300.787289,622.783305L300.679867,623.507034L300.346006,625.653548L300.227831,626.369052L299.590605,628.309958L297.664344,634.116215L297.023278,636.048888L295.804729,636.065336L295.188566,636.073560L292.111136,636.180474L290.876635,636.221595L290.553745,637.175594L289.582063,640.045814L289.265221,640.983363L288.365216,643.639749L285.662258,651.617109L284.761458,654.257031L283.783456,657.069654L280.858599,665.482824L279.883676,668.287205L276.140590,668.311877L273.030476,668.320101L265.253628,668.410565L264.889340,668.427013L263.909729,668.468132L262.054218,668.624388L261.536563,668.739524L261.008046,668.978019L260.546725,669.183619L260.239991,669.380994L259.946188,669.561922L258.635522,670.598143L258.116600,671.223165L257.843360,671.535676L257.574732,672.004442L257.356131,672.374520L257.007330,673.492979L256.794042,674.767692L256.767125,675.047307L256.969046,675.622983L257.299797,676.091748L257.622811,676.544066L258.736303,677.095070L259.580199,677.160861L261.735248,677.201981L268.401344,676.947039L272.330559,676.790784L271.833976,678.049047L270.337356,681.823830L269.836916,683.073866L269.340621,684.537722L267.851760,688.929283L267.358502,690.384911L266.945137,690.384911L263.926725,690.368463L263.481460,690.417806L260.064487,690.754985L257.442244,691.273090L255.669944,691.840537L252.000189,693.353729L251.096055,693.789594L246.876922,695.804439L244.370829,697.038017L236.855573,700.730521L234.348633,701.947648L228.142392,705.039804L218.161545,709.949412L181.012247,728.206126L174.670412,731.273564L169.578128,733.790011L153.383380,741.775182L153.756679,743.066293L154.276581,745.327790L154.803052,748.715919L154.682252,750.977409L154.499221,752.301408L154.433549,752.630351L153.958377,754.900060L151.807598,761.339109L149.920479,766.347241L148.008919,771.947451L149.017364,771.996792L151.573047,771.922781L154.769690,772.185933L158.593735,773.123411L162.025600,774.603639L162.490532,774.801002L164.522646,776.059195L169.678618,779.767979L170.253492,779.027868L171.780860,777.588761L172.502973,776.897989L174.361354,775.664468L176.037345,774.833896L177.634369,774.274699L178.966325,774.118453L179.862063,773.986877L181.263687,773.978654L182.939468,769.283036L187.971394,755.146767L189.468333,750.919844L189.858279,750.533335L190.763073,750.377087L197.473928,750.451099L220.160370,750.697807L227.228636,750.755372L227.608714,750.977409L226.942653,752.885282L224.927712,758.617113L224.260828,760.508530L225.814866,760.516754L230.472259,760.516754L232.022426,760.516754L233.522665,760.483859L238.021677,760.352283L239.518044,760.311165L241.047543,760.311165L245.608480,760.311165L247.134109,760.302941L246.913706,760.903261L246.255986,762.638428L246.034734,763.222300L245.626523,764.653195L244.388135,768.945873L243.976069,770.368539L243.363585,770.648138L241.536044,771.478712L240.919689,771.750087L244.039858,771.733640L249.824626,771.684300L253.391772,771.651406L253.801282,771.643182L254.936515,768.419568L257.073477,770.105387L261.289189,771.421148L264.545629,773.304328L267.486912,777.416068L269.265222,779.891331L280.574143,787.991420L283.155019,793.254402L282.075260,806.444681L283.141485,808.138687L286.467568,809.832692L291.992550,811.148422L295.632006,811.312889L305.125959,811.707608L311.260439,815.473880L311.764837,817.028081L313.278068,821.690678L313.775601,823.244874L315.051402,827.446953L315.127874,827.858115L316.229106,833.606147L318.239374,837.421711L319.559784,841.352392L320.523677,844.189384L320.994540,845.891577L322.311264,850.677444L322.858505,853.185496L324.313711,859.903770L325.829909,866.136857L326.390782,871.950548L327.915824,875.305541L328.428772,876.423870L328.710887,883.166724L328.571294,883.396967L328.155533,884.079474L328.012067,884.301494L328.883675,884.235711L329.729844,884.276825L330.134643,884.243934L330.896090,883.915015L331.772427,883.873900L332.235324,883.964353L333.361587,884.819541L333.776254,884.909994L334.141425,884.909994L335.350801,884.317940L335.984762,884.054805L336.110087,884.013690L336.505874,883.873900L337.061397,883.824562L338.360304,883.364075L338.104730,884.079474L337.765016,885.362257L337.378495,886.209223L337.050150,886.916397L334.419961,892.639568L332.551556,896.981271L330.532492,902.860643L329.223321,906.429372L327.627361,910.047430L326.884145,911.585102L326.192437,913.846383L325.638176,917.686442L325.344292,918.525169L323.405216,924.017999L322.051472,929.305243L319.888354,933.737306L319.171465,935.316072L318.307306,939.156084L317.753544,941.285766L316.220570,945.578014L314.138700,949.056206L311.643456,952.402830L309.493804,954.450270L308.463558,955.436987L305.347940,957.788660L302.973617,959.096058L300.468400,960.271893L298.177298,960.863921L296.356969,960.905034L294.615029,960.863921L294.085757,960.954370L293.173186,961.225716L289.685712,962.130203L288.854526,962.442663L288.419960,962.763344L286.153628,964.753214L284.829682,965.789261L282.649587,967.055540L282.069029,967.417333L281.798534,967.779127L281.412184,968.231369L280.990907,969.004291L279.973996,970.180120L279.330129,970.583026L278.356333,971.397060L276.511609,973.477368L275.964224,973.748712L275.404812,973.789825L275.036593,973.929608L273.727417,974.061169L273.108569,974.151617L272.219229,974.603858L270.528860,975.286329L269.460355,975.870130L267.517910,977.728425L266.447639,978.674016L266.046249,978.904247L265.558300,979.126255L265.059165,979.266038L264.652636,979.266038L264.402022,979.085143L264.473164,978.402672L264.426700,978.040881L264.152872,977.547529L263.666709,977.276185L263.021596,977.325520L262.581896,977.415968L262.354499,977.547529L261.649445,978.229999L261.080043,978.937137L260.584294,979.537382L259.894288,980.441860L258.238649,982.382374L256.260950,983.829536L255.698505,984.010432L255.273867,984.191327L254.363060,984.100879L253.252934,983.426634L252.352066,983.064843L251.855977,982.933283L251.157475,982.883948L250.643278,982.933283L250.211748,983.114178L249.445138,983.607529L248.836552,984.289997L247.321755,986.090725L246.493947,986.995199L244.116610,988.442358L242.173848,989.437278L240.858110,990.432199L240.702195,990.613093L240.635856,990.793988L240.656061,991.114664L240.848512,991.566900L241.332909,992.331590L241.611893,993.055167L241.295277,993.918526L241.073026,994.280314L240.115581,995.406791L239.596171,995.883693L252.851081,996.171479L292.598176,997.026614L305.849225,997.306177L326.349389,997.659742L387.843032,998.720437L404.408382,999.000000L407.996560,998.440874L408.582247,998.177756L411.774242,996.763495L418.208250,991.336671L421.843892,987.472104L448.464097,959.145394L456.556452,952.221932L459.645162,950.544509L470.353594,944.698186L473.033181,943.234546L471.641452,938.555826L461.284414,902.507059L452.544892,868.217289L446.992114,845.398188L439.908358,818.417816L438.573545,812.817754L438.381406,811.970754L434.467065,796.033908L433.098104,790.433775L432.811262,789.619657L431.982634,787.127961L431.694945,786.297395L432.628259,785.894446L434.090893,785.269466L439.364737,783.008020L440.099437,782.827104L447.942159,780.812358L461.968196,778.263086L463.397504,777.991711L469.095128,777.391398L473.125710,774.406275L473.542296,774.003324L473.705088,773.953983L474.823110,773.592150L476.425969,773.279657L477.535790,772.958941L479.575239,771.832322L481.421652,770.968855L483.435977,770.154728L485.156606,769.389942L486.105467,768.888308L486.677957,768.436015L487.242373,767.761687L487.882970,767.161370L489.167184,765.952512L490.764975,764.546289L492.330815,763.320982L493.746210,763.312759L496.544717,763.271641L498.083465,762.852240L499.603709,762.408169L500.601716,761.791404L502.854025,760.385177L503.435243,759.702622L504.242243,758.724019L504.787112,758.403300L505.230344,758.115475L507.284564,756.742140L508.170175,756.150043L508.329555,756.034913L509.116152,755.393474L509.500396,755.097426L510.277940,754.480657L510.638956,754.135267L510.996102,753.781653L511.313090,753.650076L514.812560,751.980688L516.354064,751.215894L518.371478,750.261956L521.024708,748.814602L522.282427,748.090925L522.895802,747.696192L525.786960,745.788313L526.955116,745.064634L527.970389,744.382074L532.016136,741.355777L533.577734,740.048217L534.774119,738.872235L536.081914,737.918291L537.327773,736.832768L539.259596,734.891983L541.235850,732.811393L541.667475,732.498893L542.585059,731.725867L544.471723,730.508761L547.506420,728.378824L549.277208,727.252176L550.330739,726.709412L552.263644,725.985725L553.585795,725.574540L554.901766,725.442960L556.936094,725.081117L558.610852,724.760392L564.035610,722.951173L568.791230,721.125504L574.806148,711.890225L575.916321,710.179678L577.658747,693.534654L576.162858,685.129843L575.591310,681.938965L577.053446,676.042405L581.624231,671.173821L590.101246,663.772232L592.777901,662.242566L604.658797,655.383726L615.948117,651.674677L618.532654,652.028312L627.811269,653.270145L637.640086,650.761806L641.440670,645.852031L654.616536,628.786960L662.583171,621.368742L664.255364,619.797918L681.314772,606.153895L687.959110,603.012218L696.834621,598.784926L728.150024,583.915305L789.627081,554.710274L806.870889,544.297998L811.623798,540.679183L818.601756,534.584752L820.929470,532.898705L824.883121,530.011859L829.740327,527.347074L844.171623,520.841362L845.822946,519.665232L846.931771,518.990808L848.599188,518.127215L851.991081,516.638544L851.697994,516.498724L849.974286,515.733827L849.675524,515.684479L849.156433,515.503535L848.279121,515.322591L847.013721,514.829109L845.862892,514.286278L844.275526,513.694098L843.185989,513.472031L842.081347,513.291087L841.253472,513.200615L840.872160,513.019671L840.669958,512.838727L840.325130,512.295896L840.113229,511.391176L840.199860,510.798996L840.455691,510.215040L840.874315,509.581735L841.546615,508.857958L841.999685,508.224653L842.132615,507.862764L842.086319,507.632471L841.183998,507.500876L840.183906,507.410403L839.563415,506.999166L838.823887,506.818221L836.228581,505.781903L835.855374,505.691430L835.448933,505.691430L834.979164,505.732554L834.081572,506.094443L832.969592,506.908694L832.222721,507.722944L831.261464,508.989554L830.844880,509.260970L830.111408,509.532387L828.477542,509.441914L827.583087,509.663982L826.823388,509.894275L826.562342,510.042320L826.253921,510.206815L825.673332,510.437107L825.102769,510.527579L824.793983,510.618051L824.320959,510.930591L823.970839,511.021063L823.645852,510.930591L823.443653,510.749647L823.249554,510.659175L823.052317,510.708524L822.713319,510.881243L822.197035,511.424075L821.601341,511.695491L821.209888,511.785963L820.591103,511.876435L818.875780,511.876435L818.525661,511.966907L818.295191,512.106727L817.870505,512.287671L816.797056,512.378143L816.367408,512.328795L814.804968,512.287671L811.322844,512.559087L809.365083,512.600211L806.826614,513.003222L804.520555,513.504930L803.274884,513.595402L802.733803,513.455581L801.969141,513.455581L800.721542,513.776345L799.417387,514.269828L797.671630,515.084075L796.702723,515.265018L795.833399,515.306142L795.322412,515.215670L795.086980,515.125198L794.672437,515.034727L794.023674,514.944255L793.575898,514.944255L791.921856,515.265018L791.261737,515.355490L790.597867,515.306142L789.947892,515.125198L788.761798,515.034727L787.270666,515.174547L785.696374,514.903131L784.453841,514.853783L784.062505,514.812659L782.086840,514.171132L778.773047,513.496705L777.663452,513.085469L771.635076,510.461782L770.913920,509.968298L769.750185,508.973104L767.160467,506.571479L765.854134,505.214395L764.389130,503.182878L763.269185,500.962190L763.095529,500.197286L762.701431,499.432381L762.397149,497.935469L762.315116,496.808672L762.542957,495.813472L762.954733,495.180162L763.318162,494.678449L763.793143,494.135611L765.421479,492.778517L768.661234,490.204148L770.163635,489.077346L770.304558,488.937524L770.281608,488.624980L770.079424,488.444034L769.407473,488.304211L768.817108,487.942319L768.328132,487.810721L767.988173,487.629775L767.737641,487.580426L767.306058,487.761372L767.073383,488.394685L766.880964,488.805926L766.245001,489.299417L760.154957,492.375501L757.217746,493.732596L752.582839,496.035541L750.054369,497.236362L746.469723,498.930669L743.680326,500.147937L741.021815,501.365204L735.895868,503.898433L730.821289,506.291837L728.640770,507.426853L727.313639,507.607797L726.694727,507.829865L725.772099,508.241102L725.176268,508.644115L724.457891,508.874408L723.716310,509.055352L722.788608,509.367892L722.345785,509.598184L721.683602,510.050545L721.218782,510.321961L716.793339,511.942233L714.886690,512.575536L714.316123,512.666008L712.861369,512.575536L712.649144,512.534413L712.725652,512.213649L713.083872,512.213649L713.556788,512.032705L714.170749,511.580345L714.366904,511.308929L714.518229,510.634501L714.489238,509.869601L714.323431,509.458364L714.162451,509.409016L714.195812,509.186948L714.579298,508.874408L715.062373,508.422047L715.596815,507.829865L716.118078,507.517325L716.836580,507.155436L717.271310,506.834671L718.015079,506.160241L718.781804,505.798352L719.191390,505.658531L719.669256,505.707880L720.093951,505.526935L720.469218,505.255518L720.789375,504.984101L721.310514,504.803157L722.563074,504.712684L723.095453,504.482391L724.368457,503.717488L726.819838,502.088984L728.535668,501.093786L728.748016,501.003314L729.146361,500.912841L730.281465,500.279533L733.855851,498.519429L734.589337,498.248011L735.967834,497.927245L738.945431,496.216487L741.811352,494.678449L743.478837,493.814844L751.211958,490.204148L752.034998,489.932729L754.354510,488.888175L755.929421,488.032792L756.918533,487.440603L757.235544,487.309006L757.741573,487.169184L758.156230,487.128059L758.483152,486.988237L759.618386,486.223326L761.505239,485.137646L762.990470,484.413859L767.250000,482.513916L768.494585,482.201371L768.896080,481.971075L769.279443,481.790128L769.652767,481.749004L770.220052,481.929951L770.859835,482.382318L771.076870,482.785337L771.020148,483.558474L771.140741,483.961492L771.383179,483.920368L771.539213,483.739421L771.887669,483.147231L772.254974,482.653739L772.551933,482.332969L772.685021,481.839477L773.173458,480.753794L773.566988,480.301426L774.016832,479.939531L774.456637,479.717460L776.494171,479.084144L777.171343,478.722249L777.353601,478.582426L777.795482,477.998459L778.462902,477.044372L778.833363,476.411055L779.515895,475.415843L779.663968,475.012823L779.677875,474.881224L779.707379,474.650927L779.566874,473.927136L779.326776,473.343167L778.286915,470.398647L778.120064,469.765328L777.985255,468.951060L777.985067,468.276616L777.933994,467.684421L777.775237,467.141575L777.851897,466.689203L778.066463,466.105232L778.281967,465.874934L779.171494,465.422562L779.531925,464.929065L779.495967,464.295744L779.248235,462.757677L778.785492,462.667203L778.598297,462.576728L778.537188,462.124355L778.705628,461.178484L778.460481,460.495812L778.499239,459.640415L778.020906,458.373768L777.939283,456.514922L777.937174,454.795898L777.771078,453.035748L777.538361,451.588146L777.434845,450.107643L777.400459,449.638817L777.615046,449.054841L777.576873,448.915015L777.439238,448.783415L777.170580,448.783415L776.782284,448.734065L776.390829,448.824540L775.925993,449.095966L775.416665,449.507217L775.365148,449.778643L775.404244,450.272144L775.196821,450.592919L774.544794,450.773870L774.276136,450.773870L773.652565,450.502444L773.368796,450.543569L773.176621,450.691620L772.729782,451.045295L772.228268,451.810222L771.957513,452.172122L770.901749,453.076873L770.352153,453.710198L769.983297,454.845248L769.804523,456.194147L770.080220,458.143469L770.024521,459.138691L769.748253,460.265513L769.753050,460.627411L769.840512,460.989310L770.139124,461.170259L770.389650,461.219609L770.568622,461.351209L770.594395,462.255955L770.683368,463.251175L770.292668,464.295744L770.330712,464.567167L770.724748,465.332087L770.926481,466.376655L770.921475,468.358865L771.033662,469.403431L771.058889,471.303389L771.161339,471.755759L771.371475,472.158780L771.439612,472.479552L771.248121,473.244468L770.744819,474.108084L770.294841,474.601578L769.788681,474.873000L768.816623,475.193771L768.197839,475.284245L767.280436,475.193771L766.925374,475.053947L766.672249,474.149208L766.692723,473.474766L766.953722,472.520676L766.866382,472.027181L766.741296,470.530246L766.493552,468.992185L766.398778,465.200488L766.383223,463.555498L766.383758,463.029101L765.869904,458.184594L765.588499,457.600620L765.281802,457.329195L764.543516,457.238721L763.476970,457.329195L762.597616,457.510145L762.136783,457.658195L761.628574,457.822695L760.690818,458.275069L759.954167,458.686317L759.021070,459.632190L758.640268,460.668536L758.581413,461.803582L758.898317,466.434230L759.260283,470.398647L759.557395,474.239682L759.924759,478.039584L759.733403,478.672900L759.503866,479.166393L759.240015,479.528288L758.879722,479.890182L757.807940,480.482373L757.215379,480.613971L756.019142,480.794918L755.724258,480.753794L755.548431,480.482373L755.351482,479.799709L755.277589,478.763374L755.394927,477.225320L755.392628,475.637915L755.328786,474.461754L755.057968,472.742749L754.771186,468.498689L754.754296,468.169692L754.595769,465.282738L754.764664,463.473248L754.649476,462.436904L754.394155,462.025656L753.900262,461.663757L753.332992,461.482808L752.900339,461.441683L752.299689,461.482808L751.177272,461.894056L749.070701,462.658978L747.598330,463.835146L747.390910,464.155920L747.143089,464.830366L747.084104,466.097007L747.492939,471.377413L747.858007,476.139634L748.550970,483.328178L748.440950,484.002616L748.190134,484.685279L748.018989,484.907350L746.799265,485.770960L745.267884,486.132853L744.350346,486.173977L744.230831,485.993031L744.158462,485.590013L744.287028,484.002616L743.928740,479.709235L743.814378,476.945674L743.591277,474.009385L743.143933,470.596045L743.078112,470.119000L743.031938,467.676196L742.740890,462.206605L742.884188,461.441683L742.968811,461.211384L743.377339,460.849486L743.916752,460.487587L744.733401,460.158588L745.634892,459.804914L745.712002,459.763789L748.337187,458.768567L749.235656,458.423118L749.895063,458.184594L751.874618,457.427895L752.536203,457.164696L754.475270,456.424447L755.812572,455.972072L757.584622,455.198923L760.445356,454.162573L761.165563,453.833573L762.894593,453.027523L764.216920,452.484672L764.824593,452.311947L767.176921,452.040522L767.716198,451.810222L768.043261,451.538796L768.388733,450.954820L768.715796,450.683395L769.132412,450.411969L769.459475,450.140543L769.723344,449.778643L770.347385,449.186441L771.091065,448.643589L772.226339,447.878662L776.148106,445.435826L777.874179,444.169169L778.045337,443.947093L778.103746,443.675666L778.032467,443.494715L773.540172,443.947093L771.477940,443.897742L770.852410,443.856617L768.676233,443.667441L766.012438,443.305539L763.851654,442.812036L763.444521,442.663985L761.745417,442.038880L760.571818,441.183474L758.115043,439.283484L756.939696,438.057947L756.338782,436.750160L756.121245,435.261419L756.147059,434.085231L756.456502,432.999518L756.403366,432.769215L755.690261,432.497786L755.375502,432.135882L755.296291,431.732852L755.339739,431.370947L755.334824,431.140644L755.128947,430.819864L755.023376,430.507310L755.066825,430.145405L755.020723,429.783500L754.841764,429.651898L754.172112,429.018564L753.451447,427.793021L753.251559,427.118560L753.346544,426.485225L753.612407,425.893015L753.868214,425.440633L754.132101,425.078727L754.231855,424.807297L754.096206,424.445391L754.050108,424.083485L754.589313,422.372654L754.561354,421.961396L754.467039,421.599489L754.152436,421.105980L753.386212,420.604245L752.723611,419.839305L749.121764,416.763091L748.547136,415.496413L748.355743,414.180383L748.560717,413.004180L748.783283,412.642271L749.741637,411.515419L749.849476,411.334464L749.818355,411.063033L749.609172,411.013681L749.299338,410.882078L748.924588,410.289863L748.770663,410.108908L748.300017,409.796350L747.809502,409.163009L747.607358,408.982054L747.267444,408.801099L746.914701,408.167758L746.878982,407.402812L746.302095,406.629641L746.296308,406.045650L746.243187,405.815343L745.603658,405.231352L745.645554,404.367702L745.926713,403.602754L746.808776,402.196237L747.514651,401.250334L747.662638,400.978900L747.690994,400.658115L747.586633,400.436033L747.432713,400.255078L746.638164,400.074122L746.029450,400.024770L745.671402,399.893166L745.341711,399.440777L745.194299,398.848558L745.204517,398.577124L745.122009,398.445520L744.954160,398.396168L744.383755,398.355042L744.061987,398.124735L743.526984,397.631218L742.980196,396.907395L742.699760,396.677087L740.889205,396.093092L740.161173,395.731180L739.808298,395.229438L738.893093,394.777047L738.497050,394.374008L738.331350,393.962744L738.620446,393.419875L738.873105,393.107314L738.972878,392.835879L738.640891,392.877006L738.297808,392.835879L738.193296,392.745401L738.199997,392.539769L738.203675,392.342361L738.157450,392.112053L737.868945,391.791267L737.321733,391.799492L737.086184,391.840618L736.088915,392.342361L735.690568,392.432840L735.133413,392.112053L734.703959,391.931097L734.289467,391.840618L733.338859,391.840618L732.781860,391.388227L732.139893,391.429353L731.838141,391.388227L731.539568,391.207270L730.207297,389.940573L730.013394,389.718490L729.625116,389.669138L728.991220,389.800743L728.029360,389.850095L726.876620,389.669138L726.334586,389.307225L725.905135,389.126268L725.531975,389.035789L724.634923,388.534045L724.116238,388.089878L724.057765,388.024076L723.521097,387.497655L723.269722,387.094615L723.109530,386.049999L723.005021,385.959520L722.575572,385.778563L722.350411,385.416648L722.360799,385.013607L722.322651,384.873777L721.762481,384.561214L721.626871,384.199299L721.550734,383.788033L721.535368,382.611809L721.676234,381.123021L721.633521,380.489669L721.512873,380.218233L721.360146,380.127754L721.157859,380.078402L720.983645,380.308712L720.766024,382.249894L720.581580,382.751640L720.229291,383.204034L719.722933,383.607075L718.531437,384.149947L717.690229,384.470735L716.560365,384.602341L715.001212,384.421383L714.459186,384.059469L714.282407,383.565948L714.352111,383.245160L714.986225,381.164148L715.114543,380.440317L714.987007,380.168881L714.572520,380.078402L713.205266,380.349838L712.422508,380.399190L712.008021,380.308712L711.581761,379.987923L711.292751,379.387472L711.149758,379.083133L710.978889,379.042007L709.393370,378.951528L708.363292,378.811697L707.177302,378.721218L706.195766,378.318175L705.592576,377.635470L705.155227,377.232427L704.588016,377.051469L704.274335,376.911637L703.642768,376.549721L703.164090,376.146678L702.610304,375.554451L702.377250,374.970449L702.053117,373.884699L701.979165,373.111512L701.989568,372.708468L702.345220,371.984634L702.582777,371.713196L702.884852,371.491110L703.520757,371.129193L704.004954,370.898882L704.607760,370.495837L704.707550,370.224399L704.657438,368.636895L704.155746,368.052891L703.504356,367.370182L703.178066,366.646345L703.185773,365.651069L703.610307,364.252747L703.661882,363.981307L703.055528,363.438429L702.383824,363.166990L700.103430,362.755718L697.787759,362.665238L697.107991,362.303319L696.486688,361.669960L696.011218,361.127080L695.313975,359.950841L693.785764,358.823954L693.067023,357.968506L692.623315,356.833392L692.519333,354.661868L692.580842,353.033223L692.461240,351.634890L691.915098,348.829995L691.578279,347.291825L691.529753,346.206058L692.067781,343.993392L692.168288,342.858269L692.091368,342.093294L691.652393,341.320094L691.460720,340.736080L691.401777,340.053360L691.445306,339.691436L691.284704,339.378865L690.724408,339.197903L689.944858,339.107422L689.377673,338.926460L688.854019,338.383573L688.432377,337.207318L688.458652,335.899454L688.944961,334.089828L689.741073,332.411810L690.216404,331.737312L692.226164,330.692662L692.415524,330.421218L693.991456,327.353069L694.641030,326.448252L695.172466,325.995843L695.544125,325.584563L696.364916,324.457653L696.922559,324.046372L697.760764,323.733798L698.591904,323.552834L699.463203,323.281389L699.939356,322.960589L700.356210,322.557533L700.997606,321.019340L701.540537,319.711463L702.032380,318.617452L702.400029,317.992302L703.109094,317.038126L703.704865,316.766680L704.632439,316.585715L705.553304,316.273140L706.453025,315.680892L707.583802,314.553976L708.522579,313.106258L708.903350,312.333044L709.236267,311.296608L709.209354,309.890015L709.382975,309.174380L709.431951,308.310682L709.168921,307.677303L708.197573,307.134407L706.886555,306.278933L706.427087,306.048613L706.038032,305.645553L705.910546,305.374105L705.919154,303.515093L706.297872,301.754787L706.114118,301.392855L705.509020,300.940440L705.066909,300.307058L705.064293,299.714805L704.520312,299.583193L704.077240,299.945126L703.801713,299.945126L703.494955,299.805288L703.482427,299.221260L703.242221,298.900456L702.817668,298.949811L702.311437,299.221260L701.779983,299.673676L700.914219,299.986254L700.230245,300.216575L699.365829,300.488024L698.504623,300.619636L696.408472,300.307058L695.741299,300.529153L694.999890,300.578507L693.813959,300.488024L692.840397,300.307058L692.477369,300.076737L692.070966,300.076737L691.173458,300.307058L690.326212,300.307058L689.237880,300.307058L688.249193,300.167220L687.458023,299.171906L687.387977,299.081423L687.095086,298.267074L687.064228,297.864012L687.404073,296.827568L688.161585,295.741768L688.980020,295.108384L689.129047,295.059029L689.501194,294.927417L690.950919,294.787579L694.649860,294.787579L695.273471,294.927417L695.488262,295.560801L695.794832,295.832251L696.305720,295.922734L696.607635,295.832251L697.318185,295.379834L698.159424,295.059029L698.867927,294.836934L699.926190,294.787579L701.316806,294.433871L701.669963,294.335162L703.024695,293.479682L703.582542,292.936781L704.117398,292.212913L704.283598,291.892108L704.679764,290.608886L704.774896,290.312758L704.796456,288.774535L704.978584,287.548892L705.103834,286.964860L705.047755,286.742763L704.920093,286.602924L704.666583,286.561795L704.234955,286.742763L703.682554,286.783892L702.399225,286.471312L699.060721,286.109376L694.698021,286.060021L692.783121,286.060021L691.185074,286.060021L688.501216,286.109376L684.160504,287.236311L683.559886,287.277440L683.063940,287.277440L682.011136,286.825021L681.142290,285.385505L680.169405,283.255019L680.138561,282.851954L680.471362,281.947113L681.105890,281.083401L681.530824,280.770820L682.533008,280.499367L686.152675,280.227915L692.193359,280.359528L697.361765,280.540497L699.025473,280.680336L701.658865,280.992917L702.382117,280.992917L704.212223,280.680336L705.569181,280.680336L707.318573,280.811949L708.023483,280.992917L708.938711,281.313725L709.439112,281.807274L710.015910,283.666310L710.046436,283.995343L710.150440,285.023569L710.086294,285.928408L710.078417,286.923731L710.182891,288.231633L710.600825,289.810985L710.524171,290.131790L710.367883,290.444370L709.917919,290.806305L709.434864,291.127110L709.189031,291.439690L709.104326,291.670012L709.153520,291.892108L709.932255,292.846298L710.847310,293.298715L711.389242,293.660649L712.106871,294.294033L713.397296,295.692413L713.701639,296.325796L713.943889,296.416280L714.275870,296.375151L714.723601,296.375151L715.209082,296.778213L715.855690,297.099017L719.405631,298.365783L721.468507,298.768844L722.465065,299.130777L722.779695,299.492710L722.922305,299.723031L723.280490,299.723031L723.768384,299.632547L724.126386,299.764159L724.333138,300.307058L724.535227,300.488024L724.829087,300.307058L725.062195,299.542064L724.959932,299.089648L724.638231,298.859328L724.154239,298.620781L723.764494,298.406912L721.494686,297.592563L719.568126,296.687730L718.637142,295.922734L718.164969,295.239996L717.922706,293.932100L718.248391,291.941463L718.075717,290.444370L717.843756,288.865019L717.365974,286.380828L717.278215,284.521795L716.262965,279.191459L715.736988,277.924680L714.807833,276.518060L713.989424,275.934024L712.817021,275.432247L711.533514,275.251278L709.322435,275.251278L705.321611,275.341762L703.990079,275.029180L701.641097,273.943366L699.995734,272.742389L698.692721,271.771736L696.145929,269.369779L695.667370,268.966711L695.506627,268.785741L694.822135,268.193477L694.148140,267.198144L693.356029,265.437801L692.472122,264.039397L691.717350,262.945350L691.449303,262.550506L690.955374,261.777269L690.559800,261.448232L690.196478,261.143873L688.988457,260.008695L688.145703,258.741901L687.954143,258.157859L687.726742,257.072035L687.420201,256.800579L686.632851,256.487993L686.027616,256.167181L685.636351,256.126051L685.027893,255.945080L683.922212,254.044884L683.125427,253.140028L682.966962,252.597114L683.154013,251.601772L683.930981,248.253798L684.478490,246.896510L685.484240,245.136146L686.579338,243.507396L687.221966,242.734151L687.702021,242.421563L688.249602,242.150104L689.170085,242.100748L691.534021,242.059618L696.536978,241.697673L698.351947,241.426214L699.254274,241.426214L700.585963,241.607187L701.621235,241.376858L702.912685,240.562482L703.437496,239.978434L703.504069,239.797461L703.424641,239.657619L703.059578,239.657619L700.346895,240.291023L699.955634,240.249893L700.114028,239.706975L700.142502,239.386160L700.224207,239.164057L700.454738,239.024214L700.700198,238.974858L702.448996,238.621139L703.703732,238.168707L703.893138,237.897247L703.911496,237.716275L703.783853,237.576432L703.492252,237.395459L701.406577,237.897247L699.539963,238.440166L698.276983,238.933728L697.658217,239.024214L696.502391,238.983084L696.326532,238.843242L696.038362,238.390810L694.882536,238.349680L694.514940,237.757405L694.157170,237.494172L693.783864,237.535302L693.564399,237.757405L693.431248,238.119350L693.458827,238.662269L693.586268,238.933728L693.501536,239.164057L693.255874,239.345030L692.801267,239.345030L692.607251,239.254543L692.134285,239.435516L691.494883,240.068920L690.165327,240.743454L689.193198,241.064269L687.240266,241.467344L678.186043,242.281720L676.575406,242.372206L676.306976,242.240590L676.342542,241.788159L676.583596,241.245242L676.645360,240.833941L676.658163,240.068920L677.113874,239.073571L678.004661,237.625788L679.477494,236.449464L679.950461,236.268491L680.338694,236.317847L681.021551,236.539951L681.655245,236.539951L682.274011,236.449464L683.040858,236.087518L684.588308,234.820706L685.647865,233.644380L686.611215,232.879357L688.063406,232.245950L688.879416,232.106107L689.144815,232.245950L689.492667,232.517410L689.768185,232.517410L690.794251,231.563186L690.988469,231.522056L691.331511,231.563186L694.949145,234.236657L696.335976,235.503469L696.358944,235.684442L696.307296,235.955901L696.111001,236.227361L696.140857,236.408334L696.304813,236.449464L697.140765,236.498820L697.812355,236.770280L698.438958,236.901897L698.927055,236.679793L699.068246,236.408334L699.055394,236.087518L691.727748,230.617188L691.492406,230.526701L690.948053,230.658318L687.874907,231.653673L687.085094,231.834647L686.906007,231.834647L686.349216,231.382213L683.193724,228.313886L675.063366,220.120686L673.020377,217.323802L671.978973,214.650305L671.493379,214.378842L669.367548,212.799420L668.428312,211.664210L667.248653,209.591215L666.488544,207.370146L666.169429,206.646241L665.441661,205.198432L664.884908,204.745991L664.028758,203.890466L663.582235,202.895095L663.491358,202.393296L663.489094,201.669390L663.417213,201.134686L662.874053,200.270933L662.498920,199.324917L662.269362,198.601009L662.100624,198.329544L661.495449,198.008721L661.181140,197.515147L660.588846,196.429284L660.366924,195.516171L660.212248,194.027220L660.039161,193.262179L659.515504,192.850866L658.761522,192.447780L657.869566,192.176313L657.261371,191.863715L656.819446,191.230293L656.311929,189.914090L656.047069,188.425135L655.619607,182.230737L655.921892,178.339689L655.826822,176.258427L655.401090,174.720101L654.438340,173.050153L653.851703,171.462466L653.678658,170.697415L653.023443,168.435163L652.833061,166.987321L652.330393,165.901438L651.280116,165.087026L650.340200,164.683932L649.872815,164.363103L648.987087,162.240692L648.504793,161.829372L648.384523,161.426278L648.133162,159.657599L647.834720,159.476618L647.320637,159.525977L646.791417,159.616467L646.693854,159.525977L646.387389,159.254505L645.925842,158.300240L645.493507,158.127485L643.561540,157.856013L641.507800,156.811257L639.333801,155.363404L638.850842,154.598345L638.517996,152.920151L638.702017,152.064600L638.664179,151.793127L638.130196,151.653277L638.025748,151.562786L637.976632,151.340672L638.094946,150.888216L638.090415,150.526252L637.969925,150.254779L637.638183,150.164288L637.288043,150.254779L636.676401,150.213647L636.482413,150.123156L636.373204,149.802323L636.268756,149.711832L636.071509,149.761191L635.777603,149.942173L635.329671,150.073797L634.752468,150.032664L634.598674,149.851682L634.512624,149.580209L634.366850,149.489718L634.124417,149.530850L633.912030,149.621341L633.732950,149.621341L633.612694,149.218244L633.470179,148.987903L633.240389,148.938544L632.884957,148.856280L632.445276,148.946771L632.068717,149.127753L631.550776,149.168886L630.502714,149.078394L628.935811,148.806921L627.589314,148.535447L624.625537,147.268570L622.660715,145.870069L621.255830,144.784173L620.149614,143.747635L619.075216,142.250412L616.688557,137.956173L616.242449,136.829139L615.676522,135.784370L614.749645,133.661923L612.498217,130.815537L611.651165,129.318303L610.381958,127.508458L609.404533,125.747971L608.739442,123.625511L608.283671,119.100880L608.170504,117.200531L608.129709,111.548832L608.228964,109.557981L608.352357,108.249942L608.301802,107.657622L607.986396,106.662195L606.950748,104.087244L606.389303,100.467498L606.346273,100.228923L605.992953,98.345007L605.875778,97.933671L605.118636,96.304781L604.905615,94.675888L604.885367,94.001296L604.574474,93.367837L603.868837,92.964727L602.111906,91.245338L600.902378,89.386091L599.195399,86.539631L597.890081,83.462815L597.660198,82.796445L596.827219,80.344860L595.837535,78.131849L595.140612,75.236008L593.904706,71.484571L593.389852,69.946150L591.994868,67.000935L591.174157,64.927763L590.710335,61.530059L590.447967,60.764958L589.963781,59.629646L589.656327,57.284977L589.357213,55.516189L589.248775,53.977754L589.139056,53.303146L588.134636,50.999603L588.128191,49.913646L588.052390,49.502298L587.730279,48.918184L586.887098,47.149388L586.152203,45.479314L585.251106,42.764411L584.980512,42.040436L584.633082,41.637313L584.245172,41.456320L583.987013,41.184829L583.992760,40.682982L584.059681,40.370356L583.988590,40.189362L583.421344,40.140000L582.902841,39.827375L581.983467,39.144533L581.834961,38.930631L581.628045,38.650913L581.031776,37.202960L580.525315,35.623373L580.010330,34.216552L579.820059,31.049143L579.639559,30.061898L579.287447,29.428415L578.480774,28.794932L577.638568,28.276628L576.953127,27.931091L575.886970,27.889956L574.127117,27.750096L572.452665,27.527966L571.489530,27.207110L570.825301,26.803984L569.825806,26.581853L568.860478,26.491356L566.282399,25.899007L565.580714,25.709784L564.805471,25.495881L563.182535,25.133890L562.242276,24.994029L560.969759,24.409907L559.996712,24.097278L558.604361,23.595427L557.056085,23.142937L555.679160,22.468316L555.028705,21.653835L554.345450,19.843875L554.047090,19.662878L553.226399,19.572380L552.334629,19.300886L551.703747,18.807260L551.334034,18.576901L550.158784,18.214909L549.169491,17.852916L548.002232,17.581421L547.062254,17.309927L546.371869,16.865663L545.944025,15.820819L545.510400,15.277830L545.185871,15.055697L544.122752,15.006335L542.658243,15.055697L541.326795,14.874701L538.853439,14.241212L537.024184,13.336228L536.217551,12.702739L535.494127,10.983268L535.156933,10.440277L534.901281,10.218144L534.850591,10.168781L534.142859,9.996011L533.388846,9.724515L532.850546,9.222659L532.450269,8.589168L532.164876,7.774680L532.125225,6.779194L532.342071,5.199578L533.182653,2.805471L533.408844,2.303613L533.467811,1.900481L532.871420,0.584131L532.509169,0.090499L531.819348,0.000000Z "/></g><g fill="#000" font-family="Arial" font-size="12px" id="mylayer-label" stroke="none"><text text-anchor="middle" y="471.026646572"><tspan dy="0" x="480.235011365"><![CDATA[N]]></tspan></text></g></svg>