<?xml version="1.0" encoding="utf-8"?><!DOCTYPE svg  PUBLIC '-//W3C//DTD SVG 1.1//EN'  'http://www.w3.org/Graphics/SVG/1.1/DTD/svg11.dtd'><svg enable_background="new 0 0 1000 1001" height="1001px" pretty_print="False" style="stroke-linejoin: round; stroke:#000; fill: none;" version="1.1" viewBox="0 0 1000 1001" width="1000px" xmlns="http://www.w3.org/2000/svg" xmlns:xlink="http://www.w3.org/1999/xlink"><defs><style type="text/css"><![CDATA[path { fill-rule: evenodd; }]]></style></defs><metadata><views><view h="1001" padding="0" w="1000"><proj flip="auto" id="robinson" lon0="-116.986637372"/><bbox h="1.48" w="1.51" x="-1648.13" y="-551.57"/></view></views></metadata><g class="" id="mylayer"><path d="M1000.000000,8.115193L986.614708,10.684222L821.095081,44.092508L830.480869,11.284774L807.748741,11.685142L793.640447,12.063267L781.751027,43.358509L780.594223,47.651291L778.731461,53.723453L760.830487,56.937467L750.372680,58.961516L744.121557,60.162599L736.304511,65.267197L735.181989,66.012312L728.064151,70.660935L697.015592,90.990228L685.572737,98.474663L678.866134,102.867450L667.120907,127.633745L661.427851,134.906788L661.235714,135.151446L651.419646,149.185918L649.178740,152.533274L627.034094,181.035683L625.250518,183.181971L607.606389,204.555795L559.801553,256.199276L546.838512,267.108341L514.932518,294.275181L508.808833,299.479442L493.454086,316.993713L484.034582,328.258390L467.668055,348.930571L445.644940,376.730472L433.898375,391.275273L424.861328,401.750153L392.643388,439.079115L391.619479,441.936867L384.512768,461.596351L372.150480,495.844454L367.658720,508.287090L366.616973,513.679994L366.520872,513.969098L363.141379,524.387937L357.067993,543.090604L350.275662,556.333621L344.852080,566.874619L341.122610,574.179909L329.914690,596.073429L326.714909,602.311217L326.463668,602.667027L326.188317,603.345288L318.611854,603.156264L312.812201,603.656621L304.932900,604.323763L295.599011,605.724761L289.778484,607.025687L283.691089,607.981923L270.964724,610.227963L270.497059,610.305797L256.908206,612.840930L254.490715,613.319047L251.101065,614.130734L249.270822,614.664445L247.710731,615.098086L244.319714,616.221104L240.928015,617.499787L237.554327,618.934136L234.198650,620.524149L230.878440,622.247589L227.838627,623.971028L226.036515,625.094042L224.387105,626.105867L218.434720,630.075329L216.736662,631.220579L211.676166,634.589613L209.976873,635.712624L208.810454,636.502067L205.291267,638.848156L204.123610,639.615360L201.551142,641.338788L195.341708,645.475013L193.826877,646.553544L193.394343,646.842635L191.238539,648.243612L191.513414,648.899625L192.328699,650.867663L192.598285,651.512557L192.727786,651.823884L192.796142,653.302691L192.688043,655.137300L192.400224,656.849601L191.933248,658.617495L183.807812,681.032962L181.085153,688.526984L179.707562,693.741655L176.979632,704.070902L175.975629,705.927716L171.714034,717.746813L171.760360,718.158201L171.908685,719.392366L171.945666,719.803754L170.817788,721.282526L172.317759,722.116420L173.614332,722.739061L173.695924,724.284543L177.803954,726.630562L179.546298,727.620114L180.529582,729.076646L181.324576,729.588099L188.828463,734.413549L200.030519,741.607234L205.265400,744.965022L205.546398,745.142918L219.445918,741.140256L228.038003,738.671946L230.906612,736.648374L233.878366,734.546971L256.281136,718.703013L261.751997,714.822620L268.606539,713.710758L275.891356,712.521066L281.292433,711.575983L282.272931,711.475915L284.046990,711.275780L287.508177,710.908865L288.124478,710.730967L292.449500,709.430088L316.214098,707.261953L318.826879,707.017343L322.713371,706.483649L340.259532,698.322553L342.227524,697.410821L344.521082,696.554683L347.186683,695.498408L344.487412,702.647714L343.403241,705.494089L341.359250,711.153475L338.225569,719.725923L336.605334,724.017697L335.467597,727.242083L334.785599,729.087764L331.883099,737.026404L330.293495,741.362627L329.701046,742.552307L329.104687,742.752440L321.789484,745.154037L320.802719,745.476473L311.698436,748.478465L305.200183,750.613214L301.873195,751.458218L294.553791,752.614539L287.000480,753.181581L279.152394,753.993228L260.925685,755.660998L254.904014,756.205802L209.398325,751.936312L202.420355,751.258085L199.483919,750.980123L192.452091,750.090645L191.286539,750.057290L187.769948,749.934986L186.603154,749.879394L186.210584,749.879394L185.026339,749.846039L184.632527,749.823802L181.738125,749.712617L173.026881,749.379062L170.127186,749.256759L169.294397,749.156693L171.413354,744.086661L174.349652,737.081997L174.123567,736.548307L173.335361,736.325937L172.723176,736.159159L162.019505,727.342150L158.992260,729.287898L153.611163,727.075305L152.802221,727.653470L151.864905,728.276109L135.092038,739.494716L133.996744,740.217420L133.444881,740.628805L132.321805,741.607234L131.358869,742.607900L130.471623,743.708632L129.743275,744.809363L129.142974,745.943450L128.813350,745.898976L127.844740,745.709961L127.513874,745.643250L125.596590,745.287459L119.830101,744.208964L117.911578,743.830935L115.663433,743.408432L110.183896,742.363292L108.900307,742.140922L106.638766,741.729537L106.337183,741.685063L105.425900,741.518286L105.123076,741.451575L102.973369,741.118019L102.359288,741.084664L100.458478,740.940123L98.112415,740.940123L95.537316,741.106901L93.523942,741.373745L93.008294,741.429338L90.446520,741.918552L90.598343,740.117353L90.706755,738.794249L90.761823,737.771345L90.693639,736.214751L90.473348,734.947238L90.438191,734.735986L90.033780,733.435117L89.583654,734.413549L88.240149,737.304367L87.788787,738.260560L86.014202,737.949242L80.724115,736.948574L78.948291,736.615018L76.828205,736.225870L70.457365,735.036187L68.331988,734.635919L64.430463,733.979926L52.738061,731.978588L48.835304,731.300356L47.533035,731.077985L43.606295,730.388635L42.298733,730.155146L38.749628,736.737322L35.928713,741.963026L27.902238,756.828435L24.889414,762.632262L22.485592,764.611342L21.289563,765.789895L10.120894,776.685925L8.514137,778.375918L14.232478,784.279767L16.444824,786.570146L16.682819,786.814750L17.451319,787.604152L18.150664,788.326843L18.909819,789.116245L20.831569,790.973006L17.823608,793.430154L8.802563,800.768232L5.789326,803.214254L4.864788,803.981415L2.061892,806.260661L1.126765,807.005585L0.908328,807.194595L0.233079,807.739390L0.000000,807.917282L2.239246,807.928400L29.838671,807.883927L33.969845,807.294659L58.099100,833.522522L70.206218,846.675280L111.700714,891.747766L130.504341,912.182476L154.634549,938.398289L156.805013,940.677431L163.305879,947.492609L165.471092,949.760626L165.321679,950.761221L165.232653,951.339343L167.211878,951.628403L168.039459,951.717345L169.387555,952.918058L173.426566,956.509078L174.769377,957.698671L177.081108,960.077857L183.992384,967.204286L186.298868,969.572347L187.072171,970.939817L189.392101,975.042226L190.160119,976.398577L192.069868,978.110690L197.799155,983.247026L198.700128,984.058611L199.699584,984.959136L200.995736,986.148718L204.869566,989.706344L206.160433,990.884807L201.938248,981.634974L200.358395,978.144043L199.755827,976.821046L202.940316,966.048049L207.986587,948.982385L208.151115,945.091178L208.654454,933.006166L227.401927,932.194568L258.005319,930.860433L259.401470,926.179837L280.951278,925.501650L283.436748,925.401590L290.780553,938.064756L292.188401,936.919625L296.411953,933.484231L297.135349,932.883871L297.814508,932.327981L298.356905,931.916623L299.980050,930.693666L300.517150,930.271189L300.778227,930.093305L303.697114,928.058747L303.998380,927.847508L314.432748,920.576453L315.538745,919.798205L317.796179,917.885936L318.683138,917.118804L320.209374,915.751309L321.100938,914.483873L321.792506,913.483266L321.376152,908.235630L320.752031,900.453103L320.404094,898.585294L320.178247,896.228294L320.137502,894.004708L320.228945,892.470433L320.273723,891.603233L320.440895,890.169018L320.556742,889.568649L320.956050,888.190022L321.594949,886.666862L325.387464,886.622390L326.088513,886.622390L327.674079,882.731100L329.554979,878.106018L331.512369,875.093040L333.026449,872.758258L333.280049,872.446954L334.573287,870.923785L334.692837,873.803351L335.952356,875.426580L337.886356,875.993599L343.438367,876.404965L350.988843,876.949747L354.338613,877.094281L361.942040,877.416703L363.740707,876.738505L364.602789,876.193723L365.977693,875.293164L368.033612,873.369749L371.339044,868.811360L372.744639,865.876199L373.191677,864.931165L374.186621,861.840347L372.636045,859.194249L368.336825,857.370885L363.197384,856.981753L360.363946,857.293059L359.160342,857.415357L358.357037,856.259078L355.069116,858.382630L354.304564,859.249839L353.205927,858.827352L351.800694,858.271449L352.903519,855.603111L353.535933,854.046580L355.354767,851.311529L355.397068,849.732759L355.414164,848.787720L344.759587,848.476413L340.925049,848.354114L339.763823,848.565358L336.274847,849.187972L335.108324,849.388098L335.162222,849.265799L335.303973,848.876665L335.352574,848.743248L335.794031,847.531374L337.118413,843.895750L337.554581,842.672756L337.659885,842.383685L337.983898,841.494234L338.093252,841.194045L343.085273,841.371935L345.337944,841.371935L349.927408,841.371935L350.357379,841.371935L352.597440,835.479318L357.127382,835.334782L364.661813,835.179128L372.027994,835.023474L374.411519,835.023474L376.598754,835.023474L377.505385,833.355750L381.038919,833.277923L380.774431,834.645457L381.961211,834.723284L385.252339,834.489802L386.187364,834.411975L391.720572,834.489802L394.024055,835.479318L394.385792,835.512673L397.531117,835.679445L398.582037,835.334782L400.833741,834.567629L400.473287,835.557145L400.056135,836.702315L399.659542,837.714067L398.473823,840.738201L398.071940,841.738833L397.837351,842.305858L397.128292,843.995813L396.888408,844.551719L395.298713,849.454807L394.959469,850.488790L394.291360,853.990989L396.870272,854.224469L396.593337,859.449964L397.102519,860.361645L397.148949,860.439472L395.658755,865.197998L398.797879,865.253588L408.195309,865.398123L411.337234,865.420359L412.623106,865.431477L416.474174,865.431477L417.762847,865.409241L419.641645,865.409241L425.254047,865.398123L425.445041,865.387005L427.122249,865.375887L428.890066,861.317798L431.722360,854.824845L431.838142,853.223841L431.989103,851.166994L434.015398,848.632067L434.373677,848.187343L436.853716,841.994550L453.107238,842.305858L454.289131,838.881472L455.246150,836.613370L460.371552,824.338906L460.676241,823.605104L461.589066,821.381463L461.888462,820.636543L462.061058,820.214051L462.600348,818.913220L462.767648,818.479610L463.944058,815.455452L466.136886,815.388743L468.176109,815.333152L474.957734,815.088551L476.128223,811.875380L484.866884,814.443693L485.740214,814.432575L492.525576,814.254683L495.609179,814.154619L504.849394,813.832190L505.837692,813.787717L505.133634,816.233728L504.825206,816.900822L503.882786,818.846511L503.563766,819.491367L505.554070,819.313476L506.522427,819.246767L508.432657,819.057757L509.522721,816.244847L513.600272,817.034241L516.259545,817.534561L516.753709,817.845871L518.217509,818.779802L518.706377,819.079993L521.394669,820.347470L523.468721,818.913220L524.385953,818.268363L525.329978,817.601270L535.284355,818.012644L534.301171,820.480888L539.334640,821.314754L545.094080,822.259802L551.365471,823.749641L556.749814,825.005997L559.619430,825.673089L560.097382,825.695325L566.716398,825.717562L567.398738,825.717562L571.175310,825.973280L573.309894,826.117817L575.730801,826.117817L575.291702,828.786181L580.320463,828.786181L595.378705,828.786181L600.402169,828.775063L602.706863,828.786181L603.225005,828.775063L609.595705,828.786181L611.899150,828.775063L612.970022,828.786181L616.185438,828.786181L617.255062,828.775063L624.354838,828.786181L645.654169,828.819536L652.744599,828.830654L655.989305,828.852890L665.710331,828.852890L668.957838,828.841772L673.019794,828.852890L685.205665,828.886245L685.345872,828.886245L685.164912,829.408799L684.741008,830.598444L682.821468,835.946281L682.427725,836.591134L682.046130,837.202632L681.956105,837.347168L681.862031,837.502822L681.497881,838.092084L680.977675,838.981535L680.802924,839.281725L680.679258,839.492970L680.189156,839.504088L679.238911,842.139086L679.101550,842.439275L678.794736,843.050773L678.435288,843.806805L678.000463,844.718491L677.452271,845.941484L677.064184,846.853169L676.813458,847.464666L676.572079,848.076162L676.396731,848.532004L676.221384,848.987846L676.168750,849.132382L674.614030,853.401730L675.277682,853.401730L676.100237,853.401730L677.419826,849.855058L681.120224,850.833451L684.528363,851.767371L691.425056,851.822962L691.939152,851.822962L692.943353,851.811843L691.740904,855.113916L689.346948,861.662458L688.427938,864.186256L685.683109,871.724282L684.758836,874.236954L684.467357,875.037450L683.605071,877.405585L683.321693,878.183844L682.803517,879.606947L682.576816,880.229555L687.843689,880.140611L689.534300,880.118375L690.757545,880.096139L692.004489,880.162847L702.430411,879.896015L707.120253,879.851543L707.511012,878.572974L709.303115,873.625463L712.037265,866.065205L707.296659,866.120796L711.913528,853.724155L720.394422,830.409435L720.974671,828.841772L721.242851,828.208036L724.515900,828.152445L725.292573,827.585417L727.109018,827.474236L737.149303,826.751553L739.108152,826.762672L744.956658,826.796026L746.910209,826.796026L748.954431,826.829381L755.067156,826.907208L757.110130,826.918326L758.902280,826.873853L764.286830,826.718199L766.073683,826.662608L768.842633,826.784908L777.156332,827.107335L779.924034,827.207399L783.066870,827.329699L792.495382,827.696599L795.636970,827.796663L799.908611,827.796663L806.221977,827.785545L812.698293,827.763308L816.964636,827.752190L823.589256,827.707717L824.943341,827.685481L838.254913,827.707717L838.350630,829.909117L837.512828,833.544759L834.094130,841.316344L833.907145,842.728347L833.420853,846.297264L833.336861,846.964351L833.144589,848.365232L832.874792,851.545009L833.609676,852.478929L840.469623,861.184382L842.754125,864.075076L845.825891,867.832973L855.022678,879.106638L858.085221,882.864516L857.014305,883.931842L854.352583,886.544564L853.790963,887.111580L852.714752,888.167786L856.157072,888.212258L866.484034,888.345674L869.930402,888.379028L877.184216,888.301202L892.152656,888.112197L898.937850,888.012135L905.247583,887.934309L906.190410,887.912073L909.468650,879.651419L907.185668,874.881798L905.457948,871.257326L908.557765,860.072576L907.876605,857.270823L905.958594,853.501793L904.315796,848.643185L904.274426,844.751845L905.160659,840.982800L904.611863,837.458349L904.123762,836.591134L902.695310,834.045076L900.501990,830.031417L899.788878,825.495198L898.957508,823.260440L899.010850,821.881783L899.028531,821.448173L900.349333,820.002805L903.601595,818.746447L902.119029,812.575829L901.251656,808.951280L900.848623,807.850572L899.683176,804.659630L899.826480,804.548447L901.066990,803.503330L900.528362,801.902297L899.942355,800.123372L896.579478,789.927883L895.700529,787.259483L894.838489,787.804282L893.491997,788.627038L893.364885,788.693748L891.577091,785.903046L890.957272,784.935750L890.037981,780.632946L889.799205,779.543347L886.839775,771.449164L887.247305,767.969104L887.477065,765.901079L886.212265,763.933118L886.094778,763.588447L885.746368,762.543315L885.632931,762.187525L886.746854,759.052125L890.092757,749.634788L891.210786,746.488256L895.131954,735.825603L906.885830,703.815173L910.797049,693.130127L911.610591,691.050930L911.724008,690.739606L914.498391,683.534678L915.420085,681.133031L916.014288,679.809900L917.799716,675.807149L918.392683,674.461779L919.251175,671.848868L921.838865,663.976764L922.705499,661.341606L929.797923,642.183824L944.754202,601.755265L951.067711,584.687485L958.156911,565.518080L958.954614,563.483269L934.098054,563.650056L933.865637,563.672295L933.171198,563.705652L932.946887,563.705652L926.245249,563.783487L923.993118,563.705652L923.139791,563.739010L922.739141,563.761248L919.686288,563.905798L918.980021,563.894679L918.166891,563.894679L915.234630,563.939155L912.828575,563.950275L910.414413,563.983632L887.573839,564.183777L879.463471,563.972513L878.288648,563.939155L879.900145,559.569311L888.438907,536.118816L891.988461,526.356059L892.906698,523.965402L882.530231,520.151466L876.432902,517.905355L874.797653,515.981705L870.005908,510.410895L865.505092,514.091411L863.659173,513.335293L858.125482,511.055819L856.274279,510.288581L854.077270,509.521343L847.482542,507.152911L845.284303,506.363433L844.884337,506.230000L843.696600,505.796343L843.291342,505.651791L843.408909,505.329328L843.773773,504.328581L843.894156,503.972759L842.385375,503.983879L837.848449,503.994998L836.334377,503.994998L834.236790,504.006118L827.956192,504.006118L825.853313,504.006118L825.498160,504.006118L824.432702,504.006118L824.068203,504.006118L822.413938,504.006118L817.451144,504.006118L815.787533,504.006118L816.353880,502.427160L817.939420,498.001626L819.177502,497.912671L821.724935,497.923790L822.406050,496.055724L827.489140,481.756079L826.055139,481.767199L829.968846,470.803349L831.357349,470.814468L838.528050,451.355200L839.725511,448.097150L843.306164,438.278499L844.498394,435.009314L851.104072,417.306726L852.079868,414.682464L871.094798,364.164950L877.762369,346.450806L898.497217,288.081209L906.086460,266.719130L912.126987,249.704970L913.981459,244.367174L921.241469,223.449588L933.968332,188.631088L958.486449,121.595104L969.265081,91.868788L983.071813,54.390722L983.247667,53.934755L983.767503,52.511245L983.936852,52.021914L993.275711,26.398621L1000.000000,8.115193Z " data-aland="42035936" data-awater="758844" data-classfp="C1" data-funcstat="A" data-geoid="0670224" data-intptlat="+32.8549903" data-intptlon="-116.9860556" data-lsad="25" data-mtfcc="G4110" data-name="Santee" data-namelsad="Santee city" data-pcicbsa="N" data-pcinecta="N" data-placefp="70224" data-placens="02411830" data-statefp="06"/></g><g fill="#000" font-family="Arial" font-size="12px" id="mylayer-label" stroke="none"><text text-anchor="middle" y="535.099766952"><tspan dy="0" x="595.40869481"><![CDATA[Santee]]></tspan></text></g></svg>