<?xml version="1.0" encoding="utf-8"?><!DOCTYPE svg  PUBLIC '-//W3C//DTD SVG 1.1//EN'  'http://www.w3.org/Graphics/SVG/1.1/DTD/svg11.dtd'><svg enable_background="new 0 0 1000 1001" height="1001px" pretty_print="False" style="stroke-linejoin: round; stroke:#000; fill: none;" version="1.1" viewBox="0 0 1000 1001" width="1000px" xmlns="http://www.w3.org/2000/svg" xmlns:xlink="http://www.w3.org/1999/xlink"><defs><style type="text/css"><![CDATA[path { fill-rule: evenodd; }]]></style></defs><metadata><views><view h="1001" padding="0" w="1000"><proj flip="auto" id="robinson" lon0="-122.507961557"/><bbox h="0.63" w="0.41" x="-1689.69" y="-636.54"/></view></views></metadata><g class="" id="mylayer"><path d="M655.641362,0.000000L647.586035,22.793948L640.303424,43.314007L606.666703,33.405894L590.637223,28.668415L587.314929,27.639706L577.319301,24.472366L573.987430,23.416587L573.447856,24.120440L571.797640,26.204928L571.248481,26.881710L569.492819,29.101556L564.225850,35.761099L562.460613,37.953878L560.143487,40.877584L553.405770,48.890714L551.121528,51.597855L548.731842,54.440355L539.612748,65.999873L533.796780,73.336256L517.674669,94.262605L506.584008,110.153695L504.647711,112.915015L497.132733,125.476330L492.440107,134.437116L478.296815,161.319572L476.018379,165.651100L473.529080,170.253352L472.321404,172.473264L469.410465,178.483273L468.386296,180.540755L467.601726,181.975579L465.172700,186.252981L464.378546,187.660734L457.638009,200.736616L437.351351,239.964472L430.601682,253.013421L425.255191,253.446582L414.563942,273.182510L411.891559,278.380463L408.685269,284.607185L399.081605,303.206181L395.865828,309.405862L372.774122,341.081210L369.531030,346.956062L364.890016,360.140664L323.120145,441.008805L305.897421,474.336507L299.175852,487.521452L296.964094,491.853269L290.638935,502.385016L283.485612,513.918522L273.623304,525.289612L271.972288,527.184796L266.644489,534.224058L264.027065,537.472952L263.881990,537.743693L263.437170,538.528842L263.282499,538.772510L263.125109,539.070325L262.643341,539.936697L262.520180,540.207439L262.406617,540.505254L262.102874,541.317478L261.979714,541.588220L260.030155,550.739289L259.140652,559.727930L258.567674,565.467673L240.445536,609.355269L236.728582,609.626015L234.358638,605.104572L231.807631,606.377073L212.377170,615.853158L185.912745,543.239743L179.866780,581.387373L177.413167,644.931313L176.553390,666.672356L180.839071,667.078478L193.696117,668.296846L197.972200,668.675894L201.837326,671.789501L205.765492,674.957261L213.391664,681.076187L213.571148,681.211562L215.413992,682.700682L217.247239,684.162728L285.549592,736.742518L288.176260,738.773160L307.841473,753.935311L449.977620,863.347849L490.412240,894.485241L558.719203,947.040186L572.248622,957.437521L612.837716,988.629655L626.358082,999.000000L627.358829,983.295570L630.362289,936.182576L631.363849,920.478344L642.241587,822.977834L659.141444,671.383379L683.650413,527.049426L694.921024,460.745491L700.629375,427.147148L703.815346,428.284235L706.969809,429.394250L715.425849,422.896608L719.621007,419.647791L733.864007,410.930141L742.840850,405.407166L772.002694,397.853695L773.924428,398.638822L774.767992,398.422236L779.756763,397.041495L788.883134,392.249515L790.305731,391.193656L794.532420,387.971932L795.935827,386.861928L792.385119,384.262892L790.045199,381.988738L787.937876,379.010680L786.453991,376.926041L781.710826,366.881881L777.751679,344.952656L777.440247,343.084615L775.245266,330.089570L774.138000,322.698654L773.899449,321.778174L772.191243,315.226530L769.791819,310.001465L764.040920,303.666419L762.699902,302.664724L760.767143,301.229865L756.901634,298.360147L756.341399,297.954055L744.385912,294.082647L730.377778,291.158788L723.451774,289.669787L723.169641,289.615641L690.605501,284.661331L674.221227,281.277242L662.765726,277.270483L665.973378,272.099604L669.050983,267.118238L671.188239,264.492195L673.299361,261.297628L679.647814,251.632722L681.749370,248.411091L682.800811,246.678450L685.011854,243.023662L685.594962,241.453458L686.220489,239.693747L688.415667,238.962790L688.727893,238.854500L693.172987,237.176008L695.055856,236.120182L696.658002,235.199719L697.274187,234.712415L695.062756,229.027205L688.428652,211.971615L686.229669,206.259359L687.309658,202.875324L690.549678,192.723235L691.607790,189.339210L694.595765,167.898081L692.140976,162.700246L672.464150,137.956462L680.429685,130.565838L693.022331,118.979094L695.997963,116.244843L734.334058,104.712277L729.878211,109.639332L725.658055,115.974125L724.405377,120.170253L721.762905,126.505060L726.348490,132.027719L729.269738,133.408384L748.918859,118.545945L746.980389,111.588498L749.813146,103.873054L752.465288,97.565348L753.797669,96.130549L761.718199,89.849926L766.338729,89.037777L779.964405,81.728442L796.649145,69.383812L807.315788,67.515878L818.626066,65.485515L819.016440,66.649589L819.569812,68.273880L821.953954,66.839090L823.446610,65.918659L823.312320,64.673370L822.902609,60.856290L822.758737,59.583931L822.453178,56.741428L821.536543,48.213929L818.395277,19.545398L817.804915,14.104081L816.551681,2.707114L784.357280,2.192762L687.811088,0.568494L655.641362,0.000000Z "/></g><g fill="#000" font-family="Arial" font-size="12px" id="mylayer-label" stroke="none"><text text-anchor="middle" y="479.816016275"><tspan dy="0" x="522.485522002"><![CDATA[N]]></tspan></text></g></svg>