<?xml version="1.0" encoding="utf-8"?><!DOCTYPE svg  PUBLIC '-//W3C//DTD SVG 1.1//EN'  'http://www.w3.org/Graphics/SVG/1.1/DTD/svg11.dtd'><svg enable_background="new 0 0 1000 1001" height="1001px" pretty_print="False" style="stroke-linejoin: round; stroke:#000; fill: none;" version="1.1" viewBox="0 0 1000 1001" width="1000px" xmlns="http://www.w3.org/2000/svg" xmlns:xlink="http://www.w3.org/1999/xlink"><defs><style type="text/css"><![CDATA[path { fill-rule: evenodd; }]]></style></defs><metadata><views><view h="1001" padding="0" w="1000"><proj flip="auto" id="robinson" lon0="-83.3296457058"/><bbox h="0.49" w="0.49" x="-1179.69" y="-526.81"/></view></views></metadata><g class="" id="mylayer"><path d="M1000.000000,370.279647L999.426152,344.556518L995.937998,315.761449L986.235529,267.252011L975.392478,236.701503L949.658868,179.651325L938.039814,155.109599L929.841081,148.358090L915.362805,136.374159L911.704767,130.365314L891.840340,114.533014L848.774057,87.054341L837.877168,77.872274L816.643703,59.440619L791.340604,45.262418L771.551427,34.291188L759.134637,27.472145L734.394676,22.138437L681.939613,10.998413L662.970357,6.643675L633.047665,8.837923L631.923075,9.107984L605.857557,15.083089L599.536044,16.129576L566.256255,21.530799L509.342908,30.442817L475.551539,36.181615L439.353140,44.047143L410.287567,57.516435L371.511293,72.200996L330.826151,92.016707L300.264230,108.220348L275.969859,123.951376L253.280895,137.791976L232.877325,148.830696L209.721126,168.815159L188.546634,189.474764L176.050347,207.872606L152.781079,243.351726L140.422910,240.752400L137.989173,247.098805L124.727807,244.330692L114.257582,242.203971L110.420981,254.424176L115.733903,255.403142L108.639161,273.125808L103.805425,285.210974L101.396802,291.219798L97.572503,300.806909L94.917126,307.828454L92.147302,314.849998L76.623174,354.953795L71.719333,367.680329L65.970409,382.466058L63.032315,390.061466L51.165325,420.679383L44.936185,419.936721L35.359604,418.721457L31.726569,426.350616L29.016284,431.954333L38.106743,432.933295L33.851733,441.001297L32.579297,444.579573L26.496471,461.559502L22.018714,473.948433L16.947802,492.413671L12.875701,507.131845L6.193834,534.677773L6.004694,535.454190L4.894839,560.333278L4.623489,564.384146L1.968432,598.310151L1.683350,603.475003L0.000000,632.708731L2.697714,654.178293L5.933341,680.137545L13.088224,725.844697L28.675325,764.192760L46.171077,794.000255L50.598301,803.789802L55.797947,813.815646L62.554075,831.200522L73.845881,856.990889L86.599818,871.135076L97.236315,881.869803L110.486063,895.271329L131.143009,912.689931L154.697919,930.783667L190.625070,951.544194L249.591809,974.296371L270.637187,978.718528L281.121067,980.912728L297.428624,984.929803L312.433068,988.069196L327.157820,989.183175L343.075763,990.803507L355.461498,992.356325L373.360568,991.951242L407.871440,990.668479L408.680963,990.634722L419.871754,989.689528L437.044556,988.035439L449.045417,986.583892L459.050947,985.334886L482.649960,980.676430L513.716786,973.790017L530.452230,968.523935L555.043954,960.962381L579.669907,952.084305L605.759511,939.661747L626.526820,930.176041L639.330684,920.251493L651.927487,912.588661L652.362191,914.917892L815.373811,936.184780L903.806558,947.695902L919.093834,950.261430L923.617738,926.732831L928.233037,902.123997L930.413430,890.342809L955.536894,754.673261L892.921663,754.909561L843.143474,755.078346L879.857977,706.535625L899.337555,680.711416L903.015857,675.006459L907.607733,667.782428L923.550637,642.498312L941.311671,608.572341L962.281798,562.291198L969.187089,542.982056L983.586138,495.485584L991.499450,462.403435L993.857053,417.472436L994.075593,413.050224L997.936295,399.783585L1000.000000,370.279647Z "/></g><g fill="#000" font-family="Arial" font-size="12px" id="mylayer-label" stroke="none"><text text-anchor="middle" y="509.34145259"><tspan dy="0" x="512.638841291"><![CDATA[N]]></tspan></text></g></svg>