<?xml version="1.0" encoding="utf-8"?><!DOCTYPE svg  PUBLIC '-//W3C//DTD SVG 1.1//EN'  'http://www.w3.org/Graphics/SVG/1.1/DTD/svg11.dtd'><svg enable_background="new 0 0 1000 1001" height="1001px" pretty_print="False" style="stroke-linejoin: round; stroke:#000; fill: none;" version="1.1" viewBox="0 0 1000 1001" width="1000px" xmlns="http://www.w3.org/2000/svg" xmlns:xlink="http://www.w3.org/1999/xlink"><defs><style type="text/css"><![CDATA[path { fill-rule: evenodd; }]]></style></defs><metadata><views><view h="1001" padding="0" w="1000"><proj flip="auto" id="robinson" lon0="-73.2555963761"/><bbox h="0.45" w="0.49" x="-977.54" y="-740.07"/></view></views></metadata><g class="" id="mylayer"><path d="M1000.000000,60.945890L937.786153,71.511064L904.184321,85.642387L893.953240,90.275057L887.795301,88.608629L878.744098,69.811305L880.092631,61.912420L884.951931,40.948687L881.003583,41.715247L877.859377,42.148520L868.222884,43.481668L837.504997,48.247670L818.985508,50.414034L634.153371,66.878387L544.906466,90.841642L161.096863,154.798958L158.394272,166.897149L142.890796,405.092256L98.787137,509.040696L97.708090,511.540246L96.317771,514.839651L81.107163,550.899759L79.335110,554.965679L77.628824,559.464851L75.871919,563.797386L74.106978,568.229900L60.594153,659.279373L10.111208,893.665184L0.000000,958.051313L0.000000,958.051313L210.228485,912.461171L313.537062,911.461385L520.146085,909.561792L526.597402,907.928808L528.493298,906.529107L531.445001,904.396230L538.611055,899.897190L593.860320,888.332984L643.123736,889.699360L711.494358,881.601077L728.500984,880.534636L805.724792,858.072701L840.960834,855.973141L849.111433,776.822792L854.388704,743.762783L881.250028,667.177847L903.796688,588.526129L907.955878,579.894404L910.935784,568.863116L911.425117,567.096776L918.850885,519.938731L924.269263,500.408911L952.779526,340.136504L956.865197,321.039643L958.226253,312.407718L961.678117,302.909260L970.176771,276.013585L985.137971,227.421238L988.796629,210.457195L990.440162,199.792164L993.211399,165.763985L993.348006,164.064240L1000.000000,60.945890Z "/></g><g fill="#000" font-family="Arial" font-size="12px" id="mylayer-label" stroke="none"><text text-anchor="middle" y="491.698974216"><tspan dy="0" x="511.260474389"><![CDATA[N]]></tspan></text></g></svg>