<?xml version="1.0" encoding="utf-8"?><!DOCTYPE svg  PUBLIC '-//W3C//DTD SVG 1.1//EN'  'http://www.w3.org/Graphics/SVG/1.1/DTD/svg11.dtd'><svg enable_background="new 0 0 1000 1001" height="1001px" pretty_print="False" style="stroke-linejoin: round; stroke:#000; fill: none;" version="1.1" viewBox="0 0 1000 1001" width="1000px" xmlns="http://www.w3.org/2000/svg" xmlns:xlink="http://www.w3.org/1999/xlink"><defs><style type="text/css"><![CDATA[path { fill-rule: evenodd; }]]></style></defs><metadata><views><view h="1001" padding="0" w="1000"><proj flip="auto" id="robinson" lon0="-155.466540828"/><bbox h="0.31" w="0.42" x="-2261.78" y="-336.77"/></view></views></metadata><g class="" id="mylayer"><path d="M1000.000000,685.222482L995.009038,684.783373L991.487625,683.226535L989.696872,682.428157L984.648962,679.074967L980.611894,675.242750L971.428518,666.979532L970.855132,666.460586L965.213115,660.871937L962.276119,657.678423L953.448871,648.018044L950.486426,644.784611L947.352886,641.391503L938.918762,632.130313L938.085848,630.932746L935.383471,627.020692L934.754193,626.142475L932.881062,622.390097L930.957023,618.557881L928.453582,611.372476L927.821702,606.741882L927.031329,600.993558L926.493402,595.804099L925.770995,590.814235L921.371514,560.555700L921.250545,559.877079L919.164372,553.889242L918.661590,552.611837L918.061975,551.454189L917.554210,549.897352L915.818880,545.546191L915.608162,545.107083L914.971027,543.510326L912.171069,539.119247L908.586479,535.127356L903.446011,531.574574L893.715105,524.788360L846.825889,496.885048L828.522987,484.749703L811.397291,473.971601L809.060753,472.534520L802.883256,468.822063L774.749343,450.938399L751.708419,435.609545L749.750819,434.332140L737.368327,427.026983L731.716973,424.791526L718.002584,423.274608L705.060984,422.915338L689.749207,423.673797L687.229744,423.633878L680.873765,422.955257L677.155330,422.556068L669.377610,420.679880L667.651971,420.200853L658.742248,416.169046L650.216996,411.219104L655.453949,405.470784L668.523058,388.265745L670.330392,385.830693L674.825762,379.842861L696.539015,348.706135L714.887924,323.158055L718.798073,318.208114L736.467229,295.614034L743.628250,288.428637L765.155130,266.832530L772.290694,259.607216L771.749868,259.247946L756.760054,248.070665L749.164019,245.555776L744.957035,244.118697L731.929993,243.679590L725.833954,240.366324L721.614152,230.705960L715.804038,223.440728L705.265270,214.898092L695.437082,207.632860L687.972547,204.998216L682.175067,204.000244L675.349718,202.802679L666.432834,203.920407L663.312483,203.481299L656.878691,201.485356L654.108939,200.726898L651.373826,199.968440L647.467316,198.730955L645.182507,197.972497L640.907429,193.820936L637.914568,188.312135L634.176687,183.481953L628.694999,180.208607L628.015624,179.849338L627.061247,179.330393L624.198116,177.773558L623.209100,177.254612L618.462669,174.699806L608.651330,173.382484L598.432517,176.695749L591.825308,179.969094L590.941729,180.647715L585.185739,185.038789L528.286636,170.987353L526.529084,168.991410L518.897481,154.740381L513.768366,149.031986L509.639129,146.956206L505.983539,145.080020L493.883211,143.323591L485.711364,143.762698L477.268135,145.080020L468.963460,146.397342L465.326406,146.397342L457.961785,146.038072L447.377882,145.519127L419.170451,141.806675L406.114715,144.201805L400.952963,145.559046L395.800397,146.876368L381.122365,150.149714L366.233333,149.071905L360.859378,148.792473L353.884969,148.393284L347.863424,147.315475L343.199111,145.758640L339.894299,136.337793L336.774276,130.629398L326.380155,124.921003L317.821567,124.481896L312.328190,124.721409L302.537519,125.120597L291.254673,127.036702L283.963698,128.314105L262.127517,131.986639L254.820275,133.184204L251.785625,134.780958L247.940881,136.736981L242.626411,137.854709L239.509687,138.453491L238.881503,142.086106L234.262473,150.868253L228.252789,157.414944L218.922296,167.554332L214.185054,174.140942L211.352330,182.084794L211.043118,187.793189L211.929103,190.866941L211.452421,197.453552L207.370602,205.557080L201.018288,215.097686L197.812086,219.848030L191.010681,226.674155L187.712004,233.180929L183.213166,242.042916L182.144481,244.278373L180.149884,248.429934L173.599678,258.529407L171.327368,264.038210L167.583212,268.868392L164.621137,276.772328L164.450804,277.211435L167.363022,282.919833L167.203533,286.472613L167.059556,289.506447L163.023684,297.410383L159.847909,302.480079L140.056491,321.800813L126.929733,339.405037L118.881183,353.456481L118.650760,353.855670L115.659474,358.725773L110.232168,363.795471L97.518812,379.603348L88.118463,400.281329L75.303774,421.797609L71.931343,433.893032L70.813754,443.114296L76.224800,463.552769L76.605566,468.822063L71.047940,487.703701L68.494914,508.581286L66.878084,515.607012L62.668632,526.824224L59.042734,533.849951L54.822238,539.997463L47.368416,547.701812L44.002264,550.136865L40.414288,554.288431L34.617170,566.383861L29.912312,571.174130L28.297840,572.770886L23.043899,579.796615L20.922065,583.748587L14.737477,610.773692L6.503919,626.381989L1.440157,641.311665L0.000000,647.419260L0.000000,647.419260L8.531811,646.620881L9.356075,646.501125L34.280538,643.108016L42.869570,641.910449L55.857034,640.114097L57.521828,639.954422L99.127512,635.723016L101.304815,635.443584L115.913240,633.527475L130.981160,631.571448L162.705426,627.379962L176.099360,625.623529L191.141818,623.627583L197.031840,622.869124L214.711092,620.553827L220.575660,619.755448L282.007393,612.609962L354.055547,604.187071L396.979520,599.795990L419.657729,600.594369L447.397903,604.985449L461.864158,609.256773L486.647609,616.561935L506.357690,625.743286L514.445358,629.735178L514.077162,630.733151L512.928750,633.766989L512.535101,634.725043L512.148534,635.802854L511.844637,636.521394L510.394985,638.756854L509.724221,639.714908L503.378357,654.045801L491.073208,681.629778L484.460978,697.118322L479.814890,707.976271L478.988200,711.568975L483.782648,724.303115L498.062163,762.505537L502.796576,775.199760L501.513826,777.914248L497.649308,785.977874L496.341104,788.652443L546.380391,805.578076L563.580727,811.366323L570.884407,814.400163L578.452601,818.392058L581.774792,826.535523L588.245813,830.327823L598.420142,831.724987L616.726384,833.760853L633.771433,835.557206L646.193929,837.872505L668.663221,844.698646L695.212397,852.762274L734.423972,864.658122L743.530284,872.202805L755.225381,874.518104L758.922375,872.601994L765.192410,869.288721L782.948625,860.466632L800.171569,844.778483L805.273033,841.425292L820.953469,831.086283L824.508700,810.967134L827.392155,794.520528L837.194874,750.410098L841.669170,730.211117L849.160221,728.215170L852.976075,727.137359L861.288501,724.582547L871.600043,721.468870L879.060649,719.153572L897.319843,713.564922L903.247912,711.888327L974.421432,691.609510L975.845846,691.290159L983.023024,689.453888L986.254985,688.655509L993.787741,686.779320L1000.000000,685.222482Z "/></g><g fill="#000" font-family="Arial" font-size="12px" id="mylayer-label" stroke="none"><text text-anchor="middle" y="475.855172318"><tspan dy="0" x="496.449968167"><![CDATA[N]]></tspan></text></g></svg>