<?xml version="1.0" encoding="utf-8"?><!DOCTYPE svg  PUBLIC '-//W3C//DTD SVG 1.1//EN'  'http://www.w3.org/Graphics/SVG/1.1/DTD/svg11.dtd'><svg enable_background="new 0 0 1000 1001" height="1001px" pretty_print="False" style="stroke-linejoin: round; stroke:#000; fill: none;" version="1.1" viewBox="0 0 1000 1001" width="1000px" xmlns="http://www.w3.org/2000/svg" xmlns:xlink="http://www.w3.org/1999/xlink"><defs><style type="text/css"><![CDATA[path { fill-rule: evenodd; }]]></style></defs><metadata><views><view h="1001" padding="0" w="1000"><proj flip="auto" id="robinson" lon0="-95.9221791651"/><bbox h="0.56" w="0.59" x="-1364.03" y="-504.4"/></view></views></metadata><g class="" id="mylayer"><path d="M1000.000000,105.929347L895.943555,105.816085L892.390572,120.285294L743.226194,123.739784L750.753211,90.044382L762.828906,42.870960L766.366029,28.373519L764.552036,28.401834L737.038325,28.883195L608.567267,30.950212L597.103922,78.265169L584.915278,128.553420L738.351886,124.419356L717.424663,214.547894L563.680724,215.510628L555.602869,248.923185L521.576714,249.064764L512.767496,279.645821L494.496367,279.136136L474.321196,279.277715L464.252820,321.723204L463.317649,325.036167L461.987673,329.679978L460.004775,336.645699L459.221059,339.562242L460.670329,339.732138L475.457993,341.685939L472.927453,350.662100L472.458914,352.276111L472.029214,353.833490L470.298246,353.635278L465.367362,353.606962L454.983493,353.890121L442.689212,354.201597L410.214665,355.136025L407.489126,339.703822L407.442959,338.401288L407.355035,336.334224L407.316724,335.371482L407.219942,333.615893L407.181633,332.653152L407.066710,329.764926L406.926751,326.140488L406.775974,322.742577L400.471085,321.978047L381.578557,319.599511L383.021198,314.615911L383.696307,312.209060L387.489727,300.882707L401.899112,239.465724L402.664477,235.048469L379.818556,234.623733L376.646219,234.595417L318.053659,233.519420L333.716299,170.262229L273.645058,171.904534L255.884401,171.932849L216.939796,287.291096L213.090980,299.013860L207.045697,298.362595L166.086607,293.492267L147.188824,291.226999L145.936278,295.757536L144.349837,301.477341L143.683983,303.940822L142.470311,308.414731L142.018385,310.057052L137.786878,325.375958L117.246914,324.328269L121.993787,307.678518L122.958625,304.252296L124.021325,300.542917L124.524900,298.702385L126.076438,293.209108L127.332916,288.848468L122.985167,288.338782L108.327511,286.441621L96.214404,284.855934L85.071184,283.893196L34.918016,276.219607L30.347432,281.373086L28.231967,286.441621L23.528037,297.654698L0.000000,353.663594L0.000000,353.663594L2.409372,354.031701L8.412402,354.937813L69.825217,364.055563L61.560077,396.619007L66.766259,397.440173L74.780211,372.776895L153.861057,379.912534L184.035314,382.630874L220.734788,385.915536L220.919164,385.207634L221.462953,383.027299L221.630616,382.291082L222.183747,380.167379L222.712792,378.043676L222.838170,377.562304L224.501037,370.992986L225.177598,368.302964L225.610777,366.547372L219.560486,366.377475L200.623537,365.556311L206.141087,341.969098L215.193076,343.469844L230.820834,345.989965L230.188494,348.510086L228.260030,356.098768L227.610990,358.590575L254.058362,358.137520L333.367032,356.721720L358.400513,356.240348L359.805054,356.212032L360.479549,356.212032L362.438139,356.183716L363.095919,356.155400L362.202059,359.864795L359.542650,370.908038L358.632106,374.589120L355.897578,384.811210L351.874061,399.705459L348.835852,407.209222L324.393165,407.549015L319.392474,426.011122L318.693886,426.011122L317.337513,426.039438L313.036843,426.181019L300.084686,426.520813L295.767300,426.634077L294.994484,427.936619L292.587058,431.815931L291.773440,433.090158L291.085690,435.638611L278.010419,488.533293L272.997180,496.037106L268.974252,516.113366L269.391146,516.085049L271.922004,515.801886L269.767802,525.740920L267.662501,530.866179L267.400003,531.319241L257.910519,528.629187L243.432459,524.466684L246.218524,506.457502L235.854135,506.202655L226.957743,506.230972L200.266597,506.230972L191.353489,506.230972L191.934001,503.909035L193.605257,497.028176L132.604806,495.385832L128.698812,509.090919L184.489114,509.742194L179.120634,531.007761L176.870488,539.927417L139.743131,541.428185L136.943338,541.541450L134.160263,541.683032L131.071395,541.796297L127.252258,555.076686L145.102147,554.708573L172.574590,554.113928L167.854849,572.519605L153.711465,627.680154L148.999827,646.057616L147.360217,653.929633L146.322711,660.414141L142.315942,679.046498L135.062983,706.542014L113.304563,788.943957L106.036509,816.411385L101.373515,835.072278L87.337485,891.055117L85.639626,897.766277L95.988026,896.973398L95.542607,898.870646L94.141455,904.534076L93.679320,906.403008L111.073517,905.751713L138.799981,904.647344L131.211079,933.077799L125.806968,953.296306L123.478312,963.915283L122.085966,970.286673L122.977324,970.286673L131.201625,970.343308L182.296702,970.626481L188.277814,947.632856L195.489412,919.910300L197.472411,912.009807L198.848786,905.978251L213.199397,906.006568L219.752031,906.006568L224.618326,906.006568L239.207852,905.949934L244.057422,905.921616L254.232999,905.978251L284.757738,906.063202L294.916591,906.091519L295.613812,902.948315L297.720240,893.462073L298.424850,890.290555L299.077898,887.317257L300.964800,878.397368L301.601143,875.395756L303.615387,875.339122L309.615315,875.055951L311.612835,874.970999L316.770992,874.404658L332.149099,872.705632L337.290531,872.110973L373.148918,870.213729L407.860307,868.373119L417.362779,820.828832L385.651474,822.527851L349.800596,824.396771L348.709984,823.773798L349.131341,821.876560L351.310669,811.370966L352.031551,807.859664L357.878374,806.868571L371.809847,804.433314L375.361302,803.838658L377.496231,802.762614L379.075924,800.950330L380.003195,799.053096L380.749994,799.053096L382.990389,799.053096L383.737188,799.053096L393.224123,796.108136L417.856309,788.377618L420.032629,787.698013L421.686332,786.990090L431.112010,782.799189L447.513639,787.443161L452.945618,788.972273L448.631695,801.941423L464.389184,805.820844L482.963627,811.002845L484.182987,807.519860L521.565879,828.559368L546.762987,789.397027L548.433772,784.271668L551.407578,775.804918L597.647499,798.911512L617.542823,801.516669L615.607507,808.029565L624.322550,812.588595L628.559301,799.081413L634.418837,797.948736L677.152756,789.623562L725.305097,783.620379L730.524131,782.912457L757.750979,670.494865L769.474555,671.174465L763.650414,699.944218L835.094009,699.972535L857.183182,606.386116L781.770048,606.895814L775.057935,630.002112L766.965681,632.493971L769.088616,624.706915L769.520875,622.583174L773.299804,606.952447L779.859342,580.731377L785.307205,558.134859L785.556173,556.067761L785.498997,554.991737L789.719484,539.332773L791.919936,531.064394L796.891756,527.326635L799.911055,525.259542L813.613422,515.745253L817.469397,513.055203L824.961129,507.873318L830.666449,503.909035L834.894565,500.992457L896.921203,498.415674L916.210955,445.322740L910.143468,446.143909L891.655068,450.816079L877.645306,455.403302L877.240259,455.941310L844.399807,474.658330L831.981804,483.124887L824.732362,488.023600L818.850177,483.691213L812.402897,481.992237L800.815100,478.849134L784.565545,478.622604L778.428270,479.896835L774.832626,480.661373L767.042128,483.011622L759.889274,485.503453L752.791970,487.966968L750.167535,491.478185L747.915258,499.944754L742.787153,518.718468L732.948752,518.293723L679.091052,518.916682L685.218821,495.470780L645.388683,496.065422L655.361466,444.529887L656.546429,438.498543L657.140634,435.383766L650.219566,434.024591L636.868568,431.362873L625.712185,429.154213L616.614710,427.087135L581.912343,410.210728L585.742173,394.948359L587.198240,389.171882L588.683820,383.282143L586.252272,381.611497L580.367162,383.027299L578.418404,383.480356L576.693822,383.905096L570.688265,385.320899L566.618206,387.444602L561.366804,390.219576L557.422101,391.861907L555.855331,392.513177L549.867978,395.061623L542.715976,396.902167L535.716856,398.063127L519.014700,398.742712L520.886672,389.426726L522.169748,383.112247L524.729574,371.247830L525.865715,365.867787L529.542639,350.916944L531.006262,345.112170L531.334194,343.668056L531.671466,342.280574L532.611989,338.854343L533.942419,333.191154L536.404687,322.997420L544.366448,294.001952L545.343938,290.434155L550.052589,271.802340L551.884786,264.213705L646.379361,263.958863L652.553475,263.930547L704.855725,263.817284L715.901722,220.579138L867.917229,219.871245L859.285029,254.954443L965.427172,254.558023L989.744381,151.120900L995.072886,128.355211L1000.000000,105.929347Z M577.739574,609.727466L584.938203,579.202288L636.424678,578.805857L629.577122,608.538172L611.812734,609.132819L577.739574,609.727466Z M134.189179,744.146686L136.136175,736.387882L151.333626,736.586100L196.916630,737.124119L212.097362,737.294020L205.727555,759.919159L203.816439,766.800154L128.348386,767.423125L134.189179,744.146686Z M166.658800,790.076633L168.850720,781.468295L199.636616,781.751464L216.053399,781.893049L215.281108,784.583154L213.553738,790.388119L212.831054,792.795056L217.258278,792.908324L221.114704,792.993275L215.531578,816.949407L205.947600,817.119309L204.181639,817.147626L197.850254,839.999438L209.823176,839.999438L203.820953,864.550314L167.222759,865.031704L172.607672,844.983234L178.289512,823.887066L180.060429,817.544063L177.162222,817.572380L167.561521,817.713965L166.205094,817.742282L162.078280,817.770599L160.705131,817.770599L160.312318,817.798916L159.413608,817.827233L161.052503,812.362059L161.207238,811.767403L164.375099,799.222998L166.658800,790.076633Z "/></g><g fill="#000" font-family="Arial" font-size="12px" id="mylayer-label" stroke="none"><text text-anchor="middle" y="514.599081519"><tspan dy="0" x="472.043838855"><![CDATA[N]]></tspan></text></g></svg>