<?xml version="1.0" encoding="utf-8"?><!DOCTYPE svg  PUBLIC '-//W3C//DTD SVG 1.1//EN'  'http://www.w3.org/Graphics/SVG/1.1/DTD/svg11.dtd'><svg enable_background="new 0 0 1000 1001" height="1001px" pretty_print="False" style="stroke-linejoin: round; stroke:#000; fill: none;" version="1.1" viewBox="0 0 1000 1001" width="1000px" xmlns="http://www.w3.org/2000/svg" xmlns:xlink="http://www.w3.org/1999/xlink"><defs><style type="text/css"><![CDATA[path { fill-rule: evenodd; }]]></style></defs><metadata><views><view h="1001" padding="0" w="1000"><proj flip="auto" id="robinson" lon0="-95.1192410008"/><bbox h="0.8" w="0.72" x="-1354.94" y="-495.61"/></view></views></metadata><g class="" id="mylayer"><path d="M351.912713,0.000000L349.878143,2.944853L347.841479,5.827050L346.366265,7.957371L342.831399,12.990776L310.500819,59.294044L296.269031,79.657522L255.555050,137.594443L253.372265,140.706421L239.922319,159.796023L213.703936,198.309506L205.164424,209.922059L202.068177,214.412528L197.973778,220.761845L194.660110,225.482064L191.859694,229.429506L184.903189,239.475646L165.394806,267.086918L164.688811,266.710970L163.574930,266.188819L162.409827,265.729327L161.206058,265.353379L159.968845,265.040089L158.698187,264.789457L157.394085,264.601483L156.444535,264.559711L155.398764,264.476167L153.361666,264.517939L151.961451,264.643255L149.149577,265.081861L147.018477,265.499581L145.594261,265.791985L143.465271,266.272364L141.320614,266.815400L139.643399,267.337550L137.944184,267.734384L136.276303,268.005903L134.614646,268.110333L132.984322,268.089447L131.403109,267.943244L129.863675,267.629954L128.391131,267.191348L127.008477,266.606540L125.705268,265.917301L124.491950,265.081861L123.381077,264.121105L122.379984,263.076804L121.499114,261.907188L120.733247,260.633142L107.744884,238.138945L89.060444,205.723994L87.488960,206.747403L83.081950,209.796743L79.478966,212.261280L79.195624,212.470139L75.204744,215.206192L73.513035,216.354917L74.376162,217.879589L76.867228,222.349176L81.222700,230.097856L81.878649,231.100381L83.615394,234.107957L85.391921,237.240849L88.184384,242.211707L91.612951,248.122436L93.447072,251.380649L98.423184,260.131878L98.794615,260.779344L99.150379,261.489468L99.452810,262.199592L99.691464,262.951488L99.924896,263.724271L100.112328,264.538825L100.262095,265.290721L100.396195,266.105275L100.443518,266.982488L100.488731,267.797042L100.487944,268.653369L100.446380,269.530582L100.374484,270.386908L100.244033,271.264121L100.101027,272.120448L99.917244,272.997661L99.669684,273.916646L99.420013,274.772973L99.117010,275.629300L98.778453,276.485628L98.388673,277.404613L97.979006,278.260940L97.549450,279.054610L97.068672,279.910937L96.570118,280.767265L96.033897,281.560934L95.467343,282.333718L94.860012,283.127388L94.250571,283.858399L93.587796,284.589411L90.606595,288.620419L90.040044,289.393203L89.496494,290.145101L88.960278,290.938771L88.459617,291.732441L88.156510,292.233707L87.976735,292.526112L87.529408,293.319782L87.082082,294.113452L86.670312,294.907123L86.260654,295.763452L85.902218,296.557122L85.545894,297.413451L85.219904,298.290666L84.914803,299.084337L84.629591,299.940666L84.379936,300.796996L84.148059,301.653325L83.962182,302.467882L83.865077,302.927376L83.783639,303.324211L83.617653,304.201427L83.508110,304.995098L83.395458,305.872314L83.316250,306.686872L83.262155,307.543201L83.236281,308.357759L83.245964,309.172317L83.273424,309.986874L83.269318,310.216622L83.318664,310.801432L83.399459,311.615990L83.513698,312.367890L83.630050,313.182448L83.759955,313.871689L83.964081,314.477386L84.145208,315.103970L84.222657,315.291945L84.289663,315.521692L84.182240,316.378022L83.958703,317.129922L83.697499,317.819164L83.329628,318.508406L82.878090,319.176761L82.348107,319.803345L81.762677,320.367270L81.157357,320.868537L80.461035,321.307145L79.778265,321.620437L79.052604,321.891957L74.604410,323.186896L73.825416,323.458416L73.672854,326.841969L73.600244,328.554632L73.552502,329.598938L73.429048,332.439453L73.864046,332.335023L75.375039,331.979958L76.899582,331.499577L78.408461,331.081854L80.320885,330.329953L82.247979,329.661597L84.293177,328.805265L90.550604,327.740072L95.868175,333.421102L96.611862,333.859711L97.274990,334.193889L98.570912,334.841360L99.401376,335.217311L100.673179,335.676806L101.534972,335.927440L102.855881,336.261618L103.779336,336.407821L105.654467,336.658455L107.050589,336.762886L108.078597,336.846430L105.750591,339.331882L97.696078,347.728120L96.528479,349.127494L95.936848,349.858510L94.138958,352.072445L92.322301,354.432584L90.549530,356.688292L88.245806,359.716790L86.538933,361.993386L85.411130,363.518079L83.729377,365.836448L82.083182,368.154817L81.377690,369.199128L80.038810,371.141546L79.210000,372.394719L78.352971,373.689665L77.128101,375.673856L75.931452,377.616276L74.759920,379.600468L73.650050,381.480230L72.204794,384.132782L70.777321,386.785336L69.415744,389.458776L68.089727,392.132217L66.811828,394.826545L65.564270,397.541760L64.370051,400.256976L63.229171,402.972192L62.136409,405.708295L61.141852,408.193764L60.052350,411.201391L59.096608,413.958382L58.181648,416.694489L57.291809,419.472368L56.876169,420.850865L56.546169,421.957840L56.338648,423.357223L56.003879,425.550288L55.774498,427.179421L55.525223,428.745896L54.618624,436.285865L54.314674,439.565023L53.994246,443.408113L53.775122,446.917022L53.614562,450.405046L53.496907,453.934845L53.466033,457.401985L53.449847,460.952672L53.523542,464.357155L53.647481,467.845185L53.840423,471.270557L54.068931,474.695930L54.361222,478.079532L54.729854,481.442248L55.128833,484.825851L55.596814,488.146797L56.118138,491.467743L56.692807,494.788690L57.336477,498.046979L58.043928,501.263496L58.789067,504.542674L59.601084,507.696533L60.466444,510.850394L61.379930,514.025142L62.349856,517.116345L63.385685,520.228435L64.261162,522.630385L64.548094,523.403186L77.635430,550.576586L79.644513,554.774788L79.998333,555.422272L81.850144,558.826786L86.477111,567.348519L91.533346,576.643064L112.181684,612.129503L115.780730,618.291081L118.849455,622.447537L119.828955,625.288131L120.840932,628.212272L121.379392,629.757890L122.589821,632.243412L127.175131,641.788655L150.558928,684.627479L160.476788,710.840497L169.439127,730.557743L174.562127,752.551705L175.734512,757.042405L181.850654,780.686498L190.857887,815.400801L195.151466,831.107911L195.612948,832.820656L200.868787,855.002816L207.796261,883.597401L215.451345,920.964729L224.091268,943.272398L225.163245,946.885910L231.184042,944.274991L240.592134,940.201958L248.785399,936.651109L256.527739,934.123742L268.367627,930.280473L288.774434,925.664375L308.075515,924.411136L323.942400,927.230924L329.235763,930.029825L332.767131,931.909684L338.309457,938.342984L341.731195,946.363727L342.363943,948.744886L344.835204,958.081541L346.299112,963.616698L347.209967,967.021344L348.252052,970.969063L348.401053,971.512136L348.460837,971.700122L348.589910,972.180533L348.651842,972.431182L350.163035,978.133446L352.259866,986.049781L353.736480,991.605841L354.918598,993.067962L355.964602,994.362984L356.125857,994.571859L356.602261,995.156708L356.750947,995.344695L356.980259,995.637119L357.745109,995.992206L364.284505,999.000000L375.549179,995.323807L378.526894,994.362984L379.421337,993.485711L387.601011,985.569370L389.865655,983.689501L390.960888,982.791342L392.954868,981.141235L393.528699,980.765261L393.947723,980.368400L394.320769,980.013314L394.902870,979.532903L395.438993,979.094267L396.107843,978.551194L396.442269,978.279658L397.341017,977.527711L397.779971,977.193512L398.172945,976.901088L398.779274,976.608664L399.353105,976.232691L401.097588,975.083883L401.671419,974.707910L401.926455,974.540810L402.390548,974.248386L403.155656,973.747089L406.193101,971.762785L407.590591,970.864626L408.506208,970.258891L409.084337,970.008242L431.419266,960.441815L438.855418,953.653417L447.599199,943.690145L453.856438,936.567560L456.379223,934.437052L459.627273,931.679924L471.908373,923.074348L483.037272,918.374703L496.552939,916.223312L502.420134,916.223312L512.119737,917.894296L523.660219,923.304108L533.961474,931.115966L544.068141,938.781618L551.777486,941.517861L554.291479,942.416017L567.276333,943.105299L575.707972,940.807691L588.205722,934.896573L597.854900,931.638149L598.745698,931.345727L609.287282,929.570304L613.626694,929.779177L622.703916,927.815769L626.586167,925.580825L640.064573,920.442547L647.875841,912.150289L648.190340,911.816092L650.997845,908.829210L654.326875,898.406461L654.745608,882.260618L652.542430,861.018325L652.473153,860.725904L649.292639,848.318921L637.274495,817.677495L636.247405,815.024833L635.548222,807.923222L637.608971,798.168958L640.929088,792.487677L650.767220,784.696809L661.857376,779.725695L673.459970,776.049578L689.752952,770.890485L698.472174,764.519948L704.042770,757.230388L705.528970,751.987756L705.442146,749.272450L705.253261,743.048135L704.687462,723.873926L707.612683,715.644484L710.905931,711.425330L712.734359,709.085998L718.403306,704.323789L720.453904,702.590178L722.058422,701.504060L722.568531,701.169870L723.361900,700.626812L724.155270,700.083753L724.688371,699.728676L725.504733,699.164731L727.966386,697.493781L728.777535,696.950723L730.040243,696.094361L730.810621,695.572190L734.278163,695.070905L735.699267,694.862036L736.047491,694.820263L739.804707,694.298091L747.578019,696.846288L750.973214,698.914088L752.327599,700.397056L754.932777,703.279445L759.557529,710.464533L766.439995,729.617831L768.412109,741.377179L768.241836,746.974884L768.148098,750.128816L769.400829,755.225238L769.504712,755.663865L770.606388,760.154567L782.408241,765.083897L783.426571,764.707931L786.153256,763.684469L791.402775,761.741978L793.414947,760.446984L800.484223,755.914508L810.099396,741.251857L813.324584,731.748298L814.411824,728.531710L818.228239,720.720002L818.477803,720.218716L819.242134,718.652198L819.496912,718.130025L820.482605,716.103996L824.027487,711.446217L824.331595,711.153801L835.623475,700.459717L847.538735,691.185949L849.646928,689.577662L858.373396,682.893871L858.638876,682.685003L871.472023,672.868194L893.011920,636.149233L894.310377,634.081445L905.261283,615.283395L907.777421,601.644386L908.260339,590.595340L907.372325,587.316136L906.270500,583.326787L896.813394,559.683136L895.536478,556.466601L895.710025,554.774788L895.867928,553.145635L896.574482,546.044200L897.256497,544.665686L898.015795,543.120081L896.742461,540.530148L896.424128,539.882664L896.443359,538.880110L896.573681,533.303402L896.633972,531.068542L898.151262,525.846909L900.783096,516.803047L902.478436,503.393917L902.582544,502.621118L901.739046,496.459608L901.242204,492.825363L898.228570,481.045406L896.629028,474.779476L892.595350,465.589453L890.510475,451.658229L890.640904,439.961863L892.418264,433.487095L892.714688,432.442778L895.026591,428.098420L903.346538,418.135644L905.043772,416.109672L905.322812,415.775491L906.313558,414.584972L908.311470,413.561543L909.190714,413.102044L911.963327,411.681775L919.320378,407.922242L922.034441,406.522861L922.337635,406.376657L930.292558,403.995620L933.025746,403.160169L939.925200,400.236089L941.922418,393.949322L946.323508,374.838407L946.550153,355.643983L944.127166,334.319206L939.742199,320.847651L935.937879,316.649542L931.051588,315.500806L927.023363,308.712823L924.401395,305.830542L921.551469,298.311552L920.815428,296.348262L914.882324,290.353961L913.113793,285.195106L906.860236,280.412202L899.822824,276.631830L883.851813,270.825515L876.142546,265.750213L872.412082,257.416699L867.021177,238.869954L866.296543,236.363639L863.199915,230.473803L855.802004,224.082707L838.786954,216.125172L832.908358,211.906219L826.392133,205.473363L819.553962,193.359555L817.037487,179.888180L816.733675,178.259085L816.117610,174.750265L819.701959,173.497116L848.639184,163.346609L850.378026,162.720035L862.111821,158.521989L861.433589,156.684039L859.429243,151.191078L856.499166,144.779145L854.338438,140.622878L852.021951,136.591927L849.514151,132.686292L846.868368,128.905973L846.478162,128.404715L844.831566,126.316142L843.290636,124.373769L842.590781,123.475683L841.303063,122.013682L844.769770,115.330253L833.013257,113.575853L817.750313,111.341083L818.454775,110.087941L819.338920,108.187342L820.014964,106.265859L820.436905,104.365261L820.517258,103.759576L820.675854,102.485549L820.724480,100.584952L820.549335,98.726127L820.150421,96.909073L819.550737,95.112905L817.173487,89.975032L816.178594,88.408608L814.976701,87.030154L813.575138,85.881444L812.014681,84.941589L808.574975,83.625794L803.272881,82.435312L799.528126,82.268227L797.543403,82.456197L795.470894,82.853025L792.602717,83.730222L791.218295,84.147935L769.768455,91.938284L764.353190,93.901537L761.995328,94.799620L760.565100,83.813764L757.083174,80.889774L754.311599,79.177152L751.479278,77.067703L750.263936,76.169620L749.177248,75.396852L746.869998,73.746888L740.177348,69.089394L739.285204,68.462825L738.314622,67.794486L737.326264,67.126146L734.954240,65.664153L731.873074,63.554707L731.445329,63.345851L712.409278,90.058575L698.938644,82.790368L692.499331,79.323351L690.695241,78.362612L700.086779,64.766072L707.178632,54.678328L716.040395,42.063440L713.352860,41.791928L710.845202,41.583072L708.309318,41.415988L703.218759,41.228017L700.646307,41.207132L698.081183,41.228017L695.002628,41.311560L693.577342,41.395102L691.257978,41.499530L687.652424,41.771042L685.029833,42.021669L682.396794,42.314067L679.753307,42.648236L677.111923,43.045061L675.143965,43.379231L671.797811,43.964026L669.142858,44.486166L666.495235,45.050076L663.831938,45.676643L660.875864,46.407638L658.514778,47.034205L655.873467,47.786086L653.203930,48.579738L650.648384,49.415161L647.922396,50.292355L645.251844,51.232206L642.893951,52.130286L639.996506,53.195451L639.143279,53.550506L634.747481,55.346667L633.889030,55.722607L632.131350,56.495374L629.545550,57.664967L626.419182,59.147845L624.454491,60.108582L621.791344,61.445261L619.252637,62.781939L616.703483,64.160389L615.994579,64.578101L614.179435,65.580611L611.662717,67.042604L610.576360,67.690058L608.308214,67.731829L607.343024,67.752714L605.892627,67.794486L603.893243,67.898914L603.118377,67.940685L600.498898,68.107770L597.886747,68.316626L597.444423,68.379283L595.241147,68.588139L592.602876,68.901423L589.971934,69.256479L587.312766,69.653306L584.660927,70.091904L582.011193,70.593158L579.333233,71.136185L576.680380,71.720982L574.017078,72.347551L572.419315,72.765263L571.361105,73.015891L569.376454,73.558917L568.712460,73.726002L566.030366,74.498770L563.103602,75.396852L560.711167,76.148735L558.068837,77.046817L555.433836,77.986671L552.788387,78.968295L550.150268,79.991692L547.537254,81.056859L544.913793,82.163798L542.297661,83.312509L539.969083,84.377677L539.373002,84.273249L536.924895,83.897307L534.448563,83.563137L531.093820,83.187195L529.509545,83.124538L526.933881,82.832139L525.479270,82.748596L524.392756,82.685940L521.858961,82.581511L519.296941,82.518854L511.537743,82.623283L508.959036,82.769482L507.716738,82.832139L506.321774,82.936567L503.709617,83.145424L501.589998,83.375166L501.081788,83.416937L498.443510,83.730222L497.098758,83.918193L495.812562,84.085278L493.832040,84.398563L493.153387,84.482105L490.514095,84.941589L487.851801,85.421959L485.209388,85.964986L482.556528,86.549784L479.893219,87.176354L477.237238,87.844695L475.593468,88.304179L474.583362,88.575693L473.685144,88.826321L471.924263,89.327577L469.625931,90.058575L466.599824,90.998429L463.962710,91.875627L461.327702,92.815482L458.700023,93.797108L457.360570,94.319250L452.827993,97.159701L449.600487,100.041924L425.789308,113.575853L421.042490,116.917567L417.158259,119.653596L415.498004,116.625167L414.903782,115.518224L413.331412,112.635997L351.912713,0.000000Z "/></g><g fill="#000" font-family="Arial" font-size="12px" id="mylayer-label" stroke="none"><text text-anchor="middle" y="476.687101752"><tspan dy="0" x="491.210616136"><![CDATA[N]]></tspan></text></g></svg>