<?xml version="1.0" encoding="utf-8"?><!DOCTYPE svg  PUBLIC '-//W3C//DTD SVG 1.1//EN'  'http://www.w3.org/Graphics/SVG/1.1/DTD/svg11.dtd'><svg enable_background="new 0 0 1000 1001" height="1001px" pretty_print="False" style="stroke-linejoin: round; stroke:#000; fill: none;" version="1.1" viewBox="0 0 1000 1001" width="1000px" xmlns="http://www.w3.org/2000/svg" xmlns:xlink="http://www.w3.org/1999/xlink"><defs><style type="text/css"><![CDATA[path { fill-rule: evenodd; }]]></style></defs><metadata><views><view h="1001" padding="0" w="1000"><proj flip="auto" id="robinson" lon0="-95.1716825963"/><bbox h="0.38" w="0.43" x="-1342.11" y="-544.84"/></view></views></metadata><g class="" id="mylayer"><path d="M1000.000000,63.969613L950.364752,64.355992L917.160512,64.781008L772.316777,62.849114L630.777475,61.419512L595.705459,60.994496L560.578289,60.646755L557.898488,60.569479L555.174829,60.530841L531.853822,62.230908L529.659733,62.385460L499.109410,62.308184L313.800057,70.267586L277.126445,134.329002L275.172890,134.329002L272.096526,131.933467L265.456885,125.133234L235.497366,250.975579L146.529190,253.255180L178.772362,124.283205L83.456077,126.562829L13.173590,364.027837L0.000000,413.096684L0.000000,413.096684L6.666263,416.689907L11.807513,419.819488L42.982719,437.476489L49.336064,440.915158L87.736741,461.701700L119.777678,479.629099L126.448083,482.874574L142.011795,491.451896L159.825001,501.690584L168.877790,506.365604L148.276141,593.336128L465.075592,580.354337L534.320990,577.495251L538.183357,579.542975L504.105467,624.399644L503.466342,625.249639L468.702627,662.649391L452.131301,683.590113L405.919708,738.105373L389.529391,758.427798L371.482006,779.406998L354.664616,802.974750L344.422783,814.179076L294.780028,874.759535L245.611805,934.721543L299.471531,937.387373L326.053576,936.344222L410.574278,938.160077L413.938122,938.237348L438.381978,938.160077L490.064807,938.469159L540.059466,856.948601L611.627206,740.268979L695.837529,602.956553L700.194202,595.847484L750.572671,513.706542L834.635241,515.406548L837.754211,514.092907L842.353895,514.286090L844.473736,514.942910L848.100292,517.686102L851.593714,518.767923L853.777887,518.536104L859.843041,515.831550L862.641133,515.058820L876.511348,516.063369L879.636319,505.592874L902.888939,420.012672L918.073627,363.602831L923.593122,343.047949L959.182045,210.715438L981.703765,126.215089L1000.000000,63.969613Z " data-aland="3989185" data-awater="42435" data-classfp="C1" data-funcstat="A" data-geoid="4879828" data-intptlat="+32.4926101" data-intptlon="-095.1774127" data-lsad="43" data-mtfcc="G4110" data-name="Winona" data-namelsad="Winona town" data-pcicbsa="N" data-pcinecta="N" data-placefp="79828" data-placens="02413501" data-statefp="48"/></g><g fill="#000" font-family="Arial" font-size="12px" id="mylayer-label" stroke="none"><text text-anchor="middle" y="381.7997164"><tspan dy="0" x="506.637465882"><![CDATA[Winona]]></tspan></text></g></svg>