<?xml version="1.0" encoding="utf-8"?><!DOCTYPE svg  PUBLIC '-//W3C//DTD SVG 1.1//EN'  'http://www.w3.org/Graphics/SVG/1.1/DTD/svg11.dtd'><svg enable_background="new 0 0 1000 1001" height="1001px" pretty_print="False" style="stroke-linejoin: round; stroke:#000; fill: none;" version="1.1" viewBox="0 0 1000 1001" width="1000px" xmlns="http://www.w3.org/2000/svg" xmlns:xlink="http://www.w3.org/1999/xlink"><defs><style type="text/css"><![CDATA[path { fill-rule: evenodd; }]]></style></defs><metadata><views><view h="1001" padding="0" w="1000"><proj flip="auto" id="robinson" lon0="-84.5606295877"/><bbox h="0.24" w="0.25" x="-1191.1" y="-549.75"/></view></views></metadata><g class="" id="mylayer"><path d="M1000.000000,368.326493L997.904530,294.804793L997.676592,289.144201L976.083228,232.735655L935.737981,164.281636L874.281054,94.445101L807.663651,54.557193L693.609745,23.094391L689.569109,23.094391L624.323644,24.937402L618.881922,25.003223L601.031089,25.529798L522.991064,37.509364L484.468641,47.185161L448.457895,55.939449L387.207118,87.007264L314.355640,125.776135L304.284358,131.239314L230.363592,172.180190L215.109423,181.987557L164.786063,248.335236L134.185713,285.984801L70.034402,362.402643L51.403355,411.373077L49.416937,418.086755L34.200608,470.282225L23.375896,509.774282L14.440642,545.448699L0.000000,603.962487L0.249455,659.448388L25.130461,753.899080L37.625504,794.180339L61.966873,815.505674L77.642163,828.735268L100.077504,854.996969L137.790800,900.214395L198.331409,949.775722L265.794777,973.207058L338.319155,975.905609L397.641418,973.865242L401.599220,973.338695L457.831758,964.519038L488.169070,959.451025L508.736276,951.750274L548.400742,947.208804L553.496659,944.246975L573.005345,940.363688L589.940043,935.953852L610.828978,928.713820L632.402836,919.499230L647.597197,911.601007L665.137107,901.728222L673.180528,896.396917L693.664448,882.904098L714.591136,867.305072L730.978829,851.706031L742.381244,835.909521L823.026327,761.994831L880.108817,709.076200L923.903320,647.535059L956.562422,554.860941L980.123534,487.329641L1000.000000,368.326493Z "/></g><g fill="#000" font-family="Arial" font-size="12px" id="mylayer-label" stroke="none"><text text-anchor="middle" y="493.732003921"><tspan dy="0" x="501.53163187"><![CDATA[N]]></tspan></text></g></svg>