<?xml version="1.0" encoding="utf-8"?><!DOCTYPE svg  PUBLIC '-//W3C//DTD SVG 1.1//EN'  'http://www.w3.org/Graphics/SVG/1.1/DTD/svg11.dtd'><svg enable_background="new 0 0 1000 1001" height="1001px" pretty_print="False" style="stroke-linejoin: round; stroke:#000; fill: none;" version="1.1" viewBox="0 0 1000 1001" width="1000px" xmlns="http://www.w3.org/2000/svg" xmlns:xlink="http://www.w3.org/1999/xlink"><defs><style type="text/css"><![CDATA[path { fill-rule: evenodd; }]]></style></defs><metadata><views><view h="1001" padding="0" w="1000"><proj flip="auto" id="robinson" lon0="-97.3041908594"/><bbox h="1.01" w="0.9" x="-1399.21" y="-438.28"/></view></views></metadata><g class="" id="mylayer"><path d="M702.464471,0.000000L692.586026,0.430282L644.567485,2.515495L602.294605,1.621832L548.015939,2.780284L529.161074,4.716553L497.614490,5.858455L440.800222,5.610215L429.713341,5.709511L404.236806,6.404582L398.964740,35.928550L396.667575,51.153915L395.540947,52.031028L395.220429,52.775747L385.718944,52.742649L368.449832,52.510958L366.413635,52.279268L368.874997,37.153199L365.186907,38.013763L339.665016,43.210246L337.690231,53.123283L311.347313,185.004760L352.265498,185.385394L350.889209,192.832586L345.786381,236.423487L344.010679,243.043214L340.355757,250.688999L333.036849,266.096415L330.022013,272.186564L328.517803,277.813333L307.022434,395.992036L291.577240,473.128438L290.623162,480.178450L281.464375,535.651793L270.067343,597.463534L260.946012,597.860718L259.821959,603.437842L258.729598,609.279755L248.143631,609.279755L241.724028,609.279755L233.704614,611.381520L218.146558,619.738931L207.959474,628.096343L204.197265,631.224166L210.073854,641.302708L211.439279,642.262569L227.065906,653.185127L242.106688,660.615776L262.910322,666.242548L273.212948,666.242548L287.282667,665.199941L291.061478,670.429529L301.286855,684.529559L290.589996,688.104214L240.655810,697.570432L239.292857,697.934517L236.764499,698.033813L229.650402,697.752475L161.444756,701.260933L83.423194,704.322559L72.109334,704.488052L56.901646,704.918335L56.328994,708.393695L53.972654,722.692317L55.861615,721.897949L58.073227,722.526824L66.216842,721.848301L68.782719,721.633160L68.970283,721.616611L94.006371,720.938088L102.570141,720.706397L162.333880,717.247587L205.171788,714.235609L248.470635,710.694052L292.429693,707.533129L292.804820,707.500031L298.913551,707.003551L300.223636,698.811632L317.815394,697.239445L318.767125,690.404571L320.227402,683.437303L316.662689,676.089400L311.424954,666.987268L310.774719,665.150293L313.523949,651.646039L330.346559,628.079793L335.520862,624.554786L339.265505,622.006189L353.734765,612.159338L361.380723,609.097712L368.998342,606.036086L370.211211,606.698060L367.816654,619.143155L363.509797,645.721379L362.366077,648.584413L362.187684,649.047794L361.565906,663.247120L361.631776,664.256629L360.824975,671.637630L360.399048,673.822142L359.449977,687.326396L358.955063,693.582043L395.654101,691.496827L402.964896,691.083094L404.681531,675.808062L432.967716,675.245384L447.209150,674.335171L466.661500,673.375310L485.044321,672.448547L481.506657,692.754577L480.892503,696.296133L480.545029,698.513744L442.842367,701.360229L422.514696,702.866218L440.767587,714.616243L572.444507,804.379823L606.527158,827.615087L643.480930,851.446128L870.467259,999.000000L879.249657,982.599608L908.661569,925.636795L911.378229,920.374106L938.542703,872.976812L939.720840,870.924694L946.027346,859.935936L935.986901,856.659168L928.667383,853.101061L914.812509,847.722528L911.400742,845.802805L910.992238,845.720058L907.940579,843.701039L903.620825,841.152442L896.874151,837.776378L884.748371,832.397844L875.539753,827.946074L871.562166,826.655226L863.069045,823.014372L861.668454,822.650287L854.598412,819.191476L843.032742,812.720687L842.448239,812.174559L835.068830,808.070324L826.741328,802.691791L819.124935,797.230511L811.758765,792.216063L806.771103,787.847039L803.449452,785.480484L796.966405,781.641039L794.134968,779.373780L789.631598,774.359332L782.124363,767.441711L774.541408,760.970922L769.799634,755.311051L759.581401,746.937089L754.684852,742.468769L749.051448,738.281788L744.253626,735.997980L739.884409,734.541639L728.166650,725.522253L723.061061,721.600061L718.669018,717.231038L715.335886,714.500398L712.898933,712.034548L709.887467,708.128905L707.066915,704.190164L706.118118,702.849669L703.545340,700.565861L702.560729,699.473605L701.268327,696.461627L699.524759,691.397531L699.204565,690.454219L697.321691,683.900684L696.179399,680.988002L693.765688,675.874259L692.124947,673.325662L691.007898,673.242915L690.686208,674.417918L689.636850,676.602429L688.155620,677.976024L684.307738,679.068280L684.807782,677.429896L686.716630,675.692216L688.134470,673.789043L688.496160,672.415449L688.015032,670.512276L685.543130,666.954170L682.048423,663.760149L680.138463,661.211552L675.493986,653.383719L672.359335,647.558355L670.471044,643.636163L668.038426,639.813268L663.530018,631.803392L662.456258,628.973457L658.905758,620.500200L658.359718,618.497731L657.277669,616.131177L655.311150,610.487856L654.930186,608.932219L654.862662,607.790315L654.835152,607.293835L655.231118,603.570236L655.414514,602.660023L657.351015,596.917406L657.517744,596.089940L657.434397,594.815641L656.976762,593.640639L655.492968,592.002255L654.554393,588.080064L653.886711,586.259638L652.071168,584.157874L650.599054,582.883575L648.828529,580.980403L648.689335,580.334979L648.899447,578.729694L649.147917,576.793422L649.182196,573.599402L648.965509,572.143061L648.547924,570.769467L647.673537,569.131083L647.154220,568.684252L641.824246,566.863825L639.386013,565.672274L635.208965,562.842339L631.159612,557.199018L629.885155,555.014507L628.013952,551.009569L627.463036,549.453932L625.654571,542.536313L623.881854,537.621163L623.799480,535.569047L623.658877,531.977843L623.514124,528.336991L623.244138,527.145439L621.943944,524.596843L620.329435,522.693670L619.589250,522.147542L618.463937,521.684161L613.248988,521.402823L612.850541,521.270428L610.005559,520.409863L601.774992,516.669715L597.090477,513.757034L591.578973,511.572522L586.169981,509.652801L581.205411,506.723570L575.063066,503.099267L572.848377,501.642926L569.782700,499.276373L562.420348,492.987629L558.979010,488.618607L557.800674,485.887968L556.405813,481.700988L556.025079,480.145352L555.429671,475.859076L555.082814,470.761884L555.057027,470.397799L555.843186,464.390394L556.357077,461.841798L556.987633,459.557991L554.789392,459.988273L554.756249,458.747074L555.761248,455.519956L562.516486,441.767467L565.951079,435.909006L571.394726,420.931867L574.227903,409.413538L575.146339,402.330427L575.306472,398.093800L576.701565,392.020199L577.442379,385.748005L575.583513,382.107154L574.268410,380.899054L573.574025,377.456795L571.551623,371.184601L570.417480,363.108532L569.238965,356.025422L570.151325,348.131396L570.013983,341.296526L575.388357,322.595793L581.943602,308.578518L582.032195,305.119710L581.024428,302.389073L576.001865,290.341168L571.230819,274.520018L566.054878,273.063678L562.280631,272.666494L561.633394,276.224598L563.186700,297.738714L556.403898,316.604939L552.744435,325.260234L552.109431,327.494392L549.500952,331.151792L544.154686,336.017292L540.140068,339.409903L535.761250,342.570824L531.807846,341.726808L518.089806,335.620109L515.166403,332.972217L513.783799,329.149324L513.737552,327.692984L511.681675,325.872558L509.150336,325.144388L506.480546,324.681007L503.979520,322.959878L503.576960,322.777835L501.532186,320.129944L500.184312,317.399306L496.177673,313.659160L492.690501,312.120073L492.229178,308.015841L489.423306,303.100693L488.501192,296.083782L485.509597,293.353144L484.041528,293.816525L481.457752,295.454907L476.111831,293.717229L471.111164,291.532719L466.850102,288.702785L467.472571,286.882360L465.665994,285.161231L459.368042,283.787637L455.731862,284.251018L454.483349,286.154190L448.693231,286.617571L442.350556,286.799613L436.970042,283.969680L432.472792,284.416511L427.251717,283.324256L424.125678,283.787637L418.951277,285.061935L416.493476,283.969680L414.541169,284.234469L411.824568,286.601021L400.905698,288.884827L392.845069,293.717229L387.982520,294.710188L381.446191,293.253848L376.322871,289.149617L374.002122,284.780596L372.330359,274.668962L373.343471,267.122473L376.152436,256.646754L375.112873,246.353078L371.582646,242.430889L370.447494,239.981590L370.347490,237.879827L371.961433,235.430528L373.691173,231.144255L378.673936,225.765726L380.256111,215.753390L384.492978,210.209368L390.035287,200.726610L393.731206,195.265336L399.544295,189.986104L412.409939,181.430107L420.079084,171.450870L424.865971,164.798045L430.267832,158.608602L437.832176,151.955777L439.985422,149.854014L441.665557,148.761759L442.172095,147.586758L452.143076,138.981115L456.977354,136.233929L463.816239,131.980755L467.446004,130.987796L469.535585,131.236036L471.758122,133.983222L472.366330,136.233929L472.212658,140.222313L473.021806,142.390273L472.426904,143.581824L472.404955,145.865629L472.122333,147.686054L470.542716,151.227607L470.393385,153.230074L471.053909,154.239583L471.559228,155.596626L473.757245,159.237476L475.095414,160.329730L475.895111,161.421985L475.937490,161.703323L477.527782,161.968113L477.731654,162.712832L477.684473,163.788537L477.994110,166.535723L478.490485,167.445936L478.136638,168.356148L479.274310,170.441362L480.478794,170.441362L480.844557,170.805447L480.709020,171.897702L478.917096,176.912144L478.002193,178.004399L473.278580,181.397009L468.531282,183.713913L463.722180,184.442083L460.893549,183.432575L459.553536,184.524829L459.016642,188.447017L460.219327,190.631527L468.046117,195.099842L476.792940,196.274844L483.748447,191.723782L486.091767,191.276950L489.965183,189.638568L493.095983,187.818143L501.458027,184.442083L503.881170,184.442083L504.468220,185.815676L511.404183,187.818143L514.001902,190.813569L514.825106,193.544207L517.693493,195.199138L526.422046,194.288926L528.955457,193.742798L530.553859,192.633994L542.892652,191.458993L564.542869,186.907931L571.864880,184.822717L581.445548,181.446657L586.802822,179.477288L591.999516,176.829398L598.297854,173.006506L605.635103,166.635019L612.912609,159.717406L615.904633,156.970219L620.329314,152.882539L626.680475,146.693095L633.252230,139.411397L640.285628,130.756106L651.807832,128.852935L662.652401,130.375471L670.968395,134.595546L677.116795,141.480061L678.578720,147.222673L679.062925,152.965285L678.958011,158.327263L677.486086,163.722340L673.672464,165.906849L670.213105,168.091359L667.756188,169.100867L667.184056,169.829037L666.952013,170.557207L666.978016,172.112843L665.612785,173.751225L661.669997,177.838906L658.951068,181.479755L657.088841,183.614617L656.439182,184.375886L655.479033,186.113564L654.952981,188.298073L656.297549,190.201245L660.447295,191.475542L662.584149,192.402304L664.369741,192.120965L666.248534,192.220261L669.920527,195.861111L674.392781,201.504428L677.711867,208.157253L679.466221,213.155147L682.294927,214.164655L686.093961,217.176631L687.325721,219.990015L688.760557,221.446355L692.522875,224.640373L697.319654,227.834391L706.004647,229.737563L721.025182,234.934048L730.533102,234.023836L739.800528,234.305174L752.183863,236.771023L767.312077,241.785466L771.909722,242.596383L772.848548,244.334061L772.318457,249.067166L767.262201,253.618228L761.572994,256.530909L759.439105,256.431613L757.956875,256.894994L754.458870,260.535844L751.763359,264.904864L752.003256,267.999586L750.979271,271.739733L748.106342,273.196073L740.918790,277.565093L736.467783,279.468265L728.998683,277.929178L724.404874,278.011925L721.166125,279.104180L713.008082,276.274246L707.937528,276.191499L701.018658,279.650307L689.117053,282.099606L683.844052,284.284117L683.030739,286.137640L681.786181,288.934475L685.454468,295.123921L688.839673,297.589770L699.105297,302.405622L709.420475,306.063022L723.998610,309.521830L729.420120,309.621125L733.391973,307.072530L733.957424,308.975702L732.996043,312.897891L732.917460,313.708808L734.561261,313.708808L735.722600,313.079933L736.561853,313.626061L736.560411,315.810571L734.886326,316.803531L733.061994,318.541209L735.767091,321.007058L745.223644,319.087337L755.448128,313.361272L771.737443,288.322151L775.349104,280.676365L777.030627,271.921775L777.792573,266.460500L778.606468,257.722459L778.792835,251.251676L778.555077,246.882656L776.649146,228.943195L776.338274,215.107966L775.956546,210.540355L774.746485,205.443165L774.609804,198.889636L773.217758,192.518149L774.585988,185.319197L774.099101,181.413558L774.655542,178.236089L774.628245,173.668478L773.807983,171.765307L773.004170,162.481141L773.363213,141.893794L772.090785,135.423012L770.722871,131.881459L759.391402,116.209259L754.330514,104.922628L752.927403,103.731077L749.689420,99.626848L742.727327,81.968732L741.721303,80.214505L735.552764,69.573298L726.104082,54.827862L717.831040,44.434895L713.517816,36.325733L713.174066,35.432070L702.432587,7.380991L702.464471,0.000000Z "/></g><g fill="#000" font-family="Arial" font-size="12px" id="mylayer-label" stroke="none"><text text-anchor="middle" y="465.343475042"><tspan dy="0" x="539.660606896"><![CDATA[N]]></tspan></text></g></svg>