<?xml version="1.0" encoding="utf-8"?><!DOCTYPE svg  PUBLIC '-//W3C//DTD SVG 1.1//EN'  'http://www.w3.org/Graphics/SVG/1.1/DTD/svg11.dtd'><svg enable_background="new 0 0 1000 1001" height="1001px" pretty_print="False" style="stroke-linejoin: round; stroke:#000; fill: none;" version="1.1" viewBox="0 0 1000 1001" width="1000px" xmlns="http://www.w3.org/2000/svg" xmlns:xlink="http://www.w3.org/1999/xlink"><defs><style type="text/css"><![CDATA[path { fill-rule: evenodd; }]]></style></defs><metadata><views><view h="1001" padding="0" w="1000"><proj flip="auto" id="robinson" lon0="-98.6633083784"/><bbox h="0.75" w="0.54" x="-1414.19" y="-458.79"/></view></views></metadata><g class="" id="mylayer"><path d="M229.941930,999.000000L234.485033,994.430649L241.276096,988.746823L245.281882,985.559423L245.982518,984.979896L250.935528,981.302128L266.132408,971.227273L294.943836,953.217363L311.610212,942.785886L319.718619,937.681596L343.986789,922.368731L352.081182,917.242154L357.163069,914.010183L372.365697,904.336560L377.433546,901.082300L388.375064,893.949678L409.906528,880.576015L417.363331,875.917524L507.318268,818.923504L529.969110,804.546851L539.764691,798.283536L556.735788,787.428613L646.254381,730.947411L649.938722,728.517874L666.287363,718.064183L665.342359,715.991277L664.769919,714.720786L664.098224,711.511125L668.967796,710.931603L671.052689,708.078571L672.502598,706.362294L674.348184,704.579150L675.197555,703.420106L676.931658,700.433339L677.726196,698.583327L678.230213,696.755604L678.470442,695.596560L681.080392,682.312141L694.644524,617.428085L697.508651,603.096104L699.797531,591.505705L701.354975,584.885806L701.743774,580.851458L701.588513,578.823139L701.341142,577.886992L700.428029,576.438193L699.172276,574.989394L698.509692,574.632767L699.950158,569.216489L704.495160,548.821870L705.704546,543.673067L712.583945,514.295929L714.912795,503.976045L720.478985,480.639303L726.336605,454.471859L727.217933,450.704997L731.367093,432.851415L732.300959,429.530338L733.716267,425.674323L735.047114,422.620716L736.529687,420.079759L735.052744,417.494223L744.425266,371.043779L752.360197,331.614450L763.339393,222.175485L767.790802,177.753630L769.186897,172.627179L781.228786,128.316842L784.601035,115.901935L787.131031,113.361003L829.042188,111.845360L832.186956,108.769495L845.947821,44.399304L855.424749,0.000000L771.343748,1.047573L573.132669,3.454763L519.101580,4.101138L495.015297,4.390892L435.011460,5.104134L423.962116,27.727268L383.156034,111.087538L382.970930,111.488738L368.768825,139.862487L353.813366,170.665754L300.192908,279.480442L298.325153,283.314149L278.209541,325.863879L261.158359,361.281170L256.231943,372.737747L251.019201,385.643119L246.237853,399.172590L210.151658,527.179071L203.023592,552.388141L144.575251,758.965105L166.268595,760.191019L170.615150,760.503070L183.659802,761.416934L187.992309,761.706695L192.310765,761.974167L205.247101,762.776584L209.546523,763.044056L213.879031,763.333818L226.838487,764.203102L231.151960,764.492864L234.363159,764.604310L241.723308,764.804915L243.968655,764.894072L247.160817,765.005519L247.954438,765.116965L250.002623,765.406727L250.234227,765.562752L250.843830,765.986250L251.308394,766.632641L251.548605,767.345901L251.580770,769.329653L251.474254,769.976044L251.292953,770.956776L249.807666,777.086349L248.529078,781.611089L247.928993,783.527974L247.084165,786.113541L246.560231,788.030426L245.316575,792.399142L241.566651,805.505294L240.308997,809.851724L239.083539,814.309601L235.407248,827.683235L234.181845,832.141114L242.975160,830.870619L254.918946,829.132046L263.381694,835.127894L266.105719,835.885733L273.955085,838.070095L271.607698,846.183438L264.489662,870.523482L262.109367,878.614545L261.399023,882.983274L259.234985,896.067175L258.510643,900.413617L257.145454,905.072112L253.069012,919.047601L251.689830,923.683809L250.437536,928.007965L246.699769,940.980438L245.428491,945.304597L244.204369,949.673335L240.508063,962.801843L239.269940,967.148295L237.407093,973.523091L231.818720,992.647488L229.941930,999.000000Z " data-aland="10230027" data-awater="0" data-classfp="U1" data-funcstat="S" data-geoid="4841569" data-intptlat="+27.3378377" data-intptlon="-098.6628902" data-lsad="57" data-mtfcc="G4210" data-name="Las Lomitas" data-namelsad="Las Lomitas CDP" data-pcicbsa="N" data-pcinecta="N" data-placefp="41569" data-placens="02408580" data-statefp="48"/></g><g fill="#000" font-family="Arial" font-size="12px" id="mylayer-label" stroke="none"><text text-anchor="middle" y="432.554071223"><tspan dy="0" x="488.857918639"><![CDATA[Las Lomitas]]></tspan></text></g></svg>