<?xml version="1.0" encoding="utf-8"?><!DOCTYPE svg  PUBLIC '-//W3C//DTD SVG 1.1//EN'  'http://www.w3.org/Graphics/SVG/1.1/DTD/svg11.dtd'><svg enable_background="new 0 0 1000 1001" height="1001px" pretty_print="False" style="stroke-linejoin: round; stroke:#000; fill: none;" version="1.1" viewBox="0 0 1000 1001" width="1000px" xmlns="http://www.w3.org/2000/svg" xmlns:xlink="http://www.w3.org/1999/xlink"><defs><style type="text/css"><![CDATA[path { fill-rule: evenodd; }]]></style></defs><metadata><views><view h="1001" padding="0" w="1000"><proj flip="auto" id="robinson" lon0="-102.4163885"/><bbox h="0.49" w="0.64" x="-1442.1" y="-552.01"/></view></views></metadata><g class="" id="mylayer"><path d="M1000.000000,120.103679L979.928295,119.763863L971.913198,119.763863L961.911327,119.659304L955.041250,119.580885L879.581180,119.607024L847.038710,119.946841L845.751487,119.920701L823.483873,119.580885L808.869515,119.685443L783.698019,119.842282L771.436435,119.868422L748.514207,119.790002L733.106172,119.972981L676.539352,119.972981L659.329654,119.816142L636.303924,119.580885L621.955149,119.816142L600.241748,119.528605L590.768978,119.554745L583.956414,119.502465L569.777085,119.345627L519.053482,119.476326L506.763644,119.659304L475.450944,119.450186L469.675683,119.450186L438.655748,119.424046L431.495984,119.633164L419.459410,157.640227L383.288356,271.660094L371.241220,309.640138L359.137334,347.044909L322.780916,459.205671L310.666360,496.583455L309.769117,496.505040L294.889246,494.074184L285.958575,492.061538L274.890394,489.317021L263.685233,486.520226L238.834084,478.260526L208.604779,467.935885L179.497695,457.741921L173.381191,455.650849L139.672037,444.123806L138.127574,448.332094L136.045672,455.180358L134.781486,459.336363L126.541922,483.984813L125.210881,488.349905L121.843064,499.354107L119.739414,506.751221L114.380961,523.427369L109.696975,537.515807L106.236328,547.918752L81.028980,626.698316L73.030086,651.973446L63.743755,681.273656L60.895414,690.108128L48.674670,728.033492L25.947222,798.394793L12.121525,841.756011L11.118335,844.892435L7.352173,856.392645L0.000000,879.654373L35.261731,879.131639L56.062426,879.053228L91.602431,878.896408L136.922691,878.922545L223.762720,878.635041L279.677783,878.425947L285.923218,878.399810L295.195250,878.661177L299.362698,878.608904L316.074279,878.269126L331.361642,878.399810L341.206637,878.242990L347.589086,878.269126L353.929745,878.425947L358.607553,878.425947L374.678154,878.373673L378.295583,878.530494L385.911971,878.269126L394.628568,878.138443L401.661506,878.190716L425.430114,878.033896L434.843256,878.060033L451.147075,878.033896L471.957278,878.269126L487.541613,878.295263L513.539988,878.582767L529.997538,878.556630L551.996779,878.713451L600.760728,878.478220L603.892871,878.504357L658.934902,878.896408L660.142787,878.896408L679.430267,878.948681L683.273537,878.948681L714.476607,878.687314L737.298926,878.948681L756.531019,879.105502L768.673551,841.128726L805.083723,727.197098L817.207319,689.219454L829.383953,651.215455L865.877598,537.123735L878.052025,499.066587L878.802478,496.583455L884.463612,479.436749L888.035348,468.615482L890.669542,460.930804L893.613107,451.730089L901.648703,427.917950L904.007023,420.546887L908.459260,406.562754L910.230137,400.890677L914.840346,386.070065L927.953470,344.744692L942.676613,298.321951L948.335331,280.913339L952.465493,267.869920L961.024104,241.469332L968.421301,217.943966L970.964474,210.546528L982.000249,176.957349L982.209405,176.303862L993.775049,139.551611L997.449107,128.416109L1000.000000,120.103679Z " data-aland="9174741" data-awater="0" data-classfp="U1" data-funcstat="S" data-geoid="4843948" data-intptlat="+32.9141886" data-intptlon="-102.4147094" data-lsad="57" data-mtfcc="G4210" data-name="Loop" data-namelsad="Loop CDP" data-pcicbsa="N" data-pcinecta="N" data-placefp="43948" data-placens="02586954" data-statefp="48"/></g><g fill="#000" font-family="Arial" font-size="12px" id="mylayer-label" stroke="none"><text text-anchor="middle" y="519.644457719"><tspan dy="0" x="528.447453536"><![CDATA[Loop]]></tspan></text></g></svg>