<?xml version="1.0" encoding="utf-8"?><!DOCTYPE svg  PUBLIC '-//W3C//DTD SVG 1.1//EN'  'http://www.w3.org/Graphics/SVG/1.1/DTD/svg11.dtd'><svg enable_background="new 0 0 1000 1001" height="1001px" pretty_print="False" style="stroke-linejoin: round; stroke:#000; fill: none;" version="1.1" viewBox="0 0 1000 1001" width="1000px" xmlns="http://www.w3.org/2000/svg" xmlns:xlink="http://www.w3.org/1999/xlink"><defs><style type="text/css"><![CDATA[path { fill-rule: evenodd; }]]></style></defs><metadata><views><view h="1001" padding="0" w="1000"><proj flip="auto" id="robinson" lon0="-99.1618473878"/><bbox h="0.15" w="0.16" x="-1423.86" y="-446.27"/></view></views></metadata><g class="" id="mylayer"><path d="M1000.000000,27.944149L985.521269,38.379955L913.584768,83.908718L783.776737,168.520617L709.522658,216.300260L696.574792,224.894458L597.300711,290.681004L513.140972,348.794168L479.612058,370.177360L436.153246,397.085397L429.001236,401.484811L378.150643,434.736191L358.772186,445.990506L348.185542,450.492231L312.514975,476.991028L289.397235,492.235510L281.457858,497.044172L263.391914,507.889241L226.385486,530.807123L190.954255,553.725006L145.003711,584.930162L78.516413,629.538194L51.068541,647.852044L10.913518,674.043920L8.748352,675.578601L2.230842,679.875705L0.000000,681.308074L26.451064,684.888995L74.709833,679.773393L87.966401,677.522529L131.867420,662.891910L153.630026,651.126028L163.777800,643.759563L176.898198,630.254378L187.458507,615.623762L191.941858,612.247466L214.691414,606.108746L224.227896,601.607018L236.934580,592.501250L249.311493,579.609939L266.834311,577.870635L297.303820,565.490884L319.154023,553.725006L331.401541,545.130800L377.198403,512.595591L383.543012,513.209463L385.908321,519.348181L345.579789,600.481586L341.167468,616.237634L338.464570,638.746275L338.954818,659.004054L341.891359,670.258375L347.649848,681.001138L357.542362,690.004596L367.628978,692.767021L386.946563,692.869333L403.092929,695.120197L406.660431,698.496494L407.275027,702.998223L400.540937,712.001682L385.845611,725.506871L349.717595,754.154242L315.169572,793.032822L283.153357,865.162831L273.448449,883.169757L272.142295,896.674953L274.160133,907.315410L281.058860,922.559913L288.269419,949.058747L294.159388,959.187646L305.451711,966.554118L324.880993,971.055851L340.085172,969.930417L349.272227,967.065678L363.576654,960.313079L396.270789,935.041989L427.078270,898.925819L434.907062,892.173221L446.500135,888.285362L467.852354,888.285362L509.351903,884.909063L546.502796,891.661660L567.702424,892.787093L599.517491,904.041423L606.342401,902.404430L641.876744,869.153002L661.508373,839.891748L686.489292,788.019531L698.353827,756.609731L702.614570,745.253094L713.560648,666.472831L716.508918,655.116197L718.733282,639.360147L725.288352,621.353234L760.176365,558.329045L770.228071,531.318682L780.196949,514.948767L794.250626,483.948241L802.932466,476.070220L809.408073,476.070220L813.894566,480.060386L821.208233,495.816429L825.745987,517.199630L833.582855,528.453947L846.254361,539.196705L852.139074,538.685145L851.612953,536.229657L850.317888,526.305396L845.182512,488.859215L843.383265,476.377156L841.715395,464.099721L840.813980,453.561590L840.785260,437.293990L841.764889,425.732740L844.231327,412.125252L865.005408,336.516738L880.431333,288.430142L882.463261,281.779868L887.228969,272.981045L900.347752,254.155657L919.740548,223.155156L935.786502,192.666218L953.404029,152.355343L969.642905,110.305173L973.642794,100.585548L983.128899,77.463073L996.525929,40.119256L999.388323,30.399633L1000.000000,27.944149Z "/></g><g fill="#000" font-family="Arial" font-size="12px" id="mylayer-label" stroke="none"><text text-anchor="middle" y="538.52504297"><tspan dy="0" x="571.264106109"><![CDATA[N]]></tspan></text></g></svg>