<?xml version="1.0" encoding="utf-8"?><!DOCTYPE svg  PUBLIC '-//W3C//DTD SVG 1.1//EN'  'http://www.w3.org/Graphics/SVG/1.1/DTD/svg11.dtd'><svg enable_background="new 0 0 1000 1001" height="1001px" pretty_print="False" style="stroke-linejoin: round; stroke:#000; fill: none;" version="1.1" viewBox="0 0 1000 1001" width="1000px" xmlns="http://www.w3.org/2000/svg" xmlns:xlink="http://www.w3.org/1999/xlink"><defs><style type="text/css"><![CDATA[path { fill-rule: evenodd; }]]></style></defs><metadata><views><view h="1001" padding="0" w="1000"><proj flip="auto" id="robinson" lon0="-109.397083508"/><bbox h="0.95" w="1.03" x="-1503.94" y="-649.37"/></view></views></metadata><g class="" id="mylayer"><path d="M1000.000000,656.341203L906.581543,542.954718L878.683394,509.378325L878.496023,508.180352L877.627843,507.113664L869.927182,497.529914L861.875993,488.241601L854.261703,479.527698L852.268281,477.246665L667.669312,474.145120L701.610193,395.377529L707.656954,381.347414L715.295601,364.741152L719.211350,356.241168L708.548413,356.027848L527.490567,352.467057L429.947145,350.563595L415.947801,338.568551L387.022573,325.424962L367.669734,325.621869L368.148497,316.186768L368.801932,303.371518L375.708631,289.424168L358.660362,288.669373L365.382294,268.913556L362.939374,260.381211L355.095927,259.068546L349.393705,252.931851L350.204188,248.107832L356.177579,249.847103L362.882964,242.594684L359.010093,227.925856L338.898255,227.367983L370.966826,153.910823L384.747390,122.261353L378.890809,112.646851L371.993181,101.211240L369.352664,94.697732L368.390830,88.873332L369.517541,76.240190L372.316068,67.938460L373.895836,64.542309L383.595094,50.547611L385.598976,47.660090L383.224526,47.610871L380.331110,47.561652L89.285787,42.295220L51.266469,41.606155L30.217576,87.872521L0.000000,155.617187L5.279266,166.724999L7.647891,176.815612L11.490242,177.832880L12.918459,179.588490L16.546277,193.633428L16.337478,201.066132L17.510577,203.773417L23.816896,215.193279L28.336693,225.612327L29.802357,229.960451L30.394988,234.800829L29.439709,236.654943L27.704669,238.180897L25.811160,238.820813L24.521656,240.363177L24.716753,241.856318L27.322674,243.218194L28.510468,245.039501L28.358445,250.257308L30.478674,253.243608L31.085076,256.033013L32.504267,259.166996L37.845608,265.369346L38.205123,271.867070L40.647278,276.740378L41.873439,279.070382L42.258008,281.597291L41.671613,284.501600L40.870161,287.537182L41.751883,290.589178L44.180155,291.836231L46.927165,294.346750L49.777148,300.335909L51.670358,302.977709L51.783234,309.524796L51.154833,313.380860L52.015250,318.566050L52.356789,322.110365L54.707201,327.738621L57.089582,333.859164L57.870282,339.864865L61.783662,349.234455L61.305019,356.585761L63.020675,358.702549L64.031014,361.639802L63.834063,364.757561L63.714979,377.031740L64.326751,382.397618L64.099119,388.649624L64.343163,394.540642L65.924374,398.807129L66.915742,402.105459L63.620632,410.835396L64.528967,413.510179L66.464695,416.020868L67.521691,420.205357L67.717453,424.980610L69.143008,436.024456L71.175378,440.389502L73.034047,447.691952L73.763014,457.800561L75.850749,464.938980L76.787681,468.746148L77.526188,473.308196L77.653129,478.247694L79.988218,486.157481L81.587916,489.308278L86.041379,497.497093L89.241761,505.406965L88.463276,507.064433L91.068312,511.019385L93.343305,519.799084L94.784951,522.441207L98.141293,524.361262L99.661955,527.889573L98.282361,533.436420L99.026852,538.901230L98.743279,549.995009L100.653721,555.377813L100.692634,557.527658L100.316707,561.072445L100.645291,563.419229L102.742686,568.769252L104.504709,572.199182L107.216302,580.355552L109.862237,587.625747L113.480613,597.357679L115.771915,602.248282L119.382074,609.157512L120.893966,613.687093L123.939630,622.631407L125.669702,628.096487L128.613229,632.576881L131.022437,634.661170L133.321343,637.828638L134.820001,640.684287L137.029549,645.296006L139.194014,650.235974L140.747535,651.729456L141.295596,656.209908L144.626175,662.741868L146.268076,666.647926L147.472690,670.012395L148.564662,675.034491L150.742668,679.974541L153.187511,682.764608L154.612212,685.259260L156.600410,691.692852L157.806900,695.369200L159.122397,697.617685L161.485601,700.949386L164.823879,707.021961L167.043410,711.453313L169.636668,715.819025L172.259461,719.577485L173.442986,721.760350L174.515831,725.059270L177.032688,731.755605L177.689324,733.167091L182.143344,736.433207L183.988801,738.845869L185.798388,741.849392L186.386668,743.802506L186.408117,747.954930L186.984476,752.369969L187.822814,754.930368L188.842972,756.079266L189.657886,756.735779L191.092417,758.196523L192.220699,762.217677L193.427678,764.187225L198.398360,768.471000L204.059639,772.853262L206.229564,774.527388L208.351852,777.547383L209.583418,781.355210L210.958877,783.620214L213.471783,788.051753L216.055366,792.220691L217.323877,794.518535L219.838386,796.291160L226.174353,801.379259L229.270468,805.974974L233.336698,810.669180L235.733062,814.050329L238.007105,817.595618L239.140612,820.878300L240.042766,824.489256L241.132664,830.151907L241.689221,832.023047L241.840650,834.698453L241.252345,837.012765L244.082309,842.051737L245.104208,846.959414L248.658748,856.348050L251.548891,862.667352L252.706284,867.000600L252.285105,870.562406L250.765918,874.550981L250.487219,877.078724L250.947180,879.179708L252.935662,880.558480L256.311855,883.004162L257.955810,884.284453L261.084990,890.226328L263.417657,892.589952L268.347638,895.265447L271.506380,898.006603L274.312439,902.471248L276.119711,903.521755L277.792466,906.821005L280.204649,912.664468L282.963825,916.292021L285.998679,918.442293L287.879777,919.886752L289.374193,924.400694L292.486429,930.605331L296.697902,935.874364L299.839025,940.207786L302.118271,946.494549L305.431446,953.930357L390.747014,955.456917L528.491083,956.605942L528.763693,956.622356L555.081566,956.835747L620.400042,957.393845L687.577778,956.917820L820.855561,955.932941L868.145656,955.588234L901.734609,881.280694L947.821266,779.254339L974.815998,719.577485L971.821384,719.577485L988.866188,680.795148L1000.000000,656.341203Z " data-aland="24042834" data-awater="0" data-classfp="C1" data-funcstat="A" data-geoid="4911000" data-intptlat="+38.6325261" data-intptlon="-109.3965974" data-lsad="43" data-mtfcc="G4110" data-name="Castle Valley" data-namelsad="Castle Valley town" data-pcicbsa="N" data-pcinecta="N" data-placefp="11000" data-placens="02413180" data-statefp="49"/></g><g fill="#000" font-family="Arial" font-size="12px" id="mylayer-label" stroke="none"><text text-anchor="middle" y="558.146878227"><tspan dy="0" x="460.4371943"><![CDATA[Castle Valley]]></tspan></text></g></svg>