<?xml version="1.0" encoding="utf-8"?><!DOCTYPE svg  PUBLIC '-//W3C//DTD SVG 1.1//EN'  'http://www.w3.org/Graphics/SVG/1.1/DTD/svg11.dtd'><svg enable_background="new 0 0 1000 1001" height="1001px" pretty_print="False" style="stroke-linejoin: round; stroke:#000; fill: none;" version="1.1" viewBox="0 0 1000 1001" width="1000px" xmlns="http://www.w3.org/2000/svg" xmlns:xlink="http://www.w3.org/1999/xlink"><defs><style type="text/css"><![CDATA[path { fill-rule: evenodd; }]]></style></defs><metadata><views><view h="1001" padding="0" w="1000"><proj flip="auto" id="robinson" lon0="-121.793215295"/><bbox h="1.86" w="1.74" x="-1679.85" y="-638.59"/></view></views></metadata><g class="" id="mylayer"><path d="M444.612625,0.000000L413.482817,2.670175L388.973576,8.943277L381.874904,23.931161L381.021780,25.723499L380.183472,27.662152L377.866136,33.011752L375.637219,38.151044L374.866503,39.925110L374.548225,40.656684L369.251481,52.892314L322.647176,87.715946L322.513967,88.008585L319.278147,95.068518L316.695945,100.692712L311.162660,112.654483L303.325263,129.582198L294.557164,148.540370L291.575593,154.978703L285.780135,160.475087L284.757368,161.307320L274.155625,171.623388L269.504693,176.150408L263.262264,179.863489L262.100468,181.326775L260.472479,183.375377L261.980634,183.933256L275.245704,188.313984L278.746935,189.356581L284.501328,191.011934L289.701838,192.566687L300.650317,195.758508L311.615989,198.977772L322.558595,202.215335L327.332991,203.632914L336.558332,206.349183L335.744720,206.998527L335.101320,207.501541L333.069375,209.120330L332.530048,209.541033L329.789913,211.626257L326.863288,213.665755L324.777136,215.110782L322.449070,216.729580L316.915464,220.561657L315.478778,221.604276L313.159537,223.268810L310.862509,224.933346L307.731511,227.210653L303.116107,230.375110L302.524720,228.436194L298.583960,226.927133L293.968866,225.061387L293.304320,224.878471L292.787420,224.777867L292.250636,224.704701L291.889701,224.668118L290.939736,224.640680L290.160542,224.677263L289.456793,224.759576L288.747967,224.869325L287.504330,225.161991L286.873275,225.344907L285.829107,225.719885L284.430561,226.222905L283.083416,226.808237L281.692838,227.521611L278.912880,228.555089L277.413435,229.003235L275.941207,229.277610L274.522565,229.369068L273.518446,229.314193L271.654330,228.692277L266.202030,226.469842L249.849436,219.793412L244.393992,217.561844L232.002254,212.513393L194.840289,197.340702L182.445819,192.283173L182.073280,192.109406L180.937618,191.578961L180.561838,191.396049L179.489564,190.856459L178.456632,190.344305L178.248034,190.591236L176.458144,192.914220L175.314373,194.386664L173.236355,197.066333L171.109336,199.837464L169.723700,201.630013L168.712240,202.974426L167.975033,203.943868L166.754068,205.553508L164.116586,209.202642L161.984602,212.147563L159.837566,215.613798L157.533850,219.473310L153.845327,226.881404L152.116536,231.088486L150.359703,235.633977L141.520360,258.663455L140.844254,260.410344L129.848581,288.754128L128.413494,292.577241L128.112604,293.190038L129.190298,293.180892L136.984965,293.135161L137.499979,293.126014L150.456929,293.190038L155.130484,293.153453L160.274217,293.190038L161.721180,293.199184L166.091270,293.308939L165.541343,294.534533L164.581746,301.659460L168.268117,306.561869L176.535173,320.702114L176.716303,321.003945L176.481811,321.177726L141.622752,346.211595L136.631381,349.797042L136.425194,350.071439L126.966366,362.327880L125.062640,362.346173L124.518428,362.940705L124.093701,363.663289L124.377319,362.355320L123.599905,362.355320L122.581407,362.364467L121.562909,362.373613L120.070558,362.382760L118.637439,362.391906L105.901340,362.492519L105.042482,362.492519L92.673334,362.583986L75.541622,362.712039L62.724076,362.812652L62.424685,363.471210L61.049241,366.480458L57.534060,374.538686L46.582051,399.234997L36.716303,421.544341L33.441200,428.962567L54.567052,428.779626L76.864453,428.413745L101.732533,428.614980L41.658741,560.987354L47.629264,561.014797L87.091177,561.042241L97.797449,561.060536L107.397171,561.069684L141.951238,561.892988L142.450603,561.902136L139.095566,569.421663L139.008342,569.613768L138.578723,570.592590L145.508595,577.069297L154.866662,585.814724L159.045953,587.031403L160.660138,588.385303L163.771598,588.431043L165.160641,588.568263L165.595173,588.540819L167.466587,588.431043L169.585963,588.248084L171.370164,588.330415L174.975784,588.641447L175.236401,588.687187L175.996196,588.595707L178.362123,588.668891L196.744453,588.970774L201.586833,589.053106L205.297182,589.117142L224.353356,589.419025L231.685199,589.547097L232.206640,588.431043L241.890100,588.321267L241.436468,591.294363L241.322049,591.888982L241.247155,592.282346L241.034930,593.434995L240.956785,593.819211L240.280960,597.396087L238.386263,607.312583L238.257817,608.117614L237.884736,610.358899L237.284117,611.731115L236.938585,612.508705L235.498742,615.061032L232.687094,618.857512L226.748975,626.002238L222.193558,631.079496L219.226546,634.272231L219.084270,634.455196L215.373554,639.221440L213.242014,642.139742L211.692910,644.884232L208.533947,649.952403L205.510350,654.526579L204.685563,656.017763L202.689751,660.171130L200.016310,666.062709L198.998018,667.800912L197.551134,669.520820L195.818267,671.560926L194.853836,672.805118L193.079065,676.455362L191.504192,678.294210L189.518766,679.520110L184.526209,690.278795L188.564256,693.407610L187.935044,694.990317L188.473499,695.109249L190.081462,695.466044L190.616663,695.575828L191.494201,695.877732L192.860438,697.012159L193.693599,697.917872L194.262679,699.226125L194.775392,700.022055L198.506772,702.913025L199.584651,703.736403L200.632496,704.870837L200.576902,705.401459L200.401360,705.886338L199.719972,706.947583L198.504668,708.402223L195.526821,710.918111L193.139790,712.180631L190.208353,713.369963L184.431004,715.968198L179.160719,717.889431L175.973353,719.087915L171.443594,721.009152L167.088377,730.414097L163.331321,738.190602L161.798798,741.667169L161.460872,742.444823L159.982256,746.031187L158.852564,748.766709L143.897613,779.928214L142.394744,783.258487L121.338619,829.727509L121.753618,829.873899L164.460146,829.764107L211.189450,829.471326L215.519408,829.443878L227.434840,829.754957L237.399046,829.681762L241.204690,829.471326L247.173683,829.242592L251.320866,829.242592L255.414730,829.196845L259.704400,829.160248L259.600711,829.388982L257.979911,832.948094L236.093106,833.085335L162.882705,833.570253L119.527043,833.853885L117.275526,838.803720L113.813456,846.489262L105.161020,866.115009L124.607774,878.256560L149.308267,883.252282L170.537258,895.467161L207.658398,894.954774L229.581407,894.771779L218.029843,920.885388L271.377378,950.110441L318.394469,977.606632L321.701307,979.528181L338.503329,989.346414L380.373654,998.908497L381.080257,999.000000L382.050660,997.380390L382.135031,997.243134L383.097152,995.641826L383.955949,994.186925L385.806770,991.048369L385.944130,990.810461L386.870120,989.190859L387.384031,988.284980L390.102620,983.737295L390.499634,983.105927L391.522811,981.468032L394.442926,976.966117L395.456598,975.218426L396.237245,973.772693L396.977603,972.317811L397.669383,970.872081L398.320875,969.417202L400.088807,965.235576L400.312589,964.741468L401.127485,962.893138L403.140412,958.546827L407.805307,948.737932L410.236071,943.485805L410.335539,943.266204L410.793202,942.223101L411.502532,940.722498L412.255421,939.240196L413.557580,936.888646L414.817760,934.793299L415.627060,933.677002L416.265818,932.871804L416.948130,932.084907L417.666590,931.316310L420.657507,928.424925L422.695080,926.411938L424.696513,924.380654L425.626433,923.374163L426.922049,921.772928L427.502458,920.949437L428.042577,920.116796L428.542406,919.275006L429.577545,917.316930L430.933900,914.535368L433.783391,908.441569L435.050316,905.595974L435.507119,904.342450L435.877152,903.198724L436.191201,902.064149L436.460210,900.865527L436.572586,899.996297L436.582039,899.877350L436.636382,899.136218L436.647455,898.294438L436.412106,894.890726L436.087728,892.026856L435.992015,890.407353L436.013772,889.574728L436.084997,888.714654L436.214586,887.872880L436.373239,887.195802L436.556205,886.628520L428.636602,886.454675L427.528978,886.463825L426.408032,886.518723L425.269617,886.628520L424.322871,886.756616L424.110475,886.784065L422.178786,887.140904L409.713340,889.693674L407.945463,890.032214L406.167525,890.425653L404.383669,890.864840L402.586491,891.349775L400.786657,891.889610L397.664662,892.127503L395.418617,892.246450L393.197446,892.310498L390.997002,892.328797L388.821433,892.292198L386.666592,892.209851L385.702938,892.228150L373.446464,892.374546L367.829236,892.447744L365.584356,892.466043L386.222082,847.038230L386.921976,845.510268L392.556549,833.094484L395.284934,826.699067L403.781907,826.644171L496.855194,826.058612L502.559950,826.314794L595.854217,826.058612L597.998889,825.967118L624.283105,826.012865L645.015978,825.692637L661.316109,825.381559L665.580888,825.399858L668.252847,825.354111L685.576195,785.509170L686.195222,784.274039L691.465907,772.105758L696.981276,759.480123L697.347103,758.656715L697.202550,758.583523L696.967946,758.382246L696.913146,758.290756L696.803546,758.107777L696.701648,757.613733L696.803253,757.046497L698.448467,753.515002L701.105038,747.687138L708.309649,731.859609L716.079749,714.998434L716.303733,714.504403L721.009305,704.093201L724.254033,696.920673L726.358973,692.245739L726.733210,691.404070L728.990220,686.344913L732.871989,677.882527L733.978186,675.394137L736.286932,670.188657L737.197864,668.212592L738.419071,665.568694L738.763421,664.809374L739.467826,663.272440L741.684795,658.432935L742.053156,657.637026L743.263759,654.983997L745.494149,650.098777L745.954698,649.083311L749.197872,641.883590L753.873333,631.363091L755.882890,626.834725L757.302848,626.871317L758.803688,626.843873L761.453758,626.862169L775.894840,626.907910L776.553879,626.907910L776.798242,626.907910L777.531330,626.907910L779.882842,626.898762L781.122721,626.907910L783.836181,626.917058L787.419274,626.935355L791.313373,626.953651L803.147346,626.935355L803.247759,626.926207L814.325217,627.008540L815.080520,627.008540L815.324882,627.008540L823.941542,627.063430L824.793109,627.063430L826.548077,627.063430L830.460243,627.090874L858.059574,627.218949L864.532954,627.264690L880.275523,627.347024L889.373506,627.401913L891.113665,627.401913L891.549664,627.420210L892.308910,625.746089L892.873163,624.501935L895.551620,618.628808L898.591125,611.959818L901.618273,605.318301L904.598080,598.814032L904.867909,598.823180L915.574115,574.764025L922.104090,560.484224L922.195393,560.282972L922.787968,558.993131L929.098432,545.198304L931.818452,539.252296L932.436882,537.889291L932.273051,537.303840L932.185525,536.974524L931.921819,535.858508L929.283861,526.381553L927.904503,521.441851L921.434414,498.252904L918.960303,489.379908L917.194734,483.269462L912.268359,466.228032L910.223310,459.184662L907.082441,449.662442L906.449056,447.714099L906.191820,447.073799L903.234787,439.838428L901.790661,436.463152L899.410441,431.349944L899.162634,430.819416L898.598391,429.648594L898.497247,429.447360L897.976176,428.377157L892.536832,417.135498L891.228312,417.995313L870.492489,384.042145L872.137524,382.816479L870.644976,380.282830L870.212885,379.587677L869.595357,378.599830L865.946869,373.624016L865.208551,372.608732L857.168902,362.858385L856.557717,362.117507L853.641748,358.577764L852.700858,357.617370L841.791239,347.373206L843.017602,346.156716L847.870874,341.373084L848.250266,340.440140L848.900271,338.976700L851.181291,333.808940L853.271223,329.061933L855.546429,325.357631L858.712799,320.180770L861.808576,315.159415L870.807870,300.534470L871.115156,300.086303L874.474024,295.138184L877.351478,290.940070L878.129470,290.107765L884.805095,280.467701L888.876819,274.586743L894.408016,266.602213L895.440883,265.111406L904.610220,251.858839L908.557030,246.188349L912.016705,242.795211L915.157472,240.380691L916.077233,239.676457L919.423365,237.152192L920.603949,236.265042L922.235390,235.021204L923.560944,232.039654L924.191383,230.603756L924.713148,230.384256L925.884358,229.908672L926.284343,229.012381L926.810863,227.805132L927.206695,226.917987L926.743524,226.927133L920.569570,226.991154L923.705344,221.704880L925.398937,218.842251L929.648443,212.229875L935.369029,203.212213L941.180431,194.158023L941.814440,193.023967L941.891590,192.219153L941.482967,191.505796L942.282995,190.234558L942.703141,189.603512L953.556149,191.835038L956.087599,186.055027L956.221561,185.744078L961.570058,174.028651L964.030318,168.715127L964.856875,166.913472L966.558800,162.926060L965.768076,162.971787L966.097083,162.313316L966.188564,162.112117L963.640951,162.130408L962.017319,162.102971L962.361906,162.615115L962.517470,162.761442L962.628711,163.054096L961.508905,162.944351L961.323825,162.944351L957.963180,162.862042L957.274683,162.862042L955.920811,162.843751L950.913508,162.898623L950.494266,162.843751L948.695288,162.843751L943.296024,162.816315L941.497960,162.798024L940.579964,162.798024L937.834290,162.779733L936.920452,162.770587L935.902969,162.761442L935.431905,162.706569L930.785437,162.651697L929.868354,162.633406L919.807407,162.633406L919.322696,163.666840L910.646648,182.634588L910.317153,182.561423L910.078828,182.515696L907.732604,182.058418L906.394745,181.793198L872.103462,175.034656L869.711018,174.613963L853.243675,172.812301L850.376108,172.492209L847.233388,172.419045L843.710362,172.400754L843.610556,172.620245L823.627304,172.510499L823.307085,173.214702L822.443912,175.080384L821.016090,178.171567L819.499132,181.491395L817.841722,185.103888L814.127786,193.206879L808.945661,204.474317L808.079667,206.102249L802.525670,218.448983L797.261889,229.881235L795.304133,229.872089L781.034842,229.780631L779.759114,229.753193L774.620101,229.625152L774.091211,229.616006L772.682731,229.652589L767.897877,229.771485L766.823464,229.789777L764.871287,229.817214L761.699875,229.872089L761.466210,229.881235L756.886720,229.890381L754.846614,229.899527L751.274502,229.972693L748.544050,230.018423L747.874494,230.009277L747.504322,230.009277L744.578538,229.963547L741.960453,229.908672L735.997027,229.981839L735.708292,229.981839L732.746912,229.981839L734.094083,227.018591L736.867483,220.918342L732.969635,220.991509L730.522350,221.000654L724.115149,220.991509L721.842905,225.875364L719.886715,230.064152L719.686822,230.064152L718.339394,230.064152L713.702501,230.036714L712.156092,230.018423L711.223258,230.018423L709.465394,230.009277L708.437227,229.990985L707.516867,229.963547L706.614559,229.945256L705.217132,229.908672L714.504474,209.742239L716.055024,209.751385L718.046008,205.388885L723.320853,205.315720L743.540746,205.215117L743.561947,205.087078L743.838732,204.510900L745.108971,201.831217L745.220335,201.602576L745.282207,201.401371L745.687625,200.102687L745.820602,199.663696L746.111193,198.959481L746.969077,196.828547L747.256427,196.115187L754.259971,196.115187L750.478628,204.529191L751.275547,204.730396L759.122545,206.669282L774.900386,210.574499L791.399686,174.906619L798.562782,174.897474L799.457421,172.995210L800.256970,172.995210L800.534194,172.336735L801.230132,170.855167L804.250988,164.407620L805.250556,162.258444L805.638342,161.535955L804.901598,161.316465L799.106227,161.215865L796.629402,161.225011L779.730240,161.252447L765.402315,161.307320L764.441730,161.270738L763.699581,161.307320L763.214631,161.234156L751.741592,161.343901L706.778752,161.334756L705.033541,160.630559L703.184232,160.822613L701.366138,160.539105L698.531631,160.520814L696.949715,161.508519L694.845377,161.545101L693.757107,161.545101L691.959238,161.005521L688.123779,159.834908L678.351921,156.871798L668.316350,153.853822L654.141421,149.601229L646.855699,147.406348L646.599340,147.351476L649.388011,141.269841L652.975532,133.432343L652.220291,133.139695L650.484600,132.837902L646.635236,132.316623L643.211830,132.453802L639.542043,133.148840L639.018507,133.697555L633.355325,131.923378L631.011118,131.429535L627.958113,131.045435L625.853314,131.017999L623.709783,131.319792L621.187096,136.669764L618.918207,138.142153L616.458845,133.377471L615.027019,130.487576L614.614906,129.701086L615.423012,129.161518L615.784982,128.365884L618.985003,121.397244L621.955467,115.242554L633.389161,91.675722L637.374503,83.454397L629.889657,81.698569L631.809881,77.153545L629.518281,79.000816L622.047050,79.476352L614.984816,79.915308L603.092573,81.744293L601.555253,82.357004L587.249408,84.999893L574.712399,87.725091L570.997696,88.356094L566.876310,89.051112L556.805172,89.334606L547.831271,88.703603L538.170042,87.094088L530.169298,85.073052L522.755592,82.494178L521.389568,81.689424L515.274425,78.095470L509.028337,71.959249L505.638928,65.695025L505.083527,64.670804L502.320253,61.113471L500.315042,58.525493L495.614102,51.484023L490.494807,46.061199L488.782577,43.317788L485.842761,43.336077L483.506058,41.525428L481.469202,39.934254L476.259453,34.548051L474.228524,31.448021L472.403200,30.286654L471.359829,29.619098L466.498677,24.443257L462.906317,20.675695L462.614783,19.560060L460.070076,18.645605L458.682002,16.816698L457.304553,14.119064L450.971902,3.721787L450.505075,3.072531L446.391078,4.645377L444.612625,0.000000L444.612625,0.000000Z M390.653821,220.333012L411.819444,173.379321L423.965466,173.580522L432.302493,173.708559L433.985354,173.735995L436.810639,173.790868L444.322665,173.909760L445.617314,173.928051L444.802369,175.784587L446.171969,175.784587L450.639371,175.793733L450.202536,176.754011L450.015321,177.165560L449.603450,178.070966L448.353042,180.787188L447.937935,181.683451L447.613438,182.396804L446.420379,185.003287L444.047700,190.170539L441.941879,194.962838L440.480397,198.273558L435.155420,210.062339L432.889669,214.799827L430.768972,219.006875L427.831408,224.521785L425.290455,229.213589L423.521590,231.865883L422.139724,231.518340L400.229406,225.079679L389.857912,222.034128L390.653821,220.333012Z M115.581266,394.313997L124.958219,372.983747L127.023960,370.605607L128.503732,370.477553L137.717984,369.883019L140.328754,368.602484L144.087448,365.904218L144.365798,364.998700L143.790982,364.276114L142.170310,362.254707L169.179673,361.962015L175.442787,372.453238L193.600994,372.380065L190.733569,378.965699L178.375611,407.183635L162.613811,401.494272L162.465604,401.347922L159.216438,399.536844L158.899758,399.353906L156.381355,398.704480L153.319313,398.713627L147.243811,398.722773L138.121591,398.805095L130.929499,398.859976L129.366327,398.878270L124.685128,398.914857L123.118710,398.924004L121.733237,398.942298L120.007176,398.960592L115.581266,394.313997Z "/></g><g fill="#000" font-family="Arial" font-size="12px" id="mylayer-label" stroke="none"><text text-anchor="middle" y="473.911674968"><tspan dy="0" x="482.499514501"><![CDATA[N]]></tspan></text></g></svg>