<?xml version="1.0" encoding="utf-8"?><!DOCTYPE svg  PUBLIC '-//W3C//DTD SVG 1.1//EN'  'http://www.w3.org/Graphics/SVG/1.1/DTD/svg11.dtd'><svg enable_background="new 0 0 1000 1001" height="1001px" pretty_print="False" style="stroke-linejoin: round; stroke:#000; fill: none;" version="1.1" viewBox="0 0 1000 1001" width="1000px" xmlns="http://www.w3.org/2000/svg" xmlns:xlink="http://www.w3.org/1999/xlink"><defs><style type="text/css"><![CDATA[path { fill-rule: evenodd; }]]></style></defs><metadata><views><view h="1001" padding="0" w="1000"><proj flip="auto" id="robinson" lon0="-123.571848807"/><bbox h="0.66" w="0.82" x="-1697.28" y="-652.2"/></view></views></metadata><g class="" id="mylayer"><path d="M1000.000000,356.525026L994.304055,350.429743L992.485860,347.917503L991.910577,346.331910L991.414009,342.460598L991.829534,339.021726L994.174016,333.029454L997.016621,326.522402L997.413218,324.792683L997.344893,323.021781L996.839996,320.942003L995.881412,319.006371L993.406392,316.226475L990.725586,314.187888L979.105199,306.857227L977.133911,304.942199L974.839489,301.647532L969.784748,291.228180L968.424398,287.624662L962.718422,275.187425L959.355728,267.403894L949.547745,241.767870L948.509403,237.773209L947.079384,228.960274L944.903795,211.684560L942.542854,184.051956L942.034313,176.557036L941.633534,173.427298L938.852229,164.367556L936.704231,159.796520L932.648042,153.701820L931.909920,152.734082L930.713072,151.642804L927.305515,149.830872L923.654719,148.142482L921.478456,146.515864L919.462896,143.859743L917.864923,140.091763L916.441696,134.326562L915.670342,128.561377L915.761316,116.866338L915.399864,114.107307L914.978716,113.036639L913.249970,110.792356L911.587557,109.001050L906.517523,104.286009L905.493327,102.453529L904.931472,100.250437L904.835687,97.738504L905.153480,95.617775L872.787394,101.197561L866.102318,102.865322L862.326555,104.183061L851.627661,108.671614L847.615560,110.689407L842.612570,113.551383L834.728469,118.616471L831.813293,120.716634L817.229052,132.555825L782.355943,161.773183L765.860759,174.806853L757.832857,180.901615L754.451710,183.310699L751.514884,185.143251L748.696850,186.728719L745.530912,188.273007L736.848063,191.732217L704.536946,205.054348L671.751842,219.014881L661.621862,223.050687L657.521745,224.347912L651.955830,225.912819L644.927692,227.251228L632.028094,228.877910L621.201016,230.504594L606.164117,232.996100L593.634641,234.478650L570.643635,238.843942L567.242744,239.173399L565.048989,239.564629L558.854888,241.706097L554.245869,242.879787L545.389864,244.856531L527.637416,250.354358L515.780653,253.566579L513.999716,253.690126L512.330102,253.443032L511.457086,252.825297L510.978886,251.733965L510.007454,246.627365L509.567068,245.700765L508.386394,245.062442L507.064695,244.856531L498.386258,244.238798L494.581639,244.156434L491.977489,244.671211L489.893411,245.494855L488.807795,246.153770L487.128086,247.492191L484.308543,250.436723L481.777523,253.545987L479.604969,256.778804L478.810466,258.014277L477.221621,261.041188L475.319459,261.555969L474.280261,262.153116L466.924074,272.448771L461.795321,280.788290L459.833625,282.991576L457.594951,286.327397L455.944326,287.501113L455.353337,288.139450L454.108584,290.589842L445.032280,296.849681L441.718719,299.361859L438.327280,302.244690L434.731071,305.518766L433.781152,306.486576L432.817967,308.525156L432.401683,311.407999L432.787414,315.299845L432.707954,316.473577L431.428527,318.718085L430.847179,320.344840L431.088570,322.033372L432.054647,323.083557L433.849431,323.557170L434.917836,323.351251L436.342555,322.404025L438.178315,321.436208L441.820989,320.221289L443.331436,320.138922L444.172195,320.406615L445.091867,321.518575L445.960548,321.971596L448.074020,322.095147L452.686313,321.436208L451.854919,323.165924L448.580429,329.178760L447.363963,330.805523L439.409207,339.392383L432.720647,346.805529L426.443853,352.736064L416.678587,361.508346L410.808282,368.262617L407.499264,370.939621L400.445780,375.634682L398.720672,376.128899L397.814575,376.623117L397.076508,377.776292L397.037148,378.414657L399.056110,380.473901L399.936075,382.677294L400.646517,386.589866L400.612461,388.051934L399.942592,389.411041L397.605480,391.943925L396.789589,393.467775L394.127053,397.895183L393.061539,399.068963L389.857039,401.354746L388.258651,402.837418L376.725540,416.819887L373.884308,421.515053L369.604609,430.699487L368.202941,433.129456L361.347553,439.986927L358.452406,443.055292L351.338728,450.798301L350.463948,451.992704L348.493228,455.328799L346.124866,460.744816L336.812974,460.991935L312.160342,460.744816L303.505807,460.806596L292.854050,460.641850L233.656533,522.134200L230.157408,525.346845L227.505724,527.282672L225.945381,527.921083L224.791364,527.818113L223.656155,527.014951L222.028107,524.976155L219.770063,522.195982L218.347784,519.415812L217.635559,518.880373L212.466643,517.253461L206.498192,515.029331L204.663665,514.638049L202.098097,514.411517L200.654457,514.493892L197.347573,514.905768L194.082960,515.647144L192.836446,516.223771L181.853083,527.220890L178.951630,529.815724L176.166885,531.854525L171.892100,534.037486L173.681385,512.187390L165.770181,514.493892L161.708621,516.059020L160.147881,517.150492L159.354305,518.489090L159.293235,522.443108L157.884544,528.888997L157.133333,534.140455L156.624311,535.025997L155.739386,535.685004L149.645281,539.288957L142.117121,542.398658L139.902789,543.737272L135.121695,547.217674L133.383256,548.226786L130.566505,549.462433L127.901236,550.347981L124.372922,551.151153L121.602627,551.315906L108.055837,551.192341L103.406010,550.224416L95.267747,550.533328L87.547666,551.398283L74.654262,549.462433L60.596298,556.526233L48.037812,560.294975L39.730352,560.294975L26.518786,548.062033L17.983777,548.535697L11.064697,552.778091L7.367456,558.420900L7.393831,571.621839L0.000000,589.065329L0.000000,589.065329L10.309566,590.012678L13.577840,592.360456L26.397054,595.181913L32.462036,593.760887L55.916719,574.443267L59.752108,572.548585L95.660231,564.990467L105.923383,564.990467L109.465523,567.811887L120.411334,566.390879L127.584607,574.875749L136.231629,571.106980L138.378893,575.823091L136.001401,583.834326L137.314030,586.182098L149.124233,588.076792L150.407209,589.477220L149.566311,593.246023L161.406238,596.088075L159.213947,608.794980L162.149864,614.932217L158.984372,621.522559L150.374344,633.323441L151.219104,635.671269L156.129759,636.618639L168.704737,632.849757L171.458774,634.250215L165.427694,642.735363L168.043474,647.451637L161.719853,660.653143L164.048722,663.948384L155.367350,679.971568L156.254172,696.468574L159.984693,697.889670L173.148976,690.804793L186.967349,687.509509L190.114711,693.173281L208.433948,686.562116L220.850804,685.141027L224.353840,687.035813L226.181407,690.331095L222.531809,696.921677L222.911973,700.237571L231.108305,703.532875L227.913738,709.176095L231.743705,713.418818L229.298085,719.556364L231.095956,721.904289L235.007462,721.904289L251.528659,712.945115L254.354523,710.123498L259.935088,696.447978L268.294574,691.257895L283.421277,684.193635L315.395460,682.772548L329.686436,685.594128L336.283399,704.439084L351.165576,710.102902L361.797650,719.535768L364.278123,732.717137L359.860349,738.854741L365.277934,745.919186L380.311468,749.214563L391.328641,743.571234L395.969073,743.097525L394.108286,752.056829L384.056121,763.837858L387.659159,768.554408L384.263301,781.756685L389.441589,783.157243L393.121393,789.768716L395.836024,790.242436L415.281712,781.282967L422.917273,782.683525L424.303047,793.064162L420.299528,803.424254L414.003192,811.456965L417.535671,820.395967L424.904095,821.343421L440.544644,815.226171L443.860690,818.521657L443.021060,822.290876L437.674337,829.355605L438.807269,833.124843L446.777182,836.894089L445.225491,841.137072L431.935131,851.518001L430.383496,855.761014L433.168189,858.109093L444.220995,859.530301L457.412765,871.785677L468.465637,873.206894L471.477763,875.081253L480.393834,891.126662L480.580816,895.822903L486.722471,896.296647L490.644165,903.382225L501.606837,901.960988L509.077159,890.817699L532.858093,857.182220L563.132250,805.319147L603.621601,758.647606L614.079329,737.907325L649.950059,711.029710L688.167320,687.447723L710.694451,669.076613L720.004799,656.822432L738.086490,624.282270L742.751869,618.639282L779.833149,597.426724L800.171457,579.509491L824.427310,536.138072L844.297449,513.072922L857.304754,481.955970L863.248936,473.965723L864.252162,473.512669L865.549783,473.595042L866.110249,473.924536L866.575569,475.530821L866.475679,478.104997L865.701062,480.761550L863.668274,489.760906L863.244148,495.341762L862.663658,497.524684L861.179292,501.519849L861.205581,501.952316L863.625464,507.389049L864.483314,511.693139L864.550929,512.805203L864.044857,515.111706L862.227651,519.312843L862.220212,520.198378L862.856534,521.866480L863.893636,522.978549L864.651643,523.349238L866.369537,523.287457L867.333183,522.916767L868.390600,522.072418L869.596689,520.466098L872.907893,514.720424L875.778156,510.519296L876.806844,508.377547L877.067710,506.894800L876.549423,504.876617L877.011248,503.949902L877.796479,503.393872L880.120809,502.034690L880.614002,500.799071L880.555603,499.563453L879.467599,496.330255L879.239629,494.229708L879.653701,493.158842L883.256402,487.989862L884.323736,487.124935L889.026688,485.024398L892.927002,483.376919L895.436909,481.770629L897.106993,480.555615L903.519541,475.139546L904.385617,474.171657L905.103973,472.606561L905.217882,471.638673L904.859999,469.599931L905.059871,468.487892L905.754366,467.355259L908.201167,464.801690L913.375531,460.188798L917.330085,457.141001L918.158310,456.008375L918.471102,454.278546L918.286889,452.713465L917.463082,450.983640L917.379165,450.427625L917.599185,449.830424L918.056283,449.192037L920.480608,447.276876L920.981711,446.720862L921.463714,445.299938L921.122257,444.723332L919.302742,443.570119L918.943891,442.890548L918.959932,441.778522L919.770466,437.968810L920.141274,436.918566L921.127125,435.353498L922.384497,434.406221L929.923917,431.028974L935.420724,428.145963L936.867422,427.013353L937.989721,425.860150L939.024016,424.542205L941.154007,422.091653L942.551600,420.608967L944.223451,419.146876L946.263025,417.684785L956.444843,411.486357L961.453561,408.088555L963.583179,407.100104L966.718068,405.967506L967.840023,405.267354L979.510347,395.135774L982.213474,392.396961L984.827625,388.834450L986.863968,384.839504L987.718563,383.130328L990.885581,376.190677L991.213198,374.152030L993.079005,370.651328L1000.000000,356.525026Z "/></g><g fill="#000" font-family="Arial" font-size="12px" id="mylayer-label" stroke="none"><text text-anchor="middle" y="477.412158522"><tspan dy="0" x="587.101382439"><![CDATA[N]]></tspan></text></g></svg>