<?xml version="1.0" encoding="utf-8"?><!DOCTYPE svg  PUBLIC '-//W3C//DTD SVG 1.1//EN'  'http://www.w3.org/Graphics/SVG/1.1/DTD/svg11.dtd'><svg enable_background="new 0 0 1000 1001" height="1001px" pretty_print="False" style="stroke-linejoin: round; stroke:#000; fill: none;" version="1.1" viewBox="0 0 1000 1001" width="1000px" xmlns="http://www.w3.org/2000/svg" xmlns:xlink="http://www.w3.org/1999/xlink"><defs><style type="text/css"><![CDATA[path { fill-rule: evenodd; }]]></style></defs><metadata><views><view h="1001" padding="0" w="1000"><proj flip="auto" id="robinson" lon0="-91.7832261492"/><bbox h="0.3" w="0.32" x="-1237.9" y="-709.51"/></view></views></metadata><g class="" id="mylayer"><path d="M1000.000000,48.163049L870.339164,45.357375L871.128289,43.403424L805.738623,41.800182L804.433300,43.403424L531.276972,36.689851L399.432515,38.042585L322.213692,217.607418L204.476337,483.905298L144.433295,483.704883L41.809821,483.504467L2.616493,572.088528L1.612479,574.744060L0.000000,580.005021L101.820285,579.554082L103.369825,574.343225L186.372276,574.042599L218.969212,574.443434L235.648084,576.096878L238.078159,576.347400L261.756413,582.860973L269.298280,585.466404L285.075081,596.188761L299.529639,610.218033L311.693674,630.811042L317.746006,649.249593L318.308473,667.788394L318.460842,691.989104L309.317768,714.285884L279.891240,781.376995L384.291961,780.926045L432.964338,781.076361L479.165976,780.875939L450.884719,845.963330L476.639606,846.614708L496.656883,847.165873L558.819192,847.767145L514.831894,957.850660L604.090776,962.310149L669.207745,813.945684L753.713141,621.341258L762.790828,599.295241L766.243510,592.931969L772.557712,581.107318L829.074606,449.884849L905.834268,270.365313L922.188291,232.086998L1000.000000,48.163049Z " data-aland="1960672" data-awater="25984" data-classfp="C1" data-funcstat="A" data-geoid="1981885" data-intptlat="+42.2875446" data-intptlon="-091.7814794" data-lsad="25" data-mtfcc="G4110" data-name="Walker" data-namelsad="Walker city" data-pcicbsa="N" data-pcinecta="N" data-placefp="81885" data-placens="02397175" data-statefp="19"/></g><g fill="#000" font-family="Arial" font-size="12px" id="mylayer-label" stroke="none"><text text-anchor="middle" y="410.339647348"><tspan dy="0" x="554.057901119"><![CDATA[Walker]]></tspan></text></g></svg>