<?xml version="1.0" encoding="utf-8"?><!DOCTYPE svg  PUBLIC '-//W3C//DTD SVG 1.1//EN'  'http://www.w3.org/Graphics/SVG/1.1/DTD/svg11.dtd'><svg enable_background="new 0 0 1000 1001" height="1001px" pretty_print="False" style="stroke-linejoin: round; stroke:#000; fill: none;" version="1.1" viewBox="0 0 1000 1001" width="1000px" xmlns="http://www.w3.org/2000/svg" xmlns:xlink="http://www.w3.org/1999/xlink"><defs><style type="text/css"><![CDATA[path { fill-rule: evenodd; }]]></style></defs><metadata><views><view h="1001" padding="0" w="1000"><proj flip="auto" id="robinson" lon0="-91.29602635"/><bbox h="0.21" w="0.24" x="-1224.9" y="-724.43"/></view></views></metadata><g class="" id="mylayer"><path d="M1000.000000,456.211449L800.107147,455.468624L703.839572,455.063447L686.308605,454.725800L724.972137,366.329787L725.353342,365.451906L831.086627,123.900079L758.889104,124.237724L667.783811,124.575369L670.049590,120.388572L676.961534,107.693127L679.200709,103.438803L682.769929,97.023553L685.760755,91.553709L693.062141,77.575223L696.381010,71.092448L583.100579,69.809399L542.805406,69.336696L533.362333,89.662899L479.119024,90.135602L426.007203,211.012551L329.208338,212.093016L311.412034,252.813092L304.584240,268.277277L203.995033,267.264339L190.331369,269.357744L189.574810,269.425273L169.605512,315.277626L162.804320,330.809362L156.023838,348.096866L135.685376,399.824359L128.878460,417.044361L123.643609,425.620599L107.971145,451.146737L102.739038,459.587923L92.123115,484.033608L60.278567,557.235685L49.636370,581.613895L0.000000,691.282245L179.107733,690.944596L568.541963,690.134238L466.169077,929.663304L688.506534,928.852941L793.801135,928.447760L880.614292,729.639222L885.035947,719.712325L898.133167,689.931648L902.528254,679.937231L953.268930,563.583473L1000.000000,456.211449Z " data-aland="1112299" data-awater="0" data-classfp="C1" data-funcstat="A" data-geoid="1982470" data-intptlat="+43.2083216" data-intptlon="-091.2960272" data-lsad="25" data-mtfcc="G4110" data-name="Waterville" data-namelsad="Waterville city" data-pcicbsa="N" data-pcinecta="N" data-placefp="82470" data-placens="02397213" data-statefp="19"/></g><g fill="#000" font-family="Arial" font-size="12px" id="mylayer-label" stroke="none"><text text-anchor="middle" y="500.886267155"><tspan dy="0" x="529.998885055"><![CDATA[Waterville]]></tspan></text></g></svg>