<?xml version="1.0" encoding="utf-8"?><!DOCTYPE svg  PUBLIC '-//W3C//DTD SVG 1.1//EN'  'http://www.w3.org/Graphics/SVG/1.1/DTD/svg11.dtd'><svg enable_background="new 0 0 1000 1001" height="1001px" pretty_print="False" style="stroke-linejoin: round; stroke:#000; fill: none;" version="1.1" viewBox="0 0 1000 1001" width="1000px" xmlns="http://www.w3.org/2000/svg" xmlns:xlink="http://www.w3.org/1999/xlink"><defs><style type="text/css"><![CDATA[path { fill-rule: evenodd; }]]></style></defs><metadata><views><view h="1001" padding="0" w="1000"><proj flip="auto" id="robinson" lon0="-93.9926150412"/><bbox h="0.22" w="0.28" x="-1261.99" y="-722.5"/></view></views></metadata><g class="" id="mylayer"><path d="M1000.000000,467.656150L805.264622,488.864118L752.165217,494.457430L755.749048,486.417044L770.321870,453.614620L793.209128,402.051387L818.003724,345.885442L840.413127,294.963304L862.047109,244.915206L920.714722,109.628478L441.365078,108.346695L384.408074,237.399260L336.934163,344.428858L289.581915,453.031984L261.821996,517.471594L252.027227,540.310985L234.997803,579.813854L237.041337,580.862604L229.876856,596.826907L222.360578,614.772193L216.335668,629.046860L214.974614,633.183602L216.041831,635.339369L219.676484,638.776944L226.686122,639.301320L117.125802,881.855364L359.640653,871.018169L376.586895,871.134698L381.241440,871.309491L396.891594,871.950401L418.136136,872.824368L423.534647,874.688831L427.736367,875.446270L435.618614,875.096683L480.966840,874.980154L529.283097,874.921889L579.649870,874.921889L598.085837,875.271476L591.119282,890.361982L652.511379,890.653305L658.441904,876.261972L704.670763,876.553295L817.209484,876.611559L827.419586,845.789662L910.600244,667.268047L993.214471,482.338588L1000.000000,467.656150Z M0.000000,351.536990L17.637030,353.459681L169.425829,237.632312L207.078137,209.607754L196.903810,199.178664L149.696751,233.146050L68.289937,264.433371L57.256939,288.204766L17.362363,293.098880L1.542114,327.066380L10.420044,328.056857L0.000000,351.536990Z "/></g><g fill="#000" font-family="Arial" font-size="12px" id="mylayer-label" stroke="none"><text text-anchor="middle" y="518.331555143"><tspan dy="0" x="564.841522273"><![CDATA[N]]></tspan></text></g></svg>