<?xml version="1.0" encoding="utf-8"?><!DOCTYPE svg  PUBLIC '-//W3C//DTD SVG 1.1//EN'  'http://www.w3.org/Graphics/SVG/1.1/DTD/svg11.dtd'><svg enable_background="new 0 0 1000 1001" height="1001px" pretty_print="False" style="stroke-linejoin: round; stroke:#000; fill: none;" version="1.1" viewBox="0 0 1000 1001" width="1000px" xmlns="http://www.w3.org/2000/svg" xmlns:xlink="http://www.w3.org/1999/xlink"><defs><style type="text/css"><![CDATA[path { fill-rule: evenodd; }]]></style></defs><metadata><views><view h="1001" padding="0" w="1000"><proj flip="auto" id="robinson" lon0="-92.0025909906"/><bbox h="0.73" w="0.78" x="-1245.48" y="-699.74"/></view></views></metadata><g class="" id="mylayer"><path d="M1000.000000,609.494319L821.762178,608.909713L814.592123,626.134771L723.196800,625.717193L715.788255,625.675435L722.125993,619.390885L791.253591,564.730607L825.126663,512.639546L842.779403,476.270417L838.521344,476.270417L813.735526,475.769354L799.810486,475.664966L778.978697,475.769354L782.803359,466.833740L760.076775,466.666720L756.346695,466.645842L673.817840,466.061270L733.986271,318.148266L726.578248,318.148266L764.478438,231.534068L766.920489,226.586567L773.408369,215.376444L781.358571,212.579140L794.179179,210.637730L812.417953,208.320564L829.428777,213.894290L849.918527,211.117864L877.081915,203.456612L912.740582,201.369081L916.217933,193.728735L918.130090,189.720695L923.092995,179.345744L975.773480,70.776713L976.368686,67.645588L798.039805,68.918912L794.986672,68.188316L797.335606,62.552299L809.635532,33.871433L799.710006,33.808811L759.759530,32.410262L752.377032,48.295320L741.473470,48.295320L740.825713,40.008359L733.653987,39.069032L735.329095,33.015604L687.739101,34.748136L623.937643,178.448115L622.711636,181.141004L602.009742,181.934259L584.189913,182.581388L581.789879,187.925429L579.676748,192.664099L577.494310,197.444529L546.953820,270.947427L541.875080,282.763208L528.847387,313.451105L528.427159,315.789246L528.953732,316.436410L493.997599,398.022262L552.471033,400.256099L574.555456,401.091179L573.737566,403.304142L561.772312,436.603215L547.547714,470.549949L545.000161,476.667093L561.955265,476.270417L589.097016,475.769354L561.568059,543.873171L560.211716,547.213689L558.653861,547.213689L432.086788,547.213689L416.419001,590.202394L410.886386,605.402080L328.727576,604.337263L325.571392,602.813116L183.659612,534.582378L101.540806,531.638561L75.308375,593.167161L67.326104,612.333836L62.953198,622.460082L59.084502,631.458905L46.825605,660.564376L42.504311,671.024893L30.869943,699.796766L26.557996,710.027776L6.772681,756.923937L0.000000,773.607164L1.142495,773.607164L27.437108,773.648924L69.181403,773.669804L88.119118,773.669804L99.033442,773.648924L107.048215,773.648924L116.811352,773.648924L134.987330,773.690685L163.687961,773.815966L179.319072,773.983007L200.160507,774.233570L205.301954,774.108289L208.911747,773.795086L211.145464,773.419242L177.910501,852.932366L245.006579,853.475269L231.024378,886.905815L241.964817,886.989340L236.133219,901.460045L225.313431,928.292680L296.532744,927.707997L353.686504,927.227722L340.933749,962.246311L339.690697,965.650053L344.191724,965.608290L428.245697,966.589738L479.558074,965.670935L516.075862,966.067691L589.315170,963.749804L605.165082,928.230036L623.692375,891.395274L628.850022,880.871160L628.929443,879.889747L629.478854,877.237845L629.635821,876.486126L630.470643,873.980396L635.332098,859.217522L636.062298,857.212952L637.539755,853.370864L641.216032,843.828314L653.642579,812.799626L682.005266,813.363401L695.507218,813.613968L730.326614,814.303026L735.642151,802.651703L773.942210,802.505540L798.557316,743.351936L825.322603,746.588329L829.345554,747.653208L831.326351,748.425768L835.339410,750.263207L838.667003,753.165529L842.649933,757.612980L853.423884,769.619048L857.651769,772.479633L859.752982,773.753325L868.231778,775.883107L878.201988,776.300712L884.849169,776.342472L889.358531,776.363352L917.600184,776.676556L927.934315,776.843598L1000.000000,609.494319Z " data-aland="9682649" data-awater="21499" data-classfp="C1" data-funcstat="A" data-geoid="1985845" data-intptlat="+41.6688996" data-intptlon="-092.0132605" data-lsad="25" data-mtfcc="G4110" data-name="Williamsburg" data-namelsad="Williamsburg city" data-pcicbsa="N" data-pcinecta="N" data-placefp="85845" data-placens="02397318" data-statefp="19"/></g><g fill="#000" font-family="Arial" font-size="12px" id="mylayer-label" stroke="none"><text text-anchor="middle" y="584.601122963"><tspan dy="0" x="542.917630704"><![CDATA[Williamsburg]]></tspan></text></g></svg>