<?xml version="1.0" encoding="utf-8"?><!DOCTYPE svg  PUBLIC '-//W3C//DTD SVG 1.1//EN'  'http://www.w3.org/Graphics/SVG/1.1/DTD/svg11.dtd'><svg enable_background="new 0 0 1000 1001" height="1001px" pretty_print="False" style="stroke-linejoin: round; stroke:#000; fill: none;" version="1.1" viewBox="0 0 1000 1001" width="1000px" xmlns="http://www.w3.org/2000/svg" xmlns:xlink="http://www.w3.org/1999/xlink"><defs><style type="text/css"><![CDATA[path { fill-rule: evenodd; }]]></style></defs><metadata><views><view h="1001" padding="0" w="1000"><proj flip="auto" id="robinson" lon0="-93.5953483654"/><bbox h="0.18" w="0.34" x="-1271.17" y="-688.62"/></view></views></metadata><g class="" id="mylayer"><path d="M1000.000000,238.538433L872.670667,237.411664L850.317005,236.333885L804.862376,235.109137L664.879829,234.227318L503.011107,233.198530L280.140413,231.728833L223.713280,230.896005L222.907063,232.855601L221.173519,236.970755L190.637552,310.407322L157.337987,388.303399L145.280591,414.465044L124.120701,465.906949L112.066772,493.538859L101.809578,518.378335L0.000000,768.103995L390.788996,767.271061L428.117983,675.796387L429.307839,673.493622L436.769555,658.991131L448.870362,635.767651L457.342987,620.481379L463.002857,605.930076L466.015510,593.877518L803.130651,596.817163L852.735713,597.013140L854.307285,593.289590L1000.000000,238.538433Z "/></g><g fill="#000" font-family="Arial" font-size="12px" id="mylayer-label" stroke="none"><text text-anchor="middle" y="460.473543797"><tspan dy="0" x="476.860664278"><![CDATA[N]]></tspan></text></g></svg>