<?xml version="1.0" encoding="utf-8"?><!DOCTYPE svg  PUBLIC '-//W3C//DTD SVG 1.1//EN'  'http://www.w3.org/Graphics/SVG/1.1/DTD/svg11.dtd'><svg enable_background="new 0 0 1000 1001" height="1001px" pretty_print="False" style="stroke-linejoin: round; stroke:#000; fill: none;" version="1.1" viewBox="0 0 1000 1001" width="1000px" xmlns="http://www.w3.org/2000/svg" xmlns:xlink="http://www.w3.org/1999/xlink"><defs><style type="text/css"><![CDATA[path { fill-rule: evenodd; }]]></style></defs><metadata><views><view h="1001" padding="0" w="1000"><proj flip="auto" id="robinson" lon0="-76.0544910043"/><bbox h="0.21" w="0.37" x="-1035.17" y="-682.21"/></view></views></metadata><g class="" id="mylayer"><path d="M1000.000000,478.127909L984.575144,463.858307L971.674906,451.886025L982.883797,427.676524L861.642881,433.861417L858.903581,408.326721L900.012890,393.880708L887.018055,345.639431L886.422220,342.679595L881.009958,341.972769L875.765282,341.310120L872.450892,340.868353L860.140052,339.101289L857.685078,338.703700L855.185346,337.775992L852.926467,337.113344L845.929588,334.241868L845.171508,333.888456L839.368777,330.928631L835.241891,328.410572L819.424460,317.454831L848.446441,303.671854L870.520767,293.423010L881.626371,289.756405L888.666118,284.941232L899.208420,279.993538L887.150823,273.676404L836.566737,247.480303L794.950044,266.917525L789.049109,269.479713L783.983564,263.604354L778.843477,256.845496L772.257953,248.275460L769.861020,244.034626L769.042019,242.311788L766.398539,238.601065L764.420959,236.524828L764.063432,236.171426L761.459402,234.006841L749.163526,224.862587L746.742863,223.360635L744.126097,222.123734L741.874310,221.328583L741.123714,221.063533L737.939705,220.224208L734.574069,219.605758L732.433240,219.694108L725.134586,222.521309L724.290526,222.874710L711.607686,228.131545L701.361406,231.842257L699.840433,232.372359L695.692090,233.697614L691.775834,234.536943L684.539093,235.508798L683.731012,235.641324L673.319432,236.745704L664.829352,237.319982L659.906754,237.452508L656.455101,237.540858L652.208986,237.275807L644.986288,237.982611L637.901781,238.601065L623.455093,239.352044L616.275399,239.705446L612.940433,239.882147L606.015620,240.235549L602.826729,240.633127L599.433847,240.986529L588.646227,243.460346L578.392013,246.861848L560.037605,252.869703L514.764362,268.463673L493.514017,275.752663L493.775176,282.732439L494.558767,303.671854L494.783589,310.651688L495.134305,318.691768L496.150191,342.812125L496.464595,350.852283L475.295462,355.004899L436.427750,361.719779L431.828293,307.426826L431.105830,295.410930L430.594014,283.085846L427.864408,283.748484L364.319175,299.210069L334.276286,335.213752L332.660534,335.699694L307.272713,364.944694L252.504841,403.953151L11.242470,414.599933L0.000000,475.344669L98.758537,482.766648L207.088117,490.983857L238.869922,454.669246L260.797784,451.090820L301.397213,417.648188L422.939171,460.103159L462.722245,473.930961L491.027480,483.782753L487.744749,538.476190L450.603988,563.702626L453.765128,567.502070L459.583754,574.526637L466.504987,582.964971L526.854981,656.171737L560.053655,696.332318L597.080818,779.394242L620.675195,761.500408L671.928761,722.752854L734.234349,675.611341L776.228851,659.573659L822.363676,641.901372L810.065747,639.648162L773.062771,632.888541L760.742935,630.591157L758.950747,630.281894L749.078083,628.072872L746.593579,627.542707L757.026253,608.589365L791.139062,546.251744L813.057112,506.358045L818.832333,495.843507L823.093994,496.506187L830.626253,497.522296L837.430258,498.538406L856.198554,492.044144L900.519991,527.033789L927.299738,513.868450L980.037075,487.935535L1000.000000,478.127909Z "/></g><g fill="#000" font-family="Arial" font-size="12px" id="mylayer-label" stroke="none"><text text-anchor="middle" y="446.014975703"><tspan dy="0" x="596.062752384"><![CDATA[N]]></tspan></text></g></svg>