<?xml version="1.0" encoding="utf-8"?><!DOCTYPE svg  PUBLIC '-//W3C//DTD SVG 1.1//EN'  'http://www.w3.org/Graphics/SVG/1.1/DTD/svg11.dtd'><svg enable_background="new 0 0 1000 1001" height="1001px" pretty_print="False" style="stroke-linejoin: round; stroke:#000; fill: none;" version="1.1" viewBox="0 0 1000 1001" width="1000px" xmlns="http://www.w3.org/2000/svg" xmlns:xlink="http://www.w3.org/1999/xlink"><defs><style type="text/css"><![CDATA[path { fill-rule: evenodd; }]]></style></defs><metadata><views><view h="1001" padding="0" w="1000"><proj flip="auto" id="robinson" lon0="-119.920559571"/><bbox h="0.65" w="1.21" x="-1645.75" y="-655.58"/></view></views></metadata><g class="" id="mylayer"><path d="M1000.000000,231.868183L994.586234,231.028797L986.779651,232.273886L981.648229,235.295681L978.740739,236.904510L975.353734,236.540775L974.604078,236.442846L972.131141,235.225732L969.922229,236.582744L966.658362,241.213385L962.356690,246.067881L957.611615,252.055584L954.604272,256.938102L953.525714,258.309127L950.757478,260.659460L942.670359,269.081523L940.996266,270.606453L937.087486,274.145979L934.123764,276.356439L925.320332,282.078469L918.315680,288.374132L913.550185,291.801783L897.790237,299.594479L891.272709,301.818974L882.317511,304.463189L872.967938,304.784972L869.095783,305.932200L866.271281,306.617739L862.262963,307.499147L856.215103,310.367225L850.736416,313.137375L843.534029,318.020127L838.465413,321.825610L837.472090,322.413222L828.358007,327.757708L820.817631,331.982946L817.941390,333.549925L812.207833,336.306134L806.285857,340.209608L804.090406,340.139653L802.316929,340.573373L796.747497,341.944489L788.831163,345.134438L785.997890,346.827353L779.900199,352.381808L778.940481,353.501097L776.942924,354.844245L769.427210,360.874435L767.573502,363.238950L766.987427,364.120397L766.675290,365.771363L766.131077,371.773623L765.638019,375.593258L764.627490,378.629386L761.569483,385.960896L760.166561,388.213525L757.150892,391.837328L753.868096,394.411773L748.669904,398.203492L748.262174,398.441350L740.192613,403.814139L739.541107,404.303847L735.931354,406.486550L730.012630,408.333455L723.951106,409.928512L720.468965,410.586124L712.910300,410.726041L707.952563,411.957315L704.018600,411.957315L699.554629,410.404231L698.572813,408.193538L697.137976,407.354036L695.331130,406.290666L691.580498,405.395198L688.679137,405.689024L682.101412,407.004243L677.652140,407.759795L667.462175,409.984479L659.538680,411.887357L656.638414,412.950731L655.606921,413.426451L653.235785,415.007522L647.406048,419.680789L645.205232,421.527713L641.214124,423.192746L635.212153,424.396048L627.471250,426.201004L620.965336,428.159873L612.639981,431.084191L610.474903,431.769798L602.720389,432.035645L600.525097,431.699838L596.576170,429.657011L592.980537,430.048786L589.161357,430.818344L583.948427,432.301493L575.432261,435.099892L572.283430,436.401150L568.612931,438.206123L567.137088,439.045646L560.299151,440.864614L553.078529,441.662163L548.162128,442.781530L544.051408,443.663032L537.428984,447.412922L536.006134,447.874663L530.845950,449.245894L523.188676,451.162823L517.063829,453.905295L510.105811,455.472424L506.173143,455.976144L504.873775,456.200020L502.952229,456.899633L501.144151,457.865098L498.322310,459.558163L497.284219,460.047893L494.384168,460.845454L489.294928,461.824915L484.650033,462.440576L483.612173,462.664453L476.073353,464.595394L469.169665,466.288468L465.830268,467.197971L463.773636,468.401315L462.160891,469.772569L458.511977,473.606490L453.127554,480.350861L450.629800,484.492650L448.521131,487.109260L445.830540,489.320090L439.783749,493.224033L439.052881,493.447916L435.781266,494.889160L432.050511,495.784691L425.347604,497.100003L418.697891,497.771653L408.439513,498.597222L402.689872,499.940523L398.196405,501.199869L393.030039,502.053426L392.627307,502.039433L389.292900,502.697092L385.739960,503.480687L381.362688,504.614101L378.201331,505.145826L376.979042,505.495646L373.895932,506.922911L365.590353,511.904357L362.265975,513.457565L355.550331,515.668441L351.103499,517.697412L347.445775,520.006245L343.201852,523.462507L336.014216,532.152178L327.129630,542.199246L326.848123,542.507096L323.720447,546.635093L318.762403,548.132370L310.700920,549.531696L298.392210,551.812601L290.039081,551.924547L285.802030,552.036493L281.025585,552.400319L277.615455,553.435823L271.155049,553.729683L264.322011,555.296935L262.517545,555.506835L256.789301,557.745770L252.087562,559.760815L246.106584,563.790914L241.082579,565.428146L238.442615,565.722008L233.652590,564.280684L230.815641,563.930848L227.006339,564.196723L224.675661,564.630520L219.206120,565.861942L217.961499,565.680027L215.966428,565.498113L211.319037,564.574546L207.535176,564.448605L205.662689,564.392631L204.340760,564.350651L199.614808,565.162270L197.569062,565.498113L195.677726,565.819962L193.579903,566.169798L189.860932,567.233301L187.898203,567.779046L184.648330,568.184856L174.925083,569.346315L171.670431,569.738132L165.728849,575.349533L159.021318,580.149329L155.281124,583.115976L148.282438,586.796307L145.425806,587.887814L139.259536,590.042844L133.264699,591.834040L124.321598,592.449764L116.373997,591.918002L113.027365,591.274291L112.269847,591.120360L105.973382,592.127908L98.998579,593.513288L93.987244,594.954645L88.003756,596.745848L82.649546,598.914886L76.466490,601.853589L70.578198,605.156139L66.724307,608.122844L60.354901,612.181083L53.647944,615.483660L46.606466,618.772251L38.805841,621.669017L30.584860,625.699311L21.711345,630.849150L16.358388,633.787926L9.042493,640.869004L4.095128,649.125647L2.146702,654.009686L0.978838,660.447130L0.000000,668.004170L0.100128,676.722811L1.783445,684.349921L5.388079,690.843496L8.780546,695.083930L10.644248,700.807839L11.930494,701.577559L13.088975,708.798962L12.678697,711.360050L12.197580,714.313005L12.565179,724.445472L14.766096,735.683647L16.198395,744.304779L16.118646,751.428453L16.342173,756.676765L16.213395,760.427571L16.326542,763.954459L16.438548,767.411378L20.215475,767.649304L25.590319,767.971203L32.427675,762.554899L36.755228,759.111988L36.769055,758.986028L36.817130,758.594153L36.826177,758.454198L39.386541,755.962993L41.127271,754.101590L44.778117,751.540417L46.964653,749.818975L47.606491,749.301144L48.499791,748.587376L50.331367,746.991897L52.795224,744.850600L57.428972,740.805936L60.189791,738.468714L62.191440,736.705304L62.565667,736.369417L65.446515,734.550028L69.638152,732.506718L71.821177,731.806956L75.766945,731.806956L78.663320,732.296790L81.709190,733.024543L85.532658,734.564024L88.371396,735.417736L91.292055,736.411403L93.334447,736.831262L94.972910,737.167149L96.274985,738.748621L98.165499,741.253788L99.259180,741.925565L100.717656,741.967551L103.191133,742.051523L105.330067,742.121500L109.270935,742.373417L110.480408,742.485380L111.917304,742.597343L112.983866,742.457389L115.720309,742.079514L117.083949,741.477713L121.961958,738.314766L126.272175,736.019534L133.548063,733.318444L134.012604,733.080524L138.368309,730.785302L142.489081,729.133865L145.703512,727.958266L156.090903,726.376808L159.441785,725.201212L163.177609,723.787699L166.194875,721.968329L171.483657,719.575161L173.660074,718.889400L175.548038,719.323248L176.583647,721.156610L179.637232,723.171912L181.768641,723.885665L183.905103,724.081598L187.707952,723.829685L190.928826,722.906004L194.599006,721.100630L197.433399,719.911043L201.549236,718.511532L205.227135,717.993713L209.035030,717.223982L211.538604,716.930085L217.407217,717.000061L221.606098,717.042046L226.500622,720.218936L230.158821,724.403487L233.436648,728.140204L237.510341,729.679678L238.870225,730.631355L239.465276,731.541046L241.170939,731.541046L242.694918,731.009226L244.152734,729.917597L246.743133,728.280156L248.774153,726.236856L249.797547,725.005279L251.744197,722.947989L254.147379,719.897048L255.381404,718.749449L256.151543,717.741801L258.082955,716.272316L260.330035,715.460601L262.145913,715.250675L263.427220,715.306655L267.352312,713.515287L272.113319,710.842234L274.880516,708.756977L276.994926,706.391823L279.167118,703.396901L280.320677,701.647534L282.090262,698.372725L283.372442,695.601740L287.410500,690.745532L289.713044,686.966939L290.220165,685.455505L293.084115,680.557352L294.236357,678.038309L299.348315,672.930265L301.104150,671.978631L303.357689,671.418847L308.843612,669.669524L312.248724,668.885828L318.436422,668.591942L321.800025,668.186099L326.183679,667.304442L330.435961,665.904988L334.621121,663.609886L338.787115,660.293190L341.984595,656.304771L345.375171,650.651032L349.642724,640.673085L350.335664,639.805441L352.458012,638.461993L357.478888,635.817085L362.814350,632.528450L364.446780,631.814747L368.038758,630.779179L376.535615,628.889970L380.849708,627.238663L385.167593,626.231087L389.041199,625.587359L393.751950,625.097565L397.867630,623.964044L403.992120,621.221208L408.166134,618.660299L409.451182,617.428826L410.351278,616.435251L416.557403,608.570649L417.202577,607.563088L419.832205,604.708335L423.089235,600.594144L426.088597,595.192539L426.848408,591.890015L428.802464,585.424928L428.272959,572.984626L428.574710,568.506706L429.054313,563.916855L430.391324,561.272101L433.079227,557.521876L434.050109,556.402408L438.535895,552.456292L441.552131,549.867535L442.582360,548.622134L444.747873,544.074334L446.601199,541.709484L450.295580,539.008803L452.202013,537.665462L456.956603,535.272637L459.967848,534.600968L468.571124,532.823846L474.613517,530.473010L477.180304,528.765858L481.561494,526.345064L482.711642,525.617428L485.356746,524.805834L492.784227,524.414030L500.128413,523.378549L506.771945,522.189146L511.611437,520.677907L515.204506,519.012747L519.199307,516.326107L522.530066,513.359615L526.002054,510.407123L529.620776,508.084314L531.142043,507.244745L533.918396,506.950896L539.858478,507.664529L543.369851,507.958378L545.027411,508.084314L552.784307,509.623524L554.349764,509.679495L557.056816,510.015323L558.802715,511.232700L560.493123,514.618974L560.828802,517.067731L560.640833,517.949284L559.700295,520.090203L557.378316,522.580950L555.792731,525.463505L555.084204,527.884297L555.445538,531.340580L555.907412,534.824858L555.357072,539.540543L553.854949,546.397208L554.053059,548.076397L554.976030,550.413272L556.409231,552.246393L556.724757,552.904078L557.510218,554.205456L557.606518,558.683325L557.809626,560.110649L558.843798,560.908272L561.752764,561.901803L566.143870,562.307612L568.599572,561.873817L575.548539,558.515405L576.768056,556.892175L578.379127,555.017068L580.786484,549.979481L583.282360,545.067852L584.947462,543.850443L585.225312,543.598565L588.675817,541.149757L591.045479,538.798906L593.418857,535.426562L594.829233,533.929300L600.352583,530.025232L604.270348,526.946764L610.325451,521.769357L613.906047,519.068719L616.322091,518.019249L618.803395,516.927802L621.567139,515.864341L623.244875,515.416568L626.205439,515.262647L628.152324,515.836355L629.913741,518.830839L631.470318,520.426034L636.064768,521.727379L638.717481,521.937273L640.194468,521.867308L643.290231,520.943773L647.855522,518.662924L649.782155,517.445539L654.602371,515.178689L660.268771,511.260686L666.249440,507.230752L671.706060,502.165368L672.724909,500.920014L677.739702,497.757660L688.023011,490.677374L696.249848,484.800486L700.303937,481.987985L704.097726,479.945078L707.487706,478.517844L715.109522,475.831289L722.968821,474.040255L732.446709,471.661543L735.994374,471.395687L739.160847,470.346257L744.821963,467.211963L749.856275,462.874338L753.746901,460.215800L761.588864,454.576921L762.311047,453.961263L765.955863,451.148831L772.574652,444.824377L779.951850,438.290075L794.231453,429.293221L796.419447,428.341769L798.039427,428.257817L798.412815,428.285801L802.947852,429.447132L807.207468,429.335196L815.794457,428.943422L821.724985,428.663583L828.688788,427.880035L837.973186,427.166446L844.100142,425.963141L852.111016,423.150770L852.538974,423.038835L857.697855,420.898080L863.419533,418.407532L868.512475,416.406702L873.463042,413.622336L877.446499,410.935918L880.781423,408.081605L882.328824,406.752392L884.588903,406.178733L888.782766,405.940874L892.206676,406.178733L895.946003,407.074201L900.593059,406.598484L901.539673,405.241290L900.041517,402.051190L897.468505,400.442151L889.810043,400.456143L886.711301,398.539291L881.253587,399.504712L870.715224,405.605073L866.731016,405.591082L868.137409,400.484126L877.647988,396.902274L879.094222,396.342610L882.394414,392.187116L881.316569,390.927878L870.564181,392.536905L868.028962,391.571488L867.462661,383.582348L864.266972,379.748698L866.806214,370.164623L866.541574,365.057810L868.640686,360.580620L872.264240,356.439234L873.278217,352.913470L871.813335,350.353100L878.327950,337.257517L878.026736,334.375388L872.683456,330.877667L872.111760,329.268719L873.496838,327.030185L879.792420,322.888908L881.448050,319.377228L880.102162,315.865558L882.472878,312.983477L892.662384,306.925533L920.782105,292.571258L944.890521,278.622863L948.323742,276.622254L974.683024,256.840172L982.781699,248.851879L986.993105,242.766262L994.140380,235.421590L1000.000000,231.868183Z " data-aland="5496046" data-awater="317954" data-classfp="U1" data-funcstat="S" data-geoid="3286200" data-intptlat="+39.0133320" data-intptlon="-119.9235975" data-lsad="57" data-mtfcc="G4210" data-name="Zephyr Cove" data-namelsad="Zephyr Cove CDP" data-pcicbsa="N" data-pcinecta="N" data-placefp="86200" data-placens="02652368" data-statefp="32"/></g><g fill="#000" font-family="Arial" font-size="12px" id="mylayer-label" stroke="none"><text text-anchor="middle" y="551.457380524"><tspan dy="0" x="398.035345405"><![CDATA[Zephyr Cove]]></tspan></text></g></svg>