<?xml version="1.0" encoding="utf-8"?><!DOCTYPE svg  PUBLIC '-//W3C//DTD SVG 1.1//EN'  'http://www.w3.org/Graphics/SVG/1.1/DTD/svg11.dtd'><svg enable_background="new 0 0 1000 1001" height="1001px" pretty_print="False" style="stroke-linejoin: round; stroke:#000; fill: none;" version="1.1" viewBox="0 0 1000 1001" width="1000px" xmlns="http://www.w3.org/2000/svg" xmlns:xlink="http://www.w3.org/1999/xlink"><defs><style type="text/css"><![CDATA[path { fill-rule: evenodd; }]]></style></defs><metadata><views><view h="1001" padding="0" w="1000"><proj flip="auto" id="robinson" lon0="-111.834425568"/><bbox h="1.11" w="1.08" x="-1529.52" y="-667.35"/></view></views></metadata><g class="" id="mylayer"><path d="M690.326487,0.000000L684.018221,0.030148L665.101801,0.075369L658.788116,0.090443L652.764134,0.226108L644.324354,0.391920L643.282747,0.406994L634.675932,0.587880L628.641112,0.693397L626.509554,5.215566L621.995676,14.727258L619.991863,18.782190L618.330085,22.143725L606.984673,22.279393L606.713676,22.279393L589.384156,22.490431L587.276291,22.520579L586.525205,24.269186L583.230870,24.254112L577.739987,24.193815L567.224319,24.239037L563.300283,24.254112L561.864490,24.269186L557.895119,24.329483L555.523607,29.349205L536.153015,72.130892L531.783680,81.597973L525.088455,81.477373L518.969231,81.417072L514.377473,81.356772L500.601206,81.447223L480.265216,81.417072L476.071584,81.401997L473.289134,81.371847L448.895643,136.834384L451.290853,136.849460L455.381585,136.954991L457.861547,137.000218L470.873341,137.181128L482.500530,137.211280L487.509730,137.301735L493.834543,137.316811L497.332997,137.316811L501.921893,137.437418L506.564007,137.603252L503.734114,143.950205L502.199962,147.357374L495.183170,162.991297L493.656003,166.383452L515.039134,166.172384L517.541289,166.142232L507.639856,188.003047L505.348821,193.038638L505.107454,193.566321L502.366738,199.612080L481.006404,249.683175L479.801244,252.291581L476.823548,258.533691L471.521831,269.615789L465.100897,283.065242L461.328132,290.966122L451.146463,312.588304L449.809073,315.513515L440.438558,336.683843L439.828019,336.698921L416.881089,336.744158L394.039607,336.774315L389.168051,336.759236L381.219542,354.280874L407.354392,354.295953L408.426179,354.295953L432.874740,354.280874L431.289372,357.749047L420.583644,381.197214L410.590849,402.791105L409.335053,405.565771L389.696870,448.619282L385.102706,458.889050L380.721036,468.208838L378.914655,472.054406L376.760432,476.850075L376.333224,477.785083L367.815593,495.942486L364.672700,502.713890L360.645464,511.340331L359.117403,514.658211L354.504697,524.566672L352.958944,527.869513L352.400901,529.091114L352.249334,529.422908L358.137289,529.317337L361.806167,529.241929L380.024434,528.925218L422.571580,528.804566L427.114272,528.110817L424.657014,533.706066L377.458496,638.000327L302.128075,743.315600L297.670612,749.545550L294.968324,749.500296L294.125060,749.485211L285.081085,749.620973L284.341825,749.620973L281.798262,749.605888L281.317743,749.605888L281.056463,749.530465L278.918045,749.545550L276.675622,749.545550L260.492267,783.169813L257.354306,786.941108L256.013974,788.555226L252.843062,792.371795L249.514185,796.399573L246.741523,799.748523L246.066105,800.472622L240.131577,806.808508L239.410870,807.577868L238.439054,808.573512L237.442596,809.569156L236.435264,810.534630L235.415612,811.500105L234.371318,812.465581L233.321587,813.415972L232.266419,814.351279L231.193494,815.271501L230.108247,816.191723L229.005243,817.096861L227.896801,817.986914L226.782922,818.861882L225.644401,819.736850L224.512765,820.596734L190.568180,845.790128L185.892403,849.259924L178.381181,854.434467L168.961009,860.363347L165.694379,860.393520L105.581390,901.519445L98.176462,906.407592L89.285857,911.959589L78.704766,917.949140L69.418208,922.505446L56.595903,927.951917L28.073640,938.211274L25.983809,943.009066L23.919304,947.535305L11.958997,973.380499L12.569653,973.365411L20.568016,973.335236L24.902770,973.259796L25.703695,973.259796L55.398226,972.641194L60.907561,972.611018L62.127430,972.611018L64.672625,972.595931L70.906815,967.058703L79.674376,960.721858L89.565182,953.570320L112.815120,937.984964L123.615291,930.758143L127.084668,928.419621L136.289101,922.098094L138.263838,920.740253L135.742470,925.673750L134.830107,927.619999L133.027480,931.437070L129.452196,939.735099L124.749947,950.477371L120.420859,960.374841L110.942868,981.995704L103.566796,998.954735L222.983504,999.000000L231.488531,980.185147L235.896024,970.438370L260.484781,915.278732L282.462378,865.854757L285.070746,860.137054L308.702359,808.286887L311.813662,801.468259L326.267064,769.201057L327.605486,766.214241L329.874393,761.296573L332.406386,755.775537L335.246776,749.605888L335.596439,748.866740L340.858860,737.417546L342.622463,733.661513L355.653510,727.084717L393.792647,700.159500L426.092845,677.066207L428.434210,675.391925L452.232676,655.134836L460.634394,647.985368L474.124530,636.869097L500.263977,615.345798L524.569311,595.331184L543.934335,578.770775L565.811750,556.871618L575.912484,540.824593L587.282699,520.947132L593.736342,509.002739L605.927410,487.708276L649.992202,437.610685L677.761279,415.850197L685.572978,415.955756L686.249730,416.227194L689.388121,416.800229L692.689786,416.800229L702.071926,416.785149L715.637315,416.754990L715.936512,416.046235L717.126222,413.739016L721.475878,404.947503L723.776442,400.182322L724.518743,399.609296L730.468434,394.919537L732.591359,393.185388L735.548675,390.757583L739.855093,387.183744L740.656493,386.535327L743.067583,384.575000L743.549301,384.167856L743.858126,383.896426L748.262499,380.081341L754.287863,374.848816L761.474231,368.666327L763.043017,367.309201L765.934401,364.971931L771.356571,360.493435L802.329463,360.327565L808.582297,360.312486L828.326055,317.111829L830.607259,312.120874L830.984768,310.055138L833.572926,309.271064L836.987333,308.215581L852.974578,303.586546L859.441302,301.701766L867.575338,299.349565L891.971998,292.277915L898.507196,290.378078L900.086808,289.940814L901.947262,289.428160L907.498559,287.875122L909.341267,287.347391L911.188968,286.970440L914.225597,286.337164L914.849413,285.161080L928.858178,259.393115L936.501788,245.340871L940.763667,237.500645L946.913611,226.177655L950.212968,220.146818L958.360366,214.990480L982.132139,199.883462L988.041003,196.174587L986.542072,196.219817L929.500188,197.229956L883.220232,197.576721L874.210817,197.667181L892.933742,156.403009L894.390943,87.884283L893.491433,85.246139L892.400527,85.261214L870.566137,85.517490L837.948813,85.864218L832.961862,85.698391L830.139979,85.592866L824.012880,85.818992L821.176721,85.879293L812.658878,85.999893L809.824195,86.030044L808.841683,85.969743L805.907943,85.758692L804.920011,85.683316L805.086053,85.562716L805.824558,84.190883L805.940334,83.964757L807.608975,80.452271L808.446496,78.567895L809.249536,76.758897L810.883218,73.080611L812.768180,68.799344L813.861427,66.221547L815.759737,62.045832L817.437344,58.352524L823.253639,40.338413L825.366437,34.806109L825.370873,34.338804L825.444309,31.459607L769.725257,31.173195L770.853546,32.906741L722.384881,32.846444L678.264498,32.786147L675.501310,32.740924L678.233331,26.771507L678.991256,25.007822L680.633260,21.420165L685.141472,11.516487L687.956458,5.366305L689.075668,2.894184L689.815914,1.115466L690.326487,0.000000Z "/></g><g fill="#000" font-family="Arial" font-size="12px" id="mylayer-label" stroke="none"><text text-anchor="middle" y="371.987865603"><tspan dy="0" x="565.263929758"><![CDATA[N]]></tspan></text></g></svg>