<?xml version="1.0" encoding="utf-8"?><!DOCTYPE svg  PUBLIC '-//W3C//DTD SVG 1.1//EN'  'http://www.w3.org/Graphics/SVG/1.1/DTD/svg11.dtd'><svg enable_background="new 0 0 1000 1001" height="1001px" pretty_print="False" style="stroke-linejoin: round; stroke:#000; fill: none;" version="1.1" viewBox="0 0 1000 1001" width="1000px" xmlns="http://www.w3.org/2000/svg" xmlns:xlink="http://www.w3.org/1999/xlink"><defs><style type="text/css"><![CDATA[path { fill-rule: evenodd; }]]></style></defs><metadata><views><view h="1001" padding="0" w="1000"><proj flip="auto" id="robinson" lon0="-111.804796611"/><bbox h="0.6" w="1.19" x="-1512.6" y="-701.37"/></view></views></metadata><g class="" id="mylayer"><path d="M1000.000000,250.378609L978.568286,250.337617L976.000179,250.351281L936.693355,250.228303L830.463728,249.845706L818.782414,249.818378L781.069113,249.681736L779.478169,249.668071L741.362643,250.255632L738.632575,250.364945L730.470160,250.638229L727.742653,250.720214L727.593721,251.704037L727.564447,251.895335L726.789538,253.753668L726.340095,254.860471L726.084110,255.475361L725.929778,255.912616L725.607219,256.814456L725.264218,257.511333L724.923781,258.180881L724.539096,258.959744L720.791765,266.352126L719.936476,268.101160L718.443845,271.148309L718.253700,271.544576L717.671936,272.733376L717.477407,273.115978L715.900686,276.395432L715.810370,276.573069L714.554371,278.909684L712.661050,282.544424L710.513300,286.233830L710.177271,286.917054L708.426575,290.360508L708.034971,291.153050L706.777538,293.626330L703.691210,299.652403L702.261804,299.789049L680.338670,300.089670L681.103247,298.340603L681.389168,297.889672L682.498855,296.085949L682.564066,294.664835L682.157995,293.858627L649.478633,294.295893L646.260911,300.513272L614.016491,300.964204L590.059641,301.319484L587.836412,305.692162L586.460801,308.397763L586.266271,308.780373L585.964966,309.395283L584.480031,312.360518L583.979815,313.344376L583.259107,314.806500L581.099559,319.165548L580.397141,320.614012L580.748461,320.614012L575.426884,331.081249L575.220330,331.108578L567.846237,331.190567L560.201977,331.313551L558.189224,338.460279L556.060354,344.609496L553.866858,350.239466L553.906991,351.564971L553.932522,352.562517L552.888623,355.418507L552.601132,358.124187L552.419760,358.971421L552.018258,360.898196L551.995930,361.499460L551.979099,361.800092L552.597260,362.701988L556.042414,365.243698L557.549310,366.336908L554.221190,372.950842L549.596714,382.092872L538.277068,382.311516L529.839201,399.379506L524.710111,409.737905L517.608523,409.751571L496.225523,409.901891L510.390514,382.748804L504.917685,382.858126L503.915980,382.844461L485.771213,382.666812L486.471002,381.245626L464.833452,380.849334L455.804952,380.685351L454.551357,380.699016L453.213909,383.240753L452.873515,383.910351L451.813948,385.905482L451.469169,386.561415L450.198646,388.993839L449.014050,391.234951L437.801477,391.398935L436.618023,392.478496L422.130713,406.731503L412.399934,418.360843L410.162857,420.465339L407.715203,422.337522L406.059065,423.321444L401.914692,427.216140L398.832743,429.689619L396.072519,432.176767L394.901163,433.611662L392.769769,436.221807L392.215533,436.754769L391.489835,437.424388L388.699272,439.146267L386.748104,439.952544L384.291686,440.950142L382.818356,442.221056L376.741178,448.602968L374.500866,451.226802L373.696570,451.828098L368.141756,454.082959L365.829757,455.353882L362.453905,457.759073L361.854342,458.292042L355.376511,463.990719L353.590992,465.630630L353.996409,464.810674L355.233502,462.309812L355.634534,461.476192L358.153700,455.873185L363.448056,444.052266L365.877040,439.050607L368.591585,433.420342L344.725282,432.614068L350.794062,420.274021L353.051957,420.246690L363.256828,401.019354L361.675294,400.964692L347.871419,400.541064L338.354431,400.267756L336.336881,403.656779L334.481660,407.127801L333.048545,407.182463L306.578032,407.018478L315.249613,391.521923L330.527154,361.718101L276.258990,361.171498L280.888782,351.865601L286.559625,339.799440L275.588641,339.444153L260.985650,338.965881L257.276964,345.880337L255.419873,349.487891L251.265783,349.433231L235.920130,349.501556L230.496742,349.446896L228.732431,349.528886L228.143858,349.460561L223.707519,349.515221L222.103359,349.460561L214.532157,349.528886L212.780668,349.474226L209.960566,349.515221L209.104385,349.460561L207.050544,349.487891L204.221673,349.501556L203.519026,349.501556L203.165883,349.460561L202.817124,349.433231L202.073529,349.446896L199.101713,349.474226L198.375655,349.542551L192.715348,349.597211L192.047445,349.528886L190.578537,349.542551L186.325016,349.460561L181.031750,349.528886L180.238438,349.528886L179.445873,349.460561L173.622520,349.501556L172.000079,349.460561L168.783320,349.501556L168.029138,349.446896L163.153375,349.474226L162.261704,349.556216L158.881899,349.583546L157.854978,349.597211L156.952720,349.610876L155.212565,349.556216L151.890172,349.515221L151.090658,349.460561L147.586189,349.487891L146.718677,349.433231L142.946600,349.474226L142.033756,349.419566L137.389037,349.460561L134.644628,349.419566L131.219490,349.446896L130.361818,349.528886L126.528691,349.556216L125.234909,349.515221L124.576846,349.583546L120.367912,349.569881L120.046204,349.556216L117.482376,349.583546L115.787554,349.528886L114.114651,349.542551L111.608235,349.501556L106.340199,349.542551L100.015522,350.034491L96.481437,350.075486L95.677540,350.007161L94.840714,350.048156L93.339302,349.925171L92.613989,349.925171L91.366287,349.815851L91.030680,349.829516L89.994243,349.884176L89.654252,349.884176L86.959053,354.871906L74.695029,376.380805L74.350888,376.968409L30.027932,455.914182L27.402463,460.587909L15.382272,482.426140L15.095605,482.945451L13.101775,486.020319L6.998508,497.089892L4.966676,500.752433L2.222612,505.726942L1.869049,506.355590L13.908394,506.505919L30.324388,506.697247L80.442524,507.298562L95.958411,507.722216L100.731407,498.265184L107.285433,485.705999L108.106624,483.956740L109.785828,483.997738L112.048168,483.984072L113.350802,484.052403L114.785787,484.038737L121.597660,484.216396L123.474656,484.202729L131.211502,484.366722L133.201835,484.353056L138.969189,484.489717L140.812184,484.476051L145.933522,484.612712L151.809464,484.558048L154.413640,484.585380L156.891319,484.571714L165.750568,484.066069L159.854150,495.354287L159.078721,496.857567L156.718448,501.367413L155.938642,502.857031L155.357719,503.977663L153.617519,507.312228L153.032214,508.419196L152.518202,509.430501L150.930836,512.464419L150.401106,513.462060L149.044802,516.085995L144.951440,523.916825L143.579446,526.527109L140.596768,532.239684L127.704667,531.693025L115.786928,531.392363L111.668752,539.004600L103.052392,554.598176L102.864137,555.035509L102.286208,556.306509L102.082231,556.730175L99.505811,561.554516L91.731376,576.027622L89.150674,580.838351L74.339149,608.090300L100.752283,608.527647L99.287712,611.343070L94.813278,619.926039L90.463925,628.263041L87.512254,633.893958L59.071112,633.565943L46.969272,658.522608L42.065528,666.791464L32.971024,683.889676L31.930799,683.862340L7.603097,683.356635L6.793954,683.342968L5.844107,685.078766L5.266255,685.926165L3.563653,689.411438L3.042478,690.258838L0.000000,695.712282L1.242414,695.698614L54.573339,696.409340L53.810309,697.844461L52.441393,700.427680L51.557786,702.122493L48.875533,707.179607L47.976213,708.860759L47.663781,709.475815L45.591831,713.398511L38.427495,727.011841L36.038816,731.535974L34.729934,734.023569L66.173582,734.802652L63.719972,739.477156L59.659062,747.227021L59.471625,747.596063L74.867030,747.992442L76.643493,744.561719L76.830930,744.192678L81.525386,744.233683L82.578035,742.183454L90.155920,742.238127L91.012973,742.224459L94.465477,735.650076L109.104357,736.196801L138.869534,737.290252L138.250567,738.397372L134.712187,744.739406L136.287022,744.807747L138.353647,744.889756L142.609033,745.081111L146.300226,745.245130L148.205680,741.828081L151.653103,735.732085L152.774541,735.800425L168.246944,735.978111L179.380679,736.128460L183.641851,736.196801L207.339354,736.538504L228.756904,737.262916L236.067576,737.508942L244.778668,737.809642L255.241559,738.165013L264.589951,738.438376L266.184907,738.534053L293.880121,739.217461L310.533669,739.613838L324.914022,739.955542L325.412753,739.955542L324.482292,740.939650L321.531026,744.452374L320.137888,745.901204L319.299759,746.502605L315.618735,749.331929L337.137595,749.031227L367.990808,748.607512L368.881866,748.593844L388.085165,748.388820L393.447934,748.252138L399.115592,748.006110L410.707210,747.500385L413.775947,747.350035L417.822024,747.172348L420.439881,741.882754L425.706000,731.221608L431.632229,731.180604L434.020234,725.986737L434.790178,724.291900L435.183940,723.471818L463.292441,723.184789L490.257977,722.938765L490.834018,721.804319L492.542025,718.373651L493.113677,717.225540L494.534601,714.382604L498.786095,705.853822L500.195723,703.010904L500.748422,701.944811L502.397738,698.719201L502.946048,697.639443L521.898901,697.502765L529.203477,697.448094L532.946442,697.420758L536.827968,697.366087L543.585936,697.338751L555.336221,697.256745L558.659805,697.229409L562.210081,697.202073L564.109899,697.188405L580.505520,697.065395L598.020022,697.038060L609.164478,697.010724L610.535268,697.079063L611.708975,697.133734L622.446083,697.038060L647.228149,696.805707L666.138194,696.641693L668.600346,696.614357L695.092772,696.272662L721.449175,695.930967L726.865730,686.021839L729.163457,681.429491L738.061285,663.593257L752.927768,633.825621L760.856740,617.944298L761.349790,616.727921L762.794947,613.078794L763.276670,611.862420L763.785899,610.837387L782.843593,572.911588L795.533230,547.682865L812.897237,513.120402L832.308999,474.486175L845.534546,449.012942L888.724571,448.971944L937.840521,348.790977L950.381058,348.845636L1000.000000,250.378609Z " data-aland="17809512" data-awater="21402" data-classfp="C1" data-funcstat="A" data-geoid="4954990" data-intptlat="+41.7755386" data-intptlon="-111.8066548" data-lsad="25" data-mtfcc="G4110" data-name="North Logan" data-namelsad="North Logan city" data-pcicbsa="N" data-pcinecta="N" data-placefp="54990" data-placens="02411274" data-statefp="49"/></g><g fill="#000" font-family="Arial" font-size="12px" id="mylayer-label" stroke="none"><text text-anchor="middle" y="504.117939303"><tspan dy="0" x="475.651709463"><![CDATA[North Logan]]></tspan></text></g></svg>