<?xml version="1.0" encoding="utf-8"?><!DOCTYPE svg  PUBLIC '-//W3C//DTD SVG 1.1//EN'  'http://www.w3.org/Graphics/SVG/1.1/DTD/svg11.dtd'><svg enable_background="new 0 0 1000 1001" height="1001px" pretty_print="False" style="stroke-linejoin: round; stroke:#000; fill: none;" version="1.1" viewBox="0 0 1000 1001" width="1000px" xmlns="http://www.w3.org/2000/svg" xmlns:xlink="http://www.w3.org/1999/xlink"><defs><style type="text/css"><![CDATA[path { fill-rule: evenodd; }]]></style></defs><metadata><views><view h="1001" padding="0" w="1000"><proj flip="auto" id="robinson" lon0="-122.821968421"/><bbox h="0.71" w="0.61" x="-1653.55" y="-714.99"/></view></views></metadata><g class="" id="mylayer"><path d="M874.111692,0.000000L841.524442,0.068817L782.060057,0.206452L687.267823,2.133339L641.155227,82.810866L687.910362,82.764987L666.474196,120.339973L666.249597,121.326377L665.339763,122.312781L640.605452,165.691813L664.380884,165.921212L686.290938,166.150610L639.941877,248.849312L639.519833,249.583398L619.749799,284.567285L609.468693,302.781937L544.620465,413.241129L488.393587,413.034661L486.984948,413.034661L460.089668,415.282868L453.910413,415.236986L450.415188,415.191104L447.471997,415.145222L356.878259,415.282868L327.087433,415.282868L282.994971,415.259927L268.409169,415.466395L263.115760,415.535217L186.462823,548.456380L178.590665,562.748929L134.626794,563.161876L126.748597,578.028004L170.021461,577.592114L171.503166,578.326245L165.532955,589.177628L150.491326,616.409420L131.844902,650.179789L126.304533,653.162237L119.687471,664.610264L98.717492,665.390291L89.876217,669.313369L79.482871,686.405174L106.830086,686.818131L94.425642,708.337827L71.287477,748.670285L93.376520,748.693228L164.796884,748.739112L152.571030,769.983751L126.320202,815.639368L108.401058,846.795539L114.353998,846.772596L206.902073,846.497283L206.039482,848.263875L202.710691,854.986109L196.583376,862.304865L189.835159,870.770774L178.573556,881.989846L174.717670,884.559452L164.038938,891.648820L152.455188,899.220000L151.479880,900.619522L134.521468,900.711294L126.395419,914.890083L122.693407,920.969996L112.620838,921.635345L106.518700,931.661483L98.102920,945.450322L94.626638,953.457501L91.301179,960.340473L74.477241,983.398494L70.150419,992.919996L65.870175,998.449358L66.416429,998.426414L82.577086,998.265810L100.858323,998.059320L106.030907,998.036376L135.763054,998.311697L154.004787,998.472301L167.195484,998.609962L168.394903,998.609962L172.264102,998.701735L183.149697,998.908226L208.088547,998.977057L209.693634,999.000000L217.613390,984.614492L225.290219,970.619061L227.120487,967.200510L236.680477,949.396552L242.717633,938.223222L249.408007,926.774599L254.912350,917.092617L256.039876,915.096570L303.408575,832.869304L312.021142,817.910688L399.767535,665.619711L417.888115,634.349902L418.444708,633.546938L422.944556,625.815547L448.215117,600.854934L451.302511,598.033107L457.163328,595.486582L486.672824,595.647173L494.328032,582.524558L526.846670,582.616324L531.453492,582.616324L574.981056,582.731032L604.617991,529.965595L609.982488,520.399048L614.013956,513.218414L625.181217,517.967267L628.865419,518.081973L633.284699,518.242562L640.367561,518.471976L655.542993,515.351956L670.694186,509.226627L681.528618,502.894835L684.747876,499.843648L685.234002,499.958354L735.415969,500.118943L776.074054,500.256590L823.999793,417.691661L774.684360,417.118139L731.377837,418.311066L739.209918,409.685294L777.727826,367.244865L790.669732,347.676499L804.699486,320.950769L812.124524,301.841380L795.591817,301.726678L807.737250,280.598610L824.715540,251.097450L806.493034,251.670955L802.092983,251.808596L805.433243,247.587603L812.179603,239.329147L819.236669,230.497202L826.390719,221.000010L840.291480,202.946214L846.496088,195.100747L853.537185,186.429453L860.251740,177.895813L867.679600,168.949269L869.571043,166.586466L875.207320,159.498065L883.186070,150.023937L887.947869,143.761387L890.344888,140.618645L896.688537,133.392639L910.245252,116.899029L915.973568,110.544759L920.860428,106.117420L922.397322,104.305194L924.879229,101.345991L928.314807,94.808223L929.468354,92.537211L934.129825,82.742047L928.913142,82.512653L926.800355,82.512653L919.700631,82.512653L887.065467,83.292595L867.813638,82.512653L828.143536,82.650290L835.864591,69.322473L855.104694,36.129239L875.862795,0.000000L874.111692,0.000000Z M563.626618,502.252479L568.508109,498.627761L571.206387,494.727751L579.707306,492.456570L582.885394,496.035401L581.849322,504.959549L579.891864,509.524864L568.709595,512.553116L565.920332,505.647787L563.626618,502.252479Z " data-aland="4955435" data-awater="261342" data-classfp="C1" data-funcstat="A" data-geoid="4166550" data-intptlat="+42.6053205" data-intptlon="-122.8193770" data-lsad="25" data-mtfcc="G4110" data-name="Shady Cove" data-namelsad="Shady Cove city" data-pcicbsa="N" data-pcinecta="N" data-placefp="66550" data-placens="02411872" data-statefp="41"/></g><g fill="#000" font-family="Arial" font-size="12px" id="mylayer-label" stroke="none"><text text-anchor="middle" y="480.25169635"><tspan dy="0" x="477.879372519"><![CDATA[Shady Cove]]></tspan></text></g></svg>