<?xml version="1.0" encoding="utf-8"?><!DOCTYPE svg  PUBLIC '-//W3C//DTD SVG 1.1//EN'  'http://www.w3.org/Graphics/SVG/1.1/DTD/svg11.dtd'><svg enable_background="new 0 0 1000 1001" height="1001px" pretty_print="False" style="stroke-linejoin: round; stroke:#000; fill: none;" version="1.1" viewBox="0 0 1000 1001" width="1000px" xmlns="http://www.w3.org/2000/svg" xmlns:xlink="http://www.w3.org/1999/xlink"><defs><style type="text/css"><![CDATA[path { fill-rule: evenodd; }]]></style></defs><metadata><views><view h="1001" padding="0" w="1000"><proj flip="auto" id="robinson" lon0="-70.3286023044"/><bbox h="0.7" w="0.48" x="-939.92" y="-735.67"/></view></views></metadata><g class="" id="mylayer"><path d="M423.671420,0.000000L418.425002,16.690371L415.369229,20.225880L406.545401,20.776869L394.183688,22.934906L379.531417,28.215209L367.947931,42.816385L360.732759,51.241899L351.726874,64.442626L351.837847,74.107846L351.851697,83.222073L350.980359,90.981788L341.198938,95.917700L340.855567,100.669947L331.206484,107.672048L328.608273,128.448754L311.062891,160.566494L294.733377,168.165462L289.564658,175.695554L294.709038,193.304014L281.022511,218.235903L280.202913,233.548560L292.529520,245.509409L290.118444,264.173824L275.819317,272.599203L261.314116,269.683609L252.306581,271.612034L240.908896,282.539767L231.640263,286.075209L215.549573,290.345286L208.705481,286.901675L202.268216,283.710595L192.832987,288.462779L191.247727,289.059671L186.731462,290.758519L183.880647,279.899664L179.267508,291.263582L173.514809,307.884730L168.457368,324.299242L164.543257,340.805564L162.785655,349.001325L161.233075,357.151166L159.975804,365.323960L158.088739,381.830235L157.552406,389.888228L157.228887,397.877346L157.110395,405.820544L157.185777,413.694867L157.473974,421.500313L158.050757,429.236884L158.851512,436.927536L159.887396,444.595227L180.949813,580.753456L182.324111,588.765425L183.563750,597.006958L186.217800,613.030873L188.084777,626.460645L190.343898,641.359643L190.709710,643.632370L193.012851,657.452380L195.360976,671.754470L197.471234,686.814119L199.048109,697.190576L200.806693,707.589982L202.217079,717.117026L215.375812,800.656311L222.246133,846.041432L227.878099,882.174962L229.923542,881.394442L243.477945,879.971140L243.858895,879.741576L253.971373,884.837912L264.454684,883.644176L270.809525,884.401739L276.762283,886.903994L280.150193,891.495286L286.502868,893.767976L295.768616,903.317858L295.757634,904.970721L299.373074,908.276448L300.467468,908.345317L308.275267,910.181832L323.375805,912.133128L333.127159,913.992598L339.135130,917.114672L345.669904,924.047509L350.363154,928.868354L356.924761,930.245738L365.248943,936.650572L367.992972,941.241849L367.454769,952.329778L369.250708,954.464720L373.095008,958.045912L385.810473,966.195417L389.665182,964.772124L396.886745,962.246925L400.279842,964.588473L413.667294,963.211092L428.443191,960.364504L433.059806,957.196527L437.960548,955.314106L447.685827,953.730116L456.976751,951.136047L460.869318,949.712752L466.795494,957.380178L472.224778,963.830913L479.233408,965.231251L485.554323,963.853870L497.473866,960.938413L502.640760,962.797878L514.511055,976.571682L516.993506,985.065522L529.533515,983.114235L532.304245,983.435623L546.873420,985.111434L560.959654,999.000000L566.200544,939.772641L649.724116,853.823693L686.451461,816.060179L715.701585,777.217608L767.689052,717.851641L769.279075,716.290584L780.176089,706.442145L784.875408,702.470629L806.383818,683.783825L832.628337,661.240254L842.889605,652.149354L826.996265,652.539621L814.037843,652.654405L792.281106,653.297196L771.281080,654.054771L765.632516,654.008857L758.352148,653.411980L754.791479,652.906930L747.982772,651.254038L738.787732,647.420248L732.229971,643.127320L729.860536,641.175988L726.668886,637.962030L723.043736,633.232919L716.456218,623.384425L712.968134,618.586438L708.325996,612.778347L705.359398,609.403685L702.232452,606.166763L698.960723,603.021667L690.847803,595.996854L686.447006,592.438532L661.894344,572.443043L643.678668,558.117899L641.481199,556.442040L635.962912,552.883708L630.318028,549.922258L629.485295,549.417204L625.777080,548.062742L618.933903,546.065484L612.371012,544.917634L605.167705,544.205967L582.065981,542.392365L579.711332,542.185752L552.395196,540.119622L541.611418,539.017686L533.773934,538.053491L516.750393,535.688920L555.873929,493.103608L522.787211,466.496334L516.448572,461.950824L661.461704,298.770650L524.209683,190.044040L534.719170,182.123677L542.918606,175.764427L550.861700,169.267427L553.943305,166.604345L556.934625,163.872390L559.835660,161.071561L564.545013,156.066801L565.291110,155.263284L569.117158,150.740631L572.698028,146.103189L574.950443,142.980950L577.029024,139.812795L578.242384,137.631818L579.679476,135.014645L581.262227,131.800573L584.068912,125.257637L585.973752,119.977371L587.366329,115.202173L588.036563,111.942180L588.762854,107.121063L589.117065,102.391776L589.356878,96.101361L590.224077,52.619367L590.521210,47.109495L590.999792,41.232296L588.061926,46.374845L587.120773,49.428233L585.922971,54.019792L581.356547,57.486419L577.886194,60.402057L574.440082,62.743751L570.972724,64.924739L568.360475,63.524315L550.644084,51.150068L543.050818,45.617238L495.049036,10.744285L492.266254,8.953572L487.593694,6.703700L482.421393,5.647638L464.539897,4.201292L439.993200,1.744799L428.117079,0.573947L423.671420,0.000000Z "/></g><g fill="#000" font-family="Arial" font-size="12px" id="mylayer-label" stroke="none"><text text-anchor="middle" y="526.669173436"><tspan dy="0" x="432.812547001"><![CDATA[N]]></tspan></text></g></svg>