<?xml version="1.0" encoding="utf-8"?><!DOCTYPE svg  PUBLIC '-//W3C//DTD SVG 1.1//EN'  'http://www.w3.org/Graphics/SVG/1.1/DTD/svg11.dtd'><svg enable_background="new 0 0 1000 1001" height="1001px" pretty_print="False" style="stroke-linejoin: round; stroke:#000; fill: none;" version="1.1" viewBox="0 0 1000 1001" width="1000px" xmlns="http://www.w3.org/2000/svg" xmlns:xlink="http://www.w3.org/1999/xlink"><defs><style type="text/css"><![CDATA[path { fill-rule: evenodd; }]]></style></defs><metadata><views><view h="1001" padding="0" w="1000"><proj flip="auto" id="robinson" lon0="-82.8459511082"/><bbox h="0.93" w="0.97" x="-1138.39" y="-651.1"/></view></views></metadata><g class="" id="mylayer"><path d="M1000.000000,145.388955L999.860908,144.670237L999.273378,143.443157L998.899339,143.057504L998.158436,142.706910L997.170402,142.461494L992.767913,142.040782L977.922921,141.094179L976.018905,140.866293L969.879512,140.007339L967.626442,140.024869L966.338275,140.182636L962.008878,141.129238L960.899998,141.304535L958.698505,141.427243L957.352515,141.322065L956.478895,141.251946L955.698909,141.111709L953.724892,140.392992L952.761727,139.937221L947.066243,136.676706L944.469532,135.239276L940.341519,135.204217L934.389214,134.958802L931.136251,134.590681L928.013047,133.907026L927.016119,133.556434L925.064937,132.855250L908.306146,125.598011L906.191354,124.476122L904.246644,123.178938L902.457793,121.706460L896.878348,115.781503L895.069052,114.151266L893.089679,112.696326L890.914745,111.451739L888.572699,110.417505L873.399790,105.088582L871.550581,104.247174L869.729217,103.230474L868.893500,102.599419L867.486697,101.354839L866.338595,100.057672L864.964909,97.691221L864.520031,96.551819L864.139738,95.167010L863.899328,93.922435L863.690280,91.871517L863.688969,89.838132L863.982197,87.419107L865.505261,80.284755L865.693353,78.724667L865.785145,77.287283L865.722837,75.709669L865.538146,74.114527L864.471721,69.241464L864.006390,67.102930L863.468178,65.279920L862.294807,59.898543L862.008756,56.936164L862.193874,53.658270L862.942611,49.644174L864.147079,43.281235L864.272402,41.651065L864.286602,39.968309L864.160052,38.723772L863.845333,37.356536L863.296214,35.656256L862.683094,34.376665L861.784904,32.921789L860.665359,31.624671L859.415430,30.467783L849.524815,23.088257L844.425581,20.984835L841.508215,20.546623L837.823942,20.458980L834.411399,20.809550L828.898753,21.808675L827.190698,22.299474L826.045377,22.632516L823.600644,23.158371L820.455683,23.561528L818.393518,23.649170L811.289591,23.491414L801.240146,22.983086L792.590568,22.544873L786.593142,22.352059L781.535374,22.422173L776.669028,22.737687L771.908761,23.298600L768.116009,23.947155L762.603637,25.033925L750.345548,27.593095L730.105418,31.975243L721.295435,33.763163L716.816960,34.376665L713.281719,34.622066L704.710042,34.516894L691.628217,34.061149L682.985751,33.202247L666.397261,30.467783L661.031645,29.503710L656.804235,28.627281L652.900433,27.540509L644.998321,25.174153L635.213099,21.983960L632.228527,21.002364L622.806307,18.320504L621.618937,17.987463L619.026079,17.601836L615.796978,17.514194L617.473463,19.512441L618.252112,20.984835L618.479343,21.738561L618.752498,22.614987L618.971660,24.367840L618.766960,27.838495L618.949964,29.836753L619.351671,31.729843L619.966449,33.535290L620.530306,34.569480L623.371600,38.653658L625.781819,41.423191L626.540067,42.737845L627.215019,44.666005L627.468303,46.401351L627.667878,49.942163L627.620644,52.834416L627.228323,60.564641L626.406315,70.784015L625.944578,73.062786L625.249630,75.359088L622.748159,82.703770L622.079895,85.315609L621.496977,88.768852L621.563044,92.327277L621.842201,100.005084L621.977677,106.403282L622.313756,109.032684L622.939658,111.556915L623.502727,113.169619L625.508128,117.289035L635.914062,135.467161L636.615255,136.694235L643.351393,148.982551L647.099762,157.729920L648.153204,161.270951L648.418261,163.058998L648.427586,164.934698L648.172581,166.880519L647.230828,170.964997L645.964356,175.750684L645.117036,178.345128L644.172813,180.886985L642.776150,184.217701L641.488801,187.075109L640.618603,188.810592L638.719470,193.263253L637.918351,195.226635L636.415999,199.241056L632.369620,212.020647L631.262541,215.158586L630.574945,217.034339L627.855695,224.484781L618.544385,247.993316L608.670402,273.167598L605.122814,282.003223L601.830082,290.488268L600.213437,295.081429L599.266313,298.342230L598.903663,300.358319L598.766737,301.848474L598.732045,303.286036L598.833200,305.319662L600.448132,316.154019L602.045266,323.587337L597.704743,323.061394L591.742885,322.623108L589.913484,322.605576L588.471444,322.710765L587.100845,322.903611L585.568772,323.289303L584.275868,323.727589L582.526051,324.481441L570.096947,330.231768L567.586493,331.494037L565.295356,332.826433L564.937703,333.054343L563.725781,333.860794L562.046322,335.193192L560.954458,336.157428L557.493179,339.628682L555.993022,340.978616L554.325135,342.363614L552.798554,343.485638L551.421875,344.362221L549.743813,345.291398L548.119049,346.010196L545.629840,346.851716L544.237041,347.202350L541.505373,347.868553L531.631800,349.867166L530.369997,350.252864L528.955320,350.848942L527.850625,351.409957L526.746246,352.058630L523.940533,354.285160L521.675822,355.845486L517.542177,358.264870L511.431739,361.613444L506.467407,364.050367L498.094846,367.311292L495.617831,368.380737L492.598867,369.853415L484.881169,374.043543L480.244961,376.743462L475.276263,379.548578L473.413269,380.477774L471.830858,381.108926L470.620324,381.512162L467.802654,382.003058L464.853034,382.195910L455.703858,382.336166L448.645161,382.301102L439.830499,382.108250L424.453002,382.108250L403.410568,381.985526L351.434302,381.179054L355.814771,368.994352L351.426843,368.748906L347.127862,368.713842L322.055247,368.117758L315.414738,368.065163L308.054060,367.907376L306.372828,367.959972L298.830193,367.837248L296.665616,367.977503L295.388941,368.187886L292.227812,368.906693L290.050878,369.572905L287.630392,370.554691L286.298685,371.291031L284.981514,372.115031L283.750006,373.026691L282.709055,373.920819L280.588381,376.007120L279.185385,377.497337L269.211715,387.385393L266.186732,390.383379L262.358102,393.802140L260.454262,395.257307L257.780224,396.940393L256.254993,397.659211L254.922349,398.132580L253.637695,398.500755L246.153154,400.324102L240.509770,401.463695L238.320322,401.814339L231.553759,403.129254L226.286168,404.338978L219.644503,406.372717L218.171946,406.705830L216.397687,407.003878L215.481637,407.021410L214.952329,406.986346L214.115690,406.933749L210.022854,406.477910L198.699171,404.794816L195.044980,404.479235L187.633267,404.391574L177.676630,403.900672L173.464684,403.550028L168.059535,402.883803L154.464982,401.849403L152.653049,401.954596L151.405122,402.252644L150.183298,402.690949L148.976322,403.304576L144.962230,405.794153L143.082590,406.863620L142.977215,407.635039L143.429265,409.949299L143.080795,411.965512L142.314477,414.086922L141.089208,415.156394L140.652438,415.542105L138.408569,416.594045L136.291942,418.224554L132.815919,421.608303L127.590799,425.167382L124.748367,426.710236L121.905935,428.253092L117.266094,429.988806L111.409275,431.128417L109.379257,431.514132L108.330169,431.724522L101.327803,433.951150L99.834131,433.951150L98.796769,433.460239L98.536963,432.408289L98.716598,429.322572L98.068019,428.551144L95.422252,427.797248L93.777895,427.025820L93.153553,425.868679L93.000711,422.888168L92.246026,420.275841L90.729396,419.416755L88.614508,419.136237L87.735813,419.258964L87.053305,419.346626L83.447547,419.855064L79.736583,420.381036L77.247138,420.381036L74.449430,420.100518L72.965777,419.714805L71.918901,418.943381L70.820928,417.400533L70.248988,415.770025L70.869371,412.596675L70.956014,411.351882L70.154184,408.266201L68.157436,405.180525L67.108478,402.200047L66.819458,401.726678L65.797964,400.078651L63.656260,398.641013L62.973945,397.974790L62.370006,396.133914L61.621887,395.362500L59.161105,394.608618L58.745490,393.732011L59.067216,390.558700L58.281441,389.594435L57.313814,389.506774L54.449520,389.699627L53.850520,389.261325L53.402678,388.928216L52.716483,387.963952L52.614342,386.421130L53.162062,384.404945L58.269245,377.181761L58.674517,375.919460L58.586311,374.288990L58.089768,373.044223L57.379332,372.465669L56.545060,372.272818L54.055648,372.272818L51.366258,372.851371L49.164716,373.815627L47.461057,374.779884L46.836890,374.464309L43.032821,374.394181L40.990018,374.376649L40.006402,377.041506L36.674774,387.595778L36.866458,389.524306L38.422572,395.976125L38.569971,399.061785L38.573052,399.938394L38.763835,401.603952L39.590954,407.845426L40.149315,412.088238L40.506571,418.995978L41.041716,422.292066L41.923695,427.919975L41.987136,436.984277L42.020956,445.697971L41.472699,455.516267L39.619243,476.625785L39.270110,480.816158L37.597326,500.610982L36.621360,506.887862L34.954718,514.918092L35.233879,526.770635L34.244813,543.462514L33.509825,547.880978L31.393050,560.329883L31.293708,561.171502L30.918532,564.380178L30.860263,564.783455L27.700262,576.671390L26.827339,582.229641L26.863356,582.738125L26.930345,584.701927L27.055151,587.682704L27.920573,592.434421L27.977513,596.291913L27.404896,599.939004L26.511417,602.989942L25.425479,604.778425L24.588364,606.146089L21.748426,611.406347L19.371694,616.508812L19.270113,616.736757L17.550701,623.382257L15.111608,633.113838L13.979277,637.707864L13.227495,640.583519L12.178255,644.563855L11.190900,648.351318L10.566194,650.963971L10.168475,652.647294L7.529764,663.711668L6.714514,667.095872L5.380489,672.496584L5.097608,673.688951L3.701412,681.456890L2.865699,684.683313L1.528444,689.961332L0.860485,692.398694L0.081052,696.203792L0.000000,696.589563L0.000000,696.589563L9.221424,698.044971L9.773611,698.097576L13.795757,699.307495L21.866907,703.550984L22.167082,706.917727L17.604517,712.493908L16.295475,716.176301L21.239809,726.399363L20.459211,730.607845L21.876583,730.713057L25.585109,730.993623L27.624171,731.467077L28.301131,732.150957L28.427912,733.308292L27.434196,736.096420L27.859740,737.253758L29.343634,737.639537L31.596392,737.446648L36.534909,735.710641L38.887252,735.517752L42.410215,736.376987L43.415691,736.657554L46.565638,735.219650L48.245004,734.640982L49.079424,734.833871L49.989015,736.078885L49.916635,737.236223L47.981501,742.339038L48.506646,743.496379L49.867118,743.601592L51.086281,743.215811L52.823509,742.146148L58.409309,737.814892L60.150529,737.043333L62.014554,737.131010L65.118426,739.252797L68.689649,739.340474L70.756840,739.726254L72.477027,740.883594L75.171782,744.636186L78.642809,745.302535L80.312275,745.109644L81.892048,744.530973L82.936155,743.759411L84.606789,741.655154L85.427602,741.269374L87.566269,741.742832L89.411062,741.269374L91.176396,740.112034L93.483911,737.885033L94.988218,736.920585L97.763642,735.763248L99.728149,734.605911L101.569845,732.589341L103.075052,730.379885L104.472692,727.574230L105.408506,725.277103L105.852017,722.962444L105.360906,721.033563L103.596861,716.597146L102.767352,715.457357L102.578710,714.492920L103.320081,713.423273L106.851782,711.371656L110.942640,709.705815L111.726735,709.390182L115.110252,708.022441L114.850147,706.970332L113.798533,696.852588L114.438690,696.098582L116.608712,695.853091L122.521598,695.204295L124.543731,694.976340L130.203518,694.362615L132.845655,694.064519L140.313320,695.975836L144.028105,696.414212L143.262642,698.623628L136.591541,716.719892L134.006517,724.470479L131.323708,733.413504L130.220997,737.429112L128.925496,742.356573L128.354001,744.671257L127.115775,749.686415L126.187838,754.000163L124.687255,761.785979L123.867299,766.783648L122.458062,776.814099L121.946126,781.250662L121.231869,789.247023L119.992279,812.727770L119.466726,825.950069L118.702243,852.079296L118.263081,864.723169L116.734381,917.123391L116.454584,923.945350L115.961184,941.956144L115.306947,958.827174L115.010843,972.050521L115.588194,971.980371L117.278282,971.945296L118.886710,972.120672L120.399249,972.506501L123.643240,973.927052L139.361472,981.485806L144.491145,967.385510L155.164963,939.535988L160.970458,939.711362L167.724284,940.079646L174.392391,940.360244L201.823298,941.868457L210.947851,942.341966L214.852141,942.412116L216.114677,942.201667L217.370520,941.745696L217.983857,941.430023L219.136046,940.675916L220.159473,939.746436L224.818476,934.397552L227.021967,931.872182L239.276092,917.561819L251.410380,903.847826L262.869094,891.221221L267.377343,885.854940L320.906256,950.040891L322.435963,948.374834L323.229195,946.831540L323.291571,945.393472L321.415881,942.499803L321.227537,940.290094L321.550914,938.659121L322.216472,937.203522L324.304992,934.415089L325.696375,931.626660L325.940132,929.311741L326.310992,928.154283L327.341212,926.803916L328.646178,925.839368L329.964896,925.453550L336.391350,924.401317L337.634505,923.629680L340.401771,921.209548L343.671061,919.087551L345.326927,917.649505L346.219779,916.106237L348.243651,910.722347L348.387848,908.407454L347.948249,906.671287L348.343159,905.128028L349.546419,893.869293L351.733976,892.326045L354.106978,890.204082L355.161266,888.467931L357.544577,885.381446L362.267048,880.944632L364.572624,879.033122L367.765765,877.770475L370.400412,874.210515L374.275469,867.090617L379.625977,860.339015L389.833511,852.149442L392.752593,849.255919L394.215608,846.555301L396.441622,843.959906L398.241182,841.452197L401.202095,839.049709L404.627075,837.418825L407.531788,835.191706L410.705595,833.367926L414.349247,831.631829L418.794169,829.615153L424.178263,828.352540L427.716028,827.879060L429.821621,827.879060L437.702185,829.702835L440.277623,829.790516L442.458910,829.509935L445.600557,827.475725L452.600592,821.215283L455.670754,819.093401L457.127491,817.655432L460.802165,813.025884L464.100293,809.571266L465.459710,806.572593L466.206705,806.239408L467.200826,805.801006L469.430908,803.503781L476.654235,796.857628L482.111178,793.192610L487.956115,790.492074L489.241620,789.632814L494.506416,783.460179L500.671555,777.585674L506.479975,772.868548L519.340113,756.981215L524.053273,753.018171L525.201792,752.053715L533.992002,743.005386L539.848084,738.095458L542.245266,735.587894L543.712448,733.185544L547.026193,724.312661L581.567872,713.440808L585.509522,712.949823L586.918154,712.283485L590.746542,711.213840L594.297696,711.985387L599.887419,713.809047L609.369404,716.316582L616.928078,716.702357L618.270843,715.930807L620.596530,713.335597L623.624940,710.722855L625.228707,709.758421L627.533603,709.092085L630.792372,708.601100L638.336803,708.986874L641.252693,709.565534L644.037804,708.022441L645.166820,707.163219L647.594084,707.934765L650.791672,709.232366L657.536363,712.423767L660.203899,713.510949L661.277434,711.582078L661.420939,711.178769L662.736172,708.495890L664.884999,705.076539L666.746471,702.376133L672.138553,695.274435L676.673133,690.049006L681.061925,685.367175L688.926688,677.564149L692.325552,674.372809L696.476685,670.743104L697.108478,670.059248L697.578507,669.480600L698.226472,668.568792L698.687203,667.797262L703.245982,658.591537L705.249660,655.137210L707.444253,651.753029L709.533648,648.386387L715.278717,637.655260L721.284976,627.485296L721.632606,626.889127L725.907319,619.191557L727.106945,616.736757L729.166593,613.019496L731.680117,608.951558L735.683538,603.165283L738.814590,597.659572L742.061175,592.592228L744.577136,589.138025L745.592637,587.612568L746.341848,586.385189L747.013967,585.087675L747.674162,583.649890L749.147640,579.897628L752.528164,570.464406L753.906970,565.765346L754.591772,561.855318L754.847975,559.681135L755.237162,557.314084L755.942393,552.053982L756.248605,550.300618L757.133745,543.725518L757.285791,541.831893L757.488189,536.010764L757.849262,532.977472L758.801823,529.120113L761.916804,520.826821L762.340855,519.371553L762.521431,518.231887L762.896334,512.849164L763.060381,511.849768L763.340880,510.797773L763.647521,509.886044L764.025291,508.974315L764.491061,508.009988L764.985617,507.133327L766.385941,505.029342L767.591756,503.398755L768.964969,501.645438L771.271737,498.489471L774.719164,493.773064L775.593176,492.423017L775.819453,492.072356L776.475124,490.915173L777.022614,489.740459L779.240702,484.953942L780.341301,481.833070L780.786227,479.869378L781.224522,476.906311L781.252928,473.890651L780.948191,470.050950L780.465150,465.702806L780.146888,464.300181L779.716809,463.423541L779.370763,462.950156L779.017108,462.722230L778.691905,462.494303L777.965408,462.231312L777.341799,462.091049L775.904687,462.003385L768.227846,461.810525L765.333442,461.565066L764.032300,461.319607L753.428658,458.321505L750.208067,457.585130L748.577094,457.392269L746.337400,457.234475L745.185131,457.234475L740.332563,457.550064L736.569736,457.883186L735.016834,458.023448L731.806485,458.496832L729.432796,459.022815L727.526231,459.689060L725.594852,460.565698L721.644750,462.546902L720.309525,463.072885L719.064618,463.406009L718.086360,463.528738L715.930028,463.598869L713.923893,463.511205L689.843365,461.372205L682.639627,460.635829L681.480747,460.390370L680.898833,459.987116L680.195521,459.075413L680.740731,458.794889L681.906919,457.953317L686.032791,453.517538L690.363807,448.397997L694.466872,443.944709L699.528382,438.632336L711.808520,425.851147L714.872767,422.818038L718.717134,419.171302L722.661735,415.699896L725.811346,412.666804L727.256475,411.088897L729.450669,408.196072L729.719325,407.757765L730.542167,406.390249L733.666198,400.289038L737.205227,392.539827L739.810225,386.859432L744.490912,376.217504L755.127736,352.777431L757.880129,346.904311L760.434357,341.294185L762.887338,335.999644L764.231361,333.983515L765.285165,332.738775L766.294280,331.721947L767.635878,330.599929L769.066120,329.600633L770.843708,328.671464L772.536585,327.917610L773.459935,327.566980L782.103519,324.569098L783.788754,324.060686L794.316077,320.379085L800.664017,318.240254L802.033647,317.784438L804.705073,316.995525L809.068314,315.943643L816.361361,313.962599L833.083621,309.106420L834.544223,308.633075L841.328449,306.774758L845.960356,305.284599L849.156818,304.145067L851.093205,303.075661L852.628640,302.058849L853.973206,300.971912L855.223504,299.779789L864.187282,289.401339L875.865218,275.884899L882.009795,268.662147L887.070537,262.245844L893.272503,254.356977L895.147261,251.972793L897.784344,248.764668L899.657400,246.696044L900.943828,245.258527L903.222516,242.856824L909.555914,236.686041L911.064631,235.353715L915.760852,231.181439L916.356399,230.655522L922.860067,225.150939L925.143317,223.222586L927.114568,221.557192L930.446672,218.577016L933.179631,215.912393L935.092734,213.896397L941.588760,207.042030L943.037309,205.587014L947.840805,201.169383L949.534145,199.749433L953.270813,196.927065L954.942272,195.752541L958.124343,193.771628L958.657997,193.438555L965.790576,189.564388L967.451093,188.512579L969.033610,187.127699L970.340236,185.760350L971.048026,184.796194L973.659259,180.694155L975.812809,177.486156L983.411450,167.862195L985.260512,165.425535L997.482496,148.667016L1000.000000,145.388955Z " data-aland="15031141" data-awater="243679" data-classfp="U1" data-funcstat="S" data-geoid="3984588" data-intptlat="+38.7414727" data-intptlon="-082.8455429" data-lsad="57" data-mtfcc="G4210" data-name="Wheelersburg" data-namelsad="Wheelersburg CDP" data-pcicbsa="N" data-pcinecta="N" data-placefp="84588" data-placens="02393849" data-statefp="39"/></g><g fill="#000" font-family="Arial" font-size="12px" id="mylayer-label" stroke="none"><text text-anchor="middle" y="506.734579999"><tspan dy="0" x="454.430986881"><![CDATA[Wheelersburg]]></tspan></text></g></svg>