<?xml version="1.0" encoding="utf-8"?><!DOCTYPE svg  PUBLIC '-//W3C//DTD SVG 1.1//EN'  'http://www.w3.org/Graphics/SVG/1.1/DTD/svg11.dtd'><svg enable_background="new 0 0 1000 1001" height="1001px" pretty_print="False" style="stroke-linejoin: round; stroke:#000; fill: none;" version="1.1" viewBox="0 0 1000 1001" width="1000px" xmlns="http://www.w3.org/2000/svg" xmlns:xlink="http://www.w3.org/1999/xlink"><defs><style type="text/css"><![CDATA[path { fill-rule: evenodd; }]]></style></defs><metadata><views><view h="1001" padding="0" w="1000"><proj flip="auto" id="robinson" lon0="-83.3415677574"/><bbox h="0.2" w="0.29" x="-1128.31" y="-698.34"/></view></views></metadata><g class="" id="mylayer"><path d="M1000.000000,262.572619L851.087847,188.423366L809.132102,187.966010L790.791607,236.846104L767.977752,296.360263L755.336767,329.462037L745.952350,354.788724L740.180792,370.510759L733.381071,388.462511L620.132687,314.483320L470.364048,217.294022L354.589278,142.116248L348.980726,142.916615L342.007329,145.203378L333.693311,145.889408L323.462275,146.632606L309.895313,144.403011L300.473578,144.002827L291.483683,145.603562L274.601884,147.775989L258.551875,150.634446L136.078110,479.708495L0.000000,845.162799L132.986571,850.308581L304.485855,856.883752L352.398020,856.883752L369.382828,811.715318L432.373800,811.944018L449.656634,761.573010L451.100745,762.773677L453.793670,763.173899L547.415685,763.231074L875.609469,771.635745L962.710957,538.996211L869.574239,476.792720L934.872103,476.678376L954.257719,391.492588L1000.000000,262.572619Z " data-aland="1583477" data-awater="0" data-classfp="U1" data-funcstat="S" data-geoid="3985442" data-intptlat="+41.6026136" data-intptlon="-083.3419090" data-lsad="57" data-mtfcc="G4210" data-name="Williston" data-namelsad="Williston CDP" data-pcicbsa="N" data-pcinecta="N" data-placefp="85442" data-placens="02628987" data-statefp="39"/></g><g fill="#000" font-family="Arial" font-size="12px" id="mylayer-label" stroke="none"><text text-anchor="middle" y="518.904253023"><tspan dy="0" x="499.668156372"><![CDATA[Williston]]></tspan></text></g></svg>