<?xml version="1.0" encoding="utf-8"?><!DOCTYPE svg  PUBLIC '-//W3C//DTD SVG 1.1//EN'  'http://www.w3.org/Graphics/SVG/1.1/DTD/svg11.dtd'><svg enable_background="new 0 0 1000 1001" height="1001px" pretty_print="False" style="stroke-linejoin: round; stroke:#000; fill: none;" version="1.1" viewBox="0 0 1000 1001" width="1000px" xmlns="http://www.w3.org/2000/svg" xmlns:xlink="http://www.w3.org/1999/xlink"><defs><style type="text/css"><![CDATA[path { fill-rule: evenodd; }]]></style></defs><metadata><views><view h="1001" padding="0" w="1000"><proj flip="auto" id="robinson" lon0="-92.9485683311"/><bbox h="0.44" w="0.46" x="-1245.25" y="-729.04"/></view></views></metadata><g class="" id="mylayer"><path d="M1000.000000,21.562824L998.642325,21.527500L994.499571,21.315555L993.099172,21.244907L982.757975,23.011114L951.621902,28.168438L941.240178,29.828672L939.180339,27.956493L932.845660,22.163335L930.716103,20.185183L920.515522,29.581403L818.070523,116.584780L510.630863,377.701170L408.143760,464.669424L332.030650,529.206827L103.635595,722.748586L27.509321,787.250799L22.015928,799.402370L10.937174,823.846813L5.506752,835.857091L0.000000,847.973343L0.000000,847.973343L29.015792,847.655424L116.049637,846.666342L145.051905,846.313098L146.880136,850.481372L136.982330,871.287417L98.597623,951.932957L85.793342,978.814817L99.587870,978.814817L140.942230,978.814817L154.723245,978.779493L218.538650,978.744168L226.487701,978.284951L232.745378,976.766002L234.557033,976.306785L404.014909,917.279741L411.043357,915.407550L417.231873,914.701062L483.795989,914.595089L561.117240,914.418467L557.822585,921.695288L547.853217,943.455105L544.545099,950.696604L564.368445,949.954792L623.797903,947.623382L643.607713,946.846246L644.571793,946.387029L645.850414,945.680541L653.856047,940.099289L655.208465,938.898260L656.533487,937.167365L657.775943,936.213607L661.578215,931.409492L668.091217,920.246989L669.407474,918.798689L671.180374,917.703634L675.548510,914.913008L685.695186,916.149361L689.909472,917.844931L690.413604,918.551419L696.042020,923.178912L698.043228,923.673453L703.927036,924.309292L710.206848,925.369023L712.975960,924.662536L714.912879,923.461507L715.696126,921.765937L716.670811,917.668310L715.023242,915.195603L712.877016,913.252763L705.937471,910.850706L703.310882,906.965025L704.373633,903.326615L705.347596,901.136504L707.966231,897.745365L709.208686,896.791607L710.021533,895.555254L713.866157,893.153197L715.601055,892.340737L716.329136,891.952169L717.812688,891.704898L720.466369,890.009329L722.762410,888.066489L723.822576,886.865460L725.109964,885.876378L726.280094,884.428079L728.729962,880.824994L731.737305,877.151261L732.869795,876.444773L733.682645,875.208421L737.502072,872.205850L746.029358,866.765899L752.514141,862.632949L771.799355,849.562938L776.441113,845.959855L782.700155,840.625878L790.875314,833.349062L791.562493,832.395305L799.195111,827.061329L803.560329,823.422921L808.193748,817.735702L810.861027,813.249511L811.929275,810.847456L813.043255,806.502562L812.711956,805.407507L808.850895,797.989397L808.829754,796.788369L809.255764,795.304747L813.023451,789.264286L818.130283,785.272636L823.392710,781.916825L827.001335,779.585419L832.206001,777.148040L835.431350,776.335581L847.855210,774.816635L854.937526,773.085743L862.334034,770.648364L863.729542,769.941877L864.979273,769.694607L868.078246,768.246310L879.536631,765.349715L881.736567,764.148688L884.615600,763.194931L892.043975,758.320174L894.936639,754.575796L899.175955,747.934824L902.431457,742.388905L907.899665,728.647746L910.683172,717.132020L910.340242,715.471777L906.013493,710.349752L897.713094,703.320215L894.093173,699.434541L890.139140,693.606031L886.317403,687.282981L885.014367,682.196281L885.141918,681.383822L884.687180,680.500715L885.039075,679.052418L884.550720,678.310608L884.843837,676.403096L884.465458,675.414015L884.540493,673.471179L884.227156,672.270153L884.233536,665.487888L884.649495,662.449998L889.552849,650.439739L891.425633,647.543147L895.396857,642.950989L899.558814,637.864291L901.634947,636.415995L901.949169,635.709510L903.982565,634.225890L911.191972,627.938167L914.387992,623.840550L920.434020,612.678076L925.186989,600.809118L926.441987,595.227882L927.600822,587.103299L928.822223,581.663361L929.214687,577.035881L928.222333,575.587586L925.543172,572.938266L924.279637,572.690996L923.791318,571.949187L912.803188,571.949187L909.112848,566.579898L906.924867,562.235013L907.719603,557.360264L909.446995,552.096948L912.580959,542.488749L915.497738,537.508028L917.515445,536.059733L920.740791,531.962119L925.054930,529.030206L929.518917,528.323721L936.831711,528.570991L941.668693,527.617236L945.207607,525.179862L947.958461,520.834978L955.582626,505.928143L961.258504,495.401517L969.353340,474.772157L972.583774,461.136999L972.644126,460.607136L965.673288,460.642460L953.514227,460.713109L933.887533,460.819081L928.615753,460.253893L923.469679,459.406112L918.505554,458.346385L913.709870,457.039388L909.111850,455.485121L904.711495,453.683585L901.041724,451.882049L900.538031,451.634779L896.604966,449.374028L892.883079,446.901332L889.401594,444.216690L887.743829,442.556451L883.751192,438.458839L882.498149,436.939897L881.258617,435.456280L878.990731,432.277099L876.961045,428.956621L875.214496,425.459522L873.735370,421.821126L872.507954,418.076758L871.820629,415.286144L871.547961,414.191093L870.868902,410.199455L870.461955,406.384439L870.308644,401.933586L870.456669,397.659355L870.854199,393.349800L871.532661,388.934272L872.489849,384.483420L873.696542,379.997245L890.253673,332.662799L898.132987,310.090632L902.289269,298.186377L952.768268,155.759275L961.401169,132.021437L970.558835,105.528319L980.443899,76.809784L990.738524,48.550467L997.198688,29.828672L1000.000000,21.562824Z "/></g><g fill="#000" font-family="Arial" font-size="12px" id="mylayer-label" stroke="none"><text text-anchor="middle" y="598.030218719"><tspan dy="0" x="570.742521869"><![CDATA[N]]></tspan></text></g></svg>