<?xml version="1.0" encoding="utf-8"?><!DOCTYPE svg  PUBLIC '-//W3C//DTD SVG 1.1//EN'  'http://www.w3.org/Graphics/SVG/1.1/DTD/svg11.dtd'><svg enable_background="new 0 0 1000 1001" height="1001px" pretty_print="False" style="stroke-linejoin: round; stroke:#000; fill: none;" version="1.1" viewBox="0 0 1000 1001" width="1000px" xmlns="http://www.w3.org/2000/svg" xmlns:xlink="http://www.w3.org/1999/xlink"><defs><style type="text/css"><![CDATA[path { fill-rule: evenodd; }]]></style></defs><metadata><views><view h="1001" padding="0" w="1000"><proj flip="auto" id="robinson" lon0="-95.1499261223"/><bbox h="0.35" w="0.93" x="-1256.89" y="-767.67"/></view></views></metadata><g class="" id="mylayer"><path d="M1000.000000,319.744949L994.314645,320.361936L992.569982,318.704885L990.189928,308.427626L986.323340,310.877953L983.468015,312.658405L977.162597,317.277000L974.807241,318.810654L970.932395,321.278602L965.274159,324.910009L948.556178,334.799407L948.235324,335.028573L943.235136,338.501314L942.614457,338.853876L937.742714,341.656747L923.208963,348.796124L911.744334,355.371391L907.636593,357.363360L901.765822,360.201474L897.575413,362.704653L892.591037,365.930578L887.245495,369.015478L880.948040,372.400050L863.342209,383.029704L857.887258,386.044079L852.364320,388.564869L845.154203,391.526356L832.624198,397.061510L824.542613,401.397962L819.574981,403.918744L814.037114,406.227990L807.849415,408.678257L802.961365,410.846477L801.372249,411.533962L794.139148,415.517843L784.942458,419.589859L778.953938,422.375046L772.174648,425.389391L768.097709,427.011142L767.447076,427.275558L761.703969,429.232236L755.812986,431.717745L740.473244,436.988428L738.363239,437.693535L731.780123,439.315282L718.966729,441.166189L713.529850,442.012317L708.069165,442.453008L701.424482,442.594030L690.719566,442.100455L683.187959,441.307210L669.395989,440.989912L666.036265,440.866518L663.898877,440.778380L657.677162,440.320060L653.655938,439.632581L649.354612,438.539664L644.830145,437.041311L643.949718,436.671129L640.466200,435.260914L638.421366,434.397156L635.179928,432.986940L626.576999,428.368478L623.806775,427.381325L622.269885,426.923004L621.187848,426.588077L616.752105,424.596142L612.835622,422.833367L610.761690,421.758074L607.140859,419.272559L606.322747,418.708471L604.508378,417.139599L602.480421,415.570726L600.756840,413.807947L599.647011,412.133307L596.868049,406.298501L595.599806,405.205576L594.239157,404.553346L592.512006,403.953999L589.491983,403.530931L586.817251,403.495676L582.388467,404.165533L578.972942,404.800135L577.223594,405.099809L573.202574,405.628643L565.656352,405.840177L564.714287,405.875433L562.257503,406.104595L558.870626,406.404268L551.715775,407.726354L550.074352,408.008400L548.149594,408.378584L545.574996,408.889790L541.963827,409.577275L537.773199,410.529177L536.473519,410.811222L535.176106,411.058011L530.463152,411.939401L524.835792,412.979441L520.453421,413.702181L516.287543,414.601198L511.508553,415.623610L509.891068,415.976165L500.597822,417.668432L494.972076,418.461682L490.791311,419.149165L489.158132,419.413582L481.813583,420.806175L473.116554,423.080156L469.670245,423.750010L465.261820,424.102565L460.530875,424.931069L451.830558,427.698624L448.419523,428.262711L443.437609,428.897310L437.290141,429.831579L432.308223,430.466177L428.382477,430.730593L424.143462,430.995009L420.045391,431.171286L414.761277,430.748220L410.223790,430.007856L409.549367,429.866834L405.740364,429.091215L404.982773,428.914937L401.818267,428.192200L390.725657,426.975887L389.849615,426.870121L386.327872,425.724318L384.340714,425.072091L376.750158,422.762856L367.161755,420.189203L363.676141,418.814237L361.352805,417.633177L360.102787,416.258210L358.826759,414.513059L356.381229,412.133307L352.919153,410.282387L347.682723,407.902633L345.929610,406.933103L344.205801,405.840177L342.011272,404.870647L341.245019,404.165533L340.222860,402.790562L336.854915,400.252152L331.458799,396.814720L318.517328,389.816450L316.757036,387.189893L315.415058,384.369426L314.498823,381.460818L313.893183,378.040998L313.690984,375.432060L313.505917,372.999401L313.620115,369.015478L314.029850,364.643734L315.252273,359.813657L316.494717,355.336135L318.245541,348.161513L318.354518,347.685555L318.762607,344.776921L318.518758,342.925970L318.199174,341.145531L243.503802,341.656747L229.468418,341.921168L206.851430,342.115077L155.341735,342.555780L152.864874,347.844208L132.315378,389.957474L93.018777,470.886335L0.000000,663.321596L23.034538,663.427356L73.049892,663.392103L119.200207,663.004315L231.799020,662.034847L245.515438,660.994872L296.081084,660.483697L298.268150,660.466070L302.727726,660.430817L320.892898,660.078283L349.279097,659.672868L356.807189,659.531855L371.858847,659.320334L385.856698,659.108814L390.005958,663.021942L398.634220,671.147841L395.559778,679.115084L391.150721,690.572374L432.118574,690.061203L432.448604,689.356140L433.985510,686.042342L437.861932,677.669700L438.604510,676.083303L440.135447,672.751867L440.374723,672.240694L441.109054,670.671921L441.342341,670.143121L443.640626,665.172399L450.543798,650.242567L452.850379,645.254192L454.471456,641.517314L459.257534,630.289032L460.532083,627.292468L460.829926,626.534513L463.897149,620.012571L473.086954,600.411425L476.148265,593.871813L494.331514,594.118591L548.875289,594.841298L567.052561,595.070449L568.305707,595.070449L572.036663,595.070449L573.283820,595.052822L613.720381,594.700282L624.310819,567.572240L631.401041,549.504404L633.535406,544.092851L639.191587,536.724666L646.188602,529.321212L655.796062,519.961113L656.251740,519.961113L658.946281,519.467548L660.625397,518.709572L662.947040,517.369895L666.519935,515.060713L681.919158,504.096487L693.762298,490.964055L704.529235,477.849208L708.007950,473.125032L716.692560,473.371818L728.684122,472.790109L730.823939,472.508068L732.326557,472.613834L742.571180,470.075468L744.329061,469.088325L747.191734,462.425106L747.858386,459.692830L749.822439,451.390226L752.087950,448.040975L756.280797,447.053827L760.661963,445.573104L769.140673,443.369647L780.779512,440.073273L786.247534,438.187111L797.283900,434.626317L808.756627,430.589571L819.691960,426.605705L828.172623,423.150667L847.155672,415.024265L851.370572,413.138091L856.068948,411.040383L862.791193,408.026027L867.626106,405.575760L875.773494,401.433218L878.799582,399.987734L882.429048,398.348344L899.375481,389.005567L921.085173,376.331086L933.196933,368.768686L955.009835,354.595757L958.890950,351.475591L969.344277,343.683979L976.305099,338.060611L989.609348,328.224106L989.514348,327.818658L991.221346,326.514173L997.812456,321.437256L1000.000000,319.744949Z " data-aland="5031991" data-awater="300958" data-classfp="C5" data-funcstat="A" data-geoid="2748796" data-intptlat="+45.8642040" data-intptlon="-095.1518895" data-lsad="25" data-mtfcc="G4110" data-name="Osakis" data-namelsad="Osakis city" data-pcicbsa="N" data-pcinecta="N" data-placefp="48796" data-placens="02396090" data-statefp="27"/></g><g fill="#000" font-family="Arial" font-size="12px" id="mylayer-label" stroke="none"><text text-anchor="middle" y="509.289523049"><tspan dy="0" x="352.529950108"><![CDATA[Osakis]]></tspan></text></g></svg>