<?xml version="1.0" encoding="utf-8"?><!DOCTYPE svg  PUBLIC '-//W3C//DTD SVG 1.1//EN'  'http://www.w3.org/Graphics/SVG/1.1/DTD/svg11.dtd'><svg enable_background="new 0 0 1000 1001" height="1001px" pretty_print="False" style="stroke-linejoin: round; stroke:#000; fill: none;" version="1.1" viewBox="0 0 1000 1001" width="1000px" xmlns="http://www.w3.org/2000/svg" xmlns:xlink="http://www.w3.org/1999/xlink"><defs><style type="text/css"><![CDATA[path { fill-rule: evenodd; }]]></style></defs><metadata><views><view h="1001" padding="0" w="1000"><proj flip="auto" id="robinson" lon0="-94.7428108551"/><bbox h="0.18" w="0.22" x="-1266.29" y="-735.09"/></view></views></metadata><g class="" id="mylayer"><path d="M1000.000000,368.456397L968.625679,368.820716L950.519857,368.966443L874.089358,370.423718L842.588338,370.933764L866.815949,317.888943L884.221426,279.781157L894.378355,257.411946L925.388420,188.992698L939.413758,158.681264L963.856344,105.563344L859.641967,103.741741L662.003349,100.171399L597.854272,240.871838L539.710970,368.164942L515.210852,368.092079L492.634923,368.019215L441.823213,367.363441L422.894853,367.071986L417.362812,367.071986L404.194151,367.071986L364.667752,366.853395L351.472242,366.780532L337.515445,366.926259L295.805033,367.144850L281.821387,367.217714L266.312948,366.416213L237.734593,364.740347L228.304859,386.963781L220.119513,406.199795L196.255971,458.443020L124.453566,615.245223L100.564437,667.415361L90.852985,688.545708L61.698513,751.718106L56.053811,763.813389L54.524093,767.820861L54.874332,769.423850L56.253255,770.881113L52.466495,775.617216L48.171137,783.705022L33.433162,811.101544L28.176193,823.269675L22.453336,836.457885L17.974670,846.658709L4.538749,877.261166L0.000000,887.461981L73.673306,889.283555L294.666502,894.675414L368.313040,896.424124L372.816627,896.569850L386.273677,896.861302L390.750408,896.934165L427.512371,897.152754L537.717696,897.589931L574.452806,897.735657L575.835875,897.735657L580.078490,897.662794L581.434701,897.589931L586.058558,897.735657L599.903273,898.099972L604.500272,898.172835L623.402613,898.391424L680.510130,898.828601L689.101843,876.459674L745.496481,756.527074L762.748594,719.804033L839.202771,719.221127L945.010636,488.462812L1000.000000,368.456397Z "/></g><g fill="#000" font-family="Arial" font-size="12px" id="mylayer-label" stroke="none"><text text-anchor="middle" y="552.103624395"><tspan dy="0" x="534.99018361"><![CDATA[N]]></tspan></text></g></svg>