<?xml version="1.0" encoding="utf-8"?><!DOCTYPE svg  PUBLIC '-//W3C//DTD SVG 1.1//EN'  'http://www.w3.org/Graphics/SVG/1.1/DTD/svg11.dtd'><svg enable_background="new 0 0 1000 1001" height="1001px" pretty_print="False" style="stroke-linejoin: round; stroke:#000; fill: none;" version="1.1" viewBox="0 0 1000 1001" width="1000px" xmlns="http://www.w3.org/2000/svg" xmlns:xlink="http://www.w3.org/1999/xlink"><defs><style type="text/css"><![CDATA[path { fill-rule: evenodd; }]]></style></defs><metadata><views><view h="1001" padding="0" w="1000"><proj flip="auto" id="robinson" lon0="-98.4163679191"/><bbox h="0.61" w="0.82" x="-1413.22" y="-447.8"/></view></views></metadata><g class="" id="mylayer"><path d="M1000.000000,390.815064L870.309735,391.453169L869.275574,391.432585L792.497963,391.494337L794.092377,374.759532L768.990593,373.771499L772.494285,355.760491L718.184852,353.393330L706.896440,352.096538L703.393782,352.425882L698.535794,352.837562L689.096353,352.611138L681.161781,352.178874L679.228157,356.131003L678.466242,361.771021L674.852757,367.411040L669.213889,371.404338L667.324069,374.985956L664.414617,380.461304L656.143383,389.621191L652.964238,393.223395L645.876017,401.209995L642.867261,403.021389L638.983114,405.306216L637.311792,412.819385L632.749684,433.074071L630.901174,432.744727L624.796630,431.571437L622.763324,431.283260L605.474876,433.609256L604.806037,433.691592L600.486005,435.626492L591.767729,470.598778L471.252485,472.451342L518.569688,374.306684L449.015846,343.615928L394.396623,345.180312L395.449326,339.663800L395.461774,338.449344L395.623817,337.193720L396.146176,335.073568L397.542749,330.503920L398.205735,328.054425L398.775925,324.966825L400.691396,312.431174L401.274788,309.281823L403.917220,297.960630L406.607453,285.424984L409.972946,268.402035L411.162310,262.741442L414.173880,249.773540L416.569592,236.970314L417.539307,231.762571L419.510311,222.685045L420.954994,216.818617L421.235765,215.171901L421.489684,212.660658L421.546237,211.405037L421.391609,210.231752L420.937789,209.140802L419.519777,207.123575L418.041754,208.193940L410.941635,212.681242L401.268175,219.000517L399.790072,219.906211L397.185779,221.470592L395.285183,222.293950L391.976374,223.034972L370.457928,223.323148L348.239528,223.096724L338.941345,223.364316L328.723462,223.652491L318.545299,224.167090L325.296053,198.869411L333.221468,162.703423L336.859531,160.253935L286.182572,158.442549L284.297818,145.824598L283.114957,137.920370L282.959149,133.865336L283.136143,126.022861L278.828779,147.533064L278.600028,147.697736L274.843366,150.702990L261.250216,215.171901L259.362518,224.105338L259.143270,225.628551L257.303634,233.759216L256.873343,235.611772L254.502180,245.409739L253.404637,250.308724L251.943445,258.151216L251.741795,259.592094L251.790967,261.012388L251.932140,261.671075L252.200963,262.391514L252.319967,262.741442L253.284280,263.832392L254.037098,264.429328L254.935124,265.005679L255.929895,265.458526L258.452164,266.837652L255.178061,266.672981L253.255030,266.693565L251.358335,266.590645L247.098285,266.014293L245.509652,265.952542L237.623858,265.952542L234.151788,265.890790L219.585798,265.602614L200.522554,265.520278L169.819680,265.129183L160.723724,265.108599L136.181803,265.046847L113.488010,365.702567L39.571154,365.970159L37.806209,380.029039L37.145589,386.348332L32.819018,426.960613L30.772858,447.297641L30.007729,454.769648L28.734455,465.617439L29.105342,467.428835L35.258732,469.281399L39.444341,470.125345L44.932717,471.216300L50.592453,471.916157L60.326726,471.916157L72.599488,470.907539L74.394846,470.742866L80.436264,469.734248L83.996160,469.384319L83.515015,473.624633L83.221525,475.580118L82.953499,476.177055L81.788537,477.926700L80.892004,479.655760L79.362985,483.113881L78.484696,485.748639L77.940979,488.548071L77.936709,488.733327L77.818804,490.030123L77.638681,490.462388L77.366100,490.832901L75.994077,492.232616L74.850832,493.549996L74.574041,494.188102L74.240523,495.505481L74.061980,498.160825L73.497711,502.956910L72.564705,515.101507L72.162831,519.218320L71.395819,523.479221L71.252118,525.558212L71.615181,528.563486L71.638018,529.695610L71.511991,531.856937L68.231415,546.842142L67.082299,551.988161L66.086433,556.084392L65.231402,560.180624L65.003630,561.580341L64.907850,562.938891L64.952391,563.638749L65.093716,564.297440L65.428548,564.791458L66.423708,565.573653L64.562441,565.882414L32.233753,714.623180L0.000000,862.252777L1.505059,862.211609L8.058108,862.355698L28.016188,862.458619L46.270943,862.376282L79.964139,862.458619L80.883985,862.520372L89.822020,862.376282L106.910313,862.067519L109.031577,862.108688L109.639107,862.314530L110.189695,862.787966L110.485242,863.467244L110.551776,863.981849L110.469558,865.360989L110.184943,866.781298L109.426206,869.354322L109.225065,870.630541L109.230116,871.268651L109.336324,871.845009L109.772536,872.359613L110.345029,872.730129L111.049338,872.894802L116.224860,872.977139L135.923127,872.894802L138.048690,872.833050L140.734073,860.708963L148.764446,824.295550L151.437053,812.150890L153.356015,803.299698L159.086815,776.704962L160.975190,767.833191L163.297865,757.417611L170.279532,726.109128L172.589316,715.672971L177.932266,691.404281L193.937361,618.557103L199.251280,594.267870L199.676745,592.518222L200.926714,587.228111L201.338969,585.457879L203.038143,586.075402L208.122448,587.907386L209.808406,588.504324L216.281894,588.524909L232.300481,588.442572L299.811777,588.092643L322.299399,587.969138L351.665444,587.948554L369.294593,587.742713L372.753600,587.783881L383.702680,587.866218L410.516301,587.845634L437.272594,587.680961L479.373967,587.207527L489.165570,587.186943L499.247724,587.289863L510.760443,587.783881L516.494885,588.133811L523.769756,588.689581L554.048649,590.912663L568.087780,591.859531L573.311814,592.291797L576.674183,592.538806L586.748069,593.259249L590.097219,593.485674L592.557385,593.670931L599.893844,594.185534L602.340792,594.350206L615.063960,595.111818L618.034401,595.050065L621.268181,594.164949L623.863380,592.724063L626.827044,589.883458L628.892614,586.631172L629.656835,584.860941L632.188301,575.701022L633.044934,573.910207L635.124105,571.090187L636.988559,569.361124L638.193632,568.496593L639.711241,567.734982L641.097071,567.261548L644.705315,566.849866L645.827377,566.705777L649.528294,566.602857L654.611208,566.705777L659.505082,567.035123L663.598267,567.652645L667.207617,568.558345L671.240132,570.287408L686.619091,578.829803L692.042680,581.052884L706.150517,585.149118L718.409079,588.092643L725.605499,589.512945L729.086922,590.027547L732.576896,590.253972L740.625599,589.986379L764.628734,586.713509L775.761681,585.684304L780.813501,585.437295L792.638273,585.457879L844.298427,585.478463L849.372447,585.457879L864.603274,585.354959L869.664074,585.313791L884.437151,585.128534L915.113399,583.749400L915.562236,583.708232L923.425478,582.740780L926.707728,581.958584L930.130510,580.847044L938.136992,577.635926L940.903940,576.380297L947.004425,572.613409L954.630613,567.302716L961.381915,562.959475L964.658778,561.045155L966.784389,550.979541L971.129497,532.309786L975.065759,513.825295L975.577878,510.511261L975.949184,507.197227L976.410314,500.733832L976.707256,497.934400L977.560817,492.356121L980.102575,479.264663L982.373823,468.931470L1000.000000,390.815064Z "/></g><g fill="#000" font-family="Arial" font-size="12px" id="mylayer-label" stroke="none"><text text-anchor="middle" y="482.083259726"><tspan dy="0" x="409.739551435"><![CDATA[N]]></tspan></text></g></svg>