<?xml version="1.0" encoding="utf-8"?><!DOCTYPE svg  PUBLIC '-//W3C//DTD SVG 1.1//EN'  'http://www.w3.org/Graphics/SVG/1.1/DTD/svg11.dtd'><svg enable_background="new 0 0 1000 1001" height="1001px" pretty_print="False" style="stroke-linejoin: round; stroke:#000; fill: none;" version="1.1" viewBox="0 0 1000 1001" width="1000px" xmlns="http://www.w3.org/2000/svg" xmlns:xlink="http://www.w3.org/1999/xlink"><defs><style type="text/css"><![CDATA[path { fill-rule: evenodd; }]]></style></defs><metadata><views><view h="1001" padding="0" w="1000"><proj flip="auto" id="robinson" lon0="-88.7245557975"/><bbox h="2.03" w="2.31" x="-1243.75" y="-575.45"/></view></views></metadata><g class="" id="mylayer"><path d="M1000.000000,330.479001L967.109442,330.581279L936.176168,330.705473L897.764047,330.683557L896.517674,330.676251L890.655504,351.949866L890.600958,352.095974L882.505954,350.481474L875.653722,348.406728L856.169594,342.496601L854.897470,342.014439L843.803004,336.579137L847.469213,324.101216L848.031167,322.187143L849.162981,318.227484L853.881991,302.271810L852.513205,302.352173L845.493243,302.483677L842.282351,302.542123L846.979334,284.869333L849.047696,277.081231L849.706546,274.604515L849.452006,274.604515L836.969536,274.743328L806.633889,274.524150L822.205778,222.263368L817.624192,222.263368L815.521268,222.263368L793.472169,221.956503L757.937235,221.196646L757.141523,221.182033L761.959914,209.857175L777.663768,172.944609L777.688942,172.878849L780.409948,166.478202L782.838392,160.625522L786.257433,152.449252L796.509341,127.898144L799.924801,119.714315L805.063482,107.708816L814.832101,84.844651L820.631843,71.713426L825.316940,61.103102L817.364631,61.234636L794.847221,61.607314L775.053396,61.928841L773.119697,61.972685L760.507184,61.979993L745.211052,62.067682L745.017140,62.067682L743.849282,66.437507L741.386877,74.862889L737.312350,88.790563L736.225962,92.984906L735.855680,94.154057L734.613104,98.114549L734.357256,98.911030L733.357059,98.932952L726.342378,99.027945L725.670673,98.962180L723.647691,98.750273L722.972052,98.677201L722.850304,99.137552L722.479003,100.518605L722.353321,100.971648L721.776781,103.141868L721.721535,103.331854L720.156659,108.921794L719.956302,109.652503L719.345554,111.815399L718.988598,113.042986L717.917744,116.725740L717.562922,117.946015L715.718330,117.829103L711.885999,117.858331L694.742935,117.960629L689.025956,117.989857L682.300900,118.026392L662.107864,118.114077L655.378871,118.143305L652.736730,118.143305L644.802435,118.128691L642.156359,118.121384L639.770231,118.157919L632.597916,118.252910L630.207852,118.282139L626.007986,118.304060L613.394458,118.355209L609.190657,118.369823L608.719517,119.948140L593.014383,119.648552L581.794489,119.429341L530.377332,118.757095L504.558784,118.413665L499.055258,136.688383L492.722874,157.710130L488.294106,172.250477L474.527430,218.091455L473.556317,221.306241L464.196783,221.335466L458.221958,221.291628L457.433180,221.357385L433.556799,221.415836L432.771956,221.488899L431.702279,221.561962L424.967305,221.277015L401.641419,220.276049L401.564760,220.268743L394.489727,218.339871L386.272104,214.525954L379.148150,211.223471L374.643146,209.126535L361.668177,200.687605L360.416085,199.679313L349.794324,191.130711L337.692530,182.691638L331.646719,178.475730L324.129574,172.776556L311.211976,162.956369L287.313783,144.784399L270.871000,135.877316L268.003003,134.320944L272.375500,119.524333L273.063826,117.200698L273.344197,116.258090L273.582041,115.461622L273.822012,114.657846L274.492703,112.436500L278.767413,98.143778L280.192490,93.372187L281.288711,89.543208L284.579629,78.048879L285.672003,74.212537L288.078781,66.693266L289.706420,61.621929L290.296973,59.780458L252.109182,60.547738L215.335737,61.285788L198.362767,61.804615L168.538165,62.381900L164.959423,74.424449L161.869518,84.830037L159.700337,92.656082L153.199722,116.111949L151.591870,121.906418L151.035157,123.923149L149.344518,130.272904L144.261159,149.300020L142.566826,155.642316L141.641587,159.113026L138.872357,169.503170L137.949316,172.966529L131.780784,194.330965L113.267408,258.399784L112.614914,260.642743L108.624290,275.298581L107.420955,279.747895L106.751607,282.465694L106.526264,283.386237L106.300921,284.306780L105.537145,287.411778L102.477933,299.846292L100.795979,306.691789L99.892623,310.381179L98.005234,318.037537L94.492949,329.843415L93.977294,331.574836L93.544189,333.043254L92.307444,337.170885L81.885397,372.156486L81.276697,374.187355L80.947767,375.297756L80.618838,376.408156L77.854591,385.685797L76.874544,388.973130L76.399394,390.565657L73.938743,398.820461L72.954822,402.100449L61.869779,444.213441L57.683733,460.115871L55.818200,467.201398L49.197838,492.336381L36.158695,538.207492L26.413212,572.499988L20.592537,592.556394L18.484733,599.582621L16.616443,605.805396L10.303026,625.474095L9.705993,627.446058L7.897047,633.340014L7.290036,635.304659L6.291198,638.722694L3.437511,648.443587L3.286907,648.962129L2.278135,652.372818L0.793007,656.922822L0.000000,659.340231L9.369301,659.201468L13.164848,659.135738L23.939288,659.376748L50.638771,659.259894L57.256660,659.223378L57.131530,659.654275L56.758262,660.939662L56.629192,661.363256L54.529291,668.469373L48.224271,689.765537L46.114663,696.864166L44.881499,701.194890L43.640180,705.532901L50.919521,705.160446L54.559340,704.963264L55.930249,705.043598L60.042976,705.284598L61.409943,705.357628L64.692465,705.430659L70.281846,705.554810L74.576076,705.525598L77.888282,705.496386L80.331519,705.474477L89.399793,705.496386L100.424471,705.189658L105.042429,705.277295L109.139365,705.343022L136.521473,705.299204L140.809043,705.313810L148.801053,705.430659L149.368154,705.481780L149.868575,705.532901L151.032158,705.554810L148.129674,715.282407L139.411227,744.442768L136.499293,754.162715L134.813452,759.888022L129.756219,777.063764L128.070571,782.788951L126.313273,788.886535L121.471660,805.258560L119.566189,811.721134L120.718307,811.699227L126.343994,811.553180L150.056720,811.604296L150.268898,811.604296L156.238073,811.611599L159.222514,811.626203L166.440215,811.655413L167.907274,811.655413L168.180074,811.655413L171.183876,811.582390L170.183846,814.883034L166.116099,828.319185L154.553782,866.443363L152.634459,872.788744L150.903394,878.506128L145.833311,895.234597L145.075389,897.680685L143.857285,901.609019L150.776449,901.623622L163.562017,901.645527L187.409280,901.696639L199.618909,901.718545L205.601820,902.390303L251.179963,902.996345L249.310613,910.509781L247.506015,917.716498L241.333115,939.007799L251.214465,939.219542L276.596927,939.204939L280.945960,939.197638L288.429380,939.190336L295.161031,939.183035L303.161605,939.190336L379.087759,939.219542L380.688297,939.219542L384.237060,939.212240L389.346039,939.197638L390.752573,939.197638L395.643296,939.183035L396.946765,939.183035L397.603647,939.175733L400.403616,939.095417L410.215028,938.628123L412.072224,934.291038L417.636070,921.265077L418.157418,920.031108L419.885715,917.059353L422.124733,913.204091L427.152892,904.537005L428.837944,901.630924L431.073085,897.768306L433.074528,894.314574L437.318235,895.088562L439.502778,895.395236L442.451879,895.804135L446.471927,896.220335L447.096078,896.242240L450.911905,896.359068L453.317750,896.278749L479.524963,896.972416L480.794144,896.965114L484.609863,896.935907L485.875097,896.921303L487.312484,896.877493L487.494359,896.877493L487.605600,896.870191L492.346082,896.746061L493.961398,896.694949L498.375188,896.673044L500.464922,896.658440L511.616558,896.607328L516.026402,896.578121L522.160505,876.731770L525.346032,866.034453L574.448032,865.837300L592.998019,865.756978L615.650137,865.683959L634.517196,865.618241L634.896212,863.829259L643.596465,835.650580L643.702000,835.307378L644.024669,834.277773L644.126259,833.927268L643.950419,833.467231L644.991323,830.984489L645.358913,829.611675L646.677485,824.602353L648.648635,818.220181L649.160656,816.160936L650.046557,812.560900L650.308739,811.677320L654.034317,811.728436L665.188919,811.874482L668.910551,811.918296L669.066053,811.925599L669.520720,811.925599L669.672276,811.925599L670.683126,811.889087L673.713849,811.764948L674.722871,811.713831L676.489549,804.594044L678.779524,795.334601L688.776250,795.626698L692.274802,795.728932L693.169419,792.851771L693.412459,791.887848L694.147936,788.974164L694.393098,788.002935L695.806567,783.168682L696.229941,781.708178L707.136479,781.496405L711.175011,781.408775L712.214715,781.481800L712.695234,779.824126L715.533980,770.031382L716.595808,770.111711L731.139249,770.381907L735.344665,756.251287L761.126163,756.587211L761.821767,754.250347L765.840345,740.659926L766.007596,740.083004L767.056818,736.526534L774.334273,736.599562L774.435894,736.249027L778.429346,723.206099L781.601709,712.828607L784.443820,703.444231L788.975113,703.517262L790.934635,703.553777L802.142835,703.721747L802.548349,703.159413L802.647081,703.027958L803.566078,703.057170L806.752945,698.609603L810.008670,693.694619L814.118513,689.283530L817.475208,685.442070L819.315029,683.382574L822.098070,679.679854L827.464842,674.655236L833.238259,667.162085L857.597314,635.523764L865.719329,624.970148L867.574240,622.545358L873.139299,615.249045L874.990289,612.816930L876.191952,610.742689L879.778785,604.519943L880.970463,602.438382L883.394203,599.787126L890.657573,591.818710L893.077393,589.160124L894.983585,586.684127L902.183506,580.439331L930.618008,555.737339L939.371951,548.126499L939.677100,547.220791L939.922925,546.519597L940.644342,544.408708L940.886228,543.700208L941.851955,540.851596L944.757681,532.276497L945.719512,529.420550L947.642811,522.539952L952.680826,504.505563L953.413128,501.897893L955.324585,495.017119L955.388799,494.900248L955.442077,494.695723L955.989318,493.373616L957.172822,489.378066L958.663956,484.301431L958.561999,482.730957L959.836523,478.881459L960.873389,475.871974L961.480011,474.345315L961.685634,472.592211L961.798413,471.576870L962.661064,468.603888L963.394353,466.974954L965.014216,460.912082L969.868073,442.723261L971.482095,436.660252L971.960239,434.782904L973.610020,428.325385L979.117907,406.695338L979.988661,403.298482L982.107003,394.956052L982.700348,392.494219L984.480437,385.108686L985.067758,382.646830L985.146216,382.376537L985.375530,381.565658L985.447927,381.295364L985.985017,379.403309L986.046512,379.191457L987.836546,372.857794L988.431217,370.746565L991.221395,361.030473L999.597003,331.867059L1000.000000,330.479001Z "/></g><g fill="#000" font-family="Arial" font-size="12px" id="mylayer-label" stroke="none"><text text-anchor="middle" y="492.601686938"><tspan dy="0" x="469.016643549"><![CDATA[Y]]></tspan></text></g></svg>