<?xml version="1.0" encoding="utf-8"?><!DOCTYPE svg  PUBLIC '-//W3C//DTD SVG 1.1//EN'  'http://www.w3.org/Graphics/SVG/1.1/DTD/svg11.dtd'><svg enable_background="new 0 0 1000 1001" height="1001px" pretty_print="False" style="stroke-linejoin: round; stroke:#000; fill: none;" version="1.1" viewBox="0 0 1000 1001" width="1000px" xmlns="http://www.w3.org/2000/svg" xmlns:xlink="http://www.w3.org/1999/xlink"><defs><style type="text/css"><![CDATA[path { fill-rule: evenodd; }]]></style></defs><metadata><views><view h="1001" padding="0" w="1000"><proj flip="auto" id="robinson" lon0="-88.3153718425"/><bbox h="0.64" w="1.06" x="-1177.97" y="-742.2"/></view></views></metadata><g class="" id="mylayer"><path d="M1000.000000,532.998203L949.712408,530.449983L955.208493,518.000524L955.714213,516.849216L957.808895,512.105824L961.768172,503.156303L977.870209,466.651896L974.390077,466.053209L971.738102,465.377767L970.230128,464.978643L965.666998,464.963292L960.464012,465.086099L959.411267,465.009344L958.985755,464.794431L958.709363,464.349253L958.673345,463.873374L958.744890,463.382143L959.014996,462.722052L948.053345,462.614595L961.298953,429.686656L970.979640,431.605541L982.858637,433.785392L987.907679,421.673387L989.463924,418.157982L992.915714,410.482417L953.511036,417.897013L860.943116,417.252266L878.548544,378.306301L872.454468,378.505867L877.357320,367.238031L852.160712,367.299436L856.934209,356.952651L847.806000,356.691678L843.235707,367.330139L834.266786,367.345490L826.141485,367.483651L823.087775,367.422246L821.548828,367.360841L812.188593,367.376192L808.966917,371.920173L798.573699,371.812714L800.102848,367.330139L796.890554,367.314787L780.628183,367.176626L779.251578,369.770994L774.149068,383.802047L756.345673,381.161633L757.990147,377.676899L763.040397,367.038464L763.645496,365.626144L781.216932,365.979224L797.385420,366.071332L800.579573,366.040630L807.189786,366.286250L812.722382,366.071332L815.099503,360.729077L825.922389,360.805833L839.371208,329.473682L842.133054,323.056781L849.180499,323.194944L865.937257,311.159391L847.355844,310.837010L778.573248,310.545331L767.553087,311.665990L763.606960,311.389664L757.148004,310.437871L731.586947,310.437871L720.947927,309.961975L728.136086,293.274867L734.907521,293.674007L736.006941,290.695805L729.424855,290.296664L731.022265,286.627639L716.364912,286.044279L711.401017,286.228498L672.706925,288.009281L663.736702,308.795261L706.044203,310.837010L699.928282,325.021766L687.658906,325.021766L666.699699,325.328795L654.640560,352.470060L650.033366,352.823141L646.137162,365.303767L643.311206,365.211659L631.363078,364.873931L627.893349,364.781823L624.687753,372.380712L612.032702,372.042984L615.080816,364.428743L614.311346,364.398040L609.447043,364.290581L606.190898,371.889471L594.929898,371.597796L598.400135,364.029609L596.450681,363.983555L592.129169,363.876096L580.313329,363.553718L577.605042,371.582445L566.777850,371.751309L565.904540,373.700921L562.802278,380.793203L538.435997,379.918182L539.801632,376.878634L540.506587,375.174643L549.537585,375.220697L554.776118,362.878261L546.089189,362.647991L519.346767,361.957182L512.956472,376.279934L507.135833,375.635181L504.125734,380.685745L487.227730,379.350186L492.416085,361.204968L454.881953,360.099673L448.938667,359.976862L446.102815,368.420080L440.807881,368.757809L436.881117,377.508035L426.868031,376.955390L430.091245,369.463968L421.492353,368.527539L424.623433,359.807998L336.800084,359.025080L386.172908,244.809740L416.100316,243.750471L437.106891,194.302271L403.783901,194.686068L398.092339,200.013175L386.527759,207.704462L378.019055,210.652017L362.662945,245.208885L355.218425,261.957583L348.986686,276.495586L223.860495,273.901162L217.889108,287.594788L216.169819,291.693657L213.185787,298.448338L201.529178,325.374849L277.454591,326.142421L262.729251,358.257514L258.552121,358.196109L251.849858,358.165406L197.592297,357.674163L186.003870,357.704866L186.598413,359.792646L182.174222,370.584612L181.238170,372.856601L177.370569,382.144113L164.637269,412.585523L289.883744,413.383782L288.363878,416.929892L224.817623,565.556961L217.598970,582.519351L194.230579,582.227691L193.719571,582.212340L187.403626,582.074185L171.052973,581.490864L157.277813,581.260606L129.100742,580.907543L101.964362,580.600532L94.420518,580.293521L74.357727,579.387838L70.396982,579.203631L69.986968,579.188280L65.634878,579.004074L62.865771,578.896620L61.711473,578.850568L59.617485,578.758465L58.936321,578.727764L46.031548,578.175143L44.826754,578.129092L44.000682,578.083040L43.487974,580.339572L42.729321,583.670642L42.579228,584.315365L40.537039,591.760372L38.734441,597.409360L41.262665,620.435049L38.561654,637.105574L29.657193,663.155064L16.715071,696.741339L11.433517,709.742906L5.230887,724.540394L0.000000,737.541881L0.376618,737.664681L1.443350,738.033081L1.958310,738.186581L3.212819,738.647082L7.791121,740.366284L43.346628,753.644025L101.413554,728.500709L112.433070,727.149904L140.292221,735.408227L152.598939,734.088124L265.594368,697.247894L302.099996,703.387954L324.166708,704.922967L362.909604,691.107827L406.937352,700.317925L430.502517,724.878095L438.733150,735.960828L439.510616,737.004630L457.040807,760.183106L459.285247,765.877932L462.485601,773.998036L494.995812,792.417877L551.913442,786.277938L572.931845,793.446316L601.494700,803.162750L637.606972,795.487843L665.038318,778.603003L698.050890,804.697729L731.637868,797.022825L771.700253,769.715412L829.580375,754.043124L850.071355,742.100835L913.750848,704.922967L933.553728,691.107827L936.235159,681.897710L931.708972,673.746741L946.571222,666.133017L948.958931,664.920345L958.783532,659.931506L956.409779,650.675274L969.397968,618.546946L980.383666,590.240671L976.830243,590.225320L983.728319,573.999788L986.071023,568.765237L989.182104,569.548118L991.421961,564.052601L987.600564,563.837693L992.650951,551.219470L1000.000000,532.998203Z M454.993388,473.129992L479.899987,418.188684L480.123117,417.697448L481.432213,414.642575L547.765976,415.087757L546.189927,418.618516L530.185480,454.908405L521.526778,474.526926L488.466404,473.759380L454.993388,473.129992Z "/></g><g fill="#000" font-family="Arial" font-size="12px" id="mylayer-label" stroke="none"><text text-anchor="middle" y="547.702335055"><tspan dy="0" x="547.989695985"><![CDATA[N]]></tspan></text></g></svg>