<?xml version="1.0" encoding="utf-8"?><!DOCTYPE svg  PUBLIC '-//W3C//DTD SVG 1.1//EN'  'http://www.w3.org/Graphics/SVG/1.1/DTD/svg11.dtd'><svg enable_background="new 0 0 1000 1001" height="1001px" pretty_print="False" style="stroke-linejoin: round; stroke:#000; fill: none;" version="1.1" viewBox="0 0 1000 1001" width="1000px" xmlns="http://www.w3.org/2000/svg" xmlns:xlink="http://www.w3.org/1999/xlink"><defs><style type="text/css"><![CDATA[path { fill-rule: evenodd; }]]></style></defs><metadata><views><view h="1001" padding="0" w="1000"><proj flip="auto" id="robinson" lon0="-94.0092903422"/><bbox h="0.79" w="1.54" x="-1307.49" y="-606.05"/></view></views></metadata><g class="" id="mylayer"><path d="M1000.000000,245.297133L995.840690,245.241581L707.796615,241.919600L678.974555,241.630732L666.316486,279.483378L665.942313,279.716693L664.575540,280.249982L663.510447,280.327754L662.503097,280.227762L660.819185,279.816684L658.388201,279.116742L656.130997,278.661223L654.619042,278.472350L643.341848,278.450129L636.310628,278.216815L625.517940,277.983501L624.478072,277.927950L624.349929,278.294587L622.689926,278.450129L618.008608,279.361166L613.573322,280.405525L610.221136,281.261010L608.369770,281.894292L605.319846,283.127523L602.183072,284.294093L598.637544,285.382891L589.143703,288.415971L585.632591,289.593649L582.848028,290.149158L579.754057,290.460243L573.473679,290.782438L569.050374,290.871319L567.406356,290.615785L566.389810,290.293590L563.153597,288.871488L561.657334,287.827131L560.226305,286.971647L559.370282,286.016172L558.742022,284.916264L558.290697,283.383057L557.737532,280.994366L557.569120,280.649949L556.835717,279.150072L556.057292,277.927950L544.394831,277.783517L540.693009,277.739076L537.195543,277.705746L504.678528,277.405770L504.092622,277.427990L502.808837,277.705746L501.094539,277.805737L475.428741,350.576900L471.533120,362.542345L462.227241,391.639217L461.050556,394.761090L460.360213,397.694094L460.123241,397.616325L457.876678,397.071942L456.619478,396.683096L456.319035,396.383130L455.960860,396.260922L455.291417,395.872077L454.499077,395.583220L453.272310,394.794420L452.635344,394.305586L451.937036,394.005620L451.475571,393.616774L450.401049,393.250149L448.890322,392.416908L448.506675,392.094722L448.329392,392.028063L448.028952,391.728096L446.463630,390.450461L445.148104,389.461681L441.702267,386.206485L440.450260,385.495452L439.489434,384.806639L438.673627,384.562221L437.271595,383.951177L433.452924,382.651319L432.796146,382.251362L431.495494,381.773636L430.343339,381.562548L429.982926,380.862624L430.203257,380.462668L431.159461,379.829403L431.218647,379.173918L430.923650,378.885061L428.543480,378.585093L427.827143,378.340675L425.558633,377.418552L423.901438,376.563088L423.575873,376.507539L421.549811,375.729844L420.988897,375.340997L420.162271,375.129909L417.123307,374.130015L416.025248,373.696728L412.789838,373.607849L411.301504,373.652289L410.439922,372.630175L408.520758,372.108009L409.106277,371.530292L398.312063,369.741592L392.826505,369.063886L384.277153,368.019552L373.779472,368.630598L369.551042,368.286190L363.575545,367.808463L345.944028,369.197205L345.340017,369.219425L328.288392,369.741592L316.823204,370.408189L311.423156,370.441518L310.672413,370.108220L308.617368,369.197205L309.713027,366.186410L314.563270,352.843338L315.599517,350.154720L316.496861,347.977160L335.189664,292.226759L335.496528,291.282395L335.763681,290.460243L345.079370,263.517984L339.994405,263.917953L335.435599,264.173489L238.418603,266.639963L236.481834,266.673294L235.700615,266.684404L182.329890,263.751299L159.786684,331.167690L156.159941,342.022195L156.181702,342.122185L155.766957,344.121988L154.391203,347.910500L152.008173,354.687596L140.735335,387.906298L134.433929,405.993147L132.417127,410.837030L125.720779,429.890318L124.569256,433.156586L123.587412,435.956242L123.369080,436.656155L119.709707,448.199158L117.326068,455.620434L116.014268,459.686576L113.412289,467.641092L99.457282,467.118939L95.785843,466.952294L71.328438,466.052412L63.665526,487.749501L36.688965,562.316302L23.580106,599.732446L13.571264,599.810211L10.249597,608.786473L0.813706,634.282048L0.140723,636.048402L0.000000,636.426112L0.683679,636.437222L4.420208,636.292803L5.762214,636.281694L7.726373,636.248366L8.954423,636.226148L9.553381,634.604213L11.299668,629.782842L13.806415,629.749515L76.986771,628.760799L114.018919,628.982983L126.042833,629.049638L129.876669,628.549725L138.751440,626.450093L154.608674,623.650582L159.711134,623.950529L164.642900,623.550599L175.769271,625.017010L187.927973,626.061272L194.988537,627.516573L196.645109,627.372154L198.988238,628.316433L213.386368,631.460325L216.770154,633.071151L218.534424,633.904337L222.552404,634.870833L227.749921,634.348703L235.142635,635.115234L240.865608,637.292625L244.061078,636.892696L247.361461,636.503876L247.772069,636.548313L249.195976,637.037115L250.413720,637.548135L251.770606,637.936955L254.139019,638.803467L255.515824,639.214505L257.229292,639.869943L258.558993,640.203217L260.313958,640.758674L262.059709,641.147493L263.278485,640.903092L265.293067,640.658691L266.052643,640.603146L266.607714,640.425400L267.853792,640.347636L269.490332,640.069908L270.001960,639.858834L271.718114,639.614434L273.486523,639.181178L274.056189,639.125632L274.714341,638.936777L277.345405,638.436866L277.741187,638.136919L277.528664,637.259298L277.726060,635.759564L278.709365,635.181889L279.721804,634.793069L280.745233,634.537559L281.629523,634.404249L282.502822,634.137629L287.802787,634.748632L289.191954,634.870833L294.993910,632.960060L295.833834,631.904691L301.659124,622.817393L307.302659,612.785791L308.814898,607.653332L308.119047,604.531638L309.382789,598.632630L310.434291,595.699786L312.639030,595.733114L312.901280,595.733114L365.215211,597.155099L366.842630,596.821821L371.327949,596.766275L376.361405,596.832930L387.209573,596.899586L388.377793,596.755166L390.088142,596.166375L472.837234,598.965907L474.070760,599.010344L475.747399,599.054781L562.285200,601.354396L545.431524,653.489708L545.826083,653.722999L547.732294,655.178288L549.478409,657.377886L549.996556,658.122193L550.029580,658.522120L550.519610,659.966299L551.018948,661.632658L551.498042,662.999072L555.658132,670.775403L557.169182,672.974991L558.467710,674.408055L558.749956,674.485818L559.106650,674.807980L562.047074,675.918882L563.034903,676.163280L564.738225,677.296399L566.961563,679.196040L570.312849,683.528550L571.298562,685.006046L571.362203,685.283770L571.597871,685.728130L571.603850,686.183598L572.001343,687.327823L572.983733,689.038606L572.975029,689.316331L573.267135,690.060632L573.454461,690.904914L573.643556,693.193361L573.723660,695.092993L573.860540,696.092799L574.737228,698.603422L576.704924,701.402875L577.603163,702.313808L578.138839,702.558205L578.493714,702.858146L578.779570,702.924800L579.096367,703.146978L579.986644,703.469137L582.365351,703.691316L583.537122,703.480246L584.173561,703.302503L587.466459,702.713730L594.870872,702.413789L597.647561,702.691512L602.457194,702.947017L610.436294,678.851661L643.689077,679.073841L638.810094,692.860092L651.346680,693.326668L660.744335,690.227266L662.799749,689.382984L664.713793,688.305414L666.790270,686.950118L670.498541,684.439487L676.704034,680.029215L683.276638,675.574502L684.181982,674.930179L684.613813,674.574690L684.948073,674.296965L685.833356,673.519333L686.584757,672.708374L687.297804,671.597472L687.992284,670.097752L688.388267,668.542487L688.393827,667.187184L688.229539,665.965189L687.888059,664.787630L690.239462,664.898720L744.713261,668.087016L854.638054,674.519145L851.113980,683.572986L846.890054,694.004315L836.903382,693.315559L786.268906,690.305029L786.341399,690.416119L786.722236,691.193747L786.897421,692.382406L786.973275,693.682155L786.868554,695.204083L787.282041,696.048363L786.984044,696.381632L786.683597,698.981126L785.717098,702.602640L785.019347,704.280089L783.877734,706.768488L781.276601,710.689935L779.537847,714.322547L779.016198,715.122388L777.727202,718.288421L777.264461,719.854774L777.368062,720.232476L779.241959,722.987477L779.609515,723.276308L779.891778,723.354070L780.782394,723.898404L782.327299,724.098364L782.495748,724.276106L783.503482,724.487174L788.590077,724.864876L792.736221,725.298121L793.044002,725.520299L794.091364,725.609170L794.399145,725.831347L794.942058,726.053524L796.608285,726.353463L797.637937,726.720056L798.294966,727.064430L798.798254,727.408805L799.876322,728.797412L799.907584,729.175113L800.049056,729.463943L800.066060,729.997168L800.016459,730.763678L800.170503,730.985855L800.168015,733.140971L800.290322,733.963025L800.744475,735.407173L801.264930,736.395859L802.622370,738.373231L805.321868,741.650332L805.628354,742.239099L806.034856,743.216674L806.199252,744.383099L806.411625,744.927430L806.426501,746.527098L806.290315,747.449128L806.249855,748.271179L806.483843,748.748857L806.458938,749.048794L806.678519,749.570907L806.606478,749.793083L806.742519,750.070803L806.793951,750.637351L807.157087,751.637141L809.181448,754.514315L810.436621,755.747388L811.572390,756.958244L812.143980,756.980461L812.959981,757.169310L814.509970,757.102658L817.159292,756.769395L819.874304,756.847156L820.238280,757.147093L820.871648,757.369268L826.493182,744.438643L830.671812,734.340725L834.864657,734.518467L914.028666,739.772942L927.151244,703.791296L938.067497,673.752623L863.330364,668.853540L857.096434,667.887054L859.176835,662.643583L864.773108,648.790562L877.776841,616.840650L870.133048,616.429610L906.282772,512.779317L912.275721,495.815053L922.831931,465.263627L934.678498,431.045732L963.863008,347.766070L982.832886,293.793292L989.650732,274.550445L1000.000000,245.297133Z "/></g><g fill="#000" font-family="Arial" font-size="12px" id="mylayer-label" stroke="none"><text text-anchor="middle" y="461.351895634"><tspan dy="0" x="546.428337552"><![CDATA[N]]></tspan></text></g></svg>