<?xml version="1.0" encoding="utf-8"?><!DOCTYPE svg  PUBLIC '-//W3C//DTD SVG 1.1//EN'  'http://www.w3.org/Graphics/SVG/1.1/DTD/svg11.dtd'><svg enable_background="new 0 0 1000 1001" height="1001px" pretty_print="False" style="stroke-linejoin: round; stroke:#000; fill: none;" version="1.1" viewBox="0 0 1000 1001" width="1000px" xmlns="http://www.w3.org/2000/svg" xmlns:xlink="http://www.w3.org/1999/xlink"><defs><style type="text/css"><![CDATA[path { fill-rule: evenodd; }]]></style></defs><metadata><views><view h="1001" padding="0" w="1000"><proj flip="auto" id="robinson" lon0="-122.631941656"/><bbox h="0.62" w="0.79" x="-1624.35" y="-760.45"/></view></views></metadata><g class="" id="mylayer"><path d="M1000.000000,509.446284L991.052084,493.301766L984.464641,481.440442L969.533049,454.546396L960.989251,439.122387L959.251128,435.724565L958.394520,434.756701L957.305259,433.953579L955.803106,433.253421L954.068994,432.800377L952.132006,432.573856L950.000848,432.615042L999.161384,367.499775L990.997906,347.462494L986.203469,342.890766L979.959637,336.918680L968.277091,325.777626L958.443713,316.345801L935.395693,302.918796L928.646802,298.985415L917.702762,284.611036L915.288922,281.810291L913.094469,279.256669L910.351585,276.085232L909.494227,275.508607L900.574892,269.371662L898.816103,264.923401L895.397454,257.365463L891.512844,250.054636L887.200053,243.011517L873.803043,229.048801L871.897710,227.071775L857.398062,225.300688L841.509131,198.981418L839.434536,189.631648L836.800444,187.448658L836.316626,187.057368L832.633359,184.338926L826.739078,180.570174L822.557729,178.263614L818.177146,176.121806L813.930500,172.476612L815.147711,171.591055L816.258922,170.520150L817.046822,169.263895L817.705632,167.554564L817.804489,166.360091L817.397405,151.367365L816.140327,141.770341L824.878480,135.097718L825.333057,133.450154L823.931765,131.246537L817.422667,134.541665L815.321161,140.740616L814.509245,143.150172L810.378035,138.784138L800.897779,142.099853L795.301426,151.223204L791.919316,155.156741L780.166482,151.429148L771.065942,148.545925L772.920658,146.404100L771.342842,144.076924L772.893360,142.552932L774.703626,140.596455L776.375815,138.619382L777.909928,136.621713L780.208901,133.100047L781.304050,131.081781L782.232037,129.063514L782.984843,127.086435L783.558121,125.129949L784.128668,121.814218L784.197463,120.001892L784.078708,118.251349L783.776750,116.583184L783.320674,114.976802L782.669025,113.473392L781.585091,111.743441L780.264131,110.157651L778.681406,108.757213L764.839580,123.008706L764.656691,122.617408L764.034479,121.649462L763.069251,120.640326L762.384206,120.166649L757.860706,116.871509L757.323745,115.594641L756.603258,114.873829L755.692884,114.441341L749.360123,113.741123L750.089357,116.562589L750.884504,120.805082L751.313254,125.212327L751.383630,129.743134L751.129063,134.397503L750.771792,137.218954L750.603017,138.557598L750.169834,140.781805L749.700220,143.150172L749.544131,143.994546L748.145245,149.246137L747.444617,151.470337L744.553713,157.731043L717.545114,194.100594L715.284576,196.695463L703.841790,201.246777L701.125686,201.287965L726.394111,180.034723L739.128220,150.955476L738.434262,146.321723L737.465341,145.374377L734.533250,151.202610L731.696495,151.305582L725.932055,151.635093L721.189634,158.390064L710.501206,158.596008L707.667342,163.147369L690.582217,163.538662L696.471298,153.900481L679.559703,153.529781L687.142494,141.461424L694.258727,133.676694L692.394532,133.635505L675.316551,133.347182L668.521931,142.655904L665.218977,149.658026L663.684493,152.129359L663.504992,153.179676L663.049304,153.159081L658.102994,154.909608L656.890789,156.927861L653.915096,161.520413L652.525416,164.836108L655.709552,164.794919L651.865025,170.973225L640.469332,167.987045L637.101948,167.080894L634.292551,175.153873L632.893705,174.783176L633.128328,172.806121L622.780541,173.279790L621.132367,175.133279L615.818554,175.380411L609.091865,175.586354L616.826007,168.749036L624.014259,164.156494L634.723917,157.319155L630.563557,157.566288L609.367222,157.566288L613.218886,150.708343L618.941427,140.596455L625.190246,132.502805L608.952435,132.235076L603.786782,136.827658L592.538085,135.962688L589.044718,137.548467L541.633898,158.760764L539.918131,158.472442L535.108163,160.552476L530.559637,162.920831L523.514686,168.192989L500.271276,190.414228L481.310295,207.342646L471.769286,215.044845L470.334039,216.877718L434.754534,240.210740L351.679513,294.969656L331.131948,308.499658L294.138817,340.419559L248.970298,353.887615L252.227314,356.091100L254.160743,359.468401L254.770891,363.545870L253.594400,368.900115L251.395843,374.480878L245.910501,385.951276L245.309536,395.218179L244.599785,399.377981L243.022087,403.702522L237.195532,408.727221L236.011449,413.648949L235.833654,414.390296L229.505047,426.457765L226.205054,432.759192L223.870254,435.477451L233.905764,437.083694L214.560409,470.155674L205.686882,479.195847L161.763116,523.963935L135.605456,519.165909L118.996890,536.937106L113.487485,540.376019L112.147321,544.082627L110.622651,546.203629L108.259266,549.498388L97.610434,559.156130L88.065709,568.896216L83.543517,574.950295L80.542715,581.004363L79.201649,586.605397L78.620334,589.076439L76.188483,594.183254L73.255089,599.290061L66.057062,607.238545L64.250666,617.678627L59.176650,624.206237L55.870725,621.220423L54.942767,616.196013L53.721640,614.610440L51.819170,613.519071L41.811407,611.809945L40.718977,611.624619L39.064999,610.759759L36.151509,605.199946L34.180369,603.387857L30.217876,602.358260L15.776097,600.710905L11.777826,601.411031L7.379188,603.223121L0.000000,606.991442L3.644157,607.938670L13.078792,604.561596L18.292680,604.788108L22.288813,606.847299L27.279091,610.842127L40.471578,615.042869L43.354721,615.948911L49.496559,624.206237L53.152206,627.027314L58.936173,628.448147L61.264421,629.971939L63.962546,631.742832L72.954467,634.419761L76.277392,636.931954L78.695007,640.144264L82.078971,647.454318L83.331752,648.319168L77.418422,651.428510L74.484657,652.972884L73.072737,653.570042L79.536917,660.344687L81.405500,659.376881L82.995594,658.594400L89.959440,655.155598L90.459886,656.020447L93.280207,659.397473L96.151968,659.932855L99.894700,660.159363L101.404436,660.262321L103.808973,660.406462L108.806308,660.715336L115.960020,663.474610L119.980356,668.890195L121.859005,676.591430L128.674848,691.355518L129.967919,700.477513L131.164917,704.636970L133.501982,708.178682L136.056972,710.299589L139.885637,710.299589L142.429954,708.178682L144.970180,709.043518L148.409658,722.860278L151.240859,728.975876L154.824630,736.594621L157.414533,738.880241L183.041271,743.369113L186.062086,746.190099L185.952787,751.049601L181.868579,766.760577L178.933270,786.321985L174.822532,797.399873L174.931867,803.371211L179.569951,812.019339L185.377087,818.052426L187.568335,819.637911L182.473211,822.108796L186.192985,826.968198L189.014850,832.404131L190.595805,835.451545L192.075044,838.334231L192.431961,840.969828L193.165349,846.570465L193.290135,847.476450L194.310613,848.032395L196.368291,849.144285L203.273997,844.799677L208.636167,841.299278L211.675351,834.010201L212.393990,832.507085L215.885342,825.300353L219.888502,825.650395L231.846512,823.611917L251.812108,815.087361L257.294235,819.267278L260.226111,821.429303L261.146968,822.067615L268.971552,825.465078L270.045132,825.876892L276.678418,828.780177L278.679921,830.653926L284.444614,836.089854L286.874825,847.497041L286.499008,853.385935L285.641626,866.955065L286.952198,870.620163L288.015634,874.223486L293.060810,890.242787L304.488213,884.827530L308.001014,880.647687L357.123148,857.256952L402.132281,835.842767L405.249911,846.941096L406.298098,850.709166L406.492051,851.388654L407.848185,853.056487L420.867480,869.384737L443.559682,859.130687L470.669139,846.838143L471.356162,846.529284L489.388860,838.354822L500.672009,833.207166L505.231065,831.127511L563.010376,805.039066L601.921528,787.680984L643.196721,769.169724L664.981087,759.368396L669.329911,757.638747L678.034428,752.552751L721.693615,726.978527L762.167619,703.339714L763.779321,692.941059L753.566525,676.200191L747.381471,666.563348L742.589459,659.006232L740.174934,655.258556L765.005212,641.441542L772.576273,637.240830L787.223292,629.107084L801.283603,621.282198L803.467529,620.067280L813.804823,614.322154L824.291871,608.494651L825.743698,607.691567L845.572766,596.551330L861.512338,587.573222L866.666068,584.669747L887.863294,572.726349L912.704214,558.723695L986.186344,517.250816L1000.000000,509.446284Z "/></g><g fill="#000" font-family="Arial" font-size="12px" id="mylayer-label" stroke="none"><text text-anchor="middle" y="497.420784792"><tspan dy="0" x="539.990912374"><![CDATA[N]]></tspan></text></g></svg>