<?xml version="1.0" encoding="utf-8"?><!DOCTYPE svg  PUBLIC '-//W3C//DTD SVG 1.1//EN'  'http://www.w3.org/Graphics/SVG/1.1/DTD/svg11.dtd'><svg enable_background="new 0 0 1000 1001" height="1001px" pretty_print="False" style="stroke-linejoin: round; stroke:#000; fill: none;" version="1.1" viewBox="0 0 1000 1001" width="1000px" xmlns="http://www.w3.org/2000/svg" xmlns:xlink="http://www.w3.org/1999/xlink"><defs><style type="text/css"><![CDATA[path { fill-rule: evenodd; }]]></style></defs><metadata><views><view h="1001" padding="0" w="1000"><proj flip="auto" id="robinson" lon0="-81.1442976464"/><bbox h="0.65" w="0.61" x="-1140.8" y="-558.78"/></view></views></metadata><g class="" id="mylayer"><path d="M557.613072,0.000000L516.047898,28.224491L506.767223,34.657994L481.312555,51.857200L464.487032,63.297365L413.945340,97.617714L397.104802,109.031841L389.808999,114.505424L367.898199,130.848319L360.587364,136.295940L357.436477,138.578751L347.932011,145.375295L344.766083,147.632161L343.900651,148.125040L341.326077,149.603676L340.452282,150.044672L339.331246,150.771019L335.946418,152.950060L334.810339,153.650466L327.287327,149.966849L304.708331,138.786279L299.847304,136.321881L296.586048,138.189635L282.988110,146.542640L242.172575,171.601576L228.559595,179.928588L200.378004,197.257032L194.503771,200.836854L119.915937,260.889300L93.185635,282.367939L76.213605,296.064417L40.161251,325.065558L37.627244,343.431138L34.706328,364.312829L34.004148,369.656454L31.897682,385.687296L31.187184,390.979020L33.350676,402.574103L39.783095,437.333264L41.931829,448.902308L60.861513,524.152368L61.664581,532.426958L68.935844,584.279034L69.196993,585.627856L69.980445,589.674319L70.241597,591.023140L70.745579,593.876413L81.657354,584.901567L122.088802,551.621881L135.553160,540.494022L155.649542,524.022672L182.573373,501.870574L217.161312,503.115659L235.871448,503.764141L235.021776,506.306189L231.686471,516.059341L221.608931,545.344630L218.258724,555.071773L212.526586,571.776478L195.357508,621.786530L190.842532,634.859621L193.212583,636.286246L209.604122,637.842564L252.886577,641.940866L250.334503,649.073978L243.123940,668.994766L234.852083,692.028085L210.014282,761.049644L201.713122,784.030697L186.882073,825.219971L142.417736,948.604362L130.016912,982.970970L135.750389,982.893159L140.965914,982.970970L156.589048,983.126592L161.789518,983.178466L167.137479,984.008449L168.379188,984.164071L173.357650,984.656873L183.381086,985.045928L188.650350,985.590604L195.326733,986.239028L196.720513,986.394650L197.547748,986.472461L200.928532,986.757768L202.320597,986.835578L206.349688,981.051633L218.371845,963.699759L222.385920,957.889852L227.648976,950.264339L230.988466,945.388156L247.742716,933.119865L254.818575,927.906482L263.249160,921.733415L288.569331,903.188234L296.984876,896.989202L307.134373,889.622978L310.935648,879.403623L335.908487,812.121401L339.483065,802.446595L349.591853,793.549908L366.742632,778.220598L418.235218,732.076778L435.384436,716.669479L440.248420,712.285913L454.832013,699.083317L459.687630,694.647860L469.019803,686.321641L479.439394,677.061626L487.017738,670.317628L512.996688,651.071248L532.489335,651.719712L550.028609,652.445991L535.674002,705.126945L532.040878,718.407341L517.584183,771.321097L506.473984,811.395142L495.484493,851.002015L479.597602,908.220080L476.419087,919.736245L456.153283,992.723266L454.409116,999.000000L479.703872,992.463896L500.044579,987.198696L537.614841,977.446390L550.297994,973.996767L562.037512,952.079939L598.145005,884.565178L645.629547,900.801996L704.846130,921.007171L735.446101,883.527680L742.178960,875.253626L744.317876,878.002999L755.738422,892.813280L757.892428,895.588582L767.766907,884.642990L774.070999,877.613937L822.770828,823.559956L867.399815,774.018647L873.159651,767.586025L874.582486,710.522110L878.678723,529.392078L804.807958,529.443957L801.139783,540.156814L798.029031,549.209550L789.738292,573.332814L788.973632,574.785395L788.156996,575.848891L786.775412,576.575180L785.386851,576.652997L763.258668,574.681639L757.862857,574.292555L747.278381,573.384692L742.597723,572.917791L740.157935,572.606524L737.813268,572.009928L736.930858,571.724600L735.122592,571.153943L732.374977,570.012630L727.636939,568.248781L724.140372,566.303358L722.778208,565.603006L720.513766,565.032348L717.018087,565.110165L701.858537,568.222842L700.921189,568.404414L698.072374,568.923193L697.126649,569.052888L693.542664,569.727301L689.978697,570.323897L688.002059,570.661103L682.760606,571.698661L679.148223,572.399013L676.257664,572.995608L672.349684,574.085043L667.337390,575.667318L662.759553,577.249592L656.389087,579.635972L648.882647,582.722701L643.685217,585.109078L631.574974,591.567856L624.876130,595.821825L643.067352,623.654116L600.853526,658.385918L591.628786,645.857594L587.555422,639.736083L586.634062,638.335398L580.760868,628.063693L579.259068,625.288254L574.688529,616.961929L573.171698,614.160546L571.912433,611.877936L568.132955,604.952285L566.865327,602.617794L567.855770,601.554303L570.371066,598.701034L570.626483,598.130380L571.212423,596.781562L575.986849,582.022351L590.352375,537.666660L595.118763,522.855410L597.488575,515.333043L604.626540,492.739940L606.981392,485.191592L609.768000,474.867717L616.185152,467.656557L620.011978,468.486619L653.714109,478.239839L674.938023,484.906259L698.902726,492.402729L711.107373,496.215808L736.633099,504.231048L738.564992,504.827651L749.282343,508.173815L750.768142,508.900114L759.031127,512.920695L762.856169,513.335723L769.548894,514.425170L783.667233,490.872309L789.793861,480.652202L847.840601,383.793688L869.217458,348.074403L870.531726,345.921381L874.400998,339.410430L875.685177,337.205524L886.255059,316.557190L917.963859,254.533889L928.519262,233.859297L935.403480,223.145832L956.076366,190.927487L962.945674,180.187996L968.812816,170.641764L952.078418,163.248610L879.683683,131.081789L855.550141,120.368119L846.190038,121.120412L832.001175,115.231776L765.631063,87.682216L743.506767,78.447115L734.804121,74.789388L708.631114,63.816193L699.920167,60.106573L691.959494,56.604482L668.084238,46.072254L660.136979,42.518271L563.663596,2.568227L557.613072,0.000000Z " data-aland="9934267" data-awater="8931" data-classfp="C1" data-funcstat="A" data-geoid="4519105" data-intptlat="+33.3137045" data-intptlon="-081.1337863" data-lsad="25" data-mtfcc="G4110" data-name="Denmark" data-namelsad="Denmark city" data-pcicbsa="N" data-pcinecta="N" data-placefp="19105" data-placens="02404217" data-statefp="45"/></g><g fill="#000" font-family="Arial" font-size="12px" id="mylayer-label" stroke="none"><text text-anchor="middle" y="461.901414118"><tspan dy="0" x="503.673644714"><![CDATA[Denmark]]></tspan></text></g></svg>