<?xml version="1.0" encoding="utf-8"?><!DOCTYPE svg  PUBLIC '-//W3C//DTD SVG 1.1//EN'  'http://www.w3.org/Graphics/SVG/1.1/DTD/svg11.dtd'><svg enable_background="new 0 0 1000 1001" height="1001px" pretty_print="False" style="stroke-linejoin: round; stroke:#000; fill: none;" version="1.1" viewBox="0 0 1000 1001" width="1000px" xmlns="http://www.w3.org/2000/svg" xmlns:xlink="http://www.w3.org/1999/xlink"><defs><style type="text/css"><![CDATA[path { fill-rule: evenodd; }]]></style></defs><metadata><views><view h="1001" padding="0" w="1000"><proj flip="auto" id="robinson" lon0="-106.732354343"/><bbox h="0.51" w="0.58" x="-1492.39" y="-582.15"/></view></views></metadata><g class="" id="mylayer"><path d="M1000.000000,73.940531L991.824167,72.210355L983.375086,70.978704L974.241218,69.835027L962.081193,68.075524L952.030878,66.169395L949.399011,65.260318L945.408011,63.471488L939.663576,61.301430L936.613213,60.685603L934.147321,60.333702L930.443257,60.333702L928.503022,60.480327L914.350724,61.477381L841.953427,64.996392L803.871587,66.843872L781.999855,67.899574L776.410873,68.163499L721.648507,70.832079L676.947072,72.093055L634.168472,74.145806L627.714861,74.321756L616.595765,73.999181L603.017759,72.826180L584.227906,70.509503L578.760082,69.747052L557.241566,66.726571L553.899786,73.911206L537.844815,110.244721L536.395235,114.819376L534.108523,121.212154L532.506722,126.490587L530.915331,131.534416L525.535841,148.308031L513.192881,186.810822L511.871450,190.886875L506.737993,206.897805L474.196331,204.991745L449.889518,203.760137L441.837964,203.525545L423.870711,202.645825L403.157336,202.000696L393.092882,201.912724L377.124664,201.472864L368.440184,201.384892L362.090215,201.678132L357.466081,201.883400L344.001780,202.645825L333.297438,203.202981L319.227864,204.170673L308.568468,204.874449L290.303590,206.340649L281.940691,206.985777L281.193650,206.839157L280.747526,206.457945L251.062618,205.578225L197.679393,206.194029L187.956386,216.017553L186.877234,216.809299L186.220013,217.776988L176.725286,227.776425L125.125775,279.855182L113.441768,291.936413L110.048657,295.161978L98.105282,307.565716L50.522501,354.658500L34.162434,372.222846L26.269517,380.433196L19.172085,389.611174L13.779801,398.965066L7.138881,413.626291L3.375702,424.739462L1.483738,433.301566L0.003392,442.479417L0.228220,451.012160L0.000000,459.867426L0.736793,468.253519L0.650379,472.124018L0.819995,480.334153L1.119552,540.590143L1.261724,547.509991L3.252147,574.250982L3.622675,580.525705L4.159102,584.894549L4.616185,591.814317L6.298442,607.588995L11.503536,670.892301L11.676906,674.440070L12.643343,685.875005L14.659153,706.663043L14.805262,712.615027L9.952614,778.350121L9.752416,780.695687L36.521331,785.445456L37.047093,785.533414L85.797272,791.250720L121.119959,795.502044L127.595101,796.293670L134.364218,796.938698L142.254031,797.701003L144.336349,798.111475L148.221107,800.339752L157.952725,809.106250L163.802640,813.650748L166.276098,815.351268L169.074686,817.022469L171.873186,818.283198L175.142088,819.514608L179.306840,820.746018L200.683663,825.202544L217.387204,828.017189L244.257159,834.056942L261.279130,837.545921L253.948102,858.890196L251.884674,864.929900L248.352322,875.191512L247.246843,880.439582L248.381400,880.586176L249.536696,880.674133L254.016348,882.110754L255.185595,882.638493L257.454928,883.752607L258.710657,884.309663L266.663926,889.000666L271.130138,891.844583L275.845488,895.011004L283.093286,900.053817L286.954161,902.692495L291.368568,905.682995L296.723965,909.230547L300.477645,911.898537L304.075630,914.390615L308.192569,917.263832L315.706806,922.306616L325.936705,928.639404L328.285680,929.870779L331.980433,931.952387L339.072387,935.793098L342.635660,937.698792L345.731694,938.666298L347.679060,938.636980L350.663960,938.138568L352.064619,937.464245L353.344152,936.584694L355.152757,935.236048L356.847004,933.183760L359.091185,931.014197L360.944491,928.785997L362.535063,927.026890L372.386257,916.149728L390.543223,896.506257L391.445734,895.597378L397.510766,889.059303L416.522140,869.122505L422.165413,863.229402L451.291330,832.766899L460.278488,823.443389L471.485703,811.950227L474.580584,808.813057L477.156749,806.115675L478.840805,804.503108L490.791598,792.482138L505.432776,777.851687L534.528542,748.707897L542.568496,740.762217L544.179942,739.149623L549.512270,733.930679L579.110034,705.490237L591.126945,693.967400L591.849650,693.087793L592.302643,692.560028L597.410182,687.223739L604.122425,680.978511L612.892246,672.680846L626.181804,659.750526L633.481904,652.596317L640.903074,645.442094L647.622201,638.698347L650.883188,635.297148L656.990068,628.230855L666.516851,616.561181L689.066360,587.445481L705.305011,565.220055L711.595164,556.951459L715.896930,551.087196L786.383391,457.023187L794.613551,443.271116L820.510941,395.592976L830.688336,378.116706L847.370718,348.412729L851.199003,341.697780L868.193098,312.755921L868.822517,311.729610L869.815062,310.087511L873.069372,304.721364L875.023357,301.730393L877.298965,298.035661L885.644101,285.602568L888.545722,281.438646L900.173015,264.724265L927.000531,226.398205L945.666294,199.508153L946.620858,198.041951L946.852582,197.660738L949.467263,194.171174L956.073156,184.670159L968.247449,166.958327L972.304433,160.008463L975.240846,153.967643L977.644652,148.132084L982.836282,133.528486L985.534194,125.083006L990.618832,108.455912L993.531441,96.051525L995.925092,88.603008L997.073539,84.262921L999.681728,75.524081L1000.000000,73.940531Z " data-aland="7132986" data-awater="0" data-classfp="U1" data-funcstat="S" data-geoid="3500940" data-intptlat="+34.7066137" data-intptlon="-106.7304639" data-lsad="57" data-mtfcc="G4210" data-name="Adelino" data-namelsad="Adelino CDP" data-pcicbsa="N" data-pcinecta="N" data-placefp="00940" data-placens="02584044" data-statefp="35"/></g><g fill="#000" font-family="Arial" font-size="12px" id="mylayer-label" stroke="none"><text text-anchor="middle" y="448.463180478"><tspan dy="0" x="439.252225635"><![CDATA[Adelino]]></tspan></text></g></svg>