<?xml version="1.0" encoding="utf-8"?><!DOCTYPE svg  PUBLIC '-//W3C//DTD SVG 1.1//EN'  'http://www.w3.org/Graphics/SVG/1.1/DTD/svg11.dtd'><svg enable_background="new 0 0 1000 1001" height="1001px" pretty_print="False" style="stroke-linejoin: round; stroke:#000; fill: none;" version="1.1" viewBox="0 0 1000 1001" width="1000px" xmlns="http://www.w3.org/2000/svg" xmlns:xlink="http://www.w3.org/1999/xlink"><defs><style type="text/css"><![CDATA[path { fill-rule: evenodd; }]]></style></defs><metadata><views><view h="1001" padding="0" w="1000"><proj flip="auto" id="robinson" lon0="-106.598032203"/><bbox h="0.47" w="0.49" x="-1505.79" y="-536.93"/></view></views></metadata><g class="" id="mylayer"><path d="M1000.000000,277.813625L981.018780,277.641688L983.087234,270.557912L953.333597,270.626686L953.840781,270.042103L954.318901,269.457519L957.969492,264.780849L961.431702,259.966628L964.683473,255.083631L967.753870,250.131859L970.668975,244.939373L970.928606,244.492338L971.159174,244.045303L971.620311,243.151232L972.081447,242.257162L973.406733,239.574950L970.362119,239.643724L963.807882,239.781274L889.030463,241.225542L877.519841,278.019948L867.885065,283.865781L858.816030,286.135339L858.049761,269.767004L857.601232,253.948850L859.038371,229.533844L860.493252,219.561507L865.098229,202.849233L869.077570,188.268964L872.728201,174.170106L873.572367,162.478361L873.725035,151.130484L873.296513,139.782598L872.835148,132.251725L872.337751,124.652072L873.039956,121.557190L863.502917,123.654833L852.998743,125.958800L845.603436,127.540628L837.792740,131.323261L827.762026,136.137518L812.202798,143.599615L804.818079,147.141531L793.524516,152.540372L788.229566,154.913110L784.887977,156.632486L767.298181,164.988648L754.156696,170.077996L738.890442,175.992642L724.853948,181.425861L715.759825,183.592271L705.539667,183.832983L678.398981,183.729820L652.737552,178.743639L647.459363,177.712015L622.937653,167.361385L596.814270,154.122198L593.054376,153.159347L586.754160,151.508746L584.410279,150.752221L575.753261,147.932444L565.652834,146.350618L557.813958,146.144293L550.273778,145.731642L541.241436,145.078279L425.320344,144.321753L458.084676,42.568730L460.457052,35.175363L464.062366,23.758623L448.687275,24.033725L439.152633,24.583930L430.433916,24.583930L399.988339,25.271685L376.054148,24.687093L372.018518,24.583930L358.289270,23.896174L353.926962,23.724235L349.971528,23.552296L345.902794,23.552296L344.740299,23.552296L340.851075,23.174030L336.643258,22.520662L336.521109,22.176785L336.154662,21.145151L336.032514,20.801273L334.288771,20.801273L324.999515,21.764131L317.113337,22.520662L303.070738,23.896174L295.113543,24.240052L291.850470,24.446378L288.318843,24.583930L280.969007,24.755868L273.096049,24.927807L267.802651,25.030971L228.491179,25.271685L224.160883,25.271685L215.773228,24.240052L212.418486,34.693934L202.354548,66.055542L198.999998,76.509399L196.351703,84.762438L194.501955,90.436401L180.721750,132.114174L176.743706,144.149816L108.768896,144.321753L104.961676,144.321753L101.881025,144.321753L98.509746,144.321753L95.236690,144.287366L54.996903,143.977878L51.985411,143.943491L47.386502,143.874715L46.282118,143.874715L34.548848,143.668390L32.757992,143.634003L23.531112,143.496453L13.995577,143.324515L13.221918,143.290127L0.423276,143.324515L0.555865,145.628480L0.741458,148.310707L0.000000,192.739331L14.580728,188.509676L24.586190,185.586743L25.240815,206.735010L25.389907,211.342922L26.776649,272.242888L26.646851,386.167525L26.645795,392.150868L26.526390,392.976157L26.270598,394.317251L25.583414,398.271757L29.074839,495.036527L29.699385,501.879502L29.762783,508.206671L30.094228,519.588694L30.266300,531.830377L30.264239,532.380565L30.339560,551.086939L31.220479,562.296999L30.915989,571.856492L30.852736,573.231958L30.933934,585.576762L30.697760,594.379736L30.709737,595.067469L31.001663,605.486608L31.917864,636.709600L32.101874,644.927977L32.257026,649.157517L32.767615,662.430700L33.777008,690.283719L35.199425,791.551408L35.431597,833.983937L35.322059,847.291361L35.023123,888.210767L34.735384,922.115343L34.605675,938.207957L40.764357,937.038836L40.204641,942.231109L39.437376,946.529346L38.420856,953.509682L38.165544,955.847921L37.868092,957.773530L36.973693,963.103340L35.522576,972.800150L35.303254,974.209970L34.693370,978.198727L35.896066,978.164341L40.336026,978.095569L45.437462,977.958026L47.192398,977.923640L57.910453,977.854869L62.564890,977.751711L67.579130,977.614168L80.814841,977.579782L87.823563,977.476624L94.076588,977.373467L107.367400,977.167152L111.185969,977.132766L132.154002,976.823294L135.856309,976.788908L159.603585,976.513821L173.410544,976.238734L226.053633,975.585403L257.489142,975.172773L265.566249,975.000844L272.258282,975.069616L278.839302,976.754522L280.291456,976.032419L283.197981,976.032419L289.372904,976.445049L298.461230,975.929262L312.529772,975.654175L322.145415,976.032419L328.153935,976.238734L375.480305,977.029609L425.855337,976.651364L433.853231,976.273120L463.390552,976.341892L470.791172,976.376278L474.554644,976.513821L491.912670,976.857679L503.039545,976.238734L504.671190,976.135577L523.123633,976.238734L526.077269,976.273120L557.492814,976.376278L567.437120,976.273120L568.224743,975.447860L568.543507,975.722947L570.603751,973.556639L573.755899,973.969269L589.086385,974.381899L590.942748,975.482246L593.082558,975.516632L594.757324,975.551018L721.646128,975.310317L736.305081,975.551018L742.572157,975.585403L743.606539,975.894876L757.294179,975.447860L758.485854,975.447860L760.383998,969.705424L763.643285,959.080194L764.535764,956.294938L781.100670,903.512536L786.313718,886.972870L796.274311,855.165776L836.524960,726.767666L839.288421,717.964760L846.333494,695.441681L852.227399,675.875805L858.638262,647.988376L860.273597,640.801596L862.377859,629.522815L863.941064,621.201271L867.117546,596.786799L867.729818,591.250555L869.412383,575.123224L870.123935,559.305358L869.873719,528.357316L868.677539,481.144249L868.352439,467.836536L866.473558,445.416283L866.439522,444.797319L865.248361,423.133548L863.531681,385.617333L863.467664,384.276238L861.879676,359.139293L975.434375,359.036132L1000.000000,277.813625Z M505.265745,273.893477L507.585099,266.844086L528.667947,202.299034L538.510066,172.072470L545.646720,150.098858L548.025833,150.202021L554.821417,150.580283L559.376204,150.786608L574.328815,153.640772L578.506618,154.569235L580.585971,155.153823L588.377290,157.320236L606.754154,165.263748L628.048791,175.889479L647.709656,183.454721L650.388316,184.073695L657.981358,185.861842L666.582696,187.134178L676.570993,188.612838L691.282752,188.956712L699.014538,188.681613L709.812988,188.268964L727.732253,185.861842L751.695294,180.015975L755.354450,178.846801L793.598754,166.260985L793.795688,178.330990L795.225695,193.805341L798.709444,213.750039L807.113126,239.196689L814.817321,260.482437L818.403172,272.861859L821.236478,292.118718L822.245099,310.722199L823.503788,343.046127L825.347710,381.250178L715.838545,381.697210L712.581342,391.944546L711.915664,394.110928L590.106403,395.211313L630.107150,272.758697L604.134688,272.999408L539.688583,273.583991L505.265745,273.893477Z "/></g><g fill="#000" font-family="Arial" font-size="12px" id="mylayer-label" stroke="none"><text text-anchor="middle" y="543.197708644"><tspan dy="0" x="420.171858385"><![CDATA[N]]></tspan></text></g></svg>