<?xml version="1.0" encoding="utf-8"?><!DOCTYPE svg  PUBLIC '-//W3C//DTD SVG 1.1//EN'  'http://www.w3.org/Graphics/SVG/1.1/DTD/svg11.dtd'><svg enable_background="new 0 0 1000 1001" height="1001px" pretty_print="False" style="stroke-linejoin: round; stroke:#000; fill: none;" version="1.1" viewBox="0 0 1000 1001" width="1000px" xmlns="http://www.w3.org/2000/svg" xmlns:xlink="http://www.w3.org/1999/xlink"><defs><style type="text/css"><![CDATA[path { fill-rule: evenodd; }]]></style></defs><metadata><views><view h="1001" padding="0" w="1000"><proj flip="auto" id="robinson" lon0="-79.037126437"/><bbox h="0.23" w="0.19" x="-1106.09" y="-578.12"/></view></views></metadata><g class="" id="mylayer"><path d="M757.261404,0.000000L686.469134,0.370018L474.027586,1.258061L403.212579,1.480072L389.651026,1.332065L348.985635,0.814040L335.443351,0.592029L330.611155,7.622368L326.458267,13.690658L310.654857,60.978789L304.937060,77.999503L303.526463,97.536287L297.617600,116.703020L297.699033,132.391594L299.965151,146.748098L299.342412,155.258387L297.924393,167.764799L296.548393,180.345198L295.635868,206.911990L291.482329,218.160305L282.590416,242.432941L259.945971,304.002299L249.010406,337.302879L238.990780,367.791316L212.392620,419.369847L208.186303,435.057958L203.530021,452.004050L206.267660,466.434106L207.883039,483.528147L209.626064,502.250159L194.033420,536.734091L185.780211,554.790009L180.066385,560.265978L162.779650,576.545869L157.023828,581.947827L140.822459,597.117693L138.086210,601.039655L116.746022,631.009315L104.323023,673.558680L101.859475,681.846536L109.434176,693.464323L115.186987,702.196154L120.966824,723.063721L121.271297,724.247695L86.739820,836.206631L83.919324,845.160334L79.857451,859.589838L75.734340,874.019321L79.485426,874.907289L123.838540,886.450860L268.151667,923.745386L316.194955,936.176865L345.666506,944.168522L434.139143,967.921465L463.568826,975.839101L483.124466,980.500883L541.626925,994.412222L561.140608,999.000000L586.066606,915.457725L602.550213,859.885827L686.558277,719.289802L720.071314,688.210421L735.769683,673.558680L747.866078,653.209006L753.760074,617.615478L753.354306,612.583534L753.126046,596.747697L752.603246,563.447959L749.563765,550.646031L746.132346,536.290093L741.763166,516.828144L729.571038,463.400096L728.108147,458.664079L722.382630,439.941987L718.957722,433.799950L710.385859,418.481840L711.951116,414.115805L714.939849,405.457730L721.773154,389.325569L730.731960,368.087319L749.484307,344.998998L760.602345,331.234782L765.214713,329.754757L779.109602,325.092679L783.679968,323.538653L797.814357,305.482327L834.187237,270.479606L854.539406,233.478713L858.229967,226.596532L879.525399,150.670232L924.265660,1.628079L847.023582,0.888043L757.261404,0.000000Z "/></g><g fill="#000" font-family="Arial" font-size="12px" id="mylayer-label" stroke="none"><text text-anchor="middle" y="459.472307097"><tspan dy="0" x="485.024695077"><![CDATA[N]]></tspan></text></g></svg>