<?xml version="1.0" encoding="utf-8"?><!DOCTYPE svg  PUBLIC '-//W3C//DTD SVG 1.1//EN'  'http://www.w3.org/Graphics/SVG/1.1/DTD/svg11.dtd'><svg enable_background="new 0 0 1000 1001" height="1001px" pretty_print="False" style="stroke-linejoin: round; stroke:#000; fill: none;" version="1.1" viewBox="0 0 1000 1001" width="1000px" xmlns="http://www.w3.org/2000/svg" xmlns:xlink="http://www.w3.org/1999/xlink"><defs><style type="text/css"><![CDATA[path { fill-rule: evenodd; }]]></style></defs><metadata><views><view h="1001" padding="0" w="1000"><proj flip="auto" id="robinson" lon0="-107.560705216"/><bbox h="0.26" w="0.45" x="-1451.16" y="-708.71"/></view></views></metadata><g class="" id="mylayer"><path d="M1000.000000,329.648742L941.403471,327.257116L890.151087,325.155384L895.678926,316.096204L928.982245,247.138168L944.835576,214.235714L931.681685,214.199478L768.752290,213.039923L687.771188,211.336828L652.110573,210.901995L589.913476,210.068565L502.359379,210.032329L477.056069,209.996093L377.941252,208.474179L292.178904,207.133445L287.150675,207.024737L206.974575,370.922571L178.051817,428.467238L169.177905,445.643775L166.834776,450.173460L159.669041,467.060159L137.609847,512.321092L91.738804,604.800854L57.181380,674.234087L0.000000,788.749943L0.000000,788.749943L353.222903,786.176936L553.943434,789.329776L564.578559,789.837129L778.345204,791.975263L829.969576,688.186060L866.130720,611.577444L899.135289,541.565126L901.075232,537.723894L906.967167,526.055261L908.895077,522.177801L912.960903,513.698131L925.164515,488.186717L929.218400,479.670857L951.109599,433.286810L993.284781,343.817338L995.615270,338.889127L1000.000000,329.648742Z " data-aland="3662146" data-awater="0" data-classfp="C1" data-funcstat="A" data-geoid="5604885" data-intptlat="+42.2372018" data-intptlon="-107.5610479" data-lsad="43" data-mtfcc="G4110" data-name="Bairoil" data-namelsad="Bairoil town" data-pcicbsa="N" data-pcinecta="N" data-placefp="04885" data-placens="02411661" data-statefp="56"/></g><g fill="#000" font-family="Arial" font-size="12px" id="mylayer-label" stroke="none"><text text-anchor="middle" y="501.1556633"><tspan dy="0" x="517.70773565"><![CDATA[Bairoil]]></tspan></text></g></svg>