<?xml version="1.0" encoding="utf-8"?><!DOCTYPE svg  PUBLIC '-//W3C//DTD SVG 1.1//EN'  'http://www.w3.org/Graphics/SVG/1.1/DTD/svg11.dtd'><svg enable_background="new 0 0 1000 1001" height="1001px" pretty_print="False" style="stroke-linejoin: round; stroke:#000; fill: none;" version="1.1" viewBox="0 0 1000 1001" width="1000px" xmlns="http://www.w3.org/2000/svg" xmlns:xlink="http://www.w3.org/1999/xlink"><defs><style type="text/css"><![CDATA[path { fill-rule: evenodd; }]]></style></defs><metadata><views><view h="1001" padding="0" w="1000"><proj flip="auto" id="robinson" lon0="-91.8311580214"/><bbox h="0.35" w="0.61" x="-1299.09" y="-530.32"/></view></views></metadata><g class="" id="mylayer"><path d="M1000.000000,373.134546L998.019236,365.187416L997.057352,361.324227L995.036478,353.266716L993.859385,350.369323L992.356956,347.637494L987.592285,340.821719L986.052271,338.917717L982.308780,334.281884L977.011618,330.032371L969.004740,325.175782L956.163388,319.877685L946.792219,313.503410L943.662955,312.289262L937.561780,312.123696L930.738705,312.896336L927.863194,313.503410L926.191027,313.034307L924.092938,311.378651L922.374227,310.219691L910.123654,301.969002L903.698024,295.677505L901.926217,293.939065L899.587383,290.931286L894.253785,284.060306L891.320035,279.369273L889.257532,274.567863L886.611243,268.386735L880.183836,253.403012L872.955453,238.529657L871.433970,234.749229L869.546760,231.713848L868.593627,230.748045L863.573868,225.477520L859.821933,222.166195L857.181713,220.786476L854.799227,220.179399L849.603173,219.434351L838.569273,214.108634L831.726771,211.680328L824.421616,211.818300L814.818824,211.983866L805.918245,211.542356L795.198940,212.894481L790.054348,214.715711L785.088553,215.791892L757.972617,220.041427L755.725097,221.090014L754.158898,222.469733L753.170525,226.112191L751.670811,227.160777L749.757278,227.409126L745.455346,227.933420L740.907708,228.071391L731.201457,227.326343L724.118382,228.540496L717.417360,230.499696L711.766368,231.603471L706.146232,232.679651L702.376105,233.397105L695.066339,235.963381L686.127147,236.266919L683.251620,236.873995L667.996588,241.592630L666.054911,242.116923L657.999384,244.158905L638.436298,248.132492L627.272932,249.484615L624.757898,251.002304L620.183617,255.113861L617.865502,257.542163L616.225569,258.590748L611.586915,259.666927L603.262965,262.095228L601.344894,261.929662L595.451189,259.363389L593.045329,258.756314L589.105266,258.894286L583.111206,259.970465L579.227844,261.019049L563.352136,260.274002L558.923134,260.577540L552.994406,261.929662L549.441828,263.309379L543.770819,265.434142L536.858954,268.773056L527.729446,275.892390L525.025161,278.624227L521.686480,283.177288L520.113887,286.819736L519.429325,290.462183L518.726639,292.448973L517.447215,294.408168L516.236117,293.359584L516.413569,291.069258L518.372173,282.128704L518.170484,281.494035L517.630757,279.865971L516.185315,278.044746L514.152689,276.665031L511.118819,275.616447L501.501216,275.147343L495.881778,274.153948L488.888340,272.884609L486.190450,273.353713L473.772355,275.368098L470.366810,275.947579L460.326264,276.692625L456.963835,276.940974L454.325847,277.189323L448.438408,278.044746L446.309766,278.569038L443.613684,279.203707L433.980115,281.549224L425.701045,283.811957L416.908512,286.847330L408.284825,288.227045L378.407598,294.297790L368.937842,295.953448L367.159732,296.477739L352.631051,300.672071L346.048531,297.802265L334.980369,299.319951L313.587730,303.403905L299.603189,304.645648L289.340672,306.466870L262.200658,314.248455L253.844855,316.621562L246.375517,318.139246L235.239027,319.822496L225.665304,321.947254L216.759333,323.161402L208.820295,325.893233L195.547243,326.665872L190.144836,327.714454L163.116317,337.151686L155.583843,340.021486L143.229813,342.918881L139.700807,343.608737L118.673563,347.637494L80.657150,355.970949L68.313704,360.551589L65.515226,362.510778L63.572114,364.331996L62.916621,364.939068L60.572777,368.581503L58.159491,372.996575L53.495324,385.275989L52.190399,390.601665L52.064206,393.305894L52.289465,396.092905L52.614317,400.149248L51.650650,408.179148L51.644498,412.594212L52.310171,417.892288L48.020625,425.949776L48.087560,427.081135L49.139436,432.075672L52.452944,435.883661L53.859903,438.449914L57.279156,441.954366L61.466978,450.894857L64.336852,459.697374L64.965526,467.285748L64.875328,478.213001L64.981348,480.061804L65.509655,489.140250L65.086165,502.330204L65.731675,507.186755L65.790411,511.105107L65.889854,516.596318L66.556949,521.287302L67.569315,524.791741L66.379082,529.179189L66.455576,533.290696L66.905264,536.629570L66.385658,539.664909L65.357579,542.507090L61.698078,552.551301L60.298316,557.711374L58.245583,568.638585L57.651583,574.102188L56.371637,578.820754L55.453656,586.685027L52.247713,596.867188L50.069654,604.897019L45.231867,618.252470L42.911821,621.894865L40.156767,627.054923L34.360416,634.036176L31.270241,637.071502L29.575855,639.527357L27.873070,641.928024L24.174218,645.570415L19.892176,648.605740L13.537109,654.372857L9.971569,655.283454L7.797860,656.663147L5.113260,660.443505L5.421384,662.237105L4.343462,662.678606L3.381472,663.037326L1.682793,663.699579L1.101293,663.947923L0.000000,664.389425L2.103411,668.611282L3.402278,671.232697L6.139595,675.013052L8.737224,680.945725L9.936068,683.677514L11.735577,683.677514L12.453763,687.319898L13.262553,691.403783L14.657449,695.653229L15.133803,697.860734L15.866987,701.447928L18.716818,698.522985L19.671445,697.502014L26.934546,689.334247L27.749874,688.396057L29.532041,686.133364L54.330402,687.761399L104.378679,690.989876L106.464075,686.574865L127.961261,674.350800L153.901146,659.532907L157.210263,660.084784L167.145102,661.712822L170.438335,662.237105L176.511703,662.678606L194.653295,663.947923L200.710778,664.361831L209.928809,659.670877L214.607016,657.242618L233.274026,647.612361L237.558621,645.515227L246.770094,640.934645L307.762384,610.443395L466.265895,531.138363L490.993231,521.480460L492.172105,521.011361L516.685296,515.934062L550.510515,516.761882L552.248279,516.817070L557.469056,516.955041L559.190934,516.982635L552.099609,525.895502L530.770659,552.578895L523.663559,561.464154L522.027270,563.533702L517.148347,569.631967L515.496178,571.673920L518.049017,572.170611L525.729985,573.577903L528.290308,574.047000L531.031028,574.626473L539.253190,576.364892L541.978026,576.916771L543.389421,577.744590L552.160818,581.938869L557.251304,584.367136L581.675778,595.128771L583.335855,595.901401L593.702025,600.592368L593.388778,601.144246L592.417263,602.744693L592.088129,603.268978L579.642728,623.826437L554.920736,664.665363L542.322504,685.443518L529.861891,705.973311L524.545589,714.720542L534.252547,716.155419L586.188228,723.716114L603.479274,726.227148L602.758408,738.368404L602.354049,744.687373L601.886099,751.585809L601.932527,755.724870L601.820066,759.587993L600.651057,766.486424L598.877137,775.012883L597.396884,781.938904L595.433432,787.457644L598.696010,786.629833L600.406751,786.353896L602.192294,785.802022L603.585227,784.974211L605.127764,783.594526L607.135894,781.359436L607.820231,780.559219L624.396049,758.208306L634.222919,744.632186L643.113071,732.270183L654.068983,733.925808L657.439891,734.422496L674.154218,736.905935L675.777043,737.126685L677.392387,737.375028L686.959196,738.809904L697.906723,740.410342L698.826677,739.085841L704.983194,728.876150L705.120631,728.627806L711.383019,716.045044L724.524511,695.846386L725.656739,693.997601L732.701646,682.408198L737.520452,674.461176L742.394504,665.879492L747.634178,656.552771L756.362313,641.514116L757.862872,639.858484L761.764746,632.104604L764.531335,628.020709L768.217858,623.302153L770.376838,619.218257L772.292526,617.065933L774.254032,614.830826L782.437784,604.041608L783.885160,601.806500L784.926746,600.206053L787.897251,595.542680L789.093103,593.804262L794.597399,585.829615L802.078939,577.027147L806.936915,571.867078L812.136121,566.569038L816.493204,560.498365L820.990521,554.427691L826.313057,549.709121L828.775962,545.625211L830.233163,540.768669L832.190236,537.429796L834.837242,533.787388L839.879373,529.068813L844.647635,524.239861L851.413980,516.955041L853.098685,515.740904L857.344184,512.236462L863.500855,506.165776L870.347466,499.791553L874.109033,494.797030L879.329900,489.333408L885.207227,482.655646L888.114911,480.034210L891.199314,477.192021L893.823024,473.549603L898.845813,467.782441L901.634687,465.685291L904.331003,463.670923L923.304401,458.510828L930.127721,452.136592L935.890880,446.397018L938.728125,440.933384L940.989117,437.594496L945.488568,435.911255L949.124895,435.773284L954.033842,433.786508L957.713183,429.095506L962.609289,425.949776L968.139858,419.603124L973.662039,413.201283L984.487718,400.342407L985.886525,398.631569L986.601969,397.113890L986.069829,394.078531L986.388756,393.333488L986.912511,392.091751L988.002629,391.346708L989.231890,391.208737L990.351789,391.043172L994.456559,390.298129L995.762653,389.359927L996.959542,387.704277L998.109852,385.358771L999.000194,383.454773L999.835400,381.495586L999.928006,377.190892L1000.000000,373.134546Z "/></g><g fill="#000" font-family="Arial" font-size="12px" id="mylayer-label" stroke="none"><text text-anchor="middle" y="451.602234529"><tspan dy="0" x="508.483662739"><![CDATA[N]]></tspan></text></g></svg>