<?xml version="1.0" encoding="utf-8"?><!DOCTYPE svg  PUBLIC '-//W3C//DTD SVG 1.1//EN'  'http://www.w3.org/Graphics/SVG/1.1/DTD/svg11.dtd'><svg enable_background="new 0 0 1000 1001" height="1001px" pretty_print="False" style="stroke-linejoin: round; stroke:#000; fill: none;" version="1.1" viewBox="0 0 1000 1001" width="1000px" xmlns="http://www.w3.org/2000/svg" xmlns:xlink="http://www.w3.org/1999/xlink"><defs><style type="text/css"><![CDATA[path { fill-rule: evenodd; }]]></style></defs><metadata><views><view h="1001" padding="0" w="1000"><proj flip="auto" id="robinson" lon0="-75.8484003356"/><bbox h="0.63" w="0.68" x="-1047.64" y="-631.63"/></view></views></metadata><g class="" id="mylayer"><path d="M1000.000000,220.590524L999.942998,219.343941L999.627543,218.446402L997.016303,214.557066L988.328118,202.116196L982.960045,194.063302L977.359294,185.686310L976.170254,183.068502L975.339331,180.251244L974.928432,177.882753L974.590282,173.220569L974.949463,160.680060L974.819886,143.003722L974.483871,126.723587L973.912969,116.077949L973.796644,113.884002L971.256556,87.681363L970.738068,86.135636L969.750442,84.390460L968.451367,82.894595L966.826976,81.697904L962.366959,79.379315L960.504273,78.531659L957.809266,77.484554L954.661476,75.888967L951.745058,73.969277L949.614300,72.199174L947.677671,69.731002L945.709407,66.215730L945.056642,64.645077L942.295312,56.218405L940.332378,48.838845L938.562369,40.910815L932.587281,45.273723L914.749040,58.412330L909.044435,62.600735L897.846423,70.653450L880.568008,82.794871L859.003529,97.579016L841.882097,109.446249L835.969420,113.584828L826.473765,120.740088L817.028604,128.294257L812.590012,131.485460L809.717492,133.180787L806.786927,134.576939L801.229600,136.421855L789.467309,139.538269L784.896699,140.809766L784.411203,140.959354L781.705068,142.056332L778.577173,143.726731L776.635907,145.048091L774.353590,146.942873L772.922445,148.388892L767.326135,146.020414L764.070482,144.449739L748.505933,135.698847L745.177770,133.953657L737.969032,129.765202L720.070325,120.266394L689.138608,103.363043L676.188133,95.734113L672.660161,93.764554L637.858129,113.485103L625.507939,122.560068L559.580736,158.211852L506.406271,188.927407L511.406442,207.152377L474.080483,223.033826L481.629847,238.042707L494.589664,254.348079L457.092393,285.213723L332.624175,388.158530L329.491075,385.565566L300.149398,360.683138L293.551066,368.013221L167.166248,505.217078L164.171166,502.998056L163.806889,503.945504L163.113439,504.843086L147.332375,518.930157L135.608389,529.601446L133.652025,531.122356L128.883635,534.338707L125.165150,537.480261L121.985172,540.571951L120.226121,541.818600L119.462579,542.242461L116.297952,543.464178L113.513036,545.134689L111.353658,546.805201L109.626192,548.301182L108.902393,548.799842L107.925658,548.974373L107.206770,548.874641L102.432050,546.306541L100.385669,545.683215L99.519214,545.533617L95.019370,545.533617L93.180040,545.907612L91.398174,546.655603L86.442463,549.747297L82.647553,552.365265L79.363428,555.033101L78.346510,556.005490L77.719919,556.952946L77.127547,558.648394L77.070436,559.870114L77.273630,560.518374L78.742740,562.637685L79.447334,563.659941L79.720019,564.856729L79.747424,568.895891L79.511779,569.743616L78.817727,570.716008L77.511382,571.713332L75.491848,572.735590L72.699204,573.707982L70.031312,574.231578L64.490488,574.854906L61.606332,575.503167L59.192605,576.201295L57.119464,577.198620L55.414631,578.395411L54.499838,579.218205L52.742810,581.038325L51.273806,582.185250L45.866010,585.451495L43.957550,586.872686L35.607642,593.754247L32.716924,596.023169L29.267092,599.214622L28.740792,600.236884L28.667809,600.935015L28.865921,601.383813L29.618435,602.306343L35.771279,608.265391L71.759760,642.498863L135.899432,704.034826L159.720893,726.874102L161.080708,727.572247L162.329404,727.871452L164.976797,728.220525L168.473201,729.217875L169.449611,729.916021L170.394069,731.237511L167.380615,733.730888L159.796264,739.166455L158.030367,740.438080L148.637071,746.646601L142.195145,751.384032L139.128084,753.852484L135.475490,757.193623L131.195794,761.557053L124.033359,768.887623L117.562801,774.672297L112.596736,778.237853L109.175798,780.382174L95.744469,787.687833L92.715078,789.657619L89.682666,792.001417L78.210210,801.625957L43.442307,832.269994L40.011122,835.685978L34.228226,842.119005L31.394308,845.709534L21.741421,857.428638L8.582108,871.890543L3.943782,876.528333L0.000000,880.118883L3.086401,886.950907L6.758656,893.708135L16.489178,912.508728L26.235612,931.035099L29.400852,937.293683L35.803328,948.389596L37.433225,950.658650L39.240214,952.653424L41.545981,954.523525L44.605942,956.293888L47.067077,957.241406L49.161632,957.765034L52.260063,958.089185L54.501259,957.939577L56.799058,957.440883L59.065813,956.618039L71.535300,950.957866L79.225527,947.392210L90.851971,942.006327L110.502964,933.304146L161.609576,910.090081L174.836174,903.956197L178.000152,902.809211L214.490947,886.153006L236.397688,876.303924L247.314152,871.366921L261.505393,864.883995L287.597347,853.189811L297.690942,848.527104L308.768810,843.590124L320.822826,838.553412L325.310180,836.783083L332.375073,834.015387L358.357642,823.368496L362.329038,821.348830L370.627802,816.536543L385.459174,807.385727L390.141050,804.842451L394.954858,802.623319L413.603555,795.566983L417.154500,793.971205L421.491517,791.652341L425.702928,789.059203L445.135479,779.035740L448.956878,777.265428L456.322289,773.924279L469.302340,768.314143L476.813526,765.247271L479.889206,764.200047L483.765137,763.177757L488.392235,762.429740L492.201628,762.155467L495.907124,762.255202L499.495470,762.704013L502.751621,763.476964L507.293864,764.923130L511.778901,766.793174L514.021121,755.597855L514.841441,752.281651L517.168149,743.978682L519.333493,737.346288L522.078015,729.791352L527.253930,716.825807L532.738927,703.910158L539.874464,688.177038L541.729142,683.389790L542.673954,680.497496L543.227532,678.577612L544.382886,673.765437L546.697577,661.149081L549.866971,640.155123L552.406637,624.696436L555.335476,603.553005L557.521643,586.099757L560.331035,564.806863L564.066000,533.939780L564.548731,530.823161L565.472775,523.069019L566.196594,518.431499L566.853949,512.871465L566.698384,511.325628L566.144961,509.904454L565.072607,508.607946L563.702068,507.585699L562.080021,506.887579L559.763147,506.438788L561.693293,503.995369L562.906828,502.823526L565.134166,501.053295L567.818072,499.382796L569.208946,498.734543L570.012205,498.385484L573.053836,497.388171L579.394538,495.991934L590.485940,494.346369L624.496518,489.010754L629.135510,488.437300L634.878606,487.739182L638.556570,487.065997L641.926754,486.193351L645.457755,485.395502L655.848592,483.874604L676.235899,482.179177L698.082972,480.458818L701.103417,480.408953L702.613148,480.857742L703.750304,481.630657L704.215860,482.278908L704.541012,483.650210L704.440591,485.245906L707.271371,477.092899L709.238244,470.959452L711.888164,458.592846L712.813030,455.700660L714.100499,452.883273L715.805398,450.016022L717.916914,446.774783L718.801047,444.755243L719.288546,442.710771L719.782757,439.843524L720.410898,437.873852L721.432409,435.505259L722.789412,433.236397L728.497923,426.055829L730.205291,422.889401L732.388766,417.429186L735.367341,409.326137L736.404777,407.481136L736.872542,407.032352L738.178820,406.035055L739.603723,405.336947L741.099963,404.962961L742.263977,404.913096L746.347713,405.611204L749.264784,405.860528L767.068852,405.835596L816.447472,406.334244L834.697291,406.084920L840.071391,405.262150L844.553161,404.165123L847.891925,403.841002L851.119820,403.915799L848.893281,392.397032L842.871268,358.090185L839.229256,337.944978L833.192168,307.253586L830.150648,291.047796L849.508179,282.820259L887.041475,266.115899L901.948349,260.107327L954.342356,240.535881L960.327665,238.167366L977.819661,231.859642L988.809887,227.745913L997.047355,224.679316L998.190378,223.906434L999.113294,222.909168L999.742325,221.662585L1000.000000,220.590524Z "/></g><g fill="#000" font-family="Arial" font-size="12px" id="mylayer-label" stroke="none"><text text-anchor="middle" y="480.416502264"><tspan dy="0" x="467.607539138"><![CDATA[N]]></tspan></text></g></svg>