<?xml version="1.0" encoding="utf-8"?><!DOCTYPE svg  PUBLIC '-//W3C//DTD SVG 1.1//EN'  'http://www.w3.org/Graphics/SVG/1.1/DTD/svg11.dtd'><svg enable_background="new 0 0 1000 1001" height="1001px" pretty_print="False" style="stroke-linejoin: round; stroke:#000; fill: none;" version="1.1" viewBox="0 0 1000 1001" width="1000px" xmlns="http://www.w3.org/2000/svg" xmlns:xlink="http://www.w3.org/1999/xlink"><defs><style type="text/css"><![CDATA[path { fill-rule: evenodd; }]]></style></defs><metadata><views><view h="1001" padding="0" w="1000"><proj flip="auto" id="robinson" lon0="-98.3950204811"/><bbox h="2.1" w="0.89" x="-1369.83" y="-602.91"/></view></views></metadata><g class="" id="mylayer"><path d="M662.768136,0.000000L662.107899,0.089507L660.293849,0.943895L659.236849,2.148174L656.593225,5.142594L656.021256,5.500622L655.795790,5.500622L655.574549,5.370430L655.649166,5.012402L656.562878,3.702344L653.179758,3.686070L652.310572,2.628258L635.188717,22.262788L546.463018,19.195159L535.431350,50.001443L510.777649,50.033991L501.147174,75.030207L527.731230,74.094481L517.649489,100.880478L517.378850,101.661596L516.101047,105.363764L581.618383,104.688424L582.599875,104.688424L629.475022,106.055377L629.214809,107.747794L624.577121,120.863979L622.476059,125.452997L619.075242,135.517884L618.485431,138.951489L617.868774,142.189812L618.489220,143.670651L618.033728,145.509495L618.178214,145.965137L618.761180,147.812115L618.605097,149.569590L619.976959,151.554884L619.675126,153.076400L625.350234,160.187638L640.371242,172.359680L657.802152,184.132971L657.324115,184.743195L669.471508,193.880263L673.732576,202.431480L674.458157,207.077275L672.961642,214.709048L670.371964,222.593014L670.202739,223.113729L663.423090,242.835714L630.040612,339.921446L615.962079,339.953989L615.793053,340.002804L607.718775,341.955373L605.836638,342.402837L605.751555,342.419108L605.654553,342.549280L605.595327,342.508601L588.659337,351.221919L580.129339,356.705351L574.039931,362.091141L571.596630,365.320981L569.253939,366.484373L569.075693,366.874882L565.281287,375.384706L561.376648,387.051081L538.746733,454.558537L538.541309,455.128005L513.152033,524.797085L502.105578,525.000459L496.961238,525.089944L485.668576,559.215839L481.207154,572.678933L476.384685,586.662558L471.721629,600.174274L469.487591,606.641317L457.029372,606.820279L454.974058,613.563878L450.717806,627.522810L446.524659,640.115048L439.634737,660.784689L433.742613,677.866873L429.400595,690.450653L428.956136,690.450653L427.622761,690.450653L427.171669,690.450653L425.984235,690.450653L422.415300,690.450653L421.221232,690.450653L411.397984,705.401413L381.925934,750.244866L373.103435,763.665977L372.479409,765.300906L370.930513,769.522432L370.668209,770.221952L373.475200,770.514774L370.721769,778.900858L369.334924,783.114221L365.226954,795.323160L364.456691,797.608769L365.534590,797.559966L373.657919,797.137007L376.194379,790.516052L385.837433,790.288304L383.843535,795.811191L392.822172,795.803057L392.827692,796.770984L394.178738,796.738449L397.377235,796.657110L393.387142,808.556880L393.583425,808.565014L394.177754,808.573147L394.376778,808.573147L397.724980,808.638218L404.805012,808.752091L407.813442,808.703288L411.198864,808.638218L410.085650,812.355355L392.567228,812.387890L390.734642,817.983918L384.046198,838.326315L364.075773,899.140735L355.189495,926.192237L343.813974,957.269265L340.393657,967.110352L339.864316,968.623110L298.256045,968.590577L287.239077,999.000000L319.764275,998.975601L330.119985,998.959335L333.984156,998.951202L337.845589,998.951202L353.170737,998.934936L353.923680,997.349006L355.534373,993.925020L356.128292,992.574942L356.820378,990.972741L357.834658,988.630434L358.842310,986.288124L360.262737,983.173173L360.963793,981.603496L361.998008,979.261177L363.086579,976.796859L365.705578,969.965071L366.190533,968.761372L368.548145,962.824199L373.270088,949.689152L377.496085,937.180273L378.142532,935.260828L379.608317,931.007135L381.112480,926.639567L384.204893,926.696500L388.353351,926.769700L393.530286,926.704633L396.651675,926.655834L399.116704,915.456269L400.949355,907.119585L401.926487,902.662495L406.493116,881.857177L408.948434,870.649214L410.865897,861.254970L416.615263,833.063828L416.777679,832.266727L417.945297,832.266727L418.449496,832.266727L422.636392,832.323663L423.967558,832.291128L427.958750,832.160989L429.286022,832.120320L430.863521,832.006449L435.577699,831.640433L437.151303,831.518427L438.704997,831.770572L440.878699,832.112187L443.602905,831.843775L445.301838,831.664834L446.876589,831.933246L451.748681,832.063385L453.380260,832.104053L454.213428,832.112187L456.707885,832.112187L457.507882,832.120320L458.264180,832.120320L459.418530,832.120320L460.445676,832.104053L461.177024,832.079652L462.440116,832.209791L466.237614,832.575807L467.503447,832.697812L468.698625,829.485004L470.131791,825.605225L471.596410,822.262265L472.554662,819.870946L472.785141,819.285317L473.659763,816.649982L474.166023,815.088301L474.466752,814.136651L474.811331,813.054860L475.784337,810.403249L476.353059,808.833429L476.648853,808.841562L477.524556,808.841562L477.816457,808.841562L478.861907,808.849696L479.911250,808.865964L483.949838,808.890365L486.214811,808.882231L488.313932,808.874098L488.592565,808.874098L489.401927,808.874098L489.676666,808.865964L483.487090,827.532915L477.952182,844.198810L496.537846,844.150008L497.629506,840.929085L502.383104,827.606118L509.034143,808.947302L509.243694,808.955436L509.871195,808.963569L510.076852,808.963569L511.690096,808.979837L516.516557,809.028640L518.125907,809.036773L521.294273,809.044907L530.786104,809.069309L533.947837,809.077442L532.499978,813.591688L529.432877,822.774690L528.972541,824.141155L528.021165,827.142497L526.582804,831.648566L561.268962,831.778706L586.617351,831.860042L572.642685,872.267784L601.657532,872.495523L608.565901,851.982684L622.887963,809.402794L619.934627,809.386526L611.067986,809.337723L608.108016,809.321456L600.622425,809.288921L594.633405,809.264519L589.453747,809.240118L587.353472,809.231984L583.222005,809.207583L573.787571,809.150646L571.051143,809.199449L563.861205,809.313322L559.854199,809.313322L554.127804,809.297055L552.140310,809.288921L549.870288,809.272653L546.751100,809.256386L540.668483,809.175048L541.864390,805.644981L545.452226,795.054743L546.644316,791.516517L546.920206,791.524651L547.746722,791.532785L548.018718,791.532785L549.079014,791.516517L552.259900,791.467714L553.320196,791.451446L553.823231,791.435179L555.329595,791.394509L555.828736,791.370108L558.849894,782.422839L557.153889,782.455375L549.489135,782.561116L551.856306,775.476477L549.900864,775.452075L554.603867,761.258317L558.251456,750.236732L559.276971,750.244866L562.361741,750.244866L563.389997,750.244866L564.909450,746.267319L566.453596,742.216557L560.080620,742.013205L556.868392,741.899328L556.969812,741.598367L557.282298,740.671083L557.386460,740.361988L557.936988,738.767708L559.565952,733.992996L560.112603,732.390577L560.231626,732.057078L560.574279,731.040314L560.689411,730.698681L561.171869,729.267076L561.284261,728.933577L562.538506,724.955986L562.990549,723.516243L563.875562,720.929582L565.099366,717.318013L566.423369,713.153312L566.802570,711.949451L567.277995,710.558503L568.001310,708.451744L568.858966,705.946405L570.256381,702.115184L570.936126,700.236174L571.022267,700.000281L571.883772,700.081623L572.201358,699.178722L574.301561,693.183771L574.995921,691.182739L574.823445,691.182739L574.295489,691.174605L574.119121,691.166470L575.267027,687.839546L575.302670,687.733800L578.762143,677.411350L579.098247,676.394558L579.895436,673.970522L581.735472,668.374078L582.982650,664.713605L587.054957,652.731608L588.628992,648.062433L590.286662,643.027194L592.319632,636.918189L595.150016,628.385071L595.403475,627.652962L583.788228,627.652962L548.944082,627.628559L537.649986,627.620424L537.324944,627.620424L540.975180,616.833986L551.925797,584.458049L555.572848,573.663240L555.613999,573.541219L555.737452,573.175154L555.774714,573.044998L559.736640,573.118211L564.889819,573.199559L567.233669,573.232098L569.378521,573.264637L571.641625,573.280906L575.620012,573.305311L578.145706,573.329715L585.731016,573.378524L588.259453,573.394793L590.396525,573.411063L593.362760,573.427332L602.913127,573.451736L608.650039,573.533084L613.731851,573.590028L613.837984,573.590028L614.156382,573.590028L614.255882,573.590028L619.952301,556.816063L627.693139,533.981443L636.826257,507.827469L637.296169,506.493322L640.434469,497.504080L673.730573,497.902699L668.234293,515.181529L693.075944,515.002559L712.760923,456.209993L702.683939,456.234398L682.387934,456.291345L674.670433,456.242534L665.535091,456.169316L653.171126,456.071694L650.888552,462.758855L650.005273,465.337719L644.160631,482.820208L641.920870,489.499146L639.246009,497.487810L636.407748,505.980815L635.784863,507.827469L630.240632,524.284582L627.048575,533.965173L624.352305,542.018739L619.803380,555.408736L618.236224,559.996782L614.941148,570.043265L614.314551,571.881725L614.059743,571.889860L613.310179,571.889860L613.051481,571.889860L608.249869,571.808512L593.825135,571.564469L589.010259,571.483121L590.498704,568.131590L589.563411,568.131590L578.485817,568.131590L577.440501,568.123455L576.306095,571.369234L573.549385,571.361100L572.134895,571.385504L569.152203,571.418043L565.808569,571.458717L561.759062,571.507526L559.582193,571.491256L556.313572,571.466852L555.437281,571.409908L555.327543,571.735299L554.985065,572.711472L554.871438,573.028728L551.488222,583.237840L551.252299,583.937426L541.119223,613.750974L540.146640,616.655025L537.705066,623.935471L536.464632,627.555348L536.249550,628.173573L535.418950,630.597666L534.992682,631.842249L534.529614,633.176311L530.938708,644.141618L530.758849,644.694763L529.336188,648.973492L518.346666,649.006030L501.934776,649.046702L485.358195,649.103643L474.364780,649.128047L474.479974,648.786400L474.825558,647.761458L474.934119,647.419810L477.659046,639.220253L479.716202,633.119370L479.942269,632.468608L484.735502,618.509711L492.516707,595.553782L495.094788,587.614319L496.454623,583.424939L499.987638,572.654529L501.712031,567.423863L503.190460,563.079878L507.922716,549.128627L512.867691,534.331245L512.998265,533.924499L516.109725,524.740140L520.825181,510.821160L524.067556,501.229943L530.926470,481.136233L532.898175,474.977919L533.398659,473.415965L534.136810,471.129979L534.844542,469.071776L538.552347,458.260074L539.590451,455.144275L544.891462,439.199121L549.848531,424.254492L551.913169,418.136681L559.425841,396.073357L561.108556,391.362904L562.659963,387.002268L563.186258,385.521602L564.032570,382.503318L565.652090,378.687745L567.070191,375.783349L567.236517,375.506740L568.141362,373.985388L568.698685,373.041660L570.626588,370.218612L571.056243,369.535223L571.991516,368.022002L572.426665,367.322340L576.732244,362.367752L578.129479,361.057916L581.990189,357.421287L585.826761,354.386691L589.036974,352.068028L589.281498,351.913450L592.544254,349.871398L595.488335,348.203584L598.341787,346.804247L599.560000,346.299834L601.479503,345.486266L604.979000,344.314726L606.942801,343.802177L609.691573,343.086236L612.374898,342.524873L612.904153,342.410973L615.924335,341.971645L618.669989,341.874016L621.123813,341.776388L627.933590,341.703167L630.398605,341.670624L633.033993,341.703167L633.777358,339.343811L633.965247,338.806854L637.524030,328.539554L643.669339,309.884180L647.528782,298.314996L656.494650,271.897638L662.766061,253.030214L666.048393,243.153021L667.899567,237.612335L670.649081,229.313482L674.081087,219.484994L675.712465,213.927972L676.308532,210.592125L676.512587,206.865733L676.156874,204.050594L675.535528,201.040181L674.796107,198.713210L673.597587,196.174694L672.032597,193.896535L669.489606,191.431240L665.301588,188.201129L658.352483,183.465793L652.554481,179.544081L646.577592,175.386407L632.590382,165.630893L630.595875,163.800204L627.964284,161.107053L626.296952,158.641719L624.269269,154.907099L623.182107,151.725750L622.617712,149.764865L622.137423,145.965137L622.088702,145.598996L622.119662,140.855428L622.157470,140.350966L622.370098,137.405554L623.001486,134.045175L624.117621,130.074552L627.409697,121.018574L627.671535,120.302556L628.500879,117.926677L630.441653,112.320567L631.348466,108.675368L631.370946,108.569592L631.733028,105.672955L662.607360,23.662341L662.454352,22.270925L662.752094,21.115479L663.234047,20.082086L664.120217,18.853406L666.357977,15.745088L667.479133,13.507421L667.658268,12.840189L667.335338,12.343833L666.944919,12.164819L665.761291,12.213641L661.720658,11.180245L661.184109,11.570820L661.038367,11.668463L660.715985,11.896299L660.110920,13.019202L659.422489,13.466736L658.481175,13.328407L657.379132,12.880873L657.304612,12.571668L657.726066,11.717285L661.281347,6.810680L661.771037,6.127172L663.901628,3.002560L663.952962,2.595710L663.725435,2.327188L663.350837,2.376010L662.545935,2.913053L661.855681,3.620973L660.843581,5.280923L660.325008,5.500622L660.236394,5.370430L660.417948,4.833388L661.211361,3.271082L663.077298,0.537044L662.768136,0.000000Z M552.908990,700.659155L554.199985,697.104487L556.392428,691.052590L559.726443,691.060725L568.099336,691.076993L569.709736,691.101396L573.023408,691.150202L572.409706,692.931609L570.556951,698.251417L569.942117,700.016550L564.947448,700.211771L552.908990,700.659155Z "/></g><g fill="#000" font-family="Arial" font-size="12px" id="mylayer-label" stroke="none"><text text-anchor="middle" y="600.708470752"><tspan dy="0" x="506.554508805"><![CDATA[N]]></tspan></text></g></svg>