<?xml version="1.0" encoding="utf-8"?><!DOCTYPE svg  PUBLIC '-//W3C//DTD SVG 1.1//EN'  'http://www.w3.org/Graphics/SVG/1.1/DTD/svg11.dtd'><svg enable_background="new 0 0 1000 1001" height="1001px" pretty_print="False" style="stroke-linejoin: round; stroke:#000; fill: none;" version="1.1" viewBox="0 0 1000 1001" width="1000px" xmlns="http://www.w3.org/2000/svg" xmlns:xlink="http://www.w3.org/1999/xlink"><defs><style type="text/css"><![CDATA[path { fill-rule: evenodd; }]]></style></defs><metadata><views><view h="1001" padding="0" w="1000"><proj flip="auto" id="robinson" lon0="-94.2550871703"/><bbox h="0.18" w="0.28" x="-1272.09" y="-707.48"/></view></views></metadata><g class="" id="mylayer"><path d="M1000.000000,167.193788L919.274018,179.032145L869.473318,186.299263L687.823743,186.064840L611.639454,185.889022L545.763607,185.830416L347.990163,185.654599L282.065683,185.595993L263.403009,226.620148L207.299003,349.517885L201.402037,362.411400L189.441409,390.484160L175.489101,423.362804L151.144918,478.805488L133.142550,519.772337L116.120228,560.387718L69.383543,669.927063L37.777913,743.540110L5.921037,817.622624L0.000000,831.806212L49.145653,829.520426L196.485214,822.663070L245.607620,820.318677L264.183098,821.783923L319.935035,826.121052L338.536006,827.527689L361.380050,828.348228L429.863565,830.809843L452.684454,831.571772L460.492107,831.513162L483.966001,831.220113L491.775952,831.044283L509.915866,831.161503L564.266098,831.337333L582.382842,831.395943L587.364855,831.571772L640.954132,823.424998L712.546128,812.464962L764.669709,693.077599L793.853942,626.146334L815.027307,578.321840L878.552638,434.732630L899.704792,386.850520L914.500556,355.495785L920.195192,342.953921L944.104210,289.739097L980.163407,211.148160L994.904745,178.914934L1000.000000,167.193788Z "/></g><g fill="#000" font-family="Arial" font-size="12px" id="mylayer-label" stroke="none"><text text-anchor="middle" y="499.020797296"><tspan dy="0" x="495.064646244"><![CDATA[N]]></tspan></text></g></svg>