<?xml version="1.0" encoding="utf-8"?><!DOCTYPE svg  PUBLIC '-//W3C//DTD SVG 1.1//EN'  'http://www.w3.org/Graphics/SVG/1.1/DTD/svg11.dtd'><svg enable_background="new 0 0 1000 1001" height="1001px" pretty_print="False" style="stroke-linejoin: round; stroke:#000; fill: none;" version="1.1" viewBox="0 0 1000 1001" width="1000px" xmlns="http://www.w3.org/2000/svg" xmlns:xlink="http://www.w3.org/1999/xlink"><defs><style type="text/css"><![CDATA[path { fill-rule: evenodd; }]]></style></defs><metadata><views><view h="1001" padding="0" w="1000"><proj flip="auto" id="robinson" lon0="-94.6721993874"/><bbox h="0.38" w="0.72" x="-1273.74" y="-716.87"/></view></views></metadata><g class="" id="mylayer"><path d="M341.195144,236.948209L328.113256,266.439315L348.792927,266.325975L354.059732,266.280639L358.451416,266.257971L366.407357,266.212634L375.802573,266.144630L383.625516,266.144630L390.621032,266.144630L401.123027,266.167298L410.007780,266.189966L423.991164,236.404178L341.195144,236.948209Z M1000.000000,427.883529L933.466817,372.934894L980.073719,266.597992L978.870189,266.597992L953.460537,266.099294L900.808427,265.079230L884.819399,264.920554L875.917198,264.852550L861.008790,264.716541L823.205022,264.897886L798.032299,264.965890L760.017596,265.283243L702.355583,265.464588L610.676976,265.895281L589.266634,265.917949L517.419514,425.435312L445.957099,425.435312L380.425909,425.503318L398.945297,384.201138L333.268541,385.697260L330.126783,373.818965L329.420442,367.585136L328.034951,365.499639L327.145440,362.552741L325.230957,356.160245L324.797120,352.442626L324.405546,348.883688L317.051069,319.800216L317.981112,315.130552L328.007398,292.802353L327.176120,290.739549L329.384982,284.505804L325.049095,273.285080L304.675454,318.916153L294.126741,343.307267L280.714241,373.841634L273.599367,389.414899L270.021414,397.416898L261.564981,416.345181L256.804799,427.090125L212.569800,427.520830L77.491920,428.608926L72.066314,439.580579L58.485447,469.775394L50.126735,489.202617L42.310936,506.521688L3.409390,508.743247L5.862577,513.798432L20.153531,546.827255L0.000000,593.412482L3.226025,593.389813L11.246989,593.707183L20.188892,593.729853L30.842968,593.412482L38.996345,593.389813L43.152623,593.389813L53.449962,593.367144L75.645831,620.298329L94.928480,636.484301L117.094218,653.123707L112.583388,662.168853L86.248725,724.147737L74.772511,752.371691L115.213349,751.260866L129.228875,719.228395L136.489901,702.135412L139.605080,694.790432L158.360498,694.949120L228.317027,695.470522L327.983585,695.538531L321.166024,711.974073L317.105290,721.404693L312.151024,733.056971L299.584271,762.595822L447.003602,757.631109L443.631432,703.994328L436.419967,679.601767L474.718401,681.574024L499.477161,682.866193L519.537609,683.092889L521.038466,679.420410L528.028904,662.214192L535.769285,643.194465L540.818999,630.862278L547.956991,613.452175L550.333419,607.852842L556.724387,592.800411L562.450348,592.823081L582.035486,592.891089L583.739402,588.719940L594.953996,562.310286L570.066189,562.536978L572.524013,557.051038L596.692363,557.300399L608.445390,530.822875L676.690665,529.349386L685.523608,508.720578L779.597093,506.045639L807.745457,436.769658L811.156334,428.336902L850.634117,427.566167L866.722630,427.248806L906.812260,426.455402L975.260202,481.925902L981.985197,467.009796L997.193655,434.026744L1000.000000,427.883529Z "/></g><g fill="#000" font-family="Arial" font-size="12px" id="mylayer-label" stroke="none"><text text-anchor="middle" y="484.575903374"><tspan dy="0" x="467.878337233"><![CDATA[N]]></tspan></text></g></svg>