<?xml version="1.0" encoding="utf-8"?><!DOCTYPE svg  PUBLIC '-//W3C//DTD SVG 1.1//EN'  'http://www.w3.org/Graphics/SVG/1.1/DTD/svg11.dtd'><svg enable_background="new 0 0 1000 1001" height="1001px" pretty_print="False" style="stroke-linejoin: round; stroke:#000; fill: none;" version="1.1" viewBox="0 0 1000 1001" width="1000px" xmlns="http://www.w3.org/2000/svg" xmlns:xlink="http://www.w3.org/1999/xlink"><defs><style type="text/css"><![CDATA[path { fill-rule: evenodd; }]]></style></defs><metadata><views><view h="1001" padding="0" w="1000"><proj flip="auto" id="robinson" lon0="-95.5188541234"/><bbox h="0.15" w="0.18" x="-1292.76" y="-699.1"/></view></views></metadata><g class="" id="mylayer"><path d="M1000.000000,309.251929L960.132772,312.096087L924.848357,313.839282L850.681036,316.499947L828.626699,316.316453L714.373058,314.756752L629.172529,315.490729L631.864276,309.435423L651.182253,265.947419L707.279066,128.695312L734.997640,65.941600L353.796786,69.794887L272.574563,260.442621L247.430559,319.527602L178.427206,479.444040L109.656595,667.713654L0.000000,933.058400L192.926860,929.113046L341.112543,926.085217L381.250217,925.259445L423.749030,924.250169L657.025891,915.992459L691.959218,868.740130L751.880041,858.739178L766.905791,856.353632L784.158026,806.716035L959.104805,390.723606L1000.000000,309.251929Z "/></g><g fill="#000" font-family="Arial" font-size="12px" id="mylayer-label" stroke="none"><text text-anchor="middle" y="536.363192361"><tspan dy="0" x="491.659996752"><![CDATA[N]]></tspan></text></g></svg>