<?xml version="1.0" encoding="utf-8"?><!DOCTYPE svg  PUBLIC '-//W3C//DTD SVG 1.1//EN'  'http://www.w3.org/Graphics/SVG/1.1/DTD/svg11.dtd'><svg enable_background="new 0 0 1000 1001" height="1001px" pretty_print="False" style="stroke-linejoin: round; stroke:#000; fill: none;" version="1.1" viewBox="0 0 1000 1001" width="1000px" xmlns="http://www.w3.org/2000/svg" xmlns:xlink="http://www.w3.org/1999/xlink"><defs><style type="text/css"><![CDATA[path { fill-rule: evenodd; }]]></style></defs><metadata><views><view h="1001" padding="0" w="1000"><proj flip="auto" id="robinson" lon0="-99.0387476034"/><bbox h="0.35" w="0.34" x="-1351.55" y="-673.55"/></view></views></metadata><g class="" id="mylayer"><path d="M617.809686,0.000000L565.171487,129.771999L495.624670,297.330098L481.525565,331.265801L476.706743,342.802103L469.530942,342.802103L294.909466,342.129150L290.826512,352.079242L254.141749,441.391161L246.712606,459.705710L245.458099,462.734110L217.654390,531.378648L406.228909,529.215456L393.441384,561.326987L359.664655,640.597744L348.399635,667.037806L341.988110,682.805805L329.172919,717.370693L327.558899,721.649267L287.435765,826.548281L235.325693,847.461205L229.836230,849.672695L206.088701,857.412922L192.983231,861.162853L176.803764,864.528179L158.182315,867.220443L140.293540,869.095413L128.461973,869.768480L78.388185,869.287718L75.884685,874.191493L35.851278,972.316710L31.592759,977.364882L16.854811,985.153507L10.964968,999.000000L170.108275,993.182542L400.863460,990.682481L405.619513,979.287998L406.872934,976.355247L412.125845,963.951185L434.571063,910.873902L440.461551,896.835497L459.584625,896.931651L491.167139,897.123957L502.750659,869.143490L452.362172,868.470423L497.481416,760.541291L509.050456,731.648653L514.800635,718.428317L522.343616,700.592973L649.363094,700.833341L657.308607,700.689120L711.008575,701.266003L755.720651,701.362150L796.392212,701.217929L799.659336,692.660845L805.556690,677.085088L917.039253,408.463701L958.763917,305.261214L866.842507,304.444067L903.680727,216.001284L907.544145,206.676485L952.324150,96.319142L989.035032,2.403136L933.327665,2.018634L899.205859,1.682195L870.209029,1.441881L806.300643,1.153505L749.017489,0.480627L691.416866,0.288376L617.809686,0.000000Z " data-aland="2061870" data-awater="0" data-classfp="C1" data-funcstat="A" data-geoid="3105490" data-intptlat="+40.0937911" data-intptlon="-099.0383894" data-lsad="47" data-mtfcc="G4110" data-name="Bloomington" data-namelsad="Bloomington village" data-pcicbsa="N" data-pcinecta="N" data-placefp="05490" data-placens="02398140" data-statefp="31"/></g><g fill="#000" font-family="Arial" font-size="12px" id="mylayer-label" stroke="none"><text text-anchor="middle" y="467.569957781"><tspan dy="0" x="579.776858844"><![CDATA[Bloomington]]></tspan></text></g></svg>