<?xml version="1.0" encoding="utf-8"?><!DOCTYPE svg  PUBLIC '-//W3C//DTD SVG 1.1//EN'  'http://www.w3.org/Graphics/SVG/1.1/DTD/svg11.dtd'><svg enable_background="new 0 0 1000 1001" height="1001px" pretty_print="False" style="stroke-linejoin: round; stroke:#000; fill: none;" version="1.1" viewBox="0 0 1000 1001" width="1000px" xmlns="http://www.w3.org/2000/svg" xmlns:xlink="http://www.w3.org/1999/xlink"><defs><style type="text/css"><![CDATA[path { fill-rule: evenodd; }]]></style></defs><metadata><views><view h="1001" padding="0" w="1000"><proj flip="auto" id="robinson" lon0="-86.1354566479"/><bbox h="0.78" w="1.41" x="-1212.27" y="-555.72"/></view></views></metadata><g class="" id="mylayer"><path d="M1000.000000,625.368682L999.867728,614.239126L998.292747,614.536073L995.413790,614.975555L991.514125,615.284380L989.364793,615.605082L987.627485,615.949541L986.242419,616.317755L981.160315,618.158825L979.463777,618.610184L977.749613,618.942765L977.281946,619.014032L977.453249,612.279274L973.963452,613.134482L971.088324,613.633354L967.513937,613.146360L963.886677,612.303030L961.704413,611.495333L959.462837,610.355055L955.270183,607.480601L953.034306,605.841448L950.390076,604.606144L948.684540,603.620275L945.470636,600.627035L943.574618,598.726563L942.031456,596.921113L940.844540,594.830591L938.862820,590.673298L936.771527,589.236061L934.694464,588.297700L932.664130,587.775067L929.281485,588.345211L927.551352,589.141037L925.759872,590.530762L924.255936,592.146169L922.794639,593.310211L921.185327,593.476502L919.286818,592.835091L915.259652,590.269447L911.480138,588.701551L906.970143,586.373463L904.022696,584.235421L902.170485,581.622256L901.614846,579.555478L901.496139,576.538455L901.674735,569.043394L901.960123,565.895700L901.967272,563.223127L901.657009,560.324866L900.797345,556.476352L899.764502,552.568441L897.557696,546.118595L895.794190,543.766713L894.610367,541.628637L893.080653,537.863244L888.991065,529.465329L887.713000,526.388858L886.510924,523.656854L885.668061,519.416304L883.445444,513.025770L881.868635,507.597367L880.356789,504.354575L879.236770,502.679724L877.321217,501.183048L874.422334,500.042723L873.144367,499.722007L871.146525,499.888304L869.144042,500.292169L865.564647,501.551278L862.229985,503.083589L859.380291,504.627777L854.980134,507.407313L851.958832,509.474146L847.154785,513.192066L843.281472,515.829054L839.228740,518.062177L837.344690,518.727362L834.316434,518.394769L833.046315,517.824611L831.951326,516.755563L830.741855,514.712492L829.035793,511.671640L827.918084,508.298190L827.230457,505.910640L826.617456,504.497115L825.982578,502.062048L825.460446,499.211236L825.142827,496.194123L825.333033,493.141371L825.871809,489.280883L825.875345,487.724807L825.880171,485.135306L825.582365,482.890277L824.933971,481.607403L823.773583,479.861268L822.891565,478.043860L823.118126,476.547171L823.593698,474.646611L822.786039,474.171471L820.363683,474.801032L817.847478,474.931695L815.323572,474.539705L812.910030,473.446883L812.437707,471.772013L812.522536,470.797975L813.040127,469.550730L814.129422,468.362878L817.224543,465.583301L819.263420,463.575827L820.500017,461.734652L821.927415,458.087932L822.262948,456.116089L822.040565,454.144244L821.689563,452.279304L821.782183,450.248063L822.389654,448.228699L823.383350,446.328120L827.544480,440.757040L828.498979,439.331601L828.889961,437.632953L828.988774,433.154694L829.458443,430.137507L830.225478,426.538259L831.732102,422.820220L833.831285,419.672355L836.275357,416.465093L841.736433,410.656375L843.312431,408.886436L844.185189,407.211526L844.170937,405.097099L843.485443,403.731036L842.003300,403.208368L840.447046,402.958913L839.986031,401.830426L840.042684,399.454660L840.549846,394.940701L841.027847,392.113533L840.803320,391.068192L839.036327,389.832790L837.610216,390.058488L835.339939,390.604916L831.253317,392.374868L830.774758,391.531468L830.578646,390.307945L829.895225,388.787449L828.904788,388.288536L827.131731,388.324172L824.634647,388.751812L823.093633,388.336051L821.056137,386.114700L817.458113,379.913912L816.789633,377.787585L816.987926,376.065140L817.523736,373.392378L817.538014,371.503625L816.962768,370.208818L815.827001,369.401049L812.021569,369.032801L809.079675,369.080317L807.839017,368.438853L807.098214,366.799554L806.864894,364.281210L807.416001,362.249903L809.682046,356.357914L810.622874,354.065262L811.432762,353.613859L812.025251,354.184052L812.783890,355.170012L814.168097,355.098738L815.553462,354.362238L818.286651,351.154898L819.118204,349.705654L819.125217,348.541506L818.491108,346.949712L816.967115,345.369796L816.873332,343.659210L817.707829,342.566334L815.570856,340.344945L814.645805,339.715353L809.641988,337.375170L807.385777,336.401083L805.155646,335.771490L802.348277,335.213172L799.649031,334.880556L795.666379,335.165655L791.799756,335.830886L790.053384,336.686182L788.745075,336.698061L787.396040,336.199138L786.497074,335.914039L785.838375,336.175380L783.820078,337.885971L781.171213,339.644078L779.312615,340.582527L776.478579,340.012330L775.144781,339.347101L773.821821,339.192672L772.026808,339.786627L770.704129,340.879504L769.313763,342.221841L766.363973,343.326595L764.999394,344.573899L762.977282,347.436754L761.785586,348.303925L760.526204,348.612781L757.479430,348.018828L754.980884,348.672176L754.019790,349.313645L753.150701,350.644099L752.763039,351.558785L751.751547,352.128979L750.449384,352.485350L749.117332,353.245609L747.632914,356.072818L746.388186,358.163525L744.348797,359.731555L740.658262,361.620316L738.610375,362.962643L735.192645,365.718567L733.374215,369.115954L730.056700,371.539262L726.837927,373.451773L724.954125,374.152630L722.959272,375.079188L717.275361,378.476562L715.424669,379.165540L712.439404,379.593181L708.217312,380.246521L705.764756,380.840467L702.863001,381.327503L699.630136,381.933327L698.100587,382.503515L695.701072,383.489464L693.061580,384.772385L691.019838,385.651423L685.852461,386.447309L683.112732,386.447309L680.726088,386.174094L678.681978,385.556392L677.619477,384.368502L677.388853,382.574788L678.077411,377.062970L678.127806,374.710941L677.433646,373.487410L675.685796,372.548973L674.809090,371.741204L674.677239,370.244455L675.071069,368.058726L674.686643,366.538217L677.734659,362.024202L678.998753,360.669996L680.654019,359.636522L683.234092,355.965907L685.456966,353.281246L688.069591,349.123580L688.790753,347.163536L688.876619,346.700252L689.316207,344.419471L690.325390,343.160288L691.658069,341.663524L691.973741,338.848179L691.630992,336.733698L691.067907,334.476666L691.825722,332.528490L689.405749,331.827622L685.201238,333.003655L679.548615,334.963710L669.988670,336.270413L668.063888,335.617062L667.831935,333.241238L668.695945,329.249849L672.002588,324.260605L675.455678,320.530544L676.775044,316.990546L677.966919,305.954750L679.884480,297.567989L681.280365,291.176927L681.744055,286.532113L681.154614,282.647568L680.312417,277.895824L681.061235,273.595489L683.683890,266.539122L685.766456,260.444973L686.763354,255.194252L685.503356,251.321541L684.063771,247.413187L681.962900,243.445429L680.687188,239.263833L678.564914,237.576938L674.959656,236.472139L669.062686,236.139512L665.092829,233.882395L663.904790,231.506481L663.100540,227.716893L661.951866,224.865789L659.886689,223.665949L657.493483,223.380838L653.834943,223.903541L641.170554,226.481415L636.137169,232.361810L633.313741,235.973198L629.063499,238.895567L625.162798,241.924849L622.502869,245.631260L619.885513,248.850606L615.437638,249.088196L612.692307,244.669019L610.925320,242.150560L606.802475,241.924849L603.207430,244.562104L601.576750,248.660534L598.717902,250.347423L598.307071,254.172617L598.073277,257.712698L596.020553,260.943909L591.061567,263.688060L585.321907,265.161109L578.721976,266.610399L573.787467,268.273517L569.119032,273.690524L565.442613,286.389561L563.608248,289.513823L557.515535,292.911306L553.437528,296.593888L551.442670,301.630701L549.123355,305.146961L545.473897,307.617844L541.796044,309.863019L535.972517,311.644902L531.799523,313.438664L529.150445,315.600680L527.071739,318.891217L522.752471,326.802744L518.041883,330.687225L516.048569,333.039293L515.271690,337.149467L511.917436,341.616007L508.326603,347.614940L506.963955,352.782326L507.313820,356.595495L506.839313,362.344935L501.614533,366.692644L496.540968,370.850282L489.014643,373.546804L480.891744,375.981987L479.765290,377.526248L478.929547,378.476562L475.874317,377.253033L471.636790,375.613740L471.001535,375.494951L469.305564,375.209856L467.624499,375.530587L465.920549,376.302718L463.900146,376.956060L461.605520,376.967939L460.240060,376.896665L458.544353,377.051091L456.841590,377.561885L451.848994,379.842638L450.150352,380.044580L448.600596,379.771365L446.442855,379.058630L444.101376,378.619109L442.559840,378.132073L441.836111,377.751948L439.225293,370.339487L441.237845,365.457230L438.962895,358.496137L440.109921,353.756407L442.914263,349.040427L443.381725,345.262885L443.027941,340.950778L432.294225,335.937798L424.488424,321.754100L416.499524,323.108325L409.478934,323.060809L407.110808,323.013292L397.605363,323.678525L389.521371,326.006841L384.600714,330.627829L379.870067,338.622476L375.262187,342.495060L369.761333,343.124651L364.596864,345.928113L361.307554,349.824444L354.116335,350.038267L345.035425,346.130057L338.449799,346.902196L330.356102,351.321204L321.652276,356.262882L322.256842,357.925945L322.456986,360.087925L322.152982,363.556592L321.675728,367.773630L321.010689,369.306017L316.185336,373.796262L314.293122,375.518709L312.368420,376.920423L310.578283,377.716311L308.147981,377.787585L302.929105,377.158001L300.738484,377.300549L298.793751,377.051091L297.192752,376.599692L296.257854,375.566224L296.271812,374.010083L295.908828,373.475531L294.909631,373.523046L291.024932,374.841609L288.511896,375.768166L286.046892,376.884786L282.788583,378.868567L280.918160,379.593181L279.475889,379.878275L278.645286,379.011114L277.848325,378.607230L276.452305,379.272450L275.552346,380.092095L274.645938,380.935498L273.065585,381.802659L270.860859,382.254058L268.272257,382.871761L266.712743,383.441948L264.946901,384.368502L263.089903,385.520755L260.981097,387.563924L259.194612,389.630849L255.786255,394.406152L254.143148,395.724705L249.430158,398.920113L248.074235,400.024844L246.606901,401.723516L245.539235,403.564733L244.269754,404.681341L242.715820,405.120857L241.713926,405.655403L241.144440,407.092738L240.319320,409.765466L239.121608,411.131526L235.576458,412.960858L234.461095,414.243765L233.178319,416.583881L231.819106,418.508238L224.604440,423.616095L222.383217,424.898997L219.795077,426.799591L214.446206,430.612654L211.730906,432.394458L208.887896,433.582326L206.782166,434.366319L204.481531,435.684852L202.136306,437.644832L200.080004,439.604810L198.995965,441.469758L198.678166,443.631671L198.682959,446.256848L197.985129,448.240578L196.531898,450.034248L193.465214,452.706934L191.193895,453.954186L188.776699,454.417451L186.413413,454.975745L183.652749,456.080453L181.099484,458.182961L179.730374,459.703418L178.352174,461.330781L176.778839,462.649300L172.951807,464.526111L170.912591,465.321973L168.338241,467.281932L165.576927,469.526973L163.377095,470.988031L158.913849,473.850752L157.315601,475.371200L155.410230,477.509328L153.092538,480.395799L150.928446,482.165691L148.202933,483.507957L140.816723,486.715140L138.581743,487.938619L136.244476,489.649114L133.930958,491.015134L131.430218,491.822867L128.966121,492.238612L127.306094,492.701870L125.011043,493.889712L122.285219,495.600203L120.487151,496.645502L118.609119,496.847435L116.042488,496.502962L114.647410,495.659595L113.419681,494.162915L111.656906,492.214855L110.677037,491.787231L109.237668,492.024800L107.482670,493.058222L105.771895,494.626173L104.465832,495.326999L102.992475,495.469540L101.786352,495.802136L100.788250,496.799922L99.561205,499.852669L99.309424,501.551278L98.257995,502.525305L96.274189,502.382765L95.218692,502.454035L93.523474,503.487453L92.575175,504.889101L91.052480,507.929961L90.568933,509.307850L90.142817,510.804521L90.161234,512.241800L91.893892,513.346484L92.095186,513.999792L91.663821,514.855032L90.167276,516.221038L87.507682,517.907759L86.878851,517.361357L86.576172,516.494240L85.691808,516.375457L80.886032,518.774875L78.318451,520.342811L76.259289,521.542519L74.055969,522.172068L73.432688,522.302730L71.588491,529.465329L58.526543,576.241503L37.474614,648.803553L34.975616,657.391141L27.881598,680.457530L27.006693,683.462560L25.547165,688.439262L23.025339,697.038603L3.702746,762.993690L2.262917,767.898984L0.000000,775.619162L97.989863,775.049057L118.049450,774.930285L190.224097,774.502707L191.791644,774.490829L193.365936,774.490829L196.119184,774.478952L198.865689,774.455198L199.981642,774.455198L201.097596,774.455198L250.389778,774.562092L250.429633,774.562092L255.095945,774.550215L256.351392,774.550215L258.599703,774.526461L260.057648,774.514584L276.191765,774.431443L276.789598,774.431443L292.335846,774.348303L341.727529,774.051373L380.003661,773.849461L414.350806,773.659426L492.862403,773.231847L501.345010,772.079760L501.614035,772.079760L509.870858,772.091637L527.035376,772.103514L586.948394,772.139146L595.514098,772.151023L600.306717,772.151023L681.027811,772.210409L702.656141,772.222286L703.353612,772.222286L704.051082,772.222286L746.420959,772.246040L813.906519,772.281672L879.127170,771.960988L942.674094,772.044128L945.430729,770.143776L948.414876,768.433458L951.380342,766.865666L968.008742,759.513658L971.603673,756.247412L982.386552,737.481269L986.295988,723.050254L986.361535,713.797736L992.952190,694.473056L986.907586,675.706487L986.724475,668.366110L996.590226,638.980649L1000.000000,625.368682Z "/></g><g fill="#000" font-family="Arial" font-size="12px" id="mylayer-label" stroke="none"><text text-anchor="middle" y="568.501314779"><tspan dy="0" x="506.351161133"><![CDATA[N]]></tspan></text></g></svg>