<?xml version="1.0" encoding="utf-8"?><!DOCTYPE svg  PUBLIC '-//W3C//DTD SVG 1.1//EN'  'http://www.w3.org/Graphics/SVG/1.1/DTD/svg11.dtd'><svg enable_background="new 0 0 1000 1001" height="1001px" pretty_print="False" style="stroke-linejoin: round; stroke:#000; fill: none;" version="1.1" viewBox="0 0 1000 1001" width="1000px" xmlns="http://www.w3.org/2000/svg" xmlns:xlink="http://www.w3.org/1999/xlink"><defs><style type="text/css"><![CDATA[path { fill-rule: evenodd; }]]></style></defs><metadata><views><view h="1001" padding="0" w="1000"><proj flip="auto" id="robinson" lon0="-90.0595076457"/><bbox h="0.13" w="0.24" x="-1253.78" y="-599.87"/></view></views></metadata><g class="" id="mylayer"><path d="M1000.000000,440.078139L984.558488,439.789846L974.484677,439.645699L903.848699,439.789846L691.705452,440.222286L621.010643,440.366432L623.121282,430.059949L629.497636,398.996310L631.630511,388.617726L638.987562,360.869393L603.662062,361.157688L470.463560,362.166719L470.803721,360.869393L483.765865,312.219599L502.578019,241.298739L506.422385,227.460485L505.422349,227.460485L469.056199,225.586554L456.902323,224.937885L453.167327,224.649588L442.609423,223.784697L441.903515,223.784697L438.131862,223.424325L435.150459,225.658628L426.169594,232.289461L423.151534,234.451688L356.758478,284.110761L354.182046,285.984685L285.175993,337.445437L209.207206,393.374578L157.015438,431.861782L133.216356,449.375590L111.736232,465.087550L90.337109,480.727421L88.689998,485.700464L83.829679,500.547511L82.204748,505.448475L74.358944,530.385708L50.704451,605.197167L48.170849,613.053070L42.763540,630.062167L11.233438,726.278532L0.000000,760.512676L110.218067,762.314470L206.501702,763.900050L279.563813,765.053198L284.600816,765.125270L316.405135,764.620768L411.678267,763.179332L443.445913,762.602758L465.284608,763.323476L515.403211,765.053198L534.675663,765.701844L663.273820,770.098222L731.216405,772.404518L782.511614,774.134240L803.114961,774.854957L813.776458,775.575675L825.545601,735.575812L853.968479,638.927071L904.938504,641.521676L937.629437,643.107267L941.095752,630.494602L954.842369,586.170009L980.889131,501.844825L993.802112,460.042427L996.010711,453.051326L1000.000000,440.078139Z "/></g><g fill="#000" font-family="Arial" font-size="12px" id="mylayer-label" stroke="none"><text text-anchor="middle" y="556.55979626"><tspan dy="0" x="477.407948839"><![CDATA[N]]></tspan></text></g></svg>