<?xml version="1.0" encoding="utf-8"?><!DOCTYPE svg  PUBLIC '-//W3C//DTD SVG 1.1//EN'  'http://www.w3.org/Graphics/SVG/1.1/DTD/svg11.dtd'><svg enable_background="new 0 0 1000 1001" height="1001px" pretty_print="False" style="stroke-linejoin: round; stroke:#000; fill: none;" version="1.1" viewBox="0 0 1000 1001" width="1000px" xmlns="http://www.w3.org/2000/svg" xmlns:xlink="http://www.w3.org/1999/xlink"><defs><style type="text/css"><![CDATA[path { fill-rule: evenodd; }]]></style></defs><metadata><views><view h="1001" padding="0" w="1000"><proj flip="auto" id="robinson" lon0="-95.2920068436"/><bbox h="0.3" w="0.22" x="-1257.71" y="-769.42"/></view></views></metadata><g class="" id="mylayer"><path d="M582.379804,0.000000L573.452147,19.196514L502.840648,170.204493L671.913088,171.295191L674.281992,171.404261L664.948711,191.091342L663.565766,194.036221L662.208432,196.926565L661.242468,198.889817L660.346117,200.798535L653.119453,215.250241L645.522406,229.647397L637.141260,244.589883L628.320117,259.532353L616.855151,277.855942L604.737397,296.070438L603.512533,295.961369L588.470769,295.852300L444.744852,294.379872L411.043315,295.306956L405.155700,310.467506L397.641411,326.936861L375.043614,376.181201L367.511099,392.595941L330.426977,473.251460L219.136655,715.215079L182.012559,795.868638L176.536811,807.811212L160.065695,843.638871L154.571635,855.526870L126.706619,887.973419L125.227154,889.718441L138.945765,889.554846L214.239668,889.554846L207.311918,904.496589L193.412514,934.380026L177.322469,969.116709L163.423362,999.000000L189.387095,999.000000L218.148830,998.945469L252.737804,998.945469L287.370783,998.945469L316.531772,998.509217L323.996720,982.422417L354.222567,917.202511L361.943757,900.570293L363.684831,896.862124L367.225395,889.227654L432.349164,888.300611L587.323903,886.173865L599.043838,885.955737L643.534060,790.633533L754.783512,548.725823L783.546035,487.375669L824.596362,399.576289L828.086100,392.050601L831.612639,384.633977L851.454896,342.751785L874.772846,293.561856L778.056021,294.870681L662.227495,296.397644L650.024271,296.615781L644.252680,296.724850L641.300525,296.452178L638.685962,296.397644L629.232561,296.288575L626.119536,296.452178L611.752246,296.124972L624.290913,277.201529L636.063180,258.223524L647.182669,239.136423L657.554161,220.049295L667.203273,200.907604L668.169235,198.944352L669.091195,196.981100L670.474136,194.036221L671.901081,191.091342L694.588508,143.155158L697.661766,136.610956L761.800482,1.254319L582.379804,0.000000Z " data-aland="1152354" data-awater="0" data-classfp="C5" data-funcstat="A" data-geoid="2709964" data-intptlat="+45.9734797" data-intptlon="-095.2923277" data-lsad="25" data-mtfcc="G4110" data-name="Carlos" data-namelsad="Carlos city" data-pcicbsa="N" data-pcinecta="N" data-placefp="09964" data-placens="02393746" data-statefp="27"/></g><g fill="#000" font-family="Arial" font-size="12px" id="mylayer-label" stroke="none"><text text-anchor="middle" y="555.104472013"><tspan dy="0" x="505.158796076"><![CDATA[Carlos]]></tspan></text></g></svg>