<?xml version="1.0" encoding="utf-8"?><!DOCTYPE svg  PUBLIC '-//W3C//DTD SVG 1.1//EN'  'http://www.w3.org/Graphics/SVG/1.1/DTD/svg11.dtd'><svg enable_background="new 0 0 1000 1001" height="1001px" pretty_print="False" style="stroke-linejoin: round; stroke:#000; fill: none;" version="1.1" viewBox="0 0 1000 1001" width="1000px" xmlns="http://www.w3.org/2000/svg" xmlns:xlink="http://www.w3.org/1999/xlink"><defs><style type="text/css"><![CDATA[path { fill-rule: evenodd; }]]></style></defs><metadata><views><view h="1001" padding="0" w="1000"><proj flip="auto" id="robinson" lon0="-75.3842259002"/><bbox h="0.76" w="0.82" x="-1036.2" y="-650.15"/></view></views></metadata><g class="" id="mylayer"><path d="M1000.000000,36.056654L997.836032,36.264088L983.813471,36.222601L956.970949,37.902819L909.739438,44.063631L877.501723,50.224461L837.469104,59.745776L809.121917,68.146972L786.681396,76.548199L788.066355,82.709120L793.195230,113.845890L787.579016,136.872034L770.715524,205.951915L765.452941,227.423131L765.066971,228.979024L754.908123,227.630583L747.109593,226.614067L744.760068,226.302888L705.096945,221.095843L697.305438,219.477719L696.361508,215.266455L696.109677,214.166964L696.171181,204.541253L694.975475,194.148021L693.985053,194.832604L691.025876,196.844863L690.024669,197.508701L688.531034,198.649674L680.184464,203.441767L672.851055,208.337595L671.694129,208.669516L669.655236,208.793986L665.222666,206.968422L658.672905,203.918902L631.997259,191.451183L630.767942,191.222989L629.324105,191.326713L628.366509,191.783101L627.040321,192.695877L624.931540,195.081543L608.866653,218.564932L596.386851,237.484595L595.685952,238.272917L594.529020,238.604843L589.911987,237.816520L588.703742,237.920247L587.525588,238.729315L579.256151,252.151594L558.636658,285.552056L557.280162,287.377686L556.793784,287.834094L555.902675,288.062298L555.440942,288.145281L552.878542,288.622435L545.929682,289.887930L545.173205,290.116134L543.609763,290.572542L542.568024,291.028951L546.644689,274.494580L549.448644,263.022248L527.300381,263.084484L521.472479,273.498787L512.633186,289.224063L509.908181,277.378232L501.735179,241.778883L501.169478,239.330930L498.999862,229.912561L495.115673,230.825353L486.025882,219.975603L472.182230,203.379532L463.515114,192.986306L463.298745,188.069767L444.023226,224.415074L418.012521,248.936048L415.396166,245.035909L441.629799,219.519210L452.127117,201.284287L461.815630,184.439418L484.998165,186.659116L488.613765,184.646867L484.713439,167.656913L481.826293,155.044188L472.537471,116.936773L468.422765,100.051064L466.386807,91.794954L460.554588,68.333665L460.274544,66.985323L458.478356,58.542645L450.084237,60.782959L424.907898,67.483172L418.596519,69.910190L396.333839,116.086261L388.956478,126.499867L387.333024,125.545630L387.095317,125.379676L386.383506,124.819580L386.135017,124.632882L379.539279,113.949611L373.039212,109.634828L357.814994,107.249255L350.017165,109.406643L348.137658,110.485338L347.651352,96.856485L344.132652,97.727733L219.188258,127.951967L205.152179,83.974496L204.381595,81.423000L154.635250,130.026398L154.004341,137.847020L148.404692,172.697875L141.334539,217.735126L202.310014,216.448928L187.534018,247.629086L186.084623,250.927611L181.692031,260.802472L180.231876,264.080272L177.059458,271.154528L167.560501,292.315193L164.041957,300.115646L150.375213,300.986975L135.854914,301.899796L135.390204,303.725440L135.158344,304.347819L134.572896,305.779291L120.724122,306.235702L107.294134,305.717053L73.390606,304.306327L59.078968,304.098867L55.170416,307.231510L46.791037,315.426191L42.936353,320.799429L39.054521,327.998344L35.089173,338.371461L1.658976,412.727395L0.000000,416.399614L3.470464,415.694216L5.251445,415.300022L7.791887,415.071805L10.670571,415.300022L17.709075,418.868510L17.870022,418.951499L20.313620,419.864369L22.101821,420.196321L23.767952,420.196321L25.631775,419.864369L27.232846,419.221210L18.023966,439.449670L36.576659,437.001498L26.614898,451.669825L60.472865,451.566088L62.779314,448.848187L63.391332,448.018295L64.292529,446.773456L64.656739,446.794203L65.738581,446.835698L66.092005,446.835698L67.088397,446.939434L70.089660,447.209149L71.075266,447.292139L67.571305,450.134522L66.642963,451.068152L73.327235,452.271498L70.063074,456.254994L68.245636,458.391976L40.586944,497.646427L51.049941,497.895400L66.232968,499.389241L75.260614,500.405883L82.202199,501.650752L90.861806,507.397905L109.456481,523.643547L111.818929,520.386110L144.424652,478.703785L149.324850,472.396523L163.410934,454.429224L168.986483,444.532749L185.673704,414.864335L191.238653,404.947290L195.229885,398.121567L207.197667,377.665273L211.178201,370.818888L211.440123,370.901874L213.326675,371.358299L219.790233,372.914294L221.944755,373.432959L224.031959,373.951625L230.389811,375.466128L235.390643,376.150767L237.209053,376.378980L238.580416,376.524207L243.283534,376.959886L248.535150,377.188100L258.917944,384.470185L260.485480,385.963949L261.705644,387.436968L266.534608,396.337339L267.247394,397.125719L268.830109,398.163061L270.228631,398.619492L276.193068,399.636088L279.145023,400.652684L279.512669,400.777165L283.709922,402.602891L286.824134,403.640235L295.534028,404.013679L294.053607,406.669284L289.613667,414.573877L288.122473,417.208748L282.103213,434.117638L268.561021,472.002320L264.759304,484.824336L259.744450,501.754491L254.514038,517.460645L207.830346,525.946579L187.819872,526.465280L176.863533,526.465280L170.131120,525.946579L156.661721,570.638318L156.059257,572.360441L155.474922,574.020320L160.738499,571.260772L190.892132,573.709093L196.730492,572.443435L210.607655,567.961768L246.005430,556.446415L246.389467,565.762435L246.026975,569.434908L245.231679,577.194842L245.763031,606.699440L247.234418,614.189770L249.834680,619.190253L283.795013,650.189352L287.890336,654.795681L275.417488,664.340356L240.452681,691.252411L241.075562,692.870880L242.660553,691.646654L246.911431,696.875557L245.202186,698.411031L240.732544,702.664715L227.568926,712.790590L208.106385,727.730490L212.882738,730.344982L198.276781,739.412731L197.827989,739.682481L199.919117,734.059227L195.623352,729.909233L178.282204,743.458992L186.905022,749.165271L186.988779,749.455772L188.663161,755.846822L192.903226,771.928279L197.689598,774.335320L209.520924,780.352934L216.804852,785.976305L227.194341,791.454436L228.232342,791.993950L232.792518,788.238108L237.755361,781.826214L240.026002,782.988239L244.023044,785.042534L272.436672,750.389529L293.329273,724.057755L294.575745,725.095250L327.709698,805.046071L326.431164,814.819648L282.955072,834.491437L271.607406,927.706531L283.622175,908.448954L286.835944,904.402393L289.296045,903.178051L307.010387,895.977271L319.568875,891.225183L330.892320,888.693508L333.014921,889.150039L336.761933,889.461311L338.111360,889.046282L341.529921,887.593682L424.214742,852.731574L424.881956,852.752325L426.833105,852.814578L427.483488,852.835329L428.214549,852.752325L428.974514,852.627818L430.426199,852.150543L431.171891,851.901530L436.628489,862.941135L452.998985,896.060277L458.462086,907.079348L459.054569,908.282941L460.832024,911.893724L461.430548,913.076568L466.330231,922.850618L466.820808,923.825950L472.924663,936.173277L474.169713,938.663503L480.877072,952.235280L485.720593,962.030253L487.655017,960.992648L493.453527,957.838332L494.537453,957.236522L495.117648,957.672315L496.304394,958.626910L499.864639,961.490699L501.051390,962.445296L508.570067,962.694321L516.206566,962.943346L523.064393,948.043377L525.490974,948.728192L532.370584,950.595872L532.737061,950.782640L533.848562,951.301440L534.221074,951.467456L555.542219,954.434995L561.021996,955.617862L584.926014,941.195235L598.751294,922.767611L590.235061,894.234146L589.577351,890.187611L589.132680,886.971140L588.557875,882.986873L588.473838,877.778284L588.431093,876.304940L588.161395,873.586520L590.921835,872.486702L599.210462,869.104246L602.231958,867.859172L597.694551,847.813570L598.411330,847.606060L599.467288,847.274043L599.823298,847.149537L602.741257,846.028981L603.013110,845.904475L611.525657,842.273047L612.318351,841.920280L614.297938,840.322455L615.667421,839.201902L621.988665,833.267133L624.072724,831.773068L626.240238,830.860029L628.545184,830.631769L631.100970,830.756274L636.584566,832.561602L644.448104,836.774040L649.132994,838.952890L663.636913,843.829373L665.997357,844.451903L674.049805,846.568508L676.339787,846.796769L679.469124,846.859022L665.186557,851.984535L622.350844,867.319640L613.692286,870.411575L607.887835,872.486702L610.924158,884.211204L615.696195,881.866299L617.861493,880.787228L625.627727,876.885977L628.509221,883.298143L623.577124,885.788310L616.859882,889.150039L617.311104,889.855588L617.583555,890.249865L616.998726,892.781543L616.747454,893.819116L616.586713,894.545418L616.481564,895.022702L627.528060,911.499443L628.323512,912.931306L631.179230,917.870205L633.144832,922.165810L635.021862,926.129396L637.171334,931.587119L640.570742,939.576586L643.160745,945.719157L740.301261,903.157299L742.316310,902.015964L730.897398,883.982939L729.717040,882.717105L728.490618,881.783293L726.943129,880.911736L724.526718,880.828731L739.013117,875.059862L738.819449,874.105302L738.680370,873.773281L737.367400,855.138702L736.244672,839.554668L751.566432,795.500792L758.638442,775.123834L754.993764,764.914675L744.078399,734.225227L740.423301,723.995505L728.385665,732.627479L692.239136,758.523599L680.190733,767.134956L673.236897,761.532382L671.581236,760.743873L670.181154,760.349619L668.865227,759.955364L663.261258,759.374358L661.575415,758.689601L657.452365,755.390318L654.554321,751.178034L652.905439,747.878763L651.170405,743.313742L650.843142,738.769480L651.104648,730.697732L651.515024,718.123293L651.655960,715.093818L660.164064,708.412389L682.216635,691.044916L686.263976,687.662735L687.690664,689.758441L687.785986,689.488697L688.115500,688.471968L688.769927,687.206245L689.652664,686.023521L691.929095,683.637325L694.130507,681.624622L697.566819,678.491450L698.196344,677.889716L699.205125,676.852243L700.967661,674.901795L702.433287,672.930599L703.266821,671.685634L706.228450,663.821623L706.331097,663.468884L707.656770,658.219309L709.462390,658.260808L714.880535,658.323056L715.806213,658.323056L716.693477,658.281557L717.637270,658.219309L716.650265,655.480406L713.501069,646.869481L701.105239,612.778847L696.958710,601.408503L704.694191,598.192448L727.907935,588.461320L735.632608,585.224536L748.408716,580.244877L752.897429,578.584994L758.466243,576.510141L776.882420,570.078110L786.559469,567.650542L789.476632,567.111082L790.503272,567.111082L793.438881,572.464184L795.700634,579.207450L796.572279,581.821768L798.198329,578.605742L799.588870,576.198913L801.287396,572.733914L805.853570,566.239648L820.035518,546.715469L841.385305,517.253165L861.245724,487.127328L874.527641,466.939926L877.526218,464.906673L886.454632,458.806924L889.442420,456.752931L887.746487,456.566204L940.393540,386.897553L955.768358,370.507689L956.395323,368.412285L956.645589,367.437196L956.626145,365.943445L956.146269,364.470441L955.347502,363.225649L944.571001,350.819267L910.055271,310.882807L911.523386,308.268809L941.349050,254.516579L929.610518,262.462117L929.375863,254.889998L929.222945,251.197302L938.810155,246.882250L938.580715,245.243363L937.927266,231.136532L948.734349,226.966736L949.318591,222.361299L963.932414,213.731317L975.200184,174.647879L940.817203,184.128246L931.689713,186.576137L935.026129,179.398430L947.444958,152.368142L990.481155,57.401745L1000.000000,36.056654Z M910.055271,310.882807L904.481203,303.787678L896.934855,294.161574L898.981154,293.145027L899.798035,292.709364L902.243933,291.360884L903.050028,290.904476L901.696529,287.751111L897.648175,278.249552L896.265799,275.137696L895.113791,273.083874L899.674673,269.847552L904.673003,290.012405L907.419067,301.443386L908.042499,304.098867L910.055271,310.882807Z M234.588172,716.546305L248.217863,706.669410L260.985272,724.099255L262.878432,726.962742L267.618467,742.193238L252.848323,751.883539L241.590831,736.839728L234.588172,716.546305Z M243.828262,199.064574L238.085362,180.373435L274.648016,168.154785L289.080697,179.896305L291.297568,179.045769L293.217058,178.464915L338.912049,162.512240L339.511031,162.304794L341.670050,161.537243L341.421470,164.814895L338.042922,165.955851L337.613537,166.101063L335.173166,166.910105L332.902393,167.656913L311.860966,175.643627L309.746382,176.431928L301.267790,179.481409L300.024071,179.937794L296.315787,181.286206L295.061285,181.721847L286.239554,185.082508L284.678711,185.414426L284.285604,185.435170L243.828262,199.064574Z M467.214928,710.674112L472.396608,674.652801L495.443687,650.749581L523.929645,633.776790L531.434145,632.511098L533.322197,650.542088L530.930789,662.286172L525.356916,662.701159L523.647907,668.573225L527.185288,668.158238L528.195122,668.158238L526.422832,671.934627L523.814008,677.370979L523.293121,680.317404L523.468334,683.243084L525.458181,685.774526L527.494687,685.774526L519.529639,697.933789L508.406491,704.635937L467.214928,710.674112Z "/></g><g fill="#000" font-family="Arial" font-size="12px" id="mylayer-label" stroke="none"><text text-anchor="middle" y="459.098120149"><tspan dy="0" x="515.337264777"><![CDATA[N]]></tspan></text></g></svg>